<svg xmlns="http://www.w3.org/2000/svg" viewBox="0 0 62.45 28.1"><path d="M43.89,14.88l-.22-.26.09-.33,9.06-1.94.12.58Z"/><text transform="translate(29.62 8.58)">S</text><path d="M36.71,8.77l.4-.44,6.65,6-.09.33-.36.07Z"/><path d="M20.84,12.37l-.34-.15,0-.33,7.86-4.56.31.51Z"/><path d="M23.76,26l-.49.55-3-14.14.27-.22.34.15Z"/><path d="M26,23.85l-.59.13-2.23-10.4.59-.12Z"/><path d="M37.65,27.46l.38.64L23.27,26.58l.49-.55Z"/><path d="M43.31,14.69l.36-.07.22.26L38,28.1l-.38-.64Z"/><path d="M40.27,15.17l.54.24-4.3,9.72L36,24.89Z"/><path d="M10,7.89l.24-.55,10.26,4.55,0,.33-.27.22Z"/><circle class="connection_in" cx="5.24" cy="5.95" r="4.74"/><circle class="connection_out" cx="57.1" cy="11.51" r="4.85"/></svg>