<svg xmlns="http://www.w3.org/2000/svg" viewBox="0 0 93.52 54.77"><text transform="translate(64.54 30.18)">O</text><text transform="translate(52.07 8.58)">O</text><text transform="translate(24.01 47.49)">O</text><path d="M80.9,19.75v-.7l12.62,7.29-.3.52Z"/><path d="M73.12,24.24l-.3-.52,8.08-4.67v.7Z"/><path d="M56,19.75v-.7l8,4.65-.3.52Z"/><path d="M54.36,10.36H55v9.79h-.6Z"/><path d="M57,10.36h.6v9.79H57Z"/><path d="M43.77,26.78l-.28-.18,0-.34L56,19.05v.7Z"/><path d="M30.41,21.11l-.15-.73,13.21,5.88,0,.34-.32.19Z"/><path d="M21.07,31.48l-.37,0-.12-.31,9.68-10.75.15.73Z"/><path d="M24.11,32l-.45-.4,7.12-7.9.44.4Z"/><path d="M10,30.62,10,30l10.54,1.11.12.31-.19.29Z"/><path d="M25.47,39.11l-.52.3-4.44-7.68.19-.29.37,0Z"/><path d="M41.71,40.67l.27.25-.08.33L33,43.14l-.13-.58Z"/><path d="M42.3,40.8l-.32.12-.27-.25,1.46-13.88.32-.19.28.18Z"/><path d="M39.9,38.81l-.6-.06,1.12-10.58.59.06Z"/><path d="M48.3,46.21l-.4.44-6-5.4.08-.33.32-.12Z"/><circle class="connection_in" cx="51.22" cy="49.53" r="4.74"/><circle class="connection_in" cx="5.24" cy="29.81" r="4.74"/></svg>