<svg xmlns="http://www.w3.org/2000/svg" viewBox="0 0 64.6 53.5"><text transform="translate(37.13 9.5)">O</text><text transform="translate(49.6 31.1)">OH</text><text transform="translate(0 45.5)">N</text><path d="M42.62,21.07H42V11.28h.6Z"/><path d="M40,21.07h-.6V11.28H40Z"/><path d="M49.07,24.62l-.3.52L41,20.67V20Z"/><path d="M28.85,27.69l-.3-.17v-.35L41,20v.7Z"/><path d="M16.08,20.67v-.35l.3-.17,12.17,7v.35l-.3.17Z"/><path d="M15.93,23.57l.3-.52,9.88,5.71-.3.52Z"/><path d="M15.78,11.09h.6v9.06l-.3.17-.3-.17Z"/><path d="M3.91,27.69l-.6-.34,12.47-7.2.3.17v.35Z"/><path d="M3.91,36.69h-.6V27.35l.6.34Z"/><path d="M6.5,36.69H5.9V29h.6Z"/><path d="M16.08,48.78v.69l-7.62-4.4.3-.52Z"/><path d="M28.25,41.75l.3.17v.35l-12.47,7.2v-.69Z"/><path d="M25.81,40.17l.3.52-9.88,5.7-.3-.52Z"/><path d="M28.85,41.75l-.3.17-.3-.17V27.69l.3-.17.3.17Z"/><path d="M36.08,45.92l-.3.52-7.23-4.17v-.35l.3-.17Z"/><circle class="connection_in" cx="16.08" cy="5.24" r="4.74"/><circle class="connection_in" cx="40.03" cy="48.26" r="4.74"/></svg>