<svg xmlns="http://www.w3.org/2000/svg" viewBox="0 0 56.74 52.55"><text transform="translate(48.96 28.61)">O</text><text transform="translate(0 15.33)">N</text><path d="M41,33.7V33l7.71-4.44.3.52Z"/><path d="M41.17,30.62l-.3-.52,6.56-3.79.3.52Z"/><path d="M28.55,26.5v-.35l.3-.17L41,33v.7Z"/><path d="M16.38,33.52l-.3-.17V33l12.17-7,.3.17v.35Z"/><path d="M16.38,42.57h-.6v-9l.3-.17.3.17Z"/><path d="M3.31,26.32l.6-.34,12.17,7v.35l-.3.17Z"/><path d="M6.05,24.91l.3-.52,9.88,5.71-.3.52Z"/><path d="M3.31,16.87h.6V26l-.6.34Z"/><path d="M16.08,4.2v.7L8.8,9.1l-.3-.52Z"/><path d="M15.93,7.28l.3.52L10.1,11.34l-.3-.52Z"/><path d="M28.55,11.4v.35l-.3.17-12.17-7V4.2Z"/><path d="M28.25,11.92l.3-.17.3.17V26l-.3.17-.3-.17Z"/><path d="M25.66,13.25h.6v11.4h-.6Z"/><path d="M35.75,7.25l.3.52-7.2,4.15-.3-.17V11.4Z"/><circle class="connection_in" cx="39.97" cy="5.24" r="4.74"/><circle class="connection_in" cx="15.78" cy="47.31" r="4.74"/></svg>