<svg xmlns="http://www.w3.org/2000/svg" viewBox="0 0 168.34 35.67"><text transform="translate(24.56 14.39)">S</text><path d="M155.72,35.67V35L168,27.86l.3.52Z"/><path d="M143.25,28.47v-.69L155.72,35v.69Z"/><path d="M130.78,35.67V35l12.47-7.2v.69Z"/><path d="M118.31,28.47v-.69L130.78,35v.69Z"/><path d="M105.84,35.67V35l12.47-7.2v.69Z"/><path d="M93.37,28.47v-.69L105.84,35v.69Z"/><path d="M80.9,35.67V35l12.47-7.2v.69Z"/><path d="M68.43,28.47v-.69L80.9,35v.69Z"/><path d="M56,35.67V35l12.47-7.2v.69Z"/><path d="M43.47,28.46v-.34l.29-.18L56,35v.69Z"/><path d="M30.25,34.34l.16-.72,12.75-5.68.32.18v.34Z"/><path d="M20.57,23.59l.12-.31.37,0,9.35,10.38-.16.72Z"/><path d="M23.66,23.14l.44-.4,7.12,7.91-.45.4Z"/><path d="M10,24.7,10,24.1,20.51,23l.18.28-.12.31Z"/><path d="M24.91,15.37l.52.3-4.37,7.57-.37,0L20.51,23Z"/><path d="M41.89,13.48l.09.32-.28.25-9.2-2,.12-.58Z"/><path d="M41.7,14.05,42,13.8l.31.12,1.48,14-.29.18-.32-.18Z"/><path d="M39.3,16l.6-.07L41,26.49l-.6.06Z"/><path d="M47.93,8l.4.45-6,5.43L42,13.8l-.09-.32Z"/><circle class="connection_in" cx="5.24" cy="25.28" r="4.74"/><circle class="connection_in" cx="51.22" cy="5.24" r="4.74"/></svg>