<svg xmlns="http://www.w3.org/2000/svg" viewBox="0 0 68.88 65.25"><text transform="translate(52.93 21.05)">S</text><text transform="translate(59.57 33.52)">O</text><text transform="translate(45.17 8.58)">O</text><path d="M60.7,15.25l-.3-.52L68.58,10l.3.52Z"/><path d="M62.15,24.49l-.52.3-1.78-3.1.51-.3Z"/><path d="M59.91,25.78l-.52.3L57.6,23l.52-.3Z"/><path d="M50.38,10.49l.52-.3,1.81,3.12-.52.3Z"/><path d="M52.63,9.19l.52-.3L55,12l-.52.3Z"/><path d="M44.09,24.84l-.3-.17v-.35l7.86-4.53.3.52Z"/><path d="M44.09,39.24l-.6-.34V24.84l.3-.17.3.17Z"/><path d="M41.5,37.57h-.6V26.17h.6Z"/><path d="M31.62,46.44l-.3-.17v-.35l12.17-7,.6.34Z"/><path d="M31.62,55.44H31v-9l.3-.17.3.17Z"/><path d="M18.55,39.24l.6-.34,12.17,7v.35l-.3.17Z"/><path d="M21.29,37.83l.3-.52L31.47,43l-.3.52Z"/><path d="M18.55,24.84l.3-.17.3.17V38.9l-.6.34Z"/><path d="M8.7,19.16l.3-.52,9.85,5.68v.35l-.3.17Z"/><path d="M31.32,17.12v.7l-12.17,7-.3-.17v-.35Z"/><path d="M31.17,20.2l.3.52-9.88,5.71-.3-.52Z"/><path d="M31.32,17.82v-.7l12.47,7.2v.35l-.3.17Z"/><circle class="connection_in" cx="5.24" cy="16.31" r="4.74"/><circle class="connection_in" cx="31.47" cy="60.01" r="4.74"/></svg>