<svg xmlns="http://www.w3.org/2000/svg" viewBox="0 0 59.48 35.02"><text transform="translate(26.72 9.45)">N</text><path d="M43.1,13.25l-.3-.18v-.34l7.25-4.19.3.52Z"/><path d="M43.1,27.65l-.6-.35v-14l.3-.18.3.18Z"/><path d="M30.33,35v-.69l12.17-7,.6.35Z"/><path d="M30.48,31.94l-.3-.52,9.88-5.7.3.52Z"/><path d="M17.56,27.65l.6-.35,12.17,7V35Z"/><path d="M17.56,13.25l.3-.18.3.18V27.3l-.6.35Z"/><path d="M20.15,14.57h.6V26h-.6Z"/><path d="M7.71,7.56,8,7l9.85,5.69v.34l-.3.18Z"/><path d="M25.08,8.56l.3.52-7.22,4.17-.3-.18v-.34Z"/><path d="M35.17,9l.3-.52,7.33,4.23v.34l-.3.18Z"/><path d="M33.88,11.26l.3-.52,6.18,3.57-.3.52Z"/><circle class="connection_in" cx="5.24" cy="5.24" r="4.74"/><circle class="connection_in" cx="54.24" cy="6.24" r="4.74"/></svg>