<svg xmlns="http://www.w3.org/2000/svg" viewBox="0 0 59.42 36"><text transform="translate(26.79 12.02)">S</text><path d="M43.76,27.62l.06-.33.3-.15,11.52,8.37-.35.49Z"/><path d="M30,32.09l.23-.7,13.28-4.32.3.22-.06.33Z"/><path d="M21.51,20.39l.15-.3H22l8.21,11.3-.23.7Z"/><path d="M24.62,20.27l.48-.36,6.25,8.61-.48.35Z"/><path d="M10.92,20.39v-.6H21.51l.15.3-.15.3Z"/><path d="M26.7,12.65l.48.35L22,20.09h-.37l-.15-.3Z"/><path d="M43.76,12.56l.06.33-.3.22L34.7,10.24l.18-.57Z"/><path d="M43.52,13.11l.3-.22.3.15v14.1l-.3.15-.3-.22Z"/><path d="M40.93,14.77h.6V25.41h-.6Z"/><path d="M50.38,7.75l.35.49L44.12,13l-.3-.15-.06-.33Z"/><circle class="connection_in" cx="5.24" cy="20.06" r="4.74"/><circle class="connection_in" cx="54.18" cy="5.24" r="4.74"/></svg>