<svg xmlns="http://www.w3.org/2000/svg" viewBox="0 0 92.36 51.86"><text transform="translate(0 21.05)">H</text><text transform="translate(7.22 23.17)">2</text><text transform="translate(11.39 21.05)">N</text><text transform="translate(61.55 21.05)">S</text><text transform="translate(73.75 13.85)">NH</text><text transform="translate(88.19 15.97)">2</text><text transform="translate(68.2 33.52)">O</text><text transform="translate(53.8 8.58)">O</text><path d="M27.47,24.32v.35l-.3.17-7.32-4.23.3-.52Z"/><path d="M40,17.12v.7l-12.18,7-.3-.17v-.35Z"/><path d="M52.42,24.32v.35l-.3.17L40,17.82v-.7Z"/><path d="M50,25.91l-.3.52L39.8,20.72l.3-.52Z"/><path d="M60.27,19.79l.3.52-7.85,4.53-.3-.17v-.35Z"/><path d="M72.11,13l.3.51-3.08,1.78-.3-.52Z"/><path d="M70.78,24.49l-.52.3-1.79-3.1.52-.3Z"/><path d="M68.54,25.78l-.52.3L66.23,23l.52-.3Z"/><path d="M59,10.49l.52-.3,1.8,3.12-.52.3Z"/><path d="M61.26,9.19l.52-.3L63.58,12l-.52.3Z"/><path d="M52.72,38.9l-.3.17-.3-.17V24.84l.3-.17.3.17Z"/><path d="M59.92,43.06l-.3.52-7.2-4.16v-.35l.3-.17Z"/><path d="M40,46.62v-.69l12.17-7,.3.17v.35Z"/><path d="M40.1,43.54,39.8,43l9.87-5.7.3.52Z"/><path d="M27.47,39.42v-.35l.3-.17,12.18,7v.69Z"/><path d="M27.77,38.9l-.3.17-.3-.17V24.84l.3-.17.3.17Z"/><path d="M30.37,37.58h-.6V26.17h.6Z"/><path d="M18.75,44.46l-.3-.52,8.72-5,.3.17v.35Z"/><circle class="connection_in" cx="15.11" cy="46.62" r="4.74"/><circle class="connection_in" cx="63.58" cy="45.21" r="4.74"/></svg>