<svg xmlns="http://www.w3.org/2000/svg" viewBox="0 0 81.18 55.54"><text transform="translate(64.67 30.18)">O</text><text transform="translate(52.2 8.58)">O</text><text transform="translate(27.54 51.78)">N</text><path d="M73.25,24.24l-.3-.52,7.93-4.58.3.52Z"/><path d="M56.09,19.75v-.7l8,4.65-.3.52Z"/><path d="M54.49,10.36h.6v9.79h-.6Z"/><path d="M57.09,10.36h.6v9.79h-.6Z"/><path d="M43.92,26.77l-.3-.17v-.35l12.47-7.2v.7Z"/><path d="M31.15,19.75v-.7l12.47,7.2v.35l-.3.17Z"/><path d="M31,22.65l.3-.52,9.88,5.71-.3.52Z"/><path d="M19,26.77l-.3-.17v-.35l12.47-7.2v.7Z"/><path d="M8.59,21.12l.3-.52,9.79,5.65v.35l-.3.17Z"/><path d="M19,40.83l-.6.34V26.77l.3-.17.3.17Z"/><path d="M21.57,39.5H21V28.1h.6Z"/><path d="M26.15,45l-.3.52-7.47-4.32.6-.34Z"/><path d="M43.32,40.83l.3.17v.35l-7.28,4.2L36,45Z"/><path d="M40.88,39.24l.3.52-6.13,3.55-.3-.52Z"/><path d="M43.92,40.83l-.3.17-.3-.17V26.77l.3-.17.3.17Z"/><path d="M51.11,45l-.3.52-7.19-4.15V41l.3-.17Z"/><circle class="connection_in" cx="5.24" cy="19.05" r="4.74"/><circle class="connection_in" cx="54.49" cy="47.44" r="4.74"/></svg>