<svg xmlns="http://www.w3.org/2000/svg" viewBox="0 0 71.39 43.24"><text transform="translate(52.78 38.3)">NH</text><text transform="translate(67.22 40.42)">2</text><text transform="translate(27.84 38.3)">N</text><text transform="translate(3.45 38.3)">F</text><path d="M43.92,27.87v-.35l.3-.17,7.17,4.14-.3.52Z"/><path d="M36.64,32.07l-.3-.52,7.28-4.2.3.17v.35Z"/><path d="M35.35,29.82l-.3-.52,6.13-3.54.3.52Z"/><path d="M19,27.87v-.35l.3-.17,7.17,4.14-.3.52Z"/><path d="M11.55,32.15l-.3-.52,7.43-4.28.3.17v.35Z"/><path d="M18.68,13.29l.3-.17.3.17V27.35l-.3.17-.3-.17Z"/><path d="M21.27,14.62h.6V26h-.6Z"/><path d="M8.83,7.61l.3-.52L19,12.77v.35l-.3.17Z"/><path d="M31.45,5.57v.7l-12.17,7-.3-.17v-.35Z"/><path d="M43.92,12.77v.35l-.3.17-12.17-7v-.7Z"/><path d="M41.48,14.36l-.3.52L31.3,9.17l.3-.52Z"/><path d="M43.62,13.29l.3-.17.3.17V27.35l-.3.17-.3-.17Z"/><path d="M51.17,8.59l.3.52-7.25,4.18-.3-.17v-.35Z"/><circle class="connection_in" cx="55.65" cy="7.09" r="4.74"/><circle class="connection_in" cx="5.24" cy="5.24" r="4.74"/></svg>