<svg viewBox="0 0 152 97" xmlns="http://www.w3.org/2000/svg">
<path transform="matrix(0.1 0 0 0.1 -508.65 -601.4)" d="M 5623.27,6712.04 L 5611.27,6718.96 L 5611.27,6430.96 L 5617.27,6427.5 L 5623.27,6430.96 L 5623.27,6712.04 Z " />
<path transform="matrix(0.1 0 0 0.1 -508.65 -601.4)" d="M 5675.11,6685.57 L 5663.11,6685.57 L 5663.11,6457.43 L 5675.11,6457.43 L 5675.11,6685.57 Z " />
<path transform="matrix(0.1 0 0 0.1 -508.65 -601.4)" d="M 5866.67,6852.57 L 5866.67,6866.43 L 5611.27,6718.96 L 5623.27,6712.04 L 5866.67,6852.57 Z " />
<path transform="matrix(0.1 0 0 0.1 -508.65 -601.4)" d="M 6110.07,6712.04 L 6116.07,6715.5 L 6116.07,6722.43 L 5866.67,6866.43 L 5866.67,6852.57 L 6110.07,6712.04 Z " />
<path transform="matrix(0.1 0 0 0.1 -508.65 -601.4)" d="M 6061.23,6680.38 L 6067.23,6690.77 L 5869.67,6804.84 L 5863.67,6794.45 L 6061.23,6680.38 Z " />
<path transform="matrix(0.1 0 0 0.1 -508.65 -601.4)" d="M 6110.07,6430.96 L 6122.07,6424.04 L 6122.07,6712.04 L 6116.07,6715.5 L 6110.07,6712.04 L 6110.07,6430.96 Z " />
<path transform="matrix(0.1 0 0 0.1 -508.65 -601.4)" d="M 5866.67,6290.43 L 5866.67,6276.57 L 6122.07,6424.04 L 6110.07,6430.96 L 5866.67,6290.43 Z " />
<path transform="matrix(0.1 0 0 0.1 -508.65 -601.4)" d="M 5863.67,6348.55 L 5869.67,6338.16 L 6067.23,6452.23 L 6061.23,6462.62 L 5863.67,6348.55 Z " />
<path transform="matrix(0.1 0 0 0.1 -508.65 -601.4)" d="M 5623.27,6430.96 L 5617.27,6427.5 L 5617.27,6420.57 L 5866.67,6276.57 L 5866.67,6290.43 L 5623.27,6430.96 Z " />
<path transform="matrix(0.1 0 0 0.1 -508.65 -601.4)" d="M 5364.87,6288.7 L 5370.87,6278.3 L 5617.27,6420.57 L 5617.27,6427.5 L 5611.27,6430.96 L 5364.87,6288.7 Z " />
<text x="0" y="0" transform="matrix(0.1 0 0 0.1 119.567 92.4)" font-size="200px">Me</text>
<path transform="matrix(0.1 0 0 0.1 -508.65 -601.4)" d="M 6259.94,6791.64 L 6253.94,6802.03 L 6116.07,6722.43 L 6116.07,6715.5 L 6122.07,6712.04 L 6259.94,6791.64 Z " />
<path class="connection_in" stroke-width="18px" transform="matrix(0.1 0 0 0.1 -508.65 -601.4)" d="M 5140.67,6237.1 A 172.8,172.8 0 1 0 5486.27,6237.1A 172.8,172.8 0 1 0 5140.67,6237.1Z " />
</svg>
