<svg viewBox="0 0 156 108" xmlns="http://www.w3.org/2000/svg">
<path transform="matrix(0.1 0 0 0.1 -398.65 -588.4)" d="M 4556.58,6582.2 L 4544.58,6589.13 L 4544.58,6301.13 L 4550.58,6297.67 L 4556.58,6301.13 L 4556.58,6582.2 Z " />
<path transform="matrix(0.1 0 0 0.1 -398.65 -588.4)" d="M 4608.42,6555.74 L 4596.42,6555.74 L 4596.42,6327.6 L 4608.42,6327.6 L 4608.42,6555.74 Z " />
<path transform="matrix(0.1 0 0 0.1 -398.65 -588.4)" d="M 4799.98,6722.74 L 4799.98,6736.59 L 4544.58,6589.13 L 4556.58,6582.2 L 4799.98,6722.74 Z " />
<path transform="matrix(0.1 0 0 0.1 -398.65 -588.4)" d="M 5043.38,6582.2 L 5049.38,6585.67 L 5050.07,6592.2 L 4799.98,6736.59 L 4799.98,6722.74 L 5043.38,6582.2 Z " />
<path transform="matrix(0.1 0 0 0.1 -398.65 -588.4)" d="M 4994.54,6550.54 L 5000.54,6560.93 L 4802.98,6675 L 4796.98,6664.61 L 4994.54,6550.54 Z " />
<path transform="matrix(0.1 0 0 0.1 -398.65 -588.4)" d="M 5043.38,6301.13 L 5049.38,6297.67 L 5055.38,6302.02 L 5055.38,6581.31 L 5049.38,6585.67 L 5043.38,6582.2 L 5043.38,6301.13 Z " />
<path transform="matrix(0.1 0 0 0.1 -398.65 -588.4)" d="M 4799.98,6160.59 L 4799.98,6146.74 L 5050.07,6291.13 L 5049.38,6297.67 L 5043.38,6301.13 L 4799.98,6160.59 Z " />
<path transform="matrix(0.1 0 0 0.1 -398.65 -588.4)" d="M 4796.98,6218.72 L 4802.98,6208.33 L 5000.54,6322.4 L 4994.54,6332.79 L 4796.98,6218.72 Z " />
<path transform="matrix(0.1 0 0 0.1 -398.65 -588.4)" d="M 4556.58,6301.13 L 4550.58,6297.67 L 4550.58,6290.74 L 4799.98,6146.74 L 4799.98,6160.59 L 4556.58,6301.13 Z " />
<path transform="matrix(0.1 0 0 0.1 -398.65 -588.4)" d="M 4298.18,6158.86 L 4304.18,6148.47 L 4550.58,6290.74 L 4550.58,6297.67 L 4544.58,6301.13 L 4298.18,6158.86 Z " />
<text x="0" y="0" transform="matrix(0.1 0 0 0.1 126.446 86.9166)" font-size="200px">N</text>
<text x="0" y="0" transform="matrix(0.1 0 0 0.1 126.446 103.6)" font-size="200px">H</text>
<path transform="matrix(0.1 0 0 0.1 -398.65 -588.4)" d="M 5225.71,6636.67 L 5222,6648.08 L 5050.07,6592.2 L 5049.38,6585.67 L 5055.38,6581.31 L 5225.71,6636.67 Z " />
<path transform="matrix(0.1 0 0 0.1 -398.65 -588.4)" d="M 5485.16,6441.67 L 5500,6441.67 L 5398.64,6581.08 L 5388.94,6574.02 L 5485.16,6441.67 Z " />
<path transform="matrix(0.1 0 0 0.1 -398.65 -588.4)" d="M 5320.89,6215.72 L 5325.47,6201.61 L 5500,6441.67 L 5485.16,6441.67 L 5320.89,6215.72 Z " />
<path transform="matrix(0.1 0 0 0.1 -398.65 -588.4)" d="M 5298.54,6273.15 L 5308.24,6266.09 L 5433.33,6438.14 L 5423.62,6445.19 L 5298.54,6273.15 Z " />
<path transform="matrix(0.1 0 0 0.1 -398.65 -588.4)" d="M 5055.38,6302.02 L 5049.38,6297.67 L 5050.07,6291.13 L 5325.47,6201.61 L 5320.89,6215.72 L 5055.38,6302.02 Z " />
<path class="connection_in" stroke-width="18px" transform="matrix(0.1 0 0 0.1 -398.65 -588.4)" d="M 4033.98,6109.27 A 172.8,172.8 0 1 0 4379.58,6109.27A 172.8,172.8 0 1 0 4033.98,6109.27Z " />
</svg>
