<svg viewBox="0 0 154 97" xmlns="http://www.w3.org/2000/svg">
<path transform="matrix(0.1 0 0 0.1 -460.65 -579.4)" d="M 5141.15,6492.04 L 5129.15,6498.96 L 5129.15,6210.96 L 5135.15,6207.5 L 5141.15,6210.96 L 5141.15,6492.04 Z " />
<path transform="matrix(0.1 0 0 0.1 -460.65 -579.4)" d="M 5192.99,6465.57 L 5180.99,6465.57 L 5180.99,6237.43 L 5192.99,6237.43 L 5192.99,6465.57 Z " />
<path transform="matrix(0.1 0 0 0.1 -460.65 -579.4)" d="M 5384.55,6632.57 L 5384.55,6646.43 L 5129.15,6498.96 L 5141.15,6492.04 L 5384.55,6632.57 Z " />
<path transform="matrix(0.1 0 0 0.1 -460.65 -579.4)" d="M 5627.95,6492.04 L 5633.95,6495.5 L 5633.95,6502.43 L 5384.55,6646.43 L 5384.55,6632.57 L 5627.95,6492.04 Z " />
<path transform="matrix(0.1 0 0 0.1 -460.65 -579.4)" d="M 5579.11,6460.38 L 5585.11,6470.77 L 5387.55,6584.84 L 5381.55,6574.45 L 5579.11,6460.38 Z " />
<path transform="matrix(0.1 0 0 0.1 -460.65 -579.4)" d="M 5627.95,6210.96 L 5639.95,6204.04 L 5639.95,6492.04 L 5633.95,6495.5 L 5627.95,6492.04 L 5627.95,6210.96 Z " />
<path transform="matrix(0.1 0 0 0.1 -460.65 -579.4)" d="M 5384.55,6070.43 L 5384.55,6056.57 L 5639.95,6204.04 L 5627.95,6210.96 L 5384.55,6070.43 Z " />
<path transform="matrix(0.1 0 0 0.1 -460.65 -579.4)" d="M 5381.55,6128.55 L 5387.55,6118.16 L 5585.11,6232.23 L 5579.11,6242.62 L 5381.55,6128.55 Z " />
<path transform="matrix(0.1 0 0 0.1 -460.65 -579.4)" d="M 5141.15,6210.96 L 5135.15,6207.5 L 5135.15,6200.57 L 5384.55,6056.57 L 5384.55,6070.43 L 5141.15,6210.96 Z " />
<path transform="matrix(0.1 0 0 0.1 -460.65 -579.4)" d="M 4882.75,6068.7 L 4888.75,6058.3 L 5135.15,6200.57 L 5135.15,6207.5 L 5129.15,6210.96 L 4882.75,6068.7 Z " />
<text x="0" y="0" transform="matrix(0.1 0 0 0.1 120.463 92.4)" font-size="200px">CN</text>
<path transform="matrix(0.1 0 0 0.1 -460.65 -579.4)" d="M 5802.11,6585.67 L 5796.11,6596.06 L 5633.95,6502.43 L 5633.95,6495.5 L 5639.95,6492.04 L 5802.11,6585.67 Z " />
<path class="connection_in" stroke-width="18px" transform="matrix(0.1 0 0 0.1 -460.65 -579.4)" d="M 4654.55,6020.5 A 172.8,172.8 0 1 0 5000.15,6020.5A 172.8,172.8 0 1 0 4654.55,6020.5Z " />
</svg>
