<svg viewBox="0 0 117 92" xmlns="http://www.w3.org/2000/svg">
<text x="0" y="0" transform="matrix(0.1 0 0 0.1 48.0267 80.3572)" font-size="200px">N</text>
<text x="0" y="0" transform="matrix(0.1 0 0 0.1 97.9066 51.5571)" font-size="200px">N</text>
<path transform="matrix(0.1 0 0 0.1 -469.65 -628.4)" d="M 5254.98,6908.74 L 5242.98,6908.74 L 5242.98,6724.54 L 5248.98,6721.07 L 5254.98,6724.54 L 5254.98,6908.74 Z " />
<path transform="matrix(0.1 0 0 0.1 -469.65 -628.4)" d="M 5306.82,6908.74 L 5294.82,6908.74 L 5294.82,6751 L 5306.82,6751 L 5306.82,6908.74 Z " />
<path transform="matrix(0.1 0 0 0.1 -469.65 -628.4)" d="M 5498.38,7146.14 L 5498.38,7160 L 5347.43,7072.84 L 5353.43,7062.45 L 5498.38,7146.14 Z " />
<path transform="matrix(0.1 0 0 0.1 -469.65 -628.4)" d="M 5741.78,7005.61 L 5753.78,7012.54 L 5498.38,7160 L 5498.38,7146.14 L 5741.78,7005.61 Z " />
<path transform="matrix(0.1 0 0 0.1 -469.65 -628.4)" d="M 5692.95,6973.95 L 5698.95,6984.34 L 5501.38,7098.41 L 5495.38,7088.02 L 5692.95,6973.95 Z " />
<path transform="matrix(0.1 0 0 0.1 -469.65 -628.4)" d="M 5741.78,6826.74 L 5753.78,6826.74 L 5753.78,7012.54 L 5741.78,7005.61 L 5741.78,6826.74 Z " />
<path transform="matrix(0.1 0 0 0.1 -469.65 -628.4)" d="M 5498.38,6584 L 5498.38,6570.14 L 5650.57,6658.01 L 5644.57,6668.41 L 5498.38,6584 Z " />
<path transform="matrix(0.1 0 0 0.1 -469.65 -628.4)" d="M 5495.38,6642.13 L 5501.38,6631.73 L 5624.65,6702.91 L 5618.65,6713.3 L 5495.38,6642.13 Z " />
<path transform="matrix(0.1 0 0 0.1 -469.65 -628.4)" d="M 5254.98,6724.54 L 5248.98,6721.07 L 5248.98,6714.14 L 5498.38,6570.14 L 5498.38,6584 L 5254.98,6724.54 Z " />
<path transform="matrix(0.1 0 0 0.1 -469.65 -628.4)" d="M 4996.58,6582.27 L 5002.58,6571.88 L 5248.98,6714.14 L 5248.98,6721.07 L 5242.98,6724.54 L 4996.58,6582.27 Z " />
<path class="connection_in" stroke-width="18px" transform="matrix(0.1 0 0 0.1 -469.65 -628.4)" d="M 4752.38,6510.07 A 172.8,172.8 0 1 0 5097.98,6510.07A 172.8,172.8 0 1 0 4752.38,6510.07Z " />
</svg>
