<svg viewBox="0 0 145 121" xmlns="http://www.w3.org/2000/svg">
<path transform="matrix(0.1 0 0 0.1 -369.65 -579.4)" d="M 4178.8,6446.03 L 4166.8,6452.97 L 4166.8,6164.96 L 4172.8,6161.5 L 4178.8,6164.97 L 4178.8,6446.03 Z " />
<path transform="matrix(0.1 0 0 0.1 -369.65 -579.4)" d="M 4230.64,6419.56 L 4218.64,6419.56 L 4218.64,6191.44 L 4230.64,6191.44 L 4230.64,6419.56 Z " />
<path transform="matrix(0.1 0 0 0.1 -369.65 -579.4)" d="M 4422.4,6586.57 L 4422.4,6593.5 L 4416.4,6596.97 L 4166.8,6452.97 L 4178.8,6446.03 L 4422.4,6586.57 Z " />
<path transform="matrix(0.1 0 0 0.1 -369.65 -579.4)" d="M 4665.8,6446.04 L 4677.8,6452.96 L 4428.4,6596.96 L 4422.4,6593.5 L 4422.4,6586.57 L 4665.8,6446.04 Z " />
<path transform="matrix(0.1 0 0 0.1 -369.65 -579.4)" d="M 4616.96,6414.38 L 4622.96,6424.77 L 4425.39,6538.84 L 4419.39,6528.45 L 4616.96,6414.38 Z " />
<path transform="matrix(0.1 0 0 0.1 -369.65 -579.4)" d="M 4665.8,6164.96 L 4671.8,6161.5 L 4677.8,6164.96 L 4677.8,6452.96 L 4665.8,6446.04 L 4665.8,6164.96 Z " />
<path transform="matrix(0.1 0 0 0.1 -369.65 -579.4)" d="M 4422.4,6024.43 L 4422.4,6010.57 L 4671.8,6154.57 L 4671.8,6161.5 L 4665.8,6164.96 L 4422.4,6024.43 Z " />
<path transform="matrix(0.1 0 0 0.1 -369.65 -579.4)" d="M 4419.39,6082.55 L 4425.39,6072.16 L 4622.96,6186.23 L 4616.96,6196.62 L 4419.39,6082.55 Z " />
<path transform="matrix(0.1 0 0 0.1 -369.65 -579.4)" d="M 4178.8,6164.97 L 4172.8,6161.5 L 4172.8,6154.57 L 4422.4,6010.57 L 4422.4,6024.43 L 4178.8,6164.97 Z " />
<path transform="matrix(0.1 0 0 0.1 -369.65 -579.4)" d="M 3920.4,6022.7 L 3926.4,6012.3 L 4172.8,6154.57 L 4172.8,6161.5 L 4166.8,6164.96 L 3920.4,6022.7 Z " />
<path transform="matrix(0.1 0 0 0.1 -369.65 -579.4)" d="M 4918.2,6012.3 L 4924.2,6022.7 L 4677.8,6164.96 L 4671.8,6161.5 L 4671.8,6154.57 L 4918.2,6012.3 Z " />
<text x="0" y="0" transform="matrix(0.1 0 0 0.1 66.4816 116.6)" font-size="200px">F</text>
<path transform="matrix(0.1 0 0 0.1 -369.65 -579.4)" d="M 4428.4,6781.17 L 4416.4,6781.17 L 4416.4,6596.97 L 4422.4,6593.5 L 4428.4,6596.96 L 4428.4,6781.17 Z " />
<path class="connection_in" stroke-width="18px" transform="matrix(0.1 0 0 0.1 -369.65 -579.4)" d="M 3750.6,6017.5 A 172.8,172.8 0 1 0 4096.2,6017.5A 172.8,172.8 0 1 0 3750.6,6017.5Z " />
<path class="connection_out" stroke-width="18px" transform="matrix(0.1 0 0 0.1 -369.65 -579.4)" d="M 4748.4,6017.5 A 172.8,172.8 0 1 0 5094,6017.5A 172.8,172.8 0 1 0 4748.4,6017.5Z " />
</svg>
