<svg viewBox="0 0 145 154" xmlns="http://www.w3.org/2000/svg">
<path transform="matrix(0.1 0 0 0.1 -389.65 -664.4)" d="M 4379,7553.61 L 4373,7557.07 L 4367,7553.61 L 4367,7272.54 L 4373,7269.07 L 4379,7272.54 L 4379,7553.61 Z " />
<path transform="matrix(0.1 0 0 0.1 -389.65 -664.4)" d="M 4430.84,7527.14 L 4418.84,7527.14 L 4418.84,7299 L 4430.84,7299 L 4430.84,7527.14 Z " />
<path transform="matrix(0.1 0 0 0.1 -389.65 -664.4)" d="M 4622.4,7694.14 L 4622.4,7701.07 L 4616.4,7704.54 L 4373,7564 L 4373,7557.07 L 4379,7553.61 L 4622.4,7694.14 Z " />
<path transform="matrix(0.1 0 0 0.1 -389.65 -664.4)" d="M 4865.8,7553.61 L 4871.8,7557.07 L 4871.8,7564 L 4628.4,7704.54 L 4622.4,7701.07 L 4622.4,7694.14 L 4865.8,7553.61 Z " />
<path transform="matrix(0.1 0 0 0.1 -389.65 -664.4)" d="M 4816.96,7521.95 L 4822.96,7532.34 L 4625.4,7646.41 L 4619.4,7636.02 L 4816.96,7521.95 Z " />
<path transform="matrix(0.1 0 0 0.1 -389.65 -664.4)" d="M 4865.8,7272.54 L 4871.8,7269.07 L 4877.8,7272.54 L 4877.8,7553.61 L 4871.8,7557.07 L 4865.8,7553.61 L 4865.8,7272.54 Z " />
<path transform="matrix(0.1 0 0 0.1 -389.65 -664.4)" d="M 4622.4,7132 L 4622.4,7125.07 L 4628.4,7121.61 L 4871.8,7262.14 L 4871.8,7269.07 L 4865.8,7272.54 L 4622.4,7132 Z " />
<path transform="matrix(0.1 0 0 0.1 -389.65 -664.4)" d="M 4619.4,7190.13 L 4625.4,7179.73 L 4822.96,7293.8 L 4816.96,7304.2 L 4619.4,7190.13 Z " />
<path transform="matrix(0.1 0 0 0.1 -389.65 -664.4)" d="M 4379,7272.54 L 4373,7269.07 L 4373,7262.14 L 4616.4,7121.61 L 4622.4,7125.07 L 4622.4,7132 L 4379,7272.54 Z " />
<path transform="matrix(0.1 0 0 0.1 -389.65 -664.4)" d="M 4120.6,7130.27 L 4126.6,7119.88 L 4373,7262.14 L 4373,7269.07 L 4367,7272.54 L 4120.6,7130.27 Z " />
<path transform="matrix(0.1 0 0 0.1 -389.65 -664.4)" d="M 5124.2,7695.88 L 5118.2,7706.27 L 4871.8,7564 L 4871.8,7557.07 L 4877.8,7553.61 L 5124.2,7695.88 Z " />
<path class="connection_in" stroke-width="18px" transform="matrix(0.1 0 0 0.1 -389.65 -664.4)" d="M 3950.8,7125.07 A 172.8,172.8 0 1 0 4296.4,7125.07A 172.8,172.8 0 1 0 3950.8,7125.07Z " />
<path class="connection_out" stroke-width="18px" transform="matrix(0.1 0 0 0.1 -389.65 -664.4)" d="M 4948.4,7701.07 A 172.8,172.8 0 1 0 5294,7701.07A 172.8,172.8 0 1 0 4948.4,7701.07Z " />
<path transform="matrix(0.1 0 0 0.1 -389.65 -664.4)" d="M 5115.2,7121.61 L 5127.2,7128.54 L 4877.8,7272.54 L 4871.8,7269.07 L 4871.8,7262.14 L 5115.2,7121.61 Z " />
<path transform="matrix(0.1 0 0 0.1 -389.65 -664.4)" d="M 5115.2,6840.54 L 5127.2,6833.61 L 5127.2,7128.54 L 5115.2,7121.61 L 5115.2,6840.54 Z " />
<path transform="matrix(0.1 0 0 0.1 -389.65 -664.4)" d="M 5063.36,6867 L 5075.36,6867 L 5075.36,7095.14 L 5063.36,7095.14 L 5063.36,6867 Z " />
<path transform="matrix(0.1 0 0 0.1 -389.65 -664.4)" d="M 4871.8,6700 L 4871.8,6686.14 L 5127.2,6833.61 L 5115.2,6840.54 L 4871.8,6700 Z " />
<path transform="matrix(0.1 0 0 0.1 -389.65 -664.4)" d="M 4628.4,6840.54 L 4616.4,6833.61 L 4871.8,6686.14 L 4871.8,6700 L 4628.4,6840.54 Z " />
<path transform="matrix(0.1 0 0 0.1 -389.65 -664.4)" d="M 4677.24,6872.2 L 4671.24,6861.8 L 4868.8,6747.73 L 4874.8,6758.13 L 4677.24,6872.2 Z " />
<path transform="matrix(0.1 0 0 0.1 -389.65 -664.4)" d="M 4628.4,7121.61 L 4622.4,7125.07 L 4616.4,7121.61 L 4616.4,6833.61 L 4628.4,6840.54 L 4628.4,7121.61 Z " />
<path transform="matrix(0.1 0 0 0.1 -389.65 -664.4)" d="M 4129.6,7704.54 L 4117.6,7697.61 L 4367,7553.61 L 4373,7557.07 L 4373,7564 L 4129.6,7704.54 Z " />
<path transform="matrix(0.1 0 0 0.1 -389.65 -664.4)" d="M 4129.6,7985.61 L 4117.6,7992.54 L 4117.6,7697.61 L 4129.6,7704.54 L 4129.6,7985.61 Z " />
<path transform="matrix(0.1 0 0 0.1 -389.65 -664.4)" d="M 4181.44,7959.14 L 4169.44,7959.14 L 4169.44,7731 L 4181.44,7731 L 4181.44,7959.14 Z " />
<path transform="matrix(0.1 0 0 0.1 -389.65 -664.4)" d="M 4373,8126.14 L 4373,8140 L 4117.6,7992.54 L 4129.6,7985.61 L 4373,8126.14 Z " />
<path transform="matrix(0.1 0 0 0.1 -389.65 -664.4)" d="M 4616.4,7985.61 L 4628.4,7992.54 L 4373,8140 L 4373,8126.14 L 4616.4,7985.61 Z " />
<path transform="matrix(0.1 0 0 0.1 -389.65 -664.4)" d="M 4567.56,7953.95 L 4573.56,7964.34 L 4376,8078.41 L 4370,8068.02 L 4567.56,7953.95 Z " />
<path transform="matrix(0.1 0 0 0.1 -389.65 -664.4)" d="M 4616.4,7704.54 L 4622.4,7701.07 L 4628.4,7704.54 L 4628.4,7992.54 L 4616.4,7985.61 L 4616.4,7704.54 Z " />
</svg>
