<svg viewBox="0 0 145 121" xmlns="http://www.w3.org/2000/svg">
<path transform="matrix(0.1 0 0 0.1 -425.65 -551.4)" d="M 4739,6164.04 L 4727,6170.96 L 4727,5882.96 L 4733,5879.5 L 4739,5882.96 L 4739,6164.04 Z " />
<path transform="matrix(0.1 0 0 0.1 -425.65 -551.4)" d="M 4790.84,6137.57 L 4778.84,6137.57 L 4778.84,5909.43 L 4790.84,5909.43 L 4790.84,6137.57 Z " />
<path transform="matrix(0.1 0 0 0.1 -425.65 -551.4)" d="M 4982.4,6304.57 L 4982.4,6311.5 L 4976.4,6314.96 L 4727,6170.96 L 4739,6164.04 L 4982.4,6304.57 Z " />
<path transform="matrix(0.1 0 0 0.1 -425.65 -551.4)" d="M 5225.8,6164.04 L 5237.8,6170.96 L 4988.4,6314.96 L 4982.4,6311.5 L 4982.4,6304.57 L 5225.8,6164.04 Z " />
<path transform="matrix(0.1 0 0 0.1 -425.65 -551.4)" d="M 5176.96,6132.38 L 5182.96,6142.77 L 4985.4,6256.84 L 4979.4,6246.45 L 5176.96,6132.38 Z " />
<path transform="matrix(0.1 0 0 0.1 -425.65 -551.4)" d="M 5225.8,5882.96 L 5231.8,5879.5 L 5237.8,5882.96 L 5237.8,6170.96 L 5225.8,6164.04 L 5225.8,5882.96 Z " />
<path transform="matrix(0.1 0 0 0.1 -425.65 -551.4)" d="M 4982.4,5742.43 L 4982.4,5728.57 L 5231.8,5872.57 L 5231.8,5879.5 L 5225.8,5882.96 L 4982.4,5742.43 Z " />
<path transform="matrix(0.1 0 0 0.1 -425.65 -551.4)" d="M 4979.4,5800.55 L 4985.4,5790.16 L 5182.96,5904.23 L 5176.96,5914.62 L 4979.4,5800.55 Z " />
<path transform="matrix(0.1 0 0 0.1 -425.65 -551.4)" d="M 4739,5882.96 L 4733,5879.5 L 4733,5872.57 L 4982.4,5728.57 L 4982.4,5742.43 L 4739,5882.96 Z " />
<path transform="matrix(0.1 0 0 0.1 -425.65 -551.4)" d="M 4480.6,5740.7 L 4486.6,5730.3 L 4733,5872.57 L 4733,5879.5 L 4727,5882.96 L 4480.6,5740.7 Z " />
<path transform="matrix(0.1 0 0 0.1 -425.65 -551.4)" d="M 5478.2,5730.3 L 5484.2,5740.7 L 5237.8,5882.96 L 5231.8,5879.5 L 5231.8,5872.57 L 5478.2,5730.3 Z " />
<text x="0" y="0" transform="matrix(0.1 0 0 0.1 64.8117 116.4)" font-size="200px">OMe</text>
<path transform="matrix(0.1 0 0 0.1 -425.65 -551.4)" d="M 4988.4,6496.67 L 4976.4,6496.67 L 4976.4,6314.96 L 4982.4,6311.5 L 4988.4,6314.96 L 4988.4,6496.67 Z " />
<path class="connection_in" stroke-width="18px" transform="matrix(0.1 0 0 0.1 -425.65 -551.4)" d="M 4310.8,5735.5 A 172.8,172.8 0 1 0 4656.4,5735.5A 172.8,172.8 0 1 0 4310.8,5735.5Z " />
<path class="connection_out" stroke-width="18px" transform="matrix(0.1 0 0 0.1 -425.65 -551.4)" d="M 5308.4,5735.5 A 172.8,172.8 0 1 0 5654,5735.5A 172.8,172.8 0 1 0 5308.4,5735.5Z " />
</svg>
