<svg viewBox="0 0 195 85" xmlns="http://www.w3.org/2000/svg">
<path transform="matrix(0.1 0 0 0.1 -395.65 -501.4)" d="M 4440,5665.61 L 4428,5672.54 L 4428,5384.54 L 4434,5381.07 L 4440,5384.54 L 4440,5665.61 Z " />
<path transform="matrix(0.1 0 0 0.1 -395.65 -501.4)" d="M 4491.84,5639.14 L 4479.84,5639.14 L 4479.84,5411 L 4491.84,5411 L 4491.84,5639.14 Z " />
<path transform="matrix(0.1 0 0 0.1 -395.65 -501.4)" d="M 4683.4,5806.14 L 4683.4,5820 L 4428,5672.54 L 4440,5665.61 L 4683.4,5806.14 Z " />
<path transform="matrix(0.1 0 0 0.1 -395.65 -501.4)" d="M 4927,5665.61 L 4933,5669.07 L 4933,5676 L 4683.4,5820 L 4683.4,5806.14 L 4927,5665.61 Z " />
<path transform="matrix(0.1 0 0 0.1 -395.65 -501.4)" d="M 4878.13,5633.92 L 4884.13,5644.31 L 4686.41,5758.38 L 4680.41,5747.99 L 4878.13,5633.92 Z " />
<path transform="matrix(0.1 0 0 0.1 -395.65 -501.4)" d="M 4927,5384.54 L 4933,5381.07 L 4939,5384.54 L 4939,5665.61 L 4933,5669.07 L 4927,5665.61 L 4927,5384.54 Z " />
<path transform="matrix(0.1 0 0 0.1 -395.65 -501.4)" d="M 4683.4,5244 L 4683.4,5230.14 L 4933,5374.14 L 4933,5381.07 L 4927,5384.54 L 4683.4,5244 Z " />
<path transform="matrix(0.1 0 0 0.1 -395.65 -501.4)" d="M 4680.41,5302.16 L 4686.41,5291.76 L 4884.13,5405.83 L 4878.13,5416.23 L 4680.41,5302.16 Z " />
<path transform="matrix(0.1 0 0 0.1 -395.65 -501.4)" d="M 4440,5384.54 L 4434,5381.07 L 4434,5374.14 L 4683.4,5230.14 L 4683.4,5244 L 4440,5384.54 Z " />
<path transform="matrix(0.1 0 0 0.1 -395.65 -501.4)" d="M 5182.4,5806.14 L 5182.4,5820 L 4933,5676 L 4933,5669.07 L 4939,5665.61 L 5182.4,5806.14 Z " />
<path transform="matrix(0.1 0 0 0.1 -395.65 -501.4)" d="M 5425.8,5665.61 L 5437.8,5672.54 L 5182.4,5820 L 5182.4,5806.14 L 5425.8,5665.61 Z " />
<path transform="matrix(0.1 0 0 0.1 -395.65 -501.4)" d="M 5376.96,5633.95 L 5382.96,5644.34 L 5185.4,5758.41 L 5179.4,5748.02 L 5376.96,5633.95 Z " />
<path transform="matrix(0.1 0 0 0.1 -395.65 -501.4)" d="M 5425.8,5384.54 L 5431.8,5381.07 L 5437.8,5384.54 L 5437.8,5672.54 L 5425.8,5665.61 L 5425.8,5384.54 Z " />
<path transform="matrix(0.1 0 0 0.1 -395.65 -501.4)" d="M 5182.4,5244 L 5182.4,5230.14 L 5431.8,5374.14 L 5431.8,5381.07 L 5425.8,5384.54 L 5182.4,5244 Z " />
<path transform="matrix(0.1 0 0 0.1 -395.65 -501.4)" d="M 5179.4,5302.13 L 5185.4,5291.73 L 5382.96,5405.8 L 5376.96,5416.2 L 5179.4,5302.13 Z " />
<path transform="matrix(0.1 0 0 0.1 -395.65 -501.4)" d="M 4939,5384.54 L 4933,5381.07 L 4933,5374.14 L 5182.4,5230.14 L 5182.4,5244 L 4939,5384.54 Z " />
<path transform="matrix(0.1 0 0 0.1 -395.65 -501.4)" d="M 4181.6,5242.27 L 4187.6,5231.88 L 4434,5374.14 L 4434,5381.07 L 4428,5384.54 L 4181.6,5242.27 Z " />
<path transform="matrix(0.1 0 0 0.1 -395.65 -501.4)" d="M 5678.2,5231.88 L 5684.2,5242.27 L 5437.8,5384.54 L 5431.8,5381.07 L 5431.8,5374.14 L 5678.2,5231.88 Z " />
<path class="connection_in" stroke-width="18px" transform="matrix(0.1 0 0 0.1 -395.65 -501.4)" d="M 4011.8,5237.07 A 172.8,172.8 0 1 0 4357.4,5237.07A 172.8,172.8 0 1 0 4011.8,5237.07Z " />
<path class="connection_out" stroke-width="18px" transform="matrix(0.1 0 0 0.1 -395.65 -501.4)" d="M 5508.4,5237.07 A 172.8,172.8 0 1 0 5854,5237.07A 172.8,172.8 0 1 0 5508.4,5237.07Z " />
</svg>
