<svg viewBox="0 0 151 130" xmlns="http://www.w3.org/2000/svg">
<path transform="matrix(0.1 0 0 0.1 -307.65 -546.4)" d="M 3551,6378.74 L 3539,6385.66 L 3539,6097.66 L 3545,6094.2 L 3551,6097.66 L 3551,6378.74 Z " />
<path transform="matrix(0.1 0 0 0.1 -307.65 -546.4)" d="M 3602.84,6352.27 L 3590.84,6352.27 L 3590.84,6124.13 L 3602.84,6124.13 L 3602.84,6352.27 Z " />
<path transform="matrix(0.1 0 0 0.1 -307.65 -546.4)" d="M 3794.4,6519.27 L 3794.4,6533.13 L 3539,6385.66 L 3551,6378.74 L 3794.4,6519.27 Z " />
<path transform="matrix(0.1 0 0 0.1 -307.65 -546.4)" d="M 4037.8,6378.74 L 4043.8,6382.2 L 4043.8,6389.13 L 3794.4,6533.13 L 3794.4,6519.27 L 4037.8,6378.74 Z " />
<path transform="matrix(0.1 0 0 0.1 -307.65 -546.4)" d="M 3988.96,6347.08 L 3994.96,6357.47 L 3797.4,6471.54 L 3791.4,6461.15 L 3988.96,6347.08 Z " />
<path transform="matrix(0.1 0 0 0.1 -307.65 -546.4)" d="M 4037.8,6097.66 L 4043.8,6094.2 L 4049.8,6097.66 L 4049.8,6378.74 L 4043.8,6382.2 L 4037.8,6378.74 L 4037.8,6097.66 Z " />
<path transform="matrix(0.1 0 0 0.1 -307.65 -546.4)" d="M 3551,6097.66 L 3545,6094.2 L 3545,6087.27 L 3788.4,5946.74 L 3794.4,5950.2 L 3794.4,5957.13 L 3551,6097.66 Z " />
<path transform="matrix(0.1 0 0 0.1 -307.65 -546.4)" d="M 3292.6,5955.4 L 3298.6,5945 L 3545,6087.27 L 3545,6094.2 L 3539,6097.66 L 3292.6,5955.4 Z " />
<path transform="matrix(0.1 0 0 0.1 -307.65 -546.4)" d="M 4296.2,6521 L 4290.2,6531.4 L 4043.8,6389.13 L 4043.8,6382.2 L 4049.8,6378.74 L 4296.2,6521 Z " />
<path transform="matrix(0.1 0 0 0.1 -307.65 -546.4)" d="M 4043.8,6087.27 L 4043.8,6094.2 L 4037.8,6097.66 L 3794.4,5957.13 L 3794.4,5950.2 L 3800.4,5946.74 L 4043.8,6087.27 Z " />
<path transform="matrix(0.1 0 0 0.1 -307.65 -546.4)" d="M 3994.96,6118.93 L 3988.96,6129.32 L 3791.4,6015.25 L 3797.4,6004.86 L 3994.96,6118.93 Z " />
<path transform="matrix(0.1 0 0 0.1 -307.65 -546.4)" d="M 4287.2,5946.74 L 4299.2,5953.66 L 4049.8,6097.66 L 4043.8,6094.2 L 4043.8,6087.27 L 4287.2,5946.74 Z " />
<path transform="matrix(0.1 0 0 0.1 -307.65 -546.4)" d="M 4287.2,5665.66 L 4299.2,5658.74 L 4299.2,5953.66 L 4287.2,5946.74 L 4287.2,5665.66 Z " />
<path transform="matrix(0.1 0 0 0.1 -307.65 -546.4)" d="M 4235.36,5692.13 L 4247.36,5692.13 L 4247.36,5920.27 L 4235.36,5920.27 L 4235.36,5692.13 Z " />
<path transform="matrix(0.1 0 0 0.1 -307.65 -546.4)" d="M 4043.8,5525.13 L 4043.8,5511.27 L 4299.2,5658.74 L 4287.2,5665.66 L 4043.8,5525.13 Z " />
<path transform="matrix(0.1 0 0 0.1 -307.65 -546.4)" d="M 3800.4,5665.66 L 3788.4,5658.74 L 4043.8,5511.27 L 4043.8,5525.13 L 3800.4,5665.66 Z " />
<path transform="matrix(0.1 0 0 0.1 -307.65 -546.4)" d="M 3849.24,5697.32 L 3843.24,5686.93 L 4040.8,5572.86 L 4046.8,5583.25 L 3849.24,5697.32 Z " />
<path transform="matrix(0.1 0 0 0.1 -307.65 -546.4)" d="M 3800.4,5946.74 L 3794.4,5950.2 L 3788.4,5946.74 L 3788.4,5658.74 L 3800.4,5665.66 L 3800.4,5946.74 Z " />
<path class="connection_in" stroke-width="18px" transform="matrix(0.1 0 0 0.1 -307.65 -546.4)" d="M 3122.8,5950.2 A 172.8,172.8 0 1 0 3468.4,5950.2A 172.8,172.8 0 1 0 3122.8,5950.2Z " />
<path class="connection_out" stroke-width="18px" transform="matrix(0.1 0 0 0.1 -307.65 -546.4)" d="M 4188.4,6541.2 A 172.8,172.8 0 1 0 4534,6541.2A 172.8,172.8 0 1 0 4188.4,6541.2Z " />
</svg>
