<svg viewBox="0 0 195 102" xmlns="http://www.w3.org/2000/svg">
<path transform="matrix(0.1 0 0 0.1 -405.65 -546.4)" d="M 4540,6113.73 L 4528,6120.67 L 4528,5832.66 L 4534,5829.2 L 4540,5832.67 L 4540,6113.73 Z " />
<path transform="matrix(0.1 0 0 0.1 -405.65 -546.4)" d="M 4591.84,6087.26 L 4579.84,6087.26 L 4579.84,5859.14 L 4591.84,5859.14 L 4591.84,6087.26 Z " />
<path transform="matrix(0.1 0 0 0.1 -405.65 -546.4)" d="M 4783.6,6254.27 L 4783.6,6268.13 L 4528,6120.67 L 4540,6113.73 L 4783.6,6254.27 Z " />
<path transform="matrix(0.1 0 0 0.1 -405.65 -546.4)" d="M 5027,6113.74 L 5033,6117.2 L 5033,6124.13 L 4783.6,6268.13 L 4783.6,6254.27 L 5027,6113.74 Z " />
<path transform="matrix(0.1 0 0 0.1 -405.65 -546.4)" d="M 4978.16,6082.08 L 4984.16,6092.47 L 4786.59,6206.54 L 4780.59,6196.15 L 4978.16,6082.08 Z " />
<path transform="matrix(0.1 0 0 0.1 -405.65 -546.4)" d="M 5027,5832.66 L 5039,5825.74 L 5039,6113.74 L 5033,6117.2 L 5027,6113.74 L 5027,5832.66 Z " />
<path transform="matrix(0.1 0 0 0.1 -405.65 -546.4)" d="M 4783.6,5692.13 L 4783.6,5678.27 L 5039,5825.74 L 5027,5832.66 L 4783.6,5692.13 Z " />
<path transform="matrix(0.1 0 0 0.1 -405.65 -546.4)" d="M 4780.59,5750.25 L 4786.59,5739.86 L 4984.16,5853.93 L 4978.16,5864.32 L 4780.59,5750.25 Z " />
<path transform="matrix(0.1 0 0 0.1 -405.65 -546.4)" d="M 4540,5832.67 L 4534,5829.2 L 4534,5822.27 L 4783.6,5678.27 L 4783.6,5692.13 L 4540,5832.67 Z " />
<path transform="matrix(0.1 0 0 0.1 -405.65 -546.4)" d="M 4281.6,5690.4 L 4287.6,5680 L 4534,5822.27 L 4534,5829.2 L 4528,5832.66 L 4281.6,5690.4 Z " />
<path transform="matrix(0.1 0 0 0.1 -405.65 -546.4)" d="M 5282.4,6254.27 L 5282.4,6268.13 L 5033,6124.13 L 5033,6117.2 L 5039,6113.74 L 5282.4,6254.27 Z " />
<path transform="matrix(0.1 0 0 0.1 -405.65 -546.4)" d="M 5531.8,6110.27 L 5531.8,6124.13 L 5282.4,6268.13 L 5282.4,6254.27 L 5531.8,6110.27 Z " />
<path transform="matrix(0.1 0 0 0.1 -405.65 -546.4)" d="M 5502.88,6067.11 L 5508.88,6077.5 L 5285.4,6206.54 L 5279.4,6196.15 L 5502.88,6067.11 Z " />
<path transform="matrix(0.1 0 0 0.1 -405.65 -546.4)" d="M 5784.2,6256 L 5778.2,6266.4 L 5531.8,6124.13 L 5531.8,6110.27 L 5784.2,6256 Z " />
<path class="connection_in" stroke-width="18px" transform="matrix(0.1 0 0 0.1 -405.65 -546.4)" d="M 4111.8,5685.2 A 172.8,172.8 0 1 0 4457.4,5685.2A 172.8,172.8 0 1 0 4111.8,5685.2Z " />
<path class="connection_out" stroke-width="18px" transform="matrix(0.1 0 0 0.1 -405.65 -546.4)" d="M 5608.4,6261.2 A 172.8,172.8 0 1 0 5954,6261.2A 172.8,172.8 0 1 0 5608.4,6261.2Z " />
</svg>
