<svg viewBox="0 0 145 125" xmlns="http://www.w3.org/2000/svg">
<path transform="matrix(0.1 0 0 0.1 -467.65 -605.4)" d="M 5159,6933.74 L 5147,6940.66 L 5147,6652.66 L 5153,6649.2 L 5159,6652.66 L 5159,6933.74 Z " />
<path transform="matrix(0.1 0 0 0.1 -467.65 -605.4)" d="M 5210.84,6907.27 L 5198.84,6907.27 L 5198.84,6679.13 L 5210.84,6679.13 L 5210.84,6907.27 Z " />
<path transform="matrix(0.1 0 0 0.1 -467.65 -605.4)" d="M 5402.4,7074.27 L 5402.4,7088.13 L 5147,6940.66 L 5159,6933.74 L 5402.4,7074.27 Z " />
<path transform="matrix(0.1 0 0 0.1 -467.65 -605.4)" d="M 5645.8,6933.74 L 5651.8,6937.2 L 5651.8,6944.13 L 5402.4,7088.13 L 5402.4,7074.27 L 5645.8,6933.74 Z " />
<path transform="matrix(0.1 0 0 0.1 -467.65 -605.4)" d="M 5596.96,6902.08 L 5602.96,6912.47 L 5405.4,7026.54 L 5399.4,7016.15 L 5596.96,6902.08 Z " />
<path transform="matrix(0.1 0 0 0.1 -467.65 -605.4)" d="M 5645.8,6652.66 L 5651.8,6649.2 L 5657.8,6651.87 L 5657.8,6933.74 L 5651.8,6937.2 L 5645.8,6933.74 L 5645.8,6652.66 Z " />
<path transform="matrix(0.1 0 0 0.1 -467.65 -605.4)" d="M 5159,6652.66 L 5153,6649.2 L 5153,6642.27 L 5397.09,6501.34 L 5402.4,6505.2 L 5402.4,6512.13 L 5159,6652.66 Z " />
<path transform="matrix(0.1 0 0 0.1 -467.65 -605.4)" d="M 4900.6,6510.4 L 4906.6,6500 L 5153,6642.27 L 5153,6649.2 L 5147,6652.66 L 4900.6,6510.4 Z " />
<path transform="matrix(0.1 0 0 0.1 -467.65 -605.4)" d="M 5904.2,7076 L 5898.2,7086.4 L 5651.8,6944.13 L 5651.8,6937.2 L 5657.8,6933.74 L 5904.2,7076 Z " />
<text x="0" y="0" transform="matrix(0.1 0 0 0.1 111.708 48.09)" font-size="200px">N</text>
<text x="0" y="0" transform="matrix(0.1 0 0 0.1 100.54 21.77)" font-size="200px">S</text>
<text x="0" y="0" transform="matrix(0.1 0 0 0.1 71.3483 24.79)" font-size="200px">N</text>
<path transform="matrix(0.1 0 0 0.1 -467.65 -605.4)" d="M 5651.02,6641.82 L 5651.8,6649.2 L 5645.8,6652.66 L 5402.4,6512.13 L 5402.4,6505.2 L 5409.17,6502.18 L 5651.02,6641.82 Z " />
<path transform="matrix(0.1 0 0 0.1 -467.65 -605.4)" d="M 5769.79,6534.82 L 5777.83,6543.73 L 5657.8,6651.87 L 5651.8,6649.2 L 5651.02,6641.82 L 5769.79,6534.82 Z " />
<path transform="matrix(0.1 0 0 0.1 -467.65 -605.4)" d="M 5735.09,6496.3 L 5743.12,6505.21 L 5649.11,6589.92 L 5641.08,6581 L 5735.09,6496.3 Z " />
<path transform="matrix(0.1 0 0 0.1 -467.65 -605.4)" d="M 5787.8,6295.99 L 5798.76,6291.11 L 5823.4,6346.44 L 5812.44,6351.32 L 5787.8,6295.99 Z " />
<path transform="matrix(0.1 0 0 0.1 -467.65 -605.4)" d="M 5549.82,6220.19 L 5548.56,6208.26 L 5658.09,6196.71 L 5659.35,6208.64 L 5549.82,6220.19 Z " />
<path transform="matrix(0.1 0 0 0.1 -467.65 -605.4)" d="M 5409.17,6502.18 L 5402.4,6505.2 L 5397.09,6501.34 L 5432.39,6334.96 L 5444.13,6337.45 L 5409.17,6502.18 Z " />
<path transform="matrix(0.1 0 0 0.1 -467.65 -605.4)" d="M 5466.81,6480.37 L 5455.07,6477.88 L 5483.12,6345.72 L 5494.86,6348.21 L 5466.81,6480.37 Z " />
<path class="connection_in" stroke-width="18px" transform="matrix(0.1 0 0 0.1 -467.65 -605.4)" d="M 4730.8,6505.2 A 172.8,172.8 0 1 0 5076.4,6505.2A 172.8,172.8 0 1 0 4730.8,6505.2Z " />
<path class="connection_out" stroke-width="18px" transform="matrix(0.1 0 0 0.1 -467.65 -605.4)" d="M 5728.4,7081.2 A 172.8,172.8 0 1 0 6074,7081.2A 172.8,172.8 0 1 0 5728.4,7081.2Z " />
</svg>
