<svg viewBox="0 0 145 85" xmlns="http://www.w3.org/2000/svg">
<path transform="matrix(0.1 0 0 0.1 -411.65 -647.4)" d="M 4599,7125.61 L 4587,7132.54 L 4587,6844.54 L 4593,6841.07 L 4599,6844.54 L 4599,7125.61 Z " />
<path transform="matrix(0.1 0 0 0.1 -411.65 -647.4)" d="M 4650.84,7099.14 L 4638.84,7099.14 L 4638.84,6871 L 4650.84,6871 L 4650.84,7099.14 Z " />
<path transform="matrix(0.1 0 0 0.1 -411.65 -647.4)" d="M 4842.4,7266.14 L 4842.4,7280 L 4587,7132.54 L 4599,7125.61 L 4842.4,7266.14 Z " />
<path transform="matrix(0.1 0 0 0.1 -411.65 -647.4)" d="M 5085.8,7125.61 L 5097.8,7132.54 L 4842.4,7280 L 4842.4,7266.14 L 5085.8,7125.61 Z " />
<path transform="matrix(0.1 0 0 0.1 -411.65 -647.4)" d="M 5036.96,7093.95 L 5042.96,7104.34 L 4845.4,7218.41 L 4839.4,7208.02 L 5036.96,7093.95 Z " />
<path transform="matrix(0.1 0 0 0.1 -411.65 -647.4)" d="M 5085.8,6844.54 L 5091.8,6841.07 L 5097.8,6844.54 L 5097.8,7132.54 L 5085.8,7125.61 L 5085.8,6844.54 Z " />
<path transform="matrix(0.1 0 0 0.1 -411.65 -647.4)" d="M 4842.4,6704 L 4842.4,6690.14 L 5091.8,6834.14 L 5091.8,6841.07 L 5085.8,6844.54 L 4842.4,6704 Z " />
<path transform="matrix(0.1 0 0 0.1 -411.65 -647.4)" d="M 4839.4,6762.13 L 4845.4,6751.73 L 5042.96,6865.8 L 5036.96,6876.2 L 4839.4,6762.13 Z " />
<path transform="matrix(0.1 0 0 0.1 -411.65 -647.4)" d="M 4599,6844.54 L 4593,6841.07 L 4593,6834.14 L 4842.4,6690.14 L 4842.4,6704 L 4599,6844.54 Z " />
<path transform="matrix(0.1 0 0 0.1 -411.65 -647.4)" d="M 4340.6,6702.27 L 4346.6,6691.88 L 4593,6834.14 L 4593,6841.07 L 4587,6844.54 L 4340.6,6702.27 Z " />
<path transform="matrix(0.1 0 0 0.1 -411.65 -647.4)" d="M 5338.2,6691.88 L 5344.2,6702.27 L 5097.8,6844.54 L 5091.8,6841.07 L 5091.8,6834.14 L 5338.2,6691.88 Z " />
<path class="connection_in" stroke-width="18px" transform="matrix(0.1 0 0 0.1 -411.65 -647.4)" d="M 4170.8,6697.07 A 172.8,172.8 0 1 0 4516.4,6697.07A 172.8,172.8 0 1 0 4170.8,6697.07Z " />
<path class="connection_out" stroke-width="18px" transform="matrix(0.1 0 0 0.1 -411.65 -647.4)" d="M 5168.4,6697.07 A 172.8,172.8 0 1 0 5514,6697.07A 172.8,172.8 0 1 0 5168.4,6697.07Z " />
</svg>
