<svg viewBox="0 0 159 193" xmlns="http://www.w3.org/2000/svg">
<path transform="matrix(0.1 0 0 0.1 -349.65 -644.2)" d="M 3899.73,7077 L 3885.87,7077 L 4029.87,6827.6 L 4036.8,6827.6 L 4040.26,6833.6 L 3899.73,7077 Z " />
<path transform="matrix(0.1 0 0 0.1 -349.65 -644.2)" d="M 3957.85,7080 L 3947.46,7074 L 4061.53,6876.44 L 4071.92,6882.44 L 3957.85,7080 Z " />
<path transform="matrix(0.1 0 0 0.1 -349.65 -644.2)" d="M 4040.26,7320.4 L 4033.34,7332.4 L 3885.87,7077 L 3899.73,7077 L 4040.26,7320.4 Z " />
<path transform="matrix(0.1 0 0 0.1 -349.65 -644.2)" d="M 4321.34,7320.4 L 4324.8,7326.4 L 4321.34,7332.4 L 4033.34,7332.4 L 4040.26,7320.4 L 4321.34,7320.4 Z " />
<path transform="matrix(0.1 0 0 0.1 -349.65 -644.2)" d="M 4294.87,7268.56 L 4294.87,7280.56 L 4066.73,7280.56 L 4066.73,7268.56 L 4294.87,7268.56 Z " />
<path transform="matrix(0.1 0 0 0.1 -349.65 -644.2)" d="M 4461.87,7077 L 4475.73,7077 L 4331.73,7326.4 L 4324.8,7326.4 L 4321.34,7320.4 L 4461.87,7077 Z " />
<path transform="matrix(0.1 0 0 0.1 -349.65 -644.2)" d="M 4321.34,6833.6 L 4328.26,6821.6 L 4475.73,7077 L 4461.87,7077 L 4321.34,6833.6 Z " />
<path transform="matrix(0.1 0 0 0.1 -349.65 -644.2)" d="M 4289.68,6882.44 L 4300.07,6876.44 L 4414.14,7074 L 4403.75,7080 L 4289.68,6882.44 Z " />
<path transform="matrix(0.1 0 0 0.1 -349.65 -644.2)" d="M 4040.26,6833.6 L 4036.8,6827.6 L 4040.26,6821.6 L 4328.26,6821.6 L 4321.34,6833.6 L 4040.26,6833.6 Z " />
<text x="0" y="0" transform="matrix(0.1 0 0 0.1 90.0083 121.23)" font-size="200px">N</text>
<path transform="matrix(0.1 0 0 0.1 -349.65 -644.2)" d="M 4414.1,7469.06 L 4403.71,7475.06 L 4321.34,7332.4 L 4324.8,7326.4 L 4331.73,7326.4 L 4414.1,7469.06 Z " />
<path transform="matrix(0.1 0 0 0.1 -349.65 -644.2)" d="M 4331.73,7825.2 L 4324.8,7825.2 L 4321.34,7819.2 L 4401.4,7680.54 L 4411.79,7686.54 L 4331.73,7825.2 Z " />
<path transform="matrix(0.1 0 0 0.1 -349.65 -644.2)" d="M 4040.26,7831.2 L 4033.34,7819.2 L 4321.34,7819.2 L 4324.8,7825.2 L 4321.34,7831.2 L 4040.26,7831.2 Z " />
<path transform="matrix(0.1 0 0 0.1 -349.65 -644.2)" d="M 4066.73,7883.04 L 4066.73,7871.04 L 4294.87,7871.04 L 4294.87,7883.04 L 4066.73,7883.04 Z " />
<path transform="matrix(0.1 0 0 0.1 -349.65 -644.2)" d="M 3899.73,8074.6 L 3885.87,8074.6 L 4033.34,7819.2 L 4040.26,7831.2 L 3899.73,8074.6 Z " />
<path transform="matrix(0.1 0 0 0.1 -349.65 -644.2)" d="M 4040.26,8318 L 4033.34,8330 L 3885.87,8074.6 L 3899.73,8074.6 L 4040.26,8318 Z " />
<path transform="matrix(0.1 0 0 0.1 -349.65 -644.2)" d="M 4071.92,8269.16 L 4061.53,8275.16 L 3947.46,8077.6 L 3957.85,8071.6 L 4071.92,8269.16 Z " />
<path transform="matrix(0.1 0 0 0.1 -349.65 -644.2)" d="M 4321.34,8318 L 4328.26,8330 L 4033.34,8330 L 4040.26,8318 L 4321.34,8318 Z " />
<path transform="matrix(0.1 0 0 0.1 -349.65 -644.2)" d="M 4461.87,8074.6 L 4475.73,8074.6 L 4328.26,8330 L 4321.34,8318 L 4461.87,8074.6 Z " />
<path transform="matrix(0.1 0 0 0.1 -349.65 -644.2)" d="M 4403.75,8071.6 L 4414.14,8077.6 L 4300.07,8275.16 L 4289.68,8269.16 L 4403.75,8071.6 Z " />
<path transform="matrix(0.1 0 0 0.1 -349.65 -644.2)" d="M 4321.34,7831.2 L 4324.8,7825.2 L 4331.73,7825.2 L 4475.73,8074.6 L 4461.87,8074.6 L 4321.34,7831.2 Z " />
<text x="0" y="0" transform="matrix(0.1 0 0 0.1 4.06848 21.47)" font-size="200px">MeO</text>
<path transform="matrix(0.1 0 0 0.1 -349.65 -644.2)" d="M 3942.35,6676.02 L 3952.75,6670.02 L 4040.26,6821.6 L 4036.8,6827.6 L 4029.87,6827.6 L 3942.35,6676.02 Z " />
<path transform="matrix(0.1 0 0 0.1 -349.65 -644.2)" d="M 4756.8,7569.8 L 4756.8,7581.8 L 4556.58,7581.8 L 4556.58,7569.8 L 4756.8,7569.8 Z " />
<path class="connection_out" stroke-width="18px" transform="matrix(0.1 0 0 0.1 -349.65 -644.2)" d="M 4693.4,7568.4 A 172.8,172.8 0 1 0 5039,7568.4A 172.8,172.8 0 1 0 4693.4,7568.4Z " />
</svg>
