<svg viewBox="0 0 135 151" xmlns="http://www.w3.org/2000/svg">
<path transform="matrix(0.1 0 0 0.1 -479.15 -691.9)" d="M 5181.84,6963.11 L 5178.96,6976.67 L 4912.55,7063.32 L 4902.25,7054.06 L 5181.84,6963.11 Z " />
<path transform="matrix(0.1 0 0 0.1 -479.15 -691.9)" d="M 5166.16,7022.55 L 5169.87,7033.96 L 4953.61,7104.31 L 4949.89,7092.9 L 5166.16,7022.55 Z " />
<path transform="matrix(0.1 0 0 0.1 -479.15 -691.9)" d="M 5400.39,7159.75 L 5387.21,7164.03 L 5178.96,6976.67 L 5181.84,6963.11 L 5400.39,7159.75 Z " />
<path transform="matrix(0.1 0 0 0.1 -479.15 -691.9)" d="M 5340.43,7441.32 L 5334,7442.69 L 5328.85,7438.05 L 5387.21,7164.03 L 5400.39,7159.75 L 5340.43,7441.32 Z " />
<path transform="matrix(0.1 0 0 0.1 -479.15 -691.9)" d="M 5295.54,7404 L 5283.8,7401.5 L 5331.17,7179.08 L 5342.9,7181.58 L 5295.54,7404 Z " />
<path transform="matrix(0.1 0 0 0.1 -479.15 -691.9)" d="M 5067.2,7535.65 L 5061.2,7531.29 L 5062.64,7524.51 L 5328.85,7438.05 L 5334,7442.69 L 5331.71,7449.74 L 5067.2,7535.65 Z " />
<path transform="matrix(0.1 0 0 0.1 -479.15 -691.9)" d="M 4841.21,7341.43 L 4854.39,7337.15 L 5062.64,7524.51 L 5061.2,7531.29 L 5055.2,7533.96 L 4841.21,7341.43 Z " />
<path transform="matrix(0.1 0 0 0.1 -479.15 -691.9)" d="M 4900.53,7325.3 L 4908.56,7316.38 L 5077.61,7468.48 L 5069.58,7477.4 L 4900.53,7325.3 Z " />
<path transform="matrix(0.1 0 0 0.1 -479.15 -691.9)" d="M 4902.25,7054.06 L 4912.55,7063.32 L 4854.39,7337.15 L 4841.21,7341.43 L 4902.25,7054.06 Z " />
<text x="0" y="0" transform="matrix(0.1 0 0 0.1 63.9083 83.4389)" font-size="200px">N</text>
<path transform="matrix(0.1 0 0 0.1 -479.15 -691.9)" d="M 5436.55,7573.56 L 5426.85,7580.61 L 5331.71,7449.74 L 5334,7442.69 L 5340.43,7441.32 L 5436.55,7573.56 Z " />
<path transform="matrix(0.1 0 0 0.1 -479.15 -691.9)" d="M 5340.43,7908.45 L 5334,7907.09 L 5331.71,7900.03 L 5424.31,7772.65 L 5434.02,7779.71 L 5340.43,7908.45 Z " />
<path transform="matrix(0.1 0 0 0.1 -479.15 -691.9)" d="M 5400.39,8190.03 L 5387.21,8185.75 L 5328.85,7911.72 L 5334,7907.09 L 5340.43,7908.45 L 5400.39,8190.03 Z " />
<path transform="matrix(0.1 0 0 0.1 -479.15 -691.9)" d="M 5342.9,8168.2 L 5331.17,8170.7 L 5283.8,7948.25 L 5295.53,7945.75 L 5342.9,8168.2 Z " />
<path transform="matrix(0.1 0 0 0.1 -479.15 -691.9)" d="M 5181.84,8386.67 L 5178.96,8373.11 L 5387.21,8185.75 L 5400.39,8190.03 L 5181.84,8386.67 Z " />
<path transform="matrix(0.1 0 0 0.1 -479.15 -691.9)" d="M 4902.25,8295.72 L 4912.55,8286.45 L 5178.96,8373.11 L 5181.84,8386.67 L 4902.25,8295.72 Z " />
<path transform="matrix(0.1 0 0 0.1 -479.15 -691.9)" d="M 4949.89,8256.88 L 4953.61,8245.47 L 5169.87,8315.82 L 5166.16,8327.23 L 4949.89,8256.88 Z " />
<path transform="matrix(0.1 0 0 0.1 -479.15 -691.9)" d="M 4841.21,8008.35 L 4854.39,8012.63 L 4912.55,8286.45 L 4902.25,8295.72 L 4841.21,8008.35 Z " />
<path transform="matrix(0.1 0 0 0.1 -479.15 -691.9)" d="M 5055.2,7815.62 L 5061.2,7818.29 L 5062.64,7825.07 L 4854.39,8012.63 L 4841.21,8008.35 L 5055.2,7815.62 Z " />
<path transform="matrix(0.1 0 0 0.1 -479.15 -691.9)" d="M 5069.59,7872.23 L 5077.62,7881.15 L 4908.58,8033.39 L 4900.55,8024.48 L 5069.59,7872.23 Z " />
<path transform="matrix(0.1 0 0 0.1 -479.15 -691.9)" d="M 5331.71,7900.03 L 5334,7907.09 L 5328.85,7911.72 L 5062.64,7825.07 L 5061.2,7818.29 L 5067.2,7813.93 L 5331.71,7900.03 Z " />
<path transform="matrix(0.1 0 0 0.1 -479.15 -691.9)" d="M 5055.2,7533.96 L 5061.2,7531.29 L 5067.2,7535.65 L 5067.2,7813.93 L 5061.2,7818.29 L 5055.2,7815.62 L 5055.2,7533.96 Z " />
<path transform="matrix(0.1 0 0 0.1 -479.15 -691.9)" d="M 5790.8,7668.89 L 5790.8,7680.89 L 5590.58,7680.89 L 5590.58,7668.89 L 5790.8,7668.89 Z " />
<path class="connection_out" stroke-width="18px" transform="matrix(0.1 0 0 0.1 -479.15 -691.9)" d="M 5746.8,7673.29 A 172.8,172.8 0 1 0 6092.4,7673.29A 172.8,172.8 0 1 0 5746.8,7673.29Z " />
</svg>
