<svg xmlns="http://www.w3.org/2000/svg" xmlns:xlink="http://www.w3.org/1999/xlink" viewBox="0 0 226.6179999999999 127.35000000000008" style="background-color: #ffffff00" version="1.1">
<g transform="matrix(1 0 0 1 -2.7100000000000932 -3.710000000000001)">
<text x="0" y="0" stroke="none" transform="matrix(0.1 0 0 0.1 72.0517 108.11)" font-style="normal" font-weight="bold" font-size="200px" font-family="Arial">
O</text>
<text x="0" y="0" stroke="none" transform="matrix(0.1 0 0 0.1 172.388 108.11)" font-style="normal" font-weight="bold" font-size="200px" font-family="Arial">
NH</text>
<text x="0" y="0" stroke="none" transform="matrix(0.1 0 0 0.1 201.275 112.41)" font-style="normal" font-weight="bold" font-size="150px" font-family="Arial">
2</text>
<text x="0" y="0" stroke="none" transform="matrix(0.1 0 0 0.1 172.388 50.51)" font-style="normal" font-weight="bold" font-size="200px" font-family="Arial">
N</text>
<text x="0" y="0" stroke="none" transform="matrix(0.1 0 0 0.1 186.832 42.66)" font-style="normal" font-weight="bold" font-size="150px" font-family="Arial">
+</text>
<text x="0" y="0" stroke="none" transform="matrix(0.1 0 0 0.1 171.832 21.71)" font-style="normal" font-weight="bold" font-size="200px" font-family="Arial">
O</text>
<text x="0" y="0" stroke="none" transform="matrix(0.1 0 0 0.1 196.772 64.91)" font-style="normal" font-weight="bold" font-size="200px" font-family="Arial">
O</text>
<text x="0" y="0" stroke="none" transform="matrix(0.1 0 0 0.1 212.328 57.06)" font-style="normal" font-weight="bold" font-size="150px" font-family="Arial">
-</text>
<path stroke="none" transform="matrix(0.1 0 0 0.1 -418.65 -302.8)" d="M 4480,4034.06 L 4486,4030.6 L 4492,4034.06 L 4492,4318.6 L 4480,4318.6 L 4480,4034.06 Z "/>
<path stroke="none" transform="matrix(0.1 0 0 0.1 -418.65 -302.8)" d="M 4233.6,3891.8 L 4239.6,3881.4 L 4486,4023.67 L 4486,4030.6 L 4480,4034.06 L 4233.6,3891.8 Z "/>
<path stroke="none" transform="matrix(0.1 0 0 0.1 -418.65 -302.8)" d="M 4735.4,3879.67 L 4735.4,3893.53 L 4492,4034.06 L 4486,4030.6 L 4486,4023.67 L 4735.4,3879.67 Z "/>
<path stroke="none" transform="matrix(0.1 0 0 0.1 -418.65 -302.8)" d="M 4898.75,3973.99 L 4892.75,3984.38 L 4735.4,3893.53 L 4735.4,3879.67 L 4898.75,3973.99 Z "/>
<path stroke="none" transform="matrix(0.1 0 0 0.1 -418.65 -302.8)" d="M 5228.2,3883.14 L 5234.2,3886.6 L 5234.2,3893.53 L 5077.29,3984.13 L 5071.29,3973.73 L 5228.2,3883.14 Z "/>
<path stroke="none" transform="matrix(0.1 0 0 0.1 -418.65 -302.8)" d="M 5483.8,4023.67 L 5483.8,4037.53 L 5234.2,3893.53 L 5234.2,3886.6 L 5240.2,3883.13 L 5483.8,4023.67 Z "/>
<path stroke="none" transform="matrix(0.1 0 0 0.1 -418.65 -302.8)" d="M 5727.2,3883.14 L 5733.2,3886.6 L 5733.2,3893.53 L 5483.8,4037.53 L 5483.8,4023.67 L 5727.2,3883.14 Z "/>
<path stroke="none" transform="matrix(0.1 0 0 0.1 -418.65 -302.8)" d="M 5678.36,3851.48 L 5684.36,3861.87 L 5486.79,3975.94 L 5480.79,3965.55 L 5678.36,3851.48 Z "/>
<path stroke="none" transform="matrix(0.1 0 0 0.1 -418.65 -302.8)" d="M 5885.39,3967.54 L 5879.39,3977.93 L 5733.2,3893.53 L 5733.2,3886.6 L 5739.2,3883.14 L 5885.39,3967.54 Z "/>
<path stroke="none" transform="matrix(0.1 0 0 0.1 -418.65 -302.8)" d="M 5727.2,3602.06 L 5733.2,3598.6 L 5739.2,3602.06 L 5739.2,3883.14 L 5733.2,3886.6 L 5727.2,3883.14 L 5727.2,3602.06 Z "/>
<path stroke="none" transform="matrix(0.1 0 0 0.1 -418.65 -302.8)" d="M 5877,3508.64 L 5883,3519.03 L 5739.2,3602.06 L 5733.2,3598.6 L 5733.2,3591.67 L 5877,3508.64 Z "/>
<path stroke="none" transform="matrix(0.1 0 0 0.1 -418.65 -302.8)" d="M 5950.68,3274.77 L 5962.68,3274.77 L 5962.68,3354.43 L 5950.68,3354.43 L 5950.68,3274.77 Z "/>
<path stroke="none" transform="matrix(0.1 0 0 0.1 -418.65 -302.8)" d="M 6002.52,3274.77 L 6014.52,3274.77 L 6014.52,3354.43 L 6002.52,3354.43 L 6002.52,3274.77 Z "/>
<path stroke="none" transform="matrix(0.1 0 0 0.1 -418.65 -302.8)" d="M 6145.95,3541.99 L 6139.95,3552.38 L 6081.12,3518.41 L 6087.12,3508.02 L 6145.95,3541.99 Z "/>
<path stroke="none" transform="matrix(0.1 0 0 0.1 -418.65 -302.8)" d="M 5483.8,3461.53 L 5483.8,3447.67 L 5733.2,3591.67 L 5733.2,3598.6 L 5727.2,3602.06 L 5483.8,3461.53 Z "/>
<path stroke="none" transform="matrix(0.1 0 0 0.1 -418.65 -302.8)" d="M 5480.79,3519.65 L 5486.79,3509.26 L 5684.36,3623.33 L 5678.36,3633.72 L 5480.79,3519.65 Z "/>
<path stroke="none" transform="matrix(0.1 0 0 0.1 -418.65 -302.8)" d="M 5240.2,3602.07 L 5234.2,3598.6 L 5234.2,3591.67 L 5483.8,3447.67 L 5483.8,3461.53 L 5240.2,3602.07 Z "/>
<path stroke="none" transform="matrix(0.1 0 0 0.1 -418.65 -302.8)" d="M 5228.2,3602.06 L 5234.2,3598.6 L 5240.2,3602.07 L 5240.2,3883.13 L 5234.2,3886.6 L 5228.2,3883.14 L 5228.2,3602.06 Z "/>
<path stroke="none" transform="matrix(0.1 0 0 0.1 -418.65 -302.8)" d="M 5280.04,3628.54 L 5292.04,3628.54 L 5292.04,3856.66 L 5280.04,3856.66 L 5280.04,3628.54 Z "/>
<path stroke="none" transform="matrix(0.1 0 0 0.1 -418.65 -302.8)" d="M 4981.8,3459.8 L 4987.8,3449.4 L 5234.2,3591.67 L 5234.2,3598.6 L 5228.2,3602.06 L 4981.8,3459.8 Z "/>
<path stroke="none" transform="matrix(0.1 0 0 0.1 -418.65 -302.8)" d="M 4821.5,3409.5 A 144,144 0 1 0 5109.5,3409.5A 144,144 0 1 0 4821.5,3409.5Z " class="connection_in" stroke-width="18px"/>
</g>
</svg>