<svg xmlns="http://www.w3.org/2000/svg" xmlns:xlink="http://www.w3.org/1999/xlink" viewBox="0 0 207.67999999999995 121.755" style="background-color: #ffffff00" version="1.1">
<g transform="matrix(1 0 0 1 -3.500000000000057 -2.75)">
<text x="0" y="0" stroke="none" transform="matrix(0.1 0 0 0.1 189.18 94.565)" font-style="normal" font-weight="bold" font-size="200px" font-family="Arial">
S</text>
<text x="0" y="0" stroke="none" transform="matrix(0.1 0 0 0.1 140.708 59.4817)" font-style="normal" font-weight="bold" font-size="200px" font-family="Arial">
H</text>
<text x="0" y="0" stroke="none" transform="matrix(0.1 0 0 0.1 140.708 76.165)" font-style="normal" font-weight="bold" font-size="200px" font-family="Arial">
N</text>
<text x="0" y="0" stroke="none" transform="matrix(0.1 0 0 0.1 146.14 122.505)" font-style="normal" font-weight="bold" font-size="200px" font-family="Arial">
S</text>
<path stroke="none" transform="matrix(0.1 0 0 0.1 -421.65 -465.8)" d="M 5873.21,5588.85 L 5871.96,5576.92 L 6087.19,5554.37 L 6088.44,5566.31 L 5873.21,5588.85 Z "/>
<path stroke="none" transform="matrix(0.1 0 0 0.1 -421.65 -465.8)" d="M 5867.77,5537.31 L 5866.52,5525.37 L 6081.79,5502.82 L 6083.04,5514.76 L 5867.77,5537.31 Z "/>
<path stroke="none" transform="matrix(0.1 0 0 0.1 -421.65 -465.8)" d="M 5774.47,5437.43 L 5783.39,5429.4 L 5895.98,5554.37 L 5881.22,5555.93 L 5774.47,5437.43 Z "/>
<path stroke="none" transform="matrix(0.1 0 0 0.1 -421.65 -465.8)" d="M 5439.22,5462.06 L 5432.8,5458.35 L 5433.15,5451.63 L 5591.54,5381.04 L 5596.43,5392 L 5439.22,5462.06 Z "/>
<path stroke="none" transform="matrix(0.1 0 0 0.1 -421.65 -465.8)" d="M 5183.2,5321.28 L 5183.2,5314.35 L 5189.2,5310.88 L 5433.15,5451.63 L 5432.8,5458.35 L 5427.15,5462.02 L 5183.2,5321.28 Z "/>
<path stroke="none" transform="matrix(0.1 0 0 0.1 -421.65 -465.8)" d="M 5177.2,5029.81 L 5189.2,5022.89 L 5189.2,5310.88 L 5183.2,5314.35 L 5177.2,5310.89 L 5177.2,5029.81 Z "/>
<path stroke="none" transform="matrix(0.1 0 0 0.1 -421.65 -465.8)" d="M 4933.8,4889.28 L 4933.8,4875.42 L 5189.2,5022.89 L 5177.2,5029.81 L 4933.8,4889.28 Z "/>
<path stroke="none" transform="matrix(0.1 0 0 0.1 -421.65 -465.8)" d="M 4930.8,4947.4 L 4936.8,4937.01 L 5134.36,5051.08 L 5128.36,5061.47 L 4930.8,4947.4 Z "/>
<path stroke="none" transform="matrix(0.1 0 0 0.1 -421.65 -465.8)" d="M 4690.4,5029.81 L 4684.4,5026.35 L 4684.4,5019.42 L 4933.8,4875.42 L 4933.8,4889.28 L 4690.4,5029.81 Z "/>
<path stroke="none" transform="matrix(0.1 0 0 0.1 -421.65 -465.8)" d="M 4432,4887.55 L 4438,4877.15 L 4684.4,5019.42 L 4684.4,5026.35 L 4678.4,5029.81 L 4432,4887.55 Z "/>
<path stroke="none" transform="matrix(0.1 0 0 0.1 -421.65 -465.8)" d="M 4690.4,5310.89 L 4678.4,5317.81 L 4678.4,5029.81 L 4684.4,5026.35 L 4690.4,5029.81 L 4690.4,5310.89 Z "/>
<path stroke="none" transform="matrix(0.1 0 0 0.1 -421.65 -465.8)" d="M 4742.24,5284.42 L 4730.24,5284.42 L 4730.24,5056.28 L 4742.24,5056.28 L 4742.24,5284.42 Z "/>
<path stroke="none" transform="matrix(0.1 0 0 0.1 -421.65 -465.8)" d="M 4933.8,5451.42 L 4933.8,5465.28 L 4678.4,5317.81 L 4690.4,5310.89 L 4933.8,5451.42 Z "/>
<path stroke="none" transform="matrix(0.1 0 0 0.1 -421.65 -465.8)" d="M 4933.8,5465.28 L 4933.8,5451.42 L 5177.2,5310.89 L 5183.2,5314.35 L 5183.2,5321.28 L 4933.8,5465.28 Z "/>
<path stroke="none" transform="matrix(0.1 0 0 0.1 -421.65 -465.8)" d="M 4936.8,5403.69 L 4930.8,5393.3 L 5128.36,5279.23 L 5134.36,5289.62 L 4936.8,5403.69 Z "/>
<path stroke="none" transform="matrix(0.1 0 0 0.1 -421.65 -465.8)" d="M 5468.31,5739.79 L 5457.29,5749.71 L 5427.15,5462.02 L 5432.8,5458.35 L 5439.22,5462.06 L 5468.31,5739.79 Z "/>
<path stroke="none" transform="matrix(0.1 0 0 0.1 -421.65 -465.8)" d="M 5516.39,5701.24 L 5504.46,5702.49 L 5482.31,5491 L 5494.24,5489.75 L 5516.39,5701.24 Z "/>
<path stroke="none" transform="matrix(0.1 0 0 0.1 -421.65 -465.8)" d="M 5655.68,5779.55 L 5653.19,5791.29 L 5457.29,5749.71 L 5468.31,5739.79 L 5655.68,5779.55 Z "/>
<path stroke="none" transform="matrix(0.1 0 0 0.1 -421.65 -465.8)" d="M 5801.33,5718.29 L 5790.94,5712.29 L 5881.22,5555.93 L 5895.98,5554.37 L 5801.33,5718.29 Z "/>
<path stroke="none" transform="matrix(0.1 0 0 0.1 -421.65 -465.8)" d="M 4271.5,4849.5 A 144,144 0 1 0 4559.5,4849.5A 144,144 0 1 0 4271.5,4849.5Z " class="connection_in" stroke-width="18px"/>
</g>
</svg>