<svg xmlns="http://www.w3.org/2000/svg" xmlns:xlink="http://www.w3.org/1999/xlink" viewBox="0 0 119.34999999999997 78.68300000000005" style="background-color: #ffffff00" version="1.1">
<g transform="matrix(1 0 0 1 -3.500000000000057 -2.75)">
<path stroke="none" transform="matrix(0.1 0 0 0.1 -479.65 -488.8)" d="M 5752.6,5538.33 L 5752.6,5531.4 L 5758.6,5527.94 L 6005,5670.2 L 5999,5680.6 L 5752.6,5538.33 Z "/>
<path stroke="none" transform="matrix(0.1 0 0 0.1 -479.65 -488.8)" d="M 5503.2,5682.33 L 5503.2,5668.47 L 5746.6,5527.94 L 5752.6,5531.4 L 5752.6,5538.33 L 5503.2,5682.33 Z "/>
<path stroke="none" transform="matrix(0.1 0 0 0.1 -479.65 -488.8)" d="M 5253.8,5538.33 L 5253.8,5531.4 L 5259.8,5527.94 L 5503.2,5668.47 L 5503.2,5682.33 L 5253.8,5538.33 Z "/>
<path stroke="none" transform="matrix(0.1 0 0 0.1 -479.65 -488.8)" d="M 5302.64,5506.67 L 5308.64,5496.28 L 5506.2,5610.35 L 5500.2,5620.74 L 5302.64,5506.67 Z "/>
<path stroke="none" transform="matrix(0.1 0 0 0.1 -479.65 -488.8)" d="M 5007.4,5680.6 L 5001.4,5670.2 L 5247.8,5527.94 L 5253.8,5531.4 L 5253.8,5538.33 L 5007.4,5680.6 Z "/>
<path stroke="none" transform="matrix(0.1 0 0 0.1 -479.65 -488.8)" d="M 5247.8,5246.86 L 5253.8,5243.4 L 5259.8,5246.86 L 5259.8,5527.94 L 5253.8,5531.4 L 5247.8,5527.94 L 5247.8,5246.86 Z "/>
<path stroke="none" transform="matrix(0.1 0 0 0.1 -479.65 -488.8)" d="M 5001.4,5104.6 L 5007.4,5094.2 L 5253.8,5236.47 L 5253.8,5243.4 L 5247.8,5246.86 L 5001.4,5104.6 Z "/>
<path stroke="none" transform="matrix(0.1 0 0 0.1 -479.65 -488.8)" d="M 5503.2,5092.47 L 5503.2,5106.33 L 5259.8,5246.86 L 5253.8,5243.4 L 5253.8,5236.47 L 5503.2,5092.47 Z "/>
<path stroke="none" transform="matrix(0.1 0 0 0.1 -479.65 -488.8)" d="M 5500.2,5154.06 L 5506.2,5164.45 L 5308.64,5278.52 L 5302.64,5268.13 L 5500.2,5154.06 Z "/>
<path stroke="none" transform="matrix(0.1 0 0 0.1 -479.65 -488.8)" d="M 5752.6,5236.47 L 5752.6,5243.4 L 5746.6,5246.86 L 5503.2,5106.33 L 5503.2,5092.47 L 5752.6,5236.47 Z "/>
<path stroke="none" transform="matrix(0.1 0 0 0.1 -479.65 -488.8)" d="M 5746.6,5246.86 L 5752.6,5243.4 L 5758.6,5246.86 L 5758.6,5527.94 L 5752.6,5531.4 L 5746.6,5527.94 L 5746.6,5246.86 Z "/>
<path stroke="none" transform="matrix(0.1 0 0 0.1 -479.65 -488.8)" d="M 5694.76,5273.33 L 5706.76,5273.33 L 5706.76,5501.47 L 5694.76,5501.47 L 5694.76,5273.33 Z "/>
<path stroke="none" transform="matrix(0.1 0 0 0.1 -479.65 -488.8)" d="M 5999,5094.2 L 6005,5104.6 L 5758.6,5246.86 L 5752.6,5243.4 L 5752.6,5236.47 L 5999,5094.2 Z "/>
<path stroke="none" transform="matrix(0.1 0 0 0.1 -479.65 -488.8)" d="M 4851.5,5079.5 A 144,144 0 1 0 5139.5,5079.5A 144,144 0 1 0 4851.5,5079.5Z " class="connection_in" stroke-width="18px"/>
</g>
</svg>