<svg xmlns="http://www.w3.org/2000/svg" xmlns:xlink="http://www.w3.org/1999/xlink" viewBox="0 0 160.37499999999994 214.132" style="background-color: #ffffff00" version="1.1">
<g transform="matrix(1 0 0 1 -3.500000000000057 -2.141999999999996)">
<text x="0" y="0" stroke="none" transform="matrix(0.1 0 0 0.1 117.491 156.678)" font-style="normal" font-weight="bold" font-size="200px" font-family="Arial">
NH</text>
<text x="0" y="0" stroke="none" transform="matrix(0.1 0 0 0.1 146.378 160.978)" font-style="normal" font-weight="bold" font-size="150px" font-family="Arial">
2</text>
<text x="0" y="0" stroke="none" transform="matrix(0.1 0 0 0.1 68.1616 185.475)" font-style="normal" font-weight="bold" font-size="200px" font-family="Arial">
S</text>
<text x="0" y="0" stroke="none" transform="matrix(0.1 0 0 0.1 38.2545 185.476)" font-style="normal" font-weight="bold" font-size="200px" font-family="Arial">
O</text>
<text x="0" y="0" stroke="none" transform="matrix(0.1 0 0 0.1 95.8519 185.474)" font-style="normal" font-weight="bold" font-size="200px" font-family="Arial">
O</text>
<text x="0" y="0" stroke="none" transform="matrix(0.1 0 0 0.1 67.054 214.274)" font-style="normal" font-weight="bold" font-size="200px" font-family="Arial">
OH</text>
<text x="0" y="0" stroke="none" transform="matrix(0.1 0 0 0.1 141.875 113.481)" font-style="normal" font-weight="bold" font-size="200px" font-family="Arial">
O</text>
<text x="0" y="0" stroke="none" transform="matrix(0.1 0 0 0.1 42.1086 55.8805)" font-style="normal" font-weight="bold" font-size="200px" font-family="Arial">
O</text>
<path stroke="none" transform="matrix(0.1 0 0 0.1 -481.65 -482.8)" d="M 5814.22,6179.21 L 5814.22,6172.28 L 5820.22,6168.81 L 5966.42,6253.22 L 5960.42,6263.62 L 5814.22,6179.21 Z "/>
<path stroke="none" transform="matrix(0.1 0 0 0.1 -481.65 -482.8)" d="M 5570.81,6319.73 L 5564.81,6316.27 L 5564.81,6309.34 L 5808.22,6168.81 L 5814.22,6172.28 L 5814.22,6179.21 L 5570.81,6319.73 Z "/>
<path stroke="none" transform="matrix(0.1 0 0 0.1 -481.65 -482.8)" d="M 5570.81,6501.42 L 5558.81,6501.42 L 5558.81,6319.73 L 5564.81,6316.27 L 5570.81,6319.73 L 5570.81,6501.42 Z "/>
<path stroke="none" transform="matrix(0.1 0 0 0.1 -481.65 -482.8)" d="M 5378.05,6636.18 L 5378.05,6624.18 L 5474.12,6624.17 L 5474.12,6636.17 L 5378.05,6636.18 Z "/>
<path stroke="none" transform="matrix(0.1 0 0 0.1 -481.65 -482.8)" d="M 5378.04,6584.34 L 5378.04,6572.34 L 5474.12,6572.34 L 5474.12,6584.34 L 5378.04,6584.34 Z "/>
<path stroke="none" transform="matrix(0.1 0 0 0.1 -481.65 -482.8)" d="M 5752.02,6572.33 L 5752.02,6584.33 L 5653.12,6584.33 L 5653.11,6572.33 L 5752.02,6572.33 Z "/>
<path stroke="none" transform="matrix(0.1 0 0 0.1 -481.65 -482.8)" d="M 5752.02,6624.17 L 5752.02,6636.17 L 5653.12,6636.17 L 5653.12,6624.17 L 5752.02,6624.17 Z "/>
<path stroke="none" transform="matrix(0.1 0 0 0.1 -481.65 -482.8)" d="M 5570.82,6789.41 L 5558.82,6789.41 L 5558.82,6712.42 L 5570.82,6712.42 L 5570.82,6789.41 Z "/>
<path stroke="none" transform="matrix(0.1 0 0 0.1 -481.65 -482.8)" d="M 5309.39,6175.73 L 5321.39,6168.8 L 5564.81,6309.34 L 5564.81,6316.27 L 5558.81,6319.73 L 5309.39,6175.73 Z "/>
<path stroke="none" transform="matrix(0.1 0 0 0.1 -481.65 -482.8)" d="M 5364.23,6147.53 L 5370.23,6137.14 L 5567.81,6251.21 L 5561.81,6261.6 L 5364.23,6147.53 Z "/>
<path stroke="none" transform="matrix(0.1 0 0 0.1 -481.65 -482.8)" d="M 5309.38,5887.74 L 5315.38,5884.28 L 5321.38,5887.74 L 5321.39,6168.8 L 5309.39,6175.73 L 5309.38,5887.74 Z "/>
<path stroke="none" transform="matrix(0.1 0 0 0.1 -481.65 -482.8)" d="M 5062.97,5745.47 L 5068.97,5735.08 L 5315.38,5877.35 L 5315.38,5884.28 L 5309.38,5887.74 L 5062.97,5745.47 Z "/>
<path stroke="none" transform="matrix(0.1 0 0 0.1 -481.65 -482.8)" d="M 5558.79,5736.83 L 5564.79,5740.29 L 5564.79,5747.22 L 5321.38,5887.74 L 5315.38,5884.28 L 5315.38,5877.35 L 5558.79,5736.83 Z "/>
<path stroke="none" transform="matrix(0.1 0 0 0.1 -481.65 -482.8)" d="M 5561.79,5794.95 L 5567.79,5805.34 L 5370.22,5919.4 L 5364.22,5909.01 L 5561.79,5794.95 Z "/>
<path stroke="none" transform="matrix(0.1 0 0 0.1 -481.65 -482.8)" d="M 5814.21,5877.36 L 5814.21,5884.29 L 5808.21,5887.76 L 5564.79,5747.22 L 5564.79,5740.29 L 5570.79,5736.83 L 5814.21,5877.36 Z "/>
<path stroke="none" transform="matrix(0.1 0 0 0.1 -481.65 -482.8)" d="M 5808.21,5887.76 L 5814.21,5884.29 L 5820.21,5887.76 L 5820.22,6168.81 L 5814.22,6172.28 L 5808.22,6168.81 L 5808.21,5887.76 Z "/>
<path stroke="none" transform="matrix(0.1 0 0 0.1 -481.65 -482.8)" d="M 5756.37,5914.22 L 5768.37,5914.22 L 5768.38,6142.35 L 5756.38,6142.35 L 5756.37,5914.22 Z "/>
<path stroke="none" transform="matrix(0.1 0 0 0.1 -481.65 -482.8)" d="M 6057.62,5736.84 L 6069.62,5743.77 L 5820.21,5887.76 L 5814.21,5884.29 L 5814.21,5877.36 L 6057.62,5736.84 Z "/>
<path stroke="none" transform="matrix(0.1 0 0 0.1 -481.65 -482.8)" d="M 6239.94,5805.25 L 6233.94,5815.64 L 6060.61,5715.57 L 6066.61,5705.18 L 6239.94,5805.25 Z "/>
<path stroke="none" transform="matrix(0.1 0 0 0.1 -481.65 -482.8)" d="M 6214.02,5850.14 L 6208.02,5860.54 L 6034.69,5760.47 L 6040.69,5750.07 L 6214.02,5850.14 Z "/>
<path stroke="none" transform="matrix(0.1 0 0 0.1 -481.65 -482.8)" d="M 6057.61,5455.78 L 6063.61,5452.32 L 6069.61,5455.78 L 6069.62,5743.77 L 6057.62,5736.84 L 6057.61,5455.78 Z "/>
<path stroke="none" transform="matrix(0.1 0 0 0.1 -481.65 -482.8)" d="M 6307.02,5304.87 L 6319.02,5311.8 L 6069.61,5455.78 L 6063.61,5452.32 L 6063.61,5445.39 L 6307.02,5304.87 Z "/>
<path stroke="none" transform="matrix(0.1 0 0 0.1 -481.65 -482.8)" d="M 6307.01,5023.81 L 6319.01,5016.88 L 6319.02,5311.8 L 6307.02,5304.87 L 6307.01,5023.81 Z "/>
<path stroke="none" transform="matrix(0.1 0 0 0.1 -481.65 -482.8)" d="M 6255.17,5050.27 L 6267.17,5050.27 L 6267.18,5278.4 L 6255.18,5278.4 L 6255.17,5050.27 Z "/>
<path stroke="none" transform="matrix(0.1 0 0 0.1 -481.65 -482.8)" d="M 6063.59,4883.27 L 6063.59,4869.42 L 6319.01,5016.88 L 6307.01,5023.81 L 6063.59,4883.27 Z "/>
<path stroke="none" transform="matrix(0.1 0 0 0.1 -481.65 -482.8)" d="M 5820.18,5023.8 L 5808.18,5016.87 L 6063.59,4869.42 L 6063.59,4883.27 L 5820.18,5023.8 Z "/>
<path stroke="none" transform="matrix(0.1 0 0 0.1 -481.65 -482.8)" d="M 5869.02,5055.46 L 5863.02,5045.06 L 6060.59,4931.01 L 6066.59,4941.4 L 5869.02,5055.46 Z "/>
<path stroke="none" transform="matrix(0.1 0 0 0.1 -481.65 -482.8)" d="M 5820.19,5304.85 L 5814.19,5308.32 L 5808.19,5304.85 L 5808.18,5016.87 L 5820.18,5023.8 L 5820.19,5304.85 Z "/>
<path stroke="none" transform="matrix(0.1 0 0 0.1 -481.65 -482.8)" d="M 5814.19,5315.25 L 5814.19,5308.32 L 5820.19,5304.85 L 6063.61,5445.39 L 6063.61,5452.32 L 6057.61,5455.78 L 5814.19,5315.25 Z "/>
<path stroke="none" transform="matrix(0.1 0 0 0.1 -481.65 -482.8)" d="M 5863.03,5283.58 L 5869.03,5273.19 L 6066.61,5387.26 L 6060.61,5397.66 L 5863.03,5283.58 Z "/>
<path stroke="none" transform="matrix(0.1 0 0 0.1 -481.65 -482.8)" d="M 5570.78,5455.77 L 5558.78,5448.84 L 5808.19,5304.85 L 5814.19,5308.32 L 5814.19,5315.25 L 5570.78,5455.77 Z "/>
<path stroke="none" transform="matrix(0.1 0 0 0.1 -481.65 -482.8)" d="M 5558.78,5448.84 L 5570.78,5455.77 L 5570.79,5736.83 L 5564.79,5740.29 L 5558.79,5736.83 L 5558.78,5448.84 Z "/>
<path stroke="none" transform="matrix(0.1 0 0 0.1 -481.65 -482.8)" d="M 5391.64,5389.2 L 5397.64,5378.81 L 5567.79,5477.04 L 5561.79,5487.43 L 5391.64,5389.2 Z "/>
<path stroke="none" transform="matrix(0.1 0 0 0.1 -481.65 -482.8)" d="M 5417.56,5344.3 L 5423.56,5333.91 L 5593.71,5432.14 L 5587.71,5442.54 L 5417.56,5344.3 Z "/>
<path stroke="none" transform="matrix(0.1 0 0 0.1 -481.65 -482.8)" d="M 4871.5,5709.5 A 144,144 0 1 0 5159.5,5709.5A 144,144 0 1 0 4871.5,5709.5Z " class="connection_in" stroke-width="18px"/>
</g>
</svg>