<svg xmlns="http://www.w3.org/2000/svg" xmlns:xlink="http://www.w3.org/1999/xlink" viewBox="0 0 218.12799999999993 111.99000000000001" style="background-color: #ffffff00" version="1.1">
<g transform="matrix(1 0 0 1 -3.500000000000057 -2.543000000000063)">
<text x="0" y="0" stroke="none" transform="matrix(0.1 0 0 0.1 99.8517 45.7454)" font-style="normal" font-weight="bold" font-size="200px" font-family="Arial">
O</text>
<text x="0" y="0" stroke="none" transform="matrix(0.1 0 0 0.1 115.36 70.6854)" font-style="normal" font-weight="bold" font-size="200px" font-family="Arial">
S</text>
<text x="0" y="0" stroke="none" transform="matrix(0.1 0 0 0.1 128.652 95.6254)" font-style="normal" font-weight="bold" font-size="200px" font-family="Arial">
O</text>
<text x="0" y="0" stroke="none" transform="matrix(0.1 0 0 0.1 64.1001 73.3654)" font-style="normal" font-weight="bold" font-size="200px" font-family="Arial">
S</text>
<text x="0" y="0" stroke="none" transform="matrix(0.1 0 0 0.1 139.748 56.2854)" font-style="normal" font-weight="bold" font-size="200px" font-family="Arial">
N</text>
<text x="0" y="0" stroke="none" transform="matrix(0.1 0 0 0.1 189.628 27.4854)" font-style="normal" font-weight="bold" font-size="200px" font-family="Arial">
NH</text>
<path stroke="none" transform="matrix(0.1 0 0 0.1 -426.65 -510.8)" d="M 5462.24,5629.98 L 5451.85,5635.98 L 5414.81,5571.83 L 5425.2,5565.83 L 5462.24,5629.98 Z "/>
<path stroke="none" transform="matrix(0.1 0 0 0.1 -426.65 -510.8)" d="M 5417.35,5655.9 L 5406.96,5661.9 L 5369.91,5597.75 L 5380.31,5591.75 L 5417.35,5655.9 Z "/>
<path stroke="none" transform="matrix(0.1 0 0 0.1 -426.65 -510.8)" d="M 5606.29,5879.46 L 5595.89,5885.46 L 5558.89,5821.38 L 5569.29,5815.38 L 5606.29,5879.46 Z "/>
<path stroke="none" transform="matrix(0.1 0 0 0.1 -426.65 -510.8)" d="M 5561.39,5905.38 L 5551,5911.38 L 5514,5847.3 L 5524.39,5841.3 L 5561.39,5905.38 Z "/>
<path stroke="none" transform="matrix(0.1 0 0 0.1 -426.65 -510.8)" d="M 5243.05,5884.02 L 5237.4,5880.35 L 5237.05,5873.63 L 5394.52,5782.7 L 5400.52,5793.1 L 5243.05,5884.02 Z "/>
<path stroke="none" transform="matrix(0.1 0 0 0.1 -426.65 -510.8)" d="M 5212.71,6171.72 L 5201.69,6161.79 L 5230.98,5884.06 L 5237.4,5880.35 L 5243.05,5884.02 L 5212.71,6171.72 Z "/>
<path stroke="none" transform="matrix(0.1 0 0 0.1 -426.65 -510.8)" d="M 5165.56,6124.5 L 5153.63,6123.24 L 5175.93,5911.75 L 5187.86,5913.01 L 5165.56,6124.5 Z "/>
<path stroke="none" transform="matrix(0.1 0 0 0.1 -426.65 -510.8)" d="M 4922.58,6233.33 L 4928.62,6219.78 L 5201.69,6161.79 L 5212.71,6171.72 L 4922.58,6233.33 Z "/>
<path stroke="none" transform="matrix(0.1 0 0 0.1 -426.65 -510.8)" d="M 4777.93,5982.8 L 4781.6,5977.15 L 4788.98,5977.93 L 4928.62,6219.78 L 4922.58,6233.33 L 4777.93,5982.8 Z "/>
<path stroke="none" transform="matrix(0.1 0 0 0.1 -426.65 -510.8)" d="M 4840.12,5986.84 L 4850.52,5980.84 L 4956.86,6165.03 L 4946.47,6171.03 L 4840.12,5986.84 Z "/>
<path stroke="none" transform="matrix(0.1 0 0 0.1 -426.65 -510.8)" d="M 4494.38,5953.12 L 4495.62,5941.19 L 4779.18,5970.87 L 4781.6,5977.15 L 4777.93,5982.8 L 4494.38,5953.12 Z "/>
<path stroke="none" transform="matrix(0.1 0 0 0.1 -426.65 -510.8)" d="M 4897.62,5839.28 L 4906.54,5847.3 L 4788.98,5977.93 L 4781.6,5977.15 L 4779.18,5970.87 L 4897.62,5839.28 Z "/>
<path stroke="none" transform="matrix(0.1 0 0 0.1 -426.65 -510.8)" d="M 5063.84,5809.64 L 5068.72,5798.67 L 5237.05,5873.63 L 5237.4,5880.35 L 5230.98,5884.06 L 5063.84,5809.64 Z "/>
<path stroke="none" transform="matrix(0.1 0 0 0.1 -426.65 -510.8)" d="M 5630.68,5646.35 L 5636.68,5656.75 L 5573.82,5693.04 L 5567.82,5682.65 L 5630.68,5646.35 Z "/>
<path stroke="none" transform="matrix(0.1 0 0 0.1 -426.65 -510.8)" d="M 5730.2,5300.89 L 5742.2,5307.82 L 5742.2,5492.02 L 5730.2,5492.02 L 5730.2,5300.89 Z "/>
<path stroke="none" transform="matrix(0.1 0 0 0.1 -426.65 -510.8)" d="M 5985.6,5153.43 L 5985.6,5167.28 L 5742.2,5307.82 L 5730.2,5300.89 L 5985.6,5153.43 Z "/>
<path stroke="none" transform="matrix(0.1 0 0 0.1 -426.65 -510.8)" d="M 6137.79,5241.3 L 6131.79,5251.69 L 5985.6,5167.28 L 5985.6,5153.43 L 6137.79,5241.3 Z "/>
<path stroke="none" transform="matrix(0.1 0 0 0.1 -426.65 -510.8)" d="M 6241,5595.82 L 6229,5588.89 L 6229,5410.02 L 6241,5410.02 L 6241,5595.82 Z "/>
<path stroke="none" transform="matrix(0.1 0 0 0.1 -426.65 -510.8)" d="M 5985.6,5743.28 L 5985.6,5729.43 L 6229,5588.89 L 6241,5595.82 L 5985.6,5743.28 Z "/>
<path stroke="none" transform="matrix(0.1 0 0 0.1 -426.65 -510.8)" d="M 5985.6,5729.43 L 5985.6,5743.28 L 5834.65,5656.12 L 5840.65,5645.73 L 5985.6,5729.43 Z "/>
<path stroke="none" transform="matrix(0.1 0 0 0.1 -426.65 -510.8)" d="M 4321.5,5919.5 A 144,144 0 1 0 4609.5,5919.5A 144,144 0 1 0 4321.5,5919.5Z " class="connection_in" stroke-width="18px"/>
</g>
</svg>