<svg xmlns="http://www.w3.org/2000/svg" xmlns:xlink="http://www.w3.org/1999/xlink" viewBox="0 0 340.28000000000003 209.1430000000001" style="background-color: #ffffff00" version="1.1">
<g transform="matrix(1 0 0 1 -3.500000000000057 -2.75)">
<text x="0" y="0" stroke="none" transform="matrix(0.1 0 0 0.1 208.982 116.25)" font-style="normal" font-weight="bold" font-size="200px" font-family="Arial">
O</text>
<text x="0" y="0" stroke="none" transform="matrix(0.1 0 0 0.1 109.778 87.45)" font-style="normal" font-weight="bold" font-size="200px" font-family="Arial">
NH</text>
<text x="0" y="0" stroke="none" transform="matrix(0.1 0 0 0.1 110.891 29.85)" font-style="normal" font-weight="bold" font-size="200px" font-family="Arial">
F</text>
<text x="0" y="0" stroke="none" transform="matrix(0.1 0 0 0.1 84.8382 130.65)" font-style="normal" font-weight="bold" font-size="200px" font-family="Arial">
N</text>
<text x="0" y="0" stroke="none" transform="matrix(0.1 0 0 0.1 109.778 173.85)" font-style="normal" font-weight="bold" font-size="200px" font-family="Arial">
N</text>
<text x="0" y="0" stroke="none" transform="matrix(0.1 0 0 0.1 208.982 173.85)" font-style="normal" font-weight="bold" font-size="200px" font-family="Arial">
O</text>
<text x="0" y="0" stroke="none" transform="matrix(0.1 0 0 0.1 309.318 202.65)" font-style="normal" font-weight="bold" font-size="200px" font-family="Arial">
N</text>
<path stroke="none" transform="matrix(0.1 0 0 0.1 -359.65 -362.8)" d="M 5853.33,4770.45 L 5859.33,4760.06 L 6016.5,4850.8 L 6010.5,4861.2 L 5853.33,4770.45 Z "/>
<path stroke="none" transform="matrix(0.1 0 0 0.1 -359.65 -362.8)" d="M 5520.7,4859.46 L 5514.7,4856 L 5514.7,4849.07 L 5669.31,4759.8 L 5675.31,4770.19 L 5520.7,4859.46 Z "/>
<path stroke="none" transform="matrix(0.1 0 0 0.1 -359.65 -362.8)" d="M 5265.3,4718.93 L 5265.3,4705.07 L 5514.7,4849.07 L 5514.7,4856 L 5508.7,4859.46 L 5265.3,4718.93 Z "/>
<path stroke="none" transform="matrix(0.1 0 0 0.1 -359.65 -362.8)" d="M 5262.3,4777.05 L 5268.3,4766.66 L 5465.86,4880.73 L 5459.86,4891.12 L 5262.3,4777.05 Z "/>
<path stroke="none" transform="matrix(0.1 0 0 0.1 -359.65 -362.8)" d="M 5021.9,4859.46 L 5015.9,4856 L 5015.9,4849.07 L 5265.3,4705.07 L 5265.3,4718.93 L 5021.9,4859.46 Z "/>
<path stroke="none" transform="matrix(0.1 0 0 0.1 -359.65 -362.8)" d="M 4766.5,4718.93 L 4766.5,4712 L 4772.5,4708.54 L 5015.9,4849.07 L 5015.9,4856 L 5009.9,4859.46 L 4766.5,4718.93 Z "/>
<path stroke="none" transform="matrix(0.1 0 0 0.1 -359.65 -362.8)" d="M 4763.5,4777.05 L 4769.5,4766.66 L 4967.06,4880.73 L 4961.06,4891.12 L 4763.5,4777.05 Z "/>
<path stroke="none" transform="matrix(0.1 0 0 0.1 -359.65 -362.8)" d="M 4760.5,4529.67 L 4772.5,4529.67 L 4772.5,4708.54 L 4766.5,4712 L 4760.5,4708.54 L 4760.5,4529.67 Z "/>
<path stroke="none" transform="matrix(0.1 0 0 0.1 -359.65 -362.8)" d="M 4517.1,4286.93 L 4517.1,4280 L 4523.1,4276.54 L 4669.29,4360.94 L 4663.29,4371.33 L 4517.1,4286.93 Z "/>
<path stroke="none" transform="matrix(0.1 0 0 0.1 -359.65 -362.8)" d="M 4267.7,4430.93 L 4267.7,4417.07 L 4511.1,4276.54 L 4517.1,4280 L 4517.1,4286.93 L 4267.7,4430.93 Z "/>
<path stroke="none" transform="matrix(0.1 0 0 0.1 -359.65 -362.8)" d="M 4012.3,4283.46 L 4024.3,4276.54 L 4267.7,4417.07 L 4267.7,4430.93 L 4012.3,4283.46 Z "/>
<path stroke="none" transform="matrix(0.1 0 0 0.1 -359.65 -362.8)" d="M 4067.14,4255.27 L 4073.14,4244.88 L 4270.7,4358.95 L 4264.7,4369.34 L 4067.14,4255.27 Z "/>
<path stroke="none" transform="matrix(0.1 0 0 0.1 -359.65 -362.8)" d="M 4012.3,3995.46 L 4018.3,3992 L 4024.3,3995.46 L 4024.3,4276.54 L 4012.3,4283.46 L 4012.3,3995.46 Z "/>
<path stroke="none" transform="matrix(0.1 0 0 0.1 -359.65 -362.8)" d="M 3765.9,3853.2 L 3771.9,3842.8 L 4018.3,3985.07 L 4018.3,3992 L 4012.3,3995.46 L 3765.9,3853.2 Z "/>
<path stroke="none" transform="matrix(0.1 0 0 0.1 -359.65 -362.8)" d="M 4267.7,3841.07 L 4267.7,3854.93 L 4024.3,3995.46 L 4018.3,3992 L 4018.3,3985.07 L 4267.7,3841.07 Z "/>
<path stroke="none" transform="matrix(0.1 0 0 0.1 -359.65 -362.8)" d="M 4264.7,3902.66 L 4270.7,3913.05 L 4073.14,4027.12 L 4067.14,4016.73 L 4264.7,3902.66 Z "/>
<path stroke="none" transform="matrix(0.1 0 0 0.1 -359.65 -362.8)" d="M 4517.1,3985.07 L 4517.1,3992 L 4511.1,3995.46 L 4267.7,3854.93 L 4267.7,3841.07 L 4517.1,3985.07 Z "/>
<path stroke="none" transform="matrix(0.1 0 0 0.1 -359.65 -362.8)" d="M 4511.1,3995.46 L 4517.1,3992 L 4523.1,3995.46 L 4523.1,4276.54 L 4517.1,4280 L 4511.1,4276.54 L 4511.1,3995.46 Z "/>
<path stroke="none" transform="matrix(0.1 0 0 0.1 -359.65 -362.8)" d="M 4459.26,4021.93 L 4471.26,4021.93 L 4471.26,4250.07 L 4459.26,4250.07 L 4459.26,4021.93 Z "/>
<path stroke="none" transform="matrix(0.1 0 0 0.1 -359.65 -362.8)" d="M 4671.06,3896.18 L 4677.06,3906.57 L 4523.1,3995.46 L 4517.1,3992 L 4517.1,3985.07 L 4671.06,3896.18 Z "/>
<path stroke="none" transform="matrix(0.1 0 0 0.1 -359.65 -362.8)" d="M 4619.24,4803.95 L 4613.24,4793.56 L 4760.5,4708.54 L 4766.5,4712 L 4766.5,4718.93 L 4619.24,4803.95 Z "/>
<path stroke="none" transform="matrix(0.1 0 0 0.1 -359.65 -362.8)" d="M 4523.1,5140.54 L 4511.1,5147.46 L 4511.1,4961.67 L 4523.1,4961.67 L 4523.1,5140.54 Z "/>
<path stroke="none" transform="matrix(0.1 0 0 0.1 -359.65 -362.8)" d="M 4574.94,5114.07 L 4562.94,5114.07 L 4562.94,4961.67 L 4574.94,4961.67 L 4574.94,5114.07 Z "/>
<path stroke="none" transform="matrix(0.1 0 0 0.1 -359.65 -362.8)" d="M 4669.29,5224.94 L 4663.29,5235.33 L 4511.1,5147.46 L 4523.1,5140.54 L 4669.29,5224.94 Z "/>
<path stroke="none" transform="matrix(0.1 0 0 0.1 -359.65 -362.8)" d="M 5009.9,5140.54 L 5015.9,5144 L 5015.9,5150.93 L 4868.64,5235.95 L 4862.64,5225.56 L 5009.9,5140.54 Z "/>
<path stroke="none" transform="matrix(0.1 0 0 0.1 -359.65 -362.8)" d="M 4961.06,5108.88 L 4967.06,5119.27 L 4842.72,5191.06 L 4836.72,5180.67 L 4961.06,5108.88 Z "/>
<path stroke="none" transform="matrix(0.1 0 0 0.1 -359.65 -362.8)" d="M 5021.9,5140.54 L 5015.9,5144 L 5009.9,5140.54 L 5009.9,4859.46 L 5015.9,4856 L 5021.9,4859.46 L 5021.9,5140.54 Z "/>
<path stroke="none" transform="matrix(0.1 0 0 0.1 -359.65 -362.8)" d="M 5265.3,5281.07 L 5265.3,5294.93 L 5015.9,5150.93 L 5015.9,5144 L 5021.9,5140.54 L 5265.3,5281.07 Z "/>
<path stroke="none" transform="matrix(0.1 0 0 0.1 -359.65 -362.8)" d="M 5508.7,5140.54 L 5514.7,5144 L 5514.7,5150.93 L 5265.3,5294.93 L 5265.3,5281.07 L 5508.7,5140.54 Z "/>
<path stroke="none" transform="matrix(0.1 0 0 0.1 -359.65 -362.8)" d="M 5459.86,5108.88 L 5465.86,5119.27 L 5268.3,5233.34 L 5262.3,5222.95 L 5459.86,5108.88 Z "/>
<path stroke="none" transform="matrix(0.1 0 0 0.1 -359.65 -362.8)" d="M 5520.7,5140.54 L 5514.7,5144 L 5508.7,5140.54 L 5508.7,4859.46 L 5514.7,4856 L 5520.7,4859.46 L 5520.7,5140.54 Z "/>
<path stroke="none" transform="matrix(0.1 0 0 0.1 -359.65 -362.8)" d="M 5678.05,5231.39 L 5672.05,5241.78 L 5514.7,5150.93 L 5514.7,5144 L 5520.7,5140.54 L 5678.05,5231.39 Z "/>
<path stroke="none" transform="matrix(0.1 0 0 0.1 -359.65 -362.8)" d="M 6013.5,5137.07 L 6013.5,5150.93 L 5856.59,5241.53 L 5850.59,5231.13 L 6013.5,5137.07 Z "/>
<path stroke="none" transform="matrix(0.1 0 0 0.1 -359.65 -362.8)" d="M 6262.9,5281.07 L 6262.9,5288 L 6256.9,5291.46 L 6013.5,5150.93 L 6013.5,5137.07 L 6262.9,5281.07 Z "/>
<path stroke="none" transform="matrix(0.1 0 0 0.1 -359.65 -362.8)" d="M 6268.9,5572.54 L 6256.9,5579.46 L 6256.9,5291.46 L 6262.9,5288 L 6268.9,5291.46 L 6268.9,5572.54 Z "/>
<path stroke="none" transform="matrix(0.1 0 0 0.1 -359.65 -362.8)" d="M 6512.3,5713.07 L 6512.3,5726.93 L 6256.9,5579.46 L 6268.9,5572.54 L 6512.3,5713.07 Z "/>
<path stroke="none" transform="matrix(0.1 0 0 0.1 -359.65 -362.8)" d="M 6656.37,5629.96 L 6662.36,5640.35 L 6512.3,5726.93 L 6512.3,5713.07 L 6656.37,5629.96 Z "/>
<path stroke="none" transform="matrix(0.1 0 0 0.1 -359.65 -362.8)" d="M 7014.3,5714.8 L 7008.3,5725.2 L 6860.35,5639.77 L 6866.35,5629.38 L 7014.3,5714.8 Z "/>
<path stroke="none" transform="matrix(0.1 0 0 0.1 -359.65 -362.8)" d="M 6755.9,5291.47 L 6767.9,5284.53 L 6767.9,5475.67 L 6755.9,5475.67 L 6755.9,5291.47 Z "/>
<path stroke="none" transform="matrix(0.1 0 0 0.1 -359.65 -362.8)" d="M 6512.3,5150.93 L 6512.3,5137.07 L 6767.9,5284.53 L 6755.9,5291.47 L 6512.3,5150.93 Z "/>
<path stroke="none" transform="matrix(0.1 0 0 0.1 -359.65 -362.8)" d="M 6512.3,5137.07 L 6512.3,5150.93 L 6268.9,5291.46 L 6262.9,5288 L 6262.9,5281.07 L 6512.3,5137.07 Z "/>
<path stroke="none" transform="matrix(0.1 0 0 0.1 -359.65 -362.8)" d="M 3651.5,3819.5 A 144,144 0 1 0 3939.5,3819.5A 144,144 0 1 0 3651.5,3819.5Z " class="connection_in" stroke-width="18px"/>
</g>
</svg>