<svg xmlns="http://www.w3.org/2000/svg" xmlns:xlink="http://www.w3.org/1999/xlink" viewBox="0 0 218.03099999999992 121.27199999999999" style="background-color: #ffffff00" version="1.1">
<g transform="matrix(1 0 0 1 -2.102000000000089 -2.75)">
<text x="0" y="0" stroke="none" transform="matrix(0.1 0 0 0.1 96.7033 114.779)" font-style="normal" font-weight="bold" font-size="200px" font-family="Arial">
O</text>
<text x="0" y="0" stroke="none" transform="matrix(0.1 0 0 0.1 72.3199 54.8955)" font-style="normal" font-weight="bold" font-size="200px" font-family="Arial">
H</text>
<text x="0" y="0" stroke="none" transform="matrix(0.1 0 0 0.1 72.3199 71.5788)" font-style="normal" font-weight="bold" font-size="200px" font-family="Arial">
N</text>
<text x="0" y="0" stroke="none" transform="matrix(0.1 0 0 0.1 198.133 85.9788)" font-style="normal" font-weight="bold" font-size="200px" font-family="Arial">
F</text>
<path stroke="none" transform="matrix(0.1 0 0 0.1 -422.65 -407.8)" d="M 5239.4,4844.32 L 5251.4,4844.32 L 5251.4,5044.46 L 5239.4,5044.46 L 5239.4,4844.32 Z "/>
<path stroke="none" transform="matrix(0.1 0 0 0.1 -422.65 -407.8)" d="M 5291.24,4844.32 L 5303.24,4844.32 L 5303.24,5044.46 L 5291.24,5044.46 L 5291.24,4844.32 Z "/>
<path stroke="none" transform="matrix(0.1 0 0 0.1 -422.65 -407.8)" d="M 5120.44,4779.1 L 5126.44,4768.71 L 5271.32,4852.36 L 5271.32,4866.22 L 5120.44,4779.1 Z "/>
<path stroke="none" transform="matrix(0.1 0 0 0.1 -422.65 -407.8)" d="M 4778.32,4862.75 L 4772.32,4859.29 L 4772.32,4852.36 L 4916.31,4769.29 L 4922.31,4779.68 L 4778.32,4862.75 Z "/>
<path stroke="none" transform="matrix(0.1 0 0 0.1 -422.65 -407.8)" d="M 4778.32,5150.75 L 4766.32,5143.82 L 4766.32,4862.75 L 4772.32,4859.29 L 4778.32,4862.75 L 4778.32,5150.75 Z "/>
<path stroke="none" transform="matrix(0.1 0 0 0.1 -422.65 -407.8)" d="M 4522.92,5298.22 L 4522.92,5284.36 L 4766.32,5143.82 L 4778.32,5150.75 L 4522.92,5298.22 Z "/>
<path stroke="none" transform="matrix(0.1 0 0 0.1 -422.65 -407.8)" d="M 4525.92,5236.63 L 4519.92,5226.23 L 4717.48,5112.16 L 4723.48,5122.56 L 4525.92,5236.63 Z "/>
<path stroke="none" transform="matrix(0.1 0 0 0.1 -422.65 -407.8)" d="M 4267.52,5150.75 L 4279.52,5143.82 L 4522.92,5284.36 L 4522.92,5298.22 L 4267.52,5150.75 Z "/>
<path stroke="none" transform="matrix(0.1 0 0 0.1 -422.65 -407.8)" d="M 4267.52,4855.82 L 4279.52,4862.75 L 4279.52,5143.82 L 4267.52,5150.75 L 4267.52,4855.82 Z "/>
<path stroke="none" transform="matrix(0.1 0 0 0.1 -422.65 -407.8)" d="M 4319.36,4889.22 L 4331.36,4889.22 L 4331.36,5117.36 L 4319.36,5117.36 L 4319.36,4889.22 Z "/>
<path stroke="none" transform="matrix(0.1 0 0 0.1 -422.65 -407.8)" d="M 4522.92,4708.36 L 4522.92,4722.22 L 4279.52,4862.75 L 4267.52,4855.82 L 4522.92,4708.36 Z "/>
<path stroke="none" transform="matrix(0.1 0 0 0.1 -422.65 -407.8)" d="M 4522.92,4722.22 L 4522.92,4708.36 L 4772.32,4852.36 L 4772.32,4859.29 L 4766.32,4862.75 L 4522.92,4722.22 Z "/>
<path stroke="none" transform="matrix(0.1 0 0 0.1 -422.65 -407.8)" d="M 4519.92,4780.34 L 4525.92,4769.95 L 4723.48,4884.02 L 4717.48,4894.41 L 4519.92,4780.34 Z "/>
<path stroke="none" transform="matrix(0.1 0 0 0.1 -422.65 -407.8)" d="M 5514.72,4711.82 L 5520.72,4715.29 L 5520.72,4722.22 L 5271.32,4866.22 L 5271.32,4852.36 L 5514.72,4711.82 Z "/>
<path stroke="none" transform="matrix(0.1 0 0 0.1 -422.65 -407.8)" d="M 5770.12,4852.36 L 5770.12,4866.22 L 5520.72,4722.22 L 5520.72,4715.29 L 5526.72,4711.82 L 5770.12,4852.36 Z "/>
<path stroke="none" transform="matrix(0.1 0 0 0.1 -422.65 -407.8)" d="M 6013.52,4711.82 L 6019.52,4715.29 L 6019.52,4722.22 L 5770.12,4866.22 L 5770.12,4852.36 L 6013.52,4711.82 Z "/>
<path stroke="none" transform="matrix(0.1 0 0 0.1 -422.65 -407.8)" d="M 5964.68,4680.16 L 5970.68,4690.56 L 5773.12,4804.63 L 5767.12,4794.23 L 5964.68,4680.16 Z "/>
<path stroke="none" transform="matrix(0.1 0 0 0.1 -422.65 -407.8)" d="M 6180.05,4801.05 L 6174.05,4811.44 L 6019.52,4722.22 L 6019.52,4715.29 L 6025.52,4711.82 L 6180.05,4801.05 Z "/>
<path stroke="none" transform="matrix(0.1 0 0 0.1 -422.65 -407.8)" d="M 6013.52,4430.75 L 6025.52,4423.82 L 6025.52,4711.82 L 6019.52,4715.29 L 6013.52,4711.82 L 6013.52,4430.75 Z "/>
<path stroke="none" transform="matrix(0.1 0 0 0.1 -422.65 -407.8)" d="M 5770.12,4290.22 L 5770.12,4276.36 L 6025.52,4423.82 L 6013.52,4430.75 L 5770.12,4290.22 Z "/>
<path stroke="none" transform="matrix(0.1 0 0 0.1 -422.65 -407.8)" d="M 5767.12,4348.34 L 5773.12,4337.95 L 5970.68,4452.02 L 5964.68,4462.41 L 5767.12,4348.34 Z "/>
<path stroke="none" transform="matrix(0.1 0 0 0.1 -422.65 -407.8)" d="M 5526.72,4430.75 L 5520.72,4427.29 L 5520.72,4420.36 L 5770.12,4276.36 L 5770.12,4290.22 L 5526.72,4430.75 Z "/>
<path stroke="none" transform="matrix(0.1 0 0 0.1 -422.65 -407.8)" d="M 5514.72,4430.75 L 5520.72,4427.29 L 5526.72,4430.75 L 5526.72,4711.82 L 5520.72,4715.29 L 5514.72,4711.82 L 5514.72,4430.75 Z "/>
<path stroke="none" transform="matrix(0.1 0 0 0.1 -422.65 -407.8)" d="M 5566.56,4457.22 L 5578.56,4457.22 L 5578.56,4685.36 L 5566.56,4685.36 L 5566.56,4457.22 Z "/>
<path stroke="none" transform="matrix(0.1 0 0 0.1 -422.65 -407.8)" d="M 5268.32,4288.48 L 5274.32,4278.09 L 5520.72,4420.36 L 5520.72,4427.29 L 5514.72,4430.75 L 5268.32,4288.48 Z "/>
<path stroke="none" transform="matrix(0.1 0 0 0.1 -422.65 -407.8)" d="M 5121.5,4269.5 A 144,144 0 1 0 5409.5,4269.5A 144,144 0 1 0 5121.5,4269.5Z " class="connection_in" stroke-width="18px"/>
</g>
</svg>