<svg xmlns="http://www.w3.org/2000/svg" xmlns:xlink="http://www.w3.org/1999/xlink" viewBox="0 0 203.28200000000004 112.22030000000001" style="background-color: #ffffff00" version="1.1">
<g transform="matrix(1 0 0 1 -2.20900000000006 -3.5066999999999986)">
<text x="0" y="0" stroke="none" transform="matrix(0.1 0 0 0.1 21.6704 113.727)" font-style="normal" font-weight="bold" font-size="200px" font-family="Arial">
O</text>
<text x="0" y="0" stroke="none" transform="matrix(0.1 0 0 0.1 153.719 21.5067)" font-style="normal" font-weight="bold" font-size="200px" font-family="Arial">
S</text>
<text x="0" y="0" stroke="none" transform="matrix(0.1 0 0 0.1 148.307 67.8467)" font-style="normal" font-weight="bold" font-size="200px" font-family="Arial">
N</text>
<path stroke="none" transform="matrix(0.1 0 0 0.1 -465.65 -421.8)" d="M 4864.94,5220.16 L 4858.94,5230.55 L 4698.59,5137.96 L 4704.59,5127.57 L 4864.94,5220.16 Z "/>
<path stroke="none" transform="matrix(0.1 0 0 0.1 -465.65 -421.8)" d="M 5194.39,5129.3 L 5200.39,5132.77 L 5200.39,5139.69 L 5043.48,5230.29 L 5037.48,5219.9 L 5194.39,5129.3 Z "/>
<path stroke="none" transform="matrix(0.1 0 0 0.1 -465.65 -421.8)" d="M 5449.79,5269.84 L 5449.79,5283.69 L 5200.39,5139.69 L 5200.39,5132.77 L 5206.39,5129.3 L 5449.79,5269.84 Z "/>
<path stroke="none" transform="matrix(0.1 0 0 0.1 -465.65 -421.8)" d="M 5693.19,5129.3 L 5705.19,5136.23 L 5449.79,5283.69 L 5449.79,5269.84 L 5693.19,5129.3 Z "/>
<path stroke="none" transform="matrix(0.1 0 0 0.1 -465.65 -421.8)" d="M 5644.35,5097.64 L 5650.35,5108.04 L 5452.79,5222.1 L 5446.79,5211.71 L 5644.35,5097.64 Z "/>
<path stroke="none" transform="matrix(0.1 0 0 0.1 -465.65 -421.8)" d="M 5693.19,4848.23 L 5699.19,4844.77 L 5705.19,4848.23 L 5705.19,5136.23 L 5693.19,5129.3 L 5693.19,4848.23 Z "/>
<path stroke="none" transform="matrix(0.1 0 0 0.1 -465.65 -421.8)" d="M 5942.94,4697.1 L 5948.59,4700.77 L 5948.94,4707.49 L 5705.19,4848.23 L 5699.19,4844.77 L 5699.19,4837.84 L 5942.94,4697.1 Z "/>
<path stroke="none" transform="matrix(0.1 0 0 0.1 -465.65 -421.8)" d="M 5973.28,4409.4 L 5984.3,4419.33 L 5955.01,4697.06 L 5948.59,4700.77 L 5942.94,4697.1 L 5973.28,4409.4 Z "/>
<path stroke="none" transform="matrix(0.1 0 0 0.1 -465.65 -421.8)" d="M 6020.42,4456.62 L 6032.36,4457.88 L 6010.06,4669.37 L 5998.12,4668.11 L 6020.42,4456.62 Z "/>
<path stroke="none" transform="matrix(0.1 0 0 0.1 -465.65 -421.8)" d="M 6165.08,4368.67 L 6167.57,4380.41 L 5984.3,4419.33 L 5973.28,4409.4 L 6165.08,4368.67 Z "/>
<path stroke="none" transform="matrix(0.1 0 0 0.1 -465.65 -421.8)" d="M 6408.05,4598.32 L 6404.39,4603.97 L 6397.01,4603.19 L 6310.04,4452.55 L 6320.43,4446.55 L 6408.05,4598.32 Z "/>
<path stroke="none" transform="matrix(0.1 0 0 0.1 -465.65 -421.8)" d="M 6691.41,4628 L 6690.16,4639.93 L 6406.8,4610.25 L 6404.39,4603.97 L 6408.05,4598.32 L 6691.41,4628 Z "/>
<path stroke="none" transform="matrix(0.1 0 0 0.1 -465.65 -421.8)" d="M 6296.6,4732.7 L 6287.68,4724.68 L 6397.01,4603.19 L 6404.39,4603.97 L 6406.8,4610.25 L 6296.6,4732.7 Z "/>
<path stroke="none" transform="matrix(0.1 0 0 0.1 -465.65 -421.8)" d="M 6258.08,4698.04 L 6249.16,4690.01 L 6336.23,4593.27 L 6345.14,4601.29 L 6258.08,4698.04 Z "/>
<path stroke="none" transform="matrix(0.1 0 0 0.1 -465.65 -421.8)" d="M 6112.6,4767.23 L 6107.72,4778.19 L 5948.94,4707.49 L 5948.59,4700.77 L 5955.01,4697.06 L 6112.6,4767.23 Z "/>
<path stroke="none" transform="matrix(0.1 0 0 0.1 -465.65 -421.8)" d="M 5449.79,4707.69 L 5449.79,4693.84 L 5699.19,4837.84 L 5699.19,4844.77 L 5693.19,4848.23 L 5449.79,4707.69 Z "/>
<path stroke="none" transform="matrix(0.1 0 0 0.1 -465.65 -421.8)" d="M 5446.79,4765.82 L 5452.79,4755.43 L 5650.35,4869.5 L 5644.35,4879.89 L 5446.79,4765.82 Z "/>
<path stroke="none" transform="matrix(0.1 0 0 0.1 -465.65 -421.8)" d="M 5206.39,4848.23 L 5200.39,4844.77 L 5200.39,4837.84 L 5449.79,4693.84 L 5449.79,4707.69 L 5206.39,4848.23 Z "/>
<path stroke="none" transform="matrix(0.1 0 0 0.1 -465.65 -421.8)" d="M 5194.39,4848.23 L 5200.39,4844.77 L 5206.39,4848.23 L 5206.39,5129.3 L 5200.39,5132.77 L 5194.39,5129.3 L 5194.39,4848.23 Z "/>
<path stroke="none" transform="matrix(0.1 0 0 0.1 -465.65 -421.8)" d="M 5246.23,4874.7 L 5258.23,4874.7 L 5258.23,5102.84 L 5246.23,5102.84 L 5246.23,4874.7 Z "/>
<path stroke="none" transform="matrix(0.1 0 0 0.1 -465.65 -421.8)" d="M 4947.99,4705.96 L 4953.99,4695.57 L 5200.39,4837.84 L 5200.39,4844.77 L 5194.39,4848.23 L 4947.99,4705.96 Z "/>
<path stroke="none" transform="matrix(0.1 0 0 0.1 -465.65 -421.8)" d="M 4781.5,4689.5 A 144,144 0 1 0 5069.5,4689.5A 144,144 0 1 0 4781.5,4689.5Z " class="connection_in" stroke-width="18px"/>
</g>
</svg>