<svg xmlns="http://www.w3.org/2000/svg" xmlns:xlink="http://www.w3.org/1999/xlink" viewBox="0 0 328.85499999999996 105.06299999999993" style="background-color: #ffffff00" version="1.1">
<g transform="matrix(1 0 0 1 -3.500000000000057 -3.0100000000000016)">
<text x="0" y="0" stroke="none" transform="matrix(0.1 0 0 0.1 274.858 26.83)" font-style="normal" font-weight="bold" font-size="200px" font-family="Arial">
O</text>
<text x="0" y="0" stroke="none" transform="matrix(0.1 0 0 0.1 275.415 55.63)" font-style="normal" font-weight="bold" font-size="200px" font-family="Arial">
N</text>
<text x="0" y="0" stroke="none" transform="matrix(0.1 0 0 0.1 289.858 47.78)" font-style="normal" font-weight="bold" font-size="150px" font-family="Arial">
+</text>
<text x="0" y="0" stroke="none" transform="matrix(0.1 0 0 0.1 299.798 70.03)" font-style="normal" font-weight="bold" font-size="200px" font-family="Arial">
O</text>
<text x="0" y="0" stroke="none" transform="matrix(0.1 0 0 0.1 315.355 62.18)" font-style="normal" font-weight="bold" font-size="150px" font-family="Arial">
-</text>
<text x="0" y="0" stroke="none" transform="matrix(0.1 0 0 0.1 149.335 67.35)" font-style="normal" font-weight="bold" font-size="200px" font-family="Arial">
N</text>
<text x="0" y="0" stroke="none" transform="matrix(0.1 0 0 0.1 144.475 21.01)" font-style="normal" font-weight="bold" font-size="200px" font-family="Arial">
N</text>
<text x="0" y="0" stroke="none" transform="matrix(0.1 0 0 0.1 172.078 26.99)" font-style="normal" font-weight="bold" font-size="200px" font-family="Arial">
O</text>
<path stroke="none" transform="matrix(0.1 0 0 0.1 -367.65 -418.8)" d="M 6534.79,4565.63 L 6522.79,4565.63 L 6522.79,4485.97 L 6534.79,4485.97 L 6534.79,4565.63 Z "/>
<path stroke="none" transform="matrix(0.1 0 0 0.1 -367.65 -418.8)" d="M 6482.95,4565.63 L 6470.95,4565.63 L 6470.95,4485.97 L 6482.95,4485.97 L 6482.95,4565.63 Z "/>
<path stroke="none" transform="matrix(0.1 0 0 0.1 -367.65 -418.8)" d="M 6666.22,4753.19 L 6660.22,4763.58 L 6601.39,4729.61 L 6607.39,4719.22 L 6666.22,4753.19 Z "/>
<path stroke="none" transform="matrix(0.1 0 0 0.1 -367.65 -418.8)" d="M 6259.47,4813.26 L 6253.47,4809.8 L 6253.47,4802.87 L 6397.27,4719.84 L 6403.27,4730.23 L 6259.47,4813.26 Z "/>
<path stroke="none" transform="matrix(0.1 0 0 0.1 -367.65 -418.8)" d="M 6259.47,5101.26 L 6247.47,5094.34 L 6247.47,4813.26 L 6253.47,4809.8 L 6259.47,4813.26 L 6259.47,5101.26 Z "/>
<path stroke="none" transform="matrix(0.1 0 0 0.1 -367.65 -418.8)" d="M 6004.07,5248.73 L 6004.07,5234.87 L 6247.47,5094.34 L 6259.47,5101.26 L 6004.07,5248.73 Z "/>
<path stroke="none" transform="matrix(0.1 0 0 0.1 -367.65 -418.8)" d="M 6007.07,5187.14 L 6001.07,5176.75 L 6198.63,5062.68 L 6204.63,5073.07 L 6007.07,5187.14 Z "/>
<path stroke="none" transform="matrix(0.1 0 0 0.1 -367.65 -418.8)" d="M 5748.67,5101.26 L 5760.67,5094.34 L 6004.07,5234.87 L 6004.07,5248.73 L 5748.67,5101.26 Z "/>
<path stroke="none" transform="matrix(0.1 0 0 0.1 -367.65 -418.8)" d="M 5748.67,4813.26 L 5754.67,4809.8 L 5760.67,4813.26 L 5760.67,5094.34 L 5748.67,5101.26 L 5748.67,4813.26 Z "/>
<path stroke="none" transform="matrix(0.1 0 0 0.1 -367.65 -418.8)" d="M 5800.51,4839.73 L 5812.51,4839.73 L 5812.51,5067.87 L 5800.51,5067.87 L 5800.51,4839.73 Z "/>
<path stroke="none" transform="matrix(0.1 0 0 0.1 -367.65 -418.8)" d="M 5504.91,4672.52 L 5505.27,4665.8 L 5510.91,4662.13 L 5754.67,4802.87 L 5754.67,4809.8 L 5748.67,4813.26 L 5504.91,4672.52 Z "/>
<path stroke="none" transform="matrix(0.1 0 0 0.1 -367.65 -418.8)" d="M 5344.94,4743.76 L 5340.06,4732.8 L 5498.84,4662.09 L 5505.27,4665.8 L 5504.91,4672.52 L 5344.94,4743.76 Z "/>
<path stroke="none" transform="matrix(0.1 0 0 0.1 -367.65 -418.8)" d="M 5323.85,4696.38 L 5318.96,4685.42 L 5447.3,4628.27 L 5452.18,4639.24 L 5323.85,4696.38 Z "/>
<path stroke="none" transform="matrix(0.1 0 0 0.1 -367.65 -418.8)" d="M 5047.05,4575.29 L 5049.47,4569 L 5056.84,4568.23 L 5165.54,4689 L 5156.62,4697.02 L 5047.05,4575.29 Z "/>
<path stroke="none" transform="matrix(0.1 0 0 0.1 -367.65 -418.8)" d="M 4767.14,4604.61 L 4763.07,4599 L 4765.88,4592.67 L 5045.8,4563.35 L 5049.47,4569 L 5047.05,4575.29 L 4767.14,4604.61 Z "/>
<path stroke="none" transform="matrix(0.1 0 0 0.1 -367.65 -418.8)" d="M 4649.94,4867.81 L 4641.79,4856.59 L 4756.18,4599.73 L 4763.07,4599 L 4767.14,4604.61 L 4649.94,4867.81 Z "/>
<path stroke="none" transform="matrix(0.1 0 0 0.1 -367.65 -418.8)" d="M 4356.65,4898.53 L 4362.28,4885.87 L 4641.79,4856.59 L 4649.94,4867.81 L 4356.65,4898.53 Z "/>
<path stroke="none" transform="matrix(0.1 0 0 0.1 -367.65 -418.8)" d="M 4384.43,4843.5 L 4383.18,4831.57 L 4610.07,4807.8 L 4611.32,4819.73 L 4384.43,4843.5 Z "/>
<path stroke="none" transform="matrix(0.1 0 0 0.1 -367.65 -418.8)" d="M 4187.25,4665.53 L 4190.07,4659.2 L 4196.96,4658.48 L 4362.28,4885.87 L 4356.65,4898.53 L 4187.25,4665.53 Z "/>
<path stroke="none" transform="matrix(0.1 0 0 0.1 -367.65 -418.8)" d="M 3904.29,4695.37 L 3903.04,4683.43 L 4185.99,4653.6 L 4190.07,4659.2 L 4187.25,4665.53 L 3904.29,4695.37 Z "/>
<path stroke="none" transform="matrix(0.1 0 0 0.1 -367.65 -418.8)" d="M 4303.19,4390.6 L 4311.34,4401.8 L 4196.96,4658.48 L 4190.07,4659.2 L 4185.99,4653.6 L 4303.19,4390.6 Z "/>
<path stroke="none" transform="matrix(0.1 0 0 0.1 -367.65 -418.8)" d="M 4336.95,4442.16 L 4347.92,4447.05 L 4255.08,4655.39 L 4244.11,4650.5 L 4336.95,4442.16 Z "/>
<path stroke="none" transform="matrix(0.1 0 0 0.1 -367.65 -418.8)" d="M 4596.48,4359.67 L 4590.85,4372.33 L 4311.34,4401.8 L 4303.19,4390.6 L 4596.48,4359.67 Z "/>
<path stroke="none" transform="matrix(0.1 0 0 0.1 -367.65 -418.8)" d="M 4590.85,4372.33 L 4596.48,4359.67 L 4765.88,4592.67 L 4763.07,4599 L 4756.18,4599.73 L 4590.85,4372.33 Z "/>
<path stroke="none" transform="matrix(0.1 0 0 0.1 -367.65 -418.8)" d="M 4564.48,4424.23 L 4574.18,4417.18 L 4708.37,4601.74 L 4698.66,4608.8 L 4564.48,4424.23 Z "/>
<path stroke="none" transform="matrix(0.1 0 0 0.1 -367.65 -418.8)" d="M 5126.06,4424.34 L 5136.46,4430.34 L 5056.84,4568.23 L 5049.47,4569 L 5045.8,4563.35 L 5126.06,4424.34 Z "/>
<path stroke="none" transform="matrix(0.1 0 0 0.1 -367.65 -418.8)" d="M 5170.96,4450.26 L 5181.35,4456.26 L 5118.38,4565.31 L 5107.99,4559.31 L 5170.96,4450.26 Z "/>
<path stroke="none" transform="matrix(0.1 0 0 0.1 -367.65 -418.8)" d="M 5377.28,4352.5 L 5374.79,4364.24 L 5287.19,4345.64 L 5289.69,4333.9 L 5377.28,4352.5 Z "/>
<path stroke="none" transform="matrix(0.1 0 0 0.1 -367.65 -418.8)" d="M 5480.4,4487.18 L 5492.33,4485.92 L 5510.91,4662.13 L 5505.27,4665.8 L 5498.84,4662.09 L 5480.4,4487.18 Z "/>
<path stroke="none" transform="matrix(0.1 0 0 0.1 -367.65 -418.8)" d="M 6004.07,4658.87 L 6004.07,4672.73 L 5760.67,4813.26 L 5754.67,4809.8 L 5754.67,4802.87 L 6004.07,4658.87 Z "/>
<path stroke="none" transform="matrix(0.1 0 0 0.1 -367.65 -418.8)" d="M 6004.07,4672.73 L 6004.07,4658.87 L 6253.47,4802.87 L 6253.47,4809.8 L 6247.47,4813.26 L 6004.07,4672.73 Z "/>
<path stroke="none" transform="matrix(0.1 0 0 0.1 -367.65 -418.8)" d="M 6001.07,4730.85 L 6007.07,4720.46 L 6204.63,4834.53 L 6198.63,4844.92 L 6001.07,4730.85 Z "/>
<path stroke="none" transform="matrix(0.1 0 0 0.1 -367.65 -418.8)" d="M 3731.5,4689.5 A 144,144 0 1 0 4019.5,4689.5A 144,144 0 1 0 3731.5,4689.5Z " class="connection_in" stroke-width="18px"/>
</g>
</svg>