<svg xmlns="http://www.w3.org/2000/svg" xmlns:xlink="http://www.w3.org/1999/xlink" viewBox="0 0 156.33499999999995 177.50100000000003" style="background-color: #ffffff00" version="1.1">
<g transform="matrix(1 0 0 1 -3.500000000000057 -2.091000000000008)">
<text x="0" y="0" stroke="none" transform="matrix(0.1 0 0 0.1 113.452 156.628)" font-style="normal" font-weight="bold" font-size="200px" font-family="Arial">
NH</text>
<text x="0" y="0" stroke="none" transform="matrix(0.1 0 0 0.1 142.339 160.928)" font-style="normal" font-weight="bold" font-size="150px" font-family="Arial">
2</text>
<text x="0" y="0" stroke="none" transform="matrix(0.1 0 0 0.1 137.835 113.43)" font-style="normal" font-weight="bold" font-size="200px" font-family="Arial">
O</text>
<text x="0" y="0" stroke="none" transform="matrix(0.1 0 0 0.1 38.069 55.8302)" font-style="normal" font-weight="bold" font-size="200px" font-family="Arial">
O</text>
<path stroke="none" transform="matrix(0.1 0 0 0.1 -424.65 -411.8)" d="M 4948.31,5609.4 L 4954.31,5605.94 L 4960.31,5609.4 L 4960.32,5893.92 L 4948.32,5893.92 L 4948.31,5609.4 Z "/>
<path stroke="none" transform="matrix(0.1 0 0 0.1 -424.65 -411.8)" d="M 4698.9,5465.4 L 4710.9,5458.47 L 4954.31,5599.01 L 4954.31,5605.94 L 4948.31,5609.4 L 4698.9,5465.4 Z "/>
<path stroke="none" transform="matrix(0.1 0 0 0.1 -424.65 -411.8)" d="M 4698.99,5177.24 L 4704.99,5173.78 L 4710.99,5177.24 L 4710.9,5458.47 L 4698.9,5465.4 L 4698.99,5177.24 Z "/>
<path stroke="none" transform="matrix(0.1 0 0 0.1 -424.65 -411.8)" d="M 4750.85,5203.73 L 4762.85,5203.73 L 4762.77,5432 L 4750.77,5431.99 L 4750.85,5203.73 Z "/>
<path stroke="none" transform="matrix(0.1 0 0 0.1 -424.65 -411.8)" d="M 4452.57,5034.97 L 4458.57,5024.58 L 4704.99,5166.85 L 4704.99,5173.78 L 4698.99,5177.24 L 4452.57,5034.97 Z "/>
<path stroke="none" transform="matrix(0.1 0 0 0.1 -424.65 -411.8)" d="M 4948.4,5026.32 L 4954.4,5029.79 L 4954.4,5036.72 L 4710.99,5177.24 L 4704.99,5173.78 L 4704.99,5166.85 L 4948.4,5026.32 Z "/>
<path stroke="none" transform="matrix(0.1 0 0 0.1 -424.65 -411.8)" d="M 5203.81,5166.86 L 5203.81,5173.79 L 5197.81,5177.25 L 4954.4,5036.72 L 4954.4,5029.79 L 4960.4,5026.32 L 5203.81,5166.86 Z "/>
<path stroke="none" transform="matrix(0.1 0 0 0.1 -424.65 -411.8)" d="M 5154.97,5198.52 L 5148.97,5208.92 L 4951.4,5094.84 L 4957.4,5084.45 L 5154.97,5198.52 Z "/>
<path stroke="none" transform="matrix(0.1 0 0 0.1 -424.65 -411.8)" d="M 5209.82,5458.31 L 5203.82,5461.78 L 5197.82,5458.31 L 5197.81,5177.25 L 5203.81,5173.79 L 5209.81,5177.25 L 5209.82,5458.31 Z "/>
<path stroke="none" transform="matrix(0.1 0 0 0.1 -424.65 -411.8)" d="M 5197.82,5458.31 L 5203.82,5461.78 L 5203.82,5468.7 L 4960.31,5609.4 L 4954.31,5605.94 L 4954.31,5599.01 L 5197.82,5458.31 Z "/>
<path stroke="none" transform="matrix(0.1 0 0 0.1 -424.65 -411.8)" d="M 5148.95,5426.65 L 5154.95,5437.04 L 4957.3,5551.23 L 4951.3,5540.84 L 5148.95,5426.65 Z "/>
<path stroke="none" transform="matrix(0.1 0 0 0.1 -424.65 -411.8)" d="M 5356.02,5542.72 L 5350.02,5553.11 L 5203.82,5468.7 L 5203.82,5461.78 L 5209.82,5458.31 L 5356.02,5542.72 Z "/>
<path stroke="none" transform="matrix(0.1 0 0 0.1 -424.65 -411.8)" d="M 5447.22,5026.34 L 5459.22,5033.27 L 5209.81,5177.25 L 5203.81,5173.79 L 5203.81,5166.86 L 5447.22,5026.34 Z "/>
<path stroke="none" transform="matrix(0.1 0 0 0.1 -424.65 -411.8)" d="M 5629.55,5094.75 L 5623.55,5105.14 L 5450.22,5005.07 L 5456.22,4994.68 L 5629.55,5094.75 Z "/>
<path stroke="none" transform="matrix(0.1 0 0 0.1 -424.65 -411.8)" d="M 5603.63,5139.64 L 5597.63,5150.03 L 5424.3,5049.96 L 5430.3,5039.57 L 5603.63,5139.64 Z "/>
<path stroke="none" transform="matrix(0.1 0 0 0.1 -424.65 -411.8)" d="M 5447.21,4745.28 L 5453.21,4741.82 L 5459.21,4745.28 L 5459.22,5033.27 L 5447.22,5026.34 L 5447.21,4745.28 Z "/>
<path stroke="none" transform="matrix(0.1 0 0 0.1 -424.65 -411.8)" d="M 5696.62,4594.36 L 5708.62,4601.29 L 5459.21,4745.28 L 5453.21,4741.82 L 5453.21,4734.89 L 5696.62,4594.36 Z "/>
<path stroke="none" transform="matrix(0.1 0 0 0.1 -424.65 -411.8)" d="M 5696.61,4313.31 L 5708.61,4306.38 L 5708.62,4601.29 L 5696.62,4594.36 L 5696.61,4313.31 Z "/>
<path stroke="none" transform="matrix(0.1 0 0 0.1 -424.65 -411.8)" d="M 5644.78,4339.77 L 5656.77,4339.77 L 5656.78,4567.9 L 5644.78,4567.9 L 5644.78,4339.77 Z "/>
<path stroke="none" transform="matrix(0.1 0 0 0.1 -424.65 -411.8)" d="M 5453.2,4172.77 L 5453.2,4158.91 L 5708.61,4306.38 L 5696.61,4313.31 L 5453.2,4172.77 Z "/>
<path stroke="none" transform="matrix(0.1 0 0 0.1 -424.65 -411.8)" d="M 5209.79,4313.29 L 5197.79,4306.36 L 5453.2,4158.91 L 5453.2,4172.77 L 5209.79,4313.29 Z "/>
<path stroke="none" transform="matrix(0.1 0 0 0.1 -424.65 -411.8)" d="M 5258.63,4344.95 L 5252.63,4334.56 L 5450.2,4220.5 L 5456.2,4230.89 L 5258.63,4344.95 Z "/>
<path stroke="none" transform="matrix(0.1 0 0 0.1 -424.65 -411.8)" d="M 5209.8,4594.35 L 5203.8,4597.82 L 5197.8,4594.35 L 5197.79,4306.36 L 5209.79,4313.29 L 5209.8,4594.35 Z "/>
<path stroke="none" transform="matrix(0.1 0 0 0.1 -424.65 -411.8)" d="M 5203.8,4604.74 L 5203.8,4597.82 L 5209.8,4594.35 L 5453.21,4734.89 L 5453.21,4741.82 L 5447.21,4745.28 L 5203.8,4604.74 Z "/>
<path stroke="none" transform="matrix(0.1 0 0 0.1 -424.65 -411.8)" d="M 5252.64,4573.08 L 5258.64,4562.69 L 5456.21,4676.76 L 5450.21,4687.15 L 5252.64,4573.08 Z "/>
<path stroke="none" transform="matrix(0.1 0 0 0.1 -424.65 -411.8)" d="M 4960.39,4745.27 L 4948.39,4738.34 L 5197.8,4594.35 L 5203.8,4597.82 L 5203.8,4604.74 L 4960.39,4745.27 Z "/>
<path stroke="none" transform="matrix(0.1 0 0 0.1 -424.65 -411.8)" d="M 4948.39,4738.34 L 4960.39,4745.27 L 4960.4,5026.32 L 4954.4,5029.79 L 4948.4,5026.32 L 4948.39,4738.34 Z "/>
<path stroke="none" transform="matrix(0.1 0 0 0.1 -424.65 -411.8)" d="M 4781.25,4678.7 L 4787.25,4668.3 L 4957.39,4766.54 L 4951.39,4776.93 L 4781.25,4678.7 Z "/>
<path stroke="none" transform="matrix(0.1 0 0 0.1 -424.65 -411.8)" d="M 4807.17,4633.8 L 4813.17,4623.41 L 4983.31,4721.64 L 4977.31,4732.03 L 4807.17,4633.8 Z "/>
<path stroke="none" transform="matrix(0.1 0 0 0.1 -424.65 -411.8)" d="M 4301.5,5019.5 A 144,144 0 1 0 4589.5,5019.5A 144,144 0 1 0 4301.5,5019.5Z " class="connection_in" stroke-width="18px"/>
</g>
</svg>