<svg xmlns="http://www.w3.org/2000/svg" xmlns:xlink="http://www.w3.org/1999/xlink" viewBox="0 0 203.44 178.18599999999998" style="background-color: #ffffff00" version="1.1">
<g transform="matrix(1 0 0 1 -3.500000000000057 -2.01400000000001)">
<text x="0" y="0" stroke="none" transform="matrix(0.1 0 0 0.1 81.8254 98.9571)" font-style="normal" font-weight="bold" font-size="200px" font-family="Arial">
N</text>
<text x="0" y="0" stroke="none" transform="matrix(0.1 0 0 0.1 37.5054 113.357)" font-style="normal" font-weight="bold" font-size="200px" font-family="Arial">
N</text>
<path stroke="none" transform="matrix(0.1 0 0 0.1 -425.65 -383.8)" d="M 4704.82,4598.42 L 4703.77,4605.07 L 4697.77,4608.13 L 4467.25,4440.73 L 4474.3,4431.02 L 4704.82,4598.42 Z "/>
<path stroke="none" transform="matrix(0.1 0 0 0.1 -425.65 -383.8)" d="M 4980.06,4509.02 L 4975.48,4523.12 L 4709.77,4609.43 L 4703.77,4605.07 L 4704.82,4598.42 L 4980.06,4509.02 Z "/>
<path stroke="none" transform="matrix(0.1 0 0 0.1 -425.65 -383.8)" d="M 4956.1,4571.33 L 4959.81,4582.74 L 4757.48,4648.46 L 4753.77,4637.04 L 4956.1,4571.33 Z "/>
<path stroke="none" transform="matrix(0.1 0 0 0.1 -425.65 -383.8)" d="M 5080.78,4647.71 L 5071.07,4654.76 L 4975.48,4523.12 L 4980.06,4509.02 L 5080.78,4647.71 Z "/>
<path stroke="none" transform="matrix(0.1 0 0 0.1 -425.65 -383.8)" d="M 5428.97,4743.07 L 5434.97,4749.07 L 5428.97,4755.07 L 5234.75,4755.07 L 5234.75,4743.07 L 5428.97,4743.07 Z "/>
<path stroke="none" transform="matrix(0.1 0 0 0.1 -425.65 -383.8)" d="M 5719.51,4743.07 L 5722.97,4749.07 L 5719.51,4755.07 L 5440.97,4755.07 L 5434.97,4749.07 L 5440.97,4743.07 L 5719.51,4743.07 Z "/>
<path stroke="none" transform="matrix(0.1 0 0 0.1 -425.65 -383.8)" d="M 5863.51,4493.67 L 5870.43,4505.67 L 5729.9,4749.07 L 5722.97,4749.07 L 5719.51,4743.07 L 5863.51,4493.67 Z "/>
<path stroke="none" transform="matrix(0.1 0 0 0.1 -425.65 -383.8)" d="M 6158.43,4493.67 L 6151.51,4505.67 L 5870.43,4505.67 L 5863.51,4493.67 L 6158.43,4493.67 Z "/>
<path stroke="none" transform="matrix(0.1 0 0 0.1 -425.65 -383.8)" d="M 6125.04,4545.51 L 6125.04,4557.51 L 5896.9,4557.51 L 5896.9,4545.51 L 6125.04,4545.51 Z "/>
<path stroke="none" transform="matrix(0.1 0 0 0.1 -425.65 -383.8)" d="M 6305.9,4749.07 L 6292.04,4749.07 L 6151.51,4505.67 L 6158.43,4493.67 L 6305.9,4749.07 Z "/>
<path stroke="none" transform="matrix(0.1 0 0 0.1 -425.65 -383.8)" d="M 6158.43,5004.47 L 6151.51,4992.47 L 6292.04,4749.07 L 6305.9,4749.07 L 6158.43,5004.47 Z "/>
<path stroke="none" transform="matrix(0.1 0 0 0.1 -425.65 -383.8)" d="M 6130.24,4949.63 L 6119.85,4943.63 L 6233.92,4746.07 L 6244.31,4752.07 L 6130.24,4949.63 Z "/>
<path stroke="none" transform="matrix(0.1 0 0 0.1 -425.65 -383.8)" d="M 5863.51,5004.47 L 5870.43,4992.47 L 6151.51,4992.47 L 6158.43,5004.47 L 5863.51,5004.47 Z "/>
<path stroke="none" transform="matrix(0.1 0 0 0.1 -425.65 -383.8)" d="M 5870.43,4992.47 L 5863.51,5004.47 L 5719.51,4755.07 L 5722.97,4749.07 L 5729.9,4749.07 L 5870.43,4992.47 Z "/>
<path stroke="none" transform="matrix(0.1 0 0 0.1 -425.65 -383.8)" d="M 5902.09,4943.63 L 5891.7,4949.63 L 5777.63,4752.07 L 5788.02,4746.07 L 5902.09,4943.63 Z "/>
<path stroke="none" transform="matrix(0.1 0 0 0.1 -425.65 -383.8)" d="M 5440.97,5033.61 L 5434.97,5037.07 L 5428.97,5033.61 L 5428.97,4755.07 L 5434.97,4749.07 L 5440.97,4755.07 L 5440.97,5033.61 Z "/>
<path stroke="none" transform="matrix(0.1 0 0 0.1 -425.65 -383.8)" d="M 5690.37,5177.61 L 5678.37,5184.54 L 5434.97,5044 L 5434.97,5037.07 L 5440.97,5033.61 L 5690.37,5177.61 Z "/>
<path stroke="none" transform="matrix(0.1 0 0 0.1 -425.65 -383.8)" d="M 5690.37,5472.54 L 5678.37,5465.61 L 5678.37,5184.54 L 5690.37,5177.61 L 5690.37,5472.54 Z "/>
<path stroke="none" transform="matrix(0.1 0 0 0.1 -425.65 -383.8)" d="M 5638.53,5439.14 L 5626.53,5439.14 L 5626.53,5211 L 5638.53,5211 L 5638.53,5439.14 Z "/>
<path stroke="none" transform="matrix(0.1 0 0 0.1 -425.65 -383.8)" d="M 5434.97,5620 L 5434.97,5606.14 L 5678.37,5465.61 L 5690.37,5472.54 L 5434.97,5620 Z "/>
<path stroke="none" transform="matrix(0.1 0 0 0.1 -425.65 -383.8)" d="M 5179.57,5472.54 L 5191.57,5465.61 L 5434.97,5606.14 L 5434.97,5620 L 5179.57,5472.54 Z "/>
<path stroke="none" transform="matrix(0.1 0 0 0.1 -425.65 -383.8)" d="M 5234.41,5444.34 L 5240.41,5433.95 L 5437.97,5548.02 L 5431.97,5558.41 L 5234.41,5444.34 Z "/>
<path stroke="none" transform="matrix(0.1 0 0 0.1 -425.65 -383.8)" d="M 5179.57,5177.61 L 5191.57,5184.54 L 5191.57,5465.61 L 5179.57,5472.54 L 5179.57,5177.61 Z "/>
<path stroke="none" transform="matrix(0.1 0 0 0.1 -425.65 -383.8)" d="M 5191.57,5184.54 L 5179.57,5177.61 L 5428.97,5033.61 L 5434.97,5037.07 L 5434.97,5044 L 5191.57,5184.54 Z "/>
<path stroke="none" transform="matrix(0.1 0 0 0.1 -425.65 -383.8)" d="M 5240.41,5216.19 L 5234.41,5205.8 L 5431.97,5091.73 L 5437.97,5102.13 L 5240.41,5216.19 Z "/>
<path stroke="none" transform="matrix(0.1 0 0 0.1 -425.65 -383.8)" d="M 5428.97,4464.54 L 5434.97,4461.07 L 5440.97,4464.54 L 5440.97,4743.07 L 5434.97,4749.07 L 5428.97,4743.07 L 5428.97,4464.54 Z "/>
<path stroke="none" transform="matrix(0.1 0 0 0.1 -425.65 -383.8)" d="M 5179.57,4320.54 L 5191.57,4313.61 L 5434.97,4454.14 L 5434.97,4461.07 L 5428.97,4464.54 L 5179.57,4320.54 Z "/>
<path stroke="none" transform="matrix(0.1 0 0 0.1 -425.65 -383.8)" d="M 5179.57,4025.61 L 5191.57,4032.54 L 5191.57,4313.61 L 5179.57,4320.54 L 5179.57,4025.61 Z "/>
<path stroke="none" transform="matrix(0.1 0 0 0.1 -425.65 -383.8)" d="M 5231.41,4059 L 5243.41,4059 L 5243.41,4287.14 L 5231.41,4287.14 L 5231.41,4059 Z "/>
<path stroke="none" transform="matrix(0.1 0 0 0.1 -425.65 -383.8)" d="M 5434.97,3878.14 L 5434.97,3892 L 5191.57,4032.54 L 5179.57,4025.61 L 5434.97,3878.14 Z "/>
<path stroke="none" transform="matrix(0.1 0 0 0.1 -425.65 -383.8)" d="M 5690.37,4025.61 L 5678.37,4032.54 L 5434.97,3892 L 5434.97,3878.14 L 5690.37,4025.61 Z "/>
<path stroke="none" transform="matrix(0.1 0 0 0.1 -425.65 -383.8)" d="M 5635.53,4053.8 L 5629.53,4064.19 L 5431.97,3950.13 L 5437.97,3939.73 L 5635.53,4053.8 Z "/>
<path stroke="none" transform="matrix(0.1 0 0 0.1 -425.65 -383.8)" d="M 5690.37,4320.54 L 5678.37,4313.61 L 5678.37,4032.54 L 5690.37,4025.61 L 5690.37,4320.54 Z "/>
<path stroke="none" transform="matrix(0.1 0 0 0.1 -425.65 -383.8)" d="M 5678.37,4313.61 L 5690.37,4320.54 L 5440.97,4464.54 L 5434.97,4461.07 L 5434.97,4454.14 L 5678.37,4313.61 Z "/>
<path stroke="none" transform="matrix(0.1 0 0 0.1 -425.65 -383.8)" d="M 5629.53,4281.95 L 5635.53,4292.34 L 5437.97,4406.41 L 5431.97,4396.02 L 5629.53,4281.95 Z "/>
<path stroke="none" transform="matrix(0.1 0 0 0.1 -425.65 -383.8)" d="M 4980.06,4989.12 L 4975.48,4975.02 L 5068.53,4846.87 L 5078.24,4853.93 L 4980.06,4989.12 Z "/>
<path stroke="none" transform="matrix(0.1 0 0 0.1 -425.65 -383.8)" d="M 4799.75,4930.56 L 4803.46,4919.14 L 4975.48,4975.02 L 4980.06,4989.12 L 4799.75,4930.56 Z "/>
<path stroke="none" transform="matrix(0.1 0 0 0.1 -425.65 -383.8)" d="M 4815.77,4881.24 L 4819.48,4869.82 L 4959.81,4915.4 L 4956.1,4926.82 L 4815.77,4881.24 Z "/>
<path stroke="none" transform="matrix(0.1 0 0 0.1 -425.65 -383.8)" d="M 4709.77,4792.74 L 4697.77,4792.74 L 4697.77,4608.13 L 4703.77,4605.07 L 4709.77,4609.43 L 4709.77,4792.74 Z "/>
<path stroke="none" transform="matrix(0.1 0 0 0.1 -425.65 -383.8)" d="M 4311.5,4409.5 A 144,144 0 1 0 4599.5,4409.5A 144,144 0 1 0 4311.5,4409.5Z " class="connection_in" stroke-width="18px"/>
</g>
</svg>