<svg xmlns="http://www.w3.org/2000/svg" xmlns:xlink="http://www.w3.org/1999/xlink" viewBox="0 0 243.12899999999996 157.492" style="background-color: #ffffff00" version="1.1">
<g transform="matrix(1 0 0 1 -3.500000000000057 -2.75)">
<text x="0" y="0" stroke="none" transform="matrix(0.1 0 0 0.1 186.671 129.442)" font-style="normal" font-weight="bold" font-size="200px" font-family="Arial">
O</text>
<text x="0" y="0" stroke="none" transform="matrix(0.1 0 0 0.1 161.731 86.2417)" font-style="normal" font-weight="bold" font-size="200px" font-family="Arial">
O</text>
<text x="0" y="0" stroke="none" transform="matrix(0.1 0 0 0.1 137.347 129.442)" font-style="normal" font-weight="bold" font-size="200px" font-family="Arial">
N</text>
<text x="0" y="0" stroke="none" transform="matrix(0.1 0 0 0.1 137.347 146.125)" font-style="normal" font-weight="bold" font-size="200px" font-family="Arial">
H</text>
<text x="0" y="0" stroke="none" transform="matrix(0.1 0 0 0.1 86.9108 158.242)" font-style="normal" font-weight="bold" font-size="200px" font-family="Arial">
O</text>
<text x="0" y="0" stroke="none" transform="matrix(0.1 0 0 0.1 47.5275 115.042)" font-style="normal" font-weight="bold" font-size="200px" font-family="Arial">
HO</text>
<path stroke="none" transform="matrix(0.1 0 0 0.1 -391.65 -466.8)" d="M 6116.39,5729.52 L 6110.39,5739.92 L 6104.39,5736.45 L 6104.39,5451.92 L 6116.39,5451.92 L 6116.39,5729.52 Z "/>
<path stroke="none" transform="matrix(0.1 0 0 0.1 -391.65 -466.8)" d="M 6356.79,5590.72 L 6362.79,5601.11 L 6122.39,5739.92 L 6110.39,5739.92 L 6116.39,5729.52 L 6356.79,5590.72 Z "/>
<path stroke="none" transform="matrix(0.1 0 0 0.1 -391.65 -466.8)" d="M 6362.79,5878.72 L 6356.79,5889.11 L 6110.39,5746.84 L 6110.39,5739.92 L 6122.39,5739.92 L 6362.79,5878.72 Z "/>
<path stroke="none" transform="matrix(0.1 0 0 0.1 -391.65 -466.8)" d="M 5953.48,5837.44 L 5947.48,5827.05 L 6104.39,5736.45 L 6110.39,5739.92 L 6110.39,5746.84 L 5953.48,5837.44 Z "/>
<path stroke="none" transform="matrix(0.1 0 0 0.1 -391.65 -466.8)" d="M 5611.59,5746.84 L 5611.59,5732.99 L 5774.94,5827.31 L 5768.94,5837.7 L 5611.59,5746.84 Z "/>
<path stroke="none" transform="matrix(0.1 0 0 0.1 -391.65 -466.8)" d="M 5579.67,5560.08 L 5591.67,5560.08 L 5591.67,5754.88 L 5579.67,5754.88 L 5579.67,5560.08 Z "/>
<path stroke="none" transform="matrix(0.1 0 0 0.1 -391.65 -466.8)" d="M 5631.51,5560.08 L 5643.51,5560.08 L 5643.51,5754.88 L 5631.51,5754.88 L 5631.51,5560.08 Z "/>
<path stroke="none" transform="matrix(0.1 0 0 0.1 -391.65 -466.8)" d="M 5464.33,5831.87 L 5458.33,5821.48 L 5611.59,5732.99 L 5611.59,5746.84 L 5464.33,5831.87 Z "/>
<path stroke="none" transform="matrix(0.1 0 0 0.1 -391.65 -466.8)" d="M 5112.79,5746.84 L 5112.79,5739.92 L 5118.79,5736.45 L 5264.98,5820.86 L 5258.98,5831.25 L 5112.79,5746.84 Z "/>
<path stroke="none" transform="matrix(0.1 0 0 0.1 -391.65 -466.8)" d="M 5106.79,5455.38 L 5118.79,5448.45 L 5118.79,5736.45 L 5112.79,5739.92 L 5106.79,5736.45 L 5106.79,5455.38 Z "/>
<path stroke="none" transform="matrix(0.1 0 0 0.1 -391.65 -466.8)" d="M 4863.39,5314.84 L 4863.39,5307.92 L 4869.39,5304.45 L 5118.79,5448.45 L 5106.79,5455.38 L 4863.39,5314.84 Z "/>
<path stroke="none" transform="matrix(0.1 0 0 0.1 -391.65 -466.8)" d="M 4613.99,5458.84 L 4613.99,5444.99 L 4857.39,5304.45 L 4863.39,5307.92 L 4863.39,5314.84 L 4613.99,5458.84 Z "/>
<path stroke="none" transform="matrix(0.1 0 0 0.1 -391.65 -466.8)" d="M 4358.59,5311.38 L 4370.59,5304.45 L 4613.99,5444.99 L 4613.99,5458.84 L 4358.59,5311.38 Z "/>
<path stroke="none" transform="matrix(0.1 0 0 0.1 -391.65 -466.8)" d="M 4413.43,5283.19 L 4419.43,5272.79 L 4616.99,5386.86 L 4610.99,5397.25 L 4413.43,5283.19 Z "/>
<path stroke="none" transform="matrix(0.1 0 0 0.1 -391.65 -466.8)" d="M 4358.59,5023.38 L 4364.59,5019.92 L 4370.59,5023.38 L 4370.59,5304.45 L 4358.59,5311.38 L 4358.59,5023.38 Z "/>
<path stroke="none" transform="matrix(0.1 0 0 0.1 -391.65 -466.8)" d="M 4111.99,4881.11 L 4117.99,4870.72 L 4364.59,5012.99 L 4364.59,5019.92 L 4358.59,5023.38 L 4111.99,4881.11 Z "/>
<path stroke="none" transform="matrix(0.1 0 0 0.1 -391.65 -466.8)" d="M 4613.99,4868.99 L 4613.99,4882.84 L 4370.59,5023.38 L 4364.59,5019.92 L 4364.59,5012.99 L 4613.99,4868.99 Z "/>
<path stroke="none" transform="matrix(0.1 0 0 0.1 -391.65 -466.8)" d="M 4610.99,4930.58 L 4616.99,4940.97 L 4419.43,5055.04 L 4413.43,5044.65 L 4610.99,4930.58 Z "/>
<path stroke="none" transform="matrix(0.1 0 0 0.1 -391.65 -466.8)" d="M 4869.39,5016.45 L 4857.39,5023.38 L 4613.99,4882.84 L 4613.99,4868.99 L 4869.39,5016.45 Z "/>
<path stroke="none" transform="matrix(0.1 0 0 0.1 -391.65 -466.8)" d="M 4857.39,5023.38 L 4869.39,5016.45 L 4869.39,5304.45 L 4863.39,5307.92 L 4857.39,5304.45 L 4857.39,5023.38 Z "/>
<path stroke="none" transform="matrix(0.1 0 0 0.1 -391.65 -466.8)" d="M 4805.55,5049.85 L 4817.55,5049.85 L 4817.55,5277.99 L 4805.55,5277.99 L 4805.55,5049.85 Z "/>
<path stroke="none" transform="matrix(0.1 0 0 0.1 -391.65 -466.8)" d="M 4863.39,5890.84 L 4863.39,5876.99 L 5106.79,5736.45 L 5112.79,5739.92 L 5112.79,5746.84 L 4863.39,5890.84 Z "/>
<path stroke="none" transform="matrix(0.1 0 0 0.1 -391.65 -466.8)" d="M 4895.31,6069.08 L 4883.31,6069.08 L 4883.31,5868.95 L 4895.31,5868.95 L 4895.31,6069.08 Z "/>
<path stroke="none" transform="matrix(0.1 0 0 0.1 -391.65 -466.8)" d="M 4843.47,6069.08 L 4831.47,6069.08 L 4831.47,5868.95 L 4843.47,5868.95 L 4843.47,6069.08 Z "/>
<path stroke="none" transform="matrix(0.1 0 0 0.1 -391.65 -466.8)" d="M 4703.21,5798.36 L 4709.21,5787.97 L 4863.39,5876.99 L 4863.39,5890.84 L 4703.21,5798.36 Z "/>
<path stroke="none" transform="matrix(0.1 0 0 0.1 -391.65 -466.8)" d="M 3971.5,4859.5 A 144,144 0 1 0 4259.5,4859.5A 144,144 0 1 0 3971.5,4859.5Z " class="connection_in" stroke-width="18px"/>
</g>
</svg>