<svg xmlns="http://www.w3.org/2000/svg" xmlns:xlink="http://www.w3.org/1999/xlink" viewBox="0 0 191.10700000000003 135.81300000000005" style="background-color: #ffffff00" version="1.1">
<g transform="matrix(1 0 0 1 -3.500000000000057 -2.75)">
<text x="0" y="0" stroke="none" transform="matrix(0.1 0 0 0.1 123.809 61.1803)" font-style="normal" font-weight="bold" font-size="200px" font-family="Arial">
O</text>
<text x="0" y="0" stroke="none" transform="matrix(0.1 0 0 0.1 110.518 86.1203)" font-style="normal" font-weight="bold" font-size="200px" font-family="Arial">
S</text>
<text x="0" y="0" stroke="none" transform="matrix(0.1 0 0 0.1 95.0092 111.06)" font-style="normal" font-weight="bold" font-size="200px" font-family="Arial">
O</text>
<path stroke="none" transform="matrix(0.1 0 0 0.1 -447.65 -421.8)" d="M 5727.55,4927.41 L 5717.16,4921.41 L 5755.03,4855.83 L 5765.42,4861.83 L 5727.55,4927.41 Z "/>
<path stroke="none" transform="matrix(0.1 0 0 0.1 -447.65 -421.8)" d="M 5682.66,4901.49 L 5672.27,4895.49 L 5710.13,4829.91 L 5720.53,4835.91 L 5682.66,4901.49 Z "/>
<path stroke="none" transform="matrix(0.1 0 0 0.1 -447.65 -421.8)" d="M 5584.1,5175.86 L 5573.71,5169.86 L 5610.81,5105.59 L 5621.21,5111.59 L 5584.1,5175.86 Z "/>
<path stroke="none" transform="matrix(0.1 0 0 0.1 -447.65 -421.8)" d="M 5539.21,5149.94 L 5528.81,5143.94 L 5565.92,5079.67 L 5576.31,5085.67 L 5539.21,5149.94 Z "/>
<path stroke="none" transform="matrix(0.1 0 0 0.1 -447.65 -421.8)" d="M 5897.78,5137.77 L 5897.78,5144.7 L 5891.78,5148.17 L 5734.7,5057.47 L 5740.7,5047.08 L 5897.78,5137.77 Z "/>
<path stroke="none" transform="matrix(0.1 0 0 0.1 -447.65 -421.8)" d="M 5903.77,5429.24 L 5891.78,5436.17 L 5891.78,5148.17 L 5897.78,5144.7 L 5903.77,5148.17 L 5903.77,5429.24 Z "/>
<path stroke="none" transform="matrix(0.1 0 0 0.1 -447.65 -421.8)" d="M 6147.17,5569.77 L 6147.17,5583.63 L 5891.78,5436.17 L 5903.77,5429.24 L 6147.17,5569.77 Z "/>
<path stroke="none" transform="matrix(0.1 0 0 0.1 -447.65 -421.8)" d="M 6150.17,5511.65 L 6144.17,5522.04 L 5946.61,5407.97 L 5952.61,5397.58 L 6150.17,5511.65 Z "/>
<path stroke="none" transform="matrix(0.1 0 0 0.1 -447.65 -421.8)" d="M 6390.57,5429.24 L 6402.57,5436.17 L 6147.17,5583.63 L 6147.17,5569.77 L 6390.57,5429.24 Z "/>
<path stroke="none" transform="matrix(0.1 0 0 0.1 -447.65 -421.8)" d="M 6390.57,5148.17 L 6402.57,5141.24 L 6402.57,5436.17 L 6390.57,5429.24 L 6390.57,5148.17 Z "/>
<path stroke="none" transform="matrix(0.1 0 0 0.1 -447.65 -421.8)" d="M 6338.73,5174.63 L 6350.73,5174.63 L 6350.73,5402.77 L 6338.73,5402.77 L 6338.73,5174.63 Z "/>
<path stroke="none" transform="matrix(0.1 0 0 0.1 -447.65 -421.8)" d="M 6147.17,5007.63 L 6147.17,4993.77 L 6402.57,5141.24 L 6390.57,5148.17 L 6147.17,5007.63 Z "/>
<path stroke="none" transform="matrix(0.1 0 0 0.1 -447.65 -421.8)" d="M 6147.17,4993.77 L 6147.17,5007.63 L 5903.77,5148.17 L 5897.78,5144.7 L 5897.78,5137.77 L 6147.17,4993.77 Z "/>
<path stroke="none" transform="matrix(0.1 0 0 0.1 -447.65 -421.8)" d="M 6144.17,5055.36 L 6150.17,5065.76 L 5952.61,5179.83 L 5946.61,5169.43 L 6144.17,5055.36 Z "/>
<path stroke="none" transform="matrix(0.1 0 0 0.1 -447.65 -421.8)" d="M 5398.97,4863.63 L 5398.97,4856.7 L 5404.97,4853.24 L 5565.44,4945.89 L 5559.44,4956.28 L 5398.97,4863.63 Z "/>
<path stroke="none" transform="matrix(0.1 0 0 0.1 -447.65 -421.8)" d="M 5392.98,4572.17 L 5404.97,4565.24 L 5404.97,4853.24 L 5398.97,4856.7 L 5392.98,4853.24 L 5392.98,4572.17 Z "/>
<path stroke="none" transform="matrix(0.1 0 0 0.1 -447.65 -421.8)" d="M 5149.57,4431.63 L 5149.57,4417.77 L 5404.97,4565.24 L 5392.98,4572.17 L 5149.57,4431.63 Z "/>
<path stroke="none" transform="matrix(0.1 0 0 0.1 -447.65 -421.8)" d="M 5146.57,4489.76 L 5152.58,4479.36 L 5350.14,4593.43 L 5344.14,4603.83 L 5146.57,4489.76 Z "/>
<path stroke="none" transform="matrix(0.1 0 0 0.1 -447.65 -421.8)" d="M 4906.17,4572.17 L 4900.17,4568.7 L 4900.17,4561.77 L 5149.57,4417.77 L 5149.57,4431.63 L 4906.17,4572.17 Z "/>
<path stroke="none" transform="matrix(0.1 0 0 0.1 -447.65 -421.8)" d="M 4647.77,4429.9 L 4653.78,4419.51 L 4900.17,4561.77 L 4900.17,4568.7 L 4894.18,4572.17 L 4647.77,4429.9 Z "/>
<path stroke="none" transform="matrix(0.1 0 0 0.1 -447.65 -421.8)" d="M 4906.17,4853.24 L 4894.18,4860.17 L 4894.18,4572.17 L 4900.17,4568.7 L 4906.17,4572.17 L 4906.17,4853.24 Z "/>
<path stroke="none" transform="matrix(0.1 0 0 0.1 -447.65 -421.8)" d="M 4958.01,4826.77 L 4946.02,4826.77 L 4946.02,4598.63 L 4958.01,4598.63 L 4958.01,4826.77 Z "/>
<path stroke="none" transform="matrix(0.1 0 0 0.1 -447.65 -421.8)" d="M 5149.57,4993.77 L 5149.57,5007.63 L 4894.18,4860.17 L 4906.17,4853.24 L 5149.57,4993.77 Z "/>
<path stroke="none" transform="matrix(0.1 0 0 0.1 -447.65 -421.8)" d="M 5149.57,5007.63 L 5149.57,4993.77 L 5392.98,4853.24 L 5398.97,4856.7 L 5398.97,4863.63 L 5149.57,5007.63 Z "/>
<path stroke="none" transform="matrix(0.1 0 0 0.1 -447.65 -421.8)" d="M 5152.58,4946.04 L 5146.57,4935.65 L 5344.14,4821.58 L 5350.14,4831.97 L 5152.58,4946.04 Z "/>
<path stroke="none" transform="matrix(0.1 0 0 0.1 -447.65 -421.8)" d="M 4531.5,4409.5 A 144,144 0 1 0 4819.5,4409.5A 144,144 0 1 0 4531.5,4409.5Z " class="connection_in" stroke-width="18px"/>
</g>
</svg>