<svg xmlns="http://www.w3.org/2000/svg" xmlns:xlink="http://www.w3.org/1999/xlink" viewBox="0 0 242.67099999999996 136.017" style="background-color: #ffffff00" version="1.1">
<g transform="matrix(1 0 0 1 -2.462000000000046 -2.75)">
<text x="0" y="0" stroke="none" transform="matrix(0.1 0 0 0.1 47.4199 100.897)" font-style="normal" font-weight="bold" font-size="200px" font-family="Arial">
N</text>
<text x="0" y="0" stroke="none" transform="matrix(0.1 0 0 0.1 72.9317 86.497)" font-style="normal" font-weight="bold" font-size="200px" font-family="Arial">
S</text>
<text x="0" y="0" stroke="none" transform="matrix(0.1 0 0 0.1 86.2233 111.437)" font-style="normal" font-weight="bold" font-size="200px" font-family="Arial">
O</text>
<text x="0" y="0" stroke="none" transform="matrix(0.1 0 0 0.1 57.4233 61.557)" font-style="normal" font-weight="bold" font-size="200px" font-family="Arial">
O</text>
<text x="0" y="0" stroke="none" transform="matrix(0.1 0 0 0.1 171.583 28.8971)" font-style="normal" font-weight="bold" font-size="200px" font-family="Arial">
O</text>
<text x="0" y="0" stroke="none" transform="matrix(0.1 0 0 0.1 198.193 72.097)" font-style="normal" font-weight="bold" font-size="200px" font-family="Arial">
F</text>
<text x="0" y="0" stroke="none" transform="matrix(0.1 0 0 0.1 223.133 57.6971)" font-style="normal" font-weight="bold" font-size="200px" font-family="Arial">
F</text>
<text x="0" y="0" stroke="none" transform="matrix(0.1 0 0 0.1 223.133 28.8971)" font-style="normal" font-weight="bold" font-size="200px" font-family="Arial">
F</text>
<path stroke="none" transform="matrix(0.1 0 0 0.1 -409.65 -399.8)" d="M 4393.52,4777.54 L 4393.52,4791.4 L 4147.12,4933.67 L 4141.12,4923.27 L 4393.52,4777.54 Z "/>
<path stroke="none" transform="matrix(0.1 0 0 0.1 -409.65 -399.8)" d="M 4545.7,4865.41 L 4539.7,4875.8 L 4393.52,4791.4 L 4393.52,4777.54 L 4545.7,4865.41 Z "/>
<path stroke="none" transform="matrix(0.1 0 0 0.1 -409.65 -399.8)" d="M 4648.92,5219.93 L 4636.92,5213.01 L 4636.92,5034.14 L 4648.92,5034.14 L 4648.92,5219.93 Z "/>
<path stroke="none" transform="matrix(0.1 0 0 0.1 -409.65 -399.8)" d="M 4396.52,5365.67 L 4390.52,5355.27 L 4636.92,5213.01 L 4648.92,5219.93 L 4396.52,5365.67 Z "/>
<path stroke="none" transform="matrix(0.1 0 0 0.1 -409.65 -399.8)" d="M 4800.23,4830.79 L 4806.23,4841.18 L 4745.06,4876.47 L 4739.07,4866.07 L 4800.23,4830.79 Z "/>
<path stroke="none" transform="matrix(0.1 0 0 0.1 -409.65 -399.8)" d="M 5012,4927.58 L 5001.61,4933.58 L 4964.61,4869.5 L 4975,4863.5 L 5012,4927.58 Z "/>
<path stroke="none" transform="matrix(0.1 0 0 0.1 -409.65 -399.8)" d="M 4967.11,4953.5 L 4956.72,4959.5 L 4919.72,4895.42 L 4930.11,4889.42 L 4967.11,4953.5 Z "/>
<path stroke="none" transform="matrix(0.1 0 0 0.1 -409.65 -399.8)" d="M 4775.63,4645.87 L 4786.02,4639.87 L 4823.06,4704.02 L 4812.67,4710.02 L 4775.63,4645.87 Z "/>
<path stroke="none" transform="matrix(0.1 0 0 0.1 -409.65 -399.8)" d="M 4820.52,4619.95 L 4830.91,4613.95 L 4867.96,4678.1 L 4857.56,4684.1 L 4820.52,4619.95 Z "/>
<path stroke="none" transform="matrix(0.1 0 0 0.1 -409.65 -399.8)" d="M 5135.92,4637.01 L 5141.92,4640.47 L 5141.92,4647.4 L 4979.53,4741.16 L 4973.53,4730.76 L 5135.92,4637.01 Z "/>
<path stroke="none" transform="matrix(0.1 0 0 0.1 -409.65 -399.8)" d="M 5391.32,4777.54 L 5391.32,4791.4 L 5141.92,4647.4 L 5141.92,4640.47 L 5147.92,4637.01 L 5391.32,4777.54 Z "/>
<path stroke="none" transform="matrix(0.1 0 0 0.1 -409.65 -399.8)" d="M 5634.72,4637.01 L 5646.72,4643.93 L 5391.32,4791.4 L 5391.32,4777.54 L 5634.72,4637.01 Z "/>
<path stroke="none" transform="matrix(0.1 0 0 0.1 -409.65 -399.8)" d="M 5585.88,4605.35 L 5591.88,4615.74 L 5394.32,4729.81 L 5388.32,4719.42 L 5585.88,4605.35 Z "/>
<path stroke="none" transform="matrix(0.1 0 0 0.1 -409.65 -399.8)" d="M 5634.72,4355.93 L 5640.72,4352.47 L 5646.72,4355.93 L 5646.72,4643.93 L 5634.72,4637.01 L 5634.72,4355.93 Z "/>
<path stroke="none" transform="matrix(0.1 0 0 0.1 -409.65 -399.8)" d="M 5795.33,4256.27 L 5801.33,4266.66 L 5646.72,4355.93 L 5640.72,4352.47 L 5640.72,4345.54 L 5795.33,4256.27 Z "/>
<path stroke="none" transform="matrix(0.1 0 0 0.1 -409.65 -399.8)" d="M 6139.52,4345.54 L 6139.52,4352.47 L 6133.52,4355.93 L 5979.35,4266.92 L 5985.35,4256.53 L 6139.52,4345.54 Z "/>
<path stroke="none" transform="matrix(0.1 0 0 0.1 -409.65 -399.8)" d="M 6145.52,4540.14 L 6133.52,4540.14 L 6133.52,4355.93 L 6139.52,4352.47 L 6145.52,4362.86 L 6145.52,4540.14 Z "/>
<path stroke="none" transform="matrix(0.1 0 0 0.1 -409.65 -399.8)" d="M 6300.05,4438.23 L 6294.05,4448.63 L 6145.52,4362.86 L 6139.52,4352.47 L 6151.52,4352.47 L 6300.05,4438.23 Z "/>
<path stroke="none" transform="matrix(0.1 0 0 0.1 -409.65 -399.8)" d="M 6293.47,4256.65 L 6299.47,4267.04 L 6151.52,4352.47 L 6139.52,4352.47 L 6139.52,4345.54 L 6293.47,4256.65 Z "/>
<path stroke="none" transform="matrix(0.1 0 0 0.1 -409.65 -399.8)" d="M 5391.32,4215.4 L 5391.32,4201.54 L 5640.72,4345.54 L 5640.72,4352.47 L 5634.72,4355.93 L 5391.32,4215.4 Z "/>
<path stroke="none" transform="matrix(0.1 0 0 0.1 -409.65 -399.8)" d="M 5388.32,4273.52 L 5394.32,4263.13 L 5591.88,4377.2 L 5585.88,4387.59 L 5388.32,4273.52 Z "/>
<path stroke="none" transform="matrix(0.1 0 0 0.1 -409.65 -399.8)" d="M 5147.92,4355.93 L 5141.92,4352.47 L 5141.92,4345.54 L 5391.32,4201.54 L 5391.32,4215.4 L 5147.92,4355.93 Z "/>
<path stroke="none" transform="matrix(0.1 0 0 0.1 -409.65 -399.8)" d="M 5135.92,4355.93 L 5141.92,4352.47 L 5147.92,4355.93 L 5147.92,4637.01 L 5141.92,4640.47 L 5135.92,4637.01 L 5135.92,4355.93 Z "/>
<path stroke="none" transform="matrix(0.1 0 0 0.1 -409.65 -399.8)" d="M 5187.76,4382.4 L 5199.76,4382.4 L 5199.76,4610.54 L 5187.76,4610.54 L 5187.76,4382.4 Z "/>
<path stroke="none" transform="matrix(0.1 0 0 0.1 -409.65 -399.8)" d="M 4889.52,4213.67 L 4895.52,4203.27 L 5141.92,4345.54 L 5141.92,4352.47 L 5135.92,4355.93 L 4889.52,4213.67 Z "/>
<path stroke="none" transform="matrix(0.1 0 0 0.1 -409.65 -399.8)" d="M 4741.5,4189.5 A 144,144 0 1 0 5029.5,4189.5A 144,144 0 1 0 4741.5,4189.5Z " class="connection_in" stroke-width="18px"/>
</g>
</svg>