<svg xmlns="http://www.w3.org/2000/svg" xmlns:xlink="http://www.w3.org/1999/xlink" viewBox="0 0 155.07199999999995 116.4499999999999" style="background-color: #ffffff00" version="1.1">
<g transform="matrix(1 0 0 1 -3.500000000000057 -2.650000000000091)">
<text x="0" y="0" stroke="none" transform="matrix(0.1 0 0 0.1 136.572 98.4)" font-style="normal" font-weight="bold" font-size="200px" font-family="Arial">
N</text>
<text x="0" y="0" stroke="none" transform="matrix(0.1 0 0 0.1 12.9849 84)" font-style="normal" font-weight="bold" font-size="200px" font-family="Arial">
F</text>
<text x="0" y="0" stroke="none" transform="matrix(0.1 0 0 0.1 61.7517 112.8)" font-style="normal" font-weight="bold" font-size="200px" font-family="Arial">
NH</text>
<text x="0" y="0" stroke="none" transform="matrix(0.1 0 0 0.1 90.6384 117.1)" font-style="normal" font-weight="bold" font-size="150px" font-family="Arial">
2</text>
<path stroke="none" transform="matrix(0.1 0 0 0.1 -453.65 -541.9)" d="M 5696.11,6230.59 L 5702.11,6220.2 L 5851.3,6306.33 L 5845.3,6316.73 L 5696.11,6230.59 Z "/>
<path stroke="none" transform="matrix(0.1 0 0 0.1 -453.65 -541.9)" d="M 5722.03,6185.7 L 5728.03,6175.3 L 5877.22,6261.44 L 5871.22,6271.83 L 5722.03,6185.7 Z "/>
<path stroke="none" transform="matrix(0.1 0 0 0.1 -453.65 -541.9)" d="M 5747.95,6140.8 L 5753.95,6130.41 L 5903.14,6216.55 L 5897.14,6226.94 L 5747.95,6140.8 Z "/>
<path stroke="none" transform="matrix(0.1 0 0 0.1 -453.65 -541.9)" d="M 5475.63,6043.43 L 5475.63,6036.5 L 5481.63,6033.04 L 5728.03,6175.3 L 5722.03,6185.7 L 5475.63,6043.43 Z "/>
<path stroke="none" transform="matrix(0.1 0 0 0.1 -453.65 -541.9)" d="M 5469.63,5751.96 L 5481.63,5745.04 L 5481.63,6033.04 L 5475.63,6036.5 L 5469.63,6033.04 L 5469.63,5751.96 Z "/>
<path stroke="none" transform="matrix(0.1 0 0 0.1 -453.65 -541.9)" d="M 5226.23,5611.43 L 5226.23,5597.57 L 5481.63,5745.04 L 5469.63,5751.96 L 5226.23,5611.43 Z "/>
<path stroke="none" transform="matrix(0.1 0 0 0.1 -453.65 -541.9)" d="M 5223.23,5669.55 L 5229.23,5659.16 L 5426.8,5773.23 L 5420.8,5783.62 L 5223.23,5669.55 Z "/>
<path stroke="none" transform="matrix(0.1 0 0 0.1 -453.65 -541.9)" d="M 4982.83,5751.96 L 4976.83,5748.5 L 4976.83,5741.57 L 5226.23,5597.57 L 5226.23,5611.43 L 4982.83,5751.96 Z "/>
<path stroke="none" transform="matrix(0.1 0 0 0.1 -453.65 -541.9)" d="M 4724.43,5609.7 L 4730.43,5599.3 L 4976.83,5741.57 L 4976.83,5748.5 L 4970.83,5751.96 L 4724.43,5609.7 Z "/>
<path stroke="none" transform="matrix(0.1 0 0 0.1 -453.65 -541.9)" d="M 4982.83,6033.04 L 4976.83,6036.5 L 4970.83,6033.04 L 4970.83,5751.96 L 4976.83,5748.5 L 4982.83,5751.96 L 4982.83,6033.04 Z "/>
<path stroke="none" transform="matrix(0.1 0 0 0.1 -453.65 -541.9)" d="M 5034.67,6006.57 L 5022.67,6006.57 L 5022.67,5778.43 L 5034.67,5778.43 L 5034.67,6006.57 Z "/>
<path stroke="none" transform="matrix(0.1 0 0 0.1 -453.65 -541.9)" d="M 4825.92,6130.56 L 4819.92,6120.17 L 4970.83,6033.04 L 4976.83,6036.5 L 4976.83,6043.43 L 4825.92,6130.56 Z "/>
<path stroke="none" transform="matrix(0.1 0 0 0.1 -453.65 -541.9)" d="M 5226.23,6173.57 L 5226.23,6180.5 L 5220.23,6183.96 L 4976.83,6043.43 L 4976.83,6036.5 L 4982.83,6033.04 L 5226.23,6173.57 Z "/>
<path stroke="none" transform="matrix(0.1 0 0 0.1 -453.65 -541.9)" d="M 5232.23,6183.96 L 5226.23,6180.5 L 5226.23,6173.57 L 5469.63,6033.04 L 5475.63,6036.5 L 5475.63,6043.43 L 5232.23,6183.96 Z "/>
<path stroke="none" transform="matrix(0.1 0 0 0.1 -453.65 -541.9)" d="M 5229.23,6125.84 L 5223.23,6115.45 L 5420.8,6001.38 L 5426.8,6011.77 L 5229.23,6125.84 Z "/>
<path stroke="none" transform="matrix(0.1 0 0 0.1 -453.65 -541.9)" d="M 5232.23,6368.17 L 5220.23,6368.17 L 5220.23,6183.96 L 5226.23,6180.5 L 5232.23,6183.96 L 5232.23,6368.17 Z "/>
<path stroke="none" transform="matrix(0.1 0 0 0.1 -453.65 -541.9)" d="M 4591.5,5609.5 A 144,144 0 1 0 4879.5,5609.5A 144,144 0 1 0 4591.5,5609.5Z " class="connection_in" stroke-width="18px"/>
</g>
</svg>