<svg xmlns="http://www.w3.org/2000/svg" xmlns:xlink="http://www.w3.org/1999/xlink" viewBox="0 0 142.84999999999997 75.44999999999993" style="background-color: #ffffff00" version="1.1">
<g transform="matrix(1 0 0 1 -3.500000000000057 -2.650000000000091)">
<path stroke="none" transform="matrix(0.1 0 0 0.1 -449.65 -562.9)" d="M 4936.4,5944.14 L 4936.4,5951.07 L 4930.4,5954.54 L 4684,5812.27 L 4690,5801.88 L 4936.4,5944.14 Z "/>
<path stroke="none" transform="matrix(0.1 0 0 0.1 -449.65 -562.9)" d="M 4942.4,6235.61 L 4930.4,6242.54 L 4930.4,5954.54 L 4936.4,5951.07 L 4942.4,5954.54 L 4942.4,6235.61 Z "/>
<path stroke="none" transform="matrix(0.1 0 0 0.1 -449.65 -562.9)" d="M 5185.8,6376.14 L 5185.8,6390 L 4930.4,6242.54 L 4942.4,6235.61 L 5185.8,6376.14 Z "/>
<path stroke="none" transform="matrix(0.1 0 0 0.1 -449.65 -562.9)" d="M 5188.8,6318.02 L 5182.8,6328.41 L 4985.24,6214.34 L 4991.24,6203.95 L 5188.8,6318.02 Z "/>
<path stroke="none" transform="matrix(0.1 0 0 0.1 -449.65 -562.9)" d="M 5429.2,6235.61 L 5435.2,6239.07 L 5435.2,6246 L 5185.8,6390 L 5185.8,6376.14 L 5429.2,6235.61 Z "/>
<path stroke="none" transform="matrix(0.1 0 0 0.1 -449.65 -562.9)" d="M 5684.6,6376.14 L 5684.6,6390 L 5435.2,6246 L 5435.2,6239.07 L 5441.2,6235.61 L 5684.6,6376.14 Z "/>
<path stroke="none" transform="matrix(0.1 0 0 0.1 -449.65 -562.9)" d="M 5687.6,6318.02 L 5681.6,6328.41 L 5484.04,6214.34 L 5490.04,6203.95 L 5687.6,6318.02 Z "/>
<path stroke="none" transform="matrix(0.1 0 0 0.1 -449.65 -562.9)" d="M 5928,6235.61 L 5940,6242.54 L 5684.6,6390 L 5684.6,6376.14 L 5928,6235.61 Z "/>
<path stroke="none" transform="matrix(0.1 0 0 0.1 -449.65 -562.9)" d="M 5928,5954.54 L 5940,5947.61 L 5940,6242.54 L 5928,6235.61 L 5928,5954.54 Z "/>
<path stroke="none" transform="matrix(0.1 0 0 0.1 -449.65 -562.9)" d="M 5876.16,5981 L 5888.16,5981 L 5888.16,6209.14 L 5876.16,6209.14 L 5876.16,5981 Z "/>
<path stroke="none" transform="matrix(0.1 0 0 0.1 -449.65 -562.9)" d="M 5684.6,5814 L 5684.6,5800.14 L 5940,5947.61 L 5928,5954.54 L 5684.6,5814 Z "/>
<path stroke="none" transform="matrix(0.1 0 0 0.1 -449.65 -562.9)" d="M 5441.2,5954.54 L 5435.2,5951.07 L 5435.2,5944.14 L 5684.6,5800.14 L 5684.6,5814 L 5441.2,5954.54 Z "/>
<path stroke="none" transform="matrix(0.1 0 0 0.1 -449.65 -562.9)" d="M 5490.04,5986.2 L 5484.04,5975.8 L 5681.6,5861.73 L 5687.6,5872.13 L 5490.04,5986.2 Z "/>
<path stroke="none" transform="matrix(0.1 0 0 0.1 -449.65 -562.9)" d="M 5429.2,5954.54 L 5435.2,5951.07 L 5441.2,5954.54 L 5441.2,6235.61 L 5435.2,6239.07 L 5429.2,6235.61 L 5429.2,5954.54 Z "/>
<path stroke="none" transform="matrix(0.1 0 0 0.1 -449.65 -562.9)" d="M 5185.8,5814 L 5185.8,5800.14 L 5435.2,5944.14 L 5435.2,5951.07 L 5429.2,5954.54 L 5185.8,5814 Z "/>
<path stroke="none" transform="matrix(0.1 0 0 0.1 -449.65 -562.9)" d="M 5185.8,5800.14 L 5185.8,5814 L 4942.4,5954.54 L 4936.4,5951.07 L 4936.4,5944.14 L 5185.8,5800.14 Z "/>
<path stroke="none" transform="matrix(0.1 0 0 0.1 -449.65 -562.9)" d="M 5182.8,5861.73 L 5188.8,5872.13 L 4991.24,5986.2 L 4985.24,5975.8 L 5182.8,5861.73 Z "/>
<path stroke="none" transform="matrix(0.1 0 0 0.1 -449.65 -562.9)" d="M 4551.5,5819.5 A 144,144 0 1 0 4839.5,5819.5A 144,144 0 1 0 4551.5,5819.5Z " class="connection_in" stroke-width="18px"/>
</g>
</svg>