<svg xmlns="http://www.w3.org/2000/svg" xmlns:xlink="http://www.w3.org/1999/xlink" viewBox="0 0 197.81599999999997 133.8470000000001" style="background-color: #ffffff00" version="1.1">
<g transform="matrix(1 0 0 1 -2.944000000000017 -3.6930000000000014)">
<text x="0" y="0" stroke="none" transform="matrix(0.1 0 0 0.1 143.264 21.693)" font-style="normal" font-weight="bold" font-size="200px" font-family="Arial">
O</text>
<text x="0" y="0" stroke="none" transform="matrix(0.1 0 0 0.1 143.82 50.493)" font-style="normal" font-weight="bold" font-size="200px" font-family="Arial">
N</text>
<text x="0" y="0" stroke="none" transform="matrix(0.1 0 0 0.1 158.264 42.643)" font-style="normal" font-weight="bold" font-size="150px" font-family="Arial">
+</text>
<text x="0" y="0" stroke="none" transform="matrix(0.1 0 0 0.1 168.204 64.893)" font-style="normal" font-weight="bold" font-size="200px" font-family="Arial">
O</text>
<text x="0" y="0" stroke="none" transform="matrix(0.1 0 0 0.1 183.76 57.043)" font-style="normal" font-weight="bold" font-size="150px" font-family="Arial">
-</text>
<text x="0" y="0" stroke="none" transform="matrix(0.1 0 0 0.1 44.0404 108.093)" font-style="normal" font-weight="bold" font-size="200px" font-family="Arial">
N</text>
<path stroke="none" transform="matrix(0.1 0 0 0.1 -431.65 -543.9)" d="M 5858.84,5765.26 L 5846.84,5765.26 L 5846.84,5685.6 L 5858.84,5685.6 L 5858.84,5765.26 Z "/>
<path stroke="none" transform="matrix(0.1 0 0 0.1 -431.65 -543.9)" d="M 5807,5765.26 L 5795,5765.26 L 5795,5685.6 L 5807,5685.6 L 5807,5765.26 Z "/>
<path stroke="none" transform="matrix(0.1 0 0 0.1 -431.65 -543.9)" d="M 5990.27,5952.82 L 5984.27,5963.21 L 5925.44,5929.24 L 5931.44,5918.85 L 5990.27,5952.82 Z "/>
<path stroke="none" transform="matrix(0.1 0 0 0.1 -431.65 -543.9)" d="M 5583.52,6012.89 L 5577.52,6009.43 L 5577.52,6002.5 L 5721.33,5919.47 L 5727.33,5929.86 L 5583.52,6012.89 Z "/>
<path stroke="none" transform="matrix(0.1 0 0 0.1 -431.65 -543.9)" d="M 5583.52,6300.9 L 5571.52,6293.96 L 5571.52,6012.89 L 5577.52,6009.43 L 5583.52,6012.89 L 5583.52,6300.9 Z "/>
<path stroke="none" transform="matrix(0.1 0 0 0.1 -431.65 -543.9)" d="M 5327.92,6448.36 L 5327.92,6434.5 L 5571.52,6293.96 L 5583.52,6300.9 L 5327.92,6448.36 Z "/>
<path stroke="none" transform="matrix(0.1 0 0 0.1 -431.65 -543.9)" d="M 5330.93,6386.74 L 5324.93,6376.34 L 5522.65,6262.28 L 5528.65,6272.67 L 5330.93,6386.74 Z "/>
<path stroke="none" transform="matrix(0.1 0 0 0.1 -431.65 -543.9)" d="M 5078.52,6304.36 L 5078.52,6297.43 L 5084.52,6293.97 L 5327.92,6434.5 L 5327.92,6448.36 L 5078.52,6304.36 Z "/>
<path stroke="none" transform="matrix(0.1 0 0 0.1 -431.65 -543.9)" d="M 4931.26,6389.38 L 4925.26,6378.99 L 5072.52,6293.97 L 5078.52,6297.43 L 5078.52,6304.36 L 4931.26,6389.38 Z "/>
<path stroke="none" transform="matrix(0.1 0 0 0.1 -431.65 -543.9)" d="M 4567.66,6331.48 L 4564.58,6316.97 L 4729.93,6390.66 L 4725.05,6401.62 L 4567.66,6331.48 Z "/>
<path stroke="none" transform="matrix(0.1 0 0 0.1 -431.65 -543.9)" d="M 4380.7,6539.01 L 4365.94,6537.45 L 4564.58,6316.97 L 4567.66,6331.48 L 4380.7,6539.01 Z "/>
<path stroke="none" transform="matrix(0.1 0 0 0.1 -431.65 -543.9)" d="M 4520.34,6780.86 L 4514.3,6794.4 L 4365.94,6537.45 L 4380.7,6539.01 L 4520.34,6780.86 Z "/>
<path stroke="none" transform="matrix(0.1 0 0 0.1 -431.65 -543.9)" d="M 4793.61,6722.87 L 4804.63,6732.79 L 4514.3,6794.4 L 4520.34,6780.86 L 4793.61,6722.87 Z "/>
<path stroke="none" transform="matrix(0.1 0 0 0.1 -431.65 -543.9)" d="M 4804.63,6732.79 L 4793.61,6722.87 L 4812.19,6545.5 L 4824.12,6546.75 L 4804.63,6732.79 Z "/>
<path stroke="none" transform="matrix(0.1 0 0 0.1 -431.65 -543.9)" d="M 5072.52,6012.89 L 5078.52,6009.43 L 5084.52,6012.89 L 5084.52,6293.97 L 5078.52,6297.43 L 5072.52,6293.97 L 5072.52,6012.89 Z "/>
<path stroke="none" transform="matrix(0.1 0 0 0.1 -431.65 -543.9)" d="M 5124.36,6039.36 L 5136.36,6039.36 L 5136.36,6267.5 L 5124.36,6267.5 L 5124.36,6039.36 Z "/>
<path stroke="none" transform="matrix(0.1 0 0 0.1 -431.65 -543.9)" d="M 4826.12,5870.63 L 4832.12,5860.23 L 5078.52,6002.5 L 5078.52,6009.43 L 5072.52,6012.89 L 4826.12,5870.63 Z "/>
<path stroke="none" transform="matrix(0.1 0 0 0.1 -431.65 -543.9)" d="M 5327.92,5858.5 L 5327.92,5872.36 L 5084.52,6012.89 L 5078.52,6009.43 L 5078.52,6002.5 L 5327.92,5858.5 Z "/>
<path stroke="none" transform="matrix(0.1 0 0 0.1 -431.65 -543.9)" d="M 5327.92,5872.36 L 5327.92,5858.5 L 5577.52,6002.5 L 5577.52,6009.43 L 5571.52,6012.89 L 5327.92,5872.36 Z "/>
<path stroke="none" transform="matrix(0.1 0 0 0.1 -431.65 -543.9)" d="M 5324.93,5930.51 L 5330.93,5920.12 L 5528.65,6034.19 L 5522.65,6044.58 L 5324.93,5930.51 Z "/>
<path stroke="none" transform="matrix(0.1 0 0 0.1 -431.65 -543.9)" d="M 4681.5,5869.5 A 144,144 0 1 0 4969.5,5869.5A 144,144 0 1 0 4681.5,5869.5Z " class="connection_in" stroke-width="18px"/>
</g>
</svg>