<svg xmlns="http://www.w3.org/2000/svg" xmlns:xlink="http://www.w3.org/1999/xlink" viewBox="0 0 126.03267000000011 150.41499999999996" style="background-color: #ffffff00" version="1.1">
<g transform="matrix(1 0 0 1 -2.0973300000000004 -2.650000000000091)">
<text x="0" y="0" stroke="none" transform="matrix(0.1 0 0 0.1 4.09733 130.116)" font-style="normal" font-weight="bold" font-size="200px" font-family="Arial">
HN</text>
<text x="0" y="0" stroke="none" transform="matrix(0.1 0 0 0.1 68.9748 130.115)" font-style="normal" font-weight="bold" font-size="200px" font-family="Arial">
S</text>
<text x="0" y="0" stroke="none" transform="matrix(0.1 0 0 0.1 29.045 86.9)" font-style="normal" font-weight="bold" font-size="200px" font-family="Arial">
HN</text>
<path stroke="none" transform="matrix(0.1 0 0 0.1 -451.65 -565.9)" d="M 4768.13,6987.33 L 4780.13,6987.33 L 4780.15,7169.65 L 4768.15,7169.65 L 4768.13,6987.33 Z "/>
<path stroke="none" transform="matrix(0.1 0 0 0.1 -451.65 -565.9)" d="M 5017.52,6734.2 L 5029.52,6741.12 L 4875.94,6829.8 L 4869.94,6819.41 L 5017.52,6734.2 Z "/>
<path stroke="none" transform="matrix(0.1 0 0 0.1 -451.65 -565.9)" d="M 5202.97,6804.39 L 5196.97,6814.79 L 5020.53,6712.93 L 5026.53,6702.54 L 5202.97,6804.39 Z "/>
<path stroke="none" transform="matrix(0.1 0 0 0.1 -451.65 -565.9)" d="M 5177.05,6849.29 L 5171.06,6859.68 L 4994.6,6757.82 L 5000.6,6747.43 L 5177.05,6849.29 Z "/>
<path stroke="none" transform="matrix(0.1 0 0 0.1 -451.65 -565.9)" d="M 5017.57,6555.16 L 5029.57,6555.17 L 5029.52,6741.12 L 5017.52,6734.2 L 5017.57,6555.16 Z "/>
<path stroke="none" transform="matrix(0.1 0 0 0.1 -451.65 -565.9)" d="M 5267,6302.04 L 5273,6305.5 L 5273,6312.43 L 5125.41,6397.64 L 5119.41,6387.25 L 5267,6302.04 Z "/>
<path stroke="none" transform="matrix(0.1 0 0 0.1 -451.65 -565.9)" d="M 5522.4,6442.57 L 5522.4,6456.43 L 5273,6312.43 L 5273,6305.5 L 5279,6302.04 L 5522.4,6442.57 Z "/>
<path stroke="none" transform="matrix(0.1 0 0 0.1 -451.65 -565.9)" d="M 5765.8,6302.04 L 5777.8,6308.96 L 5522.4,6456.43 L 5522.4,6442.57 L 5765.8,6302.04 Z "/>
<path stroke="none" transform="matrix(0.1 0 0 0.1 -451.65 -565.9)" d="M 5716.96,6270.38 L 5722.96,6280.77 L 5525.4,6394.84 L 5519.4,6384.45 L 5716.96,6270.38 Z "/>
<path stroke="none" transform="matrix(0.1 0 0 0.1 -451.65 -565.9)" d="M 5765.8,6020.96 L 5777.8,6014.04 L 5777.8,6308.96 L 5765.8,6302.04 L 5765.8,6020.96 Z "/>
<path stroke="none" transform="matrix(0.1 0 0 0.1 -451.65 -565.9)" d="M 5522.4,5880.43 L 5522.4,5866.57 L 5777.8,6014.04 L 5765.8,6020.96 L 5522.4,5880.43 Z "/>
<path stroke="none" transform="matrix(0.1 0 0 0.1 -451.65 -565.9)" d="M 5519.4,5938.55 L 5525.4,5928.16 L 5722.96,6042.23 L 5716.96,6052.62 L 5519.4,5938.55 Z "/>
<path stroke="none" transform="matrix(0.1 0 0 0.1 -451.65 -565.9)" d="M 5279,6020.96 L 5273,6017.5 L 5273,6010.57 L 5522.4,5866.57 L 5522.4,5880.43 L 5279,6020.96 Z "/>
<path stroke="none" transform="matrix(0.1 0 0 0.1 -451.65 -565.9)" d="M 5267,6020.96 L 5273,6017.5 L 5279,6020.96 L 5279,6302.04 L 5273,6305.5 L 5267,6302.04 L 5267,6020.96 Z "/>
<path stroke="none" transform="matrix(0.1 0 0 0.1 -451.65 -565.9)" d="M 5318.84,6047.43 L 5330.84,6047.43 L 5330.84,6275.57 L 5318.84,6275.57 L 5318.84,6047.43 Z "/>
<path stroke="none" transform="matrix(0.1 0 0 0.1 -451.65 -565.9)" d="M 5020.6,5878.7 L 5026.6,5868.3 L 5273,6010.57 L 5273,6017.5 L 5267,6020.96 L 5020.6,5878.7 Z "/>
<path stroke="none" transform="matrix(0.1 0 0 0.1 -451.65 -565.9)" d="M 4871.5,5849.5 A 144,144 0 1 0 5159.5,5849.5A 144,144 0 1 0 4871.5,5849.5Z " class="connection_in" stroke-width="18px"/>
</g>
</svg>