<svg xmlns="http://www.w3.org/2000/svg" xmlns:xlink="http://www.w3.org/1999/xlink" viewBox="0 0 127.33399999999995 129.7455" style="background-color: #ffffff00" version="1.1">
<g transform="matrix(1 0 0 1 -3.500000000000057 -3.378499999999999)">
<text x="0" y="0" stroke="none" transform="matrix(0.1 0 0 0.1 68.4768 24.399)" font-style="normal" font-weight="bold" font-size="200px" font-family="Arial">
N</text>
<text x="0" y="0" stroke="none" transform="matrix(0.1 0 0 0.1 97.1252 21.3785)" font-style="normal" font-weight="bold" font-size="200px" font-family="Arial">
N</text>
<text x="0" y="0" stroke="none" transform="matrix(0.1 0 0 0.1 108.834 47.699)" font-style="normal" font-weight="bold" font-size="200px" font-family="Arial">
N</text>
<text x="0" y="0" stroke="none" transform="matrix(0.1 0 0 0.1 87.436 66.9608)" font-style="normal" font-weight="bold" font-size="200px" font-family="Arial">
N</text>
<path stroke="none" transform="matrix(0.1 0 0 0.1 -468.65 -551.9)" d="M 5377.58,6545.72 L 5383.58,6542.25 L 5389.58,6545.72 L 5389.58,6830.24 L 5377.58,6830.24 L 5377.58,6545.72 Z "/>
<path stroke="none" transform="matrix(0.1 0 0 0.1 -468.65 -551.9)" d="M 5128.16,6401.72 L 5140.16,6394.79 L 5383.58,6535.33 L 5383.58,6542.25 L 5377.58,6545.72 L 5128.16,6401.72 Z "/>
<path stroke="none" transform="matrix(0.1 0 0 0.1 -468.65 -551.9)" d="M 5128.25,6113.56 L 5134.25,6110.09 L 5140.25,6113.56 L 5140.16,6394.79 L 5128.16,6401.72 L 5128.25,6113.56 Z "/>
<path stroke="none" transform="matrix(0.1 0 0 0.1 -468.65 -551.9)" d="M 5180.11,6140.05 L 5192.11,6140.05 L 5192.04,6368.32 L 5180.04,6368.31 L 5180.11,6140.05 Z "/>
<path stroke="none" transform="matrix(0.1 0 0 0.1 -468.65 -551.9)" d="M 4881.84,5971.29 L 4887.84,5960.9 L 5134.25,6103.17 L 5134.25,6110.09 L 5128.25,6113.56 L 4881.84,5971.29 Z "/>
<path stroke="none" transform="matrix(0.1 0 0 0.1 -468.65 -551.9)" d="M 5378.35,5962.25 L 5383.66,5966.11 L 5383.66,5973.04 L 5140.25,6113.56 L 5134.25,6110.09 L 5134.25,6103.17 L 5378.35,5962.25 Z "/>
<path stroke="none" transform="matrix(0.1 0 0 0.1 -468.65 -551.9)" d="M 5413.65,5796.05 L 5425.39,5798.54 L 5390.44,5963.09 L 5383.66,5966.11 L 5378.35,5962.25 L 5413.65,5796.05 Z "/>
<path stroke="none" transform="matrix(0.1 0 0 0.1 -468.65 -551.9)" d="M 5464.34,5806.82 L 5476.08,5809.31 L 5448.04,5941.3 L 5436.31,5938.8 L 5464.34,5806.82 Z "/>
<path stroke="none" transform="matrix(0.1 0 0 0.1 -468.65 -551.9)" d="M 5640.93,5657.64 L 5642.19,5669.57 L 5531.11,5681.29 L 5529.85,5669.35 L 5640.93,5657.64 Z "/>
<path stroke="none" transform="matrix(0.1 0 0 0.1 -468.65 -551.9)" d="M 5804.7,5807.52 L 5793.74,5812.4 L 5774.06,5768.17 L 5785.03,5763.3 L 5804.7,5807.52 Z "/>
<path stroke="none" transform="matrix(0.1 0 0 0.1 -468.65 -551.9)" d="M 5757.32,5828.6 L 5746.36,5833.47 L 5726.69,5789.25 L 5737.65,5784.37 L 5757.32,5828.6 Z "/>
<path stroke="none" transform="matrix(0.1 0 0 0.1 -468.65 -551.9)" d="M 5725.67,6034.83 L 5717.64,6025.91 L 5751.02,5995.87 L 5759.05,6004.78 L 5725.67,6034.83 Z "/>
<path stroke="none" transform="matrix(0.1 0 0 0.1 -468.65 -551.9)" d="M 5535.86,6047.05 L 5529.86,6057.45 L 5383.66,5973.04 L 5383.66,5966.11 L 5390.44,5963.09 L 5535.86,6047.05 Z "/>
<path stroke="none" transform="matrix(0.1 0 0 0.1 -468.65 -551.9)" d="M 5639.08,6401.56 L 5627.08,6394.63 L 5627.08,6215.77 L 5639.08,6215.77 L 5639.08,6401.56 Z "/>
<path stroke="none" transform="matrix(0.1 0 0 0.1 -468.65 -551.9)" d="M 5627.08,6394.63 L 5639.08,6401.56 L 5389.58,6545.72 L 5383.58,6542.25 L 5383.58,6535.33 L 5627.08,6394.63 Z "/>
<path stroke="none" transform="matrix(0.1 0 0 0.1 -468.65 -551.9)" d="M 5578.21,6362.96 L 5584.22,6373.35 L 5386.57,6487.55 L 5380.57,6477.16 L 5578.21,6362.96 Z "/>
<path stroke="none" transform="matrix(0.1 0 0 0.1 -468.65 -551.9)" d="M 4741.5,5979.5 A 144,144 0 1 0 5029.5,5979.5A 144,144 0 1 0 4741.5,5979.5Z " class="connection_in" stroke-width="18px"/>
</g>
</svg>