<svg xmlns="http://www.w3.org/2000/svg" xmlns:xlink="http://www.w3.org/1999/xlink" viewBox="0 0 196.51499999999993 76.44999999999993" style="background-color: #ffffff00" version="1.1">
<g transform="matrix(1 0 0 1 -3.500000000000057 -2.650000000000091)">
<path stroke="none" transform="matrix(0.1 0 0 0.1 -428.65 -561.9)" d="M 4764.05,5944.14 L 4764.05,5951.07 L 4758.05,5954.54 L 4511.65,5812.27 L 4517.65,5801.88 L 4764.05,5944.14 Z "/>
<path stroke="none" transform="matrix(0.1 0 0 0.1 -428.65 -561.9)" d="M 4770.05,6235.61 L 4758.05,6242.54 L 4758.05,5954.54 L 4764.05,5951.07 L 4770.05,5954.54 L 4770.05,6235.61 Z "/>
<path stroke="none" transform="matrix(0.1 0 0 0.1 -428.65 -561.9)" d="M 5013.65,6376.14 L 5013.65,6390 L 4758.05,6242.54 L 4770.05,6235.61 L 5013.65,6376.14 Z "/>
<path stroke="none" transform="matrix(0.1 0 0 0.1 -428.65 -561.9)" d="M 5016.64,6317.99 L 5010.64,6328.38 L 4812.92,6214.31 L 4818.92,6203.92 L 5016.64,6317.99 Z "/>
<path stroke="none" transform="matrix(0.1 0 0 0.1 -428.65 -561.9)" d="M 5257.05,6235.61 L 5263.05,6239.07 L 5263.05,6246 L 5013.65,6390 L 5013.65,6376.14 L 5257.05,6235.61 Z "/>
<path stroke="none" transform="matrix(0.1 0 0 0.1 -428.65 -561.9)" d="M 5512.45,6376.14 L 5512.45,6390 L 5263.05,6246 L 5263.05,6239.07 L 5269.05,6235.61 L 5512.45,6376.14 Z "/>
<path stroke="none" transform="matrix(0.1 0 0 0.1 -428.65 -561.9)" d="M 5515.45,6318.02 L 5509.45,6328.41 L 5311.89,6214.34 L 5317.89,6203.95 L 5515.45,6318.02 Z "/>
<path stroke="none" transform="matrix(0.1 0 0 0.1 -428.65 -561.9)" d="M 5755.85,6235.61 L 5761.85,6239.07 L 5761.85,6246 L 5512.45,6390 L 5512.45,6376.14 L 5755.85,6235.61 Z "/>
<path stroke="none" transform="matrix(0.1 0 0 0.1 -428.65 -561.9)" d="M 6011.25,6376.14 L 6011.25,6390 L 5761.85,6246 L 5761.85,6239.07 L 5767.85,6235.61 L 6011.25,6376.14 Z "/>
<path stroke="none" transform="matrix(0.1 0 0 0.1 -428.65 -561.9)" d="M 6014.25,6318.02 L 6008.25,6328.41 L 5810.69,6214.34 L 5816.69,6203.95 L 6014.25,6318.02 Z "/>
<path stroke="none" transform="matrix(0.1 0 0 0.1 -428.65 -561.9)" d="M 6254.65,6235.61 L 6266.65,6242.54 L 6011.25,6390 L 6011.25,6376.14 L 6254.65,6235.61 Z "/>
<path stroke="none" transform="matrix(0.1 0 0 0.1 -428.65 -561.9)" d="M 6254.65,5954.54 L 6266.65,5947.61 L 6266.65,6242.54 L 6254.65,6235.61 L 6254.65,5954.54 Z "/>
<path stroke="none" transform="matrix(0.1 0 0 0.1 -428.65 -561.9)" d="M 6202.81,5981 L 6214.81,5981 L 6214.81,6209.14 L 6202.81,6209.14 L 6202.81,5981 Z "/>
<path stroke="none" transform="matrix(0.1 0 0 0.1 -428.65 -561.9)" d="M 6011.25,5814 L 6011.25,5800.14 L 6266.65,5947.61 L 6254.65,5954.54 L 6011.25,5814 Z "/>
<path stroke="none" transform="matrix(0.1 0 0 0.1 -428.65 -561.9)" d="M 5767.85,5954.54 L 5761.85,5951.07 L 5761.85,5944.14 L 6011.25,5800.14 L 6011.25,5814 L 5767.85,5954.54 Z "/>
<path stroke="none" transform="matrix(0.1 0 0 0.1 -428.65 -561.9)" d="M 5816.69,5986.2 L 5810.69,5975.8 L 6008.25,5861.73 L 6014.25,5872.13 L 5816.69,5986.2 Z "/>
<path stroke="none" transform="matrix(0.1 0 0 0.1 -428.65 -561.9)" d="M 5755.85,5954.54 L 5761.85,5951.07 L 5767.85,5954.54 L 5767.85,6235.61 L 5761.85,6239.07 L 5755.85,6235.61 L 5755.85,5954.54 Z "/>
<path stroke="none" transform="matrix(0.1 0 0 0.1 -428.65 -561.9)" d="M 5512.45,5814 L 5512.45,5800.14 L 5761.85,5944.14 L 5761.85,5951.07 L 5755.85,5954.54 L 5512.45,5814 Z "/>
<path stroke="none" transform="matrix(0.1 0 0 0.1 -428.65 -561.9)" d="M 5269.05,5954.54 L 5263.05,5951.07 L 5263.05,5944.14 L 5512.45,5800.14 L 5512.45,5814 L 5269.05,5954.54 Z "/>
<path stroke="none" transform="matrix(0.1 0 0 0.1 -428.65 -561.9)" d="M 5317.89,5986.2 L 5311.89,5975.8 L 5509.45,5861.73 L 5515.45,5872.13 L 5317.89,5986.2 Z "/>
<path stroke="none" transform="matrix(0.1 0 0 0.1 -428.65 -561.9)" d="M 5257.05,5954.54 L 5263.05,5951.07 L 5269.05,5954.54 L 5269.05,6235.61 L 5263.05,6239.07 L 5257.05,6235.61 L 5257.05,5954.54 Z "/>
<path stroke="none" transform="matrix(0.1 0 0 0.1 -428.65 -561.9)" d="M 5013.65,5814 L 5013.65,5800.14 L 5263.05,5944.14 L 5263.05,5951.07 L 5257.05,5954.54 L 5013.65,5814 Z "/>
<path stroke="none" transform="matrix(0.1 0 0 0.1 -428.65 -561.9)" d="M 5013.65,5800.14 L 5013.65,5814 L 4770.05,5954.54 L 4764.05,5951.07 L 4764.05,5944.14 L 5013.65,5800.14 Z "/>
<path stroke="none" transform="matrix(0.1 0 0 0.1 -428.65 -561.9)" d="M 5010.64,5861.76 L 5016.64,5872.16 L 4818.92,5986.23 L 4812.92,5975.83 L 5010.64,5861.76 Z "/>
<path stroke="none" transform="matrix(0.1 0 0 0.1 -428.65 -561.9)" d="M 4341.5,5809.5 A 144,144 0 1 0 4629.5,5809.5A 144,144 0 1 0 4341.5,5809.5Z " class="connection_in" stroke-width="18px"/>
</g>
</svg>