<svg xmlns="http://www.w3.org/2000/svg" xmlns:xlink="http://www.w3.org/1999/xlink" viewBox="0 0 190.26400000000007 178.18600000000004" style="background-color: #ffffff00" version="1.1">
<g transform="matrix(1 0 0 1 -3.500000000000057 -2.007000000000062)">
<text x="0" y="0" stroke="none" transform="matrix(0.1 0 0 0.1 95.2228 98.95)" font-style="normal" font-weight="bold" font-size="200px" font-family="Arial">
Si</text>
<path stroke="none" transform="matrix(0.1 0 0 0.1 -393.65 -512.9)" d="M 4266.67,5784.6 L 4263.21,5790.6 L 4256.28,5790.6 L 4114.01,5544.2 L 4124.41,5538.2 L 4266.67,5784.6 Z "/>
<path stroke="none" transform="matrix(0.1 0 0 0.1 -393.65 -512.9)" d="M 4126.14,6040 L 4112.28,6040 L 4256.28,5790.6 L 4263.21,5790.6 L 4266.67,5796.6 L 4126.14,6040 Z "/>
<path stroke="none" transform="matrix(0.1 0 0 0.1 -393.65 -512.9)" d="M 4266.67,6283.4 L 4259.75,6295.4 L 4112.28,6040 L 4126.14,6040 L 4266.67,6283.4 Z "/>
<path stroke="none" transform="matrix(0.1 0 0 0.1 -393.65 -512.9)" d="M 4298.33,6234.56 L 4287.94,6240.56 L 4173.87,6043 L 4184.26,6037 L 4298.33,6234.56 Z "/>
<path stroke="none" transform="matrix(0.1 0 0 0.1 -393.65 -512.9)" d="M 4547.75,6283.4 L 4554.67,6295.4 L 4259.75,6295.4 L 4266.67,6283.4 L 4547.75,6283.4 Z "/>
<path stroke="none" transform="matrix(0.1 0 0 0.1 -393.65 -512.9)" d="M 4688.28,6040 L 4695.21,6040 L 4698.67,6046 L 4554.67,6295.4 L 4547.75,6283.4 L 4688.28,6040 Z "/>
<path stroke="none" transform="matrix(0.1 0 0 0.1 -393.65 -512.9)" d="M 4630.16,6037 L 4640.55,6043 L 4526.48,6240.56 L 4516.09,6234.56 L 4630.16,6037 Z "/>
<path stroke="none" transform="matrix(0.1 0 0 0.1 -393.65 -512.9)" d="M 4864.73,6034 L 4864.73,6046 L 4698.67,6046 L 4695.21,6040 L 4698.67,6034 L 4864.73,6034 Z "/>
<path stroke="none" transform="matrix(0.1 0 0 0.1 -393.65 -512.9)" d="M 4989.21,6324.54 L 4983.21,6328 L 4977.21,6324.54 L 4977.21,6148.17 L 4989.21,6148.17 L 4989.21,6324.54 Z "/>
<path stroke="none" transform="matrix(0.1 0 0 0.1 -393.65 -512.9)" d="M 4739.81,6475.46 L 4727.81,6468.54 L 4977.21,6324.54 L 4983.21,6328 L 4983.21,6334.93 L 4739.81,6475.46 Z "/>
<path stroke="none" transform="matrix(0.1 0 0 0.1 -393.65 -512.9)" d="M 4739.81,6756.54 L 4727.81,6763.46 L 4727.81,6468.54 L 4739.81,6475.46 L 4739.81,6756.54 Z "/>
<path stroke="none" transform="matrix(0.1 0 0 0.1 -393.65 -512.9)" d="M 4791.65,6730.07 L 4779.65,6730.07 L 4779.65,6501.93 L 4791.65,6501.93 L 4791.65,6730.07 Z "/>
<path stroke="none" transform="matrix(0.1 0 0 0.1 -393.65 -512.9)" d="M 4983.21,6897.07 L 4983.21,6910.93 L 4727.81,6763.46 L 4739.81,6756.54 L 4983.21,6897.07 Z "/>
<path stroke="none" transform="matrix(0.1 0 0 0.1 -393.65 -512.9)" d="M 5226.61,6756.54 L 5238.61,6763.46 L 4983.21,6910.93 L 4983.21,6897.07 L 5226.61,6756.54 Z "/>
<path stroke="none" transform="matrix(0.1 0 0 0.1 -393.65 -512.9)" d="M 5177.77,6724.88 L 5183.77,6735.27 L 4986.21,6849.34 L 4980.21,6838.95 L 5177.77,6724.88 Z "/>
<path stroke="none" transform="matrix(0.1 0 0 0.1 -393.65 -512.9)" d="M 5226.61,6475.46 L 5238.61,6468.54 L 5238.61,6763.46 L 5226.61,6756.54 L 5226.61,6475.46 Z "/>
<path stroke="none" transform="matrix(0.1 0 0 0.1 -393.65 -512.9)" d="M 5238.61,6468.54 L 5226.61,6475.46 L 4983.21,6334.93 L 4983.21,6328 L 4989.21,6324.54 L 5238.61,6468.54 Z "/>
<path stroke="none" transform="matrix(0.1 0 0 0.1 -393.65 -512.9)" d="M 5183.77,6496.73 L 5177.77,6507.12 L 4980.21,6393.05 L 4986.21,6382.66 L 5183.77,6496.73 Z "/>
<path stroke="none" transform="matrix(0.1 0 0 0.1 -393.65 -512.9)" d="M 4977.21,5755.46 L 4983.21,5752 L 4989.21,5755.46 L 4989.21,5937.17 L 4977.21,5937.17 L 4977.21,5755.46 Z "/>
<path stroke="none" transform="matrix(0.1 0 0 0.1 -393.65 -512.9)" d="M 5226.61,5604.54 L 5238.61,5611.46 L 4989.21,5755.46 L 4983.21,5752 L 4983.21,5745.07 L 5226.61,5604.54 Z "/>
<path stroke="none" transform="matrix(0.1 0 0 0.1 -393.65 -512.9)" d="M 5226.61,5323.46 L 5238.61,5316.54 L 5238.61,5611.46 L 5226.61,5604.54 L 5226.61,5323.46 Z "/>
<path stroke="none" transform="matrix(0.1 0 0 0.1 -393.65 -512.9)" d="M 5174.77,5349.93 L 5186.77,5349.93 L 5186.77,5578.07 L 5174.77,5578.07 L 5174.77,5349.93 Z "/>
<path stroke="none" transform="matrix(0.1 0 0 0.1 -393.65 -512.9)" d="M 4983.21,5182.93 L 4983.21,5169.07 L 5238.61,5316.54 L 5226.61,5323.46 L 4983.21,5182.93 Z "/>
<path stroke="none" transform="matrix(0.1 0 0 0.1 -393.65 -512.9)" d="M 4739.81,5323.46 L 4727.81,5316.54 L 4983.21,5169.07 L 4983.21,5182.93 L 4739.81,5323.46 Z "/>
<path stroke="none" transform="matrix(0.1 0 0 0.1 -393.65 -512.9)" d="M 4788.65,5355.12 L 4782.65,5344.73 L 4980.21,5230.66 L 4986.21,5241.05 L 4788.65,5355.12 Z "/>
<path stroke="none" transform="matrix(0.1 0 0 0.1 -393.65 -512.9)" d="M 4739.81,5604.54 L 4727.81,5611.46 L 4727.81,5316.54 L 4739.81,5323.46 L 4739.81,5604.54 Z "/>
<path stroke="none" transform="matrix(0.1 0 0 0.1 -393.65 -512.9)" d="M 4727.81,5611.46 L 4739.81,5604.54 L 4983.21,5745.07 L 4983.21,5752 L 4977.21,5755.46 L 4727.81,5611.46 Z "/>
<path stroke="none" transform="matrix(0.1 0 0 0.1 -393.65 -512.9)" d="M 4782.65,5583.27 L 4788.65,5572.88 L 4986.21,5686.95 L 4980.21,5697.34 L 4782.65,5583.27 Z "/>
<path stroke="none" transform="matrix(0.1 0 0 0.1 -393.65 -512.9)" d="M 5267.75,6034 L 5271.21,6040 L 5267.75,6046 L 5095.73,6046 L 5095.73,6034 L 5267.75,6034 Z "/>
<path stroke="none" transform="matrix(0.1 0 0 0.1 -393.65 -512.9)" d="M 5418.67,6283.4 L 5411.75,6295.4 L 5267.75,6046 L 5271.21,6040 L 5278.14,6040 L 5418.67,6283.4 Z "/>
<path stroke="none" transform="matrix(0.1 0 0 0.1 -393.65 -512.9)" d="M 5699.75,6283.4 L 5706.67,6295.4 L 5411.75,6295.4 L 5418.67,6283.4 L 5699.75,6283.4 Z "/>
<path stroke="none" transform="matrix(0.1 0 0 0.1 -393.65 -512.9)" d="M 5673.28,6231.56 L 5673.28,6243.56 L 5445.14,6243.56 L 5445.14,6231.56 L 5673.28,6231.56 Z "/>
<path stroke="none" transform="matrix(0.1 0 0 0.1 -393.65 -512.9)" d="M 5840.28,6040 L 5854.14,6040 L 5706.67,6295.4 L 5699.75,6283.4 L 5840.28,6040 Z "/>
<path stroke="none" transform="matrix(0.1 0 0 0.1 -393.65 -512.9)" d="M 5699.75,5796.6 L 5706.67,5784.6 L 5854.14,6040 L 5840.28,6040 L 5699.75,5796.6 Z "/>
<path stroke="none" transform="matrix(0.1 0 0 0.1 -393.65 -512.9)" d="M 5668.09,5845.44 L 5678.48,5839.44 L 5792.55,6037 L 5782.16,6043 L 5668.09,5845.44 Z "/>
<path stroke="none" transform="matrix(0.1 0 0 0.1 -393.65 -512.9)" d="M 5418.67,5796.6 L 5411.75,5784.6 L 5706.67,5784.6 L 5699.75,5796.6 L 5418.67,5796.6 Z "/>
<path stroke="none" transform="matrix(0.1 0 0 0.1 -393.65 -512.9)" d="M 5411.75,5784.6 L 5418.67,5796.6 L 5278.14,6040 L 5271.21,6040 L 5267.75,6034 L 5411.75,5784.6 Z "/>
<path stroke="none" transform="matrix(0.1 0 0 0.1 -393.65 -512.9)" d="M 5439.94,5839.44 L 5450.33,5845.44 L 5336.26,6043 L 5325.87,6037 L 5439.94,5839.44 Z "/>
<path stroke="none" transform="matrix(0.1 0 0 0.1 -393.65 -512.9)" d="M 4547.75,5796.6 L 4554.67,5784.6 L 4698.67,6034 L 4695.21,6040 L 4688.28,6040 L 4547.75,5796.6 Z "/>
<path stroke="none" transform="matrix(0.1 0 0 0.1 -393.65 -512.9)" d="M 4554.67,5784.6 L 4547.75,5796.6 L 4266.67,5796.6 L 4263.21,5790.6 L 4266.67,5784.6 L 4554.67,5784.6 Z "/>
<path stroke="none" transform="matrix(0.1 0 0 0.1 -393.65 -512.9)" d="M 4521.28,5836.44 L 4521.28,5848.44 L 4293.14,5848.44 L 4293.14,5836.44 L 4521.28,5836.44 Z "/>
<path stroke="none" transform="matrix(0.1 0 0 0.1 -393.65 -512.9)" d="M 3991.5,5529.5 A 144,144 0 1 0 4279.5,5529.5A 144,144 0 1 0 3991.5,5529.5Z " class="connection_in" stroke-width="18px"/>
</g>
</svg>