<svg xmlns="http://www.w3.org/2000/svg" xmlns:xlink="http://www.w3.org/1999/xlink" viewBox="0 0 155.50799999999995 89.4499999999999" style="background-color: #ffffff00" version="1.1">
<g transform="matrix(1 0 0 1 -3.500000000000057 -2.650000000000091)">
<text x="0" y="0" stroke="none" transform="matrix(0.1 0 0 0.1 113.121 85.8)" font-style="normal" font-weight="bold" font-size="200px" font-family="Arial">
NH</text>
<text x="0" y="0" stroke="none" transform="matrix(0.1 0 0 0.1 142.008 90.1)" font-style="normal" font-weight="bold" font-size="150px" font-family="Arial">
2</text>
<text x="0" y="0" stroke="none" transform="matrix(0.1 0 0 0.1 38.301 71.4)" font-style="normal" font-weight="bold" font-size="200px" font-family="Arial">
N</text>
<text x="0" y="0" stroke="none" transform="matrix(0.1 0 0 0.1 113.121 28.2)" font-style="normal" font-weight="bold" font-size="200px" font-family="Arial">
NH</text>
<text x="0" y="0" stroke="none" transform="matrix(0.1 0 0 0.1 142.008 32.5)" font-style="normal" font-weight="bold" font-size="150px" font-family="Arial">
2</text>
<path stroke="none" transform="matrix(0.1 0 0 0.1 -453.65 -554.9)" d="M 5490.53,6191.43 L 5490.53,6184.5 L 5496.53,6181.04 L 5642.71,6265.44 L 5636.71,6275.83 L 5490.53,6191.43 Z "/>
<path stroke="none" transform="matrix(0.1 0 0 0.1 -453.65 -554.9)" d="M 5241.13,6335.43 L 5241.13,6321.57 L 5484.53,6181.04 L 5490.53,6184.5 L 5490.53,6191.43 L 5241.13,6335.43 Z "/>
<path stroke="none" transform="matrix(0.1 0 0 0.1 -453.65 -554.9)" d="M 5090.17,6248.27 L 5096.17,6237.88 L 5241.13,6321.57 L 5241.13,6335.43 L 5090.17,6248.27 Z "/>
<path stroke="none" transform="matrix(0.1 0 0 0.1 -453.65 -554.9)" d="M 5116.09,6203.38 L 5122.09,6192.99 L 5244.13,6263.45 L 5238.13,6273.84 L 5116.09,6203.38 Z "/>
<path stroke="none" transform="matrix(0.1 0 0 0.1 -453.65 -554.9)" d="M 4985.73,5899.96 L 4991.73,5896.5 L 4997.73,5899.96 L 4997.73,6084.17 L 4985.73,6084.17 L 4985.73,5899.96 Z "/>
<path stroke="none" transform="matrix(0.1 0 0 0.1 -453.65 -554.9)" d="M 4739.33,5757.7 L 4745.33,5747.3 L 4991.73,5889.57 L 4991.73,5896.5 L 4985.73,5899.96 L 4739.33,5757.7 Z "/>
<path stroke="none" transform="matrix(0.1 0 0 0.1 -453.65 -554.9)" d="M 5241.13,5745.57 L 5241.13,5759.43 L 4997.73,5899.96 L 4991.73,5896.5 L 4991.73,5889.57 L 5241.13,5745.57 Z "/>
<path stroke="none" transform="matrix(0.1 0 0 0.1 -453.65 -554.9)" d="M 5238.13,5807.16 L 5244.13,5817.55 L 5046.56,5931.62 L 5040.56,5921.23 L 5238.13,5807.16 Z "/>
<path stroke="none" transform="matrix(0.1 0 0 0.1 -453.65 -554.9)" d="M 5490.53,5889.57 L 5490.53,5896.5 L 5484.53,5899.96 L 5241.13,5759.43 L 5241.13,5745.57 L 5490.53,5889.57 Z "/>
<path stroke="none" transform="matrix(0.1 0 0 0.1 -453.65 -554.9)" d="M 5484.53,5899.96 L 5490.53,5896.5 L 5496.53,5899.96 L 5496.53,6181.04 L 5490.53,6184.5 L 5484.53,6181.04 L 5484.53,5899.96 Z "/>
<path stroke="none" transform="matrix(0.1 0 0 0.1 -453.65 -554.9)" d="M 5432.69,5926.43 L 5444.69,5926.43 L 5444.69,6154.57 L 5432.69,6154.57 L 5432.69,5926.43 Z "/>
<path stroke="none" transform="matrix(0.1 0 0 0.1 -453.65 -554.9)" d="M 5634.4,5806.5 L 5640.4,5816.89 L 5496.53,5899.96 L 5490.53,5896.5 L 5490.53,5889.57 L 5634.4,5806.5 Z "/>
<path stroke="none" transform="matrix(0.1 0 0 0.1 -453.65 -554.9)" d="M 4591.5,5739.5 A 144,144 0 1 0 4879.5,5739.5A 144,144 0 1 0 4591.5,5739.5Z " class="connection_in" stroke-width="18px"/>
</g>
</svg>