<svg xmlns="http://www.w3.org/2000/svg" xmlns:xlink="http://www.w3.org/1999/xlink" viewBox="0 0 220.43699999999995 136.813" style="background-color: #ffffff00" version="1.1">
<g transform="matrix(1 0 0 1 -3.500000000000057 -2.650000000000091)">
<text x="0" y="0" stroke="none" transform="matrix(0.1 0 0 0.1 189.476 130.22)" font-style="normal" font-weight="bold" font-size="200px" font-family="Arial">
N</text>
<text x="0" y="0" stroke="none" transform="matrix(0.1 0 0 0.1 139.596 101.42)" font-style="normal" font-weight="bold" font-size="200px" font-family="Arial">
N</text>
<text x="0" y="0" stroke="none" transform="matrix(0.1 0 0 0.1 115.208 87.0203)" font-style="normal" font-weight="bold" font-size="200px" font-family="Arial">
S</text>
<text x="0" y="0" stroke="none" transform="matrix(0.1 0 0 0.1 99.6992 111.96)" font-style="normal" font-weight="bold" font-size="200px" font-family="Arial">
O</text>
<text x="0" y="0" stroke="none" transform="matrix(0.1 0 0 0.1 128.499 62.0603)" font-style="normal" font-weight="bold" font-size="200px" font-family="Arial">
O</text>
<path stroke="none" transform="matrix(0.1 0 0 0.1 -364.65 -521.9)" d="M 5711.92,6506.47 L 5717.92,6496.08 L 5865.87,6581.51 L 5859.87,6591.9 L 5711.92,6506.47 Z "/>
<path stroke="none" transform="matrix(0.1 0 0 0.1 -364.65 -521.9)" d="M 5607.47,6158.17 L 5619.47,6151.24 L 5619.47,6342.37 L 5607.47,6342.37 L 5607.47,6158.17 Z "/>
<path stroke="none" transform="matrix(0.1 0 0 0.1 -364.65 -521.9)" d="M 5364.07,6017.63 L 5364.07,6003.77 L 5619.47,6151.24 L 5607.47,6158.17 L 5364.07,6017.63 Z "/>
<path stroke="none" transform="matrix(0.1 0 0 0.1 -364.65 -521.9)" d="M 5216.81,6102.66 L 5210.81,6092.27 L 5364.07,6003.77 L 5364.07,6017.63 L 5216.81,6102.66 Z "/>
<path stroke="none" transform="matrix(0.1 0 0 0.1 -364.65 -521.9)" d="M 4951.6,6067.47 L 4957.6,6057.08 L 5017.46,6091.64 L 5011.46,6102.04 L 4951.6,6067.47 Z "/>
<path stroke="none" transform="matrix(0.1 0 0 0.1 -364.65 -521.9)" d="M 4801,6185.86 L 4790.61,6179.86 L 4827.71,6115.59 L 4838.11,6121.59 L 4801,6185.86 Z "/>
<path stroke="none" transform="matrix(0.1 0 0 0.1 -364.65 -521.9)" d="M 4756.11,6159.94 L 4745.71,6153.94 L 4782.82,6089.67 L 4793.21,6095.67 L 4756.11,6159.94 Z "/>
<path stroke="none" transform="matrix(0.1 0 0 0.1 -364.65 -521.9)" d="M 4927.05,5839.73 L 4937.44,5845.72 L 4899.51,5911.47 L 4889.12,5905.47 L 4927.05,5839.73 Z "/>
<path stroke="none" transform="matrix(0.1 0 0 0.1 -364.65 -521.9)" d="M 4971.98,5865.65 L 4982.37,5871.64 L 4944.44,5937.39 L 4934.05,5931.39 L 4971.98,5865.65 Z "/>
<path stroke="none" transform="matrix(0.1 0 0 0.1 -364.65 -521.9)" d="M 4615.87,5873.63 L 4615.87,5866.7 L 4621.87,5863.24 L 4782.34,5955.89 L 4776.34,5966.28 L 4615.87,5873.63 Z "/>
<path stroke="none" transform="matrix(0.1 0 0 0.1 -364.65 -521.9)" d="M 4609.87,5582.17 L 4621.87,5575.24 L 4621.87,5863.24 L 4615.87,5866.7 L 4609.87,5863.24 L 4609.87,5582.17 Z "/>
<path stroke="none" transform="matrix(0.1 0 0 0.1 -364.65 -521.9)" d="M 4366.28,5441.63 L 4366.27,5427.77 L 4621.87,5575.24 L 4609.87,5582.17 L 4366.28,5441.63 Z "/>
<path stroke="none" transform="matrix(0.1 0 0 0.1 -364.65 -521.9)" d="M 4363.29,5499.79 L 4369.28,5489.39 L 4567,5603.46 L 4561.01,5613.86 L 4363.29,5499.79 Z "/>
<path stroke="none" transform="matrix(0.1 0 0 0.1 -364.65 -521.9)" d="M 4122.87,5582.17 L 4116.87,5578.7 L 4116.87,5571.77 L 4366.27,5427.77 L 4366.28,5441.63 L 4122.87,5582.17 Z "/>
<path stroke="none" transform="matrix(0.1 0 0 0.1 -364.65 -521.9)" d="M 3864.47,5439.9 L 3870.47,5429.51 L 4116.87,5571.77 L 4116.87,5578.7 L 4110.87,5582.17 L 3864.47,5439.9 Z "/>
<path stroke="none" transform="matrix(0.1 0 0 0.1 -364.65 -521.9)" d="M 4122.87,5863.24 L 4110.87,5870.17 L 4110.87,5582.17 L 4116.87,5578.7 L 4122.87,5582.17 L 4122.87,5863.24 Z "/>
<path stroke="none" transform="matrix(0.1 0 0 0.1 -364.65 -521.9)" d="M 4174.71,5836.77 L 4162.71,5836.77 L 4162.71,5608.63 L 4174.71,5608.63 L 4174.71,5836.77 Z "/>
<path stroke="none" transform="matrix(0.1 0 0 0.1 -364.65 -521.9)" d="M 4366.28,6003.78 L 4366.27,6017.63 L 4110.87,5870.17 L 4122.87,5863.24 L 4366.28,6003.78 Z "/>
<path stroke="none" transform="matrix(0.1 0 0 0.1 -364.65 -521.9)" d="M 4366.27,6017.63 L 4366.28,6003.78 L 4609.87,5863.24 L 4615.87,5866.7 L 4615.87,5873.63 L 4366.27,6017.63 Z "/>
<path stroke="none" transform="matrix(0.1 0 0 0.1 -364.65 -521.9)" d="M 4369.28,5956.01 L 4363.29,5945.62 L 4561.01,5831.55 L 4567,5841.94 L 4369.28,5956.01 Z "/>
<path stroke="none" transform="matrix(0.1 0 0 0.1 -364.65 -521.9)" d="M 5120.67,6439.24 L 5108.67,6446.17 L 5108.67,6260.37 L 5120.67,6260.37 L 5120.67,6439.24 Z "/>
<path stroke="none" transform="matrix(0.1 0 0 0.1 -364.65 -521.9)" d="M 5364.07,6579.77 L 5364.07,6593.63 L 5108.67,6446.17 L 5120.67,6439.24 L 5364.07,6579.77 Z "/>
<path stroke="none" transform="matrix(0.1 0 0 0.1 -364.65 -521.9)" d="M 5364.07,6593.63 L 5364.07,6579.77 L 5507.95,6496.7 L 5513.95,6507.09 L 5364.07,6593.63 Z "/>
<path stroke="none" transform="matrix(0.1 0 0 0.1 -364.65 -521.9)" d="M 3701.5,5409.5 A 144,144 0 1 0 3989.5,5409.5A 144,144 0 1 0 3701.5,5409.5Z " class="connection_in" stroke-width="18px"/>
</g>
</svg>