<svg xmlns="http://www.w3.org/2000/svg" xmlns:xlink="http://www.w3.org/1999/xlink" viewBox="0 0 155.17299999999994 87.4499999999999" style="background-color: #ffffff00" version="1.1">
<g transform="matrix(1 0 0 1 -3.500000000000057 -2.650000000000091)">
<text x="0" y="0" stroke="none" transform="matrix(0.1 0 0 0.1 62.906 83.8)" font-style="normal" font-weight="bold" font-size="200px" font-family="Arial">
N</text>
<text x="0" y="0" stroke="none" transform="matrix(0.1 0 0 0.1 112.786 83.8)" font-style="normal" font-weight="bold" font-size="200px" font-family="Arial">
NH</text>
<text x="0" y="0" stroke="none" transform="matrix(0.1 0 0 0.1 141.673 88.1)" font-style="normal" font-weight="bold" font-size="150px" font-family="Arial">
2</text>
<text x="0" y="0" stroke="none" transform="matrix(0.1 0 0 0.1 87.846 40.6)" font-style="normal" font-weight="bold" font-size="200px" font-family="Arial">
N</text>
<path stroke="none" transform="matrix(0.1 0 0 0.1 -453.65 -556.9)" d="M 4982.38,6181.04 L 4988.38,6184.5 L 4988.38,6191.43 L 4741.98,6333.7 L 4735.98,6323.3 L 4982.38,6181.04 Z "/>
<path stroke="none" transform="matrix(0.1 0 0 0.1 -453.65 -556.9)" d="M 5140.56,6265.44 L 5134.56,6275.83 L 4988.38,6191.43 L 4988.38,6184.5 L 4994.38,6181.04 L 5140.56,6265.44 Z "/>
<path stroke="none" transform="matrix(0.1 0 0 0.1 -453.65 -556.9)" d="M 5166.48,6220.55 L 5160.48,6230.94 L 5037.21,6159.77 L 5043.22,6149.38 L 5166.48,6220.55 Z "/>
<path stroke="none" transform="matrix(0.1 0 0 0.1 -453.65 -556.9)" d="M 5481.18,6181.04 L 5487.18,6184.5 L 5487.18,6191.43 L 5339.92,6276.45 L 5333.92,6266.06 L 5481.18,6181.04 Z "/>
<path stroke="none" transform="matrix(0.1 0 0 0.1 -453.65 -556.9)" d="M 5639.36,6265.44 L 5633.36,6275.83 L 5487.18,6191.43 L 5487.18,6184.5 L 5493.18,6181.04 L 5639.36,6265.44 Z "/>
<path stroke="none" transform="matrix(0.1 0 0 0.1 -453.65 -556.9)" d="M 5481.18,6002.17 L 5493.18,6002.17 L 5493.18,6181.04 L 5487.18,6184.5 L 5481.18,6181.04 L 5481.18,6002.17 Z "/>
<path stroke="none" transform="matrix(0.1 0 0 0.1 -453.65 -556.9)" d="M 5429.34,6002.17 L 5441.34,6002.17 L 5441.34,6154.57 L 5429.34,6154.57 L 5429.34,6002.17 Z "/>
<path stroke="none" transform="matrix(0.1 0 0 0.1 -453.65 -556.9)" d="M 5237.78,5759.43 L 5237.78,5745.57 L 5389.96,5833.44 L 5383.96,5843.83 L 5237.78,5759.43 Z "/>
<path stroke="none" transform="matrix(0.1 0 0 0.1 -453.65 -556.9)" d="M 4994.38,5899.96 L 4988.38,5896.5 L 4988.38,5889.57 L 5237.78,5745.57 L 5237.78,5759.43 L 4994.38,5899.96 Z "/>
<path stroke="none" transform="matrix(0.1 0 0 0.1 -453.65 -556.9)" d="M 5043.22,5931.62 L 5037.21,5921.23 L 5234.78,5807.16 L 5240.78,5817.55 L 5043.22,5931.62 Z "/>
<path stroke="none" transform="matrix(0.1 0 0 0.1 -453.65 -556.9)" d="M 4982.38,5899.96 L 4988.38,5896.5 L 4994.38,5899.96 L 4994.38,6181.04 L 4988.38,6184.5 L 4982.38,6181.04 L 4982.38,5899.96 Z "/>
<path stroke="none" transform="matrix(0.1 0 0 0.1 -453.65 -556.9)" d="M 4735.98,5757.7 L 4741.98,5747.3 L 4988.38,5889.57 L 4988.38,5896.5 L 4982.38,5899.96 L 4735.98,5757.7 Z "/>
<path stroke="none" transform="matrix(0.1 0 0 0.1 -453.65 -556.9)" d="M 4591.5,5759.5 A 144,144 0 1 0 4879.5,5759.5A 144,144 0 1 0 4591.5,5759.5Z " class="connection_in" stroke-width="18px"/>
</g>
</svg>