<svg xmlns="http://www.w3.org/2000/svg" xmlns:xlink="http://www.w3.org/1999/xlink" viewBox="0 0 183.34199999999996 84.24999999999991" style="background-color: #ffffff00" version="1.1">
<g transform="matrix(1 0 0 1 -3.500000000000057 -2.650000000000091)">
<text x="0" y="0" stroke="none" transform="matrix(0.1 0 0 0.1 114.962 27.3)" font-style="normal" font-weight="bold" font-size="200px" font-family="Arial">
F</text>
<text x="0" y="0" stroke="none" transform="matrix(0.1 0 0 0.1 113.292 84.9)" font-style="normal" font-weight="bold" font-size="200px" font-family="Arial">
O</text>
<text x="0" y="0" stroke="none" transform="matrix(0.1 0 0 0.1 164.842 56.1)" font-style="normal" font-weight="bold" font-size="200px" font-family="Arial">
F</text>
<text x="0" y="0" stroke="none" transform="matrix(0.1 0 0 0.1 139.902 41.7)" font-style="normal" font-weight="bold" font-size="200px" font-family="Arial">
F</text>
<text x="0" y="0" stroke="none" transform="matrix(0.1 0 0 0.1 164.842 84.9)" font-style="normal" font-weight="bold" font-size="200px" font-family="Arial">
F</text>
<path stroke="none" transform="matrix(0.1 0 0 0.1 -439.65 -557.9)" d="M 5363.8,5920.96 L 5357.8,5917.5 L 5357.8,5910.57 L 5511.76,5821.68 L 5517.76,5832.07 L 5363.8,5920.96 Z "/>
<path stroke="none" transform="matrix(0.1 0 0 0.1 -439.65 -557.9)" d="M 5108.4,5780.43 L 5108.4,5766.57 L 5357.8,5910.57 L 5357.8,5917.5 L 5351.8,5920.96 L 5108.4,5780.43 Z "/>
<path stroke="none" transform="matrix(0.1 0 0 0.1 -439.65 -557.9)" d="M 4865,5920.96 L 4859,5917.5 L 4859,5910.57 L 5108.4,5766.57 L 5108.4,5780.43 L 4865,5920.96 Z "/>
<path stroke="none" transform="matrix(0.1 0 0 0.1 -439.65 -557.9)" d="M 4913.84,5952.62 L 4907.84,5942.23 L 5105.4,5828.16 L 5111.4,5838.55 L 4913.84,5952.62 Z "/>
<path stroke="none" transform="matrix(0.1 0 0 0.1 -439.65 -557.9)" d="M 4606.6,5778.7 L 4612.6,5768.3 L 4859,5910.57 L 4859,5917.5 L 4853,5920.96 L 4606.6,5778.7 Z "/>
<path stroke="none" transform="matrix(0.1 0 0 0.1 -439.65 -557.9)" d="M 4865,6202.04 L 4853,6208.96 L 4853,5920.96 L 4859,5917.5 L 4865,5920.96 L 4865,6202.04 Z "/>
<path stroke="none" transform="matrix(0.1 0 0 0.1 -439.65 -557.9)" d="M 5108.4,6342.57 L 5108.4,6356.43 L 4853,6208.96 L 4865,6202.04 L 5108.4,6342.57 Z "/>
<path stroke="none" transform="matrix(0.1 0 0 0.1 -439.65 -557.9)" d="M 5111.4,6284.45 L 5105.4,6294.84 L 4907.84,6180.77 L 4913.84,6170.38 L 5111.4,6284.45 Z "/>
<path stroke="none" transform="matrix(0.1 0 0 0.1 -439.65 -557.9)" d="M 5351.8,6202.04 L 5357.8,6205.5 L 5357.8,6212.43 L 5108.4,6356.43 L 5108.4,6342.57 L 5351.8,6202.04 Z "/>
<path stroke="none" transform="matrix(0.1 0 0 0.1 -439.65 -557.9)" d="M 5363.8,6202.04 L 5357.8,6205.5 L 5351.8,6202.04 L 5351.8,5920.96 L 5357.8,5917.5 L 5363.8,5920.96 L 5363.8,6202.04 Z "/>
<path stroke="none" transform="matrix(0.1 0 0 0.1 -439.65 -557.9)" d="M 5311.96,6175.57 L 5299.96,6175.57 L 5299.96,5947.43 L 5311.96,5947.43 L 5311.96,6175.57 Z "/>
<path stroke="none" transform="matrix(0.1 0 0 0.1 -439.65 -557.9)" d="M 5521.15,6292.89 L 5515.15,6303.28 L 5357.8,6212.43 L 5357.8,6205.5 L 5363.8,6202.04 L 5521.15,6292.89 Z "/>
<path stroke="none" transform="matrix(0.1 0 0 0.1 -439.65 -557.9)" d="M 5850.6,6202.04 L 5856.6,6205.5 L 5856.6,6212.43 L 5699.69,6303.03 L 5693.69,6292.63 L 5850.6,6202.04 Z "/>
<path stroke="none" transform="matrix(0.1 0 0 0.1 -439.65 -557.9)" d="M 6010.56,6109.68 L 6016.56,6120.07 L 5868.6,6205.5 L 5856.6,6205.5 L 5862.6,6195.11 L 6010.56,6109.68 Z "/>
<path stroke="none" transform="matrix(0.1 0 0 0.1 -439.65 -557.9)" d="M 5850.6,6023.17 L 5862.6,6023.17 L 5862.6,6195.11 L 5856.6,6205.5 L 5850.6,6202.04 L 5850.6,6023.17 Z "/>
<path stroke="none" transform="matrix(0.1 0 0 0.1 -439.65 -557.9)" d="M 6017.14,6291.26 L 6011.14,6301.65 L 5856.6,6212.43 L 5856.6,6205.5 L 5868.6,6205.5 L 6017.14,6291.26 Z "/>
<path stroke="none" transform="matrix(0.1 0 0 0.1 -439.65 -557.9)" d="M 4451.5,5769.5 A 144,144 0 1 0 4739.5,5769.5A 144,144 0 1 0 4451.5,5769.5Z " class="connection_in" stroke-width="18px"/>
</g>
</svg>