<svg xmlns="http://www.w3.org/2000/svg" xmlns:xlink="http://www.w3.org/1999/xlink" viewBox="0 0 220.41000000000003 142.44320000000005" style="background-color: #ffffff00" version="1.1">
<g transform="matrix(1 0 0 1 -3.500000000000057 -3.2238000000000007)">
<text x="0" y="0" stroke="none" transform="matrix(0.1 0 0 0.1 63.8917 21.2238)" font-style="normal" font-weight="bold" font-size="200px" font-family="Arial">
OH</text>
<text x="0" y="0" stroke="none" transform="matrix(0.1 0 0 0.1 113.772 107.624)" font-style="normal" font-weight="bold" font-size="200px" font-family="Arial">
O</text>
<text x="0" y="0" stroke="none" transform="matrix(0.1 0 0 0.1 115.442 50.0238)" font-style="normal" font-weight="bold" font-size="200px" font-family="Arial">
F</text>
<path stroke="none" transform="matrix(0.1 0 0 0.1 -416.65 -531.9)" d="M 4889.2,5737.27 L 4883.2,5740.74 L 4877.2,5737.27 L 4877.2,5560.9 L 4889.2,5560.9 L 4889.2,5737.27 Z "/>
<path stroke="none" transform="matrix(0.1 0 0 0.1 -416.65 -531.9)" d="M 4639.8,5888.2 L 4633.8,5884.74 L 4633.8,5877.81 L 4877.2,5737.27 L 4883.2,5740.74 L 4883.2,5747.67 L 4639.8,5888.2 Z "/>
<path stroke="none" transform="matrix(0.1 0 0 0.1 -416.65 -531.9)" d="M 4381.4,5745.93 L 4387.4,5735.54 L 4633.8,5877.81 L 4633.8,5884.74 L 4627.8,5888.2 L 4381.4,5745.93 Z "/>
<path stroke="none" transform="matrix(0.1 0 0 0.1 -416.65 -531.9)" d="M 4639.8,6169.27 L 4627.8,6176.2 L 4627.8,5888.2 L 4633.8,5884.74 L 4639.8,5888.2 L 4639.8,6169.27 Z "/>
<path stroke="none" transform="matrix(0.1 0 0 0.1 -416.65 -531.9)" d="M 4691.64,6142.81 L 4679.64,6142.81 L 4679.64,5914.67 L 4691.64,5914.67 L 4691.64,6142.81 Z "/>
<path stroke="none" transform="matrix(0.1 0 0 0.1 -416.65 -531.9)" d="M 4883.2,6309.81 L 4883.2,6323.67 L 4627.8,6176.2 L 4639.8,6169.27 L 4883.2,6309.81 Z "/>
<path stroke="none" transform="matrix(0.1 0 0 0.1 -416.65 -531.9)" d="M 5126.6,6169.27 L 5132.6,6172.74 L 5132.6,6179.67 L 4883.2,6323.67 L 4883.2,6309.81 L 5126.6,6169.27 Z "/>
<path stroke="none" transform="matrix(0.1 0 0 0.1 -416.65 -531.9)" d="M 5077.76,6137.61 L 5083.76,6148.01 L 4886.2,6262.08 L 4880.2,6251.68 L 5077.76,6137.61 Z "/>
<path stroke="none" transform="matrix(0.1 0 0 0.1 -416.65 -531.9)" d="M 5295.95,6260.13 L 5289.95,6270.52 L 5132.6,6179.67 L 5132.6,6172.74 L 5138.6,6169.27 L 5295.95,6260.13 Z "/>
<path stroke="none" transform="matrix(0.1 0 0 0.1 -416.65 -531.9)" d="M 5631.4,6165.81 L 5631.4,6179.67 L 5474.49,6270.26 L 5468.49,6259.87 L 5631.4,6165.81 Z "/>
<path stroke="none" transform="matrix(0.1 0 0 0.1 -416.65 -531.9)" d="M 5880.8,6309.81 L 5880.8,6316.74 L 5874.8,6320.2 L 5631.4,6179.67 L 5631.4,6165.81 L 5880.8,6309.81 Z "/>
<path stroke="none" transform="matrix(0.1 0 0 0.1 -416.65 -531.9)" d="M 5886.8,6601.27 L 5874.8,6608.2 L 5874.8,6320.2 L 5880.8,6316.74 L 5886.8,6320.2 L 5886.8,6601.27 Z "/>
<path stroke="none" transform="matrix(0.1 0 0 0.1 -416.65 -531.9)" d="M 6130.2,6741.81 L 6130.2,6755.67 L 5874.8,6608.2 L 5886.8,6601.27 L 6130.2,6741.81 Z "/>
<path stroke="none" transform="matrix(0.1 0 0 0.1 -416.65 -531.9)" d="M 6133.2,6683.68 L 6127.2,6694.08 L 5929.64,6580.01 L 5935.64,6569.61 L 6133.2,6683.68 Z "/>
<path stroke="none" transform="matrix(0.1 0 0 0.1 -416.65 -531.9)" d="M 6373.6,6601.27 L 6385.6,6608.2 L 6130.2,6755.67 L 6130.2,6741.81 L 6373.6,6601.27 Z "/>
<path stroke="none" transform="matrix(0.1 0 0 0.1 -416.65 -531.9)" d="M 6373.6,6320.2 L 6385.6,6313.27 L 6385.6,6608.2 L 6373.6,6601.27 L 6373.6,6320.2 Z "/>
<path stroke="none" transform="matrix(0.1 0 0 0.1 -416.65 -531.9)" d="M 6321.76,6346.67 L 6333.76,6346.67 L 6333.76,6574.81 L 6321.76,6574.81 L 6321.76,6346.67 Z "/>
<path stroke="none" transform="matrix(0.1 0 0 0.1 -416.65 -531.9)" d="M 6130.2,6179.67 L 6130.2,6165.81 L 6385.6,6313.27 L 6373.6,6320.2 L 6130.2,6179.67 Z "/>
<path stroke="none" transform="matrix(0.1 0 0 0.1 -416.65 -531.9)" d="M 6130.2,6165.81 L 6130.2,6179.67 L 5886.8,6320.2 L 5880.8,6316.74 L 5880.8,6309.81 L 6130.2,6165.81 Z "/>
<path stroke="none" transform="matrix(0.1 0 0 0.1 -416.65 -531.9)" d="M 6127.2,6227.4 L 6133.2,6237.79 L 5935.64,6351.86 L 5929.64,6341.47 L 6127.2,6227.4 Z "/>
<path stroke="none" transform="matrix(0.1 0 0 0.1 -416.65 -531.9)" d="M 5126.6,5888.2 L 5132.6,5884.74 L 5138.6,5888.2 L 5138.6,6169.27 L 5132.6,6172.74 L 5126.6,6169.27 L 5126.6,5888.2 Z "/>
<path stroke="none" transform="matrix(0.1 0 0 0.1 -416.65 -531.9)" d="M 5132.6,5877.81 L 5132.6,5884.74 L 5126.6,5888.2 L 4883.2,5747.67 L 4883.2,5740.74 L 4889.2,5737.27 L 5132.6,5877.81 Z "/>
<path stroke="none" transform="matrix(0.1 0 0 0.1 -416.65 -531.9)" d="M 5083.76,5909.47 L 5077.76,5919.86 L 4880.2,5805.79 L 4886.2,5795.4 L 5083.76,5909.47 Z "/>
<path stroke="none" transform="matrix(0.1 0 0 0.1 -416.65 -531.9)" d="M 5286.56,5788.92 L 5292.56,5799.31 L 5138.6,5888.2 L 5132.6,5884.74 L 5132.6,5877.81 L 5286.56,5788.92 Z "/>
<path stroke="none" transform="matrix(0.1 0 0 0.1 -416.65 -531.9)" d="M 4221.5,5709.5 A 144,144 0 1 0 4509.5,5709.5A 144,144 0 1 0 4221.5,5709.5Z " class="connection_in" stroke-width="18px"/>
</g>
</svg>