<svg xmlns="http://www.w3.org/2000/svg" xmlns:xlink="http://www.w3.org/1999/xlink" viewBox="0 0 111.428 206.1869999999999" style="background-color: #ffffff00" version="1.1">
<g transform="matrix(1 0 0 1 -2.9220000000000255 -2.650000000000091)">
<text x="0" y="0" stroke="none" transform="matrix(0.1 0 0 0.1 10.099 202.537)" font-style="normal" font-weight="bold" font-size="200px" font-family="Arial">
NH</text>
<text x="0" y="0" stroke="none" transform="matrix(0.1 0 0 0.1 38.9858 206.837)" font-style="normal" font-weight="bold" font-size="150px" font-family="Arial">
2</text>
<text x="0" y="0" stroke="none" transform="matrix(0.1 0 0 0.1 6.41904 125.544)" font-style="normal" font-weight="bold" font-size="200px" font-family="Arial">
N</text>
<text x="0" y="0" stroke="none" transform="matrix(0.1 0 0 0.1 53.0045 125.533)" font-style="normal" font-weight="bold" font-size="200px" font-family="Arial">
N</text>
<text x="0" y="0" stroke="none" transform="matrix(0.1 0 0 0.1 43.5654 152.921)" font-style="normal" font-weight="bold" font-size="200px" font-family="Arial">
O</text>
<path stroke="none" transform="matrix(0.1 0 0 0.1 -528.65 -563.9)" d="M 5335.72,7321.94 L 5349.5,7323.39 L 5417.35,7475.9 L 5406.39,7480.78 L 5335.72,7321.94 Z "/>
<path stroke="none" transform="matrix(0.1 0 0 0.1 -528.65 -563.9)" d="M 5505.3,7088.68 L 5511.95,7089.73 L 5515.01,7095.73 L 5349.5,7323.39 L 5335.72,7321.94 L 5505.3,7088.68 Z "/>
<path stroke="none" transform="matrix(0.1 0 0 0.1 -528.65 -563.9)" d="M 5454.1,6931.25 L 5465.51,6927.54 L 5516.31,7083.73 L 5511.95,7089.73 L 5505.3,7088.68 L 5454.1,6931.25 Z "/>
<path stroke="none" transform="matrix(0.1 0 0 0.1 -528.65 -563.9)" d="M 5503.38,6915.22 L 5514.79,6911.51 L 5555.3,7036.05 L 5543.89,7039.76 L 5503.38,6915.22 Z "/>
<path stroke="none" transform="matrix(0.1 0 0 0.1 -528.65 -563.9)" d="M 5649.82,6643.43 L 5655.82,6646.49 L 5655.82,6653.91 L 5521.3,6751.78 L 5514.24,6742.07 L 5649.82,6643.43 Z "/>
<path stroke="none" transform="matrix(0.1 0 0 0.1 -528.65 -563.9)" d="M 5649.8,6355.04 L 5661.8,6361.96 L 5661.82,6643.43 L 5655.82,6646.49 L 5649.82,6643.43 L 5649.8,6355.04 Z "/>
<path stroke="none" transform="matrix(0.1 0 0 0.1 -528.65 -563.9)" d="M 5899.2,6211.04 L 5905.2,6214.5 L 5905.2,6221.43 L 5661.8,6361.96 L 5649.8,6355.04 L 5899.2,6211.04 Z "/>
<path stroke="none" transform="matrix(0.1 0 0 0.1 -528.65 -563.9)" d="M 6154.6,6351.57 L 6154.6,6365.43 L 5905.2,6221.43 L 5905.2,6214.5 L 5911.2,6211.04 L 6154.6,6351.57 Z "/>
<path stroke="none" transform="matrix(0.1 0 0 0.1 -528.65 -563.9)" d="M 6398,6211.04 L 6410,6217.96 L 6154.6,6365.43 L 6154.6,6351.57 L 6398,6211.04 Z "/>
<path stroke="none" transform="matrix(0.1 0 0 0.1 -528.65 -563.9)" d="M 6349.16,6179.38 L 6355.16,6189.77 L 6157.6,6303.84 L 6151.6,6293.45 L 6349.16,6179.38 Z "/>
<path stroke="none" transform="matrix(0.1 0 0 0.1 -528.65 -563.9)" d="M 6398,5929.96 L 6410,5923.04 L 6410,6217.96 L 6398,6211.04 L 6398,5929.96 Z "/>
<path stroke="none" transform="matrix(0.1 0 0 0.1 -528.65 -563.9)" d="M 6154.6,5789.43 L 6154.6,5775.57 L 6410,5923.04 L 6398,5929.96 L 6154.6,5789.43 Z "/>
<path stroke="none" transform="matrix(0.1 0 0 0.1 -528.65 -563.9)" d="M 6151.6,5847.55 L 6157.6,5837.16 L 6355.16,5951.23 L 6349.16,5961.62 L 6151.6,5847.55 Z "/>
<path stroke="none" transform="matrix(0.1 0 0 0.1 -528.65 -563.9)" d="M 5911.2,5929.96 L 5905.2,5926.5 L 5905.2,5919.57 L 6154.6,5775.57 L 6154.6,5789.43 L 5911.2,5929.96 Z "/>
<path stroke="none" transform="matrix(0.1 0 0 0.1 -528.65 -563.9)" d="M 5899.2,5929.96 L 5905.2,5926.5 L 5911.2,5929.96 L 5911.2,6211.04 L 5905.2,6214.5 L 5899.2,6211.04 L 5899.2,5929.96 Z "/>
<path stroke="none" transform="matrix(0.1 0 0 0.1 -528.65 -563.9)" d="M 5951.04,5956.43 L 5963.04,5956.43 L 5963.04,6184.57 L 5951.04,6184.57 L 5951.04,5956.43 Z "/>
<path stroke="none" transform="matrix(0.1 0 0 0.1 -528.65 -563.9)" d="M 5652.8,5787.7 L 5658.8,5777.3 L 5905.2,5919.57 L 5905.2,5926.5 L 5899.2,5929.96 L 5652.8,5787.7 Z "/>
<path stroke="none" transform="matrix(0.1 0 0 0.1 -528.65 -563.9)" d="M 5796.47,6741.32 L 5789.42,6751.02 L 5655.82,6653.91 L 5655.82,6646.49 L 5661.82,6643.43 L 5796.47,6741.32 Z "/>
<path stroke="none" transform="matrix(0.1 0 0 0.1 -528.65 -563.9)" d="M 5765.99,6783.25 L 5758.94,6792.95 L 5652.31,6715.44 L 5659.36,6705.73 L 5765.99,6783.25 Z "/>
<path stroke="none" transform="matrix(0.1 0 0 0.1 -528.65 -563.9)" d="M 5837.63,6992.93 L 5826.22,6989.23 L 5846.12,6927.86 L 5857.53,6931.56 L 5837.63,6992.93 Z "/>
<path stroke="none" transform="matrix(0.1 0 0 0.1 -528.65 -563.9)" d="M 5699.15,7083.71 L 5699.16,7095.71 L 5515.01,7095.73 L 5511.95,7089.73 L 5516.31,7083.73 L 5699.15,7083.71 Z "/>
<path stroke="none" transform="matrix(0.1 0 0 0.1 -528.65 -563.9)" d="M 5531.5,5829.5 A 144,144 0 1 0 5819.5,5829.5A 144,144 0 1 0 5531.5,5829.5Z " class="connection_in" stroke-width="18px"/>
</g>
</svg>