<svg xmlns="http://www.w3.org/2000/svg" xmlns:xlink="http://www.w3.org/1999/xlink" viewBox="0 0 174.75306 120.8" style="background-color: #ffffff00" version="1.1">
<g transform="matrix(1 0 0 1 -2.3799400000000004 -3.3000000000000007)">
<text x="0" y="0" stroke="none" transform="matrix(0.1 0 0 0.1 4.37994 122.1)" font-style="normal" font-weight="bold" font-size="200px" font-family="Arial">
N</text>
<text x="0" y="0" stroke="none" transform="matrix(0.1 0 0 0.1 155.133 35.7)" font-style="normal" font-weight="bold" font-size="200px" font-family="Arial">
F</text>
<text x="0" y="0" stroke="none" transform="matrix(0.1 0 0 0.1 130.193 21.3)" font-style="normal" font-weight="bold" font-size="200px" font-family="Arial">
F</text>
<text x="0" y="0" stroke="none" transform="matrix(0.1 0 0 0.1 155.133 64.5)" font-style="normal" font-weight="bold" font-size="200px" font-family="Arial">
F</text>
<path stroke="none" transform="matrix(0.1 0 0 0.1 -443.65 -541.9)" d="M 4773,6367.41 L 4779,6377.8 L 4628.73,6464.56 L 4622.73,6454.17 L 4773,6367.41 Z "/>
<path stroke="none" transform="matrix(0.1 0 0 0.1 -443.65 -541.9)" d="M 4798.92,6412.3 L 4804.92,6422.7 L 4654.65,6509.45 L 4648.65,6499.06 L 4798.92,6412.3 Z "/>
<path stroke="none" transform="matrix(0.1 0 0 0.1 -443.65 -541.9)" d="M 4824.84,6457.2 L 4830.84,6467.59 L 4680.57,6554.35 L 4674.57,6543.95 L 4824.84,6457.2 Z "/>
<path stroke="none" transform="matrix(0.1 0 0 0.1 -443.65 -541.9)" d="M 5045.32,6270.04 L 5051.32,6273.5 L 5051.32,6280.43 L 4804.92,6422.7 L 4798.92,6412.3 L 5045.32,6270.04 Z "/>
<path stroke="none" transform="matrix(0.1 0 0 0.1 -443.65 -541.9)" d="M 5300.72,6410.57 L 5300.72,6424.43 L 5051.32,6280.43 L 5051.32,6273.5 L 5057.32,6270.04 L 5300.72,6410.57 Z "/>
<path stroke="none" transform="matrix(0.1 0 0 0.1 -443.65 -541.9)" d="M 5544.12,6270.04 L 5556.12,6276.96 L 5300.72,6424.43 L 5300.72,6410.57 L 5544.12,6270.04 Z "/>
<path stroke="none" transform="matrix(0.1 0 0 0.1 -443.65 -541.9)" d="M 5495.28,6238.38 L 5501.28,6248.77 L 5303.72,6362.84 L 5297.72,6352.45 L 5495.28,6238.38 Z "/>
<path stroke="none" transform="matrix(0.1 0 0 0.1 -443.65 -541.9)" d="M 5544.12,5988.96 L 5550.12,5985.5 L 5556.12,5988.96 L 5556.12,6276.96 L 5544.12,6270.04 L 5544.12,5988.96 Z "/>
<path stroke="none" transform="matrix(0.1 0 0 0.1 -443.65 -541.9)" d="M 5793.52,5838.04 L 5799.52,5841.5 L 5799.52,5848.43 L 5556.12,5988.96 L 5550.12,5985.5 L 5550.12,5978.57 L 5793.52,5838.04 Z "/>
<path stroke="none" transform="matrix(0.1 0 0 0.1 -443.65 -541.9)" d="M 5953.47,5745.68 L 5959.47,5756.07 L 5811.52,5841.5 L 5799.52,5841.5 L 5805.52,5831.11 L 5953.47,5745.68 Z "/>
<path stroke="none" transform="matrix(0.1 0 0 0.1 -443.65 -541.9)" d="M 5793.52,5659.17 L 5805.52,5659.17 L 5805.52,5831.11 L 5799.52,5841.5 L 5793.52,5838.04 L 5793.52,5659.17 Z "/>
<path stroke="none" transform="matrix(0.1 0 0 0.1 -443.65 -541.9)" d="M 5960.05,5927.26 L 5954.05,5937.65 L 5799.52,5848.43 L 5799.52,5841.5 L 5811.52,5841.5 L 5960.05,5927.26 Z "/>
<path stroke="none" transform="matrix(0.1 0 0 0.1 -443.65 -541.9)" d="M 5300.72,5848.43 L 5300.72,5834.57 L 5550.12,5978.57 L 5550.12,5985.5 L 5544.12,5988.96 L 5300.72,5848.43 Z "/>
<path stroke="none" transform="matrix(0.1 0 0 0.1 -443.65 -541.9)" d="M 5297.72,5906.55 L 5303.72,5896.16 L 5501.28,6010.23 L 5495.28,6020.62 L 5297.72,5906.55 Z "/>
<path stroke="none" transform="matrix(0.1 0 0 0.1 -443.65 -541.9)" d="M 5057.32,5988.96 L 5051.32,5985.5 L 5051.32,5978.57 L 5300.72,5834.57 L 5300.72,5848.43 L 5057.32,5988.96 Z "/>
<path stroke="none" transform="matrix(0.1 0 0 0.1 -443.65 -541.9)" d="M 5045.32,5988.96 L 5051.32,5985.5 L 5057.32,5988.96 L 5057.32,6270.04 L 5051.32,6273.5 L 5045.32,6270.04 L 5045.32,5988.96 Z "/>
<path stroke="none" transform="matrix(0.1 0 0 0.1 -443.65 -541.9)" d="M 5097.16,6015.43 L 5109.16,6015.43 L 5109.16,6243.57 L 5097.16,6243.57 L 5097.16,6015.43 Z "/>
<path stroke="none" transform="matrix(0.1 0 0 0.1 -443.65 -541.9)" d="M 4798.92,5846.7 L 4804.92,5836.3 L 5051.32,5978.57 L 5051.32,5985.5 L 5045.32,5988.96 L 4798.92,5846.7 Z "/>
<path stroke="none" transform="matrix(0.1 0 0 0.1 -443.65 -541.9)" d="M 4661.5,5819.5 A 144,144 0 1 0 4949.5,5819.5A 144,144 0 1 0 4661.5,5819.5Z " class="connection_in" stroke-width="18px"/>
</g>
</svg>