<svg xmlns="http://www.w3.org/2000/svg" xmlns:xlink="http://www.w3.org/1999/xlink" viewBox="0 0 193.82299999999992 191.207" style="background-color: #ffffff00" version="1.1">
<g transform="matrix(1 0 0 1 -3.500000000000057 -2.1760000000000446)">
<text x="0" y="0" stroke="none" transform="matrix(0.1 0 0 0.1 137.363 55.2232)" font-style="normal" font-weight="bold" font-size="200px" font-family="Arial">
O</text>
<text x="0" y="0" stroke="none" transform="matrix(0.1 0 0 0.1 162.305 98.4218)" font-style="normal" font-weight="bold" font-size="200px" font-family="Arial">
O</text>
<text x="0" y="0" stroke="none" transform="matrix(0.1 0 0 0.1 112.979 98.4205)" font-style="normal" font-weight="bold" font-size="200px" font-family="Arial">
N</text>
<text x="0" y="0" stroke="none" transform="matrix(0.1 0 0 0.1 137.365 141.619)" font-style="normal" font-weight="bold" font-size="200px" font-family="Arial">
O</text>
<text x="0" y="0" stroke="none" transform="matrix(0.1 0 0 0.1 87.4828 141.618)" font-style="normal" font-weight="bold" font-size="200px" font-family="Arial">
O</text>
<text x="0" y="0" stroke="none" transform="matrix(0.1 0 0 0.1 88.0371 55.2218)" font-style="normal" font-weight="bold" font-size="200px" font-family="Arial">
N</text>
<text x="0" y="0" stroke="none" transform="matrix(0.1 0 0 0.1 63.0971 98.4192)" font-style="normal" font-weight="bold" font-size="200px" font-family="Arial">
N</text>
<path stroke="none" transform="matrix(0.1 0 0 0.1 -441.65 -532.9)" d="M 6117.32,5665.67 L 6117.32,5658.74 L 6129.32,5658.75 L 6369.73,5797.55 L 6363.73,5807.94 L 6117.32,5665.67 Z "/>
<path stroke="none" transform="matrix(0.1 0 0 0.1 -441.65 -532.9)" d="M 6363.73,5509.56 L 6369.73,5519.95 L 6129.32,5658.75 L 6117.32,5658.74 L 6123.32,5648.35 L 6363.73,5509.56 Z "/>
<path stroke="none" transform="matrix(0.1 0 0 0.1 -441.65 -532.9)" d="M 6111.31,5370.76 L 6123.31,5370.76 L 6123.32,5648.35 L 6117.32,5658.74 L 6111.32,5655.28 L 6111.31,5370.76 Z "/>
<path stroke="none" transform="matrix(0.1 0 0 0.1 -441.65 -532.9)" d="M 5960.4,5756.26 L 5954.4,5745.87 L 6111.32,5655.28 L 6117.32,5658.74 L 6117.32,5665.67 L 5960.4,5756.26 Z "/>
<path stroke="none" transform="matrix(0.1 0 0 0.1 -441.65 -532.9)" d="M 5873.92,6094.18 L 5861.92,6087.25 L 5861.91,5910.9 L 5873.91,5910.9 L 5873.92,6094.18 Z "/>
<path stroke="none" transform="matrix(0.1 0 0 0.1 -441.65 -532.9)" d="M 6044.25,6155.66 L 6038.25,6166.05 L 5864.92,6065.98 L 5870.92,6055.59 L 6044.25,6155.66 Z "/>
<path stroke="none" transform="matrix(0.1 0 0 0.1 -441.65 -532.9)" d="M 6018.33,6200.56 L 6012.33,6210.95 L 5839,6110.88 L 5845,6100.49 L 6018.33,6200.56 Z "/>
<path stroke="none" transform="matrix(0.1 0 0 0.1 -441.65 -532.9)" d="M 5720.65,6182.67 L 5714.65,6172.27 L 5861.92,6087.25 L 5873.92,6094.18 L 5720.65,6182.67 Z "/>
<path stroke="none" transform="matrix(0.1 0 0 0.1 -441.65 -532.9)" d="M 5624.52,6526.16 L 5612.52,6519.23 L 5612.51,6340.37 L 5624.51,6340.37 L 5624.52,6526.16 Z "/>
<path stroke="none" transform="matrix(0.1 0 0 0.1 -441.65 -532.9)" d="M 5794.85,6587.64 L 5788.85,6598.03 L 5615.52,6497.96 L 5621.52,6487.57 L 5794.85,6587.64 Z "/>
<path stroke="none" transform="matrix(0.1 0 0 0.1 -441.65 -532.9)" d="M 5768.93,6632.53 L 5762.93,6642.92 L 5589.6,6542.85 L 5595.6,6532.46 L 5768.93,6632.53 Z "/>
<path stroke="none" transform="matrix(0.1 0 0 0.1 -441.65 -532.9)" d="M 5461.6,6620.21 L 5455.6,6609.82 L 5612.52,6519.23 L 5624.52,6526.16 L 5461.6,6620.21 Z "/>
<path stroke="none" transform="matrix(0.1 0 0 0.1 -441.65 -532.9)" d="M 5375.02,6951.37 L 5369.02,6954.84 L 5363.02,6951.37 L 5363.08,6774.84 L 5375.08,6774.85 L 5375.02,6951.37 Z "/>
<path stroke="none" transform="matrix(0.1 0 0 0.1 -441.65 -532.9)" d="M 5122.61,7104.02 L 5116.61,7093.63 L 5363.02,6951.37 L 5369.02,6954.84 L 5363.02,6965.23 L 5122.61,7104.02 Z "/>
<path stroke="none" transform="matrix(0.1 0 0 0.1 -441.65 -532.9)" d="M 5375.03,7242.82 L 5363.03,7242.83 L 5363.02,6965.23 L 5369.02,6954.84 L 5375.02,6965.23 L 5375.03,7242.82 Z "/>
<path stroke="none" transform="matrix(0.1 0 0 0.1 -441.65 -532.9)" d="M 5621.43,7093.64 L 5615.43,7104.03 L 5375.02,6965.23 L 5369.02,6954.84 L 5375.02,6951.37 L 5621.43,7093.64 Z "/>
<path stroke="none" transform="matrix(0.1 0 0 0.1 -441.65 -532.9)" d="M 5369.1,6097.63 L 5369.1,6090.7 L 5375.1,6087.24 L 5521.3,6171.65 L 5515.3,6182.04 L 5369.1,6097.63 Z "/>
<path stroke="none" transform="matrix(0.1 0 0 0.1 -441.65 -532.9)" d="M 5363.09,5908.38 L 5375.09,5908.38 L 5375.1,6087.24 L 5369.1,6090.7 L 5363.1,6087.24 L 5363.09,5908.38 Z "/>
<path stroke="none" transform="matrix(0.1 0 0 0.1 -441.65 -532.9)" d="M 5119.67,5665.65 L 5119.67,5651.79 L 5271.87,5739.66 L 5265.87,5750.06 L 5119.67,5665.65 Z "/>
<path stroke="none" transform="matrix(0.1 0 0 0.1 -441.65 -532.9)" d="M 5116.67,5723.77 L 5122.67,5713.38 L 5245.95,5784.56 L 5239.95,5794.95 L 5116.67,5723.77 Z "/>
<path stroke="none" transform="matrix(0.1 0 0 0.1 -441.65 -532.9)" d="M 4876.26,5806.17 L 4870.26,5802.7 L 4870.27,5795.78 L 5119.67,5651.79 L 5119.67,5665.65 L 4876.26,5806.17 Z "/>
<path stroke="none" transform="matrix(0.1 0 0 0.1 -441.65 -532.9)" d="M 4617.85,5663.9 L 4623.85,5653.51 L 4870.27,5795.78 L 4870.26,5802.7 L 4864.27,5806.17 L 4617.85,5663.9 Z "/>
<path stroke="none" transform="matrix(0.1 0 0 0.1 -441.65 -532.9)" d="M 4876.27,6087.23 L 4864.27,6094.16 L 4864.27,5806.17 L 4870.26,5802.7 L 4876.26,5806.17 L 4876.27,6087.23 Z "/>
<path stroke="none" transform="matrix(0.1 0 0 0.1 -441.65 -532.9)" d="M 4928.11,6060.76 L 4916.11,6060.76 L 4916.1,5832.63 L 4928.1,5832.63 L 4928.11,6060.76 Z "/>
<path stroke="none" transform="matrix(0.1 0 0 0.1 -441.65 -532.9)" d="M 5022.47,6171.64 L 5016.47,6182.03 L 4864.27,6094.16 L 4876.27,6087.23 L 5022.47,6171.64 Z "/>
<path stroke="none" transform="matrix(0.1 0 0 0.1 -441.65 -532.9)" d="M 5221.83,6182.65 L 5215.83,6172.26 L 5363.1,6087.24 L 5369.1,6090.7 L 5369.1,6097.63 L 5221.83,6182.65 Z "/>
<path stroke="none" transform="matrix(0.1 0 0 0.1 -441.65 -532.9)" d="M 5195.91,6137.76 L 5189.91,6127.37 L 5314.26,6055.58 L 5320.26,6065.97 L 5195.91,6137.76 Z "/>
<path stroke="none" transform="matrix(0.1 0 0 0.1 -441.65 -532.9)" d="M 4471.5,5669.5 A 144,144 0 1 0 4759.5,5669.5A 144,144 0 1 0 4471.5,5669.5Z " class="connection_in" stroke-width="18px"/>
</g>
</svg>