<svg xmlns="http://www.w3.org/2000/svg" xmlns:xlink="http://www.w3.org/1999/xlink" viewBox="0 0 224.84999999999997 105.4499999999999" style="background-color: #ffffff00" version="1.1">
<g transform="matrix(1 0 0 1 -3.500000000000057 -2.650000000000091)">
<text x="0" y="0" stroke="none" transform="matrix(0.1 0 0 0.1 161.949 106.1)" font-style="normal" font-weight="bold" font-size="200px" font-family="Arial">
F</text>
<text x="0" y="0" stroke="none" transform="matrix(0.1 0 0 0.1 115.115 79.52)" font-style="normal" font-weight="bold" font-size="200px" font-family="Arial">
N</text>
<text x="0" y="0" stroke="none" transform="matrix(0.1 0 0 0.1 115.115 96.2033)" font-style="normal" font-weight="bold" font-size="200px" font-family="Arial">
H</text>
<path stroke="none" transform="matrix(0.1 0 0 0.1 -415.65 -546.9)" d="M 5974.14,6202.1 L 5981.07,6202.1 L 5984.54,6208.1 L 5900.59,6353.49 L 5890.2,6347.49 L 5974.14,6202.1 Z "/>
<path stroke="none" transform="matrix(0.1 0 0 0.1 -415.65 -546.9)" d="M 6265.61,6196.1 L 6272.54,6208.1 L 5984.54,6208.1 L 5981.07,6202.1 L 5984.54,6196.1 L 6265.61,6196.1 Z "/>
<path stroke="none" transform="matrix(0.1 0 0 0.1 -415.65 -546.9)" d="M 6406.14,5952.7 L 6420,5952.7 L 6272.54,6208.1 L 6265.61,6196.1 L 6406.14,5952.7 Z "/>
<path stroke="none" transform="matrix(0.1 0 0 0.1 -415.65 -546.9)" d="M 6348.02,5949.7 L 6358.41,5955.7 L 6244.34,6153.26 L 6233.95,6147.26 L 6348.02,5949.7 Z "/>
<path stroke="none" transform="matrix(0.1 0 0 0.1 -415.65 -546.9)" d="M 6265.61,5709.3 L 6272.54,5697.3 L 6420,5952.7 L 6406.14,5952.7 L 6265.61,5709.3 Z "/>
<path stroke="none" transform="matrix(0.1 0 0 0.1 -415.65 -546.9)" d="M 5984.54,5709.3 L 5977.61,5697.3 L 6272.54,5697.3 L 6265.61,5709.3 L 5984.54,5709.3 Z "/>
<path stroke="none" transform="matrix(0.1 0 0 0.1 -415.65 -546.9)" d="M 6011,5761.14 L 6011,5749.14 L 6239.14,5749.14 L 6239.14,5761.14 L 6011,5761.14 Z "/>
<path stroke="none" transform="matrix(0.1 0 0 0.1 -415.65 -546.9)" d="M 5844,5952.7 L 5837.07,5952.7 L 5833.61,5946.7 L 5977.61,5697.3 L 5984.54,5709.3 L 5844,5952.7 Z "/>
<path stroke="none" transform="matrix(0.1 0 0 0.1 -415.65 -546.9)" d="M 5833.61,5958.7 L 5837.07,5952.7 L 5844,5952.7 L 5984.54,6196.1 L 5981.07,6202.1 L 5974.14,6202.1 L 5833.61,5958.7 Z "/>
<path stroke="none" transform="matrix(0.1 0 0 0.1 -415.65 -546.9)" d="M 5891.73,5955.7 L 5902.13,5949.7 L 6016.2,6147.26 L 6005.8,6153.26 L 5891.73,5955.7 Z "/>
<path stroke="none" transform="matrix(0.1 0 0 0.1 -415.65 -546.9)" d="M 5552.13,5958.7 L 5549.07,5952.7 L 5552.13,5946.7 L 5833.61,5946.7 L 5837.07,5952.7 L 5833.61,5958.7 L 5552.13,5958.7 Z "/>
<path stroke="none" transform="matrix(0.1 0 0 0.1 -415.65 -546.9)" d="M 5377.58,5726.75 L 5382.16,5712.65 L 5552.13,5946.7 L 5549.07,5952.7 L 5541.66,5952.7 L 5377.58,5726.75 Z "/>
<path stroke="none" transform="matrix(0.1 0 0 0.1 -415.65 -546.9)" d="M 5355.21,5784.16 L 5364.92,5777.11 L 5489.87,5949.17 L 5480.16,5956.23 L 5355.21,5784.16 Z "/>
<path stroke="none" transform="matrix(0.1 0 0 0.1 -415.65 -546.9)" d="M 5111.87,5813.06 L 5105.87,5808.7 L 5106.56,5802.17 L 5382.16,5712.65 L 5377.58,5726.75 L 5111.87,5813.06 Z "/>
<path stroke="none" transform="matrix(0.1 0 0 0.1 -415.65 -546.9)" d="M 4856.47,5671.63 L 4856.47,5657.77 L 5106.56,5802.17 L 5105.87,5808.7 L 5099.87,5812.16 L 4856.47,5671.63 Z "/>
<path stroke="none" transform="matrix(0.1 0 0 0.1 -415.65 -546.9)" d="M 4853.47,5729.75 L 4859.47,5719.36 L 5057.03,5833.43 L 5051.03,5843.82 L 4853.47,5729.75 Z "/>
<path stroke="none" transform="matrix(0.1 0 0 0.1 -415.65 -546.9)" d="M 4613.07,5812.16 L 4607.07,5808.7 L 4607.07,5801.77 L 4856.47,5657.77 L 4856.47,5671.63 L 4613.07,5812.16 Z "/>
<path stroke="none" transform="matrix(0.1 0 0 0.1 -415.65 -546.9)" d="M 4354.67,5669.9 L 4360.67,5659.5 L 4607.07,5801.77 L 4607.07,5808.7 L 4601.07,5812.16 L 4354.67,5669.9 Z "/>
<path stroke="none" transform="matrix(0.1 0 0 0.1 -415.65 -546.9)" d="M 4613.07,6093.24 L 4601.07,6100.16 L 4601.07,5812.16 L 4607.07,5808.7 L 4613.07,5812.16 L 4613.07,6093.24 Z "/>
<path stroke="none" transform="matrix(0.1 0 0 0.1 -415.65 -546.9)" d="M 4664.91,6066.77 L 4652.91,6066.77 L 4652.91,5838.63 L 4664.91,5838.63 L 4664.91,6066.77 Z "/>
<path stroke="none" transform="matrix(0.1 0 0 0.1 -415.65 -546.9)" d="M 4856.47,6233.77 L 4856.47,6247.63 L 4601.07,6100.16 L 4613.07,6093.24 L 4856.47,6233.77 Z "/>
<path stroke="none" transform="matrix(0.1 0 0 0.1 -415.65 -546.9)" d="M 5099.87,6093.24 L 5105.87,6096.7 L 5106.56,6103.23 L 4856.47,6247.63 L 4856.47,6233.77 L 5099.87,6093.24 Z "/>
<path stroke="none" transform="matrix(0.1 0 0 0.1 -415.65 -546.9)" d="M 5051.03,6061.58 L 5057.03,6071.97 L 4859.47,6186.04 L 4853.47,6175.65 L 5051.03,6061.58 Z "/>
<path stroke="none" transform="matrix(0.1 0 0 0.1 -415.65 -546.9)" d="M 5111.87,6092.34 L 5105.87,6096.7 L 5099.87,6093.24 L 5099.87,5812.16 L 5105.87,5808.7 L 5111.87,5813.06 L 5111.87,6092.34 Z "/>
<path stroke="none" transform="matrix(0.1 0 0 0.1 -415.65 -546.9)" d="M 5282.39,6147.73 L 5278.69,6159.14 L 5106.56,6103.23 L 5105.87,6096.7 L 5111.87,6092.34 L 5282.39,6147.73 Z "/>
<path stroke="none" transform="matrix(0.1 0 0 0.1 -415.65 -546.9)" d="M 5455.28,6092.07 L 5445.57,6085.02 L 5541.66,5952.7 L 5549.07,5952.7 L 5552.13,5958.7 L 5455.28,6092.07 Z "/>
<path stroke="none" transform="matrix(0.1 0 0 0.1 -415.65 -546.9)" d="M 4211.5,5659.5 A 144,144 0 1 0 4499.5,5659.5A 144,144 0 1 0 4211.5,5659.5Z " class="connection_in" stroke-width="18px"/>
</g>
</svg>