<svg xmlns="http://www.w3.org/2000/svg" xmlns:xlink="http://www.w3.org/1999/xlink" viewBox="0 0 213.84999999999994 110.17499999999991" style="background-color: #ffffff00" version="1.1">
<g transform="matrix(1 0 0 1 -3.500000000000057 -2.650000000000091)">
<text x="0" y="0" stroke="none" transform="matrix(0.1 0 0 0.1 160.41 110.825)" font-style="normal" font-weight="bold" font-size="200px" font-family="Arial">
O</text>
<text x="0" y="0" stroke="none" transform="matrix(0.1 0 0 0.1 185.35 67.625)" font-style="normal" font-weight="bold" font-size="200px" font-family="Arial">
OH</text>
<text x="0" y="0" stroke="none" transform="matrix(0.1 0 0 0.1 12.4199 82.025)" font-style="normal" font-weight="bold" font-size="200px" font-family="Arial">
F</text>
<path stroke="none" transform="matrix(0.1 0 0 0.1 -421.65 -545.9)" d="M 5866.46,6185.78 L 5878.46,6185.78 L 5878.46,6385.92 L 5866.46,6385.92 L 5866.46,6185.78 Z "/>
<path stroke="none" transform="matrix(0.1 0 0 0.1 -421.65 -545.9)" d="M 5918.3,6185.78 L 5930.3,6185.78 L 5930.3,6385.92 L 5918.3,6385.92 L 5918.3,6185.78 Z "/>
<path stroke="none" transform="matrix(0.1 0 0 0.1 -421.65 -545.9)" d="M 6052.99,6104.55 L 6058.99,6114.94 L 5898.38,6207.68 L 5898.38,6193.82 L 6052.99,6104.55 Z "/>
<path stroke="none" transform="matrix(0.1 0 0 0.1 -421.65 -545.9)" d="M 5648.98,6063.68 L 5648.98,6049.82 L 5898.38,6193.82 L 5898.38,6207.68 L 5648.98,6063.68 Z "/>
<path stroke="none" transform="matrix(0.1 0 0 0.1 -421.65 -545.9)" d="M 5150.18,6063.68 L 5150.18,6056.75 L 5156.18,6053.29 L 5399.58,6193.82 L 5399.58,6207.68 L 5150.18,6063.68 Z "/>
<path stroke="none" transform="matrix(0.1 0 0 0.1 -421.65 -545.9)" d="M 5144.18,5772.21 L 5156.18,5765.29 L 5156.18,6053.29 L 5150.18,6056.75 L 5144.18,6053.29 L 5144.18,5772.21 Z "/>
<path stroke="none" transform="matrix(0.1 0 0 0.1 -421.65 -545.9)" d="M 4900.78,5631.68 L 4900.78,5617.82 L 5156.18,5765.29 L 5144.18,5772.21 L 4900.78,5631.68 Z "/>
<path stroke="none" transform="matrix(0.1 0 0 0.1 -421.65 -545.9)" d="M 4897.77,5689.8 L 4903.77,5679.41 L 5101.35,5793.48 L 5095.35,5803.87 L 4897.77,5689.8 Z "/>
<path stroke="none" transform="matrix(0.1 0 0 0.1 -421.65 -545.9)" d="M 4657.18,5772.22 L 4651.18,5768.75 L 4651.18,5761.82 L 4900.78,5617.82 L 4900.78,5631.68 L 4657.18,5772.22 Z "/>
<path stroke="none" transform="matrix(0.1 0 0 0.1 -421.65 -545.9)" d="M 4398.78,5629.95 L 4404.78,5619.55 L 4651.18,5761.82 L 4651.18,5768.75 L 4645.18,5772.21 L 4398.78,5629.95 Z "/>
<path stroke="none" transform="matrix(0.1 0 0 0.1 -421.65 -545.9)" d="M 4657.18,6053.28 L 4651.18,6056.75 L 4645.18,6053.29 L 4645.18,5772.21 L 4651.18,5768.75 L 4657.18,5772.22 L 4657.18,6053.28 Z "/>
<path stroke="none" transform="matrix(0.1 0 0 0.1 -421.65 -545.9)" d="M 4709.02,6026.81 L 4697.02,6026.81 L 4697.02,5798.69 L 4709.02,5798.69 L 4709.02,6026.81 Z "/>
<path stroke="none" transform="matrix(0.1 0 0 0.1 -421.65 -545.9)" d="M 4500.27,6150.81 L 4494.27,6140.42 L 4645.18,6053.29 L 4651.18,6056.75 L 4651.18,6063.68 L 4500.27,6150.81 Z "/>
<path stroke="none" transform="matrix(0.1 0 0 0.1 -421.65 -545.9)" d="M 4900.78,6193.82 L 4900.78,6207.68 L 4651.18,6063.68 L 4651.18,6056.75 L 4657.18,6053.28 L 4900.78,6193.82 Z "/>
<path stroke="none" transform="matrix(0.1 0 0 0.1 -421.65 -545.9)" d="M 4900.78,6207.68 L 4900.78,6193.82 L 5144.18,6053.29 L 5150.18,6056.75 L 5150.18,6063.68 L 4900.78,6207.68 Z "/>
<path stroke="none" transform="matrix(0.1 0 0 0.1 -421.65 -545.9)" d="M 4903.77,6146.09 L 4897.77,6135.7 L 5095.35,6021.63 L 5101.35,6032.02 L 4903.77,6146.09 Z "/>
<path stroke="none" transform="matrix(0.1 0 0 0.1 -421.65 -545.9)" d="M 5648.98,6049.82 L 5648.98,6063.68 L 5399.58,6207.68 L 5399.58,6193.82 L 5648.98,6049.82 Z "/>
<path stroke="none" transform="matrix(0.1 0 0 0.1 -421.65 -545.9)" d="M 4271.5,5649.5 A 144,144 0 1 0 4559.5,5649.5A 144,144 0 1 0 4271.5,5649.5Z " class="connection_in" stroke-width="18px"/>
</g>
</svg>