<svg xmlns="http://www.w3.org/2000/svg" xmlns:xlink="http://www.w3.org/1999/xlink" viewBox="0 0 193.579 191.72500000000002" style="background-color: #ffffff00" version="1.1">
<g transform="matrix(1 0 0 1 -3.500000000000057 -2.56899999999996)">
<text x="0" y="0" stroke="none" transform="matrix(0.1 0 0 0.1 137.678 99.3337)" font-style="normal" font-weight="bold" font-size="200px" font-family="Arial">
NH</text>
<text x="0" y="0" stroke="none" transform="matrix(0.1 0 0 0.1 113.279 113.75)" font-style="normal" font-weight="bold" font-size="200px" font-family="Arial">
S</text>
<text x="0" y="0" stroke="none" transform="matrix(0.1 0 0 0.1 126.569 138.69)" font-style="normal" font-weight="bold" font-size="200px" font-family="Arial">
O</text>
<text x="0" y="0" stroke="none" transform="matrix(0.1 0 0 0.1 97.7716 88.8089)" font-style="normal" font-weight="bold" font-size="200px" font-family="Arial">
O</text>
<path stroke="none" transform="matrix(0.1 0 0 0.1 -427.65 -524.9)" d="M 5980.89,5447.34 L 5968.89,5440.41 L 6221.29,5294.69 L 6227.29,5305.09 L 5980.89,5447.34 Z "/>
<path stroke="none" transform="matrix(0.1 0 0 0.1 -427.65 -524.9)" d="M 5980.89,5735.33 L 5968.89,5728.4 L 5968.89,5440.41 L 5980.89,5447.34 L 5980.89,5735.33 Z "/>
<path stroke="none" transform="matrix(0.1 0 0 0.1 -427.65 -524.9)" d="M 5731.49,5879.31 L 5719.49,5872.39 L 5968.89,5728.4 L 5980.89,5735.33 L 5731.49,5879.31 Z "/>
<path stroke="none" transform="matrix(0.1 0 0 0.1 -427.65 -524.9)" d="M 5731.49,6063.5 L 5719.49,6063.5 L 5719.49,5872.39 L 5731.49,5879.31 L 5731.49,6063.5 Z "/>
<path stroke="none" transform="matrix(0.1 0 0 0.1 -427.65 -524.9)" d="M 5562.99,6264.65 L 5556.99,6254.26 L 5619.98,6217.87 L 5625.98,6228.26 L 5562.99,6264.65 Z "/>
<path stroke="none" transform="matrix(0.1 0 0 0.1 -427.65 -524.9)" d="M 5595.46,6451.11 L 5585.07,6457.11 L 5548.08,6393.03 L 5558.47,6387.03 L 5595.46,6451.11 Z "/>
<path stroke="none" transform="matrix(0.1 0 0 0.1 -427.65 -524.9)" d="M 5550.57,6477.03 L 5540.18,6483.03 L 5503.18,6418.95 L 5513.58,6412.95 L 5550.57,6477.03 Z "/>
<path stroke="none" transform="matrix(0.1 0 0 0.1 -427.65 -524.9)" d="M 5359.11,6169.39 L 5369.5,6163.39 L 5406.54,6227.54 L 5396.15,6233.54 L 5359.11,6169.39 Z "/>
<path stroke="none" transform="matrix(0.1 0 0 0.1 -427.65 -524.9)" d="M 5404,6143.47 L 5414.39,6137.47 L 5451.43,6201.62 L 5441.04,6207.62 L 5404,6143.47 Z "/>
<path stroke="none" transform="matrix(0.1 0 0 0.1 -427.65 -524.9)" d="M 5232.58,6455.45 L 5226.58,6451.98 L 5226.58,6445.06 L 5383.71,6354.34 L 5389.71,6364.73 L 5232.58,6455.45 Z "/>
<path stroke="none" transform="matrix(0.1 0 0 0.1 -427.65 -524.9)" d="M 5232.59,6743.43 L 5220.59,6736.51 L 5220.58,6455.45 L 5226.58,6451.98 L 5232.58,6455.45 L 5232.59,6743.43 Z "/>
<path stroke="none" transform="matrix(0.1 0 0 0.1 -427.65 -524.9)" d="M 4983.18,6887.42 L 4977.18,6883.96 L 4977.18,6877.03 L 5220.59,6736.51 L 5232.59,6743.43 L 4983.18,6887.42 Z "/>
<path stroke="none" transform="matrix(0.1 0 0 0.1 -427.65 -524.9)" d="M 4980.18,6829.3 L 4974.18,6818.9 L 5171.75,6704.84 L 5177.75,6715.24 L 4980.18,6829.3 Z "/>
<path stroke="none" transform="matrix(0.1 0 0 0.1 -427.65 -524.9)" d="M 4983.19,7171.94 L 4971.19,7171.94 L 4971.18,6887.42 L 4977.18,6883.96 L 4983.18,6887.42 L 4983.19,7171.94 Z "/>
<path stroke="none" transform="matrix(0.1 0 0 0.1 -427.65 -524.9)" d="M 4721.76,6743.42 L 4733.76,6736.49 L 4977.18,6877.03 L 4977.18,6883.96 L 4971.18,6887.42 L 4721.76,6743.42 Z "/>
<path stroke="none" transform="matrix(0.1 0 0 0.1 -427.65 -524.9)" d="M 4721.76,6455.43 L 4727.76,6451.97 L 4733.76,6455.43 L 4733.76,6736.49 L 4721.76,6743.42 L 4721.76,6455.43 Z "/>
<path stroke="none" transform="matrix(0.1 0 0 0.1 -427.65 -524.9)" d="M 4773.59,6481.9 L 4785.59,6481.9 L 4785.6,6710.03 L 4773.6,6710.03 L 4773.59,6481.9 Z "/>
<path stroke="none" transform="matrix(0.1 0 0 0.1 -427.65 -524.9)" d="M 4475.34,6313.17 L 4481.34,6302.77 L 4727.76,6445.04 L 4727.76,6451.97 L 4721.76,6455.43 L 4475.34,6313.17 Z "/>
<path stroke="none" transform="matrix(0.1 0 0 0.1 -427.65 -524.9)" d="M 4977.16,6301.06 L 4977.16,6314.91 L 4733.76,6455.43 L 4727.76,6451.97 L 4727.76,6445.04 L 4977.16,6301.06 Z "/>
<path stroke="none" transform="matrix(0.1 0 0 0.1 -427.65 -524.9)" d="M 4977.16,6314.91 L 4977.16,6301.06 L 5226.58,6445.06 L 5226.58,6451.98 L 5220.58,6455.45 L 4977.16,6314.91 Z "/>
<path stroke="none" transform="matrix(0.1 0 0 0.1 -427.65 -524.9)" d="M 4974.16,6373.04 L 4980.16,6362.65 L 5177.74,6476.72 L 5171.74,6487.11 L 4974.16,6373.04 Z "/>
<path stroke="none" transform="matrix(0.1 0 0 0.1 -427.65 -524.9)" d="M 4331.5,6329.5 A 144,144 0 1 0 4619.5,6329.5A 144,144 0 1 0 4331.5,6329.5Z " class="connection_in" stroke-width="18px"/>
</g>
</svg>