<svg xmlns="http://www.w3.org/2000/svg" xmlns:xlink="http://www.w3.org/1999/xlink" viewBox="0 0 193.01499999999993 119.62299999999999" style="background-color: #ffffff00" version="1.1">
<g transform="matrix(1 0 0 1 -3.500000000000057 -2.75)">
<text x="0" y="0" stroke="none" transform="matrix(0.1 0 0 0.1 112.173 84.33)" font-style="normal" font-weight="bold" font-size="200px" font-family="Arial">
N</text>
<text x="0" y="0" stroke="none" transform="matrix(0.1 0 0 0.1 162.053 113.13)" font-style="normal" font-weight="bold" font-size="200px" font-family="Arial">
N</text>
<text x="0" y="0" stroke="none" transform="matrix(0.1 0 0 0.1 87.2333 41.13)" font-style="normal" font-weight="bold" font-size="200px" font-family="Arial">
N</text>
<path stroke="none" transform="matrix(0.1 0 0 0.1 -397.65 -452.8)" d="M 4416.25,5145.34 L 4422.25,5148.8 L 4422.25,5155.73 L 4175.85,5298 L 4169.85,5287.6 L 4416.25,5145.34 Z "/>
<path stroke="none" transform="matrix(0.1 0 0 0.1 -397.65 -452.8)" d="M 4671.65,5285.87 L 4671.65,5299.73 L 4422.25,5155.73 L 4422.25,5148.8 L 4428.25,5145.34 L 4671.65,5285.87 Z "/>
<path stroke="none" transform="matrix(0.1 0 0 0.1 -397.65 -452.8)" d="M 4674.65,5227.75 L 4668.65,5238.14 L 4471.09,5124.07 L 4477.09,5113.68 L 4674.65,5227.75 Z "/>
<path stroke="none" transform="matrix(0.1 0 0 0.1 -397.65 -452.8)" d="M 4915.05,5145.34 L 4921.05,5148.8 L 4921.05,5155.73 L 4671.65,5299.73 L 4671.65,5285.87 L 4915.05,5145.34 Z "/>
<path stroke="none" transform="matrix(0.1 0 0 0.1 -397.65 -452.8)" d="M 5073.24,5229.74 L 5067.24,5240.13 L 4921.05,5155.73 L 4921.05,5148.8 L 4927.05,5145.34 L 5073.24,5229.74 Z "/>
<path stroke="none" transform="matrix(0.1 0 0 0.1 -397.65 -452.8)" d="M 5176.45,5577.34 L 5164.45,5584.26 L 5164.45,5398.47 L 5176.45,5398.47 L 5176.45,5577.34 Z "/>
<path stroke="none" transform="matrix(0.1 0 0 0.1 -397.65 -452.8)" d="M 5419.85,5717.87 L 5419.85,5731.73 L 5164.45,5584.26 L 5176.45,5577.34 L 5419.85,5717.87 Z "/>
<path stroke="none" transform="matrix(0.1 0 0 0.1 -397.65 -452.8)" d="M 5563.73,5634.8 L 5569.73,5645.19 L 5419.85,5731.73 L 5419.85,5717.87 L 5563.73,5634.8 Z "/>
<path stroke="none" transform="matrix(0.1 0 0 0.1 -397.65 -452.8)" d="M 5921.65,5719.6 L 5915.65,5730 L 5767.7,5644.57 L 5773.7,5634.18 L 5921.65,5719.6 Z "/>
<path stroke="none" transform="matrix(0.1 0 0 0.1 -397.65 -452.8)" d="M 5663.25,5296.26 L 5675.25,5289.34 L 5675.25,5480.47 L 5663.25,5480.47 L 5663.25,5296.26 Z "/>
<path stroke="none" transform="matrix(0.1 0 0 0.1 -397.65 -452.8)" d="M 5419.85,5155.73 L 5419.85,5141.87 L 5675.25,5289.34 L 5663.25,5296.26 L 5419.85,5155.73 Z "/>
<path stroke="none" transform="matrix(0.1 0 0 0.1 -397.65 -452.8)" d="M 5419.85,5141.87 L 5419.85,5155.73 L 5272.59,5240.75 L 5266.59,5230.36 L 5419.85,5141.87 Z "/>
<path stroke="none" transform="matrix(0.1 0 0 0.1 -397.65 -452.8)" d="M 4915.05,4966.47 L 4927.05,4966.47 L 4927.05,5145.34 L 4921.05,5148.8 L 4915.05,5145.34 L 4915.05,4966.47 Z "/>
<path stroke="none" transform="matrix(0.1 0 0 0.1 -397.65 -452.8)" d="M 4863.21,4966.47 L 4875.21,4966.47 L 4875.21,5118.87 L 4863.21,5118.87 L 4863.21,4966.47 Z "/>
<path stroke="none" transform="matrix(0.1 0 0 0.1 -397.65 -452.8)" d="M 4671.65,4723.73 L 4671.65,4709.87 L 4823.84,4797.74 L 4817.84,4808.13 L 4671.65,4723.73 Z "/>
<path stroke="none" transform="matrix(0.1 0 0 0.1 -397.65 -452.8)" d="M 4428.25,4864.26 L 4422.25,4860.8 L 4422.25,4853.87 L 4671.65,4709.87 L 4671.65,4723.73 L 4428.25,4864.26 Z "/>
<path stroke="none" transform="matrix(0.1 0 0 0.1 -397.65 -452.8)" d="M 4477.09,4895.92 L 4471.09,4885.53 L 4668.65,4771.46 L 4674.65,4781.85 L 4477.09,4895.92 Z "/>
<path stroke="none" transform="matrix(0.1 0 0 0.1 -397.65 -452.8)" d="M 4416.25,4864.26 L 4422.25,4860.8 L 4428.25,4864.26 L 4428.25,5145.34 L 4422.25,5148.8 L 4416.25,5145.34 L 4416.25,4864.26 Z "/>
<path stroke="none" transform="matrix(0.1 0 0 0.1 -397.65 -452.8)" d="M 4169.85,4722 L 4175.85,4711.6 L 4422.25,4853.87 L 4422.25,4860.8 L 4416.25,4864.26 L 4169.85,4722 Z "/>
<path stroke="none" transform="matrix(0.1 0 0 0.1 -397.65 -452.8)" d="M 4031.5,4719.5 A 144,144 0 1 0 4319.5,4719.5A 144,144 0 1 0 4031.5,4719.5Z " class="connection_in" stroke-width="18px"/>
</g>
</svg>