<svg xmlns="http://www.w3.org/2000/svg" xmlns:xlink="http://www.w3.org/1999/xlink" viewBox="0 0 244.84999999999997 115.17499999999991" style="background-color: #ffffff00" version="1.1">
<g transform="matrix(1 0 0 1 -3.500000000000057 -2.650000000000091)">
<text x="0" y="0" stroke="none" transform="matrix(0.1 0 0 0.1 139.068 55.9417)" font-style="normal" font-weight="bold" font-size="200px" font-family="Arial">
H</text>
<text x="0" y="0" stroke="none" transform="matrix(0.1 0 0 0.1 139.068 72.625)" font-style="normal" font-weight="bold" font-size="200px" font-family="Arial">
N</text>
<text x="0" y="0" stroke="none" transform="matrix(0.1 0 0 0.1 163.452 115.825)" font-style="normal" font-weight="bold" font-size="200px" font-family="Arial">
O</text>
<text x="0" y="0" stroke="none" transform="matrix(0.1 0 0 0.1 188.392 72.625)" font-style="normal" font-weight="bold" font-size="200px" font-family="Arial">
O</text>
<path stroke="none" transform="matrix(0.1 0 0 0.1 -404.65 -540.9)" d="M 5254,6204.21 L 5260,6200.75 L 5266,6204.21 L 5266,6488.75 L 5254,6488.75 L 5254,6204.21 Z "/>
<path stroke="none" transform="matrix(0.1 0 0 0.1 -404.65 -540.9)" d="M 5403.8,6110.79 L 5409.8,6121.18 L 5266,6204.21 L 5260,6200.75 L 5260,6193.82 L 5403.8,6110.79 Z "/>
<path stroke="none" transform="matrix(0.1 0 0 0.1 -404.65 -540.9)" d="M 5758.8,6193.82 L 5758.8,6207.68 L 5607.92,6120.56 L 5613.92,6110.17 L 5758.8,6193.82 Z "/>
<path stroke="none" transform="matrix(0.1 0 0 0.1 -404.65 -540.9)" d="M 5790.72,6385.92 L 5778.72,6385.92 L 5778.72,6185.78 L 5790.72,6185.78 L 5790.72,6385.92 Z "/>
<path stroke="none" transform="matrix(0.1 0 0 0.1 -404.65 -540.9)" d="M 5738.88,6385.92 L 5726.88,6385.92 L 5726.88,6185.78 L 5738.88,6185.78 L 5738.88,6385.92 Z "/>
<path stroke="none" transform="matrix(0.1 0 0 0.1 -404.65 -540.9)" d="M 5913.41,6104.55 L 5919.41,6114.94 L 5758.8,6207.68 L 5758.8,6193.82 L 5913.41,6104.55 Z "/>
<path stroke="none" transform="matrix(0.1 0 0 0.1 -404.65 -540.9)" d="M 6257.6,6193.82 L 6257.6,6200.75 L 6251.6,6204.21 L 6097.43,6115.2 L 6103.43,6104.81 L 6257.6,6193.82 Z "/>
<path stroke="none" transform="matrix(0.1 0 0 0.1 -404.65 -540.9)" d="M 6263.6,6488.75 L 6251.6,6488.75 L 6251.6,6204.21 L 6257.6,6200.75 L 6263.6,6211.14 L 6263.6,6488.75 Z "/>
<path stroke="none" transform="matrix(0.1 0 0 0.1 -404.65 -540.9)" d="M 6510,6339.55 L 6504,6349.95 L 6263.6,6211.14 L 6257.6,6200.75 L 6269.6,6200.75 L 6510,6339.55 Z "/>
<path stroke="none" transform="matrix(0.1 0 0 0.1 -404.65 -540.9)" d="M 6504,6051.55 L 6510,6061.95 L 6269.6,6200.75 L 6257.6,6200.75 L 6257.6,6193.82 L 6504,6051.55 Z "/>
<path stroke="none" transform="matrix(0.1 0 0 0.1 -404.65 -540.9)" d="M 5010.6,6063.68 L 5010.6,6056.75 L 5016.6,6053.29 L 5260,6193.82 L 5260,6200.75 L 5254,6204.21 L 5010.6,6063.68 Z "/>
<path stroke="none" transform="matrix(0.1 0 0 0.1 -404.65 -540.9)" d="M 5004.6,5772.21 L 5016.6,5765.29 L 5016.6,6053.29 L 5010.6,6056.75 L 5004.6,6053.29 L 5004.6,5772.21 Z "/>
<path stroke="none" transform="matrix(0.1 0 0 0.1 -404.65 -540.9)" d="M 4761.2,5631.68 L 4761.2,5617.82 L 5016.6,5765.29 L 5004.6,5772.21 L 4761.2,5631.68 Z "/>
<path stroke="none" transform="matrix(0.1 0 0 0.1 -404.65 -540.9)" d="M 4758.19,5689.8 L 4764.19,5679.41 L 4961.76,5793.48 L 4955.76,5803.87 L 4758.19,5689.8 Z "/>
<path stroke="none" transform="matrix(0.1 0 0 0.1 -404.65 -540.9)" d="M 4517.6,5772.22 L 4511.6,5768.75 L 4511.6,5761.82 L 4761.2,5617.82 L 4761.2,5631.68 L 4517.6,5772.22 Z "/>
<path stroke="none" transform="matrix(0.1 0 0 0.1 -404.65 -540.9)" d="M 4259.2,5629.95 L 4265.2,5619.55 L 4511.6,5761.82 L 4511.6,5768.75 L 4505.6,5772.21 L 4259.2,5629.95 Z "/>
<path stroke="none" transform="matrix(0.1 0 0 0.1 -404.65 -540.9)" d="M 4517.6,6053.28 L 4505.6,6060.22 L 4505.6,5772.21 L 4511.6,5768.75 L 4517.6,5772.22 L 4517.6,6053.28 Z "/>
<path stroke="none" transform="matrix(0.1 0 0 0.1 -404.65 -540.9)" d="M 4569.44,6026.81 L 4557.44,6026.81 L 4557.44,5798.69 L 4569.44,5798.69 L 4569.44,6026.81 Z "/>
<path stroke="none" transform="matrix(0.1 0 0 0.1 -404.65 -540.9)" d="M 4761.2,6193.82 L 4761.2,6207.68 L 4505.6,6060.22 L 4517.6,6053.28 L 4761.2,6193.82 Z "/>
<path stroke="none" transform="matrix(0.1 0 0 0.1 -404.65 -540.9)" d="M 4761.2,6207.68 L 4761.2,6193.82 L 5004.6,6053.29 L 5010.6,6056.75 L 5010.6,6063.68 L 4761.2,6207.68 Z "/>
<path stroke="none" transform="matrix(0.1 0 0 0.1 -404.65 -540.9)" d="M 4764.19,6146.09 L 4758.19,6135.7 L 4955.76,6021.63 L 4961.76,6032.02 L 4764.19,6146.09 Z "/>
<path stroke="none" transform="matrix(0.1 0 0 0.1 -404.65 -540.9)" d="M 4101.5,5599.5 A 144,144 0 1 0 4389.5,5599.5A 144,144 0 1 0 4101.5,5599.5Z " class="connection_in" stroke-width="18px"/>
</g>
</svg>