<svg xmlns="http://www.w3.org/2000/svg" xmlns:xlink="http://www.w3.org/1999/xlink" viewBox="0 0 292.84999999999997 164.0" style="background-color: #ffffff00" version="1.1">
<g transform="matrix(1 0 0 1 -3.500000000000057 -3.3999999999999986)">
<text x="0" y="0" stroke="none" transform="matrix(0.1 0 0 0.1 236.392 122.2)" font-style="normal" font-weight="bold" font-size="200px" font-family="Arial">
O</text>
<text x="0" y="0" stroke="none" transform="matrix(0.1 0 0 0.1 211.452 165.4)" font-style="normal" font-weight="bold" font-size="200px" font-family="Arial">
O</text>
<text x="0" y="0" stroke="none" transform="matrix(0.1 0 0 0.1 187.068 122.2)" font-style="normal" font-weight="bold" font-size="200px" font-family="Arial">
N</text>
<text x="0" y="0" stroke="none" transform="matrix(0.1 0 0 0.1 111.692 21.4)" font-style="normal" font-weight="bold" font-size="200px" font-family="Arial">
O</text>
<text x="0" y="0" stroke="none" transform="matrix(0.1 0 0 0.1 111.692 107.8)" font-style="normal" font-weight="bold" font-size="200px" font-family="Arial">
O</text>
<path stroke="none" transform="matrix(0.1 0 0 0.1 -381.65 -676.4)" d="M 6513.6,8061.89 L 6507.6,8051.5 L 6519.6,8051.5 L 6760,8190.3 L 6754,8200.7 L 6513.6,8061.89 Z "/>
<path stroke="none" transform="matrix(0.1 0 0 0.1 -381.65 -676.4)" d="M 6513.6,8339.5 L 6501.6,8339.5 L 6501.6,8054.96 L 6507.6,8051.5 L 6513.6,8061.89 L 6513.6,8339.5 Z "/>
<path stroke="none" transform="matrix(0.1 0 0 0.1 -381.65 -676.4)" d="M 6754,7902.3 L 6760,7912.7 L 6519.6,8051.5 L 6507.6,8051.5 L 6507.6,8044.57 L 6754,7902.3 Z "/>
<path stroke="none" transform="matrix(0.1 0 0 0.1 -381.65 -676.4)" d="M 6347.43,7965.95 L 6353.43,7955.56 L 6507.6,8044.57 L 6507.6,8051.5 L 6501.6,8054.96 L 6347.43,7965.95 Z "/>
<path stroke="none" transform="matrix(0.1 0 0 0.1 -381.65 -676.4)" d="M 6008.8,8058.43 L 6008.8,8044.57 L 6163.41,7955.3 L 6169.41,7965.69 L 6008.8,8058.43 Z "/>
<path stroke="none" transform="matrix(0.1 0 0 0.1 -381.65 -676.4)" d="M 6040.72,8236.67 L 6028.72,8236.67 L 6028.72,8036.53 L 6040.72,8036.53 L 6040.72,8236.67 Z "/>
<path stroke="none" transform="matrix(0.1 0 0 0.1 -381.65 -676.4)" d="M 5988.88,8236.67 L 5976.88,8236.67 L 5976.88,8036.53 L 5988.88,8036.53 L 5988.88,8236.67 Z "/>
<path stroke="none" transform="matrix(0.1 0 0 0.1 -381.65 -676.4)" d="M 5857.85,7971.27 L 5863.85,7960.88 L 6008.8,8044.57 L 6008.8,8058.43 L 5857.85,7971.27 Z "/>
<path stroke="none" transform="matrix(0.1 0 0 0.1 -381.65 -676.4)" d="M 5510,8058.43 L 5510,8044.57 L 5653.88,7961.5 L 5659.88,7971.89 L 5510,8058.43 Z "/>
<path stroke="none" transform="matrix(0.1 0 0 0.1 -381.65 -676.4)" d="M 5254.6,7910.96 L 5266.6,7904.04 L 5510,8044.57 L 5510,8058.43 L 5254.6,7910.96 Z "/>
<path stroke="none" transform="matrix(0.1 0 0 0.1 -381.65 -676.4)" d="M 5254.6,7629.89 L 5260.6,7619.5 L 5266.6,7622.96 L 5266.6,7904.04 L 5254.6,7910.96 L 5254.6,7629.89 Z "/>
<path stroke="none" transform="matrix(0.1 0 0 0.1 -381.65 -676.4)" d="M 5510,7468.57 L 5510,7482.43 L 5266.6,7622.96 L 5260.6,7619.5 L 5266.6,7609.11 L 5510,7468.57 Z "/>
<path stroke="none" transform="matrix(0.1 0 0 0.1 -381.65 -676.4)" d="M 5765.4,7616.04 L 5753.4,7622.96 L 5510,7482.43 L 5510,7468.57 L 5765.4,7616.04 Z "/>
<path stroke="none" transform="matrix(0.1 0 0 0.1 -381.65 -676.4)" d="M 5753.4,7622.96 L 5765.4,7616.04 L 5765.4,7807.17 L 5753.4,7807.17 L 5753.4,7622.96 Z "/>
<path stroke="none" transform="matrix(0.1 0 0 0.1 -381.65 -676.4)" d="M 5254.6,7334.96 L 5266.6,7328.04 L 5266.6,7609.11 L 5260.6,7619.5 L 5254.6,7616.04 L 5254.6,7334.96 Z "/>
<path stroke="none" transform="matrix(0.1 0 0 0.1 -381.65 -676.4)" d="M 5011.2,7194.43 L 5011.2,7180.57 L 5266.6,7328.04 L 5254.6,7334.96 L 5011.2,7194.43 Z "/>
<path stroke="none" transform="matrix(0.1 0 0 0.1 -381.65 -676.4)" d="M 4979.28,7007.67 L 4991.28,7007.67 L 4991.28,7202.47 L 4979.28,7202.47 L 4979.28,7007.67 Z "/>
<path stroke="none" transform="matrix(0.1 0 0 0.1 -381.65 -676.4)" d="M 5031.12,7007.67 L 5043.12,7007.67 L 5043.12,7202.47 L 5031.12,7202.47 L 5031.12,7007.67 Z "/>
<path stroke="none" transform="matrix(0.1 0 0 0.1 -381.65 -676.4)" d="M 4767.8,7334.96 L 4761.8,7331.5 L 4761.8,7324.57 L 5011.2,7180.57 L 5011.2,7194.43 L 4767.8,7334.96 Z "/>
<path stroke="none" transform="matrix(0.1 0 0 0.1 -381.65 -676.4)" d="M 4512.2,7194.43 L 4512.2,7180.57 L 4761.8,7324.57 L 4761.8,7331.5 L 4755.8,7334.96 L 4512.2,7194.43 Z "/>
<path stroke="none" transform="matrix(0.1 0 0 0.1 -381.65 -676.4)" d="M 4268.8,7334.96 L 4262.8,7331.5 L 4262.8,7324.57 L 4512.2,7180.57 L 4512.2,7194.43 L 4268.8,7334.96 Z "/>
<path stroke="none" transform="matrix(0.1 0 0 0.1 -381.65 -676.4)" d="M 4317.64,7366.62 L 4311.64,7356.23 L 4509.21,7242.16 L 4515.21,7252.55 L 4317.64,7366.62 Z "/>
<path stroke="none" transform="matrix(0.1 0 0 0.1 -381.65 -676.4)" d="M 4010.4,7192.7 L 4016.4,7182.3 L 4262.8,7324.57 L 4262.8,7331.5 L 4256.8,7334.96 L 4010.4,7192.7 Z "/>
<path stroke="none" transform="matrix(0.1 0 0 0.1 -381.65 -676.4)" d="M 4268.8,7616.04 L 4256.8,7622.96 L 4256.8,7334.96 L 4262.8,7331.5 L 4268.8,7334.96 L 4268.8,7616.04 Z "/>
<path stroke="none" transform="matrix(0.1 0 0 0.1 -381.65 -676.4)" d="M 4512.2,7756.57 L 4512.2,7770.43 L 4256.8,7622.96 L 4268.8,7616.04 L 4512.2,7756.57 Z "/>
<path stroke="none" transform="matrix(0.1 0 0 0.1 -381.65 -676.4)" d="M 4515.21,7698.45 L 4509.21,7708.84 L 4311.64,7594.77 L 4317.64,7584.38 L 4515.21,7698.45 Z "/>
<path stroke="none" transform="matrix(0.1 0 0 0.1 -381.65 -676.4)" d="M 4755.8,7616.03 L 4761.8,7619.5 L 4761.8,7626.43 L 4512.2,7770.43 L 4512.2,7756.57 L 4755.8,7616.03 Z "/>
<path stroke="none" transform="matrix(0.1 0 0 0.1 -381.65 -676.4)" d="M 4767.8,7616.04 L 4761.8,7619.5 L 4755.8,7616.03 L 4755.8,7334.96 L 4761.8,7331.5 L 4767.8,7334.96 L 4767.8,7616.04 Z "/>
<path stroke="none" transform="matrix(0.1 0 0 0.1 -381.65 -676.4)" d="M 4715.96,7589.56 L 4703.96,7589.56 L 4703.96,7361.44 L 4715.96,7361.44 L 4715.96,7589.56 Z "/>
<path stroke="none" transform="matrix(0.1 0 0 0.1 -381.65 -676.4)" d="M 4925.15,7706.89 L 4919.15,7717.28 L 4761.8,7626.43 L 4761.8,7619.5 L 4767.8,7616.04 L 4925.15,7706.89 Z "/>
<path stroke="none" transform="matrix(0.1 0 0 0.1 -381.65 -676.4)" d="M 5103.69,7717.03 L 5097.69,7706.63 L 5254.6,7616.04 L 5260.6,7619.5 L 5254.6,7629.89 L 5103.69,7717.03 Z "/>
<path stroke="none" transform="matrix(0.1 0 0 0.1 -381.65 -676.4)" d="M 3871.5,7169.5 A 144,144 0 1 0 4159.5,7169.5A 144,144 0 1 0 3871.5,7169.5Z " class="connection_in" stroke-width="18px"/>
</g>
</svg>