<svg xmlns="http://www.w3.org/2000/svg" xmlns:xlink="http://www.w3.org/1999/xlink" viewBox="0 0 129.89499999999998 189.9530000000001" style="background-color: #ffffff00" version="1.1">
<g transform="matrix(1 0 0 1 -2.455000000000041 -3.150000000000091)">
<text x="0" y="0" stroke="none" transform="matrix(0.1 0 0 0.1 48.2623 112.556)" font-style="normal" font-weight="bold" font-size="200px" font-family="Arial">
S</text>
<path stroke="none" transform="matrix(0.1 0 0 0.1 -499.65 -667.4)" d="M 5041.05,8293.58 L 5053.05,8300.51 L 5053.07,8585.03 L 5041.07,8585.03 L 5041.05,8293.58 Z "/>
<path stroke="none" transform="matrix(0.1 0 0 0.1 -499.65 -667.4)" d="M 5290.45,8149.58 L 5302.45,8156.51 L 5053.05,8300.51 L 5041.05,8293.58 L 5290.45,8149.58 Z "/>
<path stroke="none" transform="matrix(0.1 0 0 0.1 -499.65 -667.4)" d="M 5290.42,7861.59 L 5302.42,7868.52 L 5302.45,8156.51 L 5290.45,8149.58 L 5290.42,7861.59 Z "/>
<path stroke="none" transform="matrix(0.1 0 0 0.1 -499.65 -667.4)" d="M 5453.55,7767.41 L 5459.55,7777.8 L 5302.42,7868.52 L 5290.42,7861.59 L 5453.55,7767.41 Z "/>
<path stroke="none" transform="matrix(0.1 0 0 0.1 -499.65 -667.4)" d="M 5539.8,7429.61 L 5551.8,7436.54 L 5551.81,7618.22 L 5539.81,7618.23 L 5539.8,7429.61 Z "/>
<path stroke="none" transform="matrix(0.1 0 0 0.1 -499.65 -667.4)" d="M 5789.2,7285.61 L 5795.2,7289.07 L 5795.2,7296 L 5551.8,7436.54 L 5539.8,7429.61 L 5789.2,7285.61 Z "/>
<path stroke="none" transform="matrix(0.1 0 0 0.1 -499.65 -667.4)" d="M 6044.6,7426.14 L 6044.6,7440 L 5795.2,7296 L 5795.2,7289.07 L 5801.2,7285.61 L 6044.6,7426.14 Z "/>
<path stroke="none" transform="matrix(0.1 0 0 0.1 -499.65 -667.4)" d="M 6288,7285.61 L 6300,7292.54 L 6044.6,7440 L 6044.6,7426.14 L 6288,7285.61 Z "/>
<path stroke="none" transform="matrix(0.1 0 0 0.1 -499.65 -667.4)" d="M 6239.16,7253.95 L 6245.16,7264.34 L 6047.6,7378.41 L 6041.6,7368.02 L 6239.16,7253.95 Z "/>
<path stroke="none" transform="matrix(0.1 0 0 0.1 -499.65 -667.4)" d="M 6288,7004.54 L 6300,6997.61 L 6300,7292.54 L 6288,7285.61 L 6288,7004.54 Z "/>
<path stroke="none" transform="matrix(0.1 0 0 0.1 -499.65 -667.4)" d="M 6044.6,6864 L 6044.6,6850.14 L 6300,6997.61 L 6288,7004.54 L 6044.6,6864 Z "/>
<path stroke="none" transform="matrix(0.1 0 0 0.1 -499.65 -667.4)" d="M 6041.6,6922.13 L 6047.6,6911.73 L 6245.16,7025.8 L 6239.16,7036.2 L 6041.6,6922.13 Z "/>
<path stroke="none" transform="matrix(0.1 0 0 0.1 -499.65 -667.4)" d="M 5801.2,7004.54 L 5795.2,7001.07 L 5795.2,6994.14 L 6044.6,6850.14 L 6044.6,6864 L 5801.2,7004.54 Z "/>
<path stroke="none" transform="matrix(0.1 0 0 0.1 -499.65 -667.4)" d="M 5789.2,7004.54 L 5795.2,7001.07 L 5801.2,7004.54 L 5801.2,7285.61 L 5795.2,7289.07 L 5789.2,7285.61 L 5789.2,7004.54 Z "/>
<path stroke="none" transform="matrix(0.1 0 0 0.1 -499.65 -667.4)" d="M 5841.04,7031 L 5853.04,7031 L 5853.04,7259.14 L 5841.04,7259.14 L 5841.04,7031 Z "/>
<path stroke="none" transform="matrix(0.1 0 0 0.1 -499.65 -667.4)" d="M 5542.8,6862.27 L 5548.8,6851.88 L 5795.2,6994.14 L 5795.2,7001.07 L 5789.2,7004.54 L 5542.8,6862.27 Z "/>
<path stroke="none" transform="matrix(0.1 0 0 0.1 -499.65 -667.4)" d="M 5381.5,6869.5 A 144,144 0 1 0 5669.5,6869.5A 144,144 0 1 0 5381.5,6869.5Z " class="connection_in" stroke-width="18px"/>
</g>
</svg>