<svg xmlns="http://www.w3.org/2000/svg" xmlns:xlink="http://www.w3.org/1999/xlink" viewBox="0 0 158.17299999999994 64.4499999999999" style="background-color: #ffffff00" version="1.1">
<g transform="matrix(1 0 0 1 -3.500000000000057 -3.150000000000091)">
<text x="0" y="0" stroke="none" transform="matrix(0.1 0 0 0.1 115.786 29.3)" font-style="normal" font-weight="bold" font-size="200px" font-family="Arial">
NH</text>
<text x="0" y="0" stroke="none" transform="matrix(0.1 0 0 0.1 144.673 33.6)" font-style="normal" font-weight="bold" font-size="150px" font-family="Arial">
2</text>
<text x="0" y="0" stroke="none" transform="matrix(0.1 0 0 0.1 36.2627 65.6)" font-style="normal" font-weight="bold" font-size="200px" font-family="Arial">
HN</text>
<text x="0" y="0" stroke="none" transform="matrix(0.1 0 0 0.1 79.506 65.6)" font-style="normal" font-weight="bold" font-size="200px" font-family="Arial">
N</text>
<path stroke="none" transform="matrix(0.1 0 0 0.1 -451.65 -671.4)" d="M 5477.54,7022.26 L 5472.78,7017.5 L 5473.83,7010.85 L 5645.59,6955.02 L 5649.3,6966.43 L 5477.54,7022.26 Z "/>
<path stroke="none" transform="matrix(0.1 0 0 0.1 -451.65 -671.4)" d="M 5239.78,6855.71 L 5239.78,6840.88 L 5473.83,7010.85 L 5472.78,7017.5 L 5465.72,7019.79 L 5239.78,6855.71 Z "/>
<path stroke="none" transform="matrix(0.1 0 0 0.1 -451.65 -671.4)" d="M 5013.83,7019.79 L 5006.78,7017.5 L 5005.72,7010.85 L 5239.78,6840.88 L 5239.78,6855.71 L 5013.83,7019.79 Z "/>
<path stroke="none" transform="matrix(0.1 0 0 0.1 -451.65 -671.4)" d="M 5071.23,7042.16 L 5064.18,7032.45 L 5236.25,6907.5 L 5243.3,6917.21 L 5071.23,7042.16 Z "/>
<path stroke="none" transform="matrix(0.1 0 0 0.1 -451.65 -671.4)" d="M 4730.92,6934.21 L 4734.63,6922.79 L 5005.72,7010.85 L 5006.78,7017.5 L 5002.02,7022.26 L 4730.92,6934.21 Z "/>
<path stroke="none" transform="matrix(0.1 0 0 0.1 -451.65 -671.4)" d="M 5066.11,7180.76 L 5054.7,7184.46 L 5002.02,7022.26 L 5006.78,7017.5 L 5013.83,7019.79 L 5066.11,7180.76 Z "/>
<path stroke="none" transform="matrix(0.1 0 0 0.1 -451.65 -671.4)" d="M 5294.56,7285.5 L 5294.56,7297.5 L 5183.13,7297.5 L 5183.13,7285.5 L 5294.56,7285.5 Z "/>
<path stroke="none" transform="matrix(0.1 0 0 0.1 -451.65 -671.4)" d="M 5424.77,7184.72 L 5413.36,7181.01 L 5465.72,7019.79 L 5472.78,7017.5 L 5477.54,7022.26 L 5424.77,7184.72 Z "/>
<path stroke="none" transform="matrix(0.1 0 0 0.1 -451.65 -671.4)" d="M 5375.45,7168.7 L 5364.04,7164.99 L 5406.11,7035.46 L 5417.52,7039.17 L 5375.45,7168.7 Z "/>
<path stroke="none" transform="matrix(0.1 0 0 0.1 -451.65 -671.4)" d="M 4571.5,6909.5 A 144,144 0 1 0 4859.5,6909.5A 144,144 0 1 0 4571.5,6909.5Z " class="connection_in" stroke-width="18px"/>
</g>
</svg>