<svg xmlns="http://www.w3.org/2000/svg" xmlns:xlink="http://www.w3.org/1999/xlink" viewBox="0 0 197.84999999999997 165.44999999999993" style="background-color: #ffffff00" version="1.1">
<g transform="matrix(1 0 0 1 -3.500000000000057 -3.150000000000091)">
<text x="0" y="0" stroke="none" transform="matrix(0.1 0 0 0.1 116.708 87.3572)" font-style="normal" font-weight="bold" font-size="200px" font-family="Arial">
N</text>
<path stroke="none" transform="matrix(0.1 0 0 0.1 -419.65 -620.4)" d="M 4687.4,6560.14 L 4687.4,6567.07 L 4681.4,6570.54 L 4435,6428.27 L 4441,6417.88 L 4687.4,6560.14 Z "/>
<path stroke="none" transform="matrix(0.1 0 0 0.1 -419.65 -620.4)" d="M 4693.4,6851.61 L 4681.4,6858.54 L 4681.4,6570.54 L 4687.4,6567.07 L 4693.4,6570.54 L 4693.4,6851.61 Z "/>
<path stroke="none" transform="matrix(0.1 0 0 0.1 -419.65 -620.4)" d="M 4937,6992.14 L 4937,7006 L 4681.4,6858.54 L 4693.4,6851.61 L 4937,6992.14 Z "/>
<path stroke="none" transform="matrix(0.1 0 0 0.1 -419.65 -620.4)" d="M 4939.99,6933.99 L 4933.99,6944.38 L 4736.27,6830.31 L 4742.27,6819.92 L 4939.99,6933.99 Z "/>
<path stroke="none" transform="matrix(0.1 0 0 0.1 -419.65 -620.4)" d="M 5180.4,6851.61 L 5186.4,6855.07 L 5186.4,6862 L 4937,7006 L 4937,6992.14 L 5180.4,6851.61 Z "/>
<path stroke="none" transform="matrix(0.1 0 0 0.1 -419.65 -620.4)" d="M 5338.59,6936.01 L 5332.59,6946.41 L 5186.4,6862 L 5186.4,6855.07 L 5192.4,6851.61 L 5338.59,6936.01 Z "/>
<path stroke="none" transform="matrix(0.1 0 0 0.1 -419.65 -620.4)" d="M 5679.2,6851.61 L 5685.2,6855.07 L 5685.2,6862 L 5537.94,6947.03 L 5531.94,6936.63 L 5679.2,6851.61 Z "/>
<path stroke="none" transform="matrix(0.1 0 0 0.1 -419.65 -620.4)" d="M 5934.6,6992.14 L 5934.6,7006 L 5685.2,6862 L 5685.2,6855.07 L 5691.2,6851.61 L 5934.6,6992.14 Z "/>
<path stroke="none" transform="matrix(0.1 0 0 0.1 -419.65 -620.4)" d="M 6178,6851.61 L 6190,6858.54 L 5934.6,7006 L 5934.6,6992.14 L 6178,6851.61 Z "/>
<path stroke="none" transform="matrix(0.1 0 0 0.1 -419.65 -620.4)" d="M 6129.16,6819.95 L 6135.16,6830.34 L 5937.6,6944.41 L 5931.6,6934.02 L 6129.16,6819.95 Z "/>
<path stroke="none" transform="matrix(0.1 0 0 0.1 -419.65 -620.4)" d="M 6178,6570.54 L 6190,6563.61 L 6190,6858.54 L 6178,6851.61 L 6178,6570.54 Z "/>
<path stroke="none" transform="matrix(0.1 0 0 0.1 -419.65 -620.4)" d="M 5934.6,6430 L 5934.6,6416.14 L 6190,6563.61 L 6178,6570.54 L 5934.6,6430 Z "/>
<path stroke="none" transform="matrix(0.1 0 0 0.1 -419.65 -620.4)" d="M 5931.6,6488.13 L 5937.6,6477.73 L 6135.16,6591.8 L 6129.16,6602.2 L 5931.6,6488.13 Z "/>
<path stroke="none" transform="matrix(0.1 0 0 0.1 -419.65 -620.4)" d="M 5691.2,6570.54 L 5679.2,6563.61 L 5934.6,6416.14 L 5934.6,6430 L 5691.2,6570.54 Z "/>
<path stroke="none" transform="matrix(0.1 0 0 0.1 -419.65 -620.4)" d="M 5679.2,6563.61 L 5691.2,6570.54 L 5691.2,6851.61 L 5685.2,6855.07 L 5679.2,6851.61 L 5679.2,6563.61 Z "/>
<path stroke="none" transform="matrix(0.1 0 0 0.1 -419.65 -620.4)" d="M 5731.04,6597 L 5743.04,6597 L 5743.04,6825.14 L 5731.04,6825.14 L 5731.04,6597 Z "/>
<path stroke="none" transform="matrix(0.1 0 0 0.1 -419.65 -620.4)" d="M 5441.8,7283.61 L 5435.8,7287.07 L 5429.8,7283.61 L 5429.8,7104.74 L 5441.8,7104.74 L 5441.8,7283.61 Z "/>
<path stroke="none" transform="matrix(0.1 0 0 0.1 -419.65 -620.4)" d="M 5192.4,7434.54 L 5180.4,7427.61 L 5429.8,7283.61 L 5435.8,7287.07 L 5435.8,7294 L 5192.4,7434.54 Z "/>
<path stroke="none" transform="matrix(0.1 0 0 0.1 -419.65 -620.4)" d="M 5192.4,7715.61 L 5180.4,7722.54 L 5180.4,7427.61 L 5192.4,7434.54 L 5192.4,7715.61 Z "/>
<path stroke="none" transform="matrix(0.1 0 0 0.1 -419.65 -620.4)" d="M 5244.24,7689.14 L 5232.24,7689.14 L 5232.24,7461 L 5244.24,7461 L 5244.24,7689.14 Z "/>
<path stroke="none" transform="matrix(0.1 0 0 0.1 -419.65 -620.4)" d="M 5435.8,7856.14 L 5435.8,7870 L 5180.4,7722.54 L 5192.4,7715.61 L 5435.8,7856.14 Z "/>
<path stroke="none" transform="matrix(0.1 0 0 0.1 -419.65 -620.4)" d="M 5679.2,7715.61 L 5691.2,7722.54 L 5435.8,7870 L 5435.8,7856.14 L 5679.2,7715.61 Z "/>
<path stroke="none" transform="matrix(0.1 0 0 0.1 -419.65 -620.4)" d="M 5630.36,7683.95 L 5636.36,7694.34 L 5438.8,7808.41 L 5432.8,7798.02 L 5630.36,7683.95 Z "/>
<path stroke="none" transform="matrix(0.1 0 0 0.1 -419.65 -620.4)" d="M 5679.2,7434.54 L 5691.2,7427.61 L 5691.2,7722.54 L 5679.2,7715.61 L 5679.2,7434.54 Z "/>
<path stroke="none" transform="matrix(0.1 0 0 0.1 -419.65 -620.4)" d="M 5691.2,7427.61 L 5679.2,7434.54 L 5435.8,7294 L 5435.8,7287.07 L 5441.8,7283.61 L 5691.2,7427.61 Z "/>
<path stroke="none" transform="matrix(0.1 0 0 0.1 -419.65 -620.4)" d="M 5636.36,7455.8 L 5630.36,7466.2 L 5432.8,7352.13 L 5438.8,7341.73 L 5636.36,7455.8 Z "/>
<path stroke="none" transform="matrix(0.1 0 0 0.1 -419.65 -620.4)" d="M 5180.4,6570.54 L 5192.4,6563.61 L 5192.4,6851.61 L 5186.4,6855.07 L 5180.4,6851.61 L 5180.4,6570.54 Z "/>
<path stroke="none" transform="matrix(0.1 0 0 0.1 -419.65 -620.4)" d="M 5128.56,6597 L 5140.56,6597 L 5140.56,6825.14 L 5128.56,6825.14 L 5128.56,6597 Z "/>
<path stroke="none" transform="matrix(0.1 0 0 0.1 -419.65 -620.4)" d="M 4937,6430 L 4937,6416.14 L 5192.4,6563.61 L 5180.4,6570.54 L 4937,6430 Z "/>
<path stroke="none" transform="matrix(0.1 0 0 0.1 -419.65 -620.4)" d="M 4937,6416.14 L 4937,6430 L 4693.4,6570.54 L 4687.4,6567.07 L 4687.4,6560.14 L 4937,6416.14 Z "/>
<path stroke="none" transform="matrix(0.1 0 0 0.1 -419.65 -620.4)" d="M 4933.99,6477.76 L 4939.99,6488.16 L 4742.27,6602.23 L 4736.27,6591.83 L 4933.99,6477.76 Z "/>
<path stroke="none" transform="matrix(0.1 0 0 0.1 -419.65 -620.4)" d="M 4251.5,6399.5 A 144,144 0 1 0 4539.5,6399.5A 144,144 0 1 0 4251.5,6399.5Z " class="connection_in" stroke-width="18px"/>
</g>
</svg>