<svg xmlns="http://www.w3.org/2000/svg" xmlns:xlink="http://www.w3.org/1999/xlink" viewBox="0 0 164.51400000000007 111.40980000000013" style="background-color: #ffffff00" version="1.1">
<g transform="matrix(1 0 0 1 -3.500000000000057 -3.6041999999999987)">
<text x="0" y="0" stroke="none" transform="matrix(0.1 0 0 0.1 88.28 21.6042)" font-style="normal" font-weight="bold" font-size="200px" font-family="Arial">
O</text>
<text x="0" y="0" stroke="none" transform="matrix(0.1 0 0 0.1 112.483 62.5583)" font-style="normal" font-weight="bold" font-size="200px" font-family="Arial">
N</text>
<path stroke="none" transform="matrix(0.1 0 0 0.1 -443.65 -658.4)" d="M 5140.72,6846.55 L 5128.72,6839.62 L 5289.33,6746.89 L 5295.33,6757.28 L 5140.72,6846.55 Z "/>
<path stroke="none" transform="matrix(0.1 0 0 0.1 -443.65 -658.4)" d="M 5189.56,6878.21 L 5183.56,6867.82 L 5315.25,6791.79 L 5321.25,6802.18 L 5189.56,6878.21 Z "/>
<path stroke="none" transform="matrix(0.1 0 0 0.1 -443.65 -658.4)" d="M 5140.72,7127.61 L 5134.72,7131.07 L 5128.72,7127.61 L 5128.72,6839.62 L 5140.72,6846.55 L 5140.72,7127.61 Z "/>
<path stroke="none" transform="matrix(0.1 0 0 0.1 -443.65 -658.4)" d="M 4891.22,7278.69 L 4885.22,7275.23 L 4885.22,7268.3 L 5128.72,7127.61 L 5134.72,7131.07 L 5134.73,7138 L 4891.22,7278.69 Z "/>
<path stroke="none" transform="matrix(0.1 0 0 0.1 -443.65 -658.4)" d="M 4632.8,7136.43 L 4638.8,7126.03 L 4885.22,7268.3 L 4885.22,7275.23 L 4879.22,7278.69 L 4632.8,7136.43 Z "/>
<path stroke="none" transform="matrix(0.1 0 0 0.1 -443.65 -658.4)" d="M 4891.22,7559.75 L 4879.22,7566.68 L 4879.22,7278.69 L 4885.22,7275.23 L 4891.22,7278.69 L 4891.22,7559.75 Z "/>
<path stroke="none" transform="matrix(0.1 0 0 0.1 -443.65 -658.4)" d="M 4943.06,7533.29 L 4931.06,7533.29 L 4931.06,7305.15 L 4943.06,7305.15 L 4943.06,7533.29 Z "/>
<path stroke="none" transform="matrix(0.1 0 0 0.1 -443.65 -658.4)" d="M 5134.64,7700.29 L 5134.64,7714.14 L 4879.22,7566.68 L 4891.22,7559.75 L 5134.64,7700.29 Z "/>
<path stroke="none" transform="matrix(0.1 0 0 0.1 -443.65 -658.4)" d="M 5378.05,7559.76 L 5390.05,7566.69 L 5134.64,7714.14 L 5134.64,7700.29 L 5378.05,7559.76 Z "/>
<path stroke="none" transform="matrix(0.1 0 0 0.1 -443.65 -658.4)" d="M 5329.22,7528.1 L 5335.22,7538.49 L 5137.64,7652.56 L 5131.64,7642.16 L 5329.22,7528.1 Z "/>
<path stroke="none" transform="matrix(0.1 0 0 0.1 -443.65 -658.4)" d="M 5378.14,7278.53 L 5384.14,7275.07 L 5390.14,7278.53 L 5390.05,7566.69 L 5378.05,7559.76 L 5378.14,7278.53 Z "/>
<path stroke="none" transform="matrix(0.1 0 0 0.1 -443.65 -658.4)" d="M 5384.14,7268.14 L 5384.14,7275.07 L 5378.14,7278.53 L 5134.73,7138 L 5134.72,7131.07 L 5140.72,7127.61 L 5384.14,7268.14 Z "/>
<path stroke="none" transform="matrix(0.1 0 0 0.1 -443.65 -658.4)" d="M 5335.29,7299.8 L 5329.29,7310.19 L 5131.73,7196.13 L 5137.73,7185.74 L 5335.29,7299.8 Z "/>
<path stroke="none" transform="matrix(0.1 0 0 0.1 -443.65 -658.4)" d="M 5528.02,7185.08 L 5534.02,7195.47 L 5390.14,7278.53 L 5384.14,7275.07 L 5384.14,7268.14 L 5528.02,7185.08 Z "/>
<path stroke="none" transform="matrix(0.1 0 0 0.1 -443.65 -658.4)" d="M 5658.04,6839.76 L 5669.06,6849.68 L 5649.93,7032.29 L 5638,7031.04 L 5658.04,6839.76 Z "/>
<path stroke="none" transform="matrix(0.1 0 0 0.1 -443.65 -658.4)" d="M 5948.29,6777.97 L 5942.26,6791.52 L 5669.06,6849.68 L 5658.04,6839.76 L 5948.29,6777.97 Z "/>
<path stroke="none" transform="matrix(0.1 0 0 0.1 -443.65 -658.4)" d="M 6096.64,7034.93 L 6081.89,7033.38 L 5942.26,6791.52 L 5948.29,6777.97 L 6096.64,7034.93 Z "/>
<path stroke="none" transform="matrix(0.1 0 0 0.1 -443.65 -658.4)" d="M 5898.12,7255.56 L 5895.04,7241.05 L 6081.89,7033.38 L 6096.64,7034.93 L 5898.12,7255.56 Z "/>
<path stroke="none" transform="matrix(0.1 0 0 0.1 -443.65 -658.4)" d="M 5895.04,7241.05 L 5898.12,7255.56 L 5731.29,7181.21 L 5736.17,7170.25 L 5895.04,7241.05 Z "/>
<path stroke="none" transform="matrix(0.1 0 0 0.1 -443.65 -658.4)" d="M 4491.5,7149.5 A 144,144 0 1 0 4779.5,7149.5A 144,144 0 1 0 4491.5,7149.5Z " class="connection_in" stroke-width="18px"/>
</g>
</svg>