<svg xmlns="http://www.w3.org/2000/svg" xmlns:xlink="http://www.w3.org/1999/xlink" viewBox="0 0 319.1329999999999 80.70300000000003" style="background-color: #ffffff00" version="1.1">
<g transform="matrix(1 0 0 1 -3.500000000000057 -2.75)">
<text x="0" y="0" stroke="none" transform="matrix(0.1 0 0 0.1 300.633 43.0703)" font-style="normal" font-weight="bold" font-size="200px" font-family="Arial">
F</text>
<text x="0" y="0" stroke="none" transform="matrix(0.1 0 0 0.1 166.232 33.7103)" font-style="normal" font-weight="bold" font-size="200px" font-family="Arial">
S</text>
<path stroke="none" transform="matrix(0.1 0 0 0.1 -394.65 -462.8)" d="M 4913.71,5298.53 L 4913.72,5291.6 L 4919.72,5288.14 L 5166.12,5430.41 L 5160.12,5440.8 L 4913.71,5298.53 Z "/>
<path stroke="none" transform="matrix(0.1 0 0 0.1 -394.65 -462.8)" d="M 4664.12,5442.53 L 4664.12,5428.68 L 4907.72,5288.14 L 4913.72,5291.6 L 4913.71,5298.53 L 4664.12,5442.53 Z "/>
<path stroke="none" transform="matrix(0.1 0 0 0.1 -394.65 -462.8)" d="M 4408.72,5295.07 L 4420.72,5288.14 L 4664.12,5428.68 L 4664.12,5442.53 L 4408.72,5295.07 Z "/>
<path stroke="none" transform="matrix(0.1 0 0 0.1 -394.65 -462.8)" d="M 4463.55,5266.87 L 4469.55,5256.48 L 4667.13,5370.55 L 4661.13,5380.95 L 4463.55,5266.87 Z "/>
<path stroke="none" transform="matrix(0.1 0 0 0.1 -394.65 -462.8)" d="M 4408.72,5007.07 L 4414.72,5003.6 L 4420.72,5007.07 L 4420.72,5288.14 L 4408.72,5295.07 L 4408.72,5007.07 Z "/>
<path stroke="none" transform="matrix(0.1 0 0 0.1 -394.65 -462.8)" d="M 4162.32,4864.8 L 4168.32,4854.41 L 4414.72,4996.67 L 4414.72,5003.6 L 4408.72,5007.07 L 4162.32,4864.8 Z "/>
<path stroke="none" transform="matrix(0.1 0 0 0.1 -394.65 -462.8)" d="M 4664.12,4852.68 L 4664.12,4866.53 L 4420.72,5007.07 L 4414.72,5003.6 L 4414.72,4996.67 L 4664.12,4852.68 Z "/>
<path stroke="none" transform="matrix(0.1 0 0 0.1 -394.65 -462.8)" d="M 4661.13,4914.26 L 4667.13,4924.65 L 4469.55,5038.73 L 4463.55,5028.33 L 4661.13,4914.26 Z "/>
<path stroke="none" transform="matrix(0.1 0 0 0.1 -394.65 -462.8)" d="M 4913.71,4996.68 L 4913.72,5003.6 L 4907.72,5007.07 L 4664.12,4866.53 L 4664.12,4852.68 L 4913.71,4996.68 Z "/>
<path stroke="none" transform="matrix(0.1 0 0 0.1 -394.65 -462.8)" d="M 4907.72,5007.07 L 4913.72,5003.6 L 4919.72,5007.07 L 4919.72,5288.14 L 4913.72,5291.6 L 4907.72,5288.14 L 4907.72,5007.07 Z "/>
<path stroke="none" transform="matrix(0.1 0 0 0.1 -394.65 -462.8)" d="M 4855.88,5033.54 L 4867.88,5033.54 L 4867.88,5261.66 L 4855.88,5261.66 L 4855.88,5033.54 Z "/>
<path stroke="none" transform="matrix(0.1 0 0 0.1 -394.65 -462.8)" d="M 5163.12,4852.67 L 5163.12,4866.53 L 4919.72,5007.07 L 4913.72,5003.6 L 4913.71,4996.68 L 5163.12,4852.67 Z "/>
<path stroke="none" transform="matrix(0.1 0 0 0.1 -394.65 -462.8)" d="M 5412.87,4996.88 L 5412.52,5003.6 L 5406.87,5007.27 L 5163.12,4866.53 L 5163.12,4852.67 L 5412.87,4996.88 Z "/>
<path stroke="none" transform="matrix(0.1 0 0 0.1 -394.65 -462.8)" d="M 5448.03,5285.04 L 5437,5294.96 L 5406.87,5007.27 L 5412.52,5003.6 L 5418.94,5007.31 L 5448.03,5285.04 Z "/>
<path stroke="none" transform="matrix(0.1 0 0 0.1 -394.65 -462.8)" d="M 5496.11,5246.52 L 5484.18,5247.77 L 5462.02,5036.28 L 5473.96,5035.03 L 5496.11,5246.52 Z "/>
<path stroke="none" transform="matrix(0.1 0 0 0.1 -394.65 -462.8)" d="M 5721.3,5343.23 L 5727.33,5356.78 L 5437,5294.96 L 5448.03,5285.04 L 5721.3,5343.23 Z "/>
<path stroke="none" transform="matrix(0.1 0 0 0.1 -394.65 -462.8)" d="M 5860.94,5101.38 L 5868.32,5100.6 L 5871.98,5106.25 L 5727.33,5356.78 L 5721.3,5343.23 L 5860.94,5101.38 Z "/>
<path stroke="none" transform="matrix(0.1 0 0 0.1 -394.65 -462.8)" d="M 5799.39,5104.31 L 5809.78,5110.31 L 5703.46,5294.46 L 5693.07,5288.46 L 5799.39,5104.31 Z "/>
<path stroke="none" transform="matrix(0.1 0 0 0.1 -394.65 -462.8)" d="M 6150.64,5064.8 L 6154.72,5070.4 L 6151.9,5076.73 L 5871.98,5106.25 L 5868.32,5100.6 L 5870.73,5094.32 L 6150.64,5064.8 Z "/>
<path stroke="none" transform="matrix(0.1 0 0 0.1 -394.65 -462.8)" d="M 6326.74,5297.07 L 6321.1,5309.73 L 6151.9,5076.73 L 6154.72,5070.4 L 6161.61,5069.68 L 6326.74,5297.07 Z "/>
<path stroke="none" transform="matrix(0.1 0 0 0.1 -394.65 -462.8)" d="M 6606.24,5267.8 L 6614.39,5279.01 L 6321.1,5309.73 L 6326.74,5297.07 L 6606.24,5267.8 Z "/>
<path stroke="none" transform="matrix(0.1 0 0 0.1 -394.65 -462.8)" d="M 6574.52,5219 L 6575.77,5230.94 L 6348.9,5254.7 L 6347.65,5242.77 L 6574.52,5219 Z "/>
<path stroke="none" transform="matrix(0.1 0 0 0.1 -394.65 -462.8)" d="M 6720.63,5010.93 L 6727.52,5010.2 L 6731.59,5015.81 L 6614.39,5279.01 L 6606.24,5267.8 L 6720.63,5010.93 Z "/>
<path stroke="none" transform="matrix(0.1 0 0 0.1 -394.65 -462.8)" d="M 6935.88,4982.34 L 6937.13,4994.28 L 6731.59,5015.81 L 6727.52,5010.2 L 6730.34,5003.87 L 6935.88,4982.34 Z "/>
<path stroke="none" transform="matrix(0.1 0 0 0.1 -394.65 -462.8)" d="M 6555.5,4783.53 L 6561.13,4770.87 L 6730.34,5003.87 L 6727.52,5010.2 L 6720.63,5010.93 L 6555.5,4783.53 Z "/>
<path stroke="none" transform="matrix(0.1 0 0 0.1 -394.65 -462.8)" d="M 6529.12,4835.41 L 6538.83,4828.36 L 6672.85,5012.92 L 6663.14,5019.98 L 6529.12,4835.41 Z "/>
<path stroke="none" transform="matrix(0.1 0 0 0.1 -394.65 -462.8)" d="M 6275.99,4813.01 L 6267.84,4801.8 L 6561.13,4770.87 L 6555.5,4783.53 L 6275.99,4813.01 Z "/>
<path stroke="none" transform="matrix(0.1 0 0 0.1 -394.65 -462.8)" d="M 6267.84,4801.8 L 6275.99,4813.01 L 6161.61,5069.68 L 6154.72,5070.4 L 6150.64,5064.8 L 6267.84,4801.8 Z "/>
<path stroke="none" transform="matrix(0.1 0 0 0.1 -394.65 -462.8)" d="M 6301.61,4853.37 L 6312.57,4858.25 L 6219.72,5066.61 L 6208.76,5061.72 L 6301.61,4853.37 Z "/>
<path stroke="none" transform="matrix(0.1 0 0 0.1 -394.65 -462.8)" d="M 5743.44,4970.96 L 5752.35,4962.92 L 5870.73,5094.32 L 5868.32,5100.6 L 5860.94,5101.38 L 5743.44,4970.96 Z "/>
<path stroke="none" transform="matrix(0.1 0 0 0.1 -394.65 -462.8)" d="M 5580.75,4922.19 L 5585.63,4933.16 L 5418.94,5007.31 L 5412.52,5003.6 L 5412.87,4996.88 L 5580.75,4922.19 Z "/>
<path stroke="none" transform="matrix(0.1 0 0 0.1 -394.65 -462.8)" d="M 4001.5,4819.5 A 144,144 0 1 0 4289.5,4819.5A 144,144 0 1 0 4001.5,4819.5Z " class="connection_in" stroke-width="18px"/>
</g>
</svg>