<svg xmlns="http://www.w3.org/2000/svg" xmlns:xlink="http://www.w3.org/1999/xlink" viewBox="0 0 229.08000000000004 162.39999999999998" style="background-color: #ffffff00" version="1.1">
<g transform="matrix(1 0 0 1 -2.4700000000000273 -2.2000000000000455)">
<path stroke="none" transform="matrix(0.1 0 0 0.1 -412.65 -627.4)" d="M 4417.6,7622.39 L 4423.6,7612 L 4429.6,7615.46 L 4429.6,7900 L 4417.6,7900 L 4417.6,7622.39 Z "/>
<path stroke="none" transform="matrix(0.1 0 0 0.1 -412.65 -627.4)" d="M 4177.2,7761.2 L 4171.2,7750.8 L 4411.6,7612 L 4423.6,7612 L 4417.6,7622.39 L 4177.2,7761.2 Z "/>
<path stroke="none" transform="matrix(0.1 0 0 0.1 -412.65 -627.4)" d="M 4171.2,7473.2 L 4177.2,7462.8 L 4423.6,7605.07 L 4423.6,7612 L 4411.6,7612 L 4171.2,7473.2 Z "/>
<path stroke="none" transform="matrix(0.1 0 0 0.1 -412.65 -627.4)" d="M 4667,7464.54 L 4673,7468 L 4673,7474.93 L 4429.6,7615.46 L 4423.6,7612 L 4423.6,7605.07 L 4667,7464.54 Z "/>
<path stroke="none" transform="matrix(0.1 0 0 0.1 -412.65 -627.4)" d="M 4667,7176.54 L 4679,7183.46 L 4679,7464.54 L 4673,7468 L 4667,7464.54 L 4667,7176.54 Z "/>
<path stroke="none" transform="matrix(0.1 0 0 0.1 -412.65 -627.4)" d="M 4922.4,7029.07 L 4922.4,7042.93 L 4679,7183.46 L 4667,7176.54 L 4922.4,7029.07 Z "/>
<path stroke="none" transform="matrix(0.1 0 0 0.1 -412.65 -627.4)" d="M 4919.4,7090.66 L 4925.4,7101.05 L 4727.84,7215.12 L 4721.84,7204.73 L 4919.4,7090.66 Z "/>
<path stroke="none" transform="matrix(0.1 0 0 0.1 -412.65 -627.4)" d="M 5171.8,7173.07 L 5171.8,7180 L 5165.8,7183.46 L 4922.4,7042.93 L 4922.4,7029.07 L 5171.8,7173.07 Z "/>
<path stroke="none" transform="matrix(0.1 0 0 0.1 -412.65 -627.4)" d="M 5415.2,7032.54 L 5421.2,7036 L 5421.2,7042.93 L 5177.8,7183.46 L 5171.8,7180 L 5171.8,7173.07 L 5415.2,7032.54 Z "/>
<path stroke="none" transform="matrix(0.1 0 0 0.1 -412.65 -627.4)" d="M 5670.6,7173.07 L 5670.6,7186.93 L 5421.2,7042.93 L 5421.2,7036 L 5427.2,7032.54 L 5670.6,7173.07 Z "/>
<path stroke="none" transform="matrix(0.1 0 0 0.1 -412.65 -627.4)" d="M 5914,7032.54 L 5926,7039.46 L 5670.6,7186.93 L 5670.6,7173.07 L 5914,7032.54 Z "/>
<path stroke="none" transform="matrix(0.1 0 0 0.1 -412.65 -627.4)" d="M 5865.16,7000.88 L 5871.16,7011.27 L 5673.6,7125.34 L 5667.6,7114.95 L 5865.16,7000.88 Z "/>
<path stroke="none" transform="matrix(0.1 0 0 0.1 -412.65 -627.4)" d="M 5914,6751.46 L 5920,6748 L 5926,6751.46 L 5926,7039.46 L 5914,7032.54 L 5914,6751.46 Z "/>
<path stroke="none" transform="matrix(0.1 0 0 0.1 -412.65 -627.4)" d="M 6163.4,6600.54 L 6169.4,6604 L 6169.4,6610.93 L 5926,6751.46 L 5920,6748 L 5920,6741.07 L 6163.4,6600.54 Z "/>
<path stroke="none" transform="matrix(0.1 0 0 0.1 -412.65 -627.4)" d="M 6163.4,6316 L 6175.4,6316 L 6175.4,6593.61 L 6169.4,6604 L 6163.4,6600.54 L 6163.4,6316 Z "/>
<path stroke="none" transform="matrix(0.1 0 0 0.1 -412.65 -627.4)" d="M 6416,6454.8 L 6422,6465.2 L 6181.41,6604 L 6169.4,6604 L 6175.4,6593.61 L 6416,6454.8 Z "/>
<path stroke="none" transform="matrix(0.1 0 0 0.1 -412.65 -627.4)" d="M 6422,6742.8 L 6416,6753.2 L 6169.4,6610.93 L 6169.4,6604 L 6181.41,6604 L 6422,6742.8 Z "/>
<path stroke="none" transform="matrix(0.1 0 0 0.1 -412.65 -627.4)" d="M 5670.6,6610.93 L 5670.6,6597.07 L 5920,6741.07 L 5920,6748 L 5914,6751.46 L 5670.6,6610.93 Z "/>
<path stroke="none" transform="matrix(0.1 0 0 0.1 -412.65 -627.4)" d="M 5667.6,6669.05 L 5673.6,6658.66 L 5871.16,6772.73 L 5865.16,6783.12 L 5667.6,6669.05 Z "/>
<path stroke="none" transform="matrix(0.1 0 0 0.1 -412.65 -627.4)" d="M 5427.2,6751.46 L 5421.2,6748 L 5421.2,6741.07 L 5670.6,6597.07 L 5670.6,6610.93 L 5427.2,6751.46 Z "/>
<path stroke="none" transform="matrix(0.1 0 0 0.1 -412.65 -627.4)" d="M 5415.2,6751.46 L 5421.2,6748 L 5427.2,6751.46 L 5427.2,7032.54 L 5421.2,7036 L 5415.2,7032.54 L 5415.2,6751.46 Z "/>
<path stroke="none" transform="matrix(0.1 0 0 0.1 -412.65 -627.4)" d="M 5467.04,6777.93 L 5479.04,6777.93 L 5479.04,7006.07 L 5467.04,7006.07 L 5467.04,6777.93 Z "/>
<path stroke="none" transform="matrix(0.1 0 0 0.1 -412.65 -627.4)" d="M 5168.8,6609.2 L 5174.8,6598.8 L 5421.2,6741.07 L 5421.2,6748 L 5415.2,6751.46 L 5168.8,6609.2 Z "/>
<path stroke="none" transform="matrix(0.1 0 0 0.1 -412.65 -627.4)" d="M 5177.8,7471.46 L 5165.8,7464.54 L 5165.8,7183.46 L 5171.8,7180 L 5177.8,7183.46 L 5177.8,7471.46 Z "/>
<path stroke="none" transform="matrix(0.1 0 0 0.1 -412.65 -627.4)" d="M 5125.96,7438.07 L 5113.96,7438.07 L 5113.96,7209.93 L 5125.96,7209.93 L 5125.96,7438.07 Z "/>
<path stroke="none" transform="matrix(0.1 0 0 0.1 -412.65 -627.4)" d="M 4922.4,7618.93 L 4922.4,7605.07 L 5165.8,7464.54 L 5177.8,7471.46 L 4922.4,7618.93 Z "/>
<path stroke="none" transform="matrix(0.1 0 0 0.1 -412.65 -627.4)" d="M 4922.4,7605.07 L 4922.4,7618.93 L 4673,7474.93 L 4673,7468 L 4679,7464.54 L 4922.4,7605.07 Z "/>
<path stroke="none" transform="matrix(0.1 0 0 0.1 -412.65 -627.4)" d="M 4925.4,7546.95 L 4919.4,7557.34 L 4721.84,7443.27 L 4727.84,7432.88 L 4925.4,7546.95 Z "/>
<path stroke="none" transform="matrix(0.1 0 0 0.1 -412.65 -627.4)" d="M 5001.5,6589.5 A 144,144 0 1 0 5289.5,6589.5A 144,144 0 1 0 5001.5,6589.5Z " class="connection_in" stroke-width="18px"/>
</g>
</svg>