<svg xmlns="http://www.w3.org/2000/svg" xmlns:xlink="http://www.w3.org/1999/xlink" viewBox="0 0 319.84999999999997 127.24999999999991" style="background-color: #ffffff00" version="1.1">
<g transform="matrix(1 0 0 1 -3.500000000000057 -3.150000000000091)">
<text x="0" y="0" stroke="none" transform="matrix(0.1 0 0 0.1 263.392 85.2)" font-style="normal" font-weight="bold" font-size="200px" font-family="Arial">
O</text>
<text x="0" y="0" stroke="none" transform="matrix(0.1 0 0 0.1 238.452 128.4)" font-style="normal" font-weight="bold" font-size="200px" font-family="Arial">
O</text>
<text x="0" y="0" stroke="none" transform="matrix(0.1 0 0 0.1 214.068 68.5166)" font-style="normal" font-weight="bold" font-size="200px" font-family="Arial">
H</text>
<text x="0" y="0" stroke="none" transform="matrix(0.1 0 0 0.1 214.068 85.2)" font-style="normal" font-weight="bold" font-size="200px" font-family="Arial">
N</text>
<text x="0" y="0" stroke="none" transform="matrix(0.1 0 0 0.1 139.248 99.6)" font-style="normal" font-weight="bold" font-size="200px" font-family="Arial">
N</text>
<text x="0" y="0" stroke="none" transform="matrix(0.1 0 0 0.1 139.248 116.283)" font-style="normal" font-weight="bold" font-size="200px" font-family="Arial">
H</text>
<text x="0" y="0" stroke="none" transform="matrix(0.1 0 0 0.1 114.86 85.2)" font-style="normal" font-weight="bold" font-size="200px" font-family="Arial">
S</text>
<text x="0" y="0" stroke="none" transform="matrix(0.1 0 0 0.1 99.3517 110.14)" font-style="normal" font-weight="bold" font-size="200px" font-family="Arial">
O</text>
<text x="0" y="0" stroke="none" transform="matrix(0.1 0 0 0.1 128.152 60.26)" font-style="normal" font-weight="bold" font-size="200px" font-family="Arial">
O</text>
<path stroke="none" transform="matrix(0.1 0 0 0.1 -367.65 -640.4)" d="M 6631.6,7324.96 L 6637.6,7321.5 L 6643.6,7331.89 L 6643.6,7609.5 L 6631.6,7609.5 L 6631.6,7324.96 Z "/>
<path stroke="none" transform="matrix(0.1 0 0 0.1 -367.65 -640.4)" d="M 6890,7460.3 L 6884,7470.7 L 6643.6,7331.89 L 6637.6,7321.5 L 6649.6,7321.5 L 6890,7460.3 Z "/>
<path stroke="none" transform="matrix(0.1 0 0 0.1 -367.65 -640.4)" d="M 6884,7172.3 L 6890,7182.7 L 6649.6,7321.5 L 6637.6,7321.5 L 6637.6,7314.57 L 6884,7172.3 Z "/>
<path stroke="none" transform="matrix(0.1 0 0 0.1 -367.65 -640.4)" d="M 6477.43,7235.95 L 6483.43,7225.56 L 6637.6,7314.57 L 6637.6,7321.5 L 6631.6,7324.96 L 6477.43,7235.95 Z "/>
<path stroke="none" transform="matrix(0.1 0 0 0.1 -367.65 -640.4)" d="M 6138.8,7328.43 L 6138.8,7314.57 L 6293.41,7225.3 L 6299.41,7235.69 L 6138.8,7328.43 Z "/>
<path stroke="none" transform="matrix(0.1 0 0 0.1 -367.65 -640.4)" d="M 6170.72,7506.67 L 6158.72,7506.67 L 6158.72,7306.53 L 6170.72,7306.53 L 6170.72,7506.67 Z "/>
<path stroke="none" transform="matrix(0.1 0 0 0.1 -367.65 -640.4)" d="M 6118.88,7506.67 L 6106.88,7506.67 L 6106.88,7306.53 L 6118.88,7306.53 L 6118.88,7506.67 Z "/>
<path stroke="none" transform="matrix(0.1 0 0 0.1 -367.65 -640.4)" d="M 5987.92,7241.31 L 5993.92,7230.92 L 6138.8,7314.57 L 6138.8,7328.43 L 5987.92,7241.31 Z "/>
<path stroke="none" transform="matrix(0.1 0 0 0.1 -367.65 -640.4)" d="M 5640,7328.43 L 5640,7314.57 L 5783.8,7231.54 L 5789.8,7241.93 L 5640,7328.43 Z "/>
<path stroke="none" transform="matrix(0.1 0 0 0.1 -367.65 -640.4)" d="M 5390.6,7184.43 L 5390.6,7170.57 L 5640,7314.57 L 5640,7328.43 L 5390.6,7184.43 Z "/>
<path stroke="none" transform="matrix(0.1 0 0 0.1 -367.65 -640.4)" d="M 5243.34,7269.45 L 5237.34,7259.06 L 5390.6,7170.57 L 5390.6,7184.43 L 5243.34,7269.45 Z "/>
<path stroke="none" transform="matrix(0.1 0 0 0.1 -367.65 -640.4)" d="M 4978.13,7234.27 L 4984.13,7223.88 L 5043.99,7258.44 L 5037.99,7268.83 L 4978.13,7234.27 Z "/>
<path stroke="none" transform="matrix(0.1 0 0 0.1 -367.65 -640.4)" d="M 4827.52,7352.66 L 4817.13,7346.66 L 4854.24,7282.39 L 4864.63,7288.39 L 4827.52,7352.66 Z "/>
<path stroke="none" transform="matrix(0.1 0 0 0.1 -367.65 -640.4)" d="M 4782.63,7326.74 L 4772.24,7320.74 L 4809.35,7256.47 L 4819.74,7262.47 L 4782.63,7326.74 Z "/>
<path stroke="none" transform="matrix(0.1 0 0 0.1 -367.65 -640.4)" d="M 4953.56,7006.7 L 4963.95,7012.7 L 4926.08,7078.28 L 4915.69,7072.28 L 4953.56,7006.7 Z "/>
<path stroke="none" transform="matrix(0.1 0 0 0.1 -367.65 -640.4)" d="M 4998.45,7032.62 L 5008.84,7038.62 L 4970.98,7104.2 L 4960.58,7098.2 L 4998.45,7032.62 Z "/>
<path stroke="none" transform="matrix(0.1 0 0 0.1 -367.65 -640.4)" d="M 4642.4,7040.43 L 4642.4,7033.5 L 4648.4,7030.04 L 4808.87,7122.69 L 4802.87,7133.08 L 4642.4,7040.43 Z "/>
<path stroke="none" transform="matrix(0.1 0 0 0.1 -367.65 -640.4)" d="M 4636.4,6748.96 L 4648.4,6742.04 L 4648.4,7030.04 L 4642.4,7033.5 L 4636.4,7030.04 L 4636.4,6748.96 Z "/>
<path stroke="none" transform="matrix(0.1 0 0 0.1 -367.65 -640.4)" d="M 4393,6608.43 L 4393,6594.57 L 4648.4,6742.04 L 4636.4,6748.96 L 4393,6608.43 Z "/>
<path stroke="none" transform="matrix(0.1 0 0 0.1 -367.65 -640.4)" d="M 4389.99,6666.55 L 4395.99,6656.16 L 4593.56,6770.23 L 4587.56,6780.62 L 4389.99,6666.55 Z "/>
<path stroke="none" transform="matrix(0.1 0 0 0.1 -367.65 -640.4)" d="M 4149.4,6748.97 L 4143.4,6745.5 L 4143.4,6738.57 L 4393,6594.57 L 4393,6608.43 L 4149.4,6748.97 Z "/>
<path stroke="none" transform="matrix(0.1 0 0 0.1 -367.65 -640.4)" d="M 3891,6606.7 L 3897,6596.3 L 4143.4,6738.57 L 4143.4,6745.5 L 4137.4,6748.96 L 3891,6606.7 Z "/>
<path stroke="none" transform="matrix(0.1 0 0 0.1 -367.65 -640.4)" d="M 4149.4,7030.03 L 4137.4,7036.97 L 4137.4,6748.96 L 4143.4,6745.5 L 4149.4,6748.97 L 4149.4,7030.03 Z "/>
<path stroke="none" transform="matrix(0.1 0 0 0.1 -367.65 -640.4)" d="M 4201.24,7003.56 L 4189.24,7003.56 L 4189.24,6775.44 L 4201.24,6775.44 L 4201.24,7003.56 Z "/>
<path stroke="none" transform="matrix(0.1 0 0 0.1 -367.65 -640.4)" d="M 4393,7170.57 L 4393,7184.43 L 4137.4,7036.97 L 4149.4,7030.03 L 4393,7170.57 Z "/>
<path stroke="none" transform="matrix(0.1 0 0 0.1 -367.65 -640.4)" d="M 4393,7184.43 L 4393,7170.57 L 4636.4,7030.04 L 4642.4,7033.5 L 4642.4,7040.43 L 4393,7184.43 Z "/>
<path stroke="none" transform="matrix(0.1 0 0 0.1 -367.65 -640.4)" d="M 4395.99,7122.84 L 4389.99,7112.45 L 4587.56,6998.38 L 4593.56,7008.77 L 4395.99,7122.84 Z "/>
<path stroke="none" transform="matrix(0.1 0 0 0.1 -367.65 -640.4)" d="M 3731.5,6599.5 A 144,144 0 1 0 4019.5,6599.5A 144,144 0 1 0 3731.5,6599.5Z " class="connection_in" stroke-width="18px"/>
</g>
</svg>