<svg xmlns="http://www.w3.org/2000/svg" xmlns:xlink="http://www.w3.org/1999/xlink" viewBox="0 0 254.01999999999998 123.0833" style="background-color: #ffffff00" version="1.1">
<g transform="matrix(1 0 0 1 -2.330000000000041 -3.5167)">
<text x="0" y="0" stroke="none" transform="matrix(0.1 0 0 0.1 171.988 107.917)" font-style="normal" font-weight="bold" font-size="200px" font-family="Arial">
N</text>
<text x="0" y="0" stroke="none" transform="matrix(0.1 0 0 0.1 171.988 124.6)" font-style="normal" font-weight="bold" font-size="200px" font-family="Arial">
H</text>
<text x="0" y="0" stroke="none" transform="matrix(0.1 0 0 0.1 71.6717 107.917)" font-style="normal" font-weight="bold" font-size="200px" font-family="Arial">
O</text>
<text x="0" y="0" stroke="none" transform="matrix(0.1 0 0 0.1 171.988 50.3166)" font-style="normal" font-weight="bold" font-size="200px" font-family="Arial">
N</text>
<text x="0" y="0" stroke="none" transform="matrix(0.1 0 0 0.1 186.432 42.4666)" font-style="normal" font-weight="bold" font-size="150px" font-family="Arial">
+</text>
<text x="0" y="0" stroke="none" transform="matrix(0.1 0 0 0.1 171.432 21.5167)" font-style="normal" font-weight="bold" font-size="200px" font-family="Arial">
O</text>
<text x="0" y="0" stroke="none" transform="matrix(0.1 0 0 0.1 196.392 64.7167)" font-style="normal" font-weight="bold" font-size="200px" font-family="Arial">
O</text>
<text x="0" y="0" stroke="none" transform="matrix(0.1 0 0 0.1 211.948 56.8667)" font-style="normal" font-weight="bold" font-size="150px" font-family="Arial">
-</text>
<path stroke="none" transform="matrix(0.1 0 0 0.1 -400.65 -646.4)" d="M 6297.6,7471.59 L 6297.6,7457.74 L 6544,7315.47 L 6550,7325.86 L 6297.6,7471.59 Z "/>
<path stroke="none" transform="matrix(0.1 0 0 0.1 -400.65 -646.4)" d="M 6048.2,7327.59 L 6048.2,7313.74 L 6297.6,7457.74 L 6297.6,7471.59 L 6048.2,7327.59 Z "/>
<path stroke="none" transform="matrix(0.1 0 0 0.1 -400.65 -646.4)" d="M 5900.75,7412.66 L 5894.75,7402.27 L 6048.2,7313.74 L 6048.2,7327.59 L 5900.75,7412.66 Z "/>
<path stroke="none" transform="matrix(0.1 0 0 0.1 -400.65 -646.4)" d="M 5549.2,7327.59 L 5549.2,7320.67 L 5555.2,7317.2 L 5701.39,7401.61 L 5695.39,7412 L 5549.2,7327.59 Z "/>
<path stroke="none" transform="matrix(0.1 0 0 0.1 -400.65 -646.4)" d="M 5299.8,7471.59 L 5299.8,7457.74 L 5543.2,7317.2 L 5549.2,7320.67 L 5549.2,7327.59 L 5299.8,7471.59 Z "/>
<path stroke="none" transform="matrix(0.1 0 0 0.1 -400.65 -646.4)" d="M 5050.4,7327.59 L 5050.4,7320.67 L 5056.4,7317.2 L 5299.8,7457.74 L 5299.8,7471.59 L 5050.4,7327.59 Z "/>
<path stroke="none" transform="matrix(0.1 0 0 0.1 -400.65 -646.4)" d="M 5099.24,7295.93 L 5105.24,7285.54 L 5302.8,7399.61 L 5296.8,7410 L 5099.24,7295.93 Z "/>
<path stroke="none" transform="matrix(0.1 0 0 0.1 -400.65 -646.4)" d="M 4893.49,7418.19 L 4887.49,7407.8 L 5044.4,7317.2 L 5050.4,7320.67 L 5050.4,7327.59 L 4893.49,7418.19 Z "/>
<path stroke="none" transform="matrix(0.1 0 0 0.1 -400.65 -646.4)" d="M 4551.6,7327.59 L 4551.6,7313.74 L 4714.95,7408.06 L 4708.95,7418.45 L 4551.6,7327.59 Z "/>
<path stroke="none" transform="matrix(0.1 0 0 0.1 -400.65 -646.4)" d="M 4302.2,7471.59 L 4302.2,7457.74 L 4551.6,7313.74 L 4551.6,7327.59 L 4302.2,7471.59 Z "/>
<path stroke="none" transform="matrix(0.1 0 0 0.1 -400.65 -646.4)" d="M 4049.8,7325.86 L 4055.8,7315.47 L 4302.2,7457.74 L 4302.2,7471.59 L 4049.8,7325.86 Z "/>
<path stroke="none" transform="matrix(0.1 0 0 0.1 -400.65 -646.4)" d="M 5044.4,7036.13 L 5050.4,7032.67 L 5056.4,7036.13 L 5056.4,7317.2 L 5050.4,7320.67 L 5044.4,7317.2 L 5044.4,7036.13 Z "/>
<path stroke="none" transform="matrix(0.1 0 0 0.1 -400.65 -646.4)" d="M 4798,6893.86 L 4804,6883.47 L 5050.4,7025.74 L 5050.4,7032.67 L 5044.4,7036.13 L 4798,6893.86 Z "/>
<path stroke="none" transform="matrix(0.1 0 0 0.1 -400.65 -646.4)" d="M 5299.8,6881.74 L 5299.8,6895.59 L 5056.4,7036.13 L 5050.4,7032.67 L 5050.4,7025.74 L 5299.8,6881.74 Z "/>
<path stroke="none" transform="matrix(0.1 0 0 0.1 -400.65 -646.4)" d="M 5296.8,6943.33 L 5302.8,6953.72 L 5105.24,7067.79 L 5099.24,7057.4 L 5296.8,6943.33 Z "/>
<path stroke="none" transform="matrix(0.1 0 0 0.1 -400.65 -646.4)" d="M 5549.2,7025.74 L 5549.2,7032.67 L 5543.2,7036.13 L 5299.8,6895.59 L 5299.8,6881.74 L 5549.2,7025.74 Z "/>
<path stroke="none" transform="matrix(0.1 0 0 0.1 -400.65 -646.4)" d="M 5543.2,7036.13 L 5549.2,7032.67 L 5555.2,7036.13 L 5555.2,7317.2 L 5549.2,7320.67 L 5543.2,7317.2 L 5543.2,7036.13 Z "/>
<path stroke="none" transform="matrix(0.1 0 0 0.1 -400.65 -646.4)" d="M 5491.36,7062.6 L 5503.36,7062.6 L 5503.36,7290.74 L 5491.36,7290.74 L 5491.36,7062.6 Z "/>
<path stroke="none" transform="matrix(0.1 0 0 0.1 -400.65 -646.4)" d="M 5693,6942.71 L 5699,6953.1 L 5555.2,7036.13 L 5549.2,7032.67 L 5549.2,7025.74 L 5693,6942.71 Z "/>
<path stroke="none" transform="matrix(0.1 0 0 0.1 -400.65 -646.4)" d="M 5766.68,6708.83 L 5778.68,6708.83 L 5778.68,6788.5 L 5766.68,6788.5 L 5766.68,6708.83 Z "/>
<path stroke="none" transform="matrix(0.1 0 0 0.1 -400.65 -646.4)" d="M 5818.52,6708.83 L 5830.52,6708.83 L 5830.52,6788.5 L 5818.52,6788.5 L 5818.52,6708.83 Z "/>
<path stroke="none" transform="matrix(0.1 0 0 0.1 -400.65 -646.4)" d="M 5962.13,6976.09 L 5956.14,6986.48 L 5897.13,6952.44 L 5903.13,6942.04 L 5962.13,6976.09 Z "/>
<path stroke="none" transform="matrix(0.1 0 0 0.1 -400.65 -646.4)" d="M 4681.5,6909.5 A 144,144 0 1 0 4969.5,6909.5A 144,144 0 1 0 4681.5,6909.5Z " class="connection_in" stroke-width="18px"/>
</g>
</svg>