<svg xmlns="http://www.w3.org/2000/svg" xmlns:xlink="http://www.w3.org/1999/xlink" viewBox="0 0 182.8 76.97000000000003" style="background-color: #ffffff00" version="1.1">
<g transform="matrix(1 0 0 1 -161.91099999999997 -711.126)">
<text x="0" y="0" stroke="none" transform="matrix(0.1 0 0 0.1 225.858 729.126)" font-style="normal" font-weight="bold" font-size="200px" font-family="Arial">
S</text>
<path stroke="none" transform="matrix(0.1 0 0 0.1 -230.65 -114.4)" d="M 4816.35,8776.95 L 4821.32,8782.46 L 4820.01,8788.63 L 4531.19,8818.99 L 4538.6,8806.14 L 4816.35,8776.95 Z "/>
<path stroke="none" transform="matrix(0.1 0 0 0.1 -230.65 -114.4)" d="M 4874.42,8503.77 L 4881.2,8500.76 L 4886.16,8506.27 L 4828.09,8779.45 L 4821.32,8782.46 L 4816.35,8776.95 L 4874.42,8503.77 Z "/>
<path stroke="none" transform="matrix(0.1 0 0 0.1 -230.65 -114.4)" d="M 4816.79,8525.57 L 4828.53,8528.07 L 4784.31,8736.09 L 4772.57,8733.6 L 4816.79,8525.57 Z "/>
<path stroke="none" transform="matrix(0.1 0 0 0.1 -230.65 -114.4)" d="M 4718.11,8413.53 L 4724.11,8403.13 L 4882.51,8494.59 L 4881.2,8500.76 L 4874.42,8503.77 L 4718.11,8413.53 Z "/>
<path stroke="none" transform="matrix(0.1 0 0 0.1 -230.65 -114.4)" d="M 4425.01,8551.01 L 4417.76,8549.47 L 4416.01,8542.96 L 4548.66,8423.52 L 4556.69,8432.44 L 4425.01,8551.01 Z "/>
<path stroke="none" transform="matrix(0.1 0 0 0.1 -230.65 -114.4)" d="M 4413.52,8554.7 L 4417.76,8549.47 L 4425.01,8551.01 L 4538.6,8806.14 L 4531.19,8818.99 L 4413.52,8554.7 Z "/>
<path stroke="none" transform="matrix(0.1 0 0 0.1 -230.65 -114.4)" d="M 4474.95,8565.23 L 4485.91,8560.35 L 4572.42,8754.63 L 4561.45,8759.51 L 4474.95,8565.23 Z "/>
<path stroke="none" transform="matrix(0.1 0 0 0.1 -230.65 -114.4)" d="M 4134.8,8495.46 L 4137.3,8483.72 L 4416.01,8542.96 L 4417.76,8549.47 L 4413.52,8554.7 L 4134.8,8495.46 Z "/>
<text x="0" y="0" stroke="none" transform="matrix(0.1 0 0 0.1 269.753 786.096)" font-style="normal" font-weight="bold" font-size="200px" font-family="Arial">
S</text>
<path stroke="none" transform="matrix(0.1 0 0 0.1 -230.65 -114.4)" d="M 4987.8,8871.65 L 4981.8,8882.05 L 4820.01,8788.63 L 4821.32,8782.46 L 4828.09,8779.45 L 4987.8,8871.65 Z "/>
<path stroke="none" transform="matrix(0.1 0 0 0.1 -230.65 -114.4)" d="M 5277.5,8732.21 L 5284.76,8733.75 L 5286.5,8740.26 L 5149.27,8863.82 L 5141.24,8854.91 L 5277.5,8732.21 Z "/>
<path stroke="none" transform="matrix(0.1 0 0 0.1 -230.65 -114.4)" d="M 5163.91,8477.07 L 5171.33,8464.23 L 5289,8728.52 L 5284.76,8733.75 L 5277.5,8732.21 L 5163.91,8477.07 Z "/>
<path stroke="none" transform="matrix(0.1 0 0 0.1 -230.65 -114.4)" d="M 5130.1,8528.59 L 5141.06,8523.7 L 5227.56,8717.99 L 5216.6,8722.87 L 5130.1,8528.59 Z "/>
<path stroke="none" transform="matrix(0.1 0 0 0.1 -230.65 -114.4)" d="M 4886.16,8506.27 L 4881.2,8500.76 L 4882.51,8494.59 L 5171.33,8464.23 L 5163.91,8477.07 L 4886.16,8506.27 Z "/>
<path stroke="none" transform="matrix(0.1 0 0 0.1 -230.65 -114.4)" d="M 5567.71,8787.76 L 5565.22,8799.5 L 5286.5,8740.26 L 5284.76,8733.75 L 5289,8728.52 L 5567.71,8787.76 Z "/>
<path stroke="none" transform="matrix(0.1 0 0 0.1 -230.65 -114.4)" d="M 5445.61,8772.11 A 144,144 0 1 0 5733.61,8772.11A 144,144 0 1 0 5445.61,8772.11Z " class="connection_in" stroke-width="18px"/>
<path stroke="none" transform="matrix(0.1 0 0 0.1 -230.65 -114.4)" d="M 3945.61,8492.11 A 144,144 0 1 0 4233.61,8492.11A 144,144 0 1 0 3945.61,8492.11Z " class="connection_out" stroke-width="18px"/>
</g>
</svg>