<svg xmlns="http://www.w3.org/2000/svg" xmlns:xlink="http://www.w3.org/1999/xlink" viewBox="0 0 180.8 76.10199999999986" style="background-color: #ffffff00" version="1.1">
<g transform="matrix(1 0 0 1 -181.91099999999997 -764.4110000000002)">
<text x="0" y="0" stroke="none" transform="matrix(0.1 0 0 0.1 291.74 838.513)" font-style="normal" font-weight="bold" font-size="200px" font-family="Arial">
O</text>
<path stroke="none" transform="matrix(0.1 0 0 0.1 -230.65 -114.4)" d="M 5473.29,9211.11 L 5470.25,9217.12 L 5462.84,9217.14 L 5297.99,8991.7 L 5302.53,8977.58 L 5473.29,9211.11 Z "/>
<path stroke="none" transform="matrix(0.1 0 0 0.1 -230.65 -114.4)" d="M 5411.02,9213.77 L 5401.33,9220.86 L 5275.8,9049.19 L 5285.49,9042.1 L 5411.02,9213.77 Z "/>
<path stroke="none" transform="matrix(0.1 0 0 0.1 -230.65 -114.4)" d="M 5367.53,9369.67 L 5357.8,9362.65 L 5462.84,9217.14 L 5470.25,9217.12 L 5473.33,9223.11 L 5367.53,9369.67 Z "/>
<path stroke="none" transform="matrix(0.1 0 0 0.1 -230.65 -114.4)" d="M 5028.21,9369 L 5027.51,9362.47 L 5033.49,9358.1 L 5206.78,9413.82 L 5203.11,9425.24 L 5028.21,9369 Z "/>
<path stroke="none" transform="matrix(0.1 0 0 0.1 -230.65 -114.4)" d="M 5020.64,9077.96 L 5026.63,9074.48 L 5032.64,9078.82 L 5033.49,9358.1 L 5027.51,9362.47 L 5021.5,9359.03 L 5020.64,9077.96 Z "/>
<path stroke="none" transform="matrix(0.1 0 0 0.1 -230.65 -114.4)" d="M 4968.88,9104.58 L 4980.88,9104.55 L 4981.58,9332.68 L 4969.58,9332.72 L 4968.88,9104.58 Z "/>
<path stroke="none" transform="matrix(0.1 0 0 0.1 -230.65 -114.4)" d="M 5302.53,8977.58 L 5297.99,8991.7 L 5032.64,9078.82 L 5026.63,9074.48 L 5027.29,9067.94 L 5302.53,8977.58 Z "/>
<path stroke="none" transform="matrix(0.1 0 0 0.1 -230.65 -114.4)" d="M 5758.23,9210.24 L 5758.27,9222.24 L 5473.33,9223.11 L 5470.25,9217.12 L 5473.29,9211.11 L 5758.23,9210.24 Z "/>
<path stroke="none" transform="matrix(0.1 0 0 0.1 -230.65 -114.4)" d="M 4778.55,9514.16 L 4778.51,9500.31 L 5021.5,9359.03 L 5027.51,9362.47 L 5028.21,9369 L 4778.55,9514.16 Z "/>
<path stroke="none" transform="matrix(0.1 0 0 0.1 -230.65 -114.4)" d="M 4522.69,9367.48 L 4534.67,9360.52 L 4778.51,9500.31 L 4778.55,9514.16 L 4522.69,9367.48 Z "/>
<path stroke="none" transform="matrix(0.1 0 0 0.1 -230.65 -114.4)" d="M 4577.44,9339.12 L 4583.41,9328.71 L 4781.33,9442.17 L 4775.37,9452.58 L 4577.44,9339.12 Z "/>
<path stroke="none" transform="matrix(0.1 0 0 0.1 -230.65 -114.4)" d="M 4521.81,9079.48 L 4527.8,9076 L 4533.81,9079.45 L 4534.67,9360.52 L 4522.69,9367.48 L 4521.81,9079.48 Z "/>
<path stroke="none" transform="matrix(0.1 0 0 0.1 -230.65 -114.4)" d="M 4776.75,8924.31 L 4776.79,8938.17 L 4533.81,9079.45 L 4527.8,9076 L 4527.78,9069.07 L 4776.75,8924.31 Z "/>
<path stroke="none" transform="matrix(0.1 0 0 0.1 -230.65 -114.4)" d="M 4773.94,8985.91 L 4779.97,8996.28 L 4582.75,9110.96 L 4576.71,9100.58 L 4773.94,8985.91 Z "/>
<path stroke="none" transform="matrix(0.1 0 0 0.1 -230.65 -114.4)" d="M 5027.29,9067.94 L 5026.63,9074.48 L 5020.64,9077.96 L 4776.79,8938.17 L 4776.75,8924.31 L 5027.29,9067.94 Z "/>
<path stroke="none" transform="matrix(0.1 0 0 0.1 -230.65 -114.4)" d="M 4274.96,8937.97 L 4280.93,8927.56 L 4527.78,9069.07 L 4527.8,9076 L 4521.81,9079.48 L 4274.96,8937.97 Z "/>
<path stroke="none" transform="matrix(0.1 0 0 0.1 -230.65 -114.4)" d="M 4145.61,8952.11 A 144,144 0 1 0 4433.61,8952.11A 144,144 0 1 0 4145.61,8952.11Z " class="connection_in" stroke-width="18px"/>
<path stroke="none" transform="matrix(0.1 0 0 0.1 -230.65 -114.4)" d="M 5625.61,9182.11 A 144,144 0 1 0 5913.61,9182.11A 144,144 0 1 0 5625.61,9182.11Z " class="connection_out" stroke-width="18px"/>
</g>
</svg>