<svg xmlns="http://www.w3.org/2000/svg" xmlns:xlink="http://www.w3.org/1999/xlink" viewBox="0 0 135.8 79.34799999999996" style="background-color: #ffffff00" version="1.1">
<g transform="matrix(1 0 0 1 -232.91099999999997 -693.4110000000002)">
<path stroke="none" transform="matrix(0.1 0 0 0.1 -230.65 -114.4)" d="M 5079.87,8697.2 L 5067.87,8704.13 L 5067.87,8416.13 L 5073.87,8412.67 L 5079.87,8416.13 L 5079.87,8697.2 Z "/>
<path stroke="none" transform="matrix(0.1 0 0 0.1 -230.65 -114.4)" d="M 5131.71,8670.74 L 5119.71,8670.74 L 5119.71,8442.6 L 5131.71,8442.6 L 5131.71,8670.74 Z "/>
<path stroke="none" transform="matrix(0.1 0 0 0.1 -230.65 -114.4)" d="M 5323.29,8837.74 L 5323.29,8851.59 L 5067.87,8704.13 L 5079.87,8697.2 L 5323.29,8837.74 Z "/>
<path stroke="none" transform="matrix(0.1 0 0 0.1 -230.65 -114.4)" d="M 5566.7,8697.2 L 5578.7,8704.13 L 5323.29,8851.59 L 5323.29,8837.74 L 5566.7,8697.2 Z "/>
<path stroke="none" transform="matrix(0.1 0 0 0.1 -230.65 -114.4)" d="M 5517.86,8665.54 L 5523.86,8675.93 L 5326.29,8790 L 5320.29,8779.61 L 5517.86,8665.54 Z "/>
<path stroke="none" transform="matrix(0.1 0 0 0.1 -230.65 -114.4)" d="M 5566.7,8416.13 L 5572.7,8412.67 L 5578.7,8416.13 L 5578.7,8704.13 L 5566.7,8697.2 L 5566.7,8416.13 Z "/>
<path stroke="none" transform="matrix(0.1 0 0 0.1 -230.65 -114.4)" d="M 5323.29,8275.59 L 5323.29,8261.74 L 5572.7,8405.74 L 5572.7,8412.67 L 5566.7,8416.13 L 5323.29,8275.59 Z "/>
<path stroke="none" transform="matrix(0.1 0 0 0.1 -230.65 -114.4)" d="M 5320.29,8333.72 L 5326.29,8323.33 L 5523.86,8437.4 L 5517.86,8447.79 L 5320.29,8333.72 Z "/>
<path stroke="none" transform="matrix(0.1 0 0 0.1 -230.65 -114.4)" d="M 5079.87,8416.13 L 5073.87,8412.67 L 5073.87,8405.74 L 5323.29,8261.74 L 5323.29,8275.59 L 5079.87,8416.13 Z "/>
<path stroke="none" transform="matrix(0.1 0 0 0.1 -230.65 -114.4)" d="M 4821.46,8273.86 L 4827.46,8263.47 L 5073.87,8405.74 L 5073.87,8412.67 L 5067.87,8416.13 L 4821.46,8273.86 Z "/>
<path stroke="none" transform="matrix(0.1 0 0 0.1 -230.65 -114.4)" d="M 5819.12,8263.47 L 5825.12,8273.86 L 5578.7,8416.13 L 5572.7,8412.67 L 5572.7,8405.74 L 5819.12,8263.47 Z "/>
<path stroke="none" transform="matrix(0.1 0 0 0.1 -230.65 -114.4)" d="M 5685.61,8242.11 A 144,144 0 1 0 5973.61,8242.11A 144,144 0 1 0 5685.61,8242.11Z " class="connection_in" stroke-width="18px"/>
<path stroke="none" transform="matrix(0.1 0 0 0.1 -230.65 -114.4)" d="M 4655.61,8242.11 A 144,144 0 1 0 4943.61,8242.11A 144,144 0 1 0 4655.61,8242.11Z " class="connection_out" stroke-width="18px"/>
</g>
</svg>