<svg xmlns="http://www.w3.org/2000/svg" xmlns:xlink="http://www.w3.org/1999/xlink" viewBox="0 0 91.71199999999999 57.06399999999985" style="background-color: #ffffff00" version="1.1">
<g transform="matrix(1 0 0 1 -217.999 -908.916)">
<text x="0" y="0" stroke="none" transform="matrix(0.1 0 0 0.1 237.334 926.916)" font-style="normal" font-weight="bold" font-size="200px" font-family="Arial">
S</text>
<path stroke="none" transform="matrix(0.1 0 0 0.1 -230.65 -114.4)" d="M 4984.3,10508.7 L 4979.53,10503.9 L 4980.59,10497.3 L 5251.58,10409.2 L 5255.29,10420.6 L 4984.3,10508.7 Z "/>
<path stroke="none" transform="matrix(0.1 0 0 0.1 -230.65 -114.4)" d="M 4894.9,10783.8 L 4886.18,10771.8 L 4972.48,10506.2 L 4979.53,10503.9 L 4984.3,10508.7 L 4894.9,10783.8 Z "/>
<path stroke="none" transform="matrix(0.1 0 0 0.1 -230.65 -114.4)" d="M 4858.58,10727.9 L 4847.17,10724.1 L 4912.89,10521.9 L 4924.3,10525.6 L 4858.58,10727.9 Z "/>
<path stroke="none" transform="matrix(0.1 0 0 0.1 -230.65 -114.4)" d="M 4598.18,10783.8 L 4606.9,10771.8 L 4886.18,10771.8 L 4894.9,10783.8 L 4598.18,10783.8 Z "/>
<path stroke="none" transform="matrix(0.1 0 0 0.1 -230.65 -114.4)" d="M 4506.49,10501.6 L 4520.59,10506.2 L 4606.9,10771.8 L 4598.18,10783.8 L 4506.49,10501.6 Z "/>
<path stroke="none" transform="matrix(0.1 0 0 0.1 -230.65 -114.4)" d="M 4568.78,10525.6 L 4580.19,10521.9 L 4645.91,10724.1 L 4634.5,10727.9 L 4568.78,10525.6 Z "/>
<path stroke="none" transform="matrix(0.1 0 0 0.1 -230.65 -114.4)" d="M 4658.06,10391.5 L 4665.12,10401.2 L 4520.59,10506.2 L 4506.49,10501.6 L 4658.06,10391.5 Z "/>
<path stroke="none" transform="matrix(0.1 0 0 0.1 -230.65 -114.4)" d="M 4828.17,10401.4 L 4835.23,10391.7 L 4980.59,10497.3 L 4979.53,10503.9 L 4972.48,10506.2 L 4828.17,10401.4 Z "/>
<path stroke="none" transform="matrix(0.1 0 0 0.1 -230.65 -114.4)" d="M 5095.61,10412.1 A 144,144 0 1 0 5383.61,10412.1A 144,144 0 1 0 5095.61,10412.1Z " stroke-width="18px" class="connection_out"/>
</g>
</svg>