<svg xmlns="http://www.w3.org/2000/svg" viewBox="0 0 58.67 29.24"><text transform="translate(26.84 9.38)">S</text><path d="M42.09,26.16l-.7-.64,1.44-13.67.41-.23.36.23Z"/><path d="M39.76,23.75,39,23.67l1.1-10.5.76.08Z"/><path d="M27.56,29.24l.39-.86,13.44-2.86.7.64Z"/><path d="M20.37,16.79l.23-.36.47.05L28,28.38l-.39.86Z"/><path d="M23.44,17l.66-.38,5.28,9.14-.66.39Z"/><path d="M10,15.7l.08-.77L20.45,16l.15.4-.23.36Z"/><path d="M26.29,9.54l.57.51-5.79,6.43-.47-.05-.15-.4Z"/><path d="M34.61,8.2l.31-.7,8.29,3.69,0,.43-.41.23Z"/><path d="M50.33,7.08l.38.66L43.6,11.85l-.36-.23,0-.43Z"/><circle class="connection_in" cx="5.24" cy="14.28" r="4.74"/><circle class="connection_out" cx="53.32" cy="5.35" r="4.85"/></svg>