<svg xmlns="http://www.w3.org/2000/svg" viewBox="0 0 68.71 25.54"><path d="M42.14,25.54l-.44-.77,6.93-12h.44l.22.38Z"/><path d="M27.4,25.54l.44-.77H41.7l.44.77Z"/><path d="M29.11,23V22.2H40.44V23Z"/><path d="M20.25,13.15l.22-.38h.44l6.93,12-.44.77Z"/><path d="M27.4,0l.44.77-6.93,12h-.44l-.22-.38Z"/><path d="M28.78,2.77l.66.38L23.78,13l-.67-.38Z"/><path d="M42.14,0,41.7.77H27.84L27.4,0Z"/><path d="M41.7.77,42.14,0l7.15,12.39-.22.38h-.44Z"/><path d="M40.1,3.15l.67-.38,5.66,9.81-.66.38Z"/><path d="M9.84,13.15v-.76H20.25l.22.38-.22.38Z"/><path d="M58.86,12.39v.76H49.29l-.22-.38.22-.38Z"/><circle class="connection_out" cx="63.36" cy="12.77" r="4.85"/><circle class="connection_in" cx="5.24" cy="12.39" r="4.74"/></svg>