<svg xmlns="http://www.w3.org/2000/svg" viewBox="0 0 42.31 29.23"><text transform="translate(0 19.95)">S</text><path d="M24.19,25.5l.71.63-14.58,3.1.38-.86Z"/><path d="M22.09,23.3l.16.75L11.89,26.26l-.16-.75Z"/><path d="M25.64,11.78l.41-.24.36.24L24.9,26.13l-.71-.63Z"/><path d="M13,6.17l-.19-.93L26,11.11l0,.43-.41.24Z"/><path d="M13.44,9.18l.32-.7,9.68,4.31-.31.7Z"/><path d="M7.09,12.77l-.57-.51,6.32-7,.19.93Z"/><path d="M10.7,28.37l-.38.86L5.73,21.28l.66-.38Z"/><path d="M33.18,7l.38.67-7.15,4.13-.36-.24,0-.43Z"/><circle class="connection_out" cx="36.96" cy="5.35" r="4.85"/></svg>