<svg viewBox="0 0 163 100" xmlns="http://www.w3.org/2000/svg">
<path transform="matrix(0.1 0 0 0.1 -455.65 -594.4)" d="M 5086.59,6631.04 L 5074.59,6637.96 L 5074.59,6349.96 L 5080.59,6346.5 L 5086.59,6349.96 L 5086.59,6631.04 Z " />
<path transform="matrix(0.1 0 0 0.1 -455.65 -594.4)" d="M 5138.43,6604.57 L 5126.43,6604.57 L 5126.43,6376.43 L 5138.43,6376.43 L 5138.43,6604.57 Z " />
<path transform="matrix(0.1 0 0 0.1 -455.65 -594.4)" d="M 5329.99,6771.57 L 5329.99,6785.43 L 5074.59,6637.96 L 5086.59,6631.04 L 5329.99,6771.57 Z " />
<path transform="matrix(0.1 0 0 0.1 -455.65 -594.4)" d="M 5573.39,6631.04 L 5579.39,6634.5 L 5579.39,6641.43 L 5329.99,6785.43 L 5329.99,6771.57 L 5573.39,6631.04 Z " />
<path transform="matrix(0.1 0 0 0.1 -455.65 -594.4)" d="M 5524.56,6599.38 L 5530.56,6609.77 L 5332.99,6723.84 L 5326.99,6713.45 L 5524.56,6599.38 Z " />
<path transform="matrix(0.1 0 0 0.1 -455.65 -594.4)" d="M 5573.39,6349.96 L 5585.39,6343.04 L 5585.39,6631.04 L 5579.39,6634.5 L 5573.39,6631.04 L 5573.39,6349.96 Z " />
<path transform="matrix(0.1 0 0 0.1 -455.65 -594.4)" d="M 5329.99,6209.43 L 5329.99,6195.57 L 5585.39,6343.04 L 5573.39,6349.96 L 5329.99,6209.43 Z " />
<path transform="matrix(0.1 0 0 0.1 -455.65 -594.4)" d="M 5326.99,6267.55 L 5332.99,6257.16 L 5530.56,6371.23 L 5524.56,6381.62 L 5326.99,6267.55 Z " />
<path transform="matrix(0.1 0 0 0.1 -455.65 -594.4)" d="M 5086.59,6349.96 L 5080.59,6346.5 L 5080.59,6339.57 L 5329.99,6195.57 L 5329.99,6209.43 L 5086.59,6349.96 Z " />
<path transform="matrix(0.1 0 0 0.1 -455.65 -594.4)" d="M 4828.19,6207.7 L 4834.19,6197.3 L 5080.59,6339.57 L 5080.59,6346.5 L 5074.59,6349.96 L 4828.19,6207.7 Z " />
<text x="0" y="0" transform="matrix(0.1 0 0 0.1 120.008 91.3)" font-size="200px">NO</text>
<text x="0" y="0" transform="matrix(0.1 0 0 0.1 150.008 95.6)" font-size="150px"> 2</text>
<path transform="matrix(0.1 0 0 0.1 -455.65 -594.4)" d="M 5731.8,6715.57 L 5725.8,6725.96 L 5579.39,6641.43 L 5579.39,6634.5 L 5585.39,6631.04 L 5731.8,6715.57 Z " />
<path class="connection_in" stroke-width="18px"transform="matrix(0.1 0 0 0.1 -455.65 -594.4)" d="M 4606.59,6165.5 A 172.8,172.8 0 1 0 4952.19,6165.5A 172.8,172.8 0 1 0 4606.59,6165.5Z " />
</svg>
