<svg viewBox="0 0 106 89" xmlns="http://www.w3.org/2000/svg">
<path transform="matrix(0.1 0 0 0.1 -492.65 -601.4)" d="M 5224.42,6293.3 L 5230.42,6282.9 L 5477.18,6425.38 L 5476.82,6432.1 L 5471.17,6435.77 L 5224.42,6293.3 Z " />
<text x="0" y="0" transform="matrix(0.1 0 0 0.1 79.5424 84.3)" font-size="200px">S</text>
<path transform="matrix(0.1 0 0 0.1 -492.65 -601.4)" d="M 5512.34,6713.54 L 5501.31,6723.46 L 5471.17,6435.77 L 5476.82,6432.1 L 5483.24,6435.81 L 5512.34,6713.54 Z " />
<path transform="matrix(0.1 0 0 0.1 -492.65 -601.4)" d="M 5560.42,6675.02 L 5548.48,6676.27 L 5526.33,6464.78 L 5538.27,6463.53 L 5560.42,6675.02 Z " />
<path transform="matrix(0.1 0 0 0.1 -492.65 -601.4)" d="M 5699.7,6753.43 L 5697.2,6765.17 L 5501.31,6723.46 L 5512.34,6713.54 L 5699.7,6753.43 Z " />
<path transform="matrix(0.1 0 0 0.1 -492.65 -601.4)" d="M 5925.25,6529.88 L 5940,6528.32 L 5845.35,6692.24 L 5834.96,6686.24 L 5925.25,6529.88 Z " />
<path transform="matrix(0.1 0 0 0.1 -492.65 -601.4)" d="M 5738.28,6322.35 L 5741.36,6307.85 L 5940,6528.32 L 5925.25,6529.88 L 5738.28,6322.35 Z " />
<path transform="matrix(0.1 0 0 0.1 -492.65 -601.4)" d="M 5722.04,6381.79 L 5730.96,6373.76 L 5873.34,6531.79 L 5864.42,6539.82 L 5722.04,6381.79 Z " />
<path transform="matrix(0.1 0 0 0.1 -492.65 -601.4)" d="M 5483.24,6435.81 L 5476.82,6432.1 L 5477.18,6425.38 L 5741.36,6307.85 L 5738.28,6322.35 L 5483.24,6435.81 Z " />
<path class="connection_in" stroke-width="18px"transform="matrix(0.1 0 0 0.1 -492.65 -601.4)" d="M 4980.22,6237.7 A 172.8,172.8 0 1 0 5325.82,6237.7A 172.8,172.8 0 1 0 4980.22,6237.7Z " />
</svg>
