<svg viewBox="0 0 107 89" xmlns="http://www.w3.org/2000/svg">
<text x="0" y="0" transform="matrix(0.1 0 0 0.1 44.6483 77.3572)" font-size="200px">N</text>
<path transform="matrix(0.1 0 0 0.1 -517.65 -637.4)" d="M 5701.2,6968.74 L 5689.2,6968.74 L 5689.2,6784.54 L 5695.2,6781.07 L 5701.2,6784.54 L 5701.2,6968.74 Z " />
<path transform="matrix(0.1 0 0 0.1 -517.65 -637.4)" d="M 5753.04,6968.74 L 5741.04,6968.74 L 5741.04,6811 L 5753.04,6811 L 5753.04,6968.74 Z " />
<path transform="matrix(0.1 0 0 0.1 -517.65 -637.4)" d="M 5944.6,7206.14 L 5944.6,7220 L 5793.65,7132.84 L 5799.65,7122.45 L 5944.6,7206.14 Z " />
<path transform="matrix(0.1 0 0 0.1 -517.65 -637.4)" d="M 6188,7065.61 L 6200,7072.54 L 5944.6,7220 L 5944.6,7206.14 L 6188,7065.61 Z " />
<path transform="matrix(0.1 0 0 0.1 -517.65 -637.4)" d="M 6139.16,7033.95 L 6145.16,7044.34 L 5947.6,7158.41 L 5941.6,7148.02 L 6139.16,7033.95 Z " />
<path transform="matrix(0.1 0 0 0.1 -517.65 -637.4)" d="M 6188,6784.54 L 6200,6777.61 L 6200,7072.54 L 6188,7065.61 L 6188,6784.54 Z " />
<path transform="matrix(0.1 0 0 0.1 -517.65 -637.4)" d="M 5944.6,6644 L 5944.6,6630.14 L 6200,6777.61 L 6188,6784.54 L 5944.6,6644 Z " />
<path transform="matrix(0.1 0 0 0.1 -517.65 -637.4)" d="M 5941.6,6702.13 L 5947.6,6691.73 L 6145.16,6805.8 L 6139.16,6816.2 L 5941.6,6702.13 Z " />
<path transform="matrix(0.1 0 0 0.1 -517.65 -637.4)" d="M 5701.2,6784.54 L 5695.2,6781.07 L 5695.2,6774.14 L 5944.6,6630.14 L 5944.6,6644 L 5701.2,6784.54 Z " />
<path transform="matrix(0.1 0 0 0.1 -517.65 -637.4)" d="M 5442.6,6642.27 L 5448.6,6631.87 L 5695.2,6774.14 L 5695.2,6781.07 L 5689.2,6784.54 L 5442.6,6642.27 Z " />
<path class="connection_in" stroke-width="18px" transform="matrix(0.1 0 0 0.1 -517.65 -637.4)" d="M 5230.6,6593.07 A 172.8,172.8 0 1 0 5576.2,6593.07A 172.8,172.8 0 1 0 5230.6,6593.07Z " />
</svg>
