<svg viewBox="0 0 170 100" xmlns="http://www.w3.org/2000/svg">
<path transform="matrix(0.1 0 0 0.1 -480.65 -614.4)" d="M 5362.18,6872.04 L 5350.18,6878.96 L 5350.18,6590.96 L 5356.18,6587.5 L 5362.18,6590.96 L 5362.18,6872.04 Z " />
<path transform="matrix(0.1 0 0 0.1 -480.65 -614.4)" d="M 5414.02,6845.57 L 5402.02,6845.57 L 5402.02,6617.43 L 5414.02,6617.43 L 5414.02,6845.57 Z " />
<path transform="matrix(0.1 0 0 0.1 -480.65 -614.4)" d="M 5605.58,7012.57 L 5605.58,7026.43 L 5350.18,6878.96 L 5362.18,6872.04 L 5605.58,7012.57 Z " />
<path transform="matrix(0.1 0 0 0.1 -480.65 -614.4)" d="M 5848.98,6872.04 L 5854.98,6875.5 L 5854.98,6882.43 L 5605.58,7026.43 L 5605.58,7012.57 L 5848.98,6872.04 Z " />
<path transform="matrix(0.1 0 0 0.1 -480.65 -614.4)" d="M 5800.15,6840.38 L 5806.15,6850.77 L 5608.58,6964.84 L 5602.58,6954.45 L 5800.15,6840.38 Z " />
<path transform="matrix(0.1 0 0 0.1 -480.65 -614.4)" d="M 5848.98,6590.96 L 5860.98,6584.04 L 5860.98,6872.04 L 5854.98,6875.5 L 5848.98,6872.04 L 5848.98,6590.96 Z " />
<path transform="matrix(0.1 0 0 0.1 -480.65 -614.4)" d="M 5605.58,6450.43 L 5605.58,6436.57 L 5860.98,6584.04 L 5848.98,6590.96 L 5605.58,6450.43 Z " />
<path transform="matrix(0.1 0 0 0.1 -480.65 -614.4)" d="M 5602.58,6508.55 L 5608.58,6498.16 L 5806.15,6612.23 L 5800.15,6622.62 L 5602.58,6508.55 Z " />
<path transform="matrix(0.1 0 0 0.1 -480.65 -614.4)" d="M 5362.18,6590.96 L 5356.18,6587.5 L 5356.18,6580.57 L 5605.58,6436.57 L 5605.58,6450.43 L 5362.18,6590.96 Z " />
<path transform="matrix(0.1 0 0 0.1 -480.65 -614.4)" d="M 5103.78,6448.7 L 5109.78,6438.3 L 5356.18,6580.57 L 5356.18,6587.5 L 5350.18,6590.96 L 5103.78,6448.7 Z " />
<text x="0" y="0" transform="matrix(0.1 0 0 0.1 122.01 95.4)" font-size="200px">OMe</text>
<path transform="matrix(0.1 0 0 0.1 -480.65 -614.4)" d="M 6018.34,6962.89 L 6012.34,6973.28 L 5854.98,6882.43 L 5854.98,6875.5 L 5860.98,6872.04 L 6018.34,6962.89 Z " />
<circle class="connection_in" stroke-width="18px" transform="matrix(0.1 0 0 0.1 -480.65 -614.4)" cx="5010.88" cy="6370.5" r="172.8"/>
</svg>
