<svg viewBox="0 0 180 124" xmlns="http://www.w3.org/2000/svg">
<path transform="matrix(0.1 0 0 0.1 -408.65 -604.4)" d="M 4653.87,6724.04 L 4641.87,6730.96 L 4641.87,6442.96 L 4647.87,6439.5 L 4653.87,6442.96 L 4653.87,6724.04 Z " />
<path transform="matrix(0.1 0 0 0.1 -408.65 -604.4)" d="M 4705.71,6697.57 L 4693.71,6697.57 L 4693.71,6469.43 L 4705.71,6469.43 L 4705.71,6697.57 Z " />
<path transform="matrix(0.1 0 0 0.1 -408.65 -604.4)" d="M 4897.27,6864.57 L 4897.27,6878.43 L 4641.87,6730.96 L 4653.87,6724.04 L 4897.27,6864.57 Z " />
<path transform="matrix(0.1 0 0 0.1 -408.65 -604.4)" d="M 5140.67,6724.04 L 5146.67,6727.5 L 5146.67,6734.43 L 4897.27,6878.43 L 4897.27,6864.57 L 5140.67,6724.04 Z " />
<path transform="matrix(0.1 0 0 0.1 -408.65 -604.4)" d="M 5091.83,6692.38 L 5097.83,6702.77 L 4900.27,6816.84 L 4894.27,6806.45 L 5091.83,6692.38 Z " />
<path transform="matrix(0.1 0 0 0.1 -408.65 -604.4)" d="M 5140.67,6442.96 L 5152.67,6436.04 L 5152.67,6724.04 L 5146.67,6727.5 L 5140.67,6724.04 L 5140.67,6442.96 Z " />
<path transform="matrix(0.1 0 0 0.1 -408.65 -604.4)" d="M 4897.27,6302.43 L 4897.27,6288.57 L 5152.67,6436.04 L 5140.67,6442.96 L 4897.27,6302.43 Z " />
<path transform="matrix(0.1 0 0 0.1 -408.65 -604.4)" d="M 4894.27,6360.55 L 4900.27,6350.16 L 5097.83,6464.23 L 5091.83,6474.62 L 4894.27,6360.55 Z " />
<path transform="matrix(0.1 0 0 0.1 -408.65 -604.4)" d="M 4653.87,6442.96 L 4647.87,6439.5 L 4647.87,6432.57 L 4897.27,6288.57 L 4897.27,6302.43 L 4653.87,6442.96 Z " />
<path transform="matrix(0.1 0 0 0.1 -408.65 -604.4)" d="M 4395.47,6300.7 L 4401.47,6290.3 L 4647.87,6432.57 L 4647.87,6439.5 L 4641.87,6442.96 L 4395.47,6300.7 Z " />
<path transform="matrix(0.1 0 0 0.1 -408.65 -604.4)" d="M 5396.07,6864.57 L 5396.07,6878.43 L 5146.67,6734.43 L 5146.67,6727.5 L 5152.67,6724.04 L 5396.07,6864.57 Z " />
<text x="0" y="0" transform="matrix(0.1 0 0 0.1 123.179 119.4)" font-size="200px">O</text>
<path transform="matrix(0.1 0 0 0.1 -408.65 -604.4)" d="M 5427.99,7056.67 L 5415.99,7056.67 L 5415.99,6856.53 L 5427.99,6856.53 L 5427.99,7056.67 Z " />
<path transform="matrix(0.1 0 0 0.1 -408.65 -604.4)" d="M 5376.15,7056.67 L 5364.15,7056.67 L 5364.15,6856.53 L 5376.15,6856.53 L 5376.15,7056.67 Z " />
<text x="0" y="0" transform="matrix(0.1 0 0 0.1 147.567 76.2)" font-size="200px">Me</text>
<path transform="matrix(0.1 0 0 0.1 -408.65 -604.4)" d="M 5531.63,6786.3 L 5537.63,6796.69 L 5396.07,6878.43 L 5396.07,6864.57 L 5531.63,6786.3 Z " />
<path class="connection_in" stroke-width="18px"transform="matrix(0.1 0 0 0.1 -408.65 -604.4)" d="M 4140.67,6263.1 A 172.8,172.8 0 1 0 4486.27,6263.1A 172.8,172.8 0 1 0 4140.67,6263.1Z " />
</svg>
