<svg viewBox="0 0 144 102" xmlns="http://www.w3.org/2000/svg">
<path transform="matrix(0.1 0 0 0.1 -459.65 -580.4)" d="M 5073.4,6453.74 L 5061.4,6460.66 L 5061.4,6172.66 L 5067.4,6169.2 L 5073.4,6172.66 L 5073.4,6453.74 Z " />
<path transform="matrix(0.1 0 0 0.1 -459.65 -580.4)" d="M 5125.24,6427.27 L 5113.24,6427.27 L 5113.24,6199.13 L 5125.24,6199.13 L 5125.24,6427.27 Z " />
<path transform="matrix(0.1 0 0 0.1 -459.65 -580.4)" d="M 5316.8,6594.27 L 5316.8,6608.13 L 5061.4,6460.66 L 5073.4,6453.74 L 5316.8,6594.27 Z " />
<path transform="matrix(0.1 0 0 0.1 -459.65 -580.4)" d="M 5560.2,6453.74 L 5566.2,6457.2 L 5566.2,6464.13 L 5316.8,6608.13 L 5316.8,6594.27 L 5560.2,6453.74 Z " />
<path transform="matrix(0.1 0 0 0.1 -459.65 -580.4)" d="M 5511.36,6422.08 L 5517.36,6432.47 L 5319.8,6546.54 L 5313.8,6536.15 L 5511.36,6422.08 Z " />
<path transform="matrix(0.1 0 0 0.1 -459.65 -580.4)" d="M 5560.2,6172.66 L 5572.2,6165.74 L 5572.2,6453.74 L 5566.2,6457.2 L 5560.2,6453.74 L 5560.2,6172.66 Z " />
<path transform="matrix(0.1 0 0 0.1 -459.65 -580.4)" d="M 5316.8,6032.13 L 5316.8,6018.27 L 5572.2,6165.74 L 5560.2,6172.66 L 5316.8,6032.13 Z " />
<path transform="matrix(0.1 0 0 0.1 -459.65 -580.4)" d="M 5313.8,6090.25 L 5319.8,6079.86 L 5517.36,6193.93 L 5511.36,6204.32 L 5313.8,6090.25 Z " />
<path transform="matrix(0.1 0 0 0.1 -459.65 -580.4)" d="M 5073.4,6172.66 L 5067.4,6169.2 L 5067.4,6162.27 L 5316.8,6018.27 L 5316.8,6032.13 L 5073.4,6172.66 Z " />
<path transform="matrix(0.1 0 0 0.1 -459.65 -580.4)" d="M 4815,6030.4 L 4821,6020 L 5067.4,6162.27 L 5067.4,6169.2 L 5061.4,6172.66 L 4815,6030.4 Z " />
<path transform="matrix(0.1 0 0 0.1 -459.65 -580.4)" d="M 5818.6,6596 L 5812.6,6606.4 L 5566.2,6464.13 L 5566.2,6457.2 L 5572.2,6453.74 L 5818.6,6596 Z " />
<path class="connection_in" stroke-width="18px" transform="matrix(0.1 0 0 0.1 -459.65 -580.4)" d="M 4645.2,6025.2 A 172.8,172.8 0 1 0 4990.8,6025.2A 172.8,172.8 0 1 0 4645.2,6025.2Z " />
<path class="connection_out" stroke-width="18px" transform="matrix(0.1 0 0 0.1 -459.65 -580.4)" d="M 5642.8,6601.2 A 172.8,172.8 0 1 0 5988.4,6601.2A 172.8,172.8 0 1 0 5642.8,6601.2Z " />
</svg>
