<svg viewBox="0 0 102 114" xmlns="http://www.w3.org/2000/svg">
<path transform="matrix(0.1 0 0 0.1 -626.65 -734.4)" d="M 6741.2,8285.61 L 6729.2,8292.54 L 6729.2,8004.54 L 6735.2,8001.07 L 6741.2,8004.54 L 6741.2,8285.61 Z " />
<path transform="matrix(0.1 0 0 0.1 -626.65 -734.4)" d="M 6793.04,8259.14 L 6781.04,8259.14 L 6781.04,8031 L 6793.04,8031 L 6793.04,8259.14 Z " />
<path transform="matrix(0.1 0 0 0.1 -626.65 -734.4)" d="M 6984.6,8426.14 L 6984.6,8440 L 6729.2,8292.54 L 6741.2,8285.61 L 6984.6,8426.14 Z " />
<path transform="matrix(0.1 0 0 0.1 -626.65 -734.4)" d="M 7228,8285.61 L 7240,8292.54 L 6984.6,8440 L 6984.6,8426.14 L 7228,8285.61 Z " />
<path transform="matrix(0.1 0 0 0.1 -626.65 -734.4)" d="M 7179.16,8253.95 L 7185.16,8264.34 L 6987.6,8378.41 L 6981.6,8368.02 L 7179.16,8253.95 Z " />
<path transform="matrix(0.1 0 0 0.1 -626.65 -734.4)" d="M 7228,8004.54 L 7240,7997.61 L 7240,8292.54 L 7228,8285.61 L 7228,8004.54 Z " />
<path transform="matrix(0.1 0 0 0.1 -626.65 -734.4)" d="M 6984.6,7864 L 6984.6,7857.07 L 6990.6,7853.61 L 7240,7997.61 L 7228,8004.54 L 6984.6,7864 Z " />
<path transform="matrix(0.1 0 0 0.1 -626.65 -734.4)" d="M 6981.6,7922.13 L 6987.6,7911.73 L 7185.16,8025.8 L 7179.16,8036.2 L 6981.6,7922.13 Z " />
<path transform="matrix(0.1 0 0 0.1 -626.65 -734.4)" d="M 6741.2,8004.54 L 6735.2,8001.07 L 6735.2,7994.14 L 6978.6,7853.61 L 6984.6,7857.07 L 6984.6,7864 L 6741.2,8004.54 Z " />
<path transform="matrix(0.1 0 0 0.1 -626.65 -734.4)" d="M 6482.8,7862.27 L 6488.8,7851.88 L 6735.2,7994.14 L 6735.2,8001.07 L 6729.2,8004.54 L 6482.8,7862.27 Z " />
<path transform="matrix(0.1 0 0 0.1 -626.65 -734.4)" d="M 6978.6,7569.07 L 6990.6,7569.07 L 6990.6,7853.61 L 6984.6,7857.07 L 6978.6,7853.61 L 6978.6,7569.07 Z " />
<path class="connection_in" stroke-width="18px" transform="matrix(0.1 0 0 0.1 -626.65 -734.4)" d="M 6313,7857.07 A 172.8,172.8 0 1 0 6658.6,7857.07A 172.8,172.8 0 1 0 6313,7857.07Z " />
<path class="connection_out" stroke-width="18px" transform="matrix(0.1 0 0 0.1 -626.65 -734.4)" d="M 6811.8,7569.07 A 172.8,172.8 0 1 0 7157.4,7569.07A 172.8,172.8 0 1 0 6811.8,7569.07Z " />
</svg>
