<svg viewBox="0 0 162 225" xmlns="http://www.w3.org/2000/svg">
<path transform="matrix(0.1 0 0 0.1 -211.65 -618.2)" d="M 2523.13,6813.1 L 2509.27,6813.1 L 2653.27,6563.7 L 2660.2,6563.7 L 2663.66,6569.7 L 2523.13,6813.1 Z " />
<path transform="matrix(0.1 0 0 0.1 -211.65 -618.2)" d="M 2581.25,6816.1 L 2570.86,6810.1 L 2684.93,6612.54 L 2695.32,6618.54 L 2581.25,6816.1 Z " />
<path transform="matrix(0.1 0 0 0.1 -211.65 -618.2)" d="M 2663.66,7056.5 L 2656.74,7068.5 L 2509.27,6813.1 L 2523.13,6813.1 L 2663.66,7056.5 Z " />
<path transform="matrix(0.1 0 0 0.1 -211.65 -618.2)" d="M 2944.74,7056.5 L 2948.2,7062.5 L 2944.74,7068.5 L 2656.74,7068.5 L 2663.66,7056.5 L 2944.74,7056.5 Z " />
<path transform="matrix(0.1 0 0 0.1 -211.65 -618.2)" d="M 2918.27,7004.66 L 2918.27,7016.66 L 2690.13,7016.66 L 2690.13,7004.66 L 2918.27,7004.66 Z " />
<path transform="matrix(0.1 0 0 0.1 -211.65 -618.2)" d="M 3085.27,6813.1 L 3099.13,6813.1 L 2955.13,7062.5 L 2948.2,7062.5 L 2944.74,7056.5 L 3085.27,6813.1 Z " />
<path transform="matrix(0.1 0 0 0.1 -211.65 -618.2)" d="M 2944.74,6569.7 L 2951.66,6557.7 L 3099.13,6813.1 L 3085.27,6813.1 L 2944.74,6569.7 Z " />
<path transform="matrix(0.1 0 0 0.1 -211.65 -618.2)" d="M 2913.08,6618.54 L 2923.47,6612.54 L 3037.54,6810.1 L 3027.15,6816.1 L 2913.08,6618.54 Z " />
<path transform="matrix(0.1 0 0 0.1 -211.65 -618.2)" d="M 2663.66,6569.7 L 2660.2,6563.7 L 2663.67,6557.7 L 2951.66,6557.7 L 2944.74,6569.7 L 2663.66,6569.7 Z " />
<text x="0" y="0" transform="matrix(0.1 0 0 0.1 90.3483 120.84)" font-size="200px">N</text>
<path transform="matrix(0.1 0 0 0.1 -211.65 -618.2)" d="M 3037.5,7205.16 L 3027.11,7211.16 L 2944.74,7068.5 L 2948.2,7062.5 L 2955.13,7062.5 L 3037.5,7205.16 Z " />
<path transform="matrix(0.1 0 0 0.1 -211.65 -618.2)" d="M 2955.13,7561.3 L 2948.2,7561.3 L 2944.74,7555.3 L 3024.8,7416.64 L 3035.19,7422.64 L 2955.13,7561.3 Z " />
<path transform="matrix(0.1 0 0 0.1 -211.65 -618.2)" d="M 2663.66,7567.3 L 2656.74,7555.3 L 2944.74,7555.3 L 2948.2,7561.3 L 2944.74,7567.3 L 2663.66,7567.3 Z " />
<path transform="matrix(0.1 0 0 0.1 -211.65 -618.2)" d="M 2690.13,7619.14 L 2690.13,7607.14 L 2918.27,7607.14 L 2918.27,7619.14 L 2690.13,7619.14 Z " />
<path transform="matrix(0.1 0 0 0.1 -211.65 -618.2)" d="M 2523.13,7810.7 L 2509.27,7810.7 L 2656.74,7555.3 L 2663.66,7567.3 L 2523.13,7810.7 Z " />
<path transform="matrix(0.1 0 0 0.1 -211.65 -618.2)" d="M 2663.66,8054.1 L 2660.2,8060.1 L 2653.27,8060.1 L 2509.27,7810.7 L 2523.13,7810.7 L 2663.66,8054.1 Z " />
<path transform="matrix(0.1 0 0 0.1 -211.65 -618.2)" d="M 2695.32,8005.26 L 2684.93,8011.26 L 2570.86,7813.7 L 2581.25,7807.7 L 2695.32,8005.26 Z " />
<path transform="matrix(0.1 0 0 0.1 -211.65 -618.2)" d="M 2944.74,8054.1 L 2951.66,8066.1 L 2663.66,8066.1 L 2660.2,8060.1 L 2663.66,8054.1 L 2944.74,8054.1 Z " />
<path transform="matrix(0.1 0 0 0.1 -211.65 -618.2)" d="M 3085.27,7810.7 L 3099.13,7810.7 L 2951.66,8066.1 L 2944.74,8054.1 L 3085.27,7810.7 Z " />
<path transform="matrix(0.1 0 0 0.1 -211.65 -618.2)" d="M 3027.15,7807.7 L 3037.54,7813.7 L 2923.47,8011.26 L 2913.08,8005.26 L 3027.15,7807.7 Z " />
<path transform="matrix(0.1 0 0 0.1 -211.65 -618.2)" d="M 2944.74,7567.3 L 2948.2,7561.3 L 2955.13,7561.3 L 3099.13,7810.7 L 3085.27,7810.7 L 2944.74,7567.3 Z " />
<text x="0" y="0" transform="matrix(0.1 0 0 0.1 4.40847 21.06)" font-size="200px">MeO</text>
<path transform="matrix(0.1 0 0 0.1 -211.65 -618.2)" d="M 2565.72,6411.94 L 2576.11,6405.94 L 2663.67,6557.7 L 2660.2,6563.7 L 2653.27,6563.7 L 2565.72,6411.94 Z " />
<text x="0" y="0" transform="matrix(0.1 0 0 0.1 4.40847 220.6)" font-size="200px">MeO</text>
<path transform="matrix(0.1 0 0 0.1 -211.65 -618.2)" d="M 2573.45,8222.34 L 2563.06,8216.34 L 2653.27,8060.1 L 2660.2,8060.1 L 2663.66,8066.1 L 2573.45,8222.34 Z " />
<path transform="matrix(0.1 0 0 0.1 -211.65 -618.2)" d="M 3380.2,7305.9 L 3380.2,7317.9 L 3179.98,7317.9 L 3179.98,7305.9 L 3380.2,7305.9 Z " />
<path class="connection_out" stroke-width="18px" transform="matrix(0.1 0 0 0.1 -211.65 -618.2)" d="M 3343.4,7324.5 A 172.8,172.8 0 1 0 3689,7324.5A 172.8,172.8 0 1 0 3343.4,7324.5Z " />
</svg>
