<svg viewBox="0 0 184 172" xmlns="http://www.w3.org/2000/svg">
<path transform="matrix(0.1 0 0 0.1 -411.65 -619.2)" d="M 4984.24,6343.45 L 4981.36,6357 L 4714.95,6443.66 L 4709.8,6439.02 L 4711.24,6432.25 L 4984.24,6343.45 Z " />
<path transform="matrix(0.1 0 0 0.1 -411.65 -619.2)" d="M 4968.56,6402.89 L 4972.27,6414.3 L 4756.01,6484.64 L 4752.29,6473.23 L 4968.56,6402.89 Z " />
<path transform="matrix(0.1 0 0 0.1 -411.65 -619.2)" d="M 5202.79,6540.08 L 5189.61,6544.37 L 4981.36,6357 L 4984.24,6343.45 L 5202.79,6540.08 Z " />
<path transform="matrix(0.1 0 0 0.1 -411.65 -619.2)" d="M 5142.83,6821.66 L 5136.4,6823.02 L 5131.25,6818.39 L 5189.61,6544.37 L 5202.79,6540.08 L 5142.83,6821.66 Z " />
<path transform="matrix(0.1 0 0 0.1 -411.65 -619.2)" d="M 5097.94,6784.34 L 5086.2,6781.84 L 5133.57,6559.42 L 5145.3,6561.92 L 5097.94,6784.34 Z " />
<path transform="matrix(0.1 0 0 0.1 -411.65 -619.2)" d="M 4869.6,6915.98 L 4863.6,6911.62 L 4865.04,6904.85 L 5131.25,6818.39 L 5136.4,6823.02 L 5134.11,6830.08 L 4869.6,6915.98 Z " />
<path transform="matrix(0.1 0 0 0.1 -411.65 -619.2)" d="M 4648.76,6726.4 L 4650.2,6719.62 L 4656.79,6717.48 L 4865.04,6904.85 L 4863.6,6911.62 L 4857.6,6914.3 L 4648.76,6726.4 Z " />
<path transform="matrix(0.1 0 0 0.1 -411.65 -619.2)" d="M 4702.93,6705.63 L 4710.96,6696.71 L 4880.01,6848.81 L 4871.98,6857.73 L 4702.93,6705.63 Z " />
<path transform="matrix(0.1 0 0 0.1 -411.65 -619.2)" d="M 4703.21,6441.16 L 4709.8,6439.02 L 4714.95,6443.66 L 4656.79,6717.48 L 4650.2,6719.62 L 4645.05,6714.99 L 4703.21,6441.16 Z " />
<text x="0" y="0" transform="matrix(0.1 0 0 0.1 111.648 94.1724)" font-size="200px">N</text>
<path transform="matrix(0.1 0 0 0.1 -411.65 -619.2)" d="M 5238.95,6953.89 L 5229.25,6960.95 L 5134.11,6830.08 L 5136.4,6823.02 L 5142.83,6821.66 L 5238.95,6953.89 Z " />
<path transform="matrix(0.1 0 0 0.1 -411.65 -619.2)" d="M 5142.83,7288.79 L 5136.4,7287.42 L 5134.11,7280.37 L 5226.71,7152.99 L 5236.42,7160.04 L 5142.83,7288.79 Z " />
<path transform="matrix(0.1 0 0 0.1 -411.65 -619.2)" d="M 5202.79,7570.37 L 5189.61,7566.08 L 5131.25,7292.06 L 5136.4,7287.42 L 5142.83,7288.79 L 5202.79,7570.37 Z " />
<path transform="matrix(0.1 0 0 0.1 -411.65 -619.2)" d="M 5145.3,7548.53 L 5133.57,7551.03 L 5086.2,7328.59 L 5097.93,7326.09 L 5145.3,7548.53 Z " />
<path transform="matrix(0.1 0 0 0.1 -411.65 -619.2)" d="M 4984.24,7767 L 4981.36,7753.45 L 5189.61,7566.08 L 5202.79,7570.37 L 4984.24,7767 Z " />
<path transform="matrix(0.1 0 0 0.1 -411.65 -619.2)" d="M 4711.24,7678.2 L 4709.8,7671.42 L 4714.95,7666.79 L 4981.36,7753.45 L 4984.24,7767 L 4711.24,7678.2 Z " />
<path transform="matrix(0.1 0 0 0.1 -411.65 -619.2)" d="M 4752.29,7637.22 L 4756.01,7625.8 L 4972.27,7696.15 L 4968.56,7707.56 L 4752.29,7637.22 Z " />
<path transform="matrix(0.1 0 0 0.1 -411.65 -619.2)" d="M 4645.05,7395.46 L 4650.2,7390.82 L 4656.79,7392.96 L 4714.95,7666.79 L 4709.8,7671.42 L 4703.21,7669.28 L 4645.05,7395.46 Z " />
<path transform="matrix(0.1 0 0 0.1 -411.65 -619.2)" d="M 4857.6,7195.95 L 4863.6,7198.62 L 4865.04,7205.4 L 4656.79,7392.96 L 4650.2,7390.82 L 4648.76,7384.05 L 4857.6,7195.95 Z " />
<path transform="matrix(0.1 0 0 0.1 -411.65 -619.2)" d="M 4871.99,7252.57 L 4880.02,7261.48 L 4710.98,7413.73 L 4702.95,7404.81 L 4871.99,7252.57 Z " />
<path transform="matrix(0.1 0 0 0.1 -411.65 -619.2)" d="M 5134.11,7280.37 L 5136.4,7287.42 L 5131.25,7292.06 L 4865.04,7205.4 L 4863.6,7198.62 L 4869.6,7194.27 L 5134.11,7280.37 Z " />
<path transform="matrix(0.1 0 0 0.1 -411.65 -619.2)" d="M 4857.6,6914.3 L 4863.6,6911.62 L 4869.6,6915.98 L 4869.6,7194.27 L 4863.6,7198.62 L 4857.6,7195.95 L 4857.6,6914.3 Z " />
<path transform="matrix(0.1 0 0 0.1 -411.65 -619.2)" d="M 4495.16,6253.8 L 4498.04,6240.25 L 4711.24,6432.25 L 4709.8,6439.02 L 4703.21,6441.16 L 4495.16,6253.8 Z " />
<path transform="matrix(0.1 0 0 0.1 -411.65 -619.2)" d="M 4228.95,6340.26 L 4218.65,6330.99 L 4498.04,6240.25 L 4495.16,6253.8 L 4228.95,6340.26 Z " />
<path transform="matrix(0.1 0 0 0.1 -411.65 -619.2)" d="M 4269.96,6381.22 L 4266.25,6369.81 L 4482.35,6299.63 L 4486.05,6311.04 L 4269.96,6381.22 Z " />
<path transform="matrix(0.1 0 0 0.1 -411.65 -619.2)" d="M 4170.79,6614.08 L 4157.61,6618.36 L 4218.65,6330.99 L 4228.95,6340.26 L 4170.79,6614.08 Z " />
<path transform="matrix(0.1 0 0 0.1 -411.65 -619.2)" d="M 4378.84,6801.45 L 4375.96,6815 L 4157.61,6618.36 L 4170.79,6614.08 L 4378.84,6801.45 Z " />
<path transform="matrix(0.1 0 0 0.1 -411.65 -619.2)" d="M 4393.82,6745.44 L 4385.79,6754.35 L 4216.9,6602.25 L 4224.93,6593.34 L 4393.82,6745.44 Z " />
<path transform="matrix(0.1 0 0 0.1 -411.65 -619.2)" d="M 4645.05,6714.99 L 4650.2,6719.62 L 4648.76,6726.4 L 4375.96,6815 L 4378.84,6801.45 L 4645.05,6714.99 Z " />
<path transform="matrix(0.1 0 0 0.1 -411.65 -619.2)" d="M 4378.84,7308.8 L 4375.96,7295.25 L 4648.76,7384.05 L 4650.2,7390.82 L 4645.05,7395.46 L 4378.84,7308.8 Z " />
<path transform="matrix(0.1 0 0 0.1 -411.65 -619.2)" d="M 4170.79,7496.16 L 4157.61,7491.88 L 4375.96,7295.25 L 4378.84,7308.8 L 4170.79,7496.16 Z " />
<path transform="matrix(0.1 0 0 0.1 -411.65 -619.2)" d="M 4224.93,7516.91 L 4216.9,7507.99 L 4385.77,7355.91 L 4393.8,7364.83 L 4224.93,7516.91 Z " />
<path transform="matrix(0.1 0 0 0.1 -411.65 -619.2)" d="M 4228.95,7769.99 L 4218.65,7779.26 L 4157.61,7491.88 L 4170.79,7496.16 L 4228.95,7769.99 Z " />
<path transform="matrix(0.1 0 0 0.1 -411.65 -619.2)" d="M 4495.16,7856.45 L 4498.04,7870 L 4218.65,7779.26 L 4228.95,7769.99 L 4495.16,7856.45 Z " />
<path transform="matrix(0.1 0 0 0.1 -411.65 -619.2)" d="M 4486.07,7799.21 L 4482.36,7810.62 L 4266.25,7740.44 L 4269.96,7729.02 L 4486.07,7799.21 Z " />
<path transform="matrix(0.1 0 0 0.1 -411.65 -619.2)" d="M 4703.21,7669.28 L 4709.8,7671.42 L 4711.24,7678.2 L 4498.04,7870 L 4495.16,7856.45 L 4703.21,7669.28 Z " />
<path transform="matrix(0.1 0 0 0.1 -411.65 -619.2)" d="M 5593.2,7049.22 L 5593.2,7061.22 L 5392.98,7061.22 L 5392.98,7049.22 L 5593.2,7049.22 Z " />
<path class="connection_out" stroke-width="18px" transform="matrix(0.1 0 0 0.1 -411.65 -619.2)" d="M 5556.8,7053.02 A 172.8,172.8 0 1 0 5902.4,7053.02A 172.8,172.8 0 1 0 5556.8,7053.02Z " />
</svg>
