<svg viewBox="0 0 170 185" xmlns="http://www.w3.org/2000/svg">
<text x="0" y="0" transform="matrix(0.1 0 0 0.1 98.8483 87.57)" font-size="200px">N</text>
<path transform="matrix(0.1 0 0 0.1 -506.15 -587.9)" d="M 5985.13,6925.6 L 5978.2,6925.6 L 5974.74,6919.6 L 6054.8,6780.94 L 6065.19,6786.94 L 5985.13,6925.6 Z " />
<path transform="matrix(0.1 0 0 0.1 -506.15 -587.9)" d="M 5974.74,6432.8 L 5978.2,6426.8 L 5985.13,6426.8 L 6067.5,6569.46 L 6057.11,6575.46 L 5974.74,6432.8 Z " />
<path transform="matrix(0.1 0 0 0.1 -506.15 -587.9)" d="M 5686.74,6432.8 L 5693.66,6420.8 L 5974.74,6420.8 L 5978.2,6426.8 L 5974.74,6432.8 L 5686.74,6432.8 Z " />
<path transform="matrix(0.1 0 0 0.1 -506.15 -587.9)" d="M 5720.13,6380.96 L 5720.13,6368.96 L 5948.27,6368.96 L 5948.27,6380.96 L 5720.13,6380.96 Z " />
<path transform="matrix(0.1 0 0 0.1 -506.15 -587.9)" d="M 5539.27,6177.4 L 5553.13,6177.4 L 5693.66,6420.8 L 5686.74,6432.8 L 5539.27,6177.4 Z " />
<path transform="matrix(0.1 0 0 0.1 -506.15 -587.9)" d="M 5686.74,5922 L 5693.66,5934 L 5553.13,6177.4 L 5539.27,6177.4 L 5686.74,5922 Z " />
<path transform="matrix(0.1 0 0 0.1 -506.15 -587.9)" d="M 5714.93,5976.84 L 5725.32,5982.84 L 5611.25,6180.4 L 5600.86,6174.4 L 5714.93,5976.84 Z " />
<path transform="matrix(0.1 0 0 0.1 -506.15 -587.9)" d="M 5981.66,5922 L 5974.74,5934 L 5693.66,5934 L 5686.74,5922 L 5981.66,5922 Z " />
<path transform="matrix(0.1 0 0 0.1 -506.15 -587.9)" d="M 6129.13,6177.4 L 6115.27,6177.4 L 5974.74,5934 L 5981.66,5922 L 6129.13,6177.4 Z " />
<path transform="matrix(0.1 0 0 0.1 -506.15 -587.9)" d="M 6067.54,6174.4 L 6057.15,6180.4 L 5943.08,5982.84 L 5953.47,5976.84 L 6067.54,6174.4 Z " />
<path transform="matrix(0.1 0 0 0.1 -506.15 -587.9)" d="M 5985.13,6426.8 L 5978.2,6426.8 L 5974.74,6420.8 L 6115.27,6177.4 L 6129.13,6177.4 L 5985.13,6426.8 Z " />
<path transform="matrix(0.1 0 0 0.1 -506.15 -587.9)" d="M 6129.13,7175.2 L 6115.27,7175.2 L 5974.73,6931.6 L 5978.2,6925.6 L 5985.13,6925.6 L 6129.13,7175.2 Z " />
<path transform="matrix(0.1 0 0 0.1 -506.15 -587.9)" d="M 6067.51,7172.19 L 6057.11,7178.19 L 5943.05,6980.47 L 5953.44,6974.47 L 6067.51,7172.19 Z " />
<path transform="matrix(0.1 0 0 0.1 -506.15 -587.9)" d="M 5981.66,7430.6 L 5974.74,7418.6 L 6115.27,7175.2 L 6129.13,7175.2 L 5981.66,7430.6 Z " />
<path transform="matrix(0.1 0 0 0.1 -506.15 -587.9)" d="M 5693.66,7430.6 L 5690.2,7424.6 L 5693.66,7418.6 L 5974.74,7418.6 L 5981.66,7430.6 L 5693.66,7430.6 Z " />
<path transform="matrix(0.1 0 0 0.1 -506.15 -587.9)" d="M 5720.13,7378.76 L 5720.13,7366.76 L 5948.27,7366.76 L 5948.27,7378.76 L 5720.13,7378.76 Z " />
<path transform="matrix(0.1 0 0 0.1 -506.15 -587.9)" d="M 5542.74,7181.2 L 5546.2,7175.2 L 5553.13,7175.2 L 5693.66,7418.6 L 5690.2,7424.6 L 5683.27,7424.6 L 5542.74,7181.2 Z " />
<path transform="matrix(0.1 0 0 0.1 -506.15 -587.9)" d="M 5686.73,6919.6 L 5693.67,6931.6 L 5553.13,7175.2 L 5546.2,7175.2 L 5542.73,7169.2 L 5686.73,6919.6 Z " />
<path transform="matrix(0.1 0 0 0.1 -506.15 -587.9)" d="M 5714.96,6974.47 L 5725.35,6980.47 L 5611.28,7178.19 L 5600.89,7172.19 L 5714.96,6974.47 Z " />
<path transform="matrix(0.1 0 0 0.1 -506.15 -587.9)" d="M 5974.74,6919.6 L 5978.2,6925.6 L 5974.73,6931.6 L 5693.67,6931.6 L 5686.73,6919.6 L 5974.74,6919.6 Z " />
<path transform="matrix(0.1 0 0 0.1 -506.15 -587.9)" d="M 5549.66,7680 L 5542.74,7668 L 5683.27,7424.6 L 5690.2,7424.6 L 5693.66,7430.6 L 5549.66,7680 Z " />
<path transform="matrix(0.1 0 0 0.1 -506.15 -587.9)" d="M 5254.74,7680 L 5261.66,7668 L 5542.74,7668 L 5549.66,7680 L 5254.74,7680 Z " />
<path transform="matrix(0.1 0 0 0.1 -506.15 -587.9)" d="M 5288.13,7628.16 L 5288.13,7616.16 L 5516.27,7616.16 L 5516.27,7628.16 L 5288.13,7628.16 Z " />
<path transform="matrix(0.1 0 0 0.1 -506.15 -587.9)" d="M 5107.27,7424.6 L 5121.13,7424.6 L 5261.66,7668 L 5254.74,7680 L 5107.27,7424.6 Z " />
<path transform="matrix(0.1 0 0 0.1 -506.15 -587.9)" d="M 5254.74,7169.2 L 5261.66,7181.2 L 5121.13,7424.6 L 5107.27,7424.6 L 5254.74,7169.2 Z " />
<path transform="matrix(0.1 0 0 0.1 -506.15 -587.9)" d="M 5282.93,7224.04 L 5293.32,7230.04 L 5179.25,7427.6 L 5168.86,7421.6 L 5282.93,7224.04 Z " />
<path transform="matrix(0.1 0 0 0.1 -506.15 -587.9)" d="M 5542.73,7169.2 L 5546.2,7175.2 L 5542.74,7181.2 L 5261.66,7181.2 L 5254.74,7169.2 L 5542.73,7169.2 Z " />
<path transform="matrix(0.1 0 0 0.1 -506.15 -587.9)" d="M 6410.2,6670.2 L 6410.2,6682.2 L 6209.98,6682.2 L 6209.98,6670.2 L 6410.2,6670.2 Z " />
<path class="connection_out" stroke-width="18px" transform="matrix(0.1 0 0 0.1 -506.15 -587.9)" d="M 6366.8,6671 A 172.8,172.8 0 1 0 6712.4,6671A 172.8,172.8 0 1 0 6366.8,6671Z " />
</svg>
