<svg viewBox="0 0 135 160" xmlns="http://www.w3.org/2000/svg">
<text x="0" y="0" transform="matrix(0.1 0 0 0.1 61.815 87.53)" font-size="200px">N</text>
<path transform="matrix(0.1 0 0 0.1 -421.15 -684.9)" d="M 4764.79,7895.2 L 4757.87,7895.2 L 4754.4,7889.2 L 4834.46,7750.54 L 4844.86,7756.54 L 4764.79,7895.2 Z " />
<path transform="matrix(0.1 0 0 0.1 -421.15 -684.9)" d="M 4754.4,7402.4 L 4757.87,7396.4 L 4764.79,7396.4 L 4847.17,7539.06 L 4836.77,7545.06 L 4754.4,7402.4 Z " />
<path transform="matrix(0.1 0 0 0.1 -421.15 -684.9)" d="M 4473.33,7402.4 L 4469.87,7396.4 L 4473.33,7390.4 L 4754.4,7390.4 L 4757.87,7396.4 L 4754.4,7402.4 L 4473.33,7402.4 Z " />
<path transform="matrix(0.1 0 0 0.1 -421.15 -684.9)" d="M 4499.8,7350.56 L 4499.8,7338.56 L 4727.94,7338.56 L 4727.94,7350.56 L 4499.8,7350.56 Z " />
<path transform="matrix(0.1 0 0 0.1 -421.15 -684.9)" d="M 4318.94,7147 L 4332.79,7147 L 4473.33,7390.4 L 4469.87,7396.4 L 4462.94,7396.4 L 4318.94,7147 Z " />
<path transform="matrix(0.1 0 0 0.1 -421.15 -684.9)" d="M 4466.4,6891.6 L 4473.33,6903.6 L 4332.79,7147 L 4318.94,7147 L 4466.4,6891.6 Z " />
<path transform="matrix(0.1 0 0 0.1 -421.15 -684.9)" d="M 4494.6,6946.44 L 4504.99,6952.44 L 4390.92,7150 L 4380.53,7144 L 4494.6,6946.44 Z " />
<path transform="matrix(0.1 0 0 0.1 -421.15 -684.9)" d="M 4761.33,6891.6 L 4754.4,6903.6 L 4473.33,6903.6 L 4466.4,6891.6 L 4761.33,6891.6 Z " />
<path transform="matrix(0.1 0 0 0.1 -421.15 -684.9)" d="M 4908.79,7147 L 4894.94,7147 L 4754.4,6903.6 L 4761.33,6891.6 L 4908.79,7147 Z " />
<path transform="matrix(0.1 0 0 0.1 -421.15 -684.9)" d="M 4847.2,7144 L 4836.81,7150 L 4722.74,6952.44 L 4733.14,6946.44 L 4847.2,7144 Z " />
<path transform="matrix(0.1 0 0 0.1 -421.15 -684.9)" d="M 4764.79,7396.4 L 4757.87,7396.4 L 4754.4,7390.4 L 4894.94,7147 L 4908.79,7147 L 4764.79,7396.4 Z " />
<path transform="matrix(0.1 0 0 0.1 -421.15 -684.9)" d="M 4908.79,8144.6 L 4894.94,8144.6 L 4754.4,7901.2 L 4757.87,7895.2 L 4764.79,7895.2 L 4908.79,8144.6 Z " />
<path transform="matrix(0.1 0 0 0.1 -421.15 -684.9)" d="M 4847.2,8141.6 L 4836.81,8147.6 L 4722.74,7950.04 L 4733.14,7944.04 L 4847.2,8141.6 Z " />
<path transform="matrix(0.1 0 0 0.1 -421.15 -684.9)" d="M 4761.33,8400 L 4754.4,8388 L 4894.94,8144.6 L 4908.79,8144.6 L 4761.33,8400 Z " />
<path transform="matrix(0.1 0 0 0.1 -421.15 -684.9)" d="M 4466.4,8400 L 4473.33,8388 L 4754.4,8388 L 4761.33,8400 L 4466.4,8400 Z " />
<path transform="matrix(0.1 0 0 0.1 -421.15 -684.9)" d="M 4499.8,8348.16 L 4499.8,8336.16 L 4727.94,8336.16 L 4727.94,8348.16 L 4499.8,8348.16 Z " />
<path transform="matrix(0.1 0 0 0.1 -421.15 -684.9)" d="M 4318.94,8144.6 L 4332.79,8144.6 L 4473.33,8388 L 4466.4,8400 L 4318.94,8144.6 Z " />
<path transform="matrix(0.1 0 0 0.1 -421.15 -684.9)" d="M 4462.94,7895.2 L 4469.87,7895.2 L 4473.33,7901.2 L 4332.79,8144.6 L 4318.94,8144.6 L 4462.94,7895.2 Z " />
<path transform="matrix(0.1 0 0 0.1 -421.15 -684.9)" d="M 4494.6,7944.04 L 4504.99,7950.04 L 4390.92,8147.6 L 4380.53,8141.6 L 4494.6,7944.04 Z " />
<path transform="matrix(0.1 0 0 0.1 -421.15 -684.9)" d="M 4754.4,7889.2 L 4757.87,7895.2 L 4754.4,7901.2 L 4473.33,7901.2 L 4469.87,7895.2 L 4473.33,7889.2 L 4754.4,7889.2 Z " />
<text x="0" y="0" transform="matrix(0.1 0 0 0.1 4.76673 87.53)" font-size="200px">S</text>
<path transform="matrix(0.1 0 0 0.1 -421.15 -684.9)" d="M 4382.6,7559.54 L 4372.21,7553.54 L 4462.94,7396.4 L 4469.87,7396.4 L 4473.33,7402.4 L 4382.6,7559.54 Z " />
<path transform="matrix(0.1 0 0 0.1 -421.15 -684.9)" d="M 4473.33,7889.2 L 4469.87,7895.2 L 4462.94,7895.2 L 4375.52,7743.79 L 4385.91,7737.79 L 4473.33,7889.2 Z " />
<path transform="matrix(0.1 0 0 0.1 -421.15 -684.9)" d="M 5189.87,7639.8 L 5189.87,7651.8 L 4989.65,7651.8 L 4989.65,7639.8 L 5189.87,7639.8 Z " />
<path class="connection_out" stroke-width="18px" transform="matrix(0.1 0 0 0.1 -421.15 -684.9)" d="M 5166.87,7637.6 A 172.8,172.8 0 1 0 5512.47,7637.6A 172.8,172.8 0 1 0 5166.87,7637.6Z " />
</svg>
