<svg viewBox="0 0 133 160" xmlns="http://www.w3.org/2000/svg">
<path transform="matrix(0.1 0 0 0.1 -459.15 -697.9)" d="M 4725.13,7280.33 L 4711.27,7280.33 L 4858.74,7024.93 L 4865.66,7036.93 L 4725.13,7280.33 Z " />
<path transform="matrix(0.1 0 0 0.1 -459.15 -697.9)" d="M 4783.25,7283.33 L 4772.86,7277.33 L 4886.93,7079.77 L 4897.32,7085.77 L 4783.25,7283.33 Z " />
<path transform="matrix(0.1 0 0 0.1 -459.15 -697.9)" d="M 4865.66,7523.73 L 4862.2,7529.73 L 4855.27,7529.73 L 4711.27,7280.33 L 4725.13,7280.33 L 4865.66,7523.73 Z " />
<path transform="matrix(0.1 0 0 0.1 -459.15 -697.9)" d="M 5146.74,7523.73 L 5150.2,7529.73 L 5146.74,7535.73 L 4865.66,7535.73 L 4862.2,7529.73 L 4865.66,7523.73 L 5146.74,7523.73 Z " />
<path transform="matrix(0.1 0 0 0.1 -459.15 -697.9)" d="M 5120.27,7471.89 L 5120.27,7483.89 L 4892.13,7483.89 L 4892.13,7471.89 L 5120.27,7471.89 Z " />
<path transform="matrix(0.1 0 0 0.1 -459.15 -697.9)" d="M 5287.27,7280.33 L 5301.13,7280.33 L 5157.13,7529.73 L 5150.2,7529.73 L 5146.74,7523.73 L 5287.27,7280.33 Z " />
<path transform="matrix(0.1 0 0 0.1 -459.15 -697.9)" d="M 5146.74,7036.93 L 5153.66,7024.93 L 5301.13,7280.33 L 5287.27,7280.33 L 5146.74,7036.93 Z " />
<path transform="matrix(0.1 0 0 0.1 -459.15 -697.9)" d="M 5115.08,7085.77 L 5125.47,7079.77 L 5239.54,7277.33 L 5229.15,7283.33 L 5115.08,7085.77 Z " />
<path transform="matrix(0.1 0 0 0.1 -459.15 -697.9)" d="M 4865.66,7036.93 L 4858.74,7024.93 L 5153.66,7024.93 L 5146.74,7036.93 L 4865.66,7036.93 Z " />
<text x="0" y="0" transform="matrix(0.1 0 0 0.1 63.0483 87.8633)" font-size="200px">N</text>
<path transform="matrix(0.1 0 0 0.1 -459.15 -697.9)" d="M 5239.5,7672.4 L 5229.11,7678.4 L 5146.74,7535.73 L 5150.2,7529.73 L 5157.13,7529.73 L 5239.5,7672.4 Z " />
<path transform="matrix(0.1 0 0 0.1 -459.15 -697.9)" d="M 5157.13,8028.53 L 5150.2,8028.53 L 5146.74,8022.53 L 5226.8,7883.87 L 5237.19,7889.87 L 5157.13,8028.53 Z " />
<path transform="matrix(0.1 0 0 0.1 -459.15 -697.9)" d="M 4865.66,8034.53 L 4862.2,8028.53 L 4865.66,8022.53 L 5146.74,8022.53 L 5150.2,8028.53 L 5146.74,8034.53 L 4865.66,8034.53 Z " />
<path transform="matrix(0.1 0 0 0.1 -459.15 -697.9)" d="M 4892.13,8086.37 L 4892.13,8074.37 L 5120.27,8074.37 L 5120.27,8086.37 L 4892.13,8086.37 Z " />
<path transform="matrix(0.1 0 0 0.1 -459.15 -697.9)" d="M 4725.13,8277.93 L 4711.27,8277.93 L 4855.27,8028.53 L 4862.2,8028.53 L 4865.66,8034.53 L 4725.13,8277.93 Z " />
<path transform="matrix(0.1 0 0 0.1 -459.15 -697.9)" d="M 4865.66,8521.33 L 4858.74,8533.33 L 4711.27,8277.93 L 4725.13,8277.93 L 4865.66,8521.33 Z " />
<path transform="matrix(0.1 0 0 0.1 -459.15 -697.9)" d="M 4897.32,8472.5 L 4886.93,8478.5 L 4772.86,8280.93 L 4783.25,8274.93 L 4897.32,8472.5 Z " />
<path transform="matrix(0.1 0 0 0.1 -459.15 -697.9)" d="M 5146.74,8521.33 L 5153.66,8533.33 L 4858.74,8533.33 L 4865.66,8521.33 L 5146.74,8521.33 Z " />
<path transform="matrix(0.1 0 0 0.1 -459.15 -697.9)" d="M 5287.27,8277.93 L 5301.13,8277.93 L 5153.66,8533.33 L 5146.74,8521.33 L 5287.27,8277.93 Z " />
<path transform="matrix(0.1 0 0 0.1 -459.15 -697.9)" d="M 5229.15,8274.93 L 5239.54,8280.93 L 5125.47,8478.5 L 5115.08,8472.5 L 5229.15,8274.93 Z " />
<path transform="matrix(0.1 0 0 0.1 -459.15 -697.9)" d="M 5146.74,8034.53 L 5150.2,8028.53 L 5157.13,8028.53 L 5301.13,8277.93 L 5287.27,8277.93 L 5146.74,8034.53 Z " />
<text x="0" y="0" transform="matrix(0.1 0 0 0.1 4.89166 87.8633)" font-size="200px">O</text>
<path transform="matrix(0.1 0 0 0.1 -459.15 -697.9)" d="M 4775.48,7691.93 L 4765.08,7685.93 L 4855.27,7529.73 L 4862.2,7529.73 L 4865.66,7535.73 L 4775.48,7691.93 Z " />
<path transform="matrix(0.1 0 0 0.1 -459.15 -697.9)" d="M 4767.76,7876.97 L 4778.15,7870.97 L 4865.66,8022.53 L 4862.2,8028.53 L 4855.27,8028.53 L 4767.76,7876.97 Z " />
<path transform="matrix(0.1 0 0 0.1 -459.15 -697.9)" d="M 5582.2,7773.13 L 5582.2,7785.13 L 5381.98,7785.13 L 5381.98,7773.13 L 5582.2,7773.13 Z " />
<path class="connection_out" stroke-width="18px" transform="matrix(0.1 0 0 0.1 -459.15 -697.9)" d="M 5520.2,7768.33 A 172.8,172.8 0 1 0 5865.8,7768.33A 172.8,172.8 0 1 0 5520.2,7768.33Z " />
</svg>
