<svg xmlns="http://www.w3.org/2000/svg" xmlns:xlink="http://www.w3.org/1999/xlink" xmlns:cml="http://www.xml-cml.org/schema" version="1.1" id="topsvg" x="0" y="0" viewBox="0 0 100 100">
<title>A_10_O - Open Babel Depiction</title>
<rect x="0" y="0" width="100" height="100" fill="white"/>
<g transform="translate(0,0)">
<svg width="100" height="100" x="0" y="0" viewBox="0 0 404.061 341.935" font-family="sans-serif" stroke="rgb(0,0,0)" stroke-width="2" stroke-linecap="round">
<line x1="299.2" y1="227.1" x2="245.7" y2="196.2" opacity="1.0" stroke="rgb(0,0,0)" stroke-width="2.0"/>
<line x1="234.4" y1="176.7" x2="234.4" y2="114.8" opacity="1.0" stroke="rgb(0,0,0)" stroke-width="2.0"/>
<line x1="169.6" y1="264.5" x2="169.6" y2="288.9" opacity="1.0" stroke="rgb(0,0,0)" stroke-width="2.0"/>
<line x1="223.2" y1="196.2" x2="202.0" y2="208.4" opacity="1.0" stroke="rgb(0,0,0)" stroke-width="2.0"/>
<line x1="137.2" y1="208.4" x2="104.8" y2="189.7" opacity="1.0" stroke="rgb(0,0,0)" stroke-width="2.0"/>
<line x1="331.7" y1="283.2" x2="299.2" y2="264.5" opacity="1.0" stroke="rgb(0,0,0)" stroke-width="2.0"/>
<line x1="299.2" y1="264.5" x2="299.2" y2="227.1" opacity="1.0" stroke="rgb(0,0,0)" stroke-width="2.0"/>
<line x1="306.4" y1="258.5" x2="306.4" y2="233.1" opacity="1.0" stroke="rgb(0,0,0)" stroke-width="2.0"/>
<line x1="299.2" y1="227.1" x2="331.7" y2="208.4" opacity="1.0" stroke="rgb(0,0,0)" stroke-width="2.0"/>
<line x1="331.7" y1="208.4" x2="364.1" y2="227.1" opacity="1.0" stroke="rgb(0,0,0)" stroke-width="2.0"/>
<line x1="333.3" y1="217.6" x2="355.3" y2="230.3" opacity="1.0" stroke="rgb(0,0,0)" stroke-width="2.0"/>
<line x1="364.1" y1="227.1" x2="364.1" y2="264.5" opacity="1.0" stroke="rgb(0,0,0)" stroke-width="2.0"/>
<line x1="364.1" y1="264.5" x2="331.7" y2="283.2" opacity="1.0" stroke="rgb(0,0,0)" stroke-width="2.0"/>
<line x1="355.3" y1="261.3" x2="333.3" y2="274.0" opacity="1.0" stroke="rgb(0,0,0)" stroke-width="2.0"/>
<line x1="202.0" y1="96.1" x2="202.0" y2="58.7" opacity="1.0" stroke="rgb(0,0,0)" stroke-width="2.0"/>
<line x1="202.0" y1="58.7" x2="234.4" y2="40.0" opacity="1.0" stroke="rgb(0,0,0)" stroke-width="2.0"/>
<line x1="210.8" y1="61.9" x2="232.8" y2="49.2" opacity="1.0" stroke="rgb(0,0,0)" stroke-width="2.0"/>
<line x1="234.4" y1="40.0" x2="266.8" y2="58.7" opacity="1.0" stroke="rgb(0,0,0)" stroke-width="2.0"/>
<line x1="266.8" y1="58.7" x2="266.8" y2="96.1" opacity="1.0" stroke="rgb(0,0,0)" stroke-width="2.0"/>
<line x1="259.6" y1="64.7" x2="259.6" y2="90.1" opacity="1.0" stroke="rgb(0,0,0)" stroke-width="2.0"/>
<line x1="266.8" y1="96.1" x2="234.4" y2="114.8" opacity="1.0" stroke="rgb(0,0,0)" stroke-width="2.0"/>
<line x1="234.4" y1="114.8" x2="202.0" y2="96.1" opacity="1.0" stroke="rgb(0,0,0)" stroke-width="2.0"/>
<line x1="232.8" y1="105.6" x2="210.8" y2="92.9" opacity="1.0" stroke="rgb(0,0,0)" stroke-width="2.0"/>
<line x1="202.0" y1="245.8" x2="169.6" y2="264.5" opacity="1.0" stroke="rgb(0,0,0)" stroke-width="2.0"/>
<line x1="169.6" y1="264.5" x2="137.2" y2="245.8" opacity="1.0" stroke="rgb(0,0,0)" stroke-width="2.0"/>
<line x1="168.0" y1="255.3" x2="146.0" y2="242.6" opacity="1.0" stroke="rgb(0,0,0)" stroke-width="2.0"/>
<line x1="137.2" y1="245.8" x2="137.2" y2="208.4" opacity="1.0" stroke="rgb(0,0,0)" stroke-width="2.0"/>
<line x1="137.2" y1="208.4" x2="169.6" y2="189.7" opacity="1.0" stroke="rgb(0,0,0)" stroke-width="2.0"/>
<line x1="146.0" y1="211.6" x2="168.0" y2="198.9" opacity="1.0" stroke="rgb(0,0,0)" stroke-width="2.0"/>
<line x1="169.6" y1="189.7" x2="202.0" y2="208.4" opacity="1.0" stroke="rgb(0,0,0)" stroke-width="2.0"/>
<line x1="202.0" y1="208.4" x2="202.0" y2="245.8" opacity="1.0" stroke="rgb(0,0,0)" stroke-width="2.0"/>
<line x1="194.8" y1="214.4" x2="194.8" y2="239.8" opacity="1.0" stroke="rgb(0,0,0)" stroke-width="2.0"/>
<line x1="61.1" y1="201.9" x2="40.0" y2="189.7" opacity="1.0" stroke="rgb(0,0,0)" stroke-width="2.0"/>
<line x1="40.0" y1="189.7" x2="40.0" y2="152.3" opacity="1.0" stroke="rgb(0,0,0)" stroke-width="2.0"/>
<line x1="47.2" y1="183.7" x2="47.2" y2="158.3" opacity="1.0" stroke="rgb(0,0,0)" stroke-width="2.0"/>
<line x1="40.0" y1="152.3" x2="72.4" y2="133.5" opacity="1.0" stroke="rgb(0,0,0)" stroke-width="2.0"/>
<line x1="72.4" y1="133.5" x2="104.8" y2="152.3" opacity="1.0" stroke="rgb(0,0,0)" stroke-width="2.0"/>
<line x1="74.0" y1="142.8" x2="96.0" y2="155.5" opacity="1.0" stroke="rgb(0,0,0)" stroke-width="2.0"/>
<line x1="104.8" y1="152.3" x2="104.8" y2="189.7" opacity="1.0" stroke="rgb(0,0,0)" stroke-width="2.0"/>
<line x1="104.8" y1="189.7" x2="83.1" y2="202.2" opacity="1.0" stroke="rgb(0,0,0)" stroke-width="2.0"/>
<line x1="96.0" y1="186.4" x2="81.5" y2="194.8" opacity="1.0" stroke="rgb(0,0,0)" stroke-width="2.0"/>
<text x="66.406112" y="216.387097" fill="rgb(12,12,255)" stroke-width="0" font-weight="bold" font-size="16">N</text>
<text x="163.624448" y="309.935484" fill="rgb(127,178,255)" stroke-width="0" font-weight="bold" font-size="16">F</text>
<text x="228.436671" y="197.677419" fill="rgb(12,12,255)" stroke-width="0" font-weight="bold" font-size="16">N</text>
</svg>
</g>
</svg>