<svg xmlns="http://www.w3.org/2000/svg" x="0" y="0" viewBox="0 0 100 100">
<title>A_10_Q - Open Babel Depiction</title>
<rect x="0" y="0" width="100" height="100" fill="white"/>
<g transform="translate(0,0)">
<svg width="100" height="100" x="0" y="0" viewBox="0 0 404.061 341.935" font-family="sans-serif" stroke="rgb(0,0,0)" stroke-width="2" stroke-linecap="round">
<line x1="104.8" y1="114.8" x2="158.4" y2="145.8" opacity="1.0" stroke="rgb(0,0,0)" stroke-width="2.0"/>
<line x1="169.6" y1="165.3" x2="169.6" y2="227.1" opacity="1.0" stroke="rgb(0,0,0)" stroke-width="2.0"/>
<line x1="234.4" y1="77.4" x2="234.4" y2="53.0" opacity="1.0" stroke="rgb(0,0,0)" stroke-width="2.0"/>
<line x1="180.9" y1="145.8" x2="202.0" y2="133.5" opacity="1.0" stroke="rgb(0,0,0)" stroke-width="2.0"/>
<line x1="266.8" y1="133.5" x2="299.2" y2="152.3" opacity="1.0" stroke="rgb(0,0,0)" stroke-width="2.0"/>
<line x1="72.4" y1="58.7" x2="104.8" y2="77.4" opacity="1.0" stroke="rgb(0,0,0)" stroke-width="2.0"/>
<line x1="104.8" y1="77.4" x2="104.8" y2="114.8" opacity="1.0" stroke="rgb(0,0,0)" stroke-width="2.0"/>
<line x1="97.6" y1="83.4" x2="97.6" y2="108.8" opacity="1.0" stroke="rgb(0,0,0)" stroke-width="2.0"/>
<line x1="104.8" y1="114.8" x2="72.4" y2="133.5" opacity="1.0" stroke="rgb(0,0,0)" stroke-width="2.0"/>
<line x1="72.4" y1="133.5" x2="40.0" y2="114.8" opacity="1.0" stroke="rgb(0,0,0)" stroke-width="2.0"/>
<line x1="70.8" y1="124.3" x2="48.8" y2="111.6" opacity="1.0" stroke="rgb(0,0,0)" stroke-width="2.0"/>
<line x1="40.0" y1="114.8" x2="40.0" y2="77.4" opacity="1.0" stroke="rgb(0,0,0)" stroke-width="2.0"/>
<line x1="40.0" y1="77.4" x2="72.4" y2="58.7" opacity="1.0" stroke="rgb(0,0,0)" stroke-width="2.0"/>
<line x1="48.8" y1="80.7" x2="70.8" y2="67.9" opacity="1.0" stroke="rgb(0,0,0)" stroke-width="2.0"/>
<line x1="202.0" y1="245.8" x2="202.0" y2="283.2" opacity="1.0" stroke="rgb(0,0,0)" stroke-width="2.0"/>
<line x1="202.0" y1="283.2" x2="169.6" y2="301.9" opacity="1.0" stroke="rgb(0,0,0)" stroke-width="2.0"/>
<line x1="193.2" y1="280.0" x2="171.2" y2="292.7" opacity="1.0" stroke="rgb(0,0,0)" stroke-width="2.0"/>
<line x1="169.6" y1="301.9" x2="137.2" y2="283.2" opacity="1.0" stroke="rgb(0,0,0)" stroke-width="2.0"/>
<line x1="137.2" y1="283.2" x2="137.2" y2="245.8" opacity="1.0" stroke="rgb(0,0,0)" stroke-width="2.0"/>
<line x1="144.4" y1="277.2" x2="144.4" y2="251.8" opacity="1.0" stroke="rgb(0,0,0)" stroke-width="2.0"/>
<line x1="137.2" y1="245.8" x2="169.6" y2="227.1" opacity="1.0" stroke="rgb(0,0,0)" stroke-width="2.0"/>
<line x1="169.6" y1="227.1" x2="202.0" y2="245.8" opacity="1.0" stroke="rgb(0,0,0)" stroke-width="2.0"/>
<line x1="171.2" y1="236.3" x2="193.2" y2="249.0" opacity="1.0" stroke="rgb(0,0,0)" stroke-width="2.0"/>
<line x1="202.0" y1="96.1" x2="234.4" y2="77.4" opacity="1.0" stroke="rgb(0,0,0)" stroke-width="2.0"/>
<line x1="234.4" y1="77.4" x2="266.8" y2="96.1" opacity="1.0" stroke="rgb(0,0,0)" stroke-width="2.0"/>
<line x1="236.0" y1="86.7" x2="258.0" y2="99.4" opacity="1.0" stroke="rgb(0,0,0)" stroke-width="2.0"/>
<line x1="266.8" y1="96.1" x2="266.8" y2="133.5" opacity="1.0" stroke="rgb(0,0,0)" stroke-width="2.0"/>
<line x1="266.8" y1="133.5" x2="234.4" y2="152.3" opacity="1.0" stroke="rgb(0,0,0)" stroke-width="2.0"/>
<line x1="258.0" y1="130.3" x2="236.0" y2="143.0" opacity="1.0" stroke="rgb(0,0,0)" stroke-width="2.0"/>
<line x1="234.4" y1="152.3" x2="202.0" y2="133.5" opacity="1.0" stroke="rgb(0,0,0)" stroke-width="2.0"/>
<line x1="202.0" y1="133.5" x2="202.0" y2="96.1" opacity="1.0" stroke="rgb(0,0,0)" stroke-width="2.0"/>
<line x1="209.2" y1="127.5" x2="209.2" y2="102.1" opacity="1.0" stroke="rgb(0,0,0)" stroke-width="2.0"/>
<line x1="342.9" y1="140.0" x2="364.1" y2="152.3" opacity="1.0" stroke="rgb(0,0,0)" stroke-width="2.0"/>
<line x1="364.1" y1="152.3" x2="364.1" y2="189.7" opacity="1.0" stroke="rgb(0,0,0)" stroke-width="2.0"/>
<line x1="356.9" y1="158.3" x2="356.9" y2="183.7" opacity="1.0" stroke="rgb(0,0,0)" stroke-width="2.0"/>
<line x1="364.1" y1="189.7" x2="342.9" y2="201.9" opacity="1.0" stroke="rgb(0,0,0)" stroke-width="2.0"/>
<line x1="321.0" y1="202.2" x2="299.2" y2="189.7" opacity="1.0" stroke="rgb(0,0,0)" stroke-width="2.0"/>
<line x1="322.6" y1="194.8" x2="308.0" y2="186.4" opacity="1.0" stroke="rgb(0,0,0)" stroke-width="2.0"/>
<line x1="299.2" y1="189.7" x2="299.2" y2="152.3" opacity="1.0" stroke="rgb(0,0,0)" stroke-width="2.0"/>
<line x1="299.2" y1="152.3" x2="321.0" y2="139.7" opacity="1.0" stroke="rgb(0,0,0)" stroke-width="2.0"/>
<line x1="308.0" y1="155.5" x2="322.6" y2="147.1" opacity="1.0" stroke="rgb(0,0,0)" stroke-width="2.0"/>
<text x="325.655007" y="216.387097" fill="rgb(12,12,255)" stroke-width="0" font-weight="bold" font-size="16">N</text>
<text x="325.655007" y="141.548387" fill="rgb(12,12,255)" stroke-width="0" font-weight="bold" font-size="16">N</text>
<text x="228.436671" y="48.000000" fill="rgb(127,178,255)" stroke-width="0" font-weight="bold" font-size="16">F</text>
<text x="163.624448" y="160.258065" fill="rgb(12,12,255)" stroke-width="0" font-weight="bold" font-size="16">N</text>
</svg>
</g>
</svg>
