<svg xmlns="http://www.w3.org/2000/svg" x="0" y="0" viewBox="0 0 100 100">
<title>A_1_N - Open Babel Depiction</title>
<rect x="0" y="0" width="100" height="100" fill="white"/>
<g transform="translate(0,0)">
<svg width="100" height="100" x="0" y="0" viewBox="0 0 396.957 348.229" font-family="sans-serif" stroke="rgb(0,0,0)" stroke-width="2" stroke-linecap="round">
<line x1="104.5" y1="122.0" x2="157.7" y2="152.8" opacity="1.0" stroke="rgb(0,0,0)" stroke-width="2.0"/>
<line x1="169.0" y1="172.3" x2="169.0" y2="233.7" opacity="1.0" stroke="rgb(0,0,0)" stroke-width="2.0"/>
<line x1="180.3" y1="152.8" x2="201.3" y2="140.6" opacity="1.0" stroke="rgb(0,0,0)" stroke-width="2.0"/>
<line x1="265.8" y1="103.4" x2="298.0" y2="84.8" opacity="1.0" stroke="rgb(0,0,0)" stroke-width="2.0"/>
<line x1="301.9" y1="47.7" x2="325.6" y2="42.7" opacity="1.0" stroke="rgb(0,0,0)" stroke-width="2.0"/>
<line x1="344.8" y1="51.3" x2="357.0" y2="72.3" opacity="1.0" stroke="rgb(0,0,0)" stroke-width="2.0"/>
<line x1="357.0" y1="72.3" x2="332.0" y2="99.9" opacity="1.0" stroke="rgb(0,0,0)" stroke-width="2.0"/>
<line x1="347.6" y1="71.9" x2="330.7" y2="90.7" opacity="1.0" stroke="rgb(0,0,0)" stroke-width="2.0"/>
<line x1="332.0" y1="99.9" x2="298.0" y2="84.8" opacity="1.0" stroke="rgb(0,0,0)" stroke-width="2.0"/>
<line x1="298.0" y1="84.8" x2="301.9" y2="47.7" opacity="1.0" stroke="rgb(0,0,0)" stroke-width="2.0"/>
<line x1="305.8" y1="79.6" x2="308.4" y2="54.5" opacity="1.0" stroke="rgb(0,0,0)" stroke-width="2.0"/>
<line x1="72.3" y1="66.2" x2="104.5" y2="84.8" opacity="1.0" stroke="rgb(0,0,0)" stroke-width="2.0"/>
<line x1="104.5" y1="84.8" x2="104.5" y2="122.0" opacity="1.0" stroke="rgb(0,0,0)" stroke-width="2.0"/>
<line x1="97.3" y1="90.8" x2="97.3" y2="116.0" opacity="1.0" stroke="rgb(0,0,0)" stroke-width="2.0"/>
<line x1="104.5" y1="122.0" x2="72.3" y2="140.6" opacity="1.0" stroke="rgb(0,0,0)" stroke-width="2.0"/>
<line x1="72.3" y1="140.6" x2="40.0" y2="122.0" opacity="1.0" stroke="rgb(0,0,0)" stroke-width="2.0"/>
<line x1="70.7" y1="131.4" x2="48.8" y2="118.8" opacity="1.0" stroke="rgb(0,0,0)" stroke-width="2.0"/>
<line x1="40.0" y1="122.0" x2="40.0" y2="84.8" opacity="1.0" stroke="rgb(0,0,0)" stroke-width="2.0"/>
<line x1="40.0" y1="84.8" x2="72.3" y2="66.2" opacity="1.0" stroke="rgb(0,0,0)" stroke-width="2.0"/>
<line x1="48.8" y1="88.0" x2="70.7" y2="75.4" opacity="1.0" stroke="rgb(0,0,0)" stroke-width="2.0"/>
<line x1="201.3" y1="252.4" x2="201.3" y2="289.6" opacity="1.0" stroke="rgb(0,0,0)" stroke-width="2.0"/>
<line x1="201.3" y1="289.6" x2="169.0" y2="308.2" opacity="1.0" stroke="rgb(0,0,0)" stroke-width="2.0"/>
<line x1="192.5" y1="286.4" x2="170.6" y2="299.0" opacity="1.0" stroke="rgb(0,0,0)" stroke-width="2.0"/>
<line x1="169.0" y1="308.2" x2="136.8" y2="289.6" opacity="1.0" stroke="rgb(0,0,0)" stroke-width="2.0"/>
<line x1="136.8" y1="289.6" x2="136.8" y2="252.4" opacity="1.0" stroke="rgb(0,0,0)" stroke-width="2.0"/>
<line x1="144.0" y1="283.6" x2="144.0" y2="258.4" opacity="1.0" stroke="rgb(0,0,0)" stroke-width="2.0"/>
<line x1="136.8" y1="252.4" x2="169.0" y2="233.7" opacity="1.0" stroke="rgb(0,0,0)" stroke-width="2.0"/>
<line x1="169.0" y1="233.7" x2="201.3" y2="252.4" opacity="1.0" stroke="rgb(0,0,0)" stroke-width="2.0"/>
<line x1="170.6" y1="243.0" x2="192.5" y2="255.6" opacity="1.0" stroke="rgb(0,0,0)" stroke-width="2.0"/>
<line x1="201.3" y1="103.4" x2="233.5" y2="84.8" opacity="1.0" stroke="rgb(0,0,0)" stroke-width="2.0"/>
<line x1="233.5" y1="84.8" x2="265.8" y2="103.4" opacity="1.0" stroke="rgb(0,0,0)" stroke-width="2.0"/>
<line x1="235.1" y1="94.0" x2="257.0" y2="106.6" opacity="1.0" stroke="rgb(0,0,0)" stroke-width="2.0"/>
<line x1="265.8" y1="103.4" x2="265.8" y2="140.6" opacity="1.0" stroke="rgb(0,0,0)" stroke-width="2.0"/>
<line x1="265.8" y1="140.6" x2="233.5" y2="159.3" opacity="1.0" stroke="rgb(0,0,0)" stroke-width="2.0"/>
<line x1="257.0" y1="137.4" x2="235.1" y2="150.0" opacity="1.0" stroke="rgb(0,0,0)" stroke-width="2.0"/>
<line x1="233.5" y1="159.3" x2="201.3" y2="140.6" opacity="1.0" stroke="rgb(0,0,0)" stroke-width="2.0"/>
<line x1="201.3" y1="140.6" x2="201.3" y2="103.4" opacity="1.0" stroke="rgb(0,0,0)" stroke-width="2.0"/>
<line x1="208.5" y1="134.6" x2="208.5" y2="109.4" opacity="1.0" stroke="rgb(0,0,0)" stroke-width="2.0"/>
<text x="332.336194" y="48.000000" fill="rgb(178,178,0)" stroke-width="0" font-weight="bold" font-size="16">S</text>
<text x="163.007922" y="167.263044" fill="rgb(12,12,255)" stroke-width="0" font-weight="bold" font-size="16">N</text>
</svg>
</g>
</svg>
