<svg xmlns="http://www.w3.org/2000/svg" xmlns:xlink="http://www.w3.org/1999/xlink" xmlns:cml="http://www.xml-cml.org/schema" version="1.1" id="topsvg" x="0" y="0" viewBox="0 0 100 100">
<title>A_1_L - Open Babel Depiction</title>
<rect x="0" y="0" width="100" height="100" fill="white"/>
<g transform="translate(0,0)">
<svg width="100" height="100" x="0" y="0" viewBox="0 0 463.966 362.353" font-family="sans-serif" stroke="rgb(0,0,0)" stroke-width="2" stroke-linecap="round">
<line x1="170.4" y1="115.3" x2="170.4" y2="177.6" opacity="1.0" stroke="rgb(0,0,0)" stroke-width="2.0"/>
<line x1="159.2" y1="197.1" x2="105.2" y2="228.2" opacity="1.0" stroke="rgb(0,0,0)" stroke-width="2.0"/>
<line x1="181.7" y1="197.1" x2="203.0" y2="209.4" opacity="1.0" stroke="rgb(0,0,0)" stroke-width="2.0"/>
<line x1="268.2" y1="247.1" x2="300.8" y2="265.9" opacity="1.0" stroke="rgb(0,0,0)" stroke-width="2.0"/>
<line x1="424.0" y1="284.7" x2="401.8" y2="254.2" opacity="1.0" stroke="rgb(0,0,0)" stroke-width="2.0"/>
<line x1="414.6" y1="284.1" x2="399.5" y2="263.3" opacity="1.0" stroke="rgb(0,0,0)" stroke-width="2.0"/>
<line x1="401.8" y1="254.2" x2="366.0" y2="265.9" opacity="1.0" stroke="rgb(0,0,0)" stroke-width="2.0"/>
<line x1="366.0" y1="265.9" x2="366.0" y2="303.5" opacity="1.0" stroke="rgb(0,0,0)" stroke-width="2.0"/>
<line x1="366.0" y1="303.5" x2="389.5" y2="311.1" opacity="1.0" stroke="rgb(0,0,0)" stroke-width="2.0"/>
<line x1="409.5" y1="304.6" x2="424.0" y2="284.7" opacity="1.0" stroke="rgb(0,0,0)" stroke-width="2.0"/>
<line x1="203.0" y1="58.8" x2="203.0" y2="96.5" opacity="1.0" stroke="rgb(0,0,0)" stroke-width="2.0"/>
<line x1="203.0" y1="96.5" x2="170.4" y2="115.3" opacity="1.0" stroke="rgb(0,0,0)" stroke-width="2.0"/>
<line x1="194.2" y1="93.2" x2="172.0" y2="106.1" opacity="1.0" stroke="rgb(0,0,0)" stroke-width="2.0"/>
<line x1="170.4" y1="115.3" x2="137.8" y2="96.5" opacity="1.0" stroke="rgb(0,0,0)" stroke-width="2.0"/>
<line x1="137.8" y1="96.5" x2="137.8" y2="58.8" opacity="1.0" stroke="rgb(0,0,0)" stroke-width="2.0"/>
<line x1="145.0" y1="90.5" x2="145.0" y2="64.8" opacity="1.0" stroke="rgb(0,0,0)" stroke-width="2.0"/>
<line x1="137.8" y1="58.8" x2="170.4" y2="40.0" opacity="1.0" stroke="rgb(0,0,0)" stroke-width="2.0"/>
<line x1="170.4" y1="40.0" x2="203.0" y2="58.8" opacity="1.0" stroke="rgb(0,0,0)" stroke-width="2.0"/>
<line x1="172.0" y1="49.2" x2="194.2" y2="62.1" opacity="1.0" stroke="rgb(0,0,0)" stroke-width="2.0"/>
<line x1="105.2" y1="265.9" x2="72.6" y2="284.7" opacity="1.0" stroke="rgb(0,0,0)" stroke-width="2.0"/>
<line x1="72.6" y1="284.7" x2="40.0" y2="265.9" opacity="1.0" stroke="rgb(0,0,0)" stroke-width="2.0"/>
<line x1="71.0" y1="275.5" x2="48.8" y2="262.6" opacity="1.0" stroke="rgb(0,0,0)" stroke-width="2.0"/>
<line x1="40.0" y1="265.9" x2="40.0" y2="228.2" opacity="1.0" stroke="rgb(0,0,0)" stroke-width="2.0"/>
<line x1="40.0" y1="228.2" x2="72.6" y2="209.4" opacity="1.0" stroke="rgb(0,0,0)" stroke-width="2.0"/>
<line x1="48.8" y1="231.5" x2="71.0" y2="218.6" opacity="1.0" stroke="rgb(0,0,0)" stroke-width="2.0"/>
<line x1="72.6" y1="209.4" x2="105.2" y2="228.2" opacity="1.0" stroke="rgb(0,0,0)" stroke-width="2.0"/>
<line x1="105.2" y1="228.2" x2="105.2" y2="265.9" opacity="1.0" stroke="rgb(0,0,0)" stroke-width="2.0"/>
<line x1="98.0" y1="234.2" x2="98.0" y2="259.9" opacity="1.0" stroke="rgb(0,0,0)" stroke-width="2.0"/>
<line x1="235.6" y1="190.6" x2="268.2" y2="209.4" opacity="1.0" stroke="rgb(0,0,0)" stroke-width="2.0"/>
<line x1="268.2" y1="209.4" x2="268.2" y2="247.1" opacity="1.0" stroke="rgb(0,0,0)" stroke-width="2.0"/>
<line x1="261.0" y1="215.4" x2="261.0" y2="241.1" opacity="1.0" stroke="rgb(0,0,0)" stroke-width="2.0"/>
<line x1="268.2" y1="247.1" x2="235.6" y2="265.9" opacity="1.0" stroke="rgb(0,0,0)" stroke-width="2.0"/>
<line x1="235.6" y1="265.9" x2="203.0" y2="247.1" opacity="1.0" stroke="rgb(0,0,0)" stroke-width="2.0"/>
<line x1="234.0" y1="256.6" x2="211.8" y2="243.8" opacity="1.0" stroke="rgb(0,0,0)" stroke-width="2.0"/>
<line x1="203.0" y1="247.1" x2="203.0" y2="209.4" opacity="1.0" stroke="rgb(0,0,0)" stroke-width="2.0"/>
<line x1="203.0" y1="209.4" x2="235.6" y2="190.6" opacity="1.0" stroke="rgb(0,0,0)" stroke-width="2.0"/>
<line x1="211.8" y1="212.6" x2="234.0" y2="199.8" opacity="1.0" stroke="rgb(0,0,0)" stroke-width="2.0"/>
<line x1="300.8" y1="303.5" x2="333.4" y2="322.4" opacity="1.0" stroke="rgb(0,0,0)" stroke-width="2.0"/>
<line x1="333.4" y1="322.4" x2="366.0" y2="303.5" opacity="1.0" stroke="rgb(0,0,0)" stroke-width="2.0"/>
<line x1="335.0" y1="313.1" x2="357.2" y2="300.3" opacity="1.0" stroke="rgb(0,0,0)" stroke-width="2.0"/>
<line x1="366.0" y1="265.9" x2="333.4" y2="247.1" opacity="1.0" stroke="rgb(0,0,0)" stroke-width="2.0"/>
<line x1="357.2" y1="269.1" x2="335.0" y2="256.3" opacity="1.0" stroke="rgb(0,0,0)" stroke-width="2.0"/>
<line x1="333.4" y1="247.1" x2="300.8" y2="265.9" opacity="1.0" stroke="rgb(0,0,0)" stroke-width="2.0"/>
<line x1="300.8" y1="265.9" x2="300.8" y2="303.5" opacity="1.0" stroke="rgb(0,0,0)" stroke-width="2.0"/>
<line x1="308.0" y1="271.9" x2="308.0" y2="297.5" opacity="1.0" stroke="rgb(0,0,0)" stroke-width="2.0"/>
<text x="395.837574" y="323.162993" fill="rgb(12,12,255)" stroke-width="0" font-weight="bold" font-size="16">N</text>
<text x="395.837574" y="339.162993" fill="rgb(12,12,255)" stroke-width="0" font-weight="bold" font-size="16">H</text>
<text x="164.413237" y="198.588235" fill="rgb(12,12,255)" stroke-width="0" font-weight="bold" font-size="16">N</text>
</svg>
</g>
</svg>