<svg xmlns="http://www.w3.org/2000/svg" x="0" y="0" viewBox="0 0 100 100">
<title>A_1_O - Open Babel Depiction</title>
<rect x="0" y="0" width="100" height="100" fill="white"/>
<g transform="translate(0,0)">
<svg width="100" height="100" x="0" y="0" viewBox="0 0 403.316 360" font-family="sans-serif" stroke="rgb(0,0,0)" stroke-width="2" stroke-linecap="round">
<line x1="104.7" y1="133.3" x2="158.1" y2="164.2" opacity="1.0" stroke="rgb(0,0,0)" stroke-width="2.0"/>
<line x1="169.3" y1="183.7" x2="169.3" y2="245.3" opacity="1.0" stroke="rgb(0,0,0)" stroke-width="2.0"/>
<line x1="180.6" y1="164.2" x2="201.7" y2="152.0" opacity="1.0" stroke="rgb(0,0,0)" stroke-width="2.0"/>
<line x1="266.3" y1="114.7" x2="298.7" y2="96.0" opacity="1.0" stroke="rgb(0,0,0)" stroke-width="2.0"/>
<line x1="72.3" y1="77.3" x2="104.7" y2="96.0" opacity="1.0" stroke="rgb(0,0,0)" stroke-width="2.0"/>
<line x1="104.7" y1="96.0" x2="104.7" y2="133.3" opacity="1.0" stroke="rgb(0,0,0)" stroke-width="2.0"/>
<line x1="97.5" y1="102.0" x2="97.5" y2="127.3" opacity="1.0" stroke="rgb(0,0,0)" stroke-width="2.0"/>
<line x1="104.7" y1="133.3" x2="72.3" y2="152.0" opacity="1.0" stroke="rgb(0,0,0)" stroke-width="2.0"/>
<line x1="72.3" y1="152.0" x2="40.0" y2="133.3" opacity="1.0" stroke="rgb(0,0,0)" stroke-width="2.0"/>
<line x1="70.7" y1="142.8" x2="48.8" y2="130.1" opacity="1.0" stroke="rgb(0,0,0)" stroke-width="2.0"/>
<line x1="40.0" y1="133.3" x2="40.0" y2="96.0" opacity="1.0" stroke="rgb(0,0,0)" stroke-width="2.0"/>
<line x1="40.0" y1="96.0" x2="72.3" y2="77.3" opacity="1.0" stroke="rgb(0,0,0)" stroke-width="2.0"/>
<line x1="48.8" y1="99.2" x2="70.7" y2="86.6" opacity="1.0" stroke="rgb(0,0,0)" stroke-width="2.0"/>
<line x1="201.7" y1="264.0" x2="201.7" y2="301.3" opacity="1.0" stroke="rgb(0,0,0)" stroke-width="2.0"/>
<line x1="201.7" y1="301.3" x2="169.3" y2="320.0" opacity="1.0" stroke="rgb(0,0,0)" stroke-width="2.0"/>
<line x1="192.9" y1="298.1" x2="170.9" y2="310.8" opacity="1.0" stroke="rgb(0,0,0)" stroke-width="2.0"/>
<line x1="169.3" y1="320.0" x2="137.0" y2="301.3" opacity="1.0" stroke="rgb(0,0,0)" stroke-width="2.0"/>
<line x1="137.0" y1="301.3" x2="137.0" y2="264.0" opacity="1.0" stroke="rgb(0,0,0)" stroke-width="2.0"/>
<line x1="144.2" y1="295.3" x2="144.2" y2="270.0" opacity="1.0" stroke="rgb(0,0,0)" stroke-width="2.0"/>
<line x1="137.0" y1="264.0" x2="169.3" y2="245.3" opacity="1.0" stroke="rgb(0,0,0)" stroke-width="2.0"/>
<line x1="169.3" y1="245.3" x2="201.7" y2="264.0" opacity="1.0" stroke="rgb(0,0,0)" stroke-width="2.0"/>
<line x1="170.9" y1="254.6" x2="192.9" y2="267.2" opacity="1.0" stroke="rgb(0,0,0)" stroke-width="2.0"/>
<line x1="201.7" y1="114.7" x2="234.0" y2="96.0" opacity="1.0" stroke="rgb(0,0,0)" stroke-width="2.0"/>
<line x1="234.0" y1="96.0" x2="266.3" y2="114.7" opacity="1.0" stroke="rgb(0,0,0)" stroke-width="2.0"/>
<line x1="235.6" y1="105.2" x2="257.5" y2="117.9" opacity="1.0" stroke="rgb(0,0,0)" stroke-width="2.0"/>
<line x1="266.3" y1="114.7" x2="266.3" y2="152.0" opacity="1.0" stroke="rgb(0,0,0)" stroke-width="2.0"/>
<line x1="266.3" y1="152.0" x2="234.0" y2="170.7" opacity="1.0" stroke="rgb(0,0,0)" stroke-width="2.0"/>
<line x1="257.5" y1="148.8" x2="235.6" y2="161.4" opacity="1.0" stroke="rgb(0,0,0)" stroke-width="2.0"/>
<line x1="234.0" y1="170.7" x2="201.7" y2="152.0" opacity="1.0" stroke="rgb(0,0,0)" stroke-width="2.0"/>
<line x1="201.7" y1="152.0" x2="201.7" y2="114.7" opacity="1.0" stroke="rgb(0,0,0)" stroke-width="2.0"/>
<line x1="208.9" y1="146.0" x2="208.9" y2="120.7" opacity="1.0" stroke="rgb(0,0,0)" stroke-width="2.0"/>
<line x1="309.9" y1="52.2" x2="331.0" y2="40.0" opacity="1.0" stroke="rgb(0,0,0)" stroke-width="2.0"/>
<line x1="331.0" y1="40.0" x2="363.3" y2="58.7" opacity="1.0" stroke="rgb(0,0,0)" stroke-width="2.0"/>
<line x1="332.6" y1="49.2" x2="354.5" y2="61.9" opacity="1.0" stroke="rgb(0,0,0)" stroke-width="2.0"/>
<line x1="363.3" y1="58.7" x2="363.3" y2="96.0" opacity="1.0" stroke="rgb(0,0,0)" stroke-width="2.0"/>
<line x1="363.3" y1="96.0" x2="331.0" y2="114.7" opacity="1.0" stroke="rgb(0,0,0)" stroke-width="2.0"/>
<line x1="354.5" y1="92.8" x2="332.6" y2="105.4" opacity="1.0" stroke="rgb(0,0,0)" stroke-width="2.0"/>
<line x1="331.0" y1="114.7" x2="298.7" y2="96.0" opacity="1.0" stroke="rgb(0,0,0)" stroke-width="2.0"/>
<line x1="298.7" y1="96.0" x2="298.7" y2="71.0" opacity="1.0" stroke="rgb(0,0,0)" stroke-width="2.0"/>
<line x1="305.9" y1="90.0" x2="305.9" y2="73.3" opacity="1.0" stroke="rgb(0,0,0)" stroke-width="2.0"/>
<text x="292.652921" y="66.666667" fill="rgb(12,12,255)" stroke-width="0" font-weight="bold" font-size="16">N</text>
<text x="163.326460" y="178.666667" fill="rgb(12,12,255)" stroke-width="0" font-weight="bold" font-size="16">N</text>
</svg>
</g>
</svg>
