<svg xmlns="http://www.w3.org/2000/svg" x="0" y="0" viewBox="0 0 100 100">
<title>A_1_R - Open Babel Depiction</title>
<rect x="0" y="0" width="100" height="100" fill="white"/>
<g transform="translate(0,0)">
<svg width="100" height="100" x="0" y="0" viewBox="0 0 470.499 399.394" font-family="sans-serif" stroke="rgb(0,0,0)" stroke-width="2" stroke-linecap="round">
<line x1="170.2" y1="115.2" x2="170.2" y2="177.3" opacity="1.0" stroke="rgb(0,0,0)" stroke-width="2.0"/>
<line x1="158.9" y1="196.8" x2="105.1" y2="227.9" opacity="1.0" stroke="rgb(0,0,0)" stroke-width="2.0"/>
<line x1="181.4" y1="196.8" x2="202.7" y2="209.1" opacity="1.0" stroke="rgb(0,0,0)" stroke-width="2.0"/>
<line x1="401.0" y1="334.8" x2="401.0" y2="346.4" opacity="1.0" stroke="rgb(0,0,0)" stroke-width="2.0"/>
<line x1="395.0" y1="334.8" x2="395.0" y2="346.4" opacity="1.0" stroke="rgb(0,0,0)" stroke-width="2.0"/>
<line x1="409.2" y1="315.3" x2="419.2" y2="309.5" opacity="1.0" stroke="rgb(0,0,0)" stroke-width="2.0"/>
<line x1="365.4" y1="303.0" x2="386.7" y2="315.3" opacity="1.0" stroke="rgb(0,0,0)" stroke-width="2.0"/>
<line x1="267.8" y1="246.7" x2="300.3" y2="265.5" opacity="1.0" stroke="rgb(0,0,0)" stroke-width="2.0"/>
<line x1="202.7" y1="58.8" x2="202.7" y2="96.4" opacity="1.0" stroke="rgb(0,0,0)" stroke-width="2.0"/>
<line x1="202.7" y1="96.4" x2="170.2" y2="115.2" opacity="1.0" stroke="rgb(0,0,0)" stroke-width="2.0"/>
<line x1="193.9" y1="93.1" x2="171.8" y2="105.9" opacity="1.0" stroke="rgb(0,0,0)" stroke-width="2.0"/>
<line x1="170.2" y1="115.2" x2="137.6" y2="96.4" opacity="1.0" stroke="rgb(0,0,0)" stroke-width="2.0"/>
<line x1="137.6" y1="96.4" x2="137.6" y2="58.8" opacity="1.0" stroke="rgb(0,0,0)" stroke-width="2.0"/>
<line x1="144.8" y1="90.4" x2="144.8" y2="64.8" opacity="1.0" stroke="rgb(0,0,0)" stroke-width="2.0"/>
<line x1="137.6" y1="58.8" x2="170.2" y2="40.0" opacity="1.0" stroke="rgb(0,0,0)" stroke-width="2.0"/>
<line x1="170.2" y1="40.0" x2="202.7" y2="58.8" opacity="1.0" stroke="rgb(0,0,0)" stroke-width="2.0"/>
<line x1="171.8" y1="49.2" x2="193.9" y2="62.0" opacity="1.0" stroke="rgb(0,0,0)" stroke-width="2.0"/>
<line x1="105.1" y1="265.5" x2="72.5" y2="284.2" opacity="1.0" stroke="rgb(0,0,0)" stroke-width="2.0"/>
<line x1="72.5" y1="284.2" x2="40.0" y2="265.5" opacity="1.0" stroke="rgb(0,0,0)" stroke-width="2.0"/>
<line x1="70.9" y1="275.0" x2="48.8" y2="262.2" opacity="1.0" stroke="rgb(0,0,0)" stroke-width="2.0"/>
<line x1="40.0" y1="265.5" x2="40.0" y2="227.9" opacity="1.0" stroke="rgb(0,0,0)" stroke-width="2.0"/>
<line x1="40.0" y1="227.9" x2="72.5" y2="209.1" opacity="1.0" stroke="rgb(0,0,0)" stroke-width="2.0"/>
<line x1="48.8" y1="231.1" x2="70.9" y2="218.3" opacity="1.0" stroke="rgb(0,0,0)" stroke-width="2.0"/>
<line x1="72.5" y1="209.1" x2="105.1" y2="227.9" opacity="1.0" stroke="rgb(0,0,0)" stroke-width="2.0"/>
<line x1="105.1" y1="227.9" x2="105.1" y2="265.5" opacity="1.0" stroke="rgb(0,0,0)" stroke-width="2.0"/>
<line x1="97.9" y1="233.9" x2="97.9" y2="259.5" opacity="1.0" stroke="rgb(0,0,0)" stroke-width="2.0"/>
<line x1="235.2" y1="190.3" x2="267.8" y2="209.1" opacity="1.0" stroke="rgb(0,0,0)" stroke-width="2.0"/>
<line x1="267.8" y1="209.1" x2="267.8" y2="246.7" opacity="1.0" stroke="rgb(0,0,0)" stroke-width="2.0"/>
<line x1="260.6" y1="215.1" x2="260.6" y2="240.7" opacity="1.0" stroke="rgb(0,0,0)" stroke-width="2.0"/>
<line x1="267.8" y1="246.7" x2="235.2" y2="265.5" opacity="1.0" stroke="rgb(0,0,0)" stroke-width="2.0"/>
<line x1="235.2" y1="265.5" x2="202.7" y2="246.7" opacity="1.0" stroke="rgb(0,0,0)" stroke-width="2.0"/>
<line x1="233.7" y1="256.2" x2="211.5" y2="243.4" opacity="1.0" stroke="rgb(0,0,0)" stroke-width="2.0"/>
<line x1="202.7" y1="246.7" x2="202.7" y2="209.1" opacity="1.0" stroke="rgb(0,0,0)" stroke-width="2.0"/>
<line x1="202.7" y1="209.1" x2="235.2" y2="190.3" opacity="1.0" stroke="rgb(0,0,0)" stroke-width="2.0"/>
<line x1="211.5" y1="212.3" x2="233.7" y2="199.5" opacity="1.0" stroke="rgb(0,0,0)" stroke-width="2.0"/>
<line x1="344.1" y1="253.2" x2="365.4" y2="265.5" opacity="1.0" stroke="rgb(0,0,0)" stroke-width="2.0"/>
<line x1="365.4" y1="265.5" x2="365.4" y2="303.0" opacity="1.0" stroke="rgb(0,0,0)" stroke-width="2.0"/>
<line x1="358.2" y1="271.5" x2="358.2" y2="297.0" opacity="1.0" stroke="rgb(0,0,0)" stroke-width="2.0"/>
<line x1="365.4" y1="303.0" x2="332.9" y2="321.8" opacity="1.0" stroke="rgb(0,0,0)" stroke-width="2.0"/>
<line x1="332.9" y1="321.8" x2="300.3" y2="303.0" opacity="1.0" stroke="rgb(0,0,0)" stroke-width="2.0"/>
<line x1="331.3" y1="312.6" x2="309.1" y2="299.8" opacity="1.0" stroke="rgb(0,0,0)" stroke-width="2.0"/>
<line x1="300.3" y1="303.0" x2="300.3" y2="265.5" opacity="1.0" stroke="rgb(0,0,0)" stroke-width="2.0"/>
<line x1="300.3" y1="265.5" x2="322.1" y2="252.9" opacity="1.0" stroke="rgb(0,0,0)" stroke-width="2.0"/>
<line x1="309.1" y1="268.7" x2="323.8" y2="260.2" opacity="1.0" stroke="rgb(0,0,0)" stroke-width="2.0"/>
<text x="435.298728" y="298.998303" fill="rgb(255,12,12)" stroke-width="0" font-weight="bold" font-size="16"/>
<text x="435.298728" y="298.998303" fill="rgb(255,12,12)" stroke-width="0" font-weight="bold" font-size="32">.</text>
<text x="424.498728" y="311.030303" fill="rgb(255,12,12)" stroke-width="0" font-weight="bold" font-size="16">O</text>
<text x="391.957167" y="367.393939" fill="rgb(255,12,12)" stroke-width="0" font-weight="bold" font-size="16">O</text>
<text x="391.957167" y="329.818182" fill="rgb(12,12,255)" stroke-width="0" font-weight="bold" font-size="16">N</text>
<text x="326.874046" y="254.666667" fill="rgb(12,12,255)" stroke-width="0" font-weight="bold" font-size="16">N</text>
<text x="164.166243" y="198.303030" fill="rgb(12,12,255)" stroke-width="0" font-weight="bold" font-size="16">N</text>
</svg>
</g>
</svg>
