<svg xmlns="http://www.w3.org/2000/svg" x="0" y="0" viewBox="0 0 100 100">
<title>A_1_T - Open Babel Depiction</title>
<rect x="0" y="0" width="100" height="100" fill="white"/>
<g transform="translate(0,0)">
<svg width="100" height="100" x="0" y="0" viewBox="0 0 436.467 360.645" font-family="sans-serif" stroke="rgb(0,0,0)" stroke-width="2" stroke-linecap="round">
<line x1="104.8" y1="133.5" x2="158.4" y2="164.5" opacity="1.0" stroke="rgb(0,0,0)" stroke-width="2.0"/>
<line x1="169.6" y1="184.0" x2="169.6" y2="245.8" opacity="1.0" stroke="rgb(0,0,0)" stroke-width="2.0"/>
<line x1="180.9" y1="164.5" x2="202.0" y2="152.3" opacity="1.0" stroke="rgb(0,0,0)" stroke-width="2.0"/>
<line x1="364.1" y1="58.7" x2="385.2" y2="46.5" opacity="1.0" stroke="rgb(0,0,0)" stroke-width="2.0"/>
<line x1="266.8" y1="114.8" x2="299.2" y2="96.1" opacity="1.0" stroke="rgb(0,0,0)" stroke-width="2.0"/>
<line x1="72.4" y1="77.4" x2="104.8" y2="96.1" opacity="1.0" stroke="rgb(0,0,0)" stroke-width="2.0"/>
<line x1="104.8" y1="96.1" x2="104.8" y2="133.5" opacity="1.0" stroke="rgb(0,0,0)" stroke-width="2.0"/>
<line x1="97.6" y1="102.1" x2="97.6" y2="127.5" opacity="1.0" stroke="rgb(0,0,0)" stroke-width="2.0"/>
<line x1="104.8" y1="133.5" x2="72.4" y2="152.3" opacity="1.0" stroke="rgb(0,0,0)" stroke-width="2.0"/>
<line x1="72.4" y1="152.3" x2="40.0" y2="133.5" opacity="1.0" stroke="rgb(0,0,0)" stroke-width="2.0"/>
<line x1="70.8" y1="143.0" x2="48.8" y2="130.3" opacity="1.0" stroke="rgb(0,0,0)" stroke-width="2.0"/>
<line x1="40.0" y1="133.5" x2="40.0" y2="96.1" opacity="1.0" stroke="rgb(0,0,0)" stroke-width="2.0"/>
<line x1="40.0" y1="96.1" x2="72.4" y2="77.4" opacity="1.0" stroke="rgb(0,0,0)" stroke-width="2.0"/>
<line x1="48.8" y1="99.4" x2="70.8" y2="86.7" opacity="1.0" stroke="rgb(0,0,0)" stroke-width="2.0"/>
<line x1="202.0" y1="264.5" x2="202.0" y2="301.9" opacity="1.0" stroke="rgb(0,0,0)" stroke-width="2.0"/>
<line x1="202.0" y1="301.9" x2="169.6" y2="320.6" opacity="1.0" stroke="rgb(0,0,0)" stroke-width="2.0"/>
<line x1="193.2" y1="298.7" x2="171.2" y2="311.4" opacity="1.0" stroke="rgb(0,0,0)" stroke-width="2.0"/>
<line x1="169.6" y1="320.6" x2="137.2" y2="301.9" opacity="1.0" stroke="rgb(0,0,0)" stroke-width="2.0"/>
<line x1="137.2" y1="301.9" x2="137.2" y2="264.5" opacity="1.0" stroke="rgb(0,0,0)" stroke-width="2.0"/>
<line x1="144.4" y1="295.9" x2="144.4" y2="270.5" opacity="1.0" stroke="rgb(0,0,0)" stroke-width="2.0"/>
<line x1="137.2" y1="264.5" x2="169.6" y2="245.8" opacity="1.0" stroke="rgb(0,0,0)" stroke-width="2.0"/>
<line x1="169.6" y1="245.8" x2="202.0" y2="264.5" opacity="1.0" stroke="rgb(0,0,0)" stroke-width="2.0"/>
<line x1="171.2" y1="255.0" x2="193.2" y2="267.8" opacity="1.0" stroke="rgb(0,0,0)" stroke-width="2.0"/>
<line x1="202.0" y1="114.8" x2="234.4" y2="96.1" opacity="1.0" stroke="rgb(0,0,0)" stroke-width="2.0"/>
<line x1="234.4" y1="96.1" x2="266.8" y2="114.8" opacity="1.0" stroke="rgb(0,0,0)" stroke-width="2.0"/>
<line x1="236.0" y1="105.4" x2="258.0" y2="118.1" opacity="1.0" stroke="rgb(0,0,0)" stroke-width="2.0"/>
<line x1="266.8" y1="114.8" x2="266.8" y2="152.3" opacity="1.0" stroke="rgb(0,0,0)" stroke-width="2.0"/>
<line x1="266.8" y1="152.3" x2="234.4" y2="171.0" opacity="1.0" stroke="rgb(0,0,0)" stroke-width="2.0"/>
<line x1="258.0" y1="149.0" x2="236.0" y2="161.7" opacity="1.0" stroke="rgb(0,0,0)" stroke-width="2.0"/>
<line x1="234.4" y1="171.0" x2="202.0" y2="152.3" opacity="1.0" stroke="rgb(0,0,0)" stroke-width="2.0"/>
<line x1="202.0" y1="152.3" x2="202.0" y2="114.8" opacity="1.0" stroke="rgb(0,0,0)" stroke-width="2.0"/>
<line x1="209.2" y1="146.3" x2="209.2" y2="120.8" opacity="1.0" stroke="rgb(0,0,0)" stroke-width="2.0"/>
<line x1="299.2" y1="58.7" x2="331.7" y2="40.0" opacity="1.0" stroke="rgb(0,0,0)" stroke-width="2.0"/>
<line x1="331.7" y1="40.0" x2="364.1" y2="58.7" opacity="1.0" stroke="rgb(0,0,0)" stroke-width="2.0"/>
<line x1="333.3" y1="49.2" x2="355.3" y2="61.9" opacity="1.0" stroke="rgb(0,0,0)" stroke-width="2.0"/>
<line x1="364.1" y1="58.7" x2="364.1" y2="96.1" opacity="1.0" stroke="rgb(0,0,0)" stroke-width="2.0"/>
<line x1="364.1" y1="96.1" x2="331.7" y2="114.8" opacity="1.0" stroke="rgb(0,0,0)" stroke-width="2.0"/>
<line x1="355.3" y1="92.9" x2="333.3" y2="105.6" opacity="1.0" stroke="rgb(0,0,0)" stroke-width="2.0"/>
<line x1="331.7" y1="114.8" x2="299.2" y2="96.1" opacity="1.0" stroke="rgb(0,0,0)" stroke-width="2.0"/>
<line x1="299.2" y1="96.1" x2="299.2" y2="58.7" opacity="1.0" stroke="rgb(0,0,0)" stroke-width="2.0"/>
<line x1="306.4" y1="90.1" x2="306.4" y2="64.7" opacity="1.0" stroke="rgb(0,0,0)" stroke-width="2.0"/>
<text x="392.467231" y="48.000000" fill="rgb(102,102,102)" stroke-width="0" font-weight="bold" font-size="16">CH</text>
<text x="416.467231" y="51.680000" fill="rgb(102,102,102)" stroke-width="0" font-weight="bold" font-size="13">3</text>
<text x="163.624448" y="178.967742" fill="rgb(12,12,255)" stroke-width="0" font-weight="bold" font-size="16">N</text>
</svg>
</g>
</svg>
