<svg xmlns="http://www.w3.org/2000/svg" xmlns:xlink="http://www.w3.org/1999/xlink" xmlns:cml="http://www.xml-cml.org/schema" version="1.1" id="topsvg" x="0" y="0" viewBox="0 0 100 100">
<title>A_1_Q - Open Babel Depiction</title>
<rect x="0" y="0" width="100" height="100" fill="white"/>
<g transform="translate(0,0)">
<svg width="100" height="100" x="0" y="0" viewBox="0 0 403.316 360" font-family="sans-serif" stroke="rgb(0,0,0)" stroke-width="2" stroke-linecap="round">
<line x1="234.0" y1="245.3" x2="234.0" y2="183.7" opacity="1.0" stroke="rgb(0,0,0)" stroke-width="2.0"/>
<line x1="245.2" y1="164.2" x2="298.7" y2="133.3" opacity="1.0" stroke="rgb(0,0,0)" stroke-width="2.0"/>
<line x1="222.7" y1="164.2" x2="201.7" y2="152.0" opacity="1.0" stroke="rgb(0,0,0)" stroke-width="2.0"/>
<line x1="137.0" y1="114.7" x2="104.7" y2="96.0" opacity="1.0" stroke="rgb(0,0,0)" stroke-width="2.0"/>
<line x1="201.7" y1="301.3" x2="201.7" y2="264.0" opacity="1.0" stroke="rgb(0,0,0)" stroke-width="2.0"/>
<line x1="201.7" y1="264.0" x2="234.0" y2="245.3" opacity="1.0" stroke="rgb(0,0,0)" stroke-width="2.0"/>
<line x1="210.5" y1="267.2" x2="232.4" y2="254.6" opacity="1.0" stroke="rgb(0,0,0)" stroke-width="2.0"/>
<line x1="234.0" y1="245.3" x2="266.3" y2="264.0" opacity="1.0" stroke="rgb(0,0,0)" stroke-width="2.0"/>
<line x1="266.3" y1="264.0" x2="266.3" y2="301.3" opacity="1.0" stroke="rgb(0,0,0)" stroke-width="2.0"/>
<line x1="259.1" y1="270.0" x2="259.1" y2="295.3" opacity="1.0" stroke="rgb(0,0,0)" stroke-width="2.0"/>
<line x1="266.3" y1="301.3" x2="234.0" y2="320.0" opacity="1.0" stroke="rgb(0,0,0)" stroke-width="2.0"/>
<line x1="234.0" y1="320.0" x2="201.7" y2="301.3" opacity="1.0" stroke="rgb(0,0,0)" stroke-width="2.0"/>
<line x1="232.4" y1="310.8" x2="210.5" y2="298.1" opacity="1.0" stroke="rgb(0,0,0)" stroke-width="2.0"/>
<line x1="298.7" y1="96.0" x2="331.0" y2="77.3" opacity="1.0" stroke="rgb(0,0,0)" stroke-width="2.0"/>
<line x1="331.0" y1="77.3" x2="363.3" y2="96.0" opacity="1.0" stroke="rgb(0,0,0)" stroke-width="2.0"/>
<line x1="332.6" y1="86.6" x2="354.5" y2="99.2" opacity="1.0" stroke="rgb(0,0,0)" stroke-width="2.0"/>
<line x1="363.3" y1="96.0" x2="363.3" y2="133.3" opacity="1.0" stroke="rgb(0,0,0)" stroke-width="2.0"/>
<line x1="363.3" y1="133.3" x2="331.0" y2="152.0" opacity="1.0" stroke="rgb(0,0,0)" stroke-width="2.0"/>
<line x1="354.5" y1="130.1" x2="332.6" y2="142.8" opacity="1.0" stroke="rgb(0,0,0)" stroke-width="2.0"/>
<line x1="331.0" y1="152.0" x2="298.7" y2="133.3" opacity="1.0" stroke="rgb(0,0,0)" stroke-width="2.0"/>
<line x1="298.7" y1="133.3" x2="298.7" y2="96.0" opacity="1.0" stroke="rgb(0,0,0)" stroke-width="2.0"/>
<line x1="305.9" y1="127.3" x2="305.9" y2="102.0" opacity="1.0" stroke="rgb(0,0,0)" stroke-width="2.0"/>
<line x1="169.3" y1="170.7" x2="137.0" y2="152.0" opacity="1.0" stroke="rgb(0,0,0)" stroke-width="2.0"/>
<line x1="137.0" y1="152.0" x2="137.0" y2="114.7" opacity="1.0" stroke="rgb(0,0,0)" stroke-width="2.0"/>
<line x1="144.2" y1="146.0" x2="144.2" y2="120.7" opacity="1.0" stroke="rgb(0,0,0)" stroke-width="2.0"/>
<line x1="137.0" y1="114.7" x2="169.3" y2="96.0" opacity="1.0" stroke="rgb(0,0,0)" stroke-width="2.0"/>
<line x1="169.3" y1="96.0" x2="201.7" y2="114.7" opacity="1.0" stroke="rgb(0,0,0)" stroke-width="2.0"/>
<line x1="170.9" y1="105.2" x2="192.9" y2="117.9" opacity="1.0" stroke="rgb(0,0,0)" stroke-width="2.0"/>
<line x1="201.7" y1="114.7" x2="201.7" y2="152.0" opacity="1.0" stroke="rgb(0,0,0)" stroke-width="2.0"/>
<line x1="201.7" y1="152.0" x2="169.3" y2="170.7" opacity="1.0" stroke="rgb(0,0,0)" stroke-width="2.0"/>
<line x1="192.9" y1="148.8" x2="170.9" y2="161.4" opacity="1.0" stroke="rgb(0,0,0)" stroke-width="2.0"/>
<line x1="61.1" y1="108.2" x2="40.0" y2="96.0" opacity="1.0" stroke="rgb(0,0,0)" stroke-width="2.0"/>
<line x1="40.0" y1="96.0" x2="40.0" y2="58.7" opacity="1.0" stroke="rgb(0,0,0)" stroke-width="2.0"/>
<line x1="47.2" y1="90.0" x2="47.2" y2="64.7" opacity="1.0" stroke="rgb(0,0,0)" stroke-width="2.0"/>
<line x1="40.0" y1="58.7" x2="61.1" y2="46.5" opacity="1.0" stroke="rgb(0,0,0)" stroke-width="2.0"/>
<line x1="83.0" y1="46.2" x2="104.7" y2="58.7" opacity="1.0" stroke="rgb(0,0,0)" stroke-width="2.0"/>
<line x1="81.4" y1="53.5" x2="95.9" y2="61.9" opacity="1.0" stroke="rgb(0,0,0)" stroke-width="2.0"/>
<line x1="104.7" y1="58.7" x2="104.7" y2="96.0" opacity="1.0" stroke="rgb(0,0,0)" stroke-width="2.0"/>
<line x1="104.7" y1="96.0" x2="83.0" y2="108.5" opacity="1.0" stroke="rgb(0,0,0)" stroke-width="2.0"/>
<line x1="95.9" y1="92.8" x2="81.4" y2="101.1" opacity="1.0" stroke="rgb(0,0,0)" stroke-width="2.0"/>
<text x="66.331615" y="48.000000" fill="rgb(12,12,255)" stroke-width="0" font-weight="bold" font-size="16">N</text>
<text x="66.331615" y="122.666667" fill="rgb(12,12,255)" stroke-width="0" font-weight="bold" font-size="16">N</text>
<text x="227.989690" y="178.666667" fill="rgb(12,12,255)" stroke-width="0" font-weight="bold" font-size="16">N</text>
</svg>
</g>
</svg>