<svg xmlns="http://www.w3.org/2000/svg" xmlns:xlink="http://www.w3.org/1999/xlink" xmlns:cml="http://www.xml-cml.org/schema" version="1.1" id="topsvg" x="0" y="0" viewBox="0 0 100 100">
<title>A_2_P - Open Babel Depiction</title>
<rect x="0" y="0" width="100" height="100" fill="white"/>
<g transform="translate(0,0)">
<svg width="100" height="100" x="0" y="0" viewBox="0 0 385.656 397.647" font-family="sans-serif" stroke="rgb(0,0,0)" stroke-width="2" stroke-linecap="round">
<line x1="101.1" y1="216.5" x2="151.0" y2="245.3" opacity="1.0" stroke="rgb(0,0,0)" stroke-width="2.0"/>
<line x1="162.3" y1="264.8" x2="162.3" y2="287.1" opacity="1.0" stroke="rgb(0,0,0)" stroke-width="2.0"/>
<line x1="173.5" y1="245.3" x2="284.5" y2="181.2" opacity="1.0" stroke="rgb(0,0,0)" stroke-width="2.0"/>
<line x1="162.3" y1="62.3" x2="162.3" y2="53.0" opacity="1.0" stroke="rgb(0,0,0)" stroke-width="2.0"/>
<line x1="192.8" y1="92.9" x2="173.5" y2="81.8" opacity="1.0" stroke="rgb(0,0,0)" stroke-width="2.0"/>
<line x1="284.5" y1="145.9" x2="254.0" y2="128.2" opacity="1.0" stroke="rgb(0,0,0)" stroke-width="2.0"/>
<line x1="70.6" y1="163.5" x2="101.1" y2="181.2" opacity="1.0" stroke="rgb(0,0,0)" stroke-width="2.0"/>
<line x1="101.1" y1="181.2" x2="101.1" y2="216.5" opacity="1.0" stroke="rgb(0,0,0)" stroke-width="2.0"/>
<line x1="93.9" y1="187.2" x2="93.9" y2="210.5" opacity="1.0" stroke="rgb(0,0,0)" stroke-width="2.0"/>
<line x1="101.1" y1="216.5" x2="70.6" y2="234.1" opacity="1.0" stroke="rgb(0,0,0)" stroke-width="2.0"/>
<line x1="70.6" y1="234.1" x2="40.0" y2="216.5" opacity="1.0" stroke="rgb(0,0,0)" stroke-width="2.0"/>
<line x1="69.0" y1="224.9" x2="48.8" y2="213.2" opacity="1.0" stroke="rgb(0,0,0)" stroke-width="2.0"/>
<line x1="40.0" y1="216.5" x2="40.0" y2="181.2" opacity="1.0" stroke="rgb(0,0,0)" stroke-width="2.0"/>
<line x1="40.0" y1="181.2" x2="70.6" y2="163.5" opacity="1.0" stroke="rgb(0,0,0)" stroke-width="2.0"/>
<line x1="48.8" y1="184.4" x2="69.0" y2="172.8" opacity="1.0" stroke="rgb(0,0,0)" stroke-width="2.0"/>
<line x1="192.8" y1="304.7" x2="192.8" y2="340.0" opacity="1.0" stroke="rgb(0,0,0)" stroke-width="2.0"/>
<line x1="192.8" y1="340.0" x2="162.3" y2="357.6" opacity="1.0" stroke="rgb(0,0,0)" stroke-width="2.0"/>
<line x1="184.0" y1="336.8" x2="163.9" y2="348.4" opacity="1.0" stroke="rgb(0,0,0)" stroke-width="2.0"/>
<line x1="162.3" y1="357.6" x2="131.7" y2="340.0" opacity="1.0" stroke="rgb(0,0,0)" stroke-width="2.0"/>
<line x1="131.7" y1="340.0" x2="131.7" y2="304.7" opacity="1.0" stroke="rgb(0,0,0)" stroke-width="2.0"/>
<line x1="138.9" y1="334.0" x2="138.9" y2="310.7" opacity="1.0" stroke="rgb(0,0,0)" stroke-width="2.0"/>
<line x1="131.7" y1="304.7" x2="162.3" y2="287.1" opacity="1.0" stroke="rgb(0,0,0)" stroke-width="2.0"/>
<line x1="162.3" y1="287.1" x2="192.8" y2="304.7" opacity="1.0" stroke="rgb(0,0,0)" stroke-width="2.0"/>
<line x1="163.9" y1="296.3" x2="184.0" y2="307.9" opacity="1.0" stroke="rgb(0,0,0)" stroke-width="2.0"/>
<line x1="315.1" y1="198.8" x2="345.7" y2="181.2" opacity="1.0" stroke="rgb(0,0,0)" stroke-width="2.0"/>
<line x1="345.7" y1="181.2" x2="345.7" y2="145.9" opacity="1.0" stroke="rgb(0,0,0)" stroke-width="2.0"/>
<line x1="338.5" y1="175.2" x2="338.5" y2="151.9" opacity="1.0" stroke="rgb(0,0,0)" stroke-width="2.0"/>
<line x1="345.7" y1="145.9" x2="315.1" y2="128.2" opacity="1.0" stroke="rgb(0,0,0)" stroke-width="2.0"/>
<line x1="315.1" y1="128.2" x2="284.5" y2="145.9" opacity="1.0" stroke="rgb(0,0,0)" stroke-width="2.0"/>
<line x1="313.5" y1="137.5" x2="293.3" y2="149.1" opacity="1.0" stroke="rgb(0,0,0)" stroke-width="2.0"/>
<line x1="284.5" y1="145.9" x2="284.5" y2="181.2" opacity="1.0" stroke="rgb(0,0,0)" stroke-width="2.0"/>
<line x1="284.5" y1="181.2" x2="315.1" y2="198.8" opacity="1.0" stroke="rgb(0,0,0)" stroke-width="2.0"/>
<line x1="293.3" y1="177.9" x2="313.5" y2="189.6" opacity="1.0" stroke="rgb(0,0,0)" stroke-width="2.0"/>
<line x1="254.0" y1="92.9" x2="223.4" y2="75.3" opacity="1.0" stroke="rgb(0,0,0)" stroke-width="2.0"/>
<line x1="223.4" y1="75.3" x2="192.8" y2="92.9" opacity="1.0" stroke="rgb(0,0,0)" stroke-width="2.0"/>
<line x1="221.8" y1="84.5" x2="201.6" y2="96.2" opacity="1.0" stroke="rgb(0,0,0)" stroke-width="2.0"/>
<line x1="192.8" y1="92.9" x2="192.8" y2="128.2" opacity="1.0" stroke="rgb(0,0,0)" stroke-width="2.0"/>
<line x1="192.8" y1="128.2" x2="223.4" y2="145.9" opacity="1.0" stroke="rgb(0,0,0)" stroke-width="2.0"/>
<line x1="201.6" y1="125.0" x2="221.8" y2="136.6" opacity="1.0" stroke="rgb(0,0,0)" stroke-width="2.0"/>
<line x1="223.4" y1="145.9" x2="254.0" y2="128.2" opacity="1.0" stroke="rgb(0,0,0)" stroke-width="2.0"/>
<line x1="254.0" y1="128.2" x2="254.0" y2="92.9" opacity="1.0" stroke="rgb(0,0,0)" stroke-width="2.0"/>
<line x1="246.8" y1="122.2" x2="246.8" y2="98.9" opacity="1.0" stroke="rgb(0,0,0)" stroke-width="2.0"/>
<text x="158.262410" y="48.000000" fill="rgb(102,102,102)" stroke-width="0" font-weight="bold" font-size="16">CH</text>
<text x="182.262410" y="51.680000" fill="rgb(102,102,102)" stroke-width="0" font-weight="bold" font-size="13">3</text>
<text x="156.262410" y="83.294118" fill="rgb(255,12,12)" stroke-width="0" font-weight="bold" font-size="16">O</text>
<text x="156.262410" y="259.764706" fill="rgb(12,12,255)" stroke-width="0" font-weight="bold" font-size="16">N</text>
</svg>
</g>
</svg>