<svg xmlns="http://www.w3.org/2000/svg" xmlns:xlink="http://www.w3.org/1999/xlink" xmlns:cml="http://www.xml-cml.org/schema" version="1.1" id="topsvg" x="0" y="0" viewBox="0 0 100 100">
<title>A_2_N - Open Babel Depiction</title>
<rect x="0" y="0" width="100" height="100" fill="white"/>
<g transform="translate(0,0)">
<svg width="100" height="100" x="0" y="0" viewBox="0 0 381.712 313.504" font-family="sans-serif" stroke="rgb(0,0,0)" stroke-width="2" stroke-linecap="round">
<line x1="281.4" y1="214.2" x2="171.9" y2="151.0" opacity="1.0" stroke="rgb(0,0,0)" stroke-width="2.0"/>
<line x1="160.7" y1="131.5" x2="160.7" y2="109.7" opacity="1.0" stroke="rgb(0,0,0)" stroke-width="2.0"/>
<line x1="149.4" y1="151.0" x2="100.3" y2="179.4" opacity="1.0" stroke="rgb(0,0,0)" stroke-width="2.0"/>
<line x1="100.3" y1="214.2" x2="130.5" y2="231.6" opacity="1.0" stroke="rgb(0,0,0)" stroke-width="2.0"/>
<line x1="162.3" y1="217.4" x2="177.0" y2="233.7" opacity="1.0" stroke="rgb(0,0,0)" stroke-width="2.0"/>
<line x1="179.2" y1="254.6" x2="168.2" y2="273.5" opacity="1.0" stroke="rgb(0,0,0)" stroke-width="2.0"/>
<line x1="168.2" y1="273.5" x2="134.2" y2="266.3" opacity="1.0" stroke="rgb(0,0,0)" stroke-width="2.0"/>
<line x1="163.9" y1="265.2" x2="141.5" y2="260.5" opacity="1.0" stroke="rgb(0,0,0)" stroke-width="2.0"/>
<line x1="134.2" y1="266.3" x2="130.5" y2="231.6" opacity="1.0" stroke="rgb(0,0,0)" stroke-width="2.0"/>
<line x1="130.5" y1="231.6" x2="162.3" y2="217.4" opacity="1.0" stroke="rgb(0,0,0)" stroke-width="2.0"/>
<line x1="138.9" y1="235.8" x2="159.8" y2="226.5" opacity="1.0" stroke="rgb(0,0,0)" stroke-width="2.0"/>
<line x1="311.5" y1="266.5" x2="281.4" y2="249.0" opacity="1.0" stroke="rgb(0,0,0)" stroke-width="2.0"/>
<line x1="281.4" y1="249.0" x2="281.4" y2="214.2" opacity="1.0" stroke="rgb(0,0,0)" stroke-width="2.0"/>
<line x1="288.6" y1="243.0" x2="288.6" y2="220.2" opacity="1.0" stroke="rgb(0,0,0)" stroke-width="2.0"/>
<line x1="281.4" y1="214.2" x2="311.5" y2="196.8" opacity="1.0" stroke="rgb(0,0,0)" stroke-width="2.0"/>
<line x1="311.5" y1="196.8" x2="341.7" y2="214.2" opacity="1.0" stroke="rgb(0,0,0)" stroke-width="2.0"/>
<line x1="313.1" y1="206.0" x2="332.9" y2="217.4" opacity="1.0" stroke="rgb(0,0,0)" stroke-width="2.0"/>
<line x1="341.7" y1="214.2" x2="341.7" y2="249.0" opacity="1.0" stroke="rgb(0,0,0)" stroke-width="2.0"/>
<line x1="341.7" y1="249.0" x2="311.5" y2="266.5" opacity="1.0" stroke="rgb(0,0,0)" stroke-width="2.0"/>
<line x1="332.9" y1="245.8" x2="313.1" y2="257.2" opacity="1.0" stroke="rgb(0,0,0)" stroke-width="2.0"/>
<line x1="130.5" y1="92.3" x2="130.5" y2="57.4" opacity="1.0" stroke="rgb(0,0,0)" stroke-width="2.0"/>
<line x1="130.5" y1="57.4" x2="160.7" y2="40.0" opacity="1.0" stroke="rgb(0,0,0)" stroke-width="2.0"/>
<line x1="139.3" y1="60.7" x2="159.1" y2="49.2" opacity="1.0" stroke="rgb(0,0,0)" stroke-width="2.0"/>
<line x1="160.7" y1="40.0" x2="190.9" y2="57.4" opacity="1.0" stroke="rgb(0,0,0)" stroke-width="2.0"/>
<line x1="190.9" y1="57.4" x2="190.9" y2="92.3" opacity="1.0" stroke="rgb(0,0,0)" stroke-width="2.0"/>
<line x1="183.7" y1="63.4" x2="183.7" y2="86.3" opacity="1.0" stroke="rgb(0,0,0)" stroke-width="2.0"/>
<line x1="190.9" y1="92.3" x2="160.7" y2="109.7" opacity="1.0" stroke="rgb(0,0,0)" stroke-width="2.0"/>
<line x1="160.7" y1="109.7" x2="130.5" y2="92.3" opacity="1.0" stroke="rgb(0,0,0)" stroke-width="2.0"/>
<line x1="159.1" y1="100.4" x2="139.3" y2="89.0" opacity="1.0" stroke="rgb(0,0,0)" stroke-width="2.0"/>
<line x1="70.2" y1="161.9" x2="40.0" y2="179.4" opacity="1.0" stroke="rgb(0,0,0)" stroke-width="2.0"/>
<line x1="40.0" y1="179.4" x2="40.0" y2="214.2" opacity="1.0" stroke="rgb(0,0,0)" stroke-width="2.0"/>
<line x1="47.2" y1="185.4" x2="47.2" y2="208.2" opacity="1.0" stroke="rgb(0,0,0)" stroke-width="2.0"/>
<line x1="40.0" y1="214.2" x2="70.2" y2="231.6" opacity="1.0" stroke="rgb(0,0,0)" stroke-width="2.0"/>
<line x1="70.2" y1="231.6" x2="100.3" y2="214.2" opacity="1.0" stroke="rgb(0,0,0)" stroke-width="2.0"/>
<line x1="71.8" y1="222.4" x2="91.5" y2="211.0" opacity="1.0" stroke="rgb(0,0,0)" stroke-width="2.0"/>
<line x1="100.3" y1="214.2" x2="100.3" y2="179.4" opacity="1.0" stroke="rgb(0,0,0)" stroke-width="2.0"/>
<line x1="100.3" y1="179.4" x2="70.2" y2="161.9" opacity="1.0" stroke="rgb(0,0,0)" stroke-width="2.0"/>
<line x1="91.5" y1="182.6" x2="71.8" y2="171.2" opacity="1.0" stroke="rgb(0,0,0)" stroke-width="2.0"/>
<text x="179.652015" y="251.332930" fill="rgb(178,178,0)" stroke-width="0" font-weight="bold" font-size="16">S</text>
<text x="154.684830" y="152.516129" fill="rgb(12,12,255)" stroke-width="0" font-weight="bold" font-size="16">N</text>
</svg>
</g>
</svg>