<svg xmlns="http://www.w3.org/2000/svg" x="0" y="0" viewBox="0 0 100 100">
<title>A_2_L - Open Babel Depiction</title>
<rect x="0" y="0" width="100" height="100" fill="white"/>
<g transform="translate(0,0)">
<svg width="100" height="100" x="0" y="0" viewBox="0 0 387.92 402.94" font-family="sans-serif" stroke="rgb(0,0,0)" stroke-width="2" stroke-linecap="round">
<line x1="286.3" y1="182.2" x2="236.0" y2="153.2" opacity="1.0" stroke="rgb(0,0,0)" stroke-width="2.0"/>
<line x1="224.8" y1="133.7" x2="224.8" y2="111.1" opacity="1.0" stroke="rgb(0,0,0)" stroke-width="2.0"/>
<line x1="213.5" y1="153.2" x2="101.6" y2="217.8" opacity="1.0" stroke="rgb(0,0,0)" stroke-width="2.0"/>
<line x1="101.6" y1="253.3" x2="132.4" y2="271.1" opacity="1.0" stroke="rgb(0,0,0)" stroke-width="2.0"/>
<line x1="205.9" y1="362.9" x2="170.6" y2="359.2" opacity="1.0" stroke="rgb(0,0,0)" stroke-width="2.0"/>
<line x1="200.7" y1="355.2" x2="177.3" y2="352.7" opacity="1.0" stroke="rgb(0,0,0)" stroke-width="2.0"/>
<line x1="170.6" y1="359.2" x2="163.2" y2="324.4" opacity="1.0" stroke="rgb(0,0,0)" stroke-width="2.0"/>
<line x1="163.2" y1="324.4" x2="194.0" y2="306.7" opacity="1.0" stroke="rgb(0,0,0)" stroke-width="2.0"/>
<line x1="194.0" y1="306.7" x2="210.7" y2="321.8" opacity="1.0" stroke="rgb(0,0,0)" stroke-width="2.0"/>
<line x1="215.1" y1="342.3" x2="205.9" y2="362.9" opacity="1.0" stroke="rgb(0,0,0)" stroke-width="2.0"/>
<line x1="317.1" y1="235.6" x2="286.3" y2="217.8" opacity="1.0" stroke="rgb(0,0,0)" stroke-width="2.0"/>
<line x1="286.3" y1="217.8" x2="286.3" y2="182.2" opacity="1.0" stroke="rgb(0,0,0)" stroke-width="2.0"/>
<line x1="293.5" y1="211.8" x2="293.5" y2="188.2" opacity="1.0" stroke="rgb(0,0,0)" stroke-width="2.0"/>
<line x1="286.3" y1="182.2" x2="317.1" y2="164.4" opacity="1.0" stroke="rgb(0,0,0)" stroke-width="2.0"/>
<line x1="317.1" y1="164.4" x2="347.9" y2="182.2" opacity="1.0" stroke="rgb(0,0,0)" stroke-width="2.0"/>
<line x1="318.7" y1="173.7" x2="339.1" y2="185.5" opacity="1.0" stroke="rgb(0,0,0)" stroke-width="2.0"/>
<line x1="347.9" y1="182.2" x2="347.9" y2="217.8" opacity="1.0" stroke="rgb(0,0,0)" stroke-width="2.0"/>
<line x1="347.9" y1="217.8" x2="317.1" y2="235.6" opacity="1.0" stroke="rgb(0,0,0)" stroke-width="2.0"/>
<line x1="339.1" y1="214.5" x2="318.7" y2="226.3" opacity="1.0" stroke="rgb(0,0,0)" stroke-width="2.0"/>
<line x1="194.0" y1="93.3" x2="194.0" y2="57.8" opacity="1.0" stroke="rgb(0,0,0)" stroke-width="2.0"/>
<line x1="194.0" y1="57.8" x2="224.8" y2="40.0" opacity="1.0" stroke="rgb(0,0,0)" stroke-width="2.0"/>
<line x1="202.8" y1="61.0" x2="223.2" y2="49.2" opacity="1.0" stroke="rgb(0,0,0)" stroke-width="2.0"/>
<line x1="224.8" y1="40.0" x2="255.5" y2="57.8" opacity="1.0" stroke="rgb(0,0,0)" stroke-width="2.0"/>
<line x1="255.5" y1="57.8" x2="255.5" y2="93.3" opacity="1.0" stroke="rgb(0,0,0)" stroke-width="2.0"/>
<line x1="248.3" y1="63.8" x2="248.3" y2="87.3" opacity="1.0" stroke="rgb(0,0,0)" stroke-width="2.0"/>
<line x1="255.5" y1="93.3" x2="224.8" y2="111.1" opacity="1.0" stroke="rgb(0,0,0)" stroke-width="2.0"/>
<line x1="224.8" y1="111.1" x2="194.0" y2="93.3" opacity="1.0" stroke="rgb(0,0,0)" stroke-width="2.0"/>
<line x1="223.2" y1="101.9" x2="202.8" y2="90.1" opacity="1.0" stroke="rgb(0,0,0)" stroke-width="2.0"/>
<line x1="70.8" y1="200.0" x2="40.0" y2="217.8" opacity="1.0" stroke="rgb(0,0,0)" stroke-width="2.0"/>
<line x1="40.0" y1="217.8" x2="40.0" y2="253.3" opacity="1.0" stroke="rgb(0,0,0)" stroke-width="2.0"/>
<line x1="47.2" y1="223.8" x2="47.2" y2="247.3" opacity="1.0" stroke="rgb(0,0,0)" stroke-width="2.0"/>
<line x1="40.0" y1="253.3" x2="70.8" y2="271.1" opacity="1.0" stroke="rgb(0,0,0)" stroke-width="2.0"/>
<line x1="70.8" y1="271.1" x2="101.6" y2="253.3" opacity="1.0" stroke="rgb(0,0,0)" stroke-width="2.0"/>
<line x1="72.4" y1="261.9" x2="92.8" y2="250.1" opacity="1.0" stroke="rgb(0,0,0)" stroke-width="2.0"/>
<line x1="101.6" y1="253.3" x2="101.6" y2="217.8" opacity="1.0" stroke="rgb(0,0,0)" stroke-width="2.0"/>
<line x1="101.6" y1="217.8" x2="70.8" y2="200.0" opacity="1.0" stroke="rgb(0,0,0)" stroke-width="2.0"/>
<line x1="92.8" y1="221.0" x2="72.4" y2="209.2" opacity="1.0" stroke="rgb(0,0,0)" stroke-width="2.0"/>
<line x1="163.2" y1="253.3" x2="194.0" y2="271.1" opacity="1.0" stroke="rgb(0,0,0)" stroke-width="2.0"/>
<line x1="194.0" y1="271.1" x2="194.0" y2="306.7" opacity="1.0" stroke="rgb(0,0,0)" stroke-width="2.0"/>
<line x1="186.8" y1="277.1" x2="186.8" y2="300.7" opacity="1.0" stroke="rgb(0,0,0)" stroke-width="2.0"/>
<line x1="163.2" y1="324.4" x2="132.4" y2="306.7" opacity="1.0" stroke="rgb(0,0,0)" stroke-width="2.0"/>
<line x1="161.6" y1="315.2" x2="141.2" y2="303.4" opacity="1.0" stroke="rgb(0,0,0)" stroke-width="2.0"/>
<line x1="132.4" y1="306.7" x2="132.4" y2="271.1" opacity="1.0" stroke="rgb(0,0,0)" stroke-width="2.0"/>
<line x1="132.4" y1="271.1" x2="163.2" y2="253.3" opacity="1.0" stroke="rgb(0,0,0)" stroke-width="2.0"/>
<line x1="141.2" y1="274.3" x2="161.6" y2="262.6" opacity="1.0" stroke="rgb(0,0,0)" stroke-width="2.0"/>
<text x="214.382999" y="338.457977" fill="rgb(12,12,255)" stroke-width="0" font-weight="bold" font-size="16">NH</text>
<text x="218.752086" y="154.666667" fill="rgb(12,12,255)" stroke-width="0" font-weight="bold" font-size="16">N</text>
</svg>
</g>
</svg>
