<svg xmlns="http://www.w3.org/2000/svg" xmlns:xlink="http://www.w3.org/1999/xlink" xmlns:cml="http://www.xml-cml.org/schema" version="1.1" id="topsvg" x="0" y="0" viewBox="0 0 100 100">
<title>A_2_T - Open Babel Depiction</title>
<rect x="0" y="0" width="100" height="100" fill="white"/>
<g transform="translate(0,0)">
<svg width="100" height="100" x="0" y="0" viewBox="0 0 384.421 361.212" font-family="sans-serif" stroke="rgb(0,0,0)" stroke-width="2" stroke-linecap="round">
<line x1="100.9" y1="180.6" x2="150.5" y2="209.3" opacity="1.0" stroke="rgb(0,0,0)" stroke-width="2.0"/>
<line x1="161.8" y1="228.8" x2="161.8" y2="250.9" opacity="1.0" stroke="rgb(0,0,0)" stroke-width="2.0"/>
<line x1="173.0" y1="209.3" x2="283.5" y2="145.5" opacity="1.0" stroke="rgb(0,0,0)" stroke-width="2.0"/>
<line x1="192.2" y1="57.6" x2="173.0" y2="46.5" opacity="1.0" stroke="rgb(0,0,0)" stroke-width="2.0"/>
<line x1="283.5" y1="110.3" x2="253.1" y2="92.7" opacity="1.0" stroke="rgb(0,0,0)" stroke-width="2.0"/>
<line x1="70.4" y1="127.9" x2="100.9" y2="145.5" opacity="1.0" stroke="rgb(0,0,0)" stroke-width="2.0"/>
<line x1="100.9" y1="145.5" x2="100.9" y2="180.6" opacity="1.0" stroke="rgb(0,0,0)" stroke-width="2.0"/>
<line x1="93.7" y1="151.5" x2="93.7" y2="174.6" opacity="1.0" stroke="rgb(0,0,0)" stroke-width="2.0"/>
<line x1="100.9" y1="180.6" x2="70.4" y2="198.2" opacity="1.0" stroke="rgb(0,0,0)" stroke-width="2.0"/>
<line x1="70.4" y1="198.2" x2="40.0" y2="180.6" opacity="1.0" stroke="rgb(0,0,0)" stroke-width="2.0"/>
<line x1="68.8" y1="188.9" x2="48.8" y2="177.4" opacity="1.0" stroke="rgb(0,0,0)" stroke-width="2.0"/>
<line x1="40.0" y1="180.6" x2="40.0" y2="145.5" opacity="1.0" stroke="rgb(0,0,0)" stroke-width="2.0"/>
<line x1="40.0" y1="145.5" x2="70.4" y2="127.9" opacity="1.0" stroke="rgb(0,0,0)" stroke-width="2.0"/>
<line x1="48.8" y1="148.7" x2="68.8" y2="137.1" opacity="1.0" stroke="rgb(0,0,0)" stroke-width="2.0"/>
<line x1="192.2" y1="268.5" x2="192.2" y2="303.6" opacity="1.0" stroke="rgb(0,0,0)" stroke-width="2.0"/>
<line x1="192.2" y1="303.6" x2="161.8" y2="321.2" opacity="1.0" stroke="rgb(0,0,0)" stroke-width="2.0"/>
<line x1="183.4" y1="300.4" x2="163.4" y2="312.0" opacity="1.0" stroke="rgb(0,0,0)" stroke-width="2.0"/>
<line x1="161.8" y1="321.2" x2="131.3" y2="303.6" opacity="1.0" stroke="rgb(0,0,0)" stroke-width="2.0"/>
<line x1="131.3" y1="303.6" x2="131.3" y2="268.5" opacity="1.0" stroke="rgb(0,0,0)" stroke-width="2.0"/>
<line x1="138.5" y1="297.6" x2="138.5" y2="274.5" opacity="1.0" stroke="rgb(0,0,0)" stroke-width="2.0"/>
<line x1="131.3" y1="268.5" x2="161.8" y2="250.9" opacity="1.0" stroke="rgb(0,0,0)" stroke-width="2.0"/>
<line x1="161.8" y1="250.9" x2="192.2" y2="268.5" opacity="1.0" stroke="rgb(0,0,0)" stroke-width="2.0"/>
<line x1="163.4" y1="260.1" x2="183.4" y2="271.7" opacity="1.0" stroke="rgb(0,0,0)" stroke-width="2.0"/>
<line x1="314.0" y1="163.0" x2="344.4" y2="145.5" opacity="1.0" stroke="rgb(0,0,0)" stroke-width="2.0"/>
<line x1="344.4" y1="145.5" x2="344.4" y2="110.3" opacity="1.0" stroke="rgb(0,0,0)" stroke-width="2.0"/>
<line x1="337.2" y1="139.5" x2="337.2" y2="116.3" opacity="1.0" stroke="rgb(0,0,0)" stroke-width="2.0"/>
<line x1="344.4" y1="110.3" x2="314.0" y2="92.7" opacity="1.0" stroke="rgb(0,0,0)" stroke-width="2.0"/>
<line x1="314.0" y1="92.7" x2="283.5" y2="110.3" opacity="1.0" stroke="rgb(0,0,0)" stroke-width="2.0"/>
<line x1="312.4" y1="102.0" x2="292.3" y2="113.5" opacity="1.0" stroke="rgb(0,0,0)" stroke-width="2.0"/>
<line x1="283.5" y1="110.3" x2="283.5" y2="145.5" opacity="1.0" stroke="rgb(0,0,0)" stroke-width="2.0"/>
<line x1="283.5" y1="145.5" x2="314.0" y2="163.0" opacity="1.0" stroke="rgb(0,0,0)" stroke-width="2.0"/>
<line x1="292.3" y1="142.2" x2="312.4" y2="153.8" opacity="1.0" stroke="rgb(0,0,0)" stroke-width="2.0"/>
<line x1="253.1" y1="57.6" x2="222.7" y2="40.0" opacity="1.0" stroke="rgb(0,0,0)" stroke-width="2.0"/>
<line x1="222.7" y1="40.0" x2="192.2" y2="57.6" opacity="1.0" stroke="rgb(0,0,0)" stroke-width="2.0"/>
<line x1="221.1" y1="49.2" x2="201.0" y2="60.8" opacity="1.0" stroke="rgb(0,0,0)" stroke-width="2.0"/>
<line x1="192.2" y1="57.6" x2="192.2" y2="92.7" opacity="1.0" stroke="rgb(0,0,0)" stroke-width="2.0"/>
<line x1="192.2" y1="92.7" x2="222.7" y2="110.3" opacity="1.0" stroke="rgb(0,0,0)" stroke-width="2.0"/>
<line x1="201.0" y1="89.5" x2="221.1" y2="101.1" opacity="1.0" stroke="rgb(0,0,0)" stroke-width="2.0"/>
<line x1="222.7" y1="110.3" x2="253.1" y2="92.7" opacity="1.0" stroke="rgb(0,0,0)" stroke-width="2.0"/>
<line x1="253.1" y1="92.7" x2="253.1" y2="57.6" opacity="1.0" stroke="rgb(0,0,0)" stroke-width="2.0"/>
<line x1="245.9" y1="86.7" x2="245.9" y2="63.6" opacity="1.0" stroke="rgb(0,0,0)" stroke-width="2.0"/>
<text x="135.768420" y="48.000000" fill="rgb(102,102,102)" stroke-width="0" font-weight="bold" font-size="16">H</text>
<text x="147.768420" y="51.680000" fill="rgb(102,102,102)" stroke-width="0" font-weight="bold" font-size="13">3</text>
<text x="154.268420" y="48.000000" fill="rgb(102,102,102)" stroke-width="0" font-weight="bold" font-size="16">C</text>
<text x="155.768420" y="223.757576" fill="rgb(12,12,255)" stroke-width="0" font-weight="bold" font-size="16">N</text>
</svg>
</g>
</svg>