<svg xmlns="http://www.w3.org/2000/svg" x="0" y="0" viewBox="0 0 100 100">
<title>A_2_S - Open Babel Depiction</title>
<rect x="0" y="0" width="100" height="100" fill="white"/>
<g transform="translate(0,0)">
<svg width="100" height="100" x="0" y="0" viewBox="0 0 386.82 398.857" font-family="sans-serif" stroke="rgb(0,0,0)" stroke-width="2" stroke-linecap="round">
<line x1="285.5" y1="181.7" x2="235.4" y2="152.8" opacity="1.0" stroke="rgb(0,0,0)" stroke-width="2.0"/>
<line x1="224.1" y1="133.3" x2="224.1" y2="110.9" opacity="1.0" stroke="rgb(0,0,0)" stroke-width="2.0"/>
<line x1="212.8" y1="152.8" x2="101.4" y2="217.1" opacity="1.0" stroke="rgb(0,0,0)" stroke-width="2.0"/>
<line x1="193.4" y1="305.7" x2="224.1" y2="323.4" opacity="1.0" stroke="rgb(0,0,0)" stroke-width="2.0"/>
<line x1="224.1" y1="323.4" x2="224.1" y2="345.9" opacity="1.0" stroke="rgb(0,0,0)" stroke-width="2.0"/>
<line x1="222.6" y1="320.8" x2="242.0" y2="309.6" opacity="1.0" stroke="rgb(0,0,0)" stroke-width="2.0"/>
<line x1="225.6" y1="326.0" x2="245.0" y2="314.8" opacity="1.0" stroke="rgb(0,0,0)" stroke-width="2.0"/>
<line x1="101.4" y1="252.6" x2="132.0" y2="270.3" opacity="1.0" stroke="rgb(0,0,0)" stroke-width="2.0"/>
<line x1="316.1" y1="234.9" x2="285.5" y2="217.1" opacity="1.0" stroke="rgb(0,0,0)" stroke-width="2.0"/>
<line x1="285.5" y1="217.1" x2="285.5" y2="181.7" opacity="1.0" stroke="rgb(0,0,0)" stroke-width="2.0"/>
<line x1="292.7" y1="211.1" x2="292.7" y2="187.7" opacity="1.0" stroke="rgb(0,0,0)" stroke-width="2.0"/>
<line x1="285.5" y1="181.7" x2="316.1" y2="164.0" opacity="1.0" stroke="rgb(0,0,0)" stroke-width="2.0"/>
<line x1="316.1" y1="164.0" x2="346.8" y2="181.7" opacity="1.0" stroke="rgb(0,0,0)" stroke-width="2.0"/>
<line x1="317.7" y1="173.2" x2="338.0" y2="184.9" opacity="1.0" stroke="rgb(0,0,0)" stroke-width="2.0"/>
<line x1="346.8" y1="181.7" x2="346.8" y2="217.1" opacity="1.0" stroke="rgb(0,0,0)" stroke-width="2.0"/>
<line x1="346.8" y1="217.1" x2="316.1" y2="234.9" opacity="1.0" stroke="rgb(0,0,0)" stroke-width="2.0"/>
<line x1="338.0" y1="213.9" x2="317.7" y2="225.6" opacity="1.0" stroke="rgb(0,0,0)" stroke-width="2.0"/>
<line x1="193.4" y1="93.1" x2="193.4" y2="57.7" opacity="1.0" stroke="rgb(0,0,0)" stroke-width="2.0"/>
<line x1="193.4" y1="57.7" x2="224.1" y2="40.0" opacity="1.0" stroke="rgb(0,0,0)" stroke-width="2.0"/>
<line x1="202.2" y1="60.9" x2="222.5" y2="49.2" opacity="1.0" stroke="rgb(0,0,0)" stroke-width="2.0"/>
<line x1="224.1" y1="40.0" x2="254.8" y2="57.7" opacity="1.0" stroke="rgb(0,0,0)" stroke-width="2.0"/>
<line x1="254.8" y1="57.7" x2="254.8" y2="93.1" opacity="1.0" stroke="rgb(0,0,0)" stroke-width="2.0"/>
<line x1="247.6" y1="63.7" x2="247.6" y2="87.1" opacity="1.0" stroke="rgb(0,0,0)" stroke-width="2.0"/>
<line x1="254.8" y1="93.1" x2="224.1" y2="110.9" opacity="1.0" stroke="rgb(0,0,0)" stroke-width="2.0"/>
<line x1="224.1" y1="110.9" x2="193.4" y2="93.1" opacity="1.0" stroke="rgb(0,0,0)" stroke-width="2.0"/>
<line x1="222.5" y1="101.6" x2="202.2" y2="89.9" opacity="1.0" stroke="rgb(0,0,0)" stroke-width="2.0"/>
<line x1="70.7" y1="199.4" x2="40.0" y2="217.1" opacity="1.0" stroke="rgb(0,0,0)" stroke-width="2.0"/>
<line x1="40.0" y1="217.1" x2="40.0" y2="252.6" opacity="1.0" stroke="rgb(0,0,0)" stroke-width="2.0"/>
<line x1="47.2" y1="223.1" x2="47.2" y2="246.6" opacity="1.0" stroke="rgb(0,0,0)" stroke-width="2.0"/>
<line x1="40.0" y1="252.6" x2="70.7" y2="270.3" opacity="1.0" stroke="rgb(0,0,0)" stroke-width="2.0"/>
<line x1="70.7" y1="270.3" x2="101.4" y2="252.6" opacity="1.0" stroke="rgb(0,0,0)" stroke-width="2.0"/>
<line x1="72.3" y1="261.1" x2="92.6" y2="249.3" opacity="1.0" stroke="rgb(0,0,0)" stroke-width="2.0"/>
<line x1="101.4" y1="252.6" x2="101.4" y2="217.1" opacity="1.0" stroke="rgb(0,0,0)" stroke-width="2.0"/>
<line x1="101.4" y1="217.1" x2="70.7" y2="199.4" opacity="1.0" stroke="rgb(0,0,0)" stroke-width="2.0"/>
<line x1="92.6" y1="220.4" x2="72.3" y2="208.7" opacity="1.0" stroke="rgb(0,0,0)" stroke-width="2.0"/>
<line x1="132.0" y1="305.7" x2="162.7" y2="323.4" opacity="1.0" stroke="rgb(0,0,0)" stroke-width="2.0"/>
<line x1="162.7" y1="323.4" x2="193.4" y2="305.7" opacity="1.0" stroke="rgb(0,0,0)" stroke-width="2.0"/>
<line x1="164.3" y1="314.2" x2="184.6" y2="302.5" opacity="1.0" stroke="rgb(0,0,0)" stroke-width="2.0"/>
<line x1="193.4" y1="305.7" x2="193.4" y2="270.3" opacity="1.0" stroke="rgb(0,0,0)" stroke-width="2.0"/>
<line x1="193.4" y1="270.3" x2="162.7" y2="252.6" opacity="1.0" stroke="rgb(0,0,0)" stroke-width="2.0"/>
<line x1="184.6" y1="273.5" x2="164.3" y2="261.8" opacity="1.0" stroke="rgb(0,0,0)" stroke-width="2.0"/>
<line x1="162.7" y1="252.6" x2="132.0" y2="270.3" opacity="1.0" stroke="rgb(0,0,0)" stroke-width="2.0"/>
<line x1="132.0" y1="270.3" x2="132.0" y2="305.7" opacity="1.0" stroke="rgb(0,0,0)" stroke-width="2.0"/>
<line x1="139.2" y1="276.3" x2="139.2" y2="299.7" opacity="1.0" stroke="rgb(0,0,0)" stroke-width="2.0"/>
<text x="248.774300" y="313.714286" fill="rgb(255,12,12)" stroke-width="0" font-weight="bold" font-size="16">O</text>
<text x="220.092257" y="366.857143" fill="rgb(102,102,102)" stroke-width="0" font-weight="bold" font-size="16">CH</text>
<text x="244.092257" y="370.537143" fill="rgb(102,102,102)" stroke-width="0" font-weight="bold" font-size="13">3</text>
<text x="218.092257" y="154.285714" fill="rgb(12,12,255)" stroke-width="0" font-weight="bold" font-size="16">N</text>
</svg>
</g>
</svg>
