<svg xmlns="http://www.w3.org/2000/svg" xmlns:xlink="http://www.w3.org/1999/xlink" xmlns:cml="http://www.xml-cml.org/schema" version="1.1" id="topsvg" x="0" y="0" viewBox="0 0 100 100">
<title>A_2_K - Open Babel Depiction</title>
<rect x="0" y="0" width="100" height="100" fill="white"/>
<g transform="translate(0,0)">
<svg width="100" height="100" x="0" y="0" viewBox="0 0 386.82 398.857" font-family="sans-serif" stroke="rgb(0,0,0)" stroke-width="2" stroke-linecap="round">
<line x1="101.4" y1="217.1" x2="151.5" y2="246.1" opacity="1.0" stroke="rgb(0,0,0)" stroke-width="2.0"/>
<line x1="162.7" y1="265.6" x2="162.7" y2="288.0" opacity="1.0" stroke="rgb(0,0,0)" stroke-width="2.0"/>
<line x1="174.0" y1="246.1" x2="285.5" y2="181.7" opacity="1.0" stroke="rgb(0,0,0)" stroke-width="2.0"/>
<line x1="153.0" y1="84.5" x2="144.8" y2="89.2" opacity="1.0" stroke="rgb(0,0,0)" stroke-width="2.0"/>
<line x1="150.0" y1="79.3" x2="141.8" y2="84.0" opacity="1.0" stroke="rgb(0,0,0)" stroke-width="2.0"/>
<line x1="162.7" y1="62.4" x2="162.7" y2="53.0" opacity="1.0" stroke="rgb(0,0,0)" stroke-width="2.0"/>
<line x1="193.4" y1="93.1" x2="174.0" y2="81.9" opacity="1.0" stroke="rgb(0,0,0)" stroke-width="2.0"/>
<line x1="285.5" y1="146.3" x2="254.8" y2="128.6" opacity="1.0" stroke="rgb(0,0,0)" stroke-width="2.0"/>
<line x1="70.7" y1="164.0" x2="101.4" y2="181.7" opacity="1.0" stroke="rgb(0,0,0)" stroke-width="2.0"/>
<line x1="101.4" y1="181.7" x2="101.4" y2="217.1" opacity="1.0" stroke="rgb(0,0,0)" stroke-width="2.0"/>
<line x1="94.2" y1="187.7" x2="94.2" y2="211.1" opacity="1.0" stroke="rgb(0,0,0)" stroke-width="2.0"/>
<line x1="101.4" y1="217.1" x2="70.7" y2="234.9" opacity="1.0" stroke="rgb(0,0,0)" stroke-width="2.0"/>
<line x1="70.7" y1="234.9" x2="40.0" y2="217.1" opacity="1.0" stroke="rgb(0,0,0)" stroke-width="2.0"/>
<line x1="69.1" y1="225.6" x2="48.8" y2="213.9" opacity="1.0" stroke="rgb(0,0,0)" stroke-width="2.0"/>
<line x1="40.0" y1="217.1" x2="40.0" y2="181.7" opacity="1.0" stroke="rgb(0,0,0)" stroke-width="2.0"/>
<line x1="40.0" y1="181.7" x2="70.7" y2="164.0" opacity="1.0" stroke="rgb(0,0,0)" stroke-width="2.0"/>
<line x1="48.8" y1="184.9" x2="69.1" y2="173.2" opacity="1.0" stroke="rgb(0,0,0)" stroke-width="2.0"/>
<line x1="193.4" y1="305.7" x2="193.4" y2="341.1" opacity="1.0" stroke="rgb(0,0,0)" stroke-width="2.0"/>
<line x1="193.4" y1="341.1" x2="162.7" y2="358.9" opacity="1.0" stroke="rgb(0,0,0)" stroke-width="2.0"/>
<line x1="184.6" y1="337.9" x2="164.3" y2="349.6" opacity="1.0" stroke="rgb(0,0,0)" stroke-width="2.0"/>
<line x1="162.7" y1="358.9" x2="132.0" y2="341.1" opacity="1.0" stroke="rgb(0,0,0)" stroke-width="2.0"/>
<line x1="132.0" y1="341.1" x2="132.0" y2="305.7" opacity="1.0" stroke="rgb(0,0,0)" stroke-width="2.0"/>
<line x1="139.2" y1="335.1" x2="139.2" y2="311.7" opacity="1.0" stroke="rgb(0,0,0)" stroke-width="2.0"/>
<line x1="132.0" y1="305.7" x2="162.7" y2="288.0" opacity="1.0" stroke="rgb(0,0,0)" stroke-width="2.0"/>
<line x1="162.7" y1="288.0" x2="193.4" y2="305.7" opacity="1.0" stroke="rgb(0,0,0)" stroke-width="2.0"/>
<line x1="164.3" y1="297.2" x2="184.6" y2="308.9" opacity="1.0" stroke="rgb(0,0,0)" stroke-width="2.0"/>
<line x1="316.1" y1="199.4" x2="346.8" y2="181.7" opacity="1.0" stroke="rgb(0,0,0)" stroke-width="2.0"/>
<line x1="346.8" y1="181.7" x2="346.8" y2="146.3" opacity="1.0" stroke="rgb(0,0,0)" stroke-width="2.0"/>
<line x1="339.6" y1="175.7" x2="339.6" y2="152.3" opacity="1.0" stroke="rgb(0,0,0)" stroke-width="2.0"/>
<line x1="346.8" y1="146.3" x2="316.1" y2="128.6" opacity="1.0" stroke="rgb(0,0,0)" stroke-width="2.0"/>
<line x1="316.1" y1="128.6" x2="285.5" y2="146.3" opacity="1.0" stroke="rgb(0,0,0)" stroke-width="2.0"/>
<line x1="314.5" y1="137.8" x2="294.3" y2="149.5" opacity="1.0" stroke="rgb(0,0,0)" stroke-width="2.0"/>
<line x1="285.5" y1="146.3" x2="285.5" y2="181.7" opacity="1.0" stroke="rgb(0,0,0)" stroke-width="2.0"/>
<line x1="285.5" y1="181.7" x2="316.1" y2="199.4" opacity="1.0" stroke="rgb(0,0,0)" stroke-width="2.0"/>
<line x1="294.3" y1="178.5" x2="314.5" y2="190.2" opacity="1.0" stroke="rgb(0,0,0)" stroke-width="2.0"/>
<line x1="254.8" y1="93.1" x2="224.1" y2="75.4" opacity="1.0" stroke="rgb(0,0,0)" stroke-width="2.0"/>
<line x1="224.1" y1="75.4" x2="193.4" y2="93.1" opacity="1.0" stroke="rgb(0,0,0)" stroke-width="2.0"/>
<line x1="222.5" y1="84.7" x2="202.2" y2="96.4" opacity="1.0" stroke="rgb(0,0,0)" stroke-width="2.0"/>
<line x1="193.4" y1="93.1" x2="193.4" y2="128.6" opacity="1.0" stroke="rgb(0,0,0)" stroke-width="2.0"/>
<line x1="193.4" y1="128.6" x2="224.1" y2="146.3" opacity="1.0" stroke="rgb(0,0,0)" stroke-width="2.0"/>
<line x1="202.2" y1="125.3" x2="222.5" y2="137.1" opacity="1.0" stroke="rgb(0,0,0)" stroke-width="2.0"/>
<line x1="224.1" y1="146.3" x2="254.8" y2="128.6" opacity="1.0" stroke="rgb(0,0,0)" stroke-width="2.0"/>
<line x1="254.8" y1="128.6" x2="254.8" y2="93.1" opacity="1.0" stroke="rgb(0,0,0)" stroke-width="2.0"/>
<line x1="247.6" y1="122.6" x2="247.6" y2="99.1" opacity="1.0" stroke="rgb(0,0,0)" stroke-width="2.0"/>
<text x="167.528172" y="35.968000" fill="rgb(255,12,12)" stroke-width="0" font-weight="bold" font-size="16"/>
<text x="167.528172" y="35.968000" fill="rgb(255,12,12)" stroke-width="0" font-weight="bold" font-size="32">.</text>
<text x="156.728172" y="48.000000" fill="rgb(255,12,12)" stroke-width="0" font-weight="bold" font-size="16">O</text>
<text x="126.046129" y="101.142857" fill="rgb(255,12,12)" stroke-width="0" font-weight="bold" font-size="16">O</text>
<text x="156.728172" y="83.428571" fill="rgb(12,12,255)" stroke-width="0" font-weight="bold" font-size="16">N</text>
<text x="156.728172" y="260.571429" fill="rgb(12,12,255)" stroke-width="0" font-weight="bold" font-size="16">N</text>
</svg>
</g>
</svg>