<svg xmlns="http://www.w3.org/2000/svg" xmlns:xlink="http://www.w3.org/1999/xlink" xmlns:cml="http://www.xml-cml.org/schema" version="1.1" id="topsvg" x="0" y="0" viewBox="0 0 100 100">
<title>A_2_M - Open Babel Depiction</title>
<rect x="0" y="0" width="100" height="100" fill="white"/>
<g transform="translate(0,0)">
<svg width="100" height="100" x="0" y="0" viewBox="0 0 385.656 380" font-family="sans-serif" stroke="rgb(0,0,0)" stroke-width="2" stroke-linecap="round">
<line x1="101.1" y1="198.8" x2="151.0" y2="227.6" opacity="1.0" stroke="rgb(0,0,0)" stroke-width="2.0"/>
<line x1="162.3" y1="247.1" x2="162.3" y2="269.4" opacity="1.0" stroke="rgb(0,0,0)" stroke-width="2.0"/>
<line x1="173.5" y1="227.6" x2="284.5" y2="163.5" opacity="1.0" stroke="rgb(0,0,0)" stroke-width="2.0"/>
<line x1="162.3" y1="57.6" x2="143.0" y2="46.5" opacity="1.0" stroke="rgb(0,0,0)" stroke-width="2.0"/>
<line x1="160.2" y1="61.3" x2="140.9" y2="50.1" opacity="1.0" stroke="rgb(0,0,0)" stroke-width="2.0"/>
<line x1="164.4" y1="54.0" x2="145.1" y2="42.9" opacity="1.0" stroke="rgb(0,0,0)" stroke-width="2.0"/>
<line x1="192.8" y1="75.3" x2="162.3" y2="57.6" opacity="1.0" stroke="rgb(0,0,0)" stroke-width="2.0"/>
<line x1="284.5" y1="128.2" x2="254.0" y2="110.6" opacity="1.0" stroke="rgb(0,0,0)" stroke-width="2.0"/>
<line x1="70.6" y1="145.9" x2="101.1" y2="163.5" opacity="1.0" stroke="rgb(0,0,0)" stroke-width="2.0"/>
<line x1="101.1" y1="163.5" x2="101.1" y2="198.8" opacity="1.0" stroke="rgb(0,0,0)" stroke-width="2.0"/>
<line x1="93.9" y1="169.5" x2="93.9" y2="192.8" opacity="1.0" stroke="rgb(0,0,0)" stroke-width="2.0"/>
<line x1="101.1" y1="198.8" x2="70.6" y2="216.5" opacity="1.0" stroke="rgb(0,0,0)" stroke-width="2.0"/>
<line x1="70.6" y1="216.5" x2="40.0" y2="198.8" opacity="1.0" stroke="rgb(0,0,0)" stroke-width="2.0"/>
<line x1="69.0" y1="207.2" x2="48.8" y2="195.6" opacity="1.0" stroke="rgb(0,0,0)" stroke-width="2.0"/>
<line x1="40.0" y1="198.8" x2="40.0" y2="163.5" opacity="1.0" stroke="rgb(0,0,0)" stroke-width="2.0"/>
<line x1="40.0" y1="163.5" x2="70.6" y2="145.9" opacity="1.0" stroke="rgb(0,0,0)" stroke-width="2.0"/>
<line x1="48.8" y1="166.8" x2="69.0" y2="155.1" opacity="1.0" stroke="rgb(0,0,0)" stroke-width="2.0"/>
<line x1="192.8" y1="287.1" x2="192.8" y2="322.4" opacity="1.0" stroke="rgb(0,0,0)" stroke-width="2.0"/>
<line x1="192.8" y1="322.4" x2="162.3" y2="340.0" opacity="1.0" stroke="rgb(0,0,0)" stroke-width="2.0"/>
<line x1="184.0" y1="319.1" x2="163.9" y2="330.8" opacity="1.0" stroke="rgb(0,0,0)" stroke-width="2.0"/>
<line x1="162.3" y1="340.0" x2="131.7" y2="322.4" opacity="1.0" stroke="rgb(0,0,0)" stroke-width="2.0"/>
<line x1="131.7" y1="322.4" x2="131.7" y2="287.1" opacity="1.0" stroke="rgb(0,0,0)" stroke-width="2.0"/>
<line x1="138.9" y1="316.4" x2="138.9" y2="293.1" opacity="1.0" stroke="rgb(0,0,0)" stroke-width="2.0"/>
<line x1="131.7" y1="287.1" x2="162.3" y2="269.4" opacity="1.0" stroke="rgb(0,0,0)" stroke-width="2.0"/>
<line x1="162.3" y1="269.4" x2="192.8" y2="287.1" opacity="1.0" stroke="rgb(0,0,0)" stroke-width="2.0"/>
<line x1="163.9" y1="278.6" x2="184.0" y2="290.3" opacity="1.0" stroke="rgb(0,0,0)" stroke-width="2.0"/>
<line x1="315.1" y1="181.2" x2="345.7" y2="163.5" opacity="1.0" stroke="rgb(0,0,0)" stroke-width="2.0"/>
<line x1="345.7" y1="163.5" x2="345.7" y2="128.2" opacity="1.0" stroke="rgb(0,0,0)" stroke-width="2.0"/>
<line x1="338.5" y1="157.5" x2="338.5" y2="134.2" opacity="1.0" stroke="rgb(0,0,0)" stroke-width="2.0"/>
<line x1="345.7" y1="128.2" x2="315.1" y2="110.6" opacity="1.0" stroke="rgb(0,0,0)" stroke-width="2.0"/>
<line x1="315.1" y1="110.6" x2="284.5" y2="128.2" opacity="1.0" stroke="rgb(0,0,0)" stroke-width="2.0"/>
<line x1="313.5" y1="119.8" x2="293.3" y2="131.5" opacity="1.0" stroke="rgb(0,0,0)" stroke-width="2.0"/>
<line x1="284.5" y1="128.2" x2="284.5" y2="163.5" opacity="1.0" stroke="rgb(0,0,0)" stroke-width="2.0"/>
<line x1="284.5" y1="163.5" x2="315.1" y2="181.2" opacity="1.0" stroke="rgb(0,0,0)" stroke-width="2.0"/>
<line x1="293.3" y1="160.3" x2="313.5" y2="171.9" opacity="1.0" stroke="rgb(0,0,0)" stroke-width="2.0"/>
<line x1="254.0" y1="75.3" x2="223.4" y2="57.6" opacity="1.0" stroke="rgb(0,0,0)" stroke-width="2.0"/>
<line x1="223.4" y1="57.6" x2="192.8" y2="75.3" opacity="1.0" stroke="rgb(0,0,0)" stroke-width="2.0"/>
<line x1="221.8" y1="66.9" x2="201.6" y2="78.5" opacity="1.0" stroke="rgb(0,0,0)" stroke-width="2.0"/>
<line x1="192.8" y1="75.3" x2="192.8" y2="110.6" opacity="1.0" stroke="rgb(0,0,0)" stroke-width="2.0"/>
<line x1="192.8" y1="110.6" x2="223.4" y2="128.2" opacity="1.0" stroke="rgb(0,0,0)" stroke-width="2.0"/>
<line x1="201.6" y1="107.4" x2="221.8" y2="119.0" opacity="1.0" stroke="rgb(0,0,0)" stroke-width="2.0"/>
<line x1="223.4" y1="128.2" x2="254.0" y2="110.6" opacity="1.0" stroke="rgb(0,0,0)" stroke-width="2.0"/>
<line x1="254.0" y1="110.6" x2="254.0" y2="75.3" opacity="1.0" stroke="rgb(0,0,0)" stroke-width="2.0"/>
<line x1="246.8" y1="104.6" x2="246.8" y2="81.3" opacity="1.0" stroke="rgb(0,0,0)" stroke-width="2.0"/>
<text x="125.696807" y="48.000000" fill="rgb(12,12,255)" stroke-width="0" font-weight="bold" font-size="16">N</text>
<text x="156.262410" y="242.117647" fill="rgb(12,12,255)" stroke-width="0" font-weight="bold" font-size="16">N</text>
</svg>
</g>
</svg>