<svg xmlns="http://www.w3.org/2000/svg" x="0" y="0" viewBox="0 0 100 100">
<title>A_2_O - Open Babel Depiction</title>
<rect x="0" y="0" width="100" height="100" fill="white"/>
<g transform="translate(0,0)">
<svg width="100" height="100" x="0" y="0" viewBox="0 0 383.109 307.5" font-family="sans-serif" stroke="rgb(0,0,0)" stroke-width="2" stroke-linecap="round">
<line x1="282.5" y1="180.0" x2="233.1" y2="151.5" opacity="1.0" stroke="rgb(0,0,0)" stroke-width="2.0"/>
<line x1="221.9" y1="132.0" x2="221.9" y2="110.0" opacity="1.0" stroke="rgb(0,0,0)" stroke-width="2.0"/>
<line x1="210.6" y1="151.5" x2="100.6" y2="215.0" opacity="1.0" stroke="rgb(0,0,0)" stroke-width="2.0"/>
<line x1="70.3" y1="197.5" x2="70.3" y2="162.5" opacity="1.0" stroke="rgb(0,0,0)" stroke-width="2.0"/>
<line x1="312.8" y1="232.5" x2="282.5" y2="215.0" opacity="1.0" stroke="rgb(0,0,0)" stroke-width="2.0"/>
<line x1="282.5" y1="215.0" x2="282.5" y2="180.0" opacity="1.0" stroke="rgb(0,0,0)" stroke-width="2.0"/>
<line x1="289.7" y1="209.0" x2="289.7" y2="186.0" opacity="1.0" stroke="rgb(0,0,0)" stroke-width="2.0"/>
<line x1="282.5" y1="180.0" x2="312.8" y2="162.5" opacity="1.0" stroke="rgb(0,0,0)" stroke-width="2.0"/>
<line x1="312.8" y1="162.5" x2="343.1" y2="180.0" opacity="1.0" stroke="rgb(0,0,0)" stroke-width="2.0"/>
<line x1="314.4" y1="171.7" x2="334.3" y2="183.2" opacity="1.0" stroke="rgb(0,0,0)" stroke-width="2.0"/>
<line x1="343.1" y1="180.0" x2="343.1" y2="215.0" opacity="1.0" stroke="rgb(0,0,0)" stroke-width="2.0"/>
<line x1="343.1" y1="215.0" x2="312.8" y2="232.5" opacity="1.0" stroke="rgb(0,0,0)" stroke-width="2.0"/>
<line x1="334.3" y1="211.8" x2="314.4" y2="223.3" opacity="1.0" stroke="rgb(0,0,0)" stroke-width="2.0"/>
<line x1="191.6" y1="92.5" x2="191.6" y2="57.5" opacity="1.0" stroke="rgb(0,0,0)" stroke-width="2.0"/>
<line x1="191.6" y1="57.5" x2="221.9" y2="40.0" opacity="1.0" stroke="rgb(0,0,0)" stroke-width="2.0"/>
<line x1="200.4" y1="60.7" x2="220.3" y2="49.2" opacity="1.0" stroke="rgb(0,0,0)" stroke-width="2.0"/>
<line x1="221.9" y1="40.0" x2="252.2" y2="57.5" opacity="1.0" stroke="rgb(0,0,0)" stroke-width="2.0"/>
<line x1="252.2" y1="57.5" x2="252.2" y2="92.5" opacity="1.0" stroke="rgb(0,0,0)" stroke-width="2.0"/>
<line x1="245.0" y1="63.5" x2="245.0" y2="86.5" opacity="1.0" stroke="rgb(0,0,0)" stroke-width="2.0"/>
<line x1="252.2" y1="92.5" x2="221.9" y2="110.0" opacity="1.0" stroke="rgb(0,0,0)" stroke-width="2.0"/>
<line x1="221.9" y1="110.0" x2="191.6" y2="92.5" opacity="1.0" stroke="rgb(0,0,0)" stroke-width="2.0"/>
<line x1="220.3" y1="100.8" x2="200.4" y2="89.3" opacity="1.0" stroke="rgb(0,0,0)" stroke-width="2.0"/>
<line x1="100.6" y1="250.0" x2="70.3" y2="267.5" opacity="1.0" stroke="rgb(0,0,0)" stroke-width="2.0"/>
<line x1="70.3" y1="267.5" x2="40.0" y2="250.0" opacity="1.0" stroke="rgb(0,0,0)" stroke-width="2.0"/>
<line x1="68.7" y1="258.3" x2="48.8" y2="246.8" opacity="1.0" stroke="rgb(0,0,0)" stroke-width="2.0"/>
<line x1="40.0" y1="250.0" x2="40.0" y2="215.0" opacity="1.0" stroke="rgb(0,0,0)" stroke-width="2.0"/>
<line x1="40.0" y1="215.0" x2="70.3" y2="197.5" opacity="1.0" stroke="rgb(0,0,0)" stroke-width="2.0"/>
<line x1="48.8" y1="218.2" x2="68.7" y2="206.7" opacity="1.0" stroke="rgb(0,0,0)" stroke-width="2.0"/>
<line x1="70.3" y1="197.5" x2="100.6" y2="215.0" opacity="1.0" stroke="rgb(0,0,0)" stroke-width="2.0"/>
<line x1="100.6" y1="215.0" x2="100.6" y2="250.0" opacity="1.0" stroke="rgb(0,0,0)" stroke-width="2.0"/>
<line x1="93.4" y1="221.0" x2="93.4" y2="244.0" opacity="1.0" stroke="rgb(0,0,0)" stroke-width="2.0"/>
<line x1="100.6" y1="132.0" x2="100.6" y2="110.0" opacity="1.0" stroke="rgb(0,0,0)" stroke-width="2.0"/>
<line x1="100.6" y1="110.0" x2="70.3" y2="92.5" opacity="1.0" stroke="rgb(0,0,0)" stroke-width="2.0"/>
<line x1="91.8" y1="113.2" x2="71.9" y2="101.7" opacity="1.0" stroke="rgb(0,0,0)" stroke-width="2.0"/>
<line x1="70.3" y1="92.5" x2="40.0" y2="110.0" opacity="1.0" stroke="rgb(0,0,0)" stroke-width="2.0"/>
<line x1="40.0" y1="110.0" x2="40.0" y2="145.0" opacity="1.0" stroke="rgb(0,0,0)" stroke-width="2.0"/>
<line x1="47.2" y1="116.0" x2="47.2" y2="139.0" opacity="1.0" stroke="rgb(0,0,0)" stroke-width="2.0"/>
<line x1="40.0" y1="145.0" x2="70.3" y2="162.5" opacity="1.0" stroke="rgb(0,0,0)" stroke-width="2.0"/>
<line x1="70.3" y1="162.5" x2="90.6" y2="150.8" opacity="1.0" stroke="rgb(0,0,0)" stroke-width="2.0"/>
<line x1="71.9" y1="153.3" x2="84.9" y2="145.8" opacity="1.0" stroke="rgb(0,0,0)" stroke-width="2.0"/>
<text x="94.621778" y="153.000000" fill="rgb(12,12,255)" stroke-width="0" font-weight="bold" font-size="16">N</text>
<text x="215.865335" y="153.000000" fill="rgb(12,12,255)" stroke-width="0" font-weight="bold" font-size="16">N</text>
</svg>
</g>
</svg>
