<svg xmlns="http://www.w3.org/2000/svg" xmlns:xlink="http://www.w3.org/1999/xlink" xmlns:cml="http://www.xml-cml.org/schema" version="1.1" id="topsvg" x="0" y="0" viewBox="0 0 100 100">
<title>A_3_S - Open Babel Depiction</title>
<rect x="0" y="0" width="100" height="100" fill="white"/>
<g transform="translate(0,0)">
<svg width="100" height="100" x="0" y="0" viewBox="0 0 521.865 426.222" font-family="sans-serif" stroke="rgb(0,0,0)" stroke-width="2" stroke-linecap="round">
<line x1="103.1" y1="204.0" x2="155.0" y2="233.9" opacity="1.0" stroke="rgb(0,0,0)" stroke-width="2.0"/>
<line x1="166.2" y1="253.4" x2="166.2" y2="313.3" opacity="1.0" stroke="rgb(0,0,0)" stroke-width="2.0"/>
<line x1="177.5" y1="233.9" x2="229.4" y2="204.0" opacity="1.0" stroke="rgb(0,0,0)" stroke-width="2.0"/>
<line x1="418.7" y1="94.7" x2="450.3" y2="76.4" opacity="1.0" stroke="rgb(0,0,0)" stroke-width="2.0"/>
<line x1="450.3" y1="76.4" x2="470.6" y2="88.2" opacity="1.0" stroke="rgb(0,0,0)" stroke-width="2.0"/>
<line x1="447.3" y1="76.4" x2="447.3" y2="53.0" opacity="1.0" stroke="rgb(0,0,0)" stroke-width="2.0"/>
<line x1="453.3" y1="76.4" x2="453.3" y2="53.0" opacity="1.0" stroke="rgb(0,0,0)" stroke-width="2.0"/>
<line x1="292.5" y1="167.6" x2="355.6" y2="131.1" opacity="1.0" stroke="rgb(0,0,0)" stroke-width="2.0"/>
<line x1="71.6" y1="149.3" x2="103.1" y2="167.6" opacity="1.0" stroke="rgb(0,0,0)" stroke-width="2.0"/>
<line x1="103.1" y1="167.6" x2="103.1" y2="204.0" opacity="1.0" stroke="rgb(0,0,0)" stroke-width="2.0"/>
<line x1="95.9" y1="173.6" x2="95.9" y2="198.0" opacity="1.0" stroke="rgb(0,0,0)" stroke-width="2.0"/>
<line x1="103.1" y1="204.0" x2="71.6" y2="222.2" opacity="1.0" stroke="rgb(0,0,0)" stroke-width="2.0"/>
<line x1="71.6" y1="222.2" x2="40.0" y2="204.0" opacity="1.0" stroke="rgb(0,0,0)" stroke-width="2.0"/>
<line x1="70.0" y1="213.0" x2="48.8" y2="200.8" opacity="1.0" stroke="rgb(0,0,0)" stroke-width="2.0"/>
<line x1="40.0" y1="204.0" x2="40.0" y2="167.6" opacity="1.0" stroke="rgb(0,0,0)" stroke-width="2.0"/>
<line x1="40.0" y1="167.6" x2="71.6" y2="149.3" opacity="1.0" stroke="rgb(0,0,0)" stroke-width="2.0"/>
<line x1="48.8" y1="170.8" x2="70.0" y2="158.6" opacity="1.0" stroke="rgb(0,0,0)" stroke-width="2.0"/>
<line x1="197.8" y1="331.6" x2="197.8" y2="368.0" opacity="1.0" stroke="rgb(0,0,0)" stroke-width="2.0"/>
<line x1="197.8" y1="368.0" x2="166.2" y2="386.2" opacity="1.0" stroke="rgb(0,0,0)" stroke-width="2.0"/>
<line x1="189.0" y1="364.8" x2="167.8" y2="377.0" opacity="1.0" stroke="rgb(0,0,0)" stroke-width="2.0"/>
<line x1="166.2" y1="386.2" x2="134.7" y2="368.0" opacity="1.0" stroke="rgb(0,0,0)" stroke-width="2.0"/>
<line x1="134.7" y1="368.0" x2="134.7" y2="331.6" opacity="1.0" stroke="rgb(0,0,0)" stroke-width="2.0"/>
<line x1="141.9" y1="362.0" x2="141.9" y2="337.6" opacity="1.0" stroke="rgb(0,0,0)" stroke-width="2.0"/>
<line x1="134.7" y1="331.6" x2="166.2" y2="313.3" opacity="1.0" stroke="rgb(0,0,0)" stroke-width="2.0"/>
<line x1="166.2" y1="313.3" x2="197.8" y2="331.6" opacity="1.0" stroke="rgb(0,0,0)" stroke-width="2.0"/>
<line x1="167.8" y1="322.6" x2="189.0" y2="334.8" opacity="1.0" stroke="rgb(0,0,0)" stroke-width="2.0"/>
<line x1="260.9" y1="258.7" x2="292.5" y2="276.9" opacity="1.0" stroke="rgb(0,0,0)" stroke-width="2.0"/>
<line x1="269.7" y1="255.4" x2="290.9" y2="267.7" opacity="1.0" stroke="rgb(0,0,0)" stroke-width="2.0"/>
<line x1="292.5" y1="276.9" x2="324.1" y2="258.7" opacity="1.0" stroke="rgb(0,0,0)" stroke-width="2.0"/>
<line x1="324.1" y1="258.7" x2="324.1" y2="222.2" opacity="1.0" stroke="rgb(0,0,0)" stroke-width="2.0"/>
<line x1="316.9" y1="252.7" x2="316.9" y2="228.2" opacity="1.0" stroke="rgb(0,0,0)" stroke-width="2.0"/>
<line x1="324.1" y1="222.2" x2="292.5" y2="204.0" opacity="1.0" stroke="rgb(0,0,0)" stroke-width="2.0"/>
<line x1="292.5" y1="204.0" x2="260.9" y2="222.2" opacity="1.0" stroke="rgb(0,0,0)" stroke-width="2.0"/>
<line x1="290.9" y1="213.2" x2="269.7" y2="225.5" opacity="1.0" stroke="rgb(0,0,0)" stroke-width="2.0"/>
<line x1="260.9" y1="222.2" x2="260.9" y2="258.7" opacity="1.0" stroke="rgb(0,0,0)" stroke-width="2.0"/>
<line x1="292.5" y1="167.6" x2="292.5" y2="204.0" opacity="1.0" stroke="rgb(0,0,0)" stroke-width="2.0"/>
<line x1="260.9" y1="222.2" x2="229.4" y2="204.0" opacity="1.0" stroke="rgb(0,0,0)" stroke-width="2.0"/>
<line x1="229.4" y1="204.0" x2="229.4" y2="167.6" opacity="1.0" stroke="rgb(0,0,0)" stroke-width="2.0"/>
<line x1="236.6" y1="198.0" x2="236.6" y2="173.6" opacity="1.0" stroke="rgb(0,0,0)" stroke-width="2.0"/>
<line x1="229.4" y1="167.6" x2="260.9" y2="149.3" opacity="1.0" stroke="rgb(0,0,0)" stroke-width="2.0"/>
<line x1="260.9" y1="149.3" x2="292.5" y2="167.6" opacity="1.0" stroke="rgb(0,0,0)" stroke-width="2.0"/>
<line x1="262.5" y1="158.6" x2="283.7" y2="170.8" opacity="1.0" stroke="rgb(0,0,0)" stroke-width="2.0"/>
<line x1="197.8" y1="112.9" x2="229.4" y2="94.7" opacity="1.0" stroke="rgb(0,0,0)" stroke-width="2.0"/>
<line x1="229.4" y1="94.7" x2="260.9" y2="112.9" opacity="1.0" stroke="rgb(0,0,0)" stroke-width="2.0"/>
<line x1="231.0" y1="103.9" x2="252.1" y2="116.1" opacity="1.0" stroke="rgb(0,0,0)" stroke-width="2.0"/>
<line x1="260.9" y1="112.9" x2="260.9" y2="149.3" opacity="1.0" stroke="rgb(0,0,0)" stroke-width="2.0"/>
<line x1="229.4" y1="167.6" x2="197.8" y2="149.3" opacity="1.0" stroke="rgb(0,0,0)" stroke-width="2.0"/>
<line x1="197.8" y1="149.3" x2="197.8" y2="112.9" opacity="1.0" stroke="rgb(0,0,0)" stroke-width="2.0"/>
<line x1="205.0" y1="143.3" x2="205.0" y2="118.9" opacity="1.0" stroke="rgb(0,0,0)" stroke-width="2.0"/>
<line x1="355.6" y1="94.7" x2="387.2" y2="76.4" opacity="1.0" stroke="rgb(0,0,0)" stroke-width="2.0"/>
<line x1="387.2" y1="76.4" x2="418.7" y2="94.7" opacity="1.0" stroke="rgb(0,0,0)" stroke-width="2.0"/>
<line x1="388.8" y1="85.7" x2="409.9" y2="97.9" opacity="1.0" stroke="rgb(0,0,0)" stroke-width="2.0"/>
<line x1="418.7" y1="94.7" x2="418.7" y2="131.1" opacity="1.0" stroke="rgb(0,0,0)" stroke-width="2.0"/>
<line x1="418.7" y1="131.1" x2="387.2" y2="149.3" opacity="1.0" stroke="rgb(0,0,0)" stroke-width="2.0"/>
<line x1="409.9" y1="127.9" x2="388.8" y2="140.1" opacity="1.0" stroke="rgb(0,0,0)" stroke-width="2.0"/>
<line x1="387.2" y1="149.3" x2="355.6" y2="131.1" opacity="1.0" stroke="rgb(0,0,0)" stroke-width="2.0"/>
<line x1="355.6" y1="131.1" x2="355.6" y2="94.7" opacity="1.0" stroke="rgb(0,0,0)" stroke-width="2.0"/>
<line x1="362.8" y1="125.1" x2="362.8" y2="100.7" opacity="1.0" stroke="rgb(0,0,0)" stroke-width="2.0"/>
<text x="477.865406" y="102.666667" fill="rgb(102,102,102)" stroke-width="0" font-weight="bold" font-size="16">CH</text>
<text x="501.865406" y="106.346667" fill="rgb(102,102,102)" stroke-width="0" font-weight="bold" font-size="13">3</text>
<text x="444.303591" y="48.000000" fill="rgb(255,12,12)" stroke-width="0" font-weight="bold" font-size="16">O</text>
<text x="160.247259" y="248.444444" fill="rgb(12,12,255)" stroke-width="0" font-weight="bold" font-size="16">N</text>
</svg>
</g>
</svg>