<svg xmlns="http://www.w3.org/2000/svg" xmlns:xlink="http://www.w3.org/1999/xlink" xmlns:cml="http://www.xml-cml.org/schema" version="1.1" id="topsvg" x="0" y="0" viewBox="0 0 100 100">
<title>A_3_T - Open Babel Depiction</title>
<rect x="0" y="0" width="100" height="100" fill="white"/>
<g transform="translate(0,0)">
<svg width="100" height="100" x="0" y="0" viewBox="0 0 488.442 388.372" font-family="sans-serif" stroke="rgb(0,0,0)" stroke-width="2" stroke-linecap="round">
<line x1="385.6" y1="221.4" x2="334.0" y2="191.6" opacity="1.0" stroke="rgb(0,0,0)" stroke-width="2.0"/>
<line x1="322.8" y1="172.1" x2="322.8" y2="112.6" opacity="1.0" stroke="rgb(0,0,0)" stroke-width="2.0"/>
<line x1="311.5" y1="191.6" x2="259.9" y2="221.4" opacity="1.0" stroke="rgb(0,0,0)" stroke-width="2.0"/>
<line x1="71.4" y1="330.2" x2="51.3" y2="341.9" opacity="1.0" stroke="rgb(0,0,0)" stroke-width="2.0"/>
<line x1="197.1" y1="257.7" x2="134.3" y2="294.0" opacity="1.0" stroke="rgb(0,0,0)" stroke-width="2.0"/>
<line x1="417.0" y1="275.8" x2="385.6" y2="257.7" opacity="1.0" stroke="rgb(0,0,0)" stroke-width="2.0"/>
<line x1="385.6" y1="257.7" x2="385.6" y2="221.4" opacity="1.0" stroke="rgb(0,0,0)" stroke-width="2.0"/>
<line x1="392.8" y1="251.7" x2="392.8" y2="227.4" opacity="1.0" stroke="rgb(0,0,0)" stroke-width="2.0"/>
<line x1="385.6" y1="221.4" x2="417.0" y2="203.3" opacity="1.0" stroke="rgb(0,0,0)" stroke-width="2.0"/>
<line x1="417.0" y1="203.3" x2="448.4" y2="221.4" opacity="1.0" stroke="rgb(0,0,0)" stroke-width="2.0"/>
<line x1="418.6" y1="212.5" x2="439.6" y2="224.6" opacity="1.0" stroke="rgb(0,0,0)" stroke-width="2.0"/>
<line x1="448.4" y1="221.4" x2="448.4" y2="257.7" opacity="1.0" stroke="rgb(0,0,0)" stroke-width="2.0"/>
<line x1="448.4" y1="257.7" x2="417.0" y2="275.8" opacity="1.0" stroke="rgb(0,0,0)" stroke-width="2.0"/>
<line x1="439.6" y1="254.4" x2="418.6" y2="266.6" opacity="1.0" stroke="rgb(0,0,0)" stroke-width="2.0"/>
<line x1="291.3" y1="94.4" x2="291.3" y2="58.1" opacity="1.0" stroke="rgb(0,0,0)" stroke-width="2.0"/>
<line x1="291.3" y1="58.1" x2="322.8" y2="40.0" opacity="1.0" stroke="rgb(0,0,0)" stroke-width="2.0"/>
<line x1="300.1" y1="61.4" x2="321.2" y2="49.2" opacity="1.0" stroke="rgb(0,0,0)" stroke-width="2.0"/>
<line x1="322.8" y1="40.0" x2="354.2" y2="58.1" opacity="1.0" stroke="rgb(0,0,0)" stroke-width="2.0"/>
<line x1="354.2" y1="58.1" x2="354.2" y2="94.4" opacity="1.0" stroke="rgb(0,0,0)" stroke-width="2.0"/>
<line x1="347.0" y1="64.1" x2="347.0" y2="88.4" opacity="1.0" stroke="rgb(0,0,0)" stroke-width="2.0"/>
<line x1="354.2" y1="94.4" x2="322.8" y2="112.6" opacity="1.0" stroke="rgb(0,0,0)" stroke-width="2.0"/>
<line x1="322.8" y1="112.6" x2="291.3" y2="94.4" opacity="1.0" stroke="rgb(0,0,0)" stroke-width="2.0"/>
<line x1="321.2" y1="103.3" x2="300.1" y2="91.2" opacity="1.0" stroke="rgb(0,0,0)" stroke-width="2.0"/>
<line x1="228.5" y1="167.0" x2="197.1" y2="148.8" opacity="1.0" stroke="rgb(0,0,0)" stroke-width="2.0"/>
<line x1="219.7" y1="170.2" x2="198.7" y2="158.1" opacity="1.0" stroke="rgb(0,0,0)" stroke-width="2.0"/>
<line x1="197.1" y1="148.8" x2="165.7" y2="167.0" opacity="1.0" stroke="rgb(0,0,0)" stroke-width="2.0"/>
<line x1="165.7" y1="167.0" x2="165.7" y2="203.3" opacity="1.0" stroke="rgb(0,0,0)" stroke-width="2.0"/>
<line x1="172.9" y1="173.0" x2="172.9" y2="197.3" opacity="1.0" stroke="rgb(0,0,0)" stroke-width="2.0"/>
<line x1="165.7" y1="203.3" x2="197.1" y2="221.4" opacity="1.0" stroke="rgb(0,0,0)" stroke-width="2.0"/>
<line x1="197.1" y1="221.4" x2="228.5" y2="203.3" opacity="1.0" stroke="rgb(0,0,0)" stroke-width="2.0"/>
<line x1="198.7" y1="212.2" x2="219.7" y2="200.0" opacity="1.0" stroke="rgb(0,0,0)" stroke-width="2.0"/>
<line x1="228.5" y1="203.3" x2="228.5" y2="167.0" opacity="1.0" stroke="rgb(0,0,0)" stroke-width="2.0"/>
<line x1="197.1" y1="257.7" x2="197.1" y2="221.4" opacity="1.0" stroke="rgb(0,0,0)" stroke-width="2.0"/>
<line x1="228.5" y1="203.3" x2="259.9" y2="221.4" opacity="1.0" stroke="rgb(0,0,0)" stroke-width="2.0"/>
<line x1="259.9" y1="221.4" x2="259.9" y2="257.7" opacity="1.0" stroke="rgb(0,0,0)" stroke-width="2.0"/>
<line x1="252.7" y1="227.4" x2="252.7" y2="251.7" opacity="1.0" stroke="rgb(0,0,0)" stroke-width="2.0"/>
<line x1="259.9" y1="257.7" x2="228.5" y2="275.8" opacity="1.0" stroke="rgb(0,0,0)" stroke-width="2.0"/>
<line x1="228.5" y1="275.8" x2="197.1" y2="257.7" opacity="1.0" stroke="rgb(0,0,0)" stroke-width="2.0"/>
<line x1="226.9" y1="266.6" x2="205.9" y2="254.4" opacity="1.0" stroke="rgb(0,0,0)" stroke-width="2.0"/>
<line x1="291.3" y1="312.1" x2="259.9" y2="330.2" opacity="1.0" stroke="rgb(0,0,0)" stroke-width="2.0"/>
<line x1="259.9" y1="330.2" x2="228.5" y2="312.1" opacity="1.0" stroke="rgb(0,0,0)" stroke-width="2.0"/>
<line x1="258.3" y1="321.0" x2="237.3" y2="308.9" opacity="1.0" stroke="rgb(0,0,0)" stroke-width="2.0"/>
<line x1="228.5" y1="312.1" x2="228.5" y2="275.8" opacity="1.0" stroke="rgb(0,0,0)" stroke-width="2.0"/>
<line x1="259.9" y1="257.7" x2="291.3" y2="275.8" opacity="1.0" stroke="rgb(0,0,0)" stroke-width="2.0"/>
<line x1="291.3" y1="275.8" x2="291.3" y2="312.1" opacity="1.0" stroke="rgb(0,0,0)" stroke-width="2.0"/>
<line x1="284.1" y1="281.8" x2="284.1" y2="306.1" opacity="1.0" stroke="rgb(0,0,0)" stroke-width="2.0"/>
<line x1="134.3" y1="330.2" x2="102.8" y2="348.4" opacity="1.0" stroke="rgb(0,0,0)" stroke-width="2.0"/>
<line x1="102.8" y1="348.4" x2="71.4" y2="330.2" opacity="1.0" stroke="rgb(0,0,0)" stroke-width="2.0"/>
<line x1="101.2" y1="339.1" x2="80.2" y2="327.0" opacity="1.0" stroke="rgb(0,0,0)" stroke-width="2.0"/>
<line x1="71.4" y1="330.2" x2="71.4" y2="294.0" opacity="1.0" stroke="rgb(0,0,0)" stroke-width="2.0"/>
<line x1="71.4" y1="294.0" x2="102.8" y2="275.8" opacity="1.0" stroke="rgb(0,0,0)" stroke-width="2.0"/>
<line x1="80.2" y1="297.2" x2="101.2" y2="285.0" opacity="1.0" stroke="rgb(0,0,0)" stroke-width="2.0"/>
<line x1="102.8" y1="275.8" x2="134.3" y2="294.0" opacity="1.0" stroke="rgb(0,0,0)" stroke-width="2.0"/>
<line x1="134.3" y1="294.0" x2="134.3" y2="330.2" opacity="1.0" stroke="rgb(0,0,0)" stroke-width="2.0"/>
<line x1="127.1" y1="300.0" x2="127.1" y2="324.2" opacity="1.0" stroke="rgb(0,0,0)" stroke-width="2.0"/>
<text x="14.000000" y="356.372093" fill="rgb(102,102,102)" stroke-width="0" font-weight="bold" font-size="16">H</text>
<text x="26.000000" y="360.052093" fill="rgb(102,102,102)" stroke-width="0" font-weight="bold" font-size="13">3</text>
<text x="32.500000" y="356.372093" fill="rgb(102,102,102)" stroke-width="0" font-weight="bold" font-size="16">C</text>
<text x="316.767364" y="193.116279" fill="rgb(12,12,255)" stroke-width="0" font-weight="bold" font-size="16">N</text>
</svg>
</g>
</svg>