<svg xmlns="http://www.w3.org/2000/svg" x="0" y="0" viewBox="0 0 100 100">
<title>A_3_Q - Open Babel Depiction</title>
<rect x="0" y="0" width="100" height="100" fill="white"/>
<g transform="translate(0,0)">
<svg width="100" height="100" x="0" y="0" viewBox="0 0 456.102 387.619" font-family="sans-serif" stroke="rgb(0,0,0)" stroke-width="2" stroke-linecap="round">
<line x1="290.7" y1="275.2" x2="290.7" y2="215.9" opacity="1.0" stroke="rgb(0,0,0)" stroke-width="2.0"/>
<line x1="302.0" y1="196.4" x2="353.4" y2="166.7" opacity="1.0" stroke="rgb(0,0,0)" stroke-width="2.0"/>
<line x1="279.5" y1="196.4" x2="228.1" y2="166.7" opacity="1.0" stroke="rgb(0,0,0)" stroke-width="2.0"/>
<line x1="165.4" y1="130.5" x2="102.7" y2="94.3" opacity="1.0" stroke="rgb(0,0,0)" stroke-width="2.0"/>
<line x1="259.4" y1="329.5" x2="259.4" y2="293.3" opacity="1.0" stroke="rgb(0,0,0)" stroke-width="2.0"/>
<line x1="259.4" y1="293.3" x2="290.7" y2="275.2" opacity="1.0" stroke="rgb(0,0,0)" stroke-width="2.0"/>
<line x1="268.2" y1="296.6" x2="289.1" y2="284.5" opacity="1.0" stroke="rgb(0,0,0)" stroke-width="2.0"/>
<line x1="290.7" y1="275.2" x2="322.1" y2="293.3" opacity="1.0" stroke="rgb(0,0,0)" stroke-width="2.0"/>
<line x1="322.1" y1="293.3" x2="322.1" y2="329.5" opacity="1.0" stroke="rgb(0,0,0)" stroke-width="2.0"/>
<line x1="314.9" y1="299.3" x2="314.9" y2="323.5" opacity="1.0" stroke="rgb(0,0,0)" stroke-width="2.0"/>
<line x1="322.1" y1="329.5" x2="290.7" y2="347.6" opacity="1.0" stroke="rgb(0,0,0)" stroke-width="2.0"/>
<line x1="290.7" y1="347.6" x2="259.4" y2="329.5" opacity="1.0" stroke="rgb(0,0,0)" stroke-width="2.0"/>
<line x1="289.1" y1="338.4" x2="268.2" y2="326.3" opacity="1.0" stroke="rgb(0,0,0)" stroke-width="2.0"/>
<line x1="384.8" y1="184.8" x2="416.1" y2="166.7" opacity="1.0" stroke="rgb(0,0,0)" stroke-width="2.0"/>
<line x1="416.1" y1="166.7" x2="416.1" y2="130.5" opacity="1.0" stroke="rgb(0,0,0)" stroke-width="2.0"/>
<line x1="408.9" y1="160.7" x2="408.9" y2="136.5" opacity="1.0" stroke="rgb(0,0,0)" stroke-width="2.0"/>
<line x1="416.1" y1="130.5" x2="384.8" y2="112.4" opacity="1.0" stroke="rgb(0,0,0)" stroke-width="2.0"/>
<line x1="384.8" y1="112.4" x2="353.4" y2="130.5" opacity="1.0" stroke="rgb(0,0,0)" stroke-width="2.0"/>
<line x1="383.2" y1="121.6" x2="362.2" y2="133.7" opacity="1.0" stroke="rgb(0,0,0)" stroke-width="2.0"/>
<line x1="353.4" y1="130.5" x2="353.4" y2="166.7" opacity="1.0" stroke="rgb(0,0,0)" stroke-width="2.0"/>
<line x1="353.4" y1="166.7" x2="384.8" y2="184.8" opacity="1.0" stroke="rgb(0,0,0)" stroke-width="2.0"/>
<line x1="362.2" y1="163.4" x2="383.2" y2="175.5" opacity="1.0" stroke="rgb(0,0,0)" stroke-width="2.0"/>
<line x1="259.4" y1="112.4" x2="259.4" y2="76.2" opacity="1.0" stroke="rgb(0,0,0)" stroke-width="2.0"/>
<line x1="252.2" y1="106.4" x2="252.2" y2="82.2" opacity="1.0" stroke="rgb(0,0,0)" stroke-width="2.0"/>
<line x1="259.4" y1="76.2" x2="228.1" y2="58.1" opacity="1.0" stroke="rgb(0,0,0)" stroke-width="2.0"/>
<line x1="228.1" y1="58.1" x2="196.7" y2="76.2" opacity="1.0" stroke="rgb(0,0,0)" stroke-width="2.0"/>
<line x1="226.5" y1="67.3" x2="205.5" y2="79.4" opacity="1.0" stroke="rgb(0,0,0)" stroke-width="2.0"/>
<line x1="196.7" y1="76.2" x2="196.7" y2="112.4" opacity="1.0" stroke="rgb(0,0,0)" stroke-width="2.0"/>
<line x1="196.7" y1="112.4" x2="228.1" y2="130.5" opacity="1.0" stroke="rgb(0,0,0)" stroke-width="2.0"/>
<line x1="205.5" y1="109.1" x2="226.5" y2="121.2" opacity="1.0" stroke="rgb(0,0,0)" stroke-width="2.0"/>
<line x1="228.1" y1="130.5" x2="259.4" y2="112.4" opacity="1.0" stroke="rgb(0,0,0)" stroke-width="2.0"/>
<line x1="165.4" y1="130.5" x2="196.7" y2="112.4" opacity="1.0" stroke="rgb(0,0,0)" stroke-width="2.0"/>
<line x1="228.1" y1="130.5" x2="228.1" y2="166.7" opacity="1.0" stroke="rgb(0,0,0)" stroke-width="2.0"/>
<line x1="228.1" y1="166.7" x2="196.7" y2="184.8" opacity="1.0" stroke="rgb(0,0,0)" stroke-width="2.0"/>
<line x1="219.3" y1="163.4" x2="198.3" y2="175.5" opacity="1.0" stroke="rgb(0,0,0)" stroke-width="2.0"/>
<line x1="196.7" y1="184.8" x2="165.4" y2="166.7" opacity="1.0" stroke="rgb(0,0,0)" stroke-width="2.0"/>
<line x1="165.4" y1="166.7" x2="165.4" y2="130.5" opacity="1.0" stroke="rgb(0,0,0)" stroke-width="2.0"/>
<line x1="172.6" y1="160.7" x2="172.6" y2="136.5" opacity="1.0" stroke="rgb(0,0,0)" stroke-width="2.0"/>
<line x1="165.4" y1="239.0" x2="134.0" y2="221.0" opacity="1.0" stroke="rgb(0,0,0)" stroke-width="2.0"/>
<line x1="134.0" y1="221.0" x2="134.0" y2="184.8" opacity="1.0" stroke="rgb(0,0,0)" stroke-width="2.0"/>
<line x1="141.2" y1="215.0" x2="141.2" y2="190.8" opacity="1.0" stroke="rgb(0,0,0)" stroke-width="2.0"/>
<line x1="134.0" y1="184.8" x2="165.4" y2="166.7" opacity="1.0" stroke="rgb(0,0,0)" stroke-width="2.0"/>
<line x1="196.7" y1="184.8" x2="196.7" y2="221.0" opacity="1.0" stroke="rgb(0,0,0)" stroke-width="2.0"/>
<line x1="196.7" y1="221.0" x2="165.4" y2="239.0" opacity="1.0" stroke="rgb(0,0,0)" stroke-width="2.0"/>
<line x1="187.9" y1="217.7" x2="167.0" y2="229.8" opacity="1.0" stroke="rgb(0,0,0)" stroke-width="2.0"/>
<line x1="60.1" y1="105.9" x2="40.0" y2="94.3" opacity="1.0" stroke="rgb(0,0,0)" stroke-width="2.0"/>
<line x1="40.0" y1="94.3" x2="40.0" y2="58.1" opacity="1.0" stroke="rgb(0,0,0)" stroke-width="2.0"/>
<line x1="47.2" y1="88.3" x2="47.2" y2="64.1" opacity="1.0" stroke="rgb(0,0,0)" stroke-width="2.0"/>
<line x1="40.0" y1="58.1" x2="60.1" y2="46.5" opacity="1.0" stroke="rgb(0,0,0)" stroke-width="2.0"/>
<line x1="81.7" y1="46.0" x2="102.7" y2="58.1" opacity="1.0" stroke="rgb(0,0,0)" stroke-width="2.0"/>
<line x1="80.1" y1="53.4" x2="93.9" y2="61.3" opacity="1.0" stroke="rgb(0,0,0)" stroke-width="2.0"/>
<line x1="102.7" y1="58.1" x2="102.7" y2="94.3" opacity="1.0" stroke="rgb(0,0,0)" stroke-width="2.0"/>
<line x1="102.7" y1="94.3" x2="81.7" y2="106.4" opacity="1.0" stroke="rgb(0,0,0)" stroke-width="2.0"/>
<line x1="93.9" y1="91.1" x2="80.1" y2="99.0" opacity="1.0" stroke="rgb(0,0,0)" stroke-width="2.0"/>
<text x="65.341872" y="120.380952" fill="rgb(12,12,255)" stroke-width="0" font-weight="bold" font-size="16">N</text>
<text x="65.341872" y="48.000000" fill="rgb(12,12,255)" stroke-width="0" font-weight="bold" font-size="16">N</text>
<text x="284.734974" y="210.857143" fill="rgb(12,12,255)" stroke-width="0" font-weight="bold" font-size="16">N</text>
</svg>
</g>
</svg>
