<svg xmlns="http://www.w3.org/2000/svg" xmlns:xlink="http://www.w3.org/1999/xlink" xmlns:cml="http://www.xml-cml.org/schema" version="1.1" id="topsvg" x="0" y="0" viewBox="0 0 100 100">
<title>A_3_R - Open Babel Depiction</title>
<rect x="0" y="0" width="100" height="100" fill="white"/>
<g transform="translate(0,0)">
<svg width="100" height="100" x="0" y="0" viewBox="0 0 521.865 426.222" font-family="sans-serif" stroke="rgb(0,0,0)" stroke-width="2" stroke-linecap="round">
<line x1="418.7" y1="222.2" x2="366.9" y2="192.3" opacity="1.0" stroke="rgb(0,0,0)" stroke-width="2.0"/>
<line x1="355.6" y1="172.8" x2="355.6" y2="112.9" opacity="1.0" stroke="rgb(0,0,0)" stroke-width="2.0"/>
<line x1="344.4" y1="192.3" x2="292.5" y2="222.2" opacity="1.0" stroke="rgb(0,0,0)" stroke-width="2.0"/>
<line x1="58.8" y1="345.9" x2="49.8" y2="340.7" opacity="1.0" stroke="rgb(0,0,0)" stroke-width="2.0"/>
<line x1="61.8" y1="340.7" x2="52.8" y2="335.5" opacity="1.0" stroke="rgb(0,0,0)" stroke-width="2.0"/>
<line x1="71.6" y1="362.8" x2="71.6" y2="373.2" opacity="1.0" stroke="rgb(0,0,0)" stroke-width="2.0"/>
<line x1="103.1" y1="331.6" x2="82.8" y2="343.3" opacity="1.0" stroke="rgb(0,0,0)" stroke-width="2.0"/>
<line x1="229.4" y1="258.7" x2="166.2" y2="295.1" opacity="1.0" stroke="rgb(0,0,0)" stroke-width="2.0"/>
<line x1="450.3" y1="276.9" x2="418.7" y2="258.7" opacity="1.0" stroke="rgb(0,0,0)" stroke-width="2.0"/>
<line x1="418.7" y1="258.7" x2="418.7" y2="222.2" opacity="1.0" stroke="rgb(0,0,0)" stroke-width="2.0"/>
<line x1="425.9" y1="252.7" x2="425.9" y2="228.2" opacity="1.0" stroke="rgb(0,0,0)" stroke-width="2.0"/>
<line x1="418.7" y1="222.2" x2="450.3" y2="204.0" opacity="1.0" stroke="rgb(0,0,0)" stroke-width="2.0"/>
<line x1="450.3" y1="204.0" x2="481.9" y2="222.2" opacity="1.0" stroke="rgb(0,0,0)" stroke-width="2.0"/>
<line x1="451.9" y1="213.2" x2="473.1" y2="225.5" opacity="1.0" stroke="rgb(0,0,0)" stroke-width="2.0"/>
<line x1="481.9" y1="222.2" x2="481.9" y2="258.7" opacity="1.0" stroke="rgb(0,0,0)" stroke-width="2.0"/>
<line x1="481.9" y1="258.7" x2="450.3" y2="276.9" opacity="1.0" stroke="rgb(0,0,0)" stroke-width="2.0"/>
<line x1="473.1" y1="255.4" x2="451.9" y2="267.7" opacity="1.0" stroke="rgb(0,0,0)" stroke-width="2.0"/>
<line x1="324.1" y1="94.7" x2="324.1" y2="58.2" opacity="1.0" stroke="rgb(0,0,0)" stroke-width="2.0"/>
<line x1="324.1" y1="58.2" x2="355.6" y2="40.0" opacity="1.0" stroke="rgb(0,0,0)" stroke-width="2.0"/>
<line x1="332.9" y1="61.5" x2="354.0" y2="49.2" opacity="1.0" stroke="rgb(0,0,0)" stroke-width="2.0"/>
<line x1="355.6" y1="40.0" x2="387.2" y2="58.2" opacity="1.0" stroke="rgb(0,0,0)" stroke-width="2.0"/>
<line x1="387.2" y1="58.2" x2="387.2" y2="94.7" opacity="1.0" stroke="rgb(0,0,0)" stroke-width="2.0"/>
<line x1="380.0" y1="64.2" x2="380.0" y2="88.7" opacity="1.0" stroke="rgb(0,0,0)" stroke-width="2.0"/>
<line x1="387.2" y1="94.7" x2="355.6" y2="112.9" opacity="1.0" stroke="rgb(0,0,0)" stroke-width="2.0"/>
<line x1="355.6" y1="112.9" x2="324.1" y2="94.7" opacity="1.0" stroke="rgb(0,0,0)" stroke-width="2.0"/>
<line x1="354.0" y1="103.7" x2="332.9" y2="91.4" opacity="1.0" stroke="rgb(0,0,0)" stroke-width="2.0"/>
<line x1="260.9" y1="167.6" x2="229.4" y2="149.3" opacity="1.0" stroke="rgb(0,0,0)" stroke-width="2.0"/>
<line x1="252.1" y1="170.8" x2="231.0" y2="158.6" opacity="1.0" stroke="rgb(0,0,0)" stroke-width="2.0"/>
<line x1="229.4" y1="149.3" x2="197.8" y2="167.6" opacity="1.0" stroke="rgb(0,0,0)" stroke-width="2.0"/>
<line x1="197.8" y1="167.6" x2="197.8" y2="204.0" opacity="1.0" stroke="rgb(0,0,0)" stroke-width="2.0"/>
<line x1="205.0" y1="173.6" x2="205.0" y2="198.0" opacity="1.0" stroke="rgb(0,0,0)" stroke-width="2.0"/>
<line x1="197.8" y1="204.0" x2="229.4" y2="222.2" opacity="1.0" stroke="rgb(0,0,0)" stroke-width="2.0"/>
<line x1="229.4" y1="222.2" x2="260.9" y2="204.0" opacity="1.0" stroke="rgb(0,0,0)" stroke-width="2.0"/>
<line x1="231.0" y1="213.0" x2="252.1" y2="200.8" opacity="1.0" stroke="rgb(0,0,0)" stroke-width="2.0"/>
<line x1="260.9" y1="204.0" x2="260.9" y2="167.6" opacity="1.0" stroke="rgb(0,0,0)" stroke-width="2.0"/>
<line x1="229.4" y1="258.7" x2="229.4" y2="222.2" opacity="1.0" stroke="rgb(0,0,0)" stroke-width="2.0"/>
<line x1="260.9" y1="204.0" x2="292.5" y2="222.2" opacity="1.0" stroke="rgb(0,0,0)" stroke-width="2.0"/>
<line x1="292.5" y1="222.2" x2="292.5" y2="258.7" opacity="1.0" stroke="rgb(0,0,0)" stroke-width="2.0"/>
<line x1="285.3" y1="228.2" x2="285.3" y2="252.7" opacity="1.0" stroke="rgb(0,0,0)" stroke-width="2.0"/>
<line x1="292.5" y1="258.7" x2="260.9" y2="276.9" opacity="1.0" stroke="rgb(0,0,0)" stroke-width="2.0"/>
<line x1="260.9" y1="276.9" x2="229.4" y2="258.7" opacity="1.0" stroke="rgb(0,0,0)" stroke-width="2.0"/>
<line x1="259.3" y1="267.7" x2="238.2" y2="255.4" opacity="1.0" stroke="rgb(0,0,0)" stroke-width="2.0"/>
<line x1="324.1" y1="313.3" x2="292.5" y2="331.6" opacity="1.0" stroke="rgb(0,0,0)" stroke-width="2.0"/>
<line x1="292.5" y1="331.6" x2="260.9" y2="313.3" opacity="1.0" stroke="rgb(0,0,0)" stroke-width="2.0"/>
<line x1="290.9" y1="322.3" x2="269.7" y2="310.1" opacity="1.0" stroke="rgb(0,0,0)" stroke-width="2.0"/>
<line x1="260.9" y1="313.3" x2="260.9" y2="276.9" opacity="1.0" stroke="rgb(0,0,0)" stroke-width="2.0"/>
<line x1="292.5" y1="258.7" x2="324.1" y2="276.9" opacity="1.0" stroke="rgb(0,0,0)" stroke-width="2.0"/>
<line x1="324.1" y1="276.9" x2="324.1" y2="313.3" opacity="1.0" stroke="rgb(0,0,0)" stroke-width="2.0"/>
<line x1="316.9" y1="282.9" x2="316.9" y2="307.3" opacity="1.0" stroke="rgb(0,0,0)" stroke-width="2.0"/>
<line x1="155.0" y1="338.1" x2="134.7" y2="349.8" opacity="1.0" stroke="rgb(0,0,0)" stroke-width="2.0"/>
<line x1="134.7" y1="349.8" x2="103.1" y2="331.6" opacity="1.0" stroke="rgb(0,0,0)" stroke-width="2.0"/>
<line x1="133.1" y1="340.5" x2="111.9" y2="328.3" opacity="1.0" stroke="rgb(0,0,0)" stroke-width="2.0"/>
<line x1="103.1" y1="331.6" x2="103.1" y2="295.1" opacity="1.0" stroke="rgb(0,0,0)" stroke-width="2.0"/>
<line x1="103.1" y1="295.1" x2="134.7" y2="276.9" opacity="1.0" stroke="rgb(0,0,0)" stroke-width="2.0"/>
<line x1="111.9" y1="298.3" x2="133.1" y2="286.1" opacity="1.0" stroke="rgb(0,0,0)" stroke-width="2.0"/>
<line x1="134.7" y1="276.9" x2="166.2" y2="295.1" opacity="1.0" stroke="rgb(0,0,0)" stroke-width="2.0"/>
<line x1="166.2" y1="295.1" x2="166.2" y2="319.5" opacity="1.0" stroke="rgb(0,0,0)" stroke-width="2.0"/>
<line x1="159.0" y1="301.1" x2="159.0" y2="317.2" opacity="1.0" stroke="rgb(0,0,0)" stroke-width="2.0"/>
<text x="160.247259" y="339.555556" fill="rgb(12,12,255)" stroke-width="0" font-weight="bold" font-size="16">N</text>
<text x="65.561815" y="357.777778" fill="rgb(12,12,255)" stroke-width="0" font-weight="bold" font-size="16">N</text>
<text x="34.000000" y="339.555556" fill="rgb(255,12,12)" stroke-width="0" font-weight="bold" font-size="16">O</text>
<text x="76.361815" y="382.190222" fill="rgb(255,12,12)" stroke-width="0" font-weight="bold" font-size="16"/>
<text x="76.361815" y="382.190222" fill="rgb(255,12,12)" stroke-width="0" font-weight="bold" font-size="32">.</text>
<text x="65.561815" y="394.222222" fill="rgb(255,12,12)" stroke-width="0" font-weight="bold" font-size="16">O</text>
<text x="349.618147" y="193.777778" fill="rgb(12,12,255)" stroke-width="0" font-weight="bold" font-size="16">N</text>
</svg>
</g>
</svg>