<svg xmlns="http://www.w3.org/2000/svg" xmlns:xlink="http://www.w3.org/1999/xlink" xmlns:cml="http://www.xml-cml.org/schema" version="1.1" id="topsvg" x="0" y="0" viewBox="0 0 100 100">
<title>A_3_O - Open Babel Depiction</title>
<rect x="0" y="0" width="100" height="100" fill="white"/>
<g transform="translate(0,0)">
<svg width="100" height="100" x="0" y="0" viewBox="0 0 456.102 387.619" font-family="sans-serif" stroke="rgb(0,0,0)" stroke-width="2" stroke-linecap="round">
<line x1="353.4" y1="221.0" x2="302.0" y2="191.3" opacity="1.0" stroke="rgb(0,0,0)" stroke-width="2.0"/>
<line x1="290.7" y1="171.8" x2="290.7" y2="112.4" opacity="1.0" stroke="rgb(0,0,0)" stroke-width="2.0"/>
<line x1="279.5" y1="191.3" x2="228.1" y2="221.0" opacity="1.0" stroke="rgb(0,0,0)" stroke-width="2.0"/>
<line x1="165.4" y1="257.1" x2="102.7" y2="293.3" opacity="1.0" stroke="rgb(0,0,0)" stroke-width="2.0"/>
<line x1="384.8" y1="275.2" x2="353.4" y2="257.1" opacity="1.0" stroke="rgb(0,0,0)" stroke-width="2.0"/>
<line x1="353.4" y1="257.1" x2="353.4" y2="221.0" opacity="1.0" stroke="rgb(0,0,0)" stroke-width="2.0"/>
<line x1="360.6" y1="251.1" x2="360.6" y2="227.0" opacity="1.0" stroke="rgb(0,0,0)" stroke-width="2.0"/>
<line x1="353.4" y1="221.0" x2="384.8" y2="202.9" opacity="1.0" stroke="rgb(0,0,0)" stroke-width="2.0"/>
<line x1="384.8" y1="202.9" x2="416.1" y2="221.0" opacity="1.0" stroke="rgb(0,0,0)" stroke-width="2.0"/>
<line x1="386.4" y1="212.1" x2="407.3" y2="224.2" opacity="1.0" stroke="rgb(0,0,0)" stroke-width="2.0"/>
<line x1="416.1" y1="221.0" x2="416.1" y2="257.1" opacity="1.0" stroke="rgb(0,0,0)" stroke-width="2.0"/>
<line x1="416.1" y1="257.1" x2="384.8" y2="275.2" opacity="1.0" stroke="rgb(0,0,0)" stroke-width="2.0"/>
<line x1="407.3" y1="253.9" x2="386.4" y2="266.0" opacity="1.0" stroke="rgb(0,0,0)" stroke-width="2.0"/>
<line x1="259.4" y1="94.3" x2="259.4" y2="58.1" opacity="1.0" stroke="rgb(0,0,0)" stroke-width="2.0"/>
<line x1="259.4" y1="58.1" x2="290.7" y2="40.0" opacity="1.0" stroke="rgb(0,0,0)" stroke-width="2.0"/>
<line x1="268.2" y1="61.3" x2="289.1" y2="49.2" opacity="1.0" stroke="rgb(0,0,0)" stroke-width="2.0"/>
<line x1="290.7" y1="40.0" x2="322.1" y2="58.1" opacity="1.0" stroke="rgb(0,0,0)" stroke-width="2.0"/>
<line x1="322.1" y1="58.1" x2="322.1" y2="94.3" opacity="1.0" stroke="rgb(0,0,0)" stroke-width="2.0"/>
<line x1="314.9" y1="64.1" x2="314.9" y2="88.3" opacity="1.0" stroke="rgb(0,0,0)" stroke-width="2.0"/>
<line x1="322.1" y1="94.3" x2="290.7" y2="112.4" opacity="1.0" stroke="rgb(0,0,0)" stroke-width="2.0"/>
<line x1="290.7" y1="112.4" x2="259.4" y2="94.3" opacity="1.0" stroke="rgb(0,0,0)" stroke-width="2.0"/>
<line x1="289.1" y1="103.1" x2="268.2" y2="91.1" opacity="1.0" stroke="rgb(0,0,0)" stroke-width="2.0"/>
<line x1="196.7" y1="166.7" x2="165.4" y2="148.6" opacity="1.0" stroke="rgb(0,0,0)" stroke-width="2.0"/>
<line x1="187.9" y1="169.9" x2="167.0" y2="157.8" opacity="1.0" stroke="rgb(0,0,0)" stroke-width="2.0"/>
<line x1="165.4" y1="148.6" x2="134.0" y2="166.7" opacity="1.0" stroke="rgb(0,0,0)" stroke-width="2.0"/>
<line x1="134.0" y1="166.7" x2="134.0" y2="202.9" opacity="1.0" stroke="rgb(0,0,0)" stroke-width="2.0"/>
<line x1="141.2" y1="172.7" x2="141.2" y2="196.9" opacity="1.0" stroke="rgb(0,0,0)" stroke-width="2.0"/>
<line x1="134.0" y1="202.9" x2="165.4" y2="221.0" opacity="1.0" stroke="rgb(0,0,0)" stroke-width="2.0"/>
<line x1="165.4" y1="221.0" x2="196.7" y2="202.9" opacity="1.0" stroke="rgb(0,0,0)" stroke-width="2.0"/>
<line x1="167.0" y1="211.7" x2="187.9" y2="199.6" opacity="1.0" stroke="rgb(0,0,0)" stroke-width="2.0"/>
<line x1="196.7" y1="202.9" x2="196.7" y2="166.7" opacity="1.0" stroke="rgb(0,0,0)" stroke-width="2.0"/>
<line x1="165.4" y1="257.1" x2="165.4" y2="221.0" opacity="1.0" stroke="rgb(0,0,0)" stroke-width="2.0"/>
<line x1="196.7" y1="202.9" x2="228.1" y2="221.0" opacity="1.0" stroke="rgb(0,0,0)" stroke-width="2.0"/>
<line x1="228.1" y1="221.0" x2="228.1" y2="257.1" opacity="1.0" stroke="rgb(0,0,0)" stroke-width="2.0"/>
<line x1="220.9" y1="227.0" x2="220.9" y2="251.1" opacity="1.0" stroke="rgb(0,0,0)" stroke-width="2.0"/>
<line x1="228.1" y1="257.1" x2="196.7" y2="275.2" opacity="1.0" stroke="rgb(0,0,0)" stroke-width="2.0"/>
<line x1="196.7" y1="275.2" x2="165.4" y2="257.1" opacity="1.0" stroke="rgb(0,0,0)" stroke-width="2.0"/>
<line x1="195.1" y1="266.0" x2="174.2" y2="253.9" opacity="1.0" stroke="rgb(0,0,0)" stroke-width="2.0"/>
<line x1="259.4" y1="311.4" x2="228.1" y2="329.5" opacity="1.0" stroke="rgb(0,0,0)" stroke-width="2.0"/>
<line x1="228.1" y1="329.5" x2="196.7" y2="311.4" opacity="1.0" stroke="rgb(0,0,0)" stroke-width="2.0"/>
<line x1="226.5" y1="320.3" x2="205.5" y2="308.2" opacity="1.0" stroke="rgb(0,0,0)" stroke-width="2.0"/>
<line x1="196.7" y1="311.4" x2="196.7" y2="275.2" opacity="1.0" stroke="rgb(0,0,0)" stroke-width="2.0"/>
<line x1="228.1" y1="257.1" x2="259.4" y2="275.2" opacity="1.0" stroke="rgb(0,0,0)" stroke-width="2.0"/>
<line x1="259.4" y1="275.2" x2="259.4" y2="311.4" opacity="1.0" stroke="rgb(0,0,0)" stroke-width="2.0"/>
<line x1="252.2" y1="281.2" x2="252.2" y2="305.4" opacity="1.0" stroke="rgb(0,0,0)" stroke-width="2.0"/>
<line x1="91.4" y1="336.0" x2="71.3" y2="347.6" opacity="1.0" stroke="rgb(0,0,0)" stroke-width="2.0"/>
<line x1="71.3" y1="347.6" x2="40.0" y2="329.5" opacity="1.0" stroke="rgb(0,0,0)" stroke-width="2.0"/>
<line x1="69.7" y1="338.4" x2="48.8" y2="326.3" opacity="1.0" stroke="rgb(0,0,0)" stroke-width="2.0"/>
<line x1="40.0" y1="329.5" x2="40.0" y2="293.3" opacity="1.0" stroke="rgb(0,0,0)" stroke-width="2.0"/>
<line x1="40.0" y1="293.3" x2="71.3" y2="275.2" opacity="1.0" stroke="rgb(0,0,0)" stroke-width="2.0"/>
<line x1="48.8" y1="296.6" x2="69.7" y2="284.5" opacity="1.0" stroke="rgb(0,0,0)" stroke-width="2.0"/>
<line x1="71.3" y1="275.2" x2="102.7" y2="293.3" opacity="1.0" stroke="rgb(0,0,0)" stroke-width="2.0"/>
<line x1="102.7" y1="293.3" x2="102.7" y2="317.6" opacity="1.0" stroke="rgb(0,0,0)" stroke-width="2.0"/>
<line x1="95.5" y1="299.3" x2="95.5" y2="315.2" opacity="1.0" stroke="rgb(0,0,0)" stroke-width="2.0"/>
<text x="96.683744" y="337.523810" fill="rgb(12,12,255)" stroke-width="0" font-weight="bold" font-size="16">N</text>
<text x="284.734974" y="192.761905" fill="rgb(12,12,255)" stroke-width="0" font-weight="bold" font-size="16">N</text>
</svg>
</g>
</svg>