<svg xmlns="http://www.w3.org/2000/svg" x="0" y="0" viewBox="0 0 100 100">
<title>A_4_T - Open Babel Depiction</title>
<rect x="0" y="0" width="100" height="100" fill="white"/>
<g transform="translate(0,0)">
<svg width="100" height="100" x="0" y="0" viewBox="0 0 437.957 361.818" font-family="sans-serif" stroke="rgb(0,0,0)" stroke-width="2" stroke-linecap="round">
<line x1="105.1" y1="133.9" x2="158.9" y2="165.0" opacity="1.0" stroke="rgb(0,0,0)" stroke-width="2.0"/>
<line x1="170.2" y1="184.5" x2="170.2" y2="246.7" opacity="1.0" stroke="rgb(0,0,0)" stroke-width="2.0"/>
<line x1="224.0" y1="52.3" x2="214.0" y2="46.5" opacity="1.0" stroke="rgb(0,0,0)" stroke-width="2.0"/>
<line x1="235.2" y1="96.4" x2="235.2" y2="71.8" opacity="1.0" stroke="rgb(0,0,0)" stroke-width="2.0"/>
<line x1="181.4" y1="165.0" x2="202.7" y2="152.7" opacity="1.0" stroke="rgb(0,0,0)" stroke-width="2.0"/>
<line x1="365.4" y1="209.1" x2="386.7" y2="221.4" opacity="1.0" stroke="rgb(0,0,0)" stroke-width="2.0"/>
<line x1="267.8" y1="152.7" x2="300.3" y2="171.5" opacity="1.0" stroke="rgb(0,0,0)" stroke-width="2.0"/>
<line x1="72.5" y1="77.6" x2="105.1" y2="96.4" opacity="1.0" stroke="rgb(0,0,0)" stroke-width="2.0"/>
<line x1="105.1" y1="96.4" x2="105.1" y2="133.9" opacity="1.0" stroke="rgb(0,0,0)" stroke-width="2.0"/>
<line x1="97.9" y1="102.4" x2="97.9" y2="127.9" opacity="1.0" stroke="rgb(0,0,0)" stroke-width="2.0"/>
<line x1="105.1" y1="133.9" x2="72.5" y2="152.7" opacity="1.0" stroke="rgb(0,0,0)" stroke-width="2.0"/>
<line x1="72.5" y1="152.7" x2="40.0" y2="133.9" opacity="1.0" stroke="rgb(0,0,0)" stroke-width="2.0"/>
<line x1="70.9" y1="143.5" x2="48.8" y2="130.7" opacity="1.0" stroke="rgb(0,0,0)" stroke-width="2.0"/>
<line x1="40.0" y1="133.9" x2="40.0" y2="96.4" opacity="1.0" stroke="rgb(0,0,0)" stroke-width="2.0"/>
<line x1="40.0" y1="96.4" x2="72.5" y2="77.6" opacity="1.0" stroke="rgb(0,0,0)" stroke-width="2.0"/>
<line x1="48.8" y1="99.6" x2="70.9" y2="86.8" opacity="1.0" stroke="rgb(0,0,0)" stroke-width="2.0"/>
<line x1="202.7" y1="265.5" x2="202.7" y2="303.0" opacity="1.0" stroke="rgb(0,0,0)" stroke-width="2.0"/>
<line x1="202.7" y1="303.0" x2="170.2" y2="321.8" opacity="1.0" stroke="rgb(0,0,0)" stroke-width="2.0"/>
<line x1="193.9" y1="299.8" x2="171.8" y2="312.6" opacity="1.0" stroke="rgb(0,0,0)" stroke-width="2.0"/>
<line x1="170.2" y1="321.8" x2="137.6" y2="303.0" opacity="1.0" stroke="rgb(0,0,0)" stroke-width="2.0"/>
<line x1="137.6" y1="303.0" x2="137.6" y2="265.5" opacity="1.0" stroke="rgb(0,0,0)" stroke-width="2.0"/>
<line x1="144.8" y1="297.0" x2="144.8" y2="271.5" opacity="1.0" stroke="rgb(0,0,0)" stroke-width="2.0"/>
<line x1="137.6" y1="265.5" x2="170.2" y2="246.7" opacity="1.0" stroke="rgb(0,0,0)" stroke-width="2.0"/>
<line x1="170.2" y1="246.7" x2="202.7" y2="265.5" opacity="1.0" stroke="rgb(0,0,0)" stroke-width="2.0"/>
<line x1="171.8" y1="255.9" x2="193.9" y2="268.7" opacity="1.0" stroke="rgb(0,0,0)" stroke-width="2.0"/>
<line x1="202.7" y1="115.2" x2="235.2" y2="96.4" opacity="1.0" stroke="rgb(0,0,0)" stroke-width="2.0"/>
<line x1="235.2" y1="96.4" x2="267.8" y2="115.2" opacity="1.0" stroke="rgb(0,0,0)" stroke-width="2.0"/>
<line x1="236.8" y1="105.6" x2="259.0" y2="118.4" opacity="1.0" stroke="rgb(0,0,0)" stroke-width="2.0"/>
<line x1="267.8" y1="115.2" x2="267.8" y2="152.7" opacity="1.0" stroke="rgb(0,0,0)" stroke-width="2.0"/>
<line x1="267.8" y1="152.7" x2="235.2" y2="171.5" opacity="1.0" stroke="rgb(0,0,0)" stroke-width="2.0"/>
<line x1="259.0" y1="149.5" x2="236.8" y2="162.3" opacity="1.0" stroke="rgb(0,0,0)" stroke-width="2.0"/>
<line x1="235.2" y1="171.5" x2="202.7" y2="152.7" opacity="1.0" stroke="rgb(0,0,0)" stroke-width="2.0"/>
<line x1="202.7" y1="152.7" x2="202.7" y2="115.2" opacity="1.0" stroke="rgb(0,0,0)" stroke-width="2.0"/>
<line x1="209.9" y1="146.7" x2="209.9" y2="121.2" opacity="1.0" stroke="rgb(0,0,0)" stroke-width="2.0"/>
<line x1="332.9" y1="152.7" x2="365.4" y2="171.5" opacity="1.0" stroke="rgb(0,0,0)" stroke-width="2.0"/>
<line x1="365.4" y1="171.5" x2="365.4" y2="209.1" opacity="1.0" stroke="rgb(0,0,0)" stroke-width="2.0"/>
<line x1="358.2" y1="177.5" x2="358.2" y2="203.1" opacity="1.0" stroke="rgb(0,0,0)" stroke-width="2.0"/>
<line x1="365.4" y1="209.1" x2="332.9" y2="227.9" opacity="1.0" stroke="rgb(0,0,0)" stroke-width="2.0"/>
<line x1="332.9" y1="227.9" x2="300.3" y2="209.1" opacity="1.0" stroke="rgb(0,0,0)" stroke-width="2.0"/>
<line x1="331.3" y1="218.6" x2="309.1" y2="205.9" opacity="1.0" stroke="rgb(0,0,0)" stroke-width="2.0"/>
<line x1="300.3" y1="209.1" x2="300.3" y2="171.5" opacity="1.0" stroke="rgb(0,0,0)" stroke-width="2.0"/>
<line x1="300.3" y1="171.5" x2="332.9" y2="152.7" opacity="1.0" stroke="rgb(0,0,0)" stroke-width="2.0"/>
<line x1="309.1" y1="174.8" x2="331.3" y2="162.0" opacity="1.0" stroke="rgb(0,0,0)" stroke-width="2.0"/>
<text x="393.957167" y="235.878788" fill="rgb(102,102,102)" stroke-width="0" font-weight="bold" font-size="16">CH</text>
<text x="417.957167" y="239.558788" fill="rgb(102,102,102)" stroke-width="0" font-weight="bold" font-size="13">3</text>
<text x="176.707803" y="48.000000" fill="rgb(102,102,102)" stroke-width="0" font-weight="bold" font-size="16">H</text>
<text x="188.707803" y="51.680000" fill="rgb(102,102,102)" stroke-width="0" font-weight="bold" font-size="13">3</text>
<text x="195.207803" y="48.000000" fill="rgb(102,102,102)" stroke-width="0" font-weight="bold" font-size="16">C</text>
<text x="229.249364" y="66.787879" fill="rgb(255,12,12)" stroke-width="0" font-weight="bold" font-size="16">O</text>
<text x="164.166243" y="179.515152" fill="rgb(12,12,255)" stroke-width="0" font-weight="bold" font-size="16">N</text>
</svg>
</g>
</svg>
