<svg xmlns="http://www.w3.org/2000/svg" x="0" y="0" viewBox="0 0 100 100">
<title>A_4_O - Open Babel Depiction</title>
<rect x="0" y="0" width="100" height="100" fill="white"/>
<g transform="translate(0,0)">
<svg width="100" height="100" x="0" y="0" viewBox="0 0 404.76 361.25" font-family="sans-serif" stroke="rgb(0,0,0)" stroke-width="2" stroke-linecap="round">
<line x1="299.8" y1="227.5" x2="246.1" y2="196.5" opacity="1.0" stroke="rgb(0,0,0)" stroke-width="2.0"/>
<line x1="234.9" y1="177.0" x2="234.9" y2="115.0" opacity="1.0" stroke="rgb(0,0,0)" stroke-width="2.0"/>
<line x1="158.6" y1="309.0" x2="148.7" y2="314.7" opacity="1.0" stroke="rgb(0,0,0)" stroke-width="2.0"/>
<line x1="169.9" y1="265.0" x2="169.9" y2="289.5" opacity="1.0" stroke="rgb(0,0,0)" stroke-width="2.0"/>
<line x1="223.6" y1="196.5" x2="202.4" y2="208.7" opacity="1.0" stroke="rgb(0,0,0)" stroke-width="2.0"/>
<line x1="137.4" y1="208.7" x2="105.0" y2="190.0" opacity="1.0" stroke="rgb(0,0,0)" stroke-width="2.0"/>
<line x1="332.3" y1="283.7" x2="299.8" y2="265.0" opacity="1.0" stroke="rgb(0,0,0)" stroke-width="2.0"/>
<line x1="299.8" y1="265.0" x2="299.8" y2="227.5" opacity="1.0" stroke="rgb(0,0,0)" stroke-width="2.0"/>
<line x1="307.0" y1="259.0" x2="307.0" y2="233.5" opacity="1.0" stroke="rgb(0,0,0)" stroke-width="2.0"/>
<line x1="299.8" y1="227.5" x2="332.3" y2="208.7" opacity="1.0" stroke="rgb(0,0,0)" stroke-width="2.0"/>
<line x1="332.3" y1="208.7" x2="364.8" y2="227.5" opacity="1.0" stroke="rgb(0,0,0)" stroke-width="2.0"/>
<line x1="333.9" y1="218.0" x2="356.0" y2="230.7" opacity="1.0" stroke="rgb(0,0,0)" stroke-width="2.0"/>
<line x1="364.8" y1="227.5" x2="364.8" y2="265.0" opacity="1.0" stroke="rgb(0,0,0)" stroke-width="2.0"/>
<line x1="364.8" y1="265.0" x2="332.3" y2="283.7" opacity="1.0" stroke="rgb(0,0,0)" stroke-width="2.0"/>
<line x1="356.0" y1="261.8" x2="333.9" y2="274.5" opacity="1.0" stroke="rgb(0,0,0)" stroke-width="2.0"/>
<line x1="202.4" y1="96.2" x2="202.4" y2="58.8" opacity="1.0" stroke="rgb(0,0,0)" stroke-width="2.0"/>
<line x1="202.4" y1="58.8" x2="234.9" y2="40.0" opacity="1.0" stroke="rgb(0,0,0)" stroke-width="2.0"/>
<line x1="211.2" y1="62.0" x2="233.3" y2="49.2" opacity="1.0" stroke="rgb(0,0,0)" stroke-width="2.0"/>
<line x1="234.9" y1="40.0" x2="267.3" y2="58.7" opacity="1.0" stroke="rgb(0,0,0)" stroke-width="2.0"/>
<line x1="267.3" y1="58.7" x2="267.3" y2="96.2" opacity="1.0" stroke="rgb(0,0,0)" stroke-width="2.0"/>
<line x1="260.1" y1="64.7" x2="260.1" y2="90.2" opacity="1.0" stroke="rgb(0,0,0)" stroke-width="2.0"/>
<line x1="267.3" y1="96.2" x2="234.9" y2="115.0" opacity="1.0" stroke="rgb(0,0,0)" stroke-width="2.0"/>
<line x1="234.9" y1="115.0" x2="202.4" y2="96.2" opacity="1.0" stroke="rgb(0,0,0)" stroke-width="2.0"/>
<line x1="233.3" y1="105.8" x2="211.2" y2="93.0" opacity="1.0" stroke="rgb(0,0,0)" stroke-width="2.0"/>
<line x1="202.4" y1="246.2" x2="169.9" y2="265.0" opacity="1.0" stroke="rgb(0,0,0)" stroke-width="2.0"/>
<line x1="169.9" y1="265.0" x2="137.4" y2="246.2" opacity="1.0" stroke="rgb(0,0,0)" stroke-width="2.0"/>
<line x1="168.3" y1="255.8" x2="146.2" y2="243.0" opacity="1.0" stroke="rgb(0,0,0)" stroke-width="2.0"/>
<line x1="137.4" y1="246.2" x2="137.4" y2="208.7" opacity="1.0" stroke="rgb(0,0,0)" stroke-width="2.0"/>
<line x1="137.4" y1="208.7" x2="169.9" y2="190.0" opacity="1.0" stroke="rgb(0,0,0)" stroke-width="2.0"/>
<line x1="146.2" y1="212.0" x2="168.3" y2="199.2" opacity="1.0" stroke="rgb(0,0,0)" stroke-width="2.0"/>
<line x1="169.9" y1="190.0" x2="202.4" y2="208.7" opacity="1.0" stroke="rgb(0,0,0)" stroke-width="2.0"/>
<line x1="202.4" y1="208.7" x2="202.4" y2="246.2" opacity="1.0" stroke="rgb(0,0,0)" stroke-width="2.0"/>
<line x1="195.2" y1="214.7" x2="195.2" y2="240.2" opacity="1.0" stroke="rgb(0,0,0)" stroke-width="2.0"/>
<line x1="61.2" y1="202.2" x2="40.0" y2="190.0" opacity="1.0" stroke="rgb(0,0,0)" stroke-width="2.0"/>
<line x1="40.0" y1="190.0" x2="40.0" y2="152.5" opacity="1.0" stroke="rgb(0,0,0)" stroke-width="2.0"/>
<line x1="47.2" y1="184.0" x2="47.2" y2="158.5" opacity="1.0" stroke="rgb(0,0,0)" stroke-width="2.0"/>
<line x1="40.0" y1="152.5" x2="72.5" y2="133.8" opacity="1.0" stroke="rgb(0,0,0)" stroke-width="2.0"/>
<line x1="72.5" y1="133.8" x2="105.0" y2="152.5" opacity="1.0" stroke="rgb(0,0,0)" stroke-width="2.0"/>
<line x1="74.1" y1="143.0" x2="96.2" y2="155.7" opacity="1.0" stroke="rgb(0,0,0)" stroke-width="2.0"/>
<line x1="105.0" y1="152.5" x2="105.0" y2="190.0" opacity="1.0" stroke="rgb(0,0,0)" stroke-width="2.0"/>
<line x1="105.0" y1="190.0" x2="83.2" y2="202.6" opacity="1.0" stroke="rgb(0,0,0)" stroke-width="2.0"/>
<line x1="96.2" y1="186.8" x2="81.5" y2="195.2" opacity="1.0" stroke="rgb(0,0,0)" stroke-width="2.0"/>
<text x="66.475953" y="216.750000" fill="rgb(12,12,255)" stroke-width="0" font-weight="bold" font-size="16">N</text>
<text x="111.427858" y="329.250000" fill="rgb(102,102,102)" stroke-width="0" font-weight="bold" font-size="16">H</text>
<text x="123.427858" y="332.930000" fill="rgb(102,102,102)" stroke-width="0" font-weight="bold" font-size="13">3</text>
<text x="129.927858" y="329.250000" fill="rgb(102,102,102)" stroke-width="0" font-weight="bold" font-size="16">C</text>
<text x="163.903811" y="310.500000" fill="rgb(255,12,12)" stroke-width="0" font-weight="bold" font-size="16">O</text>
<text x="228.855716" y="198.000000" fill="rgb(12,12,255)" stroke-width="0" font-weight="bold" font-size="16">N</text>
</svg>
</g>
</svg>
