<svg xmlns="http://www.w3.org/2000/svg" x="0" y="0" viewBox="0 0 100 100">
<title>A_5_L - Open Babel Depiction</title>
<rect x="0" y="0" width="100" height="100" fill="white"/>
<g transform="translate(0,0)">
<svg width="100" height="100" x="0" y="0" viewBox="0 0 502.576 326.667" font-family="sans-serif" stroke="rgb(0,0,0)" stroke-width="2" stroke-linecap="round">
<line x1="331.1" y1="210.8" x2="331.1" y2="147.9" opacity="1.0" stroke="rgb(0,0,0)" stroke-width="2.0"/>
<line x1="342.4" y1="128.4" x2="396.8" y2="96.9" opacity="1.0" stroke="rgb(0,0,0)" stroke-width="2.0"/>
<line x1="319.9" y1="128.4" x2="298.3" y2="115.9" opacity="1.0" stroke="rgb(0,0,0)" stroke-width="2.0"/>
<line x1="166.8" y1="115.9" x2="133.9" y2="134.9" opacity="1.0" stroke="rgb(0,0,0)" stroke-width="2.0"/>
<line x1="55.4" y1="232.9" x2="93.2" y2="228.9" opacity="1.0" stroke="rgb(0,0,0)" stroke-width="2.0"/>
<line x1="60.6" y1="225.1" x2="86.5" y2="222.4" opacity="1.0" stroke="rgb(0,0,0)" stroke-width="2.0"/>
<line x1="93.2" y1="228.9" x2="101.1" y2="191.8" opacity="1.0" stroke="rgb(0,0,0)" stroke-width="2.0"/>
<line x1="101.1" y1="191.8" x2="68.2" y2="172.8" opacity="1.0" stroke="rgb(0,0,0)" stroke-width="2.0"/>
<line x1="68.2" y1="172.8" x2="49.7" y2="189.5" opacity="1.0" stroke="rgb(0,0,0)" stroke-width="2.0"/>
<line x1="45.3" y1="210.1" x2="55.4" y2="232.9" opacity="1.0" stroke="rgb(0,0,0)" stroke-width="2.0"/>
<line x1="298.3" y1="267.7" x2="298.3" y2="229.7" opacity="1.0" stroke="rgb(0,0,0)" stroke-width="2.0"/>
<line x1="298.3" y1="229.7" x2="331.1" y2="210.8" opacity="1.0" stroke="rgb(0,0,0)" stroke-width="2.0"/>
<line x1="307.0" y1="233.0" x2="329.5" y2="220.0" opacity="1.0" stroke="rgb(0,0,0)" stroke-width="2.0"/>
<line x1="331.1" y1="210.8" x2="364.0" y2="229.7" opacity="1.0" stroke="rgb(0,0,0)" stroke-width="2.0"/>
<line x1="364.0" y1="229.7" x2="364.0" y2="267.7" opacity="1.0" stroke="rgb(0,0,0)" stroke-width="2.0"/>
<line x1="356.8" y1="235.7" x2="356.8" y2="261.7" opacity="1.0" stroke="rgb(0,0,0)" stroke-width="2.0"/>
<line x1="364.0" y1="267.7" x2="331.1" y2="286.7" opacity="1.0" stroke="rgb(0,0,0)" stroke-width="2.0"/>
<line x1="331.1" y1="286.7" x2="298.3" y2="267.7" opacity="1.0" stroke="rgb(0,0,0)" stroke-width="2.0"/>
<line x1="329.5" y1="277.4" x2="307.0" y2="264.5" opacity="1.0" stroke="rgb(0,0,0)" stroke-width="2.0"/>
<line x1="396.8" y1="59.0" x2="429.7" y2="40.0" opacity="1.0" stroke="rgb(0,0,0)" stroke-width="2.0"/>
<line x1="429.7" y1="40.0" x2="462.6" y2="59.0" opacity="1.0" stroke="rgb(0,0,0)" stroke-width="2.0"/>
<line x1="431.3" y1="49.2" x2="453.8" y2="62.2" opacity="1.0" stroke="rgb(0,0,0)" stroke-width="2.0"/>
<line x1="462.6" y1="59.0" x2="462.6" y2="96.9" opacity="1.0" stroke="rgb(0,0,0)" stroke-width="2.0"/>
<line x1="462.6" y1="96.9" x2="429.7" y2="115.9" opacity="1.0" stroke="rgb(0,0,0)" stroke-width="2.0"/>
<line x1="453.8" y1="93.7" x2="431.3" y2="106.7" opacity="1.0" stroke="rgb(0,0,0)" stroke-width="2.0"/>
<line x1="429.7" y1="115.9" x2="396.8" y2="96.9" opacity="1.0" stroke="rgb(0,0,0)" stroke-width="2.0"/>
<line x1="396.8" y1="96.9" x2="396.8" y2="59.0" opacity="1.0" stroke="rgb(0,0,0)" stroke-width="2.0"/>
<line x1="404.0" y1="90.9" x2="404.0" y2="65.0" opacity="1.0" stroke="rgb(0,0,0)" stroke-width="2.0"/>
<line x1="298.3" y1="77.9" x2="265.4" y2="59.0" opacity="1.0" stroke="rgb(0,0,0)" stroke-width="2.0"/>
<line x1="265.4" y1="59.0" x2="232.5" y2="77.9" opacity="1.0" stroke="rgb(0,0,0)" stroke-width="2.0"/>
<line x1="263.8" y1="68.2" x2="241.3" y2="81.2" opacity="1.0" stroke="rgb(0,0,0)" stroke-width="2.0"/>
<line x1="232.5" y1="77.9" x2="232.5" y2="115.9" opacity="1.0" stroke="rgb(0,0,0)" stroke-width="2.0"/>
<line x1="232.5" y1="115.9" x2="265.4" y2="134.9" opacity="1.0" stroke="rgb(0,0,0)" stroke-width="2.0"/>
<line x1="241.3" y1="112.7" x2="263.8" y2="125.6" opacity="1.0" stroke="rgb(0,0,0)" stroke-width="2.0"/>
<line x1="265.4" y1="134.9" x2="298.3" y2="115.9" opacity="1.0" stroke="rgb(0,0,0)" stroke-width="2.0"/>
<line x1="298.3" y1="115.9" x2="298.3" y2="77.9" opacity="1.0" stroke="rgb(0,0,0)" stroke-width="2.0"/>
<line x1="291.1" y1="109.9" x2="291.1" y2="83.9" opacity="1.0" stroke="rgb(0,0,0)" stroke-width="2.0"/>
<line x1="166.8" y1="115.9" x2="199.7" y2="134.9" opacity="1.0" stroke="rgb(0,0,0)" stroke-width="2.0"/>
<line x1="175.6" y1="112.7" x2="198.1" y2="125.6" opacity="1.0" stroke="rgb(0,0,0)" stroke-width="2.0"/>
<line x1="199.7" y1="134.9" x2="232.5" y2="115.9" opacity="1.0" stroke="rgb(0,0,0)" stroke-width="2.0"/>
<line x1="232.5" y1="77.9" x2="199.7" y2="59.0" opacity="1.0" stroke="rgb(0,0,0)" stroke-width="2.0"/>
<line x1="199.7" y1="59.0" x2="166.8" y2="77.9" opacity="1.0" stroke="rgb(0,0,0)" stroke-width="2.0"/>
<line x1="198.1" y1="68.2" x2="175.6" y2="81.2" opacity="1.0" stroke="rgb(0,0,0)" stroke-width="2.0"/>
<line x1="166.8" y1="77.9" x2="166.8" y2="115.9" opacity="1.0" stroke="rgb(0,0,0)" stroke-width="2.0"/>
<line x1="101.1" y1="115.9" x2="68.2" y2="134.9" opacity="1.0" stroke="rgb(0,0,0)" stroke-width="2.0"/>
<line x1="68.2" y1="134.9" x2="68.2" y2="172.8" opacity="1.0" stroke="rgb(0,0,0)" stroke-width="2.0"/>
<line x1="75.4" y1="140.9" x2="75.4" y2="166.8" opacity="1.0" stroke="rgb(0,0,0)" stroke-width="2.0"/>
<line x1="101.1" y1="191.8" x2="133.9" y2="172.8" opacity="1.0" stroke="rgb(0,0,0)" stroke-width="2.0"/>
<line x1="102.7" y1="182.6" x2="125.1" y2="169.6" opacity="1.0" stroke="rgb(0,0,0)" stroke-width="2.0"/>
<line x1="133.9" y1="172.8" x2="133.9" y2="134.9" opacity="1.0" stroke="rgb(0,0,0)" stroke-width="2.0"/>
<line x1="133.9" y1="134.9" x2="101.1" y2="115.9" opacity="1.0" stroke="rgb(0,0,0)" stroke-width="2.0"/>
<line x1="125.1" y1="138.1" x2="102.7" y2="125.1" opacity="1.0" stroke="rgb(0,0,0)" stroke-width="2.0"/>
<text x="22.000000" y="206.213161" fill="rgb(12,12,255)" stroke-width="0" font-weight="bold" font-size="16">HN</text>
<text x="325.117824" y="142.871795" fill="rgb(12,12,255)" stroke-width="0" font-weight="bold" font-size="16">N</text>
</svg>
</g>
</svg>
