<svg xmlns="http://www.w3.org/2000/svg" xmlns:xlink="http://www.w3.org/1999/xlink" xmlns:cml="http://www.xml-cml.org/schema" version="1.1" id="topsvg" x="0" y="0" viewBox="0 0 100 100">
<title>A_5_N - Open Babel Depiction</title>
<rect x="0" y="0" width="100" height="100" fill="white"/>
<g transform="translate(0,0)">
<svg width="100" height="100" x="0" y="0" viewBox="0 0 465.616 324.706" font-family="sans-serif" stroke="rgb(0,0,0)" stroke-width="2" stroke-linecap="round">
<line x1="295.2" y1="209.4" x2="295.2" y2="147.1" opacity="1.0" stroke="rgb(0,0,0)" stroke-width="2.0"/>
<line x1="306.5" y1="127.6" x2="360.4" y2="96.5" opacity="1.0" stroke="rgb(0,0,0)" stroke-width="2.0"/>
<line x1="283.9" y1="127.6" x2="262.6" y2="115.3" opacity="1.0" stroke="rgb(0,0,0)" stroke-width="2.0"/>
<line x1="132.2" y1="115.3" x2="99.6" y2="134.1" opacity="1.0" stroke="rgb(0,0,0)" stroke-width="2.0"/>
<line x1="95.6" y1="171.6" x2="71.5" y2="176.7" opacity="1.0" stroke="rgb(0,0,0)" stroke-width="2.0"/>
<line x1="52.3" y1="168.1" x2="40.0" y2="146.8" opacity="1.0" stroke="rgb(0,0,0)" stroke-width="2.0"/>
<line x1="40.0" y1="146.8" x2="65.2" y2="118.8" opacity="1.0" stroke="rgb(0,0,0)" stroke-width="2.0"/>
<line x1="49.4" y1="147.1" x2="66.5" y2="128.1" opacity="1.0" stroke="rgb(0,0,0)" stroke-width="2.0"/>
<line x1="65.2" y1="118.8" x2="99.6" y2="134.1" opacity="1.0" stroke="rgb(0,0,0)" stroke-width="2.0"/>
<line x1="99.6" y1="134.1" x2="95.6" y2="171.6" opacity="1.0" stroke="rgb(0,0,0)" stroke-width="2.0"/>
<line x1="91.8" y1="139.3" x2="89.1" y2="164.8" opacity="1.0" stroke="rgb(0,0,0)" stroke-width="2.0"/>
<line x1="262.6" y1="265.9" x2="262.6" y2="228.2" opacity="1.0" stroke="rgb(0,0,0)" stroke-width="2.0"/>
<line x1="262.6" y1="228.2" x2="295.2" y2="209.4" opacity="1.0" stroke="rgb(0,0,0)" stroke-width="2.0"/>
<line x1="271.4" y1="231.5" x2="293.6" y2="218.6" opacity="1.0" stroke="rgb(0,0,0)" stroke-width="2.0"/>
<line x1="295.2" y1="209.4" x2="327.8" y2="228.2" opacity="1.0" stroke="rgb(0,0,0)" stroke-width="2.0"/>
<line x1="327.8" y1="228.2" x2="327.8" y2="265.9" opacity="1.0" stroke="rgb(0,0,0)" stroke-width="2.0"/>
<line x1="320.6" y1="234.2" x2="320.6" y2="259.9" opacity="1.0" stroke="rgb(0,0,0)" stroke-width="2.0"/>
<line x1="327.8" y1="265.9" x2="295.2" y2="284.7" opacity="1.0" stroke="rgb(0,0,0)" stroke-width="2.0"/>
<line x1="295.2" y1="284.7" x2="262.6" y2="265.9" opacity="1.0" stroke="rgb(0,0,0)" stroke-width="2.0"/>
<line x1="293.6" y1="275.5" x2="271.4" y2="262.6" opacity="1.0" stroke="rgb(0,0,0)" stroke-width="2.0"/>
<line x1="360.4" y1="58.8" x2="393.0" y2="40.0" opacity="1.0" stroke="rgb(0,0,0)" stroke-width="2.0"/>
<line x1="393.0" y1="40.0" x2="425.6" y2="58.8" opacity="1.0" stroke="rgb(0,0,0)" stroke-width="2.0"/>
<line x1="394.6" y1="49.2" x2="416.8" y2="62.1" opacity="1.0" stroke="rgb(0,0,0)" stroke-width="2.0"/>
<line x1="425.6" y1="58.8" x2="425.6" y2="96.5" opacity="1.0" stroke="rgb(0,0,0)" stroke-width="2.0"/>
<line x1="425.6" y1="96.5" x2="393.0" y2="115.3" opacity="1.0" stroke="rgb(0,0,0)" stroke-width="2.0"/>
<line x1="416.8" y1="93.2" x2="394.6" y2="106.1" opacity="1.0" stroke="rgb(0,0,0)" stroke-width="2.0"/>
<line x1="393.0" y1="115.3" x2="360.4" y2="96.5" opacity="1.0" stroke="rgb(0,0,0)" stroke-width="2.0"/>
<line x1="360.4" y1="96.5" x2="360.4" y2="58.8" opacity="1.0" stroke="rgb(0,0,0)" stroke-width="2.0"/>
<line x1="367.6" y1="90.5" x2="367.6" y2="64.8" opacity="1.0" stroke="rgb(0,0,0)" stroke-width="2.0"/>
<line x1="262.6" y1="77.6" x2="230.0" y2="58.8" opacity="1.0" stroke="rgb(0,0,0)" stroke-width="2.0"/>
<line x1="230.0" y1="58.8" x2="197.4" y2="77.6" opacity="1.0" stroke="rgb(0,0,0)" stroke-width="2.0"/>
<line x1="228.4" y1="68.1" x2="206.2" y2="80.9" opacity="1.0" stroke="rgb(0,0,0)" stroke-width="2.0"/>
<line x1="197.4" y1="77.6" x2="197.4" y2="115.3" opacity="1.0" stroke="rgb(0,0,0)" stroke-width="2.0"/>
<line x1="197.4" y1="115.3" x2="230.0" y2="134.1" opacity="1.0" stroke="rgb(0,0,0)" stroke-width="2.0"/>
<line x1="206.2" y1="112.1" x2="228.4" y2="124.9" opacity="1.0" stroke="rgb(0,0,0)" stroke-width="2.0"/>
<line x1="230.0" y1="134.1" x2="262.6" y2="115.3" opacity="1.0" stroke="rgb(0,0,0)" stroke-width="2.0"/>
<line x1="262.6" y1="115.3" x2="262.6" y2="77.6" opacity="1.0" stroke="rgb(0,0,0)" stroke-width="2.0"/>
<line x1="255.4" y1="109.3" x2="255.4" y2="83.6" opacity="1.0" stroke="rgb(0,0,0)" stroke-width="2.0"/>
<line x1="132.2" y1="115.3" x2="164.8" y2="134.1" opacity="1.0" stroke="rgb(0,0,0)" stroke-width="2.0"/>
<line x1="141.0" y1="112.1" x2="163.2" y2="124.9" opacity="1.0" stroke="rgb(0,0,0)" stroke-width="2.0"/>
<line x1="164.8" y1="134.1" x2="197.4" y2="115.3" opacity="1.0" stroke="rgb(0,0,0)" stroke-width="2.0"/>
<line x1="197.4" y1="77.6" x2="164.8" y2="58.8" opacity="1.0" stroke="rgb(0,0,0)" stroke-width="2.0"/>
<line x1="164.8" y1="58.8" x2="132.2" y2="77.6" opacity="1.0" stroke="rgb(0,0,0)" stroke-width="2.0"/>
<line x1="163.2" y1="68.1" x2="141.0" y2="80.9" opacity="1.0" stroke="rgb(0,0,0)" stroke-width="2.0"/>
<line x1="132.2" y1="77.6" x2="132.2" y2="115.3" opacity="1.0" stroke="rgb(0,0,0)" stroke-width="2.0"/>
<text x="52.823529" y="187.385735" fill="rgb(178,178,0)" stroke-width="0" font-weight="bold" font-size="16">S</text>
<text x="289.202955" y="142.117647" fill="rgb(12,12,255)" stroke-width="0" font-weight="bold" font-size="16">N</text>
</svg>
</g>
</svg>