<svg xmlns="http://www.w3.org/2000/svg" xmlns:xlink="http://www.w3.org/1999/xlink" xmlns:cml="http://www.xml-cml.org/schema" version="1.1" id="topsvg" x="0" y="0" viewBox="0 0 100 100">
<title>A_6_O - Open Babel Depiction</title>
<rect x="0" y="0" width="100" height="100" fill="white"/>
<g transform="translate(0,0)">
<svg width="100" height="100" x="0" y="0" viewBox="0 0 406.615 362.857" font-family="sans-serif" stroke="rgb(0,0,0)" stroke-width="2" stroke-linecap="round">
<line x1="301.3" y1="228.6" x2="247.2" y2="197.4" opacity="1.0" stroke="rgb(0,0,0)" stroke-width="2.0"/>
<line x1="236.0" y1="177.9" x2="236.0" y2="115.4" opacity="1.0" stroke="rgb(0,0,0)" stroke-width="2.0"/>
<line x1="224.7" y1="197.4" x2="203.3" y2="209.7" opacity="1.0" stroke="rgb(0,0,0)" stroke-width="2.0"/>
<line x1="138.0" y1="247.4" x2="105.3" y2="266.3" opacity="1.0" stroke="rgb(0,0,0)" stroke-width="2.0"/>
<line x1="334.0" y1="285.1" x2="301.3" y2="266.3" opacity="1.0" stroke="rgb(0,0,0)" stroke-width="2.0"/>
<line x1="301.3" y1="266.3" x2="301.3" y2="228.6" opacity="1.0" stroke="rgb(0,0,0)" stroke-width="2.0"/>
<line x1="308.5" y1="260.3" x2="308.5" y2="234.6" opacity="1.0" stroke="rgb(0,0,0)" stroke-width="2.0"/>
<line x1="301.3" y1="228.6" x2="334.0" y2="209.7" opacity="1.0" stroke="rgb(0,0,0)" stroke-width="2.0"/>
<line x1="334.0" y1="209.7" x2="366.6" y2="228.6" opacity="1.0" stroke="rgb(0,0,0)" stroke-width="2.0"/>
<line x1="335.5" y1="218.9" x2="357.8" y2="231.8" opacity="1.0" stroke="rgb(0,0,0)" stroke-width="2.0"/>
<line x1="366.6" y1="228.6" x2="366.6" y2="266.3" opacity="1.0" stroke="rgb(0,0,0)" stroke-width="2.0"/>
<line x1="366.6" y1="266.3" x2="334.0" y2="285.1" opacity="1.0" stroke="rgb(0,0,0)" stroke-width="2.0"/>
<line x1="357.8" y1="263.1" x2="335.5" y2="275.9" opacity="1.0" stroke="rgb(0,0,0)" stroke-width="2.0"/>
<line x1="203.3" y1="96.6" x2="203.3" y2="58.9" opacity="1.0" stroke="rgb(0,0,0)" stroke-width="2.0"/>
<line x1="203.3" y1="58.9" x2="236.0" y2="40.0" opacity="1.0" stroke="rgb(0,0,0)" stroke-width="2.0"/>
<line x1="212.1" y1="62.1" x2="234.4" y2="49.2" opacity="1.0" stroke="rgb(0,0,0)" stroke-width="2.0"/>
<line x1="236.0" y1="40.0" x2="268.6" y2="58.9" opacity="1.0" stroke="rgb(0,0,0)" stroke-width="2.0"/>
<line x1="268.6" y1="58.9" x2="268.6" y2="96.6" opacity="1.0" stroke="rgb(0,0,0)" stroke-width="2.0"/>
<line x1="261.4" y1="64.9" x2="261.4" y2="90.6" opacity="1.0" stroke="rgb(0,0,0)" stroke-width="2.0"/>
<line x1="268.6" y1="96.6" x2="236.0" y2="115.4" opacity="1.0" stroke="rgb(0,0,0)" stroke-width="2.0"/>
<line x1="236.0" y1="115.4" x2="203.3" y2="96.6" opacity="1.0" stroke="rgb(0,0,0)" stroke-width="2.0"/>
<line x1="234.4" y1="106.2" x2="212.1" y2="93.3" opacity="1.0" stroke="rgb(0,0,0)" stroke-width="2.0"/>
<line x1="203.3" y1="247.4" x2="170.6" y2="266.3" opacity="1.0" stroke="rgb(0,0,0)" stroke-width="2.0"/>
<line x1="170.6" y1="266.3" x2="138.0" y2="247.4" opacity="1.0" stroke="rgb(0,0,0)" stroke-width="2.0"/>
<line x1="169.0" y1="257.1" x2="146.8" y2="244.2" opacity="1.0" stroke="rgb(0,0,0)" stroke-width="2.0"/>
<line x1="138.0" y1="247.4" x2="138.0" y2="209.7" opacity="1.0" stroke="rgb(0,0,0)" stroke-width="2.0"/>
<line x1="138.0" y1="209.7" x2="170.6" y2="190.9" opacity="1.0" stroke="rgb(0,0,0)" stroke-width="2.0"/>
<line x1="146.8" y1="212.9" x2="169.0" y2="200.1" opacity="1.0" stroke="rgb(0,0,0)" stroke-width="2.0"/>
<line x1="170.6" y1="190.9" x2="203.3" y2="209.7" opacity="1.0" stroke="rgb(0,0,0)" stroke-width="2.0"/>
<line x1="203.3" y1="209.7" x2="203.3" y2="247.4" opacity="1.0" stroke="rgb(0,0,0)" stroke-width="2.0"/>
<line x1="196.1" y1="215.7" x2="196.1" y2="241.4" opacity="1.0" stroke="rgb(0,0,0)" stroke-width="2.0"/>
<line x1="138.0" y1="134.3" x2="170.6" y2="153.1" opacity="1.0" stroke="rgb(0,0,0)" stroke-width="2.0"/>
<line x1="139.6" y1="143.5" x2="161.8" y2="156.4" opacity="1.0" stroke="rgb(0,0,0)" stroke-width="2.0"/>
<line x1="170.6" y1="153.1" x2="170.6" y2="190.9" opacity="1.0" stroke="rgb(0,0,0)" stroke-width="2.0"/>
<line x1="138.0" y1="209.7" x2="105.3" y2="190.9" opacity="1.0" stroke="rgb(0,0,0)" stroke-width="2.0"/>
<line x1="105.3" y1="190.9" x2="105.3" y2="153.1" opacity="1.0" stroke="rgb(0,0,0)" stroke-width="2.0"/>
<line x1="112.5" y1="184.9" x2="112.5" y2="159.1" opacity="1.0" stroke="rgb(0,0,0)" stroke-width="2.0"/>
<line x1="105.3" y1="153.1" x2="138.0" y2="134.3" opacity="1.0" stroke="rgb(0,0,0)" stroke-width="2.0"/>
<line x1="61.4" y1="253.9" x2="40.0" y2="266.3" opacity="1.0" stroke="rgb(0,0,0)" stroke-width="2.0"/>
<line x1="40.0" y1="266.3" x2="40.0" y2="304.0" opacity="1.0" stroke="rgb(0,0,0)" stroke-width="2.0"/>
<line x1="47.2" y1="272.3" x2="47.2" y2="298.0" opacity="1.0" stroke="rgb(0,0,0)" stroke-width="2.0"/>
<line x1="40.0" y1="304.0" x2="72.7" y2="322.9" opacity="1.0" stroke="rgb(0,0,0)" stroke-width="2.0"/>
<line x1="72.7" y1="322.9" x2="105.3" y2="304.0" opacity="1.0" stroke="rgb(0,0,0)" stroke-width="2.0"/>
<line x1="74.3" y1="313.6" x2="96.5" y2="300.8" opacity="1.0" stroke="rgb(0,0,0)" stroke-width="2.0"/>
<line x1="105.3" y1="304.0" x2="105.3" y2="266.3" opacity="1.0" stroke="rgb(0,0,0)" stroke-width="2.0"/>
<line x1="105.3" y1="266.3" x2="83.4" y2="253.7" opacity="1.0" stroke="rgb(0,0,0)" stroke-width="2.0"/>
<line x1="96.5" y1="269.5" x2="81.8" y2="261.0" opacity="1.0" stroke="rgb(0,0,0)" stroke-width="2.0"/>
<text x="66.661530" y="255.428571" fill="rgb(12,12,255)" stroke-width="0" font-weight="bold" font-size="16">N</text>
<text x="229.969177" y="198.857143" fill="rgb(12,12,255)" stroke-width="0" font-weight="bold" font-size="16">N</text>
</svg>
</g>
</svg>