<svg xmlns="http://www.w3.org/2000/svg" xmlns:xlink="http://www.w3.org/1999/xlink" xmlns:cml="http://www.xml-cml.org/schema" version="1.1" id="topsvg" x="0" y="0" viewBox="0 0 100 100">
<title>A_6_K - Open Babel Depiction</title>
<rect x="0" y="0" width="100" height="100" fill="white"/>
<g transform="translate(0,0)">
<svg width="100" height="100" x="0" y="0" viewBox="0 0 495.692 412.308" font-family="sans-serif" stroke="rgb(0,0,0)" stroke-width="2" stroke-linecap="round">
<line x1="391.7" y1="224.6" x2="339.0" y2="194.2" opacity="1.0" stroke="rgb(0,0,0)" stroke-width="2.0"/>
<line x1="327.8" y1="174.7" x2="327.8" y2="113.8" opacity="1.0" stroke="rgb(0,0,0)" stroke-width="2.0"/>
<line x1="316.5" y1="194.2" x2="295.8" y2="206.2" opacity="1.0" stroke="rgb(0,0,0)" stroke-width="2.0"/>
<line x1="59.2" y1="331.5" x2="49.8" y2="326.0" opacity="1.0" stroke="rgb(0,0,0)" stroke-width="2.0"/>
<line x1="62.2" y1="326.3" x2="52.8" y2="320.8" opacity="1.0" stroke="rgb(0,0,0)" stroke-width="2.0"/>
<line x1="72.0" y1="348.4" x2="72.0" y2="359.3" opacity="1.0" stroke="rgb(0,0,0)" stroke-width="2.0"/>
<line x1="104.0" y1="316.9" x2="83.2" y2="328.9" opacity="1.0" stroke="rgb(0,0,0)" stroke-width="2.0"/>
<line x1="231.9" y1="243.1" x2="167.9" y2="280.0" opacity="1.0" stroke="rgb(0,0,0)" stroke-width="2.0"/>
<line x1="423.7" y1="280.0" x2="391.7" y2="261.5" opacity="1.0" stroke="rgb(0,0,0)" stroke-width="2.0"/>
<line x1="391.7" y1="261.5" x2="391.7" y2="224.6" opacity="1.0" stroke="rgb(0,0,0)" stroke-width="2.0"/>
<line x1="398.9" y1="255.5" x2="398.9" y2="230.6" opacity="1.0" stroke="rgb(0,0,0)" stroke-width="2.0"/>
<line x1="391.7" y1="224.6" x2="423.7" y2="206.2" opacity="1.0" stroke="rgb(0,0,0)" stroke-width="2.0"/>
<line x1="423.7" y1="206.2" x2="455.7" y2="224.6" opacity="1.0" stroke="rgb(0,0,0)" stroke-width="2.0"/>
<line x1="425.3" y1="215.4" x2="446.9" y2="227.9" opacity="1.0" stroke="rgb(0,0,0)" stroke-width="2.0"/>
<line x1="455.7" y1="224.6" x2="455.7" y2="261.5" opacity="1.0" stroke="rgb(0,0,0)" stroke-width="2.0"/>
<line x1="455.7" y1="261.5" x2="423.7" y2="280.0" opacity="1.0" stroke="rgb(0,0,0)" stroke-width="2.0"/>
<line x1="446.9" y1="258.3" x2="425.3" y2="270.8" opacity="1.0" stroke="rgb(0,0,0)" stroke-width="2.0"/>
<line x1="295.8" y1="95.4" x2="295.8" y2="58.5" opacity="1.0" stroke="rgb(0,0,0)" stroke-width="2.0"/>
<line x1="295.8" y1="58.5" x2="327.8" y2="40.0" opacity="1.0" stroke="rgb(0,0,0)" stroke-width="2.0"/>
<line x1="304.6" y1="61.7" x2="326.2" y2="49.2" opacity="1.0" stroke="rgb(0,0,0)" stroke-width="2.0"/>
<line x1="327.8" y1="40.0" x2="359.8" y2="58.5" opacity="1.0" stroke="rgb(0,0,0)" stroke-width="2.0"/>
<line x1="359.8" y1="58.5" x2="359.8" y2="95.4" opacity="1.0" stroke="rgb(0,0,0)" stroke-width="2.0"/>
<line x1="352.6" y1="64.5" x2="352.6" y2="89.4" opacity="1.0" stroke="rgb(0,0,0)" stroke-width="2.0"/>
<line x1="359.8" y1="95.4" x2="327.8" y2="113.8" opacity="1.0" stroke="rgb(0,0,0)" stroke-width="2.0"/>
<line x1="327.8" y1="113.8" x2="295.8" y2="95.4" opacity="1.0" stroke="rgb(0,0,0)" stroke-width="2.0"/>
<line x1="326.2" y1="104.6" x2="304.6" y2="92.1" opacity="1.0" stroke="rgb(0,0,0)" stroke-width="2.0"/>
<line x1="295.8" y1="243.1" x2="263.8" y2="261.5" opacity="1.0" stroke="rgb(0,0,0)" stroke-width="2.0"/>
<line x1="263.8" y1="261.5" x2="231.9" y2="243.1" opacity="1.0" stroke="rgb(0,0,0)" stroke-width="2.0"/>
<line x1="262.2" y1="252.3" x2="240.7" y2="239.8" opacity="1.0" stroke="rgb(0,0,0)" stroke-width="2.0"/>
<line x1="231.9" y1="243.1" x2="231.9" y2="206.2" opacity="1.0" stroke="rgb(0,0,0)" stroke-width="2.0"/>
<line x1="231.9" y1="206.2" x2="263.8" y2="187.7" opacity="1.0" stroke="rgb(0,0,0)" stroke-width="2.0"/>
<line x1="240.7" y1="209.4" x2="262.2" y2="196.9" opacity="1.0" stroke="rgb(0,0,0)" stroke-width="2.0"/>
<line x1="263.8" y1="187.7" x2="295.8" y2="206.2" opacity="1.0" stroke="rgb(0,0,0)" stroke-width="2.0"/>
<line x1="295.8" y1="206.2" x2="295.8" y2="243.1" opacity="1.0" stroke="rgb(0,0,0)" stroke-width="2.0"/>
<line x1="288.6" y1="212.2" x2="288.6" y2="237.1" opacity="1.0" stroke="rgb(0,0,0)" stroke-width="2.0"/>
<line x1="231.9" y1="132.3" x2="263.8" y2="150.8" opacity="1.0" stroke="rgb(0,0,0)" stroke-width="2.0"/>
<line x1="233.5" y1="141.5" x2="255.0" y2="154.0" opacity="1.0" stroke="rgb(0,0,0)" stroke-width="2.0"/>
<line x1="263.8" y1="150.8" x2="263.8" y2="187.7" opacity="1.0" stroke="rgb(0,0,0)" stroke-width="2.0"/>
<line x1="231.9" y1="206.2" x2="199.9" y2="187.7" opacity="1.0" stroke="rgb(0,0,0)" stroke-width="2.0"/>
<line x1="199.9" y1="187.7" x2="199.9" y2="150.8" opacity="1.0" stroke="rgb(0,0,0)" stroke-width="2.0"/>
<line x1="207.1" y1="181.7" x2="207.1" y2="156.8" opacity="1.0" stroke="rgb(0,0,0)" stroke-width="2.0"/>
<line x1="199.9" y1="150.8" x2="231.9" y2="132.3" opacity="1.0" stroke="rgb(0,0,0)" stroke-width="2.0"/>
<line x1="167.9" y1="316.9" x2="135.9" y2="335.4" opacity="1.0" stroke="rgb(0,0,0)" stroke-width="2.0"/>
<line x1="135.9" y1="335.4" x2="104.0" y2="316.9" opacity="1.0" stroke="rgb(0,0,0)" stroke-width="2.0"/>
<line x1="134.3" y1="326.1" x2="112.7" y2="313.7" opacity="1.0" stroke="rgb(0,0,0)" stroke-width="2.0"/>
<line x1="104.0" y1="316.9" x2="104.0" y2="280.0" opacity="1.0" stroke="rgb(0,0,0)" stroke-width="2.0"/>
<line x1="104.0" y1="280.0" x2="135.9" y2="261.5" opacity="1.0" stroke="rgb(0,0,0)" stroke-width="2.0"/>
<line x1="112.7" y1="283.2" x2="134.3" y2="270.8" opacity="1.0" stroke="rgb(0,0,0)" stroke-width="2.0"/>
<line x1="135.9" y1="261.5" x2="167.9" y2="280.0" opacity="1.0" stroke="rgb(0,0,0)" stroke-width="2.0"/>
<line x1="167.9" y1="280.0" x2="167.9" y2="316.9" opacity="1.0" stroke="rgb(0,0,0)" stroke-width="2.0"/>
<line x1="160.7" y1="286.0" x2="160.7" y2="310.9" opacity="1.0" stroke="rgb(0,0,0)" stroke-width="2.0"/>
<text x="76.776323" y="368.275692" fill="rgb(255,12,12)" stroke-width="0" font-weight="bold" font-size="16"/>
<text x="76.776323" y="368.275692" fill="rgb(255,12,12)" stroke-width="0" font-weight="bold" font-size="32">.</text>
<text x="65.976323" y="380.307692" fill="rgb(255,12,12)" stroke-width="0" font-weight="bold" font-size="16">O</text>
<text x="34.000000" y="324.923077" fill="rgb(255,12,12)" stroke-width="0" font-weight="bold" font-size="16">O</text>
<text x="65.976323" y="343.384615" fill="rgb(12,12,255)" stroke-width="0" font-weight="bold" font-size="16">N</text>
<text x="321.786903" y="195.692308" fill="rgb(12,12,255)" stroke-width="0" font-weight="bold" font-size="16">N</text>
</svg>
</g>
</svg>