<svg xmlns="http://www.w3.org/2000/svg" xmlns:xlink="http://www.w3.org/1999/xlink" xmlns:cml="http://www.xml-cml.org/schema" version="1.1" id="topsvg" x="0" y="0" viewBox="0 0 100 100">
<title>A_6_R - Open Babel Depiction</title>
<rect x="0" y="0" width="100" height="100" fill="white"/>
<g transform="translate(0,0)">
<svg width="100" height="100" x="0" y="0" viewBox="0 0 473.814 402.105" font-family="sans-serif" stroke="rgb(0,0,0)" stroke-width="2" stroke-linecap="round">
<line x1="302.5" y1="286.3" x2="302.5" y2="223.5" opacity="1.0" stroke="rgb(0,0,0)" stroke-width="2.0"/>
<line x1="313.8" y1="204.0" x2="368.2" y2="172.6" opacity="1.0" stroke="rgb(0,0,0)" stroke-width="2.0"/>
<line x1="291.3" y1="204.0" x2="269.7" y2="191.6" opacity="1.0" stroke="rgb(0,0,0)" stroke-width="2.0"/>
<line x1="63.1" y1="87.0" x2="52.8" y2="92.9" opacity="1.0" stroke="rgb(0,0,0)" stroke-width="2.0"/>
<line x1="60.1" y1="81.8" x2="49.8" y2="87.7" opacity="1.0" stroke="rgb(0,0,0)" stroke-width="2.0"/>
<line x1="72.8" y1="64.9" x2="72.8" y2="53.0" opacity="1.0" stroke="rgb(0,0,0)" stroke-width="2.0"/>
<line x1="105.6" y1="96.8" x2="84.1" y2="84.4" opacity="1.0" stroke="rgb(0,0,0)" stroke-width="2.0"/>
<line x1="204.1" y1="153.7" x2="171.3" y2="134.7" opacity="1.0" stroke="rgb(0,0,0)" stroke-width="2.0"/>
<line x1="269.7" y1="343.2" x2="269.7" y2="305.3" opacity="1.0" stroke="rgb(0,0,0)" stroke-width="2.0"/>
<line x1="269.7" y1="305.3" x2="302.5" y2="286.3" opacity="1.0" stroke="rgb(0,0,0)" stroke-width="2.0"/>
<line x1="278.5" y1="308.5" x2="300.9" y2="295.6" opacity="1.0" stroke="rgb(0,0,0)" stroke-width="2.0"/>
<line x1="302.5" y1="286.3" x2="335.4" y2="305.3" opacity="1.0" stroke="rgb(0,0,0)" stroke-width="2.0"/>
<line x1="335.4" y1="305.3" x2="335.4" y2="343.2" opacity="1.0" stroke="rgb(0,0,0)" stroke-width="2.0"/>
<line x1="328.2" y1="311.3" x2="328.2" y2="337.2" opacity="1.0" stroke="rgb(0,0,0)" stroke-width="2.0"/>
<line x1="335.4" y1="343.2" x2="302.5" y2="362.1" opacity="1.0" stroke="rgb(0,0,0)" stroke-width="2.0"/>
<line x1="302.5" y1="362.1" x2="269.7" y2="343.2" opacity="1.0" stroke="rgb(0,0,0)" stroke-width="2.0"/>
<line x1="300.9" y1="352.9" x2="278.5" y2="339.9" opacity="1.0" stroke="rgb(0,0,0)" stroke-width="2.0"/>
<line x1="368.2" y1="134.7" x2="401.0" y2="115.8" opacity="1.0" stroke="rgb(0,0,0)" stroke-width="2.0"/>
<line x1="401.0" y1="115.8" x2="433.8" y2="134.7" opacity="1.0" stroke="rgb(0,0,0)" stroke-width="2.0"/>
<line x1="402.6" y1="125.0" x2="425.0" y2="138.0" opacity="1.0" stroke="rgb(0,0,0)" stroke-width="2.0"/>
<line x1="433.8" y1="134.7" x2="433.8" y2="172.6" opacity="1.0" stroke="rgb(0,0,0)" stroke-width="2.0"/>
<line x1="433.8" y1="172.6" x2="401.0" y2="191.6" opacity="1.0" stroke="rgb(0,0,0)" stroke-width="2.0"/>
<line x1="425.0" y1="169.4" x2="402.6" y2="182.3" opacity="1.0" stroke="rgb(0,0,0)" stroke-width="2.0"/>
<line x1="401.0" y1="191.6" x2="368.2" y2="172.6" opacity="1.0" stroke="rgb(0,0,0)" stroke-width="2.0"/>
<line x1="368.2" y1="172.6" x2="368.2" y2="134.7" opacity="1.0" stroke="rgb(0,0,0)" stroke-width="2.0"/>
<line x1="375.4" y1="166.6" x2="375.4" y2="140.7" opacity="1.0" stroke="rgb(0,0,0)" stroke-width="2.0"/>
<line x1="236.9" y1="210.5" x2="204.1" y2="191.6" opacity="1.0" stroke="rgb(0,0,0)" stroke-width="2.0"/>
<line x1="204.1" y1="191.6" x2="204.1" y2="153.7" opacity="1.0" stroke="rgb(0,0,0)" stroke-width="2.0"/>
<line x1="211.3" y1="185.6" x2="211.3" y2="159.7" opacity="1.0" stroke="rgb(0,0,0)" stroke-width="2.0"/>
<line x1="204.1" y1="153.7" x2="236.9" y2="134.7" opacity="1.0" stroke="rgb(0,0,0)" stroke-width="2.0"/>
<line x1="236.9" y1="134.7" x2="269.7" y2="153.7" opacity="1.0" stroke="rgb(0,0,0)" stroke-width="2.0"/>
<line x1="238.5" y1="144.0" x2="260.9" y2="156.9" opacity="1.0" stroke="rgb(0,0,0)" stroke-width="2.0"/>
<line x1="269.7" y1="153.7" x2="269.7" y2="191.6" opacity="1.0" stroke="rgb(0,0,0)" stroke-width="2.0"/>
<line x1="269.7" y1="191.6" x2="236.9" y2="210.5" opacity="1.0" stroke="rgb(0,0,0)" stroke-width="2.0"/>
<line x1="260.9" y1="188.3" x2="238.5" y2="201.3" opacity="1.0" stroke="rgb(0,0,0)" stroke-width="2.0"/>
<line x1="302.5" y1="96.8" x2="302.5" y2="134.7" opacity="1.0" stroke="rgb(0,0,0)" stroke-width="2.0"/>
<line x1="295.3" y1="102.8" x2="295.3" y2="128.7" opacity="1.0" stroke="rgb(0,0,0)" stroke-width="2.0"/>
<line x1="302.5" y1="134.7" x2="269.7" y2="153.7" opacity="1.0" stroke="rgb(0,0,0)" stroke-width="2.0"/>
<line x1="236.9" y1="134.7" x2="236.9" y2="96.8" opacity="1.0" stroke="rgb(0,0,0)" stroke-width="2.0"/>
<line x1="236.9" y1="96.8" x2="269.7" y2="77.9" opacity="1.0" stroke="rgb(0,0,0)" stroke-width="2.0"/>
<line x1="245.7" y1="100.1" x2="268.1" y2="87.1" opacity="1.0" stroke="rgb(0,0,0)" stroke-width="2.0"/>
<line x1="269.7" y1="77.9" x2="302.5" y2="96.8" opacity="1.0" stroke="rgb(0,0,0)" stroke-width="2.0"/>
<line x1="160.0" y1="90.3" x2="138.5" y2="77.9" opacity="1.0" stroke="rgb(0,0,0)" stroke-width="2.0"/>
<line x1="138.5" y1="77.9" x2="105.6" y2="96.8" opacity="1.0" stroke="rgb(0,0,0)" stroke-width="2.0"/>
<line x1="136.9" y1="87.1" x2="114.4" y2="100.1" opacity="1.0" stroke="rgb(0,0,0)" stroke-width="2.0"/>
<line x1="105.6" y1="96.8" x2="105.6" y2="134.7" opacity="1.0" stroke="rgb(0,0,0)" stroke-width="2.0"/>
<line x1="105.6" y1="134.7" x2="138.5" y2="153.7" opacity="1.0" stroke="rgb(0,0,0)" stroke-width="2.0"/>
<line x1="114.4" y1="131.5" x2="136.9" y2="144.4" opacity="1.0" stroke="rgb(0,0,0)" stroke-width="2.0"/>
<line x1="138.5" y1="153.7" x2="171.3" y2="134.7" opacity="1.0" stroke="rgb(0,0,0)" stroke-width="2.0"/>
<line x1="171.3" y1="134.7" x2="171.3" y2="109.3" opacity="1.0" stroke="rgb(0,0,0)" stroke-width="2.0"/>
<line x1="164.1" y1="128.7" x2="164.1" y2="111.6" opacity="1.0" stroke="rgb(0,0,0)" stroke-width="2.0"/>
<text x="77.617805" y="35.968000" fill="rgb(255,12,12)" stroke-width="0" font-weight="bold" font-size="16"/>
<text x="77.617805" y="35.968000" fill="rgb(255,12,12)" stroke-width="0" font-weight="bold" font-size="32">.</text>
<text x="66.817805" y="48.000000" fill="rgb(255,12,12)" stroke-width="0" font-weight="bold" font-size="16">O</text>
<text x="34.000000" y="104.842105" fill="rgb(255,12,12)" stroke-width="0" font-weight="bold" font-size="16">O</text>
<text x="66.817805" y="85.894737" fill="rgb(12,12,255)" stroke-width="0" font-weight="bold" font-size="16">N</text>
<text x="165.271219" y="104.842105" fill="rgb(12,12,255)" stroke-width="0" font-weight="bold" font-size="16">N</text>
<text x="296.542438" y="218.526316" fill="rgb(12,12,255)" stroke-width="0" font-weight="bold" font-size="16">N</text>
</svg>
</g>
</svg>