<svg xmlns="http://www.w3.org/2000/svg" x="0" y="0" viewBox="0 0 100 100">
<title>A_6_L - Open Babel Depiction</title>
<rect x="0" y="0" width="100" height="100" fill="white"/>
<g transform="translate(0,0)">
<svg width="100" height="100" x="0" y="0" viewBox="0 0 489.409 376" font-family="sans-serif" stroke="rgb(0,0,0)" stroke-width="2" stroke-linecap="round">
<line x1="321.2" y1="262.0" x2="321.2" y2="201.0" opacity="1.0" stroke="rgb(0,0,0)" stroke-width="2.0"/>
<line x1="332.5" y1="181.5" x2="385.3" y2="151.0" opacity="1.0" stroke="rgb(0,0,0)" stroke-width="2.0"/>
<line x1="310.0" y1="181.5" x2="289.2" y2="169.5" opacity="1.0" stroke="rgb(0,0,0)" stroke-width="2.0"/>
<line x1="225.1" y1="132.5" x2="161.0" y2="95.5" opacity="1.0" stroke="rgb(0,0,0)" stroke-width="2.0"/>
<line x1="40.0" y1="77.0" x2="61.7" y2="106.9" opacity="1.0" stroke="rgb(0,0,0)" stroke-width="2.0"/>
<line x1="49.4" y1="77.6" x2="64.0" y2="97.8" opacity="1.0" stroke="rgb(0,0,0)" stroke-width="2.0"/>
<line x1="61.7" y1="106.9" x2="96.9" y2="95.5" opacity="1.0" stroke="rgb(0,0,0)" stroke-width="2.0"/>
<line x1="96.9" y1="95.5" x2="96.9" y2="58.5" opacity="1.0" stroke="rgb(0,0,0)" stroke-width="2.0"/>
<line x1="96.9" y1="58.5" x2="74.1" y2="51.1" opacity="1.0" stroke="rgb(0,0,0)" stroke-width="2.0"/>
<line x1="54.1" y1="57.6" x2="40.0" y2="77.0" opacity="1.0" stroke="rgb(0,0,0)" stroke-width="2.0"/>
<line x1="289.2" y1="317.5" x2="289.2" y2="280.5" opacity="1.0" stroke="rgb(0,0,0)" stroke-width="2.0"/>
<line x1="289.2" y1="280.5" x2="321.2" y2="262.0" opacity="1.0" stroke="rgb(0,0,0)" stroke-width="2.0"/>
<line x1="298.0" y1="283.7" x2="319.6" y2="271.2" opacity="1.0" stroke="rgb(0,0,0)" stroke-width="2.0"/>
<line x1="321.2" y1="262.0" x2="353.3" y2="280.5" opacity="1.0" stroke="rgb(0,0,0)" stroke-width="2.0"/>
<line x1="353.3" y1="280.5" x2="353.3" y2="317.5" opacity="1.0" stroke="rgb(0,0,0)" stroke-width="2.0"/>
<line x1="346.1" y1="286.5" x2="346.1" y2="311.5" opacity="1.0" stroke="rgb(0,0,0)" stroke-width="2.0"/>
<line x1="353.3" y1="317.5" x2="321.2" y2="336.0" opacity="1.0" stroke="rgb(0,0,0)" stroke-width="2.0"/>
<line x1="321.2" y1="336.0" x2="289.2" y2="317.5" opacity="1.0" stroke="rgb(0,0,0)" stroke-width="2.0"/>
<line x1="319.6" y1="326.8" x2="298.0" y2="314.3" opacity="1.0" stroke="rgb(0,0,0)" stroke-width="2.0"/>
<line x1="385.3" y1="114.0" x2="417.4" y2="95.5" opacity="1.0" stroke="rgb(0,0,0)" stroke-width="2.0"/>
<line x1="417.4" y1="95.5" x2="449.4" y2="114.0" opacity="1.0" stroke="rgb(0,0,0)" stroke-width="2.0"/>
<line x1="419.0" y1="104.7" x2="440.6" y2="117.2" opacity="1.0" stroke="rgb(0,0,0)" stroke-width="2.0"/>
<line x1="449.4" y1="114.0" x2="449.4" y2="151.0" opacity="1.0" stroke="rgb(0,0,0)" stroke-width="2.0"/>
<line x1="449.4" y1="151.0" x2="417.4" y2="169.5" opacity="1.0" stroke="rgb(0,0,0)" stroke-width="2.0"/>
<line x1="440.6" y1="147.8" x2="419.0" y2="160.3" opacity="1.0" stroke="rgb(0,0,0)" stroke-width="2.0"/>
<line x1="417.4" y1="169.5" x2="385.3" y2="151.0" opacity="1.0" stroke="rgb(0,0,0)" stroke-width="2.0"/>
<line x1="385.3" y1="151.0" x2="385.3" y2="114.0" opacity="1.0" stroke="rgb(0,0,0)" stroke-width="2.0"/>
<line x1="392.5" y1="145.0" x2="392.5" y2="120.0" opacity="1.0" stroke="rgb(0,0,0)" stroke-width="2.0"/>
<line x1="257.2" y1="188.0" x2="225.1" y2="169.5" opacity="1.0" stroke="rgb(0,0,0)" stroke-width="2.0"/>
<line x1="225.1" y1="169.5" x2="225.1" y2="132.5" opacity="1.0" stroke="rgb(0,0,0)" stroke-width="2.0"/>
<line x1="232.3" y1="163.5" x2="232.3" y2="138.5" opacity="1.0" stroke="rgb(0,0,0)" stroke-width="2.0"/>
<line x1="225.1" y1="132.5" x2="257.2" y2="114.0" opacity="1.0" stroke="rgb(0,0,0)" stroke-width="2.0"/>
<line x1="257.2" y1="114.0" x2="289.2" y2="132.5" opacity="1.0" stroke="rgb(0,0,0)" stroke-width="2.0"/>
<line x1="258.7" y1="123.2" x2="280.4" y2="135.7" opacity="1.0" stroke="rgb(0,0,0)" stroke-width="2.0"/>
<line x1="289.2" y1="132.5" x2="289.2" y2="169.5" opacity="1.0" stroke="rgb(0,0,0)" stroke-width="2.0"/>
<line x1="289.2" y1="169.5" x2="257.2" y2="188.0" opacity="1.0" stroke="rgb(0,0,0)" stroke-width="2.0"/>
<line x1="280.4" y1="166.3" x2="258.7" y2="178.8" opacity="1.0" stroke="rgb(0,0,0)" stroke-width="2.0"/>
<line x1="321.2" y1="77.0" x2="321.2" y2="114.0" opacity="1.0" stroke="rgb(0,0,0)" stroke-width="2.0"/>
<line x1="314.0" y1="83.0" x2="314.0" y2="108.0" opacity="1.0" stroke="rgb(0,0,0)" stroke-width="2.0"/>
<line x1="321.2" y1="114.0" x2="289.2" y2="132.5" opacity="1.0" stroke="rgb(0,0,0)" stroke-width="2.0"/>
<line x1="257.2" y1="114.0" x2="257.2" y2="77.0" opacity="1.0" stroke="rgb(0,0,0)" stroke-width="2.0"/>
<line x1="257.2" y1="77.0" x2="289.2" y2="58.5" opacity="1.0" stroke="rgb(0,0,0)" stroke-width="2.0"/>
<line x1="265.9" y1="80.2" x2="287.6" y2="67.7" opacity="1.0" stroke="rgb(0,0,0)" stroke-width="2.0"/>
<line x1="289.2" y1="58.5" x2="321.2" y2="77.0" opacity="1.0" stroke="rgb(0,0,0)" stroke-width="2.0"/>
<line x1="161.0" y1="58.5" x2="129.0" y2="40.0" opacity="1.0" stroke="rgb(0,0,0)" stroke-width="2.0"/>
<line x1="129.0" y1="40.0" x2="96.9" y2="58.5" opacity="1.0" stroke="rgb(0,0,0)" stroke-width="2.0"/>
<line x1="127.4" y1="49.2" x2="105.7" y2="61.7" opacity="1.0" stroke="rgb(0,0,0)" stroke-width="2.0"/>
<line x1="96.9" y1="95.5" x2="129.0" y2="114.0" opacity="1.0" stroke="rgb(0,0,0)" stroke-width="2.0"/>
<line x1="105.7" y1="92.3" x2="127.4" y2="104.8" opacity="1.0" stroke="rgb(0,0,0)" stroke-width="2.0"/>
<line x1="129.0" y1="114.0" x2="161.0" y2="95.5" opacity="1.0" stroke="rgb(0,0,0)" stroke-width="2.0"/>
<line x1="161.0" y1="95.5" x2="161.0" y2="58.5" opacity="1.0" stroke="rgb(0,0,0)" stroke-width="2.0"/>
<line x1="153.8" y1="89.5" x2="153.8" y2="64.5" opacity="1.0" stroke="rgb(0,0,0)" stroke-width="2.0"/>
<text x="55.748054" y="55.066371" fill="rgb(12,12,255)" stroke-width="0" font-weight="bold" font-size="16">N</text>
<text x="55.748054" y="39.066371" fill="rgb(12,12,255)" stroke-width="0" font-weight="bold" font-size="16">H</text>
<text x="315.237725" y="196.000000" fill="rgb(12,12,255)" stroke-width="0" font-weight="bold" font-size="16">N</text>
</svg>
</g>
</svg>
