<svg xmlns="http://www.w3.org/2000/svg" xmlns:xlink="http://www.w3.org/1999/xlink" xmlns:cml="http://www.xml-cml.org/schema" version="1.1" id="topsvg" x="0" y="0" viewBox="0 0 100 100">
<title>A_6_Q - Open Babel Depiction</title>
<rect x="0" y="0" width="100" height="100" fill="white"/>
<g transform="translate(0,0)">
<svg width="100" height="100" x="0" y="0" viewBox="0 0 406.615 362.857" font-family="sans-serif" stroke="rgb(0,0,0)" stroke-width="2" stroke-linecap="round">
<line x1="236.0" y1="247.4" x2="236.0" y2="185.0" opacity="1.0" stroke="rgb(0,0,0)" stroke-width="2.0"/>
<line x1="247.2" y1="165.5" x2="301.3" y2="134.3" opacity="1.0" stroke="rgb(0,0,0)" stroke-width="2.0"/>
<line x1="224.7" y1="165.5" x2="203.3" y2="153.1" opacity="1.0" stroke="rgb(0,0,0)" stroke-width="2.0"/>
<line x1="138.0" y1="115.4" x2="105.3" y2="96.6" opacity="1.0" stroke="rgb(0,0,0)" stroke-width="2.0"/>
<line x1="203.3" y1="304.0" x2="203.3" y2="266.3" opacity="1.0" stroke="rgb(0,0,0)" stroke-width="2.0"/>
<line x1="203.3" y1="266.3" x2="236.0" y2="247.4" opacity="1.0" stroke="rgb(0,0,0)" stroke-width="2.0"/>
<line x1="212.1" y1="269.5" x2="234.4" y2="256.7" opacity="1.0" stroke="rgb(0,0,0)" stroke-width="2.0"/>
<line x1="236.0" y1="247.4" x2="268.6" y2="266.3" opacity="1.0" stroke="rgb(0,0,0)" stroke-width="2.0"/>
<line x1="268.6" y1="266.3" x2="268.6" y2="304.0" opacity="1.0" stroke="rgb(0,0,0)" stroke-width="2.0"/>
<line x1="261.4" y1="272.3" x2="261.4" y2="298.0" opacity="1.0" stroke="rgb(0,0,0)" stroke-width="2.0"/>
<line x1="268.6" y1="304.0" x2="236.0" y2="322.9" opacity="1.0" stroke="rgb(0,0,0)" stroke-width="2.0"/>
<line x1="236.0" y1="322.9" x2="203.3" y2="304.0" opacity="1.0" stroke="rgb(0,0,0)" stroke-width="2.0"/>
<line x1="234.4" y1="313.6" x2="212.1" y2="300.8" opacity="1.0" stroke="rgb(0,0,0)" stroke-width="2.0"/>
<line x1="301.3" y1="96.6" x2="334.0" y2="77.7" opacity="1.0" stroke="rgb(0,0,0)" stroke-width="2.0"/>
<line x1="334.0" y1="77.7" x2="366.6" y2="96.6" opacity="1.0" stroke="rgb(0,0,0)" stroke-width="2.0"/>
<line x1="335.5" y1="86.9" x2="357.8" y2="99.8" opacity="1.0" stroke="rgb(0,0,0)" stroke-width="2.0"/>
<line x1="366.6" y1="96.6" x2="366.6" y2="134.3" opacity="1.0" stroke="rgb(0,0,0)" stroke-width="2.0"/>
<line x1="366.6" y1="134.3" x2="334.0" y2="153.1" opacity="1.0" stroke="rgb(0,0,0)" stroke-width="2.0"/>
<line x1="357.8" y1="131.1" x2="335.5" y2="143.9" opacity="1.0" stroke="rgb(0,0,0)" stroke-width="2.0"/>
<line x1="334.0" y1="153.1" x2="301.3" y2="134.3" opacity="1.0" stroke="rgb(0,0,0)" stroke-width="2.0"/>
<line x1="301.3" y1="134.3" x2="301.3" y2="96.6" opacity="1.0" stroke="rgb(0,0,0)" stroke-width="2.0"/>
<line x1="308.5" y1="128.3" x2="308.5" y2="102.6" opacity="1.0" stroke="rgb(0,0,0)" stroke-width="2.0"/>
<line x1="170.6" y1="172.0" x2="138.0" y2="153.1" opacity="1.0" stroke="rgb(0,0,0)" stroke-width="2.0"/>
<line x1="138.0" y1="153.1" x2="138.0" y2="115.4" opacity="1.0" stroke="rgb(0,0,0)" stroke-width="2.0"/>
<line x1="145.2" y1="147.1" x2="145.2" y2="121.4" opacity="1.0" stroke="rgb(0,0,0)" stroke-width="2.0"/>
<line x1="138.0" y1="115.4" x2="170.6" y2="96.6" opacity="1.0" stroke="rgb(0,0,0)" stroke-width="2.0"/>
<line x1="170.6" y1="96.6" x2="203.3" y2="115.4" opacity="1.0" stroke="rgb(0,0,0)" stroke-width="2.0"/>
<line x1="172.2" y1="105.8" x2="194.5" y2="118.7" opacity="1.0" stroke="rgb(0,0,0)" stroke-width="2.0"/>
<line x1="203.3" y1="115.4" x2="203.3" y2="153.1" opacity="1.0" stroke="rgb(0,0,0)" stroke-width="2.0"/>
<line x1="203.3" y1="153.1" x2="170.6" y2="172.0" opacity="1.0" stroke="rgb(0,0,0)" stroke-width="2.0"/>
<line x1="194.5" y1="149.9" x2="172.2" y2="162.8" opacity="1.0" stroke="rgb(0,0,0)" stroke-width="2.0"/>
<line x1="236.0" y1="58.9" x2="236.0" y2="96.6" opacity="1.0" stroke="rgb(0,0,0)" stroke-width="2.0"/>
<line x1="228.8" y1="64.9" x2="228.8" y2="90.6" opacity="1.0" stroke="rgb(0,0,0)" stroke-width="2.0"/>
<line x1="236.0" y1="96.6" x2="203.3" y2="115.4" opacity="1.0" stroke="rgb(0,0,0)" stroke-width="2.0"/>
<line x1="170.6" y1="96.6" x2="170.6" y2="58.9" opacity="1.0" stroke="rgb(0,0,0)" stroke-width="2.0"/>
<line x1="170.6" y1="58.9" x2="203.3" y2="40.0" opacity="1.0" stroke="rgb(0,0,0)" stroke-width="2.0"/>
<line x1="179.4" y1="62.1" x2="201.7" y2="49.2" opacity="1.0" stroke="rgb(0,0,0)" stroke-width="2.0"/>
<line x1="203.3" y1="40.0" x2="236.0" y2="58.9" opacity="1.0" stroke="rgb(0,0,0)" stroke-width="2.0"/>
<line x1="94.1" y1="52.4" x2="72.7" y2="40.0" opacity="1.0" stroke="rgb(0,0,0)" stroke-width="2.0"/>
<line x1="72.7" y1="40.0" x2="40.0" y2="58.9" opacity="1.0" stroke="rgb(0,0,0)" stroke-width="2.0"/>
<line x1="71.1" y1="49.2" x2="48.8" y2="62.1" opacity="1.0" stroke="rgb(0,0,0)" stroke-width="2.0"/>
<line x1="40.0" y1="58.9" x2="40.0" y2="83.6" opacity="1.0" stroke="rgb(0,0,0)" stroke-width="2.0"/>
<line x1="50.8" y1="102.8" x2="72.7" y2="115.4" opacity="1.0" stroke="rgb(0,0,0)" stroke-width="2.0"/>
<line x1="56.3" y1="97.7" x2="71.1" y2="106.2" opacity="1.0" stroke="rgb(0,0,0)" stroke-width="2.0"/>
<line x1="72.7" y1="115.4" x2="105.3" y2="96.6" opacity="1.0" stroke="rgb(0,0,0)" stroke-width="2.0"/>
<line x1="105.3" y1="96.6" x2="105.3" y2="71.3" opacity="1.0" stroke="rgb(0,0,0)" stroke-width="2.0"/>
<line x1="98.1" y1="90.6" x2="98.1" y2="73.5" opacity="1.0" stroke="rgb(0,0,0)" stroke-width="2.0"/>
<text x="34.000000" y="104.571429" fill="rgb(12,12,255)" stroke-width="0" font-weight="bold" font-size="16">N</text>
<text x="99.323059" y="66.857143" fill="rgb(12,12,255)" stroke-width="0" font-weight="bold" font-size="16">N</text>
<text x="229.969177" y="180.000000" fill="rgb(12,12,255)" stroke-width="0" font-weight="bold" font-size="16">N</text>
</svg>
</g>
</svg>