<svg xmlns="http://www.w3.org/2000/svg" x="0" y="0" viewBox="0 0 100 100">
<title>A_7_L - Open Babel Depiction</title>
<rect x="0" y="0" width="100" height="100" fill="white"/>
<g transform="translate(0,0)">
<svg width="100" height="100" x="0" y="0" viewBox="0 0 500.673 404.234" font-family="sans-serif" stroke="rgb(0,0,0)" stroke-width="2" stroke-linecap="round">
<line x1="329.8" y1="288.7" x2="329.8" y2="226.1" opacity="1.0" stroke="rgb(0,0,0)" stroke-width="2.0"/>
<line x1="341.1" y1="206.6" x2="395.2" y2="175.3" opacity="1.0" stroke="rgb(0,0,0)" stroke-width="2.0"/>
<line x1="231.7" y1="156.5" x2="198.9" y2="137.6" opacity="1.0" stroke="rgb(0,0,0)" stroke-width="2.0"/>
<line x1="200.4" y1="140.2" x2="167.7" y2="159.1" opacity="1.0" stroke="rgb(0,0,0)" stroke-width="2.0"/>
<line x1="197.4" y1="135.0" x2="164.7" y2="153.9" opacity="1.0" stroke="rgb(0,0,0)" stroke-width="2.0"/>
<line x1="318.5" y1="206.6" x2="297.1" y2="194.2" opacity="1.0" stroke="rgb(0,0,0)" stroke-width="2.0"/>
<line x1="166.2" y1="156.5" x2="133.5" y2="137.6" opacity="1.0" stroke="rgb(0,0,0)" stroke-width="2.0"/>
<line x1="55.4" y1="40.0" x2="92.9" y2="43.9" opacity="1.0" stroke="rgb(0,0,0)" stroke-width="2.0"/>
<line x1="60.6" y1="47.8" x2="86.2" y2="50.5" opacity="1.0" stroke="rgb(0,0,0)" stroke-width="2.0"/>
<line x1="92.9" y1="43.9" x2="100.8" y2="80.9" opacity="1.0" stroke="rgb(0,0,0)" stroke-width="2.0"/>
<line x1="100.8" y1="80.9" x2="68.1" y2="99.8" opacity="1.0" stroke="rgb(0,0,0)" stroke-width="2.0"/>
<line x1="68.1" y1="99.8" x2="49.7" y2="83.2" opacity="1.0" stroke="rgb(0,0,0)" stroke-width="2.0"/>
<line x1="45.3" y1="62.6" x2="55.4" y2="40.0" opacity="1.0" stroke="rgb(0,0,0)" stroke-width="2.0"/>
<line x1="297.1" y1="345.3" x2="297.1" y2="307.6" opacity="1.0" stroke="rgb(0,0,0)" stroke-width="2.0"/>
<line x1="297.1" y1="307.6" x2="329.8" y2="288.7" opacity="1.0" stroke="rgb(0,0,0)" stroke-width="2.0"/>
<line x1="305.9" y1="310.8" x2="328.2" y2="297.9" opacity="1.0" stroke="rgb(0,0,0)" stroke-width="2.0"/>
<line x1="329.8" y1="288.7" x2="362.5" y2="307.6" opacity="1.0" stroke="rgb(0,0,0)" stroke-width="2.0"/>
<line x1="362.5" y1="307.6" x2="362.5" y2="345.3" opacity="1.0" stroke="rgb(0,0,0)" stroke-width="2.0"/>
<line x1="355.3" y1="313.6" x2="355.3" y2="339.3" opacity="1.0" stroke="rgb(0,0,0)" stroke-width="2.0"/>
<line x1="362.5" y1="345.3" x2="329.8" y2="364.2" opacity="1.0" stroke="rgb(0,0,0)" stroke-width="2.0"/>
<line x1="329.8" y1="364.2" x2="297.1" y2="345.3" opacity="1.0" stroke="rgb(0,0,0)" stroke-width="2.0"/>
<line x1="328.2" y1="355.0" x2="305.9" y2="342.1" opacity="1.0" stroke="rgb(0,0,0)" stroke-width="2.0"/>
<line x1="395.2" y1="137.6" x2="428.0" y2="118.7" opacity="1.0" stroke="rgb(0,0,0)" stroke-width="2.0"/>
<line x1="428.0" y1="118.7" x2="460.7" y2="137.6" opacity="1.0" stroke="rgb(0,0,0)" stroke-width="2.0"/>
<line x1="429.6" y1="127.9" x2="451.9" y2="140.8" opacity="1.0" stroke="rgb(0,0,0)" stroke-width="2.0"/>
<line x1="460.7" y1="137.6" x2="460.7" y2="175.3" opacity="1.0" stroke="rgb(0,0,0)" stroke-width="2.0"/>
<line x1="460.7" y1="175.3" x2="428.0" y2="194.2" opacity="1.0" stroke="rgb(0,0,0)" stroke-width="2.0"/>
<line x1="451.9" y1="172.1" x2="429.6" y2="185.0" opacity="1.0" stroke="rgb(0,0,0)" stroke-width="2.0"/>
<line x1="428.0" y1="194.2" x2="395.2" y2="175.3" opacity="1.0" stroke="rgb(0,0,0)" stroke-width="2.0"/>
<line x1="395.2" y1="175.3" x2="395.2" y2="137.6" opacity="1.0" stroke="rgb(0,0,0)" stroke-width="2.0"/>
<line x1="402.4" y1="169.3" x2="402.4" y2="143.6" opacity="1.0" stroke="rgb(0,0,0)" stroke-width="2.0"/>
<line x1="264.4" y1="213.1" x2="231.7" y2="194.2" opacity="1.0" stroke="rgb(0,0,0)" stroke-width="2.0"/>
<line x1="231.7" y1="194.2" x2="231.7" y2="156.5" opacity="1.0" stroke="rgb(0,0,0)" stroke-width="2.0"/>
<line x1="238.9" y1="188.2" x2="238.9" y2="162.5" opacity="1.0" stroke="rgb(0,0,0)" stroke-width="2.0"/>
<line x1="231.7" y1="156.5" x2="264.4" y2="137.6" opacity="1.0" stroke="rgb(0,0,0)" stroke-width="2.0"/>
<line x1="264.4" y1="137.6" x2="297.1" y2="156.5" opacity="1.0" stroke="rgb(0,0,0)" stroke-width="2.0"/>
<line x1="266.0" y1="146.8" x2="288.3" y2="159.7" opacity="1.0" stroke="rgb(0,0,0)" stroke-width="2.0"/>
<line x1="297.1" y1="156.5" x2="297.1" y2="194.2" opacity="1.0" stroke="rgb(0,0,0)" stroke-width="2.0"/>
<line x1="297.1" y1="194.2" x2="264.4" y2="213.1" opacity="1.0" stroke="rgb(0,0,0)" stroke-width="2.0"/>
<line x1="288.3" y1="191.0" x2="266.0" y2="203.9" opacity="1.0" stroke="rgb(0,0,0)" stroke-width="2.0"/>
<line x1="100.8" y1="156.5" x2="68.1" y2="137.6" opacity="1.0" stroke="rgb(0,0,0)" stroke-width="2.0"/>
<line x1="68.1" y1="137.6" x2="68.1" y2="99.8" opacity="1.0" stroke="rgb(0,0,0)" stroke-width="2.0"/>
<line x1="75.3" y1="131.6" x2="75.3" y2="105.8" opacity="1.0" stroke="rgb(0,0,0)" stroke-width="2.0"/>
<line x1="100.8" y1="80.9" x2="133.5" y2="99.8" opacity="1.0" stroke="rgb(0,0,0)" stroke-width="2.0"/>
<line x1="102.4" y1="90.1" x2="124.7" y2="103.0" opacity="1.0" stroke="rgb(0,0,0)" stroke-width="2.0"/>
<line x1="133.5" y1="99.8" x2="133.5" y2="137.6" opacity="1.0" stroke="rgb(0,0,0)" stroke-width="2.0"/>
<line x1="133.5" y1="137.6" x2="100.8" y2="156.5" opacity="1.0" stroke="rgb(0,0,0)" stroke-width="2.0"/>
<line x1="124.7" y1="134.3" x2="102.4" y2="147.2" opacity="1.0" stroke="rgb(0,0,0)" stroke-width="2.0"/>
<text x="22.000000" y="82.511717" fill="rgb(12,12,255)" stroke-width="0" font-weight="bold" font-size="16">HN</text>
<text x="323.806482" y="221.123318" fill="rgb(12,12,255)" stroke-width="0" font-weight="bold" font-size="16">N</text>
</svg>
</g>
</svg>
