<svg xmlns="http://www.w3.org/2000/svg" xmlns:xlink="http://www.w3.org/1999/xlink" xmlns:cml="http://www.xml-cml.org/schema" version="1.1" id="topsvg" x="0" y="0" viewBox="0 0 100 100">
<title>A_7_N - Open Babel Depiction</title>
<rect x="0" y="0" width="100" height="100" fill="white"/>
<g transform="translate(0,0)">
<svg width="100" height="100" x="0" y="0" viewBox="0 0 463.284 349.51" font-family="sans-serif" stroke="rgb(0,0,0)" stroke-width="2" stroke-linecap="round">
<line x1="293.7" y1="234.7" x2="293.7" y2="172.8" opacity="1.0" stroke="rgb(0,0,0)" stroke-width="2.0"/>
<line x1="304.9" y1="153.3" x2="358.5" y2="122.4" opacity="1.0" stroke="rgb(0,0,0)" stroke-width="2.0"/>
<line x1="196.4" y1="103.7" x2="164.0" y2="85.0" opacity="1.0" stroke="rgb(0,0,0)" stroke-width="2.0"/>
<line x1="165.5" y1="87.6" x2="133.1" y2="106.3" opacity="1.0" stroke="rgb(0,0,0)" stroke-width="2.0"/>
<line x1="162.5" y1="82.4" x2="130.1" y2="101.1" opacity="1.0" stroke="rgb(0,0,0)" stroke-width="2.0"/>
<line x1="282.4" y1="153.3" x2="261.3" y2="141.1" opacity="1.0" stroke="rgb(0,0,0)" stroke-width="2.0"/>
<line x1="131.6" y1="103.7" x2="99.2" y2="85.0" opacity="1.0" stroke="rgb(0,0,0)" stroke-width="2.0"/>
<line x1="95.3" y1="47.8" x2="71.4" y2="42.7" opacity="1.0" stroke="rgb(0,0,0)" stroke-width="2.0"/>
<line x1="52.2" y1="51.3" x2="40.0" y2="72.4" opacity="1.0" stroke="rgb(0,0,0)" stroke-width="2.0"/>
<line x1="40.0" y1="72.4" x2="65.0" y2="100.2" opacity="1.0" stroke="rgb(0,0,0)" stroke-width="2.0"/>
<line x1="49.4" y1="72.0" x2="66.4" y2="90.9" opacity="1.0" stroke="rgb(0,0,0)" stroke-width="2.0"/>
<line x1="65.0" y1="100.2" x2="99.2" y2="85.0" opacity="1.0" stroke="rgb(0,0,0)" stroke-width="2.0"/>
<line x1="99.2" y1="85.0" x2="95.3" y2="47.8" opacity="1.0" stroke="rgb(0,0,0)" stroke-width="2.0"/>
<line x1="91.4" y1="79.8" x2="88.8" y2="54.5" opacity="1.0" stroke="rgb(0,0,0)" stroke-width="2.0"/>
<line x1="261.3" y1="290.8" x2="261.3" y2="253.4" opacity="1.0" stroke="rgb(0,0,0)" stroke-width="2.0"/>
<line x1="261.3" y1="253.4" x2="293.7" y2="234.7" opacity="1.0" stroke="rgb(0,0,0)" stroke-width="2.0"/>
<line x1="270.0" y1="256.6" x2="292.1" y2="243.9" opacity="1.0" stroke="rgb(0,0,0)" stroke-width="2.0"/>
<line x1="293.7" y1="234.7" x2="326.1" y2="253.4" opacity="1.0" stroke="rgb(0,0,0)" stroke-width="2.0"/>
<line x1="326.1" y1="253.4" x2="326.1" y2="290.8" opacity="1.0" stroke="rgb(0,0,0)" stroke-width="2.0"/>
<line x1="318.9" y1="259.4" x2="318.9" y2="284.8" opacity="1.0" stroke="rgb(0,0,0)" stroke-width="2.0"/>
<line x1="326.1" y1="290.8" x2="293.7" y2="309.5" opacity="1.0" stroke="rgb(0,0,0)" stroke-width="2.0"/>
<line x1="293.7" y1="309.5" x2="261.3" y2="290.8" opacity="1.0" stroke="rgb(0,0,0)" stroke-width="2.0"/>
<line x1="292.1" y1="300.3" x2="270.0" y2="287.6" opacity="1.0" stroke="rgb(0,0,0)" stroke-width="2.0"/>
<line x1="358.5" y1="85.0" x2="390.9" y2="66.3" opacity="1.0" stroke="rgb(0,0,0)" stroke-width="2.0"/>
<line x1="390.9" y1="66.3" x2="423.3" y2="85.0" opacity="1.0" stroke="rgb(0,0,0)" stroke-width="2.0"/>
<line x1="392.5" y1="75.5" x2="414.5" y2="88.2" opacity="1.0" stroke="rgb(0,0,0)" stroke-width="2.0"/>
<line x1="423.3" y1="85.0" x2="423.3" y2="122.4" opacity="1.0" stroke="rgb(0,0,0)" stroke-width="2.0"/>
<line x1="423.3" y1="122.4" x2="390.9" y2="141.1" opacity="1.0" stroke="rgb(0,0,0)" stroke-width="2.0"/>
<line x1="414.5" y1="119.2" x2="392.5" y2="131.9" opacity="1.0" stroke="rgb(0,0,0)" stroke-width="2.0"/>
<line x1="390.9" y1="141.1" x2="358.5" y2="122.4" opacity="1.0" stroke="rgb(0,0,0)" stroke-width="2.0"/>
<line x1="358.5" y1="122.4" x2="358.5" y2="85.0" opacity="1.0" stroke="rgb(0,0,0)" stroke-width="2.0"/>
<line x1="365.7" y1="116.4" x2="365.7" y2="91.0" opacity="1.0" stroke="rgb(0,0,0)" stroke-width="2.0"/>
<line x1="228.8" y1="159.8" x2="196.4" y2="141.1" opacity="1.0" stroke="rgb(0,0,0)" stroke-width="2.0"/>
<line x1="196.4" y1="141.1" x2="196.4" y2="103.7" opacity="1.0" stroke="rgb(0,0,0)" stroke-width="2.0"/>
<line x1="203.6" y1="135.1" x2="203.6" y2="109.7" opacity="1.0" stroke="rgb(0,0,0)" stroke-width="2.0"/>
<line x1="196.4" y1="103.7" x2="228.8" y2="85.0" opacity="1.0" stroke="rgb(0,0,0)" stroke-width="2.0"/>
<line x1="228.8" y1="85.0" x2="261.3" y2="103.7" opacity="1.0" stroke="rgb(0,0,0)" stroke-width="2.0"/>
<line x1="230.4" y1="94.2" x2="252.5" y2="106.9" opacity="1.0" stroke="rgb(0,0,0)" stroke-width="2.0"/>
<line x1="261.3" y1="103.7" x2="261.3" y2="141.1" opacity="1.0" stroke="rgb(0,0,0)" stroke-width="2.0"/>
<line x1="261.3" y1="141.1" x2="228.8" y2="159.8" opacity="1.0" stroke="rgb(0,0,0)" stroke-width="2.0"/>
<line x1="252.5" y1="137.9" x2="230.4" y2="150.6" opacity="1.0" stroke="rgb(0,0,0)" stroke-width="2.0"/>
<text x="52.709677" y="48.000000" fill="rgb(178,178,0)" stroke-width="0" font-weight="bold" font-size="16">S</text>
<text x="287.659389" y="167.832999" fill="rgb(12,12,255)" stroke-width="0" font-weight="bold" font-size="16">N</text>
</svg>
</g>
</svg>