<svg xmlns="http://www.w3.org/2000/svg" x="0" y="0" viewBox="0 0 100 100">
<title>A_7_M - Open Babel Depiction</title>
<rect x="0" y="0" width="100" height="100" fill="white"/>
<g transform="translate(0,0)">
<svg width="100" height="100" x="0" y="0" viewBox="0 0 536.446 381.176" font-family="sans-serif" stroke="rgb(0,0,0)" stroke-width="2" stroke-linecap="round">
<line x1="431.2" y1="228.2" x2="377.3" y2="197.1" opacity="1.0" stroke="rgb(0,0,0)" stroke-width="2.0"/>
<line x1="366.0" y1="177.6" x2="366.0" y2="115.3" opacity="1.0" stroke="rgb(0,0,0)" stroke-width="2.0"/>
<line x1="268.2" y1="247.1" x2="235.6" y2="265.9" opacity="1.0" stroke="rgb(0,0,0)" stroke-width="2.0"/>
<line x1="234.1" y1="268.5" x2="201.5" y2="249.7" opacity="1.0" stroke="rgb(0,0,0)" stroke-width="2.0"/>
<line x1="237.1" y1="263.3" x2="204.5" y2="244.5" opacity="1.0" stroke="rgb(0,0,0)" stroke-width="2.0"/>
<line x1="354.8" y1="197.1" x2="333.4" y2="209.4" opacity="1.0" stroke="rgb(0,0,0)" stroke-width="2.0"/>
<line x1="72.6" y1="322.4" x2="51.3" y2="334.7" opacity="1.0" stroke="rgb(0,0,0)" stroke-width="2.0"/>
<line x1="74.7" y1="326.0" x2="53.4" y2="338.3" opacity="1.0" stroke="rgb(0,0,0)" stroke-width="2.0"/>
<line x1="70.5" y1="318.7" x2="49.2" y2="331.0" opacity="1.0" stroke="rgb(0,0,0)" stroke-width="2.0"/>
<line x1="105.2" y1="303.5" x2="72.6" y2="322.4" opacity="1.0" stroke="rgb(0,0,0)" stroke-width="2.0"/>
<line x1="203.0" y1="247.1" x2="170.4" y2="265.9" opacity="1.0" stroke="rgb(0,0,0)" stroke-width="2.0"/>
<line x1="463.8" y1="284.7" x2="431.2" y2="265.9" opacity="1.0" stroke="rgb(0,0,0)" stroke-width="2.0"/>
<line x1="431.2" y1="265.9" x2="431.2" y2="228.2" opacity="1.0" stroke="rgb(0,0,0)" stroke-width="2.0"/>
<line x1="438.4" y1="259.9" x2="438.4" y2="234.2" opacity="1.0" stroke="rgb(0,0,0)" stroke-width="2.0"/>
<line x1="431.2" y1="228.2" x2="463.8" y2="209.4" opacity="1.0" stroke="rgb(0,0,0)" stroke-width="2.0"/>
<line x1="463.8" y1="209.4" x2="496.4" y2="228.2" opacity="1.0" stroke="rgb(0,0,0)" stroke-width="2.0"/>
<line x1="465.4" y1="218.6" x2="487.7" y2="231.5" opacity="1.0" stroke="rgb(0,0,0)" stroke-width="2.0"/>
<line x1="496.4" y1="228.2" x2="496.4" y2="265.9" opacity="1.0" stroke="rgb(0,0,0)" stroke-width="2.0"/>
<line x1="496.4" y1="265.9" x2="463.8" y2="284.7" opacity="1.0" stroke="rgb(0,0,0)" stroke-width="2.0"/>
<line x1="487.7" y1="262.6" x2="465.4" y2="275.5" opacity="1.0" stroke="rgb(0,0,0)" stroke-width="2.0"/>
<line x1="333.4" y1="96.5" x2="333.4" y2="58.8" opacity="1.0" stroke="rgb(0,0,0)" stroke-width="2.0"/>
<line x1="333.4" y1="58.8" x2="366.0" y2="40.0" opacity="1.0" stroke="rgb(0,0,0)" stroke-width="2.0"/>
<line x1="342.2" y1="62.1" x2="364.4" y2="49.2" opacity="1.0" stroke="rgb(0,0,0)" stroke-width="2.0"/>
<line x1="366.0" y1="40.0" x2="398.6" y2="58.8" opacity="1.0" stroke="rgb(0,0,0)" stroke-width="2.0"/>
<line x1="398.6" y1="58.8" x2="398.6" y2="96.5" opacity="1.0" stroke="rgb(0,0,0)" stroke-width="2.0"/>
<line x1="391.4" y1="64.8" x2="391.4" y2="90.5" opacity="1.0" stroke="rgb(0,0,0)" stroke-width="2.0"/>
<line x1="398.6" y1="96.5" x2="366.0" y2="115.3" opacity="1.0" stroke="rgb(0,0,0)" stroke-width="2.0"/>
<line x1="366.0" y1="115.3" x2="333.4" y2="96.5" opacity="1.0" stroke="rgb(0,0,0)" stroke-width="2.0"/>
<line x1="364.4" y1="106.1" x2="342.2" y2="93.2" opacity="1.0" stroke="rgb(0,0,0)" stroke-width="2.0"/>
<line x1="333.4" y1="247.1" x2="300.8" y2="265.9" opacity="1.0" stroke="rgb(0,0,0)" stroke-width="2.0"/>
<line x1="300.8" y1="265.9" x2="268.2" y2="247.1" opacity="1.0" stroke="rgb(0,0,0)" stroke-width="2.0"/>
<line x1="299.2" y1="256.6" x2="277.0" y2="243.8" opacity="1.0" stroke="rgb(0,0,0)" stroke-width="2.0"/>
<line x1="268.2" y1="247.1" x2="268.2" y2="209.4" opacity="1.0" stroke="rgb(0,0,0)" stroke-width="2.0"/>
<line x1="268.2" y1="209.4" x2="300.8" y2="190.6" opacity="1.0" stroke="rgb(0,0,0)" stroke-width="2.0"/>
<line x1="277.0" y1="212.6" x2="299.2" y2="199.8" opacity="1.0" stroke="rgb(0,0,0)" stroke-width="2.0"/>
<line x1="300.8" y1="190.6" x2="333.4" y2="209.4" opacity="1.0" stroke="rgb(0,0,0)" stroke-width="2.0"/>
<line x1="333.4" y1="209.4" x2="333.4" y2="247.1" opacity="1.0" stroke="rgb(0,0,0)" stroke-width="2.0"/>
<line x1="326.2" y1="215.4" x2="326.2" y2="241.1" opacity="1.0" stroke="rgb(0,0,0)" stroke-width="2.0"/>
<line x1="170.4" y1="303.5" x2="137.8" y2="322.4" opacity="1.0" stroke="rgb(0,0,0)" stroke-width="2.0"/>
<line x1="137.8" y1="322.4" x2="105.2" y2="303.5" opacity="1.0" stroke="rgb(0,0,0)" stroke-width="2.0"/>
<line x1="136.2" y1="313.1" x2="114.0" y2="300.3" opacity="1.0" stroke="rgb(0,0,0)" stroke-width="2.0"/>
<line x1="105.2" y1="303.5" x2="105.2" y2="265.9" opacity="1.0" stroke="rgb(0,0,0)" stroke-width="2.0"/>
<line x1="105.2" y1="265.9" x2="137.8" y2="247.1" opacity="1.0" stroke="rgb(0,0,0)" stroke-width="2.0"/>
<line x1="114.0" y1="269.1" x2="136.2" y2="256.3" opacity="1.0" stroke="rgb(0,0,0)" stroke-width="2.0"/>
<line x1="137.8" y1="247.1" x2="170.4" y2="265.9" opacity="1.0" stroke="rgb(0,0,0)" stroke-width="2.0"/>
<line x1="170.4" y1="265.9" x2="170.4" y2="303.5" opacity="1.0" stroke="rgb(0,0,0)" stroke-width="2.0"/>
<line x1="163.2" y1="271.9" x2="163.2" y2="297.5" opacity="1.0" stroke="rgb(0,0,0)" stroke-width="2.0"/>
<text x="34.000000" y="349.176471" fill="rgb(12,12,255)" stroke-width="0" font-weight="bold" font-size="16">N</text>
<text x="360.033093" y="198.588235" fill="rgb(12,12,255)" stroke-width="0" font-weight="bold" font-size="16">N</text>
</svg>
</g>
</svg>
