<svg xmlns="http://www.w3.org/2000/svg" x="0" y="0" viewBox="0 0 100 100">
<title>A_8_T - Open Babel Depiction</title>
<rect x="0" y="0" width="100" height="100" fill="white"/>
<g transform="translate(0,0)">
<svg width="100" height="100" x="0" y="0" viewBox="0 0 439.277 362.857" font-family="sans-serif" stroke="rgb(0,0,0)" stroke-width="2" stroke-linecap="round">
<line x1="334.0" y1="228.6" x2="279.9" y2="197.4" opacity="1.0" stroke="rgb(0,0,0)" stroke-width="2.0"/>
<line x1="268.6" y1="177.9" x2="268.6" y2="115.4" opacity="1.0" stroke="rgb(0,0,0)" stroke-width="2.0"/>
<line x1="257.4" y1="197.4" x2="236.0" y2="209.7" opacity="1.0" stroke="rgb(0,0,0)" stroke-width="2.0"/>
<line x1="72.7" y1="304.0" x2="51.3" y2="316.4" opacity="1.0" stroke="rgb(0,0,0)" stroke-width="2.0"/>
<line x1="170.6" y1="247.4" x2="138.0" y2="266.3" opacity="1.0" stroke="rgb(0,0,0)" stroke-width="2.0"/>
<line x1="253.9" y1="295.2" x2="258.7" y2="284.5" opacity="1.0" stroke="rgb(0,0,0)" stroke-width="2.0"/>
<line x1="254.7" y1="264.3" x2="236.0" y2="247.4" opacity="1.0" stroke="rgb(0,0,0)" stroke-width="2.0"/>
<line x1="248.3" y1="268.2" x2="235.6" y2="256.8" opacity="1.0" stroke="rgb(0,0,0)" stroke-width="2.0"/>
<line x1="236.0" y1="247.4" x2="203.3" y2="266.3" opacity="1.0" stroke="rgb(0,0,0)" stroke-width="2.0"/>
<line x1="203.3" y1="266.3" x2="208.6" y2="291.0" opacity="1.0" stroke="rgb(0,0,0)" stroke-width="2.0"/>
<line x1="211.6" y1="270.7" x2="215.1" y2="287.3" opacity="1.0" stroke="rgb(0,0,0)" stroke-width="2.0"/>
<line x1="224.1" y1="304.5" x2="235.7" y2="305.8" opacity="1.0" stroke="rgb(0,0,0)" stroke-width="2.0"/>
<line x1="366.6" y1="285.1" x2="334.0" y2="266.3" opacity="1.0" stroke="rgb(0,0,0)" stroke-width="2.0"/>
<line x1="334.0" y1="266.3" x2="334.0" y2="228.6" opacity="1.0" stroke="rgb(0,0,0)" stroke-width="2.0"/>
<line x1="341.2" y1="260.3" x2="341.2" y2="234.6" opacity="1.0" stroke="rgb(0,0,0)" stroke-width="2.0"/>
<line x1="334.0" y1="228.6" x2="366.6" y2="209.7" opacity="1.0" stroke="rgb(0,0,0)" stroke-width="2.0"/>
<line x1="366.6" y1="209.7" x2="399.3" y2="228.6" opacity="1.0" stroke="rgb(0,0,0)" stroke-width="2.0"/>
<line x1="368.2" y1="218.9" x2="390.5" y2="231.8" opacity="1.0" stroke="rgb(0,0,0)" stroke-width="2.0"/>
<line x1="399.3" y1="228.6" x2="399.3" y2="266.3" opacity="1.0" stroke="rgb(0,0,0)" stroke-width="2.0"/>
<line x1="399.3" y1="266.3" x2="366.6" y2="285.1" opacity="1.0" stroke="rgb(0,0,0)" stroke-width="2.0"/>
<line x1="390.5" y1="263.1" x2="368.2" y2="275.9" opacity="1.0" stroke="rgb(0,0,0)" stroke-width="2.0"/>
<line x1="236.0" y1="96.6" x2="236.0" y2="58.9" opacity="1.0" stroke="rgb(0,0,0)" stroke-width="2.0"/>
<line x1="236.0" y1="58.9" x2="268.6" y2="40.0" opacity="1.0" stroke="rgb(0,0,0)" stroke-width="2.0"/>
<line x1="244.8" y1="62.1" x2="267.0" y2="49.2" opacity="1.0" stroke="rgb(0,0,0)" stroke-width="2.0"/>
<line x1="268.6" y1="40.0" x2="301.3" y2="58.9" opacity="1.0" stroke="rgb(0,0,0)" stroke-width="2.0"/>
<line x1="301.3" y1="58.9" x2="301.3" y2="96.6" opacity="1.0" stroke="rgb(0,0,0)" stroke-width="2.0"/>
<line x1="294.1" y1="64.9" x2="294.1" y2="90.6" opacity="1.0" stroke="rgb(0,0,0)" stroke-width="2.0"/>
<line x1="301.3" y1="96.6" x2="268.6" y2="115.4" opacity="1.0" stroke="rgb(0,0,0)" stroke-width="2.0"/>
<line x1="268.6" y1="115.4" x2="236.0" y2="96.6" opacity="1.0" stroke="rgb(0,0,0)" stroke-width="2.0"/>
<line x1="267.0" y1="106.2" x2="244.8" y2="93.3" opacity="1.0" stroke="rgb(0,0,0)" stroke-width="2.0"/>
<line x1="203.3" y1="190.9" x2="170.6" y2="209.7" opacity="1.0" stroke="rgb(0,0,0)" stroke-width="2.0"/>
<line x1="170.6" y1="209.7" x2="170.6" y2="247.4" opacity="1.0" stroke="rgb(0,0,0)" stroke-width="2.0"/>
<line x1="177.8" y1="215.7" x2="177.8" y2="241.4" opacity="1.0" stroke="rgb(0,0,0)" stroke-width="2.0"/>
<line x1="170.6" y1="247.4" x2="203.3" y2="266.3" opacity="1.0" stroke="rgb(0,0,0)" stroke-width="2.0"/>
<line x1="236.0" y1="247.4" x2="236.0" y2="209.7" opacity="1.0" stroke="rgb(0,0,0)" stroke-width="2.0"/>
<line x1="236.0" y1="209.7" x2="203.3" y2="190.9" opacity="1.0" stroke="rgb(0,0,0)" stroke-width="2.0"/>
<line x1="227.2" y1="212.9" x2="204.9" y2="200.1" opacity="1.0" stroke="rgb(0,0,0)" stroke-width="2.0"/>
<line x1="138.0" y1="304.0" x2="105.3" y2="322.9" opacity="1.0" stroke="rgb(0,0,0)" stroke-width="2.0"/>
<line x1="105.3" y1="322.9" x2="72.7" y2="304.0" opacity="1.0" stroke="rgb(0,0,0)" stroke-width="2.0"/>
<line x1="103.7" y1="313.6" x2="81.5" y2="300.8" opacity="1.0" stroke="rgb(0,0,0)" stroke-width="2.0"/>
<line x1="72.7" y1="304.0" x2="72.7" y2="266.3" opacity="1.0" stroke="rgb(0,0,0)" stroke-width="2.0"/>
<line x1="72.7" y1="266.3" x2="105.3" y2="247.4" opacity="1.0" stroke="rgb(0,0,0)" stroke-width="2.0"/>
<line x1="81.5" y1="269.5" x2="103.7" y2="256.7" opacity="1.0" stroke="rgb(0,0,0)" stroke-width="2.0"/>
<line x1="105.3" y1="247.4" x2="138.0" y2="266.3" opacity="1.0" stroke="rgb(0,0,0)" stroke-width="2.0"/>
<line x1="138.0" y1="266.3" x2="138.0" y2="304.0" opacity="1.0" stroke="rgb(0,0,0)" stroke-width="2.0"/>
<line x1="130.8" y1="272.3" x2="130.8" y2="298.0" opacity="1.0" stroke="rgb(0,0,0)" stroke-width="2.0"/>
<text x="14.000000" y="330.857143" fill="rgb(102,102,102)" stroke-width="0" font-weight="bold" font-size="16">H</text>
<text x="26.000000" y="334.537143" fill="rgb(102,102,102)" stroke-width="0" font-weight="bold" font-size="13">3</text>
<text x="32.500000" y="330.857143" fill="rgb(102,102,102)" stroke-width="0" font-weight="bold" font-size="16">C</text>
<text x="257.996353" y="280.664354" fill="rgb(12,12,255)" stroke-width="0" font-weight="bold" font-size="16">N</text>
<text x="242.656571" y="315.118069" fill="rgb(178,178,0)" stroke-width="0" font-weight="bold" font-size="16">S</text>
<text x="205.148888" y="311.175852" fill="rgb(12,12,255)" stroke-width="0" font-weight="bold" font-size="16">N</text>
<text x="262.630707" y="198.857143" fill="rgb(12,12,255)" stroke-width="0" font-weight="bold" font-size="16">N</text>
</svg>
</g>
</svg>
