<svg xmlns="http://www.w3.org/2000/svg" xmlns:xlink="http://www.w3.org/1999/xlink" xmlns:cml="http://www.xml-cml.org/schema" version="1.1" id="topsvg" x="0" y="0" viewBox="0 0 100 100">
<title>A_9_O - Open Babel Depiction</title>
<rect x="0" y="0" width="100" height="100" fill="white"/>
<g transform="translate(0,0)">
<svg width="100" height="100" x="0" y="0" viewBox="0 0 403.316 322.667" font-family="sans-serif" stroke="rgb(0,0,0)" stroke-width="2" stroke-linecap="round">
<line x1="298.7" y1="226.7" x2="245.2" y2="195.8" opacity="1.0" stroke="rgb(0,0,0)" stroke-width="2.0"/>
<line x1="234.0" y1="176.3" x2="234.0" y2="114.7" opacity="1.0" stroke="rgb(0,0,0)" stroke-width="2.0"/>
<line x1="222.7" y1="195.8" x2="201.7" y2="208.0" opacity="1.0" stroke="rgb(0,0,0)" stroke-width="2.0"/>
<line x1="137.0" y1="208.0" x2="104.7" y2="189.3" opacity="1.0" stroke="rgb(0,0,0)" stroke-width="2.0"/>
<line x1="331.0" y1="282.7" x2="298.7" y2="264.0" opacity="1.0" stroke="rgb(0,0,0)" stroke-width="2.0"/>
<line x1="298.7" y1="264.0" x2="298.7" y2="226.7" opacity="1.0" stroke="rgb(0,0,0)" stroke-width="2.0"/>
<line x1="305.9" y1="258.0" x2="305.9" y2="232.7" opacity="1.0" stroke="rgb(0,0,0)" stroke-width="2.0"/>
<line x1="298.7" y1="226.7" x2="331.0" y2="208.0" opacity="1.0" stroke="rgb(0,0,0)" stroke-width="2.0"/>
<line x1="331.0" y1="208.0" x2="363.3" y2="226.7" opacity="1.0" stroke="rgb(0,0,0)" stroke-width="2.0"/>
<line x1="332.6" y1="217.2" x2="354.5" y2="229.9" opacity="1.0" stroke="rgb(0,0,0)" stroke-width="2.0"/>
<line x1="363.3" y1="226.7" x2="363.3" y2="264.0" opacity="1.0" stroke="rgb(0,0,0)" stroke-width="2.0"/>
<line x1="363.3" y1="264.0" x2="331.0" y2="282.7" opacity="1.0" stroke="rgb(0,0,0)" stroke-width="2.0"/>
<line x1="354.5" y1="260.8" x2="332.6" y2="273.4" opacity="1.0" stroke="rgb(0,0,0)" stroke-width="2.0"/>
<line x1="201.7" y1="96.0" x2="201.7" y2="58.7" opacity="1.0" stroke="rgb(0,0,0)" stroke-width="2.0"/>
<line x1="201.7" y1="58.7" x2="234.0" y2="40.0" opacity="1.0" stroke="rgb(0,0,0)" stroke-width="2.0"/>
<line x1="210.5" y1="61.9" x2="232.4" y2="49.2" opacity="1.0" stroke="rgb(0,0,0)" stroke-width="2.0"/>
<line x1="234.0" y1="40.0" x2="266.3" y2="58.7" opacity="1.0" stroke="rgb(0,0,0)" stroke-width="2.0"/>
<line x1="266.3" y1="58.7" x2="266.3" y2="96.0" opacity="1.0" stroke="rgb(0,0,0)" stroke-width="2.0"/>
<line x1="259.1" y1="64.7" x2="259.1" y2="90.0" opacity="1.0" stroke="rgb(0,0,0)" stroke-width="2.0"/>
<line x1="266.3" y1="96.0" x2="234.0" y2="114.7" opacity="1.0" stroke="rgb(0,0,0)" stroke-width="2.0"/>
<line x1="234.0" y1="114.7" x2="201.7" y2="96.0" opacity="1.0" stroke="rgb(0,0,0)" stroke-width="2.0"/>
<line x1="232.4" y1="105.4" x2="210.5" y2="92.8" opacity="1.0" stroke="rgb(0,0,0)" stroke-width="2.0"/>
<line x1="201.7" y1="245.3" x2="169.3" y2="264.0" opacity="1.0" stroke="rgb(0,0,0)" stroke-width="2.0"/>
<line x1="169.3" y1="264.0" x2="137.0" y2="245.3" opacity="1.0" stroke="rgb(0,0,0)" stroke-width="2.0"/>
<line x1="167.7" y1="254.8" x2="145.8" y2="242.1" opacity="1.0" stroke="rgb(0,0,0)" stroke-width="2.0"/>
<line x1="137.0" y1="245.3" x2="137.0" y2="208.0" opacity="1.0" stroke="rgb(0,0,0)" stroke-width="2.0"/>
<line x1="137.0" y1="208.0" x2="169.3" y2="189.3" opacity="1.0" stroke="rgb(0,0,0)" stroke-width="2.0"/>
<line x1="145.8" y1="211.2" x2="167.7" y2="198.6" opacity="1.0" stroke="rgb(0,0,0)" stroke-width="2.0"/>
<line x1="169.3" y1="189.3" x2="201.7" y2="208.0" opacity="1.0" stroke="rgb(0,0,0)" stroke-width="2.0"/>
<line x1="201.7" y1="208.0" x2="201.7" y2="245.3" opacity="1.0" stroke="rgb(0,0,0)" stroke-width="2.0"/>
<line x1="194.5" y1="214.0" x2="194.5" y2="239.3" opacity="1.0" stroke="rgb(0,0,0)" stroke-width="2.0"/>
<line x1="61.1" y1="201.5" x2="40.0" y2="189.3" opacity="1.0" stroke="rgb(0,0,0)" stroke-width="2.0"/>
<line x1="40.0" y1="189.3" x2="40.0" y2="152.0" opacity="1.0" stroke="rgb(0,0,0)" stroke-width="2.0"/>
<line x1="47.2" y1="183.3" x2="47.2" y2="158.0" opacity="1.0" stroke="rgb(0,0,0)" stroke-width="2.0"/>
<line x1="40.0" y1="152.0" x2="72.3" y2="133.3" opacity="1.0" stroke="rgb(0,0,0)" stroke-width="2.0"/>
<line x1="72.3" y1="133.3" x2="104.7" y2="152.0" opacity="1.0" stroke="rgb(0,0,0)" stroke-width="2.0"/>
<line x1="73.9" y1="142.6" x2="95.9" y2="155.2" opacity="1.0" stroke="rgb(0,0,0)" stroke-width="2.0"/>
<line x1="104.7" y1="152.0" x2="104.7" y2="189.3" opacity="1.0" stroke="rgb(0,0,0)" stroke-width="2.0"/>
<line x1="104.7" y1="189.3" x2="83.0" y2="201.8" opacity="1.0" stroke="rgb(0,0,0)" stroke-width="2.0"/>
<line x1="95.9" y1="186.1" x2="81.4" y2="194.5" opacity="1.0" stroke="rgb(0,0,0)" stroke-width="2.0"/>
<text x="66.331615" y="216.000000" fill="rgb(12,12,255)" stroke-width="0" font-weight="bold" font-size="16">N</text>
<text x="227.989690" y="197.333333" fill="rgb(12,12,255)" stroke-width="0" font-weight="bold" font-size="16">N</text>
</svg>
</g>
</svg>