<svg xmlns="http://www.w3.org/2000/svg" x="0" y="0" viewBox="0 0 100 100">
<title>A_9_M - Open Babel Depiction</title>
<rect x="0" y="0" width="100" height="100" fill="white"/>
<g transform="translate(0,0)">
<svg width="100" height="100" x="0" y="0" viewBox="0 0 469.711 323.75" font-family="sans-serif" stroke="rgb(0,0,0)" stroke-width="2" stroke-linecap="round">
<line x1="105.0" y1="96.2" x2="158.6" y2="127.2" opacity="1.0" stroke="rgb(0,0,0)" stroke-width="2.0"/>
<line x1="169.9" y1="146.8" x2="169.9" y2="208.8" opacity="1.0" stroke="rgb(0,0,0)" stroke-width="2.0"/>
<line x1="181.2" y1="127.3" x2="202.4" y2="115.0" opacity="1.0" stroke="rgb(0,0,0)" stroke-width="2.0"/>
<line x1="397.2" y1="190.0" x2="418.5" y2="202.2" opacity="1.0" stroke="rgb(0,0,0)" stroke-width="2.0"/>
<line x1="399.3" y1="186.4" x2="420.6" y2="198.6" opacity="1.0" stroke="rgb(0,0,0)" stroke-width="2.0"/>
<line x1="395.1" y1="193.6" x2="416.4" y2="205.9" opacity="1.0" stroke="rgb(0,0,0)" stroke-width="2.0"/>
<line x1="364.8" y1="171.2" x2="397.2" y2="190.0" opacity="1.0" stroke="rgb(0,0,0)" stroke-width="2.0"/>
<line x1="267.3" y1="115.0" x2="299.8" y2="133.8" opacity="1.0" stroke="rgb(0,0,0)" stroke-width="2.0"/>
<line x1="72.5" y1="40.0" x2="105.0" y2="58.8" opacity="1.0" stroke="rgb(0,0,0)" stroke-width="2.0"/>
<line x1="105.0" y1="58.8" x2="105.0" y2="96.2" opacity="1.0" stroke="rgb(0,0,0)" stroke-width="2.0"/>
<line x1="97.8" y1="64.8" x2="97.8" y2="90.2" opacity="1.0" stroke="rgb(0,0,0)" stroke-width="2.0"/>
<line x1="105.0" y1="96.2" x2="72.5" y2="115.0" opacity="1.0" stroke="rgb(0,0,0)" stroke-width="2.0"/>
<line x1="72.5" y1="115.0" x2="40.0" y2="96.3" opacity="1.0" stroke="rgb(0,0,0)" stroke-width="2.0"/>
<line x1="70.9" y1="105.8" x2="48.8" y2="93.0" opacity="1.0" stroke="rgb(0,0,0)" stroke-width="2.0"/>
<line x1="40.0" y1="96.3" x2="40.0" y2="58.8" opacity="1.0" stroke="rgb(0,0,0)" stroke-width="2.0"/>
<line x1="40.0" y1="58.8" x2="72.5" y2="40.0" opacity="1.0" stroke="rgb(0,0,0)" stroke-width="2.0"/>
<line x1="48.8" y1="62.0" x2="70.9" y2="49.2" opacity="1.0" stroke="rgb(0,0,0)" stroke-width="2.0"/>
<line x1="202.4" y1="227.5" x2="202.4" y2="265.0" opacity="1.0" stroke="rgb(0,0,0)" stroke-width="2.0"/>
<line x1="202.4" y1="265.0" x2="169.9" y2="283.8" opacity="1.0" stroke="rgb(0,0,0)" stroke-width="2.0"/>
<line x1="193.6" y1="261.8" x2="171.5" y2="274.5" opacity="1.0" stroke="rgb(0,0,0)" stroke-width="2.0"/>
<line x1="169.9" y1="283.8" x2="137.4" y2="265.0" opacity="1.0" stroke="rgb(0,0,0)" stroke-width="2.0"/>
<line x1="137.4" y1="265.0" x2="137.4" y2="227.5" opacity="1.0" stroke="rgb(0,0,0)" stroke-width="2.0"/>
<line x1="144.6" y1="259.0" x2="144.6" y2="233.5" opacity="1.0" stroke="rgb(0,0,0)" stroke-width="2.0"/>
<line x1="137.4" y1="227.5" x2="169.9" y2="208.8" opacity="1.0" stroke="rgb(0,0,0)" stroke-width="2.0"/>
<line x1="169.9" y1="208.8" x2="202.4" y2="227.5" opacity="1.0" stroke="rgb(0,0,0)" stroke-width="2.0"/>
<line x1="171.5" y1="218.0" x2="193.6" y2="230.7" opacity="1.0" stroke="rgb(0,0,0)" stroke-width="2.0"/>
<line x1="202.4" y1="77.5" x2="234.9" y2="58.8" opacity="1.0" stroke="rgb(0,0,0)" stroke-width="2.0"/>
<line x1="234.9" y1="58.8" x2="267.3" y2="77.5" opacity="1.0" stroke="rgb(0,0,0)" stroke-width="2.0"/>
<line x1="236.5" y1="68.0" x2="258.5" y2="80.7" opacity="1.0" stroke="rgb(0,0,0)" stroke-width="2.0"/>
<line x1="267.3" y1="77.5" x2="267.3" y2="115.0" opacity="1.0" stroke="rgb(0,0,0)" stroke-width="2.0"/>
<line x1="267.3" y1="115.0" x2="234.9" y2="133.8" opacity="1.0" stroke="rgb(0,0,0)" stroke-width="2.0"/>
<line x1="258.5" y1="111.8" x2="236.5" y2="124.5" opacity="1.0" stroke="rgb(0,0,0)" stroke-width="2.0"/>
<line x1="234.9" y1="133.8" x2="202.4" y2="115.0" opacity="1.0" stroke="rgb(0,0,0)" stroke-width="2.0"/>
<line x1="202.4" y1="115.0" x2="202.4" y2="77.5" opacity="1.0" stroke="rgb(0,0,0)" stroke-width="2.0"/>
<line x1="209.6" y1="109.0" x2="209.6" y2="83.5" opacity="1.0" stroke="rgb(0,0,0)" stroke-width="2.0"/>
<line x1="332.3" y1="115.0" x2="364.8" y2="133.8" opacity="1.0" stroke="rgb(0,0,0)" stroke-width="2.0"/>
<line x1="364.8" y1="133.8" x2="364.8" y2="171.2" opacity="1.0" stroke="rgb(0,0,0)" stroke-width="2.0"/>
<line x1="357.6" y1="139.8" x2="357.6" y2="165.2" opacity="1.0" stroke="rgb(0,0,0)" stroke-width="2.0"/>
<line x1="364.8" y1="171.2" x2="332.3" y2="190.0" opacity="1.0" stroke="rgb(0,0,0)" stroke-width="2.0"/>
<line x1="332.3" y1="190.0" x2="299.8" y2="171.3" opacity="1.0" stroke="rgb(0,0,0)" stroke-width="2.0"/>
<line x1="330.7" y1="180.8" x2="308.6" y2="168.0" opacity="1.0" stroke="rgb(0,0,0)" stroke-width="2.0"/>
<line x1="299.8" y1="171.3" x2="299.8" y2="133.8" opacity="1.0" stroke="rgb(0,0,0)" stroke-width="2.0"/>
<line x1="299.8" y1="133.8" x2="332.3" y2="115.0" opacity="1.0" stroke="rgb(0,0,0)" stroke-width="2.0"/>
<line x1="308.6" y1="137.0" x2="330.7" y2="124.2" opacity="1.0" stroke="rgb(0,0,0)" stroke-width="2.0"/>
<text x="423.711432" y="216.750000" fill="rgb(12,12,255)" stroke-width="0" font-weight="bold" font-size="16">N</text>
<text x="163.903811" y="141.750000" fill="rgb(12,12,255)" stroke-width="0" font-weight="bold" font-size="16">N</text>
</svg>
</g>
</svg>
