<svg xmlns="http://www.w3.org/2000/svg" x="0" y="0" viewBox="0 0 100 100">
<title>A_9_N - Open Babel Depiction</title>
<rect x="0" y="0" width="100" height="100" fill="white"/>
<g transform="translate(0,0)">
<svg width="100" height="100" x="0" y="0" viewBox="0 0 396.957 322.069" font-family="sans-serif" stroke="rgb(0,0,0)" stroke-width="2" stroke-linecap="round">
<line x1="104.5" y1="95.9" x2="157.7" y2="126.6" opacity="1.0" stroke="rgb(0,0,0)" stroke-width="2.0"/>
<line x1="169.0" y1="146.1" x2="169.0" y2="207.6" opacity="1.0" stroke="rgb(0,0,0)" stroke-width="2.0"/>
<line x1="180.3" y1="126.6" x2="201.3" y2="114.5" opacity="1.0" stroke="rgb(0,0,0)" stroke-width="2.0"/>
<line x1="265.8" y1="114.5" x2="298.0" y2="133.1" opacity="1.0" stroke="rgb(0,0,0)" stroke-width="2.0"/>
<line x1="332.0" y1="118.0" x2="348.3" y2="136.0" opacity="1.0" stroke="rgb(0,0,0)" stroke-width="2.0"/>
<line x1="350.5" y1="156.9" x2="338.3" y2="177.9" opacity="1.0" stroke="rgb(0,0,0)" stroke-width="2.0"/>
<line x1="338.3" y1="177.9" x2="301.9" y2="170.1" opacity="1.0" stroke="rgb(0,0,0)" stroke-width="2.0"/>
<line x1="334.0" y1="169.6" x2="309.3" y2="164.3" opacity="1.0" stroke="rgb(0,0,0)" stroke-width="2.0"/>
<line x1="301.9" y1="170.1" x2="298.0" y2="133.1" opacity="1.0" stroke="rgb(0,0,0)" stroke-width="2.0"/>
<line x1="298.0" y1="133.1" x2="332.0" y2="118.0" opacity="1.0" stroke="rgb(0,0,0)" stroke-width="2.0"/>
<line x1="306.4" y1="137.2" x2="329.5" y2="127.0" opacity="1.0" stroke="rgb(0,0,0)" stroke-width="2.0"/>
<line x1="72.3" y1="40.0" x2="104.5" y2="58.6" opacity="1.0" stroke="rgb(0,0,0)" stroke-width="2.0"/>
<line x1="104.5" y1="58.6" x2="104.5" y2="95.9" opacity="1.0" stroke="rgb(0,0,0)" stroke-width="2.0"/>
<line x1="97.3" y1="64.6" x2="97.3" y2="89.9" opacity="1.0" stroke="rgb(0,0,0)" stroke-width="2.0"/>
<line x1="104.5" y1="95.9" x2="72.3" y2="114.5" opacity="1.0" stroke="rgb(0,0,0)" stroke-width="2.0"/>
<line x1="72.3" y1="114.5" x2="40.0" y2="95.9" opacity="1.0" stroke="rgb(0,0,0)" stroke-width="2.0"/>
<line x1="70.7" y1="105.2" x2="48.8" y2="92.6" opacity="1.0" stroke="rgb(0,0,0)" stroke-width="2.0"/>
<line x1="40.0" y1="95.9" x2="40.0" y2="58.6" opacity="1.0" stroke="rgb(0,0,0)" stroke-width="2.0"/>
<line x1="40.0" y1="58.6" x2="72.3" y2="40.0" opacity="1.0" stroke="rgb(0,0,0)" stroke-width="2.0"/>
<line x1="48.8" y1="61.9" x2="70.7" y2="49.2" opacity="1.0" stroke="rgb(0,0,0)" stroke-width="2.0"/>
<line x1="201.3" y1="226.2" x2="201.3" y2="263.4" opacity="1.0" stroke="rgb(0,0,0)" stroke-width="2.0"/>
<line x1="201.3" y1="263.4" x2="169.0" y2="282.1" opacity="1.0" stroke="rgb(0,0,0)" stroke-width="2.0"/>
<line x1="192.5" y1="260.2" x2="170.6" y2="272.8" opacity="1.0" stroke="rgb(0,0,0)" stroke-width="2.0"/>
<line x1="169.0" y1="282.1" x2="136.8" y2="263.4" opacity="1.0" stroke="rgb(0,0,0)" stroke-width="2.0"/>
<line x1="136.8" y1="263.4" x2="136.8" y2="226.2" opacity="1.0" stroke="rgb(0,0,0)" stroke-width="2.0"/>
<line x1="144.0" y1="257.4" x2="144.0" y2="232.2" opacity="1.0" stroke="rgb(0,0,0)" stroke-width="2.0"/>
<line x1="136.8" y1="226.2" x2="169.0" y2="207.6" opacity="1.0" stroke="rgb(0,0,0)" stroke-width="2.0"/>
<line x1="169.0" y1="207.6" x2="201.3" y2="226.2" opacity="1.0" stroke="rgb(0,0,0)" stroke-width="2.0"/>
<line x1="170.6" y1="216.8" x2="192.5" y2="229.4" opacity="1.0" stroke="rgb(0,0,0)" stroke-width="2.0"/>
<line x1="201.3" y1="77.2" x2="233.5" y2="58.6" opacity="1.0" stroke="rgb(0,0,0)" stroke-width="2.0"/>
<line x1="233.5" y1="58.6" x2="265.8" y2="77.2" opacity="1.0" stroke="rgb(0,0,0)" stroke-width="2.0"/>
<line x1="235.1" y1="67.9" x2="257.0" y2="80.5" opacity="1.0" stroke="rgb(0,0,0)" stroke-width="2.0"/>
<line x1="265.8" y1="77.2" x2="265.8" y2="114.5" opacity="1.0" stroke="rgb(0,0,0)" stroke-width="2.0"/>
<line x1="265.8" y1="114.5" x2="233.5" y2="133.1" opacity="1.0" stroke="rgb(0,0,0)" stroke-width="2.0"/>
<line x1="257.0" y1="111.2" x2="235.1" y2="123.9" opacity="1.0" stroke="rgb(0,0,0)" stroke-width="2.0"/>
<line x1="233.5" y1="133.1" x2="201.3" y2="114.5" opacity="1.0" stroke="rgb(0,0,0)" stroke-width="2.0"/>
<line x1="201.3" y1="114.5" x2="201.3" y2="77.2" opacity="1.0" stroke="rgb(0,0,0)" stroke-width="2.0"/>
<line x1="208.5" y1="108.5" x2="208.5" y2="83.2" opacity="1.0" stroke="rgb(0,0,0)" stroke-width="2.0"/>
<text x="350.956884" y="153.631753" fill="rgb(178,178,0)" stroke-width="0" font-weight="bold" font-size="16">S</text>
<text x="163.007922" y="141.103448" fill="rgb(12,12,255)" stroke-width="0" font-weight="bold" font-size="16">N</text>
</svg>
</g>
</svg>
