<svg xmlns="http://www.w3.org/2000/svg" x="0" y="0" viewBox="0 0 100 100">
<title>B_10_R - Open Babel Depiction</title>
<rect x="0" y="0" width="100" height="100" fill="white"/>
<g transform="translate(0,0)">
<svg width="100" height="100" x="0" y="0" viewBox="0 0 506.631 421.053" font-family="sans-serif" stroke="rgb(0,0,0)" stroke-width="2" stroke-linecap="round">
<line x1="368.2" y1="286.3" x2="313.8" y2="254.9" opacity="1.0" stroke="rgb(0,0,0)" stroke-width="2.0"/>
<line x1="302.5" y1="235.4" x2="302.5" y2="172.6" opacity="1.0" stroke="rgb(0,0,0)" stroke-width="2.0"/>
<line x1="466.6" y1="356.2" x2="466.6" y2="368.1" opacity="1.0" stroke="rgb(0,0,0)" stroke-width="2.0"/>
<line x1="433.8" y1="324.2" x2="455.4" y2="336.7" opacity="1.0" stroke="rgb(0,0,0)" stroke-width="2.0"/>
<line x1="313.8" y1="52.4" x2="324.1" y2="46.5" opacity="1.0" stroke="rgb(0,0,0)" stroke-width="2.0"/>
<line x1="302.5" y1="96.8" x2="302.5" y2="71.9" opacity="1.0" stroke="rgb(0,0,0)" stroke-width="2.0"/>
<line x1="236.9" y1="324.2" x2="236.9" y2="349.1" opacity="1.0" stroke="rgb(0,0,0)" stroke-width="2.0"/>
<line x1="291.3" y1="254.9" x2="269.7" y2="267.4" opacity="1.0" stroke="rgb(0,0,0)" stroke-width="2.0"/>
<line x1="69.8" y1="178.6" x2="69.8" y2="166.7" opacity="1.0" stroke="rgb(0,0,0)" stroke-width="2.0"/>
<line x1="75.8" y1="178.6" x2="75.8" y2="166.7" opacity="1.0" stroke="rgb(0,0,0)" stroke-width="2.0"/>
<line x1="61.6" y1="198.1" x2="51.3" y2="204.0" opacity="1.0" stroke="rgb(0,0,0)" stroke-width="2.0"/>
<line x1="105.6" y1="210.5" x2="84.1" y2="198.1" opacity="1.0" stroke="rgb(0,0,0)" stroke-width="2.0"/>
<line x1="204.1" y1="267.4" x2="171.3" y2="248.4" opacity="1.0" stroke="rgb(0,0,0)" stroke-width="2.0"/>
<line x1="401.0" y1="343.2" x2="368.2" y2="324.2" opacity="1.0" stroke="rgb(0,0,0)" stroke-width="2.0"/>
<line x1="368.2" y1="324.2" x2="368.2" y2="286.3" opacity="1.0" stroke="rgb(0,0,0)" stroke-width="2.0"/>
<line x1="375.4" y1="318.2" x2="375.4" y2="292.3" opacity="1.0" stroke="rgb(0,0,0)" stroke-width="2.0"/>
<line x1="368.2" y1="286.3" x2="401.0" y2="267.4" opacity="1.0" stroke="rgb(0,0,0)" stroke-width="2.0"/>
<line x1="401.0" y1="267.4" x2="433.8" y2="286.3" opacity="1.0" stroke="rgb(0,0,0)" stroke-width="2.0"/>
<line x1="402.6" y1="276.6" x2="425.0" y2="289.6" opacity="1.0" stroke="rgb(0,0,0)" stroke-width="2.0"/>
<line x1="433.8" y1="286.3" x2="433.8" y2="324.2" opacity="1.0" stroke="rgb(0,0,0)" stroke-width="2.0"/>
<line x1="433.8" y1="324.2" x2="401.0" y2="343.2" opacity="1.0" stroke="rgb(0,0,0)" stroke-width="2.0"/>
<line x1="425.0" y1="321.0" x2="402.6" y2="333.9" opacity="1.0" stroke="rgb(0,0,0)" stroke-width="2.0"/>
<line x1="269.7" y1="153.7" x2="269.7" y2="115.8" opacity="1.0" stroke="rgb(0,0,0)" stroke-width="2.0"/>
<line x1="269.7" y1="115.8" x2="302.5" y2="96.8" opacity="1.0" stroke="rgb(0,0,0)" stroke-width="2.0"/>
<line x1="278.5" y1="119.0" x2="300.9" y2="106.1" opacity="1.0" stroke="rgb(0,0,0)" stroke-width="2.0"/>
<line x1="302.5" y1="96.8" x2="335.4" y2="115.8" opacity="1.0" stroke="rgb(0,0,0)" stroke-width="2.0"/>
<line x1="335.4" y1="115.8" x2="335.4" y2="153.7" opacity="1.0" stroke="rgb(0,0,0)" stroke-width="2.0"/>
<line x1="328.2" y1="121.8" x2="328.2" y2="147.7" opacity="1.0" stroke="rgb(0,0,0)" stroke-width="2.0"/>
<line x1="335.4" y1="153.7" x2="302.5" y2="172.6" opacity="1.0" stroke="rgb(0,0,0)" stroke-width="2.0"/>
<line x1="302.5" y1="172.6" x2="269.7" y2="153.7" opacity="1.0" stroke="rgb(0,0,0)" stroke-width="2.0"/>
<line x1="300.9" y1="163.4" x2="278.5" y2="150.4" opacity="1.0" stroke="rgb(0,0,0)" stroke-width="2.0"/>
<line x1="269.7" y1="305.3" x2="236.9" y2="324.2" opacity="1.0" stroke="rgb(0,0,0)" stroke-width="2.0"/>
<line x1="236.9" y1="324.2" x2="204.1" y2="305.3" opacity="1.0" stroke="rgb(0,0,0)" stroke-width="2.0"/>
<line x1="235.3" y1="315.0" x2="212.9" y2="302.0" opacity="1.0" stroke="rgb(0,0,0)" stroke-width="2.0"/>
<line x1="204.1" y1="305.3" x2="204.1" y2="267.4" opacity="1.0" stroke="rgb(0,0,0)" stroke-width="2.0"/>
<line x1="204.1" y1="267.4" x2="236.9" y2="248.4" opacity="1.0" stroke="rgb(0,0,0)" stroke-width="2.0"/>
<line x1="212.9" y1="270.6" x2="235.3" y2="257.7" opacity="1.0" stroke="rgb(0,0,0)" stroke-width="2.0"/>
<line x1="236.9" y1="248.4" x2="269.7" y2="267.4" opacity="1.0" stroke="rgb(0,0,0)" stroke-width="2.0"/>
<line x1="269.7" y1="267.4" x2="269.7" y2="305.3" opacity="1.0" stroke="rgb(0,0,0)" stroke-width="2.0"/>
<line x1="262.5" y1="273.4" x2="262.5" y2="299.3" opacity="1.0" stroke="rgb(0,0,0)" stroke-width="2.0"/>
<line x1="127.2" y1="260.9" x2="105.6" y2="248.4" opacity="1.0" stroke="rgb(0,0,0)" stroke-width="2.0"/>
<line x1="105.6" y1="248.4" x2="105.6" y2="210.5" opacity="1.0" stroke="rgb(0,0,0)" stroke-width="2.0"/>
<line x1="112.8" y1="242.4" x2="112.8" y2="216.5" opacity="1.0" stroke="rgb(0,0,0)" stroke-width="2.0"/>
<line x1="105.6" y1="210.5" x2="138.5" y2="191.6" opacity="1.0" stroke="rgb(0,0,0)" stroke-width="2.0"/>
<line x1="138.5" y1="191.6" x2="171.3" y2="210.5" opacity="1.0" stroke="rgb(0,0,0)" stroke-width="2.0"/>
<line x1="140.0" y1="200.8" x2="162.5" y2="213.8" opacity="1.0" stroke="rgb(0,0,0)" stroke-width="2.0"/>
<line x1="171.3" y1="210.5" x2="171.3" y2="248.4" opacity="1.0" stroke="rgb(0,0,0)" stroke-width="2.0"/>
<line x1="171.3" y1="248.4" x2="149.3" y2="261.1" opacity="1.0" stroke="rgb(0,0,0)" stroke-width="2.0"/>
<line x1="162.5" y1="245.2" x2="147.6" y2="253.8" opacity="1.0" stroke="rgb(0,0,0)" stroke-width="2.0"/>
<text x="132.453414" y="275.368421" fill="rgb(12,12,255)" stroke-width="0" font-weight="bold" font-size="16">N</text>
<text x="230.906829" y="370.105263" fill="rgb(127,178,255)" stroke-width="0" font-weight="bold" font-size="16">F</text>
<text x="331.360243" y="48.000000" fill="rgb(102,102,102)" stroke-width="0" font-weight="bold" font-size="16">CH</text>
<text x="355.360243" y="51.680000" fill="rgb(102,102,102)" stroke-width="0" font-weight="bold" font-size="13">3</text>
<text x="66.817805" y="199.578947" fill="rgb(12,12,255)" stroke-width="0" font-weight="bold" font-size="16">N</text>
<text x="66.817805" y="161.684211" fill="rgb(255,12,12)" stroke-width="0" font-weight="bold" font-size="16">O</text>
<text x="44.800000" y="206.494316" fill="rgb(255,12,12)" stroke-width="0" font-weight="bold" font-size="16"/>
<text x="44.800000" y="206.494316" fill="rgb(255,12,12)" stroke-width="0" font-weight="bold" font-size="32">.</text>
<text x="34.000000" y="218.526316" fill="rgb(255,12,12)" stroke-width="0" font-weight="bold" font-size="16">O</text>
<text x="296.542438" y="66.947368" fill="rgb(255,12,12)" stroke-width="0" font-weight="bold" font-size="16">O</text>
<text x="462.631462" y="389.052632" fill="rgb(102,102,102)" stroke-width="0" font-weight="bold" font-size="16">CH</text>
<text x="486.631462" y="392.732632" fill="rgb(102,102,102)" stroke-width="0" font-weight="bold" font-size="13">3</text>
<text x="460.631462" y="351.157895" fill="rgb(255,12,12)" stroke-width="0" font-weight="bold" font-size="16">O</text>
<text x="296.542438" y="256.421053" fill="rgb(12,12,255)" stroke-width="0" font-weight="bold" font-size="16">N</text>
</svg>
</g>
</svg>
