<svg xmlns="http://www.w3.org/2000/svg" x="0" y="0" viewBox="0 0 100 100">
<title>B_1_S - Open Babel Depiction</title>
<rect x="0" y="0" width="100" height="100" fill="white"/>
<g transform="translate(0,0)">
<svg width="100" height="100" x="0" y="0" viewBox="0 0 505.991 458.378" font-family="sans-serif" stroke="rgb(0,0,0)" stroke-width="2" stroke-linecap="round">
<line x1="367.7" y1="285.9" x2="313.4" y2="254.6" opacity="1.0" stroke="rgb(0,0,0)" stroke-width="2.0"/>
<line x1="302.1" y1="235.1" x2="302.1" y2="172.4" opacity="1.0" stroke="rgb(0,0,0)" stroke-width="2.0"/>
<line x1="466.0" y1="355.7" x2="466.0" y2="367.5" opacity="1.0" stroke="rgb(0,0,0)" stroke-width="2.0"/>
<line x1="433.2" y1="323.8" x2="454.7" y2="336.2" opacity="1.0" stroke="rgb(0,0,0)" stroke-width="2.0"/>
<line x1="313.4" y1="52.4" x2="323.7" y2="46.5" opacity="1.0" stroke="rgb(0,0,0)" stroke-width="2.0"/>
<line x1="302.1" y1="96.8" x2="302.1" y2="71.9" opacity="1.0" stroke="rgb(0,0,0)" stroke-width="2.0"/>
<line x1="290.9" y1="254.6" x2="269.4" y2="267.0" opacity="1.0" stroke="rgb(0,0,0)" stroke-width="2.0"/>
<line x1="105.5" y1="361.6" x2="72.8" y2="380.5" opacity="1.0" stroke="rgb(0,0,0)" stroke-width="2.0"/>
<line x1="72.8" y1="380.5" x2="51.3" y2="368.1" opacity="1.0" stroke="rgb(0,0,0)" stroke-width="2.0"/>
<line x1="75.8" y1="380.5" x2="75.8" y2="405.4" opacity="1.0" stroke="rgb(0,0,0)" stroke-width="2.0"/>
<line x1="69.8" y1="380.5" x2="69.8" y2="405.4" opacity="1.0" stroke="rgb(0,0,0)" stroke-width="2.0"/>
<line x1="203.8" y1="304.9" x2="171.1" y2="323.8" opacity="1.0" stroke="rgb(0,0,0)" stroke-width="2.0"/>
<line x1="400.5" y1="342.7" x2="367.7" y2="323.8" opacity="1.0" stroke="rgb(0,0,0)" stroke-width="2.0"/>
<line x1="367.7" y1="323.8" x2="367.7" y2="285.9" opacity="1.0" stroke="rgb(0,0,0)" stroke-width="2.0"/>
<line x1="374.9" y1="317.8" x2="374.9" y2="291.9" opacity="1.0" stroke="rgb(0,0,0)" stroke-width="2.0"/>
<line x1="367.7" y1="285.9" x2="400.5" y2="267.0" opacity="1.0" stroke="rgb(0,0,0)" stroke-width="2.0"/>
<line x1="400.5" y1="267.0" x2="433.2" y2="285.9" opacity="1.0" stroke="rgb(0,0,0)" stroke-width="2.0"/>
<line x1="402.0" y1="276.3" x2="424.4" y2="289.2" opacity="1.0" stroke="rgb(0,0,0)" stroke-width="2.0"/>
<line x1="433.2" y1="285.9" x2="433.2" y2="323.8" opacity="1.0" stroke="rgb(0,0,0)" stroke-width="2.0"/>
<line x1="433.2" y1="323.8" x2="400.5" y2="342.7" opacity="1.0" stroke="rgb(0,0,0)" stroke-width="2.0"/>
<line x1="424.4" y1="320.5" x2="402.0" y2="333.5" opacity="1.0" stroke="rgb(0,0,0)" stroke-width="2.0"/>
<line x1="269.4" y1="153.5" x2="269.4" y2="115.7" opacity="1.0" stroke="rgb(0,0,0)" stroke-width="2.0"/>
<line x1="269.4" y1="115.7" x2="302.1" y2="96.8" opacity="1.0" stroke="rgb(0,0,0)" stroke-width="2.0"/>
<line x1="278.2" y1="118.9" x2="300.6" y2="106.0" opacity="1.0" stroke="rgb(0,0,0)" stroke-width="2.0"/>
<line x1="302.1" y1="96.8" x2="334.9" y2="115.7" opacity="1.0" stroke="rgb(0,0,0)" stroke-width="2.0"/>
<line x1="334.9" y1="115.7" x2="334.9" y2="153.5" opacity="1.0" stroke="rgb(0,0,0)" stroke-width="2.0"/>
<line x1="327.7" y1="121.7" x2="327.7" y2="147.5" opacity="1.0" stroke="rgb(0,0,0)" stroke-width="2.0"/>
<line x1="334.9" y1="153.5" x2="302.1" y2="172.4" opacity="1.0" stroke="rgb(0,0,0)" stroke-width="2.0"/>
<line x1="302.1" y1="172.4" x2="269.4" y2="153.5" opacity="1.0" stroke="rgb(0,0,0)" stroke-width="2.0"/>
<line x1="300.6" y1="163.2" x2="278.2" y2="150.3" opacity="1.0" stroke="rgb(0,0,0)" stroke-width="2.0"/>
<line x1="269.4" y1="304.9" x2="236.6" y2="323.8" opacity="1.0" stroke="rgb(0,0,0)" stroke-width="2.0"/>
<line x1="236.6" y1="323.8" x2="203.8" y2="304.9" opacity="1.0" stroke="rgb(0,0,0)" stroke-width="2.0"/>
<line x1="235.0" y1="314.5" x2="212.6" y2="301.6" opacity="1.0" stroke="rgb(0,0,0)" stroke-width="2.0"/>
<line x1="203.8" y1="304.9" x2="203.8" y2="267.0" opacity="1.0" stroke="rgb(0,0,0)" stroke-width="2.0"/>
<line x1="203.8" y1="267.0" x2="236.6" y2="248.1" opacity="1.0" stroke="rgb(0,0,0)" stroke-width="2.0"/>
<line x1="212.6" y1="270.3" x2="235.0" y2="257.3" opacity="1.0" stroke="rgb(0,0,0)" stroke-width="2.0"/>
<line x1="236.6" y1="248.1" x2="269.4" y2="267.0" opacity="1.0" stroke="rgb(0,0,0)" stroke-width="2.0"/>
<line x1="269.4" y1="267.0" x2="269.4" y2="304.9" opacity="1.0" stroke="rgb(0,0,0)" stroke-width="2.0"/>
<line x1="262.2" y1="273.0" x2="262.2" y2="298.9" opacity="1.0" stroke="rgb(0,0,0)" stroke-width="2.0"/>
<line x1="171.1" y1="361.6" x2="138.3" y2="380.5" opacity="1.0" stroke="rgb(0,0,0)" stroke-width="2.0"/>
<line x1="138.3" y1="380.5" x2="105.5" y2="361.6" opacity="1.0" stroke="rgb(0,0,0)" stroke-width="2.0"/>
<line x1="136.7" y1="371.3" x2="114.3" y2="358.4" opacity="1.0" stroke="rgb(0,0,0)" stroke-width="2.0"/>
<line x1="105.5" y1="361.6" x2="105.5" y2="323.8" opacity="1.0" stroke="rgb(0,0,0)" stroke-width="2.0"/>
<line x1="105.5" y1="323.8" x2="138.3" y2="304.9" opacity="1.0" stroke="rgb(0,0,0)" stroke-width="2.0"/>
<line x1="114.3" y1="327.0" x2="136.7" y2="314.1" opacity="1.0" stroke="rgb(0,0,0)" stroke-width="2.0"/>
<line x1="138.3" y1="304.9" x2="171.1" y2="323.8" opacity="1.0" stroke="rgb(0,0,0)" stroke-width="2.0"/>
<line x1="171.1" y1="323.8" x2="171.1" y2="361.6" opacity="1.0" stroke="rgb(0,0,0)" stroke-width="2.0"/>
<line x1="163.9" y1="329.8" x2="163.9" y2="355.6" opacity="1.0" stroke="rgb(0,0,0)" stroke-width="2.0"/>
<text x="330.916759" y="48.000000" fill="rgb(102,102,102)" stroke-width="0" font-weight="bold" font-size="16">CH</text>
<text x="354.916759" y="51.680000" fill="rgb(102,102,102)" stroke-width="0" font-weight="bold" font-size="13">3</text>
<text x="66.768529" y="426.378378" fill="rgb(255,12,12)" stroke-width="0" font-weight="bold" font-size="16">O</text>
<text x="14.000000" y="369.621622" fill="rgb(102,102,102)" stroke-width="0" font-weight="bold" font-size="16">H</text>
<text x="26.000000" y="373.301622" fill="rgb(102,102,102)" stroke-width="0" font-weight="bold" font-size="13">3</text>
<text x="32.500000" y="369.621622" fill="rgb(102,102,102)" stroke-width="0" font-weight="bold" font-size="16">C</text>
<text x="296.148230" y="66.918919" fill="rgb(255,12,12)" stroke-width="0" font-weight="bold" font-size="16">O</text>
<text x="461.990874" y="388.540541" fill="rgb(102,102,102)" stroke-width="0" font-weight="bold" font-size="16">CH</text>
<text x="485.990874" y="392.220541" fill="rgb(102,102,102)" stroke-width="0" font-weight="bold" font-size="13">3</text>
<text x="459.990874" y="350.702703" fill="rgb(255,12,12)" stroke-width="0" font-weight="bold" font-size="16">O</text>
<text x="296.148230" y="256.108108" fill="rgb(12,12,255)" stroke-width="0" font-weight="bold" font-size="16">N</text>
</svg>
</g>
</svg>
