<svg xmlns="http://www.w3.org/2000/svg" x="0" y="0" viewBox="0 0 100 100">
<title>B_1_P - Open Babel Depiction</title>
<rect x="0" y="0" width="100" height="100" fill="white"/>
<g transform="translate(0,0)">
<svg width="100" height="100" x="0" y="0" viewBox="0 0 505.315 420" font-family="sans-serif" stroke="rgb(0,0,0)" stroke-width="2" stroke-linecap="round">
<line x1="367.2" y1="285.6" x2="313.0" y2="254.3" opacity="1.0" stroke="rgb(0,0,0)" stroke-width="2.0"/>
<line x1="301.7" y1="234.8" x2="301.7" y2="172.2" opacity="1.0" stroke="rgb(0,0,0)" stroke-width="2.0"/>
<line x1="465.3" y1="355.2" x2="465.3" y2="367.0" opacity="1.0" stroke="rgb(0,0,0)" stroke-width="2.0"/>
<line x1="432.6" y1="323.3" x2="454.1" y2="335.7" opacity="1.0" stroke="rgb(0,0,0)" stroke-width="2.0"/>
<line x1="313.0" y1="52.4" x2="323.2" y2="46.5" opacity="1.0" stroke="rgb(0,0,0)" stroke-width="2.0"/>
<line x1="301.7" y1="96.7" x2="301.7" y2="71.9" opacity="1.0" stroke="rgb(0,0,0)" stroke-width="2.0"/>
<line x1="290.5" y1="254.3" x2="269.0" y2="266.7" opacity="1.0" stroke="rgb(0,0,0)" stroke-width="2.0"/>
<line x1="61.5" y1="373.5" x2="51.3" y2="367.6" opacity="1.0" stroke="rgb(0,0,0)" stroke-width="2.0"/>
<line x1="105.4" y1="361.1" x2="84.0" y2="373.5" opacity="1.0" stroke="rgb(0,0,0)" stroke-width="2.0"/>
<line x1="203.6" y1="304.4" x2="170.9" y2="323.3" opacity="1.0" stroke="rgb(0,0,0)" stroke-width="2.0"/>
<line x1="399.9" y1="342.2" x2="367.2" y2="323.3" opacity="1.0" stroke="rgb(0,0,0)" stroke-width="2.0"/>
<line x1="367.2" y1="323.3" x2="367.2" y2="285.6" opacity="1.0" stroke="rgb(0,0,0)" stroke-width="2.0"/>
<line x1="374.4" y1="317.3" x2="374.4" y2="291.6" opacity="1.0" stroke="rgb(0,0,0)" stroke-width="2.0"/>
<line x1="367.2" y1="285.6" x2="399.9" y2="266.7" opacity="1.0" stroke="rgb(0,0,0)" stroke-width="2.0"/>
<line x1="399.9" y1="266.7" x2="432.6" y2="285.6" opacity="1.0" stroke="rgb(0,0,0)" stroke-width="2.0"/>
<line x1="401.5" y1="275.9" x2="423.8" y2="288.8" opacity="1.0" stroke="rgb(0,0,0)" stroke-width="2.0"/>
<line x1="432.6" y1="285.6" x2="432.6" y2="323.3" opacity="1.0" stroke="rgb(0,0,0)" stroke-width="2.0"/>
<line x1="432.6" y1="323.3" x2="399.9" y2="342.2" opacity="1.0" stroke="rgb(0,0,0)" stroke-width="2.0"/>
<line x1="423.8" y1="320.1" x2="401.5" y2="333.0" opacity="1.0" stroke="rgb(0,0,0)" stroke-width="2.0"/>
<line x1="269.0" y1="153.3" x2="269.0" y2="115.6" opacity="1.0" stroke="rgb(0,0,0)" stroke-width="2.0"/>
<line x1="269.0" y1="115.6" x2="301.7" y2="96.7" opacity="1.0" stroke="rgb(0,0,0)" stroke-width="2.0"/>
<line x1="277.8" y1="118.8" x2="300.1" y2="105.9" opacity="1.0" stroke="rgb(0,0,0)" stroke-width="2.0"/>
<line x1="301.7" y1="96.7" x2="334.4" y2="115.6" opacity="1.0" stroke="rgb(0,0,0)" stroke-width="2.0"/>
<line x1="334.4" y1="115.6" x2="334.4" y2="153.3" opacity="1.0" stroke="rgb(0,0,0)" stroke-width="2.0"/>
<line x1="327.2" y1="121.6" x2="327.2" y2="147.3" opacity="1.0" stroke="rgb(0,0,0)" stroke-width="2.0"/>
<line x1="334.4" y1="153.3" x2="301.7" y2="172.2" opacity="1.0" stroke="rgb(0,0,0)" stroke-width="2.0"/>
<line x1="301.7" y1="172.2" x2="269.0" y2="153.3" opacity="1.0" stroke="rgb(0,0,0)" stroke-width="2.0"/>
<line x1="300.1" y1="163.0" x2="277.8" y2="150.1" opacity="1.0" stroke="rgb(0,0,0)" stroke-width="2.0"/>
<line x1="269.0" y1="304.4" x2="236.3" y2="323.3" opacity="1.0" stroke="rgb(0,0,0)" stroke-width="2.0"/>
<line x1="236.3" y1="323.3" x2="203.6" y2="304.4" opacity="1.0" stroke="rgb(0,0,0)" stroke-width="2.0"/>
<line x1="234.7" y1="314.1" x2="212.4" y2="301.2" opacity="1.0" stroke="rgb(0,0,0)" stroke-width="2.0"/>
<line x1="203.6" y1="304.4" x2="203.6" y2="266.7" opacity="1.0" stroke="rgb(0,0,0)" stroke-width="2.0"/>
<line x1="203.6" y1="266.7" x2="236.3" y2="247.8" opacity="1.0" stroke="rgb(0,0,0)" stroke-width="2.0"/>
<line x1="212.4" y1="269.9" x2="234.7" y2="257.0" opacity="1.0" stroke="rgb(0,0,0)" stroke-width="2.0"/>
<line x1="236.3" y1="247.8" x2="269.0" y2="266.7" opacity="1.0" stroke="rgb(0,0,0)" stroke-width="2.0"/>
<line x1="269.0" y1="266.7" x2="269.0" y2="304.4" opacity="1.0" stroke="rgb(0,0,0)" stroke-width="2.0"/>
<line x1="261.8" y1="272.7" x2="261.8" y2="298.4" opacity="1.0" stroke="rgb(0,0,0)" stroke-width="2.0"/>
<line x1="170.9" y1="361.1" x2="138.1" y2="380.0" opacity="1.0" stroke="rgb(0,0,0)" stroke-width="2.0"/>
<line x1="138.1" y1="380.0" x2="105.4" y2="361.1" opacity="1.0" stroke="rgb(0,0,0)" stroke-width="2.0"/>
<line x1="136.6" y1="370.8" x2="114.2" y2="357.9" opacity="1.0" stroke="rgb(0,0,0)" stroke-width="2.0"/>
<line x1="105.4" y1="361.1" x2="105.4" y2="323.3" opacity="1.0" stroke="rgb(0,0,0)" stroke-width="2.0"/>
<line x1="105.4" y1="323.3" x2="138.1" y2="304.4" opacity="1.0" stroke="rgb(0,0,0)" stroke-width="2.0"/>
<line x1="114.2" y1="326.6" x2="136.6" y2="313.7" opacity="1.0" stroke="rgb(0,0,0)" stroke-width="2.0"/>
<line x1="138.1" y1="304.4" x2="170.9" y2="323.3" opacity="1.0" stroke="rgb(0,0,0)" stroke-width="2.0"/>
<line x1="170.9" y1="323.3" x2="170.9" y2="361.1" opacity="1.0" stroke="rgb(0,0,0)" stroke-width="2.0"/>
<line x1="163.7" y1="329.3" x2="163.7" y2="355.1" opacity="1.0" stroke="rgb(0,0,0)" stroke-width="2.0"/>
<text x="295.732122" y="66.888889" fill="rgb(255,12,12)" stroke-width="0" font-weight="bold" font-size="16">O</text>
<text x="14.000000" y="369.111111" fill="rgb(102,102,102)" stroke-width="0" font-weight="bold" font-size="16">H</text>
<text x="26.000000" y="372.791111" fill="rgb(102,102,102)" stroke-width="0" font-weight="bold" font-size="13">3</text>
<text x="32.500000" y="369.111111" fill="rgb(102,102,102)" stroke-width="0" font-weight="bold" font-size="16">C</text>
<text x="66.716515" y="388.000000" fill="rgb(255,12,12)" stroke-width="0" font-weight="bold" font-size="16">O</text>
<text x="330.448637" y="48.000000" fill="rgb(102,102,102)" stroke-width="0" font-weight="bold" font-size="16">CH</text>
<text x="354.448637" y="51.680000" fill="rgb(102,102,102)" stroke-width="0" font-weight="bold" font-size="13">3</text>
<text x="461.314698" y="388.000000" fill="rgb(102,102,102)" stroke-width="0" font-weight="bold" font-size="16">CH</text>
<text x="485.314698" y="391.680000" fill="rgb(102,102,102)" stroke-width="0" font-weight="bold" font-size="13">3</text>
<text x="459.314698" y="350.222222" fill="rgb(255,12,12)" stroke-width="0" font-weight="bold" font-size="16">O</text>
<text x="295.732122" y="255.777778" fill="rgb(12,12,255)" stroke-width="0" font-weight="bold" font-size="16">N</text>
</svg>
</g>
</svg>
