<svg xmlns="http://www.w3.org/2000/svg" xmlns:xlink="http://www.w3.org/1999/xlink" xmlns:cml="http://www.xml-cml.org/schema" version="1.1" id="topsvg" x="0" y="0" viewBox="0 0 100 100">
<title>B_2_T - Open Babel Depiction</title>
<rect x="0" y="0" width="100" height="100" fill="white"/>
<g transform="translate(0,0)">
<svg width="100" height="100" x="0" y="0" viewBox="0 0 450.752 418.919" font-family="sans-serif" stroke="rgb(0,0,0)" stroke-width="2" stroke-linecap="round">
<line x1="163.6" y1="236.2" x2="214.1" y2="207.0" opacity="1.0" stroke="rgb(0,0,0)" stroke-width="2.0"/>
<line x1="225.4" y1="187.5" x2="225.4" y2="164.9" opacity="1.0" stroke="rgb(0,0,0)" stroke-width="2.0"/>
<line x1="59.6" y1="283.2" x2="51.3" y2="278.4" opacity="1.0" stroke="rgb(0,0,0)" stroke-width="2.0"/>
<line x1="101.8" y1="271.9" x2="82.2" y2="283.2" opacity="1.0" stroke="rgb(0,0,0)" stroke-width="2.0"/>
<line x1="214.1" y1="51.3" x2="205.7" y2="46.5" opacity="1.0" stroke="rgb(0,0,0)" stroke-width="2.0"/>
<line x1="225.4" y1="93.5" x2="225.4" y2="70.8" opacity="1.0" stroke="rgb(0,0,0)" stroke-width="2.0"/>
<line x1="236.6" y1="207.0" x2="349.0" y2="271.9" opacity="1.0" stroke="rgb(0,0,0)" stroke-width="2.0"/>
<line x1="256.3" y1="361.1" x2="236.6" y2="372.4" opacity="1.0" stroke="rgb(0,0,0)" stroke-width="2.0"/>
<line x1="349.0" y1="307.6" x2="318.1" y2="325.4" opacity="1.0" stroke="rgb(0,0,0)" stroke-width="2.0"/>
<line x1="101.8" y1="236.2" x2="132.7" y2="218.4" opacity="1.0" stroke="rgb(0,0,0)" stroke-width="2.0"/>
<line x1="132.7" y1="218.4" x2="163.6" y2="236.2" opacity="1.0" stroke="rgb(0,0,0)" stroke-width="2.0"/>
<line x1="134.3" y1="227.6" x2="154.8" y2="239.5" opacity="1.0" stroke="rgb(0,0,0)" stroke-width="2.0"/>
<line x1="163.6" y1="236.2" x2="163.6" y2="271.9" opacity="1.0" stroke="rgb(0,0,0)" stroke-width="2.0"/>
<line x1="163.6" y1="271.9" x2="132.7" y2="289.7" opacity="1.0" stroke="rgb(0,0,0)" stroke-width="2.0"/>
<line x1="154.8" y1="268.7" x2="134.3" y2="280.5" opacity="1.0" stroke="rgb(0,0,0)" stroke-width="2.0"/>
<line x1="132.7" y1="289.7" x2="101.8" y2="271.9" opacity="1.0" stroke="rgb(0,0,0)" stroke-width="2.0"/>
<line x1="101.8" y1="271.9" x2="101.8" y2="236.2" opacity="1.0" stroke="rgb(0,0,0)" stroke-width="2.0"/>
<line x1="109.0" y1="265.9" x2="109.0" y2="242.2" opacity="1.0" stroke="rgb(0,0,0)" stroke-width="2.0"/>
<line x1="194.5" y1="147.0" x2="194.5" y2="111.4" opacity="1.0" stroke="rgb(0,0,0)" stroke-width="2.0"/>
<line x1="194.5" y1="111.4" x2="225.4" y2="93.5" opacity="1.0" stroke="rgb(0,0,0)" stroke-width="2.0"/>
<line x1="203.3" y1="114.6" x2="223.8" y2="102.7" opacity="1.0" stroke="rgb(0,0,0)" stroke-width="2.0"/>
<line x1="225.4" y1="93.5" x2="256.3" y2="111.4" opacity="1.0" stroke="rgb(0,0,0)" stroke-width="2.0"/>
<line x1="256.3" y1="111.4" x2="256.3" y2="147.0" opacity="1.0" stroke="rgb(0,0,0)" stroke-width="2.0"/>
<line x1="249.1" y1="117.4" x2="249.1" y2="141.0" opacity="1.0" stroke="rgb(0,0,0)" stroke-width="2.0"/>
<line x1="256.3" y1="147.0" x2="225.4" y2="164.9" opacity="1.0" stroke="rgb(0,0,0)" stroke-width="2.0"/>
<line x1="225.4" y1="164.9" x2="194.5" y2="147.0" opacity="1.0" stroke="rgb(0,0,0)" stroke-width="2.0"/>
<line x1="223.8" y1="155.6" x2="203.3" y2="143.8" opacity="1.0" stroke="rgb(0,0,0)" stroke-width="2.0"/>
<line x1="379.9" y1="254.1" x2="410.8" y2="271.9" opacity="1.0" stroke="rgb(0,0,0)" stroke-width="2.0"/>
<line x1="410.8" y1="271.9" x2="410.8" y2="307.6" opacity="1.0" stroke="rgb(0,0,0)" stroke-width="2.0"/>
<line x1="403.6" y1="277.9" x2="403.6" y2="301.6" opacity="1.0" stroke="rgb(0,0,0)" stroke-width="2.0"/>
<line x1="410.8" y1="307.6" x2="379.9" y2="325.4" opacity="1.0" stroke="rgb(0,0,0)" stroke-width="2.0"/>
<line x1="379.9" y1="325.4" x2="349.0" y2="307.6" opacity="1.0" stroke="rgb(0,0,0)" stroke-width="2.0"/>
<line x1="378.3" y1="316.2" x2="357.8" y2="304.3" opacity="1.0" stroke="rgb(0,0,0)" stroke-width="2.0"/>
<line x1="349.0" y1="307.6" x2="349.0" y2="271.9" opacity="1.0" stroke="rgb(0,0,0)" stroke-width="2.0"/>
<line x1="349.0" y1="271.9" x2="379.9" y2="254.1" opacity="1.0" stroke="rgb(0,0,0)" stroke-width="2.0"/>
<line x1="357.8" y1="275.1" x2="378.3" y2="263.3" opacity="1.0" stroke="rgb(0,0,0)" stroke-width="2.0"/>
<line x1="318.1" y1="361.1" x2="287.2" y2="378.9" opacity="1.0" stroke="rgb(0,0,0)" stroke-width="2.0"/>
<line x1="287.2" y1="378.9" x2="256.3" y2="361.1" opacity="1.0" stroke="rgb(0,0,0)" stroke-width="2.0"/>
<line x1="285.6" y1="369.7" x2="265.1" y2="357.8" opacity="1.0" stroke="rgb(0,0,0)" stroke-width="2.0"/>
<line x1="256.3" y1="361.1" x2="256.3" y2="325.4" opacity="1.0" stroke="rgb(0,0,0)" stroke-width="2.0"/>
<line x1="256.3" y1="325.4" x2="287.2" y2="307.6" opacity="1.0" stroke="rgb(0,0,0)" stroke-width="2.0"/>
<line x1="265.1" y1="328.6" x2="285.6" y2="316.8" opacity="1.0" stroke="rgb(0,0,0)" stroke-width="2.0"/>
<line x1="287.2" y1="307.6" x2="318.1" y2="325.4" opacity="1.0" stroke="rgb(0,0,0)" stroke-width="2.0"/>
<line x1="318.1" y1="325.4" x2="318.1" y2="361.1" opacity="1.0" stroke="rgb(0,0,0)" stroke-width="2.0"/>
<line x1="310.9" y1="331.4" x2="310.9" y2="355.1" opacity="1.0" stroke="rgb(0,0,0)" stroke-width="2.0"/>
<text x="219.376249" y="65.837838" fill="rgb(255,12,12)" stroke-width="0" font-weight="bold" font-size="16">O</text>
<text x="199.376249" y="386.918919" fill="rgb(102,102,102)" stroke-width="0" font-weight="bold" font-size="16">H</text>
<text x="211.376249" y="390.598919" fill="rgb(102,102,102)" stroke-width="0" font-weight="bold" font-size="13">3</text>
<text x="217.876249" y="386.918919" fill="rgb(102,102,102)" stroke-width="0" font-weight="bold" font-size="16">C</text>
<text x="168.480207" y="48.000000" fill="rgb(102,102,102)" stroke-width="0" font-weight="bold" font-size="16">H</text>
<text x="180.480207" y="51.680000" fill="rgb(102,102,102)" stroke-width="0" font-weight="bold" font-size="13">3</text>
<text x="186.980207" y="48.000000" fill="rgb(102,102,102)" stroke-width="0" font-weight="bold" font-size="16">C</text>
<text x="14.000000" y="279.891892" fill="rgb(102,102,102)" stroke-width="0" font-weight="bold" font-size="16">H</text>
<text x="26.000000" y="283.571892" fill="rgb(102,102,102)" stroke-width="0" font-weight="bold" font-size="13">3</text>
<text x="32.500000" y="279.891892" fill="rgb(102,102,102)" stroke-width="0" font-weight="bold" font-size="16">C</text>
<text x="64.896041" y="297.729730" fill="rgb(255,12,12)" stroke-width="0" font-weight="bold" font-size="16">O</text>
<text x="219.376249" y="208.540541" fill="rgb(12,12,255)" stroke-width="0" font-weight="bold" font-size="16">N</text>
</svg>
</g>
</svg>