<svg xmlns="http://www.w3.org/2000/svg" xmlns:xlink="http://www.w3.org/1999/xlink" xmlns:cml="http://www.xml-cml.org/schema" version="1.1" id="topsvg" x="0" y="0" viewBox="0 0 100 100">
<title>B_2_M - Open Babel Depiction</title>
<rect x="0" y="0" width="100" height="100" fill="white"/>
<g transform="translate(0,0)">
<svg width="100" height="100" x="0" y="0" viewBox="0 0 451.935 437.895" font-family="sans-serif" stroke="rgb(0,0,0)" stroke-width="2" stroke-linecap="round">
<line x1="288.0" y1="201.1" x2="237.2" y2="230.3" opacity="1.0" stroke="rgb(0,0,0)" stroke-width="2.0"/>
<line x1="226.0" y1="249.8" x2="226.0" y2="272.6" opacity="1.0" stroke="rgb(0,0,0)" stroke-width="2.0"/>
<line x1="392.2" y1="153.9" x2="400.7" y2="158.8" opacity="1.0" stroke="rgb(0,0,0)" stroke-width="2.0"/>
<line x1="349.9" y1="165.3" x2="369.7" y2="153.9" opacity="1.0" stroke="rgb(0,0,0)" stroke-width="2.0"/>
<line x1="237.2" y1="386.5" x2="245.7" y2="391.4" opacity="1.0" stroke="rgb(0,0,0)" stroke-width="2.0"/>
<line x1="226.0" y1="344.2" x2="226.0" y2="367.0" opacity="1.0" stroke="rgb(0,0,0)" stroke-width="2.0"/>
<line x1="214.7" y1="230.3" x2="102.0" y2="165.3" opacity="1.0" stroke="rgb(0,0,0)" stroke-width="2.0"/>
<line x1="226.0" y1="57.9" x2="245.7" y2="46.5" opacity="1.0" stroke="rgb(0,0,0)" stroke-width="2.0"/>
<line x1="223.9" y1="54.3" x2="243.6" y2="42.9" opacity="1.0" stroke="rgb(0,0,0)" stroke-width="2.0"/>
<line x1="228.1" y1="61.5" x2="247.8" y2="50.1" opacity="1.0" stroke="rgb(0,0,0)" stroke-width="2.0"/>
<line x1="195.0" y1="75.8" x2="226.0" y2="57.9" opacity="1.0" stroke="rgb(0,0,0)" stroke-width="2.0"/>
<line x1="102.0" y1="129.5" x2="133.0" y2="111.6" opacity="1.0" stroke="rgb(0,0,0)" stroke-width="2.0"/>
<line x1="349.9" y1="201.1" x2="319.0" y2="218.9" opacity="1.0" stroke="rgb(0,0,0)" stroke-width="2.0"/>
<line x1="319.0" y1="218.9" x2="288.0" y2="201.1" opacity="1.0" stroke="rgb(0,0,0)" stroke-width="2.0"/>
<line x1="317.4" y1="209.7" x2="296.8" y2="197.8" opacity="1.0" stroke="rgb(0,0,0)" stroke-width="2.0"/>
<line x1="288.0" y1="201.1" x2="288.0" y2="165.3" opacity="1.0" stroke="rgb(0,0,0)" stroke-width="2.0"/>
<line x1="288.0" y1="165.3" x2="319.0" y2="147.4" opacity="1.0" stroke="rgb(0,0,0)" stroke-width="2.0"/>
<line x1="296.8" y1="168.5" x2="317.4" y2="156.6" opacity="1.0" stroke="rgb(0,0,0)" stroke-width="2.0"/>
<line x1="319.0" y1="147.4" x2="349.9" y2="165.3" opacity="1.0" stroke="rgb(0,0,0)" stroke-width="2.0"/>
<line x1="349.9" y1="165.3" x2="349.9" y2="201.1" opacity="1.0" stroke="rgb(0,0,0)" stroke-width="2.0"/>
<line x1="342.7" y1="171.3" x2="342.7" y2="195.1" opacity="1.0" stroke="rgb(0,0,0)" stroke-width="2.0"/>
<line x1="195.0" y1="290.5" x2="195.0" y2="326.3" opacity="1.0" stroke="rgb(0,0,0)" stroke-width="2.0"/>
<line x1="195.0" y1="326.3" x2="226.0" y2="344.2" opacity="1.0" stroke="rgb(0,0,0)" stroke-width="2.0"/>
<line x1="203.8" y1="323.1" x2="224.4" y2="335.0" opacity="1.0" stroke="rgb(0,0,0)" stroke-width="2.0"/>
<line x1="226.0" y1="344.2" x2="257.0" y2="326.3" opacity="1.0" stroke="rgb(0,0,0)" stroke-width="2.0"/>
<line x1="257.0" y1="326.3" x2="257.0" y2="290.5" opacity="1.0" stroke="rgb(0,0,0)" stroke-width="2.0"/>
<line x1="249.8" y1="320.3" x2="249.8" y2="296.5" opacity="1.0" stroke="rgb(0,0,0)" stroke-width="2.0"/>
<line x1="257.0" y1="290.5" x2="226.0" y2="272.6" opacity="1.0" stroke="rgb(0,0,0)" stroke-width="2.0"/>
<line x1="226.0" y1="272.6" x2="195.0" y2="290.5" opacity="1.0" stroke="rgb(0,0,0)" stroke-width="2.0"/>
<line x1="224.4" y1="281.9" x2="203.8" y2="293.8" opacity="1.0" stroke="rgb(0,0,0)" stroke-width="2.0"/>
<line x1="71.0" y1="183.2" x2="40.0" y2="165.3" opacity="1.0" stroke="rgb(0,0,0)" stroke-width="2.0"/>
<line x1="40.0" y1="165.3" x2="40.0" y2="129.5" opacity="1.0" stroke="rgb(0,0,0)" stroke-width="2.0"/>
<line x1="47.2" y1="159.3" x2="47.2" y2="135.5" opacity="1.0" stroke="rgb(0,0,0)" stroke-width="2.0"/>
<line x1="40.0" y1="129.5" x2="71.0" y2="111.6" opacity="1.0" stroke="rgb(0,0,0)" stroke-width="2.0"/>
<line x1="71.0" y1="111.6" x2="102.0" y2="129.5" opacity="1.0" stroke="rgb(0,0,0)" stroke-width="2.0"/>
<line x1="72.6" y1="120.8" x2="93.2" y2="132.7" opacity="1.0" stroke="rgb(0,0,0)" stroke-width="2.0"/>
<line x1="102.0" y1="129.5" x2="102.0" y2="165.3" opacity="1.0" stroke="rgb(0,0,0)" stroke-width="2.0"/>
<line x1="102.0" y1="165.3" x2="71.0" y2="183.2" opacity="1.0" stroke="rgb(0,0,0)" stroke-width="2.0"/>
<line x1="93.2" y1="162.0" x2="72.6" y2="173.9" opacity="1.0" stroke="rgb(0,0,0)" stroke-width="2.0"/>
<line x1="133.0" y1="75.8" x2="164.0" y2="57.9" opacity="1.0" stroke="rgb(0,0,0)" stroke-width="2.0"/>
<line x1="164.0" y1="57.9" x2="195.0" y2="75.8" opacity="1.0" stroke="rgb(0,0,0)" stroke-width="2.0"/>
<line x1="165.6" y1="67.1" x2="186.2" y2="79.0" opacity="1.0" stroke="rgb(0,0,0)" stroke-width="2.0"/>
<line x1="195.0" y1="75.8" x2="195.0" y2="111.6" opacity="1.0" stroke="rgb(0,0,0)" stroke-width="2.0"/>
<line x1="195.0" y1="111.6" x2="164.0" y2="129.5" opacity="1.0" stroke="rgb(0,0,0)" stroke-width="2.0"/>
<line x1="186.2" y1="108.3" x2="165.6" y2="120.2" opacity="1.0" stroke="rgb(0,0,0)" stroke-width="2.0"/>
<line x1="164.0" y1="129.5" x2="133.0" y2="111.6" opacity="1.0" stroke="rgb(0,0,0)" stroke-width="2.0"/>
<line x1="133.0" y1="111.6" x2="133.0" y2="75.8" opacity="1.0" stroke="rgb(0,0,0)" stroke-width="2.0"/>
<line x1="140.2" y1="105.6" x2="140.2" y2="81.8" opacity="1.0" stroke="rgb(0,0,0)" stroke-width="2.0"/>
<text x="219.967560" y="388.000000" fill="rgb(255,12,12)" stroke-width="0" font-weight="bold" font-size="16">O</text>
<text x="250.962154" y="48.000000" fill="rgb(12,12,255)" stroke-width="0" font-weight="bold" font-size="16">N</text>
<text x="252.962154" y="405.894737" fill="rgb(102,102,102)" stroke-width="0" font-weight="bold" font-size="16">CH</text>
<text x="276.962154" y="409.574737" fill="rgb(102,102,102)" stroke-width="0" font-weight="bold" font-size="13">3</text>
<text x="407.935121" y="173.263158" fill="rgb(102,102,102)" stroke-width="0" font-weight="bold" font-size="16">CH</text>
<text x="431.935121" y="176.943158" fill="rgb(102,102,102)" stroke-width="0" font-weight="bold" font-size="13">3</text>
<text x="374.940527" y="155.368421" fill="rgb(255,12,12)" stroke-width="0" font-weight="bold" font-size="16">O</text>
<text x="219.967560" y="244.842105" fill="rgb(12,12,255)" stroke-width="0" font-weight="bold" font-size="16">N</text>
</svg>
</g>
</svg>