<svg xmlns="http://www.w3.org/2000/svg" x="0" y="0" viewBox="0 0 100 100">
<title>B_2_O - Open Babel Depiction</title>
<rect x="0" y="0" width="100" height="100" fill="white"/>
<g transform="translate(0,0)">
<svg width="100" height="100" x="0" y="0" viewBox="0 0 418.712 364.444" font-family="sans-serif" stroke="rgb(0,0,0)" stroke-width="2" stroke-linecap="round">
<line x1="286.3" y1="235.6" x2="236.0" y2="206.5" opacity="1.0" stroke="rgb(0,0,0)" stroke-width="2.0"/>
<line x1="224.8" y1="187.0" x2="224.8" y2="164.4" opacity="1.0" stroke="rgb(0,0,0)" stroke-width="2.0"/>
<line x1="378.7" y1="301.9" x2="378.7" y2="311.4" opacity="1.0" stroke="rgb(0,0,0)" stroke-width="2.0"/>
<line x1="347.9" y1="271.1" x2="367.5" y2="282.4" opacity="1.0" stroke="rgb(0,0,0)" stroke-width="2.0"/>
<line x1="213.5" y1="51.3" x2="205.2" y2="46.5" opacity="1.0" stroke="rgb(0,0,0)" stroke-width="2.0"/>
<line x1="224.8" y1="93.3" x2="224.8" y2="70.8" opacity="1.0" stroke="rgb(0,0,0)" stroke-width="2.0"/>
<line x1="213.5" y1="206.5" x2="101.6" y2="271.1" opacity="1.0" stroke="rgb(0,0,0)" stroke-width="2.0"/>
<line x1="70.8" y1="253.3" x2="70.8" y2="217.8" opacity="1.0" stroke="rgb(0,0,0)" stroke-width="2.0"/>
<line x1="317.1" y1="288.9" x2="286.3" y2="271.1" opacity="1.0" stroke="rgb(0,0,0)" stroke-width="2.0"/>
<line x1="286.3" y1="271.1" x2="286.3" y2="235.6" opacity="1.0" stroke="rgb(0,0,0)" stroke-width="2.0"/>
<line x1="293.5" y1="265.1" x2="293.5" y2="241.6" opacity="1.0" stroke="rgb(0,0,0)" stroke-width="2.0"/>
<line x1="286.3" y1="235.6" x2="317.1" y2="217.8" opacity="1.0" stroke="rgb(0,0,0)" stroke-width="2.0"/>
<line x1="317.1" y1="217.8" x2="347.9" y2="235.6" opacity="1.0" stroke="rgb(0,0,0)" stroke-width="2.0"/>
<line x1="318.7" y1="227.0" x2="339.1" y2="238.8" opacity="1.0" stroke="rgb(0,0,0)" stroke-width="2.0"/>
<line x1="347.9" y1="235.6" x2="347.9" y2="271.1" opacity="1.0" stroke="rgb(0,0,0)" stroke-width="2.0"/>
<line x1="347.9" y1="271.1" x2="317.1" y2="288.9" opacity="1.0" stroke="rgb(0,0,0)" stroke-width="2.0"/>
<line x1="339.1" y1="267.9" x2="318.7" y2="279.7" opacity="1.0" stroke="rgb(0,0,0)" stroke-width="2.0"/>
<line x1="194.0" y1="146.7" x2="194.0" y2="111.1" opacity="1.0" stroke="rgb(0,0,0)" stroke-width="2.0"/>
<line x1="194.0" y1="111.1" x2="224.8" y2="93.3" opacity="1.0" stroke="rgb(0,0,0)" stroke-width="2.0"/>
<line x1="202.8" y1="114.3" x2="223.2" y2="102.6" opacity="1.0" stroke="rgb(0,0,0)" stroke-width="2.0"/>
<line x1="224.8" y1="93.3" x2="255.5" y2="111.1" opacity="1.0" stroke="rgb(0,0,0)" stroke-width="2.0"/>
<line x1="255.5" y1="111.1" x2="255.5" y2="146.7" opacity="1.0" stroke="rgb(0,0,0)" stroke-width="2.0"/>
<line x1="248.3" y1="117.1" x2="248.3" y2="140.7" opacity="1.0" stroke="rgb(0,0,0)" stroke-width="2.0"/>
<line x1="255.5" y1="146.7" x2="224.8" y2="164.4" opacity="1.0" stroke="rgb(0,0,0)" stroke-width="2.0"/>
<line x1="224.8" y1="164.4" x2="194.0" y2="146.7" opacity="1.0" stroke="rgb(0,0,0)" stroke-width="2.0"/>
<line x1="223.2" y1="155.2" x2="202.8" y2="143.4" opacity="1.0" stroke="rgb(0,0,0)" stroke-width="2.0"/>
<line x1="101.6" y1="306.7" x2="70.8" y2="324.4" opacity="1.0" stroke="rgb(0,0,0)" stroke-width="2.0"/>
<line x1="70.8" y1="324.4" x2="40.0" y2="306.7" opacity="1.0" stroke="rgb(0,0,0)" stroke-width="2.0"/>
<line x1="69.2" y1="315.2" x2="48.8" y2="303.4" opacity="1.0" stroke="rgb(0,0,0)" stroke-width="2.0"/>
<line x1="40.0" y1="306.7" x2="40.0" y2="271.1" opacity="1.0" stroke="rgb(0,0,0)" stroke-width="2.0"/>
<line x1="40.0" y1="271.1" x2="70.8" y2="253.3" opacity="1.0" stroke="rgb(0,0,0)" stroke-width="2.0"/>
<line x1="48.8" y1="274.3" x2="69.2" y2="262.6" opacity="1.0" stroke="rgb(0,0,0)" stroke-width="2.0"/>
<line x1="70.8" y1="253.3" x2="101.6" y2="271.1" opacity="1.0" stroke="rgb(0,0,0)" stroke-width="2.0"/>
<line x1="101.6" y1="271.1" x2="101.6" y2="306.7" opacity="1.0" stroke="rgb(0,0,0)" stroke-width="2.0"/>
<line x1="94.4" y1="277.1" x2="94.4" y2="300.7" opacity="1.0" stroke="rgb(0,0,0)" stroke-width="2.0"/>
<line x1="101.6" y1="187.0" x2="101.6" y2="164.4" opacity="1.0" stroke="rgb(0,0,0)" stroke-width="2.0"/>
<line x1="101.6" y1="164.4" x2="70.8" y2="146.7" opacity="1.0" stroke="rgb(0,0,0)" stroke-width="2.0"/>
<line x1="92.8" y1="167.7" x2="72.4" y2="155.9" opacity="1.0" stroke="rgb(0,0,0)" stroke-width="2.0"/>
<line x1="70.8" y1="146.7" x2="40.0" y2="164.4" opacity="1.0" stroke="rgb(0,0,0)" stroke-width="2.0"/>
<line x1="40.0" y1="164.4" x2="40.0" y2="200.0" opacity="1.0" stroke="rgb(0,0,0)" stroke-width="2.0"/>
<line x1="47.2" y1="170.4" x2="47.2" y2="194.0" opacity="1.0" stroke="rgb(0,0,0)" stroke-width="2.0"/>
<line x1="40.0" y1="200.0" x2="70.8" y2="217.8" opacity="1.0" stroke="rgb(0,0,0)" stroke-width="2.0"/>
<line x1="70.8" y1="217.8" x2="91.4" y2="205.9" opacity="1.0" stroke="rgb(0,0,0)" stroke-width="2.0"/>
<line x1="72.4" y1="208.5" x2="85.7" y2="200.9" opacity="1.0" stroke="rgb(0,0,0)" stroke-width="2.0"/>
<text x="374.712158" y="332.444444" fill="rgb(102,102,102)" stroke-width="0" font-weight="bold" font-size="16">CH</text>
<text x="398.712158" y="336.124444" fill="rgb(102,102,102)" stroke-width="0" font-weight="bold" font-size="13">3</text>
<text x="95.584029" y="208.000000" fill="rgb(12,12,255)" stroke-width="0" font-weight="bold" font-size="16">N</text>
<text x="167.960072" y="48.000000" fill="rgb(102,102,102)" stroke-width="0" font-weight="bold" font-size="16">H</text>
<text x="179.960072" y="51.680000" fill="rgb(102,102,102)" stroke-width="0" font-weight="bold" font-size="13">3</text>
<text x="186.460072" y="48.000000" fill="rgb(102,102,102)" stroke-width="0" font-weight="bold" font-size="16">C</text>
<text x="218.752086" y="65.777778" fill="rgb(255,12,12)" stroke-width="0" font-weight="bold" font-size="16">O</text>
<text x="372.712158" y="296.888889" fill="rgb(255,12,12)" stroke-width="0" font-weight="bold" font-size="16">O</text>
<text x="218.752086" y="208.000000" fill="rgb(12,12,255)" stroke-width="0" font-weight="bold" font-size="16">N</text>
</svg>
</g>
</svg>
