<svg xmlns="http://www.w3.org/2000/svg" x="0" y="0" viewBox="0 0 100 100">
<title>B_2_L - Open Babel Depiction</title>
<rect x="0" y="0" width="100" height="100" fill="white"/>
<g transform="translate(0,0)">
<svg width="100" height="100" x="0" y="0" viewBox="0 0 454.123 460.976" font-family="sans-serif" stroke="rgb(0,0,0)" stroke-width="2" stroke-linecap="round">
<line x1="289.4" y1="238.0" x2="238.3" y2="208.5" opacity="1.0" stroke="rgb(0,0,0)" stroke-width="2.0"/>
<line x1="227.1" y1="189.0" x2="227.1" y2="166.0" opacity="1.0" stroke="rgb(0,0,0)" stroke-width="2.0"/>
<line x1="394.2" y1="285.5" x2="402.9" y2="280.5" opacity="1.0" stroke="rgb(0,0,0)" stroke-width="2.0"/>
<line x1="351.8" y1="274.0" x2="371.7" y2="285.5" opacity="1.0" stroke="rgb(0,0,0)" stroke-width="2.0"/>
<line x1="238.3" y1="51.5" x2="247.0" y2="46.5" opacity="1.0" stroke="rgb(0,0,0)" stroke-width="2.0"/>
<line x1="227.1" y1="94.0" x2="227.1" y2="71.0" opacity="1.0" stroke="rgb(0,0,0)" stroke-width="2.0"/>
<line x1="215.8" y1="208.5" x2="102.4" y2="274.0" opacity="1.0" stroke="rgb(0,0,0)" stroke-width="2.0"/>
<line x1="102.4" y1="310.0" x2="133.5" y2="328.0" opacity="1.0" stroke="rgb(0,0,0)" stroke-width="2.0"/>
<line x1="208.0" y1="421.0" x2="172.2" y2="417.2" opacity="1.0" stroke="rgb(0,0,0)" stroke-width="2.0"/>
<line x1="202.8" y1="413.2" x2="178.9" y2="410.7" opacity="1.0" stroke="rgb(0,0,0)" stroke-width="2.0"/>
<line x1="172.2" y1="417.2" x2="164.7" y2="382.0" opacity="1.0" stroke="rgb(0,0,0)" stroke-width="2.0"/>
<line x1="164.7" y1="382.0" x2="195.9" y2="364.0" opacity="1.0" stroke="rgb(0,0,0)" stroke-width="2.0"/>
<line x1="195.9" y1="364.0" x2="213.0" y2="379.4" opacity="1.0" stroke="rgb(0,0,0)" stroke-width="2.0"/>
<line x1="217.4" y1="400.0" x2="208.0" y2="421.0" opacity="1.0" stroke="rgb(0,0,0)" stroke-width="2.0"/>
<line x1="320.6" y1="292.0" x2="289.4" y2="274.0" opacity="1.0" stroke="rgb(0,0,0)" stroke-width="2.0"/>
<line x1="289.4" y1="274.0" x2="289.4" y2="238.0" opacity="1.0" stroke="rgb(0,0,0)" stroke-width="2.0"/>
<line x1="296.6" y1="268.0" x2="296.6" y2="244.0" opacity="1.0" stroke="rgb(0,0,0)" stroke-width="2.0"/>
<line x1="289.4" y1="238.0" x2="320.6" y2="220.0" opacity="1.0" stroke="rgb(0,0,0)" stroke-width="2.0"/>
<line x1="320.6" y1="220.0" x2="351.8" y2="238.0" opacity="1.0" stroke="rgb(0,0,0)" stroke-width="2.0"/>
<line x1="322.2" y1="229.2" x2="343.0" y2="241.2" opacity="1.0" stroke="rgb(0,0,0)" stroke-width="2.0"/>
<line x1="351.8" y1="238.0" x2="351.8" y2="274.0" opacity="1.0" stroke="rgb(0,0,0)" stroke-width="2.0"/>
<line x1="351.8" y1="274.0" x2="320.6" y2="292.0" opacity="1.0" stroke="rgb(0,0,0)" stroke-width="2.0"/>
<line x1="343.0" y1="270.8" x2="322.2" y2="282.8" opacity="1.0" stroke="rgb(0,0,0)" stroke-width="2.0"/>
<line x1="195.9" y1="148.0" x2="195.9" y2="112.0" opacity="1.0" stroke="rgb(0,0,0)" stroke-width="2.0"/>
<line x1="195.9" y1="112.0" x2="227.1" y2="94.0" opacity="1.0" stroke="rgb(0,0,0)" stroke-width="2.0"/>
<line x1="204.7" y1="115.2" x2="225.5" y2="103.2" opacity="1.0" stroke="rgb(0,0,0)" stroke-width="2.0"/>
<line x1="227.1" y1="94.0" x2="258.2" y2="112.0" opacity="1.0" stroke="rgb(0,0,0)" stroke-width="2.0"/>
<line x1="258.2" y1="112.0" x2="258.2" y2="148.0" opacity="1.0" stroke="rgb(0,0,0)" stroke-width="2.0"/>
<line x1="251.0" y1="118.0" x2="251.0" y2="142.0" opacity="1.0" stroke="rgb(0,0,0)" stroke-width="2.0"/>
<line x1="258.2" y1="148.0" x2="227.1" y2="166.0" opacity="1.0" stroke="rgb(0,0,0)" stroke-width="2.0"/>
<line x1="227.1" y1="166.0" x2="195.9" y2="148.0" opacity="1.0" stroke="rgb(0,0,0)" stroke-width="2.0"/>
<line x1="225.5" y1="156.8" x2="204.7" y2="144.8" opacity="1.0" stroke="rgb(0,0,0)" stroke-width="2.0"/>
<line x1="71.2" y1="256.0" x2="40.0" y2="274.0" opacity="1.0" stroke="rgb(0,0,0)" stroke-width="2.0"/>
<line x1="40.0" y1="274.0" x2="40.0" y2="310.0" opacity="1.0" stroke="rgb(0,0,0)" stroke-width="2.0"/>
<line x1="47.2" y1="280.0" x2="47.2" y2="304.0" opacity="1.0" stroke="rgb(0,0,0)" stroke-width="2.0"/>
<line x1="40.0" y1="310.0" x2="71.2" y2="328.0" opacity="1.0" stroke="rgb(0,0,0)" stroke-width="2.0"/>
<line x1="71.2" y1="328.0" x2="102.4" y2="310.0" opacity="1.0" stroke="rgb(0,0,0)" stroke-width="2.0"/>
<line x1="72.8" y1="318.8" x2="93.6" y2="306.8" opacity="1.0" stroke="rgb(0,0,0)" stroke-width="2.0"/>
<line x1="102.4" y1="310.0" x2="102.4" y2="274.0" opacity="1.0" stroke="rgb(0,0,0)" stroke-width="2.0"/>
<line x1="102.4" y1="274.0" x2="71.2" y2="256.0" opacity="1.0" stroke="rgb(0,0,0)" stroke-width="2.0"/>
<line x1="93.6" y1="277.2" x2="72.8" y2="265.2" opacity="1.0" stroke="rgb(0,0,0)" stroke-width="2.0"/>
<line x1="164.7" y1="310.0" x2="195.9" y2="328.0" opacity="1.0" stroke="rgb(0,0,0)" stroke-width="2.0"/>
<line x1="195.9" y1="328.0" x2="195.9" y2="364.0" opacity="1.0" stroke="rgb(0,0,0)" stroke-width="2.0"/>
<line x1="188.7" y1="334.0" x2="188.7" y2="358.0" opacity="1.0" stroke="rgb(0,0,0)" stroke-width="2.0"/>
<line x1="164.7" y1="382.0" x2="133.5" y2="364.0" opacity="1.0" stroke="rgb(0,0,0)" stroke-width="2.0"/>
<line x1="163.1" y1="372.8" x2="142.3" y2="360.8" opacity="1.0" stroke="rgb(0,0,0)" stroke-width="2.0"/>
<line x1="133.5" y1="364.0" x2="133.5" y2="328.0" opacity="1.0" stroke="rgb(0,0,0)" stroke-width="2.0"/>
<line x1="133.5" y1="328.0" x2="164.7" y2="310.0" opacity="1.0" stroke="rgb(0,0,0)" stroke-width="2.0"/>
<line x1="142.3" y1="331.2" x2="163.1" y2="319.2" opacity="1.0" stroke="rgb(0,0,0)" stroke-width="2.0"/>
<text x="254.238402" y="48.000000" fill="rgb(102,102,102)" stroke-width="0" font-weight="bold" font-size="16">CH</text>
<text x="278.238402" y="51.680000" fill="rgb(102,102,102)" stroke-width="0" font-weight="bold" font-size="13">3</text>
<text x="216.637786" y="396.088702" fill="rgb(12,12,255)" stroke-width="0" font-weight="bold" font-size="16">NH</text>
<text x="221.061487" y="66.000000" fill="rgb(255,12,12)" stroke-width="0" font-weight="bold" font-size="16">O</text>
<text x="410.122974" y="282.000000" fill="rgb(102,102,102)" stroke-width="0" font-weight="bold" font-size="16">CH</text>
<text x="434.122974" y="285.680000" fill="rgb(102,102,102)" stroke-width="0" font-weight="bold" font-size="13">3</text>
<text x="376.946060" y="300.000000" fill="rgb(255,12,12)" stroke-width="0" font-weight="bold" font-size="16">O</text>
<text x="221.061487" y="210.000000" fill="rgb(12,12,255)" stroke-width="0" font-weight="bold" font-size="16">N</text>
</svg>
</g>
</svg>
