<svg xmlns="http://www.w3.org/2000/svg" xmlns:xlink="http://www.w3.org/1999/xlink" xmlns:cml="http://www.xml-cml.org/schema" version="1.1" id="topsvg" x="0" y="0" viewBox="0 0 100 100">
<title>B_2_S - Open Babel Depiction</title>
<rect x="0" y="0" width="100" height="100" fill="white"/>
<g transform="translate(0,0)">
<svg width="100" height="100" x="0" y="0" viewBox="0 0 453.057 456.923" font-family="sans-serif" stroke="rgb(0,0,0)" stroke-width="2" stroke-linecap="round">
<line x1="164.4" y1="237.4" x2="215.3" y2="208.0" opacity="1.0" stroke="rgb(0,0,0)" stroke-width="2.0"/>
<line x1="226.5" y1="188.5" x2="226.5" y2="165.6" opacity="1.0" stroke="rgb(0,0,0)" stroke-width="2.0"/>
<line x1="59.8" y1="284.8" x2="51.3" y2="279.8" opacity="1.0" stroke="rgb(0,0,0)" stroke-width="2.0"/>
<line x1="102.2" y1="273.3" x2="82.3" y2="284.8" opacity="1.0" stroke="rgb(0,0,0)" stroke-width="2.0"/>
<line x1="215.3" y1="51.4" x2="206.7" y2="46.5" opacity="1.0" stroke="rgb(0,0,0)" stroke-width="2.0"/>
<line x1="226.5" y1="93.8" x2="226.5" y2="70.9" opacity="1.0" stroke="rgb(0,0,0)" stroke-width="2.0"/>
<line x1="237.8" y1="208.0" x2="350.9" y2="273.3" opacity="1.0" stroke="rgb(0,0,0)" stroke-width="2.0"/>
<line x1="257.6" y1="363.1" x2="226.5" y2="381.0" opacity="1.0" stroke="rgb(0,0,0)" stroke-width="2.0"/>
<line x1="226.5" y1="381.0" x2="226.5" y2="403.9" opacity="1.0" stroke="rgb(0,0,0)" stroke-width="2.0"/>
<line x1="225.0" y1="383.6" x2="205.2" y2="372.2" opacity="1.0" stroke="rgb(0,0,0)" stroke-width="2.0"/>
<line x1="228.0" y1="378.4" x2="208.2" y2="367.0" opacity="1.0" stroke="rgb(0,0,0)" stroke-width="2.0"/>
<line x1="350.9" y1="309.2" x2="319.8" y2="327.2" opacity="1.0" stroke="rgb(0,0,0)" stroke-width="2.0"/>
<line x1="102.2" y1="237.4" x2="133.3" y2="219.5" opacity="1.0" stroke="rgb(0,0,0)" stroke-width="2.0"/>
<line x1="133.3" y1="219.5" x2="164.4" y2="237.4" opacity="1.0" stroke="rgb(0,0,0)" stroke-width="2.0"/>
<line x1="134.9" y1="228.7" x2="155.6" y2="240.7" opacity="1.0" stroke="rgb(0,0,0)" stroke-width="2.0"/>
<line x1="164.4" y1="237.4" x2="164.4" y2="273.3" opacity="1.0" stroke="rgb(0,0,0)" stroke-width="2.0"/>
<line x1="164.4" y1="273.3" x2="133.3" y2="291.3" opacity="1.0" stroke="rgb(0,0,0)" stroke-width="2.0"/>
<line x1="155.6" y1="270.1" x2="134.9" y2="282.0" opacity="1.0" stroke="rgb(0,0,0)" stroke-width="2.0"/>
<line x1="133.3" y1="291.3" x2="102.2" y2="273.3" opacity="1.0" stroke="rgb(0,0,0)" stroke-width="2.0"/>
<line x1="102.2" y1="273.3" x2="102.2" y2="237.4" opacity="1.0" stroke="rgb(0,0,0)" stroke-width="2.0"/>
<line x1="109.4" y1="267.3" x2="109.4" y2="243.4" opacity="1.0" stroke="rgb(0,0,0)" stroke-width="2.0"/>
<line x1="195.4" y1="147.7" x2="195.4" y2="111.8" opacity="1.0" stroke="rgb(0,0,0)" stroke-width="2.0"/>
<line x1="195.4" y1="111.8" x2="226.5" y2="93.8" opacity="1.0" stroke="rgb(0,0,0)" stroke-width="2.0"/>
<line x1="204.2" y1="115.0" x2="224.9" y2="103.1" opacity="1.0" stroke="rgb(0,0,0)" stroke-width="2.0"/>
<line x1="226.5" y1="93.8" x2="257.6" y2="111.8" opacity="1.0" stroke="rgb(0,0,0)" stroke-width="2.0"/>
<line x1="257.6" y1="111.8" x2="257.6" y2="147.7" opacity="1.0" stroke="rgb(0,0,0)" stroke-width="2.0"/>
<line x1="250.4" y1="117.8" x2="250.4" y2="141.7" opacity="1.0" stroke="rgb(0,0,0)" stroke-width="2.0"/>
<line x1="257.6" y1="147.7" x2="226.5" y2="165.6" opacity="1.0" stroke="rgb(0,0,0)" stroke-width="2.0"/>
<line x1="226.5" y1="165.6" x2="195.4" y2="147.7" opacity="1.0" stroke="rgb(0,0,0)" stroke-width="2.0"/>
<line x1="224.9" y1="156.4" x2="204.2" y2="144.5" opacity="1.0" stroke="rgb(0,0,0)" stroke-width="2.0"/>
<line x1="382.0" y1="255.4" x2="413.1" y2="273.3" opacity="1.0" stroke="rgb(0,0,0)" stroke-width="2.0"/>
<line x1="413.1" y1="273.3" x2="413.1" y2="309.2" opacity="1.0" stroke="rgb(0,0,0)" stroke-width="2.0"/>
<line x1="405.9" y1="279.3" x2="405.9" y2="303.2" opacity="1.0" stroke="rgb(0,0,0)" stroke-width="2.0"/>
<line x1="413.1" y1="309.2" x2="382.0" y2="327.2" opacity="1.0" stroke="rgb(0,0,0)" stroke-width="2.0"/>
<line x1="382.0" y1="327.2" x2="350.9" y2="309.2" opacity="1.0" stroke="rgb(0,0,0)" stroke-width="2.0"/>
<line x1="380.4" y1="317.9" x2="359.7" y2="306.0" opacity="1.0" stroke="rgb(0,0,0)" stroke-width="2.0"/>
<line x1="350.9" y1="309.2" x2="350.9" y2="273.3" opacity="1.0" stroke="rgb(0,0,0)" stroke-width="2.0"/>
<line x1="350.9" y1="273.3" x2="382.0" y2="255.4" opacity="1.0" stroke="rgb(0,0,0)" stroke-width="2.0"/>
<line x1="359.7" y1="276.6" x2="380.4" y2="264.6" opacity="1.0" stroke="rgb(0,0,0)" stroke-width="2.0"/>
<line x1="319.8" y1="363.1" x2="288.7" y2="381.0" opacity="1.0" stroke="rgb(0,0,0)" stroke-width="2.0"/>
<line x1="288.7" y1="381.0" x2="257.6" y2="363.1" opacity="1.0" stroke="rgb(0,0,0)" stroke-width="2.0"/>
<line x1="287.1" y1="371.8" x2="266.4" y2="359.8" opacity="1.0" stroke="rgb(0,0,0)" stroke-width="2.0"/>
<line x1="257.6" y1="363.1" x2="257.6" y2="327.2" opacity="1.0" stroke="rgb(0,0,0)" stroke-width="2.0"/>
<line x1="257.6" y1="327.2" x2="288.7" y2="309.2" opacity="1.0" stroke="rgb(0,0,0)" stroke-width="2.0"/>
<line x1="266.4" y1="330.4" x2="287.1" y2="318.5" opacity="1.0" stroke="rgb(0,0,0)" stroke-width="2.0"/>
<line x1="288.7" y1="309.2" x2="319.8" y2="327.2" opacity="1.0" stroke="rgb(0,0,0)" stroke-width="2.0"/>
<line x1="319.8" y1="327.2" x2="319.8" y2="363.1" opacity="1.0" stroke="rgb(0,0,0)" stroke-width="2.0"/>
<line x1="312.6" y1="333.2" x2="312.6" y2="357.1" opacity="1.0" stroke="rgb(0,0,0)" stroke-width="2.0"/>
<text x="169.440457" y="48.000000" fill="rgb(102,102,102)" stroke-width="0" font-weight="bold" font-size="16">H</text>
<text x="181.440457" y="51.680000" fill="rgb(102,102,102)" stroke-width="0" font-weight="bold" font-size="13">3</text>
<text x="187.940457" y="48.000000" fill="rgb(102,102,102)" stroke-width="0" font-weight="bold" font-size="16">C</text>
<text x="189.440457" y="371.076923" fill="rgb(255,12,12)" stroke-width="0" font-weight="bold" font-size="16">O</text>
<text x="222.528549" y="424.923077" fill="rgb(102,102,102)" stroke-width="0" font-weight="bold" font-size="16">CH</text>
<text x="246.528549" y="428.603077" fill="rgb(102,102,102)" stroke-width="0" font-weight="bold" font-size="13">3</text>
<text x="220.528549" y="65.948718" fill="rgb(255,12,12)" stroke-width="0" font-weight="bold" font-size="16">O</text>
<text x="14.000000" y="281.333333" fill="rgb(102,102,102)" stroke-width="0" font-weight="bold" font-size="16">H</text>
<text x="26.000000" y="285.013333" fill="rgb(102,102,102)" stroke-width="0" font-weight="bold" font-size="13">3</text>
<text x="32.500000" y="281.333333" fill="rgb(102,102,102)" stroke-width="0" font-weight="bold" font-size="16">C</text>
<text x="65.088091" y="299.282051" fill="rgb(255,12,12)" stroke-width="0" font-weight="bold" font-size="16">O</text>
<text x="220.528549" y="209.538462" fill="rgb(12,12,255)" stroke-width="0" font-weight="bold" font-size="16">N</text>
</svg>
</g>
</svg>