<svg xmlns="http://www.w3.org/2000/svg" x="0" y="0" viewBox="0 0 100 100">
<title>B_3_N - Open Babel Depiction</title>
<rect x="0" y="0" width="100" height="100" fill="white"/>
<g transform="translate(0,0)">
<svg width="100" height="100" x="0" y="0" viewBox="0 0 484.86 433.6" font-family="sans-serif" stroke="rgb(0,0,0)" stroke-width="2" stroke-linecap="round">
<line x1="287.1" y1="266.0" x2="287.1" y2="206.2" opacity="1.0" stroke="rgb(0,0,0)" stroke-width="2.0"/>
<line x1="298.3" y1="186.7" x2="350.2" y2="156.7" opacity="1.0" stroke="rgb(0,0,0)" stroke-width="2.0"/>
<line x1="275.8" y1="381.9" x2="266.7" y2="387.1" opacity="1.0" stroke="rgb(0,0,0)" stroke-width="2.0"/>
<line x1="287.1" y1="338.9" x2="287.1" y2="362.4" opacity="1.0" stroke="rgb(0,0,0)" stroke-width="2.0"/>
<line x1="444.9" y1="89.0" x2="444.9" y2="78.6" opacity="1.0" stroke="rgb(0,0,0)" stroke-width="2.0"/>
<line x1="413.3" y1="120.3" x2="433.6" y2="108.5" opacity="1.0" stroke="rgb(0,0,0)" stroke-width="2.0"/>
<line x1="275.8" y1="186.7" x2="223.9" y2="156.7" opacity="1.0" stroke="rgb(0,0,0)" stroke-width="2.0"/>
<line x1="160.8" y1="120.3" x2="97.7" y2="83.8" opacity="1.0" stroke="rgb(0,0,0)" stroke-width="2.0"/>
<line x1="64.4" y1="98.6" x2="48.7" y2="81.2" opacity="1.0" stroke="rgb(0,0,0)" stroke-width="2.0"/>
<line x1="46.5" y1="60.3" x2="58.2" y2="40.0" opacity="1.0" stroke="rgb(0,0,0)" stroke-width="2.0"/>
<line x1="58.2" y1="40.0" x2="93.9" y2="47.6" opacity="1.0" stroke="rgb(0,0,0)" stroke-width="2.0"/>
<line x1="62.6" y1="48.3" x2="86.5" y2="53.4" opacity="1.0" stroke="rgb(0,0,0)" stroke-width="2.0"/>
<line x1="93.9" y1="47.6" x2="97.7" y2="83.8" opacity="1.0" stroke="rgb(0,0,0)" stroke-width="2.0"/>
<line x1="97.7" y1="83.8" x2="64.4" y2="98.6" opacity="1.0" stroke="rgb(0,0,0)" stroke-width="2.0"/>
<line x1="89.3" y1="79.7" x2="66.9" y2="89.6" opacity="1.0" stroke="rgb(0,0,0)" stroke-width="2.0"/>
<line x1="255.5" y1="320.7" x2="255.5" y2="284.3" opacity="1.0" stroke="rgb(0,0,0)" stroke-width="2.0"/>
<line x1="255.5" y1="284.3" x2="287.1" y2="266.0" opacity="1.0" stroke="rgb(0,0,0)" stroke-width="2.0"/>
<line x1="264.3" y1="287.5" x2="285.5" y2="275.3" opacity="1.0" stroke="rgb(0,0,0)" stroke-width="2.0"/>
<line x1="287.1" y1="266.0" x2="318.6" y2="284.3" opacity="1.0" stroke="rgb(0,0,0)" stroke-width="2.0"/>
<line x1="318.6" y1="284.3" x2="318.6" y2="320.7" opacity="1.0" stroke="rgb(0,0,0)" stroke-width="2.0"/>
<line x1="311.4" y1="290.3" x2="311.4" y2="314.7" opacity="1.0" stroke="rgb(0,0,0)" stroke-width="2.0"/>
<line x1="318.6" y1="320.7" x2="287.1" y2="338.9" opacity="1.0" stroke="rgb(0,0,0)" stroke-width="2.0"/>
<line x1="287.1" y1="338.9" x2="255.5" y2="320.7" opacity="1.0" stroke="rgb(0,0,0)" stroke-width="2.0"/>
<line x1="285.5" y1="329.7" x2="264.3" y2="317.5" opacity="1.0" stroke="rgb(0,0,0)" stroke-width="2.0"/>
<line x1="350.2" y1="120.3" x2="381.7" y2="102.0" opacity="1.0" stroke="rgb(0,0,0)" stroke-width="2.0"/>
<line x1="381.7" y1="102.0" x2="413.3" y2="120.3" opacity="1.0" stroke="rgb(0,0,0)" stroke-width="2.0"/>
<line x1="383.3" y1="111.3" x2="404.5" y2="123.5" opacity="1.0" stroke="rgb(0,0,0)" stroke-width="2.0"/>
<line x1="413.3" y1="120.3" x2="413.3" y2="156.7" opacity="1.0" stroke="rgb(0,0,0)" stroke-width="2.0"/>
<line x1="413.3" y1="156.7" x2="381.7" y2="174.9" opacity="1.0" stroke="rgb(0,0,0)" stroke-width="2.0"/>
<line x1="404.5" y1="153.5" x2="383.3" y2="165.7" opacity="1.0" stroke="rgb(0,0,0)" stroke-width="2.0"/>
<line x1="381.7" y1="174.9" x2="350.2" y2="156.7" opacity="1.0" stroke="rgb(0,0,0)" stroke-width="2.0"/>
<line x1="350.2" y1="156.7" x2="350.2" y2="120.3" opacity="1.0" stroke="rgb(0,0,0)" stroke-width="2.0"/>
<line x1="357.4" y1="150.7" x2="357.4" y2="126.3" opacity="1.0" stroke="rgb(0,0,0)" stroke-width="2.0"/>
<line x1="255.5" y1="102.0" x2="255.5" y2="65.6" opacity="1.0" stroke="rgb(0,0,0)" stroke-width="2.0"/>
<line x1="248.3" y1="96.0" x2="248.3" y2="71.6" opacity="1.0" stroke="rgb(0,0,0)" stroke-width="2.0"/>
<line x1="255.5" y1="65.6" x2="223.9" y2="47.4" opacity="1.0" stroke="rgb(0,0,0)" stroke-width="2.0"/>
<line x1="223.9" y1="47.4" x2="192.4" y2="65.6" opacity="1.0" stroke="rgb(0,0,0)" stroke-width="2.0"/>
<line x1="222.3" y1="56.6" x2="201.2" y2="68.8" opacity="1.0" stroke="rgb(0,0,0)" stroke-width="2.0"/>
<line x1="192.4" y1="65.6" x2="192.4" y2="102.0" opacity="1.0" stroke="rgb(0,0,0)" stroke-width="2.0"/>
<line x1="192.4" y1="102.0" x2="223.9" y2="120.3" opacity="1.0" stroke="rgb(0,0,0)" stroke-width="2.0"/>
<line x1="201.2" y1="98.8" x2="222.3" y2="111.0" opacity="1.0" stroke="rgb(0,0,0)" stroke-width="2.0"/>
<line x1="223.9" y1="120.3" x2="255.5" y2="102.0" opacity="1.0" stroke="rgb(0,0,0)" stroke-width="2.0"/>
<line x1="160.8" y1="120.3" x2="192.4" y2="102.0" opacity="1.0" stroke="rgb(0,0,0)" stroke-width="2.0"/>
<line x1="223.9" y1="120.3" x2="223.9" y2="156.7" opacity="1.0" stroke="rgb(0,0,0)" stroke-width="2.0"/>
<line x1="223.9" y1="156.7" x2="192.4" y2="174.9" opacity="1.0" stroke="rgb(0,0,0)" stroke-width="2.0"/>
<line x1="215.1" y1="153.5" x2="194.0" y2="165.7" opacity="1.0" stroke="rgb(0,0,0)" stroke-width="2.0"/>
<line x1="192.4" y1="174.9" x2="160.8" y2="156.7" opacity="1.0" stroke="rgb(0,0,0)" stroke-width="2.0"/>
<line x1="160.8" y1="156.7" x2="160.8" y2="120.3" opacity="1.0" stroke="rgb(0,0,0)" stroke-width="2.0"/>
<line x1="168.0" y1="150.7" x2="168.0" y2="126.3" opacity="1.0" stroke="rgb(0,0,0)" stroke-width="2.0"/>
<line x1="160.8" y1="229.6" x2="129.2" y2="211.4" opacity="1.0" stroke="rgb(0,0,0)" stroke-width="2.0"/>
<line x1="129.2" y1="211.4" x2="129.2" y2="174.9" opacity="1.0" stroke="rgb(0,0,0)" stroke-width="2.0"/>
<line x1="136.4" y1="205.4" x2="136.4" y2="180.9" opacity="1.0" stroke="rgb(0,0,0)" stroke-width="2.0"/>
<line x1="129.2" y1="174.9" x2="160.8" y2="156.7" opacity="1.0" stroke="rgb(0,0,0)" stroke-width="2.0"/>
<line x1="192.4" y1="174.9" x2="192.4" y2="211.4" opacity="1.0" stroke="rgb(0,0,0)" stroke-width="2.0"/>
<line x1="192.4" y1="211.4" x2="160.8" y2="229.6" opacity="1.0" stroke="rgb(0,0,0)" stroke-width="2.0"/>
<line x1="183.6" y1="208.1" x2="162.4" y2="220.4" opacity="1.0" stroke="rgb(0,0,0)" stroke-width="2.0"/>
<text x="34.000000" y="79.561815" fill="rgb(178,178,0)" stroke-width="0" font-weight="bold" font-size="16">S</text>
<text x="281.050638" y="201.155357" fill="rgb(12,12,255)" stroke-width="0" font-weight="bold" font-size="16">N</text>
<text x="281.050638" y="383.377580" fill="rgb(255,12,12)" stroke-width="0" font-weight="bold" font-size="16">O</text>
<text x="229.488823" y="401.599802" fill="rgb(102,102,102)" stroke-width="0" font-weight="bold" font-size="16">H</text>
<text x="241.488823" y="405.279802" fill="rgb(102,102,102)" stroke-width="0" font-weight="bold" font-size="13">3</text>
<text x="247.988823" y="401.599802" fill="rgb(102,102,102)" stroke-width="0" font-weight="bold" font-size="16">C</text>
<text x="438.859712" y="110.044246" fill="rgb(255,12,12)" stroke-width="0" font-weight="bold" font-size="16">O</text>
<text x="440.859712" y="73.599802" fill="rgb(102,102,102)" stroke-width="0" font-weight="bold" font-size="16">CH</text>
<text x="464.859712" y="77.279802" fill="rgb(102,102,102)" stroke-width="0" font-weight="bold" font-size="13">3</text>
</svg>
</g>
</svg>
