<svg xmlns="http://www.w3.org/2000/svg" xmlns:xlink="http://www.w3.org/1999/xlink" xmlns:cml="http://www.xml-cml.org/schema" version="1.1" id="topsvg" x="0" y="0" viewBox="0 0 100 100">
<title>B_3_O - Open Babel Depiction</title>
<rect x="0" y="0" width="100" height="100" fill="white"/>
<g transform="translate(0,0)">
<svg width="100" height="100" x="0" y="0" viewBox="0 0 491.174 445.217" font-family="sans-serif" stroke="rgb(0,0,0)" stroke-width="2" stroke-linecap="round">
<line x1="356.3" y1="277.4" x2="304.3" y2="247.4" opacity="1.0" stroke="rgb(0,0,0)" stroke-width="2.0"/>
<line x1="293.0" y1="227.9" x2="293.0" y2="167.8" opacity="1.0" stroke="rgb(0,0,0)" stroke-width="2.0"/>
<line x1="451.2" y1="345.2" x2="451.2" y2="355.7" opacity="1.0" stroke="rgb(0,0,0)" stroke-width="2.0"/>
<line x1="419.5" y1="313.9" x2="439.9" y2="325.7" opacity="1.0" stroke="rgb(0,0,0)" stroke-width="2.0"/>
<line x1="281.8" y1="51.8" x2="272.7" y2="46.5" opacity="1.0" stroke="rgb(0,0,0)" stroke-width="2.0"/>
<line x1="293.0" y1="94.8" x2="293.0" y2="71.3" opacity="1.0" stroke="rgb(0,0,0)" stroke-width="2.0"/>
<line x1="281.8" y1="247.4" x2="229.8" y2="277.4" opacity="1.0" stroke="rgb(0,0,0)" stroke-width="2.0"/>
<line x1="166.5" y1="313.9" x2="103.3" y2="350.4" opacity="1.0" stroke="rgb(0,0,0)" stroke-width="2.0"/>
<line x1="387.9" y1="332.2" x2="356.3" y2="313.9" opacity="1.0" stroke="rgb(0,0,0)" stroke-width="2.0"/>
<line x1="356.3" y1="313.9" x2="356.3" y2="277.4" opacity="1.0" stroke="rgb(0,0,0)" stroke-width="2.0"/>
<line x1="363.5" y1="307.9" x2="363.5" y2="283.4" opacity="1.0" stroke="rgb(0,0,0)" stroke-width="2.0"/>
<line x1="356.3" y1="277.4" x2="387.9" y2="259.1" opacity="1.0" stroke="rgb(0,0,0)" stroke-width="2.0"/>
<line x1="387.9" y1="259.1" x2="419.5" y2="277.4" opacity="1.0" stroke="rgb(0,0,0)" stroke-width="2.0"/>
<line x1="389.5" y1="268.4" x2="410.7" y2="280.6" opacity="1.0" stroke="rgb(0,0,0)" stroke-width="2.0"/>
<line x1="419.5" y1="277.4" x2="419.5" y2="313.9" opacity="1.0" stroke="rgb(0,0,0)" stroke-width="2.0"/>
<line x1="419.5" y1="313.9" x2="387.9" y2="332.2" opacity="1.0" stroke="rgb(0,0,0)" stroke-width="2.0"/>
<line x1="410.7" y1="310.7" x2="389.5" y2="322.9" opacity="1.0" stroke="rgb(0,0,0)" stroke-width="2.0"/>
<line x1="261.4" y1="149.6" x2="261.4" y2="113.0" opacity="1.0" stroke="rgb(0,0,0)" stroke-width="2.0"/>
<line x1="261.4" y1="113.0" x2="293.0" y2="94.8" opacity="1.0" stroke="rgb(0,0,0)" stroke-width="2.0"/>
<line x1="270.2" y1="116.3" x2="291.4" y2="104.0" opacity="1.0" stroke="rgb(0,0,0)" stroke-width="2.0"/>
<line x1="293.0" y1="94.8" x2="324.7" y2="113.0" opacity="1.0" stroke="rgb(0,0,0)" stroke-width="2.0"/>
<line x1="324.7" y1="113.0" x2="324.7" y2="149.6" opacity="1.0" stroke="rgb(0,0,0)" stroke-width="2.0"/>
<line x1="317.5" y1="119.0" x2="317.5" y2="143.6" opacity="1.0" stroke="rgb(0,0,0)" stroke-width="2.0"/>
<line x1="324.7" y1="149.6" x2="293.0" y2="167.8" opacity="1.0" stroke="rgb(0,0,0)" stroke-width="2.0"/>
<line x1="293.0" y1="167.8" x2="261.4" y2="149.6" opacity="1.0" stroke="rgb(0,0,0)" stroke-width="2.0"/>
<line x1="291.4" y1="158.6" x2="270.2" y2="146.3" opacity="1.0" stroke="rgb(0,0,0)" stroke-width="2.0"/>
<line x1="198.1" y1="222.6" x2="166.5" y2="204.3" opacity="1.0" stroke="rgb(0,0,0)" stroke-width="2.0"/>
<line x1="189.3" y1="225.8" x2="168.1" y2="213.6" opacity="1.0" stroke="rgb(0,0,0)" stroke-width="2.0"/>
<line x1="166.5" y1="204.3" x2="134.9" y2="222.6" opacity="1.0" stroke="rgb(0,0,0)" stroke-width="2.0"/>
<line x1="134.9" y1="222.6" x2="134.9" y2="259.1" opacity="1.0" stroke="rgb(0,0,0)" stroke-width="2.0"/>
<line x1="142.1" y1="228.6" x2="142.1" y2="253.1" opacity="1.0" stroke="rgb(0,0,0)" stroke-width="2.0"/>
<line x1="134.9" y1="259.1" x2="166.5" y2="277.4" opacity="1.0" stroke="rgb(0,0,0)" stroke-width="2.0"/>
<line x1="166.5" y1="277.4" x2="198.1" y2="259.1" opacity="1.0" stroke="rgb(0,0,0)" stroke-width="2.0"/>
<line x1="168.1" y1="268.2" x2="189.3" y2="255.9" opacity="1.0" stroke="rgb(0,0,0)" stroke-width="2.0"/>
<line x1="198.1" y1="259.1" x2="198.1" y2="222.6" opacity="1.0" stroke="rgb(0,0,0)" stroke-width="2.0"/>
<line x1="166.5" y1="313.9" x2="166.5" y2="277.4" opacity="1.0" stroke="rgb(0,0,0)" stroke-width="2.0"/>
<line x1="198.1" y1="259.1" x2="229.8" y2="277.4" opacity="1.0" stroke="rgb(0,0,0)" stroke-width="2.0"/>
<line x1="229.8" y1="277.4" x2="229.8" y2="313.9" opacity="1.0" stroke="rgb(0,0,0)" stroke-width="2.0"/>
<line x1="222.6" y1="283.4" x2="222.6" y2="307.9" opacity="1.0" stroke="rgb(0,0,0)" stroke-width="2.0"/>
<line x1="229.8" y1="313.9" x2="198.1" y2="332.2" opacity="1.0" stroke="rgb(0,0,0)" stroke-width="2.0"/>
<line x1="198.1" y1="332.2" x2="166.5" y2="313.9" opacity="1.0" stroke="rgb(0,0,0)" stroke-width="2.0"/>
<line x1="196.5" y1="322.9" x2="175.3" y2="310.7" opacity="1.0" stroke="rgb(0,0,0)" stroke-width="2.0"/>
<line x1="261.4" y1="368.7" x2="229.8" y2="387.0" opacity="1.0" stroke="rgb(0,0,0)" stroke-width="2.0"/>
<line x1="229.8" y1="387.0" x2="198.1" y2="368.7" opacity="1.0" stroke="rgb(0,0,0)" stroke-width="2.0"/>
<line x1="228.2" y1="377.7" x2="206.9" y2="365.5" opacity="1.0" stroke="rgb(0,0,0)" stroke-width="2.0"/>
<line x1="198.1" y1="368.7" x2="198.1" y2="332.2" opacity="1.0" stroke="rgb(0,0,0)" stroke-width="2.0"/>
<line x1="229.8" y1="313.9" x2="261.4" y2="332.2" opacity="1.0" stroke="rgb(0,0,0)" stroke-width="2.0"/>
<line x1="261.4" y1="332.2" x2="261.4" y2="368.7" opacity="1.0" stroke="rgb(0,0,0)" stroke-width="2.0"/>
<line x1="254.2" y1="338.2" x2="254.2" y2="362.7" opacity="1.0" stroke="rgb(0,0,0)" stroke-width="2.0"/>
<line x1="92.0" y1="393.5" x2="71.6" y2="405.2" opacity="1.0" stroke="rgb(0,0,0)" stroke-width="2.0"/>
<line x1="71.6" y1="405.2" x2="40.0" y2="387.0" opacity="1.0" stroke="rgb(0,0,0)" stroke-width="2.0"/>
<line x1="70.0" y1="396.0" x2="48.8" y2="383.7" opacity="1.0" stroke="rgb(0,0,0)" stroke-width="2.0"/>
<line x1="40.0" y1="387.0" x2="40.0" y2="350.4" opacity="1.0" stroke="rgb(0,0,0)" stroke-width="2.0"/>
<line x1="40.0" y1="350.4" x2="71.6" y2="332.2" opacity="1.0" stroke="rgb(0,0,0)" stroke-width="2.0"/>
<line x1="48.8" y1="353.7" x2="70.0" y2="341.4" opacity="1.0" stroke="rgb(0,0,0)" stroke-width="2.0"/>
<line x1="71.6" y1="332.2" x2="103.3" y2="350.4" opacity="1.0" stroke="rgb(0,0,0)" stroke-width="2.0"/>
<line x1="103.3" y1="350.4" x2="103.3" y2="374.9" opacity="1.0" stroke="rgb(0,0,0)" stroke-width="2.0"/>
<line x1="96.1" y1="356.4" x2="96.1" y2="372.6" opacity="1.0" stroke="rgb(0,0,0)" stroke-width="2.0"/>
<text x="97.257508" y="394.956522" fill="rgb(12,12,255)" stroke-width="0" font-weight="bold" font-size="16">N</text>
<text x="287.030031" y="248.869565" fill="rgb(12,12,255)" stroke-width="0" font-weight="bold" font-size="16">N</text>
<text x="445.173800" y="340.173913" fill="rgb(255,12,12)" stroke-width="0" font-weight="bold" font-size="16">O</text>
<text x="447.173800" y="376.695652" fill="rgb(102,102,102)" stroke-width="0" font-weight="bold" font-size="16">CH</text>
<text x="471.173800" y="380.375652" fill="rgb(102,102,102)" stroke-width="0" font-weight="bold" font-size="13">3</text>
<text x="287.030031" y="66.260870" fill="rgb(255,12,12)" stroke-width="0" font-weight="bold" font-size="16">O</text>
<text x="235.401277" y="48.000000" fill="rgb(102,102,102)" stroke-width="0" font-weight="bold" font-size="16">H</text>
<text x="247.401277" y="51.680000" fill="rgb(102,102,102)" stroke-width="0" font-weight="bold" font-size="13">3</text>
<text x="253.901277" y="48.000000" fill="rgb(102,102,102)" stroke-width="0" font-weight="bold" font-size="16">C</text>
</svg>
</g>
</svg>