<svg xmlns="http://www.w3.org/2000/svg" x="0" y="0" viewBox="0 0 100 100">
<title>B_3_K - Open Babel Depiction</title>
<rect x="0" y="0" width="100" height="100" fill="white"/>
<g transform="translate(0,0)">
<svg width="100" height="100" x="0" y="0" viewBox="0 0 557.198 484.082" font-family="sans-serif" stroke="rgb(0,0,0)" stroke-width="2" stroke-linecap="round">
<line x1="421.8" y1="278.8" x2="369.4" y2="248.5" opacity="1.0" stroke="rgb(0,0,0)" stroke-width="2.0"/>
<line x1="358.1" y1="229.0" x2="358.1" y2="168.6" opacity="1.0" stroke="rgb(0,0,0)" stroke-width="2.0"/>
<line x1="517.2" y1="346.9" x2="517.2" y2="357.6" opacity="1.0" stroke="rgb(0,0,0)" stroke-width="2.0"/>
<line x1="485.4" y1="315.5" x2="505.9" y2="327.4" opacity="1.0" stroke="rgb(0,0,0)" stroke-width="2.0"/>
<line x1="346.9" y1="51.9" x2="337.6" y2="46.5" opacity="1.0" stroke="rgb(0,0,0)" stroke-width="2.0"/>
<line x1="358.1" y1="95.1" x2="358.1" y2="71.4" opacity="1.0" stroke="rgb(0,0,0)" stroke-width="2.0"/>
<line x1="346.9" y1="248.5" x2="294.5" y2="278.8" opacity="1.0" stroke="rgb(0,0,0)" stroke-width="2.0"/>
<line x1="59.1" y1="403.4" x2="49.8" y2="398.1" opacity="1.0" stroke="rgb(0,0,0)" stroke-width="2.0"/>
<line x1="62.1" y1="398.2" x2="52.8" y2="392.9" opacity="1.0" stroke="rgb(0,0,0)" stroke-width="2.0"/>
<line x1="71.8" y1="420.3" x2="71.8" y2="431.1" opacity="1.0" stroke="rgb(0,0,0)" stroke-width="2.0"/>
<line x1="103.6" y1="389.0" x2="83.1" y2="400.8" opacity="1.0" stroke="rgb(0,0,0)" stroke-width="2.0"/>
<line x1="230.9" y1="315.5" x2="167.3" y2="352.2" opacity="1.0" stroke="rgb(0,0,0)" stroke-width="2.0"/>
<line x1="453.6" y1="333.9" x2="421.8" y2="315.5" opacity="1.0" stroke="rgb(0,0,0)" stroke-width="2.0"/>
<line x1="421.8" y1="315.5" x2="421.8" y2="278.8" opacity="1.0" stroke="rgb(0,0,0)" stroke-width="2.0"/>
<line x1="429.0" y1="309.5" x2="429.0" y2="284.8" opacity="1.0" stroke="rgb(0,0,0)" stroke-width="2.0"/>
<line x1="421.8" y1="278.8" x2="453.6" y2="260.4" opacity="1.0" stroke="rgb(0,0,0)" stroke-width="2.0"/>
<line x1="453.6" y1="260.4" x2="485.4" y2="278.8" opacity="1.0" stroke="rgb(0,0,0)" stroke-width="2.0"/>
<line x1="455.2" y1="269.6" x2="476.6" y2="282.0" opacity="1.0" stroke="rgb(0,0,0)" stroke-width="2.0"/>
<line x1="485.4" y1="278.8" x2="485.4" y2="315.5" opacity="1.0" stroke="rgb(0,0,0)" stroke-width="2.0"/>
<line x1="485.4" y1="315.5" x2="453.6" y2="333.9" opacity="1.0" stroke="rgb(0,0,0)" stroke-width="2.0"/>
<line x1="476.6" y1="312.3" x2="455.2" y2="324.6" opacity="1.0" stroke="rgb(0,0,0)" stroke-width="2.0"/>
<line x1="389.9" y1="150.2" x2="389.9" y2="113.5" opacity="1.0" stroke="rgb(0,0,0)" stroke-width="2.0"/>
<line x1="389.9" y1="113.5" x2="358.1" y2="95.1" opacity="1.0" stroke="rgb(0,0,0)" stroke-width="2.0"/>
<line x1="381.1" y1="116.7" x2="359.7" y2="104.3" opacity="1.0" stroke="rgb(0,0,0)" stroke-width="2.0"/>
<line x1="358.1" y1="95.1" x2="326.3" y2="113.5" opacity="1.0" stroke="rgb(0,0,0)" stroke-width="2.0"/>
<line x1="326.3" y1="113.5" x2="326.3" y2="150.2" opacity="1.0" stroke="rgb(0,0,0)" stroke-width="2.0"/>
<line x1="333.5" y1="119.5" x2="333.5" y2="144.2" opacity="1.0" stroke="rgb(0,0,0)" stroke-width="2.0"/>
<line x1="326.3" y1="150.2" x2="358.1" y2="168.6" opacity="1.0" stroke="rgb(0,0,0)" stroke-width="2.0"/>
<line x1="358.1" y1="168.6" x2="389.9" y2="150.2" opacity="1.0" stroke="rgb(0,0,0)" stroke-width="2.0"/>
<line x1="359.7" y1="159.3" x2="381.1" y2="147.0" opacity="1.0" stroke="rgb(0,0,0)" stroke-width="2.0"/>
<line x1="262.7" y1="223.7" x2="230.9" y2="205.3" opacity="1.0" stroke="rgb(0,0,0)" stroke-width="2.0"/>
<line x1="253.9" y1="226.9" x2="232.5" y2="214.5" opacity="1.0" stroke="rgb(0,0,0)" stroke-width="2.0"/>
<line x1="230.9" y1="205.3" x2="199.1" y2="223.7" opacity="1.0" stroke="rgb(0,0,0)" stroke-width="2.0"/>
<line x1="199.1" y1="223.7" x2="199.1" y2="260.4" opacity="1.0" stroke="rgb(0,0,0)" stroke-width="2.0"/>
<line x1="206.3" y1="229.7" x2="206.3" y2="254.4" opacity="1.0" stroke="rgb(0,0,0)" stroke-width="2.0"/>
<line x1="199.1" y1="260.4" x2="230.9" y2="278.8" opacity="1.0" stroke="rgb(0,0,0)" stroke-width="2.0"/>
<line x1="230.9" y1="278.8" x2="262.7" y2="260.4" opacity="1.0" stroke="rgb(0,0,0)" stroke-width="2.0"/>
<line x1="232.5" y1="269.5" x2="253.9" y2="257.2" opacity="1.0" stroke="rgb(0,0,0)" stroke-width="2.0"/>
<line x1="262.7" y1="260.4" x2="262.7" y2="223.7" opacity="1.0" stroke="rgb(0,0,0)" stroke-width="2.0"/>
<line x1="230.9" y1="315.5" x2="230.9" y2="278.8" opacity="1.0" stroke="rgb(0,0,0)" stroke-width="2.0"/>
<line x1="262.7" y1="260.4" x2="294.5" y2="278.8" opacity="1.0" stroke="rgb(0,0,0)" stroke-width="2.0"/>
<line x1="294.5" y1="278.8" x2="294.5" y2="315.5" opacity="1.0" stroke="rgb(0,0,0)" stroke-width="2.0"/>
<line x1="287.3" y1="284.8" x2="287.3" y2="309.5" opacity="1.0" stroke="rgb(0,0,0)" stroke-width="2.0"/>
<line x1="294.5" y1="315.5" x2="262.7" y2="333.9" opacity="1.0" stroke="rgb(0,0,0)" stroke-width="2.0"/>
<line x1="262.7" y1="333.9" x2="230.9" y2="315.5" opacity="1.0" stroke="rgb(0,0,0)" stroke-width="2.0"/>
<line x1="261.1" y1="324.6" x2="239.7" y2="312.3" opacity="1.0" stroke="rgb(0,0,0)" stroke-width="2.0"/>
<line x1="326.3" y1="370.6" x2="294.5" y2="389.0" opacity="1.0" stroke="rgb(0,0,0)" stroke-width="2.0"/>
<line x1="294.5" y1="389.0" x2="262.7" y2="370.6" opacity="1.0" stroke="rgb(0,0,0)" stroke-width="2.0"/>
<line x1="292.9" y1="379.7" x2="271.5" y2="367.4" opacity="1.0" stroke="rgb(0,0,0)" stroke-width="2.0"/>
<line x1="262.7" y1="370.6" x2="262.7" y2="333.9" opacity="1.0" stroke="rgb(0,0,0)" stroke-width="2.0"/>
<line x1="294.5" y1="315.5" x2="326.3" y2="333.9" opacity="1.0" stroke="rgb(0,0,0)" stroke-width="2.0"/>
<line x1="326.3" y1="333.9" x2="326.3" y2="370.6" opacity="1.0" stroke="rgb(0,0,0)" stroke-width="2.0"/>
<line x1="319.1" y1="339.9" x2="319.1" y2="364.6" opacity="1.0" stroke="rgb(0,0,0)" stroke-width="2.0"/>
<line x1="167.3" y1="389.0" x2="135.4" y2="407.3" opacity="1.0" stroke="rgb(0,0,0)" stroke-width="2.0"/>
<line x1="135.4" y1="407.3" x2="103.6" y2="389.0" opacity="1.0" stroke="rgb(0,0,0)" stroke-width="2.0"/>
<line x1="133.8" y1="398.1" x2="112.4" y2="385.7" opacity="1.0" stroke="rgb(0,0,0)" stroke-width="2.0"/>
<line x1="103.6" y1="389.0" x2="103.6" y2="352.2" opacity="1.0" stroke="rgb(0,0,0)" stroke-width="2.0"/>
<line x1="103.6" y1="352.2" x2="135.4" y2="333.9" opacity="1.0" stroke="rgb(0,0,0)" stroke-width="2.0"/>
<line x1="112.4" y1="355.5" x2="133.8" y2="343.1" opacity="1.0" stroke="rgb(0,0,0)" stroke-width="2.0"/>
<line x1="135.4" y1="333.9" x2="167.3" y2="352.2" opacity="1.0" stroke="rgb(0,0,0)" stroke-width="2.0"/>
<line x1="167.3" y1="352.2" x2="167.3" y2="389.0" opacity="1.0" stroke="rgb(0,0,0)" stroke-width="2.0"/>
<line x1="160.1" y1="358.2" x2="160.1" y2="383.0" opacity="1.0" stroke="rgb(0,0,0)" stroke-width="2.0"/>
<text x="65.813178" y="415.346939" fill="rgb(12,12,255)" stroke-width="0" font-weight="bold" font-size="16">N</text>
<text x="34.000000" y="396.979592" fill="rgb(255,12,12)" stroke-width="0" font-weight="bold" font-size="16">O</text>
<text x="76.613178" y="440.049633" fill="rgb(255,12,12)" stroke-width="0" font-weight="bold" font-size="16"/>
<text x="76.613178" y="440.049633" fill="rgb(255,12,12)" stroke-width="0" font-weight="bold" font-size="32">.</text>
<text x="65.813178" y="452.081633" fill="rgb(255,12,12)" stroke-width="0" font-weight="bold" font-size="16">O</text>
<text x="352.131781" y="250.040816" fill="rgb(12,12,255)" stroke-width="0" font-weight="bold" font-size="16">N</text>
<text x="511.197671" y="341.877551" fill="rgb(255,12,12)" stroke-width="0" font-weight="bold" font-size="16">O</text>
<text x="513.197671" y="378.612245" fill="rgb(102,102,102)" stroke-width="0" font-weight="bold" font-size="16">CH</text>
<text x="537.197671" y="382.292245" fill="rgb(102,102,102)" stroke-width="0" font-weight="bold" font-size="13">3</text>
<text x="352.131781" y="66.367347" fill="rgb(255,12,12)" stroke-width="0" font-weight="bold" font-size="16">O</text>
<text x="300.318603" y="48.000000" fill="rgb(102,102,102)" stroke-width="0" font-weight="bold" font-size="16">H</text>
<text x="312.318603" y="51.680000" fill="rgb(102,102,102)" stroke-width="0" font-weight="bold" font-size="13">3</text>
<text x="318.818603" y="48.000000" fill="rgb(102,102,102)" stroke-width="0" font-weight="bold" font-size="16">C</text>
</svg>
</g>
</svg>
