<svg xmlns="http://www.w3.org/2000/svg" xmlns:xlink="http://www.w3.org/1999/xlink" xmlns:cml="http://www.xml-cml.org/schema" version="1.1" id="topsvg" x="0" y="0" viewBox="0 0 100 100">
<title>B_3_L - Open Babel Depiction</title>
<rect x="0" y="0" width="100" height="100" fill="white"/>
<g transform="translate(0,0)">
<svg width="100" height="100" x="0" y="0" viewBox="0 0 582.806 448" font-family="sans-serif" stroke="rgb(0,0,0)" stroke-width="2" stroke-linecap="round">
<line x1="351.6" y1="279.2" x2="351.6" y2="218.6" opacity="1.0" stroke="rgb(0,0,0)" stroke-width="2.0"/>
<line x1="362.8" y1="199.1" x2="415.3" y2="168.8" opacity="1.0" stroke="rgb(0,0,0)" stroke-width="2.0"/>
<line x1="362.8" y1="396.1" x2="372.2" y2="401.5" opacity="1.0" stroke="rgb(0,0,0)" stroke-width="2.0"/>
<line x1="351.6" y1="352.8" x2="351.6" y2="376.6" opacity="1.0" stroke="rgb(0,0,0)" stroke-width="2.0"/>
<line x1="522.2" y1="120.1" x2="531.5" y2="125.5" opacity="1.0" stroke="rgb(0,0,0)" stroke-width="2.0"/>
<line x1="479.1" y1="132.0" x2="499.7" y2="120.1" opacity="1.0" stroke="rgb(0,0,0)" stroke-width="2.0"/>
<line x1="340.3" y1="199.1" x2="287.8" y2="168.8" opacity="1.0" stroke="rgb(0,0,0)" stroke-width="2.0"/>
<line x1="224.1" y1="132.0" x2="160.4" y2="95.2" opacity="1.0" stroke="rgb(0,0,0)" stroke-width="2.0"/>
<line x1="40.0" y1="76.8" x2="61.6" y2="106.6" opacity="1.0" stroke="rgb(0,0,0)" stroke-width="2.0"/>
<line x1="49.4" y1="77.4" x2="63.9" y2="97.5" opacity="1.0" stroke="rgb(0,0,0)" stroke-width="2.0"/>
<line x1="61.6" y1="106.6" x2="96.6" y2="95.2" opacity="1.0" stroke="rgb(0,0,0)" stroke-width="2.0"/>
<line x1="96.6" y1="95.2" x2="96.6" y2="58.4" opacity="1.0" stroke="rgb(0,0,0)" stroke-width="2.0"/>
<line x1="96.6" y1="58.4" x2="74.0" y2="51.0" opacity="1.0" stroke="rgb(0,0,0)" stroke-width="2.0"/>
<line x1="54.0" y1="57.5" x2="40.0" y2="76.8" opacity="1.0" stroke="rgb(0,0,0)" stroke-width="2.0"/>
<line x1="319.7" y1="334.4" x2="319.7" y2="297.6" opacity="1.0" stroke="rgb(0,0,0)" stroke-width="2.0"/>
<line x1="319.7" y1="297.6" x2="351.6" y2="279.2" opacity="1.0" stroke="rgb(0,0,0)" stroke-width="2.0"/>
<line x1="328.5" y1="300.8" x2="350.0" y2="288.4" opacity="1.0" stroke="rgb(0,0,0)" stroke-width="2.0"/>
<line x1="351.6" y1="279.2" x2="383.5" y2="297.6" opacity="1.0" stroke="rgb(0,0,0)" stroke-width="2.0"/>
<line x1="383.5" y1="297.6" x2="383.5" y2="334.4" opacity="1.0" stroke="rgb(0,0,0)" stroke-width="2.0"/>
<line x1="376.3" y1="303.6" x2="376.3" y2="328.4" opacity="1.0" stroke="rgb(0,0,0)" stroke-width="2.0"/>
<line x1="383.5" y1="334.4" x2="351.6" y2="352.8" opacity="1.0" stroke="rgb(0,0,0)" stroke-width="2.0"/>
<line x1="351.6" y1="352.8" x2="319.7" y2="334.4" opacity="1.0" stroke="rgb(0,0,0)" stroke-width="2.0"/>
<line x1="350.0" y1="343.6" x2="328.5" y2="331.2" opacity="1.0" stroke="rgb(0,0,0)" stroke-width="2.0"/>
<line x1="415.3" y1="132.0" x2="447.2" y2="113.6" opacity="1.0" stroke="rgb(0,0,0)" stroke-width="2.0"/>
<line x1="447.2" y1="113.6" x2="479.1" y2="132.0" opacity="1.0" stroke="rgb(0,0,0)" stroke-width="2.0"/>
<line x1="448.8" y1="122.8" x2="470.3" y2="135.2" opacity="1.0" stroke="rgb(0,0,0)" stroke-width="2.0"/>
<line x1="479.1" y1="132.0" x2="479.1" y2="168.8" opacity="1.0" stroke="rgb(0,0,0)" stroke-width="2.0"/>
<line x1="479.1" y1="168.8" x2="447.2" y2="187.2" opacity="1.0" stroke="rgb(0,0,0)" stroke-width="2.0"/>
<line x1="470.3" y1="165.6" x2="448.8" y2="178.0" opacity="1.0" stroke="rgb(0,0,0)" stroke-width="2.0"/>
<line x1="447.2" y1="187.2" x2="415.3" y2="168.8" opacity="1.0" stroke="rgb(0,0,0)" stroke-width="2.0"/>
<line x1="415.3" y1="168.8" x2="415.3" y2="132.0" opacity="1.0" stroke="rgb(0,0,0)" stroke-width="2.0"/>
<line x1="422.5" y1="162.8" x2="422.5" y2="138.0" opacity="1.0" stroke="rgb(0,0,0)" stroke-width="2.0"/>
<line x1="319.7" y1="113.6" x2="319.7" y2="76.8" opacity="1.0" stroke="rgb(0,0,0)" stroke-width="2.0"/>
<line x1="312.5" y1="107.6" x2="312.5" y2="82.8" opacity="1.0" stroke="rgb(0,0,0)" stroke-width="2.0"/>
<line x1="319.7" y1="76.8" x2="287.8" y2="58.4" opacity="1.0" stroke="rgb(0,0,0)" stroke-width="2.0"/>
<line x1="287.8" y1="58.4" x2="256.0" y2="76.8" opacity="1.0" stroke="rgb(0,0,0)" stroke-width="2.0"/>
<line x1="286.3" y1="67.6" x2="264.8" y2="80.0" opacity="1.0" stroke="rgb(0,0,0)" stroke-width="2.0"/>
<line x1="256.0" y1="76.8" x2="256.0" y2="113.6" opacity="1.0" stroke="rgb(0,0,0)" stroke-width="2.0"/>
<line x1="256.0" y1="113.6" x2="287.8" y2="132.0" opacity="1.0" stroke="rgb(0,0,0)" stroke-width="2.0"/>
<line x1="264.8" y1="110.4" x2="286.3" y2="122.8" opacity="1.0" stroke="rgb(0,0,0)" stroke-width="2.0"/>
<line x1="287.8" y1="132.0" x2="319.7" y2="113.6" opacity="1.0" stroke="rgb(0,0,0)" stroke-width="2.0"/>
<line x1="224.1" y1="132.0" x2="256.0" y2="113.6" opacity="1.0" stroke="rgb(0,0,0)" stroke-width="2.0"/>
<line x1="287.8" y1="132.0" x2="287.8" y2="168.8" opacity="1.0" stroke="rgb(0,0,0)" stroke-width="2.0"/>
<line x1="287.8" y1="168.8" x2="256.0" y2="187.2" opacity="1.0" stroke="rgb(0,0,0)" stroke-width="2.0"/>
<line x1="279.1" y1="165.6" x2="257.6" y2="178.0" opacity="1.0" stroke="rgb(0,0,0)" stroke-width="2.0"/>
<line x1="256.0" y1="187.2" x2="224.1" y2="168.8" opacity="1.0" stroke="rgb(0,0,0)" stroke-width="2.0"/>
<line x1="224.1" y1="168.8" x2="224.1" y2="132.0" opacity="1.0" stroke="rgb(0,0,0)" stroke-width="2.0"/>
<line x1="231.3" y1="162.8" x2="231.3" y2="138.0" opacity="1.0" stroke="rgb(0,0,0)" stroke-width="2.0"/>
<line x1="224.1" y1="242.4" x2="192.2" y2="224.0" opacity="1.0" stroke="rgb(0,0,0)" stroke-width="2.0"/>
<line x1="192.2" y1="224.0" x2="192.2" y2="187.2" opacity="1.0" stroke="rgb(0,0,0)" stroke-width="2.0"/>
<line x1="199.4" y1="218.0" x2="199.4" y2="193.2" opacity="1.0" stroke="rgb(0,0,0)" stroke-width="2.0"/>
<line x1="192.2" y1="187.2" x2="224.1" y2="168.8" opacity="1.0" stroke="rgb(0,0,0)" stroke-width="2.0"/>
<line x1="256.0" y1="187.2" x2="256.0" y2="224.0" opacity="1.0" stroke="rgb(0,0,0)" stroke-width="2.0"/>
<line x1="256.0" y1="224.0" x2="224.1" y2="242.4" opacity="1.0" stroke="rgb(0,0,0)" stroke-width="2.0"/>
<line x1="247.2" y1="220.8" x2="225.7" y2="233.2" opacity="1.0" stroke="rgb(0,0,0)" stroke-width="2.0"/>
<line x1="160.4" y1="58.4" x2="128.5" y2="40.0" opacity="1.0" stroke="rgb(0,0,0)" stroke-width="2.0"/>
<line x1="128.5" y1="40.0" x2="96.6" y2="58.4" opacity="1.0" stroke="rgb(0,0,0)" stroke-width="2.0"/>
<line x1="126.9" y1="49.2" x2="105.4" y2="61.6" opacity="1.0" stroke="rgb(0,0,0)" stroke-width="2.0"/>
<line x1="96.6" y1="95.2" x2="128.5" y2="113.6" opacity="1.0" stroke="rgb(0,0,0)" stroke-width="2.0"/>
<line x1="105.4" y1="92.0" x2="126.9" y2="104.4" opacity="1.0" stroke="rgb(0,0,0)" stroke-width="2.0"/>
<line x1="128.5" y1="113.6" x2="160.4" y2="95.2" opacity="1.0" stroke="rgb(0,0,0)" stroke-width="2.0"/>
<line x1="160.4" y1="95.2" x2="160.4" y2="58.4" opacity="1.0" stroke="rgb(0,0,0)" stroke-width="2.0"/>
<line x1="153.2" y1="89.2" x2="153.2" y2="64.4" opacity="1.0" stroke="rgb(0,0,0)" stroke-width="2.0"/>
<text x="55.630497" y="55.028175" fill="rgb(12,12,255)" stroke-width="0" font-weight="bold" font-size="16">N</text>
<text x="55.630497" y="39.028175" fill="rgb(12,12,255)" stroke-width="0" font-weight="bold" font-size="16">H</text>
<text x="345.587256" y="213.600000" fill="rgb(12,12,255)" stroke-width="0" font-weight="bold" font-size="16">N</text>
<text x="345.587256" y="397.600000" fill="rgb(255,12,12)" stroke-width="0" font-weight="bold" font-size="16">O</text>
<text x="379.456991" y="416.000000" fill="rgb(102,102,102)" stroke-width="0" font-weight="bold" font-size="16">CH</text>
<text x="403.456991" y="419.680000" fill="rgb(102,102,102)" stroke-width="0" font-weight="bold" font-size="13">3</text>
<text x="504.935930" y="121.600000" fill="rgb(255,12,12)" stroke-width="0" font-weight="bold" font-size="16">O</text>
<text x="538.805665" y="140.000000" fill="rgb(102,102,102)" stroke-width="0" font-weight="bold" font-size="16">CH</text>
<text x="562.805665" y="143.680000" fill="rgb(102,102,102)" stroke-width="0" font-weight="bold" font-size="13">3</text>
</svg>
</g>
</svg>