<svg xmlns="http://www.w3.org/2000/svg" xmlns:xlink="http://www.w3.org/1999/xlink" xmlns:cml="http://www.xml-cml.org/schema" version="1.1" id="topsvg" x="0" y="0" viewBox="0 0 100 100">
<title>B_4_P - Open Babel Depiction</title>
<rect x="0" y="0" width="100" height="100" fill="white"/>
<g transform="translate(0,0)">
<svg width="100" height="100" x="0" y="0" viewBox="0 0 473.814 421.053" font-family="sans-serif" stroke="rgb(0,0,0)" stroke-width="2" stroke-linecap="round">
<line x1="138.5" y1="134.7" x2="192.8" y2="166.1" opacity="1.0" stroke="rgb(0,0,0)" stroke-width="2.0"/>
<line x1="204.1" y1="185.6" x2="204.1" y2="248.4" opacity="1.0" stroke="rgb(0,0,0)" stroke-width="2.0"/>
<line x1="40.0" y1="64.9" x2="40.0" y2="53.0" opacity="1.0" stroke="rgb(0,0,0)" stroke-width="2.0"/>
<line x1="72.8" y1="96.8" x2="51.3" y2="84.4" opacity="1.0" stroke="rgb(0,0,0)" stroke-width="2.0"/>
<line x1="192.8" y1="368.6" x2="182.5" y2="374.6" opacity="1.0" stroke="rgb(0,0,0)" stroke-width="2.0"/>
<line x1="204.1" y1="324.2" x2="204.1" y2="349.1" opacity="1.0" stroke="rgb(0,0,0)" stroke-width="2.0"/>
<line x1="258.5" y1="52.4" x2="248.2" y2="46.5" opacity="1.0" stroke="rgb(0,0,0)" stroke-width="2.0"/>
<line x1="269.7" y1="96.8" x2="269.7" y2="71.9" opacity="1.0" stroke="rgb(0,0,0)" stroke-width="2.0"/>
<line x1="215.3" y1="166.1" x2="236.9" y2="153.7" opacity="1.0" stroke="rgb(0,0,0)" stroke-width="2.0"/>
<line x1="433.8" y1="242.5" x2="433.8" y2="254.4" opacity="1.0" stroke="rgb(0,0,0)" stroke-width="2.0"/>
<line x1="401.0" y1="210.5" x2="422.6" y2="223.0" opacity="1.0" stroke="rgb(0,0,0)" stroke-width="2.0"/>
<line x1="302.5" y1="153.7" x2="335.4" y2="172.6" opacity="1.0" stroke="rgb(0,0,0)" stroke-width="2.0"/>
<line x1="105.6" y1="77.9" x2="138.5" y2="96.8" opacity="1.0" stroke="rgb(0,0,0)" stroke-width="2.0"/>
<line x1="138.5" y1="96.8" x2="138.5" y2="134.7" opacity="1.0" stroke="rgb(0,0,0)" stroke-width="2.0"/>
<line x1="131.3" y1="102.8" x2="131.3" y2="128.7" opacity="1.0" stroke="rgb(0,0,0)" stroke-width="2.0"/>
<line x1="138.5" y1="134.7" x2="105.6" y2="153.7" opacity="1.0" stroke="rgb(0,0,0)" stroke-width="2.0"/>
<line x1="105.6" y1="153.7" x2="72.8" y2="134.7" opacity="1.0" stroke="rgb(0,0,0)" stroke-width="2.0"/>
<line x1="104.0" y1="144.4" x2="81.6" y2="131.5" opacity="1.0" stroke="rgb(0,0,0)" stroke-width="2.0"/>
<line x1="72.8" y1="134.7" x2="72.8" y2="96.8" opacity="1.0" stroke="rgb(0,0,0)" stroke-width="2.0"/>
<line x1="72.8" y1="96.8" x2="105.6" y2="77.9" opacity="1.0" stroke="rgb(0,0,0)" stroke-width="2.0"/>
<line x1="81.6" y1="100.1" x2="104.0" y2="87.1" opacity="1.0" stroke="rgb(0,0,0)" stroke-width="2.0"/>
<line x1="236.9" y1="267.4" x2="236.9" y2="305.3" opacity="1.0" stroke="rgb(0,0,0)" stroke-width="2.0"/>
<line x1="236.9" y1="305.3" x2="204.1" y2="324.2" opacity="1.0" stroke="rgb(0,0,0)" stroke-width="2.0"/>
<line x1="228.1" y1="302.0" x2="205.7" y2="315.0" opacity="1.0" stroke="rgb(0,0,0)" stroke-width="2.0"/>
<line x1="204.1" y1="324.2" x2="171.3" y2="305.3" opacity="1.0" stroke="rgb(0,0,0)" stroke-width="2.0"/>
<line x1="171.3" y1="305.3" x2="171.3" y2="267.4" opacity="1.0" stroke="rgb(0,0,0)" stroke-width="2.0"/>
<line x1="178.5" y1="299.3" x2="178.5" y2="273.4" opacity="1.0" stroke="rgb(0,0,0)" stroke-width="2.0"/>
<line x1="171.3" y1="267.4" x2="204.1" y2="248.4" opacity="1.0" stroke="rgb(0,0,0)" stroke-width="2.0"/>
<line x1="204.1" y1="248.4" x2="236.9" y2="267.4" opacity="1.0" stroke="rgb(0,0,0)" stroke-width="2.0"/>
<line x1="205.7" y1="257.7" x2="228.1" y2="270.6" opacity="1.0" stroke="rgb(0,0,0)" stroke-width="2.0"/>
<line x1="236.9" y1="115.8" x2="269.7" y2="96.8" opacity="1.0" stroke="rgb(0,0,0)" stroke-width="2.0"/>
<line x1="269.7" y1="96.8" x2="302.5" y2="115.8" opacity="1.0" stroke="rgb(0,0,0)" stroke-width="2.0"/>
<line x1="271.3" y1="106.1" x2="293.7" y2="119.0" opacity="1.0" stroke="rgb(0,0,0)" stroke-width="2.0"/>
<line x1="302.5" y1="115.8" x2="302.5" y2="153.7" opacity="1.0" stroke="rgb(0,0,0)" stroke-width="2.0"/>
<line x1="302.5" y1="153.7" x2="269.7" y2="172.6" opacity="1.0" stroke="rgb(0,0,0)" stroke-width="2.0"/>
<line x1="293.7" y1="150.4" x2="271.3" y2="163.4" opacity="1.0" stroke="rgb(0,0,0)" stroke-width="2.0"/>
<line x1="269.7" y1="172.6" x2="236.9" y2="153.7" opacity="1.0" stroke="rgb(0,0,0)" stroke-width="2.0"/>
<line x1="236.9" y1="153.7" x2="236.9" y2="115.8" opacity="1.0" stroke="rgb(0,0,0)" stroke-width="2.0"/>
<line x1="244.1" y1="147.7" x2="244.1" y2="121.8" opacity="1.0" stroke="rgb(0,0,0)" stroke-width="2.0"/>
<line x1="368.2" y1="153.7" x2="401.0" y2="172.6" opacity="1.0" stroke="rgb(0,0,0)" stroke-width="2.0"/>
<line x1="401.0" y1="172.6" x2="401.0" y2="210.5" opacity="1.0" stroke="rgb(0,0,0)" stroke-width="2.0"/>
<line x1="393.8" y1="178.6" x2="393.8" y2="204.5" opacity="1.0" stroke="rgb(0,0,0)" stroke-width="2.0"/>
<line x1="401.0" y1="210.5" x2="368.2" y2="229.5" opacity="1.0" stroke="rgb(0,0,0)" stroke-width="2.0"/>
<line x1="368.2" y1="229.5" x2="335.4" y2="210.5" opacity="1.0" stroke="rgb(0,0,0)" stroke-width="2.0"/>
<line x1="366.6" y1="220.2" x2="344.2" y2="207.3" opacity="1.0" stroke="rgb(0,0,0)" stroke-width="2.0"/>
<line x1="335.4" y1="210.5" x2="335.4" y2="172.6" opacity="1.0" stroke="rgb(0,0,0)" stroke-width="2.0"/>
<line x1="335.4" y1="172.6" x2="368.2" y2="153.7" opacity="1.0" stroke="rgb(0,0,0)" stroke-width="2.0"/>
<line x1="344.2" y1="175.9" x2="366.6" y2="162.9" opacity="1.0" stroke="rgb(0,0,0)" stroke-width="2.0"/>
<text x="263.724633" y="66.947368" fill="rgb(255,12,12)" stroke-width="0" font-weight="bold" font-size="16">O</text>
<text x="210.906829" y="48.000000" fill="rgb(102,102,102)" stroke-width="0" font-weight="bold" font-size="16">H</text>
<text x="222.906829" y="51.680000" fill="rgb(102,102,102)" stroke-width="0" font-weight="bold" font-size="13">3</text>
<text x="229.406829" y="48.000000" fill="rgb(102,102,102)" stroke-width="0" font-weight="bold" font-size="16">C</text>
<text x="145.271219" y="389.052632" fill="rgb(102,102,102)" stroke-width="0" font-weight="bold" font-size="16">H</text>
<text x="157.271219" y="392.732632" fill="rgb(102,102,102)" stroke-width="0" font-weight="bold" font-size="13">3</text>
<text x="163.771219" y="389.052632" fill="rgb(102,102,102)" stroke-width="0" font-weight="bold" font-size="16">C</text>
<text x="427.813657" y="237.473684" fill="rgb(255,12,12)" stroke-width="0" font-weight="bold" font-size="16">O</text>
<text x="429.813657" y="275.368421" fill="rgb(102,102,102)" stroke-width="0" font-weight="bold" font-size="16">CH</text>
<text x="453.813657" y="279.048421" fill="rgb(102,102,102)" stroke-width="0" font-weight="bold" font-size="13">3</text>
<text x="198.089024" y="370.105263" fill="rgb(255,12,12)" stroke-width="0" font-weight="bold" font-size="16">O</text>
<text x="36.000000" y="48.000000" fill="rgb(102,102,102)" stroke-width="0" font-weight="bold" font-size="16">CH</text>
<text x="60.000000" y="51.680000" fill="rgb(102,102,102)" stroke-width="0" font-weight="bold" font-size="13">3</text>
<text x="34.000000" y="85.894737" fill="rgb(255,12,12)" stroke-width="0" font-weight="bold" font-size="16">O</text>
<text x="198.089024" y="180.631579" fill="rgb(12,12,255)" stroke-width="0" font-weight="bold" font-size="16">N</text>
</svg>
</g>
</svg>