<svg xmlns="http://www.w3.org/2000/svg" x="0" y="0" viewBox="0 0 100 100">
<title>B_4_N - Open Babel Depiction</title>
<rect x="0" y="0" width="100" height="100" fill="white"/>
<g transform="translate(0,0)">
<svg width="100" height="100" x="0" y="0" viewBox="0 0 433.643 419.429" font-family="sans-serif" stroke="rgb(0,0,0)" stroke-width="2" stroke-linecap="round">
<line x1="295.7" y1="285.1" x2="241.6" y2="253.9" opacity="1.0" stroke="rgb(0,0,0)" stroke-width="2.0"/>
<line x1="230.3" y1="234.4" x2="230.3" y2="172.0" opacity="1.0" stroke="rgb(0,0,0)" stroke-width="2.0"/>
<line x1="393.6" y1="354.7" x2="393.6" y2="366.4" opacity="1.0" stroke="rgb(0,0,0)" stroke-width="2.0"/>
<line x1="361.0" y1="322.9" x2="382.4" y2="335.2" opacity="1.0" stroke="rgb(0,0,0)" stroke-width="2.0"/>
<line x1="241.6" y1="52.4" x2="251.7" y2="46.5" opacity="1.0" stroke="rgb(0,0,0)" stroke-width="2.0"/>
<line x1="230.3" y1="96.6" x2="230.3" y2="71.9" opacity="1.0" stroke="rgb(0,0,0)" stroke-width="2.0"/>
<line x1="153.8" y1="367.1" x2="143.6" y2="372.9" opacity="1.0" stroke="rgb(0,0,0)" stroke-width="2.0"/>
<line x1="165.0" y1="322.9" x2="165.0" y2="347.6" opacity="1.0" stroke="rgb(0,0,0)" stroke-width="2.0"/>
<line x1="219.1" y1="253.9" x2="197.7" y2="266.3" opacity="1.0" stroke="rgb(0,0,0)" stroke-width="2.0"/>
<line x1="132.4" y1="266.3" x2="99.7" y2="247.4" opacity="1.0" stroke="rgb(0,0,0)" stroke-width="2.0"/>
<line x1="65.2" y1="262.8" x2="48.7" y2="244.4" opacity="1.0" stroke="rgb(0,0,0)" stroke-width="2.0"/>
<line x1="46.5" y1="223.5" x2="58.9" y2="202.1" opacity="1.0" stroke="rgb(0,0,0)" stroke-width="2.0"/>
<line x1="58.9" y1="202.1" x2="95.7" y2="209.9" opacity="1.0" stroke="rgb(0,0,0)" stroke-width="2.0"/>
<line x1="63.2" y1="210.4" x2="88.4" y2="215.7" opacity="1.0" stroke="rgb(0,0,0)" stroke-width="2.0"/>
<line x1="95.7" y1="209.9" x2="99.7" y2="247.4" opacity="1.0" stroke="rgb(0,0,0)" stroke-width="2.0"/>
<line x1="99.7" y1="247.4" x2="65.2" y2="262.8" opacity="1.0" stroke="rgb(0,0,0)" stroke-width="2.0"/>
<line x1="91.3" y1="243.3" x2="67.8" y2="253.8" opacity="1.0" stroke="rgb(0,0,0)" stroke-width="2.0"/>
<line x1="328.3" y1="341.7" x2="295.7" y2="322.9" opacity="1.0" stroke="rgb(0,0,0)" stroke-width="2.0"/>
<line x1="295.7" y1="322.9" x2="295.7" y2="285.1" opacity="1.0" stroke="rgb(0,0,0)" stroke-width="2.0"/>
<line x1="302.9" y1="316.9" x2="302.9" y2="291.1" opacity="1.0" stroke="rgb(0,0,0)" stroke-width="2.0"/>
<line x1="295.7" y1="285.1" x2="328.3" y2="266.3" opacity="1.0" stroke="rgb(0,0,0)" stroke-width="2.0"/>
<line x1="328.3" y1="266.3" x2="361.0" y2="285.1" opacity="1.0" stroke="rgb(0,0,0)" stroke-width="2.0"/>
<line x1="329.9" y1="275.5" x2="352.2" y2="288.4" opacity="1.0" stroke="rgb(0,0,0)" stroke-width="2.0"/>
<line x1="361.0" y1="285.1" x2="361.0" y2="322.9" opacity="1.0" stroke="rgb(0,0,0)" stroke-width="2.0"/>
<line x1="361.0" y1="322.9" x2="328.3" y2="341.7" opacity="1.0" stroke="rgb(0,0,0)" stroke-width="2.0"/>
<line x1="352.2" y1="319.6" x2="329.9" y2="332.5" opacity="1.0" stroke="rgb(0,0,0)" stroke-width="2.0"/>
<line x1="197.7" y1="153.1" x2="197.7" y2="115.4" opacity="1.0" stroke="rgb(0,0,0)" stroke-width="2.0"/>
<line x1="197.7" y1="115.4" x2="230.3" y2="96.6" opacity="1.0" stroke="rgb(0,0,0)" stroke-width="2.0"/>
<line x1="206.5" y1="118.7" x2="228.7" y2="105.8" opacity="1.0" stroke="rgb(0,0,0)" stroke-width="2.0"/>
<line x1="230.3" y1="96.6" x2="263.0" y2="115.4" opacity="1.0" stroke="rgb(0,0,0)" stroke-width="2.0"/>
<line x1="263.0" y1="115.4" x2="263.0" y2="153.1" opacity="1.0" stroke="rgb(0,0,0)" stroke-width="2.0"/>
<line x1="255.8" y1="121.4" x2="255.8" y2="147.1" opacity="1.0" stroke="rgb(0,0,0)" stroke-width="2.0"/>
<line x1="263.0" y1="153.1" x2="230.3" y2="172.0" opacity="1.0" stroke="rgb(0,0,0)" stroke-width="2.0"/>
<line x1="230.3" y1="172.0" x2="197.7" y2="153.1" opacity="1.0" stroke="rgb(0,0,0)" stroke-width="2.0"/>
<line x1="228.7" y1="162.8" x2="206.5" y2="149.9" opacity="1.0" stroke="rgb(0,0,0)" stroke-width="2.0"/>
<line x1="197.7" y1="304.0" x2="165.0" y2="322.9" opacity="1.0" stroke="rgb(0,0,0)" stroke-width="2.0"/>
<line x1="165.0" y1="322.9" x2="132.4" y2="304.0" opacity="1.0" stroke="rgb(0,0,0)" stroke-width="2.0"/>
<line x1="163.4" y1="313.6" x2="141.1" y2="300.8" opacity="1.0" stroke="rgb(0,0,0)" stroke-width="2.0"/>
<line x1="132.4" y1="304.0" x2="132.4" y2="266.3" opacity="1.0" stroke="rgb(0,0,0)" stroke-width="2.0"/>
<line x1="132.4" y1="266.3" x2="165.0" y2="247.4" opacity="1.0" stroke="rgb(0,0,0)" stroke-width="2.0"/>
<line x1="141.1" y1="269.5" x2="163.4" y2="256.7" opacity="1.0" stroke="rgb(0,0,0)" stroke-width="2.0"/>
<line x1="165.0" y1="247.4" x2="197.7" y2="266.3" opacity="1.0" stroke="rgb(0,0,0)" stroke-width="2.0"/>
<line x1="197.7" y1="266.3" x2="197.7" y2="304.0" opacity="1.0" stroke="rgb(0,0,0)" stroke-width="2.0"/>
<line x1="190.5" y1="272.3" x2="190.5" y2="298.0" opacity="1.0" stroke="rgb(0,0,0)" stroke-width="2.0"/>
<text x="224.335615" y="66.857143" fill="rgb(255,12,12)" stroke-width="0" font-weight="bold" font-size="16">O</text>
<text x="34.000000" y="242.741177" fill="rgb(178,178,0)" stroke-width="0" font-weight="bold" font-size="16">S</text>
<text x="106.351027" y="387.428571" fill="rgb(102,102,102)" stroke-width="0" font-weight="bold" font-size="16">H</text>
<text x="118.351027" y="391.108571" fill="rgb(102,102,102)" stroke-width="0" font-weight="bold" font-size="13">3</text>
<text x="124.851027" y="387.428571" fill="rgb(102,102,102)" stroke-width="0" font-weight="bold" font-size="16">C</text>
<text x="159.012556" y="368.571429" fill="rgb(255,12,12)" stroke-width="0" font-weight="bold" font-size="16">O</text>
<text x="258.997145" y="48.000000" fill="rgb(102,102,102)" stroke-width="0" font-weight="bold" font-size="16">CH</text>
<text x="282.997145" y="51.680000" fill="rgb(102,102,102)" stroke-width="0" font-weight="bold" font-size="13">3</text>
<text x="389.643263" y="387.428571" fill="rgb(102,102,102)" stroke-width="0" font-weight="bold" font-size="16">CH</text>
<text x="413.643263" y="391.108571" fill="rgb(102,102,102)" stroke-width="0" font-weight="bold" font-size="13">3</text>
<text x="387.643263" y="349.714286" fill="rgb(255,12,12)" stroke-width="0" font-weight="bold" font-size="16">O</text>
<text x="224.335615" y="255.428571" fill="rgb(12,12,255)" stroke-width="0" font-weight="bold" font-size="16">N</text>
</svg>
</g>
</svg>
