<svg xmlns="http://www.w3.org/2000/svg" x="0" y="0" viewBox="0 0 100 100">
<title>B_5_T - Open Babel Depiction</title>
<rect x="0" y="0" width="100" height="100" fill="white"/>
<g transform="translate(0,0)">
<svg width="100" height="100" x="0" y="0" viewBox="0 0 540.726 422" font-family="sans-serif" stroke="rgb(0,0,0)" stroke-width="2" stroke-linecap="round">
<line x1="402.0" y1="287.0" x2="347.4" y2="255.5" opacity="1.0" stroke="rgb(0,0,0)" stroke-width="2.0"/>
<line x1="336.2" y1="236.0" x2="336.2" y2="173.0" opacity="1.0" stroke="rgb(0,0,0)" stroke-width="2.0"/>
<line x1="500.7" y1="357.0" x2="500.7" y2="369.0" opacity="1.0" stroke="rgb(0,0,0)" stroke-width="2.0"/>
<line x1="467.8" y1="325.0" x2="489.5" y2="337.5" opacity="1.0" stroke="rgb(0,0,0)" stroke-width="2.0"/>
<line x1="347.4" y1="52.5" x2="357.8" y2="46.5" opacity="1.0" stroke="rgb(0,0,0)" stroke-width="2.0"/>
<line x1="336.2" y1="97.0" x2="336.2" y2="72.0" opacity="1.0" stroke="rgb(0,0,0)" stroke-width="2.0"/>
<line x1="324.9" y1="255.5" x2="303.3" y2="268.0" opacity="1.0" stroke="rgb(0,0,0)" stroke-width="2.0"/>
<line x1="72.9" y1="211.0" x2="51.3" y2="198.5" opacity="1.0" stroke="rgb(0,0,0)" stroke-width="2.0"/>
<line x1="171.6" y1="268.0" x2="138.7" y2="249.0" opacity="1.0" stroke="rgb(0,0,0)" stroke-width="2.0"/>
<line x1="434.9" y1="344.0" x2="402.0" y2="325.0" opacity="1.0" stroke="rgb(0,0,0)" stroke-width="2.0"/>
<line x1="402.0" y1="325.0" x2="402.0" y2="287.0" opacity="1.0" stroke="rgb(0,0,0)" stroke-width="2.0"/>
<line x1="409.2" y1="319.0" x2="409.2" y2="293.0" opacity="1.0" stroke="rgb(0,0,0)" stroke-width="2.0"/>
<line x1="402.0" y1="287.0" x2="434.9" y2="268.0" opacity="1.0" stroke="rgb(0,0,0)" stroke-width="2.0"/>
<line x1="434.9" y1="268.0" x2="467.8" y2="287.0" opacity="1.0" stroke="rgb(0,0,0)" stroke-width="2.0"/>
<line x1="436.5" y1="277.2" x2="459.0" y2="290.2" opacity="1.0" stroke="rgb(0,0,0)" stroke-width="2.0"/>
<line x1="467.8" y1="287.0" x2="467.8" y2="325.0" opacity="1.0" stroke="rgb(0,0,0)" stroke-width="2.0"/>
<line x1="467.8" y1="325.0" x2="434.9" y2="344.0" opacity="1.0" stroke="rgb(0,0,0)" stroke-width="2.0"/>
<line x1="459.0" y1="321.8" x2="436.5" y2="334.8" opacity="1.0" stroke="rgb(0,0,0)" stroke-width="2.0"/>
<line x1="303.3" y1="154.0" x2="303.3" y2="116.0" opacity="1.0" stroke="rgb(0,0,0)" stroke-width="2.0"/>
<line x1="303.3" y1="116.0" x2="336.2" y2="97.0" opacity="1.0" stroke="rgb(0,0,0)" stroke-width="2.0"/>
<line x1="312.1" y1="119.2" x2="334.6" y2="106.2" opacity="1.0" stroke="rgb(0,0,0)" stroke-width="2.0"/>
<line x1="336.2" y1="97.0" x2="369.1" y2="116.0" opacity="1.0" stroke="rgb(0,0,0)" stroke-width="2.0"/>
<line x1="369.1" y1="116.0" x2="369.1" y2="154.0" opacity="1.0" stroke="rgb(0,0,0)" stroke-width="2.0"/>
<line x1="361.9" y1="122.0" x2="361.9" y2="148.0" opacity="1.0" stroke="rgb(0,0,0)" stroke-width="2.0"/>
<line x1="369.1" y1="154.0" x2="336.2" y2="173.0" opacity="1.0" stroke="rgb(0,0,0)" stroke-width="2.0"/>
<line x1="336.2" y1="173.0" x2="303.3" y2="154.0" opacity="1.0" stroke="rgb(0,0,0)" stroke-width="2.0"/>
<line x1="334.6" y1="163.8" x2="312.1" y2="150.8" opacity="1.0" stroke="rgb(0,0,0)" stroke-width="2.0"/>
<line x1="303.3" y1="306.0" x2="270.4" y2="325.0" opacity="1.0" stroke="rgb(0,0,0)" stroke-width="2.0"/>
<line x1="270.4" y1="325.0" x2="237.5" y2="306.0" opacity="1.0" stroke="rgb(0,0,0)" stroke-width="2.0"/>
<line x1="268.8" y1="315.8" x2="246.2" y2="302.8" opacity="1.0" stroke="rgb(0,0,0)" stroke-width="2.0"/>
<line x1="237.5" y1="306.0" x2="237.5" y2="268.0" opacity="1.0" stroke="rgb(0,0,0)" stroke-width="2.0"/>
<line x1="237.5" y1="268.0" x2="270.4" y2="249.0" opacity="1.0" stroke="rgb(0,0,0)" stroke-width="2.0"/>
<line x1="246.2" y1="271.2" x2="268.8" y2="258.2" opacity="1.0" stroke="rgb(0,0,0)" stroke-width="2.0"/>
<line x1="270.4" y1="249.0" x2="303.3" y2="268.0" opacity="1.0" stroke="rgb(0,0,0)" stroke-width="2.0"/>
<line x1="303.3" y1="268.0" x2="303.3" y2="306.0" opacity="1.0" stroke="rgb(0,0,0)" stroke-width="2.0"/>
<line x1="296.1" y1="274.0" x2="296.1" y2="300.0" opacity="1.0" stroke="rgb(0,0,0)" stroke-width="2.0"/>
<line x1="171.6" y1="268.0" x2="204.5" y2="249.0" opacity="1.0" stroke="rgb(0,0,0)" stroke-width="2.0"/>
<line x1="180.4" y1="271.2" x2="202.9" y2="258.2" opacity="1.0" stroke="rgb(0,0,0)" stroke-width="2.0"/>
<line x1="204.5" y1="249.0" x2="237.5" y2="268.0" opacity="1.0" stroke="rgb(0,0,0)" stroke-width="2.0"/>
<line x1="237.5" y1="306.0" x2="204.5" y2="325.0" opacity="1.0" stroke="rgb(0,0,0)" stroke-width="2.0"/>
<line x1="204.5" y1="325.0" x2="171.6" y2="306.0" opacity="1.0" stroke="rgb(0,0,0)" stroke-width="2.0"/>
<line x1="202.9" y1="315.8" x2="180.4" y2="302.8" opacity="1.0" stroke="rgb(0,0,0)" stroke-width="2.0"/>
<line x1="171.6" y1="306.0" x2="171.6" y2="268.0" opacity="1.0" stroke="rgb(0,0,0)" stroke-width="2.0"/>
<line x1="105.8" y1="268.0" x2="72.9" y2="249.0" opacity="1.0" stroke="rgb(0,0,0)" stroke-width="2.0"/>
<line x1="72.9" y1="249.0" x2="72.9" y2="211.0" opacity="1.0" stroke="rgb(0,0,0)" stroke-width="2.0"/>
<line x1="80.1" y1="243.0" x2="80.1" y2="217.0" opacity="1.0" stroke="rgb(0,0,0)" stroke-width="2.0"/>
<line x1="72.9" y1="211.0" x2="105.8" y2="192.0" opacity="1.0" stroke="rgb(0,0,0)" stroke-width="2.0"/>
<line x1="105.8" y1="192.0" x2="138.7" y2="211.0" opacity="1.0" stroke="rgb(0,0,0)" stroke-width="2.0"/>
<line x1="107.4" y1="201.2" x2="129.9" y2="214.2" opacity="1.0" stroke="rgb(0,0,0)" stroke-width="2.0"/>
<line x1="138.7" y1="211.0" x2="138.7" y2="249.0" opacity="1.0" stroke="rgb(0,0,0)" stroke-width="2.0"/>
<line x1="138.7" y1="249.0" x2="105.8" y2="268.0" opacity="1.0" stroke="rgb(0,0,0)" stroke-width="2.0"/>
<line x1="129.9" y1="245.8" x2="107.4" y2="258.8" opacity="1.0" stroke="rgb(0,0,0)" stroke-width="2.0"/>
<text x="14.000000" y="200.000000" fill="rgb(102,102,102)" stroke-width="0" font-weight="bold" font-size="16">H</text>
<text x="26.000000" y="203.680000" fill="rgb(102,102,102)" stroke-width="0" font-weight="bold" font-size="13">3</text>
<text x="32.500000" y="200.000000" fill="rgb(102,102,102)" stroke-width="0" font-weight="bold" font-size="16">C</text>
<text x="330.180688" y="257.000000" fill="rgb(12,12,255)" stroke-width="0" font-weight="bold" font-size="16">N</text>
<text x="494.725515" y="352.000000" fill="rgb(255,12,12)" stroke-width="0" font-weight="bold" font-size="16">O</text>
<text x="496.725515" y="390.000000" fill="rgb(102,102,102)" stroke-width="0" font-weight="bold" font-size="16">CH</text>
<text x="520.725515" y="393.680000" fill="rgb(102,102,102)" stroke-width="0" font-weight="bold" font-size="13">3</text>
<text x="330.180688" y="67.000000" fill="rgb(255,12,12)" stroke-width="0" font-weight="bold" font-size="16">O</text>
<text x="365.089653" y="48.000000" fill="rgb(102,102,102)" stroke-width="0" font-weight="bold" font-size="16">CH</text>
<text x="389.089653" y="51.680000" fill="rgb(102,102,102)" stroke-width="0" font-weight="bold" font-size="13">3</text>
</svg>
</g>
</svg>
