<svg xmlns="http://www.w3.org/2000/svg" xmlns:xlink="http://www.w3.org/1999/xlink" xmlns:cml="http://www.xml-cml.org/schema" version="1.1" id="topsvg" x="0" y="0" viewBox="0 0 100 100">
<title>B_5_M - Open Babel Depiction</title>
<rect x="0" y="0" width="100" height="100" fill="white"/>
<g transform="translate(0,0)">
<svg width="100" height="100" x="0" y="0" viewBox="0 0 574.268 422.439" font-family="sans-serif" stroke="rgb(0,0,0)" stroke-width="2" stroke-linecap="round">
<line x1="435.4" y1="287.3" x2="380.8" y2="255.8" opacity="1.0" stroke="rgb(0,0,0)" stroke-width="2.0"/>
<line x1="369.5" y1="236.3" x2="369.5" y2="173.2" opacity="1.0" stroke="rgb(0,0,0)" stroke-width="2.0"/>
<line x1="534.3" y1="357.4" x2="534.3" y2="369.4" opacity="1.0" stroke="rgb(0,0,0)" stroke-width="2.0"/>
<line x1="501.3" y1="325.4" x2="523.0" y2="337.9" opacity="1.0" stroke="rgb(0,0,0)" stroke-width="2.0"/>
<line x1="380.8" y1="52.5" x2="391.2" y2="46.5" opacity="1.0" stroke="rgb(0,0,0)" stroke-width="2.0"/>
<line x1="369.5" y1="97.1" x2="369.5" y2="72.0" opacity="1.0" stroke="rgb(0,0,0)" stroke-width="2.0"/>
<line x1="358.3" y1="255.8" x2="336.6" y2="268.3" opacity="1.0" stroke="rgb(0,0,0)" stroke-width="2.0"/>
<line x1="73.0" y1="192.2" x2="51.3" y2="179.7" opacity="1.0" stroke="rgb(0,0,0)" stroke-width="2.0"/>
<line x1="70.9" y1="195.8" x2="49.2" y2="183.3" opacity="1.0" stroke="rgb(0,0,0)" stroke-width="2.0"/>
<line x1="75.1" y1="188.6" x2="53.4" y2="176.0" opacity="1.0" stroke="rgb(0,0,0)" stroke-width="2.0"/>
<line x1="105.9" y1="211.2" x2="73.0" y2="192.2" opacity="1.0" stroke="rgb(0,0,0)" stroke-width="2.0"/>
<line x1="204.8" y1="268.3" x2="171.8" y2="249.3" opacity="1.0" stroke="rgb(0,0,0)" stroke-width="2.0"/>
<line x1="468.4" y1="344.4" x2="435.4" y2="325.4" opacity="1.0" stroke="rgb(0,0,0)" stroke-width="2.0"/>
<line x1="435.4" y1="325.4" x2="435.4" y2="287.3" opacity="1.0" stroke="rgb(0,0,0)" stroke-width="2.0"/>
<line x1="442.6" y1="319.4" x2="442.6" y2="293.3" opacity="1.0" stroke="rgb(0,0,0)" stroke-width="2.0"/>
<line x1="435.4" y1="287.3" x2="468.4" y2="268.3" opacity="1.0" stroke="rgb(0,0,0)" stroke-width="2.0"/>
<line x1="468.4" y1="268.3" x2="501.3" y2="287.3" opacity="1.0" stroke="rgb(0,0,0)" stroke-width="2.0"/>
<line x1="470.0" y1="277.5" x2="492.5" y2="290.6" opacity="1.0" stroke="rgb(0,0,0)" stroke-width="2.0"/>
<line x1="501.3" y1="287.3" x2="501.3" y2="325.4" opacity="1.0" stroke="rgb(0,0,0)" stroke-width="2.0"/>
<line x1="501.3" y1="325.4" x2="468.4" y2="344.4" opacity="1.0" stroke="rgb(0,0,0)" stroke-width="2.0"/>
<line x1="492.5" y1="322.1" x2="470.0" y2="335.2" opacity="1.0" stroke="rgb(0,0,0)" stroke-width="2.0"/>
<line x1="336.6" y1="154.1" x2="336.6" y2="116.1" opacity="1.0" stroke="rgb(0,0,0)" stroke-width="2.0"/>
<line x1="336.6" y1="116.1" x2="369.5" y2="97.1" opacity="1.0" stroke="rgb(0,0,0)" stroke-width="2.0"/>
<line x1="345.4" y1="119.3" x2="367.9" y2="106.3" opacity="1.0" stroke="rgb(0,0,0)" stroke-width="2.0"/>
<line x1="369.5" y1="97.1" x2="402.5" y2="116.1" opacity="1.0" stroke="rgb(0,0,0)" stroke-width="2.0"/>
<line x1="402.5" y1="116.1" x2="402.5" y2="154.1" opacity="1.0" stroke="rgb(0,0,0)" stroke-width="2.0"/>
<line x1="395.3" y1="122.1" x2="395.3" y2="148.1" opacity="1.0" stroke="rgb(0,0,0)" stroke-width="2.0"/>
<line x1="402.5" y1="154.1" x2="369.5" y2="173.2" opacity="1.0" stroke="rgb(0,0,0)" stroke-width="2.0"/>
<line x1="369.5" y1="173.2" x2="336.6" y2="154.1" opacity="1.0" stroke="rgb(0,0,0)" stroke-width="2.0"/>
<line x1="367.9" y1="163.9" x2="345.4" y2="150.9" opacity="1.0" stroke="rgb(0,0,0)" stroke-width="2.0"/>
<line x1="336.6" y1="306.3" x2="303.6" y2="325.4" opacity="1.0" stroke="rgb(0,0,0)" stroke-width="2.0"/>
<line x1="303.6" y1="325.4" x2="270.7" y2="306.3" opacity="1.0" stroke="rgb(0,0,0)" stroke-width="2.0"/>
<line x1="302.0" y1="316.1" x2="279.5" y2="303.1" opacity="1.0" stroke="rgb(0,0,0)" stroke-width="2.0"/>
<line x1="270.7" y1="306.3" x2="270.7" y2="268.3" opacity="1.0" stroke="rgb(0,0,0)" stroke-width="2.0"/>
<line x1="270.7" y1="268.3" x2="303.6" y2="249.3" opacity="1.0" stroke="rgb(0,0,0)" stroke-width="2.0"/>
<line x1="279.5" y1="271.5" x2="302.0" y2="258.5" opacity="1.0" stroke="rgb(0,0,0)" stroke-width="2.0"/>
<line x1="303.6" y1="249.3" x2="336.6" y2="268.3" opacity="1.0" stroke="rgb(0,0,0)" stroke-width="2.0"/>
<line x1="336.6" y1="268.3" x2="336.6" y2="306.3" opacity="1.0" stroke="rgb(0,0,0)" stroke-width="2.0"/>
<line x1="329.4" y1="274.3" x2="329.4" y2="300.3" opacity="1.0" stroke="rgb(0,0,0)" stroke-width="2.0"/>
<line x1="204.8" y1="268.3" x2="237.7" y2="249.3" opacity="1.0" stroke="rgb(0,0,0)" stroke-width="2.0"/>
<line x1="213.6" y1="271.5" x2="236.1" y2="258.5" opacity="1.0" stroke="rgb(0,0,0)" stroke-width="2.0"/>
<line x1="237.7" y1="249.3" x2="270.7" y2="268.3" opacity="1.0" stroke="rgb(0,0,0)" stroke-width="2.0"/>
<line x1="270.7" y1="306.3" x2="237.7" y2="325.4" opacity="1.0" stroke="rgb(0,0,0)" stroke-width="2.0"/>
<line x1="237.7" y1="325.4" x2="204.8" y2="306.3" opacity="1.0" stroke="rgb(0,0,0)" stroke-width="2.0"/>
<line x1="236.1" y1="316.1" x2="213.6" y2="303.1" opacity="1.0" stroke="rgb(0,0,0)" stroke-width="2.0"/>
<line x1="204.8" y1="306.3" x2="204.8" y2="268.3" opacity="1.0" stroke="rgb(0,0,0)" stroke-width="2.0"/>
<line x1="138.9" y1="268.3" x2="105.9" y2="249.3" opacity="1.0" stroke="rgb(0,0,0)" stroke-width="2.0"/>
<line x1="105.9" y1="249.3" x2="105.9" y2="211.2" opacity="1.0" stroke="rgb(0,0,0)" stroke-width="2.0"/>
<line x1="113.1" y1="243.3" x2="113.1" y2="217.2" opacity="1.0" stroke="rgb(0,0,0)" stroke-width="2.0"/>
<line x1="105.9" y1="211.2" x2="138.9" y2="192.2" opacity="1.0" stroke="rgb(0,0,0)" stroke-width="2.0"/>
<line x1="138.9" y1="192.2" x2="171.8" y2="211.2" opacity="1.0" stroke="rgb(0,0,0)" stroke-width="2.0"/>
<line x1="140.4" y1="201.4" x2="163.0" y2="214.5" opacity="1.0" stroke="rgb(0,0,0)" stroke-width="2.0"/>
<line x1="171.8" y1="211.2" x2="171.8" y2="249.3" opacity="1.0" stroke="rgb(0,0,0)" stroke-width="2.0"/>
<line x1="171.8" y1="249.3" x2="138.9" y2="268.3" opacity="1.0" stroke="rgb(0,0,0)" stroke-width="2.0"/>
<line x1="163.0" y1="246.0" x2="140.4" y2="259.1" opacity="1.0" stroke="rgb(0,0,0)" stroke-width="2.0"/>
<text x="34.000000" y="181.170732" fill="rgb(12,12,255)" stroke-width="0" font-weight="bold" font-size="16">N</text>
<text x="363.512105" y="257.268293" fill="rgb(12,12,255)" stroke-width="0" font-weight="bold" font-size="16">N</text>
<text x="528.268157" y="352.390244" fill="rgb(255,12,12)" stroke-width="0" font-weight="bold" font-size="16">O</text>
<text x="530.268157" y="390.439024" fill="rgb(102,102,102)" stroke-width="0" font-weight="bold" font-size="16">CH</text>
<text x="554.268157" y="394.119024" fill="rgb(102,102,102)" stroke-width="0" font-weight="bold" font-size="13">3</text>
<text x="363.512105" y="67.024390" fill="rgb(255,12,12)" stroke-width="0" font-weight="bold" font-size="16">O</text>
<text x="398.463315" y="48.000000" fill="rgb(102,102,102)" stroke-width="0" font-weight="bold" font-size="16">CH</text>
<text x="422.463315" y="51.680000" fill="rgb(102,102,102)" stroke-width="0" font-weight="bold" font-size="13">3</text>
</svg>
</g>
</svg>