<svg xmlns="http://www.w3.org/2000/svg" xmlns:xlink="http://www.w3.org/1999/xlink" xmlns:cml="http://www.xml-cml.org/schema" version="1.1" id="topsvg" x="0" y="0" viewBox="0 0 100 100">
<title>B_5_R - Open Babel Depiction</title>
<rect x="0" y="0" width="100" height="100" fill="white"/>
<g transform="translate(0,0)">
<svg width="100" height="100" x="0" y="0" viewBox="0 0 574.872 422.857" font-family="sans-serif" stroke="rgb(0,0,0)" stroke-width="2" stroke-linecap="round">
<line x1="435.9" y1="287.6" x2="381.2" y2="256.0" opacity="1.0" stroke="rgb(0,0,0)" stroke-width="2.0"/>
<line x1="369.9" y1="236.5" x2="369.9" y2="173.3" opacity="1.0" stroke="rgb(0,0,0)" stroke-width="2.0"/>
<line x1="534.9" y1="357.8" x2="534.9" y2="369.9" opacity="1.0" stroke="rgb(0,0,0)" stroke-width="2.0"/>
<line x1="501.9" y1="325.7" x2="523.6" y2="338.3" opacity="1.0" stroke="rgb(0,0,0)" stroke-width="2.0"/>
<line x1="381.2" y1="52.5" x2="391.6" y2="46.5" opacity="1.0" stroke="rgb(0,0,0)" stroke-width="2.0"/>
<line x1="369.9" y1="97.1" x2="369.9" y2="72.0" opacity="1.0" stroke="rgb(0,0,0)" stroke-width="2.0"/>
<line x1="358.7" y1="256.0" x2="336.9" y2="268.6" opacity="1.0" stroke="rgb(0,0,0)" stroke-width="2.0"/>
<line x1="70.0" y1="179.4" x2="70.0" y2="167.3" opacity="1.0" stroke="rgb(0,0,0)" stroke-width="2.0"/>
<line x1="76.0" y1="179.4" x2="76.0" y2="167.3" opacity="1.0" stroke="rgb(0,0,0)" stroke-width="2.0"/>
<line x1="61.7" y1="198.9" x2="51.3" y2="204.9" opacity="1.0" stroke="rgb(0,0,0)" stroke-width="2.0"/>
<line x1="106.0" y1="211.4" x2="84.2" y2="198.9" opacity="1.0" stroke="rgb(0,0,0)" stroke-width="2.0"/>
<line x1="205.0" y1="268.6" x2="172.0" y2="249.5" opacity="1.0" stroke="rgb(0,0,0)" stroke-width="2.0"/>
<line x1="468.9" y1="344.8" x2="435.9" y2="325.7" opacity="1.0" stroke="rgb(0,0,0)" stroke-width="2.0"/>
<line x1="435.9" y1="325.7" x2="435.9" y2="287.6" opacity="1.0" stroke="rgb(0,0,0)" stroke-width="2.0"/>
<line x1="443.1" y1="319.7" x2="443.1" y2="293.6" opacity="1.0" stroke="rgb(0,0,0)" stroke-width="2.0"/>
<line x1="435.9" y1="287.6" x2="468.9" y2="268.6" opacity="1.0" stroke="rgb(0,0,0)" stroke-width="2.0"/>
<line x1="468.9" y1="268.6" x2="501.9" y2="287.6" opacity="1.0" stroke="rgb(0,0,0)" stroke-width="2.0"/>
<line x1="470.5" y1="277.8" x2="493.1" y2="290.9" opacity="1.0" stroke="rgb(0,0,0)" stroke-width="2.0"/>
<line x1="501.9" y1="287.6" x2="501.9" y2="325.7" opacity="1.0" stroke="rgb(0,0,0)" stroke-width="2.0"/>
<line x1="501.9" y1="325.7" x2="468.9" y2="344.8" opacity="1.0" stroke="rgb(0,0,0)" stroke-width="2.0"/>
<line x1="493.1" y1="322.5" x2="470.5" y2="335.5" opacity="1.0" stroke="rgb(0,0,0)" stroke-width="2.0"/>
<line x1="336.9" y1="154.3" x2="336.9" y2="116.2" opacity="1.0" stroke="rgb(0,0,0)" stroke-width="2.0"/>
<line x1="336.9" y1="116.2" x2="369.9" y2="97.1" opacity="1.0" stroke="rgb(0,0,0)" stroke-width="2.0"/>
<line x1="345.7" y1="119.4" x2="368.3" y2="106.4" opacity="1.0" stroke="rgb(0,0,0)" stroke-width="2.0"/>
<line x1="369.9" y1="97.1" x2="402.9" y2="116.2" opacity="1.0" stroke="rgb(0,0,0)" stroke-width="2.0"/>
<line x1="402.9" y1="116.2" x2="402.9" y2="154.3" opacity="1.0" stroke="rgb(0,0,0)" stroke-width="2.0"/>
<line x1="395.7" y1="122.2" x2="395.7" y2="148.3" opacity="1.0" stroke="rgb(0,0,0)" stroke-width="2.0"/>
<line x1="402.9" y1="154.3" x2="369.9" y2="173.3" opacity="1.0" stroke="rgb(0,0,0)" stroke-width="2.0"/>
<line x1="369.9" y1="173.3" x2="336.9" y2="154.3" opacity="1.0" stroke="rgb(0,0,0)" stroke-width="2.0"/>
<line x1="368.3" y1="164.1" x2="345.7" y2="151.1" opacity="1.0" stroke="rgb(0,0,0)" stroke-width="2.0"/>
<line x1="336.9" y1="306.7" x2="303.9" y2="325.7" opacity="1.0" stroke="rgb(0,0,0)" stroke-width="2.0"/>
<line x1="303.9" y1="325.7" x2="270.9" y2="306.7" opacity="1.0" stroke="rgb(0,0,0)" stroke-width="2.0"/>
<line x1="302.3" y1="316.5" x2="279.7" y2="303.4" opacity="1.0" stroke="rgb(0,0,0)" stroke-width="2.0"/>
<line x1="270.9" y1="306.7" x2="270.9" y2="268.6" opacity="1.0" stroke="rgb(0,0,0)" stroke-width="2.0"/>
<line x1="270.9" y1="268.6" x2="303.9" y2="249.5" opacity="1.0" stroke="rgb(0,0,0)" stroke-width="2.0"/>
<line x1="279.7" y1="271.8" x2="302.3" y2="258.8" opacity="1.0" stroke="rgb(0,0,0)" stroke-width="2.0"/>
<line x1="303.9" y1="249.5" x2="336.9" y2="268.6" opacity="1.0" stroke="rgb(0,0,0)" stroke-width="2.0"/>
<line x1="336.9" y1="268.6" x2="336.9" y2="306.7" opacity="1.0" stroke="rgb(0,0,0)" stroke-width="2.0"/>
<line x1="329.7" y1="274.6" x2="329.7" y2="300.7" opacity="1.0" stroke="rgb(0,0,0)" stroke-width="2.0"/>
<line x1="205.0" y1="268.6" x2="237.9" y2="249.5" opacity="1.0" stroke="rgb(0,0,0)" stroke-width="2.0"/>
<line x1="213.8" y1="271.8" x2="236.4" y2="258.8" opacity="1.0" stroke="rgb(0,0,0)" stroke-width="2.0"/>
<line x1="237.9" y1="249.5" x2="270.9" y2="268.6" opacity="1.0" stroke="rgb(0,0,0)" stroke-width="2.0"/>
<line x1="270.9" y1="306.7" x2="237.9" y2="325.7" opacity="1.0" stroke="rgb(0,0,0)" stroke-width="2.0"/>
<line x1="237.9" y1="325.7" x2="205.0" y2="306.7" opacity="1.0" stroke="rgb(0,0,0)" stroke-width="2.0"/>
<line x1="236.4" y1="316.5" x2="213.8" y2="303.4" opacity="1.0" stroke="rgb(0,0,0)" stroke-width="2.0"/>
<line x1="205.0" y1="306.7" x2="205.0" y2="268.6" opacity="1.0" stroke="rgb(0,0,0)" stroke-width="2.0"/>
<line x1="127.7" y1="262.1" x2="106.0" y2="249.5" opacity="1.0" stroke="rgb(0,0,0)" stroke-width="2.0"/>
<line x1="106.0" y1="249.5" x2="106.0" y2="211.4" opacity="1.0" stroke="rgb(0,0,0)" stroke-width="2.0"/>
<line x1="113.2" y1="243.5" x2="113.2" y2="217.4" opacity="1.0" stroke="rgb(0,0,0)" stroke-width="2.0"/>
<line x1="106.0" y1="211.4" x2="139.0" y2="192.4" opacity="1.0" stroke="rgb(0,0,0)" stroke-width="2.0"/>
<line x1="139.0" y1="192.4" x2="172.0" y2="211.4" opacity="1.0" stroke="rgb(0,0,0)" stroke-width="2.0"/>
<line x1="140.6" y1="201.6" x2="163.2" y2="214.7" opacity="1.0" stroke="rgb(0,0,0)" stroke-width="2.0"/>
<line x1="172.0" y1="211.4" x2="172.0" y2="249.5" opacity="1.0" stroke="rgb(0,0,0)" stroke-width="2.0"/>
<line x1="172.0" y1="249.5" x2="149.9" y2="262.3" opacity="1.0" stroke="rgb(0,0,0)" stroke-width="2.0"/>
<line x1="163.2" y1="246.3" x2="148.2" y2="255.0" opacity="1.0" stroke="rgb(0,0,0)" stroke-width="2.0"/>
<text x="132.974332" y="276.571429" fill="rgb(12,12,255)" stroke-width="0" font-weight="bold" font-size="16">N</text>
<text x="66.991444" y="200.380952" fill="rgb(12,12,255)" stroke-width="0" font-weight="bold" font-size="16">N</text>
<text x="66.991444" y="162.285714" fill="rgb(255,12,12)" stroke-width="0" font-weight="bold" font-size="16">O</text>
<text x="44.800000" y="207.396571" fill="rgb(255,12,12)" stroke-width="0" font-weight="bold" font-size="16"/>
<text x="44.800000" y="207.396571" fill="rgb(255,12,12)" stroke-width="0" font-weight="bold" font-size="32">.</text>
<text x="34.000000" y="219.428571" fill="rgb(255,12,12)" stroke-width="0" font-weight="bold" font-size="16">O</text>
<text x="363.914440" y="257.523810" fill="rgb(12,12,255)" stroke-width="0" font-weight="bold" font-size="16">N</text>
<text x="528.871659" y="352.761905" fill="rgb(255,12,12)" stroke-width="0" font-weight="bold" font-size="16">O</text>
<text x="530.871659" y="390.857143" fill="rgb(102,102,102)" stroke-width="0" font-weight="bold" font-size="16">CH</text>
<text x="554.871659" y="394.537143" fill="rgb(102,102,102)" stroke-width="0" font-weight="bold" font-size="13">3</text>
<text x="363.914440" y="67.047619" fill="rgb(255,12,12)" stroke-width="0" font-weight="bold" font-size="16">O</text>
<text x="398.905883" y="48.000000" fill="rgb(102,102,102)" stroke-width="0" font-weight="bold" font-size="16">CH</text>
<text x="422.905883" y="51.680000" fill="rgb(102,102,102)" stroke-width="0" font-weight="bold" font-size="13">3</text>
</svg>
</g>
</svg>