<svg xmlns="http://www.w3.org/2000/svg" x="0" y="0" viewBox="0 0 100 100">
<title>B_5_O - Open Babel Depiction</title>
<rect x="0" y="0" width="100" height="100" fill="white"/>
<g transform="translate(0,0)">
<svg width="100" height="100" x="0" y="0" viewBox="0 0 507.239 421.538" font-family="sans-serif" stroke="rgb(0,0,0)" stroke-width="2" stroke-linecap="round">
<line x1="138.6" y1="134.9" x2="193.1" y2="166.3" opacity="1.0" stroke="rgb(0,0,0)" stroke-width="2.0"/>
<line x1="204.3" y1="185.8" x2="204.3" y2="248.7" opacity="1.0" stroke="rgb(0,0,0)" stroke-width="2.0"/>
<line x1="40.0" y1="64.9" x2="40.0" y2="53.0" opacity="1.0" stroke="rgb(0,0,0)" stroke-width="2.0"/>
<line x1="72.9" y1="96.9" x2="51.3" y2="84.4" opacity="1.0" stroke="rgb(0,0,0)" stroke-width="2.0"/>
<line x1="193.1" y1="369.1" x2="182.7" y2="375.0" opacity="1.0" stroke="rgb(0,0,0)" stroke-width="2.0"/>
<line x1="204.3" y1="324.6" x2="204.3" y2="349.6" opacity="1.0" stroke="rgb(0,0,0)" stroke-width="2.0"/>
<line x1="215.6" y1="166.3" x2="237.2" y2="153.8" opacity="1.0" stroke="rgb(0,0,0)" stroke-width="2.0"/>
<line x1="368.6" y1="153.8" x2="401.5" y2="172.8" opacity="1.0" stroke="rgb(0,0,0)" stroke-width="2.0"/>
<line x1="105.7" y1="77.9" x2="138.6" y2="96.9" opacity="1.0" stroke="rgb(0,0,0)" stroke-width="2.0"/>
<line x1="138.6" y1="96.9" x2="138.6" y2="134.9" opacity="1.0" stroke="rgb(0,0,0)" stroke-width="2.0"/>
<line x1="131.4" y1="102.9" x2="131.4" y2="128.9" opacity="1.0" stroke="rgb(0,0,0)" stroke-width="2.0"/>
<line x1="138.6" y1="134.9" x2="105.7" y2="153.8" opacity="1.0" stroke="rgb(0,0,0)" stroke-width="2.0"/>
<line x1="105.7" y1="153.8" x2="72.9" y2="134.9" opacity="1.0" stroke="rgb(0,0,0)" stroke-width="2.0"/>
<line x1="104.1" y1="144.6" x2="81.7" y2="131.6" opacity="1.0" stroke="rgb(0,0,0)" stroke-width="2.0"/>
<line x1="72.9" y1="134.9" x2="72.9" y2="96.9" opacity="1.0" stroke="rgb(0,0,0)" stroke-width="2.0"/>
<line x1="72.9" y1="96.9" x2="105.7" y2="77.9" opacity="1.0" stroke="rgb(0,0,0)" stroke-width="2.0"/>
<line x1="81.7" y1="100.2" x2="104.1" y2="87.2" opacity="1.0" stroke="rgb(0,0,0)" stroke-width="2.0"/>
<line x1="237.2" y1="267.7" x2="237.2" y2="305.6" opacity="1.0" stroke="rgb(0,0,0)" stroke-width="2.0"/>
<line x1="237.2" y1="305.6" x2="204.3" y2="324.6" opacity="1.0" stroke="rgb(0,0,0)" stroke-width="2.0"/>
<line x1="228.4" y1="302.4" x2="205.9" y2="315.4" opacity="1.0" stroke="rgb(0,0,0)" stroke-width="2.0"/>
<line x1="204.3" y1="324.6" x2="171.5" y2="305.6" opacity="1.0" stroke="rgb(0,0,0)" stroke-width="2.0"/>
<line x1="171.5" y1="305.6" x2="171.5" y2="267.7" opacity="1.0" stroke="rgb(0,0,0)" stroke-width="2.0"/>
<line x1="178.7" y1="299.6" x2="178.7" y2="273.7" opacity="1.0" stroke="rgb(0,0,0)" stroke-width="2.0"/>
<line x1="171.5" y1="267.7" x2="204.3" y2="248.7" opacity="1.0" stroke="rgb(0,0,0)" stroke-width="2.0"/>
<line x1="204.3" y1="248.7" x2="237.2" y2="267.7" opacity="1.0" stroke="rgb(0,0,0)" stroke-width="2.0"/>
<line x1="205.9" y1="258.0" x2="228.4" y2="270.9" opacity="1.0" stroke="rgb(0,0,0)" stroke-width="2.0"/>
<line x1="237.2" y1="115.9" x2="270.1" y2="96.9" opacity="1.0" stroke="rgb(0,0,0)" stroke-width="2.0"/>
<line x1="270.1" y1="96.9" x2="302.9" y2="115.9" opacity="1.0" stroke="rgb(0,0,0)" stroke-width="2.0"/>
<line x1="271.6" y1="106.2" x2="294.1" y2="119.1" opacity="1.0" stroke="rgb(0,0,0)" stroke-width="2.0"/>
<line x1="302.9" y1="115.9" x2="302.9" y2="153.8" opacity="1.0" stroke="rgb(0,0,0)" stroke-width="2.0"/>
<line x1="302.9" y1="153.8" x2="270.1" y2="172.8" opacity="1.0" stroke="rgb(0,0,0)" stroke-width="2.0"/>
<line x1="294.1" y1="150.6" x2="271.6" y2="163.6" opacity="1.0" stroke="rgb(0,0,0)" stroke-width="2.0"/>
<line x1="270.1" y1="172.8" x2="237.2" y2="153.8" opacity="1.0" stroke="rgb(0,0,0)" stroke-width="2.0"/>
<line x1="237.2" y1="153.8" x2="237.2" y2="115.9" opacity="1.0" stroke="rgb(0,0,0)" stroke-width="2.0"/>
<line x1="244.4" y1="147.8" x2="244.4" y2="121.9" opacity="1.0" stroke="rgb(0,0,0)" stroke-width="2.0"/>
<line x1="368.6" y1="153.8" x2="335.8" y2="172.8" opacity="1.0" stroke="rgb(0,0,0)" stroke-width="2.0"/>
<line x1="359.8" y1="150.6" x2="337.4" y2="163.6" opacity="1.0" stroke="rgb(0,0,0)" stroke-width="2.0"/>
<line x1="335.8" y1="172.8" x2="302.9" y2="153.8" opacity="1.0" stroke="rgb(0,0,0)" stroke-width="2.0"/>
<line x1="302.9" y1="115.9" x2="335.8" y2="96.9" opacity="1.0" stroke="rgb(0,0,0)" stroke-width="2.0"/>
<line x1="335.8" y1="96.9" x2="368.6" y2="115.9" opacity="1.0" stroke="rgb(0,0,0)" stroke-width="2.0"/>
<line x1="337.4" y1="106.2" x2="359.8" y2="119.1" opacity="1.0" stroke="rgb(0,0,0)" stroke-width="2.0"/>
<line x1="368.6" y1="115.9" x2="368.6" y2="153.8" opacity="1.0" stroke="rgb(0,0,0)" stroke-width="2.0"/>
<line x1="445.6" y1="160.3" x2="467.2" y2="172.8" opacity="1.0" stroke="rgb(0,0,0)" stroke-width="2.0"/>
<line x1="467.2" y1="172.8" x2="467.2" y2="210.8" opacity="1.0" stroke="rgb(0,0,0)" stroke-width="2.0"/>
<line x1="460.0" y1="178.8" x2="460.0" y2="204.8" opacity="1.0" stroke="rgb(0,0,0)" stroke-width="2.0"/>
<line x1="467.2" y1="210.8" x2="434.4" y2="229.7" opacity="1.0" stroke="rgb(0,0,0)" stroke-width="2.0"/>
<line x1="434.4" y1="229.7" x2="401.5" y2="210.8" opacity="1.0" stroke="rgb(0,0,0)" stroke-width="2.0"/>
<line x1="432.8" y1="220.5" x2="410.3" y2="207.5" opacity="1.0" stroke="rgb(0,0,0)" stroke-width="2.0"/>
<line x1="401.5" y1="210.8" x2="401.5" y2="172.8" opacity="1.0" stroke="rgb(0,0,0)" stroke-width="2.0"/>
<line x1="401.5" y1="172.8" x2="423.5" y2="160.1" opacity="1.0" stroke="rgb(0,0,0)" stroke-width="2.0"/>
<line x1="410.3" y1="176.1" x2="425.2" y2="167.4" opacity="1.0" stroke="rgb(0,0,0)" stroke-width="2.0"/>
<text x="145.458215" y="389.538462" fill="rgb(102,102,102)" stroke-width="0" font-weight="bold" font-size="16">H</text>
<text x="157.458215" y="393.218462" fill="rgb(102,102,102)" stroke-width="0" font-weight="bold" font-size="13">3</text>
<text x="163.958215" y="389.538462" fill="rgb(102,102,102)" stroke-width="0" font-weight="bold" font-size="16">C</text>
<text x="428.374645" y="161.846154" fill="rgb(12,12,255)" stroke-width="0" font-weight="bold" font-size="16">N</text>
<text x="198.322769" y="370.564103" fill="rgb(255,12,12)" stroke-width="0" font-weight="bold" font-size="16">O</text>
<text x="36.000000" y="48.000000" fill="rgb(102,102,102)" stroke-width="0" font-weight="bold" font-size="16">CH</text>
<text x="60.000000" y="51.680000" fill="rgb(102,102,102)" stroke-width="0" font-weight="bold" font-size="13">3</text>
<text x="34.000000" y="85.948718" fill="rgb(255,12,12)" stroke-width="0" font-weight="bold" font-size="16">O</text>
<text x="198.322769" y="180.820513" fill="rgb(12,12,255)" stroke-width="0" font-weight="bold" font-size="16">N</text>
</svg>
</g>
</svg>
