<svg xmlns="http://www.w3.org/2000/svg" x="0" y="0" viewBox="0 0 100 100">
<title>B_6_L - Open Babel Depiction</title>
<rect x="0" y="0" width="100" height="100" fill="white"/>
<g transform="translate(0,0)">
<svg width="100" height="100" x="0" y="0" viewBox="0 0 556.986 434.091" font-family="sans-serif" stroke="rgb(0,0,0)" stroke-width="2" stroke-linecap="round">
<line x1="233.7" y1="170.5" x2="233.7" y2="232.0" opacity="1.0" stroke="rgb(0,0,0)" stroke-width="2.0"/>
<line x1="222.4" y1="251.5" x2="169.1" y2="282.3" opacity="1.0" stroke="rgb(0,0,0)" stroke-width="2.0"/>
<line x1="222.4" y1="52.1" x2="212.7" y2="46.5" opacity="1.0" stroke="rgb(0,0,0)" stroke-width="2.0"/>
<line x1="233.7" y1="95.9" x2="233.7" y2="71.6" opacity="1.0" stroke="rgb(0,0,0)" stroke-width="2.0"/>
<line x1="61.0" y1="331.7" x2="51.3" y2="326.0" opacity="1.0" stroke="rgb(0,0,0)" stroke-width="2.0"/>
<line x1="104.6" y1="319.5" x2="83.5" y2="331.7" opacity="1.0" stroke="rgb(0,0,0)" stroke-width="2.0"/>
<line x1="244.9" y1="251.5" x2="266.0" y2="263.6" opacity="1.0" stroke="rgb(0,0,0)" stroke-width="2.0"/>
<line x1="330.5" y1="300.9" x2="395.1" y2="338.2" opacity="1.0" stroke="rgb(0,0,0)" stroke-width="2.0"/>
<line x1="517.0" y1="356.8" x2="495.1" y2="326.7" opacity="1.0" stroke="rgb(0,0,0)" stroke-width="2.0"/>
<line x1="507.6" y1="356.2" x2="492.8" y2="335.8" opacity="1.0" stroke="rgb(0,0,0)" stroke-width="2.0"/>
<line x1="495.1" y1="326.7" x2="459.6" y2="338.2" opacity="1.0" stroke="rgb(0,0,0)" stroke-width="2.0"/>
<line x1="459.6" y1="338.2" x2="459.6" y2="375.5" opacity="1.0" stroke="rgb(0,0,0)" stroke-width="2.0"/>
<line x1="459.6" y1="375.5" x2="482.7" y2="383.0" opacity="1.0" stroke="rgb(0,0,0)" stroke-width="2.0"/>
<line x1="502.7" y1="376.5" x2="517.0" y2="356.8" opacity="1.0" stroke="rgb(0,0,0)" stroke-width="2.0"/>
<line x1="266.0" y1="114.5" x2="266.0" y2="151.8" opacity="1.0" stroke="rgb(0,0,0)" stroke-width="2.0"/>
<line x1="266.0" y1="151.8" x2="233.7" y2="170.5" opacity="1.0" stroke="rgb(0,0,0)" stroke-width="2.0"/>
<line x1="257.2" y1="148.6" x2="235.3" y2="161.2" opacity="1.0" stroke="rgb(0,0,0)" stroke-width="2.0"/>
<line x1="233.7" y1="170.5" x2="201.4" y2="151.8" opacity="1.0" stroke="rgb(0,0,0)" stroke-width="2.0"/>
<line x1="201.4" y1="151.8" x2="201.4" y2="114.5" opacity="1.0" stroke="rgb(0,0,0)" stroke-width="2.0"/>
<line x1="208.6" y1="145.8" x2="208.6" y2="120.5" opacity="1.0" stroke="rgb(0,0,0)" stroke-width="2.0"/>
<line x1="201.4" y1="114.5" x2="233.7" y2="95.9" opacity="1.0" stroke="rgb(0,0,0)" stroke-width="2.0"/>
<line x1="233.7" y1="95.9" x2="266.0" y2="114.5" opacity="1.0" stroke="rgb(0,0,0)" stroke-width="2.0"/>
<line x1="235.3" y1="105.1" x2="257.2" y2="117.8" opacity="1.0" stroke="rgb(0,0,0)" stroke-width="2.0"/>
<line x1="169.1" y1="319.5" x2="136.8" y2="338.2" opacity="1.0" stroke="rgb(0,0,0)" stroke-width="2.0"/>
<line x1="136.8" y1="338.2" x2="104.6" y2="319.5" opacity="1.0" stroke="rgb(0,0,0)" stroke-width="2.0"/>
<line x1="135.2" y1="328.9" x2="113.4" y2="316.3" opacity="1.0" stroke="rgb(0,0,0)" stroke-width="2.0"/>
<line x1="104.6" y1="319.5" x2="104.6" y2="282.3" opacity="1.0" stroke="rgb(0,0,0)" stroke-width="2.0"/>
<line x1="104.6" y1="282.3" x2="136.8" y2="263.6" opacity="1.0" stroke="rgb(0,0,0)" stroke-width="2.0"/>
<line x1="113.4" y1="285.5" x2="135.2" y2="272.9" opacity="1.0" stroke="rgb(0,0,0)" stroke-width="2.0"/>
<line x1="136.8" y1="263.6" x2="169.1" y2="282.3" opacity="1.0" stroke="rgb(0,0,0)" stroke-width="2.0"/>
<line x1="169.1" y1="282.3" x2="169.1" y2="319.5" opacity="1.0" stroke="rgb(0,0,0)" stroke-width="2.0"/>
<line x1="161.9" y1="288.3" x2="161.9" y2="313.5" opacity="1.0" stroke="rgb(0,0,0)" stroke-width="2.0"/>
<line x1="298.2" y1="245.0" x2="330.5" y2="263.6" opacity="1.0" stroke="rgb(0,0,0)" stroke-width="2.0"/>
<line x1="330.5" y1="263.6" x2="330.5" y2="300.9" opacity="1.0" stroke="rgb(0,0,0)" stroke-width="2.0"/>
<line x1="323.3" y1="269.6" x2="323.3" y2="294.9" opacity="1.0" stroke="rgb(0,0,0)" stroke-width="2.0"/>
<line x1="330.5" y1="300.9" x2="298.2" y2="319.5" opacity="1.0" stroke="rgb(0,0,0)" stroke-width="2.0"/>
<line x1="298.2" y1="319.5" x2="266.0" y2="300.9" opacity="1.0" stroke="rgb(0,0,0)" stroke-width="2.0"/>
<line x1="296.6" y1="310.3" x2="274.8" y2="297.7" opacity="1.0" stroke="rgb(0,0,0)" stroke-width="2.0"/>
<line x1="266.0" y1="300.9" x2="266.0" y2="263.6" opacity="1.0" stroke="rgb(0,0,0)" stroke-width="2.0"/>
<line x1="266.0" y1="263.6" x2="298.2" y2="245.0" opacity="1.0" stroke="rgb(0,0,0)" stroke-width="2.0"/>
<line x1="274.8" y1="266.9" x2="296.6" y2="254.2" opacity="1.0" stroke="rgb(0,0,0)" stroke-width="2.0"/>
<line x1="233.7" y1="356.8" x2="233.7" y2="319.5" opacity="1.0" stroke="rgb(0,0,0)" stroke-width="2.0"/>
<line x1="240.9" y1="350.8" x2="240.9" y2="325.5" opacity="1.0" stroke="rgb(0,0,0)" stroke-width="2.0"/>
<line x1="233.7" y1="319.5" x2="266.0" y2="300.9" opacity="1.0" stroke="rgb(0,0,0)" stroke-width="2.0"/>
<line x1="298.2" y1="319.5" x2="298.2" y2="356.8" opacity="1.0" stroke="rgb(0,0,0)" stroke-width="2.0"/>
<line x1="298.2" y1="356.8" x2="266.0" y2="375.5" opacity="1.0" stroke="rgb(0,0,0)" stroke-width="2.0"/>
<line x1="289.4" y1="353.6" x2="267.6" y2="366.2" opacity="1.0" stroke="rgb(0,0,0)" stroke-width="2.0"/>
<line x1="266.0" y1="375.5" x2="233.7" y2="356.8" opacity="1.0" stroke="rgb(0,0,0)" stroke-width="2.0"/>
<line x1="395.1" y1="375.5" x2="427.3" y2="394.1" opacity="1.0" stroke="rgb(0,0,0)" stroke-width="2.0"/>
<line x1="427.3" y1="394.1" x2="459.6" y2="375.5" opacity="1.0" stroke="rgb(0,0,0)" stroke-width="2.0"/>
<line x1="428.9" y1="384.9" x2="450.8" y2="372.2" opacity="1.0" stroke="rgb(0,0,0)" stroke-width="2.0"/>
<line x1="459.6" y1="338.2" x2="427.3" y2="319.5" opacity="1.0" stroke="rgb(0,0,0)" stroke-width="2.0"/>
<line x1="450.8" y1="341.4" x2="428.9" y2="328.8" opacity="1.0" stroke="rgb(0,0,0)" stroke-width="2.0"/>
<line x1="427.3" y1="319.5" x2="395.1" y2="338.2" opacity="1.0" stroke="rgb(0,0,0)" stroke-width="2.0"/>
<line x1="395.1" y1="338.2" x2="395.1" y2="375.5" opacity="1.0" stroke="rgb(0,0,0)" stroke-width="2.0"/>
<line x1="402.3" y1="344.2" x2="402.3" y2="369.5" opacity="1.0" stroke="rgb(0,0,0)" stroke-width="2.0"/>
<text x="489.077143" y="394.972452" fill="rgb(12,12,255)" stroke-width="0" font-weight="bold" font-size="16">N</text>
<text x="489.077143" y="410.972452" fill="rgb(12,12,255)" stroke-width="0" font-weight="bold" font-size="16">H</text>
<text x="227.674772" y="253.000000" fill="rgb(12,12,255)" stroke-width="0" font-weight="bold" font-size="16">N</text>
<text x="227.674772" y="66.636364" fill="rgb(255,12,12)" stroke-width="0" font-weight="bold" font-size="16">O</text>
<text x="175.395643" y="48.000000" fill="rgb(102,102,102)" stroke-width="0" font-weight="bold" font-size="16">H</text>
<text x="187.395643" y="51.680000" fill="rgb(102,102,102)" stroke-width="0" font-weight="bold" font-size="13">3</text>
<text x="193.895643" y="48.000000" fill="rgb(102,102,102)" stroke-width="0" font-weight="bold" font-size="16">C</text>
<text x="66.279129" y="346.181818" fill="rgb(255,12,12)" stroke-width="0" font-weight="bold" font-size="16">O</text>
<text x="14.000000" y="327.545455" fill="rgb(102,102,102)" stroke-width="0" font-weight="bold" font-size="16">H</text>
<text x="26.000000" y="331.225455" fill="rgb(102,102,102)" stroke-width="0" font-weight="bold" font-size="13">3</text>
<text x="32.500000" y="327.545455" fill="rgb(102,102,102)" stroke-width="0" font-weight="bold" font-size="16">C</text>
</svg>
</g>
</svg>
