<svg xmlns="http://www.w3.org/2000/svg" xmlns:xlink="http://www.w3.org/1999/xlink" xmlns:cml="http://www.xml-cml.org/schema" version="1.1" id="topsvg" x="0" y="0" viewBox="0 0 100 100">
<title>B_6_R - Open Babel Depiction</title>
<rect x="0" y="0" width="100" height="100" fill="white"/>
<g transform="translate(0,0)">
<svg width="100" height="100" x="0" y="0" viewBox="0 0 508.889 460.952" font-family="sans-serif" stroke="rgb(0,0,0)" stroke-width="2" stroke-linecap="round">
<line x1="369.9" y1="287.6" x2="315.2" y2="256.0" opacity="1.0" stroke="rgb(0,0,0)" stroke-width="2.0"/>
<line x1="303.9" y1="236.5" x2="303.9" y2="173.3" opacity="1.0" stroke="rgb(0,0,0)" stroke-width="2.0"/>
<line x1="468.9" y1="357.8" x2="468.9" y2="369.9" opacity="1.0" stroke="rgb(0,0,0)" stroke-width="2.0"/>
<line x1="435.9" y1="325.7" x2="457.6" y2="338.3" opacity="1.0" stroke="rgb(0,0,0)" stroke-width="2.0"/>
<line x1="315.2" y1="52.5" x2="325.7" y2="46.5" opacity="1.0" stroke="rgb(0,0,0)" stroke-width="2.0"/>
<line x1="303.9" y1="97.1" x2="303.9" y2="72.0" opacity="1.0" stroke="rgb(0,0,0)" stroke-width="2.0"/>
<line x1="292.7" y1="256.0" x2="270.9" y2="268.6" opacity="1.0" stroke="rgb(0,0,0)" stroke-width="2.0"/>
<line x1="76.0" y1="395.9" x2="76.0" y2="408.0" opacity="1.0" stroke="rgb(0,0,0)" stroke-width="2.0"/>
<line x1="70.0" y1="395.9" x2="70.0" y2="408.0" opacity="1.0" stroke="rgb(0,0,0)" stroke-width="2.0"/>
<line x1="61.7" y1="376.4" x2="51.3" y2="370.3" opacity="1.0" stroke="rgb(0,0,0)" stroke-width="2.0"/>
<line x1="106.0" y1="363.8" x2="84.2" y2="376.4" opacity="1.0" stroke="rgb(0,0,0)" stroke-width="2.0"/>
<line x1="205.0" y1="306.7" x2="172.0" y2="325.7" opacity="1.0" stroke="rgb(0,0,0)" stroke-width="2.0"/>
<line x1="402.9" y1="344.8" x2="369.9" y2="325.7" opacity="1.0" stroke="rgb(0,0,0)" stroke-width="2.0"/>
<line x1="369.9" y1="325.7" x2="369.9" y2="287.6" opacity="1.0" stroke="rgb(0,0,0)" stroke-width="2.0"/>
<line x1="377.1" y1="319.7" x2="377.1" y2="293.6" opacity="1.0" stroke="rgb(0,0,0)" stroke-width="2.0"/>
<line x1="369.9" y1="287.6" x2="402.9" y2="268.6" opacity="1.0" stroke="rgb(0,0,0)" stroke-width="2.0"/>
<line x1="402.9" y1="268.6" x2="435.9" y2="287.6" opacity="1.0" stroke="rgb(0,0,0)" stroke-width="2.0"/>
<line x1="404.5" y1="277.8" x2="427.1" y2="290.9" opacity="1.0" stroke="rgb(0,0,0)" stroke-width="2.0"/>
<line x1="435.9" y1="287.6" x2="435.9" y2="325.7" opacity="1.0" stroke="rgb(0,0,0)" stroke-width="2.0"/>
<line x1="435.9" y1="325.7" x2="402.9" y2="344.8" opacity="1.0" stroke="rgb(0,0,0)" stroke-width="2.0"/>
<line x1="427.1" y1="322.5" x2="404.5" y2="335.5" opacity="1.0" stroke="rgb(0,0,0)" stroke-width="2.0"/>
<line x1="270.9" y1="154.3" x2="270.9" y2="116.2" opacity="1.0" stroke="rgb(0,0,0)" stroke-width="2.0"/>
<line x1="270.9" y1="116.2" x2="303.9" y2="97.1" opacity="1.0" stroke="rgb(0,0,0)" stroke-width="2.0"/>
<line x1="279.7" y1="119.4" x2="302.3" y2="106.4" opacity="1.0" stroke="rgb(0,0,0)" stroke-width="2.0"/>
<line x1="303.9" y1="97.1" x2="336.9" y2="116.2" opacity="1.0" stroke="rgb(0,0,0)" stroke-width="2.0"/>
<line x1="336.9" y1="116.2" x2="336.9" y2="154.3" opacity="1.0" stroke="rgb(0,0,0)" stroke-width="2.0"/>
<line x1="329.7" y1="122.2" x2="329.7" y2="148.3" opacity="1.0" stroke="rgb(0,0,0)" stroke-width="2.0"/>
<line x1="336.9" y1="154.3" x2="303.9" y2="173.3" opacity="1.0" stroke="rgb(0,0,0)" stroke-width="2.0"/>
<line x1="303.9" y1="173.3" x2="270.9" y2="154.3" opacity="1.0" stroke="rgb(0,0,0)" stroke-width="2.0"/>
<line x1="302.3" y1="164.1" x2="279.7" y2="151.1" opacity="1.0" stroke="rgb(0,0,0)" stroke-width="2.0"/>
<line x1="270.9" y1="306.7" x2="237.9" y2="325.7" opacity="1.0" stroke="rgb(0,0,0)" stroke-width="2.0"/>
<line x1="237.9" y1="325.7" x2="205.0" y2="306.7" opacity="1.0" stroke="rgb(0,0,0)" stroke-width="2.0"/>
<line x1="236.4" y1="316.5" x2="213.8" y2="303.4" opacity="1.0" stroke="rgb(0,0,0)" stroke-width="2.0"/>
<line x1="205.0" y1="306.7" x2="205.0" y2="268.6" opacity="1.0" stroke="rgb(0,0,0)" stroke-width="2.0"/>
<line x1="205.0" y1="268.6" x2="237.9" y2="249.5" opacity="1.0" stroke="rgb(0,0,0)" stroke-width="2.0"/>
<line x1="213.8" y1="271.8" x2="236.4" y2="258.8" opacity="1.0" stroke="rgb(0,0,0)" stroke-width="2.0"/>
<line x1="237.9" y1="249.5" x2="270.9" y2="268.6" opacity="1.0" stroke="rgb(0,0,0)" stroke-width="2.0"/>
<line x1="270.9" y1="268.6" x2="270.9" y2="306.7" opacity="1.0" stroke="rgb(0,0,0)" stroke-width="2.0"/>
<line x1="263.7" y1="274.6" x2="263.7" y2="300.7" opacity="1.0" stroke="rgb(0,0,0)" stroke-width="2.0"/>
<line x1="205.0" y1="192.4" x2="237.9" y2="211.4" opacity="1.0" stroke="rgb(0,0,0)" stroke-width="2.0"/>
<line x1="206.6" y1="201.6" x2="229.2" y2="214.7" opacity="1.0" stroke="rgb(0,0,0)" stroke-width="2.0"/>
<line x1="237.9" y1="211.4" x2="237.9" y2="249.5" opacity="1.0" stroke="rgb(0,0,0)" stroke-width="2.0"/>
<line x1="205.0" y1="268.6" x2="172.0" y2="249.5" opacity="1.0" stroke="rgb(0,0,0)" stroke-width="2.0"/>
<line x1="172.0" y1="249.5" x2="172.0" y2="211.4" opacity="1.0" stroke="rgb(0,0,0)" stroke-width="2.0"/>
<line x1="179.2" y1="243.5" x2="179.2" y2="217.4" opacity="1.0" stroke="rgb(0,0,0)" stroke-width="2.0"/>
<line x1="172.0" y1="211.4" x2="205.0" y2="192.4" opacity="1.0" stroke="rgb(0,0,0)" stroke-width="2.0"/>
<line x1="127.7" y1="313.2" x2="106.0" y2="325.7" opacity="1.0" stroke="rgb(0,0,0)" stroke-width="2.0"/>
<line x1="106.0" y1="325.7" x2="106.0" y2="363.8" opacity="1.0" stroke="rgb(0,0,0)" stroke-width="2.0"/>
<line x1="113.2" y1="331.7" x2="113.2" y2="357.8" opacity="1.0" stroke="rgb(0,0,0)" stroke-width="2.0"/>
<line x1="106.0" y1="363.8" x2="139.0" y2="382.9" opacity="1.0" stroke="rgb(0,0,0)" stroke-width="2.0"/>
<line x1="139.0" y1="382.9" x2="172.0" y2="363.8" opacity="1.0" stroke="rgb(0,0,0)" stroke-width="2.0"/>
<line x1="140.6" y1="373.6" x2="163.2" y2="360.6" opacity="1.0" stroke="rgb(0,0,0)" stroke-width="2.0"/>
<line x1="172.0" y1="363.8" x2="172.0" y2="325.7" opacity="1.0" stroke="rgb(0,0,0)" stroke-width="2.0"/>
<line x1="172.0" y1="325.7" x2="149.9" y2="313.0" opacity="1.0" stroke="rgb(0,0,0)" stroke-width="2.0"/>
<line x1="163.2" y1="328.9" x2="148.2" y2="320.3" opacity="1.0" stroke="rgb(0,0,0)" stroke-width="2.0"/>
<text x="132.974332" y="314.666667" fill="rgb(12,12,255)" stroke-width="0" font-weight="bold" font-size="16">N</text>
<text x="66.991444" y="390.857143" fill="rgb(12,12,255)" stroke-width="0" font-weight="bold" font-size="16">N</text>
<text x="66.991444" y="428.952381" fill="rgb(255,12,12)" stroke-width="0" font-weight="bold" font-size="16">O</text>
<text x="44.800000" y="359.777524" fill="rgb(255,12,12)" stroke-width="0" font-weight="bold" font-size="16"/>
<text x="44.800000" y="359.777524" fill="rgb(255,12,12)" stroke-width="0" font-weight="bold" font-size="32">.</text>
<text x="34.000000" y="371.809524" fill="rgb(255,12,12)" stroke-width="0" font-weight="bold" font-size="16">O</text>
<text x="297.931552" y="257.523810" fill="rgb(12,12,255)" stroke-width="0" font-weight="bold" font-size="16">N</text>
<text x="462.888771" y="352.761905" fill="rgb(255,12,12)" stroke-width="0" font-weight="bold" font-size="16">O</text>
<text x="464.888771" y="390.857143" fill="rgb(102,102,102)" stroke-width="0" font-weight="bold" font-size="16">CH</text>
<text x="488.888771" y="394.537143" fill="rgb(102,102,102)" stroke-width="0" font-weight="bold" font-size="13">3</text>
<text x="297.931552" y="67.047619" fill="rgb(255,12,12)" stroke-width="0" font-weight="bold" font-size="16">O</text>
<text x="332.922996" y="48.000000" fill="rgb(102,102,102)" stroke-width="0" font-weight="bold" font-size="16">CH</text>
<text x="356.922996" y="51.680000" fill="rgb(102,102,102)" stroke-width="0" font-weight="bold" font-size="13">3</text>
</svg>
</g>
</svg>