<svg xmlns="http://www.w3.org/2000/svg" xmlns:xlink="http://www.w3.org/1999/xlink" xmlns:cml="http://www.xml-cml.org/schema" version="1.1" id="topsvg" x="0" y="0" viewBox="0 0 100 100">
<title>B_6_M - Open Babel Depiction</title>
<rect x="0" y="0" width="100" height="100" fill="white"/>
<g transform="translate(0,0)">
<svg width="100" height="100" x="0" y="0" viewBox="0 0 530.333 451.429" font-family="sans-serif" stroke="rgb(0,0,0)" stroke-width="2" stroke-linecap="round">
<line x1="136.5" y1="170.0" x2="189.6" y2="200.6" opacity="1.0" stroke="rgb(0,0,0)" stroke-width="2.0"/>
<line x1="200.8" y1="220.1" x2="200.8" y2="281.4" opacity="1.0" stroke="rgb(0,0,0)" stroke-width="2.0"/>
<line x1="40.0" y1="101.3" x2="40.0" y2="90.1" opacity="1.0" stroke="rgb(0,0,0)" stroke-width="2.0"/>
<line x1="72.2" y1="132.9" x2="51.3" y2="120.8" opacity="1.0" stroke="rgb(0,0,0)" stroke-width="2.0"/>
<line x1="189.6" y1="399.4" x2="179.9" y2="404.9" opacity="1.0" stroke="rgb(0,0,0)" stroke-width="2.0"/>
<line x1="200.8" y1="355.7" x2="200.8" y2="379.9" opacity="1.0" stroke="rgb(0,0,0)" stroke-width="2.0"/>
<line x1="212.1" y1="200.6" x2="233.0" y2="188.6" opacity="1.0" stroke="rgb(0,0,0)" stroke-width="2.0"/>
<line x1="458.2" y1="58.6" x2="479.1" y2="46.5" opacity="1.0" stroke="rgb(0,0,0)" stroke-width="2.0"/>
<line x1="456.1" y1="54.9" x2="477.0" y2="42.9" opacity="1.0" stroke="rgb(0,0,0)" stroke-width="2.0"/>
<line x1="460.3" y1="62.2" x2="481.2" y2="50.1" opacity="1.0" stroke="rgb(0,0,0)" stroke-width="2.0"/>
<line x1="426.0" y1="77.1" x2="458.2" y2="58.6" opacity="1.0" stroke="rgb(0,0,0)" stroke-width="2.0"/>
<line x1="297.3" y1="151.4" x2="361.7" y2="114.3" opacity="1.0" stroke="rgb(0,0,0)" stroke-width="2.0"/>
<line x1="104.3" y1="114.3" x2="136.5" y2="132.9" opacity="1.0" stroke="rgb(0,0,0)" stroke-width="2.0"/>
<line x1="136.5" y1="132.9" x2="136.5" y2="170.0" opacity="1.0" stroke="rgb(0,0,0)" stroke-width="2.0"/>
<line x1="129.3" y1="138.9" x2="129.3" y2="164.0" opacity="1.0" stroke="rgb(0,0,0)" stroke-width="2.0"/>
<line x1="136.5" y1="170.0" x2="104.3" y2="188.6" opacity="1.0" stroke="rgb(0,0,0)" stroke-width="2.0"/>
<line x1="104.3" y1="188.6" x2="72.2" y2="170.0" opacity="1.0" stroke="rgb(0,0,0)" stroke-width="2.0"/>
<line x1="102.7" y1="179.3" x2="81.0" y2="166.8" opacity="1.0" stroke="rgb(0,0,0)" stroke-width="2.0"/>
<line x1="72.2" y1="170.0" x2="72.2" y2="132.9" opacity="1.0" stroke="rgb(0,0,0)" stroke-width="2.0"/>
<line x1="72.2" y1="132.9" x2="104.3" y2="114.3" opacity="1.0" stroke="rgb(0,0,0)" stroke-width="2.0"/>
<line x1="81.0" y1="136.1" x2="102.7" y2="123.5" opacity="1.0" stroke="rgb(0,0,0)" stroke-width="2.0"/>
<line x1="233.0" y1="300.0" x2="233.0" y2="337.1" opacity="1.0" stroke="rgb(0,0,0)" stroke-width="2.0"/>
<line x1="233.0" y1="337.1" x2="200.8" y2="355.7" opacity="1.0" stroke="rgb(0,0,0)" stroke-width="2.0"/>
<line x1="224.2" y1="333.9" x2="202.4" y2="346.5" opacity="1.0" stroke="rgb(0,0,0)" stroke-width="2.0"/>
<line x1="200.8" y1="355.7" x2="168.7" y2="337.1" opacity="1.0" stroke="rgb(0,0,0)" stroke-width="2.0"/>
<line x1="168.7" y1="337.1" x2="168.7" y2="300.0" opacity="1.0" stroke="rgb(0,0,0)" stroke-width="2.0"/>
<line x1="175.9" y1="331.1" x2="175.9" y2="306.0" opacity="1.0" stroke="rgb(0,0,0)" stroke-width="2.0"/>
<line x1="168.7" y1="300.0" x2="200.8" y2="281.4" opacity="1.0" stroke="rgb(0,0,0)" stroke-width="2.0"/>
<line x1="200.8" y1="281.4" x2="233.0" y2="300.0" opacity="1.0" stroke="rgb(0,0,0)" stroke-width="2.0"/>
<line x1="202.4" y1="290.7" x2="224.2" y2="303.2" opacity="1.0" stroke="rgb(0,0,0)" stroke-width="2.0"/>
<line x1="233.0" y1="151.4" x2="265.2" y2="132.9" opacity="1.0" stroke="rgb(0,0,0)" stroke-width="2.0"/>
<line x1="265.2" y1="132.9" x2="297.3" y2="151.4" opacity="1.0" stroke="rgb(0,0,0)" stroke-width="2.0"/>
<line x1="266.8" y1="142.1" x2="288.5" y2="154.7" opacity="1.0" stroke="rgb(0,0,0)" stroke-width="2.0"/>
<line x1="297.3" y1="151.4" x2="297.3" y2="188.6" opacity="1.0" stroke="rgb(0,0,0)" stroke-width="2.0"/>
<line x1="297.3" y1="188.6" x2="265.2" y2="207.1" opacity="1.0" stroke="rgb(0,0,0)" stroke-width="2.0"/>
<line x1="288.5" y1="185.3" x2="266.8" y2="197.9" opacity="1.0" stroke="rgb(0,0,0)" stroke-width="2.0"/>
<line x1="265.2" y1="207.1" x2="233.0" y2="188.6" opacity="1.0" stroke="rgb(0,0,0)" stroke-width="2.0"/>
<line x1="233.0" y1="188.6" x2="233.0" y2="151.4" opacity="1.0" stroke="rgb(0,0,0)" stroke-width="2.0"/>
<line x1="240.2" y1="182.6" x2="240.2" y2="157.4" opacity="1.0" stroke="rgb(0,0,0)" stroke-width="2.0"/>
<line x1="297.3" y1="262.9" x2="265.2" y2="244.3" opacity="1.0" stroke="rgb(0,0,0)" stroke-width="2.0"/>
<line x1="295.7" y1="253.6" x2="274.0" y2="241.1" opacity="1.0" stroke="rgb(0,0,0)" stroke-width="2.0"/>
<line x1="265.2" y1="244.3" x2="265.2" y2="207.1" opacity="1.0" stroke="rgb(0,0,0)" stroke-width="2.0"/>
<line x1="297.3" y1="188.6" x2="329.5" y2="207.1" opacity="1.0" stroke="rgb(0,0,0)" stroke-width="2.0"/>
<line x1="329.5" y1="207.1" x2="329.5" y2="244.3" opacity="1.0" stroke="rgb(0,0,0)" stroke-width="2.0"/>
<line x1="322.3" y1="213.1" x2="322.3" y2="238.3" opacity="1.0" stroke="rgb(0,0,0)" stroke-width="2.0"/>
<line x1="329.5" y1="244.3" x2="297.3" y2="262.9" opacity="1.0" stroke="rgb(0,0,0)" stroke-width="2.0"/>
<line x1="361.7" y1="77.1" x2="393.8" y2="58.6" opacity="1.0" stroke="rgb(0,0,0)" stroke-width="2.0"/>
<line x1="393.8" y1="58.6" x2="426.0" y2="77.1" opacity="1.0" stroke="rgb(0,0,0)" stroke-width="2.0"/>
<line x1="395.4" y1="67.8" x2="417.2" y2="80.4" opacity="1.0" stroke="rgb(0,0,0)" stroke-width="2.0"/>
<line x1="426.0" y1="77.1" x2="426.0" y2="114.3" opacity="1.0" stroke="rgb(0,0,0)" stroke-width="2.0"/>
<line x1="426.0" y1="114.3" x2="393.8" y2="132.9" opacity="1.0" stroke="rgb(0,0,0)" stroke-width="2.0"/>
<line x1="417.2" y1="111.1" x2="395.4" y2="123.6" opacity="1.0" stroke="rgb(0,0,0)" stroke-width="2.0"/>
<line x1="393.8" y1="132.9" x2="361.7" y2="114.3" opacity="1.0" stroke="rgb(0,0,0)" stroke-width="2.0"/>
<line x1="361.7" y1="114.3" x2="361.7" y2="77.1" opacity="1.0" stroke="rgb(0,0,0)" stroke-width="2.0"/>
<line x1="368.9" y1="108.3" x2="368.9" y2="83.1" opacity="1.0" stroke="rgb(0,0,0)" stroke-width="2.0"/>
<text x="484.333210" y="48.000000" fill="rgb(12,12,255)" stroke-width="0" font-weight="bold" font-size="16">N</text>
<text x="194.833289" y="215.142857" fill="rgb(12,12,255)" stroke-width="0" font-weight="bold" font-size="16">N</text>
<text x="34.000000" y="122.285714" fill="rgb(255,12,12)" stroke-width="0" font-weight="bold" font-size="16">O</text>
<text x="36.000000" y="85.142857" fill="rgb(102,102,102)" stroke-width="0" font-weight="bold" font-size="16">CH</text>
<text x="60.000000" y="88.822857" fill="rgb(102,102,102)" stroke-width="0" font-weight="bold" font-size="13">3</text>
<text x="194.833289" y="400.857143" fill="rgb(255,12,12)" stroke-width="0" font-weight="bold" font-size="16">O</text>
<text x="142.666631" y="419.428571" fill="rgb(102,102,102)" stroke-width="0" font-weight="bold" font-size="16">H</text>
<text x="154.666631" y="423.108571" fill="rgb(102,102,102)" stroke-width="0" font-weight="bold" font-size="13">3</text>
<text x="161.166631" y="419.428571" fill="rgb(102,102,102)" stroke-width="0" font-weight="bold" font-size="16">C</text>
</svg>
</g>
</svg>