<svg xmlns="http://www.w3.org/2000/svg" xmlns:xlink="http://www.w3.org/1999/xlink" xmlns:cml="http://www.xml-cml.org/schema" version="1.1" id="topsvg" x="0" y="0" viewBox="0 0 100 100">
<title>B_6_P - Open Babel Depiction</title>
<rect x="0" y="0" width="100" height="100" fill="white"/>
<g transform="translate(0,0)">
<svg width="100" height="100" x="0" y="0" viewBox="0 0 530.333 432.857" font-family="sans-serif" stroke="rgb(0,0,0)" stroke-width="2" stroke-linecap="round">
<line x1="136.5" y1="151.4" x2="189.6" y2="182.1" opacity="1.0" stroke="rgb(0,0,0)" stroke-width="2.0"/>
<line x1="200.8" y1="201.6" x2="200.8" y2="262.9" opacity="1.0" stroke="rgb(0,0,0)" stroke-width="2.0"/>
<line x1="40.0" y1="82.7" x2="40.0" y2="71.6" opacity="1.0" stroke="rgb(0,0,0)" stroke-width="2.0"/>
<line x1="72.2" y1="114.3" x2="51.3" y2="102.2" opacity="1.0" stroke="rgb(0,0,0)" stroke-width="2.0"/>
<line x1="189.6" y1="380.8" x2="179.9" y2="386.4" opacity="1.0" stroke="rgb(0,0,0)" stroke-width="2.0"/>
<line x1="200.8" y1="337.1" x2="200.8" y2="361.3" opacity="1.0" stroke="rgb(0,0,0)" stroke-width="2.0"/>
<line x1="212.1" y1="182.1" x2="233.0" y2="170.0" opacity="1.0" stroke="rgb(0,0,0)" stroke-width="2.0"/>
<line x1="469.4" y1="46.5" x2="479.1" y2="52.1" opacity="1.0" stroke="rgb(0,0,0)" stroke-width="2.0"/>
<line x1="426.0" y1="58.6" x2="446.9" y2="46.5" opacity="1.0" stroke="rgb(0,0,0)" stroke-width="2.0"/>
<line x1="297.3" y1="132.9" x2="361.7" y2="95.7" opacity="1.0" stroke="rgb(0,0,0)" stroke-width="2.0"/>
<line x1="104.3" y1="95.7" x2="136.5" y2="114.3" opacity="1.0" stroke="rgb(0,0,0)" stroke-width="2.0"/>
<line x1="136.5" y1="114.3" x2="136.5" y2="151.4" opacity="1.0" stroke="rgb(0,0,0)" stroke-width="2.0"/>
<line x1="129.3" y1="120.3" x2="129.3" y2="145.4" opacity="1.0" stroke="rgb(0,0,0)" stroke-width="2.0"/>
<line x1="136.5" y1="151.4" x2="104.3" y2="170.0" opacity="1.0" stroke="rgb(0,0,0)" stroke-width="2.0"/>
<line x1="104.3" y1="170.0" x2="72.2" y2="151.4" opacity="1.0" stroke="rgb(0,0,0)" stroke-width="2.0"/>
<line x1="102.7" y1="160.8" x2="81.0" y2="148.2" opacity="1.0" stroke="rgb(0,0,0)" stroke-width="2.0"/>
<line x1="72.2" y1="151.4" x2="72.2" y2="114.3" opacity="1.0" stroke="rgb(0,0,0)" stroke-width="2.0"/>
<line x1="72.2" y1="114.3" x2="104.3" y2="95.7" opacity="1.0" stroke="rgb(0,0,0)" stroke-width="2.0"/>
<line x1="81.0" y1="117.5" x2="102.7" y2="104.9" opacity="1.0" stroke="rgb(0,0,0)" stroke-width="2.0"/>
<line x1="233.0" y1="281.4" x2="233.0" y2="318.6" opacity="1.0" stroke="rgb(0,0,0)" stroke-width="2.0"/>
<line x1="233.0" y1="318.6" x2="200.8" y2="337.1" opacity="1.0" stroke="rgb(0,0,0)" stroke-width="2.0"/>
<line x1="224.2" y1="315.3" x2="202.4" y2="327.9" opacity="1.0" stroke="rgb(0,0,0)" stroke-width="2.0"/>
<line x1="200.8" y1="337.1" x2="168.7" y2="318.6" opacity="1.0" stroke="rgb(0,0,0)" stroke-width="2.0"/>
<line x1="168.7" y1="318.6" x2="168.7" y2="281.4" opacity="1.0" stroke="rgb(0,0,0)" stroke-width="2.0"/>
<line x1="175.9" y1="312.6" x2="175.9" y2="287.4" opacity="1.0" stroke="rgb(0,0,0)" stroke-width="2.0"/>
<line x1="168.7" y1="281.4" x2="200.8" y2="262.9" opacity="1.0" stroke="rgb(0,0,0)" stroke-width="2.0"/>
<line x1="200.8" y1="262.9" x2="233.0" y2="281.4" opacity="1.0" stroke="rgb(0,0,0)" stroke-width="2.0"/>
<line x1="202.4" y1="272.1" x2="224.2" y2="284.7" opacity="1.0" stroke="rgb(0,0,0)" stroke-width="2.0"/>
<line x1="233.0" y1="132.9" x2="265.2" y2="114.3" opacity="1.0" stroke="rgb(0,0,0)" stroke-width="2.0"/>
<line x1="265.2" y1="114.3" x2="297.3" y2="132.9" opacity="1.0" stroke="rgb(0,0,0)" stroke-width="2.0"/>
<line x1="266.8" y1="123.5" x2="288.5" y2="136.1" opacity="1.0" stroke="rgb(0,0,0)" stroke-width="2.0"/>
<line x1="297.3" y1="132.9" x2="297.3" y2="170.0" opacity="1.0" stroke="rgb(0,0,0)" stroke-width="2.0"/>
<line x1="297.3" y1="170.0" x2="265.2" y2="188.6" opacity="1.0" stroke="rgb(0,0,0)" stroke-width="2.0"/>
<line x1="288.5" y1="166.8" x2="266.8" y2="179.3" opacity="1.0" stroke="rgb(0,0,0)" stroke-width="2.0"/>
<line x1="265.2" y1="188.6" x2="233.0" y2="170.0" opacity="1.0" stroke="rgb(0,0,0)" stroke-width="2.0"/>
<line x1="233.0" y1="170.0" x2="233.0" y2="132.9" opacity="1.0" stroke="rgb(0,0,0)" stroke-width="2.0"/>
<line x1="240.2" y1="164.0" x2="240.2" y2="138.9" opacity="1.0" stroke="rgb(0,0,0)" stroke-width="2.0"/>
<line x1="297.3" y1="244.3" x2="265.2" y2="225.7" opacity="1.0" stroke="rgb(0,0,0)" stroke-width="2.0"/>
<line x1="295.7" y1="235.1" x2="274.0" y2="222.5" opacity="1.0" stroke="rgb(0,0,0)" stroke-width="2.0"/>
<line x1="265.2" y1="225.7" x2="265.2" y2="188.6" opacity="1.0" stroke="rgb(0,0,0)" stroke-width="2.0"/>
<line x1="297.3" y1="170.0" x2="329.5" y2="188.6" opacity="1.0" stroke="rgb(0,0,0)" stroke-width="2.0"/>
<line x1="329.5" y1="188.6" x2="329.5" y2="225.7" opacity="1.0" stroke="rgb(0,0,0)" stroke-width="2.0"/>
<line x1="322.3" y1="194.6" x2="322.3" y2="219.7" opacity="1.0" stroke="rgb(0,0,0)" stroke-width="2.0"/>
<line x1="329.5" y1="225.7" x2="297.3" y2="244.3" opacity="1.0" stroke="rgb(0,0,0)" stroke-width="2.0"/>
<line x1="361.7" y1="58.6" x2="393.8" y2="40.0" opacity="1.0" stroke="rgb(0,0,0)" stroke-width="2.0"/>
<line x1="393.8" y1="40.0" x2="426.0" y2="58.6" opacity="1.0" stroke="rgb(0,0,0)" stroke-width="2.0"/>
<line x1="395.4" y1="49.2" x2="417.2" y2="61.8" opacity="1.0" stroke="rgb(0,0,0)" stroke-width="2.0"/>
<line x1="426.0" y1="58.6" x2="426.0" y2="95.7" opacity="1.0" stroke="rgb(0,0,0)" stroke-width="2.0"/>
<line x1="426.0" y1="95.7" x2="393.8" y2="114.3" opacity="1.0" stroke="rgb(0,0,0)" stroke-width="2.0"/>
<line x1="417.2" y1="92.5" x2="395.4" y2="105.1" opacity="1.0" stroke="rgb(0,0,0)" stroke-width="2.0"/>
<line x1="393.8" y1="114.3" x2="361.7" y2="95.7" opacity="1.0" stroke="rgb(0,0,0)" stroke-width="2.0"/>
<line x1="361.7" y1="95.7" x2="361.7" y2="58.6" opacity="1.0" stroke="rgb(0,0,0)" stroke-width="2.0"/>
<line x1="368.9" y1="89.7" x2="368.9" y2="64.6" opacity="1.0" stroke="rgb(0,0,0)" stroke-width="2.0"/>
<text x="452.166552" y="48.000000" fill="rgb(255,12,12)" stroke-width="0" font-weight="bold" font-size="16">O</text>
<text x="486.333210" y="66.571429" fill="rgb(102,102,102)" stroke-width="0" font-weight="bold" font-size="16">CH</text>
<text x="510.333210" y="70.251429" fill="rgb(102,102,102)" stroke-width="0" font-weight="bold" font-size="13">3</text>
<text x="194.833289" y="196.571429" fill="rgb(12,12,255)" stroke-width="0" font-weight="bold" font-size="16">N</text>
<text x="34.000000" y="103.714286" fill="rgb(255,12,12)" stroke-width="0" font-weight="bold" font-size="16">O</text>
<text x="36.000000" y="66.571429" fill="rgb(102,102,102)" stroke-width="0" font-weight="bold" font-size="16">CH</text>
<text x="60.000000" y="70.251429" fill="rgb(102,102,102)" stroke-width="0" font-weight="bold" font-size="13">3</text>
<text x="194.833289" y="382.285714" fill="rgb(255,12,12)" stroke-width="0" font-weight="bold" font-size="16">O</text>
<text x="142.666631" y="400.857143" fill="rgb(102,102,102)" stroke-width="0" font-weight="bold" font-size="16">H</text>
<text x="154.666631" y="404.537143" fill="rgb(102,102,102)" stroke-width="0" font-weight="bold" font-size="13">3</text>
<text x="161.166631" y="400.857143" fill="rgb(102,102,102)" stroke-width="0" font-weight="bold" font-size="16">C</text>
</svg>
</g>
</svg>