<svg xmlns="http://www.w3.org/2000/svg" xmlns:xlink="http://www.w3.org/1999/xlink" xmlns:cml="http://www.xml-cml.org/schema" version="1.1" id="topsvg" x="0" y="0" viewBox="0 0 100 100">
<title>B_7_N - Open Babel Depiction</title>
<rect x="0" y="0" width="100" height="100" fill="white"/>
<g transform="translate(0,0)">
<svg width="100" height="100" x="0" y="0" viewBox="0 0 531.628 408.206" font-family="sans-serif" stroke="rgb(0,0,0)" stroke-width="2" stroke-linecap="round">
<line x1="295.7" y1="236.2" x2="295.7" y2="173.8" opacity="1.0" stroke="rgb(0,0,0)" stroke-width="2.0"/>
<line x1="306.9" y1="154.3" x2="361.0" y2="123.1" opacity="1.0" stroke="rgb(0,0,0)" stroke-width="2.0"/>
<line x1="284.4" y1="355.8" x2="274.3" y2="361.7" opacity="1.0" stroke="rgb(0,0,0)" stroke-width="2.0"/>
<line x1="295.7" y1="311.6" x2="295.7" y2="336.3" opacity="1.0" stroke="rgb(0,0,0)" stroke-width="2.0"/>
<line x1="470.2" y1="73.0" x2="480.4" y2="78.8" opacity="1.0" stroke="rgb(0,0,0)" stroke-width="2.0"/>
<line x1="426.3" y1="85.3" x2="447.7" y2="73.0" opacity="1.0" stroke="rgb(0,0,0)" stroke-width="2.0"/>
<line x1="197.7" y1="104.2" x2="165.0" y2="85.3" opacity="1.0" stroke="rgb(0,0,0)" stroke-width="2.0"/>
<line x1="166.5" y1="87.9" x2="133.9" y2="106.8" opacity="1.0" stroke="rgb(0,0,0)" stroke-width="2.0"/>
<line x1="163.5" y1="82.8" x2="130.9" y2="101.6" opacity="1.0" stroke="rgb(0,0,0)" stroke-width="2.0"/>
<line x1="284.4" y1="154.3" x2="263.0" y2="141.9" opacity="1.0" stroke="rgb(0,0,0)" stroke-width="2.0"/>
<line x1="132.4" y1="104.2" x2="99.7" y2="85.3" opacity="1.0" stroke="rgb(0,0,0)" stroke-width="2.0"/>
<line x1="95.7" y1="47.8" x2="71.6" y2="42.7" opacity="1.0" stroke="rgb(0,0,0)" stroke-width="2.0"/>
<line x1="52.4" y1="51.3" x2="40.0" y2="72.7" opacity="1.0" stroke="rgb(0,0,0)" stroke-width="2.0"/>
<line x1="40.0" y1="72.7" x2="65.2" y2="100.7" opacity="1.0" stroke="rgb(0,0,0)" stroke-width="2.0"/>
<line x1="49.4" y1="72.3" x2="66.6" y2="91.4" opacity="1.0" stroke="rgb(0,0,0)" stroke-width="2.0"/>
<line x1="65.2" y1="100.7" x2="99.7" y2="85.3" opacity="1.0" stroke="rgb(0,0,0)" stroke-width="2.0"/>
<line x1="99.7" y1="85.3" x2="95.7" y2="47.8" opacity="1.0" stroke="rgb(0,0,0)" stroke-width="2.0"/>
<line x1="91.9" y1="80.1" x2="89.2" y2="54.6" opacity="1.0" stroke="rgb(0,0,0)" stroke-width="2.0"/>
<line x1="263.0" y1="292.8" x2="263.0" y2="255.1" opacity="1.0" stroke="rgb(0,0,0)" stroke-width="2.0"/>
<line x1="263.0" y1="255.1" x2="295.7" y2="236.2" opacity="1.0" stroke="rgb(0,0,0)" stroke-width="2.0"/>
<line x1="271.8" y1="258.3" x2="294.1" y2="245.4" opacity="1.0" stroke="rgb(0,0,0)" stroke-width="2.0"/>
<line x1="295.7" y1="236.2" x2="328.3" y2="255.1" opacity="1.0" stroke="rgb(0,0,0)" stroke-width="2.0"/>
<line x1="328.3" y1="255.1" x2="328.3" y2="292.8" opacity="1.0" stroke="rgb(0,0,0)" stroke-width="2.0"/>
<line x1="321.1" y1="261.1" x2="321.1" y2="286.8" opacity="1.0" stroke="rgb(0,0,0)" stroke-width="2.0"/>
<line x1="328.3" y1="292.8" x2="295.7" y2="311.6" opacity="1.0" stroke="rgb(0,0,0)" stroke-width="2.0"/>
<line x1="295.7" y1="311.6" x2="263.0" y2="292.8" opacity="1.0" stroke="rgb(0,0,0)" stroke-width="2.0"/>
<line x1="294.1" y1="302.4" x2="271.8" y2="289.5" opacity="1.0" stroke="rgb(0,0,0)" stroke-width="2.0"/>
<line x1="361.0" y1="85.3" x2="393.6" y2="66.5" opacity="1.0" stroke="rgb(0,0,0)" stroke-width="2.0"/>
<line x1="393.6" y1="66.5" x2="426.3" y2="85.3" opacity="1.0" stroke="rgb(0,0,0)" stroke-width="2.0"/>
<line x1="395.2" y1="75.7" x2="417.5" y2="88.6" opacity="1.0" stroke="rgb(0,0,0)" stroke-width="2.0"/>
<line x1="426.3" y1="85.3" x2="426.3" y2="123.1" opacity="1.0" stroke="rgb(0,0,0)" stroke-width="2.0"/>
<line x1="426.3" y1="123.1" x2="393.6" y2="141.9" opacity="1.0" stroke="rgb(0,0,0)" stroke-width="2.0"/>
<line x1="417.5" y1="119.8" x2="395.2" y2="132.7" opacity="1.0" stroke="rgb(0,0,0)" stroke-width="2.0"/>
<line x1="393.6" y1="141.9" x2="361.0" y2="123.1" opacity="1.0" stroke="rgb(0,0,0)" stroke-width="2.0"/>
<line x1="361.0" y1="123.1" x2="361.0" y2="85.3" opacity="1.0" stroke="rgb(0,0,0)" stroke-width="2.0"/>
<line x1="368.2" y1="117.1" x2="368.2" y2="91.3" opacity="1.0" stroke="rgb(0,0,0)" stroke-width="2.0"/>
<line x1="230.3" y1="160.8" x2="197.7" y2="141.9" opacity="1.0" stroke="rgb(0,0,0)" stroke-width="2.0"/>
<line x1="197.7" y1="141.9" x2="197.7" y2="104.2" opacity="1.0" stroke="rgb(0,0,0)" stroke-width="2.0"/>
<line x1="204.9" y1="135.9" x2="204.9" y2="110.2" opacity="1.0" stroke="rgb(0,0,0)" stroke-width="2.0"/>
<line x1="197.7" y1="104.2" x2="230.3" y2="85.3" opacity="1.0" stroke="rgb(0,0,0)" stroke-width="2.0"/>
<line x1="230.3" y1="85.3" x2="263.0" y2="104.2" opacity="1.0" stroke="rgb(0,0,0)" stroke-width="2.0"/>
<line x1="231.9" y1="94.6" x2="254.2" y2="107.4" opacity="1.0" stroke="rgb(0,0,0)" stroke-width="2.0"/>
<line x1="263.0" y1="104.2" x2="263.0" y2="141.9" opacity="1.0" stroke="rgb(0,0,0)" stroke-width="2.0"/>
<line x1="263.0" y1="141.9" x2="230.3" y2="160.8" opacity="1.0" stroke="rgb(0,0,0)" stroke-width="2.0"/>
<line x1="254.2" y1="138.7" x2="231.9" y2="151.5" opacity="1.0" stroke="rgb(0,0,0)" stroke-width="2.0"/>
<text x="452.966322" y="74.491781" fill="rgb(255,12,12)" stroke-width="0" font-weight="bold" font-size="16">O</text>
<text x="52.857143" y="48.000000" fill="rgb(178,178,0)" stroke-width="0" font-weight="bold" font-size="16">S</text>
<text x="487.627851" y="93.348924" fill="rgb(102,102,102)" stroke-width="0" font-weight="bold" font-size="16">CH</text>
<text x="511.627851" y="97.028924" fill="rgb(102,102,102)" stroke-width="0" font-weight="bold" font-size="13">3</text>
<text x="236.997145" y="376.206067" fill="rgb(102,102,102)" stroke-width="0" font-weight="bold" font-size="16">H</text>
<text x="248.997145" y="379.886067" fill="rgb(102,102,102)" stroke-width="0" font-weight="bold" font-size="13">3</text>
<text x="255.497145" y="376.206067" fill="rgb(102,102,102)" stroke-width="0" font-weight="bold" font-size="16">C</text>
<text x="289.658674" y="357.348924" fill="rgb(255,12,12)" stroke-width="0" font-weight="bold" font-size="16">O</text>
<text x="289.658674" y="168.777495" fill="rgb(12,12,255)" stroke-width="0" font-weight="bold" font-size="16">N</text>
</svg>
</g>
</svg>