<svg xmlns="http://www.w3.org/2000/svg" x="0" y="0" viewBox="0 0 100 100">
<title>B_7_M - Open Babel Depiction</title>
<rect x="0" y="0" width="100" height="100" fill="white"/>
<g transform="translate(0,0)">
<svg width="100" height="100" x="0" y="0" viewBox="0 0 572.267 440" font-family="sans-serif" stroke="rgb(0,0,0)" stroke-width="2" stroke-linecap="round">
<line x1="138.5" y1="153.7" x2="192.8" y2="185.1" opacity="1.0" stroke="rgb(0,0,0)" stroke-width="2.0"/>
<line x1="204.1" y1="204.6" x2="204.1" y2="267.4" opacity="1.0" stroke="rgb(0,0,0)" stroke-width="2.0"/>
<line x1="40.0" y1="83.8" x2="40.0" y2="71.9" opacity="1.0" stroke="rgb(0,0,0)" stroke-width="2.0"/>
<line x1="72.8" y1="115.8" x2="51.3" y2="103.3" opacity="1.0" stroke="rgb(0,0,0)" stroke-width="2.0"/>
<line x1="192.8" y1="387.6" x2="182.5" y2="393.5" opacity="1.0" stroke="rgb(0,0,0)" stroke-width="2.0"/>
<line x1="204.1" y1="343.2" x2="204.1" y2="368.1" opacity="1.0" stroke="rgb(0,0,0)" stroke-width="2.0"/>
<line x1="302.5" y1="134.7" x2="335.4" y2="115.8" opacity="1.0" stroke="rgb(0,0,0)" stroke-width="2.0"/>
<line x1="336.9" y1="113.2" x2="369.7" y2="132.1" opacity="1.0" stroke="rgb(0,0,0)" stroke-width="2.0"/>
<line x1="333.9" y1="118.4" x2="366.7" y2="137.3" opacity="1.0" stroke="rgb(0,0,0)" stroke-width="2.0"/>
<line x1="215.3" y1="185.1" x2="236.9" y2="172.6" opacity="1.0" stroke="rgb(0,0,0)" stroke-width="2.0"/>
<line x1="499.4" y1="58.9" x2="521.0" y2="46.5" opacity="1.0" stroke="rgb(0,0,0)" stroke-width="2.0"/>
<line x1="497.3" y1="55.3" x2="518.9" y2="42.9" opacity="1.0" stroke="rgb(0,0,0)" stroke-width="2.0"/>
<line x1="501.5" y1="62.6" x2="523.1" y2="50.1" opacity="1.0" stroke="rgb(0,0,0)" stroke-width="2.0"/>
<line x1="466.6" y1="77.9" x2="499.4" y2="58.9" opacity="1.0" stroke="rgb(0,0,0)" stroke-width="2.0"/>
<line x1="368.2" y1="134.7" x2="401.0" y2="115.8" opacity="1.0" stroke="rgb(0,0,0)" stroke-width="2.0"/>
<line x1="105.6" y1="96.8" x2="138.5" y2="115.8" opacity="1.0" stroke="rgb(0,0,0)" stroke-width="2.0"/>
<line x1="138.5" y1="115.8" x2="138.5" y2="153.7" opacity="1.0" stroke="rgb(0,0,0)" stroke-width="2.0"/>
<line x1="131.3" y1="121.8" x2="131.3" y2="147.7" opacity="1.0" stroke="rgb(0,0,0)" stroke-width="2.0"/>
<line x1="138.5" y1="153.7" x2="105.6" y2="172.6" opacity="1.0" stroke="rgb(0,0,0)" stroke-width="2.0"/>
<line x1="105.6" y1="172.6" x2="72.8" y2="153.7" opacity="1.0" stroke="rgb(0,0,0)" stroke-width="2.0"/>
<line x1="104.0" y1="163.4" x2="81.6" y2="150.4" opacity="1.0" stroke="rgb(0,0,0)" stroke-width="2.0"/>
<line x1="72.8" y1="153.7" x2="72.8" y2="115.8" opacity="1.0" stroke="rgb(0,0,0)" stroke-width="2.0"/>
<line x1="72.8" y1="115.8" x2="105.6" y2="96.8" opacity="1.0" stroke="rgb(0,0,0)" stroke-width="2.0"/>
<line x1="81.6" y1="119.0" x2="104.0" y2="106.1" opacity="1.0" stroke="rgb(0,0,0)" stroke-width="2.0"/>
<line x1="236.9" y1="286.3" x2="236.9" y2="324.2" opacity="1.0" stroke="rgb(0,0,0)" stroke-width="2.0"/>
<line x1="236.9" y1="324.2" x2="204.1" y2="343.2" opacity="1.0" stroke="rgb(0,0,0)" stroke-width="2.0"/>
<line x1="228.1" y1="321.0" x2="205.7" y2="333.9" opacity="1.0" stroke="rgb(0,0,0)" stroke-width="2.0"/>
<line x1="204.1" y1="343.2" x2="171.3" y2="324.2" opacity="1.0" stroke="rgb(0,0,0)" stroke-width="2.0"/>
<line x1="171.3" y1="324.2" x2="171.3" y2="286.3" opacity="1.0" stroke="rgb(0,0,0)" stroke-width="2.0"/>
<line x1="178.5" y1="318.2" x2="178.5" y2="292.3" opacity="1.0" stroke="rgb(0,0,0)" stroke-width="2.0"/>
<line x1="171.3" y1="286.3" x2="204.1" y2="267.4" opacity="1.0" stroke="rgb(0,0,0)" stroke-width="2.0"/>
<line x1="204.1" y1="267.4" x2="236.9" y2="286.3" opacity="1.0" stroke="rgb(0,0,0)" stroke-width="2.0"/>
<line x1="205.7" y1="276.6" x2="228.1" y2="289.6" opacity="1.0" stroke="rgb(0,0,0)" stroke-width="2.0"/>
<line x1="236.9" y1="134.7" x2="269.7" y2="115.8" opacity="1.0" stroke="rgb(0,0,0)" stroke-width="2.0"/>
<line x1="269.7" y1="115.8" x2="302.5" y2="134.7" opacity="1.0" stroke="rgb(0,0,0)" stroke-width="2.0"/>
<line x1="271.3" y1="125.0" x2="293.7" y2="138.0" opacity="1.0" stroke="rgb(0,0,0)" stroke-width="2.0"/>
<line x1="302.5" y1="134.7" x2="302.5" y2="172.6" opacity="1.0" stroke="rgb(0,0,0)" stroke-width="2.0"/>
<line x1="302.5" y1="172.6" x2="269.7" y2="191.6" opacity="1.0" stroke="rgb(0,0,0)" stroke-width="2.0"/>
<line x1="293.7" y1="169.4" x2="271.3" y2="182.3" opacity="1.0" stroke="rgb(0,0,0)" stroke-width="2.0"/>
<line x1="269.7" y1="191.6" x2="236.9" y2="172.6" opacity="1.0" stroke="rgb(0,0,0)" stroke-width="2.0"/>
<line x1="236.9" y1="172.6" x2="236.9" y2="134.7" opacity="1.0" stroke="rgb(0,0,0)" stroke-width="2.0"/>
<line x1="244.1" y1="166.6" x2="244.1" y2="140.7" opacity="1.0" stroke="rgb(0,0,0)" stroke-width="2.0"/>
<line x1="401.0" y1="77.9" x2="433.8" y2="58.9" opacity="1.0" stroke="rgb(0,0,0)" stroke-width="2.0"/>
<line x1="433.8" y1="58.9" x2="466.6" y2="77.9" opacity="1.0" stroke="rgb(0,0,0)" stroke-width="2.0"/>
<line x1="435.4" y1="68.2" x2="457.8" y2="81.1" opacity="1.0" stroke="rgb(0,0,0)" stroke-width="2.0"/>
<line x1="466.6" y1="77.9" x2="466.6" y2="115.8" opacity="1.0" stroke="rgb(0,0,0)" stroke-width="2.0"/>
<line x1="466.6" y1="115.8" x2="433.8" y2="134.7" opacity="1.0" stroke="rgb(0,0,0)" stroke-width="2.0"/>
<line x1="457.8" y1="112.6" x2="435.4" y2="125.5" opacity="1.0" stroke="rgb(0,0,0)" stroke-width="2.0"/>
<line x1="433.8" y1="134.7" x2="401.0" y2="115.8" opacity="1.0" stroke="rgb(0,0,0)" stroke-width="2.0"/>
<line x1="401.0" y1="115.8" x2="401.0" y2="77.9" opacity="1.0" stroke="rgb(0,0,0)" stroke-width="2.0"/>
<line x1="408.2" y1="109.8" x2="408.2" y2="83.9" opacity="1.0" stroke="rgb(0,0,0)" stroke-width="2.0"/>
<text x="145.271219" y="408.000000" fill="rgb(102,102,102)" stroke-width="0" font-weight="bold" font-size="16">H</text>
<text x="157.271219" y="411.680000" fill="rgb(102,102,102)" stroke-width="0" font-weight="bold" font-size="13">3</text>
<text x="163.771219" y="408.000000" fill="rgb(102,102,102)" stroke-width="0" font-weight="bold" font-size="16">C</text>
<text x="526.267072" y="48.000000" fill="rgb(12,12,255)" stroke-width="0" font-weight="bold" font-size="16">N</text>
<text x="198.089024" y="389.052632" fill="rgb(255,12,12)" stroke-width="0" font-weight="bold" font-size="16">O</text>
<text x="36.000000" y="66.947368" fill="rgb(102,102,102)" stroke-width="0" font-weight="bold" font-size="16">CH</text>
<text x="60.000000" y="70.627368" fill="rgb(102,102,102)" stroke-width="0" font-weight="bold" font-size="13">3</text>
<text x="34.000000" y="104.842105" fill="rgb(255,12,12)" stroke-width="0" font-weight="bold" font-size="16">O</text>
<text x="198.089024" y="199.578947" fill="rgb(12,12,255)" stroke-width="0" font-weight="bold" font-size="16">N</text>
</svg>
</g>
</svg>
