<svg xmlns="http://www.w3.org/2000/svg" x="0" y="0" viewBox="0 0 100 100">
<title>B_8_S - Open Babel Depiction</title>
<rect x="0" y="0" width="100" height="100" fill="white"/>
<g transform="translate(0,0)">
<svg width="100" height="100" x="0" y="0" viewBox="0 0 508.366 460.488" font-family="sans-serif" stroke="rgb(0,0,0)" stroke-width="2" stroke-linecap="round">
<line x1="369.5" y1="287.3" x2="314.9" y2="255.8" opacity="1.0" stroke="rgb(0,0,0)" stroke-width="2.0"/>
<line x1="303.6" y1="236.3" x2="303.6" y2="173.2" opacity="1.0" stroke="rgb(0,0,0)" stroke-width="2.0"/>
<line x1="468.4" y1="357.4" x2="468.4" y2="369.4" opacity="1.0" stroke="rgb(0,0,0)" stroke-width="2.0"/>
<line x1="435.4" y1="325.4" x2="457.1" y2="337.9" opacity="1.0" stroke="rgb(0,0,0)" stroke-width="2.0"/>
<line x1="314.9" y1="52.5" x2="325.3" y2="46.5" opacity="1.0" stroke="rgb(0,0,0)" stroke-width="2.0"/>
<line x1="303.6" y1="97.1" x2="303.6" y2="72.0" opacity="1.0" stroke="rgb(0,0,0)" stroke-width="2.0"/>
<line x1="292.4" y1="255.8" x2="270.7" y2="268.3" opacity="1.0" stroke="rgb(0,0,0)" stroke-width="2.0"/>
<line x1="105.9" y1="363.4" x2="73.0" y2="382.4" opacity="1.0" stroke="rgb(0,0,0)" stroke-width="2.0"/>
<line x1="73.0" y1="382.4" x2="51.3" y2="369.9" opacity="1.0" stroke="rgb(0,0,0)" stroke-width="2.0"/>
<line x1="76.0" y1="382.4" x2="76.0" y2="407.5" opacity="1.0" stroke="rgb(0,0,0)" stroke-width="2.0"/>
<line x1="70.0" y1="382.4" x2="70.0" y2="407.5" opacity="1.0" stroke="rgb(0,0,0)" stroke-width="2.0"/>
<line x1="204.8" y1="306.3" x2="171.8" y2="325.4" opacity="1.0" stroke="rgb(0,0,0)" stroke-width="2.0"/>
<line x1="288.7" y1="354.7" x2="293.6" y2="343.7" opacity="1.0" stroke="rgb(0,0,0)" stroke-width="2.0"/>
<line x1="289.6" y1="323.4" x2="270.7" y2="306.3" opacity="1.0" stroke="rgb(0,0,0)" stroke-width="2.0"/>
<line x1="283.2" y1="327.3" x2="270.3" y2="315.7" opacity="1.0" stroke="rgb(0,0,0)" stroke-width="2.0"/>
<line x1="270.7" y1="306.3" x2="237.7" y2="325.4" opacity="1.0" stroke="rgb(0,0,0)" stroke-width="2.0"/>
<line x1="237.7" y1="325.4" x2="243.0" y2="350.3" opacity="1.0" stroke="rgb(0,0,0)" stroke-width="2.0"/>
<line x1="246.0" y1="329.7" x2="249.6" y2="346.7" opacity="1.0" stroke="rgb(0,0,0)" stroke-width="2.0"/>
<line x1="258.5" y1="363.9" x2="270.5" y2="365.2" opacity="1.0" stroke="rgb(0,0,0)" stroke-width="2.0"/>
<line x1="402.5" y1="344.4" x2="369.5" y2="325.4" opacity="1.0" stroke="rgb(0,0,0)" stroke-width="2.0"/>
<line x1="369.5" y1="325.4" x2="369.5" y2="287.3" opacity="1.0" stroke="rgb(0,0,0)" stroke-width="2.0"/>
<line x1="376.7" y1="319.4" x2="376.7" y2="293.3" opacity="1.0" stroke="rgb(0,0,0)" stroke-width="2.0"/>
<line x1="369.5" y1="287.3" x2="402.5" y2="268.3" opacity="1.0" stroke="rgb(0,0,0)" stroke-width="2.0"/>
<line x1="402.5" y1="268.3" x2="435.4" y2="287.3" opacity="1.0" stroke="rgb(0,0,0)" stroke-width="2.0"/>
<line x1="404.1" y1="277.5" x2="426.6" y2="290.6" opacity="1.0" stroke="rgb(0,0,0)" stroke-width="2.0"/>
<line x1="435.4" y1="287.3" x2="435.4" y2="325.4" opacity="1.0" stroke="rgb(0,0,0)" stroke-width="2.0"/>
<line x1="435.4" y1="325.4" x2="402.5" y2="344.4" opacity="1.0" stroke="rgb(0,0,0)" stroke-width="2.0"/>
<line x1="426.6" y1="322.1" x2="404.1" y2="335.2" opacity="1.0" stroke="rgb(0,0,0)" stroke-width="2.0"/>
<line x1="270.7" y1="154.1" x2="270.7" y2="116.1" opacity="1.0" stroke="rgb(0,0,0)" stroke-width="2.0"/>
<line x1="270.7" y1="116.1" x2="303.6" y2="97.1" opacity="1.0" stroke="rgb(0,0,0)" stroke-width="2.0"/>
<line x1="279.5" y1="119.3" x2="302.0" y2="106.3" opacity="1.0" stroke="rgb(0,0,0)" stroke-width="2.0"/>
<line x1="303.6" y1="97.1" x2="336.6" y2="116.1" opacity="1.0" stroke="rgb(0,0,0)" stroke-width="2.0"/>
<line x1="336.6" y1="116.1" x2="336.6" y2="154.1" opacity="1.0" stroke="rgb(0,0,0)" stroke-width="2.0"/>
<line x1="329.4" y1="122.1" x2="329.4" y2="148.1" opacity="1.0" stroke="rgb(0,0,0)" stroke-width="2.0"/>
<line x1="336.6" y1="154.1" x2="303.6" y2="173.2" opacity="1.0" stroke="rgb(0,0,0)" stroke-width="2.0"/>
<line x1="303.6" y1="173.2" x2="270.7" y2="154.1" opacity="1.0" stroke="rgb(0,0,0)" stroke-width="2.0"/>
<line x1="302.0" y1="163.9" x2="279.5" y2="150.9" opacity="1.0" stroke="rgb(0,0,0)" stroke-width="2.0"/>
<line x1="237.7" y1="249.3" x2="204.8" y2="268.3" opacity="1.0" stroke="rgb(0,0,0)" stroke-width="2.0"/>
<line x1="204.8" y1="268.3" x2="204.8" y2="306.3" opacity="1.0" stroke="rgb(0,0,0)" stroke-width="2.0"/>
<line x1="212.0" y1="274.3" x2="212.0" y2="300.3" opacity="1.0" stroke="rgb(0,0,0)" stroke-width="2.0"/>
<line x1="204.8" y1="306.3" x2="237.7" y2="325.4" opacity="1.0" stroke="rgb(0,0,0)" stroke-width="2.0"/>
<line x1="270.7" y1="306.3" x2="270.7" y2="268.3" opacity="1.0" stroke="rgb(0,0,0)" stroke-width="2.0"/>
<line x1="270.7" y1="268.3" x2="237.7" y2="249.3" opacity="1.0" stroke="rgb(0,0,0)" stroke-width="2.0"/>
<line x1="261.9" y1="271.5" x2="239.3" y2="258.5" opacity="1.0" stroke="rgb(0,0,0)" stroke-width="2.0"/>
<line x1="171.8" y1="363.4" x2="138.9" y2="382.4" opacity="1.0" stroke="rgb(0,0,0)" stroke-width="2.0"/>
<line x1="138.9" y1="382.4" x2="105.9" y2="363.4" opacity="1.0" stroke="rgb(0,0,0)" stroke-width="2.0"/>
<line x1="137.3" y1="373.2" x2="114.7" y2="360.2" opacity="1.0" stroke="rgb(0,0,0)" stroke-width="2.0"/>
<line x1="105.9" y1="363.4" x2="105.9" y2="325.4" opacity="1.0" stroke="rgb(0,0,0)" stroke-width="2.0"/>
<line x1="105.9" y1="325.4" x2="138.9" y2="306.3" opacity="1.0" stroke="rgb(0,0,0)" stroke-width="2.0"/>
<line x1="114.7" y1="328.6" x2="137.3" y2="315.6" opacity="1.0" stroke="rgb(0,0,0)" stroke-width="2.0"/>
<line x1="138.9" y1="306.3" x2="171.8" y2="325.4" opacity="1.0" stroke="rgb(0,0,0)" stroke-width="2.0"/>
<line x1="171.8" y1="325.4" x2="171.8" y2="363.4" opacity="1.0" stroke="rgb(0,0,0)" stroke-width="2.0"/>
<line x1="164.6" y1="331.4" x2="164.6" y2="357.4" opacity="1.0" stroke="rgb(0,0,0)" stroke-width="2.0"/>
<text x="239.618049" y="370.583177" fill="rgb(12,12,255)" stroke-width="0" font-weight="bold" font-size="16">N</text>
<text x="277.458394" y="374.560358" fill="rgb(178,178,0)" stroke-width="0" font-weight="bold" font-size="16">S</text>
<text x="292.934228" y="339.801067" fill="rgb(12,12,255)" stroke-width="0" font-weight="bold" font-size="16">N</text>
<text x="14.000000" y="371.414634" fill="rgb(102,102,102)" stroke-width="0" font-weight="bold" font-size="16">H</text>
<text x="26.000000" y="375.094634" fill="rgb(102,102,102)" stroke-width="0" font-weight="bold" font-size="13">3</text>
<text x="32.500000" y="371.414634" fill="rgb(102,102,102)" stroke-width="0" font-weight="bold" font-size="16">C</text>
<text x="66.951210" y="428.487805" fill="rgb(255,12,12)" stroke-width="0" font-weight="bold" font-size="16">O</text>
<text x="297.609684" y="257.268293" fill="rgb(12,12,255)" stroke-width="0" font-weight="bold" font-size="16">N</text>
<text x="462.365736" y="352.390244" fill="rgb(255,12,12)" stroke-width="0" font-weight="bold" font-size="16">O</text>
<text x="464.365736" y="390.439024" fill="rgb(102,102,102)" stroke-width="0" font-weight="bold" font-size="16">CH</text>
<text x="488.365736" y="394.119024" fill="rgb(102,102,102)" stroke-width="0" font-weight="bold" font-size="13">3</text>
<text x="297.609684" y="67.024390" fill="rgb(255,12,12)" stroke-width="0" font-weight="bold" font-size="16">O</text>
<text x="332.560894" y="48.000000" fill="rgb(102,102,102)" stroke-width="0" font-weight="bold" font-size="16">CH</text>
<text x="356.560894" y="51.680000" fill="rgb(102,102,102)" stroke-width="0" font-weight="bold" font-size="13">3</text>
</svg>
</g>
</svg>
