<svg xmlns="http://www.w3.org/2000/svg" xmlns:xlink="http://www.w3.org/1999/xlink" xmlns:cml="http://www.xml-cml.org/schema" version="1.1" id="topsvg" x="0" y="0" viewBox="0 0 100 100">
<title>B_8_N - Open Babel Depiction</title>
<rect x="0" y="0" width="100" height="100" fill="white"/>
<g transform="translate(0,0)">
<svg width="100" height="100" x="0" y="0" viewBox="0 0 434.802 420.541" font-family="sans-serif" stroke="rgb(0,0,0)" stroke-width="2" stroke-linecap="round">
<line x1="296.5" y1="285.9" x2="242.2" y2="254.6" opacity="1.0" stroke="rgb(0,0,0)" stroke-width="2.0"/>
<line x1="231.0" y1="235.1" x2="231.0" y2="172.4" opacity="1.0" stroke="rgb(0,0,0)" stroke-width="2.0"/>
<line x1="394.8" y1="355.7" x2="394.8" y2="367.5" opacity="1.0" stroke="rgb(0,0,0)" stroke-width="2.0"/>
<line x1="362.0" y1="323.8" x2="383.5" y2="336.2" opacity="1.0" stroke="rgb(0,0,0)" stroke-width="2.0"/>
<line x1="242.2" y1="52.4" x2="252.5" y2="46.5" opacity="1.0" stroke="rgb(0,0,0)" stroke-width="2.0"/>
<line x1="231.0" y1="96.8" x2="231.0" y2="71.9" opacity="1.0" stroke="rgb(0,0,0)" stroke-width="2.0"/>
<line x1="219.7" y1="254.6" x2="198.2" y2="267.0" opacity="1.0" stroke="rgb(0,0,0)" stroke-width="2.0"/>
<line x1="132.7" y1="304.9" x2="99.9" y2="323.8" opacity="1.0" stroke="rgb(0,0,0)" stroke-width="2.0"/>
<line x1="216.2" y1="352.9" x2="221.0" y2="342.1" opacity="1.0" stroke="rgb(0,0,0)" stroke-width="2.0"/>
<line x1="217.0" y1="321.8" x2="198.2" y2="304.9" opacity="1.0" stroke="rgb(0,0,0)" stroke-width="2.0"/>
<line x1="210.6" y1="325.7" x2="197.8" y2="314.2" opacity="1.0" stroke="rgb(0,0,0)" stroke-width="2.0"/>
<line x1="198.2" y1="304.9" x2="165.4" y2="323.8" opacity="1.0" stroke="rgb(0,0,0)" stroke-width="2.0"/>
<line x1="165.4" y1="323.8" x2="170.7" y2="348.6" opacity="1.0" stroke="rgb(0,0,0)" stroke-width="2.0"/>
<line x1="173.7" y1="328.2" x2="177.3" y2="344.9" opacity="1.0" stroke="rgb(0,0,0)" stroke-width="2.0"/>
<line x1="186.2" y1="362.2" x2="198.0" y2="363.4" opacity="1.0" stroke="rgb(0,0,0)" stroke-width="2.0"/>
<line x1="95.9" y1="361.4" x2="71.6" y2="366.6" opacity="1.0" stroke="rgb(0,0,0)" stroke-width="2.0"/>
<line x1="52.4" y1="358.0" x2="40.0" y2="336.5" opacity="1.0" stroke="rgb(0,0,0)" stroke-width="2.0"/>
<line x1="40.0" y1="336.5" x2="65.3" y2="308.4" opacity="1.0" stroke="rgb(0,0,0)" stroke-width="2.0"/>
<line x1="49.4" y1="336.9" x2="66.7" y2="317.7" opacity="1.0" stroke="rgb(0,0,0)" stroke-width="2.0"/>
<line x1="65.3" y1="308.4" x2="99.9" y2="323.8" opacity="1.0" stroke="rgb(0,0,0)" stroke-width="2.0"/>
<line x1="99.9" y1="323.8" x2="95.9" y2="361.4" opacity="1.0" stroke="rgb(0,0,0)" stroke-width="2.0"/>
<line x1="92.1" y1="329.0" x2="89.4" y2="354.7" opacity="1.0" stroke="rgb(0,0,0)" stroke-width="2.0"/>
<line x1="329.3" y1="342.7" x2="296.5" y2="323.8" opacity="1.0" stroke="rgb(0,0,0)" stroke-width="2.0"/>
<line x1="296.5" y1="323.8" x2="296.5" y2="285.9" opacity="1.0" stroke="rgb(0,0,0)" stroke-width="2.0"/>
<line x1="303.7" y1="317.8" x2="303.7" y2="291.9" opacity="1.0" stroke="rgb(0,0,0)" stroke-width="2.0"/>
<line x1="296.5" y1="285.9" x2="329.3" y2="267.0" opacity="1.0" stroke="rgb(0,0,0)" stroke-width="2.0"/>
<line x1="329.3" y1="267.0" x2="362.0" y2="285.9" opacity="1.0" stroke="rgb(0,0,0)" stroke-width="2.0"/>
<line x1="330.9" y1="276.3" x2="353.2" y2="289.2" opacity="1.0" stroke="rgb(0,0,0)" stroke-width="2.0"/>
<line x1="362.0" y1="285.9" x2="362.0" y2="323.8" opacity="1.0" stroke="rgb(0,0,0)" stroke-width="2.0"/>
<line x1="362.0" y1="323.8" x2="329.3" y2="342.7" opacity="1.0" stroke="rgb(0,0,0)" stroke-width="2.0"/>
<line x1="353.2" y1="320.5" x2="330.9" y2="333.5" opacity="1.0" stroke="rgb(0,0,0)" stroke-width="2.0"/>
<line x1="198.2" y1="153.5" x2="198.2" y2="115.7" opacity="1.0" stroke="rgb(0,0,0)" stroke-width="2.0"/>
<line x1="198.2" y1="115.7" x2="231.0" y2="96.8" opacity="1.0" stroke="rgb(0,0,0)" stroke-width="2.0"/>
<line x1="207.0" y1="118.9" x2="229.4" y2="106.0" opacity="1.0" stroke="rgb(0,0,0)" stroke-width="2.0"/>
<line x1="231.0" y1="96.8" x2="263.7" y2="115.7" opacity="1.0" stroke="rgb(0,0,0)" stroke-width="2.0"/>
<line x1="263.7" y1="115.7" x2="263.7" y2="153.5" opacity="1.0" stroke="rgb(0,0,0)" stroke-width="2.0"/>
<line x1="256.5" y1="121.7" x2="256.5" y2="147.5" opacity="1.0" stroke="rgb(0,0,0)" stroke-width="2.0"/>
<line x1="263.7" y1="153.5" x2="231.0" y2="172.4" opacity="1.0" stroke="rgb(0,0,0)" stroke-width="2.0"/>
<line x1="231.0" y1="172.4" x2="198.2" y2="153.5" opacity="1.0" stroke="rgb(0,0,0)" stroke-width="2.0"/>
<line x1="229.4" y1="163.2" x2="207.0" y2="150.3" opacity="1.0" stroke="rgb(0,0,0)" stroke-width="2.0"/>
<line x1="165.4" y1="248.1" x2="132.7" y2="267.0" opacity="1.0" stroke="rgb(0,0,0)" stroke-width="2.0"/>
<line x1="132.7" y1="267.0" x2="132.7" y2="304.9" opacity="1.0" stroke="rgb(0,0,0)" stroke-width="2.0"/>
<line x1="139.9" y1="273.0" x2="139.9" y2="298.9" opacity="1.0" stroke="rgb(0,0,0)" stroke-width="2.0"/>
<line x1="132.7" y1="304.9" x2="165.4" y2="323.8" opacity="1.0" stroke="rgb(0,0,0)" stroke-width="2.0"/>
<line x1="198.2" y1="304.9" x2="198.2" y2="267.0" opacity="1.0" stroke="rgb(0,0,0)" stroke-width="2.0"/>
<line x1="198.2" y1="267.0" x2="165.4" y2="248.1" opacity="1.0" stroke="rgb(0,0,0)" stroke-width="2.0"/>
<line x1="189.4" y1="270.3" x2="167.0" y2="257.3" opacity="1.0" stroke="rgb(0,0,0)" stroke-width="2.0"/>
<text x="224.959155" y="66.918919" fill="rgb(255,12,12)" stroke-width="0" font-weight="bold" font-size="16">O</text>
<text x="52.918919" y="377.281271" fill="rgb(178,178,0)" stroke-width="0" font-weight="bold" font-size="16">S</text>
<text x="220.309620" y="338.183320" fill="rgb(12,12,255)" stroke-width="0" font-weight="bold" font-size="16">N</text>
<text x="204.919585" y="372.749905" fill="rgb(178,178,0)" stroke-width="0" font-weight="bold" font-size="16">S</text>
<text x="167.289027" y="368.794774" fill="rgb(12,12,255)" stroke-width="0" font-weight="bold" font-size="16">N</text>
<text x="259.727684" y="48.000000" fill="rgb(102,102,102)" stroke-width="0" font-weight="bold" font-size="16">CH</text>
<text x="283.727684" y="51.680000" fill="rgb(102,102,102)" stroke-width="0" font-weight="bold" font-size="13">3</text>
<text x="390.801799" y="388.540541" fill="rgb(102,102,102)" stroke-width="0" font-weight="bold" font-size="16">CH</text>
<text x="414.801799" y="392.220541" fill="rgb(102,102,102)" stroke-width="0" font-weight="bold" font-size="13">3</text>
<text x="388.801799" y="350.702703" fill="rgb(255,12,12)" stroke-width="0" font-weight="bold" font-size="16">O</text>
<text x="224.959155" y="256.108108" fill="rgb(12,12,255)" stroke-width="0" font-weight="bold" font-size="16">N</text>
</svg>
</g>
</svg>