<svg xmlns="http://www.w3.org/2000/svg" x="0" y="0" viewBox="0 0 100 100">
<title>B_8_M - Open Babel Depiction</title>
<rect x="0" y="0" width="100" height="100" fill="white"/>
<g transform="translate(0,0)">
<svg width="100" height="100" x="0" y="0" viewBox="0 0 507.817 441" font-family="sans-serif" stroke="rgb(0,0,0)" stroke-width="2" stroke-linecap="round">
<line x1="369.1" y1="287.0" x2="314.5" y2="255.5" opacity="1.0" stroke="rgb(0,0,0)" stroke-width="2.0"/>
<line x1="303.3" y1="236.0" x2="303.3" y2="173.0" opacity="1.0" stroke="rgb(0,0,0)" stroke-width="2.0"/>
<line x1="467.8" y1="357.0" x2="467.8" y2="369.0" opacity="1.0" stroke="rgb(0,0,0)" stroke-width="2.0"/>
<line x1="434.9" y1="325.0" x2="456.6" y2="337.5" opacity="1.0" stroke="rgb(0,0,0)" stroke-width="2.0"/>
<line x1="314.5" y1="52.5" x2="324.9" y2="46.5" opacity="1.0" stroke="rgb(0,0,0)" stroke-width="2.0"/>
<line x1="303.3" y1="97.0" x2="303.3" y2="72.0" opacity="1.0" stroke="rgb(0,0,0)" stroke-width="2.0"/>
<line x1="292.0" y1="255.5" x2="270.4" y2="268.0" opacity="1.0" stroke="rgb(0,0,0)" stroke-width="2.0"/>
<line x1="72.9" y1="382.0" x2="51.3" y2="394.5" opacity="1.0" stroke="rgb(0,0,0)" stroke-width="2.0"/>
<line x1="75.0" y1="385.6" x2="53.4" y2="398.1" opacity="1.0" stroke="rgb(0,0,0)" stroke-width="2.0"/>
<line x1="70.8" y1="378.4" x2="49.2" y2="390.9" opacity="1.0" stroke="rgb(0,0,0)" stroke-width="2.0"/>
<line x1="105.8" y1="363.0" x2="72.9" y2="382.0" opacity="1.0" stroke="rgb(0,0,0)" stroke-width="2.0"/>
<line x1="204.5" y1="306.0" x2="171.6" y2="325.0" opacity="1.0" stroke="rgb(0,0,0)" stroke-width="2.0"/>
<line x1="288.4" y1="354.3" x2="293.3" y2="343.3" opacity="1.0" stroke="rgb(0,0,0)" stroke-width="2.0"/>
<line x1="289.3" y1="323.0" x2="270.4" y2="306.0" opacity="1.0" stroke="rgb(0,0,0)" stroke-width="2.0"/>
<line x1="282.8" y1="326.9" x2="270.0" y2="315.4" opacity="1.0" stroke="rgb(0,0,0)" stroke-width="2.0"/>
<line x1="270.4" y1="306.0" x2="237.5" y2="325.0" opacity="1.0" stroke="rgb(0,0,0)" stroke-width="2.0"/>
<line x1="237.5" y1="325.0" x2="242.7" y2="349.9" opacity="1.0" stroke="rgb(0,0,0)" stroke-width="2.0"/>
<line x1="245.7" y1="329.4" x2="249.3" y2="346.3" opacity="1.0" stroke="rgb(0,0,0)" stroke-width="2.0"/>
<line x1="258.3" y1="363.5" x2="270.2" y2="364.8" opacity="1.0" stroke="rgb(0,0,0)" stroke-width="2.0"/>
<line x1="402.0" y1="344.0" x2="369.1" y2="325.0" opacity="1.0" stroke="rgb(0,0,0)" stroke-width="2.0"/>
<line x1="369.1" y1="325.0" x2="369.1" y2="287.0" opacity="1.0" stroke="rgb(0,0,0)" stroke-width="2.0"/>
<line x1="376.3" y1="319.0" x2="376.3" y2="293.0" opacity="1.0" stroke="rgb(0,0,0)" stroke-width="2.0"/>
<line x1="369.1" y1="287.0" x2="402.0" y2="268.0" opacity="1.0" stroke="rgb(0,0,0)" stroke-width="2.0"/>
<line x1="402.0" y1="268.0" x2="434.9" y2="287.0" opacity="1.0" stroke="rgb(0,0,0)" stroke-width="2.0"/>
<line x1="403.6" y1="277.2" x2="426.1" y2="290.2" opacity="1.0" stroke="rgb(0,0,0)" stroke-width="2.0"/>
<line x1="434.9" y1="287.0" x2="434.9" y2="325.0" opacity="1.0" stroke="rgb(0,0,0)" stroke-width="2.0"/>
<line x1="434.9" y1="325.0" x2="402.0" y2="344.0" opacity="1.0" stroke="rgb(0,0,0)" stroke-width="2.0"/>
<line x1="426.1" y1="321.8" x2="403.6" y2="334.8" opacity="1.0" stroke="rgb(0,0,0)" stroke-width="2.0"/>
<line x1="270.4" y1="154.0" x2="270.4" y2="116.0" opacity="1.0" stroke="rgb(0,0,0)" stroke-width="2.0"/>
<line x1="270.4" y1="116.0" x2="303.3" y2="97.0" opacity="1.0" stroke="rgb(0,0,0)" stroke-width="2.0"/>
<line x1="279.2" y1="119.2" x2="301.7" y2="106.2" opacity="1.0" stroke="rgb(0,0,0)" stroke-width="2.0"/>
<line x1="303.3" y1="97.0" x2="336.2" y2="116.0" opacity="1.0" stroke="rgb(0,0,0)" stroke-width="2.0"/>
<line x1="336.2" y1="116.0" x2="336.2" y2="154.0" opacity="1.0" stroke="rgb(0,0,0)" stroke-width="2.0"/>
<line x1="329.0" y1="122.0" x2="329.0" y2="148.0" opacity="1.0" stroke="rgb(0,0,0)" stroke-width="2.0"/>
<line x1="336.2" y1="154.0" x2="303.3" y2="173.0" opacity="1.0" stroke="rgb(0,0,0)" stroke-width="2.0"/>
<line x1="303.3" y1="173.0" x2="270.4" y2="154.0" opacity="1.0" stroke="rgb(0,0,0)" stroke-width="2.0"/>
<line x1="301.7" y1="163.8" x2="279.2" y2="150.8" opacity="1.0" stroke="rgb(0,0,0)" stroke-width="2.0"/>
<line x1="237.5" y1="249.0" x2="204.5" y2="268.0" opacity="1.0" stroke="rgb(0,0,0)" stroke-width="2.0"/>
<line x1="204.5" y1="268.0" x2="204.5" y2="306.0" opacity="1.0" stroke="rgb(0,0,0)" stroke-width="2.0"/>
<line x1="211.7" y1="274.0" x2="211.7" y2="300.0" opacity="1.0" stroke="rgb(0,0,0)" stroke-width="2.0"/>
<line x1="204.5" y1="306.0" x2="237.5" y2="325.0" opacity="1.0" stroke="rgb(0,0,0)" stroke-width="2.0"/>
<line x1="270.4" y1="306.0" x2="270.4" y2="268.0" opacity="1.0" stroke="rgb(0,0,0)" stroke-width="2.0"/>
<line x1="270.4" y1="268.0" x2="237.5" y2="249.0" opacity="1.0" stroke="rgb(0,0,0)" stroke-width="2.0"/>
<line x1="261.6" y1="271.2" x2="239.0" y2="258.2" opacity="1.0" stroke="rgb(0,0,0)" stroke-width="2.0"/>
<line x1="171.6" y1="363.0" x2="138.7" y2="382.0" opacity="1.0" stroke="rgb(0,0,0)" stroke-width="2.0"/>
<line x1="138.7" y1="382.0" x2="105.8" y2="363.0" opacity="1.0" stroke="rgb(0,0,0)" stroke-width="2.0"/>
<line x1="137.1" y1="372.8" x2="114.6" y2="359.8" opacity="1.0" stroke="rgb(0,0,0)" stroke-width="2.0"/>
<line x1="105.8" y1="363.0" x2="105.8" y2="325.0" opacity="1.0" stroke="rgb(0,0,0)" stroke-width="2.0"/>
<line x1="105.8" y1="325.0" x2="138.7" y2="306.0" opacity="1.0" stroke="rgb(0,0,0)" stroke-width="2.0"/>
<line x1="114.6" y1="328.2" x2="137.1" y2="315.2" opacity="1.0" stroke="rgb(0,0,0)" stroke-width="2.0"/>
<line x1="138.7" y1="306.0" x2="171.6" y2="325.0" opacity="1.0" stroke="rgb(0,0,0)" stroke-width="2.0"/>
<line x1="171.6" y1="325.0" x2="171.6" y2="363.0" opacity="1.0" stroke="rgb(0,0,0)" stroke-width="2.0"/>
<line x1="164.4" y1="331.0" x2="164.4" y2="357.0" opacity="1.0" stroke="rgb(0,0,0)" stroke-width="2.0"/>
<text x="239.354436" y="370.169609" fill="rgb(12,12,255)" stroke-width="0" font-weight="bold" font-size="16">N</text>
<text x="277.146268" y="374.141690" fill="rgb(178,178,0)" stroke-width="0" font-weight="bold" font-size="16">S</text>
<text x="292.602261" y="339.426963" fill="rgb(12,12,255)" stroke-width="0" font-weight="bold" font-size="16">N</text>
<text x="34.000000" y="409.000000" fill="rgb(12,12,255)" stroke-width="0" font-weight="bold" font-size="16">N</text>
<text x="297.271723" y="257.000000" fill="rgb(12,12,255)" stroke-width="0" font-weight="bold" font-size="16">N</text>
<text x="461.816549" y="352.000000" fill="rgb(255,12,12)" stroke-width="0" font-weight="bold" font-size="16">O</text>
<text x="463.816549" y="390.000000" fill="rgb(102,102,102)" stroke-width="0" font-weight="bold" font-size="16">CH</text>
<text x="487.816549" y="393.680000" fill="rgb(102,102,102)" stroke-width="0" font-weight="bold" font-size="13">3</text>
<text x="297.271723" y="67.000000" fill="rgb(255,12,12)" stroke-width="0" font-weight="bold" font-size="16">O</text>
<text x="332.180688" y="48.000000" fill="rgb(102,102,102)" stroke-width="0" font-weight="bold" font-size="16">CH</text>
<text x="356.180688" y="51.680000" fill="rgb(102,102,102)" stroke-width="0" font-weight="bold" font-size="13">3</text>
</svg>
</g>
</svg>
