<svg xmlns="http://www.w3.org/2000/svg" x="0" y="0" viewBox="0 0 100 100">
<title>B_8_L - Open Babel Depiction</title>
<rect x="0" y="0" width="100" height="100" fill="white"/>
<g transform="translate(0,0)">
<svg width="100" height="100" x="0" y="0" viewBox="0 0 501.528 422.857" font-family="sans-serif" stroke="rgb(0,0,0)" stroke-width="2" stroke-linecap="round">
<line x1="139.0" y1="135.2" x2="193.7" y2="166.8" opacity="1.0" stroke="rgb(0,0,0)" stroke-width="2.0"/>
<line x1="205.0" y1="186.3" x2="205.0" y2="249.5" opacity="1.0" stroke="rgb(0,0,0)" stroke-width="2.0"/>
<line x1="40.0" y1="65.1" x2="40.0" y2="53.0" opacity="1.0" stroke="rgb(0,0,0)" stroke-width="2.0"/>
<line x1="73.0" y1="97.1" x2="51.3" y2="84.6" opacity="1.0" stroke="rgb(0,0,0)" stroke-width="2.0"/>
<line x1="193.7" y1="370.3" x2="183.2" y2="376.4" opacity="1.0" stroke="rgb(0,0,0)" stroke-width="2.0"/>
<line x1="205.0" y1="325.7" x2="205.0" y2="350.8" opacity="1.0" stroke="rgb(0,0,0)" stroke-width="2.0"/>
<line x1="216.2" y1="166.8" x2="237.9" y2="154.3" opacity="1.0" stroke="rgb(0,0,0)" stroke-width="2.0"/>
<line x1="303.9" y1="116.2" x2="336.9" y2="97.1" opacity="1.0" stroke="rgb(0,0,0)" stroke-width="2.0"/>
<line x1="219.8" y1="67.8" x2="214.9" y2="78.8" opacity="1.0" stroke="rgb(0,0,0)" stroke-width="2.0"/>
<line x1="219.0" y1="99.1" x2="237.9" y2="116.2" opacity="1.0" stroke="rgb(0,0,0)" stroke-width="2.0"/>
<line x1="225.4" y1="95.2" x2="238.3" y2="106.8" opacity="1.0" stroke="rgb(0,0,0)" stroke-width="2.0"/>
<line x1="237.9" y1="116.2" x2="270.9" y2="97.1" opacity="1.0" stroke="rgb(0,0,0)" stroke-width="2.0"/>
<line x1="270.9" y1="97.1" x2="265.6" y2="72.2" opacity="1.0" stroke="rgb(0,0,0)" stroke-width="2.0"/>
<line x1="262.6" y1="92.8" x2="259.0" y2="75.8" opacity="1.0" stroke="rgb(0,0,0)" stroke-width="2.0"/>
<line x1="250.1" y1="58.5" x2="238.1" y2="57.3" opacity="1.0" stroke="rgb(0,0,0)" stroke-width="2.0"/>
<line x1="461.5" y1="78.1" x2="439.1" y2="108.9" opacity="1.0" stroke="rgb(0,0,0)" stroke-width="2.0"/>
<line x1="452.2" y1="78.7" x2="436.8" y2="99.8" opacity="1.0" stroke="rgb(0,0,0)" stroke-width="2.0"/>
<line x1="439.1" y1="108.9" x2="402.9" y2="97.1" opacity="1.0" stroke="rgb(0,0,0)" stroke-width="2.0"/>
<line x1="402.9" y1="97.1" x2="402.9" y2="59.0" opacity="1.0" stroke="rgb(0,0,0)" stroke-width="2.0"/>
<line x1="402.9" y1="59.0" x2="426.8" y2="51.3" opacity="1.0" stroke="rgb(0,0,0)" stroke-width="2.0"/>
<line x1="446.8" y1="57.8" x2="461.5" y2="78.1" opacity="1.0" stroke="rgb(0,0,0)" stroke-width="2.0"/>
<line x1="106.0" y1="78.1" x2="139.0" y2="97.1" opacity="1.0" stroke="rgb(0,0,0)" stroke-width="2.0"/>
<line x1="139.0" y1="97.1" x2="139.0" y2="135.2" opacity="1.0" stroke="rgb(0,0,0)" stroke-width="2.0"/>
<line x1="131.8" y1="103.1" x2="131.8" y2="129.2" opacity="1.0" stroke="rgb(0,0,0)" stroke-width="2.0"/>
<line x1="139.0" y1="135.2" x2="106.0" y2="154.3" opacity="1.0" stroke="rgb(0,0,0)" stroke-width="2.0"/>
<line x1="106.0" y1="154.3" x2="73.0" y2="135.2" opacity="1.0" stroke="rgb(0,0,0)" stroke-width="2.0"/>
<line x1="104.4" y1="145.1" x2="81.8" y2="132.0" opacity="1.0" stroke="rgb(0,0,0)" stroke-width="2.0"/>
<line x1="73.0" y1="135.2" x2="73.0" y2="97.1" opacity="1.0" stroke="rgb(0,0,0)" stroke-width="2.0"/>
<line x1="73.0" y1="97.1" x2="106.0" y2="78.1" opacity="1.0" stroke="rgb(0,0,0)" stroke-width="2.0"/>
<line x1="81.8" y1="100.4" x2="104.4" y2="87.3" opacity="1.0" stroke="rgb(0,0,0)" stroke-width="2.0"/>
<line x1="237.9" y1="268.6" x2="237.9" y2="306.7" opacity="1.0" stroke="rgb(0,0,0)" stroke-width="2.0"/>
<line x1="237.9" y1="306.7" x2="205.0" y2="325.7" opacity="1.0" stroke="rgb(0,0,0)" stroke-width="2.0"/>
<line x1="229.2" y1="303.4" x2="206.6" y2="316.5" opacity="1.0" stroke="rgb(0,0,0)" stroke-width="2.0"/>
<line x1="205.0" y1="325.7" x2="172.0" y2="306.7" opacity="1.0" stroke="rgb(0,0,0)" stroke-width="2.0"/>
<line x1="172.0" y1="306.7" x2="172.0" y2="268.6" opacity="1.0" stroke="rgb(0,0,0)" stroke-width="2.0"/>
<line x1="179.2" y1="300.7" x2="179.2" y2="274.6" opacity="1.0" stroke="rgb(0,0,0)" stroke-width="2.0"/>
<line x1="172.0" y1="268.6" x2="205.0" y2="249.5" opacity="1.0" stroke="rgb(0,0,0)" stroke-width="2.0"/>
<line x1="205.0" y1="249.5" x2="237.9" y2="268.6" opacity="1.0" stroke="rgb(0,0,0)" stroke-width="2.0"/>
<line x1="206.6" y1="258.8" x2="229.2" y2="271.8" opacity="1.0" stroke="rgb(0,0,0)" stroke-width="2.0"/>
<line x1="270.9" y1="173.3" x2="303.9" y2="154.3" opacity="1.0" stroke="rgb(0,0,0)" stroke-width="2.0"/>
<line x1="303.9" y1="154.3" x2="303.9" y2="116.2" opacity="1.0" stroke="rgb(0,0,0)" stroke-width="2.0"/>
<line x1="296.7" y1="148.3" x2="296.7" y2="122.2" opacity="1.0" stroke="rgb(0,0,0)" stroke-width="2.0"/>
<line x1="303.9" y1="116.2" x2="270.9" y2="97.1" opacity="1.0" stroke="rgb(0,0,0)" stroke-width="2.0"/>
<line x1="237.9" y1="116.2" x2="237.9" y2="154.3" opacity="1.0" stroke="rgb(0,0,0)" stroke-width="2.0"/>
<line x1="237.9" y1="154.3" x2="270.9" y2="173.3" opacity="1.0" stroke="rgb(0,0,0)" stroke-width="2.0"/>
<line x1="246.7" y1="151.1" x2="269.3" y2="164.1" opacity="1.0" stroke="rgb(0,0,0)" stroke-width="2.0"/>
<line x1="336.9" y1="59.0" x2="369.9" y2="40.0" opacity="1.0" stroke="rgb(0,0,0)" stroke-width="2.0"/>
<line x1="369.9" y1="40.0" x2="402.9" y2="59.0" opacity="1.0" stroke="rgb(0,0,0)" stroke-width="2.0"/>
<line x1="371.5" y1="49.2" x2="394.1" y2="62.3" opacity="1.0" stroke="rgb(0,0,0)" stroke-width="2.0"/>
<line x1="402.9" y1="97.1" x2="369.9" y2="116.2" opacity="1.0" stroke="rgb(0,0,0)" stroke-width="2.0"/>
<line x1="394.1" y1="93.9" x2="371.5" y2="107.0" opacity="1.0" stroke="rgb(0,0,0)" stroke-width="2.0"/>
<line x1="369.9" y1="116.2" x2="336.9" y2="97.1" opacity="1.0" stroke="rgb(0,0,0)" stroke-width="2.0"/>
<line x1="336.9" y1="97.1" x2="336.9" y2="59.0" opacity="1.0" stroke="rgb(0,0,0)" stroke-width="2.0"/>
<line x1="344.1" y1="91.1" x2="344.1" y2="65.0" opacity="1.0" stroke="rgb(0,0,0)" stroke-width="2.0"/>
<text x="257.019662" y="67.880091" fill="rgb(12,12,255)" stroke-width="0" font-weight="bold" font-size="16">N</text>
<text x="219.133114" y="63.898055" fill="rgb(178,178,0)" stroke-width="0" font-weight="bold" font-size="16">S</text>
<text x="203.638385" y="98.699786" fill="rgb(12,12,255)" stroke-width="0" font-weight="bold" font-size="16">N</text>
<text x="433.136608" y="55.275543" fill="rgb(12,12,255)" stroke-width="0" font-weight="bold" font-size="16">N</text>
<text x="433.136608" y="39.275543" fill="rgb(12,12,255)" stroke-width="0" font-weight="bold" font-size="16">H</text>
<text x="198.957220" y="181.333333" fill="rgb(12,12,255)" stroke-width="0" font-weight="bold" font-size="16">N</text>
<text x="34.000000" y="86.095238" fill="rgb(255,12,12)" stroke-width="0" font-weight="bold" font-size="16">O</text>
<text x="36.000000" y="48.000000" fill="rgb(102,102,102)" stroke-width="0" font-weight="bold" font-size="16">CH</text>
<text x="60.000000" y="51.680000" fill="rgb(102,102,102)" stroke-width="0" font-weight="bold" font-size="13">3</text>
<text x="198.957220" y="371.809524" fill="rgb(255,12,12)" stroke-width="0" font-weight="bold" font-size="16">O</text>
<text x="145.965776" y="390.857143" fill="rgb(102,102,102)" stroke-width="0" font-weight="bold" font-size="16">H</text>
<text x="157.965776" y="394.537143" fill="rgb(102,102,102)" stroke-width="0" font-weight="bold" font-size="13">3</text>
<text x="164.465776" y="390.857143" fill="rgb(102,102,102)" stroke-width="0" font-weight="bold" font-size="16">C</text>
</svg>
</g>
</svg>
