<svg xmlns="http://www.w3.org/2000/svg" xmlns:xlink="http://www.w3.org/1999/xlink" xmlns:cml="http://www.xml-cml.org/schema" version="1.1" id="topsvg" x="0" y="0" viewBox="0 0 100 100">
<title>B_8_T - Open Babel Depiction</title>
<rect x="0" y="0" width="100" height="100" fill="white"/>
<g transform="translate(0,0)">
<svg width="100" height="100" x="0" y="0" viewBox="0 0 474.375 421.538" font-family="sans-serif" stroke="rgb(0,0,0)" stroke-width="2" stroke-linecap="round">
<line x1="335.8" y1="286.7" x2="281.3" y2="255.2" opacity="1.0" stroke="rgb(0,0,0)" stroke-width="2.0"/>
<line x1="270.1" y1="235.7" x2="270.1" y2="172.8" opacity="1.0" stroke="rgb(0,0,0)" stroke-width="2.0"/>
<line x1="434.4" y1="356.6" x2="434.4" y2="368.5" opacity="1.0" stroke="rgb(0,0,0)" stroke-width="2.0"/>
<line x1="401.5" y1="324.6" x2="423.1" y2="337.1" opacity="1.0" stroke="rgb(0,0,0)" stroke-width="2.0"/>
<line x1="281.3" y1="52.5" x2="291.7" y2="46.5" opacity="1.0" stroke="rgb(0,0,0)" stroke-width="2.0"/>
<line x1="270.1" y1="96.9" x2="270.1" y2="72.0" opacity="1.0" stroke="rgb(0,0,0)" stroke-width="2.0"/>
<line x1="258.8" y1="255.2" x2="237.2" y2="267.7" opacity="1.0" stroke="rgb(0,0,0)" stroke-width="2.0"/>
<line x1="72.9" y1="362.6" x2="51.3" y2="375.0" opacity="1.0" stroke="rgb(0,0,0)" stroke-width="2.0"/>
<line x1="171.5" y1="305.6" x2="138.6" y2="324.6" opacity="1.0" stroke="rgb(0,0,0)" stroke-width="2.0"/>
<line x1="255.2" y1="353.8" x2="260.1" y2="342.9" opacity="1.0" stroke="rgb(0,0,0)" stroke-width="2.0"/>
<line x1="256.1" y1="322.7" x2="237.2" y2="305.6" opacity="1.0" stroke="rgb(0,0,0)" stroke-width="2.0"/>
<line x1="249.6" y1="326.5" x2="236.8" y2="315.0" opacity="1.0" stroke="rgb(0,0,0)" stroke-width="2.0"/>
<line x1="237.2" y1="305.6" x2="204.3" y2="324.6" opacity="1.0" stroke="rgb(0,0,0)" stroke-width="2.0"/>
<line x1="204.3" y1="324.6" x2="209.6" y2="349.5" opacity="1.0" stroke="rgb(0,0,0)" stroke-width="2.0"/>
<line x1="212.6" y1="329.0" x2="216.2" y2="345.8" opacity="1.0" stroke="rgb(0,0,0)" stroke-width="2.0"/>
<line x1="225.1" y1="363.1" x2="237.0" y2="364.3" opacity="1.0" stroke="rgb(0,0,0)" stroke-width="2.0"/>
<line x1="368.6" y1="343.6" x2="335.8" y2="324.6" opacity="1.0" stroke="rgb(0,0,0)" stroke-width="2.0"/>
<line x1="335.8" y1="324.6" x2="335.8" y2="286.7" opacity="1.0" stroke="rgb(0,0,0)" stroke-width="2.0"/>
<line x1="343.0" y1="318.6" x2="343.0" y2="292.7" opacity="1.0" stroke="rgb(0,0,0)" stroke-width="2.0"/>
<line x1="335.8" y1="286.7" x2="368.6" y2="267.7" opacity="1.0" stroke="rgb(0,0,0)" stroke-width="2.0"/>
<line x1="368.6" y1="267.7" x2="401.5" y2="286.7" opacity="1.0" stroke="rgb(0,0,0)" stroke-width="2.0"/>
<line x1="370.2" y1="276.9" x2="392.7" y2="289.9" opacity="1.0" stroke="rgb(0,0,0)" stroke-width="2.0"/>
<line x1="401.5" y1="286.7" x2="401.5" y2="324.6" opacity="1.0" stroke="rgb(0,0,0)" stroke-width="2.0"/>
<line x1="401.5" y1="324.6" x2="368.6" y2="343.6" opacity="1.0" stroke="rgb(0,0,0)" stroke-width="2.0"/>
<line x1="392.7" y1="321.4" x2="370.2" y2="334.4" opacity="1.0" stroke="rgb(0,0,0)" stroke-width="2.0"/>
<line x1="237.2" y1="153.8" x2="237.2" y2="115.9" opacity="1.0" stroke="rgb(0,0,0)" stroke-width="2.0"/>
<line x1="237.2" y1="115.9" x2="270.1" y2="96.9" opacity="1.0" stroke="rgb(0,0,0)" stroke-width="2.0"/>
<line x1="246.0" y1="119.1" x2="268.5" y2="106.2" opacity="1.0" stroke="rgb(0,0,0)" stroke-width="2.0"/>
<line x1="270.1" y1="96.9" x2="302.9" y2="115.9" opacity="1.0" stroke="rgb(0,0,0)" stroke-width="2.0"/>
<line x1="302.9" y1="115.9" x2="302.9" y2="153.8" opacity="1.0" stroke="rgb(0,0,0)" stroke-width="2.0"/>
<line x1="295.7" y1="121.9" x2="295.7" y2="147.8" opacity="1.0" stroke="rgb(0,0,0)" stroke-width="2.0"/>
<line x1="302.9" y1="153.8" x2="270.1" y2="172.8" opacity="1.0" stroke="rgb(0,0,0)" stroke-width="2.0"/>
<line x1="270.1" y1="172.8" x2="237.2" y2="153.8" opacity="1.0" stroke="rgb(0,0,0)" stroke-width="2.0"/>
<line x1="268.5" y1="163.6" x2="246.0" y2="150.6" opacity="1.0" stroke="rgb(0,0,0)" stroke-width="2.0"/>
<line x1="204.3" y1="248.7" x2="171.5" y2="267.7" opacity="1.0" stroke="rgb(0,0,0)" stroke-width="2.0"/>
<line x1="171.5" y1="267.7" x2="171.5" y2="305.6" opacity="1.0" stroke="rgb(0,0,0)" stroke-width="2.0"/>
<line x1="178.7" y1="273.7" x2="178.7" y2="299.6" opacity="1.0" stroke="rgb(0,0,0)" stroke-width="2.0"/>
<line x1="171.5" y1="305.6" x2="204.3" y2="324.6" opacity="1.0" stroke="rgb(0,0,0)" stroke-width="2.0"/>
<line x1="237.2" y1="305.6" x2="237.2" y2="267.7" opacity="1.0" stroke="rgb(0,0,0)" stroke-width="2.0"/>
<line x1="237.2" y1="267.7" x2="204.3" y2="248.7" opacity="1.0" stroke="rgb(0,0,0)" stroke-width="2.0"/>
<line x1="228.4" y1="270.9" x2="205.9" y2="258.0" opacity="1.0" stroke="rgb(0,0,0)" stroke-width="2.0"/>
<line x1="138.6" y1="362.6" x2="105.7" y2="381.5" opacity="1.0" stroke="rgb(0,0,0)" stroke-width="2.0"/>
<line x1="105.7" y1="381.5" x2="72.9" y2="362.6" opacity="1.0" stroke="rgb(0,0,0)" stroke-width="2.0"/>
<line x1="104.1" y1="372.3" x2="81.7" y2="359.3" opacity="1.0" stroke="rgb(0,0,0)" stroke-width="2.0"/>
<line x1="72.9" y1="362.6" x2="72.9" y2="324.6" opacity="1.0" stroke="rgb(0,0,0)" stroke-width="2.0"/>
<line x1="72.9" y1="324.6" x2="105.7" y2="305.6" opacity="1.0" stroke="rgb(0,0,0)" stroke-width="2.0"/>
<line x1="81.7" y1="327.9" x2="104.1" y2="314.9" opacity="1.0" stroke="rgb(0,0,0)" stroke-width="2.0"/>
<line x1="105.7" y1="305.6" x2="138.6" y2="324.6" opacity="1.0" stroke="rgb(0,0,0)" stroke-width="2.0"/>
<line x1="138.6" y1="324.6" x2="138.6" y2="362.6" opacity="1.0" stroke="rgb(0,0,0)" stroke-width="2.0"/>
<line x1="131.4" y1="330.6" x2="131.4" y2="356.6" opacity="1.0" stroke="rgb(0,0,0)" stroke-width="2.0"/>
<text x="259.388716" y="339.033674" fill="rgb(12,12,255)" stroke-width="0" font-weight="bold" font-size="16">N</text>
<text x="206.212751" y="369.734832" fill="rgb(12,12,255)" stroke-width="0" font-weight="bold" font-size="16">N</text>
<text x="243.953582" y="373.701553" fill="rgb(178,178,0)" stroke-width="0" font-weight="bold" font-size="16">S</text>
<text x="298.916430" y="48.000000" fill="rgb(102,102,102)" stroke-width="0" font-weight="bold" font-size="16">CH</text>
<text x="322.916430" y="51.680000" fill="rgb(102,102,102)" stroke-width="0" font-weight="bold" font-size="13">3</text>
<text x="14.000000" y="389.538462" fill="rgb(102,102,102)" stroke-width="0" font-weight="bold" font-size="16">H</text>
<text x="26.000000" y="393.218462" fill="rgb(102,102,102)" stroke-width="0" font-weight="bold" font-size="13">3</text>
<text x="32.500000" y="389.538462" fill="rgb(102,102,102)" stroke-width="0" font-weight="bold" font-size="16">C</text>
<text x="264.051876" y="66.974359" fill="rgb(255,12,12)" stroke-width="0" font-weight="bold" font-size="16">O</text>
<text x="430.374645" y="389.538462" fill="rgb(102,102,102)" stroke-width="0" font-weight="bold" font-size="16">CH</text>
<text x="454.374645" y="393.218462" fill="rgb(102,102,102)" stroke-width="0" font-weight="bold" font-size="13">3</text>
<text x="428.374645" y="351.589744" fill="rgb(255,12,12)" stroke-width="0" font-weight="bold" font-size="16">O</text>
<text x="264.051876" y="256.717949" fill="rgb(12,12,255)" stroke-width="0" font-weight="bold" font-size="16">N</text>
</svg>
</g>
</svg>