<svg xmlns="http://www.w3.org/2000/svg" x="0" y="0" viewBox="0 0 100 100">
<title>B_9_N - Open Babel Depiction</title>
<rect x="0" y="0" width="100" height="100" fill="white"/>
<g transform="translate(0,0)">
<svg width="100" height="100" x="0" y="0" viewBox="0 0 432.344 418.182" font-family="sans-serif" stroke="rgb(0,0,0)" stroke-width="2" stroke-linecap="round">
<line x1="137.6" y1="133.9" x2="191.4" y2="165.0" opacity="1.0" stroke="rgb(0,0,0)" stroke-width="2.0"/>
<line x1="202.7" y1="184.5" x2="202.7" y2="246.7" opacity="1.0" stroke="rgb(0,0,0)" stroke-width="2.0"/>
<line x1="40.0" y1="64.6" x2="40.0" y2="53.0" opacity="1.0" stroke="rgb(0,0,0)" stroke-width="2.0"/>
<line x1="72.5" y1="96.4" x2="51.3" y2="84.1" opacity="1.0" stroke="rgb(0,0,0)" stroke-width="2.0"/>
<line x1="191.4" y1="365.9" x2="181.4" y2="371.7" opacity="1.0" stroke="rgb(0,0,0)" stroke-width="2.0"/>
<line x1="202.7" y1="321.8" x2="202.7" y2="346.4" opacity="1.0" stroke="rgb(0,0,0)" stroke-width="2.0"/>
<line x1="214.0" y1="165.0" x2="235.2" y2="152.7" opacity="1.0" stroke="rgb(0,0,0)" stroke-width="2.0"/>
<line x1="300.3" y1="152.7" x2="332.9" y2="171.5" opacity="1.0" stroke="rgb(0,0,0)" stroke-width="2.0"/>
<line x1="367.2" y1="156.2" x2="383.6" y2="174.5" opacity="1.0" stroke="rgb(0,0,0)" stroke-width="2.0"/>
<line x1="385.8" y1="195.4" x2="373.6" y2="216.7" opacity="1.0" stroke="rgb(0,0,0)" stroke-width="2.0"/>
<line x1="373.6" y1="216.7" x2="336.8" y2="208.9" opacity="1.0" stroke="rgb(0,0,0)" stroke-width="2.0"/>
<line x1="369.2" y1="208.4" x2="344.2" y2="203.1" opacity="1.0" stroke="rgb(0,0,0)" stroke-width="2.0"/>
<line x1="336.8" y1="208.9" x2="332.9" y2="171.5" opacity="1.0" stroke="rgb(0,0,0)" stroke-width="2.0"/>
<line x1="332.9" y1="171.5" x2="367.2" y2="156.2" opacity="1.0" stroke="rgb(0,0,0)" stroke-width="2.0"/>
<line x1="341.3" y1="175.7" x2="364.6" y2="165.2" opacity="1.0" stroke="rgb(0,0,0)" stroke-width="2.0"/>
<line x1="105.1" y1="77.6" x2="137.6" y2="96.4" opacity="1.0" stroke="rgb(0,0,0)" stroke-width="2.0"/>
<line x1="137.6" y1="96.4" x2="137.6" y2="133.9" opacity="1.0" stroke="rgb(0,0,0)" stroke-width="2.0"/>
<line x1="130.4" y1="102.4" x2="130.4" y2="127.9" opacity="1.0" stroke="rgb(0,0,0)" stroke-width="2.0"/>
<line x1="137.6" y1="133.9" x2="105.1" y2="152.7" opacity="1.0" stroke="rgb(0,0,0)" stroke-width="2.0"/>
<line x1="105.1" y1="152.7" x2="72.5" y2="133.9" opacity="1.0" stroke="rgb(0,0,0)" stroke-width="2.0"/>
<line x1="103.5" y1="143.5" x2="81.3" y2="130.7" opacity="1.0" stroke="rgb(0,0,0)" stroke-width="2.0"/>
<line x1="72.5" y1="133.9" x2="72.5" y2="96.4" opacity="1.0" stroke="rgb(0,0,0)" stroke-width="2.0"/>
<line x1="72.5" y1="96.4" x2="105.1" y2="77.6" opacity="1.0" stroke="rgb(0,0,0)" stroke-width="2.0"/>
<line x1="81.3" y1="99.6" x2="103.5" y2="86.8" opacity="1.0" stroke="rgb(0,0,0)" stroke-width="2.0"/>
<line x1="235.2" y1="265.5" x2="235.2" y2="303.0" opacity="1.0" stroke="rgb(0,0,0)" stroke-width="2.0"/>
<line x1="235.2" y1="303.0" x2="202.7" y2="321.8" opacity="1.0" stroke="rgb(0,0,0)" stroke-width="2.0"/>
<line x1="226.5" y1="299.8" x2="204.3" y2="312.6" opacity="1.0" stroke="rgb(0,0,0)" stroke-width="2.0"/>
<line x1="202.7" y1="321.8" x2="170.2" y2="303.0" opacity="1.0" stroke="rgb(0,0,0)" stroke-width="2.0"/>
<line x1="170.2" y1="303.0" x2="170.2" y2="265.5" opacity="1.0" stroke="rgb(0,0,0)" stroke-width="2.0"/>
<line x1="177.4" y1="297.0" x2="177.4" y2="271.5" opacity="1.0" stroke="rgb(0,0,0)" stroke-width="2.0"/>
<line x1="170.2" y1="265.5" x2="202.7" y2="246.7" opacity="1.0" stroke="rgb(0,0,0)" stroke-width="2.0"/>
<line x1="202.7" y1="246.7" x2="235.2" y2="265.5" opacity="1.0" stroke="rgb(0,0,0)" stroke-width="2.0"/>
<line x1="204.3" y1="255.9" x2="226.5" y2="268.7" opacity="1.0" stroke="rgb(0,0,0)" stroke-width="2.0"/>
<line x1="235.2" y1="115.2" x2="267.8" y2="96.4" opacity="1.0" stroke="rgb(0,0,0)" stroke-width="2.0"/>
<line x1="267.8" y1="96.4" x2="300.3" y2="115.2" opacity="1.0" stroke="rgb(0,0,0)" stroke-width="2.0"/>
<line x1="269.4" y1="105.6" x2="291.5" y2="118.4" opacity="1.0" stroke="rgb(0,0,0)" stroke-width="2.0"/>
<line x1="300.3" y1="115.2" x2="300.3" y2="152.7" opacity="1.0" stroke="rgb(0,0,0)" stroke-width="2.0"/>
<line x1="300.3" y1="152.7" x2="267.8" y2="171.5" opacity="1.0" stroke="rgb(0,0,0)" stroke-width="2.0"/>
<line x1="291.5" y1="149.5" x2="269.4" y2="162.3" opacity="1.0" stroke="rgb(0,0,0)" stroke-width="2.0"/>
<line x1="267.8" y1="171.5" x2="235.2" y2="152.7" opacity="1.0" stroke="rgb(0,0,0)" stroke-width="2.0"/>
<line x1="235.2" y1="152.7" x2="235.2" y2="115.2" opacity="1.0" stroke="rgb(0,0,0)" stroke-width="2.0"/>
<line x1="242.4" y1="146.7" x2="242.4" y2="121.2" opacity="1.0" stroke="rgb(0,0,0)" stroke-width="2.0"/>
<text x="36.000000" y="48.000000" fill="rgb(102,102,102)" stroke-width="0" font-weight="bold" font-size="16">CH</text>
<text x="60.000000" y="51.680000" fill="rgb(102,102,102)" stroke-width="0" font-weight="bold" font-size="13">3</text>
<text x="386.344298" y="192.155944" fill="rgb(178,178,0)" stroke-width="0" font-weight="bold" font-size="16">S</text>
<text x="144.166243" y="386.181818" fill="rgb(102,102,102)" stroke-width="0" font-weight="bold" font-size="16">H</text>
<text x="156.166243" y="389.861818" fill="rgb(102,102,102)" stroke-width="0" font-weight="bold" font-size="13">3</text>
<text x="162.666243" y="386.181818" fill="rgb(102,102,102)" stroke-width="0" font-weight="bold" font-size="16">C</text>
<text x="196.707803" y="367.393939" fill="rgb(255,12,12)" stroke-width="0" font-weight="bold" font-size="16">O</text>
<text x="34.000000" y="85.575758" fill="rgb(255,12,12)" stroke-width="0" font-weight="bold" font-size="16">O</text>
<text x="196.707803" y="179.515152" fill="rgb(12,12,255)" stroke-width="0" font-weight="bold" font-size="16">N</text>
</svg>
</g>
</svg>
