<svg xmlns="http://www.w3.org/2000/svg" x="0" y="0" viewBox="0 0 100 100">
<title>C_10_N - Open Babel Depiction</title>
<rect x="0" y="0" width="100" height="100" fill="white"/>
<g transform="translate(0,0)">
<svg width="100" height="100" x="0" y="0" viewBox="0 0 431.634 380" font-family="sans-serif" stroke="rgb(0,0,0)" stroke-width="2" stroke-linecap="round">
<line x1="294.2" y1="265.0" x2="240.5" y2="234.0" opacity="1.0" stroke="rgb(0,0,0)" stroke-width="2.0"/>
<line x1="229.3" y1="214.5" x2="229.3" y2="152.5" opacity="1.0" stroke="rgb(0,0,0)" stroke-width="2.0"/>
<line x1="359.2" y1="302.5" x2="380.4" y2="314.8" opacity="1.0" stroke="rgb(0,0,0)" stroke-width="2.0"/>
<line x1="229.3" y1="77.5" x2="229.3" y2="53.0" opacity="1.0" stroke="rgb(0,0,0)" stroke-width="2.0"/>
<line x1="164.3" y1="302.5" x2="164.3" y2="327.0" opacity="1.0" stroke="rgb(0,0,0)" stroke-width="2.0"/>
<line x1="218.0" y1="234.0" x2="196.8" y2="246.2" opacity="1.0" stroke="rgb(0,0,0)" stroke-width="2.0"/>
<line x1="131.8" y1="246.2" x2="99.4" y2="227.5" opacity="1.0" stroke="rgb(0,0,0)" stroke-width="2.0"/>
<line x1="65.1" y1="242.8" x2="48.7" y2="224.5" opacity="1.0" stroke="rgb(0,0,0)" stroke-width="2.0"/>
<line x1="46.5" y1="203.6" x2="58.8" y2="182.4" opacity="1.0" stroke="rgb(0,0,0)" stroke-width="2.0"/>
<line x1="58.8" y1="182.4" x2="95.4" y2="190.2" opacity="1.0" stroke="rgb(0,0,0)" stroke-width="2.0"/>
<line x1="63.1" y1="190.7" x2="88.1" y2="196.0" opacity="1.0" stroke="rgb(0,0,0)" stroke-width="2.0"/>
<line x1="95.4" y1="190.2" x2="99.4" y2="227.5" opacity="1.0" stroke="rgb(0,0,0)" stroke-width="2.0"/>
<line x1="99.4" y1="227.5" x2="65.1" y2="242.8" opacity="1.0" stroke="rgb(0,0,0)" stroke-width="2.0"/>
<line x1="90.9" y1="223.4" x2="67.6" y2="233.7" opacity="1.0" stroke="rgb(0,0,0)" stroke-width="2.0"/>
<line x1="326.7" y1="321.2" x2="294.2" y2="302.5" opacity="1.0" stroke="rgb(0,0,0)" stroke-width="2.0"/>
<line x1="294.2" y1="302.5" x2="294.2" y2="265.0" opacity="1.0" stroke="rgb(0,0,0)" stroke-width="2.0"/>
<line x1="301.4" y1="296.5" x2="301.4" y2="271.0" opacity="1.0" stroke="rgb(0,0,0)" stroke-width="2.0"/>
<line x1="294.2" y1="265.0" x2="326.7" y2="246.3" opacity="1.0" stroke="rgb(0,0,0)" stroke-width="2.0"/>
<line x1="326.7" y1="246.3" x2="359.2" y2="265.0" opacity="1.0" stroke="rgb(0,0,0)" stroke-width="2.0"/>
<line x1="328.3" y1="255.5" x2="350.4" y2="268.2" opacity="1.0" stroke="rgb(0,0,0)" stroke-width="2.0"/>
<line x1="359.2" y1="265.0" x2="359.2" y2="302.5" opacity="1.0" stroke="rgb(0,0,0)" stroke-width="2.0"/>
<line x1="359.2" y1="302.5" x2="326.7" y2="321.2" opacity="1.0" stroke="rgb(0,0,0)" stroke-width="2.0"/>
<line x1="350.4" y1="299.3" x2="328.3" y2="312.0" opacity="1.0" stroke="rgb(0,0,0)" stroke-width="2.0"/>
<line x1="196.8" y1="133.8" x2="196.8" y2="96.3" opacity="1.0" stroke="rgb(0,0,0)" stroke-width="2.0"/>
<line x1="196.8" y1="96.3" x2="229.3" y2="77.5" opacity="1.0" stroke="rgb(0,0,0)" stroke-width="2.0"/>
<line x1="205.6" y1="99.5" x2="227.7" y2="86.7" opacity="1.0" stroke="rgb(0,0,0)" stroke-width="2.0"/>
<line x1="229.3" y1="77.5" x2="261.7" y2="96.2" opacity="1.0" stroke="rgb(0,0,0)" stroke-width="2.0"/>
<line x1="261.7" y1="96.2" x2="261.7" y2="133.8" opacity="1.0" stroke="rgb(0,0,0)" stroke-width="2.0"/>
<line x1="254.5" y1="102.2" x2="254.5" y2="127.8" opacity="1.0" stroke="rgb(0,0,0)" stroke-width="2.0"/>
<line x1="261.7" y1="133.8" x2="229.3" y2="152.5" opacity="1.0" stroke="rgb(0,0,0)" stroke-width="2.0"/>
<line x1="229.3" y1="152.5" x2="196.8" y2="133.8" opacity="1.0" stroke="rgb(0,0,0)" stroke-width="2.0"/>
<line x1="227.7" y1="143.3" x2="205.6" y2="130.5" opacity="1.0" stroke="rgb(0,0,0)" stroke-width="2.0"/>
<line x1="196.8" y1="283.8" x2="164.3" y2="302.5" opacity="1.0" stroke="rgb(0,0,0)" stroke-width="2.0"/>
<line x1="164.3" y1="302.5" x2="131.8" y2="283.8" opacity="1.0" stroke="rgb(0,0,0)" stroke-width="2.0"/>
<line x1="162.7" y1="293.3" x2="140.6" y2="280.5" opacity="1.0" stroke="rgb(0,0,0)" stroke-width="2.0"/>
<line x1="131.8" y1="283.8" x2="131.8" y2="246.2" opacity="1.0" stroke="rgb(0,0,0)" stroke-width="2.0"/>
<line x1="131.8" y1="246.2" x2="164.3" y2="227.5" opacity="1.0" stroke="rgb(0,0,0)" stroke-width="2.0"/>
<line x1="140.6" y1="249.5" x2="162.7" y2="236.7" opacity="1.0" stroke="rgb(0,0,0)" stroke-width="2.0"/>
<line x1="164.3" y1="227.5" x2="196.8" y2="246.2" opacity="1.0" stroke="rgb(0,0,0)" stroke-width="2.0"/>
<line x1="196.8" y1="246.2" x2="196.8" y2="283.8" opacity="1.0" stroke="rgb(0,0,0)" stroke-width="2.0"/>
<line x1="189.6" y1="252.2" x2="189.6" y2="277.8" opacity="1.0" stroke="rgb(0,0,0)" stroke-width="2.0"/>
<text x="387.633926" y="329.250000" fill="rgb(102,102,102)" stroke-width="0" font-weight="bold" font-size="16">CH</text>
<text x="411.633926" y="332.930000" fill="rgb(102,102,102)" stroke-width="0" font-weight="bold" font-size="13">3</text>
<text x="34.000000" y="222.884693" fill="rgb(178,178,0)" stroke-width="0" font-weight="bold" font-size="16">S</text>
<text x="158.302258" y="348.000000" fill="rgb(127,178,255)" stroke-width="0" font-weight="bold" font-size="16">F</text>
<text x="225.254163" y="48.000000" fill="rgb(102,102,102)" stroke-width="0" font-weight="bold" font-size="16">CH</text>
<text x="249.254163" y="51.680000" fill="rgb(102,102,102)" stroke-width="0" font-weight="bold" font-size="13">3</text>
<text x="223.254163" y="235.500000" fill="rgb(12,12,255)" stroke-width="0" font-weight="bold" font-size="16">N</text>
</svg>
</g>
</svg>
