<svg xmlns="http://www.w3.org/2000/svg" xmlns:xlink="http://www.w3.org/1999/xlink" xmlns:cml="http://www.xml-cml.org/schema" version="1.1" id="topsvg" x="0" y="0" viewBox="0 0 100 100">
<title>C_10_T - Open Babel Depiction</title>
<rect x="0" y="0" width="100" height="100" fill="white"/>
<g transform="translate(0,0)">
<svg width="100" height="100" x="0" y="0" viewBox="0 0 471.24 381.176" font-family="sans-serif" stroke="rgb(0,0,0)" stroke-width="2" stroke-linecap="round">
<line x1="333.4" y1="265.9" x2="279.5" y2="234.7" opacity="1.0" stroke="rgb(0,0,0)" stroke-width="2.0"/>
<line x1="268.2" y1="215.2" x2="268.2" y2="152.9" opacity="1.0" stroke="rgb(0,0,0)" stroke-width="2.0"/>
<line x1="398.6" y1="303.5" x2="420.0" y2="315.9" opacity="1.0" stroke="rgb(0,0,0)" stroke-width="2.0"/>
<line x1="268.2" y1="77.6" x2="268.2" y2="53.0" opacity="1.0" stroke="rgb(0,0,0)" stroke-width="2.0"/>
<line x1="203.0" y1="303.5" x2="203.0" y2="328.2" opacity="1.0" stroke="rgb(0,0,0)" stroke-width="2.0"/>
<line x1="257.0" y1="234.7" x2="235.6" y2="247.1" opacity="1.0" stroke="rgb(0,0,0)" stroke-width="2.0"/>
<line x1="72.6" y1="190.6" x2="51.3" y2="178.3" opacity="1.0" stroke="rgb(0,0,0)" stroke-width="2.0"/>
<line x1="170.4" y1="247.1" x2="137.8" y2="228.2" opacity="1.0" stroke="rgb(0,0,0)" stroke-width="2.0"/>
<line x1="366.0" y1="322.4" x2="333.4" y2="303.5" opacity="1.0" stroke="rgb(0,0,0)" stroke-width="2.0"/>
<line x1="333.4" y1="303.5" x2="333.4" y2="265.9" opacity="1.0" stroke="rgb(0,0,0)" stroke-width="2.0"/>
<line x1="340.6" y1="297.5" x2="340.6" y2="271.9" opacity="1.0" stroke="rgb(0,0,0)" stroke-width="2.0"/>
<line x1="333.4" y1="265.9" x2="366.0" y2="247.1" opacity="1.0" stroke="rgb(0,0,0)" stroke-width="2.0"/>
<line x1="366.0" y1="247.1" x2="398.6" y2="265.9" opacity="1.0" stroke="rgb(0,0,0)" stroke-width="2.0"/>
<line x1="367.6" y1="256.3" x2="389.8" y2="269.1" opacity="1.0" stroke="rgb(0,0,0)" stroke-width="2.0"/>
<line x1="398.6" y1="265.9" x2="398.6" y2="303.5" opacity="1.0" stroke="rgb(0,0,0)" stroke-width="2.0"/>
<line x1="398.6" y1="303.5" x2="366.0" y2="322.4" opacity="1.0" stroke="rgb(0,0,0)" stroke-width="2.0"/>
<line x1="389.8" y1="300.3" x2="367.6" y2="313.1" opacity="1.0" stroke="rgb(0,0,0)" stroke-width="2.0"/>
<line x1="235.6" y1="134.1" x2="235.6" y2="96.5" opacity="1.0" stroke="rgb(0,0,0)" stroke-width="2.0"/>
<line x1="235.6" y1="96.5" x2="268.2" y2="77.6" opacity="1.0" stroke="rgb(0,0,0)" stroke-width="2.0"/>
<line x1="244.4" y1="99.7" x2="266.6" y2="86.9" opacity="1.0" stroke="rgb(0,0,0)" stroke-width="2.0"/>
<line x1="268.2" y1="77.6" x2="300.8" y2="96.5" opacity="1.0" stroke="rgb(0,0,0)" stroke-width="2.0"/>
<line x1="300.8" y1="96.5" x2="300.8" y2="134.1" opacity="1.0" stroke="rgb(0,0,0)" stroke-width="2.0"/>
<line x1="293.6" y1="102.5" x2="293.6" y2="128.1" opacity="1.0" stroke="rgb(0,0,0)" stroke-width="2.0"/>
<line x1="300.8" y1="134.1" x2="268.2" y2="152.9" opacity="1.0" stroke="rgb(0,0,0)" stroke-width="2.0"/>
<line x1="268.2" y1="152.9" x2="235.6" y2="134.1" opacity="1.0" stroke="rgb(0,0,0)" stroke-width="2.0"/>
<line x1="266.6" y1="143.7" x2="244.4" y2="130.9" opacity="1.0" stroke="rgb(0,0,0)" stroke-width="2.0"/>
<line x1="235.6" y1="284.7" x2="203.0" y2="303.5" opacity="1.0" stroke="rgb(0,0,0)" stroke-width="2.0"/>
<line x1="203.0" y1="303.5" x2="170.4" y2="284.7" opacity="1.0" stroke="rgb(0,0,0)" stroke-width="2.0"/>
<line x1="201.4" y1="294.3" x2="179.2" y2="281.5" opacity="1.0" stroke="rgb(0,0,0)" stroke-width="2.0"/>
<line x1="170.4" y1="284.7" x2="170.4" y2="247.1" opacity="1.0" stroke="rgb(0,0,0)" stroke-width="2.0"/>
<line x1="170.4" y1="247.1" x2="203.0" y2="228.2" opacity="1.0" stroke="rgb(0,0,0)" stroke-width="2.0"/>
<line x1="179.2" y1="250.3" x2="201.4" y2="237.5" opacity="1.0" stroke="rgb(0,0,0)" stroke-width="2.0"/>
<line x1="203.0" y1="228.2" x2="235.6" y2="247.1" opacity="1.0" stroke="rgb(0,0,0)" stroke-width="2.0"/>
<line x1="235.6" y1="247.1" x2="235.6" y2="284.7" opacity="1.0" stroke="rgb(0,0,0)" stroke-width="2.0"/>
<line x1="228.4" y1="253.1" x2="228.4" y2="278.7" opacity="1.0" stroke="rgb(0,0,0)" stroke-width="2.0"/>
<line x1="105.2" y1="247.1" x2="72.6" y2="228.2" opacity="1.0" stroke="rgb(0,0,0)" stroke-width="2.0"/>
<line x1="72.6" y1="228.2" x2="72.6" y2="190.6" opacity="1.0" stroke="rgb(0,0,0)" stroke-width="2.0"/>
<line x1="79.8" y1="222.2" x2="79.8" y2="196.6" opacity="1.0" stroke="rgb(0,0,0)" stroke-width="2.0"/>
<line x1="72.6" y1="190.6" x2="105.2" y2="171.8" opacity="1.0" stroke="rgb(0,0,0)" stroke-width="2.0"/>
<line x1="105.2" y1="171.8" x2="137.8" y2="190.6" opacity="1.0" stroke="rgb(0,0,0)" stroke-width="2.0"/>
<line x1="106.8" y1="181.0" x2="129.0" y2="193.8" opacity="1.0" stroke="rgb(0,0,0)" stroke-width="2.0"/>
<line x1="137.8" y1="190.6" x2="137.8" y2="228.2" opacity="1.0" stroke="rgb(0,0,0)" stroke-width="2.0"/>
<line x1="137.8" y1="228.2" x2="105.2" y2="247.1" opacity="1.0" stroke="rgb(0,0,0)" stroke-width="2.0"/>
<line x1="129.0" y1="225.0" x2="106.8" y2="237.8" opacity="1.0" stroke="rgb(0,0,0)" stroke-width="2.0"/>
<text x="264.223165" y="48.000000" fill="rgb(102,102,102)" stroke-width="0" font-weight="bold" font-size="16">CH</text>
<text x="288.223165" y="51.680000" fill="rgb(102,102,102)" stroke-width="0" font-weight="bold" font-size="13">3</text>
<text x="14.000000" y="179.764706" fill="rgb(102,102,102)" stroke-width="0" font-weight="bold" font-size="16">H</text>
<text x="26.000000" y="183.444706" fill="rgb(102,102,102)" stroke-width="0" font-weight="bold" font-size="13">3</text>
<text x="32.500000" y="179.764706" fill="rgb(102,102,102)" stroke-width="0" font-weight="bold" font-size="16">C</text>
<text x="197.016547" y="349.176471" fill="rgb(127,178,255)" stroke-width="0" font-weight="bold" font-size="16">F</text>
<text x="427.239712" y="330.352941" fill="rgb(102,102,102)" stroke-width="0" font-weight="bold" font-size="16">CH</text>
<text x="451.239712" y="334.032941" fill="rgb(102,102,102)" stroke-width="0" font-weight="bold" font-size="13">3</text>
<text x="262.223165" y="236.235294" fill="rgb(12,12,255)" stroke-width="0" font-weight="bold" font-size="16">N</text>
</svg>
</g>
</svg>