<svg xmlns="http://www.w3.org/2000/svg" xmlns:xlink="http://www.w3.org/1999/xlink" xmlns:cml="http://www.xml-cml.org/schema" version="1.1" id="topsvg" x="0" y="0" viewBox="0 0 100 100">
<title>C_10_P - Open Babel Depiction</title>
<rect x="0" y="0" width="100" height="100" fill="white"/>
<g transform="translate(0,0)">
<svg width="100" height="100" x="0" y="0" viewBox="0 0 471.938 381.714" font-family="sans-serif" stroke="rgb(0,0,0)" stroke-width="2" stroke-linecap="round">
<line x1="334.0" y1="266.3" x2="279.9" y2="235.1" opacity="1.0" stroke="rgb(0,0,0)" stroke-width="2.0"/>
<line x1="268.6" y1="215.6" x2="268.6" y2="153.1" opacity="1.0" stroke="rgb(0,0,0)" stroke-width="2.0"/>
<line x1="399.3" y1="304.0" x2="420.7" y2="316.4" opacity="1.0" stroke="rgb(0,0,0)" stroke-width="2.0"/>
<line x1="268.6" y1="77.7" x2="268.6" y2="53.0" opacity="1.0" stroke="rgb(0,0,0)" stroke-width="2.0"/>
<line x1="203.3" y1="304.0" x2="203.3" y2="328.7" opacity="1.0" stroke="rgb(0,0,0)" stroke-width="2.0"/>
<line x1="257.4" y1="235.1" x2="236.0" y2="247.4" opacity="1.0" stroke="rgb(0,0,0)" stroke-width="2.0"/>
<line x1="40.0" y1="159.0" x2="40.0" y2="147.3" opacity="1.0" stroke="rgb(0,0,0)" stroke-width="2.0"/>
<line x1="72.7" y1="190.9" x2="51.3" y2="178.5" opacity="1.0" stroke="rgb(0,0,0)" stroke-width="2.0"/>
<line x1="170.6" y1="247.4" x2="138.0" y2="228.6" opacity="1.0" stroke="rgb(0,0,0)" stroke-width="2.0"/>
<line x1="366.6" y1="322.9" x2="334.0" y2="304.0" opacity="1.0" stroke="rgb(0,0,0)" stroke-width="2.0"/>
<line x1="334.0" y1="304.0" x2="334.0" y2="266.3" opacity="1.0" stroke="rgb(0,0,0)" stroke-width="2.0"/>
<line x1="341.2" y1="298.0" x2="341.2" y2="272.3" opacity="1.0" stroke="rgb(0,0,0)" stroke-width="2.0"/>
<line x1="334.0" y1="266.3" x2="366.6" y2="247.4" opacity="1.0" stroke="rgb(0,0,0)" stroke-width="2.0"/>
<line x1="366.6" y1="247.4" x2="399.3" y2="266.3" opacity="1.0" stroke="rgb(0,0,0)" stroke-width="2.0"/>
<line x1="368.2" y1="256.7" x2="390.5" y2="269.5" opacity="1.0" stroke="rgb(0,0,0)" stroke-width="2.0"/>
<line x1="399.3" y1="266.3" x2="399.3" y2="304.0" opacity="1.0" stroke="rgb(0,0,0)" stroke-width="2.0"/>
<line x1="399.3" y1="304.0" x2="366.6" y2="322.9" opacity="1.0" stroke="rgb(0,0,0)" stroke-width="2.0"/>
<line x1="390.5" y1="300.8" x2="368.2" y2="313.6" opacity="1.0" stroke="rgb(0,0,0)" stroke-width="2.0"/>
<line x1="236.0" y1="134.3" x2="236.0" y2="96.6" opacity="1.0" stroke="rgb(0,0,0)" stroke-width="2.0"/>
<line x1="236.0" y1="96.6" x2="268.6" y2="77.7" opacity="1.0" stroke="rgb(0,0,0)" stroke-width="2.0"/>
<line x1="244.8" y1="99.8" x2="267.0" y2="86.9" opacity="1.0" stroke="rgb(0,0,0)" stroke-width="2.0"/>
<line x1="268.6" y1="77.7" x2="301.3" y2="96.6" opacity="1.0" stroke="rgb(0,0,0)" stroke-width="2.0"/>
<line x1="301.3" y1="96.6" x2="301.3" y2="134.3" opacity="1.0" stroke="rgb(0,0,0)" stroke-width="2.0"/>
<line x1="294.1" y1="102.6" x2="294.1" y2="128.3" opacity="1.0" stroke="rgb(0,0,0)" stroke-width="2.0"/>
<line x1="301.3" y1="134.3" x2="268.6" y2="153.1" opacity="1.0" stroke="rgb(0,0,0)" stroke-width="2.0"/>
<line x1="268.6" y1="153.1" x2="236.0" y2="134.3" opacity="1.0" stroke="rgb(0,0,0)" stroke-width="2.0"/>
<line x1="267.0" y1="143.9" x2="244.8" y2="131.1" opacity="1.0" stroke="rgb(0,0,0)" stroke-width="2.0"/>
<line x1="236.0" y1="285.1" x2="203.3" y2="304.0" opacity="1.0" stroke="rgb(0,0,0)" stroke-width="2.0"/>
<line x1="203.3" y1="304.0" x2="170.6" y2="285.1" opacity="1.0" stroke="rgb(0,0,0)" stroke-width="2.0"/>
<line x1="201.7" y1="294.8" x2="179.4" y2="281.9" opacity="1.0" stroke="rgb(0,0,0)" stroke-width="2.0"/>
<line x1="170.6" y1="285.1" x2="170.6" y2="247.4" opacity="1.0" stroke="rgb(0,0,0)" stroke-width="2.0"/>
<line x1="170.6" y1="247.4" x2="203.3" y2="228.6" opacity="1.0" stroke="rgb(0,0,0)" stroke-width="2.0"/>
<line x1="179.4" y1="250.7" x2="201.7" y2="237.8" opacity="1.0" stroke="rgb(0,0,0)" stroke-width="2.0"/>
<line x1="203.3" y1="228.6" x2="236.0" y2="247.4" opacity="1.0" stroke="rgb(0,0,0)" stroke-width="2.0"/>
<line x1="236.0" y1="247.4" x2="236.0" y2="285.1" opacity="1.0" stroke="rgb(0,0,0)" stroke-width="2.0"/>
<line x1="228.8" y1="253.4" x2="228.8" y2="279.1" opacity="1.0" stroke="rgb(0,0,0)" stroke-width="2.0"/>
<line x1="105.3" y1="247.4" x2="72.7" y2="228.6" opacity="1.0" stroke="rgb(0,0,0)" stroke-width="2.0"/>
<line x1="72.7" y1="228.6" x2="72.7" y2="190.9" opacity="1.0" stroke="rgb(0,0,0)" stroke-width="2.0"/>
<line x1="79.9" y1="222.6" x2="79.9" y2="196.9" opacity="1.0" stroke="rgb(0,0,0)" stroke-width="2.0"/>
<line x1="72.7" y1="190.9" x2="105.3" y2="172.0" opacity="1.0" stroke="rgb(0,0,0)" stroke-width="2.0"/>
<line x1="105.3" y1="172.0" x2="138.0" y2="190.9" opacity="1.0" stroke="rgb(0,0,0)" stroke-width="2.0"/>
<line x1="106.9" y1="181.2" x2="129.2" y2="194.1" opacity="1.0" stroke="rgb(0,0,0)" stroke-width="2.0"/>
<line x1="138.0" y1="190.9" x2="138.0" y2="228.6" opacity="1.0" stroke="rgb(0,0,0)" stroke-width="2.0"/>
<line x1="138.0" y1="228.6" x2="105.3" y2="247.4" opacity="1.0" stroke="rgb(0,0,0)" stroke-width="2.0"/>
<line x1="129.2" y1="225.3" x2="106.9" y2="238.2" opacity="1.0" stroke="rgb(0,0,0)" stroke-width="2.0"/>
<text x="36.000000" y="142.285714" fill="rgb(102,102,102)" stroke-width="0" font-weight="bold" font-size="16">CH</text>
<text x="60.000000" y="145.965714" fill="rgb(102,102,102)" stroke-width="0" font-weight="bold" font-size="13">3</text>
<text x="34.000000" y="180.000000" fill="rgb(255,12,12)" stroke-width="0" font-weight="bold" font-size="16">O</text>
<text x="197.307648" y="349.714286" fill="rgb(127,178,255)" stroke-width="0" font-weight="bold" font-size="16">F</text>
<text x="264.630707" y="48.000000" fill="rgb(102,102,102)" stroke-width="0" font-weight="bold" font-size="16">CH</text>
<text x="288.630707" y="51.680000" fill="rgb(102,102,102)" stroke-width="0" font-weight="bold" font-size="13">3</text>
<text x="427.938354" y="330.857143" fill="rgb(102,102,102)" stroke-width="0" font-weight="bold" font-size="16">CH</text>
<text x="451.938354" y="334.537143" fill="rgb(102,102,102)" stroke-width="0" font-weight="bold" font-size="13">3</text>
<text x="262.630707" y="236.571429" fill="rgb(12,12,255)" stroke-width="0" font-weight="bold" font-size="16">N</text>
</svg>
</g>
</svg>