<svg xmlns="http://www.w3.org/2000/svg" xmlns:xlink="http://www.w3.org/1999/xlink" xmlns:cml="http://www.xml-cml.org/schema" version="1.1" id="topsvg" x="0" y="0" viewBox="0 0 100 100">
<title>C_1_L - Open Babel Depiction</title>
<rect x="0" y="0" width="100" height="100" fill="white"/>
<g transform="translate(0,0)">
<svg width="100" height="100" x="0" y="0" viewBox="0 0 498.016 401.111" font-family="sans-serif" stroke="rgb(0,0,0)" stroke-width="2" stroke-linecap="round">
<line x1="294.4" y1="247.8" x2="294.4" y2="185.2" opacity="1.0" stroke="rgb(0,0,0)" stroke-width="2.0"/>
<line x1="305.7" y1="165.7" x2="359.9" y2="134.4" opacity="1.0" stroke="rgb(0,0,0)" stroke-width="2.0"/>
<line x1="294.4" y1="323.3" x2="294.4" y2="348.1" opacity="1.0" stroke="rgb(0,0,0)" stroke-width="2.0"/>
<line x1="425.3" y1="96.7" x2="446.8" y2="84.3" opacity="1.0" stroke="rgb(0,0,0)" stroke-width="2.0"/>
<line x1="283.2" y1="165.7" x2="261.7" y2="153.3" opacity="1.0" stroke="rgb(0,0,0)" stroke-width="2.0"/>
<line x1="196.3" y1="115.6" x2="163.6" y2="96.7" opacity="1.0" stroke="rgb(0,0,0)" stroke-width="2.0"/>
<line x1="40.0" y1="77.8" x2="62.2" y2="108.3" opacity="1.0" stroke="rgb(0,0,0)" stroke-width="2.0"/>
<line x1="49.4" y1="78.4" x2="64.5" y2="99.3" opacity="1.0" stroke="rgb(0,0,0)" stroke-width="2.0"/>
<line x1="62.2" y1="108.3" x2="98.1" y2="96.7" opacity="1.0" stroke="rgb(0,0,0)" stroke-width="2.0"/>
<line x1="98.1" y1="96.7" x2="98.1" y2="58.9" opacity="1.0" stroke="rgb(0,0,0)" stroke-width="2.0"/>
<line x1="98.1" y1="58.9" x2="74.6" y2="51.2" opacity="1.0" stroke="rgb(0,0,0)" stroke-width="2.0"/>
<line x1="54.6" y1="57.7" x2="40.0" y2="77.8" opacity="1.0" stroke="rgb(0,0,0)" stroke-width="2.0"/>
<line x1="261.7" y1="304.4" x2="261.7" y2="266.7" opacity="1.0" stroke="rgb(0,0,0)" stroke-width="2.0"/>
<line x1="261.7" y1="266.7" x2="294.4" y2="247.8" opacity="1.0" stroke="rgb(0,0,0)" stroke-width="2.0"/>
<line x1="270.5" y1="269.9" x2="292.8" y2="257.0" opacity="1.0" stroke="rgb(0,0,0)" stroke-width="2.0"/>
<line x1="294.4" y1="247.8" x2="327.1" y2="266.7" opacity="1.0" stroke="rgb(0,0,0)" stroke-width="2.0"/>
<line x1="327.1" y1="266.7" x2="327.1" y2="304.4" opacity="1.0" stroke="rgb(0,0,0)" stroke-width="2.0"/>
<line x1="319.9" y1="272.7" x2="319.9" y2="298.4" opacity="1.0" stroke="rgb(0,0,0)" stroke-width="2.0"/>
<line x1="327.1" y1="304.4" x2="294.4" y2="323.3" opacity="1.0" stroke="rgb(0,0,0)" stroke-width="2.0"/>
<line x1="294.4" y1="323.3" x2="261.7" y2="304.4" opacity="1.0" stroke="rgb(0,0,0)" stroke-width="2.0"/>
<line x1="292.8" y1="314.1" x2="270.5" y2="301.2" opacity="1.0" stroke="rgb(0,0,0)" stroke-width="2.0"/>
<line x1="359.9" y1="96.7" x2="392.6" y2="77.8" opacity="1.0" stroke="rgb(0,0,0)" stroke-width="2.0"/>
<line x1="392.6" y1="77.8" x2="425.3" y2="96.7" opacity="1.0" stroke="rgb(0,0,0)" stroke-width="2.0"/>
<line x1="394.2" y1="87.0" x2="416.5" y2="99.9" opacity="1.0" stroke="rgb(0,0,0)" stroke-width="2.0"/>
<line x1="425.3" y1="96.7" x2="425.3" y2="134.4" opacity="1.0" stroke="rgb(0,0,0)" stroke-width="2.0"/>
<line x1="425.3" y1="134.4" x2="392.6" y2="153.3" opacity="1.0" stroke="rgb(0,0,0)" stroke-width="2.0"/>
<line x1="416.5" y1="131.2" x2="394.2" y2="144.1" opacity="1.0" stroke="rgb(0,0,0)" stroke-width="2.0"/>
<line x1="392.6" y1="153.3" x2="359.9" y2="134.4" opacity="1.0" stroke="rgb(0,0,0)" stroke-width="2.0"/>
<line x1="359.9" y1="134.4" x2="359.9" y2="96.7" opacity="1.0" stroke="rgb(0,0,0)" stroke-width="2.0"/>
<line x1="367.1" y1="128.4" x2="367.1" y2="102.7" opacity="1.0" stroke="rgb(0,0,0)" stroke-width="2.0"/>
<line x1="229.0" y1="172.2" x2="196.3" y2="153.3" opacity="1.0" stroke="rgb(0,0,0)" stroke-width="2.0"/>
<line x1="196.3" y1="153.3" x2="196.3" y2="115.6" opacity="1.0" stroke="rgb(0,0,0)" stroke-width="2.0"/>
<line x1="203.5" y1="147.3" x2="203.5" y2="121.6" opacity="1.0" stroke="rgb(0,0,0)" stroke-width="2.0"/>
<line x1="196.3" y1="115.6" x2="229.0" y2="96.7" opacity="1.0" stroke="rgb(0,0,0)" stroke-width="2.0"/>
<line x1="229.0" y1="96.7" x2="261.7" y2="115.6" opacity="1.0" stroke="rgb(0,0,0)" stroke-width="2.0"/>
<line x1="230.6" y1="105.9" x2="252.9" y2="118.8" opacity="1.0" stroke="rgb(0,0,0)" stroke-width="2.0"/>
<line x1="261.7" y1="115.6" x2="261.7" y2="153.3" opacity="1.0" stroke="rgb(0,0,0)" stroke-width="2.0"/>
<line x1="261.7" y1="153.3" x2="229.0" y2="172.2" opacity="1.0" stroke="rgb(0,0,0)" stroke-width="2.0"/>
<line x1="252.9" y1="150.1" x2="230.6" y2="163.0" opacity="1.0" stroke="rgb(0,0,0)" stroke-width="2.0"/>
<line x1="163.6" y1="58.9" x2="130.9" y2="40.0" opacity="1.0" stroke="rgb(0,0,0)" stroke-width="2.0"/>
<line x1="130.9" y1="40.0" x2="98.1" y2="58.9" opacity="1.0" stroke="rgb(0,0,0)" stroke-width="2.0"/>
<line x1="129.3" y1="49.2" x2="106.9" y2="62.1" opacity="1.0" stroke="rgb(0,0,0)" stroke-width="2.0"/>
<line x1="98.1" y1="96.7" x2="130.9" y2="115.6" opacity="1.0" stroke="rgb(0,0,0)" stroke-width="2.0"/>
<line x1="106.9" y1="93.4" x2="129.3" y2="106.3" opacity="1.0" stroke="rgb(0,0,0)" stroke-width="2.0"/>
<line x1="130.9" y1="115.6" x2="163.6" y2="96.7" opacity="1.0" stroke="rgb(0,0,0)" stroke-width="2.0"/>
<line x1="163.6" y1="96.7" x2="163.6" y2="58.9" opacity="1.0" stroke="rgb(0,0,0)" stroke-width="2.0"/>
<line x1="156.4" y1="90.7" x2="156.4" y2="64.9" opacity="1.0" stroke="rgb(0,0,0)" stroke-width="2.0"/>
<text x="56.205221" y="55.214914" fill="rgb(12,12,255)" stroke-width="0" font-weight="bold" font-size="16">N</text>
<text x="56.205221" y="39.214914" fill="rgb(12,12,255)" stroke-width="0" font-weight="bold" font-size="16">H</text>
<text x="454.015690" y="85.777778" fill="rgb(102,102,102)" stroke-width="0" font-weight="bold" font-size="16">CH</text>
<text x="478.015690" y="89.457778" fill="rgb(102,102,102)" stroke-width="0" font-weight="bold" font-size="13">3</text>
<text x="290.433114" y="369.111111" fill="rgb(102,102,102)" stroke-width="0" font-weight="bold" font-size="16">CH</text>
<text x="314.433114" y="372.791111" fill="rgb(102,102,102)" stroke-width="0" font-weight="bold" font-size="13">3</text>
<text x="288.433114" y="180.222222" fill="rgb(12,12,255)" stroke-width="0" font-weight="bold" font-size="16">N</text>
</svg>
</g>
</svg>