<svg xmlns="http://www.w3.org/2000/svg" x="0" y="0" viewBox="0 0 100 100">
<title>C_2_L - Open Babel Depiction</title>
<rect x="0" y="0" width="100" height="100" fill="white"/>
<g transform="translate(0,0)">
<svg width="100" height="100" x="0" y="0" viewBox="0 0 420.941 440.854" font-family="sans-serif" stroke="rgb(0,0,0)" stroke-width="2" stroke-linecap="round">
<line x1="288.0" y1="218.9" x2="237.2" y2="189.7" opacity="1.0" stroke="rgb(0,0,0)" stroke-width="2.0"/>
<line x1="226.0" y1="170.2" x2="226.0" y2="147.4" opacity="1.0" stroke="rgb(0,0,0)" stroke-width="2.0"/>
<line x1="349.9" y1="254.7" x2="369.7" y2="266.1" opacity="1.0" stroke="rgb(0,0,0)" stroke-width="2.0"/>
<line x1="226.0" y1="75.8" x2="226.0" y2="53.0" opacity="1.0" stroke="rgb(0,0,0)" stroke-width="2.0"/>
<line x1="214.7" y1="189.7" x2="102.0" y2="254.7" opacity="1.0" stroke="rgb(0,0,0)" stroke-width="2.0"/>
<line x1="102.0" y1="290.5" x2="133.0" y2="308.4" opacity="1.0" stroke="rgb(0,0,0)" stroke-width="2.0"/>
<line x1="207.0" y1="400.9" x2="171.4" y2="397.1" opacity="1.0" stroke="rgb(0,0,0)" stroke-width="2.0"/>
<line x1="201.8" y1="393.1" x2="178.1" y2="390.6" opacity="1.0" stroke="rgb(0,0,0)" stroke-width="2.0"/>
<line x1="171.4" y1="397.1" x2="164.0" y2="362.1" opacity="1.0" stroke="rgb(0,0,0)" stroke-width="2.0"/>
<line x1="164.0" y1="362.1" x2="195.0" y2="344.2" opacity="1.0" stroke="rgb(0,0,0)" stroke-width="2.0"/>
<line x1="195.0" y1="344.2" x2="211.9" y2="359.5" opacity="1.0" stroke="rgb(0,0,0)" stroke-width="2.0"/>
<line x1="216.3" y1="380.0" x2="207.0" y2="400.9" opacity="1.0" stroke="rgb(0,0,0)" stroke-width="2.0"/>
<line x1="319.0" y1="272.6" x2="288.0" y2="254.7" opacity="1.0" stroke="rgb(0,0,0)" stroke-width="2.0"/>
<line x1="288.0" y1="254.7" x2="288.0" y2="218.9" opacity="1.0" stroke="rgb(0,0,0)" stroke-width="2.0"/>
<line x1="295.2" y1="248.7" x2="295.2" y2="224.9" opacity="1.0" stroke="rgb(0,0,0)" stroke-width="2.0"/>
<line x1="288.0" y1="218.9" x2="319.0" y2="201.1" opacity="1.0" stroke="rgb(0,0,0)" stroke-width="2.0"/>
<line x1="319.0" y1="201.1" x2="349.9" y2="218.9" opacity="1.0" stroke="rgb(0,0,0)" stroke-width="2.0"/>
<line x1="320.5" y1="210.3" x2="341.1" y2="222.2" opacity="1.0" stroke="rgb(0,0,0)" stroke-width="2.0"/>
<line x1="349.9" y1="218.9" x2="349.9" y2="254.7" opacity="1.0" stroke="rgb(0,0,0)" stroke-width="2.0"/>
<line x1="349.9" y1="254.7" x2="319.0" y2="272.6" opacity="1.0" stroke="rgb(0,0,0)" stroke-width="2.0"/>
<line x1="341.1" y1="251.5" x2="320.5" y2="263.4" opacity="1.0" stroke="rgb(0,0,0)" stroke-width="2.0"/>
<line x1="195.0" y1="129.5" x2="195.0" y2="93.7" opacity="1.0" stroke="rgb(0,0,0)" stroke-width="2.0"/>
<line x1="195.0" y1="93.7" x2="226.0" y2="75.8" opacity="1.0" stroke="rgb(0,0,0)" stroke-width="2.0"/>
<line x1="203.8" y1="96.9" x2="224.4" y2="85.0" opacity="1.0" stroke="rgb(0,0,0)" stroke-width="2.0"/>
<line x1="226.0" y1="75.8" x2="257.0" y2="93.7" opacity="1.0" stroke="rgb(0,0,0)" stroke-width="2.0"/>
<line x1="257.0" y1="93.7" x2="257.0" y2="129.5" opacity="1.0" stroke="rgb(0,0,0)" stroke-width="2.0"/>
<line x1="249.8" y1="99.7" x2="249.8" y2="123.5" opacity="1.0" stroke="rgb(0,0,0)" stroke-width="2.0"/>
<line x1="257.0" y1="129.5" x2="226.0" y2="147.4" opacity="1.0" stroke="rgb(0,0,0)" stroke-width="2.0"/>
<line x1="226.0" y1="147.4" x2="195.0" y2="129.5" opacity="1.0" stroke="rgb(0,0,0)" stroke-width="2.0"/>
<line x1="224.4" y1="138.1" x2="203.8" y2="126.2" opacity="1.0" stroke="rgb(0,0,0)" stroke-width="2.0"/>
<line x1="71.0" y1="236.8" x2="40.0" y2="254.7" opacity="1.0" stroke="rgb(0,0,0)" stroke-width="2.0"/>
<line x1="40.0" y1="254.7" x2="40.0" y2="290.5" opacity="1.0" stroke="rgb(0,0,0)" stroke-width="2.0"/>
<line x1="47.2" y1="260.7" x2="47.2" y2="284.5" opacity="1.0" stroke="rgb(0,0,0)" stroke-width="2.0"/>
<line x1="40.0" y1="290.5" x2="71.0" y2="308.4" opacity="1.0" stroke="rgb(0,0,0)" stroke-width="2.0"/>
<line x1="71.0" y1="308.4" x2="102.0" y2="290.5" opacity="1.0" stroke="rgb(0,0,0)" stroke-width="2.0"/>
<line x1="72.6" y1="299.2" x2="93.2" y2="287.3" opacity="1.0" stroke="rgb(0,0,0)" stroke-width="2.0"/>
<line x1="102.0" y1="290.5" x2="102.0" y2="254.7" opacity="1.0" stroke="rgb(0,0,0)" stroke-width="2.0"/>
<line x1="102.0" y1="254.7" x2="71.0" y2="236.8" opacity="1.0" stroke="rgb(0,0,0)" stroke-width="2.0"/>
<line x1="93.2" y1="258.0" x2="72.6" y2="246.1" opacity="1.0" stroke="rgb(0,0,0)" stroke-width="2.0"/>
<line x1="164.0" y1="290.5" x2="195.0" y2="308.4" opacity="1.0" stroke="rgb(0,0,0)" stroke-width="2.0"/>
<line x1="195.0" y1="308.4" x2="195.0" y2="344.2" opacity="1.0" stroke="rgb(0,0,0)" stroke-width="2.0"/>
<line x1="187.8" y1="314.4" x2="187.8" y2="338.2" opacity="1.0" stroke="rgb(0,0,0)" stroke-width="2.0"/>
<line x1="164.0" y1="362.1" x2="133.0" y2="344.2" opacity="1.0" stroke="rgb(0,0,0)" stroke-width="2.0"/>
<line x1="162.4" y1="352.9" x2="141.8" y2="341.0" opacity="1.0" stroke="rgb(0,0,0)" stroke-width="2.0"/>
<line x1="133.0" y1="344.2" x2="133.0" y2="308.4" opacity="1.0" stroke="rgb(0,0,0)" stroke-width="2.0"/>
<line x1="133.0" y1="308.4" x2="164.0" y2="290.5" opacity="1.0" stroke="rgb(0,0,0)" stroke-width="2.0"/>
<line x1="141.8" y1="311.7" x2="162.4" y2="299.8" opacity="1.0" stroke="rgb(0,0,0)" stroke-width="2.0"/>
<text x="215.569729" y="376.158359" fill="rgb(12,12,255)" stroke-width="0" font-weight="bold" font-size="16">NH</text>
<text x="221.967560" y="48.000000" fill="rgb(102,102,102)" stroke-width="0" font-weight="bold" font-size="16">CH</text>
<text x="245.967560" y="51.680000" fill="rgb(102,102,102)" stroke-width="0" font-weight="bold" font-size="13">3</text>
<text x="376.940527" y="280.631579" fill="rgb(102,102,102)" stroke-width="0" font-weight="bold" font-size="16">CH</text>
<text x="400.940527" y="284.311579" fill="rgb(102,102,102)" stroke-width="0" font-weight="bold" font-size="13">3</text>
<text x="219.967560" y="191.157895" fill="rgb(12,12,255)" stroke-width="0" font-weight="bold" font-size="16">N</text>
</svg>
</g>
</svg>
