<svg xmlns="http://www.w3.org/2000/svg" x="0" y="0" viewBox="0 0 100 100">
<title>C_2_S - Open Babel Depiction</title>
<rect x="0" y="0" width="100" height="100" fill="white"/>
<g transform="translate(0,0)">
<svg width="100" height="100" x="0" y="0" viewBox="0 0 419.856 436.757" font-family="sans-serif" stroke="rgb(0,0,0)" stroke-width="2" stroke-linecap="round">
<line x1="132.7" y1="218.4" x2="183.2" y2="189.2" opacity="1.0" stroke="rgb(0,0,0)" stroke-width="2.0"/>
<line x1="194.5" y1="169.7" x2="194.5" y2="147.0" opacity="1.0" stroke="rgb(0,0,0)" stroke-width="2.0"/>
<line x1="70.9" y1="254.1" x2="51.3" y2="265.4" opacity="1.0" stroke="rgb(0,0,0)" stroke-width="2.0"/>
<line x1="194.5" y1="75.7" x2="194.5" y2="53.0" opacity="1.0" stroke="rgb(0,0,0)" stroke-width="2.0"/>
<line x1="205.7" y1="189.2" x2="318.1" y2="254.1" opacity="1.0" stroke="rgb(0,0,0)" stroke-width="2.0"/>
<line x1="225.4" y1="343.2" x2="194.5" y2="361.1" opacity="1.0" stroke="rgb(0,0,0)" stroke-width="2.0"/>
<line x1="194.5" y1="361.1" x2="194.5" y2="383.8" opacity="1.0" stroke="rgb(0,0,0)" stroke-width="2.0"/>
<line x1="193.0" y1="363.7" x2="173.3" y2="352.3" opacity="1.0" stroke="rgb(0,0,0)" stroke-width="2.0"/>
<line x1="196.0" y1="358.5" x2="176.3" y2="347.1" opacity="1.0" stroke="rgb(0,0,0)" stroke-width="2.0"/>
<line x1="318.1" y1="289.7" x2="287.2" y2="307.6" opacity="1.0" stroke="rgb(0,0,0)" stroke-width="2.0"/>
<line x1="70.9" y1="218.4" x2="101.8" y2="200.5" opacity="1.0" stroke="rgb(0,0,0)" stroke-width="2.0"/>
<line x1="101.8" y1="200.5" x2="132.7" y2="218.4" opacity="1.0" stroke="rgb(0,0,0)" stroke-width="2.0"/>
<line x1="103.4" y1="209.8" x2="123.9" y2="221.6" opacity="1.0" stroke="rgb(0,0,0)" stroke-width="2.0"/>
<line x1="132.7" y1="218.4" x2="132.7" y2="254.1" opacity="1.0" stroke="rgb(0,0,0)" stroke-width="2.0"/>
<line x1="132.7" y1="254.1" x2="101.8" y2="271.9" opacity="1.0" stroke="rgb(0,0,0)" stroke-width="2.0"/>
<line x1="123.9" y1="250.8" x2="103.4" y2="262.7" opacity="1.0" stroke="rgb(0,0,0)" stroke-width="2.0"/>
<line x1="101.8" y1="271.9" x2="70.9" y2="254.1" opacity="1.0" stroke="rgb(0,0,0)" stroke-width="2.0"/>
<line x1="70.9" y1="254.1" x2="70.9" y2="218.4" opacity="1.0" stroke="rgb(0,0,0)" stroke-width="2.0"/>
<line x1="78.1" y1="248.1" x2="78.1" y2="224.4" opacity="1.0" stroke="rgb(0,0,0)" stroke-width="2.0"/>
<line x1="225.4" y1="129.2" x2="225.4" y2="93.5" opacity="1.0" stroke="rgb(0,0,0)" stroke-width="2.0"/>
<line x1="225.4" y1="93.5" x2="194.5" y2="75.7" opacity="1.0" stroke="rgb(0,0,0)" stroke-width="2.0"/>
<line x1="216.6" y1="96.7" x2="196.1" y2="84.9" opacity="1.0" stroke="rgb(0,0,0)" stroke-width="2.0"/>
<line x1="194.5" y1="75.7" x2="163.6" y2="93.5" opacity="1.0" stroke="rgb(0,0,0)" stroke-width="2.0"/>
<line x1="163.6" y1="93.5" x2="163.6" y2="129.2" opacity="1.0" stroke="rgb(0,0,0)" stroke-width="2.0"/>
<line x1="170.8" y1="99.5" x2="170.8" y2="123.2" opacity="1.0" stroke="rgb(0,0,0)" stroke-width="2.0"/>
<line x1="163.6" y1="129.2" x2="194.5" y2="147.0" opacity="1.0" stroke="rgb(0,0,0)" stroke-width="2.0"/>
<line x1="194.5" y1="147.0" x2="225.4" y2="129.2" opacity="1.0" stroke="rgb(0,0,0)" stroke-width="2.0"/>
<line x1="196.1" y1="137.8" x2="216.6" y2="126.0" opacity="1.0" stroke="rgb(0,0,0)" stroke-width="2.0"/>
<line x1="349.0" y1="236.2" x2="379.9" y2="254.1" opacity="1.0" stroke="rgb(0,0,0)" stroke-width="2.0"/>
<line x1="379.9" y1="254.1" x2="379.9" y2="289.7" opacity="1.0" stroke="rgb(0,0,0)" stroke-width="2.0"/>
<line x1="372.7" y1="260.1" x2="372.7" y2="283.7" opacity="1.0" stroke="rgb(0,0,0)" stroke-width="2.0"/>
<line x1="379.9" y1="289.7" x2="349.0" y2="307.6" opacity="1.0" stroke="rgb(0,0,0)" stroke-width="2.0"/>
<line x1="349.0" y1="307.6" x2="318.1" y2="289.7" opacity="1.0" stroke="rgb(0,0,0)" stroke-width="2.0"/>
<line x1="347.4" y1="298.3" x2="326.9" y2="286.5" opacity="1.0" stroke="rgb(0,0,0)" stroke-width="2.0"/>
<line x1="318.1" y1="289.7" x2="318.1" y2="254.1" opacity="1.0" stroke="rgb(0,0,0)" stroke-width="2.0"/>
<line x1="318.1" y1="254.1" x2="349.0" y2="236.2" opacity="1.0" stroke="rgb(0,0,0)" stroke-width="2.0"/>
<line x1="326.9" y1="257.3" x2="347.4" y2="245.5" opacity="1.0" stroke="rgb(0,0,0)" stroke-width="2.0"/>
<line x1="287.2" y1="343.2" x2="256.3" y2="361.1" opacity="1.0" stroke="rgb(0,0,0)" stroke-width="2.0"/>
<line x1="256.3" y1="361.1" x2="225.4" y2="343.2" opacity="1.0" stroke="rgb(0,0,0)" stroke-width="2.0"/>
<line x1="254.7" y1="351.8" x2="234.2" y2="340.0" opacity="1.0" stroke="rgb(0,0,0)" stroke-width="2.0"/>
<line x1="225.4" y1="343.2" x2="225.4" y2="307.6" opacity="1.0" stroke="rgb(0,0,0)" stroke-width="2.0"/>
<line x1="225.4" y1="307.6" x2="256.3" y2="289.7" opacity="1.0" stroke="rgb(0,0,0)" stroke-width="2.0"/>
<line x1="234.2" y1="310.8" x2="254.7" y2="299.0" opacity="1.0" stroke="rgb(0,0,0)" stroke-width="2.0"/>
<line x1="256.3" y1="289.7" x2="287.2" y2="307.6" opacity="1.0" stroke="rgb(0,0,0)" stroke-width="2.0"/>
<line x1="287.2" y1="307.6" x2="287.2" y2="343.2" opacity="1.0" stroke="rgb(0,0,0)" stroke-width="2.0"/>
<line x1="280.0" y1="313.6" x2="280.0" y2="337.2" opacity="1.0" stroke="rgb(0,0,0)" stroke-width="2.0"/>
<text x="157.584166" y="351.243243" fill="rgb(255,12,12)" stroke-width="0" font-weight="bold" font-size="16">O</text>
<text x="190.480207" y="404.756757" fill="rgb(102,102,102)" stroke-width="0" font-weight="bold" font-size="16">CH</text>
<text x="214.480207" y="408.436757" fill="rgb(102,102,102)" stroke-width="0" font-weight="bold" font-size="13">3</text>
<text x="190.480207" y="48.000000" fill="rgb(102,102,102)" stroke-width="0" font-weight="bold" font-size="16">CH</text>
<text x="214.480207" y="51.680000" fill="rgb(102,102,102)" stroke-width="0" font-weight="bold" font-size="13">3</text>
<text x="14.000000" y="279.891892" fill="rgb(102,102,102)" stroke-width="0" font-weight="bold" font-size="16">H</text>
<text x="26.000000" y="283.571892" fill="rgb(102,102,102)" stroke-width="0" font-weight="bold" font-size="13">3</text>
<text x="32.500000" y="279.891892" fill="rgb(102,102,102)" stroke-width="0" font-weight="bold" font-size="16">C</text>
<text x="188.480207" y="190.702703" fill="rgb(12,12,255)" stroke-width="0" font-weight="bold" font-size="16">N</text>
</svg>
</g>
</svg>
