<svg xmlns="http://www.w3.org/2000/svg" x="0" y="0" viewBox="0 0 100 100">
<title>C_3_R - Open Babel Depiction</title>
<rect x="0" y="0" width="100" height="100" fill="white"/>
<g transform="translate(0,0)">
<svg width="100" height="100" x="0" y="0" viewBox="0 0 555.393 464.255" font-family="sans-serif" stroke="rgb(0,0,0)" stroke-width="2" stroke-linecap="round">
<line x1="135.1" y1="204.7" x2="187.2" y2="234.8" opacity="1.0" stroke="rgb(0,0,0)" stroke-width="2.0"/>
<line x1="198.5" y1="254.3" x2="198.5" y2="314.5" opacity="1.0" stroke="rgb(0,0,0)" stroke-width="2.0"/>
<line x1="71.7" y1="168.1" x2="51.3" y2="156.3" opacity="1.0" stroke="rgb(0,0,0)" stroke-width="2.0"/>
<line x1="198.5" y1="387.7" x2="198.5" y2="411.3" opacity="1.0" stroke="rgb(0,0,0)" stroke-width="2.0"/>
<line x1="209.7" y1="234.8" x2="261.8" y2="204.7" opacity="1.0" stroke="rgb(0,0,0)" stroke-width="2.0"/>
<line x1="480.7" y1="63.6" x2="480.7" y2="53.0" opacity="1.0" stroke="rgb(0,0,0)" stroke-width="2.0"/>
<line x1="486.7" y1="63.6" x2="486.7" y2="53.0" opacity="1.0" stroke="rgb(0,0,0)" stroke-width="2.0"/>
<line x1="495.0" y1="83.1" x2="504.1" y2="88.4" opacity="1.0" stroke="rgb(0,0,0)" stroke-width="2.0"/>
<line x1="452.0" y1="94.9" x2="472.4" y2="83.1" opacity="1.0" stroke="rgb(0,0,0)" stroke-width="2.0"/>
<line x1="325.2" y1="168.1" x2="388.6" y2="131.5" opacity="1.0" stroke="rgb(0,0,0)" stroke-width="2.0"/>
<line x1="103.4" y1="149.8" x2="135.1" y2="168.1" opacity="1.0" stroke="rgb(0,0,0)" stroke-width="2.0"/>
<line x1="135.1" y1="168.1" x2="135.1" y2="204.7" opacity="1.0" stroke="rgb(0,0,0)" stroke-width="2.0"/>
<line x1="127.9" y1="174.1" x2="127.9" y2="198.7" opacity="1.0" stroke="rgb(0,0,0)" stroke-width="2.0"/>
<line x1="135.1" y1="204.7" x2="103.4" y2="223.0" opacity="1.0" stroke="rgb(0,0,0)" stroke-width="2.0"/>
<line x1="103.4" y1="223.0" x2="71.7" y2="204.7" opacity="1.0" stroke="rgb(0,0,0)" stroke-width="2.0"/>
<line x1="101.8" y1="213.7" x2="80.5" y2="201.4" opacity="1.0" stroke="rgb(0,0,0)" stroke-width="2.0"/>
<line x1="71.7" y1="204.7" x2="71.7" y2="168.1" opacity="1.0" stroke="rgb(0,0,0)" stroke-width="2.0"/>
<line x1="71.7" y1="168.1" x2="103.4" y2="149.8" opacity="1.0" stroke="rgb(0,0,0)" stroke-width="2.0"/>
<line x1="80.5" y1="171.3" x2="101.8" y2="159.0" opacity="1.0" stroke="rgb(0,0,0)" stroke-width="2.0"/>
<line x1="230.2" y1="332.8" x2="230.2" y2="369.4" opacity="1.0" stroke="rgb(0,0,0)" stroke-width="2.0"/>
<line x1="230.2" y1="369.4" x2="198.5" y2="387.7" opacity="1.0" stroke="rgb(0,0,0)" stroke-width="2.0"/>
<line x1="221.4" y1="366.1" x2="200.1" y2="378.4" opacity="1.0" stroke="rgb(0,0,0)" stroke-width="2.0"/>
<line x1="198.5" y1="387.7" x2="166.8" y2="369.4" opacity="1.0" stroke="rgb(0,0,0)" stroke-width="2.0"/>
<line x1="166.8" y1="369.4" x2="166.8" y2="332.8" opacity="1.0" stroke="rgb(0,0,0)" stroke-width="2.0"/>
<line x1="174.0" y1="363.4" x2="174.0" y2="338.8" opacity="1.0" stroke="rgb(0,0,0)" stroke-width="2.0"/>
<line x1="166.8" y1="332.8" x2="198.5" y2="314.5" opacity="1.0" stroke="rgb(0,0,0)" stroke-width="2.0"/>
<line x1="198.5" y1="314.5" x2="230.2" y2="332.8" opacity="1.0" stroke="rgb(0,0,0)" stroke-width="2.0"/>
<line x1="200.1" y1="323.7" x2="221.4" y2="336.0" opacity="1.0" stroke="rgb(0,0,0)" stroke-width="2.0"/>
<line x1="230.2" y1="149.8" x2="230.2" y2="113.2" opacity="1.0" stroke="rgb(0,0,0)" stroke-width="2.0"/>
<line x1="237.4" y1="143.8" x2="237.4" y2="119.2" opacity="1.0" stroke="rgb(0,0,0)" stroke-width="2.0"/>
<line x1="230.2" y1="113.2" x2="261.8" y2="94.9" opacity="1.0" stroke="rgb(0,0,0)" stroke-width="2.0"/>
<line x1="261.8" y1="94.9" x2="293.5" y2="113.2" opacity="1.0" stroke="rgb(0,0,0)" stroke-width="2.0"/>
<line x1="263.4" y1="104.1" x2="284.7" y2="116.4" opacity="1.0" stroke="rgb(0,0,0)" stroke-width="2.0"/>
<line x1="293.5" y1="113.2" x2="293.5" y2="149.8" opacity="1.0" stroke="rgb(0,0,0)" stroke-width="2.0"/>
<line x1="293.5" y1="149.8" x2="261.8" y2="168.1" opacity="1.0" stroke="rgb(0,0,0)" stroke-width="2.0"/>
<line x1="284.7" y1="146.6" x2="263.4" y2="158.8" opacity="1.0" stroke="rgb(0,0,0)" stroke-width="2.0"/>
<line x1="261.8" y1="168.1" x2="230.2" y2="149.8" opacity="1.0" stroke="rgb(0,0,0)" stroke-width="2.0"/>
<line x1="325.2" y1="168.1" x2="293.5" y2="149.8" opacity="1.0" stroke="rgb(0,0,0)" stroke-width="2.0"/>
<line x1="261.8" y1="168.1" x2="261.8" y2="204.7" opacity="1.0" stroke="rgb(0,0,0)" stroke-width="2.0"/>
<line x1="261.8" y1="204.7" x2="293.5" y2="223.0" opacity="1.0" stroke="rgb(0,0,0)" stroke-width="2.0"/>
<line x1="270.6" y1="201.4" x2="291.9" y2="213.7" opacity="1.0" stroke="rgb(0,0,0)" stroke-width="2.0"/>
<line x1="293.5" y1="223.0" x2="325.2" y2="204.7" opacity="1.0" stroke="rgb(0,0,0)" stroke-width="2.0"/>
<line x1="325.2" y1="204.7" x2="325.2" y2="168.1" opacity="1.0" stroke="rgb(0,0,0)" stroke-width="2.0"/>
<line x1="318.0" y1="198.7" x2="318.0" y2="174.1" opacity="1.0" stroke="rgb(0,0,0)" stroke-width="2.0"/>
<line x1="325.2" y1="277.9" x2="356.9" y2="259.6" opacity="1.0" stroke="rgb(0,0,0)" stroke-width="2.0"/>
<line x1="356.9" y1="259.6" x2="356.9" y2="223.0" opacity="1.0" stroke="rgb(0,0,0)" stroke-width="2.0"/>
<line x1="349.7" y1="253.6" x2="349.7" y2="229.0" opacity="1.0" stroke="rgb(0,0,0)" stroke-width="2.0"/>
<line x1="356.9" y1="223.0" x2="325.2" y2="204.7" opacity="1.0" stroke="rgb(0,0,0)" stroke-width="2.0"/>
<line x1="293.5" y1="223.0" x2="293.5" y2="259.6" opacity="1.0" stroke="rgb(0,0,0)" stroke-width="2.0"/>
<line x1="293.5" y1="259.6" x2="325.2" y2="277.9" opacity="1.0" stroke="rgb(0,0,0)" stroke-width="2.0"/>
<line x1="302.3" y1="256.3" x2="323.6" y2="268.6" opacity="1.0" stroke="rgb(0,0,0)" stroke-width="2.0"/>
<line x1="431.6" y1="143.3" x2="452.0" y2="131.5" opacity="1.0" stroke="rgb(0,0,0)" stroke-width="2.0"/>
<line x1="452.0" y1="131.5" x2="452.0" y2="94.9" opacity="1.0" stroke="rgb(0,0,0)" stroke-width="2.0"/>
<line x1="444.8" y1="125.5" x2="444.8" y2="100.9" opacity="1.0" stroke="rgb(0,0,0)" stroke-width="2.0"/>
<line x1="452.0" y1="94.9" x2="420.3" y2="76.6" opacity="1.0" stroke="rgb(0,0,0)" stroke-width="2.0"/>
<line x1="420.3" y1="76.6" x2="388.6" y2="94.9" opacity="1.0" stroke="rgb(0,0,0)" stroke-width="2.0"/>
<line x1="418.7" y1="85.8" x2="397.4" y2="98.1" opacity="1.0" stroke="rgb(0,0,0)" stroke-width="2.0"/>
<line x1="388.6" y1="94.9" x2="388.6" y2="131.5" opacity="1.0" stroke="rgb(0,0,0)" stroke-width="2.0"/>
<line x1="388.6" y1="131.5" x2="409.9" y2="143.7" opacity="1.0" stroke="rgb(0,0,0)" stroke-width="2.0"/>
<line x1="397.4" y1="128.3" x2="411.4" y2="136.3" opacity="1.0" stroke="rgb(0,0,0)" stroke-width="2.0"/>
<text x="414.314135" y="157.787234" fill="rgb(12,12,255)" stroke-width="0" font-weight="bold" font-size="16">N</text>
<text x="477.699824" y="84.595745" fill="rgb(12,12,255)" stroke-width="0" font-weight="bold" font-size="16">N</text>
<text x="477.699824" y="48.000000" fill="rgb(255,12,12)" stroke-width="0" font-weight="bold" font-size="16">O</text>
<text x="520.192668" y="90.861617" fill="rgb(255,12,12)" stroke-width="0" font-weight="bold" font-size="16"/>
<text x="520.192668" y="90.861617" fill="rgb(255,12,12)" stroke-width="0" font-weight="bold" font-size="32">.</text>
<text x="509.392668" y="102.893617" fill="rgb(255,12,12)" stroke-width="0" font-weight="bold" font-size="16">O</text>
<text x="192.464223" y="249.276596" fill="rgb(12,12,255)" stroke-width="0" font-weight="bold" font-size="16">N</text>
<text x="14.000000" y="157.787234" fill="rgb(102,102,102)" stroke-width="0" font-weight="bold" font-size="16">H</text>
<text x="26.000000" y="161.467234" fill="rgb(102,102,102)" stroke-width="0" font-weight="bold" font-size="13">3</text>
<text x="32.500000" y="157.787234" fill="rgb(102,102,102)" stroke-width="0" font-weight="bold" font-size="16">C</text>
<text x="194.464223" y="432.255319" fill="rgb(102,102,102)" stroke-width="0" font-weight="bold" font-size="16">CH</text>
<text x="218.464223" y="435.935319" fill="rgb(102,102,102)" stroke-width="0" font-weight="bold" font-size="13">3</text>
</svg>
</g>
</svg>
