<svg xmlns="http://www.w3.org/2000/svg" xmlns:xlink="http://www.w3.org/1999/xlink" xmlns:cml="http://www.xml-cml.org/schema" version="1.1" id="topsvg" x="0" y="0" viewBox="0 0 100 100">
<title>C_3_N - Open Babel Depiction</title>
<rect x="0" y="0" width="100" height="100" fill="white"/>
<g transform="translate(0,0)">
<svg width="100" height="100" x="0" y="0" viewBox="0 0 483.023 413.856" font-family="sans-serif" stroke="rgb(0,0,0)" stroke-width="2" stroke-linecap="round">
<line x1="134.3" y1="156.2" x2="185.8" y2="186.0" opacity="1.0" stroke="rgb(0,0,0)" stroke-width="2.0"/>
<line x1="197.1" y1="205.5" x2="197.1" y2="265.0" opacity="1.0" stroke="rgb(0,0,0)" stroke-width="2.0"/>
<line x1="71.4" y1="119.9" x2="51.3" y2="108.3" opacity="1.0" stroke="rgb(0,0,0)" stroke-width="2.0"/>
<line x1="197.1" y1="337.6" x2="197.1" y2="360.9" opacity="1.0" stroke="rgb(0,0,0)" stroke-width="2.0"/>
<line x1="208.4" y1="186.0" x2="259.9" y2="156.2" opacity="1.0" stroke="rgb(0,0,0)" stroke-width="2.0"/>
<line x1="322.8" y1="119.9" x2="385.6" y2="83.6" opacity="1.0" stroke="rgb(0,0,0)" stroke-width="2.0"/>
<line x1="389.4" y1="47.5" x2="412.2" y2="42.7" opacity="1.0" stroke="rgb(0,0,0)" stroke-width="2.0"/>
<line x1="431.4" y1="51.3" x2="443.0" y2="71.4" opacity="1.0" stroke="rgb(0,0,0)" stroke-width="2.0"/>
<line x1="443.0" y1="71.4" x2="418.7" y2="98.4" opacity="1.0" stroke="rgb(0,0,0)" stroke-width="2.0"/>
<line x1="433.7" y1="71.1" x2="417.4" y2="89.1" opacity="1.0" stroke="rgb(0,0,0)" stroke-width="2.0"/>
<line x1="418.7" y1="98.4" x2="385.6" y2="83.6" opacity="1.0" stroke="rgb(0,0,0)" stroke-width="2.0"/>
<line x1="385.6" y1="83.6" x2="389.4" y2="47.5" opacity="1.0" stroke="rgb(0,0,0)" stroke-width="2.0"/>
<line x1="393.4" y1="78.4" x2="395.9" y2="54.3" opacity="1.0" stroke="rgb(0,0,0)" stroke-width="2.0"/>
<line x1="102.8" y1="101.8" x2="134.3" y2="119.9" opacity="1.0" stroke="rgb(0,0,0)" stroke-width="2.0"/>
<line x1="134.3" y1="119.9" x2="134.3" y2="156.2" opacity="1.0" stroke="rgb(0,0,0)" stroke-width="2.0"/>
<line x1="127.1" y1="125.9" x2="127.1" y2="150.2" opacity="1.0" stroke="rgb(0,0,0)" stroke-width="2.0"/>
<line x1="134.3" y1="156.2" x2="102.8" y2="174.3" opacity="1.0" stroke="rgb(0,0,0)" stroke-width="2.0"/>
<line x1="102.8" y1="174.3" x2="71.4" y2="156.2" opacity="1.0" stroke="rgb(0,0,0)" stroke-width="2.0"/>
<line x1="101.2" y1="165.1" x2="80.2" y2="152.9" opacity="1.0" stroke="rgb(0,0,0)" stroke-width="2.0"/>
<line x1="71.4" y1="156.2" x2="71.4" y2="119.9" opacity="1.0" stroke="rgb(0,0,0)" stroke-width="2.0"/>
<line x1="71.4" y1="119.9" x2="102.8" y2="101.8" opacity="1.0" stroke="rgb(0,0,0)" stroke-width="2.0"/>
<line x1="80.2" y1="123.1" x2="101.2" y2="111.0" opacity="1.0" stroke="rgb(0,0,0)" stroke-width="2.0"/>
<line x1="228.5" y1="283.2" x2="228.5" y2="319.4" opacity="1.0" stroke="rgb(0,0,0)" stroke-width="2.0"/>
<line x1="228.5" y1="319.4" x2="197.1" y2="337.6" opacity="1.0" stroke="rgb(0,0,0)" stroke-width="2.0"/>
<line x1="219.7" y1="316.2" x2="198.7" y2="328.3" opacity="1.0" stroke="rgb(0,0,0)" stroke-width="2.0"/>
<line x1="197.1" y1="337.6" x2="165.7" y2="319.4" opacity="1.0" stroke="rgb(0,0,0)" stroke-width="2.0"/>
<line x1="165.7" y1="319.4" x2="165.7" y2="283.2" opacity="1.0" stroke="rgb(0,0,0)" stroke-width="2.0"/>
<line x1="172.9" y1="313.4" x2="172.9" y2="289.2" opacity="1.0" stroke="rgb(0,0,0)" stroke-width="2.0"/>
<line x1="165.7" y1="283.2" x2="197.1" y2="265.0" opacity="1.0" stroke="rgb(0,0,0)" stroke-width="2.0"/>
<line x1="197.1" y1="265.0" x2="228.5" y2="283.2" opacity="1.0" stroke="rgb(0,0,0)" stroke-width="2.0"/>
<line x1="198.7" y1="274.3" x2="219.7" y2="286.4" opacity="1.0" stroke="rgb(0,0,0)" stroke-width="2.0"/>
<line x1="291.3" y1="210.6" x2="322.8" y2="228.7" opacity="1.0" stroke="rgb(0,0,0)" stroke-width="2.0"/>
<line x1="300.1" y1="207.4" x2="321.2" y2="219.5" opacity="1.0" stroke="rgb(0,0,0)" stroke-width="2.0"/>
<line x1="322.8" y1="228.7" x2="354.2" y2="210.6" opacity="1.0" stroke="rgb(0,0,0)" stroke-width="2.0"/>
<line x1="354.2" y1="210.6" x2="354.2" y2="174.3" opacity="1.0" stroke="rgb(0,0,0)" stroke-width="2.0"/>
<line x1="347.0" y1="204.6" x2="347.0" y2="180.3" opacity="1.0" stroke="rgb(0,0,0)" stroke-width="2.0"/>
<line x1="354.2" y1="174.3" x2="322.8" y2="156.2" opacity="1.0" stroke="rgb(0,0,0)" stroke-width="2.0"/>
<line x1="322.8" y1="156.2" x2="291.3" y2="174.3" opacity="1.0" stroke="rgb(0,0,0)" stroke-width="2.0"/>
<line x1="321.2" y1="165.4" x2="300.1" y2="177.6" opacity="1.0" stroke="rgb(0,0,0)" stroke-width="2.0"/>
<line x1="291.3" y1="174.3" x2="291.3" y2="210.6" opacity="1.0" stroke="rgb(0,0,0)" stroke-width="2.0"/>
<line x1="322.8" y1="119.9" x2="322.8" y2="156.2" opacity="1.0" stroke="rgb(0,0,0)" stroke-width="2.0"/>
<line x1="291.3" y1="174.3" x2="259.9" y2="156.2" opacity="1.0" stroke="rgb(0,0,0)" stroke-width="2.0"/>
<line x1="259.9" y1="156.2" x2="259.9" y2="119.9" opacity="1.0" stroke="rgb(0,0,0)" stroke-width="2.0"/>
<line x1="267.1" y1="150.2" x2="267.1" y2="125.9" opacity="1.0" stroke="rgb(0,0,0)" stroke-width="2.0"/>
<line x1="259.9" y1="119.9" x2="291.3" y2="101.8" opacity="1.0" stroke="rgb(0,0,0)" stroke-width="2.0"/>
<line x1="291.3" y1="101.8" x2="322.8" y2="119.9" opacity="1.0" stroke="rgb(0,0,0)" stroke-width="2.0"/>
<line x1="292.9" y1="111.0" x2="314.0" y2="123.1" opacity="1.0" stroke="rgb(0,0,0)" stroke-width="2.0"/>
<line x1="228.5" y1="65.5" x2="259.9" y2="47.3" opacity="1.0" stroke="rgb(0,0,0)" stroke-width="2.0"/>
<line x1="259.9" y1="47.3" x2="291.3" y2="65.5" opacity="1.0" stroke="rgb(0,0,0)" stroke-width="2.0"/>
<line x1="261.5" y1="56.6" x2="282.6" y2="68.7" opacity="1.0" stroke="rgb(0,0,0)" stroke-width="2.0"/>
<line x1="291.3" y1="65.5" x2="291.3" y2="101.8" opacity="1.0" stroke="rgb(0,0,0)" stroke-width="2.0"/>
<line x1="259.9" y1="119.9" x2="228.5" y2="101.8" opacity="1.0" stroke="rgb(0,0,0)" stroke-width="2.0"/>
<line x1="228.5" y1="101.8" x2="228.5" y2="65.5" opacity="1.0" stroke="rgb(0,0,0)" stroke-width="2.0"/>
<line x1="235.7" y1="95.8" x2="235.7" y2="71.5" opacity="1.0" stroke="rgb(0,0,0)" stroke-width="2.0"/>
<text x="418.883037" y="48.000000" fill="rgb(178,178,0)" stroke-width="0" font-weight="bold" font-size="16">S</text>
<text x="191.092980" y="200.460381" fill="rgb(12,12,255)" stroke-width="0" font-weight="bold" font-size="16">N</text>
<text x="14.000000" y="109.762707" fill="rgb(102,102,102)" stroke-width="0" font-weight="bold" font-size="16">H</text>
<text x="26.000000" y="113.442707" fill="rgb(102,102,102)" stroke-width="0" font-weight="bold" font-size="13">3</text>
<text x="32.500000" y="109.762707" fill="rgb(102,102,102)" stroke-width="0" font-weight="bold" font-size="16">C</text>
<text x="193.092980" y="381.855730" fill="rgb(102,102,102)" stroke-width="0" font-weight="bold" font-size="16">CH</text>
<text x="217.092980" y="385.535730" fill="rgb(102,102,102)" stroke-width="0" font-weight="bold" font-size="13">3</text>
</svg>
</g>
</svg>