<svg xmlns="http://www.w3.org/2000/svg" x="0" y="0" viewBox="0 0 100 100">
<title>C_3_O - Open Babel Depiction</title>
<rect x="0" y="0" width="100" height="100" fill="white"/>
<g transform="translate(0,0)">
<svg width="100" height="100" x="0" y="0" viewBox="0 0 489.394 425.455" font-family="sans-serif" stroke="rgb(0,0,0)" stroke-width="2" stroke-linecap="round">
<line x1="354.9" y1="258.2" x2="303.2" y2="228.3" opacity="1.0" stroke="rgb(0,0,0)" stroke-width="2.0"/>
<line x1="291.9" y1="208.8" x2="291.9" y2="149.1" opacity="1.0" stroke="rgb(0,0,0)" stroke-width="2.0"/>
<line x1="417.9" y1="294.5" x2="438.1" y2="306.2" opacity="1.0" stroke="rgb(0,0,0)" stroke-width="2.0"/>
<line x1="291.9" y1="76.4" x2="291.9" y2="53.0" opacity="1.0" stroke="rgb(0,0,0)" stroke-width="2.0"/>
<line x1="280.7" y1="228.3" x2="229.0" y2="258.2" opacity="1.0" stroke="rgb(0,0,0)" stroke-width="2.0"/>
<line x1="166.0" y1="294.5" x2="103.0" y2="330.9" opacity="1.0" stroke="rgb(0,0,0)" stroke-width="2.0"/>
<line x1="386.4" y1="312.7" x2="354.9" y2="294.5" opacity="1.0" stroke="rgb(0,0,0)" stroke-width="2.0"/>
<line x1="354.9" y1="294.5" x2="354.9" y2="258.2" opacity="1.0" stroke="rgb(0,0,0)" stroke-width="2.0"/>
<line x1="362.1" y1="288.5" x2="362.1" y2="264.2" opacity="1.0" stroke="rgb(0,0,0)" stroke-width="2.0"/>
<line x1="354.9" y1="258.2" x2="386.4" y2="240.0" opacity="1.0" stroke="rgb(0,0,0)" stroke-width="2.0"/>
<line x1="386.4" y1="240.0" x2="417.9" y2="258.2" opacity="1.0" stroke="rgb(0,0,0)" stroke-width="2.0"/>
<line x1="388.0" y1="249.2" x2="409.1" y2="261.4" opacity="1.0" stroke="rgb(0,0,0)" stroke-width="2.0"/>
<line x1="417.9" y1="258.2" x2="417.9" y2="294.5" opacity="1.0" stroke="rgb(0,0,0)" stroke-width="2.0"/>
<line x1="417.9" y1="294.5" x2="386.4" y2="312.7" opacity="1.0" stroke="rgb(0,0,0)" stroke-width="2.0"/>
<line x1="409.1" y1="291.3" x2="388.0" y2="303.5" opacity="1.0" stroke="rgb(0,0,0)" stroke-width="2.0"/>
<line x1="260.4" y1="130.9" x2="260.4" y2="94.5" opacity="1.0" stroke="rgb(0,0,0)" stroke-width="2.0"/>
<line x1="260.4" y1="94.5" x2="291.9" y2="76.4" opacity="1.0" stroke="rgb(0,0,0)" stroke-width="2.0"/>
<line x1="269.2" y1="97.8" x2="290.3" y2="85.6" opacity="1.0" stroke="rgb(0,0,0)" stroke-width="2.0"/>
<line x1="291.9" y1="76.4" x2="323.4" y2="94.5" opacity="1.0" stroke="rgb(0,0,0)" stroke-width="2.0"/>
<line x1="323.4" y1="94.5" x2="323.4" y2="130.9" opacity="1.0" stroke="rgb(0,0,0)" stroke-width="2.0"/>
<line x1="316.2" y1="100.5" x2="316.2" y2="124.9" opacity="1.0" stroke="rgb(0,0,0)" stroke-width="2.0"/>
<line x1="323.4" y1="130.9" x2="291.9" y2="149.1" opacity="1.0" stroke="rgb(0,0,0)" stroke-width="2.0"/>
<line x1="291.9" y1="149.1" x2="260.4" y2="130.9" opacity="1.0" stroke="rgb(0,0,0)" stroke-width="2.0"/>
<line x1="290.3" y1="139.9" x2="269.2" y2="127.7" opacity="1.0" stroke="rgb(0,0,0)" stroke-width="2.0"/>
<line x1="197.5" y1="203.6" x2="166.0" y2="185.5" opacity="1.0" stroke="rgb(0,0,0)" stroke-width="2.0"/>
<line x1="188.7" y1="206.9" x2="167.6" y2="194.7" opacity="1.0" stroke="rgb(0,0,0)" stroke-width="2.0"/>
<line x1="166.0" y1="185.5" x2="134.5" y2="203.6" opacity="1.0" stroke="rgb(0,0,0)" stroke-width="2.0"/>
<line x1="134.5" y1="203.6" x2="134.5" y2="240.0" opacity="1.0" stroke="rgb(0,0,0)" stroke-width="2.0"/>
<line x1="141.7" y1="209.6" x2="141.7" y2="234.0" opacity="1.0" stroke="rgb(0,0,0)" stroke-width="2.0"/>
<line x1="134.5" y1="240.0" x2="166.0" y2="258.2" opacity="1.0" stroke="rgb(0,0,0)" stroke-width="2.0"/>
<line x1="166.0" y1="258.2" x2="197.5" y2="240.0" opacity="1.0" stroke="rgb(0,0,0)" stroke-width="2.0"/>
<line x1="167.6" y1="248.9" x2="188.7" y2="236.8" opacity="1.0" stroke="rgb(0,0,0)" stroke-width="2.0"/>
<line x1="197.5" y1="240.0" x2="197.5" y2="203.6" opacity="1.0" stroke="rgb(0,0,0)" stroke-width="2.0"/>
<line x1="166.0" y1="294.5" x2="166.0" y2="258.2" opacity="1.0" stroke="rgb(0,0,0)" stroke-width="2.0"/>
<line x1="197.5" y1="240.0" x2="229.0" y2="258.2" opacity="1.0" stroke="rgb(0,0,0)" stroke-width="2.0"/>
<line x1="229.0" y1="258.2" x2="229.0" y2="294.5" opacity="1.0" stroke="rgb(0,0,0)" stroke-width="2.0"/>
<line x1="221.8" y1="264.2" x2="221.8" y2="288.5" opacity="1.0" stroke="rgb(0,0,0)" stroke-width="2.0"/>
<line x1="229.0" y1="294.5" x2="197.5" y2="312.7" opacity="1.0" stroke="rgb(0,0,0)" stroke-width="2.0"/>
<line x1="197.5" y1="312.7" x2="166.0" y2="294.5" opacity="1.0" stroke="rgb(0,0,0)" stroke-width="2.0"/>
<line x1="195.9" y1="303.5" x2="174.8" y2="291.3" opacity="1.0" stroke="rgb(0,0,0)" stroke-width="2.0"/>
<line x1="260.4" y1="349.1" x2="229.0" y2="367.3" opacity="1.0" stroke="rgb(0,0,0)" stroke-width="2.0"/>
<line x1="229.0" y1="367.3" x2="197.5" y2="349.1" opacity="1.0" stroke="rgb(0,0,0)" stroke-width="2.0"/>
<line x1="227.4" y1="358.0" x2="206.3" y2="345.9" opacity="1.0" stroke="rgb(0,0,0)" stroke-width="2.0"/>
<line x1="197.5" y1="349.1" x2="197.5" y2="312.7" opacity="1.0" stroke="rgb(0,0,0)" stroke-width="2.0"/>
<line x1="229.0" y1="294.5" x2="260.4" y2="312.7" opacity="1.0" stroke="rgb(0,0,0)" stroke-width="2.0"/>
<line x1="260.4" y1="312.7" x2="260.4" y2="349.1" opacity="1.0" stroke="rgb(0,0,0)" stroke-width="2.0"/>
<line x1="253.2" y1="318.7" x2="253.2" y2="343.1" opacity="1.0" stroke="rgb(0,0,0)" stroke-width="2.0"/>
<line x1="91.7" y1="373.8" x2="71.5" y2="385.5" opacity="1.0" stroke="rgb(0,0,0)" stroke-width="2.0"/>
<line x1="71.5" y1="385.5" x2="40.0" y2="367.3" opacity="1.0" stroke="rgb(0,0,0)" stroke-width="2.0"/>
<line x1="69.9" y1="376.2" x2="48.8" y2="364.0" opacity="1.0" stroke="rgb(0,0,0)" stroke-width="2.0"/>
<line x1="40.0" y1="367.3" x2="40.0" y2="330.9" opacity="1.0" stroke="rgb(0,0,0)" stroke-width="2.0"/>
<line x1="40.0" y1="330.9" x2="71.5" y2="312.7" opacity="1.0" stroke="rgb(0,0,0)" stroke-width="2.0"/>
<line x1="48.8" y1="334.1" x2="69.9" y2="322.0" opacity="1.0" stroke="rgb(0,0,0)" stroke-width="2.0"/>
<line x1="71.5" y1="312.7" x2="103.0" y2="330.9" opacity="1.0" stroke="rgb(0,0,0)" stroke-width="2.0"/>
<line x1="103.0" y1="330.9" x2="103.0" y2="355.3" opacity="1.0" stroke="rgb(0,0,0)" stroke-width="2.0"/>
<line x1="95.8" y1="336.9" x2="95.8" y2="352.9" opacity="1.0" stroke="rgb(0,0,0)" stroke-width="2.0"/>
<text x="96.983666" y="375.272727" fill="rgb(12,12,255)" stroke-width="0" font-weight="bold" font-size="16">N</text>
<text x="285.934663" y="229.818182" fill="rgb(12,12,255)" stroke-width="0" font-weight="bold" font-size="16">N</text>
<text x="445.393827" y="320.727273" fill="rgb(102,102,102)" stroke-width="0" font-weight="bold" font-size="16">CH</text>
<text x="469.393827" y="324.407273" fill="rgb(102,102,102)" stroke-width="0" font-weight="bold" font-size="13">3</text>
<text x="287.934663" y="48.000000" fill="rgb(102,102,102)" stroke-width="0" font-weight="bold" font-size="16">CH</text>
<text x="311.934663" y="51.680000" fill="rgb(102,102,102)" stroke-width="0" font-weight="bold" font-size="13">3</text>
</svg>
</g>
</svg>
