<svg xmlns="http://www.w3.org/2000/svg" xmlns:xlink="http://www.w3.org/1999/xlink" xmlns:cml="http://www.xml-cml.org/schema" version="1.1" id="topsvg" x="0" y="0" viewBox="0 0 100 100">
<title>C_3_S - Open Babel Depiction</title>
<rect x="0" y="0" width="100" height="100" fill="white"/>
<g transform="translate(0,0)">
<svg width="100" height="100" x="0" y="0" viewBox="0 0 555.393 464.255" font-family="sans-serif" stroke="rgb(0,0,0)" stroke-width="2" stroke-linecap="round">
<line x1="420.3" y1="259.6" x2="368.2" y2="229.5" opacity="1.0" stroke="rgb(0,0,0)" stroke-width="2.0"/>
<line x1="356.9" y1="210.0" x2="356.9" y2="149.8" opacity="1.0" stroke="rgb(0,0,0)" stroke-width="2.0"/>
<line x1="483.7" y1="296.2" x2="504.1" y2="308.0" opacity="1.0" stroke="rgb(0,0,0)" stroke-width="2.0"/>
<line x1="356.9" y1="76.6" x2="356.9" y2="53.0" opacity="1.0" stroke="rgb(0,0,0)" stroke-width="2.0"/>
<line x1="345.7" y1="229.5" x2="293.5" y2="259.6" opacity="1.0" stroke="rgb(0,0,0)" stroke-width="2.0"/>
<line x1="103.4" y1="369.4" x2="71.7" y2="387.7" opacity="1.0" stroke="rgb(0,0,0)" stroke-width="2.0"/>
<line x1="71.7" y1="387.7" x2="51.3" y2="375.9" opacity="1.0" stroke="rgb(0,0,0)" stroke-width="2.0"/>
<line x1="74.7" y1="387.7" x2="74.7" y2="411.3" opacity="1.0" stroke="rgb(0,0,0)" stroke-width="2.0"/>
<line x1="68.7" y1="387.7" x2="68.7" y2="411.3" opacity="1.0" stroke="rgb(0,0,0)" stroke-width="2.0"/>
<line x1="230.2" y1="296.2" x2="166.8" y2="332.8" opacity="1.0" stroke="rgb(0,0,0)" stroke-width="2.0"/>
<line x1="452.0" y1="314.5" x2="420.3" y2="296.2" opacity="1.0" stroke="rgb(0,0,0)" stroke-width="2.0"/>
<line x1="420.3" y1="296.2" x2="420.3" y2="259.6" opacity="1.0" stroke="rgb(0,0,0)" stroke-width="2.0"/>
<line x1="427.5" y1="290.2" x2="427.5" y2="265.6" opacity="1.0" stroke="rgb(0,0,0)" stroke-width="2.0"/>
<line x1="420.3" y1="259.6" x2="452.0" y2="241.3" opacity="1.0" stroke="rgb(0,0,0)" stroke-width="2.0"/>
<line x1="452.0" y1="241.3" x2="483.7" y2="259.6" opacity="1.0" stroke="rgb(0,0,0)" stroke-width="2.0"/>
<line x1="453.6" y1="250.5" x2="474.9" y2="262.8" opacity="1.0" stroke="rgb(0,0,0)" stroke-width="2.0"/>
<line x1="483.7" y1="259.6" x2="483.7" y2="296.2" opacity="1.0" stroke="rgb(0,0,0)" stroke-width="2.0"/>
<line x1="483.7" y1="296.2" x2="452.0" y2="314.5" opacity="1.0" stroke="rgb(0,0,0)" stroke-width="2.0"/>
<line x1="474.9" y1="292.9" x2="453.6" y2="305.2" opacity="1.0" stroke="rgb(0,0,0)" stroke-width="2.0"/>
<line x1="325.2" y1="131.5" x2="325.2" y2="94.9" opacity="1.0" stroke="rgb(0,0,0)" stroke-width="2.0"/>
<line x1="325.2" y1="94.9" x2="356.9" y2="76.6" opacity="1.0" stroke="rgb(0,0,0)" stroke-width="2.0"/>
<line x1="334.0" y1="98.1" x2="355.3" y2="85.8" opacity="1.0" stroke="rgb(0,0,0)" stroke-width="2.0"/>
<line x1="356.9" y1="76.6" x2="388.6" y2="94.9" opacity="1.0" stroke="rgb(0,0,0)" stroke-width="2.0"/>
<line x1="388.6" y1="94.9" x2="388.6" y2="131.5" opacity="1.0" stroke="rgb(0,0,0)" stroke-width="2.0"/>
<line x1="381.4" y1="100.9" x2="381.4" y2="125.5" opacity="1.0" stroke="rgb(0,0,0)" stroke-width="2.0"/>
<line x1="388.6" y1="131.5" x2="356.9" y2="149.8" opacity="1.0" stroke="rgb(0,0,0)" stroke-width="2.0"/>
<line x1="356.9" y1="149.8" x2="325.2" y2="131.5" opacity="1.0" stroke="rgb(0,0,0)" stroke-width="2.0"/>
<line x1="355.3" y1="140.6" x2="334.0" y2="128.3" opacity="1.0" stroke="rgb(0,0,0)" stroke-width="2.0"/>
<line x1="261.8" y1="204.7" x2="230.2" y2="186.4" opacity="1.0" stroke="rgb(0,0,0)" stroke-width="2.0"/>
<line x1="253.1" y1="207.9" x2="231.8" y2="195.6" opacity="1.0" stroke="rgb(0,0,0)" stroke-width="2.0"/>
<line x1="230.2" y1="186.4" x2="198.5" y2="204.7" opacity="1.0" stroke="rgb(0,0,0)" stroke-width="2.0"/>
<line x1="198.5" y1="204.7" x2="198.5" y2="241.3" opacity="1.0" stroke="rgb(0,0,0)" stroke-width="2.0"/>
<line x1="205.7" y1="210.7" x2="205.7" y2="235.3" opacity="1.0" stroke="rgb(0,0,0)" stroke-width="2.0"/>
<line x1="198.5" y1="241.3" x2="230.2" y2="259.6" opacity="1.0" stroke="rgb(0,0,0)" stroke-width="2.0"/>
<line x1="230.2" y1="259.6" x2="261.8" y2="241.3" opacity="1.0" stroke="rgb(0,0,0)" stroke-width="2.0"/>
<line x1="231.8" y1="250.3" x2="253.1" y2="238.0" opacity="1.0" stroke="rgb(0,0,0)" stroke-width="2.0"/>
<line x1="261.8" y1="241.3" x2="261.8" y2="204.7" opacity="1.0" stroke="rgb(0,0,0)" stroke-width="2.0"/>
<line x1="230.2" y1="296.2" x2="230.2" y2="259.6" opacity="1.0" stroke="rgb(0,0,0)" stroke-width="2.0"/>
<line x1="261.8" y1="241.3" x2="293.5" y2="259.6" opacity="1.0" stroke="rgb(0,0,0)" stroke-width="2.0"/>
<line x1="293.5" y1="259.6" x2="293.5" y2="296.2" opacity="1.0" stroke="rgb(0,0,0)" stroke-width="2.0"/>
<line x1="286.3" y1="265.6" x2="286.3" y2="290.2" opacity="1.0" stroke="rgb(0,0,0)" stroke-width="2.0"/>
<line x1="293.5" y1="296.2" x2="261.8" y2="314.5" opacity="1.0" stroke="rgb(0,0,0)" stroke-width="2.0"/>
<line x1="261.8" y1="314.5" x2="230.2" y2="296.2" opacity="1.0" stroke="rgb(0,0,0)" stroke-width="2.0"/>
<line x1="260.3" y1="305.2" x2="239.0" y2="292.9" opacity="1.0" stroke="rgb(0,0,0)" stroke-width="2.0"/>
<line x1="325.2" y1="351.1" x2="293.5" y2="369.4" opacity="1.0" stroke="rgb(0,0,0)" stroke-width="2.0"/>
<line x1="293.5" y1="369.4" x2="261.8" y2="351.1" opacity="1.0" stroke="rgb(0,0,0)" stroke-width="2.0"/>
<line x1="291.9" y1="360.1" x2="270.6" y2="347.8" opacity="1.0" stroke="rgb(0,0,0)" stroke-width="2.0"/>
<line x1="261.8" y1="351.1" x2="261.8" y2="314.5" opacity="1.0" stroke="rgb(0,0,0)" stroke-width="2.0"/>
<line x1="293.5" y1="296.2" x2="325.2" y2="314.5" opacity="1.0" stroke="rgb(0,0,0)" stroke-width="2.0"/>
<line x1="325.2" y1="314.5" x2="325.2" y2="351.1" opacity="1.0" stroke="rgb(0,0,0)" stroke-width="2.0"/>
<line x1="318.0" y1="320.5" x2="318.0" y2="345.1" opacity="1.0" stroke="rgb(0,0,0)" stroke-width="2.0"/>
<line x1="166.8" y1="369.4" x2="135.1" y2="387.7" opacity="1.0" stroke="rgb(0,0,0)" stroke-width="2.0"/>
<line x1="135.1" y1="387.7" x2="103.4" y2="369.4" opacity="1.0" stroke="rgb(0,0,0)" stroke-width="2.0"/>
<line x1="133.5" y1="378.4" x2="112.2" y2="366.1" opacity="1.0" stroke="rgb(0,0,0)" stroke-width="2.0"/>
<line x1="103.4" y1="369.4" x2="103.4" y2="332.8" opacity="1.0" stroke="rgb(0,0,0)" stroke-width="2.0"/>
<line x1="103.4" y1="332.8" x2="135.1" y2="314.5" opacity="1.0" stroke="rgb(0,0,0)" stroke-width="2.0"/>
<line x1="112.2" y1="336.0" x2="133.5" y2="323.7" opacity="1.0" stroke="rgb(0,0,0)" stroke-width="2.0"/>
<line x1="135.1" y1="314.5" x2="166.8" y2="332.8" opacity="1.0" stroke="rgb(0,0,0)" stroke-width="2.0"/>
<line x1="166.8" y1="332.8" x2="166.8" y2="369.4" opacity="1.0" stroke="rgb(0,0,0)" stroke-width="2.0"/>
<line x1="159.6" y1="338.8" x2="159.6" y2="363.4" opacity="1.0" stroke="rgb(0,0,0)" stroke-width="2.0"/>
<text x="14.000000" y="377.361702" fill="rgb(102,102,102)" stroke-width="0" font-weight="bold" font-size="16">H</text>
<text x="26.000000" y="381.041702" fill="rgb(102,102,102)" stroke-width="0" font-weight="bold" font-size="13">3</text>
<text x="32.500000" y="377.361702" fill="rgb(102,102,102)" stroke-width="0" font-weight="bold" font-size="16">C</text>
<text x="65.692845" y="432.255319" fill="rgb(255,12,12)" stroke-width="0" font-weight="bold" font-size="16">O</text>
<text x="350.928446" y="230.978723" fill="rgb(12,12,255)" stroke-width="0" font-weight="bold" font-size="16">N</text>
<text x="511.392668" y="322.468085" fill="rgb(102,102,102)" stroke-width="0" font-weight="bold" font-size="16">CH</text>
<text x="535.392668" y="326.148085" fill="rgb(102,102,102)" stroke-width="0" font-weight="bold" font-size="13">3</text>
<text x="352.928446" y="48.000000" fill="rgb(102,102,102)" stroke-width="0" font-weight="bold" font-size="16">CH</text>
<text x="376.928446" y="51.680000" fill="rgb(102,102,102)" stroke-width="0" font-weight="bold" font-size="13">3</text>
</svg>
</g>
</svg>