<svg xmlns="http://www.w3.org/2000/svg" xmlns:xlink="http://www.w3.org/1999/xlink" xmlns:cml="http://www.xml-cml.org/schema" version="1.1" id="topsvg" x="0" y="0" viewBox="0 0 100 100">
<title>C_4_N - Open Babel Depiction</title>
<rect x="0" y="0" width="100" height="100" fill="white"/>
<g transform="translate(0,0)">
<svg width="100" height="100" x="0" y="0" viewBox="0 0 432.344 399.394" font-family="sans-serif" stroke="rgb(0,0,0)" stroke-width="2" stroke-linecap="round">
<line x1="294.7" y1="265.5" x2="240.9" y2="234.4" opacity="1.0" stroke="rgb(0,0,0)" stroke-width="2.0"/>
<line x1="229.6" y1="214.9" x2="229.6" y2="152.7" opacity="1.0" stroke="rgb(0,0,0)" stroke-width="2.0"/>
<line x1="359.8" y1="303.0" x2="381.1" y2="315.3" opacity="1.0" stroke="rgb(0,0,0)" stroke-width="2.0"/>
<line x1="229.6" y1="77.6" x2="229.6" y2="53.0" opacity="1.0" stroke="rgb(0,0,0)" stroke-width="2.0"/>
<line x1="153.3" y1="347.1" x2="143.3" y2="352.9" opacity="1.0" stroke="rgb(0,0,0)" stroke-width="2.0"/>
<line x1="164.6" y1="303.0" x2="164.6" y2="327.6" opacity="1.0" stroke="rgb(0,0,0)" stroke-width="2.0"/>
<line x1="218.4" y1="234.4" x2="197.1" y2="246.7" opacity="1.0" stroke="rgb(0,0,0)" stroke-width="2.0"/>
<line x1="132.0" y1="246.7" x2="99.5" y2="227.9" opacity="1.0" stroke="rgb(0,0,0)" stroke-width="2.0"/>
<line x1="65.1" y1="243.2" x2="48.7" y2="224.9" opacity="1.0" stroke="rgb(0,0,0)" stroke-width="2.0"/>
<line x1="46.5" y1="204.0" x2="58.8" y2="182.7" opacity="1.0" stroke="rgb(0,0,0)" stroke-width="2.0"/>
<line x1="58.8" y1="182.7" x2="95.5" y2="190.5" opacity="1.0" stroke="rgb(0,0,0)" stroke-width="2.0"/>
<line x1="63.2" y1="191.0" x2="88.2" y2="196.3" opacity="1.0" stroke="rgb(0,0,0)" stroke-width="2.0"/>
<line x1="95.5" y1="190.5" x2="99.5" y2="227.9" opacity="1.0" stroke="rgb(0,0,0)" stroke-width="2.0"/>
<line x1="99.5" y1="227.9" x2="65.1" y2="243.2" opacity="1.0" stroke="rgb(0,0,0)" stroke-width="2.0"/>
<line x1="91.1" y1="223.7" x2="67.7" y2="234.1" opacity="1.0" stroke="rgb(0,0,0)" stroke-width="2.0"/>
<line x1="327.3" y1="321.8" x2="294.7" y2="303.0" opacity="1.0" stroke="rgb(0,0,0)" stroke-width="2.0"/>
<line x1="294.7" y1="303.0" x2="294.7" y2="265.5" opacity="1.0" stroke="rgb(0,0,0)" stroke-width="2.0"/>
<line x1="301.9" y1="297.0" x2="301.9" y2="271.5" opacity="1.0" stroke="rgb(0,0,0)" stroke-width="2.0"/>
<line x1="294.7" y1="265.5" x2="327.3" y2="246.7" opacity="1.0" stroke="rgb(0,0,0)" stroke-width="2.0"/>
<line x1="327.3" y1="246.7" x2="359.8" y2="265.5" opacity="1.0" stroke="rgb(0,0,0)" stroke-width="2.0"/>
<line x1="328.9" y1="255.9" x2="351.0" y2="268.7" opacity="1.0" stroke="rgb(0,0,0)" stroke-width="2.0"/>
<line x1="359.8" y1="265.5" x2="359.8" y2="303.0" opacity="1.0" stroke="rgb(0,0,0)" stroke-width="2.0"/>
<line x1="359.8" y1="303.0" x2="327.3" y2="321.8" opacity="1.0" stroke="rgb(0,0,0)" stroke-width="2.0"/>
<line x1="351.0" y1="299.8" x2="328.9" y2="312.6" opacity="1.0" stroke="rgb(0,0,0)" stroke-width="2.0"/>
<line x1="197.1" y1="133.9" x2="197.1" y2="96.4" opacity="1.0" stroke="rgb(0,0,0)" stroke-width="2.0"/>
<line x1="197.1" y1="96.4" x2="229.6" y2="77.6" opacity="1.0" stroke="rgb(0,0,0)" stroke-width="2.0"/>
<line x1="205.9" y1="99.6" x2="228.0" y2="86.8" opacity="1.0" stroke="rgb(0,0,0)" stroke-width="2.0"/>
<line x1="229.6" y1="77.6" x2="262.2" y2="96.4" opacity="1.0" stroke="rgb(0,0,0)" stroke-width="2.0"/>
<line x1="262.2" y1="96.4" x2="262.2" y2="133.9" opacity="1.0" stroke="rgb(0,0,0)" stroke-width="2.0"/>
<line x1="255.0" y1="102.4" x2="255.0" y2="127.9" opacity="1.0" stroke="rgb(0,0,0)" stroke-width="2.0"/>
<line x1="262.2" y1="133.9" x2="229.6" y2="152.7" opacity="1.0" stroke="rgb(0,0,0)" stroke-width="2.0"/>
<line x1="229.6" y1="152.7" x2="197.1" y2="133.9" opacity="1.0" stroke="rgb(0,0,0)" stroke-width="2.0"/>
<line x1="228.0" y1="143.5" x2="205.9" y2="130.7" opacity="1.0" stroke="rgb(0,0,0)" stroke-width="2.0"/>
<line x1="197.1" y1="284.2" x2="164.6" y2="303.0" opacity="1.0" stroke="rgb(0,0,0)" stroke-width="2.0"/>
<line x1="164.6" y1="303.0" x2="132.0" y2="284.2" opacity="1.0" stroke="rgb(0,0,0)" stroke-width="2.0"/>
<line x1="163.0" y1="293.8" x2="140.8" y2="281.0" opacity="1.0" stroke="rgb(0,0,0)" stroke-width="2.0"/>
<line x1="132.0" y1="284.2" x2="132.0" y2="246.7" opacity="1.0" stroke="rgb(0,0,0)" stroke-width="2.0"/>
<line x1="132.0" y1="246.7" x2="164.6" y2="227.9" opacity="1.0" stroke="rgb(0,0,0)" stroke-width="2.0"/>
<line x1="140.8" y1="249.9" x2="163.0" y2="237.1" opacity="1.0" stroke="rgb(0,0,0)" stroke-width="2.0"/>
<line x1="164.6" y1="227.9" x2="197.1" y2="246.7" opacity="1.0" stroke="rgb(0,0,0)" stroke-width="2.0"/>
<line x1="197.1" y1="246.7" x2="197.1" y2="284.2" opacity="1.0" stroke="rgb(0,0,0)" stroke-width="2.0"/>
<line x1="189.9" y1="252.7" x2="189.9" y2="278.2" opacity="1.0" stroke="rgb(0,0,0)" stroke-width="2.0"/>
<text x="225.636495" y="48.000000" fill="rgb(102,102,102)" stroke-width="0" font-weight="bold" font-size="16">CH</text>
<text x="249.636495" y="51.680000" fill="rgb(102,102,102)" stroke-width="0" font-weight="bold" font-size="13">3</text>
<text x="34.000000" y="223.237996" fill="rgb(178,178,0)" stroke-width="0" font-weight="bold" font-size="16">S</text>
<text x="106.011813" y="367.393939" fill="rgb(102,102,102)" stroke-width="0" font-weight="bold" font-size="16">H</text>
<text x="118.011813" y="371.073939" fill="rgb(102,102,102)" stroke-width="0" font-weight="bold" font-size="13">3</text>
<text x="124.511813" y="367.393939" fill="rgb(102,102,102)" stroke-width="0" font-weight="bold" font-size="16">C</text>
<text x="158.553373" y="348.606061" fill="rgb(255,12,12)" stroke-width="0" font-weight="bold" font-size="16">O</text>
<text x="388.344298" y="329.818182" fill="rgb(102,102,102)" stroke-width="0" font-weight="bold" font-size="16">CH</text>
<text x="412.344298" y="333.498182" fill="rgb(102,102,102)" stroke-width="0" font-weight="bold" font-size="13">3</text>
<text x="223.636495" y="235.878788" fill="rgb(12,12,255)" stroke-width="0" font-weight="bold" font-size="16">N</text>
</svg>
</g>
</svg>