<svg xmlns="http://www.w3.org/2000/svg" x="0" y="0" viewBox="0 0 100 100">
<title>C_4_Q - Open Babel Depiction</title>
<rect x="0" y="0" width="100" height="100" fill="white"/>
<g transform="translate(0,0)">
<svg width="100" height="100" x="0" y="0" viewBox="0 0 438.636 400" font-family="sans-serif" stroke="rgb(0,0,0)" stroke-width="2" stroke-linecap="round">
<line x1="300.8" y1="265.9" x2="246.9" y2="234.7" opacity="1.0" stroke="rgb(0,0,0)" stroke-width="2.0"/>
<line x1="235.6" y1="215.2" x2="235.6" y2="152.9" opacity="1.0" stroke="rgb(0,0,0)" stroke-width="2.0"/>
<line x1="366.0" y1="303.5" x2="387.4" y2="315.9" opacity="1.0" stroke="rgb(0,0,0)" stroke-width="2.0"/>
<line x1="235.6" y1="77.6" x2="235.6" y2="53.0" opacity="1.0" stroke="rgb(0,0,0)" stroke-width="2.0"/>
<line x1="159.2" y1="347.7" x2="149.1" y2="353.5" opacity="1.0" stroke="rgb(0,0,0)" stroke-width="2.0"/>
<line x1="170.4" y1="303.5" x2="170.4" y2="328.2" opacity="1.0" stroke="rgb(0,0,0)" stroke-width="2.0"/>
<line x1="224.4" y1="234.7" x2="203.0" y2="247.1" opacity="1.0" stroke="rgb(0,0,0)" stroke-width="2.0"/>
<line x1="137.8" y1="247.1" x2="105.2" y2="228.2" opacity="1.0" stroke="rgb(0,0,0)" stroke-width="2.0"/>
<line x1="333.4" y1="322.4" x2="300.8" y2="303.5" opacity="1.0" stroke="rgb(0,0,0)" stroke-width="2.0"/>
<line x1="300.8" y1="303.5" x2="300.8" y2="265.9" opacity="1.0" stroke="rgb(0,0,0)" stroke-width="2.0"/>
<line x1="308.0" y1="297.5" x2="308.0" y2="271.9" opacity="1.0" stroke="rgb(0,0,0)" stroke-width="2.0"/>
<line x1="300.8" y1="265.9" x2="333.4" y2="247.1" opacity="1.0" stroke="rgb(0,0,0)" stroke-width="2.0"/>
<line x1="333.4" y1="247.1" x2="366.0" y2="265.9" opacity="1.0" stroke="rgb(0,0,0)" stroke-width="2.0"/>
<line x1="335.0" y1="256.3" x2="357.2" y2="269.1" opacity="1.0" stroke="rgb(0,0,0)" stroke-width="2.0"/>
<line x1="366.0" y1="265.9" x2="366.0" y2="303.5" opacity="1.0" stroke="rgb(0,0,0)" stroke-width="2.0"/>
<line x1="366.0" y1="303.5" x2="333.4" y2="322.4" opacity="1.0" stroke="rgb(0,0,0)" stroke-width="2.0"/>
<line x1="357.2" y1="300.3" x2="335.0" y2="313.1" opacity="1.0" stroke="rgb(0,0,0)" stroke-width="2.0"/>
<line x1="203.0" y1="134.1" x2="203.0" y2="96.5" opacity="1.0" stroke="rgb(0,0,0)" stroke-width="2.0"/>
<line x1="203.0" y1="96.5" x2="235.6" y2="77.6" opacity="1.0" stroke="rgb(0,0,0)" stroke-width="2.0"/>
<line x1="211.8" y1="99.7" x2="234.0" y2="86.9" opacity="1.0" stroke="rgb(0,0,0)" stroke-width="2.0"/>
<line x1="235.6" y1="77.6" x2="268.2" y2="96.5" opacity="1.0" stroke="rgb(0,0,0)" stroke-width="2.0"/>
<line x1="268.2" y1="96.5" x2="268.2" y2="134.1" opacity="1.0" stroke="rgb(0,0,0)" stroke-width="2.0"/>
<line x1="261.0" y1="102.5" x2="261.0" y2="128.1" opacity="1.0" stroke="rgb(0,0,0)" stroke-width="2.0"/>
<line x1="268.2" y1="134.1" x2="235.6" y2="152.9" opacity="1.0" stroke="rgb(0,0,0)" stroke-width="2.0"/>
<line x1="235.6" y1="152.9" x2="203.0" y2="134.1" opacity="1.0" stroke="rgb(0,0,0)" stroke-width="2.0"/>
<line x1="234.0" y1="143.7" x2="211.8" y2="130.9" opacity="1.0" stroke="rgb(0,0,0)" stroke-width="2.0"/>
<line x1="203.0" y1="284.7" x2="170.4" y2="303.5" opacity="1.0" stroke="rgb(0,0,0)" stroke-width="2.0"/>
<line x1="170.4" y1="303.5" x2="137.8" y2="284.7" opacity="1.0" stroke="rgb(0,0,0)" stroke-width="2.0"/>
<line x1="168.8" y1="294.3" x2="146.6" y2="281.5" opacity="1.0" stroke="rgb(0,0,0)" stroke-width="2.0"/>
<line x1="137.8" y1="284.7" x2="137.8" y2="247.1" opacity="1.0" stroke="rgb(0,0,0)" stroke-width="2.0"/>
<line x1="137.8" y1="247.1" x2="170.4" y2="228.2" opacity="1.0" stroke="rgb(0,0,0)" stroke-width="2.0"/>
<line x1="146.6" y1="250.3" x2="168.8" y2="237.5" opacity="1.0" stroke="rgb(0,0,0)" stroke-width="2.0"/>
<line x1="170.4" y1="228.2" x2="203.0" y2="247.1" opacity="1.0" stroke="rgb(0,0,0)" stroke-width="2.0"/>
<line x1="203.0" y1="247.1" x2="203.0" y2="284.7" opacity="1.0" stroke="rgb(0,0,0)" stroke-width="2.0"/>
<line x1="195.8" y1="253.1" x2="195.8" y2="278.7" opacity="1.0" stroke="rgb(0,0,0)" stroke-width="2.0"/>
<line x1="61.3" y1="240.6" x2="40.0" y2="228.2" opacity="1.0" stroke="rgb(0,0,0)" stroke-width="2.0"/>
<line x1="40.0" y1="228.2" x2="40.0" y2="190.6" opacity="1.0" stroke="rgb(0,0,0)" stroke-width="2.0"/>
<line x1="47.2" y1="222.2" x2="47.2" y2="196.6" opacity="1.0" stroke="rgb(0,0,0)" stroke-width="2.0"/>
<line x1="40.0" y1="190.6" x2="61.3" y2="178.3" opacity="1.0" stroke="rgb(0,0,0)" stroke-width="2.0"/>
<line x1="83.4" y1="178.0" x2="105.2" y2="190.6" opacity="1.0" stroke="rgb(0,0,0)" stroke-width="2.0"/>
<line x1="81.7" y1="185.3" x2="96.4" y2="193.8" opacity="1.0" stroke="rgb(0,0,0)" stroke-width="2.0"/>
<line x1="105.2" y1="190.6" x2="105.2" y2="228.2" opacity="1.0" stroke="rgb(0,0,0)" stroke-width="2.0"/>
<line x1="105.2" y1="228.2" x2="83.4" y2="240.8" opacity="1.0" stroke="rgb(0,0,0)" stroke-width="2.0"/>
<line x1="96.4" y1="225.0" x2="81.7" y2="233.5" opacity="1.0" stroke="rgb(0,0,0)" stroke-width="2.0"/>
<text x="231.619856" y="48.000000" fill="rgb(102,102,102)" stroke-width="0" font-weight="bold" font-size="16">CH</text>
<text x="255.619856" y="51.680000" fill="rgb(102,102,102)" stroke-width="0" font-weight="bold" font-size="13">3</text>
<text x="66.603309" y="179.764706" fill="rgb(12,12,255)" stroke-width="0" font-weight="bold" font-size="16">N</text>
<text x="66.603309" y="255.058824" fill="rgb(12,12,255)" stroke-width="0" font-weight="bold" font-size="16">N</text>
<text x="111.809928" y="368.000000" fill="rgb(102,102,102)" stroke-width="0" font-weight="bold" font-size="16">H</text>
<text x="123.809928" y="371.680000" fill="rgb(102,102,102)" stroke-width="0" font-weight="bold" font-size="13">3</text>
<text x="130.309928" y="368.000000" fill="rgb(102,102,102)" stroke-width="0" font-weight="bold" font-size="16">C</text>
<text x="164.413237" y="349.176471" fill="rgb(255,12,12)" stroke-width="0" font-weight="bold" font-size="16">O</text>
<text x="394.636403" y="330.352941" fill="rgb(102,102,102)" stroke-width="0" font-weight="bold" font-size="16">CH</text>
<text x="418.636403" y="334.032941" fill="rgb(102,102,102)" stroke-width="0" font-weight="bold" font-size="13">3</text>
<text x="229.619856" y="236.235294" fill="rgb(12,12,255)" stroke-width="0" font-weight="bold" font-size="16">N</text>
</svg>
</g>
</svg>
