<svg xmlns="http://www.w3.org/2000/svg" xmlns:xlink="http://www.w3.org/1999/xlink" xmlns:cml="http://www.xml-cml.org/schema" version="1.1" id="topsvg" x="0" y="0" viewBox="0 0 100 100">
<title>C_5_P - Open Babel Depiction</title>
<rect x="0" y="0" width="100" height="100" fill="white"/>
<g transform="translate(0,0)">
<svg width="100" height="100" x="0" y="0" viewBox="0 0 540.104 364.615" font-family="sans-serif" stroke="rgb(0,0,0)" stroke-width="2" stroke-linecap="round">
<line x1="401.5" y1="267.7" x2="347.0" y2="236.2" opacity="1.0" stroke="rgb(0,0,0)" stroke-width="2.0"/>
<line x1="335.8" y1="216.7" x2="335.8" y2="153.8" opacity="1.0" stroke="rgb(0,0,0)" stroke-width="2.0"/>
<line x1="467.2" y1="305.6" x2="488.8" y2="318.1" opacity="1.0" stroke="rgb(0,0,0)" stroke-width="2.0"/>
<line x1="335.8" y1="77.9" x2="335.8" y2="53.0" opacity="1.0" stroke="rgb(0,0,0)" stroke-width="2.0"/>
<line x1="324.5" y1="236.2" x2="302.9" y2="248.7" opacity="1.0" stroke="rgb(0,0,0)" stroke-width="2.0"/>
<line x1="40.0" y1="159.8" x2="40.0" y2="147.9" opacity="1.0" stroke="rgb(0,0,0)" stroke-width="2.0"/>
<line x1="72.9" y1="191.8" x2="51.3" y2="179.3" opacity="1.0" stroke="rgb(0,0,0)" stroke-width="2.0"/>
<line x1="171.5" y1="248.7" x2="138.6" y2="229.7" opacity="1.0" stroke="rgb(0,0,0)" stroke-width="2.0"/>
<line x1="434.4" y1="324.6" x2="401.5" y2="305.6" opacity="1.0" stroke="rgb(0,0,0)" stroke-width="2.0"/>
<line x1="401.5" y1="305.6" x2="401.5" y2="267.7" opacity="1.0" stroke="rgb(0,0,0)" stroke-width="2.0"/>
<line x1="408.7" y1="299.6" x2="408.7" y2="273.7" opacity="1.0" stroke="rgb(0,0,0)" stroke-width="2.0"/>
<line x1="401.5" y1="267.7" x2="434.4" y2="248.7" opacity="1.0" stroke="rgb(0,0,0)" stroke-width="2.0"/>
<line x1="434.4" y1="248.7" x2="467.2" y2="267.7" opacity="1.0" stroke="rgb(0,0,0)" stroke-width="2.0"/>
<line x1="436.0" y1="258.0" x2="458.4" y2="270.9" opacity="1.0" stroke="rgb(0,0,0)" stroke-width="2.0"/>
<line x1="467.2" y1="267.7" x2="467.2" y2="305.6" opacity="1.0" stroke="rgb(0,0,0)" stroke-width="2.0"/>
<line x1="467.2" y1="305.6" x2="434.4" y2="324.6" opacity="1.0" stroke="rgb(0,0,0)" stroke-width="2.0"/>
<line x1="458.4" y1="302.4" x2="436.0" y2="315.4" opacity="1.0" stroke="rgb(0,0,0)" stroke-width="2.0"/>
<line x1="302.9" y1="134.9" x2="302.9" y2="96.9" opacity="1.0" stroke="rgb(0,0,0)" stroke-width="2.0"/>
<line x1="302.9" y1="96.9" x2="335.8" y2="77.9" opacity="1.0" stroke="rgb(0,0,0)" stroke-width="2.0"/>
<line x1="311.7" y1="100.2" x2="334.2" y2="87.2" opacity="1.0" stroke="rgb(0,0,0)" stroke-width="2.0"/>
<line x1="335.8" y1="77.9" x2="368.6" y2="96.9" opacity="1.0" stroke="rgb(0,0,0)" stroke-width="2.0"/>
<line x1="368.6" y1="96.9" x2="368.6" y2="134.9" opacity="1.0" stroke="rgb(0,0,0)" stroke-width="2.0"/>
<line x1="361.4" y1="102.9" x2="361.4" y2="128.9" opacity="1.0" stroke="rgb(0,0,0)" stroke-width="2.0"/>
<line x1="368.6" y1="134.9" x2="335.8" y2="153.8" opacity="1.0" stroke="rgb(0,0,0)" stroke-width="2.0"/>
<line x1="335.8" y1="153.8" x2="302.9" y2="134.9" opacity="1.0" stroke="rgb(0,0,0)" stroke-width="2.0"/>
<line x1="334.2" y1="144.6" x2="311.7" y2="131.6" opacity="1.0" stroke="rgb(0,0,0)" stroke-width="2.0"/>
<line x1="302.9" y1="286.7" x2="270.1" y2="305.6" opacity="1.0" stroke="rgb(0,0,0)" stroke-width="2.0"/>
<line x1="270.1" y1="305.6" x2="237.2" y2="286.7" opacity="1.0" stroke="rgb(0,0,0)" stroke-width="2.0"/>
<line x1="268.5" y1="296.4" x2="246.0" y2="283.4" opacity="1.0" stroke="rgb(0,0,0)" stroke-width="2.0"/>
<line x1="237.2" y1="286.7" x2="237.2" y2="248.7" opacity="1.0" stroke="rgb(0,0,0)" stroke-width="2.0"/>
<line x1="237.2" y1="248.7" x2="270.1" y2="229.7" opacity="1.0" stroke="rgb(0,0,0)" stroke-width="2.0"/>
<line x1="246.0" y1="252.0" x2="268.5" y2="239.0" opacity="1.0" stroke="rgb(0,0,0)" stroke-width="2.0"/>
<line x1="270.1" y1="229.7" x2="302.9" y2="248.7" opacity="1.0" stroke="rgb(0,0,0)" stroke-width="2.0"/>
<line x1="302.9" y1="248.7" x2="302.9" y2="286.7" opacity="1.0" stroke="rgb(0,0,0)" stroke-width="2.0"/>
<line x1="295.7" y1="254.7" x2="295.7" y2="280.7" opacity="1.0" stroke="rgb(0,0,0)" stroke-width="2.0"/>
<line x1="171.5" y1="248.7" x2="204.3" y2="229.7" opacity="1.0" stroke="rgb(0,0,0)" stroke-width="2.0"/>
<line x1="180.3" y1="252.0" x2="202.7" y2="239.0" opacity="1.0" stroke="rgb(0,0,0)" stroke-width="2.0"/>
<line x1="204.3" y1="229.7" x2="237.2" y2="248.7" opacity="1.0" stroke="rgb(0,0,0)" stroke-width="2.0"/>
<line x1="237.2" y1="286.7" x2="204.3" y2="305.6" opacity="1.0" stroke="rgb(0,0,0)" stroke-width="2.0"/>
<line x1="204.3" y1="305.6" x2="171.5" y2="286.7" opacity="1.0" stroke="rgb(0,0,0)" stroke-width="2.0"/>
<line x1="202.7" y1="296.4" x2="180.3" y2="283.4" opacity="1.0" stroke="rgb(0,0,0)" stroke-width="2.0"/>
<line x1="171.5" y1="286.7" x2="171.5" y2="248.7" opacity="1.0" stroke="rgb(0,0,0)" stroke-width="2.0"/>
<line x1="105.7" y1="248.7" x2="72.9" y2="229.7" opacity="1.0" stroke="rgb(0,0,0)" stroke-width="2.0"/>
<line x1="72.9" y1="229.7" x2="72.9" y2="191.8" opacity="1.0" stroke="rgb(0,0,0)" stroke-width="2.0"/>
<line x1="80.1" y1="223.7" x2="80.1" y2="197.8" opacity="1.0" stroke="rgb(0,0,0)" stroke-width="2.0"/>
<line x1="72.9" y1="191.8" x2="105.7" y2="172.8" opacity="1.0" stroke="rgb(0,0,0)" stroke-width="2.0"/>
<line x1="105.7" y1="172.8" x2="138.6" y2="191.8" opacity="1.0" stroke="rgb(0,0,0)" stroke-width="2.0"/>
<line x1="107.3" y1="182.1" x2="129.8" y2="195.0" opacity="1.0" stroke="rgb(0,0,0)" stroke-width="2.0"/>
<line x1="138.6" y1="191.8" x2="138.6" y2="229.7" opacity="1.0" stroke="rgb(0,0,0)" stroke-width="2.0"/>
<line x1="138.6" y1="229.7" x2="105.7" y2="248.7" opacity="1.0" stroke="rgb(0,0,0)" stroke-width="2.0"/>
<line x1="129.8" y1="226.5" x2="107.3" y2="239.5" opacity="1.0" stroke="rgb(0,0,0)" stroke-width="2.0"/>
<text x="34.000000" y="180.820513" fill="rgb(255,12,12)" stroke-width="0" font-weight="bold" font-size="16">O</text>
<text x="36.000000" y="142.871795" fill="rgb(102,102,102)" stroke-width="0" font-weight="bold" font-size="16">CH</text>
<text x="60.000000" y="146.551795" fill="rgb(102,102,102)" stroke-width="0" font-weight="bold" font-size="13">3</text>
<text x="331.780984" y="48.000000" fill="rgb(102,102,102)" stroke-width="0" font-weight="bold" font-size="16">CH</text>
<text x="355.780984" y="51.680000" fill="rgb(102,102,102)" stroke-width="0" font-weight="bold" font-size="13">3</text>
<text x="496.103753" y="332.615385" fill="rgb(102,102,102)" stroke-width="0" font-weight="bold" font-size="16">CH</text>
<text x="520.103753" y="336.295385" fill="rgb(102,102,102)" stroke-width="0" font-weight="bold" font-size="13">3</text>
<text x="329.780984" y="237.743590" fill="rgb(12,12,255)" stroke-width="0" font-weight="bold" font-size="16">N</text>
</svg>
</g>
</svg>