<svg xmlns="http://www.w3.org/2000/svg" x="0" y="0" viewBox="0 0 100 100">
<title>C_5_L - Open Babel Depiction</title>
<rect x="0" y="0" width="100" height="100" fill="white"/>
<g transform="translate(0,0)">
<svg width="100" height="100" x="0" y="0" viewBox="0 0 536.641 365.366" font-family="sans-serif" stroke="rgb(0,0,0)" stroke-width="2" stroke-linecap="round">
<line x1="331.9" y1="211.2" x2="331.9" y2="148.1" opacity="1.0" stroke="rgb(0,0,0)" stroke-width="2.0"/>
<line x1="343.1" y1="128.6" x2="397.8" y2="97.1" opacity="1.0" stroke="rgb(0,0,0)" stroke-width="2.0"/>
<line x1="331.9" y1="287.3" x2="331.9" y2="312.4" opacity="1.0" stroke="rgb(0,0,0)" stroke-width="2.0"/>
<line x1="463.7" y1="59.0" x2="485.4" y2="46.5" opacity="1.0" stroke="rgb(0,0,0)" stroke-width="2.0"/>
<line x1="320.6" y1="128.6" x2="298.9" y2="116.1" opacity="1.0" stroke="rgb(0,0,0)" stroke-width="2.0"/>
<line x1="167.1" y1="116.1" x2="134.2" y2="135.1" opacity="1.0" stroke="rgb(0,0,0)" stroke-width="2.0"/>
<line x1="55.5" y1="233.4" x2="93.3" y2="229.4" opacity="1.0" stroke="rgb(0,0,0)" stroke-width="2.0"/>
<line x1="60.7" y1="225.6" x2="86.6" y2="222.9" opacity="1.0" stroke="rgb(0,0,0)" stroke-width="2.0"/>
<line x1="93.3" y1="229.4" x2="101.2" y2="192.2" opacity="1.0" stroke="rgb(0,0,0)" stroke-width="2.0"/>
<line x1="101.2" y1="192.2" x2="68.3" y2="173.2" opacity="1.0" stroke="rgb(0,0,0)" stroke-width="2.0"/>
<line x1="68.3" y1="173.2" x2="49.7" y2="189.9" opacity="1.0" stroke="rgb(0,0,0)" stroke-width="2.0"/>
<line x1="45.3" y1="210.5" x2="55.5" y2="233.4" opacity="1.0" stroke="rgb(0,0,0)" stroke-width="2.0"/>
<line x1="298.9" y1="268.3" x2="298.9" y2="230.2" opacity="1.0" stroke="rgb(0,0,0)" stroke-width="2.0"/>
<line x1="298.9" y1="230.2" x2="331.9" y2="211.2" opacity="1.0" stroke="rgb(0,0,0)" stroke-width="2.0"/>
<line x1="307.7" y1="233.5" x2="330.3" y2="220.5" opacity="1.0" stroke="rgb(0,0,0)" stroke-width="2.0"/>
<line x1="331.9" y1="211.2" x2="364.8" y2="230.2" opacity="1.0" stroke="rgb(0,0,0)" stroke-width="2.0"/>
<line x1="364.8" y1="230.2" x2="364.8" y2="268.3" opacity="1.0" stroke="rgb(0,0,0)" stroke-width="2.0"/>
<line x1="357.6" y1="236.2" x2="357.6" y2="262.3" opacity="1.0" stroke="rgb(0,0,0)" stroke-width="2.0"/>
<line x1="364.8" y1="268.3" x2="331.9" y2="287.3" opacity="1.0" stroke="rgb(0,0,0)" stroke-width="2.0"/>
<line x1="331.9" y1="287.3" x2="298.9" y2="268.3" opacity="1.0" stroke="rgb(0,0,0)" stroke-width="2.0"/>
<line x1="330.3" y1="278.1" x2="307.7" y2="265.1" opacity="1.0" stroke="rgb(0,0,0)" stroke-width="2.0"/>
<line x1="397.8" y1="59.0" x2="430.7" y2="40.0" opacity="1.0" stroke="rgb(0,0,0)" stroke-width="2.0"/>
<line x1="430.7" y1="40.0" x2="463.7" y2="59.0" opacity="1.0" stroke="rgb(0,0,0)" stroke-width="2.0"/>
<line x1="432.3" y1="49.2" x2="454.9" y2="62.3" opacity="1.0" stroke="rgb(0,0,0)" stroke-width="2.0"/>
<line x1="463.7" y1="59.0" x2="463.7" y2="97.1" opacity="1.0" stroke="rgb(0,0,0)" stroke-width="2.0"/>
<line x1="463.7" y1="97.1" x2="430.7" y2="116.1" opacity="1.0" stroke="rgb(0,0,0)" stroke-width="2.0"/>
<line x1="454.9" y1="93.8" x2="432.3" y2="106.9" opacity="1.0" stroke="rgb(0,0,0)" stroke-width="2.0"/>
<line x1="430.7" y1="116.1" x2="397.8" y2="97.1" opacity="1.0" stroke="rgb(0,0,0)" stroke-width="2.0"/>
<line x1="397.8" y1="97.1" x2="397.8" y2="59.0" opacity="1.0" stroke="rgb(0,0,0)" stroke-width="2.0"/>
<line x1="405.0" y1="91.1" x2="405.0" y2="65.0" opacity="1.0" stroke="rgb(0,0,0)" stroke-width="2.0"/>
<line x1="298.9" y1="78.0" x2="266.0" y2="59.0" opacity="1.0" stroke="rgb(0,0,0)" stroke-width="2.0"/>
<line x1="266.0" y1="59.0" x2="233.0" y2="78.0" opacity="1.0" stroke="rgb(0,0,0)" stroke-width="2.0"/>
<line x1="264.4" y1="68.3" x2="241.8" y2="81.3" opacity="1.0" stroke="rgb(0,0,0)" stroke-width="2.0"/>
<line x1="233.0" y1="78.0" x2="233.0" y2="116.1" opacity="1.0" stroke="rgb(0,0,0)" stroke-width="2.0"/>
<line x1="233.0" y1="116.1" x2="266.0" y2="135.1" opacity="1.0" stroke="rgb(0,0,0)" stroke-width="2.0"/>
<line x1="241.8" y1="112.9" x2="264.4" y2="125.9" opacity="1.0" stroke="rgb(0,0,0)" stroke-width="2.0"/>
<line x1="266.0" y1="135.1" x2="298.9" y2="116.1" opacity="1.0" stroke="rgb(0,0,0)" stroke-width="2.0"/>
<line x1="298.9" y1="116.1" x2="298.9" y2="78.0" opacity="1.0" stroke="rgb(0,0,0)" stroke-width="2.0"/>
<line x1="291.7" y1="110.1" x2="291.7" y2="84.0" opacity="1.0" stroke="rgb(0,0,0)" stroke-width="2.0"/>
<line x1="167.1" y1="116.1" x2="200.1" y2="135.1" opacity="1.0" stroke="rgb(0,0,0)" stroke-width="2.0"/>
<line x1="175.9" y1="112.9" x2="198.5" y2="125.9" opacity="1.0" stroke="rgb(0,0,0)" stroke-width="2.0"/>
<line x1="200.1" y1="135.1" x2="233.0" y2="116.1" opacity="1.0" stroke="rgb(0,0,0)" stroke-width="2.0"/>
<line x1="233.0" y1="78.0" x2="200.1" y2="59.0" opacity="1.0" stroke="rgb(0,0,0)" stroke-width="2.0"/>
<line x1="200.1" y1="59.0" x2="167.1" y2="78.0" opacity="1.0" stroke="rgb(0,0,0)" stroke-width="2.0"/>
<line x1="198.5" y1="68.3" x2="175.9" y2="81.3" opacity="1.0" stroke="rgb(0,0,0)" stroke-width="2.0"/>
<line x1="167.1" y1="78.0" x2="167.1" y2="116.1" opacity="1.0" stroke="rgb(0,0,0)" stroke-width="2.0"/>
<line x1="101.2" y1="116.1" x2="68.3" y2="135.1" opacity="1.0" stroke="rgb(0,0,0)" stroke-width="2.0"/>
<line x1="68.3" y1="135.1" x2="68.3" y2="173.2" opacity="1.0" stroke="rgb(0,0,0)" stroke-width="2.0"/>
<line x1="75.5" y1="141.1" x2="75.5" y2="167.2" opacity="1.0" stroke="rgb(0,0,0)" stroke-width="2.0"/>
<line x1="101.2" y1="192.2" x2="134.2" y2="173.2" opacity="1.0" stroke="rgb(0,0,0)" stroke-width="2.0"/>
<line x1="102.8" y1="183.0" x2="125.4" y2="169.9" opacity="1.0" stroke="rgb(0,0,0)" stroke-width="2.0"/>
<line x1="134.2" y1="173.2" x2="134.2" y2="135.1" opacity="1.0" stroke="rgb(0,0,0)" stroke-width="2.0"/>
<line x1="134.2" y1="135.1" x2="101.2" y2="116.1" opacity="1.0" stroke="rgb(0,0,0)" stroke-width="2.0"/>
<line x1="125.4" y1="138.4" x2="102.8" y2="125.3" opacity="1.0" stroke="rgb(0,0,0)" stroke-width="2.0"/>
<text x="22.000000" y="206.630335" fill="rgb(12,12,255)" stroke-width="0" font-weight="bold" font-size="16">HN</text>
<text x="325.885438" y="143.121951" fill="rgb(12,12,255)" stroke-width="0" font-weight="bold" font-size="16">N</text>
<text x="327.885438" y="333.365854" fill="rgb(102,102,102)" stroke-width="0" font-weight="bold" font-size="16">CH</text>
<text x="351.885438" y="337.045854" fill="rgb(102,102,102)" stroke-width="0" font-weight="bold" font-size="13">3</text>
<text x="492.641491" y="48.000000" fill="rgb(102,102,102)" stroke-width="0" font-weight="bold" font-size="16">CH</text>
<text x="516.641491" y="51.680000" fill="rgb(102,102,102)" stroke-width="0" font-weight="bold" font-size="13">3</text>
</svg>
</g>
</svg>
