<svg xmlns="http://www.w3.org/2000/svg" xmlns:xlink="http://www.w3.org/1999/xlink" xmlns:cml="http://www.xml-cml.org/schema" version="1.1" id="topsvg" x="0" y="0" viewBox="0 0 100 100">
<title>C_6_N - Open Babel Depiction</title>
<rect x="0" y="0" width="100" height="100" fill="white"/>
<g transform="translate(0,0)">
<svg width="100" height="100" x="0" y="0" viewBox="0 0 434.239 389.87" font-family="sans-serif" stroke="rgb(0,0,0)" stroke-width="2" stroke-linecap="round">
<line x1="296.1" y1="266.7" x2="241.9" y2="235.4" opacity="1.0" stroke="rgb(0,0,0)" stroke-width="2.0"/>
<line x1="230.7" y1="215.9" x2="230.7" y2="153.3" opacity="1.0" stroke="rgb(0,0,0)" stroke-width="2.0"/>
<line x1="361.5" y1="304.4" x2="383.0" y2="316.8" opacity="1.0" stroke="rgb(0,0,0)" stroke-width="2.0"/>
<line x1="230.7" y1="77.8" x2="230.7" y2="53.0" opacity="1.0" stroke="rgb(0,0,0)" stroke-width="2.0"/>
<line x1="219.4" y1="235.4" x2="197.9" y2="247.8" opacity="1.0" stroke="rgb(0,0,0)" stroke-width="2.0"/>
<line x1="132.5" y1="285.6" x2="99.8" y2="304.4" opacity="1.0" stroke="rgb(0,0,0)" stroke-width="2.0"/>
<line x1="95.8" y1="342.0" x2="71.6" y2="347.2" opacity="1.0" stroke="rgb(0,0,0)" stroke-width="2.0"/>
<line x1="52.4" y1="338.6" x2="40.0" y2="317.2" opacity="1.0" stroke="rgb(0,0,0)" stroke-width="2.0"/>
<line x1="40.0" y1="317.2" x2="65.3" y2="289.1" opacity="1.0" stroke="rgb(0,0,0)" stroke-width="2.0"/>
<line x1="49.4" y1="317.5" x2="66.6" y2="298.4" opacity="1.0" stroke="rgb(0,0,0)" stroke-width="2.0"/>
<line x1="65.3" y1="289.1" x2="99.8" y2="304.4" opacity="1.0" stroke="rgb(0,0,0)" stroke-width="2.0"/>
<line x1="99.8" y1="304.4" x2="95.8" y2="342.0" opacity="1.0" stroke="rgb(0,0,0)" stroke-width="2.0"/>
<line x1="92.0" y1="309.7" x2="89.3" y2="335.3" opacity="1.0" stroke="rgb(0,0,0)" stroke-width="2.0"/>
<line x1="328.8" y1="323.3" x2="296.1" y2="304.4" opacity="1.0" stroke="rgb(0,0,0)" stroke-width="2.0"/>
<line x1="296.1" y1="304.4" x2="296.1" y2="266.7" opacity="1.0" stroke="rgb(0,0,0)" stroke-width="2.0"/>
<line x1="303.3" y1="298.4" x2="303.3" y2="272.7" opacity="1.0" stroke="rgb(0,0,0)" stroke-width="2.0"/>
<line x1="296.1" y1="266.7" x2="328.8" y2="247.8" opacity="1.0" stroke="rgb(0,0,0)" stroke-width="2.0"/>
<line x1="328.8" y1="247.8" x2="361.5" y2="266.7" opacity="1.0" stroke="rgb(0,0,0)" stroke-width="2.0"/>
<line x1="330.4" y1="257.0" x2="352.7" y2="269.9" opacity="1.0" stroke="rgb(0,0,0)" stroke-width="2.0"/>
<line x1="361.5" y1="266.7" x2="361.5" y2="304.4" opacity="1.0" stroke="rgb(0,0,0)" stroke-width="2.0"/>
<line x1="361.5" y1="304.4" x2="328.8" y2="323.3" opacity="1.0" stroke="rgb(0,0,0)" stroke-width="2.0"/>
<line x1="352.7" y1="301.2" x2="330.4" y2="314.1" opacity="1.0" stroke="rgb(0,0,0)" stroke-width="2.0"/>
<line x1="197.9" y1="134.4" x2="197.9" y2="96.7" opacity="1.0" stroke="rgb(0,0,0)" stroke-width="2.0"/>
<line x1="197.9" y1="96.7" x2="230.7" y2="77.8" opacity="1.0" stroke="rgb(0,0,0)" stroke-width="2.0"/>
<line x1="206.7" y1="99.9" x2="229.1" y2="87.0" opacity="1.0" stroke="rgb(0,0,0)" stroke-width="2.0"/>
<line x1="230.7" y1="77.8" x2="263.4" y2="96.7" opacity="1.0" stroke="rgb(0,0,0)" stroke-width="2.0"/>
<line x1="263.4" y1="96.7" x2="263.4" y2="134.4" opacity="1.0" stroke="rgb(0,0,0)" stroke-width="2.0"/>
<line x1="256.2" y1="102.7" x2="256.2" y2="128.4" opacity="1.0" stroke="rgb(0,0,0)" stroke-width="2.0"/>
<line x1="263.4" y1="134.4" x2="230.7" y2="153.3" opacity="1.0" stroke="rgb(0,0,0)" stroke-width="2.0"/>
<line x1="230.7" y1="153.3" x2="197.9" y2="134.4" opacity="1.0" stroke="rgb(0,0,0)" stroke-width="2.0"/>
<line x1="229.1" y1="144.1" x2="206.7" y2="131.2" opacity="1.0" stroke="rgb(0,0,0)" stroke-width="2.0"/>
<line x1="197.9" y1="285.6" x2="165.2" y2="304.4" opacity="1.0" stroke="rgb(0,0,0)" stroke-width="2.0"/>
<line x1="165.2" y1="304.4" x2="132.5" y2="285.6" opacity="1.0" stroke="rgb(0,0,0)" stroke-width="2.0"/>
<line x1="163.6" y1="295.2" x2="141.3" y2="282.3" opacity="1.0" stroke="rgb(0,0,0)" stroke-width="2.0"/>
<line x1="132.5" y1="285.6" x2="132.5" y2="247.8" opacity="1.0" stroke="rgb(0,0,0)" stroke-width="2.0"/>
<line x1="132.5" y1="247.8" x2="165.2" y2="228.9" opacity="1.0" stroke="rgb(0,0,0)" stroke-width="2.0"/>
<line x1="141.3" y1="251.0" x2="163.6" y2="238.1" opacity="1.0" stroke="rgb(0,0,0)" stroke-width="2.0"/>
<line x1="165.2" y1="228.9" x2="197.9" y2="247.8" opacity="1.0" stroke="rgb(0,0,0)" stroke-width="2.0"/>
<line x1="197.9" y1="247.8" x2="197.9" y2="285.6" opacity="1.0" stroke="rgb(0,0,0)" stroke-width="2.0"/>
<line x1="190.7" y1="253.8" x2="190.7" y2="279.6" opacity="1.0" stroke="rgb(0,0,0)" stroke-width="2.0"/>
<line x1="132.5" y1="172.2" x2="165.2" y2="191.1" opacity="1.0" stroke="rgb(0,0,0)" stroke-width="2.0"/>
<line x1="134.1" y1="181.5" x2="156.4" y2="194.3" opacity="1.0" stroke="rgb(0,0,0)" stroke-width="2.0"/>
<line x1="165.2" y1="191.1" x2="165.2" y2="228.9" opacity="1.0" stroke="rgb(0,0,0)" stroke-width="2.0"/>
<line x1="132.5" y1="247.8" x2="99.8" y2="228.9" opacity="1.0" stroke="rgb(0,0,0)" stroke-width="2.0"/>
<line x1="99.8" y1="228.9" x2="99.8" y2="191.1" opacity="1.0" stroke="rgb(0,0,0)" stroke-width="2.0"/>
<line x1="107.0" y1="222.9" x2="107.0" y2="197.1" opacity="1.0" stroke="rgb(0,0,0)" stroke-width="2.0"/>
<line x1="99.8" y1="191.1" x2="132.5" y2="172.2" opacity="1.0" stroke="rgb(0,0,0)" stroke-width="2.0"/>
<text x="52.888889" y="357.869713" fill="rgb(178,178,0)" stroke-width="0" font-weight="bold" font-size="16">S</text>
<text x="226.656046" y="48.000000" fill="rgb(102,102,102)" stroke-width="0" font-weight="bold" font-size="16">CH</text>
<text x="250.656046" y="51.680000" fill="rgb(102,102,102)" stroke-width="0" font-weight="bold" font-size="13">3</text>
<text x="390.238622" y="331.333333" fill="rgb(102,102,102)" stroke-width="0" font-weight="bold" font-size="16">CH</text>
<text x="414.238622" y="335.013333" fill="rgb(102,102,102)" stroke-width="0" font-weight="bold" font-size="13">3</text>
<text x="224.656046" y="236.888889" fill="rgb(12,12,255)" stroke-width="0" font-weight="bold" font-size="16">N</text>
</svg>
</g>
</svg>