<svg xmlns="http://www.w3.org/2000/svg" x="0" y="0" viewBox="0 0 100 100">
<title>C_6_L - Open Babel Depiction</title>
<rect x="0" y="0" width="100" height="100" fill="white"/>
<g transform="translate(0,0)">
<svg width="100" height="100" x="0" y="0" viewBox="0 0 523.157 414.286" font-family="sans-serif" stroke="rgb(0,0,0)" stroke-width="2" stroke-linecap="round">
<line x1="200.8" y1="151.4" x2="200.8" y2="212.7" opacity="1.0" stroke="rgb(0,0,0)" stroke-width="2.0"/>
<line x1="189.6" y1="232.2" x2="136.5" y2="262.9" opacity="1.0" stroke="rgb(0,0,0)" stroke-width="2.0"/>
<line x1="200.8" y1="77.1" x2="200.8" y2="53.0" opacity="1.0" stroke="rgb(0,0,0)" stroke-width="2.0"/>
<line x1="72.2" y1="300.0" x2="51.3" y2="312.1" opacity="1.0" stroke="rgb(0,0,0)" stroke-width="2.0"/>
<line x1="212.1" y1="232.2" x2="233.0" y2="244.3" opacity="1.0" stroke="rgb(0,0,0)" stroke-width="2.0"/>
<line x1="297.3" y1="281.4" x2="361.7" y2="318.6" opacity="1.0" stroke="rgb(0,0,0)" stroke-width="2.0"/>
<line x1="483.2" y1="337.1" x2="461.3" y2="307.1" opacity="1.0" stroke="rgb(0,0,0)" stroke-width="2.0"/>
<line x1="473.8" y1="336.5" x2="459.0" y2="316.2" opacity="1.0" stroke="rgb(0,0,0)" stroke-width="2.0"/>
<line x1="461.3" y1="307.1" x2="426.0" y2="318.6" opacity="1.0" stroke="rgb(0,0,0)" stroke-width="2.0"/>
<line x1="426.0" y1="318.6" x2="426.0" y2="355.7" opacity="1.0" stroke="rgb(0,0,0)" stroke-width="2.0"/>
<line x1="426.0" y1="355.7" x2="449.0" y2="363.2" opacity="1.0" stroke="rgb(0,0,0)" stroke-width="2.0"/>
<line x1="469.0" y1="356.7" x2="483.2" y2="337.1" opacity="1.0" stroke="rgb(0,0,0)" stroke-width="2.0"/>
<line x1="233.0" y1="95.7" x2="233.0" y2="132.9" opacity="1.0" stroke="rgb(0,0,0)" stroke-width="2.0"/>
<line x1="233.0" y1="132.9" x2="200.8" y2="151.4" opacity="1.0" stroke="rgb(0,0,0)" stroke-width="2.0"/>
<line x1="224.2" y1="129.6" x2="202.4" y2="142.2" opacity="1.0" stroke="rgb(0,0,0)" stroke-width="2.0"/>
<line x1="200.8" y1="151.4" x2="168.7" y2="132.9" opacity="1.0" stroke="rgb(0,0,0)" stroke-width="2.0"/>
<line x1="168.7" y1="132.9" x2="168.7" y2="95.7" opacity="1.0" stroke="rgb(0,0,0)" stroke-width="2.0"/>
<line x1="175.9" y1="126.9" x2="175.9" y2="101.7" opacity="1.0" stroke="rgb(0,0,0)" stroke-width="2.0"/>
<line x1="168.7" y1="95.7" x2="200.8" y2="77.1" opacity="1.0" stroke="rgb(0,0,0)" stroke-width="2.0"/>
<line x1="200.8" y1="77.1" x2="233.0" y2="95.7" opacity="1.0" stroke="rgb(0,0,0)" stroke-width="2.0"/>
<line x1="202.4" y1="86.4" x2="224.2" y2="98.9" opacity="1.0" stroke="rgb(0,0,0)" stroke-width="2.0"/>
<line x1="136.5" y1="300.0" x2="104.3" y2="318.6" opacity="1.0" stroke="rgb(0,0,0)" stroke-width="2.0"/>
<line x1="104.3" y1="318.6" x2="72.2" y2="300.0" opacity="1.0" stroke="rgb(0,0,0)" stroke-width="2.0"/>
<line x1="102.7" y1="309.3" x2="81.0" y2="296.8" opacity="1.0" stroke="rgb(0,0,0)" stroke-width="2.0"/>
<line x1="72.2" y1="300.0" x2="72.2" y2="262.9" opacity="1.0" stroke="rgb(0,0,0)" stroke-width="2.0"/>
<line x1="72.2" y1="262.9" x2="104.3" y2="244.3" opacity="1.0" stroke="rgb(0,0,0)" stroke-width="2.0"/>
<line x1="81.0" y1="266.1" x2="102.7" y2="253.5" opacity="1.0" stroke="rgb(0,0,0)" stroke-width="2.0"/>
<line x1="104.3" y1="244.3" x2="136.5" y2="262.9" opacity="1.0" stroke="rgb(0,0,0)" stroke-width="2.0"/>
<line x1="136.5" y1="262.9" x2="136.5" y2="300.0" opacity="1.0" stroke="rgb(0,0,0)" stroke-width="2.0"/>
<line x1="129.3" y1="268.9" x2="129.3" y2="294.0" opacity="1.0" stroke="rgb(0,0,0)" stroke-width="2.0"/>
<line x1="265.2" y1="225.7" x2="297.3" y2="244.3" opacity="1.0" stroke="rgb(0,0,0)" stroke-width="2.0"/>
<line x1="297.3" y1="244.3" x2="297.3" y2="281.4" opacity="1.0" stroke="rgb(0,0,0)" stroke-width="2.0"/>
<line x1="290.1" y1="250.3" x2="290.1" y2="275.4" opacity="1.0" stroke="rgb(0,0,0)" stroke-width="2.0"/>
<line x1="297.3" y1="281.4" x2="265.2" y2="300.0" opacity="1.0" stroke="rgb(0,0,0)" stroke-width="2.0"/>
<line x1="265.2" y1="300.0" x2="233.0" y2="281.4" opacity="1.0" stroke="rgb(0,0,0)" stroke-width="2.0"/>
<line x1="263.6" y1="290.8" x2="241.8" y2="278.2" opacity="1.0" stroke="rgb(0,0,0)" stroke-width="2.0"/>
<line x1="233.0" y1="281.4" x2="233.0" y2="244.3" opacity="1.0" stroke="rgb(0,0,0)" stroke-width="2.0"/>
<line x1="233.0" y1="244.3" x2="265.2" y2="225.7" opacity="1.0" stroke="rgb(0,0,0)" stroke-width="2.0"/>
<line x1="241.8" y1="247.5" x2="263.6" y2="234.9" opacity="1.0" stroke="rgb(0,0,0)" stroke-width="2.0"/>
<line x1="200.8" y1="337.1" x2="200.8" y2="300.0" opacity="1.0" stroke="rgb(0,0,0)" stroke-width="2.0"/>
<line x1="208.0" y1="331.1" x2="208.0" y2="306.0" opacity="1.0" stroke="rgb(0,0,0)" stroke-width="2.0"/>
<line x1="200.8" y1="300.0" x2="233.0" y2="281.4" opacity="1.0" stroke="rgb(0,0,0)" stroke-width="2.0"/>
<line x1="265.2" y1="300.0" x2="265.2" y2="337.1" opacity="1.0" stroke="rgb(0,0,0)" stroke-width="2.0"/>
<line x1="265.2" y1="337.1" x2="233.0" y2="355.7" opacity="1.0" stroke="rgb(0,0,0)" stroke-width="2.0"/>
<line x1="256.4" y1="333.9" x2="234.6" y2="346.5" opacity="1.0" stroke="rgb(0,0,0)" stroke-width="2.0"/>
<line x1="233.0" y1="355.7" x2="200.8" y2="337.1" opacity="1.0" stroke="rgb(0,0,0)" stroke-width="2.0"/>
<line x1="361.7" y1="355.7" x2="393.8" y2="374.3" opacity="1.0" stroke="rgb(0,0,0)" stroke-width="2.0"/>
<line x1="393.8" y1="374.3" x2="426.0" y2="355.7" opacity="1.0" stroke="rgb(0,0,0)" stroke-width="2.0"/>
<line x1="395.4" y1="365.1" x2="417.2" y2="352.5" opacity="1.0" stroke="rgb(0,0,0)" stroke-width="2.0"/>
<line x1="426.0" y1="318.6" x2="393.8" y2="300.0" opacity="1.0" stroke="rgb(0,0,0)" stroke-width="2.0"/>
<line x1="417.2" y1="321.8" x2="395.4" y2="309.2" opacity="1.0" stroke="rgb(0,0,0)" stroke-width="2.0"/>
<line x1="393.8" y1="300.0" x2="361.7" y2="318.6" opacity="1.0" stroke="rgb(0,0,0)" stroke-width="2.0"/>
<line x1="361.7" y1="318.6" x2="361.7" y2="355.7" opacity="1.0" stroke="rgb(0,0,0)" stroke-width="2.0"/>
<line x1="368.9" y1="324.6" x2="368.9" y2="349.7" opacity="1.0" stroke="rgb(0,0,0)" stroke-width="2.0"/>
<text x="455.324851" y="375.192060" fill="rgb(12,12,255)" stroke-width="0" font-weight="bold" font-size="16">N</text>
<text x="455.324851" y="391.192060" fill="rgb(12,12,255)" stroke-width="0" font-weight="bold" font-size="16">H</text>
<text x="194.833289" y="233.714286" fill="rgb(12,12,255)" stroke-width="0" font-weight="bold" font-size="16">N</text>
<text x="196.833289" y="48.000000" fill="rgb(102,102,102)" stroke-width="0" font-weight="bold" font-size="16">CH</text>
<text x="220.833289" y="51.680000" fill="rgb(102,102,102)" stroke-width="0" font-weight="bold" font-size="13">3</text>
<text x="14.000000" y="326.571429" fill="rgb(102,102,102)" stroke-width="0" font-weight="bold" font-size="16">H</text>
<text x="26.000000" y="330.251429" fill="rgb(102,102,102)" stroke-width="0" font-weight="bold" font-size="13">3</text>
<text x="32.500000" y="326.571429" fill="rgb(102,102,102)" stroke-width="0" font-weight="bold" font-size="16">C</text>
</svg>
</g>
</svg>
