<svg xmlns="http://www.w3.org/2000/svg" xmlns:xlink="http://www.w3.org/1999/xlink" xmlns:cml="http://www.xml-cml.org/schema" version="1.1" id="topsvg" x="0" y="0" viewBox="0 0 100 100">
<title>C_7_M - Open Babel Depiction</title>
<rect x="0" y="0" width="100" height="100" fill="white"/>
<g transform="translate(0,0)">
<svg width="100" height="100" x="0" y="0" viewBox="0 0 570.748 420" font-family="sans-serif" stroke="rgb(0,0,0)" stroke-width="2" stroke-linecap="round">
<line x1="432.6" y1="266.7" x2="378.4" y2="235.4" opacity="1.0" stroke="rgb(0,0,0)" stroke-width="2.0"/>
<line x1="367.2" y1="215.9" x2="367.2" y2="153.3" opacity="1.0" stroke="rgb(0,0,0)" stroke-width="2.0"/>
<line x1="498.0" y1="304.4" x2="519.5" y2="316.8" opacity="1.0" stroke="rgb(0,0,0)" stroke-width="2.0"/>
<line x1="367.2" y1="77.8" x2="367.2" y2="53.0" opacity="1.0" stroke="rgb(0,0,0)" stroke-width="2.0"/>
<line x1="269.0" y1="285.6" x2="236.3" y2="304.4" opacity="1.0" stroke="rgb(0,0,0)" stroke-width="2.0"/>
<line x1="234.8" y1="307.0" x2="202.1" y2="288.2" opacity="1.0" stroke="rgb(0,0,0)" stroke-width="2.0"/>
<line x1="237.8" y1="301.8" x2="205.1" y2="283.0" opacity="1.0" stroke="rgb(0,0,0)" stroke-width="2.0"/>
<line x1="355.9" y1="235.4" x2="334.4" y2="247.8" opacity="1.0" stroke="rgb(0,0,0)" stroke-width="2.0"/>
<line x1="72.7" y1="361.1" x2="51.3" y2="373.5" opacity="1.0" stroke="rgb(0,0,0)" stroke-width="2.0"/>
<line x1="74.8" y1="364.7" x2="53.4" y2="377.1" opacity="1.0" stroke="rgb(0,0,0)" stroke-width="2.0"/>
<line x1="70.6" y1="357.5" x2="49.2" y2="369.9" opacity="1.0" stroke="rgb(0,0,0)" stroke-width="2.0"/>
<line x1="105.4" y1="342.2" x2="72.7" y2="361.1" opacity="1.0" stroke="rgb(0,0,0)" stroke-width="2.0"/>
<line x1="203.6" y1="285.6" x2="170.9" y2="304.4" opacity="1.0" stroke="rgb(0,0,0)" stroke-width="2.0"/>
<line x1="465.3" y1="323.3" x2="432.6" y2="304.4" opacity="1.0" stroke="rgb(0,0,0)" stroke-width="2.0"/>
<line x1="432.6" y1="304.4" x2="432.6" y2="266.7" opacity="1.0" stroke="rgb(0,0,0)" stroke-width="2.0"/>
<line x1="439.8" y1="298.4" x2="439.8" y2="272.7" opacity="1.0" stroke="rgb(0,0,0)" stroke-width="2.0"/>
<line x1="432.6" y1="266.7" x2="465.3" y2="247.8" opacity="1.0" stroke="rgb(0,0,0)" stroke-width="2.0"/>
<line x1="465.3" y1="247.8" x2="498.0" y2="266.7" opacity="1.0" stroke="rgb(0,0,0)" stroke-width="2.0"/>
<line x1="466.9" y1="257.0" x2="489.2" y2="269.9" opacity="1.0" stroke="rgb(0,0,0)" stroke-width="2.0"/>
<line x1="498.0" y1="266.7" x2="498.0" y2="304.4" opacity="1.0" stroke="rgb(0,0,0)" stroke-width="2.0"/>
<line x1="498.0" y1="304.4" x2="465.3" y2="323.3" opacity="1.0" stroke="rgb(0,0,0)" stroke-width="2.0"/>
<line x1="489.2" y1="301.2" x2="466.9" y2="314.1" opacity="1.0" stroke="rgb(0,0,0)" stroke-width="2.0"/>
<line x1="334.4" y1="134.4" x2="334.4" y2="96.7" opacity="1.0" stroke="rgb(0,0,0)" stroke-width="2.0"/>
<line x1="334.4" y1="96.7" x2="367.2" y2="77.8" opacity="1.0" stroke="rgb(0,0,0)" stroke-width="2.0"/>
<line x1="343.2" y1="99.9" x2="365.6" y2="87.0" opacity="1.0" stroke="rgb(0,0,0)" stroke-width="2.0"/>
<line x1="367.2" y1="77.8" x2="399.9" y2="96.7" opacity="1.0" stroke="rgb(0,0,0)" stroke-width="2.0"/>
<line x1="399.9" y1="96.7" x2="399.9" y2="134.4" opacity="1.0" stroke="rgb(0,0,0)" stroke-width="2.0"/>
<line x1="392.7" y1="102.7" x2="392.7" y2="128.4" opacity="1.0" stroke="rgb(0,0,0)" stroke-width="2.0"/>
<line x1="399.9" y1="134.4" x2="367.2" y2="153.3" opacity="1.0" stroke="rgb(0,0,0)" stroke-width="2.0"/>
<line x1="367.2" y1="153.3" x2="334.4" y2="134.4" opacity="1.0" stroke="rgb(0,0,0)" stroke-width="2.0"/>
<line x1="365.6" y1="144.1" x2="343.2" y2="131.2" opacity="1.0" stroke="rgb(0,0,0)" stroke-width="2.0"/>
<line x1="334.4" y1="285.6" x2="301.7" y2="304.4" opacity="1.0" stroke="rgb(0,0,0)" stroke-width="2.0"/>
<line x1="301.7" y1="304.4" x2="269.0" y2="285.6" opacity="1.0" stroke="rgb(0,0,0)" stroke-width="2.0"/>
<line x1="300.1" y1="295.2" x2="277.8" y2="282.3" opacity="1.0" stroke="rgb(0,0,0)" stroke-width="2.0"/>
<line x1="269.0" y1="285.6" x2="269.0" y2="247.8" opacity="1.0" stroke="rgb(0,0,0)" stroke-width="2.0"/>
<line x1="269.0" y1="247.8" x2="301.7" y2="228.9" opacity="1.0" stroke="rgb(0,0,0)" stroke-width="2.0"/>
<line x1="277.8" y1="251.0" x2="300.1" y2="238.1" opacity="1.0" stroke="rgb(0,0,0)" stroke-width="2.0"/>
<line x1="301.7" y1="228.9" x2="334.4" y2="247.8" opacity="1.0" stroke="rgb(0,0,0)" stroke-width="2.0"/>
<line x1="334.4" y1="247.8" x2="334.4" y2="285.6" opacity="1.0" stroke="rgb(0,0,0)" stroke-width="2.0"/>
<line x1="327.2" y1="253.8" x2="327.2" y2="279.6" opacity="1.0" stroke="rgb(0,0,0)" stroke-width="2.0"/>
<line x1="170.9" y1="342.2" x2="138.1" y2="361.1" opacity="1.0" stroke="rgb(0,0,0)" stroke-width="2.0"/>
<line x1="138.1" y1="361.1" x2="105.4" y2="342.2" opacity="1.0" stroke="rgb(0,0,0)" stroke-width="2.0"/>
<line x1="136.6" y1="351.9" x2="114.2" y2="339.0" opacity="1.0" stroke="rgb(0,0,0)" stroke-width="2.0"/>
<line x1="105.4" y1="342.2" x2="105.4" y2="304.4" opacity="1.0" stroke="rgb(0,0,0)" stroke-width="2.0"/>
<line x1="105.4" y1="304.4" x2="138.1" y2="285.6" opacity="1.0" stroke="rgb(0,0,0)" stroke-width="2.0"/>
<line x1="114.2" y1="307.7" x2="136.6" y2="294.8" opacity="1.0" stroke="rgb(0,0,0)" stroke-width="2.0"/>
<line x1="138.1" y1="285.6" x2="170.9" y2="304.4" opacity="1.0" stroke="rgb(0,0,0)" stroke-width="2.0"/>
<line x1="170.9" y1="304.4" x2="170.9" y2="342.2" opacity="1.0" stroke="rgb(0,0,0)" stroke-width="2.0"/>
<line x1="163.7" y1="310.4" x2="163.7" y2="336.2" opacity="1.0" stroke="rgb(0,0,0)" stroke-width="2.0"/>
<text x="34.000000" y="388.000000" fill="rgb(12,12,255)" stroke-width="0" font-weight="bold" font-size="16">N</text>
<text x="363.165153" y="48.000000" fill="rgb(102,102,102)" stroke-width="0" font-weight="bold" font-size="16">CH</text>
<text x="387.165153" y="51.680000" fill="rgb(102,102,102)" stroke-width="0" font-weight="bold" font-size="13">3</text>
<text x="526.747729" y="331.333333" fill="rgb(102,102,102)" stroke-width="0" font-weight="bold" font-size="16">CH</text>
<text x="550.747729" y="335.013333" fill="rgb(102,102,102)" stroke-width="0" font-weight="bold" font-size="13">3</text>
<text x="361.165153" y="236.888889" fill="rgb(12,12,255)" stroke-width="0" font-weight="bold" font-size="16">N</text>
</svg>
</g>
</svg>