<svg xmlns="http://www.w3.org/2000/svg" xmlns:xlink="http://www.w3.org/1999/xlink" xmlns:cml="http://www.xml-cml.org/schema" version="1.1" id="topsvg" x="0" y="0" viewBox="0 0 100 100">
<title>C_8_O - Open Babel Depiction</title>
<rect x="0" y="0" width="100" height="100" fill="white"/>
<g transform="translate(0,0)">
<svg width="100" height="100" x="0" y="0" viewBox="0 0 439.882 401.111" font-family="sans-serif" stroke="rgb(0,0,0)" stroke-width="2" stroke-linecap="round">
<line x1="301.7" y1="266.7" x2="247.6" y2="235.4" opacity="1.0" stroke="rgb(0,0,0)" stroke-width="2.0"/>
<line x1="236.3" y1="215.9" x2="236.3" y2="153.3" opacity="1.0" stroke="rgb(0,0,0)" stroke-width="2.0"/>
<line x1="367.2" y1="304.4" x2="388.6" y2="316.8" opacity="1.0" stroke="rgb(0,0,0)" stroke-width="2.0"/>
<line x1="236.3" y1="77.8" x2="236.3" y2="53.0" opacity="1.0" stroke="rgb(0,0,0)" stroke-width="2.0"/>
<line x1="225.0" y1="235.4" x2="203.6" y2="247.8" opacity="1.0" stroke="rgb(0,0,0)" stroke-width="2.0"/>
<line x1="138.1" y1="285.6" x2="105.4" y2="304.4" opacity="1.0" stroke="rgb(0,0,0)" stroke-width="2.0"/>
<line x1="221.6" y1="333.5" x2="226.4" y2="322.7" opacity="1.0" stroke="rgb(0,0,0)" stroke-width="2.0"/>
<line x1="222.4" y1="302.5" x2="203.6" y2="285.6" opacity="1.0" stroke="rgb(0,0,0)" stroke-width="2.0"/>
<line x1="215.9" y1="306.4" x2="203.2" y2="294.9" opacity="1.0" stroke="rgb(0,0,0)" stroke-width="2.0"/>
<line x1="203.6" y1="285.6" x2="170.9" y2="304.4" opacity="1.0" stroke="rgb(0,0,0)" stroke-width="2.0"/>
<line x1="170.9" y1="304.4" x2="176.1" y2="329.2" opacity="1.0" stroke="rgb(0,0,0)" stroke-width="2.0"/>
<line x1="179.2" y1="308.8" x2="182.7" y2="325.5" opacity="1.0" stroke="rgb(0,0,0)" stroke-width="2.0"/>
<line x1="191.6" y1="342.8" x2="203.4" y2="344.0" opacity="1.0" stroke="rgb(0,0,0)" stroke-width="2.0"/>
<line x1="334.4" y1="323.3" x2="301.7" y2="304.4" opacity="1.0" stroke="rgb(0,0,0)" stroke-width="2.0"/>
<line x1="301.7" y1="304.4" x2="301.7" y2="266.7" opacity="1.0" stroke="rgb(0,0,0)" stroke-width="2.0"/>
<line x1="308.9" y1="298.4" x2="308.9" y2="272.7" opacity="1.0" stroke="rgb(0,0,0)" stroke-width="2.0"/>
<line x1="301.7" y1="266.7" x2="334.4" y2="247.8" opacity="1.0" stroke="rgb(0,0,0)" stroke-width="2.0"/>
<line x1="334.4" y1="247.8" x2="367.2" y2="266.7" opacity="1.0" stroke="rgb(0,0,0)" stroke-width="2.0"/>
<line x1="336.0" y1="257.0" x2="358.4" y2="269.9" opacity="1.0" stroke="rgb(0,0,0)" stroke-width="2.0"/>
<line x1="367.2" y1="266.7" x2="367.2" y2="304.4" opacity="1.0" stroke="rgb(0,0,0)" stroke-width="2.0"/>
<line x1="367.2" y1="304.4" x2="334.4" y2="323.3" opacity="1.0" stroke="rgb(0,0,0)" stroke-width="2.0"/>
<line x1="358.4" y1="301.2" x2="336.0" y2="314.1" opacity="1.0" stroke="rgb(0,0,0)" stroke-width="2.0"/>
<line x1="203.6" y1="134.4" x2="203.6" y2="96.7" opacity="1.0" stroke="rgb(0,0,0)" stroke-width="2.0"/>
<line x1="203.6" y1="96.7" x2="236.3" y2="77.8" opacity="1.0" stroke="rgb(0,0,0)" stroke-width="2.0"/>
<line x1="212.4" y1="99.9" x2="234.7" y2="87.0" opacity="1.0" stroke="rgb(0,0,0)" stroke-width="2.0"/>
<line x1="236.3" y1="77.8" x2="269.0" y2="96.7" opacity="1.0" stroke="rgb(0,0,0)" stroke-width="2.0"/>
<line x1="269.0" y1="96.7" x2="269.0" y2="134.4" opacity="1.0" stroke="rgb(0,0,0)" stroke-width="2.0"/>
<line x1="261.8" y1="102.7" x2="261.8" y2="128.4" opacity="1.0" stroke="rgb(0,0,0)" stroke-width="2.0"/>
<line x1="269.0" y1="134.4" x2="236.3" y2="153.3" opacity="1.0" stroke="rgb(0,0,0)" stroke-width="2.0"/>
<line x1="236.3" y1="153.3" x2="203.6" y2="134.4" opacity="1.0" stroke="rgb(0,0,0)" stroke-width="2.0"/>
<line x1="234.7" y1="144.1" x2="212.4" y2="131.2" opacity="1.0" stroke="rgb(0,0,0)" stroke-width="2.0"/>
<line x1="170.9" y1="228.9" x2="138.1" y2="247.8" opacity="1.0" stroke="rgb(0,0,0)" stroke-width="2.0"/>
<line x1="138.1" y1="247.8" x2="138.1" y2="285.6" opacity="1.0" stroke="rgb(0,0,0)" stroke-width="2.0"/>
<line x1="145.3" y1="253.8" x2="145.3" y2="279.6" opacity="1.0" stroke="rgb(0,0,0)" stroke-width="2.0"/>
<line x1="138.1" y1="285.6" x2="170.9" y2="304.4" opacity="1.0" stroke="rgb(0,0,0)" stroke-width="2.0"/>
<line x1="203.6" y1="285.6" x2="203.6" y2="247.8" opacity="1.0" stroke="rgb(0,0,0)" stroke-width="2.0"/>
<line x1="203.6" y1="247.8" x2="170.9" y2="228.9" opacity="1.0" stroke="rgb(0,0,0)" stroke-width="2.0"/>
<line x1="194.8" y1="251.0" x2="172.5" y2="238.1" opacity="1.0" stroke="rgb(0,0,0)" stroke-width="2.0"/>
<line x1="94.2" y1="348.7" x2="72.7" y2="361.1" opacity="1.0" stroke="rgb(0,0,0)" stroke-width="2.0"/>
<line x1="72.7" y1="361.1" x2="40.0" y2="342.2" opacity="1.0" stroke="rgb(0,0,0)" stroke-width="2.0"/>
<line x1="71.1" y1="351.9" x2="48.8" y2="339.0" opacity="1.0" stroke="rgb(0,0,0)" stroke-width="2.0"/>
<line x1="40.0" y1="342.2" x2="40.0" y2="304.4" opacity="1.0" stroke="rgb(0,0,0)" stroke-width="2.0"/>
<line x1="40.0" y1="304.4" x2="72.7" y2="285.6" opacity="1.0" stroke="rgb(0,0,0)" stroke-width="2.0"/>
<line x1="48.8" y1="307.7" x2="71.1" y2="294.8" opacity="1.0" stroke="rgb(0,0,0)" stroke-width="2.0"/>
<line x1="72.7" y1="285.6" x2="105.4" y2="304.4" opacity="1.0" stroke="rgb(0,0,0)" stroke-width="2.0"/>
<line x1="105.4" y1="304.4" x2="105.4" y2="329.8" opacity="1.0" stroke="rgb(0,0,0)" stroke-width="2.0"/>
<line x1="98.2" y1="310.4" x2="98.2" y2="327.5" opacity="1.0" stroke="rgb(0,0,0)" stroke-width="2.0"/>
<text x="99.433031" y="350.222222" fill="rgb(12,12,255)" stroke-width="0" font-weight="bold" font-size="16">N</text>
<text x="225.656936" y="318.833823" fill="rgb(12,12,255)" stroke-width="0" font-weight="bold" font-size="16">N</text>
<text x="210.291330" y="353.345540" fill="rgb(178,178,0)" stroke-width="0" font-weight="bold" font-size="16">S</text>
<text x="172.720503" y="349.396687" fill="rgb(12,12,255)" stroke-width="0" font-weight="bold" font-size="16">N</text>
<text x="232.299092" y="48.000000" fill="rgb(102,102,102)" stroke-width="0" font-weight="bold" font-size="16">CH</text>
<text x="256.299092" y="51.680000" fill="rgb(102,102,102)" stroke-width="0" font-weight="bold" font-size="13">3</text>
<text x="395.881668" y="331.333333" fill="rgb(102,102,102)" stroke-width="0" font-weight="bold" font-size="16">CH</text>
<text x="419.881668" y="335.013333" fill="rgb(102,102,102)" stroke-width="0" font-weight="bold" font-size="13">3</text>
<text x="230.299092" y="236.888889" fill="rgb(12,12,255)" stroke-width="0" font-weight="bold" font-size="16">N</text>
</svg>
</g>
</svg>