<svg xmlns="http://www.w3.org/2000/svg" xmlns:xlink="http://www.w3.org/1999/xlink" xmlns:cml="http://www.xml-cml.org/schema" version="1.1" id="topsvg" x="0" y="0" viewBox="0 0 100 100">
<title>C_8_S - Open Babel Depiction</title>
<rect x="0" y="0" width="100" height="100" fill="white"/>
<g transform="translate(0,0)">
<svg width="100" height="100" x="0" y="0" viewBox="0 0 507.239 440.513" font-family="sans-serif" stroke="rgb(0,0,0)" stroke-width="2" stroke-linecap="round">
<line x1="368.6" y1="267.7" x2="314.2" y2="236.2" opacity="1.0" stroke="rgb(0,0,0)" stroke-width="2.0"/>
<line x1="302.9" y1="216.7" x2="302.9" y2="153.8" opacity="1.0" stroke="rgb(0,0,0)" stroke-width="2.0"/>
<line x1="434.4" y1="305.6" x2="456.0" y2="318.1" opacity="1.0" stroke="rgb(0,0,0)" stroke-width="2.0"/>
<line x1="302.9" y1="77.9" x2="302.9" y2="53.0" opacity="1.0" stroke="rgb(0,0,0)" stroke-width="2.0"/>
<line x1="291.7" y1="236.2" x2="270.1" y2="248.7" opacity="1.0" stroke="rgb(0,0,0)" stroke-width="2.0"/>
<line x1="105.7" y1="343.6" x2="72.9" y2="362.6" opacity="1.0" stroke="rgb(0,0,0)" stroke-width="2.0"/>
<line x1="72.9" y1="362.6" x2="51.3" y2="350.1" opacity="1.0" stroke="rgb(0,0,0)" stroke-width="2.0"/>
<line x1="75.9" y1="362.6" x2="75.9" y2="387.5" opacity="1.0" stroke="rgb(0,0,0)" stroke-width="2.0"/>
<line x1="69.9" y1="362.6" x2="69.9" y2="387.5" opacity="1.0" stroke="rgb(0,0,0)" stroke-width="2.0"/>
<line x1="204.3" y1="286.7" x2="171.5" y2="305.6" opacity="1.0" stroke="rgb(0,0,0)" stroke-width="2.0"/>
<line x1="288.1" y1="334.9" x2="293.0" y2="323.9" opacity="1.0" stroke="rgb(0,0,0)" stroke-width="2.0"/>
<line x1="288.9" y1="303.7" x2="270.1" y2="286.7" opacity="1.0" stroke="rgb(0,0,0)" stroke-width="2.0"/>
<line x1="282.5" y1="307.6" x2="269.7" y2="296.0" opacity="1.0" stroke="rgb(0,0,0)" stroke-width="2.0"/>
<line x1="270.1" y1="286.7" x2="237.2" y2="305.6" opacity="1.0" stroke="rgb(0,0,0)" stroke-width="2.0"/>
<line x1="237.2" y1="305.6" x2="242.5" y2="330.5" opacity="1.0" stroke="rgb(0,0,0)" stroke-width="2.0"/>
<line x1="245.5" y1="310.0" x2="249.1" y2="326.9" opacity="1.0" stroke="rgb(0,0,0)" stroke-width="2.0"/>
<line x1="258.0" y1="344.1" x2="269.9" y2="345.4" opacity="1.0" stroke="rgb(0,0,0)" stroke-width="2.0"/>
<line x1="401.5" y1="324.6" x2="368.6" y2="305.6" opacity="1.0" stroke="rgb(0,0,0)" stroke-width="2.0"/>
<line x1="368.6" y1="305.6" x2="368.6" y2="267.7" opacity="1.0" stroke="rgb(0,0,0)" stroke-width="2.0"/>
<line x1="375.8" y1="299.6" x2="375.8" y2="273.7" opacity="1.0" stroke="rgb(0,0,0)" stroke-width="2.0"/>
<line x1="368.6" y1="267.7" x2="401.5" y2="248.7" opacity="1.0" stroke="rgb(0,0,0)" stroke-width="2.0"/>
<line x1="401.5" y1="248.7" x2="434.4" y2="267.7" opacity="1.0" stroke="rgb(0,0,0)" stroke-width="2.0"/>
<line x1="403.1" y1="258.0" x2="425.6" y2="270.9" opacity="1.0" stroke="rgb(0,0,0)" stroke-width="2.0"/>
<line x1="434.4" y1="267.7" x2="434.4" y2="305.6" opacity="1.0" stroke="rgb(0,0,0)" stroke-width="2.0"/>
<line x1="434.4" y1="305.6" x2="401.5" y2="324.6" opacity="1.0" stroke="rgb(0,0,0)" stroke-width="2.0"/>
<line x1="425.6" y1="302.4" x2="403.1" y2="315.4" opacity="1.0" stroke="rgb(0,0,0)" stroke-width="2.0"/>
<line x1="270.1" y1="134.9" x2="270.1" y2="96.9" opacity="1.0" stroke="rgb(0,0,0)" stroke-width="2.0"/>
<line x1="270.1" y1="96.9" x2="302.9" y2="77.9" opacity="1.0" stroke="rgb(0,0,0)" stroke-width="2.0"/>
<line x1="278.8" y1="100.2" x2="301.3" y2="87.2" opacity="1.0" stroke="rgb(0,0,0)" stroke-width="2.0"/>
<line x1="302.9" y1="77.9" x2="335.8" y2="96.9" opacity="1.0" stroke="rgb(0,0,0)" stroke-width="2.0"/>
<line x1="335.8" y1="96.9" x2="335.8" y2="134.9" opacity="1.0" stroke="rgb(0,0,0)" stroke-width="2.0"/>
<line x1="328.6" y1="102.9" x2="328.6" y2="128.9" opacity="1.0" stroke="rgb(0,0,0)" stroke-width="2.0"/>
<line x1="335.8" y1="134.9" x2="302.9" y2="153.8" opacity="1.0" stroke="rgb(0,0,0)" stroke-width="2.0"/>
<line x1="302.9" y1="153.8" x2="270.1" y2="134.9" opacity="1.0" stroke="rgb(0,0,0)" stroke-width="2.0"/>
<line x1="301.3" y1="144.6" x2="278.8" y2="131.6" opacity="1.0" stroke="rgb(0,0,0)" stroke-width="2.0"/>
<line x1="237.2" y1="229.7" x2="204.3" y2="248.7" opacity="1.0" stroke="rgb(0,0,0)" stroke-width="2.0"/>
<line x1="204.3" y1="248.7" x2="204.3" y2="286.7" opacity="1.0" stroke="rgb(0,0,0)" stroke-width="2.0"/>
<line x1="211.5" y1="254.7" x2="211.5" y2="280.7" opacity="1.0" stroke="rgb(0,0,0)" stroke-width="2.0"/>
<line x1="204.3" y1="286.7" x2="237.2" y2="305.6" opacity="1.0" stroke="rgb(0,0,0)" stroke-width="2.0"/>
<line x1="270.1" y1="286.7" x2="270.1" y2="248.7" opacity="1.0" stroke="rgb(0,0,0)" stroke-width="2.0"/>
<line x1="270.1" y1="248.7" x2="237.2" y2="229.7" opacity="1.0" stroke="rgb(0,0,0)" stroke-width="2.0"/>
<line x1="261.3" y1="252.0" x2="238.8" y2="239.0" opacity="1.0" stroke="rgb(0,0,0)" stroke-width="2.0"/>
<line x1="171.5" y1="343.6" x2="138.6" y2="362.6" opacity="1.0" stroke="rgb(0,0,0)" stroke-width="2.0"/>
<line x1="138.6" y1="362.6" x2="105.7" y2="343.6" opacity="1.0" stroke="rgb(0,0,0)" stroke-width="2.0"/>
<line x1="137.0" y1="353.3" x2="114.5" y2="340.4" opacity="1.0" stroke="rgb(0,0,0)" stroke-width="2.0"/>
<line x1="105.7" y1="343.6" x2="105.7" y2="305.6" opacity="1.0" stroke="rgb(0,0,0)" stroke-width="2.0"/>
<line x1="105.7" y1="305.6" x2="138.6" y2="286.7" opacity="1.0" stroke="rgb(0,0,0)" stroke-width="2.0"/>
<line x1="114.5" y1="308.9" x2="137.0" y2="295.9" opacity="1.0" stroke="rgb(0,0,0)" stroke-width="2.0"/>
<line x1="138.6" y1="286.7" x2="171.5" y2="305.6" opacity="1.0" stroke="rgb(0,0,0)" stroke-width="2.0"/>
<line x1="171.5" y1="305.6" x2="171.5" y2="343.6" opacity="1.0" stroke="rgb(0,0,0)" stroke-width="2.0"/>
<line x1="164.3" y1="311.6" x2="164.3" y2="337.6" opacity="1.0" stroke="rgb(0,0,0)" stroke-width="2.0"/>
<text x="239.077305" y="350.760473" fill="rgb(12,12,255)" stroke-width="0" font-weight="bold" font-size="16">N</text>
<text x="276.818136" y="354.727194" fill="rgb(178,178,0)" stroke-width="0" font-weight="bold" font-size="16">S</text>
<text x="292.253270" y="320.059315" fill="rgb(12,12,255)" stroke-width="0" font-weight="bold" font-size="16">N</text>
<text x="14.000000" y="351.589744" fill="rgb(102,102,102)" stroke-width="0" font-weight="bold" font-size="16">H</text>
<text x="26.000000" y="355.269744" fill="rgb(102,102,102)" stroke-width="0" font-weight="bold" font-size="13">3</text>
<text x="32.500000" y="351.589744" fill="rgb(102,102,102)" stroke-width="0" font-weight="bold" font-size="16">C</text>
<text x="66.864554" y="408.512821" fill="rgb(255,12,12)" stroke-width="0" font-weight="bold" font-size="16">O</text>
<text x="298.916430" y="48.000000" fill="rgb(102,102,102)" stroke-width="0" font-weight="bold" font-size="16">CH</text>
<text x="322.916430" y="51.680000" fill="rgb(102,102,102)" stroke-width="0" font-weight="bold" font-size="13">3</text>
<text x="463.239199" y="332.615385" fill="rgb(102,102,102)" stroke-width="0" font-weight="bold" font-size="16">CH</text>
<text x="487.239199" y="336.295385" fill="rgb(102,102,102)" stroke-width="0" font-weight="bold" font-size="13">3</text>
<text x="296.916430" y="237.743590" fill="rgb(12,12,255)" stroke-width="0" font-weight="bold" font-size="16">N</text>
</svg>
</g>
</svg>