<svg xmlns="http://www.w3.org/2000/svg" x="0" y="0" viewBox="0 0 100 100">
<title>C_9_N - Open Babel Depiction</title>
<rect x="0" y="0" width="100" height="100" fill="white"/>
<g transform="translate(0,0)">
<svg width="100" height="100" x="0" y="0" viewBox="0 0 430.878 360.645" font-family="sans-serif" stroke="rgb(0,0,0)" stroke-width="2" stroke-linecap="round">
<line x1="293.7" y1="264.5" x2="240.1" y2="233.6" opacity="1.0" stroke="rgb(0,0,0)" stroke-width="2.0"/>
<line x1="228.8" y1="214.1" x2="228.8" y2="152.3" opacity="1.0" stroke="rgb(0,0,0)" stroke-width="2.0"/>
<line x1="358.5" y1="301.9" x2="379.6" y2="314.1" opacity="1.0" stroke="rgb(0,0,0)" stroke-width="2.0"/>
<line x1="228.8" y1="77.4" x2="228.8" y2="53.0" opacity="1.0" stroke="rgb(0,0,0)" stroke-width="2.0"/>
<line x1="217.6" y1="233.6" x2="196.4" y2="245.8" opacity="1.0" stroke="rgb(0,0,0)" stroke-width="2.0"/>
<line x1="131.6" y1="245.8" x2="99.2" y2="227.1" opacity="1.0" stroke="rgb(0,0,0)" stroke-width="2.0"/>
<line x1="65.0" y1="242.3" x2="48.7" y2="224.2" opacity="1.0" stroke="rgb(0,0,0)" stroke-width="2.0"/>
<line x1="46.5" y1="203.3" x2="58.7" y2="182.1" opacity="1.0" stroke="rgb(0,0,0)" stroke-width="2.0"/>
<line x1="58.7" y1="182.1" x2="95.3" y2="189.9" opacity="1.0" stroke="rgb(0,0,0)" stroke-width="2.0"/>
<line x1="63.1" y1="190.4" x2="87.9" y2="195.7" opacity="1.0" stroke="rgb(0,0,0)" stroke-width="2.0"/>
<line x1="95.3" y1="189.9" x2="99.2" y2="227.1" opacity="1.0" stroke="rgb(0,0,0)" stroke-width="2.0"/>
<line x1="99.2" y1="227.1" x2="65.0" y2="242.3" opacity="1.0" stroke="rgb(0,0,0)" stroke-width="2.0"/>
<line x1="90.8" y1="223.0" x2="67.6" y2="233.3" opacity="1.0" stroke="rgb(0,0,0)" stroke-width="2.0"/>
<line x1="326.1" y1="320.6" x2="293.7" y2="301.9" opacity="1.0" stroke="rgb(0,0,0)" stroke-width="2.0"/>
<line x1="293.7" y1="301.9" x2="293.7" y2="264.5" opacity="1.0" stroke="rgb(0,0,0)" stroke-width="2.0"/>
<line x1="300.9" y1="295.9" x2="300.9" y2="270.5" opacity="1.0" stroke="rgb(0,0,0)" stroke-width="2.0"/>
<line x1="293.7" y1="264.5" x2="326.1" y2="245.8" opacity="1.0" stroke="rgb(0,0,0)" stroke-width="2.0"/>
<line x1="326.1" y1="245.8" x2="358.5" y2="264.5" opacity="1.0" stroke="rgb(0,0,0)" stroke-width="2.0"/>
<line x1="327.7" y1="255.0" x2="349.7" y2="267.8" opacity="1.0" stroke="rgb(0,0,0)" stroke-width="2.0"/>
<line x1="358.5" y1="264.5" x2="358.5" y2="301.9" opacity="1.0" stroke="rgb(0,0,0)" stroke-width="2.0"/>
<line x1="358.5" y1="301.9" x2="326.1" y2="320.6" opacity="1.0" stroke="rgb(0,0,0)" stroke-width="2.0"/>
<line x1="349.7" y1="298.7" x2="327.7" y2="311.4" opacity="1.0" stroke="rgb(0,0,0)" stroke-width="2.0"/>
<line x1="196.4" y1="133.5" x2="196.4" y2="96.1" opacity="1.0" stroke="rgb(0,0,0)" stroke-width="2.0"/>
<line x1="196.4" y1="96.1" x2="228.8" y2="77.4" opacity="1.0" stroke="rgb(0,0,0)" stroke-width="2.0"/>
<line x1="205.2" y1="99.4" x2="227.3" y2="86.7" opacity="1.0" stroke="rgb(0,0,0)" stroke-width="2.0"/>
<line x1="228.8" y1="77.4" x2="261.3" y2="96.1" opacity="1.0" stroke="rgb(0,0,0)" stroke-width="2.0"/>
<line x1="261.3" y1="96.1" x2="261.3" y2="133.5" opacity="1.0" stroke="rgb(0,0,0)" stroke-width="2.0"/>
<line x1="254.1" y1="102.1" x2="254.1" y2="127.5" opacity="1.0" stroke="rgb(0,0,0)" stroke-width="2.0"/>
<line x1="261.3" y1="133.5" x2="228.8" y2="152.3" opacity="1.0" stroke="rgb(0,0,0)" stroke-width="2.0"/>
<line x1="228.8" y1="152.3" x2="196.4" y2="133.5" opacity="1.0" stroke="rgb(0,0,0)" stroke-width="2.0"/>
<line x1="227.3" y1="143.0" x2="205.2" y2="130.3" opacity="1.0" stroke="rgb(0,0,0)" stroke-width="2.0"/>
<line x1="196.4" y1="283.2" x2="164.0" y2="301.9" opacity="1.0" stroke="rgb(0,0,0)" stroke-width="2.0"/>
<line x1="164.0" y1="301.9" x2="131.6" y2="283.2" opacity="1.0" stroke="rgb(0,0,0)" stroke-width="2.0"/>
<line x1="162.4" y1="292.7" x2="140.4" y2="280.0" opacity="1.0" stroke="rgb(0,0,0)" stroke-width="2.0"/>
<line x1="131.6" y1="283.2" x2="131.6" y2="245.8" opacity="1.0" stroke="rgb(0,0,0)" stroke-width="2.0"/>
<line x1="131.6" y1="245.8" x2="164.0" y2="227.1" opacity="1.0" stroke="rgb(0,0,0)" stroke-width="2.0"/>
<line x1="140.4" y1="249.0" x2="162.4" y2="236.3" opacity="1.0" stroke="rgb(0,0,0)" stroke-width="2.0"/>
<line x1="164.0" y1="227.1" x2="196.4" y2="245.8" opacity="1.0" stroke="rgb(0,0,0)" stroke-width="2.0"/>
<line x1="196.4" y1="245.8" x2="196.4" y2="283.2" opacity="1.0" stroke="rgb(0,0,0)" stroke-width="2.0"/>
<line x1="189.2" y1="251.8" x2="189.2" y2="277.2" opacity="1.0" stroke="rgb(0,0,0)" stroke-width="2.0"/>
<text x="386.877724" y="328.645161" fill="rgb(102,102,102)" stroke-width="0" font-weight="bold" font-size="16">CH</text>
<text x="410.877724" y="332.325161" fill="rgb(102,102,102)" stroke-width="0" font-weight="bold" font-size="13">3</text>
<text x="34.000000" y="222.508597" fill="rgb(178,178,0)" stroke-width="0" font-weight="bold" font-size="16">S</text>
<text x="224.847165" y="48.000000" fill="rgb(102,102,102)" stroke-width="0" font-weight="bold" font-size="16">CH</text>
<text x="248.847165" y="51.680000" fill="rgb(102,102,102)" stroke-width="0" font-weight="bold" font-size="13">3</text>
<text x="222.847165" y="235.096774" fill="rgb(12,12,255)" stroke-width="0" font-weight="bold" font-size="16">N</text>
</svg>
</g>
</svg>
