<svg xmlns="http://www.w3.org/2000/svg" x="0" y="0" viewBox="0 0 100 100">
<title>C_9_M - Open Babel Depiction</title>
<rect x="0" y="0" width="100" height="100" fill="white"/>
<g transform="translate(0,0)">
<svg width="100" height="100" x="0" y="0" viewBox="0 0 503.843 362.353" font-family="sans-serif" stroke="rgb(0,0,0)" stroke-width="2" stroke-linecap="round">
<line x1="137.8" y1="96.5" x2="191.8" y2="127.6" opacity="1.0" stroke="rgb(0,0,0)" stroke-width="2.0"/>
<line x1="203.0" y1="147.1" x2="203.0" y2="209.4" opacity="1.0" stroke="rgb(0,0,0)" stroke-width="2.0"/>
<line x1="72.6" y1="58.8" x2="51.3" y2="46.5" opacity="1.0" stroke="rgb(0,0,0)" stroke-width="2.0"/>
<line x1="203.0" y1="284.7" x2="203.0" y2="309.4" opacity="1.0" stroke="rgb(0,0,0)" stroke-width="2.0"/>
<line x1="214.3" y1="127.6" x2="235.6" y2="115.3" opacity="1.0" stroke="rgb(0,0,0)" stroke-width="2.0"/>
<line x1="431.2" y1="190.6" x2="452.6" y2="202.9" opacity="1.0" stroke="rgb(0,0,0)" stroke-width="2.0"/>
<line x1="433.3" y1="187.0" x2="454.7" y2="199.3" opacity="1.0" stroke="rgb(0,0,0)" stroke-width="2.0"/>
<line x1="429.1" y1="194.2" x2="450.5" y2="206.5" opacity="1.0" stroke="rgb(0,0,0)" stroke-width="2.0"/>
<line x1="398.6" y1="171.8" x2="431.2" y2="190.6" opacity="1.0" stroke="rgb(0,0,0)" stroke-width="2.0"/>
<line x1="300.8" y1="115.3" x2="333.4" y2="134.1" opacity="1.0" stroke="rgb(0,0,0)" stroke-width="2.0"/>
<line x1="105.2" y1="40.0" x2="137.8" y2="58.8" opacity="1.0" stroke="rgb(0,0,0)" stroke-width="2.0"/>
<line x1="137.8" y1="58.8" x2="137.8" y2="96.5" opacity="1.0" stroke="rgb(0,0,0)" stroke-width="2.0"/>
<line x1="130.6" y1="64.8" x2="130.6" y2="90.5" opacity="1.0" stroke="rgb(0,0,0)" stroke-width="2.0"/>
<line x1="137.8" y1="96.5" x2="105.2" y2="115.3" opacity="1.0" stroke="rgb(0,0,0)" stroke-width="2.0"/>
<line x1="105.2" y1="115.3" x2="72.6" y2="96.5" opacity="1.0" stroke="rgb(0,0,0)" stroke-width="2.0"/>
<line x1="103.6" y1="106.1" x2="81.4" y2="93.2" opacity="1.0" stroke="rgb(0,0,0)" stroke-width="2.0"/>
<line x1="72.6" y1="96.5" x2="72.6" y2="58.8" opacity="1.0" stroke="rgb(0,0,0)" stroke-width="2.0"/>
<line x1="72.6" y1="58.8" x2="105.2" y2="40.0" opacity="1.0" stroke="rgb(0,0,0)" stroke-width="2.0"/>
<line x1="81.4" y1="62.1" x2="103.6" y2="49.2" opacity="1.0" stroke="rgb(0,0,0)" stroke-width="2.0"/>
<line x1="235.6" y1="228.2" x2="235.6" y2="265.9" opacity="1.0" stroke="rgb(0,0,0)" stroke-width="2.0"/>
<line x1="235.6" y1="265.9" x2="203.0" y2="284.7" opacity="1.0" stroke="rgb(0,0,0)" stroke-width="2.0"/>
<line x1="226.8" y1="262.6" x2="204.6" y2="275.5" opacity="1.0" stroke="rgb(0,0,0)" stroke-width="2.0"/>
<line x1="203.0" y1="284.7" x2="170.4" y2="265.9" opacity="1.0" stroke="rgb(0,0,0)" stroke-width="2.0"/>
<line x1="170.4" y1="265.9" x2="170.4" y2="228.2" opacity="1.0" stroke="rgb(0,0,0)" stroke-width="2.0"/>
<line x1="177.6" y1="259.9" x2="177.6" y2="234.2" opacity="1.0" stroke="rgb(0,0,0)" stroke-width="2.0"/>
<line x1="170.4" y1="228.2" x2="203.0" y2="209.4" opacity="1.0" stroke="rgb(0,0,0)" stroke-width="2.0"/>
<line x1="203.0" y1="209.4" x2="235.6" y2="228.2" opacity="1.0" stroke="rgb(0,0,0)" stroke-width="2.0"/>
<line x1="204.6" y1="218.6" x2="226.8" y2="231.5" opacity="1.0" stroke="rgb(0,0,0)" stroke-width="2.0"/>
<line x1="235.6" y1="77.6" x2="268.2" y2="58.8" opacity="1.0" stroke="rgb(0,0,0)" stroke-width="2.0"/>
<line x1="268.2" y1="58.8" x2="300.8" y2="77.6" opacity="1.0" stroke="rgb(0,0,0)" stroke-width="2.0"/>
<line x1="269.8" y1="68.1" x2="292.0" y2="80.9" opacity="1.0" stroke="rgb(0,0,0)" stroke-width="2.0"/>
<line x1="300.8" y1="77.6" x2="300.8" y2="115.3" opacity="1.0" stroke="rgb(0,0,0)" stroke-width="2.0"/>
<line x1="300.8" y1="115.3" x2="268.2" y2="134.1" opacity="1.0" stroke="rgb(0,0,0)" stroke-width="2.0"/>
<line x1="292.0" y1="112.1" x2="269.8" y2="124.9" opacity="1.0" stroke="rgb(0,0,0)" stroke-width="2.0"/>
<line x1="268.2" y1="134.1" x2="235.6" y2="115.3" opacity="1.0" stroke="rgb(0,0,0)" stroke-width="2.0"/>
<line x1="235.6" y1="115.3" x2="235.6" y2="77.6" opacity="1.0" stroke="rgb(0,0,0)" stroke-width="2.0"/>
<line x1="242.8" y1="109.3" x2="242.8" y2="83.6" opacity="1.0" stroke="rgb(0,0,0)" stroke-width="2.0"/>
<line x1="366.0" y1="115.3" x2="398.6" y2="134.1" opacity="1.0" stroke="rgb(0,0,0)" stroke-width="2.0"/>
<line x1="398.6" y1="134.1" x2="398.6" y2="171.8" opacity="1.0" stroke="rgb(0,0,0)" stroke-width="2.0"/>
<line x1="391.4" y1="140.1" x2="391.4" y2="165.8" opacity="1.0" stroke="rgb(0,0,0)" stroke-width="2.0"/>
<line x1="398.6" y1="171.8" x2="366.0" y2="190.6" opacity="1.0" stroke="rgb(0,0,0)" stroke-width="2.0"/>
<line x1="366.0" y1="190.6" x2="333.4" y2="171.8" opacity="1.0" stroke="rgb(0,0,0)" stroke-width="2.0"/>
<line x1="364.4" y1="181.4" x2="342.2" y2="168.5" opacity="1.0" stroke="rgb(0,0,0)" stroke-width="2.0"/>
<line x1="333.4" y1="171.8" x2="333.4" y2="134.1" opacity="1.0" stroke="rgb(0,0,0)" stroke-width="2.0"/>
<line x1="333.4" y1="134.1" x2="366.0" y2="115.3" opacity="1.0" stroke="rgb(0,0,0)" stroke-width="2.0"/>
<line x1="342.2" y1="137.4" x2="364.4" y2="124.5" opacity="1.0" stroke="rgb(0,0,0)" stroke-width="2.0"/>
<text x="199.016547" y="330.352941" fill="rgb(102,102,102)" stroke-width="0" font-weight="bold" font-size="16">CH</text>
<text x="223.016547" y="334.032941" fill="rgb(102,102,102)" stroke-width="0" font-weight="bold" font-size="13">3</text>
<text x="457.843021" y="217.411765" fill="rgb(12,12,255)" stroke-width="0" font-weight="bold" font-size="16">N</text>
<text x="14.000000" y="48.000000" fill="rgb(102,102,102)" stroke-width="0" font-weight="bold" font-size="16">H</text>
<text x="26.000000" y="51.680000" fill="rgb(102,102,102)" stroke-width="0" font-weight="bold" font-size="13">3</text>
<text x="32.500000" y="48.000000" fill="rgb(102,102,102)" stroke-width="0" font-weight="bold" font-size="16">C</text>
<text x="197.016547" y="142.117647" fill="rgb(12,12,255)" stroke-width="0" font-weight="bold" font-size="16">N</text>
</svg>
</g>
</svg>
