<svg xmlns="http://www.w3.org/2000/svg" xmlns:xlink="http://www.w3.org/1999/xlink" xmlns:cml="http://www.xml-cml.org/schema" version="1.1" id="topsvg" x="0" y="0" viewBox="0 0 100 100">
<title>C_9_T - Open Babel Depiction</title>
<rect x="0" y="0" width="100" height="100" fill="white"/>
<g transform="translate(0,0)">
<svg width="100" height="100" x="0" y="0" viewBox="0 0 470.499 361.818" font-family="sans-serif" stroke="rgb(0,0,0)" stroke-width="2" stroke-linecap="round">
<line x1="332.9" y1="265.5" x2="279.0" y2="234.4" opacity="1.0" stroke="rgb(0,0,0)" stroke-width="2.0"/>
<line x1="267.8" y1="214.9" x2="267.8" y2="152.7" opacity="1.0" stroke="rgb(0,0,0)" stroke-width="2.0"/>
<line x1="398.0" y1="303.0" x2="419.2" y2="315.3" opacity="1.0" stroke="rgb(0,0,0)" stroke-width="2.0"/>
<line x1="267.8" y1="77.6" x2="267.8" y2="53.0" opacity="1.0" stroke="rgb(0,0,0)" stroke-width="2.0"/>
<line x1="256.5" y1="234.4" x2="235.2" y2="246.7" opacity="1.0" stroke="rgb(0,0,0)" stroke-width="2.0"/>
<line x1="72.5" y1="190.3" x2="51.3" y2="178.0" opacity="1.0" stroke="rgb(0,0,0)" stroke-width="2.0"/>
<line x1="170.2" y1="246.7" x2="137.6" y2="227.9" opacity="1.0" stroke="rgb(0,0,0)" stroke-width="2.0"/>
<line x1="365.4" y1="321.8" x2="332.9" y2="303.0" opacity="1.0" stroke="rgb(0,0,0)" stroke-width="2.0"/>
<line x1="332.9" y1="303.0" x2="332.9" y2="265.5" opacity="1.0" stroke="rgb(0,0,0)" stroke-width="2.0"/>
<line x1="340.1" y1="297.0" x2="340.1" y2="271.5" opacity="1.0" stroke="rgb(0,0,0)" stroke-width="2.0"/>
<line x1="332.9" y1="265.5" x2="365.4" y2="246.7" opacity="1.0" stroke="rgb(0,0,0)" stroke-width="2.0"/>
<line x1="365.4" y1="246.7" x2="398.0" y2="265.5" opacity="1.0" stroke="rgb(0,0,0)" stroke-width="2.0"/>
<line x1="367.0" y1="255.9" x2="389.2" y2="268.7" opacity="1.0" stroke="rgb(0,0,0)" stroke-width="2.0"/>
<line x1="398.0" y1="265.5" x2="398.0" y2="303.0" opacity="1.0" stroke="rgb(0,0,0)" stroke-width="2.0"/>
<line x1="398.0" y1="303.0" x2="365.4" y2="321.8" opacity="1.0" stroke="rgb(0,0,0)" stroke-width="2.0"/>
<line x1="389.2" y1="299.8" x2="367.0" y2="312.6" opacity="1.0" stroke="rgb(0,0,0)" stroke-width="2.0"/>
<line x1="235.2" y1="133.9" x2="235.2" y2="96.4" opacity="1.0" stroke="rgb(0,0,0)" stroke-width="2.0"/>
<line x1="235.2" y1="96.4" x2="267.8" y2="77.6" opacity="1.0" stroke="rgb(0,0,0)" stroke-width="2.0"/>
<line x1="244.0" y1="99.6" x2="266.2" y2="86.8" opacity="1.0" stroke="rgb(0,0,0)" stroke-width="2.0"/>
<line x1="267.8" y1="77.6" x2="300.3" y2="96.4" opacity="1.0" stroke="rgb(0,0,0)" stroke-width="2.0"/>
<line x1="300.3" y1="96.4" x2="300.3" y2="133.9" opacity="1.0" stroke="rgb(0,0,0)" stroke-width="2.0"/>
<line x1="293.1" y1="102.4" x2="293.1" y2="127.9" opacity="1.0" stroke="rgb(0,0,0)" stroke-width="2.0"/>
<line x1="300.3" y1="133.9" x2="267.8" y2="152.7" opacity="1.0" stroke="rgb(0,0,0)" stroke-width="2.0"/>
<line x1="267.8" y1="152.7" x2="235.2" y2="133.9" opacity="1.0" stroke="rgb(0,0,0)" stroke-width="2.0"/>
<line x1="266.2" y1="143.5" x2="244.0" y2="130.7" opacity="1.0" stroke="rgb(0,0,0)" stroke-width="2.0"/>
<line x1="235.2" y1="284.2" x2="202.7" y2="303.0" opacity="1.0" stroke="rgb(0,0,0)" stroke-width="2.0"/>
<line x1="202.7" y1="303.0" x2="170.2" y2="284.2" opacity="1.0" stroke="rgb(0,0,0)" stroke-width="2.0"/>
<line x1="201.1" y1="293.8" x2="179.0" y2="281.0" opacity="1.0" stroke="rgb(0,0,0)" stroke-width="2.0"/>
<line x1="170.2" y1="284.2" x2="170.2" y2="246.7" opacity="1.0" stroke="rgb(0,0,0)" stroke-width="2.0"/>
<line x1="170.2" y1="246.7" x2="202.7" y2="227.9" opacity="1.0" stroke="rgb(0,0,0)" stroke-width="2.0"/>
<line x1="179.0" y1="249.9" x2="201.1" y2="237.1" opacity="1.0" stroke="rgb(0,0,0)" stroke-width="2.0"/>
<line x1="202.7" y1="227.9" x2="235.2" y2="246.7" opacity="1.0" stroke="rgb(0,0,0)" stroke-width="2.0"/>
<line x1="235.2" y1="246.7" x2="235.2" y2="284.2" opacity="1.0" stroke="rgb(0,0,0)" stroke-width="2.0"/>
<line x1="228.0" y1="252.7" x2="228.0" y2="278.2" opacity="1.0" stroke="rgb(0,0,0)" stroke-width="2.0"/>
<line x1="105.1" y1="246.7" x2="72.5" y2="227.9" opacity="1.0" stroke="rgb(0,0,0)" stroke-width="2.0"/>
<line x1="72.5" y1="227.9" x2="72.5" y2="190.3" opacity="1.0" stroke="rgb(0,0,0)" stroke-width="2.0"/>
<line x1="79.7" y1="221.9" x2="79.7" y2="196.3" opacity="1.0" stroke="rgb(0,0,0)" stroke-width="2.0"/>
<line x1="72.5" y1="190.3" x2="105.1" y2="171.5" opacity="1.0" stroke="rgb(0,0,0)" stroke-width="2.0"/>
<line x1="105.1" y1="171.5" x2="137.6" y2="190.3" opacity="1.0" stroke="rgb(0,0,0)" stroke-width="2.0"/>
<line x1="106.7" y1="180.8" x2="128.8" y2="193.5" opacity="1.0" stroke="rgb(0,0,0)" stroke-width="2.0"/>
<line x1="137.6" y1="190.3" x2="137.6" y2="227.9" opacity="1.0" stroke="rgb(0,0,0)" stroke-width="2.0"/>
<line x1="137.6" y1="227.9" x2="105.1" y2="246.7" opacity="1.0" stroke="rgb(0,0,0)" stroke-width="2.0"/>
<line x1="128.8" y1="224.6" x2="106.7" y2="237.4" opacity="1.0" stroke="rgb(0,0,0)" stroke-width="2.0"/>
<text x="263.790924" y="48.000000" fill="rgb(102,102,102)" stroke-width="0" font-weight="bold" font-size="16">CH</text>
<text x="287.790924" y="51.680000" fill="rgb(102,102,102)" stroke-width="0" font-weight="bold" font-size="13">3</text>
<text x="14.000000" y="179.515152" fill="rgb(102,102,102)" stroke-width="0" font-weight="bold" font-size="16">H</text>
<text x="26.000000" y="183.195152" fill="rgb(102,102,102)" stroke-width="0" font-weight="bold" font-size="13">3</text>
<text x="32.500000" y="179.515152" fill="rgb(102,102,102)" stroke-width="0" font-weight="bold" font-size="16">C</text>
<text x="426.498728" y="329.818182" fill="rgb(102,102,102)" stroke-width="0" font-weight="bold" font-size="16">CH</text>
<text x="450.498728" y="333.498182" fill="rgb(102,102,102)" stroke-width="0" font-weight="bold" font-size="13">3</text>
<text x="261.790924" y="235.878788" fill="rgb(12,12,255)" stroke-width="0" font-weight="bold" font-size="16">N</text>
</svg>
</g>
</svg>