<svg xmlns="http://www.w3.org/2000/svg" x="0" y="0" viewBox="0 0 100 100">
<title>C_9_S - Open Babel Depiction</title>
<rect x="0" y="0" width="100" height="100" fill="white"/>
<g transform="translate(0,0)">
<svg width="100" height="100" x="0" y="0" viewBox="0 0 504.6 362.857" font-family="sans-serif" stroke="rgb(0,0,0)" stroke-width="2" stroke-linecap="round">
<line x1="366.6" y1="266.3" x2="312.6" y2="235.1" opacity="1.0" stroke="rgb(0,0,0)" stroke-width="2.0"/>
<line x1="301.3" y1="215.6" x2="301.3" y2="153.1" opacity="1.0" stroke="rgb(0,0,0)" stroke-width="2.0"/>
<line x1="431.9" y1="304.0" x2="453.3" y2="316.4" opacity="1.0" stroke="rgb(0,0,0)" stroke-width="2.0"/>
<line x1="301.3" y1="77.7" x2="301.3" y2="53.0" opacity="1.0" stroke="rgb(0,0,0)" stroke-width="2.0"/>
<line x1="290.0" y1="235.1" x2="268.6" y2="247.4" opacity="1.0" stroke="rgb(0,0,0)" stroke-width="2.0"/>
<line x1="105.3" y1="190.9" x2="72.7" y2="172.0" opacity="1.0" stroke="rgb(0,0,0)" stroke-width="2.0"/>
<line x1="72.7" y1="172.0" x2="72.7" y2="147.3" opacity="1.0" stroke="rgb(0,0,0)" stroke-width="2.0"/>
<line x1="74.2" y1="174.6" x2="52.8" y2="187.0" opacity="1.0" stroke="rgb(0,0,0)" stroke-width="2.0"/>
<line x1="71.2" y1="169.4" x2="49.8" y2="181.8" opacity="1.0" stroke="rgb(0,0,0)" stroke-width="2.0"/>
<line x1="203.3" y1="247.4" x2="170.6" y2="228.6" opacity="1.0" stroke="rgb(0,0,0)" stroke-width="2.0"/>
<line x1="399.3" y1="322.9" x2="366.6" y2="304.0" opacity="1.0" stroke="rgb(0,0,0)" stroke-width="2.0"/>
<line x1="366.6" y1="304.0" x2="366.6" y2="266.3" opacity="1.0" stroke="rgb(0,0,0)" stroke-width="2.0"/>
<line x1="373.8" y1="298.0" x2="373.8" y2="272.3" opacity="1.0" stroke="rgb(0,0,0)" stroke-width="2.0"/>
<line x1="366.6" y1="266.3" x2="399.3" y2="247.4" opacity="1.0" stroke="rgb(0,0,0)" stroke-width="2.0"/>
<line x1="399.3" y1="247.4" x2="431.9" y2="266.3" opacity="1.0" stroke="rgb(0,0,0)" stroke-width="2.0"/>
<line x1="400.9" y1="256.7" x2="423.1" y2="269.5" opacity="1.0" stroke="rgb(0,0,0)" stroke-width="2.0"/>
<line x1="431.9" y1="266.3" x2="431.9" y2="304.0" opacity="1.0" stroke="rgb(0,0,0)" stroke-width="2.0"/>
<line x1="431.9" y1="304.0" x2="399.3" y2="322.9" opacity="1.0" stroke="rgb(0,0,0)" stroke-width="2.0"/>
<line x1="423.1" y1="300.8" x2="400.9" y2="313.6" opacity="1.0" stroke="rgb(0,0,0)" stroke-width="2.0"/>
<line x1="268.6" y1="134.3" x2="268.6" y2="96.6" opacity="1.0" stroke="rgb(0,0,0)" stroke-width="2.0"/>
<line x1="268.6" y1="96.6" x2="301.3" y2="77.7" opacity="1.0" stroke="rgb(0,0,0)" stroke-width="2.0"/>
<line x1="277.4" y1="99.8" x2="299.7" y2="86.9" opacity="1.0" stroke="rgb(0,0,0)" stroke-width="2.0"/>
<line x1="301.3" y1="77.7" x2="334.0" y2="96.6" opacity="1.0" stroke="rgb(0,0,0)" stroke-width="2.0"/>
<line x1="334.0" y1="96.6" x2="334.0" y2="134.3" opacity="1.0" stroke="rgb(0,0,0)" stroke-width="2.0"/>
<line x1="326.8" y1="102.6" x2="326.8" y2="128.3" opacity="1.0" stroke="rgb(0,0,0)" stroke-width="2.0"/>
<line x1="334.0" y1="134.3" x2="301.3" y2="153.1" opacity="1.0" stroke="rgb(0,0,0)" stroke-width="2.0"/>
<line x1="301.3" y1="153.1" x2="268.6" y2="134.3" opacity="1.0" stroke="rgb(0,0,0)" stroke-width="2.0"/>
<line x1="299.7" y1="143.9" x2="277.4" y2="131.1" opacity="1.0" stroke="rgb(0,0,0)" stroke-width="2.0"/>
<line x1="268.6" y1="285.1" x2="236.0" y2="304.0" opacity="1.0" stroke="rgb(0,0,0)" stroke-width="2.0"/>
<line x1="236.0" y1="304.0" x2="203.3" y2="285.1" opacity="1.0" stroke="rgb(0,0,0)" stroke-width="2.0"/>
<line x1="234.4" y1="294.8" x2="212.1" y2="281.9" opacity="1.0" stroke="rgb(0,0,0)" stroke-width="2.0"/>
<line x1="203.3" y1="285.1" x2="203.3" y2="247.4" opacity="1.0" stroke="rgb(0,0,0)" stroke-width="2.0"/>
<line x1="203.3" y1="247.4" x2="236.0" y2="228.6" opacity="1.0" stroke="rgb(0,0,0)" stroke-width="2.0"/>
<line x1="212.1" y1="250.7" x2="234.4" y2="237.8" opacity="1.0" stroke="rgb(0,0,0)" stroke-width="2.0"/>
<line x1="236.0" y1="228.6" x2="268.6" y2="247.4" opacity="1.0" stroke="rgb(0,0,0)" stroke-width="2.0"/>
<line x1="268.6" y1="247.4" x2="268.6" y2="285.1" opacity="1.0" stroke="rgb(0,0,0)" stroke-width="2.0"/>
<line x1="261.4" y1="253.4" x2="261.4" y2="279.1" opacity="1.0" stroke="rgb(0,0,0)" stroke-width="2.0"/>
<line x1="138.0" y1="247.4" x2="105.3" y2="228.6" opacity="1.0" stroke="rgb(0,0,0)" stroke-width="2.0"/>
<line x1="105.3" y1="228.6" x2="105.3" y2="190.9" opacity="1.0" stroke="rgb(0,0,0)" stroke-width="2.0"/>
<line x1="112.5" y1="222.6" x2="112.5" y2="196.9" opacity="1.0" stroke="rgb(0,0,0)" stroke-width="2.0"/>
<line x1="105.3" y1="190.9" x2="138.0" y2="172.0" opacity="1.0" stroke="rgb(0,0,0)" stroke-width="2.0"/>
<line x1="138.0" y1="172.0" x2="170.6" y2="190.9" opacity="1.0" stroke="rgb(0,0,0)" stroke-width="2.0"/>
<line x1="139.6" y1="181.2" x2="161.8" y2="194.1" opacity="1.0" stroke="rgb(0,0,0)" stroke-width="2.0"/>
<line x1="170.6" y1="190.9" x2="170.6" y2="228.6" opacity="1.0" stroke="rgb(0,0,0)" stroke-width="2.0"/>
<line x1="170.6" y1="228.6" x2="138.0" y2="247.4" opacity="1.0" stroke="rgb(0,0,0)" stroke-width="2.0"/>
<line x1="161.8" y1="225.3" x2="139.6" y2="238.2" opacity="1.0" stroke="rgb(0,0,0)" stroke-width="2.0"/>
<text x="34.000000" y="198.857143" fill="rgb(255,12,12)" stroke-width="0" font-weight="bold" font-size="16">O</text>
<text x="68.661530" y="142.285714" fill="rgb(102,102,102)" stroke-width="0" font-weight="bold" font-size="16">CH</text>
<text x="92.661530" y="145.965714" fill="rgb(102,102,102)" stroke-width="0" font-weight="bold" font-size="13">3</text>
<text x="297.292236" y="48.000000" fill="rgb(102,102,102)" stroke-width="0" font-weight="bold" font-size="16">CH</text>
<text x="321.292236" y="51.680000" fill="rgb(102,102,102)" stroke-width="0" font-weight="bold" font-size="13">3</text>
<text x="460.599884" y="330.857143" fill="rgb(102,102,102)" stroke-width="0" font-weight="bold" font-size="16">CH</text>
<text x="484.599884" y="334.537143" fill="rgb(102,102,102)" stroke-width="0" font-weight="bold" font-size="13">3</text>
<text x="295.292236" y="236.571429" fill="rgb(12,12,255)" stroke-width="0" font-weight="bold" font-size="16">N</text>
</svg>
</g>
</svg>
