<svg xmlns="http://www.w3.org/2000/svg" xmlns:xlink="http://www.w3.org/1999/xlink" xmlns:cml="http://www.xml-cml.org/schema" version="1.1" id="topsvg" x="0" y="0" viewBox="0 0 100 100">
<title>D_1_L - Open Babel Depiction</title>
<rect x="0" y="0" width="100" height="100" fill="white"/>
<g transform="translate(0,0)">
<svg width="100" height="100" x="0" y="0" viewBox="0 0 304.078 521.298" font-family="sans-serif" stroke="rgb(0,0,0)" stroke-width="2" stroke-linecap="round">
<line x1="138.9" y1="303.8" x2="136.1" y2="276.9" opacity="1.0" stroke="rgb(0,0,0)" stroke-width="2.0"/>
<line x1="127.7" y1="197.4" x2="123.5" y2="157.6" opacity="1.0" stroke="rgb(0,0,0)" stroke-width="2.0"/>
<line x1="174.9" y1="336.7" x2="166.6" y2="375.9" opacity="1.0" stroke="rgb(0,0,0)" stroke-width="2.0"/>
<line x1="166.6" y1="375.9" x2="126.8" y2="380.0" opacity="1.0" stroke="rgb(0,0,0)" stroke-width="2.0"/>
<line x1="126.8" y1="380.0" x2="110.5" y2="343.5" opacity="1.0" stroke="rgb(0,0,0)" stroke-width="2.0"/>
<line x1="110.5" y1="343.5" x2="130.6" y2="325.4" opacity="1.0" stroke="rgb(0,0,0)" stroke-width="2.0"/>
<line x1="151.5" y1="323.2" x2="174.9" y2="336.7" opacity="1.0" stroke="rgb(0,0,0)" stroke-width="2.0"/>
<line x1="62.8" y1="40.0" x2="50.5" y2="78.0" opacity="1.0" stroke="rgb(0,0,0)" stroke-width="2.0"/>
<line x1="67.8" y1="47.9" x2="59.2" y2="74.6" opacity="1.0" stroke="rgb(0,0,0)" stroke-width="2.0"/>
<line x1="50.5" y1="78.0" x2="82.8" y2="101.6" opacity="1.0" stroke="rgb(0,0,0)" stroke-width="2.0"/>
<line x1="82.8" y1="101.6" x2="115.2" y2="78.0" opacity="1.0" stroke="rgb(0,0,0)" stroke-width="2.0"/>
<line x1="115.2" y1="78.0" x2="106.8" y2="52.4" opacity="1.0" stroke="rgb(0,0,0)" stroke-width="2.0"/>
<line x1="89.8" y1="40.0" x2="62.8" y2="40.0" opacity="1.0" stroke="rgb(0,0,0)" stroke-width="2.0"/>
<line x1="47.2" y1="371.7" x2="70.8" y2="339.3" opacity="1.0" stroke="rgb(0,0,0)" stroke-width="2.0"/>
<line x1="70.8" y1="339.3" x2="110.5" y2="343.5" opacity="1.0" stroke="rgb(0,0,0)" stroke-width="2.0"/>
<line x1="76.0" y1="347.1" x2="103.8" y2="350.0" opacity="1.0" stroke="rgb(0,0,0)" stroke-width="2.0"/>
<line x1="126.8" y1="380.0" x2="103.3" y2="412.4" opacity="1.0" stroke="rgb(0,0,0)" stroke-width="2.0"/>
<line x1="117.5" y1="380.7" x2="101.0" y2="403.3" opacity="1.0" stroke="rgb(0,0,0)" stroke-width="2.0"/>
<line x1="103.3" y1="412.4" x2="63.5" y2="408.2" opacity="1.0" stroke="rgb(0,0,0)" stroke-width="2.0"/>
<line x1="63.5" y1="408.2" x2="47.2" y2="371.7" opacity="1.0" stroke="rgb(0,0,0)" stroke-width="2.0"/>
<line x1="67.6" y1="399.8" x2="56.3" y2="374.2" opacity="1.0" stroke="rgb(0,0,0)" stroke-width="2.0"/>
<line x1="40.0" y1="440.6" x2="56.3" y2="477.1" opacity="1.0" stroke="rgb(0,0,0)" stroke-width="2.0"/>
<line x1="49.0" y1="443.1" x2="60.4" y2="468.7" opacity="1.0" stroke="rgb(0,0,0)" stroke-width="2.0"/>
<line x1="56.3" y1="477.1" x2="96.1" y2="481.3" opacity="1.0" stroke="rgb(0,0,0)" stroke-width="2.0"/>
<line x1="96.1" y1="481.3" x2="119.6" y2="448.9" opacity="1.0" stroke="rgb(0,0,0)" stroke-width="2.0"/>
<line x1="93.8" y1="472.2" x2="110.2" y2="449.6" opacity="1.0" stroke="rgb(0,0,0)" stroke-width="2.0"/>
<line x1="119.6" y1="448.9" x2="103.3" y2="412.4" opacity="1.0" stroke="rgb(0,0,0)" stroke-width="2.0"/>
<line x1="63.5" y1="408.2" x2="40.0" y2="440.6" opacity="1.0" stroke="rgb(0,0,0)" stroke-width="2.0"/>
<line x1="234.4" y1="390.3" x2="196.3" y2="402.6" opacity="1.0" stroke="rgb(0,0,0)" stroke-width="2.0"/>
<line x1="196.3" y1="402.6" x2="166.6" y2="375.9" opacity="1.0" stroke="rgb(0,0,0)" stroke-width="2.0"/>
<line x1="196.7" y1="393.3" x2="175.9" y2="374.5" opacity="1.0" stroke="rgb(0,0,0)" stroke-width="2.0"/>
<line x1="174.9" y1="336.7" x2="212.9" y2="324.4" opacity="1.0" stroke="rgb(0,0,0)" stroke-width="2.0"/>
<line x1="182.8" y1="341.7" x2="209.5" y2="333.1" opacity="1.0" stroke="rgb(0,0,0)" stroke-width="2.0"/>
<line x1="212.9" y1="324.4" x2="242.7" y2="351.1" opacity="1.0" stroke="rgb(0,0,0)" stroke-width="2.0"/>
<line x1="242.7" y1="351.1" x2="234.4" y2="390.3" opacity="1.0" stroke="rgb(0,0,0)" stroke-width="2.0"/>
<line x1="234.4" y1="355.5" x2="228.6" y2="382.9" opacity="1.0" stroke="rgb(0,0,0)" stroke-width="2.0"/>
<line x1="255.8" y1="456.1" x2="217.7" y2="468.5" opacity="1.0" stroke="rgb(0,0,0)" stroke-width="2.0"/>
<line x1="217.7" y1="468.5" x2="188.0" y2="441.7" opacity="1.0" stroke="rgb(0,0,0)" stroke-width="2.0"/>
<line x1="218.1" y1="459.1" x2="197.3" y2="440.4" opacity="1.0" stroke="rgb(0,0,0)" stroke-width="2.0"/>
<line x1="188.0" y1="441.7" x2="196.3" y2="402.6" opacity="1.0" stroke="rgb(0,0,0)" stroke-width="2.0"/>
<line x1="234.4" y1="390.3" x2="264.1" y2="417.0" opacity="1.0" stroke="rgb(0,0,0)" stroke-width="2.0"/>
<line x1="264.1" y1="417.0" x2="255.8" y2="456.1" opacity="1.0" stroke="rgb(0,0,0)" stroke-width="2.0"/>
<line x1="255.8" y1="421.4" x2="250.0" y2="448.8" opacity="1.0" stroke="rgb(0,0,0)" stroke-width="2.0"/>
<line x1="168.4" y1="253.4" x2="164.3" y2="213.7" opacity="1.0" stroke="rgb(0,0,0)" stroke-width="2.0"/>
<line x1="164.3" y1="213.7" x2="127.7" y2="197.4" opacity="1.0" stroke="rgb(0,0,0)" stroke-width="2.0"/>
<line x1="155.8" y1="217.8" x2="130.3" y2="206.4" opacity="1.0" stroke="rgb(0,0,0)" stroke-width="2.0"/>
<line x1="127.7" y1="197.4" x2="95.4" y2="220.9" opacity="1.0" stroke="rgb(0,0,0)" stroke-width="2.0"/>
<line x1="95.4" y1="220.9" x2="99.5" y2="260.7" opacity="1.0" stroke="rgb(0,0,0)" stroke-width="2.0"/>
<line x1="103.1" y1="226.1" x2="106.1" y2="254.0" opacity="1.0" stroke="rgb(0,0,0)" stroke-width="2.0"/>
<line x1="99.5" y1="260.7" x2="136.1" y2="276.9" opacity="1.0" stroke="rgb(0,0,0)" stroke-width="2.0"/>
<line x1="136.1" y1="276.9" x2="168.4" y2="253.4" opacity="1.0" stroke="rgb(0,0,0)" stroke-width="2.0"/>
<line x1="136.7" y1="267.6" x2="159.4" y2="251.1" opacity="1.0" stroke="rgb(0,0,0)" stroke-width="2.0"/>
<line x1="155.9" y1="134.1" x2="151.7" y2="94.3" opacity="1.0" stroke="rgb(0,0,0)" stroke-width="2.0"/>
<line x1="151.7" y1="94.3" x2="115.2" y2="78.0" opacity="1.0" stroke="rgb(0,0,0)" stroke-width="2.0"/>
<line x1="143.3" y1="98.4" x2="117.7" y2="87.1" opacity="1.0" stroke="rgb(0,0,0)" stroke-width="2.0"/>
<line x1="82.8" y1="101.6" x2="87.0" y2="141.3" opacity="1.0" stroke="rgb(0,0,0)" stroke-width="2.0"/>
<line x1="90.6" y1="106.8" x2="93.5" y2="134.6" opacity="1.0" stroke="rgb(0,0,0)" stroke-width="2.0"/>
<line x1="87.0" y1="141.3" x2="123.5" y2="157.6" opacity="1.0" stroke="rgb(0,0,0)" stroke-width="2.0"/>
<line x1="123.5" y1="157.6" x2="155.9" y2="134.1" opacity="1.0" stroke="rgb(0,0,0)" stroke-width="2.0"/>
<line x1="124.2" y1="148.3" x2="146.8" y2="131.8" opacity="1.0" stroke="rgb(0,0,0)" stroke-width="2.0"/>
<text x="96.812512" y="48.000000" fill="rgb(12,12,255)" stroke-width="0" font-weight="bold" font-size="16">N</text>
<text x="96.812512" y="32.000000" fill="rgb(12,12,255)" stroke-width="0" font-weight="bold" font-size="16">H</text>
<text x="134.260023" y="324.727516" fill="rgb(12,12,255)" stroke-width="0" font-weight="bold" font-size="16">N</text>
</svg>
</g>
</svg>