<svg xmlns="http://www.w3.org/2000/svg" x="0" y="0" viewBox="0 0 100 100">
<title>D_1_R - Open Babel Depiction</title>
<rect x="0" y="0" width="100" height="100" fill="white"/>
<g transform="translate(0,0)">
<svg width="100" height="100" x="0" y="0" viewBox="0 0 304.078 546.548" font-family="sans-serif" stroke="rgb(0,0,0)" stroke-width="2" stroke-linecap="round">
<line x1="138.9" y1="329.0" x2="136.1" y2="302.2" opacity="1.0" stroke="rgb(0,0,0)" stroke-width="2.0"/>
<line x1="97.9" y1="61.0" x2="85.1" y2="55.3" opacity="1.0" stroke="rgb(0,0,0)" stroke-width="2.0"/>
<line x1="100.3" y1="55.5" x2="87.5" y2="49.8" opacity="1.0" stroke="rgb(0,0,0)" stroke-width="2.0"/>
<line x1="121.5" y1="55.9" x2="132.8" y2="47.6" opacity="1.0" stroke="rgb(0,0,0)" stroke-width="2.0"/>
<line x1="115.2" y1="103.3" x2="112.4" y2="76.4" opacity="1.0" stroke="rgb(0,0,0)" stroke-width="2.0"/>
<line x1="127.7" y1="222.6" x2="123.5" y2="182.9" opacity="1.0" stroke="rgb(0,0,0)" stroke-width="2.0"/>
<line x1="174.9" y1="362.0" x2="166.6" y2="401.1" opacity="1.0" stroke="rgb(0,0,0)" stroke-width="2.0"/>
<line x1="166.6" y1="401.1" x2="126.8" y2="405.3" opacity="1.0" stroke="rgb(0,0,0)" stroke-width="2.0"/>
<line x1="126.8" y1="405.3" x2="110.5" y2="368.7" opacity="1.0" stroke="rgb(0,0,0)" stroke-width="2.0"/>
<line x1="110.5" y1="368.7" x2="130.6" y2="350.7" opacity="1.0" stroke="rgb(0,0,0)" stroke-width="2.0"/>
<line x1="151.5" y1="348.5" x2="174.9" y2="362.0" opacity="1.0" stroke="rgb(0,0,0)" stroke-width="2.0"/>
<line x1="47.2" y1="396.9" x2="70.8" y2="364.6" opacity="1.0" stroke="rgb(0,0,0)" stroke-width="2.0"/>
<line x1="70.8" y1="364.6" x2="110.5" y2="368.7" opacity="1.0" stroke="rgb(0,0,0)" stroke-width="2.0"/>
<line x1="76.0" y1="372.3" x2="103.8" y2="375.3" opacity="1.0" stroke="rgb(0,0,0)" stroke-width="2.0"/>
<line x1="126.8" y1="405.3" x2="103.3" y2="437.6" opacity="1.0" stroke="rgb(0,0,0)" stroke-width="2.0"/>
<line x1="117.5" y1="405.9" x2="101.0" y2="428.6" opacity="1.0" stroke="rgb(0,0,0)" stroke-width="2.0"/>
<line x1="103.3" y1="437.6" x2="63.5" y2="433.5" opacity="1.0" stroke="rgb(0,0,0)" stroke-width="2.0"/>
<line x1="63.5" y1="433.5" x2="47.2" y2="396.9" opacity="1.0" stroke="rgb(0,0,0)" stroke-width="2.0"/>
<line x1="67.6" y1="425.1" x2="56.3" y2="399.5" opacity="1.0" stroke="rgb(0,0,0)" stroke-width="2.0"/>
<line x1="40.0" y1="465.8" x2="56.3" y2="502.4" opacity="1.0" stroke="rgb(0,0,0)" stroke-width="2.0"/>
<line x1="49.0" y1="468.4" x2="60.4" y2="494.0" opacity="1.0" stroke="rgb(0,0,0)" stroke-width="2.0"/>
<line x1="56.3" y1="502.4" x2="96.1" y2="506.5" opacity="1.0" stroke="rgb(0,0,0)" stroke-width="2.0"/>
<line x1="96.1" y1="506.5" x2="119.6" y2="474.2" opacity="1.0" stroke="rgb(0,0,0)" stroke-width="2.0"/>
<line x1="93.8" y1="497.5" x2="110.2" y2="474.8" opacity="1.0" stroke="rgb(0,0,0)" stroke-width="2.0"/>
<line x1="119.6" y1="474.2" x2="103.3" y2="437.6" opacity="1.0" stroke="rgb(0,0,0)" stroke-width="2.0"/>
<line x1="63.5" y1="433.5" x2="40.0" y2="465.8" opacity="1.0" stroke="rgb(0,0,0)" stroke-width="2.0"/>
<line x1="234.4" y1="415.5" x2="196.3" y2="427.9" opacity="1.0" stroke="rgb(0,0,0)" stroke-width="2.0"/>
<line x1="196.3" y1="427.9" x2="166.6" y2="401.1" opacity="1.0" stroke="rgb(0,0,0)" stroke-width="2.0"/>
<line x1="196.7" y1="418.5" x2="175.9" y2="399.8" opacity="1.0" stroke="rgb(0,0,0)" stroke-width="2.0"/>
<line x1="174.9" y1="362.0" x2="212.9" y2="349.6" opacity="1.0" stroke="rgb(0,0,0)" stroke-width="2.0"/>
<line x1="182.8" y1="367.0" x2="209.5" y2="358.3" opacity="1.0" stroke="rgb(0,0,0)" stroke-width="2.0"/>
<line x1="212.9" y1="349.6" x2="242.7" y2="376.4" opacity="1.0" stroke="rgb(0,0,0)" stroke-width="2.0"/>
<line x1="242.7" y1="376.4" x2="234.4" y2="415.5" opacity="1.0" stroke="rgb(0,0,0)" stroke-width="2.0"/>
<line x1="234.4" y1="380.8" x2="228.6" y2="408.1" opacity="1.0" stroke="rgb(0,0,0)" stroke-width="2.0"/>
<line x1="255.8" y1="481.4" x2="217.7" y2="493.8" opacity="1.0" stroke="rgb(0,0,0)" stroke-width="2.0"/>
<line x1="217.7" y1="493.8" x2="188.0" y2="467.0" opacity="1.0" stroke="rgb(0,0,0)" stroke-width="2.0"/>
<line x1="218.1" y1="484.4" x2="197.3" y2="465.7" opacity="1.0" stroke="rgb(0,0,0)" stroke-width="2.0"/>
<line x1="188.0" y1="467.0" x2="196.3" y2="427.9" opacity="1.0" stroke="rgb(0,0,0)" stroke-width="2.0"/>
<line x1="234.4" y1="415.5" x2="264.1" y2="442.3" opacity="1.0" stroke="rgb(0,0,0)" stroke-width="2.0"/>
<line x1="264.1" y1="442.3" x2="255.8" y2="481.4" opacity="1.0" stroke="rgb(0,0,0)" stroke-width="2.0"/>
<line x1="255.8" y1="446.6" x2="250.0" y2="474.0" opacity="1.0" stroke="rgb(0,0,0)" stroke-width="2.0"/>
<line x1="168.4" y1="278.7" x2="164.3" y2="238.9" opacity="1.0" stroke="rgb(0,0,0)" stroke-width="2.0"/>
<line x1="164.3" y1="238.9" x2="127.7" y2="222.6" opacity="1.0" stroke="rgb(0,0,0)" stroke-width="2.0"/>
<line x1="155.8" y1="243.0" x2="130.3" y2="231.7" opacity="1.0" stroke="rgb(0,0,0)" stroke-width="2.0"/>
<line x1="127.7" y1="222.6" x2="95.4" y2="246.1" opacity="1.0" stroke="rgb(0,0,0)" stroke-width="2.0"/>
<line x1="95.4" y1="246.1" x2="99.5" y2="285.9" opacity="1.0" stroke="rgb(0,0,0)" stroke-width="2.0"/>
<line x1="103.1" y1="251.4" x2="106.1" y2="279.2" opacity="1.0" stroke="rgb(0,0,0)" stroke-width="2.0"/>
<line x1="99.5" y1="285.9" x2="136.1" y2="302.2" opacity="1.0" stroke="rgb(0,0,0)" stroke-width="2.0"/>
<line x1="136.1" y1="302.2" x2="168.4" y2="278.7" opacity="1.0" stroke="rgb(0,0,0)" stroke-width="2.0"/>
<line x1="136.7" y1="292.8" x2="159.4" y2="276.4" opacity="1.0" stroke="rgb(0,0,0)" stroke-width="2.0"/>
<line x1="154.5" y1="146.4" x2="151.7" y2="119.6" opacity="1.0" stroke="rgb(0,0,0)" stroke-width="2.0"/>
<line x1="151.7" y1="119.6" x2="115.2" y2="103.3" opacity="1.0" stroke="rgb(0,0,0)" stroke-width="2.0"/>
<line x1="143.3" y1="123.7" x2="117.7" y2="112.3" opacity="1.0" stroke="rgb(0,0,0)" stroke-width="2.0"/>
<line x1="115.2" y1="103.3" x2="82.8" y2="126.8" opacity="1.0" stroke="rgb(0,0,0)" stroke-width="2.0"/>
<line x1="82.8" y1="126.8" x2="87.0" y2="166.6" opacity="1.0" stroke="rgb(0,0,0)" stroke-width="2.0"/>
<line x1="90.6" y1="132.0" x2="93.5" y2="159.9" opacity="1.0" stroke="rgb(0,0,0)" stroke-width="2.0"/>
<line x1="87.0" y1="166.6" x2="123.5" y2="182.9" opacity="1.0" stroke="rgb(0,0,0)" stroke-width="2.0"/>
<line x1="123.5" y1="182.9" x2="145.2" y2="167.1" opacity="1.0" stroke="rgb(0,0,0)" stroke-width="2.0"/>
<line x1="124.2" y1="173.5" x2="139.4" y2="162.5" opacity="1.0" stroke="rgb(0,0,0)" stroke-width="2.0"/>
<text x="149.896149" y="167.342627" fill="rgb(12,12,255)" stroke-width="0" font-weight="bold" font-size="16">N</text>
<text x="104.992054" y="71.511410" fill="rgb(12,12,255)" stroke-width="0" font-weight="bold" font-size="16">N</text>
<text x="68.450235" y="55.241944" fill="rgb(255,12,12)" stroke-width="0" font-weight="bold" font-size="16">O</text>
<text x="148.152733" y="35.968000" fill="rgb(255,12,12)" stroke-width="0" font-weight="bold" font-size="16"/>
<text x="148.152733" y="35.968000" fill="rgb(255,12,12)" stroke-width="0" font-weight="bold" font-size="32">.</text>
<text x="137.352733" y="48.000000" fill="rgb(255,12,12)" stroke-width="0" font-weight="bold" font-size="16">O</text>
<text x="134.260023" y="349.977541" fill="rgb(12,12,255)" stroke-width="0" font-weight="bold" font-size="16">N</text>
</svg>
</g>
</svg>
