<svg xmlns="http://www.w3.org/2000/svg" x="0" y="0" viewBox="0 0 100 100">
<title>D_2_P - Open Babel Depiction</title>
<rect x="0" y="0" width="100" height="100" fill="white"/>
<g transform="translate(0,0)">
<svg width="100" height="100" x="0" y="0" viewBox="0 0 373.984 363.913" font-family="sans-serif" stroke="rgb(0,0,0)" stroke-width="2" stroke-linecap="round">
<line x1="208.8" y1="146.4" x2="206.0" y2="119.6" opacity="1.0" stroke="rgb(0,0,0)" stroke-width="2.0"/>
<line x1="41.4" y1="210.3" x2="42.8" y2="224.2" opacity="1.0" stroke="rgb(0,0,0)" stroke-width="2.0"/>
<line x1="72.4" y1="173.8" x2="50.5" y2="189.7" opacity="1.0" stroke="rgb(0,0,0)" stroke-width="2.0"/>
<line x1="169.4" y1="103.3" x2="137.1" y2="126.8" opacity="1.0" stroke="rgb(0,0,0)" stroke-width="2.0"/>
<line x1="244.8" y1="179.3" x2="236.5" y2="218.5" opacity="1.0" stroke="rgb(0,0,0)" stroke-width="2.0"/>
<line x1="236.5" y1="218.5" x2="196.7" y2="222.6" opacity="1.0" stroke="rgb(0,0,0)" stroke-width="2.0"/>
<line x1="196.7" y1="222.6" x2="180.4" y2="186.1" opacity="1.0" stroke="rgb(0,0,0)" stroke-width="2.0"/>
<line x1="180.4" y1="186.1" x2="200.5" y2="168.0" opacity="1.0" stroke="rgb(0,0,0)" stroke-width="2.0"/>
<line x1="221.4" y1="165.8" x2="244.8" y2="179.3" opacity="1.0" stroke="rgb(0,0,0)" stroke-width="2.0"/>
<line x1="117.1" y1="214.3" x2="140.7" y2="181.9" opacity="1.0" stroke="rgb(0,0,0)" stroke-width="2.0"/>
<line x1="140.7" y1="181.9" x2="180.4" y2="186.1" opacity="1.0" stroke="rgb(0,0,0)" stroke-width="2.0"/>
<line x1="145.9" y1="189.7" x2="173.7" y2="192.6" opacity="1.0" stroke="rgb(0,0,0)" stroke-width="2.0"/>
<line x1="196.7" y1="222.6" x2="173.2" y2="255.0" opacity="1.0" stroke="rgb(0,0,0)" stroke-width="2.0"/>
<line x1="187.4" y1="223.3" x2="170.9" y2="245.9" opacity="1.0" stroke="rgb(0,0,0)" stroke-width="2.0"/>
<line x1="173.2" y1="255.0" x2="133.4" y2="250.8" opacity="1.0" stroke="rgb(0,0,0)" stroke-width="2.0"/>
<line x1="133.4" y1="250.8" x2="117.1" y2="214.3" opacity="1.0" stroke="rgb(0,0,0)" stroke-width="2.0"/>
<line x1="137.6" y1="242.4" x2="126.2" y2="216.8" opacity="1.0" stroke="rgb(0,0,0)" stroke-width="2.0"/>
<line x1="109.9" y1="283.2" x2="126.2" y2="319.7" opacity="1.0" stroke="rgb(0,0,0)" stroke-width="2.0"/>
<line x1="118.9" y1="285.7" x2="130.3" y2="311.3" opacity="1.0" stroke="rgb(0,0,0)" stroke-width="2.0"/>
<line x1="126.2" y1="319.7" x2="166.0" y2="323.9" opacity="1.0" stroke="rgb(0,0,0)" stroke-width="2.0"/>
<line x1="166.0" y1="323.9" x2="189.5" y2="291.6" opacity="1.0" stroke="rgb(0,0,0)" stroke-width="2.0"/>
<line x1="163.7" y1="314.8" x2="180.1" y2="292.2" opacity="1.0" stroke="rgb(0,0,0)" stroke-width="2.0"/>
<line x1="189.5" y1="291.6" x2="173.2" y2="255.0" opacity="1.0" stroke="rgb(0,0,0)" stroke-width="2.0"/>
<line x1="133.4" y1="250.8" x2="109.9" y2="283.2" opacity="1.0" stroke="rgb(0,0,0)" stroke-width="2.0"/>
<line x1="304.3" y1="232.9" x2="266.2" y2="245.2" opacity="1.0" stroke="rgb(0,0,0)" stroke-width="2.0"/>
<line x1="266.2" y1="245.2" x2="236.5" y2="218.5" opacity="1.0" stroke="rgb(0,0,0)" stroke-width="2.0"/>
<line x1="266.6" y1="235.9" x2="245.8" y2="217.1" opacity="1.0" stroke="rgb(0,0,0)" stroke-width="2.0"/>
<line x1="244.8" y1="179.3" x2="282.8" y2="167.0" opacity="1.0" stroke="rgb(0,0,0)" stroke-width="2.0"/>
<line x1="252.7" y1="184.3" x2="279.4" y2="175.7" opacity="1.0" stroke="rgb(0,0,0)" stroke-width="2.0"/>
<line x1="282.8" y1="167.0" x2="312.6" y2="193.7" opacity="1.0" stroke="rgb(0,0,0)" stroke-width="2.0"/>
<line x1="312.6" y1="193.7" x2="304.3" y2="232.9" opacity="1.0" stroke="rgb(0,0,0)" stroke-width="2.0"/>
<line x1="304.3" y1="198.1" x2="298.5" y2="225.5" opacity="1.0" stroke="rgb(0,0,0)" stroke-width="2.0"/>
<line x1="325.7" y1="298.8" x2="287.6" y2="311.1" opacity="1.0" stroke="rgb(0,0,0)" stroke-width="2.0"/>
<line x1="287.6" y1="311.1" x2="257.9" y2="284.4" opacity="1.0" stroke="rgb(0,0,0)" stroke-width="2.0"/>
<line x1="288.0" y1="301.8" x2="267.2" y2="283.0" opacity="1.0" stroke="rgb(0,0,0)" stroke-width="2.0"/>
<line x1="257.9" y1="284.4" x2="266.2" y2="245.2" opacity="1.0" stroke="rgb(0,0,0)" stroke-width="2.0"/>
<line x1="304.3" y1="232.9" x2="334.0" y2="259.6" opacity="1.0" stroke="rgb(0,0,0)" stroke-width="2.0"/>
<line x1="334.0" y1="259.6" x2="325.7" y2="298.8" opacity="1.0" stroke="rgb(0,0,0)" stroke-width="2.0"/>
<line x1="325.7" y1="264.0" x2="319.9" y2="291.4" opacity="1.0" stroke="rgb(0,0,0)" stroke-width="2.0"/>
<line x1="238.3" y1="96.1" x2="234.2" y2="56.3" opacity="1.0" stroke="rgb(0,0,0)" stroke-width="2.0"/>
<line x1="234.2" y1="56.3" x2="197.6" y2="40.0" opacity="1.0" stroke="rgb(0,0,0)" stroke-width="2.0"/>
<line x1="225.8" y1="60.4" x2="200.2" y2="49.0" opacity="1.0" stroke="rgb(0,0,0)" stroke-width="2.0"/>
<line x1="197.6" y1="40.0" x2="165.3" y2="63.5" opacity="1.0" stroke="rgb(0,0,0)" stroke-width="2.0"/>
<line x1="165.3" y1="63.5" x2="169.4" y2="103.3" opacity="1.0" stroke="rgb(0,0,0)" stroke-width="2.0"/>
<line x1="173.0" y1="68.7" x2="176.0" y2="96.6" opacity="1.0" stroke="rgb(0,0,0)" stroke-width="2.0"/>
<line x1="169.4" y1="103.3" x2="206.0" y2="119.6" opacity="1.0" stroke="rgb(0,0,0)" stroke-width="2.0"/>
<line x1="206.0" y1="119.6" x2="238.3" y2="96.1" opacity="1.0" stroke="rgb(0,0,0)" stroke-width="2.0"/>
<line x1="206.6" y1="110.2" x2="229.3" y2="93.8" opacity="1.0" stroke="rgb(0,0,0)" stroke-width="2.0"/>
<line x1="100.5" y1="110.5" x2="68.2" y2="134.0" opacity="1.0" stroke="rgb(0,0,0)" stroke-width="2.0"/>
<line x1="68.2" y1="134.0" x2="72.4" y2="173.8" opacity="1.0" stroke="rgb(0,0,0)" stroke-width="2.0"/>
<line x1="76.0" y1="139.3" x2="78.9" y2="167.1" opacity="1.0" stroke="rgb(0,0,0)" stroke-width="2.0"/>
<line x1="72.4" y1="173.8" x2="108.9" y2="190.1" opacity="1.0" stroke="rgb(0,0,0)" stroke-width="2.0"/>
<line x1="108.9" y1="190.1" x2="141.3" y2="166.6" opacity="1.0" stroke="rgb(0,0,0)" stroke-width="2.0"/>
<line x1="109.5" y1="180.7" x2="132.2" y2="164.3" opacity="1.0" stroke="rgb(0,0,0)" stroke-width="2.0"/>
<line x1="141.3" y1="166.6" x2="137.1" y2="126.8" opacity="1.0" stroke="rgb(0,0,0)" stroke-width="2.0"/>
<line x1="137.1" y1="126.8" x2="100.5" y2="110.5" opacity="1.0" stroke="rgb(0,0,0)" stroke-width="2.0"/>
<line x1="128.7" y1="130.9" x2="103.1" y2="119.6" opacity="1.0" stroke="rgb(0,0,0)" stroke-width="2.0"/>
<text x="34.000000" y="205.337926" fill="rgb(255,12,12)" stroke-width="0" font-weight="bold" font-size="16">O</text>
<text x="40.181139" y="245.118802" fill="rgb(102,102,102)" stroke-width="0" font-weight="bold" font-size="16">CH</text>
<text x="64.181139" y="248.798802" fill="rgb(102,102,102)" stroke-width="0" font-weight="bold" font-size="13">3</text>
<text x="204.165676" y="167.342627" fill="rgb(12,12,255)" stroke-width="0" font-weight="bold" font-size="16">N</text>
</svg>
</g>
</svg>
