<svg xmlns="http://www.w3.org/2000/svg" x="0" y="0" viewBox="0 0 100 100">
<title>D_2_L - Open Babel Depiction</title>
<rect x="0" y="0" width="100" height="100" fill="white"/>
<g transform="translate(0,0)">
<svg width="100" height="100" x="0" y="0" viewBox="0 0 368.389 363.913" font-family="sans-serif" stroke="rgb(0,0,0)" stroke-width="2" stroke-linecap="round">
<line x1="203.2" y1="146.4" x2="200.4" y2="119.6" opacity="1.0" stroke="rgb(0,0,0)" stroke-width="2.0"/>
<line x1="163.8" y1="103.3" x2="131.5" y2="126.8" opacity="1.0" stroke="rgb(0,0,0)" stroke-width="2.0"/>
<line x1="239.2" y1="179.3" x2="230.9" y2="218.5" opacity="1.0" stroke="rgb(0,0,0)" stroke-width="2.0"/>
<line x1="230.9" y1="218.5" x2="191.1" y2="222.6" opacity="1.0" stroke="rgb(0,0,0)" stroke-width="2.0"/>
<line x1="191.1" y1="222.6" x2="174.8" y2="186.1" opacity="1.0" stroke="rgb(0,0,0)" stroke-width="2.0"/>
<line x1="174.8" y1="186.1" x2="194.9" y2="168.0" opacity="1.0" stroke="rgb(0,0,0)" stroke-width="2.0"/>
<line x1="215.8" y1="165.8" x2="239.2" y2="179.3" opacity="1.0" stroke="rgb(0,0,0)" stroke-width="2.0"/>
<line x1="60.0" y1="238.2" x2="99.1" y2="229.9" opacity="1.0" stroke="rgb(0,0,0)" stroke-width="2.0"/>
<line x1="64.4" y1="229.9" x2="91.8" y2="224.1" opacity="1.0" stroke="rgb(0,0,0)" stroke-width="2.0"/>
<line x1="99.1" y1="229.9" x2="103.3" y2="190.1" opacity="1.0" stroke="rgb(0,0,0)" stroke-width="2.0"/>
<line x1="103.3" y1="190.1" x2="66.8" y2="173.8" opacity="1.0" stroke="rgb(0,0,0)" stroke-width="2.0"/>
<line x1="66.8" y1="173.8" x2="48.7" y2="193.9" opacity="1.0" stroke="rgb(0,0,0)" stroke-width="2.0"/>
<line x1="46.5" y1="214.8" x2="60.0" y2="238.2" opacity="1.0" stroke="rgb(0,0,0)" stroke-width="2.0"/>
<line x1="111.6" y1="214.3" x2="135.1" y2="181.9" opacity="1.0" stroke="rgb(0,0,0)" stroke-width="2.0"/>
<line x1="135.1" y1="181.9" x2="174.8" y2="186.1" opacity="1.0" stroke="rgb(0,0,0)" stroke-width="2.0"/>
<line x1="140.3" y1="189.7" x2="168.1" y2="192.6" opacity="1.0" stroke="rgb(0,0,0)" stroke-width="2.0"/>
<line x1="191.1" y1="222.6" x2="167.6" y2="255.0" opacity="1.0" stroke="rgb(0,0,0)" stroke-width="2.0"/>
<line x1="181.8" y1="223.3" x2="165.3" y2="245.9" opacity="1.0" stroke="rgb(0,0,0)" stroke-width="2.0"/>
<line x1="167.6" y1="255.0" x2="127.8" y2="250.8" opacity="1.0" stroke="rgb(0,0,0)" stroke-width="2.0"/>
<line x1="127.8" y1="250.8" x2="111.6" y2="214.3" opacity="1.0" stroke="rgb(0,0,0)" stroke-width="2.0"/>
<line x1="132.0" y1="242.4" x2="120.6" y2="216.8" opacity="1.0" stroke="rgb(0,0,0)" stroke-width="2.0"/>
<line x1="104.3" y1="283.2" x2="120.6" y2="319.7" opacity="1.0" stroke="rgb(0,0,0)" stroke-width="2.0"/>
<line x1="113.3" y1="285.7" x2="124.7" y2="311.3" opacity="1.0" stroke="rgb(0,0,0)" stroke-width="2.0"/>
<line x1="120.6" y1="319.7" x2="160.4" y2="323.9" opacity="1.0" stroke="rgb(0,0,0)" stroke-width="2.0"/>
<line x1="160.4" y1="323.9" x2="183.9" y2="291.6" opacity="1.0" stroke="rgb(0,0,0)" stroke-width="2.0"/>
<line x1="158.1" y1="314.8" x2="174.5" y2="292.2" opacity="1.0" stroke="rgb(0,0,0)" stroke-width="2.0"/>
<line x1="183.9" y1="291.6" x2="167.6" y2="255.0" opacity="1.0" stroke="rgb(0,0,0)" stroke-width="2.0"/>
<line x1="127.8" y1="250.8" x2="104.3" y2="283.2" opacity="1.0" stroke="rgb(0,0,0)" stroke-width="2.0"/>
<line x1="298.7" y1="232.9" x2="260.6" y2="245.2" opacity="1.0" stroke="rgb(0,0,0)" stroke-width="2.0"/>
<line x1="260.6" y1="245.2" x2="230.9" y2="218.5" opacity="1.0" stroke="rgb(0,0,0)" stroke-width="2.0"/>
<line x1="261.0" y1="235.9" x2="240.2" y2="217.1" opacity="1.0" stroke="rgb(0,0,0)" stroke-width="2.0"/>
<line x1="239.2" y1="179.3" x2="277.3" y2="167.0" opacity="1.0" stroke="rgb(0,0,0)" stroke-width="2.0"/>
<line x1="247.1" y1="184.3" x2="273.8" y2="175.7" opacity="1.0" stroke="rgb(0,0,0)" stroke-width="2.0"/>
<line x1="277.3" y1="167.0" x2="307.0" y2="193.7" opacity="1.0" stroke="rgb(0,0,0)" stroke-width="2.0"/>
<line x1="307.0" y1="193.7" x2="298.7" y2="232.9" opacity="1.0" stroke="rgb(0,0,0)" stroke-width="2.0"/>
<line x1="298.7" y1="198.1" x2="292.9" y2="225.5" opacity="1.0" stroke="rgb(0,0,0)" stroke-width="2.0"/>
<line x1="320.1" y1="298.8" x2="282.0" y2="311.1" opacity="1.0" stroke="rgb(0,0,0)" stroke-width="2.0"/>
<line x1="282.0" y1="311.1" x2="252.3" y2="284.4" opacity="1.0" stroke="rgb(0,0,0)" stroke-width="2.0"/>
<line x1="282.4" y1="301.8" x2="261.6" y2="283.0" opacity="1.0" stroke="rgb(0,0,0)" stroke-width="2.0"/>
<line x1="252.3" y1="284.4" x2="260.6" y2="245.2" opacity="1.0" stroke="rgb(0,0,0)" stroke-width="2.0"/>
<line x1="298.7" y1="232.9" x2="328.4" y2="259.6" opacity="1.0" stroke="rgb(0,0,0)" stroke-width="2.0"/>
<line x1="328.4" y1="259.6" x2="320.1" y2="298.8" opacity="1.0" stroke="rgb(0,0,0)" stroke-width="2.0"/>
<line x1="320.1" y1="264.0" x2="314.3" y2="291.4" opacity="1.0" stroke="rgb(0,0,0)" stroke-width="2.0"/>
<line x1="232.7" y1="96.1" x2="228.6" y2="56.3" opacity="1.0" stroke="rgb(0,0,0)" stroke-width="2.0"/>
<line x1="228.6" y1="56.3" x2="192.0" y2="40.0" opacity="1.0" stroke="rgb(0,0,0)" stroke-width="2.0"/>
<line x1="220.2" y1="60.4" x2="194.6" y2="49.0" opacity="1.0" stroke="rgb(0,0,0)" stroke-width="2.0"/>
<line x1="192.0" y1="40.0" x2="159.7" y2="63.5" opacity="1.0" stroke="rgb(0,0,0)" stroke-width="2.0"/>
<line x1="159.7" y1="63.5" x2="163.8" y2="103.3" opacity="1.0" stroke="rgb(0,0,0)" stroke-width="2.0"/>
<line x1="167.5" y1="68.7" x2="170.4" y2="96.6" opacity="1.0" stroke="rgb(0,0,0)" stroke-width="2.0"/>
<line x1="163.8" y1="103.3" x2="200.4" y2="119.6" opacity="1.0" stroke="rgb(0,0,0)" stroke-width="2.0"/>
<line x1="200.4" y1="119.6" x2="232.7" y2="96.1" opacity="1.0" stroke="rgb(0,0,0)" stroke-width="2.0"/>
<line x1="201.0" y1="110.2" x2="223.7" y2="93.8" opacity="1.0" stroke="rgb(0,0,0)" stroke-width="2.0"/>
<line x1="94.9" y1="110.5" x2="62.6" y2="134.0" opacity="1.0" stroke="rgb(0,0,0)" stroke-width="2.0"/>
<line x1="62.6" y1="134.0" x2="66.8" y2="173.8" opacity="1.0" stroke="rgb(0,0,0)" stroke-width="2.0"/>
<line x1="70.4" y1="139.3" x2="73.3" y2="167.1" opacity="1.0" stroke="rgb(0,0,0)" stroke-width="2.0"/>
<line x1="103.3" y1="190.1" x2="135.7" y2="166.6" opacity="1.0" stroke="rgb(0,0,0)" stroke-width="2.0"/>
<line x1="103.9" y1="180.7" x2="126.6" y2="164.3" opacity="1.0" stroke="rgb(0,0,0)" stroke-width="2.0"/>
<line x1="135.7" y1="166.6" x2="131.5" y2="126.8" opacity="1.0" stroke="rgb(0,0,0)" stroke-width="2.0"/>
<line x1="131.5" y1="126.8" x2="94.9" y2="110.5" opacity="1.0" stroke="rgb(0,0,0)" stroke-width="2.0"/>
<line x1="123.1" y1="130.9" x2="97.5" y2="119.6" opacity="1.0" stroke="rgb(0,0,0)" stroke-width="2.0"/>
<text x="22.000000" y="211.552309" fill="rgb(12,12,255)" stroke-width="0" font-weight="bold" font-size="16">HN</text>
<text x="198.570220" y="167.342627" fill="rgb(12,12,255)" stroke-width="0" font-weight="bold" font-size="16">N</text>
</svg>
</g>
</svg>
