<svg xmlns="http://www.w3.org/2000/svg" x="0" y="0" viewBox="0 0 100 100">
<title>D_2_Q - Open Babel Depiction</title>
<rect x="0" y="0" width="100" height="100" fill="white"/>
<g transform="translate(0,0)">
<svg width="100" height="100" x="0" y="0" viewBox="0 0 345.805 363.913" font-family="sans-serif" stroke="rgb(0,0,0)" stroke-width="2" stroke-linecap="round">
<line x1="180.6" y1="146.4" x2="177.8" y2="119.6" opacity="1.0" stroke="rgb(0,0,0)" stroke-width="2.0"/>
<line x1="141.3" y1="103.3" x2="108.9" y2="126.8" opacity="1.0" stroke="rgb(0,0,0)" stroke-width="2.0"/>
<line x1="216.6" y1="179.3" x2="208.3" y2="218.5" opacity="1.0" stroke="rgb(0,0,0)" stroke-width="2.0"/>
<line x1="208.3" y1="218.5" x2="168.5" y2="222.6" opacity="1.0" stroke="rgb(0,0,0)" stroke-width="2.0"/>
<line x1="168.5" y1="222.6" x2="152.3" y2="186.1" opacity="1.0" stroke="rgb(0,0,0)" stroke-width="2.0"/>
<line x1="152.3" y1="186.1" x2="172.3" y2="168.0" opacity="1.0" stroke="rgb(0,0,0)" stroke-width="2.0"/>
<line x1="193.2" y1="165.8" x2="216.6" y2="179.3" opacity="1.0" stroke="rgb(0,0,0)" stroke-width="2.0"/>
<line x1="89.0" y1="214.3" x2="112.5" y2="181.9" opacity="1.0" stroke="rgb(0,0,0)" stroke-width="2.0"/>
<line x1="112.5" y1="181.9" x2="152.3" y2="186.1" opacity="1.0" stroke="rgb(0,0,0)" stroke-width="2.0"/>
<line x1="117.7" y1="189.7" x2="145.5" y2="192.6" opacity="1.0" stroke="rgb(0,0,0)" stroke-width="2.0"/>
<line x1="168.5" y1="222.6" x2="145.0" y2="255.0" opacity="1.0" stroke="rgb(0,0,0)" stroke-width="2.0"/>
<line x1="159.2" y1="223.3" x2="142.7" y2="245.9" opacity="1.0" stroke="rgb(0,0,0)" stroke-width="2.0"/>
<line x1="145.0" y1="255.0" x2="105.2" y2="250.8" opacity="1.0" stroke="rgb(0,0,0)" stroke-width="2.0"/>
<line x1="105.2" y1="250.8" x2="89.0" y2="214.3" opacity="1.0" stroke="rgb(0,0,0)" stroke-width="2.0"/>
<line x1="109.4" y1="242.4" x2="98.0" y2="216.8" opacity="1.0" stroke="rgb(0,0,0)" stroke-width="2.0"/>
<line x1="81.7" y1="283.2" x2="98.0" y2="319.7" opacity="1.0" stroke="rgb(0,0,0)" stroke-width="2.0"/>
<line x1="90.7" y1="285.7" x2="102.1" y2="311.3" opacity="1.0" stroke="rgb(0,0,0)" stroke-width="2.0"/>
<line x1="98.0" y1="319.7" x2="137.8" y2="323.9" opacity="1.0" stroke="rgb(0,0,0)" stroke-width="2.0"/>
<line x1="137.8" y1="323.9" x2="161.3" y2="291.6" opacity="1.0" stroke="rgb(0,0,0)" stroke-width="2.0"/>
<line x1="135.5" y1="314.8" x2="151.9" y2="292.2" opacity="1.0" stroke="rgb(0,0,0)" stroke-width="2.0"/>
<line x1="161.3" y1="291.6" x2="145.0" y2="255.0" opacity="1.0" stroke="rgb(0,0,0)" stroke-width="2.0"/>
<line x1="105.2" y1="250.8" x2="81.7" y2="283.2" opacity="1.0" stroke="rgb(0,0,0)" stroke-width="2.0"/>
<line x1="276.1" y1="232.9" x2="238.0" y2="245.2" opacity="1.0" stroke="rgb(0,0,0)" stroke-width="2.0"/>
<line x1="238.0" y1="245.2" x2="208.3" y2="218.5" opacity="1.0" stroke="rgb(0,0,0)" stroke-width="2.0"/>
<line x1="238.4" y1="235.9" x2="217.6" y2="217.1" opacity="1.0" stroke="rgb(0,0,0)" stroke-width="2.0"/>
<line x1="216.6" y1="179.3" x2="254.7" y2="167.0" opacity="1.0" stroke="rgb(0,0,0)" stroke-width="2.0"/>
<line x1="224.6" y1="184.3" x2="251.2" y2="175.7" opacity="1.0" stroke="rgb(0,0,0)" stroke-width="2.0"/>
<line x1="254.7" y1="167.0" x2="284.4" y2="193.7" opacity="1.0" stroke="rgb(0,0,0)" stroke-width="2.0"/>
<line x1="284.4" y1="193.7" x2="276.1" y2="232.9" opacity="1.0" stroke="rgb(0,0,0)" stroke-width="2.0"/>
<line x1="276.1" y1="198.1" x2="270.3" y2="225.5" opacity="1.0" stroke="rgb(0,0,0)" stroke-width="2.0"/>
<line x1="297.5" y1="298.8" x2="259.4" y2="311.1" opacity="1.0" stroke="rgb(0,0,0)" stroke-width="2.0"/>
<line x1="259.4" y1="311.1" x2="229.7" y2="284.4" opacity="1.0" stroke="rgb(0,0,0)" stroke-width="2.0"/>
<line x1="259.8" y1="301.8" x2="239.0" y2="283.0" opacity="1.0" stroke="rgb(0,0,0)" stroke-width="2.0"/>
<line x1="229.7" y1="284.4" x2="238.0" y2="245.2" opacity="1.0" stroke="rgb(0,0,0)" stroke-width="2.0"/>
<line x1="276.1" y1="232.9" x2="305.8" y2="259.6" opacity="1.0" stroke="rgb(0,0,0)" stroke-width="2.0"/>
<line x1="305.8" y1="259.6" x2="297.5" y2="298.8" opacity="1.0" stroke="rgb(0,0,0)" stroke-width="2.0"/>
<line x1="297.5" y1="264.0" x2="291.7" y2="291.4" opacity="1.0" stroke="rgb(0,0,0)" stroke-width="2.0"/>
<line x1="210.2" y1="96.1" x2="206.0" y2="56.3" opacity="1.0" stroke="rgb(0,0,0)" stroke-width="2.0"/>
<line x1="206.0" y1="56.3" x2="169.4" y2="40.0" opacity="1.0" stroke="rgb(0,0,0)" stroke-width="2.0"/>
<line x1="197.6" y1="60.4" x2="172.0" y2="49.0" opacity="1.0" stroke="rgb(0,0,0)" stroke-width="2.0"/>
<line x1="169.4" y1="40.0" x2="137.1" y2="63.5" opacity="1.0" stroke="rgb(0,0,0)" stroke-width="2.0"/>
<line x1="137.1" y1="63.5" x2="141.3" y2="103.3" opacity="1.0" stroke="rgb(0,0,0)" stroke-width="2.0"/>
<line x1="144.9" y1="68.7" x2="147.8" y2="96.6" opacity="1.0" stroke="rgb(0,0,0)" stroke-width="2.0"/>
<line x1="141.3" y1="103.3" x2="177.8" y2="119.6" opacity="1.0" stroke="rgb(0,0,0)" stroke-width="2.0"/>
<line x1="177.8" y1="119.6" x2="210.2" y2="96.1" opacity="1.0" stroke="rgb(0,0,0)" stroke-width="2.0"/>
<line x1="178.4" y1="110.2" x2="201.1" y2="93.8" opacity="1.0" stroke="rgb(0,0,0)" stroke-width="2.0"/>
<line x1="61.8" y1="118.2" x2="40.0" y2="134.0" opacity="1.0" stroke="rgb(0,0,0)" stroke-width="2.0"/>
<line x1="40.0" y1="134.0" x2="44.2" y2="173.8" opacity="1.0" stroke="rgb(0,0,0)" stroke-width="2.0"/>
<line x1="47.8" y1="139.3" x2="50.7" y2="167.1" opacity="1.0" stroke="rgb(0,0,0)" stroke-width="2.0"/>
<line x1="44.2" y1="173.8" x2="68.8" y2="184.8" opacity="1.0" stroke="rgb(0,0,0)" stroke-width="2.0"/>
<line x1="91.4" y1="182.3" x2="113.1" y2="166.6" opacity="1.0" stroke="rgb(0,0,0)" stroke-width="2.0"/>
<line x1="88.8" y1="175.3" x2="104.0" y2="164.3" opacity="1.0" stroke="rgb(0,0,0)" stroke-width="2.0"/>
<line x1="113.1" y1="166.6" x2="108.9" y2="126.8" opacity="1.0" stroke="rgb(0,0,0)" stroke-width="2.0"/>
<line x1="108.9" y1="126.8" x2="84.4" y2="115.9" opacity="1.0" stroke="rgb(0,0,0)" stroke-width="2.0"/>
<line x1="100.5" y1="130.9" x2="83.3" y2="123.3" opacity="1.0" stroke="rgb(0,0,0)" stroke-width="2.0"/>
<text x="66.360680" y="118.534230" fill="rgb(12,12,255)" stroke-width="0" font-weight="bold" font-size="16">N</text>
<text x="74.722957" y="198.095982" fill="rgb(12,12,255)" stroke-width="0" font-weight="bold" font-size="16">N</text>
<text x="175.986135" y="167.342627" fill="rgb(12,12,255)" stroke-width="0" font-weight="bold" font-size="16">N</text>
</svg>
</g>
</svg>
