<svg xmlns="http://www.w3.org/2000/svg" x="0" y="0" viewBox="0 0 100 100">
<title>D_3_O - Open Babel Depiction</title>
<rect x="0" y="0" width="100" height="100" fill="white"/>
<g transform="translate(0,0)">
<svg width="100" height="100" x="0" y="0" viewBox="0 0 317.625 483.255" font-family="sans-serif" stroke="rgb(0,0,0)" stroke-width="2" stroke-linecap="round">
<line x1="152.4" y1="265.8" x2="149.6" y2="238.9" opacity="1.0" stroke="rgb(0,0,0)" stroke-width="2.0"/>
<line x1="141.3" y1="159.3" x2="137.1" y2="119.6" opacity="1.0" stroke="rgb(0,0,0)" stroke-width="2.0"/>
<line x1="188.4" y1="298.7" x2="180.1" y2="337.8" opacity="1.0" stroke="rgb(0,0,0)" stroke-width="2.0"/>
<line x1="180.1" y1="337.8" x2="140.4" y2="342.0" opacity="1.0" stroke="rgb(0,0,0)" stroke-width="2.0"/>
<line x1="140.4" y1="342.0" x2="124.1" y2="305.5" opacity="1.0" stroke="rgb(0,0,0)" stroke-width="2.0"/>
<line x1="124.1" y1="305.5" x2="144.1" y2="287.4" opacity="1.0" stroke="rgb(0,0,0)" stroke-width="2.0"/>
<line x1="165.1" y1="285.2" x2="188.4" y2="298.7" opacity="1.0" stroke="rgb(0,0,0)" stroke-width="2.0"/>
<line x1="60.8" y1="333.6" x2="84.3" y2="301.3" opacity="1.0" stroke="rgb(0,0,0)" stroke-width="2.0"/>
<line x1="84.3" y1="301.3" x2="124.1" y2="305.5" opacity="1.0" stroke="rgb(0,0,0)" stroke-width="2.0"/>
<line x1="89.5" y1="309.1" x2="117.4" y2="312.0" opacity="1.0" stroke="rgb(0,0,0)" stroke-width="2.0"/>
<line x1="140.4" y1="342.0" x2="116.8" y2="374.4" opacity="1.0" stroke="rgb(0,0,0)" stroke-width="2.0"/>
<line x1="131.0" y1="342.6" x2="114.5" y2="365.3" opacity="1.0" stroke="rgb(0,0,0)" stroke-width="2.0"/>
<line x1="116.8" y1="374.4" x2="77.1" y2="370.2" opacity="1.0" stroke="rgb(0,0,0)" stroke-width="2.0"/>
<line x1="77.1" y1="370.2" x2="60.8" y2="333.6" opacity="1.0" stroke="rgb(0,0,0)" stroke-width="2.0"/>
<line x1="81.2" y1="361.8" x2="69.8" y2="336.2" opacity="1.0" stroke="rgb(0,0,0)" stroke-width="2.0"/>
<line x1="53.5" y1="402.5" x2="69.8" y2="439.1" opacity="1.0" stroke="rgb(0,0,0)" stroke-width="2.0"/>
<line x1="62.6" y1="405.1" x2="74.0" y2="430.7" opacity="1.0" stroke="rgb(0,0,0)" stroke-width="2.0"/>
<line x1="69.8" y1="439.1" x2="109.6" y2="443.3" opacity="1.0" stroke="rgb(0,0,0)" stroke-width="2.0"/>
<line x1="109.6" y1="443.3" x2="133.1" y2="410.9" opacity="1.0" stroke="rgb(0,0,0)" stroke-width="2.0"/>
<line x1="107.3" y1="434.2" x2="123.8" y2="411.5" opacity="1.0" stroke="rgb(0,0,0)" stroke-width="2.0"/>
<line x1="133.1" y1="410.9" x2="116.8" y2="374.4" opacity="1.0" stroke="rgb(0,0,0)" stroke-width="2.0"/>
<line x1="77.1" y1="370.2" x2="53.5" y2="402.5" opacity="1.0" stroke="rgb(0,0,0)" stroke-width="2.0"/>
<line x1="247.9" y1="352.2" x2="209.9" y2="364.6" opacity="1.0" stroke="rgb(0,0,0)" stroke-width="2.0"/>
<line x1="209.9" y1="364.6" x2="180.1" y2="337.8" opacity="1.0" stroke="rgb(0,0,0)" stroke-width="2.0"/>
<line x1="210.2" y1="355.2" x2="189.4" y2="336.5" opacity="1.0" stroke="rgb(0,0,0)" stroke-width="2.0"/>
<line x1="188.4" y1="298.7" x2="226.5" y2="286.3" opacity="1.0" stroke="rgb(0,0,0)" stroke-width="2.0"/>
<line x1="196.4" y1="303.7" x2="223.0" y2="295.0" opacity="1.0" stroke="rgb(0,0,0)" stroke-width="2.0"/>
<line x1="226.5" y1="286.3" x2="256.2" y2="313.1" opacity="1.0" stroke="rgb(0,0,0)" stroke-width="2.0"/>
<line x1="256.2" y1="313.1" x2="247.9" y2="352.2" opacity="1.0" stroke="rgb(0,0,0)" stroke-width="2.0"/>
<line x1="247.9" y1="317.5" x2="242.1" y2="344.8" opacity="1.0" stroke="rgb(0,0,0)" stroke-width="2.0"/>
<line x1="269.3" y1="418.1" x2="231.3" y2="430.5" opacity="1.0" stroke="rgb(0,0,0)" stroke-width="2.0"/>
<line x1="231.3" y1="430.5" x2="201.5" y2="403.7" opacity="1.0" stroke="rgb(0,0,0)" stroke-width="2.0"/>
<line x1="231.6" y1="421.1" x2="210.8" y2="402.4" opacity="1.0" stroke="rgb(0,0,0)" stroke-width="2.0"/>
<line x1="201.5" y1="403.7" x2="209.9" y2="364.6" opacity="1.0" stroke="rgb(0,0,0)" stroke-width="2.0"/>
<line x1="247.9" y1="352.2" x2="277.6" y2="379.0" opacity="1.0" stroke="rgb(0,0,0)" stroke-width="2.0"/>
<line x1="277.6" y1="379.0" x2="269.3" y2="418.1" opacity="1.0" stroke="rgb(0,0,0)" stroke-width="2.0"/>
<line x1="269.3" y1="383.4" x2="263.5" y2="410.7" opacity="1.0" stroke="rgb(0,0,0)" stroke-width="2.0"/>
<line x1="80.7" y1="246.1" x2="44.2" y2="229.9" opacity="1.0" stroke="rgb(0,0,0)" stroke-width="2.0"/>
<line x1="78.2" y1="237.1" x2="52.6" y2="225.7" opacity="1.0" stroke="rgb(0,0,0)" stroke-width="2.0"/>
<line x1="44.2" y1="229.9" x2="40.0" y2="190.1" opacity="1.0" stroke="rgb(0,0,0)" stroke-width="2.0"/>
<line x1="40.0" y1="190.1" x2="72.4" y2="166.6" opacity="1.0" stroke="rgb(0,0,0)" stroke-width="2.0"/>
<line x1="49.1" y1="192.4" x2="71.7" y2="175.9" opacity="1.0" stroke="rgb(0,0,0)" stroke-width="2.0"/>
<line x1="72.4" y1="166.6" x2="108.9" y2="182.9" opacity="1.0" stroke="rgb(0,0,0)" stroke-width="2.0"/>
<line x1="108.9" y1="182.9" x2="113.1" y2="222.6" opacity="1.0" stroke="rgb(0,0,0)" stroke-width="2.0"/>
<line x1="102.4" y1="189.6" x2="105.3" y2="217.4" opacity="1.0" stroke="rgb(0,0,0)" stroke-width="2.0"/>
<line x1="113.1" y1="222.6" x2="80.7" y2="246.1" opacity="1.0" stroke="rgb(0,0,0)" stroke-width="2.0"/>
<line x1="141.3" y1="159.3" x2="108.9" y2="182.9" opacity="1.0" stroke="rgb(0,0,0)" stroke-width="2.0"/>
<line x1="113.1" y1="222.6" x2="149.6" y2="238.9" opacity="1.0" stroke="rgb(0,0,0)" stroke-width="2.0"/>
<line x1="149.6" y1="238.9" x2="182.0" y2="215.4" opacity="1.0" stroke="rgb(0,0,0)" stroke-width="2.0"/>
<line x1="150.2" y1="229.6" x2="172.9" y2="213.1" opacity="1.0" stroke="rgb(0,0,0)" stroke-width="2.0"/>
<line x1="182.0" y1="215.4" x2="177.8" y2="175.6" opacity="1.0" stroke="rgb(0,0,0)" stroke-width="2.0"/>
<line x1="177.8" y1="175.6" x2="141.3" y2="159.3" opacity="1.0" stroke="rgb(0,0,0)" stroke-width="2.0"/>
<line x1="169.4" y1="179.7" x2="143.8" y2="168.4" opacity="1.0" stroke="rgb(0,0,0)" stroke-width="2.0"/>
<line x1="250.9" y1="208.2" x2="246.7" y2="168.4" opacity="1.0" stroke="rgb(0,0,0)" stroke-width="2.0"/>
<line x1="246.7" y1="168.4" x2="210.2" y2="152.1" opacity="1.0" stroke="rgb(0,0,0)" stroke-width="2.0"/>
<line x1="238.3" y1="172.5" x2="212.7" y2="161.1" opacity="1.0" stroke="rgb(0,0,0)" stroke-width="2.0"/>
<line x1="210.2" y1="152.1" x2="177.8" y2="175.6" opacity="1.0" stroke="rgb(0,0,0)" stroke-width="2.0"/>
<line x1="182.0" y1="215.4" x2="218.5" y2="231.7" opacity="1.0" stroke="rgb(0,0,0)" stroke-width="2.0"/>
<line x1="218.5" y1="231.7" x2="250.9" y2="208.2" opacity="1.0" stroke="rgb(0,0,0)" stroke-width="2.0"/>
<line x1="219.2" y1="222.3" x2="241.8" y2="205.9" opacity="1.0" stroke="rgb(0,0,0)" stroke-width="2.0"/>
<line x1="168.1" y1="83.1" x2="165.3" y2="56.3" opacity="1.0" stroke="rgb(0,0,0)" stroke-width="2.0"/>
<line x1="165.3" y1="56.3" x2="128.7" y2="40.0" opacity="1.0" stroke="rgb(0,0,0)" stroke-width="2.0"/>
<line x1="156.9" y1="60.4" x2="131.3" y2="49.0" opacity="1.0" stroke="rgb(0,0,0)" stroke-width="2.0"/>
<line x1="128.7" y1="40.0" x2="96.4" y2="63.5" opacity="1.0" stroke="rgb(0,0,0)" stroke-width="2.0"/>
<line x1="96.4" y1="63.5" x2="100.5" y2="103.3" opacity="1.0" stroke="rgb(0,0,0)" stroke-width="2.0"/>
<line x1="104.1" y1="68.7" x2="107.1" y2="96.6" opacity="1.0" stroke="rgb(0,0,0)" stroke-width="2.0"/>
<line x1="100.5" y1="103.3" x2="137.1" y2="119.6" opacity="1.0" stroke="rgb(0,0,0)" stroke-width="2.0"/>
<line x1="137.1" y1="119.6" x2="158.8" y2="103.8" opacity="1.0" stroke="rgb(0,0,0)" stroke-width="2.0"/>
<line x1="137.7" y1="110.2" x2="152.9" y2="99.2" opacity="1.0" stroke="rgb(0,0,0)" stroke-width="2.0"/>
<text x="163.442719" y="104.050342" fill="rgb(12,12,255)" stroke-width="0" font-weight="bold" font-size="16">N</text>
<text x="147.806593" y="286.685255" fill="rgb(12,12,255)" stroke-width="0" font-weight="bold" font-size="16">N</text>
</svg>
</g>
</svg>
