<svg xmlns="http://www.w3.org/2000/svg" x="0" y="0" viewBox="0 0 100 100">
<title>D_4_N - Open Babel Depiction</title>
<rect x="0" y="0" width="100" height="100" fill="white"/>
<g transform="translate(0,0)">
<svg width="100" height="100" x="0" y="0" viewBox="0 0 349.631 410.936" font-family="sans-serif" stroke="rgb(0,0,0)" stroke-width="2" stroke-linecap="round">
<line x1="240.8" y1="66.9" x2="239.3" y2="52.9" opacity="1.0" stroke="rgb(0,0,0)" stroke-width="2.0"/>
<line x1="209.8" y1="103.3" x2="231.7" y2="87.4" opacity="1.0" stroke="rgb(0,0,0)" stroke-width="2.0"/>
<line x1="184.5" y1="193.4" x2="181.6" y2="166.6" opacity="1.0" stroke="rgb(0,0,0)" stroke-width="2.0"/>
<line x1="140.9" y1="110.5" x2="104.4" y2="94.3" opacity="1.0" stroke="rgb(0,0,0)" stroke-width="2.0"/>
<line x1="220.5" y1="226.4" x2="212.1" y2="265.5" opacity="1.0" stroke="rgb(0,0,0)" stroke-width="2.0"/>
<line x1="212.1" y1="265.5" x2="172.4" y2="269.7" opacity="1.0" stroke="rgb(0,0,0)" stroke-width="2.0"/>
<line x1="172.4" y1="269.7" x2="156.1" y2="233.1" opacity="1.0" stroke="rgb(0,0,0)" stroke-width="2.0"/>
<line x1="156.1" y1="233.1" x2="176.2" y2="215.1" opacity="1.0" stroke="rgb(0,0,0)" stroke-width="2.0"/>
<line x1="197.1" y1="212.9" x2="220.5" y2="226.4" opacity="1.0" stroke="rgb(0,0,0)" stroke-width="2.0"/>
<line x1="96.1" y1="55.1" x2="69.2" y2="52.3" opacity="1.0" stroke="rgb(0,0,0)" stroke-width="2.0"/>
<line x1="51.0" y1="62.8" x2="40.0" y2="87.5" opacity="1.0" stroke="rgb(0,0,0)" stroke-width="2.0"/>
<line x1="40.0" y1="87.5" x2="69.7" y2="114.3" opacity="1.0" stroke="rgb(0,0,0)" stroke-width="2.0"/>
<line x1="49.3" y1="86.2" x2="70.1" y2="104.9" opacity="1.0" stroke="rgb(0,0,0)" stroke-width="2.0"/>
<line x1="69.7" y1="114.3" x2="104.4" y2="94.3" opacity="1.0" stroke="rgb(0,0,0)" stroke-width="2.0"/>
<line x1="104.4" y1="94.3" x2="96.1" y2="55.1" opacity="1.0" stroke="rgb(0,0,0)" stroke-width="2.0"/>
<line x1="96.1" y1="89.9" x2="90.3" y2="62.5" opacity="1.0" stroke="rgb(0,0,0)" stroke-width="2.0"/>
<line x1="92.8" y1="261.3" x2="116.3" y2="228.9" opacity="1.0" stroke="rgb(0,0,0)" stroke-width="2.0"/>
<line x1="116.3" y1="228.9" x2="156.1" y2="233.1" opacity="1.0" stroke="rgb(0,0,0)" stroke-width="2.0"/>
<line x1="121.5" y1="236.7" x2="149.4" y2="239.7" opacity="1.0" stroke="rgb(0,0,0)" stroke-width="2.0"/>
<line x1="172.4" y1="269.7" x2="148.8" y2="302.0" opacity="1.0" stroke="rgb(0,0,0)" stroke-width="2.0"/>
<line x1="163.0" y1="270.3" x2="146.5" y2="292.9" opacity="1.0" stroke="rgb(0,0,0)" stroke-width="2.0"/>
<line x1="148.8" y1="302.0" x2="109.1" y2="297.9" opacity="1.0" stroke="rgb(0,0,0)" stroke-width="2.0"/>
<line x1="109.1" y1="297.9" x2="92.8" y2="261.3" opacity="1.0" stroke="rgb(0,0,0)" stroke-width="2.0"/>
<line x1="113.2" y1="289.4" x2="101.8" y2="263.9" opacity="1.0" stroke="rgb(0,0,0)" stroke-width="2.0"/>
<line x1="85.6" y1="330.2" x2="101.8" y2="366.8" opacity="1.0" stroke="rgb(0,0,0)" stroke-width="2.0"/>
<line x1="94.6" y1="332.8" x2="106.0" y2="358.3" opacity="1.0" stroke="rgb(0,0,0)" stroke-width="2.0"/>
<line x1="101.8" y1="366.8" x2="141.6" y2="370.9" opacity="1.0" stroke="rgb(0,0,0)" stroke-width="2.0"/>
<line x1="141.6" y1="370.9" x2="165.1" y2="338.6" opacity="1.0" stroke="rgb(0,0,0)" stroke-width="2.0"/>
<line x1="139.3" y1="361.8" x2="155.8" y2="339.2" opacity="1.0" stroke="rgb(0,0,0)" stroke-width="2.0"/>
<line x1="165.1" y1="338.6" x2="148.8" y2="302.0" opacity="1.0" stroke="rgb(0,0,0)" stroke-width="2.0"/>
<line x1="109.1" y1="297.9" x2="85.6" y2="330.2" opacity="1.0" stroke="rgb(0,0,0)" stroke-width="2.0"/>
<line x1="279.9" y1="279.9" x2="241.9" y2="292.3" opacity="1.0" stroke="rgb(0,0,0)" stroke-width="2.0"/>
<line x1="241.9" y1="292.3" x2="212.1" y2="265.5" opacity="1.0" stroke="rgb(0,0,0)" stroke-width="2.0"/>
<line x1="242.2" y1="282.9" x2="221.4" y2="264.2" opacity="1.0" stroke="rgb(0,0,0)" stroke-width="2.0"/>
<line x1="220.5" y1="226.4" x2="258.5" y2="214.0" opacity="1.0" stroke="rgb(0,0,0)" stroke-width="2.0"/>
<line x1="228.4" y1="231.4" x2="255.0" y2="222.7" opacity="1.0" stroke="rgb(0,0,0)" stroke-width="2.0"/>
<line x1="258.5" y1="214.0" x2="288.2" y2="240.8" opacity="1.0" stroke="rgb(0,0,0)" stroke-width="2.0"/>
<line x1="288.2" y1="240.8" x2="279.9" y2="279.9" opacity="1.0" stroke="rgb(0,0,0)" stroke-width="2.0"/>
<line x1="279.9" y1="245.1" x2="274.1" y2="272.5" opacity="1.0" stroke="rgb(0,0,0)" stroke-width="2.0"/>
<line x1="301.3" y1="345.8" x2="263.3" y2="358.1" opacity="1.0" stroke="rgb(0,0,0)" stroke-width="2.0"/>
<line x1="263.3" y1="358.1" x2="233.5" y2="331.4" opacity="1.0" stroke="rgb(0,0,0)" stroke-width="2.0"/>
<line x1="263.6" y1="348.8" x2="242.8" y2="330.0" opacity="1.0" stroke="rgb(0,0,0)" stroke-width="2.0"/>
<line x1="233.5" y1="331.4" x2="241.9" y2="292.3" opacity="1.0" stroke="rgb(0,0,0)" stroke-width="2.0"/>
<line x1="279.9" y1="279.9" x2="309.6" y2="306.7" opacity="1.0" stroke="rgb(0,0,0)" stroke-width="2.0"/>
<line x1="309.6" y1="306.7" x2="301.3" y2="345.8" opacity="1.0" stroke="rgb(0,0,0)" stroke-width="2.0"/>
<line x1="301.3" y1="311.0" x2="295.5" y2="338.4" opacity="1.0" stroke="rgb(0,0,0)" stroke-width="2.0"/>
<line x1="214.0" y1="143.1" x2="209.8" y2="103.3" opacity="1.0" stroke="rgb(0,0,0)" stroke-width="2.0"/>
<line x1="209.8" y1="103.3" x2="173.3" y2="87.0" opacity="1.0" stroke="rgb(0,0,0)" stroke-width="2.0"/>
<line x1="201.4" y1="107.4" x2="175.8" y2="96.0" opacity="1.0" stroke="rgb(0,0,0)" stroke-width="2.0"/>
<line x1="173.3" y1="87.0" x2="140.9" y2="110.5" opacity="1.0" stroke="rgb(0,0,0)" stroke-width="2.0"/>
<line x1="140.9" y1="110.5" x2="145.1" y2="150.3" opacity="1.0" stroke="rgb(0,0,0)" stroke-width="2.0"/>
<line x1="148.7" y1="115.7" x2="151.6" y2="143.6" opacity="1.0" stroke="rgb(0,0,0)" stroke-width="2.0"/>
<line x1="145.1" y1="150.3" x2="181.6" y2="166.6" opacity="1.0" stroke="rgb(0,0,0)" stroke-width="2.0"/>
<line x1="181.6" y1="166.6" x2="214.0" y2="143.1" opacity="1.0" stroke="rgb(0,0,0)" stroke-width="2.0"/>
<line x1="182.3" y1="157.2" x2="204.9" y2="140.8" opacity="1.0" stroke="rgb(0,0,0)" stroke-width="2.0"/>
<text x="236.171805" y="87.780876" fill="rgb(255,12,12)" stroke-width="0" font-weight="bold" font-size="16">O</text>
<text x="211.990667" y="48.000000" fill="rgb(102,102,102)" stroke-width="0" font-weight="bold" font-size="16">H</text>
<text x="223.990667" y="51.680000" fill="rgb(102,102,102)" stroke-width="0" font-weight="bold" font-size="13">3</text>
<text x="230.490667" y="48.000000" fill="rgb(102,102,102)" stroke-width="0" font-weight="bold" font-size="16">C</text>
<text x="50.269466" y="58.957722" fill="rgb(178,178,0)" stroke-width="0" font-weight="bold" font-size="16">S</text>
<text x="179.812723" y="214.365448" fill="rgb(12,12,255)" stroke-width="0" font-weight="bold" font-size="16">N</text>
</svg>
</g>
</svg>
