<svg xmlns="http://www.w3.org/2000/svg" x="0" y="0" viewBox="0 0 100 100">
<title>D_4_M - Open Babel Depiction</title>
<rect x="0" y="0" width="100" height="100" fill="white"/>
<g transform="translate(0,0)">
<svg width="100" height="100" x="0" y="0" viewBox="0 0 431.432 421.749" font-family="sans-serif" stroke="rgb(0,0,0)" stroke-width="2" stroke-linecap="round">
<line x1="322.6" y1="77.7" x2="321.2" y2="63.7" opacity="1.0" stroke="rgb(0,0,0)" stroke-width="2.0"/>
<line x1="291.6" y1="114.1" x2="313.5" y2="98.2" opacity="1.0" stroke="rgb(0,0,0)" stroke-width="2.0"/>
<line x1="266.3" y1="204.2" x2="263.4" y2="177.4" opacity="1.0" stroke="rgb(0,0,0)" stroke-width="2.0"/>
<line x1="76.5" y1="56.3" x2="51.9" y2="45.3" opacity="1.0" stroke="rgb(0,0,0)" stroke-width="2.0"/>
<line x1="74.8" y1="60.1" x2="50.2" y2="49.1" opacity="1.0" stroke="rgb(0,0,0)" stroke-width="2.0"/>
<line x1="78.3" y1="52.4" x2="53.6" y2="41.5" opacity="1.0" stroke="rgb(0,0,0)" stroke-width="2.0"/>
<line x1="113.1" y1="72.5" x2="76.5" y2="56.3" opacity="1.0" stroke="rgb(0,0,0)" stroke-width="2.0"/>
<line x1="222.7" y1="121.3" x2="186.2" y2="105.1" opacity="1.0" stroke="rgb(0,0,0)" stroke-width="2.0"/>
<line x1="302.3" y1="237.2" x2="293.9" y2="276.3" opacity="1.0" stroke="rgb(0,0,0)" stroke-width="2.0"/>
<line x1="293.9" y1="276.3" x2="254.2" y2="280.5" opacity="1.0" stroke="rgb(0,0,0)" stroke-width="2.0"/>
<line x1="254.2" y1="280.5" x2="237.9" y2="243.9" opacity="1.0" stroke="rgb(0,0,0)" stroke-width="2.0"/>
<line x1="237.9" y1="243.9" x2="258.0" y2="225.9" opacity="1.0" stroke="rgb(0,0,0)" stroke-width="2.0"/>
<line x1="278.9" y1="223.7" x2="302.3" y2="237.2" opacity="1.0" stroke="rgb(0,0,0)" stroke-width="2.0"/>
<line x1="174.6" y1="272.1" x2="198.1" y2="239.8" opacity="1.0" stroke="rgb(0,0,0)" stroke-width="2.0"/>
<line x1="198.1" y1="239.8" x2="237.9" y2="243.9" opacity="1.0" stroke="rgb(0,0,0)" stroke-width="2.0"/>
<line x1="203.3" y1="247.6" x2="231.2" y2="250.5" opacity="1.0" stroke="rgb(0,0,0)" stroke-width="2.0"/>
<line x1="254.2" y1="280.5" x2="230.6" y2="312.8" opacity="1.0" stroke="rgb(0,0,0)" stroke-width="2.0"/>
<line x1="244.8" y1="281.1" x2="228.3" y2="303.8" opacity="1.0" stroke="rgb(0,0,0)" stroke-width="2.0"/>
<line x1="230.6" y1="312.8" x2="190.9" y2="308.7" opacity="1.0" stroke="rgb(0,0,0)" stroke-width="2.0"/>
<line x1="190.9" y1="308.7" x2="174.6" y2="272.1" opacity="1.0" stroke="rgb(0,0,0)" stroke-width="2.0"/>
<line x1="195.0" y1="300.3" x2="183.6" y2="274.7" opacity="1.0" stroke="rgb(0,0,0)" stroke-width="2.0"/>
<line x1="167.4" y1="341.0" x2="183.6" y2="377.6" opacity="1.0" stroke="rgb(0,0,0)" stroke-width="2.0"/>
<line x1="176.4" y1="343.6" x2="187.8" y2="369.2" opacity="1.0" stroke="rgb(0,0,0)" stroke-width="2.0"/>
<line x1="183.6" y1="377.6" x2="223.4" y2="381.7" opacity="1.0" stroke="rgb(0,0,0)" stroke-width="2.0"/>
<line x1="223.4" y1="381.7" x2="246.9" y2="349.4" opacity="1.0" stroke="rgb(0,0,0)" stroke-width="2.0"/>
<line x1="221.1" y1="372.7" x2="237.6" y2="350.0" opacity="1.0" stroke="rgb(0,0,0)" stroke-width="2.0"/>
<line x1="246.9" y1="349.4" x2="230.6" y2="312.8" opacity="1.0" stroke="rgb(0,0,0)" stroke-width="2.0"/>
<line x1="190.9" y1="308.7" x2="167.4" y2="341.0" opacity="1.0" stroke="rgb(0,0,0)" stroke-width="2.0"/>
<line x1="361.7" y1="290.7" x2="323.7" y2="303.1" opacity="1.0" stroke="rgb(0,0,0)" stroke-width="2.0"/>
<line x1="323.7" y1="303.1" x2="293.9" y2="276.3" opacity="1.0" stroke="rgb(0,0,0)" stroke-width="2.0"/>
<line x1="324.0" y1="293.7" x2="303.2" y2="275.0" opacity="1.0" stroke="rgb(0,0,0)" stroke-width="2.0"/>
<line x1="302.3" y1="237.2" x2="340.3" y2="224.8" opacity="1.0" stroke="rgb(0,0,0)" stroke-width="2.0"/>
<line x1="310.2" y1="242.2" x2="336.8" y2="233.5" opacity="1.0" stroke="rgb(0,0,0)" stroke-width="2.0"/>
<line x1="340.3" y1="224.8" x2="370.0" y2="251.6" opacity="1.0" stroke="rgb(0,0,0)" stroke-width="2.0"/>
<line x1="370.0" y1="251.6" x2="361.7" y2="290.7" opacity="1.0" stroke="rgb(0,0,0)" stroke-width="2.0"/>
<line x1="361.7" y1="256.0" x2="355.9" y2="283.3" opacity="1.0" stroke="rgb(0,0,0)" stroke-width="2.0"/>
<line x1="383.1" y1="356.6" x2="345.1" y2="369.0" opacity="1.0" stroke="rgb(0,0,0)" stroke-width="2.0"/>
<line x1="345.1" y1="369.0" x2="315.3" y2="342.2" opacity="1.0" stroke="rgb(0,0,0)" stroke-width="2.0"/>
<line x1="345.4" y1="359.6" x2="324.6" y2="340.9" opacity="1.0" stroke="rgb(0,0,0)" stroke-width="2.0"/>
<line x1="315.3" y1="342.2" x2="323.7" y2="303.1" opacity="1.0" stroke="rgb(0,0,0)" stroke-width="2.0"/>
<line x1="361.7" y1="290.7" x2="391.4" y2="317.5" opacity="1.0" stroke="rgb(0,0,0)" stroke-width="2.0"/>
<line x1="391.4" y1="317.5" x2="383.1" y2="356.6" opacity="1.0" stroke="rgb(0,0,0)" stroke-width="2.0"/>
<line x1="383.1" y1="321.8" x2="377.3" y2="349.2" opacity="1.0" stroke="rgb(0,0,0)" stroke-width="2.0"/>
<line x1="295.8" y1="153.9" x2="291.6" y2="114.1" opacity="1.0" stroke="rgb(0,0,0)" stroke-width="2.0"/>
<line x1="291.6" y1="114.1" x2="255.1" y2="97.8" opacity="1.0" stroke="rgb(0,0,0)" stroke-width="2.0"/>
<line x1="283.2" y1="118.2" x2="257.6" y2="106.9" opacity="1.0" stroke="rgb(0,0,0)" stroke-width="2.0"/>
<line x1="255.1" y1="97.8" x2="222.7" y2="121.3" opacity="1.0" stroke="rgb(0,0,0)" stroke-width="2.0"/>
<line x1="222.7" y1="121.3" x2="226.9" y2="161.1" opacity="1.0" stroke="rgb(0,0,0)" stroke-width="2.0"/>
<line x1="230.5" y1="126.6" x2="233.4" y2="154.4" opacity="1.0" stroke="rgb(0,0,0)" stroke-width="2.0"/>
<line x1="226.9" y1="161.1" x2="263.4" y2="177.4" opacity="1.0" stroke="rgb(0,0,0)" stroke-width="2.0"/>
<line x1="263.4" y1="177.4" x2="295.8" y2="153.9" opacity="1.0" stroke="rgb(0,0,0)" stroke-width="2.0"/>
<line x1="264.1" y1="168.0" x2="286.7" y2="151.6" opacity="1.0" stroke="rgb(0,0,0)" stroke-width="2.0"/>
<line x1="182.0" y1="65.3" x2="145.4" y2="49.0" opacity="1.0" stroke="rgb(0,0,0)" stroke-width="2.0"/>
<line x1="145.4" y1="49.0" x2="113.1" y2="72.5" opacity="1.0" stroke="rgb(0,0,0)" stroke-width="2.0"/>
<line x1="144.8" y1="58.4" x2="122.2" y2="74.8" opacity="1.0" stroke="rgb(0,0,0)" stroke-width="2.0"/>
<line x1="113.1" y1="72.5" x2="117.3" y2="112.3" opacity="1.0" stroke="rgb(0,0,0)" stroke-width="2.0"/>
<line x1="117.3" y1="112.3" x2="153.8" y2="128.6" opacity="1.0" stroke="rgb(0,0,0)" stroke-width="2.0"/>
<line x1="125.7" y1="108.2" x2="151.3" y2="119.6" opacity="1.0" stroke="rgb(0,0,0)" stroke-width="2.0"/>
<line x1="153.8" y1="128.6" x2="186.2" y2="105.1" opacity="1.0" stroke="rgb(0,0,0)" stroke-width="2.0"/>
<line x1="186.2" y1="105.1" x2="182.0" y2="65.3" opacity="1.0" stroke="rgb(0,0,0)" stroke-width="2.0"/>
<line x1="178.4" y1="99.9" x2="175.5" y2="72.0" opacity="1.0" stroke="rgb(0,0,0)" stroke-width="2.0"/>
<text x="293.791131" y="58.813098" fill="rgb(102,102,102)" stroke-width="0" font-weight="bold" font-size="16">H</text>
<text x="305.791131" y="62.493098" fill="rgb(102,102,102)" stroke-width="0" font-weight="bold" font-size="13">3</text>
<text x="312.291131" y="58.813098" fill="rgb(102,102,102)" stroke-width="0" font-weight="bold" font-size="16">C</text>
<text x="317.972269" y="98.593974" fill="rgb(255,12,12)" stroke-width="0" font-weight="bold" font-size="16">O</text>
<text x="34.000000" y="48.000000" fill="rgb(12,12,255)" stroke-width="0" font-weight="bold" font-size="16">N</text>
<text x="261.613187" y="225.178546" fill="rgb(12,12,255)" stroke-width="0" font-weight="bold" font-size="16">N</text>
</svg>
</g>
</svg>
