<svg xmlns="http://www.w3.org/2000/svg" xmlns:xlink="http://www.w3.org/1999/xlink" xmlns:cml="http://www.xml-cml.org/schema" version="1.1" id="topsvg" x="0" y="0" viewBox="0 0 100 100">
<title>D_5_T - Open Babel Depiction</title>
<rect x="0" y="0" width="100" height="100" fill="white"/>
<g transform="translate(0,0)">
<svg width="100" height="100" x="0" y="0" viewBox="0 0 435.613 468.772" font-family="sans-serif" stroke="rgb(0,0,0)" stroke-width="2" stroke-linecap="round">
<line x1="270.4" y1="251.3" x2="267.6" y2="224.4" opacity="1.0" stroke="rgb(0,0,0)" stroke-width="2.0"/>
<line x1="76.5" y1="63.5" x2="51.9" y2="52.5" opacity="1.0" stroke="rgb(0,0,0)" stroke-width="2.0"/>
<line x1="186.2" y1="112.3" x2="149.6" y2="96.1" opacity="1.0" stroke="rgb(0,0,0)" stroke-width="2.0"/>
<line x1="306.4" y1="284.2" x2="298.1" y2="323.3" opacity="1.0" stroke="rgb(0,0,0)" stroke-width="2.0"/>
<line x1="298.1" y1="323.3" x2="258.3" y2="327.5" opacity="1.0" stroke="rgb(0,0,0)" stroke-width="2.0"/>
<line x1="258.3" y1="327.5" x2="242.1" y2="291.0" opacity="1.0" stroke="rgb(0,0,0)" stroke-width="2.0"/>
<line x1="242.1" y1="291.0" x2="262.1" y2="272.9" opacity="1.0" stroke="rgb(0,0,0)" stroke-width="2.0"/>
<line x1="283.1" y1="270.7" x2="306.4" y2="284.2" opacity="1.0" stroke="rgb(0,0,0)" stroke-width="2.0"/>
<line x1="178.8" y1="319.1" x2="202.3" y2="286.8" opacity="1.0" stroke="rgb(0,0,0)" stroke-width="2.0"/>
<line x1="202.3" y1="286.8" x2="242.1" y2="291.0" opacity="1.0" stroke="rgb(0,0,0)" stroke-width="2.0"/>
<line x1="207.5" y1="294.6" x2="235.3" y2="297.5" opacity="1.0" stroke="rgb(0,0,0)" stroke-width="2.0"/>
<line x1="258.3" y1="327.5" x2="234.8" y2="359.9" opacity="1.0" stroke="rgb(0,0,0)" stroke-width="2.0"/>
<line x1="249.0" y1="328.1" x2="232.5" y2="350.8" opacity="1.0" stroke="rgb(0,0,0)" stroke-width="2.0"/>
<line x1="234.8" y1="359.9" x2="195.0" y2="355.7" opacity="1.0" stroke="rgb(0,0,0)" stroke-width="2.0"/>
<line x1="195.0" y1="355.7" x2="178.8" y2="319.1" opacity="1.0" stroke="rgb(0,0,0)" stroke-width="2.0"/>
<line x1="199.2" y1="347.3" x2="187.8" y2="321.7" opacity="1.0" stroke="rgb(0,0,0)" stroke-width="2.0"/>
<line x1="171.5" y1="388.0" x2="187.8" y2="424.6" opacity="1.0" stroke="rgb(0,0,0)" stroke-width="2.0"/>
<line x1="180.6" y1="390.6" x2="191.9" y2="416.2" opacity="1.0" stroke="rgb(0,0,0)" stroke-width="2.0"/>
<line x1="187.8" y1="424.6" x2="227.6" y2="428.8" opacity="1.0" stroke="rgb(0,0,0)" stroke-width="2.0"/>
<line x1="227.6" y1="428.8" x2="251.1" y2="396.4" opacity="1.0" stroke="rgb(0,0,0)" stroke-width="2.0"/>
<line x1="225.3" y1="419.7" x2="241.7" y2="397.0" opacity="1.0" stroke="rgb(0,0,0)" stroke-width="2.0"/>
<line x1="251.1" y1="396.4" x2="234.8" y2="359.9" opacity="1.0" stroke="rgb(0,0,0)" stroke-width="2.0"/>
<line x1="195.0" y1="355.7" x2="171.5" y2="388.0" opacity="1.0" stroke="rgb(0,0,0)" stroke-width="2.0"/>
<line x1="365.9" y1="337.7" x2="327.8" y2="350.1" opacity="1.0" stroke="rgb(0,0,0)" stroke-width="2.0"/>
<line x1="327.8" y1="350.1" x2="298.1" y2="323.3" opacity="1.0" stroke="rgb(0,0,0)" stroke-width="2.0"/>
<line x1="328.2" y1="340.7" x2="307.4" y2="322.0" opacity="1.0" stroke="rgb(0,0,0)" stroke-width="2.0"/>
<line x1="306.4" y1="284.2" x2="344.5" y2="271.8" opacity="1.0" stroke="rgb(0,0,0)" stroke-width="2.0"/>
<line x1="314.4" y1="289.2" x2="341.0" y2="280.5" opacity="1.0" stroke="rgb(0,0,0)" stroke-width="2.0"/>
<line x1="344.5" y1="271.8" x2="374.2" y2="298.6" opacity="1.0" stroke="rgb(0,0,0)" stroke-width="2.0"/>
<line x1="374.2" y1="298.6" x2="365.9" y2="337.7" opacity="1.0" stroke="rgb(0,0,0)" stroke-width="2.0"/>
<line x1="365.9" y1="303.0" x2="360.1" y2="330.4" opacity="1.0" stroke="rgb(0,0,0)" stroke-width="2.0"/>
<line x1="387.3" y1="403.6" x2="349.3" y2="416.0" opacity="1.0" stroke="rgb(0,0,0)" stroke-width="2.0"/>
<line x1="349.3" y1="416.0" x2="319.5" y2="389.2" opacity="1.0" stroke="rgb(0,0,0)" stroke-width="2.0"/>
<line x1="349.6" y1="406.6" x2="328.8" y2="387.9" opacity="1.0" stroke="rgb(0,0,0)" stroke-width="2.0"/>
<line x1="319.5" y1="389.2" x2="327.8" y2="350.1" opacity="1.0" stroke="rgb(0,0,0)" stroke-width="2.0"/>
<line x1="365.9" y1="337.7" x2="395.6" y2="364.5" opacity="1.0" stroke="rgb(0,0,0)" stroke-width="2.0"/>
<line x1="395.6" y1="364.5" x2="387.3" y2="403.6" opacity="1.0" stroke="rgb(0,0,0)" stroke-width="2.0"/>
<line x1="387.3" y1="368.9" x2="381.5" y2="396.3" opacity="1.0" stroke="rgb(0,0,0)" stroke-width="2.0"/>
<line x1="300.0" y1="200.9" x2="295.8" y2="161.1" opacity="1.0" stroke="rgb(0,0,0)" stroke-width="2.0"/>
<line x1="295.8" y1="161.1" x2="259.3" y2="144.9" opacity="1.0" stroke="rgb(0,0,0)" stroke-width="2.0"/>
<line x1="287.4" y1="165.3" x2="261.8" y2="153.9" opacity="1.0" stroke="rgb(0,0,0)" stroke-width="2.0"/>
<line x1="259.3" y1="144.9" x2="226.9" y2="168.4" opacity="1.0" stroke="rgb(0,0,0)" stroke-width="2.0"/>
<line x1="226.9" y1="168.4" x2="231.1" y2="208.2" opacity="1.0" stroke="rgb(0,0,0)" stroke-width="2.0"/>
<line x1="234.7" y1="173.6" x2="237.6" y2="201.4" opacity="1.0" stroke="rgb(0,0,0)" stroke-width="2.0"/>
<line x1="231.1" y1="208.2" x2="267.6" y2="224.4" opacity="1.0" stroke="rgb(0,0,0)" stroke-width="2.0"/>
<line x1="267.6" y1="224.4" x2="300.0" y2="200.9" opacity="1.0" stroke="rgb(0,0,0)" stroke-width="2.0"/>
<line x1="268.2" y1="215.1" x2="290.9" y2="198.6" opacity="1.0" stroke="rgb(0,0,0)" stroke-width="2.0"/>
<line x1="186.2" y1="112.3" x2="190.3" y2="152.1" opacity="1.0" stroke="rgb(0,0,0)" stroke-width="2.0"/>
<line x1="194.0" y1="117.5" x2="196.9" y2="145.4" opacity="1.0" stroke="rgb(0,0,0)" stroke-width="2.0"/>
<line x1="190.3" y1="152.1" x2="226.9" y2="168.4" opacity="1.0" stroke="rgb(0,0,0)" stroke-width="2.0"/>
<line x1="259.3" y1="144.9" x2="255.1" y2="105.1" opacity="1.0" stroke="rgb(0,0,0)" stroke-width="2.0"/>
<line x1="255.1" y1="105.1" x2="218.5" y2="88.8" opacity="1.0" stroke="rgb(0,0,0)" stroke-width="2.0"/>
<line x1="246.7" y1="109.2" x2="221.1" y2="97.8" opacity="1.0" stroke="rgb(0,0,0)" stroke-width="2.0"/>
<line x1="218.5" y1="88.8" x2="186.2" y2="112.3" opacity="1.0" stroke="rgb(0,0,0)" stroke-width="2.0"/>
<line x1="145.4" y1="56.3" x2="108.9" y2="40.0" opacity="1.0" stroke="rgb(0,0,0)" stroke-width="2.0"/>
<line x1="108.9" y1="40.0" x2="76.5" y2="63.5" opacity="1.0" stroke="rgb(0,0,0)" stroke-width="2.0"/>
<line x1="108.3" y1="49.4" x2="85.6" y2="65.8" opacity="1.0" stroke="rgb(0,0,0)" stroke-width="2.0"/>
<line x1="76.5" y1="63.5" x2="80.7" y2="103.3" opacity="1.0" stroke="rgb(0,0,0)" stroke-width="2.0"/>
<line x1="80.7" y1="103.3" x2="117.3" y2="119.6" opacity="1.0" stroke="rgb(0,0,0)" stroke-width="2.0"/>
<line x1="89.1" y1="99.2" x2="114.7" y2="110.5" opacity="1.0" stroke="rgb(0,0,0)" stroke-width="2.0"/>
<line x1="117.3" y1="119.6" x2="149.6" y2="96.1" opacity="1.0" stroke="rgb(0,0,0)" stroke-width="2.0"/>
<line x1="149.6" y1="96.1" x2="145.4" y2="56.3" opacity="1.0" stroke="rgb(0,0,0)" stroke-width="2.0"/>
<line x1="141.8" y1="90.8" x2="138.9" y2="63.0" opacity="1.0" stroke="rgb(0,0,0)" stroke-width="2.0"/>
<text x="14.000000" y="55.241944" fill="rgb(102,102,102)" stroke-width="0" font-weight="bold" font-size="16">H</text>
<text x="26.000000" y="58.921944" fill="rgb(102,102,102)" stroke-width="0" font-weight="bold" font-size="13">3</text>
<text x="32.500000" y="55.241944" fill="rgb(102,102,102)" stroke-width="0" font-weight="bold" font-size="16">C</text>
<text x="265.794325" y="272.201366" fill="rgb(12,12,255)" stroke-width="0" font-weight="bold" font-size="16">N</text>
</svg>
</g>
</svg>