<svg xmlns="http://www.w3.org/2000/svg" x="0" y="0" viewBox="0 0 100 100">
<title>D_5_Q - Open Babel Depiction</title>
<rect x="0" y="0" width="100" height="100" fill="white"/>
<g transform="translate(0,0)">
<svg width="100" height="100" x="0" y="0" viewBox="0 0 399.071 468.772" font-family="sans-serif" stroke="rgb(0,0,0)" stroke-width="2" stroke-linecap="round">
<line x1="233.9" y1="251.3" x2="231.1" y2="224.4" opacity="1.0" stroke="rgb(0,0,0)" stroke-width="2.0"/>
<line x1="149.6" y1="112.3" x2="113.1" y2="96.1" opacity="1.0" stroke="rgb(0,0,0)" stroke-width="2.0"/>
<line x1="269.9" y1="284.2" x2="261.6" y2="323.3" opacity="1.0" stroke="rgb(0,0,0)" stroke-width="2.0"/>
<line x1="261.6" y1="323.3" x2="221.8" y2="327.5" opacity="1.0" stroke="rgb(0,0,0)" stroke-width="2.0"/>
<line x1="221.8" y1="327.5" x2="205.5" y2="291.0" opacity="1.0" stroke="rgb(0,0,0)" stroke-width="2.0"/>
<line x1="205.5" y1="291.0" x2="225.6" y2="272.9" opacity="1.0" stroke="rgb(0,0,0)" stroke-width="2.0"/>
<line x1="246.5" y1="270.7" x2="269.9" y2="284.2" opacity="1.0" stroke="rgb(0,0,0)" stroke-width="2.0"/>
<line x1="142.2" y1="319.1" x2="165.7" y2="286.8" opacity="1.0" stroke="rgb(0,0,0)" stroke-width="2.0"/>
<line x1="165.7" y1="286.8" x2="205.5" y2="291.0" opacity="1.0" stroke="rgb(0,0,0)" stroke-width="2.0"/>
<line x1="171.0" y1="294.6" x2="198.8" y2="297.5" opacity="1.0" stroke="rgb(0,0,0)" stroke-width="2.0"/>
<line x1="221.8" y1="327.5" x2="198.3" y2="359.9" opacity="1.0" stroke="rgb(0,0,0)" stroke-width="2.0"/>
<line x1="212.4" y1="328.1" x2="196.0" y2="350.8" opacity="1.0" stroke="rgb(0,0,0)" stroke-width="2.0"/>
<line x1="198.3" y1="359.9" x2="158.5" y2="355.7" opacity="1.0" stroke="rgb(0,0,0)" stroke-width="2.0"/>
<line x1="158.5" y1="355.7" x2="142.2" y2="319.1" opacity="1.0" stroke="rgb(0,0,0)" stroke-width="2.0"/>
<line x1="162.6" y1="347.3" x2="151.3" y2="321.7" opacity="1.0" stroke="rgb(0,0,0)" stroke-width="2.0"/>
<line x1="135.0" y1="388.0" x2="151.3" y2="424.6" opacity="1.0" stroke="rgb(0,0,0)" stroke-width="2.0"/>
<line x1="144.0" y1="390.6" x2="155.4" y2="416.2" opacity="1.0" stroke="rgb(0,0,0)" stroke-width="2.0"/>
<line x1="151.3" y1="424.6" x2="191.0" y2="428.8" opacity="1.0" stroke="rgb(0,0,0)" stroke-width="2.0"/>
<line x1="191.0" y1="428.8" x2="214.6" y2="396.4" opacity="1.0" stroke="rgb(0,0,0)" stroke-width="2.0"/>
<line x1="188.7" y1="419.7" x2="205.2" y2="397.0" opacity="1.0" stroke="rgb(0,0,0)" stroke-width="2.0"/>
<line x1="214.6" y1="396.4" x2="198.3" y2="359.9" opacity="1.0" stroke="rgb(0,0,0)" stroke-width="2.0"/>
<line x1="158.5" y1="355.7" x2="135.0" y2="388.0" opacity="1.0" stroke="rgb(0,0,0)" stroke-width="2.0"/>
<line x1="329.3" y1="337.7" x2="291.3" y2="350.1" opacity="1.0" stroke="rgb(0,0,0)" stroke-width="2.0"/>
<line x1="291.3" y1="350.1" x2="261.6" y2="323.3" opacity="1.0" stroke="rgb(0,0,0)" stroke-width="2.0"/>
<line x1="291.7" y1="340.7" x2="270.9" y2="322.0" opacity="1.0" stroke="rgb(0,0,0)" stroke-width="2.0"/>
<line x1="269.9" y1="284.2" x2="307.9" y2="271.8" opacity="1.0" stroke="rgb(0,0,0)" stroke-width="2.0"/>
<line x1="277.8" y1="289.2" x2="304.5" y2="280.5" opacity="1.0" stroke="rgb(0,0,0)" stroke-width="2.0"/>
<line x1="307.9" y1="271.8" x2="337.7" y2="298.6" opacity="1.0" stroke="rgb(0,0,0)" stroke-width="2.0"/>
<line x1="337.7" y1="298.6" x2="329.3" y2="337.7" opacity="1.0" stroke="rgb(0,0,0)" stroke-width="2.0"/>
<line x1="329.4" y1="303.0" x2="323.5" y2="330.4" opacity="1.0" stroke="rgb(0,0,0)" stroke-width="2.0"/>
<line x1="350.8" y1="403.6" x2="312.7" y2="416.0" opacity="1.0" stroke="rgb(0,0,0)" stroke-width="2.0"/>
<line x1="312.7" y1="416.0" x2="283.0" y2="389.2" opacity="1.0" stroke="rgb(0,0,0)" stroke-width="2.0"/>
<line x1="313.1" y1="406.6" x2="292.3" y2="387.9" opacity="1.0" stroke="rgb(0,0,0)" stroke-width="2.0"/>
<line x1="283.0" y1="389.2" x2="291.3" y2="350.1" opacity="1.0" stroke="rgb(0,0,0)" stroke-width="2.0"/>
<line x1="329.3" y1="337.7" x2="359.1" y2="364.5" opacity="1.0" stroke="rgb(0,0,0)" stroke-width="2.0"/>
<line x1="359.1" y1="364.5" x2="350.8" y2="403.6" opacity="1.0" stroke="rgb(0,0,0)" stroke-width="2.0"/>
<line x1="350.8" y1="368.9" x2="345.0" y2="396.3" opacity="1.0" stroke="rgb(0,0,0)" stroke-width="2.0"/>
<line x1="263.4" y1="200.9" x2="259.3" y2="161.1" opacity="1.0" stroke="rgb(0,0,0)" stroke-width="2.0"/>
<line x1="259.3" y1="161.1" x2="222.7" y2="144.9" opacity="1.0" stroke="rgb(0,0,0)" stroke-width="2.0"/>
<line x1="250.8" y1="165.3" x2="225.3" y2="153.9" opacity="1.0" stroke="rgb(0,0,0)" stroke-width="2.0"/>
<line x1="222.7" y1="144.9" x2="190.3" y2="168.4" opacity="1.0" stroke="rgb(0,0,0)" stroke-width="2.0"/>
<line x1="190.3" y1="168.4" x2="194.5" y2="208.2" opacity="1.0" stroke="rgb(0,0,0)" stroke-width="2.0"/>
<line x1="198.1" y1="173.6" x2="201.1" y2="201.4" opacity="1.0" stroke="rgb(0,0,0)" stroke-width="2.0"/>
<line x1="194.5" y1="208.2" x2="231.1" y2="224.4" opacity="1.0" stroke="rgb(0,0,0)" stroke-width="2.0"/>
<line x1="231.1" y1="224.4" x2="263.4" y2="200.9" opacity="1.0" stroke="rgb(0,0,0)" stroke-width="2.0"/>
<line x1="231.7" y1="215.1" x2="254.3" y2="198.6" opacity="1.0" stroke="rgb(0,0,0)" stroke-width="2.0"/>
<line x1="149.6" y1="112.3" x2="153.8" y2="152.1" opacity="1.0" stroke="rgb(0,0,0)" stroke-width="2.0"/>
<line x1="157.4" y1="117.5" x2="160.3" y2="145.4" opacity="1.0" stroke="rgb(0,0,0)" stroke-width="2.0"/>
<line x1="153.8" y1="152.1" x2="190.3" y2="168.4" opacity="1.0" stroke="rgb(0,0,0)" stroke-width="2.0"/>
<line x1="222.7" y1="144.9" x2="218.5" y2="105.1" opacity="1.0" stroke="rgb(0,0,0)" stroke-width="2.0"/>
<line x1="218.5" y1="105.1" x2="182.0" y2="88.8" opacity="1.0" stroke="rgb(0,0,0)" stroke-width="2.0"/>
<line x1="210.1" y1="109.2" x2="184.5" y2="97.8" opacity="1.0" stroke="rgb(0,0,0)" stroke-width="2.0"/>
<line x1="182.0" y1="88.8" x2="149.6" y2="112.3" opacity="1.0" stroke="rgb(0,0,0)" stroke-width="2.0"/>
<line x1="97.0" y1="51.0" x2="72.4" y2="40.0" opacity="1.0" stroke="rgb(0,0,0)" stroke-width="2.0"/>
<line x1="72.4" y1="40.0" x2="40.0" y2="63.5" opacity="1.0" stroke="rgb(0,0,0)" stroke-width="2.0"/>
<line x1="71.7" y1="49.4" x2="49.1" y2="65.8" opacity="1.0" stroke="rgb(0,0,0)" stroke-width="2.0"/>
<line x1="40.0" y1="63.5" x2="42.8" y2="90.4" opacity="1.0" stroke="rgb(0,0,0)" stroke-width="2.0"/>
<line x1="56.2" y1="108.7" x2="80.7" y2="119.6" opacity="1.0" stroke="rgb(0,0,0)" stroke-width="2.0"/>
<line x1="61.0" y1="102.9" x2="78.2" y2="110.5" opacity="1.0" stroke="rgb(0,0,0)" stroke-width="2.0"/>
<line x1="80.7" y1="119.6" x2="113.1" y2="96.1" opacity="1.0" stroke="rgb(0,0,0)" stroke-width="2.0"/>
<line x1="113.1" y1="96.1" x2="110.3" y2="69.4" opacity="1.0" stroke="rgb(0,0,0)" stroke-width="2.0"/>
<line x1="105.3" y1="90.8" x2="103.3" y2="72.1" opacity="1.0" stroke="rgb(0,0,0)" stroke-width="2.0"/>
<text x="102.902498" y="64.269466" fill="rgb(12,12,255)" stroke-width="0" font-weight="bold" font-size="16">N</text>
<text x="38.181139" y="111.292286" fill="rgb(12,12,255)" stroke-width="0" font-weight="bold" font-size="16">N</text>
<text x="229.252507" y="272.201366" fill="rgb(12,12,255)" stroke-width="0" font-weight="bold" font-size="16">N</text>
</svg>
</g>
</svg>
