<svg xmlns="http://www.w3.org/2000/svg" x="0" y="0" viewBox="0 0 100 100">
<title>D_5_N - Open Babel Depiction</title>
<rect x="0" y="0" width="100" height="100" fill="white"/>
<g transform="translate(0,0)">
<svg width="100" height="100" x="0" y="0" viewBox="0 0 390.354 456.028" font-family="sans-serif" stroke="rgb(0,0,0)" stroke-width="2" stroke-linecap="round">
<line x1="225.2" y1="238.5" x2="222.4" y2="211.7" opacity="1.0" stroke="rgb(0,0,0)" stroke-width="2.0"/>
<line x1="140.9" y1="99.6" x2="104.4" y2="83.3" opacity="1.0" stroke="rgb(0,0,0)" stroke-width="2.0"/>
<line x1="261.2" y1="271.5" x2="252.9" y2="310.6" opacity="1.0" stroke="rgb(0,0,0)" stroke-width="2.0"/>
<line x1="252.9" y1="310.6" x2="213.1" y2="314.8" opacity="1.0" stroke="rgb(0,0,0)" stroke-width="2.0"/>
<line x1="213.1" y1="314.8" x2="196.8" y2="278.2" opacity="1.0" stroke="rgb(0,0,0)" stroke-width="2.0"/>
<line x1="196.8" y1="278.2" x2="216.9" y2="260.2" opacity="1.0" stroke="rgb(0,0,0)" stroke-width="2.0"/>
<line x1="237.8" y1="258.0" x2="261.2" y2="271.5" opacity="1.0" stroke="rgb(0,0,0)" stroke-width="2.0"/>
<line x1="96.1" y1="44.2" x2="69.2" y2="41.4" opacity="1.0" stroke="rgb(0,0,0)" stroke-width="2.0"/>
<line x1="51.0" y1="51.9" x2="40.0" y2="76.5" opacity="1.0" stroke="rgb(0,0,0)" stroke-width="2.0"/>
<line x1="40.0" y1="76.5" x2="69.7" y2="103.3" opacity="1.0" stroke="rgb(0,0,0)" stroke-width="2.0"/>
<line x1="49.3" y1="75.2" x2="70.1" y2="93.9" opacity="1.0" stroke="rgb(0,0,0)" stroke-width="2.0"/>
<line x1="69.7" y1="103.3" x2="104.4" y2="83.3" opacity="1.0" stroke="rgb(0,0,0)" stroke-width="2.0"/>
<line x1="104.4" y1="83.3" x2="96.1" y2="44.2" opacity="1.0" stroke="rgb(0,0,0)" stroke-width="2.0"/>
<line x1="96.1" y1="78.9" x2="90.3" y2="51.5" opacity="1.0" stroke="rgb(0,0,0)" stroke-width="2.0"/>
<line x1="133.5" y1="306.4" x2="157.0" y2="274.0" opacity="1.0" stroke="rgb(0,0,0)" stroke-width="2.0"/>
<line x1="157.0" y1="274.0" x2="196.8" y2="278.2" opacity="1.0" stroke="rgb(0,0,0)" stroke-width="2.0"/>
<line x1="162.2" y1="281.8" x2="190.1" y2="284.8" opacity="1.0" stroke="rgb(0,0,0)" stroke-width="2.0"/>
<line x1="213.1" y1="314.8" x2="189.6" y2="347.1" opacity="1.0" stroke="rgb(0,0,0)" stroke-width="2.0"/>
<line x1="203.7" y1="315.4" x2="187.3" y2="338.0" opacity="1.0" stroke="rgb(0,0,0)" stroke-width="2.0"/>
<line x1="189.6" y1="347.1" x2="149.8" y2="342.9" opacity="1.0" stroke="rgb(0,0,0)" stroke-width="2.0"/>
<line x1="149.8" y1="342.9" x2="133.5" y2="306.4" opacity="1.0" stroke="rgb(0,0,0)" stroke-width="2.0"/>
<line x1="153.9" y1="334.5" x2="142.5" y2="309.0" opacity="1.0" stroke="rgb(0,0,0)" stroke-width="2.0"/>
<line x1="126.3" y1="375.3" x2="142.5" y2="411.8" opacity="1.0" stroke="rgb(0,0,0)" stroke-width="2.0"/>
<line x1="135.3" y1="377.9" x2="146.7" y2="403.4" opacity="1.0" stroke="rgb(0,0,0)" stroke-width="2.0"/>
<line x1="142.5" y1="411.8" x2="182.3" y2="416.0" opacity="1.0" stroke="rgb(0,0,0)" stroke-width="2.0"/>
<line x1="182.3" y1="416.0" x2="205.8" y2="383.7" opacity="1.0" stroke="rgb(0,0,0)" stroke-width="2.0"/>
<line x1="180.0" y1="406.9" x2="196.5" y2="384.3" opacity="1.0" stroke="rgb(0,0,0)" stroke-width="2.0"/>
<line x1="205.8" y1="383.7" x2="189.6" y2="347.1" opacity="1.0" stroke="rgb(0,0,0)" stroke-width="2.0"/>
<line x1="149.8" y1="342.9" x2="126.3" y2="375.3" opacity="1.0" stroke="rgb(0,0,0)" stroke-width="2.0"/>
<line x1="320.6" y1="325.0" x2="282.6" y2="337.3" opacity="1.0" stroke="rgb(0,0,0)" stroke-width="2.0"/>
<line x1="282.6" y1="337.3" x2="252.9" y2="310.6" opacity="1.0" stroke="rgb(0,0,0)" stroke-width="2.0"/>
<line x1="282.9" y1="328.0" x2="262.1" y2="309.2" opacity="1.0" stroke="rgb(0,0,0)" stroke-width="2.0"/>
<line x1="261.2" y1="271.5" x2="299.2" y2="259.1" opacity="1.0" stroke="rgb(0,0,0)" stroke-width="2.0"/>
<line x1="269.1" y1="276.5" x2="295.7" y2="267.8" opacity="1.0" stroke="rgb(0,0,0)" stroke-width="2.0"/>
<line x1="299.2" y1="259.1" x2="328.9" y2="285.9" opacity="1.0" stroke="rgb(0,0,0)" stroke-width="2.0"/>
<line x1="328.9" y1="285.9" x2="320.6" y2="325.0" opacity="1.0" stroke="rgb(0,0,0)" stroke-width="2.0"/>
<line x1="320.7" y1="290.2" x2="314.8" y2="317.6" opacity="1.0" stroke="rgb(0,0,0)" stroke-width="2.0"/>
<line x1="342.0" y1="390.9" x2="304.0" y2="403.2" opacity="1.0" stroke="rgb(0,0,0)" stroke-width="2.0"/>
<line x1="304.0" y1="403.2" x2="274.3" y2="376.5" opacity="1.0" stroke="rgb(0,0,0)" stroke-width="2.0"/>
<line x1="304.4" y1="393.9" x2="283.5" y2="375.1" opacity="1.0" stroke="rgb(0,0,0)" stroke-width="2.0"/>
<line x1="274.3" y1="376.5" x2="282.6" y2="337.3" opacity="1.0" stroke="rgb(0,0,0)" stroke-width="2.0"/>
<line x1="320.6" y1="325.0" x2="350.4" y2="351.8" opacity="1.0" stroke="rgb(0,0,0)" stroke-width="2.0"/>
<line x1="350.4" y1="351.8" x2="342.0" y2="390.9" opacity="1.0" stroke="rgb(0,0,0)" stroke-width="2.0"/>
<line x1="342.1" y1="356.1" x2="336.2" y2="383.5" opacity="1.0" stroke="rgb(0,0,0)" stroke-width="2.0"/>
<line x1="254.7" y1="188.2" x2="250.5" y2="148.4" opacity="1.0" stroke="rgb(0,0,0)" stroke-width="2.0"/>
<line x1="250.5" y1="148.4" x2="214.0" y2="132.1" opacity="1.0" stroke="rgb(0,0,0)" stroke-width="2.0"/>
<line x1="242.1" y1="152.5" x2="216.5" y2="141.1" opacity="1.0" stroke="rgb(0,0,0)" stroke-width="2.0"/>
<line x1="214.0" y1="132.1" x2="181.6" y2="155.6" opacity="1.0" stroke="rgb(0,0,0)" stroke-width="2.0"/>
<line x1="181.6" y1="155.6" x2="185.8" y2="195.4" opacity="1.0" stroke="rgb(0,0,0)" stroke-width="2.0"/>
<line x1="189.4" y1="160.8" x2="192.3" y2="188.7" opacity="1.0" stroke="rgb(0,0,0)" stroke-width="2.0"/>
<line x1="185.8" y1="195.4" x2="222.4" y2="211.7" opacity="1.0" stroke="rgb(0,0,0)" stroke-width="2.0"/>
<line x1="222.4" y1="211.7" x2="254.7" y2="188.2" opacity="1.0" stroke="rgb(0,0,0)" stroke-width="2.0"/>
<line x1="223.0" y1="202.3" x2="245.6" y2="185.9" opacity="1.0" stroke="rgb(0,0,0)" stroke-width="2.0"/>
<line x1="140.9" y1="99.6" x2="145.1" y2="139.4" opacity="1.0" stroke="rgb(0,0,0)" stroke-width="2.0"/>
<line x1="148.7" y1="104.8" x2="151.6" y2="132.6" opacity="1.0" stroke="rgb(0,0,0)" stroke-width="2.0"/>
<line x1="145.1" y1="139.4" x2="181.6" y2="155.6" opacity="1.0" stroke="rgb(0,0,0)" stroke-width="2.0"/>
<line x1="214.0" y1="132.1" x2="209.8" y2="92.3" opacity="1.0" stroke="rgb(0,0,0)" stroke-width="2.0"/>
<line x1="209.8" y1="92.3" x2="173.3" y2="76.1" opacity="1.0" stroke="rgb(0,0,0)" stroke-width="2.0"/>
<line x1="201.4" y1="96.5" x2="175.8" y2="85.1" opacity="1.0" stroke="rgb(0,0,0)" stroke-width="2.0"/>
<line x1="173.3" y1="76.1" x2="140.9" y2="99.6" opacity="1.0" stroke="rgb(0,0,0)" stroke-width="2.0"/>
<text x="50.269466" y="48.000000" fill="rgb(178,178,0)" stroke-width="0" font-weight="bold" font-size="16">S</text>
<text x="220.535680" y="259.458067" fill="rgb(12,12,255)" stroke-width="0" font-weight="bold" font-size="16">N</text>
</svg>
</g>
</svg>
