<svg xmlns="http://www.w3.org/2000/svg" xmlns:xlink="http://www.w3.org/1999/xlink" xmlns:cml="http://www.xml-cml.org/schema" version="1.1" id="topsvg" x="0" y="0" viewBox="0 0 100 100">
<title>D_5_P - Open Babel Depiction</title>
<rect x="0" y="0" width="100" height="100" fill="white"/>
<g transform="translate(0,0)">
<svg width="100" height="100" x="0" y="0" viewBox="0 0 439.794 501.311" font-family="sans-serif" stroke="rgb(0,0,0)" stroke-width="2" stroke-linecap="round">
<line x1="274.6" y1="283.8" x2="271.8" y2="257.0" opacity="1.0" stroke="rgb(0,0,0)" stroke-width="2.0"/>
<line x1="42.8" y1="66.9" x2="41.4" y2="52.9" opacity="1.0" stroke="rgb(0,0,0)" stroke-width="2.0"/>
<line x1="80.7" y1="96.1" x2="56.1" y2="85.1" opacity="1.0" stroke="rgb(0,0,0)" stroke-width="2.0"/>
<line x1="190.3" y1="144.9" x2="153.8" y2="128.6" opacity="1.0" stroke="rgb(0,0,0)" stroke-width="2.0"/>
<line x1="310.6" y1="316.7" x2="302.3" y2="355.9" opacity="1.0" stroke="rgb(0,0,0)" stroke-width="2.0"/>
<line x1="302.3" y1="355.9" x2="262.5" y2="360.0" opacity="1.0" stroke="rgb(0,0,0)" stroke-width="2.0"/>
<line x1="262.5" y1="360.0" x2="246.2" y2="323.5" opacity="1.0" stroke="rgb(0,0,0)" stroke-width="2.0"/>
<line x1="246.2" y1="323.5" x2="266.3" y2="305.4" opacity="1.0" stroke="rgb(0,0,0)" stroke-width="2.0"/>
<line x1="287.2" y1="303.2" x2="310.6" y2="316.7" opacity="1.0" stroke="rgb(0,0,0)" stroke-width="2.0"/>
<line x1="183.0" y1="351.7" x2="206.5" y2="319.3" opacity="1.0" stroke="rgb(0,0,0)" stroke-width="2.0"/>
<line x1="206.5" y1="319.3" x2="246.2" y2="323.5" opacity="1.0" stroke="rgb(0,0,0)" stroke-width="2.0"/>
<line x1="211.7" y1="327.1" x2="239.5" y2="330.0" opacity="1.0" stroke="rgb(0,0,0)" stroke-width="2.0"/>
<line x1="262.5" y1="360.0" x2="239.0" y2="392.4" opacity="1.0" stroke="rgb(0,0,0)" stroke-width="2.0"/>
<line x1="253.2" y1="360.7" x2="236.7" y2="383.3" opacity="1.0" stroke="rgb(0,0,0)" stroke-width="2.0"/>
<line x1="239.0" y1="392.4" x2="199.2" y2="388.2" opacity="1.0" stroke="rgb(0,0,0)" stroke-width="2.0"/>
<line x1="199.2" y1="388.2" x2="183.0" y2="351.7" opacity="1.0" stroke="rgb(0,0,0)" stroke-width="2.0"/>
<line x1="203.4" y1="379.8" x2="192.0" y2="354.2" opacity="1.0" stroke="rgb(0,0,0)" stroke-width="2.0"/>
<line x1="175.7" y1="420.6" x2="192.0" y2="457.1" opacity="1.0" stroke="rgb(0,0,0)" stroke-width="2.0"/>
<line x1="184.7" y1="423.1" x2="196.1" y2="448.7" opacity="1.0" stroke="rgb(0,0,0)" stroke-width="2.0"/>
<line x1="192.0" y1="457.1" x2="231.8" y2="461.3" opacity="1.0" stroke="rgb(0,0,0)" stroke-width="2.0"/>
<line x1="231.8" y1="461.3" x2="255.3" y2="428.9" opacity="1.0" stroke="rgb(0,0,0)" stroke-width="2.0"/>
<line x1="229.5" y1="452.2" x2="245.9" y2="429.6" opacity="1.0" stroke="rgb(0,0,0)" stroke-width="2.0"/>
<line x1="255.3" y1="428.9" x2="239.0" y2="392.4" opacity="1.0" stroke="rgb(0,0,0)" stroke-width="2.0"/>
<line x1="199.2" y1="388.2" x2="175.7" y2="420.6" opacity="1.0" stroke="rgb(0,0,0)" stroke-width="2.0"/>
<line x1="370.1" y1="370.3" x2="332.0" y2="382.6" opacity="1.0" stroke="rgb(0,0,0)" stroke-width="2.0"/>
<line x1="332.0" y1="382.6" x2="302.3" y2="355.9" opacity="1.0" stroke="rgb(0,0,0)" stroke-width="2.0"/>
<line x1="332.4" y1="373.3" x2="311.6" y2="354.5" opacity="1.0" stroke="rgb(0,0,0)" stroke-width="2.0"/>
<line x1="310.6" y1="316.7" x2="348.7" y2="304.4" opacity="1.0" stroke="rgb(0,0,0)" stroke-width="2.0"/>
<line x1="318.5" y1="321.7" x2="345.2" y2="313.1" opacity="1.0" stroke="rgb(0,0,0)" stroke-width="2.0"/>
<line x1="348.7" y1="304.4" x2="378.4" y2="331.1" opacity="1.0" stroke="rgb(0,0,0)" stroke-width="2.0"/>
<line x1="378.4" y1="331.1" x2="370.1" y2="370.3" opacity="1.0" stroke="rgb(0,0,0)" stroke-width="2.0"/>
<line x1="370.1" y1="335.5" x2="364.3" y2="362.9" opacity="1.0" stroke="rgb(0,0,0)" stroke-width="2.0"/>
<line x1="391.5" y1="436.2" x2="353.4" y2="448.5" opacity="1.0" stroke="rgb(0,0,0)" stroke-width="2.0"/>
<line x1="353.4" y1="448.5" x2="323.7" y2="421.8" opacity="1.0" stroke="rgb(0,0,0)" stroke-width="2.0"/>
<line x1="353.8" y1="439.2" x2="333.0" y2="420.4" opacity="1.0" stroke="rgb(0,0,0)" stroke-width="2.0"/>
<line x1="323.7" y1="421.8" x2="332.0" y2="382.6" opacity="1.0" stroke="rgb(0,0,0)" stroke-width="2.0"/>
<line x1="370.1" y1="370.3" x2="399.8" y2="397.0" opacity="1.0" stroke="rgb(0,0,0)" stroke-width="2.0"/>
<line x1="399.8" y1="397.0" x2="391.5" y2="436.2" opacity="1.0" stroke="rgb(0,0,0)" stroke-width="2.0"/>
<line x1="391.5" y1="401.4" x2="385.7" y2="428.8" opacity="1.0" stroke="rgb(0,0,0)" stroke-width="2.0"/>
<line x1="304.2" y1="233.4" x2="300.0" y2="193.7" opacity="1.0" stroke="rgb(0,0,0)" stroke-width="2.0"/>
<line x1="300.0" y1="193.7" x2="263.4" y2="177.4" opacity="1.0" stroke="rgb(0,0,0)" stroke-width="2.0"/>
<line x1="291.6" y1="197.8" x2="266.0" y2="186.4" opacity="1.0" stroke="rgb(0,0,0)" stroke-width="2.0"/>
<line x1="263.4" y1="177.4" x2="231.1" y2="200.9" opacity="1.0" stroke="rgb(0,0,0)" stroke-width="2.0"/>
<line x1="231.1" y1="200.9" x2="235.3" y2="240.7" opacity="1.0" stroke="rgb(0,0,0)" stroke-width="2.0"/>
<line x1="238.9" y1="206.1" x2="241.8" y2="234.0" opacity="1.0" stroke="rgb(0,0,0)" stroke-width="2.0"/>
<line x1="235.3" y1="240.7" x2="271.8" y2="257.0" opacity="1.0" stroke="rgb(0,0,0)" stroke-width="2.0"/>
<line x1="271.8" y1="257.0" x2="304.2" y2="233.4" opacity="1.0" stroke="rgb(0,0,0)" stroke-width="2.0"/>
<line x1="272.4" y1="247.6" x2="295.1" y2="231.1" opacity="1.0" stroke="rgb(0,0,0)" stroke-width="2.0"/>
<line x1="190.3" y1="144.9" x2="194.5" y2="184.6" opacity="1.0" stroke="rgb(0,0,0)" stroke-width="2.0"/>
<line x1="198.1" y1="150.1" x2="201.1" y2="177.9" opacity="1.0" stroke="rgb(0,0,0)" stroke-width="2.0"/>
<line x1="194.5" y1="184.6" x2="231.1" y2="200.9" opacity="1.0" stroke="rgb(0,0,0)" stroke-width="2.0"/>
<line x1="263.4" y1="177.4" x2="259.3" y2="137.6" opacity="1.0" stroke="rgb(0,0,0)" stroke-width="2.0"/>
<line x1="259.3" y1="137.6" x2="222.7" y2="121.3" opacity="1.0" stroke="rgb(0,0,0)" stroke-width="2.0"/>
<line x1="250.8" y1="141.8" x2="225.3" y2="130.4" opacity="1.0" stroke="rgb(0,0,0)" stroke-width="2.0"/>
<line x1="222.7" y1="121.3" x2="190.3" y2="144.9" opacity="1.0" stroke="rgb(0,0,0)" stroke-width="2.0"/>
<line x1="149.6" y1="88.8" x2="113.1" y2="72.5" opacity="1.0" stroke="rgb(0,0,0)" stroke-width="2.0"/>
<line x1="113.1" y1="72.5" x2="80.7" y2="96.1" opacity="1.0" stroke="rgb(0,0,0)" stroke-width="2.0"/>
<line x1="112.5" y1="81.9" x2="89.8" y2="98.3" opacity="1.0" stroke="rgb(0,0,0)" stroke-width="2.0"/>
<line x1="80.7" y1="96.1" x2="84.9" y2="135.8" opacity="1.0" stroke="rgb(0,0,0)" stroke-width="2.0"/>
<line x1="84.9" y1="135.8" x2="121.4" y2="152.1" opacity="1.0" stroke="rgb(0,0,0)" stroke-width="2.0"/>
<line x1="93.3" y1="131.7" x2="118.9" y2="143.1" opacity="1.0" stroke="rgb(0,0,0)" stroke-width="2.0"/>
<line x1="121.4" y1="152.1" x2="153.8" y2="128.6" opacity="1.0" stroke="rgb(0,0,0)" stroke-width="2.0"/>
<line x1="153.8" y1="128.6" x2="149.6" y2="88.8" opacity="1.0" stroke="rgb(0,0,0)" stroke-width="2.0"/>
<line x1="146.0" y1="123.4" x2="143.1" y2="95.5" opacity="1.0" stroke="rgb(0,0,0)" stroke-width="2.0"/>
<text x="38.181139" y="87.780876" fill="rgb(255,12,12)" stroke-width="0" font-weight="bold" font-size="16">O</text>
<text x="14.000000" y="48.000000" fill="rgb(102,102,102)" stroke-width="0" font-weight="bold" font-size="16">H</text>
<text x="26.000000" y="51.680000" fill="rgb(102,102,102)" stroke-width="0" font-weight="bold" font-size="13">3</text>
<text x="32.500000" y="48.000000" fill="rgb(102,102,102)" stroke-width="0" font-weight="bold" font-size="16">C</text>
<text x="269.975464" y="304.740298" fill="rgb(12,12,255)" stroke-width="0" font-weight="bold" font-size="16">N</text>
</svg>
</g>
</svg>