<svg xmlns="http://www.w3.org/2000/svg" xmlns:xlink="http://www.w3.org/1999/xlink" xmlns:cml="http://www.xml-cml.org/schema" version="1.1" id="topsvg" x="0" y="0" viewBox="0 0 100 100">
<title>D_7_M - Open Babel Depiction</title>
<rect x="0" y="0" width="100" height="100" fill="white"/>
<g transform="translate(0,0)">
<svg width="100" height="100" x="0" y="0" viewBox="0 0 304.078 618.868" font-family="sans-serif" stroke="rgb(0,0,0)" stroke-width="2" stroke-linecap="round">
<line x1="127.7" y1="295.0" x2="123.5" y2="255.2" opacity="1.0" stroke="rgb(0,0,0)" stroke-width="2.0"/>
<line x1="122.3" y1="257.9" x2="85.8" y2="241.6" opacity="1.0" stroke="rgb(0,0,0)" stroke-width="2.0"/>
<line x1="124.8" y1="252.4" x2="88.2" y2="236.2" opacity="1.0" stroke="rgb(0,0,0)" stroke-width="2.0"/>
<line x1="138.9" y1="401.4" x2="136.1" y2="374.5" opacity="1.0" stroke="rgb(0,0,0)" stroke-width="2.0"/>
<line x1="70.3" y1="79.8" x2="67.4" y2="52.9" opacity="1.0" stroke="rgb(0,0,0)" stroke-width="2.0"/>
<line x1="66.1" y1="80.2" x2="63.3" y2="53.4" opacity="1.0" stroke="rgb(0,0,0)" stroke-width="2.0"/>
<line x1="74.4" y1="79.3" x2="71.6" y2="52.5" opacity="1.0" stroke="rgb(0,0,0)" stroke-width="2.0"/>
<line x1="74.5" y1="119.6" x2="70.3" y2="79.8" opacity="1.0" stroke="rgb(0,0,0)" stroke-width="2.0"/>
<line x1="87.0" y1="238.9" x2="82.8" y2="199.1" opacity="1.0" stroke="rgb(0,0,0)" stroke-width="2.0"/>
<line x1="174.9" y1="434.3" x2="166.6" y2="473.4" opacity="1.0" stroke="rgb(0,0,0)" stroke-width="2.0"/>
<line x1="166.6" y1="473.4" x2="126.8" y2="477.6" opacity="1.0" stroke="rgb(0,0,0)" stroke-width="2.0"/>
<line x1="126.8" y1="477.6" x2="110.5" y2="441.1" opacity="1.0" stroke="rgb(0,0,0)" stroke-width="2.0"/>
<line x1="110.5" y1="441.1" x2="130.6" y2="423.0" opacity="1.0" stroke="rgb(0,0,0)" stroke-width="2.0"/>
<line x1="151.5" y1="420.8" x2="174.9" y2="434.3" opacity="1.0" stroke="rgb(0,0,0)" stroke-width="2.0"/>
<line x1="47.2" y1="469.2" x2="70.8" y2="436.9" opacity="1.0" stroke="rgb(0,0,0)" stroke-width="2.0"/>
<line x1="70.8" y1="436.9" x2="110.5" y2="441.1" opacity="1.0" stroke="rgb(0,0,0)" stroke-width="2.0"/>
<line x1="76.0" y1="444.7" x2="103.8" y2="447.6" opacity="1.0" stroke="rgb(0,0,0)" stroke-width="2.0"/>
<line x1="126.8" y1="477.6" x2="103.3" y2="510.0" opacity="1.0" stroke="rgb(0,0,0)" stroke-width="2.0"/>
<line x1="117.5" y1="478.2" x2="101.0" y2="500.9" opacity="1.0" stroke="rgb(0,0,0)" stroke-width="2.0"/>
<line x1="103.3" y1="510.0" x2="63.5" y2="505.8" opacity="1.0" stroke="rgb(0,0,0)" stroke-width="2.0"/>
<line x1="63.5" y1="505.8" x2="47.2" y2="469.2" opacity="1.0" stroke="rgb(0,0,0)" stroke-width="2.0"/>
<line x1="67.6" y1="497.4" x2="56.3" y2="471.8" opacity="1.0" stroke="rgb(0,0,0)" stroke-width="2.0"/>
<line x1="40.0" y1="538.1" x2="56.3" y2="574.7" opacity="1.0" stroke="rgb(0,0,0)" stroke-width="2.0"/>
<line x1="49.0" y1="540.7" x2="60.4" y2="566.3" opacity="1.0" stroke="rgb(0,0,0)" stroke-width="2.0"/>
<line x1="56.3" y1="574.7" x2="96.1" y2="578.9" opacity="1.0" stroke="rgb(0,0,0)" stroke-width="2.0"/>
<line x1="96.1" y1="578.9" x2="119.6" y2="546.5" opacity="1.0" stroke="rgb(0,0,0)" stroke-width="2.0"/>
<line x1="93.8" y1="569.8" x2="110.2" y2="547.1" opacity="1.0" stroke="rgb(0,0,0)" stroke-width="2.0"/>
<line x1="119.6" y1="546.5" x2="103.3" y2="510.0" opacity="1.0" stroke="rgb(0,0,0)" stroke-width="2.0"/>
<line x1="63.5" y1="505.8" x2="40.0" y2="538.1" opacity="1.0" stroke="rgb(0,0,0)" stroke-width="2.0"/>
<line x1="234.4" y1="487.8" x2="196.3" y2="500.2" opacity="1.0" stroke="rgb(0,0,0)" stroke-width="2.0"/>
<line x1="196.3" y1="500.2" x2="166.6" y2="473.4" opacity="1.0" stroke="rgb(0,0,0)" stroke-width="2.0"/>
<line x1="196.7" y1="490.8" x2="175.9" y2="472.1" opacity="1.0" stroke="rgb(0,0,0)" stroke-width="2.0"/>
<line x1="174.9" y1="434.3" x2="212.9" y2="421.9" opacity="1.0" stroke="rgb(0,0,0)" stroke-width="2.0"/>
<line x1="182.8" y1="439.3" x2="209.5" y2="430.6" opacity="1.0" stroke="rgb(0,0,0)" stroke-width="2.0"/>
<line x1="212.9" y1="421.9" x2="242.7" y2="448.7" opacity="1.0" stroke="rgb(0,0,0)" stroke-width="2.0"/>
<line x1="242.7" y1="448.7" x2="234.4" y2="487.8" opacity="1.0" stroke="rgb(0,0,0)" stroke-width="2.0"/>
<line x1="234.4" y1="453.1" x2="228.6" y2="480.5" opacity="1.0" stroke="rgb(0,0,0)" stroke-width="2.0"/>
<line x1="255.8" y1="553.7" x2="217.7" y2="566.1" opacity="1.0" stroke="rgb(0,0,0)" stroke-width="2.0"/>
<line x1="217.7" y1="566.1" x2="188.0" y2="539.3" opacity="1.0" stroke="rgb(0,0,0)" stroke-width="2.0"/>
<line x1="218.1" y1="556.7" x2="197.3" y2="538.0" opacity="1.0" stroke="rgb(0,0,0)" stroke-width="2.0"/>
<line x1="188.0" y1="539.3" x2="196.3" y2="500.2" opacity="1.0" stroke="rgb(0,0,0)" stroke-width="2.0"/>
<line x1="234.4" y1="487.8" x2="264.1" y2="514.6" opacity="1.0" stroke="rgb(0,0,0)" stroke-width="2.0"/>
<line x1="264.1" y1="514.6" x2="255.8" y2="553.7" opacity="1.0" stroke="rgb(0,0,0)" stroke-width="2.0"/>
<line x1="255.8" y1="519.0" x2="250.0" y2="546.4" opacity="1.0" stroke="rgb(0,0,0)" stroke-width="2.0"/>
<line x1="168.4" y1="351.0" x2="164.3" y2="311.2" opacity="1.0" stroke="rgb(0,0,0)" stroke-width="2.0"/>
<line x1="164.3" y1="311.2" x2="127.7" y2="295.0" opacity="1.0" stroke="rgb(0,0,0)" stroke-width="2.0"/>
<line x1="155.8" y1="315.4" x2="130.3" y2="304.0" opacity="1.0" stroke="rgb(0,0,0)" stroke-width="2.0"/>
<line x1="127.7" y1="295.0" x2="95.4" y2="318.5" opacity="1.0" stroke="rgb(0,0,0)" stroke-width="2.0"/>
<line x1="95.4" y1="318.5" x2="99.5" y2="358.2" opacity="1.0" stroke="rgb(0,0,0)" stroke-width="2.0"/>
<line x1="103.1" y1="323.7" x2="106.1" y2="351.5" opacity="1.0" stroke="rgb(0,0,0)" stroke-width="2.0"/>
<line x1="99.5" y1="358.2" x2="136.1" y2="374.5" opacity="1.0" stroke="rgb(0,0,0)" stroke-width="2.0"/>
<line x1="136.1" y1="374.5" x2="168.4" y2="351.0" opacity="1.0" stroke="rgb(0,0,0)" stroke-width="2.0"/>
<line x1="136.7" y1="365.2" x2="159.4" y2="348.7" opacity="1.0" stroke="rgb(0,0,0)" stroke-width="2.0"/>
<line x1="115.2" y1="175.6" x2="111.0" y2="135.8" opacity="1.0" stroke="rgb(0,0,0)" stroke-width="2.0"/>
<line x1="111.0" y1="135.8" x2="74.5" y2="119.6" opacity="1.0" stroke="rgb(0,0,0)" stroke-width="2.0"/>
<line x1="102.6" y1="140.0" x2="77.0" y2="128.6" opacity="1.0" stroke="rgb(0,0,0)" stroke-width="2.0"/>
<line x1="74.5" y1="119.6" x2="42.1" y2="143.1" opacity="1.0" stroke="rgb(0,0,0)" stroke-width="2.0"/>
<line x1="42.1" y1="143.1" x2="46.3" y2="182.9" opacity="1.0" stroke="rgb(0,0,0)" stroke-width="2.0"/>
<line x1="49.9" y1="148.3" x2="52.8" y2="176.1" opacity="1.0" stroke="rgb(0,0,0)" stroke-width="2.0"/>
<line x1="46.3" y1="182.9" x2="82.8" y2="199.1" opacity="1.0" stroke="rgb(0,0,0)" stroke-width="2.0"/>
<line x1="82.8" y1="199.1" x2="115.2" y2="175.6" opacity="1.0" stroke="rgb(0,0,0)" stroke-width="2.0"/>
<line x1="83.4" y1="189.8" x2="106.1" y2="173.3" opacity="1.0" stroke="rgb(0,0,0)" stroke-width="2.0"/>
<text x="60.087958" y="48.000000" fill="rgb(12,12,255)" stroke-width="0" font-weight="bold" font-size="16">N</text>
<text x="134.260023" y="422.297348" fill="rgb(12,12,255)" stroke-width="0" font-weight="bold" font-size="16">N</text>
</svg>
</g>
</svg>