<svg xmlns="http://www.w3.org/2000/svg" xmlns:xlink="http://www.w3.org/1999/xlink" xmlns:cml="http://www.xml-cml.org/schema" version="1.1" id="topsvg" x="0" y="0" viewBox="0 0 100 100">
<title>D_7_T - Open Babel Depiction</title>
<rect x="0" y="0" width="100" height="100" fill="white"/>
<g transform="translate(0,0)">
<svg width="100" height="100" x="0" y="0" viewBox="0 0 304.078 579.087" font-family="sans-serif" stroke="rgb(0,0,0)" stroke-width="2" stroke-linecap="round">
<line x1="127.7" y1="255.2" x2="123.5" y2="215.4" opacity="1.0" stroke="rgb(0,0,0)" stroke-width="2.0"/>
<line x1="122.3" y1="218.1" x2="85.8" y2="201.9" opacity="1.0" stroke="rgb(0,0,0)" stroke-width="2.0"/>
<line x1="124.8" y1="212.7" x2="88.2" y2="196.4" opacity="1.0" stroke="rgb(0,0,0)" stroke-width="2.0"/>
<line x1="138.9" y1="361.6" x2="136.1" y2="334.7" opacity="1.0" stroke="rgb(0,0,0)" stroke-width="2.0"/>
<line x1="74.5" y1="79.8" x2="71.6" y2="52.9" opacity="1.0" stroke="rgb(0,0,0)" stroke-width="2.0"/>
<line x1="87.0" y1="199.1" x2="82.8" y2="159.3" opacity="1.0" stroke="rgb(0,0,0)" stroke-width="2.0"/>
<line x1="174.9" y1="394.5" x2="166.6" y2="433.6" opacity="1.0" stroke="rgb(0,0,0)" stroke-width="2.0"/>
<line x1="166.6" y1="433.6" x2="126.8" y2="437.8" opacity="1.0" stroke="rgb(0,0,0)" stroke-width="2.0"/>
<line x1="126.8" y1="437.8" x2="110.5" y2="401.3" opacity="1.0" stroke="rgb(0,0,0)" stroke-width="2.0"/>
<line x1="110.5" y1="401.3" x2="130.6" y2="383.2" opacity="1.0" stroke="rgb(0,0,0)" stroke-width="2.0"/>
<line x1="151.5" y1="381.0" x2="174.9" y2="394.5" opacity="1.0" stroke="rgb(0,0,0)" stroke-width="2.0"/>
<line x1="47.2" y1="429.5" x2="70.8" y2="397.1" opacity="1.0" stroke="rgb(0,0,0)" stroke-width="2.0"/>
<line x1="70.8" y1="397.1" x2="110.5" y2="401.3" opacity="1.0" stroke="rgb(0,0,0)" stroke-width="2.0"/>
<line x1="76.0" y1="404.9" x2="103.8" y2="407.8" opacity="1.0" stroke="rgb(0,0,0)" stroke-width="2.0"/>
<line x1="126.8" y1="437.8" x2="103.3" y2="470.2" opacity="1.0" stroke="rgb(0,0,0)" stroke-width="2.0"/>
<line x1="117.5" y1="438.4" x2="101.0" y2="461.1" opacity="1.0" stroke="rgb(0,0,0)" stroke-width="2.0"/>
<line x1="103.3" y1="470.2" x2="63.5" y2="466.0" opacity="1.0" stroke="rgb(0,0,0)" stroke-width="2.0"/>
<line x1="63.5" y1="466.0" x2="47.2" y2="429.5" opacity="1.0" stroke="rgb(0,0,0)" stroke-width="2.0"/>
<line x1="67.6" y1="457.6" x2="56.3" y2="432.0" opacity="1.0" stroke="rgb(0,0,0)" stroke-width="2.0"/>
<line x1="40.0" y1="498.4" x2="56.3" y2="534.9" opacity="1.0" stroke="rgb(0,0,0)" stroke-width="2.0"/>
<line x1="49.0" y1="500.9" x2="60.4" y2="526.5" opacity="1.0" stroke="rgb(0,0,0)" stroke-width="2.0"/>
<line x1="56.3" y1="534.9" x2="96.1" y2="539.1" opacity="1.0" stroke="rgb(0,0,0)" stroke-width="2.0"/>
<line x1="96.1" y1="539.1" x2="119.6" y2="506.7" opacity="1.0" stroke="rgb(0,0,0)" stroke-width="2.0"/>
<line x1="93.8" y1="530.0" x2="110.2" y2="507.3" opacity="1.0" stroke="rgb(0,0,0)" stroke-width="2.0"/>
<line x1="119.6" y1="506.7" x2="103.3" y2="470.2" opacity="1.0" stroke="rgb(0,0,0)" stroke-width="2.0"/>
<line x1="63.5" y1="466.0" x2="40.0" y2="498.4" opacity="1.0" stroke="rgb(0,0,0)" stroke-width="2.0"/>
<line x1="234.4" y1="448.0" x2="196.3" y2="460.4" opacity="1.0" stroke="rgb(0,0,0)" stroke-width="2.0"/>
<line x1="196.3" y1="460.4" x2="166.6" y2="433.6" opacity="1.0" stroke="rgb(0,0,0)" stroke-width="2.0"/>
<line x1="196.7" y1="451.0" x2="175.9" y2="432.3" opacity="1.0" stroke="rgb(0,0,0)" stroke-width="2.0"/>
<line x1="174.9" y1="394.5" x2="212.9" y2="382.2" opacity="1.0" stroke="rgb(0,0,0)" stroke-width="2.0"/>
<line x1="182.8" y1="399.5" x2="209.5" y2="390.9" opacity="1.0" stroke="rgb(0,0,0)" stroke-width="2.0"/>
<line x1="212.9" y1="382.2" x2="242.7" y2="408.9" opacity="1.0" stroke="rgb(0,0,0)" stroke-width="2.0"/>
<line x1="242.7" y1="408.9" x2="234.4" y2="448.0" opacity="1.0" stroke="rgb(0,0,0)" stroke-width="2.0"/>
<line x1="234.4" y1="413.3" x2="228.6" y2="440.7" opacity="1.0" stroke="rgb(0,0,0)" stroke-width="2.0"/>
<line x1="255.8" y1="513.9" x2="217.7" y2="526.3" opacity="1.0" stroke="rgb(0,0,0)" stroke-width="2.0"/>
<line x1="217.7" y1="526.3" x2="188.0" y2="499.5" opacity="1.0" stroke="rgb(0,0,0)" stroke-width="2.0"/>
<line x1="218.1" y1="516.9" x2="197.3" y2="498.2" opacity="1.0" stroke="rgb(0,0,0)" stroke-width="2.0"/>
<line x1="188.0" y1="499.5" x2="196.3" y2="460.4" opacity="1.0" stroke="rgb(0,0,0)" stroke-width="2.0"/>
<line x1="234.4" y1="448.0" x2="264.1" y2="474.8" opacity="1.0" stroke="rgb(0,0,0)" stroke-width="2.0"/>
<line x1="264.1" y1="474.8" x2="255.8" y2="513.9" opacity="1.0" stroke="rgb(0,0,0)" stroke-width="2.0"/>
<line x1="255.8" y1="479.2" x2="250.0" y2="506.6" opacity="1.0" stroke="rgb(0,0,0)" stroke-width="2.0"/>
<line x1="168.4" y1="311.2" x2="164.3" y2="271.4" opacity="1.0" stroke="rgb(0,0,0)" stroke-width="2.0"/>
<line x1="164.3" y1="271.4" x2="127.7" y2="255.2" opacity="1.0" stroke="rgb(0,0,0)" stroke-width="2.0"/>
<line x1="155.8" y1="275.6" x2="130.3" y2="264.2" opacity="1.0" stroke="rgb(0,0,0)" stroke-width="2.0"/>
<line x1="127.7" y1="255.2" x2="95.4" y2="278.7" opacity="1.0" stroke="rgb(0,0,0)" stroke-width="2.0"/>
<line x1="95.4" y1="278.7" x2="99.5" y2="318.5" opacity="1.0" stroke="rgb(0,0,0)" stroke-width="2.0"/>
<line x1="103.1" y1="283.9" x2="106.1" y2="311.7" opacity="1.0" stroke="rgb(0,0,0)" stroke-width="2.0"/>
<line x1="99.5" y1="318.5" x2="136.1" y2="334.7" opacity="1.0" stroke="rgb(0,0,0)" stroke-width="2.0"/>
<line x1="136.1" y1="334.7" x2="168.4" y2="311.2" opacity="1.0" stroke="rgb(0,0,0)" stroke-width="2.0"/>
<line x1="136.7" y1="325.4" x2="159.4" y2="308.9" opacity="1.0" stroke="rgb(0,0,0)" stroke-width="2.0"/>
<line x1="115.2" y1="135.8" x2="111.0" y2="96.1" opacity="1.0" stroke="rgb(0,0,0)" stroke-width="2.0"/>
<line x1="111.0" y1="96.1" x2="74.5" y2="79.8" opacity="1.0" stroke="rgb(0,0,0)" stroke-width="2.0"/>
<line x1="102.6" y1="100.2" x2="77.0" y2="88.8" opacity="1.0" stroke="rgb(0,0,0)" stroke-width="2.0"/>
<line x1="74.5" y1="79.8" x2="42.1" y2="103.3" opacity="1.0" stroke="rgb(0,0,0)" stroke-width="2.0"/>
<line x1="42.1" y1="103.3" x2="46.3" y2="143.1" opacity="1.0" stroke="rgb(0,0,0)" stroke-width="2.0"/>
<line x1="49.9" y1="108.5" x2="52.8" y2="136.4" opacity="1.0" stroke="rgb(0,0,0)" stroke-width="2.0"/>
<line x1="46.3" y1="143.1" x2="82.8" y2="159.3" opacity="1.0" stroke="rgb(0,0,0)" stroke-width="2.0"/>
<line x1="82.8" y1="159.3" x2="115.2" y2="135.8" opacity="1.0" stroke="rgb(0,0,0)" stroke-width="2.0"/>
<line x1="83.4" y1="150.0" x2="106.1" y2="133.5" opacity="1.0" stroke="rgb(0,0,0)" stroke-width="2.0"/>
<text x="44.269097" y="48.000000" fill="rgb(102,102,102)" stroke-width="0" font-weight="bold" font-size="16">H</text>
<text x="56.269097" y="51.680000" fill="rgb(102,102,102)" stroke-width="0" font-weight="bold" font-size="13">3</text>
<text x="62.769097" y="48.000000" fill="rgb(102,102,102)" stroke-width="0" font-weight="bold" font-size="16">C</text>
<text x="134.260023" y="382.516472" fill="rgb(12,12,255)" stroke-width="0" font-weight="bold" font-size="16">N</text>
</svg>
</g>
</svg>