<svg xmlns="http://www.w3.org/2000/svg" xmlns:xlink="http://www.w3.org/1999/xlink" xmlns:cml="http://www.xml-cml.org/schema" version="1.1" id="topsvg" x="0" y="0" viewBox="0 0 100 100">
<title>D_8_R - Open Babel Depiction</title>
<rect x="0" y="0" width="100" height="100" fill="white"/>
<g transform="translate(0,0)">
<svg width="100" height="100" x="0" y="0" viewBox="0 0 610.882 412.827" font-family="sans-serif" stroke="rgb(0,0,0)" stroke-width="2" stroke-linecap="round">
<line x1="211.5" y1="213.0" x2="328.4" y2="280.5" opacity="1.0" stroke="rgb(0,0,0)" stroke-width="2.0"/>
<line x1="557.2" y1="314.3" x2="561.6" y2="324.4" opacity="1.0" stroke="rgb(0,0,0)" stroke-width="2.0"/>
<line x1="551.7" y1="316.8" x2="556.2" y2="326.8" opacity="1.0" stroke="rgb(0,0,0)" stroke-width="2.0"/>
<line x1="556.8" y1="293.2" x2="563.2" y2="284.3" opacity="1.0" stroke="rgb(0,0,0)" stroke-width="2.0"/>
<line x1="512.3" y1="299.8" x2="536.2" y2="302.3" opacity="1.0" stroke="rgb(0,0,0)" stroke-width="2.0"/>
<line x1="402.0" y1="288.2" x2="438.8" y2="292.1" opacity="1.0" stroke="rgb(0,0,0)" stroke-width="2.0"/>
<line x1="168.2" y1="225.0" x2="136.1" y2="206.5" opacity="1.0" stroke="rgb(0,0,0)" stroke-width="2.0"/>
<line x1="136.1" y1="206.5" x2="168.2" y2="151.0" opacity="1.0" stroke="rgb(0,0,0)" stroke-width="2.0"/>
<line x1="168.2" y1="151.0" x2="200.2" y2="169.5" opacity="1.0" stroke="rgb(0,0,0)" stroke-width="2.0"/>
<line x1="200.2" y1="169.5" x2="200.2" y2="193.5" opacity="1.0" stroke="rgb(0,0,0)" stroke-width="2.0"/>
<line x1="189.0" y1="213.0" x2="168.2" y2="225.0" opacity="1.0" stroke="rgb(0,0,0)" stroke-width="2.0"/>
<line x1="346.2" y1="364.1" x2="338.1" y2="356.8" opacity="1.0" stroke="rgb(0,0,0)" stroke-width="2.0"/>
<line x1="333.4" y1="336.9" x2="343.4" y2="314.3" opacity="1.0" stroke="rgb(0,0,0)" stroke-width="2.0"/>
<line x1="340.9" y1="337.7" x2="347.6" y2="322.7" opacity="1.0" stroke="rgb(0,0,0)" stroke-width="2.0"/>
<line x1="343.4" y1="314.3" x2="380.2" y2="318.1" opacity="1.0" stroke="rgb(0,0,0)" stroke-width="2.0"/>
<line x1="380.2" y1="318.1" x2="385.4" y2="342.4" opacity="1.0" stroke="rgb(0,0,0)" stroke-width="2.0"/>
<line x1="374.4" y1="325.5" x2="377.9" y2="341.6" opacity="1.0" stroke="rgb(0,0,0)" stroke-width="2.0"/>
<line x1="376.7" y1="360.8" x2="367.1" y2="366.3" opacity="1.0" stroke="rgb(0,0,0)" stroke-width="2.0"/>
<line x1="232.3" y1="114.0" x2="232.3" y2="151.0" opacity="1.0" stroke="rgb(0,0,0)" stroke-width="2.0"/>
<line x1="232.3" y1="151.0" x2="200.2" y2="169.5" opacity="1.0" stroke="rgb(0,0,0)" stroke-width="2.0"/>
<line x1="223.5" y1="147.8" x2="201.8" y2="160.3" opacity="1.0" stroke="rgb(0,0,0)" stroke-width="2.0"/>
<line x1="168.2" y1="151.0" x2="168.2" y2="114.0" opacity="1.0" stroke="rgb(0,0,0)" stroke-width="2.0"/>
<line x1="175.4" y1="145.0" x2="175.4" y2="120.0" opacity="1.0" stroke="rgb(0,0,0)" stroke-width="2.0"/>
<line x1="168.2" y1="114.0" x2="200.2" y2="95.5" opacity="1.0" stroke="rgb(0,0,0)" stroke-width="2.0"/>
<line x1="200.2" y1="95.5" x2="232.3" y2="114.0" opacity="1.0" stroke="rgb(0,0,0)" stroke-width="2.0"/>
<line x1="201.8" y1="104.7" x2="223.5" y2="117.2" opacity="1.0" stroke="rgb(0,0,0)" stroke-width="2.0"/>
<line x1="200.2" y1="58.5" x2="168.2" y2="40.0" opacity="1.0" stroke="rgb(0,0,0)" stroke-width="2.0"/>
<line x1="191.4" y1="61.7" x2="169.8" y2="49.2" opacity="1.0" stroke="rgb(0,0,0)" stroke-width="2.0"/>
<line x1="168.2" y1="40.0" x2="136.1" y2="58.5" opacity="1.0" stroke="rgb(0,0,0)" stroke-width="2.0"/>
<line x1="136.1" y1="58.5" x2="136.1" y2="95.5" opacity="1.0" stroke="rgb(0,0,0)" stroke-width="2.0"/>
<line x1="143.3" y1="64.5" x2="143.3" y2="89.5" opacity="1.0" stroke="rgb(0,0,0)" stroke-width="2.0"/>
<line x1="136.1" y1="95.5" x2="168.2" y2="114.0" opacity="1.0" stroke="rgb(0,0,0)" stroke-width="2.0"/>
<line x1="200.2" y1="95.5" x2="200.2" y2="58.5" opacity="1.0" stroke="rgb(0,0,0)" stroke-width="2.0"/>
<line x1="104.1" y1="262.0" x2="104.1" y2="225.0" opacity="1.0" stroke="rgb(0,0,0)" stroke-width="2.0"/>
<line x1="104.1" y1="225.0" x2="136.1" y2="206.5" opacity="1.0" stroke="rgb(0,0,0)" stroke-width="2.0"/>
<line x1="112.9" y1="228.3" x2="134.5" y2="215.7" opacity="1.0" stroke="rgb(0,0,0)" stroke-width="2.0"/>
<line x1="168.2" y1="225.0" x2="168.2" y2="262.0" opacity="1.0" stroke="rgb(0,0,0)" stroke-width="2.0"/>
<line x1="161.0" y1="231.0" x2="161.0" y2="256.0" opacity="1.0" stroke="rgb(0,0,0)" stroke-width="2.0"/>
<line x1="168.2" y1="262.0" x2="136.1" y2="280.5" opacity="1.0" stroke="rgb(0,0,0)" stroke-width="2.0"/>
<line x1="136.1" y1="280.5" x2="104.1" y2="262.0" opacity="1.0" stroke="rgb(0,0,0)" stroke-width="2.0"/>
<line x1="134.5" y1="271.3" x2="112.9" y2="258.8" opacity="1.0" stroke="rgb(0,0,0)" stroke-width="2.0"/>
<line x1="40.0" y1="262.0" x2="40.0" y2="225.0" opacity="1.0" stroke="rgb(0,0,0)" stroke-width="2.0"/>
<line x1="40.0" y1="225.0" x2="72.0" y2="206.5" opacity="1.0" stroke="rgb(0,0,0)" stroke-width="2.0"/>
<line x1="48.8" y1="228.3" x2="70.4" y2="215.8" opacity="1.0" stroke="rgb(0,0,0)" stroke-width="2.0"/>
<line x1="72.0" y1="206.5" x2="104.1" y2="225.0" opacity="1.0" stroke="rgb(0,0,0)" stroke-width="2.0"/>
<line x1="104.1" y1="262.0" x2="72.0" y2="280.5" opacity="1.0" stroke="rgb(0,0,0)" stroke-width="2.0"/>
<line x1="72.0" y1="280.5" x2="40.0" y2="262.0" opacity="1.0" stroke="rgb(0,0,0)" stroke-width="2.0"/>
<line x1="70.4" y1="271.3" x2="48.8" y2="258.8" opacity="1.0" stroke="rgb(0,0,0)" stroke-width="2.0"/>
<line x1="350.1" y1="250.6" x2="386.9" y2="254.4" opacity="1.0" stroke="rgb(0,0,0)" stroke-width="2.0"/>
<line x1="386.9" y1="254.4" x2="402.0" y2="288.2" opacity="1.0" stroke="rgb(0,0,0)" stroke-width="2.0"/>
<line x1="382.8" y1="262.8" x2="393.0" y2="285.7" opacity="1.0" stroke="rgb(0,0,0)" stroke-width="2.0"/>
<line x1="402.0" y1="288.2" x2="380.2" y2="318.1" opacity="1.0" stroke="rgb(0,0,0)" stroke-width="2.0"/>
<line x1="343.4" y1="314.3" x2="328.4" y2="280.5" opacity="1.0" stroke="rgb(0,0,0)" stroke-width="2.0"/>
<line x1="328.4" y1="280.5" x2="350.1" y2="250.6" opacity="1.0" stroke="rgb(0,0,0)" stroke-width="2.0"/>
<line x1="337.7" y1="279.9" x2="352.4" y2="259.6" opacity="1.0" stroke="rgb(0,0,0)" stroke-width="2.0"/>
<line x1="473.4" y1="263.5" x2="497.3" y2="266.0" opacity="1.0" stroke="rgb(0,0,0)" stroke-width="2.0"/>
<line x1="497.3" y1="266.0" x2="512.3" y2="299.8" opacity="1.0" stroke="rgb(0,0,0)" stroke-width="2.0"/>
<line x1="493.2" y1="274.4" x2="503.3" y2="297.3" opacity="1.0" stroke="rgb(0,0,0)" stroke-width="2.0"/>
<line x1="512.3" y1="299.8" x2="490.6" y2="329.7" opacity="1.0" stroke="rgb(0,0,0)" stroke-width="2.0"/>
<line x1="490.6" y1="329.7" x2="453.8" y2="325.9" opacity="1.0" stroke="rgb(0,0,0)" stroke-width="2.0"/>
<line x1="485.4" y1="321.9" x2="460.5" y2="319.3" opacity="1.0" stroke="rgb(0,0,0)" stroke-width="2.0"/>
<line x1="453.8" y1="325.9" x2="438.8" y2="292.1" opacity="1.0" stroke="rgb(0,0,0)" stroke-width="2.0"/>
<line x1="438.8" y1="292.1" x2="453.3" y2="272.0" opacity="1.0" stroke="rgb(0,0,0)" stroke-width="2.0"/>
<line x1="448.1" y1="291.5" x2="457.8" y2="278.1" opacity="1.0" stroke="rgb(0,0,0)" stroke-width="2.0"/>
<text x="322.391729" y="356.074230" fill="rgb(12,12,255)" stroke-width="0" font-weight="bold" font-size="16">N</text>
<text x="381.922392" y="362.327512" fill="rgb(12,12,255)" stroke-width="0" font-weight="bold" font-size="16">N</text>
<text x="349.885423" y="380.826651" fill="rgb(178,178,0)" stroke-width="0" font-weight="bold" font-size="16">S</text>
<text x="454.506508" y="270.145910" fill="rgb(12,12,255)" stroke-width="0" font-weight="bold" font-size="16">N</text>
<text x="543.139478" y="311.670546" fill="rgb(12,12,255)" stroke-width="0" font-weight="bold" font-size="16">N</text>
<text x="558.188501" y="345.465700" fill="rgb(255,12,12)" stroke-width="0" font-weight="bold" font-size="16">O</text>
<text x="575.682428" y="269.708133" fill="rgb(255,12,12)" stroke-width="0" font-weight="bold" font-size="16"/>
<text x="575.682428" y="269.708133" fill="rgb(255,12,12)" stroke-width="0" font-weight="bold" font-size="32">.</text>
<text x="564.882428" y="281.740133" fill="rgb(255,12,12)" stroke-width="0" font-weight="bold" font-size="16">O</text>
<text x="194.230804" y="214.501061" fill="rgb(12,12,255)" stroke-width="0" font-weight="bold" font-size="16">N</text>
</svg>
</g>
</svg>