<svg xmlns="http://www.w3.org/2000/svg" x="0" y="0" viewBox="0 0 100 100">
<title>D_8_Q - Open Babel Depiction</title>
<rect x="0" y="0" width="100" height="100" fill="white"/>
<g transform="translate(0,0)">
<svg width="100" height="100" x="0" y="0" viewBox="0 0 549.884 411.091" font-family="sans-serif" stroke="rgb(0,0,0)" stroke-width="2" stroke-linecap="round">
<line x1="210.7" y1="212.1" x2="326.9" y2="279.2" opacity="1.0" stroke="rgb(0,0,0)" stroke-width="2.0"/>
<line x1="400.1" y1="286.9" x2="436.7" y2="290.8" opacity="1.0" stroke="rgb(0,0,0)" stroke-width="2.0"/>
<line x1="167.5" y1="224.1" x2="135.6" y2="205.6" opacity="1.0" stroke="rgb(0,0,0)" stroke-width="2.0"/>
<line x1="135.6" y1="205.6" x2="167.5" y2="150.4" opacity="1.0" stroke="rgb(0,0,0)" stroke-width="2.0"/>
<line x1="167.5" y1="150.4" x2="199.4" y2="168.8" opacity="1.0" stroke="rgb(0,0,0)" stroke-width="2.0"/>
<line x1="199.4" y1="168.8" x2="199.4" y2="192.6" opacity="1.0" stroke="rgb(0,0,0)" stroke-width="2.0"/>
<line x1="188.1" y1="212.1" x2="167.5" y2="224.1" opacity="1.0" stroke="rgb(0,0,0)" stroke-width="2.0"/>
<line x1="344.6" y1="362.4" x2="336.5" y2="355.2" opacity="1.0" stroke="rgb(0,0,0)" stroke-width="2.0"/>
<line x1="331.8" y1="335.4" x2="341.9" y2="312.8" opacity="1.0" stroke="rgb(0,0,0)" stroke-width="2.0"/>
<line x1="339.3" y1="336.2" x2="346.0" y2="321.3" opacity="1.0" stroke="rgb(0,0,0)" stroke-width="2.0"/>
<line x1="341.9" y1="312.8" x2="378.5" y2="316.7" opacity="1.0" stroke="rgb(0,0,0)" stroke-width="2.0"/>
<line x1="378.5" y1="316.7" x2="383.6" y2="340.8" opacity="1.0" stroke="rgb(0,0,0)" stroke-width="2.0"/>
<line x1="372.7" y1="324.1" x2="376.1" y2="340.0" opacity="1.0" stroke="rgb(0,0,0)" stroke-width="2.0"/>
<line x1="374.9" y1="359.2" x2="365.5" y2="364.6" opacity="1.0" stroke="rgb(0,0,0)" stroke-width="2.0"/>
<line x1="231.3" y1="113.6" x2="231.3" y2="150.4" opacity="1.0" stroke="rgb(0,0,0)" stroke-width="2.0"/>
<line x1="231.3" y1="150.4" x2="199.4" y2="168.8" opacity="1.0" stroke="rgb(0,0,0)" stroke-width="2.0"/>
<line x1="222.5" y1="147.2" x2="201.0" y2="159.6" opacity="1.0" stroke="rgb(0,0,0)" stroke-width="2.0"/>
<line x1="167.5" y1="150.4" x2="167.5" y2="113.6" opacity="1.0" stroke="rgb(0,0,0)" stroke-width="2.0"/>
<line x1="174.7" y1="144.4" x2="174.7" y2="119.6" opacity="1.0" stroke="rgb(0,0,0)" stroke-width="2.0"/>
<line x1="167.5" y1="113.6" x2="199.4" y2="95.2" opacity="1.0" stroke="rgb(0,0,0)" stroke-width="2.0"/>
<line x1="199.4" y1="95.2" x2="231.3" y2="113.6" opacity="1.0" stroke="rgb(0,0,0)" stroke-width="2.0"/>
<line x1="201.0" y1="104.4" x2="222.5" y2="116.8" opacity="1.0" stroke="rgb(0,0,0)" stroke-width="2.0"/>
<line x1="199.4" y1="58.4" x2="167.5" y2="40.0" opacity="1.0" stroke="rgb(0,0,0)" stroke-width="2.0"/>
<line x1="190.6" y1="61.6" x2="169.1" y2="49.2" opacity="1.0" stroke="rgb(0,0,0)" stroke-width="2.0"/>
<line x1="167.5" y1="40.0" x2="135.6" y2="58.4" opacity="1.0" stroke="rgb(0,0,0)" stroke-width="2.0"/>
<line x1="135.6" y1="58.4" x2="135.6" y2="95.2" opacity="1.0" stroke="rgb(0,0,0)" stroke-width="2.0"/>
<line x1="142.8" y1="64.4" x2="142.8" y2="89.2" opacity="1.0" stroke="rgb(0,0,0)" stroke-width="2.0"/>
<line x1="135.6" y1="95.2" x2="167.5" y2="113.6" opacity="1.0" stroke="rgb(0,0,0)" stroke-width="2.0"/>
<line x1="199.4" y1="95.2" x2="199.4" y2="58.4" opacity="1.0" stroke="rgb(0,0,0)" stroke-width="2.0"/>
<line x1="103.7" y1="260.9" x2="103.7" y2="224.1" opacity="1.0" stroke="rgb(0,0,0)" stroke-width="2.0"/>
<line x1="103.7" y1="224.1" x2="135.6" y2="205.6" opacity="1.0" stroke="rgb(0,0,0)" stroke-width="2.0"/>
<line x1="112.5" y1="227.3" x2="134.0" y2="214.9" opacity="1.0" stroke="rgb(0,0,0)" stroke-width="2.0"/>
<line x1="167.5" y1="224.1" x2="167.5" y2="260.9" opacity="1.0" stroke="rgb(0,0,0)" stroke-width="2.0"/>
<line x1="160.3" y1="230.0" x2="160.3" y2="254.9" opacity="1.0" stroke="rgb(0,0,0)" stroke-width="2.0"/>
<line x1="167.5" y1="260.9" x2="135.6" y2="279.3" opacity="1.0" stroke="rgb(0,0,0)" stroke-width="2.0"/>
<line x1="135.6" y1="279.3" x2="103.7" y2="260.9" opacity="1.0" stroke="rgb(0,0,0)" stroke-width="2.0"/>
<line x1="134.0" y1="270.0" x2="112.5" y2="257.6" opacity="1.0" stroke="rgb(0,0,0)" stroke-width="2.0"/>
<line x1="40.0" y1="260.9" x2="40.0" y2="224.1" opacity="1.0" stroke="rgb(0,0,0)" stroke-width="2.0"/>
<line x1="40.0" y1="224.1" x2="71.9" y2="205.7" opacity="1.0" stroke="rgb(0,0,0)" stroke-width="2.0"/>
<line x1="48.8" y1="227.3" x2="70.3" y2="214.9" opacity="1.0" stroke="rgb(0,0,0)" stroke-width="2.0"/>
<line x1="71.9" y1="205.7" x2="103.7" y2="224.1" opacity="1.0" stroke="rgb(0,0,0)" stroke-width="2.0"/>
<line x1="103.7" y1="260.9" x2="71.9" y2="279.3" opacity="1.0" stroke="rgb(0,0,0)" stroke-width="2.0"/>
<line x1="71.9" y1="279.3" x2="40.0" y2="260.9" opacity="1.0" stroke="rgb(0,0,0)" stroke-width="2.0"/>
<line x1="70.3" y1="270.0" x2="48.8" y2="257.6" opacity="1.0" stroke="rgb(0,0,0)" stroke-width="2.0"/>
<line x1="348.5" y1="249.5" x2="385.1" y2="253.3" opacity="1.0" stroke="rgb(0,0,0)" stroke-width="2.0"/>
<line x1="385.1" y1="253.3" x2="400.1" y2="286.9" opacity="1.0" stroke="rgb(0,0,0)" stroke-width="2.0"/>
<line x1="381.0" y1="261.7" x2="391.1" y2="284.4" opacity="1.0" stroke="rgb(0,0,0)" stroke-width="2.0"/>
<line x1="400.1" y1="286.9" x2="378.5" y2="316.7" opacity="1.0" stroke="rgb(0,0,0)" stroke-width="2.0"/>
<line x1="341.9" y1="312.8" x2="326.9" y2="279.2" opacity="1.0" stroke="rgb(0,0,0)" stroke-width="2.0"/>
<line x1="326.9" y1="279.2" x2="348.5" y2="249.5" opacity="1.0" stroke="rgb(0,0,0)" stroke-width="2.0"/>
<line x1="336.2" y1="278.6" x2="350.8" y2="258.5" opacity="1.0" stroke="rgb(0,0,0)" stroke-width="2.0"/>
<line x1="471.2" y1="262.3" x2="494.9" y2="264.8" opacity="1.0" stroke="rgb(0,0,0)" stroke-width="2.0"/>
<line x1="494.9" y1="264.8" x2="509.9" y2="298.5" opacity="1.0" stroke="rgb(0,0,0)" stroke-width="2.0"/>
<line x1="490.8" y1="273.2" x2="500.9" y2="295.9" opacity="1.0" stroke="rgb(0,0,0)" stroke-width="2.0"/>
<line x1="509.9" y1="298.5" x2="495.9" y2="317.7" opacity="1.0" stroke="rgb(0,0,0)" stroke-width="2.0"/>
<line x1="476.2" y1="327.0" x2="451.7" y2="324.4" opacity="1.0" stroke="rgb(0,0,0)" stroke-width="2.0"/>
<line x1="474.6" y1="319.6" x2="458.4" y2="317.8" opacity="1.0" stroke="rgb(0,0,0)" stroke-width="2.0"/>
<line x1="451.7" y1="324.4" x2="436.7" y2="290.8" opacity="1.0" stroke="rgb(0,0,0)" stroke-width="2.0"/>
<line x1="436.7" y1="290.8" x2="451.2" y2="270.8" opacity="1.0" stroke="rgb(0,0,0)" stroke-width="2.0"/>
<line x1="446.0" y1="290.1" x2="455.6" y2="276.9" opacity="1.0" stroke="rgb(0,0,0)" stroke-width="2.0"/>
<text x="380.107981" y="360.688298" fill="rgb(12,12,255)" stroke-width="0" font-weight="bold" font-size="16">N</text>
<text x="348.238084" y="379.090963" fill="rgb(178,178,0)" stroke-width="0" font-weight="bold" font-size="16">S</text>
<text x="320.887769" y="354.467626" fill="rgb(12,12,255)" stroke-width="0" font-weight="bold" font-size="16">N</text>
<text x="452.313571" y="268.987422" fill="rgb(12,12,255)" stroke-width="0" font-weight="bold" font-size="16">N</text>
<text x="482.254656" y="336.225247" fill="rgb(12,12,255)" stroke-width="0" font-weight="bold" font-size="16">N</text>
<text x="193.395202" y="213.632759" fill="rgb(12,12,255)" stroke-width="0" font-weight="bold" font-size="16">N</text>
</svg>
</g>
</svg>
