<svg xmlns="http://www.w3.org/2000/svg" xmlns:xlink="http://www.w3.org/1999/xlink" xmlns:cml="http://www.xml-cml.org/schema" version="1.1" id="topsvg" x="0" y="0" viewBox="0 0 100 100">
<title>D_8_T - Open Babel Depiction</title>
<rect x="0" y="0" width="100" height="100" fill="white"/>
<g transform="translate(0,0)">
<svg width="100" height="100" x="0" y="0" viewBox="0 0 307.848 523.036" font-family="sans-serif" stroke="rgb(0,0,0)" stroke-width="2" stroke-linecap="round">
<line x1="142.7" y1="305.5" x2="139.8" y2="278.7" opacity="1.0" stroke="rgb(0,0,0)" stroke-width="2.0"/>
<line x1="118.9" y1="79.8" x2="116.1" y2="52.9" opacity="1.0" stroke="rgb(0,0,0)" stroke-width="2.0"/>
<line x1="131.5" y1="199.1" x2="127.3" y2="159.3" opacity="1.0" stroke="rgb(0,0,0)" stroke-width="2.0"/>
<line x1="178.7" y1="338.5" x2="170.4" y2="377.6" opacity="1.0" stroke="rgb(0,0,0)" stroke-width="2.0"/>
<line x1="170.4" y1="377.6" x2="130.6" y2="381.8" opacity="1.0" stroke="rgb(0,0,0)" stroke-width="2.0"/>
<line x1="130.6" y1="381.8" x2="114.3" y2="345.2" opacity="1.0" stroke="rgb(0,0,0)" stroke-width="2.0"/>
<line x1="114.3" y1="345.2" x2="134.4" y2="327.2" opacity="1.0" stroke="rgb(0,0,0)" stroke-width="2.0"/>
<line x1="155.3" y1="325.0" x2="178.7" y2="338.5" opacity="1.0" stroke="rgb(0,0,0)" stroke-width="2.0"/>
<line x1="48.7" y1="258.6" x2="58.1" y2="269.0" opacity="1.0" stroke="rgb(0,0,0)" stroke-width="2.0"/>
<line x1="78.8" y1="273.3" x2="103.3" y2="262.4" opacity="1.0" stroke="rgb(0,0,0)" stroke-width="2.0"/>
<line x1="77.7" y1="265.9" x2="94.9" y2="258.3" opacity="1.0" stroke="rgb(0,0,0)" stroke-width="2.0"/>
<line x1="103.3" y1="262.4" x2="99.1" y2="222.6" opacity="1.0" stroke="rgb(0,0,0)" stroke-width="2.0"/>
<line x1="99.1" y1="222.6" x2="72.9" y2="217.1" opacity="1.0" stroke="rgb(0,0,0)" stroke-width="2.0"/>
<line x1="91.8" y1="228.4" x2="73.4" y2="224.5" opacity="1.0" stroke="rgb(0,0,0)" stroke-width="2.0"/>
<line x1="53.5" y1="225.6" x2="46.5" y2="237.7" opacity="1.0" stroke="rgb(0,0,0)" stroke-width="2.0"/>
<line x1="51.0" y1="373.4" x2="74.5" y2="341.1" opacity="1.0" stroke="rgb(0,0,0)" stroke-width="2.0"/>
<line x1="74.5" y1="341.1" x2="114.3" y2="345.2" opacity="1.0" stroke="rgb(0,0,0)" stroke-width="2.0"/>
<line x1="79.7" y1="348.8" x2="107.6" y2="351.8" opacity="1.0" stroke="rgb(0,0,0)" stroke-width="2.0"/>
<line x1="130.6" y1="381.8" x2="107.1" y2="414.1" opacity="1.0" stroke="rgb(0,0,0)" stroke-width="2.0"/>
<line x1="121.2" y1="382.4" x2="104.8" y2="405.0" opacity="1.0" stroke="rgb(0,0,0)" stroke-width="2.0"/>
<line x1="107.1" y1="414.1" x2="67.3" y2="410.0" opacity="1.0" stroke="rgb(0,0,0)" stroke-width="2.0"/>
<line x1="67.3" y1="410.0" x2="51.0" y2="373.4" opacity="1.0" stroke="rgb(0,0,0)" stroke-width="2.0"/>
<line x1="71.4" y1="401.5" x2="60.0" y2="376.0" opacity="1.0" stroke="rgb(0,0,0)" stroke-width="2.0"/>
<line x1="43.8" y1="442.3" x2="60.0" y2="478.9" opacity="1.0" stroke="rgb(0,0,0)" stroke-width="2.0"/>
<line x1="52.8" y1="444.9" x2="64.2" y2="470.4" opacity="1.0" stroke="rgb(0,0,0)" stroke-width="2.0"/>
<line x1="60.0" y1="478.9" x2="99.8" y2="483.0" opacity="1.0" stroke="rgb(0,0,0)" stroke-width="2.0"/>
<line x1="99.8" y1="483.0" x2="123.3" y2="450.7" opacity="1.0" stroke="rgb(0,0,0)" stroke-width="2.0"/>
<line x1="97.5" y1="474.0" x2="114.0" y2="451.3" opacity="1.0" stroke="rgb(0,0,0)" stroke-width="2.0"/>
<line x1="123.3" y1="450.7" x2="107.1" y2="414.1" opacity="1.0" stroke="rgb(0,0,0)" stroke-width="2.0"/>
<line x1="67.3" y1="410.0" x2="43.8" y2="442.3" opacity="1.0" stroke="rgb(0,0,0)" stroke-width="2.0"/>
<line x1="238.1" y1="392.0" x2="200.1" y2="404.4" opacity="1.0" stroke="rgb(0,0,0)" stroke-width="2.0"/>
<line x1="200.1" y1="404.4" x2="170.4" y2="377.6" opacity="1.0" stroke="rgb(0,0,0)" stroke-width="2.0"/>
<line x1="200.4" y1="395.0" x2="179.6" y2="376.3" opacity="1.0" stroke="rgb(0,0,0)" stroke-width="2.0"/>
<line x1="178.7" y1="338.5" x2="216.7" y2="326.1" opacity="1.0" stroke="rgb(0,0,0)" stroke-width="2.0"/>
<line x1="186.6" y1="343.5" x2="213.2" y2="334.8" opacity="1.0" stroke="rgb(0,0,0)" stroke-width="2.0"/>
<line x1="216.7" y1="326.1" x2="246.4" y2="352.9" opacity="1.0" stroke="rgb(0,0,0)" stroke-width="2.0"/>
<line x1="246.4" y1="352.9" x2="238.1" y2="392.0" opacity="1.0" stroke="rgb(0,0,0)" stroke-width="2.0"/>
<line x1="238.1" y1="357.2" x2="232.3" y2="384.6" opacity="1.0" stroke="rgb(0,0,0)" stroke-width="2.0"/>
<line x1="259.5" y1="457.9" x2="221.5" y2="470.2" opacity="1.0" stroke="rgb(0,0,0)" stroke-width="2.0"/>
<line x1="221.5" y1="470.2" x2="191.8" y2="443.5" opacity="1.0" stroke="rgb(0,0,0)" stroke-width="2.0"/>
<line x1="221.8" y1="460.9" x2="201.0" y2="442.1" opacity="1.0" stroke="rgb(0,0,0)" stroke-width="2.0"/>
<line x1="191.8" y1="443.5" x2="200.1" y2="404.4" opacity="1.0" stroke="rgb(0,0,0)" stroke-width="2.0"/>
<line x1="238.1" y1="392.0" x2="267.8" y2="418.8" opacity="1.0" stroke="rgb(0,0,0)" stroke-width="2.0"/>
<line x1="267.8" y1="418.8" x2="259.5" y2="457.9" opacity="1.0" stroke="rgb(0,0,0)" stroke-width="2.0"/>
<line x1="259.6" y1="423.1" x2="253.7" y2="450.5" opacity="1.0" stroke="rgb(0,0,0)" stroke-width="2.0"/>
<line x1="172.2" y1="255.2" x2="168.0" y2="215.4" opacity="1.0" stroke="rgb(0,0,0)" stroke-width="2.0"/>
<line x1="168.0" y1="215.4" x2="131.5" y2="199.1" opacity="1.0" stroke="rgb(0,0,0)" stroke-width="2.0"/>
<line x1="159.6" y1="219.5" x2="134.0" y2="208.1" opacity="1.0" stroke="rgb(0,0,0)" stroke-width="2.0"/>
<line x1="131.5" y1="199.1" x2="99.1" y2="222.6" opacity="1.0" stroke="rgb(0,0,0)" stroke-width="2.0"/>
<line x1="103.3" y1="262.4" x2="139.8" y2="278.7" opacity="1.0" stroke="rgb(0,0,0)" stroke-width="2.0"/>
<line x1="139.8" y1="278.7" x2="172.2" y2="255.2" opacity="1.0" stroke="rgb(0,0,0)" stroke-width="2.0"/>
<line x1="140.5" y1="269.3" x2="163.1" y2="252.9" opacity="1.0" stroke="rgb(0,0,0)" stroke-width="2.0"/>
<line x1="159.7" y1="135.8" x2="155.5" y2="96.1" opacity="1.0" stroke="rgb(0,0,0)" stroke-width="2.0"/>
<line x1="155.5" y1="96.1" x2="118.9" y2="79.8" opacity="1.0" stroke="rgb(0,0,0)" stroke-width="2.0"/>
<line x1="147.1" y1="100.2" x2="121.5" y2="88.8" opacity="1.0" stroke="rgb(0,0,0)" stroke-width="2.0"/>
<line x1="118.9" y1="79.8" x2="86.6" y2="103.3" opacity="1.0" stroke="rgb(0,0,0)" stroke-width="2.0"/>
<line x1="86.6" y1="103.3" x2="90.8" y2="143.1" opacity="1.0" stroke="rgb(0,0,0)" stroke-width="2.0"/>
<line x1="94.4" y1="108.5" x2="97.3" y2="136.4" opacity="1.0" stroke="rgb(0,0,0)" stroke-width="2.0"/>
<line x1="90.8" y1="143.1" x2="127.3" y2="159.3" opacity="1.0" stroke="rgb(0,0,0)" stroke-width="2.0"/>
<line x1="127.3" y1="159.3" x2="159.7" y2="135.8" opacity="1.0" stroke="rgb(0,0,0)" stroke-width="2.0"/>
<line x1="127.9" y1="150.0" x2="150.6" y2="133.5" opacity="1.0" stroke="rgb(0,0,0)" stroke-width="2.0"/>
<text x="34.000000" y="256.959462" fill="rgb(178,178,0)" stroke-width="0" font-weight="bold" font-size="16">S</text>
<text x="54.000000" y="222.318446" fill="rgb(12,12,255)" stroke-width="0" font-weight="bold" font-size="16">N</text>
<text x="60.765224" y="286.685255" fill="rgb(12,12,255)" stroke-width="0" font-weight="bold" font-size="16">N</text>
<text x="88.762030" y="48.000000" fill="rgb(102,102,102)" stroke-width="0" font-weight="bold" font-size="16">H</text>
<text x="100.762030" y="51.680000" fill="rgb(102,102,102)" stroke-width="0" font-weight="bold" font-size="13">3</text>
<text x="107.262030" y="48.000000" fill="rgb(102,102,102)" stroke-width="0" font-weight="bold" font-size="16">C</text>
<text x="138.029999" y="326.466131" fill="rgb(12,12,255)" stroke-width="0" font-weight="bold" font-size="16">N</text>
</svg>
</g>
</svg>