<svg xmlns="http://www.w3.org/2000/svg" x="0" y="0" viewBox="0 0 100 100">
<title>D_9_N - Open Babel Depiction</title>
<rect x="0" y="0" width="100" height="100" fill="white"/>
<g transform="translate(0,0)">
<svg width="100" height="100" x="0" y="0" viewBox="0 0 349.631 399.978" font-family="sans-serif" stroke="rgb(0,0,0)" stroke-width="2" stroke-linecap="round">
<line x1="184.5" y1="182.5" x2="181.6" y2="155.6" opacity="1.0" stroke="rgb(0,0,0)" stroke-width="2.0"/>
<line x1="140.9" y1="99.6" x2="104.4" y2="83.3" opacity="1.0" stroke="rgb(0,0,0)" stroke-width="2.0"/>
<line x1="220.5" y1="215.4" x2="212.1" y2="254.5" opacity="1.0" stroke="rgb(0,0,0)" stroke-width="2.0"/>
<line x1="212.1" y1="254.5" x2="172.4" y2="258.7" opacity="1.0" stroke="rgb(0,0,0)" stroke-width="2.0"/>
<line x1="172.4" y1="258.7" x2="156.1" y2="222.2" opacity="1.0" stroke="rgb(0,0,0)" stroke-width="2.0"/>
<line x1="156.1" y1="222.2" x2="176.2" y2="204.1" opacity="1.0" stroke="rgb(0,0,0)" stroke-width="2.0"/>
<line x1="197.1" y1="201.9" x2="220.5" y2="215.4" opacity="1.0" stroke="rgb(0,0,0)" stroke-width="2.0"/>
<line x1="96.1" y1="44.2" x2="69.2" y2="41.4" opacity="1.0" stroke="rgb(0,0,0)" stroke-width="2.0"/>
<line x1="51.0" y1="51.9" x2="40.0" y2="76.5" opacity="1.0" stroke="rgb(0,0,0)" stroke-width="2.0"/>
<line x1="40.0" y1="76.5" x2="69.7" y2="103.3" opacity="1.0" stroke="rgb(0,0,0)" stroke-width="2.0"/>
<line x1="49.3" y1="75.2" x2="70.1" y2="93.9" opacity="1.0" stroke="rgb(0,0,0)" stroke-width="2.0"/>
<line x1="69.7" y1="103.3" x2="104.4" y2="83.3" opacity="1.0" stroke="rgb(0,0,0)" stroke-width="2.0"/>
<line x1="104.4" y1="83.3" x2="96.1" y2="44.2" opacity="1.0" stroke="rgb(0,0,0)" stroke-width="2.0"/>
<line x1="96.1" y1="78.9" x2="90.3" y2="51.5" opacity="1.0" stroke="rgb(0,0,0)" stroke-width="2.0"/>
<line x1="92.8" y1="250.4" x2="116.3" y2="218.0" opacity="1.0" stroke="rgb(0,0,0)" stroke-width="2.0"/>
<line x1="116.3" y1="218.0" x2="156.1" y2="222.2" opacity="1.0" stroke="rgb(0,0,0)" stroke-width="2.0"/>
<line x1="121.5" y1="225.8" x2="149.4" y2="228.7" opacity="1.0" stroke="rgb(0,0,0)" stroke-width="2.0"/>
<line x1="172.4" y1="258.7" x2="148.8" y2="291.1" opacity="1.0" stroke="rgb(0,0,0)" stroke-width="2.0"/>
<line x1="163.0" y1="259.3" x2="146.5" y2="282.0" opacity="1.0" stroke="rgb(0,0,0)" stroke-width="2.0"/>
<line x1="148.8" y1="291.1" x2="109.1" y2="286.9" opacity="1.0" stroke="rgb(0,0,0)" stroke-width="2.0"/>
<line x1="109.1" y1="286.9" x2="92.8" y2="250.4" opacity="1.0" stroke="rgb(0,0,0)" stroke-width="2.0"/>
<line x1="113.2" y1="278.5" x2="101.8" y2="252.9" opacity="1.0" stroke="rgb(0,0,0)" stroke-width="2.0"/>
<line x1="85.6" y1="319.3" x2="101.8" y2="355.8" opacity="1.0" stroke="rgb(0,0,0)" stroke-width="2.0"/>
<line x1="94.6" y1="321.8" x2="106.0" y2="347.4" opacity="1.0" stroke="rgb(0,0,0)" stroke-width="2.0"/>
<line x1="101.8" y1="355.8" x2="141.6" y2="360.0" opacity="1.0" stroke="rgb(0,0,0)" stroke-width="2.0"/>
<line x1="141.6" y1="360.0" x2="165.1" y2="327.6" opacity="1.0" stroke="rgb(0,0,0)" stroke-width="2.0"/>
<line x1="139.3" y1="350.9" x2="155.8" y2="328.2" opacity="1.0" stroke="rgb(0,0,0)" stroke-width="2.0"/>
<line x1="165.1" y1="327.6" x2="148.8" y2="291.1" opacity="1.0" stroke="rgb(0,0,0)" stroke-width="2.0"/>
<line x1="109.1" y1="286.9" x2="85.6" y2="319.3" opacity="1.0" stroke="rgb(0,0,0)" stroke-width="2.0"/>
<line x1="279.9" y1="268.9" x2="241.9" y2="281.3" opacity="1.0" stroke="rgb(0,0,0)" stroke-width="2.0"/>
<line x1="241.9" y1="281.3" x2="212.1" y2="254.5" opacity="1.0" stroke="rgb(0,0,0)" stroke-width="2.0"/>
<line x1="242.2" y1="271.9" x2="221.4" y2="253.2" opacity="1.0" stroke="rgb(0,0,0)" stroke-width="2.0"/>
<line x1="220.5" y1="215.4" x2="258.5" y2="203.0" opacity="1.0" stroke="rgb(0,0,0)" stroke-width="2.0"/>
<line x1="228.4" y1="220.4" x2="255.0" y2="211.7" opacity="1.0" stroke="rgb(0,0,0)" stroke-width="2.0"/>
<line x1="258.5" y1="203.0" x2="288.2" y2="229.8" opacity="1.0" stroke="rgb(0,0,0)" stroke-width="2.0"/>
<line x1="288.2" y1="229.8" x2="279.9" y2="268.9" opacity="1.0" stroke="rgb(0,0,0)" stroke-width="2.0"/>
<line x1="279.9" y1="234.2" x2="274.1" y2="261.6" opacity="1.0" stroke="rgb(0,0,0)" stroke-width="2.0"/>
<line x1="301.3" y1="334.8" x2="263.3" y2="347.2" opacity="1.0" stroke="rgb(0,0,0)" stroke-width="2.0"/>
<line x1="263.3" y1="347.2" x2="233.5" y2="320.4" opacity="1.0" stroke="rgb(0,0,0)" stroke-width="2.0"/>
<line x1="263.6" y1="337.8" x2="242.8" y2="319.1" opacity="1.0" stroke="rgb(0,0,0)" stroke-width="2.0"/>
<line x1="233.5" y1="320.4" x2="241.9" y2="281.3" opacity="1.0" stroke="rgb(0,0,0)" stroke-width="2.0"/>
<line x1="279.9" y1="268.9" x2="309.6" y2="295.7" opacity="1.0" stroke="rgb(0,0,0)" stroke-width="2.0"/>
<line x1="309.6" y1="295.7" x2="301.3" y2="334.8" opacity="1.0" stroke="rgb(0,0,0)" stroke-width="2.0"/>
<line x1="301.3" y1="300.1" x2="295.5" y2="327.5" opacity="1.0" stroke="rgb(0,0,0)" stroke-width="2.0"/>
<line x1="214.0" y1="132.1" x2="209.8" y2="92.3" opacity="1.0" stroke="rgb(0,0,0)" stroke-width="2.0"/>
<line x1="209.8" y1="92.3" x2="173.3" y2="76.1" opacity="1.0" stroke="rgb(0,0,0)" stroke-width="2.0"/>
<line x1="201.4" y1="96.5" x2="175.8" y2="85.1" opacity="1.0" stroke="rgb(0,0,0)" stroke-width="2.0"/>
<line x1="173.3" y1="76.1" x2="140.9" y2="99.6" opacity="1.0" stroke="rgb(0,0,0)" stroke-width="2.0"/>
<line x1="140.9" y1="99.6" x2="145.1" y2="139.4" opacity="1.0" stroke="rgb(0,0,0)" stroke-width="2.0"/>
<line x1="148.7" y1="104.8" x2="151.6" y2="132.6" opacity="1.0" stroke="rgb(0,0,0)" stroke-width="2.0"/>
<line x1="145.1" y1="139.4" x2="181.6" y2="155.6" opacity="1.0" stroke="rgb(0,0,0)" stroke-width="2.0"/>
<line x1="181.6" y1="155.6" x2="214.0" y2="132.1" opacity="1.0" stroke="rgb(0,0,0)" stroke-width="2.0"/>
<line x1="182.3" y1="146.3" x2="204.9" y2="129.8" opacity="1.0" stroke="rgb(0,0,0)" stroke-width="2.0"/>
<text x="50.269466" y="48.000000" fill="rgb(178,178,0)" stroke-width="0" font-weight="bold" font-size="16">S</text>
<text x="179.812723" y="203.407726" fill="rgb(12,12,255)" stroke-width="0" font-weight="bold" font-size="16">N</text>
</svg>
</g>
</svg>
