<svg xmlns="http://www.w3.org/2000/svg" x="0" y="0" viewBox="0 0 100 100">
<title>E_10_Q - Open Babel Depiction</title>
<rect x="0" y="0" width="100" height="100" fill="white"/>
<g transform="translate(0,0)">
<svg width="100" height="100" x="0" y="0" viewBox="0 0 437.957 361.818" font-family="sans-serif" stroke="rgb(0,0,0)" stroke-width="2" stroke-linecap="round">
<line x1="300.3" y1="227.9" x2="246.5" y2="196.8" opacity="1.0" stroke="rgb(0,0,0)" stroke-width="2.0"/>
<line x1="235.2" y1="177.3" x2="235.2" y2="115.2" opacity="1.0" stroke="rgb(0,0,0)" stroke-width="2.0"/>
<line x1="398.0" y1="297.2" x2="398.0" y2="308.8" opacity="1.0" stroke="rgb(0,0,0)" stroke-width="2.0"/>
<line x1="365.4" y1="265.5" x2="386.7" y2="277.7" opacity="1.0" stroke="rgb(0,0,0)" stroke-width="2.0"/>
<line x1="170.2" y1="265.5" x2="170.2" y2="290.0" opacity="1.0" stroke="rgb(0,0,0)" stroke-width="2.0"/>
<line x1="224.0" y1="196.8" x2="202.7" y2="209.1" opacity="1.0" stroke="rgb(0,0,0)" stroke-width="2.0"/>
<line x1="137.6" y1="209.1" x2="105.1" y2="190.3" opacity="1.0" stroke="rgb(0,0,0)" stroke-width="2.0"/>
<line x1="332.9" y1="284.2" x2="300.3" y2="265.5" opacity="1.0" stroke="rgb(0,0,0)" stroke-width="2.0"/>
<line x1="300.3" y1="265.5" x2="300.3" y2="227.9" opacity="1.0" stroke="rgb(0,0,0)" stroke-width="2.0"/>
<line x1="307.5" y1="259.5" x2="307.5" y2="233.9" opacity="1.0" stroke="rgb(0,0,0)" stroke-width="2.0"/>
<line x1="300.3" y1="227.9" x2="332.9" y2="209.1" opacity="1.0" stroke="rgb(0,0,0)" stroke-width="2.0"/>
<line x1="332.9" y1="209.1" x2="365.4" y2="227.9" opacity="1.0" stroke="rgb(0,0,0)" stroke-width="2.0"/>
<line x1="334.5" y1="218.3" x2="356.6" y2="231.1" opacity="1.0" stroke="rgb(0,0,0)" stroke-width="2.0"/>
<line x1="365.4" y1="227.9" x2="365.4" y2="265.5" opacity="1.0" stroke="rgb(0,0,0)" stroke-width="2.0"/>
<line x1="365.4" y1="265.5" x2="332.9" y2="284.2" opacity="1.0" stroke="rgb(0,0,0)" stroke-width="2.0"/>
<line x1="356.6" y1="262.2" x2="334.5" y2="275.0" opacity="1.0" stroke="rgb(0,0,0)" stroke-width="2.0"/>
<line x1="202.7" y1="96.4" x2="202.7" y2="58.8" opacity="1.0" stroke="rgb(0,0,0)" stroke-width="2.0"/>
<line x1="202.7" y1="58.8" x2="235.2" y2="40.0" opacity="1.0" stroke="rgb(0,0,0)" stroke-width="2.0"/>
<line x1="211.5" y1="62.0" x2="233.7" y2="49.2" opacity="1.0" stroke="rgb(0,0,0)" stroke-width="2.0"/>
<line x1="235.2" y1="40.0" x2="267.8" y2="58.8" opacity="1.0" stroke="rgb(0,0,0)" stroke-width="2.0"/>
<line x1="267.8" y1="58.8" x2="267.8" y2="96.4" opacity="1.0" stroke="rgb(0,0,0)" stroke-width="2.0"/>
<line x1="260.6" y1="64.8" x2="260.6" y2="90.4" opacity="1.0" stroke="rgb(0,0,0)" stroke-width="2.0"/>
<line x1="267.8" y1="96.4" x2="235.2" y2="115.2" opacity="1.0" stroke="rgb(0,0,0)" stroke-width="2.0"/>
<line x1="235.2" y1="115.2" x2="202.7" y2="96.4" opacity="1.0" stroke="rgb(0,0,0)" stroke-width="2.0"/>
<line x1="233.7" y1="105.9" x2="211.5" y2="93.1" opacity="1.0" stroke="rgb(0,0,0)" stroke-width="2.0"/>
<line x1="202.7" y1="246.7" x2="170.2" y2="265.5" opacity="1.0" stroke="rgb(0,0,0)" stroke-width="2.0"/>
<line x1="170.2" y1="265.5" x2="137.6" y2="246.7" opacity="1.0" stroke="rgb(0,0,0)" stroke-width="2.0"/>
<line x1="168.6" y1="256.2" x2="146.4" y2="243.4" opacity="1.0" stroke="rgb(0,0,0)" stroke-width="2.0"/>
<line x1="137.6" y1="246.7" x2="137.6" y2="209.1" opacity="1.0" stroke="rgb(0,0,0)" stroke-width="2.0"/>
<line x1="137.6" y1="209.1" x2="170.2" y2="190.3" opacity="1.0" stroke="rgb(0,0,0)" stroke-width="2.0"/>
<line x1="146.4" y1="212.3" x2="168.6" y2="199.5" opacity="1.0" stroke="rgb(0,0,0)" stroke-width="2.0"/>
<line x1="170.2" y1="190.3" x2="202.7" y2="209.1" opacity="1.0" stroke="rgb(0,0,0)" stroke-width="2.0"/>
<line x1="202.7" y1="209.1" x2="202.7" y2="246.7" opacity="1.0" stroke="rgb(0,0,0)" stroke-width="2.0"/>
<line x1="195.5" y1="215.1" x2="195.5" y2="240.7" opacity="1.0" stroke="rgb(0,0,0)" stroke-width="2.0"/>
<line x1="61.3" y1="202.6" x2="40.0" y2="190.3" opacity="1.0" stroke="rgb(0,0,0)" stroke-width="2.0"/>
<line x1="40.0" y1="190.3" x2="40.0" y2="152.7" opacity="1.0" stroke="rgb(0,0,0)" stroke-width="2.0"/>
<line x1="47.2" y1="184.3" x2="47.2" y2="158.7" opacity="1.0" stroke="rgb(0,0,0)" stroke-width="2.0"/>
<line x1="40.0" y1="152.7" x2="61.3" y2="140.4" opacity="1.0" stroke="rgb(0,0,0)" stroke-width="2.0"/>
<line x1="83.3" y1="140.1" x2="105.1" y2="152.7" opacity="1.0" stroke="rgb(0,0,0)" stroke-width="2.0"/>
<line x1="81.6" y1="147.5" x2="96.3" y2="156.0" opacity="1.0" stroke="rgb(0,0,0)" stroke-width="2.0"/>
<line x1="105.1" y1="152.7" x2="105.1" y2="190.3" opacity="1.0" stroke="rgb(0,0,0)" stroke-width="2.0"/>
<line x1="105.1" y1="190.3" x2="83.3" y2="202.9" opacity="1.0" stroke="rgb(0,0,0)" stroke-width="2.0"/>
<line x1="96.3" y1="187.1" x2="81.6" y2="195.5" opacity="1.0" stroke="rgb(0,0,0)" stroke-width="2.0"/>
<text x="393.957167" y="329.818182" fill="rgb(102,102,102)" stroke-width="0" font-weight="bold" font-size="16">CH</text>
<text x="417.957167" y="333.498182" fill="rgb(102,102,102)" stroke-width="0" font-weight="bold" font-size="13">3</text>
<text x="66.541561" y="141.939394" fill="rgb(12,12,255)" stroke-width="0" font-weight="bold" font-size="16">N</text>
<text x="66.541561" y="217.090909" fill="rgb(12,12,255)" stroke-width="0" font-weight="bold" font-size="16">N</text>
<text x="164.166243" y="311.030303" fill="rgb(127,178,255)" stroke-width="0" font-weight="bold" font-size="16">F</text>
<text x="391.957167" y="292.242424" fill="rgb(255,12,12)" stroke-width="0" font-weight="bold" font-size="16">O</text>
<text x="229.249364" y="198.303030" fill="rgb(12,12,255)" stroke-width="0" font-weight="bold" font-size="16">N</text>
</svg>
</g>
</svg>
