<svg xmlns="http://www.w3.org/2000/svg" x="0" y="0" viewBox="0 0 100 100">
<title>E_1_N - Open Babel Depiction</title>
<rect x="0" y="0" width="100" height="100" fill="white"/>
<g transform="translate(0,0)">
<svg width="100" height="100" x="0" y="0" viewBox="0 0 430.878 360.645" font-family="sans-serif" stroke="rgb(0,0,0)" stroke-width="2" stroke-linecap="round">
<line x1="293.7" y1="227.1" x2="240.1" y2="196.2" opacity="1.0" stroke="rgb(0,0,0)" stroke-width="2.0"/>
<line x1="228.8" y1="176.7" x2="228.8" y2="114.8" opacity="1.0" stroke="rgb(0,0,0)" stroke-width="2.0"/>
<line x1="390.9" y1="296.2" x2="390.9" y2="307.6" opacity="1.0" stroke="rgb(0,0,0)" stroke-width="2.0"/>
<line x1="358.5" y1="264.5" x2="379.6" y2="276.7" opacity="1.0" stroke="rgb(0,0,0)" stroke-width="2.0"/>
<line x1="217.6" y1="196.2" x2="196.4" y2="208.4" opacity="1.0" stroke="rgb(0,0,0)" stroke-width="2.0"/>
<line x1="131.6" y1="245.8" x2="99.2" y2="264.5" opacity="1.0" stroke="rgb(0,0,0)" stroke-width="2.0"/>
<line x1="95.3" y1="301.7" x2="71.4" y2="306.8" opacity="1.0" stroke="rgb(0,0,0)" stroke-width="2.0"/>
<line x1="52.2" y1="298.3" x2="40.0" y2="277.1" opacity="1.0" stroke="rgb(0,0,0)" stroke-width="2.0"/>
<line x1="40.0" y1="277.1" x2="65.0" y2="249.3" opacity="1.0" stroke="rgb(0,0,0)" stroke-width="2.0"/>
<line x1="49.4" y1="277.5" x2="66.4" y2="258.6" opacity="1.0" stroke="rgb(0,0,0)" stroke-width="2.0"/>
<line x1="65.0" y1="249.3" x2="99.2" y2="264.5" opacity="1.0" stroke="rgb(0,0,0)" stroke-width="2.0"/>
<line x1="99.2" y1="264.5" x2="95.3" y2="301.7" opacity="1.0" stroke="rgb(0,0,0)" stroke-width="2.0"/>
<line x1="91.4" y1="269.7" x2="88.8" y2="295.0" opacity="1.0" stroke="rgb(0,0,0)" stroke-width="2.0"/>
<line x1="326.1" y1="283.2" x2="293.7" y2="264.5" opacity="1.0" stroke="rgb(0,0,0)" stroke-width="2.0"/>
<line x1="293.7" y1="264.5" x2="293.7" y2="227.1" opacity="1.0" stroke="rgb(0,0,0)" stroke-width="2.0"/>
<line x1="300.9" y1="258.5" x2="300.9" y2="233.1" opacity="1.0" stroke="rgb(0,0,0)" stroke-width="2.0"/>
<line x1="293.7" y1="227.1" x2="326.1" y2="208.4" opacity="1.0" stroke="rgb(0,0,0)" stroke-width="2.0"/>
<line x1="326.1" y1="208.4" x2="358.5" y2="227.1" opacity="1.0" stroke="rgb(0,0,0)" stroke-width="2.0"/>
<line x1="327.7" y1="217.6" x2="349.7" y2="230.3" opacity="1.0" stroke="rgb(0,0,0)" stroke-width="2.0"/>
<line x1="358.5" y1="227.1" x2="358.5" y2="264.5" opacity="1.0" stroke="rgb(0,0,0)" stroke-width="2.0"/>
<line x1="358.5" y1="264.5" x2="326.1" y2="283.2" opacity="1.0" stroke="rgb(0,0,0)" stroke-width="2.0"/>
<line x1="349.7" y1="261.3" x2="327.7" y2="274.0" opacity="1.0" stroke="rgb(0,0,0)" stroke-width="2.0"/>
<line x1="196.4" y1="96.1" x2="196.4" y2="58.7" opacity="1.0" stroke="rgb(0,0,0)" stroke-width="2.0"/>
<line x1="196.4" y1="58.7" x2="228.8" y2="40.0" opacity="1.0" stroke="rgb(0,0,0)" stroke-width="2.0"/>
<line x1="205.2" y1="61.9" x2="227.3" y2="49.2" opacity="1.0" stroke="rgb(0,0,0)" stroke-width="2.0"/>
<line x1="228.8" y1="40.0" x2="261.3" y2="58.7" opacity="1.0" stroke="rgb(0,0,0)" stroke-width="2.0"/>
<line x1="261.3" y1="58.7" x2="261.3" y2="96.1" opacity="1.0" stroke="rgb(0,0,0)" stroke-width="2.0"/>
<line x1="254.1" y1="64.7" x2="254.1" y2="90.1" opacity="1.0" stroke="rgb(0,0,0)" stroke-width="2.0"/>
<line x1="261.3" y1="96.1" x2="228.8" y2="114.8" opacity="1.0" stroke="rgb(0,0,0)" stroke-width="2.0"/>
<line x1="228.8" y1="114.8" x2="196.4" y2="96.1" opacity="1.0" stroke="rgb(0,0,0)" stroke-width="2.0"/>
<line x1="227.3" y1="105.6" x2="205.2" y2="92.9" opacity="1.0" stroke="rgb(0,0,0)" stroke-width="2.0"/>
<line x1="196.4" y1="245.8" x2="164.0" y2="264.5" opacity="1.0" stroke="rgb(0,0,0)" stroke-width="2.0"/>
<line x1="164.0" y1="264.5" x2="131.6" y2="245.8" opacity="1.0" stroke="rgb(0,0,0)" stroke-width="2.0"/>
<line x1="162.4" y1="255.3" x2="140.4" y2="242.6" opacity="1.0" stroke="rgb(0,0,0)" stroke-width="2.0"/>
<line x1="131.6" y1="245.8" x2="131.6" y2="208.4" opacity="1.0" stroke="rgb(0,0,0)" stroke-width="2.0"/>
<line x1="131.6" y1="208.4" x2="164.0" y2="189.7" opacity="1.0" stroke="rgb(0,0,0)" stroke-width="2.0"/>
<line x1="140.4" y1="211.6" x2="162.4" y2="198.9" opacity="1.0" stroke="rgb(0,0,0)" stroke-width="2.0"/>
<line x1="164.0" y1="189.7" x2="196.4" y2="208.4" opacity="1.0" stroke="rgb(0,0,0)" stroke-width="2.0"/>
<line x1="196.4" y1="208.4" x2="196.4" y2="245.8" opacity="1.0" stroke="rgb(0,0,0)" stroke-width="2.0"/>
<line x1="189.2" y1="214.4" x2="189.2" y2="239.8" opacity="1.0" stroke="rgb(0,0,0)" stroke-width="2.0"/>
<text x="384.877724" y="291.225806" fill="rgb(255,12,12)" stroke-width="0" font-weight="bold" font-size="16">O</text>
<text x="52.709677" y="317.510418" fill="rgb(178,178,0)" stroke-width="0" font-weight="bold" font-size="16">S</text>
<text x="386.877724" y="328.645161" fill="rgb(102,102,102)" stroke-width="0" font-weight="bold" font-size="16">CH</text>
<text x="410.877724" y="332.325161" fill="rgb(102,102,102)" stroke-width="0" font-weight="bold" font-size="13">3</text>
<text x="222.847165" y="197.677419" fill="rgb(12,12,255)" stroke-width="0" font-weight="bold" font-size="16">N</text>
</svg>
</g>
</svg>
