<svg xmlns="http://www.w3.org/2000/svg" xmlns:xlink="http://www.w3.org/1999/xlink" xmlns:cml="http://www.xml-cml.org/schema" version="1.1" id="topsvg" x="0" y="0" viewBox="0 0 100 100">
<title>E_1_O - Open Babel Depiction</title>
<rect x="0" y="0" width="100" height="100" fill="white"/>
<g transform="translate(0,0)">
<svg width="100" height="100" x="0" y="0" viewBox="0 0 437.235 361.25" font-family="sans-serif" stroke="rgb(0,0,0)" stroke-width="2" stroke-linecap="round">
<line x1="299.8" y1="227.5" x2="246.1" y2="196.5" opacity="1.0" stroke="rgb(0,0,0)" stroke-width="2.0"/>
<line x1="234.9" y1="177.0" x2="234.9" y2="115.0" opacity="1.0" stroke="rgb(0,0,0)" stroke-width="2.0"/>
<line x1="397.2" y1="296.7" x2="397.2" y2="308.2" opacity="1.0" stroke="rgb(0,0,0)" stroke-width="2.0"/>
<line x1="364.8" y1="265.0" x2="386.0" y2="277.2" opacity="1.0" stroke="rgb(0,0,0)" stroke-width="2.0"/>
<line x1="223.6" y1="196.5" x2="202.4" y2="208.7" opacity="1.0" stroke="rgb(0,0,0)" stroke-width="2.0"/>
<line x1="137.4" y1="246.2" x2="105.0" y2="265.0" opacity="1.0" stroke="rgb(0,0,0)" stroke-width="2.0"/>
<line x1="332.3" y1="283.7" x2="299.8" y2="265.0" opacity="1.0" stroke="rgb(0,0,0)" stroke-width="2.0"/>
<line x1="299.8" y1="265.0" x2="299.8" y2="227.5" opacity="1.0" stroke="rgb(0,0,0)" stroke-width="2.0"/>
<line x1="307.0" y1="259.0" x2="307.0" y2="233.5" opacity="1.0" stroke="rgb(0,0,0)" stroke-width="2.0"/>
<line x1="299.8" y1="227.5" x2="332.3" y2="208.7" opacity="1.0" stroke="rgb(0,0,0)" stroke-width="2.0"/>
<line x1="332.3" y1="208.7" x2="364.8" y2="227.5" opacity="1.0" stroke="rgb(0,0,0)" stroke-width="2.0"/>
<line x1="333.9" y1="218.0" x2="356.0" y2="230.7" opacity="1.0" stroke="rgb(0,0,0)" stroke-width="2.0"/>
<line x1="364.8" y1="227.5" x2="364.8" y2="265.0" opacity="1.0" stroke="rgb(0,0,0)" stroke-width="2.0"/>
<line x1="364.8" y1="265.0" x2="332.3" y2="283.7" opacity="1.0" stroke="rgb(0,0,0)" stroke-width="2.0"/>
<line x1="356.0" y1="261.8" x2="333.9" y2="274.5" opacity="1.0" stroke="rgb(0,0,0)" stroke-width="2.0"/>
<line x1="202.4" y1="96.2" x2="202.4" y2="58.7" opacity="1.0" stroke="rgb(0,0,0)" stroke-width="2.0"/>
<line x1="202.4" y1="58.7" x2="234.9" y2="40.0" opacity="1.0" stroke="rgb(0,0,0)" stroke-width="2.0"/>
<line x1="211.2" y1="62.0" x2="233.3" y2="49.2" opacity="1.0" stroke="rgb(0,0,0)" stroke-width="2.0"/>
<line x1="234.9" y1="40.0" x2="267.3" y2="58.7" opacity="1.0" stroke="rgb(0,0,0)" stroke-width="2.0"/>
<line x1="267.3" y1="58.7" x2="267.3" y2="96.2" opacity="1.0" stroke="rgb(0,0,0)" stroke-width="2.0"/>
<line x1="260.1" y1="64.7" x2="260.1" y2="90.2" opacity="1.0" stroke="rgb(0,0,0)" stroke-width="2.0"/>
<line x1="267.3" y1="96.2" x2="234.9" y2="115.0" opacity="1.0" stroke="rgb(0,0,0)" stroke-width="2.0"/>
<line x1="234.9" y1="115.0" x2="202.4" y2="96.2" opacity="1.0" stroke="rgb(0,0,0)" stroke-width="2.0"/>
<line x1="233.3" y1="105.8" x2="211.2" y2="93.0" opacity="1.0" stroke="rgb(0,0,0)" stroke-width="2.0"/>
<line x1="202.4" y1="246.2" x2="169.9" y2="265.0" opacity="1.0" stroke="rgb(0,0,0)" stroke-width="2.0"/>
<line x1="169.9" y1="265.0" x2="137.4" y2="246.2" opacity="1.0" stroke="rgb(0,0,0)" stroke-width="2.0"/>
<line x1="168.3" y1="255.8" x2="146.2" y2="243.0" opacity="1.0" stroke="rgb(0,0,0)" stroke-width="2.0"/>
<line x1="137.4" y1="246.2" x2="137.4" y2="208.7" opacity="1.0" stroke="rgb(0,0,0)" stroke-width="2.0"/>
<line x1="137.4" y1="208.7" x2="169.9" y2="190.0" opacity="1.0" stroke="rgb(0,0,0)" stroke-width="2.0"/>
<line x1="146.2" y1="212.0" x2="168.3" y2="199.2" opacity="1.0" stroke="rgb(0,0,0)" stroke-width="2.0"/>
<line x1="169.9" y1="190.0" x2="202.4" y2="208.7" opacity="1.0" stroke="rgb(0,0,0)" stroke-width="2.0"/>
<line x1="202.4" y1="208.7" x2="202.4" y2="246.2" opacity="1.0" stroke="rgb(0,0,0)" stroke-width="2.0"/>
<line x1="195.2" y1="214.7" x2="195.2" y2="240.2" opacity="1.0" stroke="rgb(0,0,0)" stroke-width="2.0"/>
<line x1="93.7" y1="309.0" x2="72.5" y2="321.2" opacity="1.0" stroke="rgb(0,0,0)" stroke-width="2.0"/>
<line x1="72.5" y1="321.2" x2="40.0" y2="302.5" opacity="1.0" stroke="rgb(0,0,0)" stroke-width="2.0"/>
<line x1="70.9" y1="312.0" x2="48.8" y2="299.3" opacity="1.0" stroke="rgb(0,0,0)" stroke-width="2.0"/>
<line x1="40.0" y1="302.5" x2="40.0" y2="265.0" opacity="1.0" stroke="rgb(0,0,0)" stroke-width="2.0"/>
<line x1="40.0" y1="265.0" x2="72.5" y2="246.2" opacity="1.0" stroke="rgb(0,0,0)" stroke-width="2.0"/>
<line x1="48.8" y1="268.2" x2="70.9" y2="255.5" opacity="1.0" stroke="rgb(0,0,0)" stroke-width="2.0"/>
<line x1="72.5" y1="246.2" x2="105.0" y2="265.0" opacity="1.0" stroke="rgb(0,0,0)" stroke-width="2.0"/>
<line x1="105.0" y1="265.0" x2="105.0" y2="290.1" opacity="1.0" stroke="rgb(0,0,0)" stroke-width="2.0"/>
<line x1="97.8" y1="271.0" x2="97.8" y2="287.9" opacity="1.0" stroke="rgb(0,0,0)" stroke-width="2.0"/>
<text x="391.235479" y="291.750000" fill="rgb(255,12,12)" stroke-width="0" font-weight="bold" font-size="16">O</text>
<text x="98.951905" y="310.500000" fill="rgb(12,12,255)" stroke-width="0" font-weight="bold" font-size="16">N</text>
<text x="393.235479" y="329.250000" fill="rgb(102,102,102)" stroke-width="0" font-weight="bold" font-size="16">CH</text>
<text x="417.235479" y="332.930000" fill="rgb(102,102,102)" stroke-width="0" font-weight="bold" font-size="13">3</text>
<text x="228.855716" y="198.000000" fill="rgb(12,12,255)" stroke-width="0" font-weight="bold" font-size="16">N</text>
</svg>
</g>
</svg>