<svg xmlns="http://www.w3.org/2000/svg" xmlns:xlink="http://www.w3.org/1999/xlink" xmlns:cml="http://www.xml-cml.org/schema" version="1.1" id="topsvg" x="0" y="0" viewBox="0 0 100 100">
<title>E_2_K - Open Babel Depiction</title>
<rect x="0" y="0" width="100" height="100" fill="white"/>
<g transform="translate(0,0)">
<svg width="100" height="100" x="0" y="0" viewBox="0 0 450.752 401.081" font-family="sans-serif" stroke="rgb(0,0,0)" stroke-width="2" stroke-linecap="round">
<line x1="287.2" y1="218.4" x2="236.6" y2="247.6" opacity="1.0" stroke="rgb(0,0,0)" stroke-width="2.0"/>
<line x1="225.4" y1="267.1" x2="225.4" y2="289.7" opacity="1.0" stroke="rgb(0,0,0)" stroke-width="2.0"/>
<line x1="391.1" y1="171.4" x2="399.5" y2="176.2" opacity="1.0" stroke="rgb(0,0,0)" stroke-width="2.0"/>
<line x1="349.0" y1="182.7" x2="368.6" y2="171.4" opacity="1.0" stroke="rgb(0,0,0)" stroke-width="2.0"/>
<line x1="214.1" y1="247.6" x2="101.8" y2="182.7" opacity="1.0" stroke="rgb(0,0,0)" stroke-width="2.0"/>
<line x1="238.1" y1="79.6" x2="246.5" y2="84.4" opacity="1.0" stroke="rgb(0,0,0)" stroke-width="2.0"/>
<line x1="235.1" y1="84.8" x2="243.5" y2="89.6" opacity="1.0" stroke="rgb(0,0,0)" stroke-width="2.0"/>
<line x1="225.4" y1="62.7" x2="225.4" y2="53.0" opacity="1.0" stroke="rgb(0,0,0)" stroke-width="2.0"/>
<line x1="194.5" y1="93.5" x2="214.1" y2="82.2" opacity="1.0" stroke="rgb(0,0,0)" stroke-width="2.0"/>
<line x1="101.8" y1="147.0" x2="132.7" y2="129.2" opacity="1.0" stroke="rgb(0,0,0)" stroke-width="2.0"/>
<line x1="349.0" y1="218.4" x2="318.1" y2="236.2" opacity="1.0" stroke="rgb(0,0,0)" stroke-width="2.0"/>
<line x1="318.1" y1="236.2" x2="287.2" y2="218.4" opacity="1.0" stroke="rgb(0,0,0)" stroke-width="2.0"/>
<line x1="316.5" y1="227.0" x2="296.0" y2="215.1" opacity="1.0" stroke="rgb(0,0,0)" stroke-width="2.0"/>
<line x1="287.2" y1="218.4" x2="287.2" y2="182.7" opacity="1.0" stroke="rgb(0,0,0)" stroke-width="2.0"/>
<line x1="287.2" y1="182.7" x2="318.1" y2="164.9" opacity="1.0" stroke="rgb(0,0,0)" stroke-width="2.0"/>
<line x1="296.0" y1="185.9" x2="316.5" y2="174.1" opacity="1.0" stroke="rgb(0,0,0)" stroke-width="2.0"/>
<line x1="318.1" y1="164.9" x2="349.0" y2="182.7" opacity="1.0" stroke="rgb(0,0,0)" stroke-width="2.0"/>
<line x1="349.0" y1="182.7" x2="349.0" y2="218.4" opacity="1.0" stroke="rgb(0,0,0)" stroke-width="2.0"/>
<line x1="341.8" y1="188.7" x2="341.8" y2="212.4" opacity="1.0" stroke="rgb(0,0,0)" stroke-width="2.0"/>
<line x1="194.5" y1="307.6" x2="194.5" y2="343.2" opacity="1.0" stroke="rgb(0,0,0)" stroke-width="2.0"/>
<line x1="194.5" y1="343.2" x2="225.4" y2="361.1" opacity="1.0" stroke="rgb(0,0,0)" stroke-width="2.0"/>
<line x1="203.3" y1="340.0" x2="223.8" y2="351.8" opacity="1.0" stroke="rgb(0,0,0)" stroke-width="2.0"/>
<line x1="225.4" y1="361.1" x2="256.3" y2="343.2" opacity="1.0" stroke="rgb(0,0,0)" stroke-width="2.0"/>
<line x1="256.3" y1="343.2" x2="256.3" y2="307.6" opacity="1.0" stroke="rgb(0,0,0)" stroke-width="2.0"/>
<line x1="249.1" y1="337.2" x2="249.1" y2="313.6" opacity="1.0" stroke="rgb(0,0,0)" stroke-width="2.0"/>
<line x1="256.3" y1="307.6" x2="225.4" y2="289.7" opacity="1.0" stroke="rgb(0,0,0)" stroke-width="2.0"/>
<line x1="225.4" y1="289.7" x2="194.5" y2="307.6" opacity="1.0" stroke="rgb(0,0,0)" stroke-width="2.0"/>
<line x1="223.8" y1="299.0" x2="203.3" y2="310.8" opacity="1.0" stroke="rgb(0,0,0)" stroke-width="2.0"/>
<line x1="70.9" y1="200.5" x2="40.0" y2="182.7" opacity="1.0" stroke="rgb(0,0,0)" stroke-width="2.0"/>
<line x1="40.0" y1="182.7" x2="40.0" y2="147.0" opacity="1.0" stroke="rgb(0,0,0)" stroke-width="2.0"/>
<line x1="47.2" y1="176.7" x2="47.2" y2="153.0" opacity="1.0" stroke="rgb(0,0,0)" stroke-width="2.0"/>
<line x1="40.0" y1="147.0" x2="70.9" y2="129.2" opacity="1.0" stroke="rgb(0,0,0)" stroke-width="2.0"/>
<line x1="70.9" y1="129.2" x2="101.8" y2="147.0" opacity="1.0" stroke="rgb(0,0,0)" stroke-width="2.0"/>
<line x1="72.5" y1="138.4" x2="93.0" y2="150.3" opacity="1.0" stroke="rgb(0,0,0)" stroke-width="2.0"/>
<line x1="101.8" y1="147.0" x2="101.8" y2="182.7" opacity="1.0" stroke="rgb(0,0,0)" stroke-width="2.0"/>
<line x1="101.8" y1="182.7" x2="70.9" y2="200.5" opacity="1.0" stroke="rgb(0,0,0)" stroke-width="2.0"/>
<line x1="93.0" y1="179.5" x2="72.5" y2="191.3" opacity="1.0" stroke="rgb(0,0,0)" stroke-width="2.0"/>
<line x1="132.7" y1="93.5" x2="163.6" y2="75.7" opacity="1.0" stroke="rgb(0,0,0)" stroke-width="2.0"/>
<line x1="163.6" y1="75.7" x2="194.5" y2="93.5" opacity="1.0" stroke="rgb(0,0,0)" stroke-width="2.0"/>
<line x1="165.2" y1="84.9" x2="185.7" y2="96.7" opacity="1.0" stroke="rgb(0,0,0)" stroke-width="2.0"/>
<line x1="194.5" y1="93.5" x2="194.5" y2="129.2" opacity="1.0" stroke="rgb(0,0,0)" stroke-width="2.0"/>
<line x1="194.5" y1="129.2" x2="163.6" y2="147.0" opacity="1.0" stroke="rgb(0,0,0)" stroke-width="2.0"/>
<line x1="185.7" y1="126.0" x2="165.2" y2="137.8" opacity="1.0" stroke="rgb(0,0,0)" stroke-width="2.0"/>
<line x1="163.6" y1="147.0" x2="132.7" y2="129.2" opacity="1.0" stroke="rgb(0,0,0)" stroke-width="2.0"/>
<line x1="132.7" y1="129.2" x2="132.7" y2="93.5" opacity="1.0" stroke="rgb(0,0,0)" stroke-width="2.0"/>
<line x1="139.9" y1="123.2" x2="139.9" y2="99.5" opacity="1.0" stroke="rgb(0,0,0)" stroke-width="2.0"/>
<text x="230.176249" y="35.968000" fill="rgb(255,12,12)" stroke-width="0" font-weight="bold" font-size="16"/>
<text x="230.176249" y="35.968000" fill="rgb(255,12,12)" stroke-width="0" font-weight="bold" font-size="32">.</text>
<text x="219.376249" y="48.000000" fill="rgb(255,12,12)" stroke-width="0" font-weight="bold" font-size="16">O</text>
<text x="250.272290" y="101.513514" fill="rgb(255,12,12)" stroke-width="0" font-weight="bold" font-size="16">O</text>
<text x="219.376249" y="83.675676" fill="rgb(12,12,255)" stroke-width="0" font-weight="bold" font-size="16">N</text>
<text x="406.752497" y="190.702703" fill="rgb(102,102,102)" stroke-width="0" font-weight="bold" font-size="16">CH</text>
<text x="430.752497" y="194.382703" fill="rgb(102,102,102)" stroke-width="0" font-weight="bold" font-size="13">3</text>
<text x="373.856456" y="172.864865" fill="rgb(255,12,12)" stroke-width="0" font-weight="bold" font-size="16">O</text>
<text x="219.376249" y="262.054054" fill="rgb(12,12,255)" stroke-width="0" font-weight="bold" font-size="16">N</text>
</svg>
</g>
</svg>