<svg xmlns="http://www.w3.org/2000/svg" xmlns:xlink="http://www.w3.org/1999/xlink" xmlns:cml="http://www.xml-cml.org/schema" version="1.1" id="topsvg" x="0" y="0" viewBox="0 0 100 100">
<title>E_2_P - Open Babel Depiction</title>
<rect x="0" y="0" width="100" height="100" fill="white"/>
<g transform="translate(0,0)">
<svg width="100" height="100" x="0" y="0" viewBox="0 0 449.504 400" font-family="sans-serif" stroke="rgb(0,0,0)" stroke-width="2" stroke-linecap="round">
<line x1="286.3" y1="217.8" x2="236.0" y2="246.8" opacity="1.0" stroke="rgb(0,0,0)" stroke-width="2.0"/>
<line x1="224.8" y1="266.3" x2="224.8" y2="288.9" opacity="1.0" stroke="rgb(0,0,0)" stroke-width="2.0"/>
<line x1="390.0" y1="170.9" x2="398.2" y2="175.7" opacity="1.0" stroke="rgb(0,0,0)" stroke-width="2.0"/>
<line x1="347.9" y1="182.2" x2="367.5" y2="170.9" opacity="1.0" stroke="rgb(0,0,0)" stroke-width="2.0"/>
<line x1="213.5" y1="246.8" x2="101.6" y2="182.2" opacity="1.0" stroke="rgb(0,0,0)" stroke-width="2.0"/>
<line x1="224.8" y1="62.6" x2="224.8" y2="53.0" opacity="1.0" stroke="rgb(0,0,0)" stroke-width="2.0"/>
<line x1="194.0" y1="93.3" x2="213.5" y2="82.1" opacity="1.0" stroke="rgb(0,0,0)" stroke-width="2.0"/>
<line x1="101.6" y1="146.7" x2="132.4" y2="128.9" opacity="1.0" stroke="rgb(0,0,0)" stroke-width="2.0"/>
<line x1="347.9" y1="217.8" x2="317.1" y2="235.6" opacity="1.0" stroke="rgb(0,0,0)" stroke-width="2.0"/>
<line x1="317.1" y1="235.6" x2="286.3" y2="217.8" opacity="1.0" stroke="rgb(0,0,0)" stroke-width="2.0"/>
<line x1="315.5" y1="226.3" x2="295.1" y2="214.5" opacity="1.0" stroke="rgb(0,0,0)" stroke-width="2.0"/>
<line x1="286.3" y1="217.8" x2="286.3" y2="182.2" opacity="1.0" stroke="rgb(0,0,0)" stroke-width="2.0"/>
<line x1="286.3" y1="182.2" x2="317.1" y2="164.4" opacity="1.0" stroke="rgb(0,0,0)" stroke-width="2.0"/>
<line x1="295.1" y1="185.5" x2="315.5" y2="173.7" opacity="1.0" stroke="rgb(0,0,0)" stroke-width="2.0"/>
<line x1="317.1" y1="164.4" x2="347.9" y2="182.2" opacity="1.0" stroke="rgb(0,0,0)" stroke-width="2.0"/>
<line x1="347.9" y1="182.2" x2="347.9" y2="217.8" opacity="1.0" stroke="rgb(0,0,0)" stroke-width="2.0"/>
<line x1="340.7" y1="188.2" x2="340.7" y2="211.8" opacity="1.0" stroke="rgb(0,0,0)" stroke-width="2.0"/>
<line x1="194.0" y1="306.7" x2="194.0" y2="342.2" opacity="1.0" stroke="rgb(0,0,0)" stroke-width="2.0"/>
<line x1="194.0" y1="342.2" x2="224.8" y2="360.0" opacity="1.0" stroke="rgb(0,0,0)" stroke-width="2.0"/>
<line x1="202.8" y1="339.0" x2="223.2" y2="350.8" opacity="1.0" stroke="rgb(0,0,0)" stroke-width="2.0"/>
<line x1="224.8" y1="360.0" x2="255.5" y2="342.2" opacity="1.0" stroke="rgb(0,0,0)" stroke-width="2.0"/>
<line x1="255.5" y1="342.2" x2="255.5" y2="306.7" opacity="1.0" stroke="rgb(0,0,0)" stroke-width="2.0"/>
<line x1="248.3" y1="336.2" x2="248.3" y2="312.7" opacity="1.0" stroke="rgb(0,0,0)" stroke-width="2.0"/>
<line x1="255.5" y1="306.7" x2="224.8" y2="288.9" opacity="1.0" stroke="rgb(0,0,0)" stroke-width="2.0"/>
<line x1="224.8" y1="288.9" x2="194.0" y2="306.7" opacity="1.0" stroke="rgb(0,0,0)" stroke-width="2.0"/>
<line x1="223.2" y1="298.1" x2="202.8" y2="309.9" opacity="1.0" stroke="rgb(0,0,0)" stroke-width="2.0"/>
<line x1="70.8" y1="200.0" x2="40.0" y2="182.2" opacity="1.0" stroke="rgb(0,0,0)" stroke-width="2.0"/>
<line x1="40.0" y1="182.2" x2="40.0" y2="146.7" opacity="1.0" stroke="rgb(0,0,0)" stroke-width="2.0"/>
<line x1="47.2" y1="176.2" x2="47.2" y2="152.7" opacity="1.0" stroke="rgb(0,0,0)" stroke-width="2.0"/>
<line x1="40.0" y1="146.7" x2="70.8" y2="128.9" opacity="1.0" stroke="rgb(0,0,0)" stroke-width="2.0"/>
<line x1="70.8" y1="128.9" x2="101.6" y2="146.7" opacity="1.0" stroke="rgb(0,0,0)" stroke-width="2.0"/>
<line x1="72.4" y1="138.1" x2="92.8" y2="149.9" opacity="1.0" stroke="rgb(0,0,0)" stroke-width="2.0"/>
<line x1="101.6" y1="146.7" x2="101.6" y2="182.2" opacity="1.0" stroke="rgb(0,0,0)" stroke-width="2.0"/>
<line x1="101.6" y1="182.2" x2="70.8" y2="200.0" opacity="1.0" stroke="rgb(0,0,0)" stroke-width="2.0"/>
<line x1="92.8" y1="179.0" x2="72.4" y2="190.8" opacity="1.0" stroke="rgb(0,0,0)" stroke-width="2.0"/>
<line x1="132.4" y1="93.3" x2="163.2" y2="75.6" opacity="1.0" stroke="rgb(0,0,0)" stroke-width="2.0"/>
<line x1="163.2" y1="75.6" x2="194.0" y2="93.3" opacity="1.0" stroke="rgb(0,0,0)" stroke-width="2.0"/>
<line x1="164.8" y1="84.8" x2="185.2" y2="96.6" opacity="1.0" stroke="rgb(0,0,0)" stroke-width="2.0"/>
<line x1="194.0" y1="93.3" x2="194.0" y2="128.9" opacity="1.0" stroke="rgb(0,0,0)" stroke-width="2.0"/>
<line x1="194.0" y1="128.9" x2="163.2" y2="146.7" opacity="1.0" stroke="rgb(0,0,0)" stroke-width="2.0"/>
<line x1="185.2" y1="125.7" x2="164.8" y2="137.4" opacity="1.0" stroke="rgb(0,0,0)" stroke-width="2.0"/>
<line x1="163.2" y1="146.7" x2="132.4" y2="128.9" opacity="1.0" stroke="rgb(0,0,0)" stroke-width="2.0"/>
<line x1="132.4" y1="128.9" x2="132.4" y2="93.3" opacity="1.0" stroke="rgb(0,0,0)" stroke-width="2.0"/>
<line x1="139.6" y1="122.9" x2="139.6" y2="99.3" opacity="1.0" stroke="rgb(0,0,0)" stroke-width="2.0"/>
<text x="405.504172" y="190.222222" fill="rgb(102,102,102)" stroke-width="0" font-weight="bold" font-size="16">CH</text>
<text x="429.504172" y="193.902222" fill="rgb(102,102,102)" stroke-width="0" font-weight="bold" font-size="13">3</text>
<text x="220.752086" y="48.000000" fill="rgb(102,102,102)" stroke-width="0" font-weight="bold" font-size="16">CH</text>
<text x="244.752086" y="51.680000" fill="rgb(102,102,102)" stroke-width="0" font-weight="bold" font-size="13">3</text>
<text x="218.752086" y="83.555556" fill="rgb(255,12,12)" stroke-width="0" font-weight="bold" font-size="16">O</text>
<text x="372.712158" y="172.444444" fill="rgb(255,12,12)" stroke-width="0" font-weight="bold" font-size="16">O</text>
<text x="218.752086" y="261.333333" fill="rgb(12,12,255)" stroke-width="0" font-weight="bold" font-size="16">N</text>
</svg>
</g>
</svg>