<svg xmlns="http://www.w3.org/2000/svg" xmlns:xlink="http://www.w3.org/1999/xlink" xmlns:cml="http://www.xml-cml.org/schema" version="1.1" id="topsvg" x="0" y="0" viewBox="0 0 100 100">
<title>E_2_L - Open Babel Depiction</title>
<rect x="0" y="0" width="100" height="100" fill="white"/>
<g transform="translate(0,0)">
<svg width="100" height="100" x="0" y="0" viewBox="0 0 451.935 405.064" font-family="sans-serif" stroke="rgb(0,0,0)" stroke-width="2" stroke-linecap="round">
<line x1="164.0" y1="221.9" x2="214.7" y2="251.2" opacity="1.0" stroke="rgb(0,0,0)" stroke-width="2.0"/>
<line x1="226.0" y1="270.7" x2="226.0" y2="293.5" opacity="1.0" stroke="rgb(0,0,0)" stroke-width="2.0"/>
<line x1="59.7" y1="174.7" x2="51.3" y2="179.6" opacity="1.0" stroke="rgb(0,0,0)" stroke-width="2.0"/>
<line x1="102.0" y1="186.1" x2="82.3" y2="174.7" opacity="1.0" stroke="rgb(0,0,0)" stroke-width="2.0"/>
<line x1="237.2" y1="251.2" x2="349.9" y2="186.1" opacity="1.0" stroke="rgb(0,0,0)" stroke-width="2.0"/>
<line x1="349.9" y1="150.3" x2="319.0" y2="132.4" opacity="1.0" stroke="rgb(0,0,0)" stroke-width="2.0"/>
<line x1="244.9" y1="40.0" x2="280.5" y2="43.7" opacity="1.0" stroke="rgb(0,0,0)" stroke-width="2.0"/>
<line x1="250.1" y1="47.8" x2="273.8" y2="50.3" opacity="1.0" stroke="rgb(0,0,0)" stroke-width="2.0"/>
<line x1="280.5" y1="43.7" x2="288.0" y2="78.7" opacity="1.0" stroke="rgb(0,0,0)" stroke-width="2.0"/>
<line x1="288.0" y1="78.7" x2="257.0" y2="96.6" opacity="1.0" stroke="rgb(0,0,0)" stroke-width="2.0"/>
<line x1="257.0" y1="96.6" x2="240.0" y2="81.4" opacity="1.0" stroke="rgb(0,0,0)" stroke-width="2.0"/>
<line x1="235.7" y1="60.8" x2="244.9" y2="40.0" opacity="1.0" stroke="rgb(0,0,0)" stroke-width="2.0"/>
<line x1="133.0" y1="168.2" x2="164.0" y2="186.1" opacity="1.0" stroke="rgb(0,0,0)" stroke-width="2.0"/>
<line x1="164.0" y1="186.1" x2="164.0" y2="221.9" opacity="1.0" stroke="rgb(0,0,0)" stroke-width="2.0"/>
<line x1="156.8" y1="192.1" x2="156.8" y2="215.9" opacity="1.0" stroke="rgb(0,0,0)" stroke-width="2.0"/>
<line x1="164.0" y1="221.9" x2="133.0" y2="239.8" opacity="1.0" stroke="rgb(0,0,0)" stroke-width="2.0"/>
<line x1="133.0" y1="239.8" x2="102.0" y2="221.9" opacity="1.0" stroke="rgb(0,0,0)" stroke-width="2.0"/>
<line x1="131.4" y1="230.6" x2="110.8" y2="218.7" opacity="1.0" stroke="rgb(0,0,0)" stroke-width="2.0"/>
<line x1="102.0" y1="221.9" x2="102.0" y2="186.1" opacity="1.0" stroke="rgb(0,0,0)" stroke-width="2.0"/>
<line x1="102.0" y1="186.1" x2="133.0" y2="168.2" opacity="1.0" stroke="rgb(0,0,0)" stroke-width="2.0"/>
<line x1="110.8" y1="189.4" x2="131.4" y2="177.5" opacity="1.0" stroke="rgb(0,0,0)" stroke-width="2.0"/>
<line x1="257.0" y1="311.4" x2="257.0" y2="347.2" opacity="1.0" stroke="rgb(0,0,0)" stroke-width="2.0"/>
<line x1="257.0" y1="347.2" x2="226.0" y2="365.1" opacity="1.0" stroke="rgb(0,0,0)" stroke-width="2.0"/>
<line x1="248.2" y1="343.9" x2="227.6" y2="355.8" opacity="1.0" stroke="rgb(0,0,0)" stroke-width="2.0"/>
<line x1="226.0" y1="365.1" x2="195.0" y2="347.2" opacity="1.0" stroke="rgb(0,0,0)" stroke-width="2.0"/>
<line x1="195.0" y1="347.2" x2="195.0" y2="311.4" opacity="1.0" stroke="rgb(0,0,0)" stroke-width="2.0"/>
<line x1="202.2" y1="341.2" x2="202.2" y2="317.4" opacity="1.0" stroke="rgb(0,0,0)" stroke-width="2.0"/>
<line x1="195.0" y1="311.4" x2="226.0" y2="293.5" opacity="1.0" stroke="rgb(0,0,0)" stroke-width="2.0"/>
<line x1="226.0" y1="293.5" x2="257.0" y2="311.4" opacity="1.0" stroke="rgb(0,0,0)" stroke-width="2.0"/>
<line x1="227.6" y1="302.7" x2="248.2" y2="314.6" opacity="1.0" stroke="rgb(0,0,0)" stroke-width="2.0"/>
<line x1="380.9" y1="204.0" x2="411.9" y2="186.1" opacity="1.0" stroke="rgb(0,0,0)" stroke-width="2.0"/>
<line x1="411.9" y1="186.1" x2="411.9" y2="150.3" opacity="1.0" stroke="rgb(0,0,0)" stroke-width="2.0"/>
<line x1="404.7" y1="180.1" x2="404.7" y2="156.3" opacity="1.0" stroke="rgb(0,0,0)" stroke-width="2.0"/>
<line x1="411.9" y1="150.3" x2="380.9" y2="132.4" opacity="1.0" stroke="rgb(0,0,0)" stroke-width="2.0"/>
<line x1="380.9" y1="132.4" x2="349.9" y2="150.3" opacity="1.0" stroke="rgb(0,0,0)" stroke-width="2.0"/>
<line x1="379.3" y1="141.7" x2="358.7" y2="153.6" opacity="1.0" stroke="rgb(0,0,0)" stroke-width="2.0"/>
<line x1="349.9" y1="150.3" x2="349.9" y2="186.1" opacity="1.0" stroke="rgb(0,0,0)" stroke-width="2.0"/>
<line x1="349.9" y1="186.1" x2="380.9" y2="204.0" opacity="1.0" stroke="rgb(0,0,0)" stroke-width="2.0"/>
<line x1="358.7" y1="182.9" x2="379.3" y2="194.8" opacity="1.0" stroke="rgb(0,0,0)" stroke-width="2.0"/>
<line x1="288.0" y1="150.3" x2="257.0" y2="132.4" opacity="1.0" stroke="rgb(0,0,0)" stroke-width="2.0"/>
<line x1="257.0" y1="132.4" x2="257.0" y2="96.6" opacity="1.0" stroke="rgb(0,0,0)" stroke-width="2.0"/>
<line x1="264.2" y1="126.4" x2="264.2" y2="102.6" opacity="1.0" stroke="rgb(0,0,0)" stroke-width="2.0"/>
<line x1="288.0" y1="78.7" x2="319.0" y2="96.6" opacity="1.0" stroke="rgb(0,0,0)" stroke-width="2.0"/>
<line x1="289.6" y1="88.0" x2="310.2" y2="99.9" opacity="1.0" stroke="rgb(0,0,0)" stroke-width="2.0"/>
<line x1="319.0" y1="96.6" x2="319.0" y2="132.4" opacity="1.0" stroke="rgb(0,0,0)" stroke-width="2.0"/>
<line x1="319.0" y1="132.4" x2="288.0" y2="150.3" opacity="1.0" stroke="rgb(0,0,0)" stroke-width="2.0"/>
<line x1="310.2" y1="129.2" x2="289.6" y2="141.1" opacity="1.0" stroke="rgb(0,0,0)" stroke-width="2.0"/>
<text x="212.365392" y="80.695311" fill="rgb(12,12,255)" stroke-width="0" font-weight="bold" font-size="16">HN</text>
<text x="14.000000" y="194.116828" fill="rgb(102,102,102)" stroke-width="0" font-weight="bold" font-size="16">H</text>
<text x="26.000000" y="197.796828" fill="rgb(102,102,102)" stroke-width="0" font-weight="bold" font-size="13">3</text>
<text x="32.500000" y="194.116828" fill="rgb(102,102,102)" stroke-width="0" font-weight="bold" font-size="16">C</text>
<text x="64.994593" y="176.222091" fill="rgb(255,12,12)" stroke-width="0" font-weight="bold" font-size="16">O</text>
<text x="219.967560" y="265.695775" fill="rgb(12,12,255)" stroke-width="0" font-weight="bold" font-size="16">N</text>
</svg>
</g>
</svg>