<svg xmlns="http://www.w3.org/2000/svg" xmlns:xlink="http://www.w3.org/1999/xlink" xmlns:cml="http://www.xml-cml.org/schema" version="1.1" id="topsvg" x="0" y="0" viewBox="0 0 100 100">
<title>E_2_R - Open Babel Depiction</title>
<rect x="0" y="0" width="100" height="100" fill="white"/>
<g transform="translate(0,0)">
<svg width="100" height="100" x="0" y="0" viewBox="0 0 450.752 311.892" font-family="sans-serif" stroke="rgb(0,0,0)" stroke-width="2" stroke-linecap="round">
<line x1="287.2" y1="182.7" x2="236.6" y2="153.5" opacity="1.0" stroke="rgb(0,0,0)" stroke-width="2.0"/>
<line x1="225.4" y1="134.0" x2="225.4" y2="111.4" opacity="1.0" stroke="rgb(0,0,0)" stroke-width="2.0"/>
<line x1="391.1" y1="229.7" x2="399.5" y2="224.9" opacity="1.0" stroke="rgb(0,0,0)" stroke-width="2.0"/>
<line x1="349.0" y1="218.4" x2="368.6" y2="229.7" opacity="1.0" stroke="rgb(0,0,0)" stroke-width="2.0"/>
<line x1="214.1" y1="153.5" x2="101.8" y2="218.4" opacity="1.0" stroke="rgb(0,0,0)" stroke-width="2.0"/>
<line x1="58.1" y1="53.9" x2="49.8" y2="49.1" opacity="1.0" stroke="rgb(0,0,0)" stroke-width="2.0"/>
<line x1="61.1" y1="48.7" x2="52.8" y2="43.9" opacity="1.0" stroke="rgb(0,0,0)" stroke-width="2.0"/>
<line x1="82.2" y1="51.3" x2="90.5" y2="46.5" opacity="1.0" stroke="rgb(0,0,0)" stroke-width="2.0"/>
<line x1="70.9" y1="93.5" x2="70.9" y2="70.8" opacity="1.0" stroke="rgb(0,0,0)" stroke-width="2.0"/>
<line x1="70.9" y1="200.5" x2="70.9" y2="164.9" opacity="1.0" stroke="rgb(0,0,0)" stroke-width="2.0"/>
<line x1="318.1" y1="236.2" x2="287.2" y2="218.4" opacity="1.0" stroke="rgb(0,0,0)" stroke-width="2.0"/>
<line x1="287.2" y1="218.4" x2="287.2" y2="182.7" opacity="1.0" stroke="rgb(0,0,0)" stroke-width="2.0"/>
<line x1="294.4" y1="212.4" x2="294.4" y2="188.7" opacity="1.0" stroke="rgb(0,0,0)" stroke-width="2.0"/>
<line x1="287.2" y1="182.7" x2="318.1" y2="164.9" opacity="1.0" stroke="rgb(0,0,0)" stroke-width="2.0"/>
<line x1="318.1" y1="164.9" x2="349.0" y2="182.7" opacity="1.0" stroke="rgb(0,0,0)" stroke-width="2.0"/>
<line x1="319.7" y1="174.1" x2="340.2" y2="185.9" opacity="1.0" stroke="rgb(0,0,0)" stroke-width="2.0"/>
<line x1="349.0" y1="182.7" x2="349.0" y2="218.4" opacity="1.0" stroke="rgb(0,0,0)" stroke-width="2.0"/>
<line x1="349.0" y1="218.4" x2="318.1" y2="236.2" opacity="1.0" stroke="rgb(0,0,0)" stroke-width="2.0"/>
<line x1="340.2" y1="215.1" x2="319.7" y2="227.0" opacity="1.0" stroke="rgb(0,0,0)" stroke-width="2.0"/>
<line x1="194.5" y1="93.5" x2="194.5" y2="57.8" opacity="1.0" stroke="rgb(0,0,0)" stroke-width="2.0"/>
<line x1="194.5" y1="57.8" x2="225.4" y2="40.0" opacity="1.0" stroke="rgb(0,0,0)" stroke-width="2.0"/>
<line x1="203.3" y1="61.1" x2="223.8" y2="49.2" opacity="1.0" stroke="rgb(0,0,0)" stroke-width="2.0"/>
<line x1="225.4" y1="40.0" x2="256.3" y2="57.8" opacity="1.0" stroke="rgb(0,0,0)" stroke-width="2.0"/>
<line x1="256.3" y1="57.8" x2="256.3" y2="93.5" opacity="1.0" stroke="rgb(0,0,0)" stroke-width="2.0"/>
<line x1="249.1" y1="63.8" x2="249.1" y2="87.5" opacity="1.0" stroke="rgb(0,0,0)" stroke-width="2.0"/>
<line x1="256.3" y1="93.5" x2="225.4" y2="111.4" opacity="1.0" stroke="rgb(0,0,0)" stroke-width="2.0"/>
<line x1="225.4" y1="111.4" x2="194.5" y2="93.5" opacity="1.0" stroke="rgb(0,0,0)" stroke-width="2.0"/>
<line x1="223.8" y1="102.1" x2="203.3" y2="90.3" opacity="1.0" stroke="rgb(0,0,0)" stroke-width="2.0"/>
<line x1="101.8" y1="254.1" x2="70.9" y2="271.9" opacity="1.0" stroke="rgb(0,0,0)" stroke-width="2.0"/>
<line x1="70.9" y1="271.9" x2="40.0" y2="254.1" opacity="1.0" stroke="rgb(0,0,0)" stroke-width="2.0"/>
<line x1="69.3" y1="262.7" x2="48.8" y2="250.8" opacity="1.0" stroke="rgb(0,0,0)" stroke-width="2.0"/>
<line x1="40.0" y1="254.1" x2="40.0" y2="218.4" opacity="1.0" stroke="rgb(0,0,0)" stroke-width="2.0"/>
<line x1="40.0" y1="218.4" x2="70.9" y2="200.5" opacity="1.0" stroke="rgb(0,0,0)" stroke-width="2.0"/>
<line x1="48.8" y1="221.6" x2="69.3" y2="209.8" opacity="1.0" stroke="rgb(0,0,0)" stroke-width="2.0"/>
<line x1="70.9" y1="200.5" x2="101.8" y2="218.4" opacity="1.0" stroke="rgb(0,0,0)" stroke-width="2.0"/>
<line x1="101.8" y1="218.4" x2="101.8" y2="254.1" opacity="1.0" stroke="rgb(0,0,0)" stroke-width="2.0"/>
<line x1="94.6" y1="224.4" x2="94.6" y2="248.1" opacity="1.0" stroke="rgb(0,0,0)" stroke-width="2.0"/>
<line x1="101.8" y1="134.0" x2="101.8" y2="111.4" opacity="1.0" stroke="rgb(0,0,0)" stroke-width="2.0"/>
<line x1="101.8" y1="111.4" x2="70.9" y2="93.5" opacity="1.0" stroke="rgb(0,0,0)" stroke-width="2.0"/>
<line x1="93.0" y1="114.6" x2="72.5" y2="102.7" opacity="1.0" stroke="rgb(0,0,0)" stroke-width="2.0"/>
<line x1="70.9" y1="93.5" x2="40.0" y2="111.4" opacity="1.0" stroke="rgb(0,0,0)" stroke-width="2.0"/>
<line x1="40.0" y1="111.4" x2="40.0" y2="147.0" opacity="1.0" stroke="rgb(0,0,0)" stroke-width="2.0"/>
<line x1="47.2" y1="117.4" x2="47.2" y2="141.0" opacity="1.0" stroke="rgb(0,0,0)" stroke-width="2.0"/>
<line x1="40.0" y1="147.0" x2="70.9" y2="164.9" opacity="1.0" stroke="rgb(0,0,0)" stroke-width="2.0"/>
<line x1="70.9" y1="164.9" x2="91.6" y2="152.9" opacity="1.0" stroke="rgb(0,0,0)" stroke-width="2.0"/>
<line x1="72.5" y1="155.6" x2="85.9" y2="147.9" opacity="1.0" stroke="rgb(0,0,0)" stroke-width="2.0"/>
<text x="106.592083" y="35.968000" fill="rgb(255,12,12)" stroke-width="0" font-weight="bold" font-size="16"/>
<text x="106.592083" y="35.968000" fill="rgb(255,12,12)" stroke-width="0" font-weight="bold" font-size="32">.</text>
<text x="95.792083" y="48.000000" fill="rgb(255,12,12)" stroke-width="0" font-weight="bold" font-size="16">O</text>
<text x="34.000000" y="48.000000" fill="rgb(255,12,12)" stroke-width="0" font-weight="bold" font-size="16">O</text>
<text x="64.896041" y="65.837838" fill="rgb(12,12,255)" stroke-width="0" font-weight="bold" font-size="16">N</text>
<text x="95.792083" y="155.027027" fill="rgb(12,12,255)" stroke-width="0" font-weight="bold" font-size="16">N</text>
<text x="406.752497" y="226.378378" fill="rgb(102,102,102)" stroke-width="0" font-weight="bold" font-size="16">CH</text>
<text x="430.752497" y="230.058378" fill="rgb(102,102,102)" stroke-width="0" font-weight="bold" font-size="13">3</text>
<text x="373.856456" y="244.216216" fill="rgb(255,12,12)" stroke-width="0" font-weight="bold" font-size="16">O</text>
<text x="219.376249" y="155.027027" fill="rgb(12,12,255)" stroke-width="0" font-weight="bold" font-size="16">N</text>
</svg>
</g>
</svg>