<svg xmlns="http://www.w3.org/2000/svg" xmlns:xlink="http://www.w3.org/1999/xlink" xmlns:cml="http://www.xml-cml.org/schema" version="1.1" id="topsvg" x="0" y="0" viewBox="0 0 100 100">
<title>E_2_T - Open Babel Depiction</title>
<rect x="0" y="0" width="100" height="100" fill="white"/>
<g transform="translate(0,0)">
<svg width="100" height="100" x="0" y="0" viewBox="0 0 448.185 363.429" font-family="sans-serif" stroke="rgb(0,0,0)" stroke-width="2" stroke-linecap="round">
<line x1="162.7" y1="181.7" x2="212.8" y2="152.8" opacity="1.0" stroke="rgb(0,0,0)" stroke-width="2.0"/>
<line x1="224.1" y1="133.3" x2="224.1" y2="110.9" opacity="1.0" stroke="rgb(0,0,0)" stroke-width="2.0"/>
<line x1="59.4" y1="228.4" x2="51.3" y2="223.6" opacity="1.0" stroke="rgb(0,0,0)" stroke-width="2.0"/>
<line x1="101.4" y1="217.1" x2="81.9" y2="228.4" opacity="1.0" stroke="rgb(0,0,0)" stroke-width="2.0"/>
<line x1="235.4" y1="152.8" x2="346.8" y2="217.1" opacity="1.0" stroke="rgb(0,0,0)" stroke-width="2.0"/>
<line x1="254.8" y1="305.7" x2="235.4" y2="316.9" opacity="1.0" stroke="rgb(0,0,0)" stroke-width="2.0"/>
<line x1="346.8" y1="252.6" x2="316.1" y2="270.3" opacity="1.0" stroke="rgb(0,0,0)" stroke-width="2.0"/>
<line x1="101.4" y1="181.7" x2="132.0" y2="164.0" opacity="1.0" stroke="rgb(0,0,0)" stroke-width="2.0"/>
<line x1="132.0" y1="164.0" x2="162.7" y2="181.7" opacity="1.0" stroke="rgb(0,0,0)" stroke-width="2.0"/>
<line x1="133.6" y1="173.2" x2="153.9" y2="184.9" opacity="1.0" stroke="rgb(0,0,0)" stroke-width="2.0"/>
<line x1="162.7" y1="181.7" x2="162.7" y2="217.1" opacity="1.0" stroke="rgb(0,0,0)" stroke-width="2.0"/>
<line x1="162.7" y1="217.1" x2="132.0" y2="234.9" opacity="1.0" stroke="rgb(0,0,0)" stroke-width="2.0"/>
<line x1="153.9" y1="213.9" x2="133.6" y2="225.6" opacity="1.0" stroke="rgb(0,0,0)" stroke-width="2.0"/>
<line x1="132.0" y1="234.9" x2="101.4" y2="217.1" opacity="1.0" stroke="rgb(0,0,0)" stroke-width="2.0"/>
<line x1="101.4" y1="217.1" x2="101.4" y2="181.7" opacity="1.0" stroke="rgb(0,0,0)" stroke-width="2.0"/>
<line x1="108.6" y1="211.1" x2="108.6" y2="187.7" opacity="1.0" stroke="rgb(0,0,0)" stroke-width="2.0"/>
<line x1="254.8" y1="93.1" x2="254.8" y2="57.7" opacity="1.0" stroke="rgb(0,0,0)" stroke-width="2.0"/>
<line x1="254.8" y1="57.7" x2="224.1" y2="40.0" opacity="1.0" stroke="rgb(0,0,0)" stroke-width="2.0"/>
<line x1="246.0" y1="60.9" x2="225.7" y2="49.2" opacity="1.0" stroke="rgb(0,0,0)" stroke-width="2.0"/>
<line x1="224.1" y1="40.0" x2="193.4" y2="57.7" opacity="1.0" stroke="rgb(0,0,0)" stroke-width="2.0"/>
<line x1="193.4" y1="57.7" x2="193.4" y2="93.1" opacity="1.0" stroke="rgb(0,0,0)" stroke-width="2.0"/>
<line x1="200.6" y1="63.7" x2="200.6" y2="87.1" opacity="1.0" stroke="rgb(0,0,0)" stroke-width="2.0"/>
<line x1="193.4" y1="93.1" x2="224.1" y2="110.9" opacity="1.0" stroke="rgb(0,0,0)" stroke-width="2.0"/>
<line x1="224.1" y1="110.9" x2="254.8" y2="93.1" opacity="1.0" stroke="rgb(0,0,0)" stroke-width="2.0"/>
<line x1="225.7" y1="101.6" x2="246.0" y2="89.9" opacity="1.0" stroke="rgb(0,0,0)" stroke-width="2.0"/>
<line x1="377.5" y1="199.4" x2="408.2" y2="217.1" opacity="1.0" stroke="rgb(0,0,0)" stroke-width="2.0"/>
<line x1="408.2" y1="217.1" x2="408.2" y2="252.6" opacity="1.0" stroke="rgb(0,0,0)" stroke-width="2.0"/>
<line x1="401.0" y1="223.1" x2="401.0" y2="246.6" opacity="1.0" stroke="rgb(0,0,0)" stroke-width="2.0"/>
<line x1="408.2" y1="252.6" x2="377.5" y2="270.3" opacity="1.0" stroke="rgb(0,0,0)" stroke-width="2.0"/>
<line x1="377.5" y1="270.3" x2="346.8" y2="252.6" opacity="1.0" stroke="rgb(0,0,0)" stroke-width="2.0"/>
<line x1="375.9" y1="261.1" x2="355.6" y2="249.3" opacity="1.0" stroke="rgb(0,0,0)" stroke-width="2.0"/>
<line x1="346.8" y1="252.6" x2="346.8" y2="217.1" opacity="1.0" stroke="rgb(0,0,0)" stroke-width="2.0"/>
<line x1="346.8" y1="217.1" x2="377.5" y2="199.4" opacity="1.0" stroke="rgb(0,0,0)" stroke-width="2.0"/>
<line x1="355.6" y1="220.4" x2="375.9" y2="208.7" opacity="1.0" stroke="rgb(0,0,0)" stroke-width="2.0"/>
<line x1="316.1" y1="305.7" x2="285.5" y2="323.4" opacity="1.0" stroke="rgb(0,0,0)" stroke-width="2.0"/>
<line x1="285.5" y1="323.4" x2="254.8" y2="305.7" opacity="1.0" stroke="rgb(0,0,0)" stroke-width="2.0"/>
<line x1="283.9" y1="314.2" x2="263.6" y2="302.5" opacity="1.0" stroke="rgb(0,0,0)" stroke-width="2.0"/>
<line x1="254.8" y1="305.7" x2="254.8" y2="270.3" opacity="1.0" stroke="rgb(0,0,0)" stroke-width="2.0"/>
<line x1="254.8" y1="270.3" x2="285.5" y2="252.6" opacity="1.0" stroke="rgb(0,0,0)" stroke-width="2.0"/>
<line x1="263.6" y1="273.5" x2="283.9" y2="261.8" opacity="1.0" stroke="rgb(0,0,0)" stroke-width="2.0"/>
<line x1="285.5" y1="252.6" x2="316.1" y2="270.3" opacity="1.0" stroke="rgb(0,0,0)" stroke-width="2.0"/>
<line x1="316.1" y1="270.3" x2="316.1" y2="305.7" opacity="1.0" stroke="rgb(0,0,0)" stroke-width="2.0"/>
<line x1="308.9" y1="276.3" x2="308.9" y2="299.7" opacity="1.0" stroke="rgb(0,0,0)" stroke-width="2.0"/>
<text x="14.000000" y="225.142857" fill="rgb(102,102,102)" stroke-width="0" font-weight="bold" font-size="16">H</text>
<text x="26.000000" y="228.822857" fill="rgb(102,102,102)" stroke-width="0" font-weight="bold" font-size="13">3</text>
<text x="32.500000" y="225.142857" fill="rgb(102,102,102)" stroke-width="0" font-weight="bold" font-size="16">C</text>
<text x="198.092257" y="331.428571" fill="rgb(102,102,102)" stroke-width="0" font-weight="bold" font-size="16">H</text>
<text x="210.092257" y="335.108571" fill="rgb(102,102,102)" stroke-width="0" font-weight="bold" font-size="13">3</text>
<text x="216.592257" y="331.428571" fill="rgb(102,102,102)" stroke-width="0" font-weight="bold" font-size="16">C</text>
<text x="64.682043" y="242.857143" fill="rgb(255,12,12)" stroke-width="0" font-weight="bold" font-size="16">O</text>
<text x="218.092257" y="154.285714" fill="rgb(12,12,255)" stroke-width="0" font-weight="bold" font-size="16">N</text>
</svg>
</g>
</svg>