<svg xmlns="http://www.w3.org/2000/svg" x="0" y="0" viewBox="0 0 100 100">
<title>E_2_Q - Open Babel Depiction</title>
<rect x="0" y="0" width="100" height="100" fill="white"/>
<g transform="translate(0,0)">
<svg width="100" height="100" x="0" y="0" viewBox="0 0 416.222 309.412" font-family="sans-serif" stroke="rgb(0,0,0)" stroke-width="2" stroke-linecap="round">
<line x1="284.5" y1="181.2" x2="234.7" y2="152.4" opacity="1.0" stroke="rgb(0,0,0)" stroke-width="2.0"/>
<line x1="223.4" y1="132.9" x2="223.4" y2="110.6" opacity="1.0" stroke="rgb(0,0,0)" stroke-width="2.0"/>
<line x1="376.2" y1="247.1" x2="376.2" y2="256.4" opacity="1.0" stroke="rgb(0,0,0)" stroke-width="2.0"/>
<line x1="345.7" y1="216.5" x2="365.0" y2="227.6" opacity="1.0" stroke="rgb(0,0,0)" stroke-width="2.0"/>
<line x1="212.1" y1="152.4" x2="101.1" y2="216.5" opacity="1.0" stroke="rgb(0,0,0)" stroke-width="2.0"/>
<line x1="70.6" y1="198.8" x2="70.6" y2="163.5" opacity="1.0" stroke="rgb(0,0,0)" stroke-width="2.0"/>
<line x1="315.1" y1="234.1" x2="284.5" y2="216.5" opacity="1.0" stroke="rgb(0,0,0)" stroke-width="2.0"/>
<line x1="284.5" y1="216.5" x2="284.5" y2="181.2" opacity="1.0" stroke="rgb(0,0,0)" stroke-width="2.0"/>
<line x1="291.7" y1="210.5" x2="291.7" y2="187.2" opacity="1.0" stroke="rgb(0,0,0)" stroke-width="2.0"/>
<line x1="284.5" y1="181.2" x2="315.1" y2="163.5" opacity="1.0" stroke="rgb(0,0,0)" stroke-width="2.0"/>
<line x1="315.1" y1="163.5" x2="345.7" y2="181.2" opacity="1.0" stroke="rgb(0,0,0)" stroke-width="2.0"/>
<line x1="316.7" y1="172.8" x2="336.9" y2="184.4" opacity="1.0" stroke="rgb(0,0,0)" stroke-width="2.0"/>
<line x1="345.7" y1="181.2" x2="345.7" y2="216.5" opacity="1.0" stroke="rgb(0,0,0)" stroke-width="2.0"/>
<line x1="345.7" y1="216.5" x2="315.1" y2="234.1" opacity="1.0" stroke="rgb(0,0,0)" stroke-width="2.0"/>
<line x1="336.9" y1="213.2" x2="316.7" y2="224.9" opacity="1.0" stroke="rgb(0,0,0)" stroke-width="2.0"/>
<line x1="192.8" y1="92.9" x2="192.8" y2="57.6" opacity="1.0" stroke="rgb(0,0,0)" stroke-width="2.0"/>
<line x1="192.8" y1="57.6" x2="223.4" y2="40.0" opacity="1.0" stroke="rgb(0,0,0)" stroke-width="2.0"/>
<line x1="201.6" y1="60.9" x2="221.8" y2="49.2" opacity="1.0" stroke="rgb(0,0,0)" stroke-width="2.0"/>
<line x1="223.4" y1="40.0" x2="254.0" y2="57.6" opacity="1.0" stroke="rgb(0,0,0)" stroke-width="2.0"/>
<line x1="254.0" y1="57.6" x2="254.0" y2="92.9" opacity="1.0" stroke="rgb(0,0,0)" stroke-width="2.0"/>
<line x1="246.8" y1="63.6" x2="246.8" y2="86.9" opacity="1.0" stroke="rgb(0,0,0)" stroke-width="2.0"/>
<line x1="254.0" y1="92.9" x2="223.4" y2="110.6" opacity="1.0" stroke="rgb(0,0,0)" stroke-width="2.0"/>
<line x1="223.4" y1="110.6" x2="192.8" y2="92.9" opacity="1.0" stroke="rgb(0,0,0)" stroke-width="2.0"/>
<line x1="221.8" y1="101.4" x2="201.6" y2="89.7" opacity="1.0" stroke="rgb(0,0,0)" stroke-width="2.0"/>
<line x1="101.1" y1="251.8" x2="70.6" y2="269.4" opacity="1.0" stroke="rgb(0,0,0)" stroke-width="2.0"/>
<line x1="70.6" y1="269.4" x2="40.0" y2="251.8" opacity="1.0" stroke="rgb(0,0,0)" stroke-width="2.0"/>
<line x1="69.0" y1="260.2" x2="48.8" y2="248.5" opacity="1.0" stroke="rgb(0,0,0)" stroke-width="2.0"/>
<line x1="40.0" y1="251.8" x2="40.0" y2="216.5" opacity="1.0" stroke="rgb(0,0,0)" stroke-width="2.0"/>
<line x1="40.0" y1="216.5" x2="70.6" y2="198.8" opacity="1.0" stroke="rgb(0,0,0)" stroke-width="2.0"/>
<line x1="48.8" y1="219.7" x2="69.0" y2="208.1" opacity="1.0" stroke="rgb(0,0,0)" stroke-width="2.0"/>
<line x1="70.6" y1="198.8" x2="101.1" y2="216.5" opacity="1.0" stroke="rgb(0,0,0)" stroke-width="2.0"/>
<line x1="101.1" y1="216.5" x2="101.1" y2="251.8" opacity="1.0" stroke="rgb(0,0,0)" stroke-width="2.0"/>
<line x1="93.9" y1="222.5" x2="93.9" y2="245.8" opacity="1.0" stroke="rgb(0,0,0)" stroke-width="2.0"/>
<line x1="101.1" y1="132.9" x2="101.1" y2="110.6" opacity="1.0" stroke="rgb(0,0,0)" stroke-width="2.0"/>
<line x1="101.1" y1="110.6" x2="70.6" y2="92.9" opacity="1.0" stroke="rgb(0,0,0)" stroke-width="2.0"/>
<line x1="92.3" y1="113.8" x2="72.2" y2="102.2" opacity="1.0" stroke="rgb(0,0,0)" stroke-width="2.0"/>
<line x1="70.6" y1="92.9" x2="51.3" y2="104.1" opacity="1.0" stroke="rgb(0,0,0)" stroke-width="2.0"/>
<line x1="40.0" y1="122.2" x2="40.0" y2="145.9" opacity="1.0" stroke="rgb(0,0,0)" stroke-width="2.0"/>
<line x1="47.2" y1="124.7" x2="47.2" y2="139.9" opacity="1.0" stroke="rgb(0,0,0)" stroke-width="2.0"/>
<line x1="40.0" y1="145.9" x2="70.6" y2="163.5" opacity="1.0" stroke="rgb(0,0,0)" stroke-width="2.0"/>
<line x1="70.6" y1="163.5" x2="91.0" y2="151.7" opacity="1.0" stroke="rgb(0,0,0)" stroke-width="2.0"/>
<line x1="72.2" y1="154.3" x2="85.3" y2="146.7" opacity="1.0" stroke="rgb(0,0,0)" stroke-width="2.0"/>
<text x="370.221627" y="242.117647" fill="rgb(255,12,12)" stroke-width="0" font-weight="bold" font-size="16">O</text>
<text x="34.000000" y="118.588235" fill="rgb(12,12,255)" stroke-width="0" font-weight="bold" font-size="16">N</text>
<text x="95.131205" y="153.882353" fill="rgb(12,12,255)" stroke-width="0" font-weight="bold" font-size="16">N</text>
<text x="372.221627" y="277.411765" fill="rgb(102,102,102)" stroke-width="0" font-weight="bold" font-size="16">CH</text>
<text x="396.221627" y="281.091765" fill="rgb(102,102,102)" stroke-width="0" font-weight="bold" font-size="13">3</text>
<text x="217.393615" y="153.882353" fill="rgb(12,12,255)" stroke-width="0" font-weight="bold" font-size="16">N</text>
</svg>
</g>
</svg>
