<svg xmlns="http://www.w3.org/2000/svg" xmlns:xlink="http://www.w3.org/1999/xlink" xmlns:cml="http://www.xml-cml.org/schema" version="1.1" id="topsvg" x="0" y="0" viewBox="0 0 100 100">
<title>E_3_P - Open Babel Depiction</title>
<rect x="0" y="0" width="100" height="100" fill="white"/>
<g transform="translate(0,0)">
<svg width="100" height="100" x="0" y="0" viewBox="0 0 554.431 390.435" font-family="sans-serif" stroke="rgb(0,0,0)" stroke-width="2" stroke-linecap="round">
<line x1="419.5" y1="222.6" x2="367.5" y2="192.6" opacity="1.0" stroke="rgb(0,0,0)" stroke-width="2.0"/>
<line x1="356.3" y1="173.1" x2="356.3" y2="113.0" opacity="1.0" stroke="rgb(0,0,0)" stroke-width="2.0"/>
<line x1="514.4" y1="290.4" x2="514.4" y2="300.9" opacity="1.0" stroke="rgb(0,0,0)" stroke-width="2.0"/>
<line x1="482.8" y1="259.1" x2="503.2" y2="270.9" opacity="1.0" stroke="rgb(0,0,0)" stroke-width="2.0"/>
<line x1="345.0" y1="192.6" x2="293.0" y2="222.6" opacity="1.0" stroke="rgb(0,0,0)" stroke-width="2.0"/>
<line x1="60.4" y1="343.9" x2="51.3" y2="338.7" opacity="1.0" stroke="rgb(0,0,0)" stroke-width="2.0"/>
<line x1="103.3" y1="332.2" x2="82.9" y2="343.9" opacity="1.0" stroke="rgb(0,0,0)" stroke-width="2.0"/>
<line x1="229.8" y1="259.1" x2="166.5" y2="295.7" opacity="1.0" stroke="rgb(0,0,0)" stroke-width="2.0"/>
<line x1="451.2" y1="277.4" x2="419.5" y2="259.1" opacity="1.0" stroke="rgb(0,0,0)" stroke-width="2.0"/>
<line x1="419.5" y1="259.1" x2="419.5" y2="222.6" opacity="1.0" stroke="rgb(0,0,0)" stroke-width="2.0"/>
<line x1="426.7" y1="253.1" x2="426.7" y2="228.6" opacity="1.0" stroke="rgb(0,0,0)" stroke-width="2.0"/>
<line x1="419.5" y1="222.6" x2="451.2" y2="204.3" opacity="1.0" stroke="rgb(0,0,0)" stroke-width="2.0"/>
<line x1="451.2" y1="204.3" x2="482.8" y2="222.6" opacity="1.0" stroke="rgb(0,0,0)" stroke-width="2.0"/>
<line x1="452.8" y1="213.6" x2="474.0" y2="225.8" opacity="1.0" stroke="rgb(0,0,0)" stroke-width="2.0"/>
<line x1="482.8" y1="222.6" x2="482.8" y2="259.1" opacity="1.0" stroke="rgb(0,0,0)" stroke-width="2.0"/>
<line x1="482.8" y1="259.1" x2="451.2" y2="277.4" opacity="1.0" stroke="rgb(0,0,0)" stroke-width="2.0"/>
<line x1="474.0" y1="255.9" x2="452.8" y2="268.2" opacity="1.0" stroke="rgb(0,0,0)" stroke-width="2.0"/>
<line x1="324.7" y1="94.8" x2="324.7" y2="58.3" opacity="1.0" stroke="rgb(0,0,0)" stroke-width="2.0"/>
<line x1="324.7" y1="58.3" x2="356.3" y2="40.0" opacity="1.0" stroke="rgb(0,0,0)" stroke-width="2.0"/>
<line x1="333.5" y1="61.5" x2="354.7" y2="49.2" opacity="1.0" stroke="rgb(0,0,0)" stroke-width="2.0"/>
<line x1="356.3" y1="40.0" x2="387.9" y2="58.3" opacity="1.0" stroke="rgb(0,0,0)" stroke-width="2.0"/>
<line x1="387.9" y1="58.3" x2="387.9" y2="94.8" opacity="1.0" stroke="rgb(0,0,0)" stroke-width="2.0"/>
<line x1="380.7" y1="64.3" x2="380.7" y2="88.8" opacity="1.0" stroke="rgb(0,0,0)" stroke-width="2.0"/>
<line x1="387.9" y1="94.8" x2="356.3" y2="113.0" opacity="1.0" stroke="rgb(0,0,0)" stroke-width="2.0"/>
<line x1="356.3" y1="113.0" x2="324.7" y2="94.8" opacity="1.0" stroke="rgb(0,0,0)" stroke-width="2.0"/>
<line x1="354.7" y1="103.8" x2="333.5" y2="91.5" opacity="1.0" stroke="rgb(0,0,0)" stroke-width="2.0"/>
<line x1="261.4" y1="167.8" x2="229.8" y2="149.6" opacity="1.0" stroke="rgb(0,0,0)" stroke-width="2.0"/>
<line x1="252.6" y1="171.1" x2="231.4" y2="158.8" opacity="1.0" stroke="rgb(0,0,0)" stroke-width="2.0"/>
<line x1="229.8" y1="149.6" x2="198.1" y2="167.8" opacity="1.0" stroke="rgb(0,0,0)" stroke-width="2.0"/>
<line x1="198.1" y1="167.8" x2="198.1" y2="204.3" opacity="1.0" stroke="rgb(0,0,0)" stroke-width="2.0"/>
<line x1="205.3" y1="173.8" x2="205.3" y2="198.3" opacity="1.0" stroke="rgb(0,0,0)" stroke-width="2.0"/>
<line x1="198.1" y1="204.3" x2="229.8" y2="222.6" opacity="1.0" stroke="rgb(0,0,0)" stroke-width="2.0"/>
<line x1="229.8" y1="222.6" x2="261.4" y2="204.3" opacity="1.0" stroke="rgb(0,0,0)" stroke-width="2.0"/>
<line x1="231.4" y1="213.4" x2="252.6" y2="201.1" opacity="1.0" stroke="rgb(0,0,0)" stroke-width="2.0"/>
<line x1="261.4" y1="204.3" x2="261.4" y2="167.8" opacity="1.0" stroke="rgb(0,0,0)" stroke-width="2.0"/>
<line x1="229.8" y1="259.1" x2="229.8" y2="222.6" opacity="1.0" stroke="rgb(0,0,0)" stroke-width="2.0"/>
<line x1="261.4" y1="204.3" x2="293.0" y2="222.6" opacity="1.0" stroke="rgb(0,0,0)" stroke-width="2.0"/>
<line x1="293.0" y1="222.6" x2="293.0" y2="259.1" opacity="1.0" stroke="rgb(0,0,0)" stroke-width="2.0"/>
<line x1="285.8" y1="228.6" x2="285.8" y2="253.1" opacity="1.0" stroke="rgb(0,0,0)" stroke-width="2.0"/>
<line x1="293.0" y1="259.1" x2="261.4" y2="277.4" opacity="1.0" stroke="rgb(0,0,0)" stroke-width="2.0"/>
<line x1="261.4" y1="277.4" x2="229.8" y2="259.1" opacity="1.0" stroke="rgb(0,0,0)" stroke-width="2.0"/>
<line x1="259.8" y1="268.2" x2="238.6" y2="255.9" opacity="1.0" stroke="rgb(0,0,0)" stroke-width="2.0"/>
<line x1="324.7" y1="313.9" x2="293.0" y2="332.2" opacity="1.0" stroke="rgb(0,0,0)" stroke-width="2.0"/>
<line x1="293.0" y1="332.2" x2="261.4" y2="313.9" opacity="1.0" stroke="rgb(0,0,0)" stroke-width="2.0"/>
<line x1="291.4" y1="322.9" x2="270.2" y2="310.7" opacity="1.0" stroke="rgb(0,0,0)" stroke-width="2.0"/>
<line x1="261.4" y1="313.9" x2="261.4" y2="277.4" opacity="1.0" stroke="rgb(0,0,0)" stroke-width="2.0"/>
<line x1="293.0" y1="259.1" x2="324.7" y2="277.4" opacity="1.0" stroke="rgb(0,0,0)" stroke-width="2.0"/>
<line x1="324.7" y1="277.4" x2="324.7" y2="313.9" opacity="1.0" stroke="rgb(0,0,0)" stroke-width="2.0"/>
<line x1="317.5" y1="283.4" x2="317.5" y2="307.9" opacity="1.0" stroke="rgb(0,0,0)" stroke-width="2.0"/>
<line x1="166.5" y1="332.2" x2="134.9" y2="350.4" opacity="1.0" stroke="rgb(0,0,0)" stroke-width="2.0"/>
<line x1="134.9" y1="350.4" x2="103.3" y2="332.2" opacity="1.0" stroke="rgb(0,0,0)" stroke-width="2.0"/>
<line x1="133.3" y1="341.2" x2="112.1" y2="328.9" opacity="1.0" stroke="rgb(0,0,0)" stroke-width="2.0"/>
<line x1="103.3" y1="332.2" x2="103.3" y2="295.7" opacity="1.0" stroke="rgb(0,0,0)" stroke-width="2.0"/>
<line x1="103.3" y1="295.7" x2="134.9" y2="277.4" opacity="1.0" stroke="rgb(0,0,0)" stroke-width="2.0"/>
<line x1="112.1" y1="298.9" x2="133.3" y2="286.6" opacity="1.0" stroke="rgb(0,0,0)" stroke-width="2.0"/>
<line x1="134.9" y1="277.4" x2="166.5" y2="295.7" opacity="1.0" stroke="rgb(0,0,0)" stroke-width="2.0"/>
<line x1="166.5" y1="295.7" x2="166.5" y2="332.2" opacity="1.0" stroke="rgb(0,0,0)" stroke-width="2.0"/>
<line x1="159.3" y1="301.7" x2="159.3" y2="326.2" opacity="1.0" stroke="rgb(0,0,0)" stroke-width="2.0"/>
<text x="65.628754" y="358.434783" fill="rgb(255,12,12)" stroke-width="0" font-weight="bold" font-size="16">O</text>
<text x="14.000000" y="340.173913" fill="rgb(102,102,102)" stroke-width="0" font-weight="bold" font-size="16">H</text>
<text x="26.000000" y="343.853913" fill="rgb(102,102,102)" stroke-width="0" font-weight="bold" font-size="13">3</text>
<text x="32.500000" y="340.173913" fill="rgb(102,102,102)" stroke-width="0" font-weight="bold" font-size="16">C</text>
<text x="350.287539" y="194.086957" fill="rgb(12,12,255)" stroke-width="0" font-weight="bold" font-size="16">N</text>
<text x="508.431308" y="285.391304" fill="rgb(255,12,12)" stroke-width="0" font-weight="bold" font-size="16">O</text>
<text x="510.431308" y="321.913043" fill="rgb(102,102,102)" stroke-width="0" font-weight="bold" font-size="16">CH</text>
<text x="534.431308" y="325.593043" fill="rgb(102,102,102)" stroke-width="0" font-weight="bold" font-size="13">3</text>
</svg>
</g>
</svg>