<svg xmlns="http://www.w3.org/2000/svg" xmlns:xlink="http://www.w3.org/1999/xlink" xmlns:cml="http://www.xml-cml.org/schema" version="1.1" id="topsvg" x="0" y="0" viewBox="0 0 100 100">
<title>E_3_N - Open Babel Depiction</title>
<rect x="0" y="0" width="100" height="100" fill="white"/>
<g transform="translate(0,0)">
<svg width="100" height="100" x="0" y="0" viewBox="0 0 483.023 377.577" font-family="sans-serif" stroke="rgb(0,0,0)" stroke-width="2" stroke-linecap="round">
<line x1="348.8" y1="221.4" x2="297.2" y2="191.6" opacity="1.0" stroke="rgb(0,0,0)" stroke-width="2.0"/>
<line x1="285.9" y1="172.1" x2="285.9" y2="112.6" opacity="1.0" stroke="rgb(0,0,0)" stroke-width="2.0"/>
<line x1="443.0" y1="288.8" x2="443.0" y2="299.1" opacity="1.0" stroke="rgb(0,0,0)" stroke-width="2.0"/>
<line x1="411.6" y1="257.7" x2="431.8" y2="269.3" opacity="1.0" stroke="rgb(0,0,0)" stroke-width="2.0"/>
<line x1="274.7" y1="191.6" x2="223.1" y2="221.4" opacity="1.0" stroke="rgb(0,0,0)" stroke-width="2.0"/>
<line x1="160.3" y1="257.7" x2="97.4" y2="294.0" opacity="1.0" stroke="rgb(0,0,0)" stroke-width="2.0"/>
<line x1="93.6" y1="330.0" x2="70.9" y2="334.9" opacity="1.0" stroke="rgb(0,0,0)" stroke-width="2.0"/>
<line x1="51.6" y1="326.3" x2="40.0" y2="306.2" opacity="1.0" stroke="rgb(0,0,0)" stroke-width="2.0"/>
<line x1="40.0" y1="306.2" x2="64.3" y2="279.2" opacity="1.0" stroke="rgb(0,0,0)" stroke-width="2.0"/>
<line x1="49.4" y1="306.5" x2="65.6" y2="288.5" opacity="1.0" stroke="rgb(0,0,0)" stroke-width="2.0"/>
<line x1="64.3" y1="279.2" x2="97.4" y2="294.0" opacity="1.0" stroke="rgb(0,0,0)" stroke-width="2.0"/>
<line x1="97.4" y1="294.0" x2="93.6" y2="330.0" opacity="1.0" stroke="rgb(0,0,0)" stroke-width="2.0"/>
<line x1="89.6" y1="299.2" x2="87.1" y2="323.3" opacity="1.0" stroke="rgb(0,0,0)" stroke-width="2.0"/>
<line x1="380.2" y1="275.8" x2="348.8" y2="257.7" opacity="1.0" stroke="rgb(0,0,0)" stroke-width="2.0"/>
<line x1="348.8" y1="257.7" x2="348.8" y2="221.4" opacity="1.0" stroke="rgb(0,0,0)" stroke-width="2.0"/>
<line x1="356.0" y1="251.7" x2="356.0" y2="227.4" opacity="1.0" stroke="rgb(0,0,0)" stroke-width="2.0"/>
<line x1="348.8" y1="221.4" x2="380.2" y2="203.3" opacity="1.0" stroke="rgb(0,0,0)" stroke-width="2.0"/>
<line x1="380.2" y1="203.3" x2="411.6" y2="221.4" opacity="1.0" stroke="rgb(0,0,0)" stroke-width="2.0"/>
<line x1="381.8" y1="212.5" x2="402.8" y2="224.6" opacity="1.0" stroke="rgb(0,0,0)" stroke-width="2.0"/>
<line x1="411.6" y1="221.4" x2="411.6" y2="257.7" opacity="1.0" stroke="rgb(0,0,0)" stroke-width="2.0"/>
<line x1="411.6" y1="257.7" x2="380.2" y2="275.8" opacity="1.0" stroke="rgb(0,0,0)" stroke-width="2.0"/>
<line x1="402.8" y1="254.4" x2="381.8" y2="266.6" opacity="1.0" stroke="rgb(0,0,0)" stroke-width="2.0"/>
<line x1="254.5" y1="94.4" x2="254.5" y2="58.1" opacity="1.0" stroke="rgb(0,0,0)" stroke-width="2.0"/>
<line x1="254.5" y1="58.1" x2="285.9" y2="40.0" opacity="1.0" stroke="rgb(0,0,0)" stroke-width="2.0"/>
<line x1="263.3" y1="61.4" x2="284.3" y2="49.2" opacity="1.0" stroke="rgb(0,0,0)" stroke-width="2.0"/>
<line x1="285.9" y1="40.0" x2="317.3" y2="58.1" opacity="1.0" stroke="rgb(0,0,0)" stroke-width="2.0"/>
<line x1="317.3" y1="58.1" x2="317.3" y2="94.4" opacity="1.0" stroke="rgb(0,0,0)" stroke-width="2.0"/>
<line x1="310.1" y1="64.1" x2="310.1" y2="88.4" opacity="1.0" stroke="rgb(0,0,0)" stroke-width="2.0"/>
<line x1="317.3" y1="94.4" x2="285.9" y2="112.6" opacity="1.0" stroke="rgb(0,0,0)" stroke-width="2.0"/>
<line x1="285.9" y1="112.6" x2="254.5" y2="94.4" opacity="1.0" stroke="rgb(0,0,0)" stroke-width="2.0"/>
<line x1="284.3" y1="103.3" x2="263.3" y2="91.2" opacity="1.0" stroke="rgb(0,0,0)" stroke-width="2.0"/>
<line x1="191.7" y1="167.0" x2="160.3" y2="148.8" opacity="1.0" stroke="rgb(0,0,0)" stroke-width="2.0"/>
<line x1="182.9" y1="170.2" x2="161.9" y2="158.1" opacity="1.0" stroke="rgb(0,0,0)" stroke-width="2.0"/>
<line x1="160.3" y1="148.8" x2="128.8" y2="167.0" opacity="1.0" stroke="rgb(0,0,0)" stroke-width="2.0"/>
<line x1="128.8" y1="167.0" x2="128.8" y2="203.3" opacity="1.0" stroke="rgb(0,0,0)" stroke-width="2.0"/>
<line x1="136.0" y1="173.0" x2="136.0" y2="197.3" opacity="1.0" stroke="rgb(0,0,0)" stroke-width="2.0"/>
<line x1="128.8" y1="203.3" x2="160.3" y2="221.4" opacity="1.0" stroke="rgb(0,0,0)" stroke-width="2.0"/>
<line x1="160.3" y1="221.4" x2="191.7" y2="203.3" opacity="1.0" stroke="rgb(0,0,0)" stroke-width="2.0"/>
<line x1="161.9" y1="212.2" x2="182.9" y2="200.0" opacity="1.0" stroke="rgb(0,0,0)" stroke-width="2.0"/>
<line x1="191.7" y1="203.3" x2="191.7" y2="167.0" opacity="1.0" stroke="rgb(0,0,0)" stroke-width="2.0"/>
<line x1="160.3" y1="257.7" x2="160.3" y2="221.4" opacity="1.0" stroke="rgb(0,0,0)" stroke-width="2.0"/>
<line x1="191.7" y1="203.3" x2="223.1" y2="221.4" opacity="1.0" stroke="rgb(0,0,0)" stroke-width="2.0"/>
<line x1="223.1" y1="221.4" x2="223.1" y2="257.7" opacity="1.0" stroke="rgb(0,0,0)" stroke-width="2.0"/>
<line x1="215.9" y1="227.4" x2="215.9" y2="251.7" opacity="1.0" stroke="rgb(0,0,0)" stroke-width="2.0"/>
<line x1="223.1" y1="257.7" x2="191.7" y2="275.8" opacity="1.0" stroke="rgb(0,0,0)" stroke-width="2.0"/>
<line x1="191.7" y1="275.8" x2="160.3" y2="257.7" opacity="1.0" stroke="rgb(0,0,0)" stroke-width="2.0"/>
<line x1="190.1" y1="266.6" x2="169.1" y2="254.4" opacity="1.0" stroke="rgb(0,0,0)" stroke-width="2.0"/>
<line x1="254.5" y1="312.1" x2="223.1" y2="330.2" opacity="1.0" stroke="rgb(0,0,0)" stroke-width="2.0"/>
<line x1="223.1" y1="330.2" x2="191.7" y2="312.1" opacity="1.0" stroke="rgb(0,0,0)" stroke-width="2.0"/>
<line x1="221.5" y1="321.0" x2="200.5" y2="308.9" opacity="1.0" stroke="rgb(0,0,0)" stroke-width="2.0"/>
<line x1="191.7" y1="312.1" x2="191.7" y2="275.8" opacity="1.0" stroke="rgb(0,0,0)" stroke-width="2.0"/>
<line x1="223.1" y1="257.7" x2="254.5" y2="275.8" opacity="1.0" stroke="rgb(0,0,0)" stroke-width="2.0"/>
<line x1="254.5" y1="275.8" x2="254.5" y2="312.1" opacity="1.0" stroke="rgb(0,0,0)" stroke-width="2.0"/>
<line x1="247.3" y1="281.8" x2="247.3" y2="306.1" opacity="1.0" stroke="rgb(0,0,0)" stroke-width="2.0"/>
<text x="52.139535" y="345.576660" fill="rgb(178,178,0)" stroke-width="0" font-weight="bold" font-size="16">S</text>
<text x="279.929592" y="193.116279" fill="rgb(12,12,255)" stroke-width="0" font-weight="bold" font-size="16">N</text>
<text x="437.022572" y="283.813953" fill="rgb(255,12,12)" stroke-width="0" font-weight="bold" font-size="16">O</text>
<text x="439.022572" y="320.093023" fill="rgb(102,102,102)" stroke-width="0" font-weight="bold" font-size="16">CH</text>
<text x="463.022572" y="323.773023" fill="rgb(102,102,102)" stroke-width="0" font-weight="bold" font-size="13">3</text>
</svg>
</g>
</svg>