<svg xmlns="http://www.w3.org/2000/svg" xmlns:xlink="http://www.w3.org/1999/xlink" xmlns:cml="http://www.xml-cml.org/schema" version="1.1" id="topsvg" x="0" y="0" viewBox="0 0 100 100">
<title>E_3_K - Open Babel Depiction</title>
<rect x="0" y="0" width="100" height="100" fill="white"/>
<g transform="translate(0,0)">
<svg width="100" height="100" x="0" y="0" viewBox="0 0 555.393 427.66" font-family="sans-serif" stroke="rgb(0,0,0)" stroke-width="2" stroke-linecap="round">
<line x1="135.1" y1="204.7" x2="187.2" y2="234.8" opacity="1.0" stroke="rgb(0,0,0)" stroke-width="2.0"/>
<line x1="198.5" y1="254.3" x2="198.5" y2="314.5" opacity="1.0" stroke="rgb(0,0,0)" stroke-width="2.0"/>
<line x1="40.0" y1="136.8" x2="40.0" y2="126.2" opacity="1.0" stroke="rgb(0,0,0)" stroke-width="2.0"/>
<line x1="71.7" y1="168.1" x2="51.3" y2="156.3" opacity="1.0" stroke="rgb(0,0,0)" stroke-width="2.0"/>
<line x1="209.7" y1="234.8" x2="261.8" y2="204.7" opacity="1.0" stroke="rgb(0,0,0)" stroke-width="2.0"/>
<line x1="496.5" y1="80.5" x2="505.6" y2="85.8" opacity="1.0" stroke="rgb(0,0,0)" stroke-width="2.0"/>
<line x1="493.5" y1="85.7" x2="502.6" y2="91.0" opacity="1.0" stroke="rgb(0,0,0)" stroke-width="2.0"/>
<line x1="483.7" y1="63.6" x2="483.7" y2="53.0" opacity="1.0" stroke="rgb(0,0,0)" stroke-width="2.0"/>
<line x1="452.0" y1="94.9" x2="472.4" y2="83.1" opacity="1.0" stroke="rgb(0,0,0)" stroke-width="2.0"/>
<line x1="325.2" y1="168.1" x2="388.6" y2="131.5" opacity="1.0" stroke="rgb(0,0,0)" stroke-width="2.0"/>
<line x1="103.4" y1="149.8" x2="135.1" y2="168.1" opacity="1.0" stroke="rgb(0,0,0)" stroke-width="2.0"/>
<line x1="135.1" y1="168.1" x2="135.1" y2="204.7" opacity="1.0" stroke="rgb(0,0,0)" stroke-width="2.0"/>
<line x1="127.9" y1="174.1" x2="127.9" y2="198.7" opacity="1.0" stroke="rgb(0,0,0)" stroke-width="2.0"/>
<line x1="135.1" y1="204.7" x2="103.4" y2="223.0" opacity="1.0" stroke="rgb(0,0,0)" stroke-width="2.0"/>
<line x1="103.4" y1="223.0" x2="71.7" y2="204.7" opacity="1.0" stroke="rgb(0,0,0)" stroke-width="2.0"/>
<line x1="101.8" y1="213.7" x2="80.5" y2="201.4" opacity="1.0" stroke="rgb(0,0,0)" stroke-width="2.0"/>
<line x1="71.7" y1="204.7" x2="71.7" y2="168.1" opacity="1.0" stroke="rgb(0,0,0)" stroke-width="2.0"/>
<line x1="71.7" y1="168.1" x2="103.4" y2="149.8" opacity="1.0" stroke="rgb(0,0,0)" stroke-width="2.0"/>
<line x1="80.5" y1="171.3" x2="101.8" y2="159.0" opacity="1.0" stroke="rgb(0,0,0)" stroke-width="2.0"/>
<line x1="230.2" y1="332.8" x2="230.2" y2="369.4" opacity="1.0" stroke="rgb(0,0,0)" stroke-width="2.0"/>
<line x1="230.2" y1="369.4" x2="198.5" y2="387.7" opacity="1.0" stroke="rgb(0,0,0)" stroke-width="2.0"/>
<line x1="221.4" y1="366.1" x2="200.1" y2="378.4" opacity="1.0" stroke="rgb(0,0,0)" stroke-width="2.0"/>
<line x1="198.5" y1="387.7" x2="166.8" y2="369.4" opacity="1.0" stroke="rgb(0,0,0)" stroke-width="2.0"/>
<line x1="166.8" y1="369.4" x2="166.8" y2="332.8" opacity="1.0" stroke="rgb(0,0,0)" stroke-width="2.0"/>
<line x1="174.0" y1="363.4" x2="174.0" y2="338.8" opacity="1.0" stroke="rgb(0,0,0)" stroke-width="2.0"/>
<line x1="166.8" y1="332.8" x2="198.5" y2="314.5" opacity="1.0" stroke="rgb(0,0,0)" stroke-width="2.0"/>
<line x1="198.5" y1="314.5" x2="230.2" y2="332.8" opacity="1.0" stroke="rgb(0,0,0)" stroke-width="2.0"/>
<line x1="200.1" y1="323.7" x2="221.4" y2="336.0" opacity="1.0" stroke="rgb(0,0,0)" stroke-width="2.0"/>
<line x1="293.5" y1="259.6" x2="325.2" y2="277.9" opacity="1.0" stroke="rgb(0,0,0)" stroke-width="2.0"/>
<line x1="302.3" y1="256.3" x2="323.6" y2="268.6" opacity="1.0" stroke="rgb(0,0,0)" stroke-width="2.0"/>
<line x1="325.2" y1="277.9" x2="356.9" y2="259.6" opacity="1.0" stroke="rgb(0,0,0)" stroke-width="2.0"/>
<line x1="356.9" y1="259.6" x2="356.9" y2="223.0" opacity="1.0" stroke="rgb(0,0,0)" stroke-width="2.0"/>
<line x1="349.7" y1="253.6" x2="349.7" y2="229.0" opacity="1.0" stroke="rgb(0,0,0)" stroke-width="2.0"/>
<line x1="356.9" y1="223.0" x2="325.2" y2="204.7" opacity="1.0" stroke="rgb(0,0,0)" stroke-width="2.0"/>
<line x1="325.2" y1="204.7" x2="293.5" y2="223.0" opacity="1.0" stroke="rgb(0,0,0)" stroke-width="2.0"/>
<line x1="323.6" y1="213.9" x2="302.3" y2="226.2" opacity="1.0" stroke="rgb(0,0,0)" stroke-width="2.0"/>
<line x1="293.5" y1="223.0" x2="293.5" y2="259.6" opacity="1.0" stroke="rgb(0,0,0)" stroke-width="2.0"/>
<line x1="325.2" y1="168.1" x2="325.2" y2="204.7" opacity="1.0" stroke="rgb(0,0,0)" stroke-width="2.0"/>
<line x1="293.5" y1="223.0" x2="261.8" y2="204.7" opacity="1.0" stroke="rgb(0,0,0)" stroke-width="2.0"/>
<line x1="261.8" y1="204.7" x2="261.8" y2="168.1" opacity="1.0" stroke="rgb(0,0,0)" stroke-width="2.0"/>
<line x1="269.0" y1="198.7" x2="269.0" y2="174.1" opacity="1.0" stroke="rgb(0,0,0)" stroke-width="2.0"/>
<line x1="261.8" y1="168.1" x2="293.5" y2="149.8" opacity="1.0" stroke="rgb(0,0,0)" stroke-width="2.0"/>
<line x1="293.5" y1="149.8" x2="325.2" y2="168.1" opacity="1.0" stroke="rgb(0,0,0)" stroke-width="2.0"/>
<line x1="295.1" y1="159.0" x2="316.4" y2="171.3" opacity="1.0" stroke="rgb(0,0,0)" stroke-width="2.0"/>
<line x1="230.2" y1="113.2" x2="261.8" y2="94.9" opacity="1.0" stroke="rgb(0,0,0)" stroke-width="2.0"/>
<line x1="261.8" y1="94.9" x2="293.5" y2="113.2" opacity="1.0" stroke="rgb(0,0,0)" stroke-width="2.0"/>
<line x1="263.4" y1="104.1" x2="284.7" y2="116.4" opacity="1.0" stroke="rgb(0,0,0)" stroke-width="2.0"/>
<line x1="293.5" y1="113.2" x2="293.5" y2="149.8" opacity="1.0" stroke="rgb(0,0,0)" stroke-width="2.0"/>
<line x1="261.8" y1="168.1" x2="230.2" y2="149.8" opacity="1.0" stroke="rgb(0,0,0)" stroke-width="2.0"/>
<line x1="230.2" y1="149.8" x2="230.2" y2="113.2" opacity="1.0" stroke="rgb(0,0,0)" stroke-width="2.0"/>
<line x1="237.4" y1="143.8" x2="237.4" y2="119.2" opacity="1.0" stroke="rgb(0,0,0)" stroke-width="2.0"/>
<line x1="388.6" y1="94.9" x2="420.3" y2="76.6" opacity="1.0" stroke="rgb(0,0,0)" stroke-width="2.0"/>
<line x1="420.3" y1="76.6" x2="452.0" y2="94.9" opacity="1.0" stroke="rgb(0,0,0)" stroke-width="2.0"/>
<line x1="421.9" y1="85.8" x2="443.2" y2="98.1" opacity="1.0" stroke="rgb(0,0,0)" stroke-width="2.0"/>
<line x1="452.0" y1="94.9" x2="452.0" y2="131.5" opacity="1.0" stroke="rgb(0,0,0)" stroke-width="2.0"/>
<line x1="452.0" y1="131.5" x2="420.3" y2="149.8" opacity="1.0" stroke="rgb(0,0,0)" stroke-width="2.0"/>
<line x1="443.2" y1="128.3" x2="421.9" y2="140.6" opacity="1.0" stroke="rgb(0,0,0)" stroke-width="2.0"/>
<line x1="420.3" y1="149.8" x2="388.6" y2="131.5" opacity="1.0" stroke="rgb(0,0,0)" stroke-width="2.0"/>
<line x1="388.6" y1="131.5" x2="388.6" y2="94.9" opacity="1.0" stroke="rgb(0,0,0)" stroke-width="2.0"/>
<line x1="395.8" y1="125.5" x2="395.8" y2="100.9" opacity="1.0" stroke="rgb(0,0,0)" stroke-width="2.0"/>
<text x="477.699824" y="84.595745" fill="rgb(12,12,255)" stroke-width="0" font-weight="bold" font-size="16">N</text>
<text x="509.392668" y="102.893617" fill="rgb(255,12,12)" stroke-width="0" font-weight="bold" font-size="16">O</text>
<text x="488.499824" y="35.968000" fill="rgb(255,12,12)" stroke-width="0" font-weight="bold" font-size="16"/>
<text x="488.499824" y="35.968000" fill="rgb(255,12,12)" stroke-width="0" font-weight="bold" font-size="32">.</text>
<text x="477.699824" y="48.000000" fill="rgb(255,12,12)" stroke-width="0" font-weight="bold" font-size="16">O</text>
<text x="192.464223" y="249.276596" fill="rgb(12,12,255)" stroke-width="0" font-weight="bold" font-size="16">N</text>
<text x="34.000000" y="157.787234" fill="rgb(255,12,12)" stroke-width="0" font-weight="bold" font-size="16">O</text>
<text x="36.000000" y="121.191489" fill="rgb(102,102,102)" stroke-width="0" font-weight="bold" font-size="16">CH</text>
<text x="60.000000" y="124.871489" fill="rgb(102,102,102)" stroke-width="0" font-weight="bold" font-size="13">3</text>
</svg>
</g>
</svg>