<svg xmlns="http://www.w3.org/2000/svg" xmlns:xlink="http://www.w3.org/1999/xlink" xmlns:cml="http://www.xml-cml.org/schema" version="1.1" id="topsvg" x="0" y="0" viewBox="0 0 100 100">
<title>E_4_S - Open Babel Depiction</title>
<rect x="0" y="0" width="100" height="100" fill="white"/>
<g transform="translate(0,0)">
<svg width="100" height="100" x="0" y="0" viewBox="0 0 505.991 363.784" font-family="sans-serif" stroke="rgb(0,0,0)" stroke-width="2" stroke-linecap="round">
<line x1="367.7" y1="229.2" x2="313.4" y2="197.9" opacity="1.0" stroke="rgb(0,0,0)" stroke-width="2.0"/>
<line x1="302.1" y1="178.4" x2="302.1" y2="115.7" opacity="1.0" stroke="rgb(0,0,0)" stroke-width="2.0"/>
<line x1="466.0" y1="298.9" x2="466.0" y2="310.8" opacity="1.0" stroke="rgb(0,0,0)" stroke-width="2.0"/>
<line x1="433.2" y1="267.0" x2="454.7" y2="279.4" opacity="1.0" stroke="rgb(0,0,0)" stroke-width="2.0"/>
<line x1="247.9" y1="311.4" x2="258.1" y2="317.3" opacity="1.0" stroke="rgb(0,0,0)" stroke-width="2.0"/>
<line x1="236.6" y1="267.0" x2="236.6" y2="291.9" opacity="1.0" stroke="rgb(0,0,0)" stroke-width="2.0"/>
<line x1="290.9" y1="197.9" x2="269.4" y2="210.3" opacity="1.0" stroke="rgb(0,0,0)" stroke-width="2.0"/>
<line x1="105.5" y1="153.5" x2="72.8" y2="134.6" opacity="1.0" stroke="rgb(0,0,0)" stroke-width="2.0"/>
<line x1="72.8" y1="134.6" x2="72.8" y2="109.8" opacity="1.0" stroke="rgb(0,0,0)" stroke-width="2.0"/>
<line x1="74.3" y1="137.2" x2="52.8" y2="149.6" opacity="1.0" stroke="rgb(0,0,0)" stroke-width="2.0"/>
<line x1="71.3" y1="132.0" x2="49.8" y2="144.4" opacity="1.0" stroke="rgb(0,0,0)" stroke-width="2.0"/>
<line x1="203.8" y1="210.3" x2="171.1" y2="191.4" opacity="1.0" stroke="rgb(0,0,0)" stroke-width="2.0"/>
<line x1="400.5" y1="285.9" x2="367.7" y2="267.0" opacity="1.0" stroke="rgb(0,0,0)" stroke-width="2.0"/>
<line x1="367.7" y1="267.0" x2="367.7" y2="229.2" opacity="1.0" stroke="rgb(0,0,0)" stroke-width="2.0"/>
<line x1="374.9" y1="261.0" x2="374.9" y2="235.2" opacity="1.0" stroke="rgb(0,0,0)" stroke-width="2.0"/>
<line x1="367.7" y1="229.2" x2="400.5" y2="210.3" opacity="1.0" stroke="rgb(0,0,0)" stroke-width="2.0"/>
<line x1="400.5" y1="210.3" x2="433.2" y2="229.2" opacity="1.0" stroke="rgb(0,0,0)" stroke-width="2.0"/>
<line x1="402.0" y1="219.5" x2="424.4" y2="232.4" opacity="1.0" stroke="rgb(0,0,0)" stroke-width="2.0"/>
<line x1="433.2" y1="229.2" x2="433.2" y2="267.0" opacity="1.0" stroke="rgb(0,0,0)" stroke-width="2.0"/>
<line x1="433.2" y1="267.0" x2="400.5" y2="285.9" opacity="1.0" stroke="rgb(0,0,0)" stroke-width="2.0"/>
<line x1="424.4" y1="263.8" x2="402.0" y2="276.7" opacity="1.0" stroke="rgb(0,0,0)" stroke-width="2.0"/>
<line x1="269.4" y1="96.8" x2="269.4" y2="58.9" opacity="1.0" stroke="rgb(0,0,0)" stroke-width="2.0"/>
<line x1="269.4" y1="58.9" x2="302.1" y2="40.0" opacity="1.0" stroke="rgb(0,0,0)" stroke-width="2.0"/>
<line x1="278.2" y1="62.2" x2="300.6" y2="49.2" opacity="1.0" stroke="rgb(0,0,0)" stroke-width="2.0"/>
<line x1="302.1" y1="40.0" x2="334.9" y2="58.9" opacity="1.0" stroke="rgb(0,0,0)" stroke-width="2.0"/>
<line x1="334.9" y1="58.9" x2="334.9" y2="96.8" opacity="1.0" stroke="rgb(0,0,0)" stroke-width="2.0"/>
<line x1="327.7" y1="64.9" x2="327.7" y2="90.8" opacity="1.0" stroke="rgb(0,0,0)" stroke-width="2.0"/>
<line x1="334.9" y1="96.8" x2="302.1" y2="115.7" opacity="1.0" stroke="rgb(0,0,0)" stroke-width="2.0"/>
<line x1="302.1" y1="115.7" x2="269.4" y2="96.8" opacity="1.0" stroke="rgb(0,0,0)" stroke-width="2.0"/>
<line x1="300.6" y1="106.4" x2="278.2" y2="93.5" opacity="1.0" stroke="rgb(0,0,0)" stroke-width="2.0"/>
<line x1="269.4" y1="248.1" x2="236.6" y2="267.0" opacity="1.0" stroke="rgb(0,0,0)" stroke-width="2.0"/>
<line x1="236.6" y1="267.0" x2="203.8" y2="248.1" opacity="1.0" stroke="rgb(0,0,0)" stroke-width="2.0"/>
<line x1="235.0" y1="257.8" x2="212.6" y2="244.9" opacity="1.0" stroke="rgb(0,0,0)" stroke-width="2.0"/>
<line x1="203.8" y1="248.1" x2="203.8" y2="210.3" opacity="1.0" stroke="rgb(0,0,0)" stroke-width="2.0"/>
<line x1="203.8" y1="210.3" x2="236.6" y2="191.4" opacity="1.0" stroke="rgb(0,0,0)" stroke-width="2.0"/>
<line x1="212.6" y1="213.5" x2="235.0" y2="200.6" opacity="1.0" stroke="rgb(0,0,0)" stroke-width="2.0"/>
<line x1="236.6" y1="191.4" x2="269.4" y2="210.3" opacity="1.0" stroke="rgb(0,0,0)" stroke-width="2.0"/>
<line x1="269.4" y1="210.3" x2="269.4" y2="248.1" opacity="1.0" stroke="rgb(0,0,0)" stroke-width="2.0"/>
<line x1="262.2" y1="216.3" x2="262.2" y2="242.1" opacity="1.0" stroke="rgb(0,0,0)" stroke-width="2.0"/>
<line x1="138.3" y1="210.3" x2="105.5" y2="191.4" opacity="1.0" stroke="rgb(0,0,0)" stroke-width="2.0"/>
<line x1="105.5" y1="191.4" x2="105.5" y2="153.5" opacity="1.0" stroke="rgb(0,0,0)" stroke-width="2.0"/>
<line x1="112.7" y1="185.4" x2="112.7" y2="159.5" opacity="1.0" stroke="rgb(0,0,0)" stroke-width="2.0"/>
<line x1="105.5" y1="153.5" x2="138.3" y2="134.6" opacity="1.0" stroke="rgb(0,0,0)" stroke-width="2.0"/>
<line x1="138.3" y1="134.6" x2="171.1" y2="153.5" opacity="1.0" stroke="rgb(0,0,0)" stroke-width="2.0"/>
<line x1="139.9" y1="143.8" x2="162.3" y2="156.7" opacity="1.0" stroke="rgb(0,0,0)" stroke-width="2.0"/>
<line x1="171.1" y1="153.5" x2="171.1" y2="191.4" opacity="1.0" stroke="rgb(0,0,0)" stroke-width="2.0"/>
<line x1="171.1" y1="191.4" x2="138.3" y2="210.3" opacity="1.0" stroke="rgb(0,0,0)" stroke-width="2.0"/>
<line x1="162.3" y1="188.1" x2="139.9" y2="201.0" opacity="1.0" stroke="rgb(0,0,0)" stroke-width="2.0"/>
<text x="34.000000" y="161.513514" fill="rgb(255,12,12)" stroke-width="0" font-weight="bold" font-size="16">O</text>
<text x="68.768529" y="104.756757" fill="rgb(102,102,102)" stroke-width="0" font-weight="bold" font-size="16">CH</text>
<text x="92.768529" y="108.436757" fill="rgb(102,102,102)" stroke-width="0" font-weight="bold" font-size="13">3</text>
<text x="265.379702" y="331.783784" fill="rgb(102,102,102)" stroke-width="0" font-weight="bold" font-size="16">CH</text>
<text x="289.379702" y="335.463784" fill="rgb(102,102,102)" stroke-width="0" font-weight="bold" font-size="13">3</text>
<text x="230.611173" y="312.864865" fill="rgb(255,12,12)" stroke-width="0" font-weight="bold" font-size="16">O</text>
<text x="461.990874" y="331.783784" fill="rgb(102,102,102)" stroke-width="0" font-weight="bold" font-size="16">CH</text>
<text x="485.990874" y="335.463784" fill="rgb(102,102,102)" stroke-width="0" font-weight="bold" font-size="13">3</text>
<text x="459.990874" y="293.945946" fill="rgb(255,12,12)" stroke-width="0" font-weight="bold" font-size="16">O</text>
<text x="296.148230" y="199.351351" fill="rgb(12,12,255)" stroke-width="0" font-weight="bold" font-size="16">N</text>
</svg>
</g>
</svg>