<svg xmlns="http://www.w3.org/2000/svg" xmlns:xlink="http://www.w3.org/1999/xlink" xmlns:cml="http://www.xml-cml.org/schema" version="1.1" id="topsvg" x="0" y="0" viewBox="0 0 100 100">
<title>E_6_L - Open Babel Depiction</title>
<rect x="0" y="0" width="100" height="100" fill="white"/>
<g transform="translate(0,0)">
<svg width="100" height="100" x="0" y="0" viewBox="0 0 490.99 432.857" font-family="sans-serif" stroke="rgb(0,0,0)" stroke-width="2" stroke-linecap="round">
<line x1="322.3" y1="262.9" x2="322.3" y2="201.6" opacity="1.0" stroke="rgb(0,0,0)" stroke-width="2.0"/>
<line x1="333.6" y1="182.1" x2="386.7" y2="151.4" opacity="1.0" stroke="rgb(0,0,0)" stroke-width="2.0"/>
<line x1="333.6" y1="380.8" x2="343.2" y2="386.4" opacity="1.0" stroke="rgb(0,0,0)" stroke-width="2.0"/>
<line x1="322.3" y1="337.1" x2="322.3" y2="361.3" opacity="1.0" stroke="rgb(0,0,0)" stroke-width="2.0"/>
<line x1="311.1" y1="182.1" x2="290.2" y2="170.0" opacity="1.0" stroke="rgb(0,0,0)" stroke-width="2.0"/>
<line x1="225.8" y1="132.9" x2="161.5" y2="95.7" opacity="1.0" stroke="rgb(0,0,0)" stroke-width="2.0"/>
<line x1="40.0" y1="77.1" x2="61.8" y2="107.2" opacity="1.0" stroke="rgb(0,0,0)" stroke-width="2.0"/>
<line x1="49.4" y1="77.8" x2="64.1" y2="98.1" opacity="1.0" stroke="rgb(0,0,0)" stroke-width="2.0"/>
<line x1="61.8" y1="107.2" x2="97.2" y2="95.7" opacity="1.0" stroke="rgb(0,0,0)" stroke-width="2.0"/>
<line x1="97.2" y1="95.7" x2="97.2" y2="58.6" opacity="1.0" stroke="rgb(0,0,0)" stroke-width="2.0"/>
<line x1="97.2" y1="58.6" x2="74.2" y2="51.1" opacity="1.0" stroke="rgb(0,0,0)" stroke-width="2.0"/>
<line x1="54.2" y1="57.6" x2="40.0" y2="77.1" opacity="1.0" stroke="rgb(0,0,0)" stroke-width="2.0"/>
<line x1="290.2" y1="318.6" x2="290.2" y2="281.4" opacity="1.0" stroke="rgb(0,0,0)" stroke-width="2.0"/>
<line x1="290.2" y1="281.4" x2="322.3" y2="262.9" opacity="1.0" stroke="rgb(0,0,0)" stroke-width="2.0"/>
<line x1="299.0" y1="284.7" x2="320.7" y2="272.1" opacity="1.0" stroke="rgb(0,0,0)" stroke-width="2.0"/>
<line x1="322.3" y1="262.9" x2="354.5" y2="281.4" opacity="1.0" stroke="rgb(0,0,0)" stroke-width="2.0"/>
<line x1="354.5" y1="281.4" x2="354.5" y2="318.6" opacity="1.0" stroke="rgb(0,0,0)" stroke-width="2.0"/>
<line x1="347.3" y1="287.4" x2="347.3" y2="312.6" opacity="1.0" stroke="rgb(0,0,0)" stroke-width="2.0"/>
<line x1="354.5" y1="318.6" x2="322.3" y2="337.1" opacity="1.0" stroke="rgb(0,0,0)" stroke-width="2.0"/>
<line x1="322.3" y1="337.1" x2="290.2" y2="318.6" opacity="1.0" stroke="rgb(0,0,0)" stroke-width="2.0"/>
<line x1="320.7" y1="327.9" x2="299.0" y2="315.3" opacity="1.0" stroke="rgb(0,0,0)" stroke-width="2.0"/>
<line x1="386.7" y1="114.3" x2="418.8" y2="95.7" opacity="1.0" stroke="rgb(0,0,0)" stroke-width="2.0"/>
<line x1="418.8" y1="95.7" x2="451.0" y2="114.3" opacity="1.0" stroke="rgb(0,0,0)" stroke-width="2.0"/>
<line x1="420.4" y1="104.9" x2="442.2" y2="117.5" opacity="1.0" stroke="rgb(0,0,0)" stroke-width="2.0"/>
<line x1="451.0" y1="114.3" x2="451.0" y2="151.4" opacity="1.0" stroke="rgb(0,0,0)" stroke-width="2.0"/>
<line x1="451.0" y1="151.4" x2="418.8" y2="170.0" opacity="1.0" stroke="rgb(0,0,0)" stroke-width="2.0"/>
<line x1="442.2" y1="148.2" x2="420.4" y2="160.8" opacity="1.0" stroke="rgb(0,0,0)" stroke-width="2.0"/>
<line x1="418.8" y1="170.0" x2="386.7" y2="151.4" opacity="1.0" stroke="rgb(0,0,0)" stroke-width="2.0"/>
<line x1="386.7" y1="151.4" x2="386.7" y2="114.3" opacity="1.0" stroke="rgb(0,0,0)" stroke-width="2.0"/>
<line x1="393.9" y1="145.4" x2="393.9" y2="120.3" opacity="1.0" stroke="rgb(0,0,0)" stroke-width="2.0"/>
<line x1="258.0" y1="188.6" x2="225.8" y2="170.0" opacity="1.0" stroke="rgb(0,0,0)" stroke-width="2.0"/>
<line x1="225.8" y1="170.0" x2="225.8" y2="132.9" opacity="1.0" stroke="rgb(0,0,0)" stroke-width="2.0"/>
<line x1="233.0" y1="164.0" x2="233.0" y2="138.9" opacity="1.0" stroke="rgb(0,0,0)" stroke-width="2.0"/>
<line x1="225.8" y1="132.9" x2="258.0" y2="114.3" opacity="1.0" stroke="rgb(0,0,0)" stroke-width="2.0"/>
<line x1="258.0" y1="114.3" x2="290.2" y2="132.9" opacity="1.0" stroke="rgb(0,0,0)" stroke-width="2.0"/>
<line x1="259.6" y1="123.5" x2="281.4" y2="136.1" opacity="1.0" stroke="rgb(0,0,0)" stroke-width="2.0"/>
<line x1="290.2" y1="132.9" x2="290.2" y2="170.0" opacity="1.0" stroke="rgb(0,0,0)" stroke-width="2.0"/>
<line x1="290.2" y1="170.0" x2="258.0" y2="188.6" opacity="1.0" stroke="rgb(0,0,0)" stroke-width="2.0"/>
<line x1="281.4" y1="166.8" x2="259.6" y2="179.3" opacity="1.0" stroke="rgb(0,0,0)" stroke-width="2.0"/>
<line x1="322.3" y1="77.1" x2="322.3" y2="114.3" opacity="1.0" stroke="rgb(0,0,0)" stroke-width="2.0"/>
<line x1="315.1" y1="83.1" x2="315.1" y2="108.3" opacity="1.0" stroke="rgb(0,0,0)" stroke-width="2.0"/>
<line x1="322.3" y1="114.3" x2="290.2" y2="132.9" opacity="1.0" stroke="rgb(0,0,0)" stroke-width="2.0"/>
<line x1="258.0" y1="114.3" x2="258.0" y2="77.1" opacity="1.0" stroke="rgb(0,0,0)" stroke-width="2.0"/>
<line x1="258.0" y1="77.1" x2="290.2" y2="58.6" opacity="1.0" stroke="rgb(0,0,0)" stroke-width="2.0"/>
<line x1="266.8" y1="80.4" x2="288.6" y2="67.8" opacity="1.0" stroke="rgb(0,0,0)" stroke-width="2.0"/>
<line x1="290.2" y1="58.6" x2="322.3" y2="77.1" opacity="1.0" stroke="rgb(0,0,0)" stroke-width="2.0"/>
<line x1="161.5" y1="58.6" x2="129.3" y2="40.0" opacity="1.0" stroke="rgb(0,0,0)" stroke-width="2.0"/>
<line x1="129.3" y1="40.0" x2="97.2" y2="58.6" opacity="1.0" stroke="rgb(0,0,0)" stroke-width="2.0"/>
<line x1="127.7" y1="49.2" x2="106.0" y2="61.8" opacity="1.0" stroke="rgb(0,0,0)" stroke-width="2.0"/>
<line x1="97.2" y1="95.7" x2="129.3" y2="114.3" opacity="1.0" stroke="rgb(0,0,0)" stroke-width="2.0"/>
<line x1="106.0" y1="92.5" x2="127.7" y2="105.1" opacity="1.0" stroke="rgb(0,0,0)" stroke-width="2.0"/>
<line x1="129.3" y1="114.3" x2="161.5" y2="95.7" opacity="1.0" stroke="rgb(0,0,0)" stroke-width="2.0"/>
<line x1="161.5" y1="95.7" x2="161.5" y2="58.6" opacity="1.0" stroke="rgb(0,0,0)" stroke-width="2.0"/>
<line x1="154.3" y1="89.7" x2="154.3" y2="64.6" opacity="1.0" stroke="rgb(0,0,0)" stroke-width="2.0"/>
<text x="55.832024" y="55.093654" fill="rgb(12,12,255)" stroke-width="0" font-weight="bold" font-size="16">N</text>
<text x="55.832024" y="39.093654" fill="rgb(12,12,255)" stroke-width="0" font-weight="bold" font-size="16">H</text>
<text x="316.323585" y="196.571429" fill="rgb(12,12,255)" stroke-width="0" font-weight="bold" font-size="16">N</text>
<text x="316.323585" y="382.285714" fill="rgb(255,12,12)" stroke-width="0" font-weight="bold" font-size="16">O</text>
<text x="350.490243" y="400.857143" fill="rgb(102,102,102)" stroke-width="0" font-weight="bold" font-size="16">CH</text>
<text x="374.490243" y="404.537143" fill="rgb(102,102,102)" stroke-width="0" font-weight="bold" font-size="13">3</text>
</svg>
</g>
</svg>