<svg xmlns="http://www.w3.org/2000/svg" x="0" y="0" viewBox="0 0 100 100">
<title>E_6_T - Open Babel Depiction</title>
<rect x="0" y="0" width="100" height="100" fill="white"/>
<g transform="translate(0,0)">
<svg width="100" height="100" x="0" y="0" viewBox="0 0 495.692 375.385" font-family="sans-serif" stroke="rgb(0,0,0)" stroke-width="2" stroke-linecap="round">
<line x1="359.8" y1="224.6" x2="307.1" y2="194.2" opacity="1.0" stroke="rgb(0,0,0)" stroke-width="2.0"/>
<line x1="295.8" y1="174.7" x2="295.8" y2="113.8" opacity="1.0" stroke="rgb(0,0,0)" stroke-width="2.0"/>
<line x1="455.7" y1="293.0" x2="455.7" y2="303.9" opacity="1.0" stroke="rgb(0,0,0)" stroke-width="2.0"/>
<line x1="423.7" y1="261.5" x2="444.4" y2="273.5" opacity="1.0" stroke="rgb(0,0,0)" stroke-width="2.0"/>
<line x1="284.6" y1="194.2" x2="263.8" y2="206.2" opacity="1.0" stroke="rgb(0,0,0)" stroke-width="2.0"/>
<line x1="72.0" y1="316.9" x2="51.3" y2="328.9" opacity="1.0" stroke="rgb(0,0,0)" stroke-width="2.0"/>
<line x1="199.9" y1="243.1" x2="135.9" y2="280.0" opacity="1.0" stroke="rgb(0,0,0)" stroke-width="2.0"/>
<line x1="391.7" y1="280.0" x2="359.8" y2="261.5" opacity="1.0" stroke="rgb(0,0,0)" stroke-width="2.0"/>
<line x1="359.8" y1="261.5" x2="359.8" y2="224.6" opacity="1.0" stroke="rgb(0,0,0)" stroke-width="2.0"/>
<line x1="367.0" y1="255.5" x2="367.0" y2="230.6" opacity="1.0" stroke="rgb(0,0,0)" stroke-width="2.0"/>
<line x1="359.8" y1="224.6" x2="391.7" y2="206.2" opacity="1.0" stroke="rgb(0,0,0)" stroke-width="2.0"/>
<line x1="391.7" y1="206.2" x2="423.7" y2="224.6" opacity="1.0" stroke="rgb(0,0,0)" stroke-width="2.0"/>
<line x1="393.3" y1="215.4" x2="414.9" y2="227.9" opacity="1.0" stroke="rgb(0,0,0)" stroke-width="2.0"/>
<line x1="423.7" y1="224.6" x2="423.7" y2="261.5" opacity="1.0" stroke="rgb(0,0,0)" stroke-width="2.0"/>
<line x1="423.7" y1="261.5" x2="391.7" y2="280.0" opacity="1.0" stroke="rgb(0,0,0)" stroke-width="2.0"/>
<line x1="414.9" y1="258.3" x2="393.3" y2="270.8" opacity="1.0" stroke="rgb(0,0,0)" stroke-width="2.0"/>
<line x1="263.8" y1="95.4" x2="263.8" y2="58.5" opacity="1.0" stroke="rgb(0,0,0)" stroke-width="2.0"/>
<line x1="263.8" y1="58.5" x2="295.8" y2="40.0" opacity="1.0" stroke="rgb(0,0,0)" stroke-width="2.0"/>
<line x1="272.6" y1="61.7" x2="294.2" y2="49.2" opacity="1.0" stroke="rgb(0,0,0)" stroke-width="2.0"/>
<line x1="295.8" y1="40.0" x2="327.8" y2="58.5" opacity="1.0" stroke="rgb(0,0,0)" stroke-width="2.0"/>
<line x1="327.8" y1="58.5" x2="327.8" y2="95.4" opacity="1.0" stroke="rgb(0,0,0)" stroke-width="2.0"/>
<line x1="320.6" y1="64.5" x2="320.6" y2="89.4" opacity="1.0" stroke="rgb(0,0,0)" stroke-width="2.0"/>
<line x1="327.8" y1="95.4" x2="295.8" y2="113.8" opacity="1.0" stroke="rgb(0,0,0)" stroke-width="2.0"/>
<line x1="295.8" y1="113.8" x2="263.8" y2="95.4" opacity="1.0" stroke="rgb(0,0,0)" stroke-width="2.0"/>
<line x1="294.2" y1="104.6" x2="272.6" y2="92.1" opacity="1.0" stroke="rgb(0,0,0)" stroke-width="2.0"/>
<line x1="263.8" y1="243.1" x2="231.9" y2="261.5" opacity="1.0" stroke="rgb(0,0,0)" stroke-width="2.0"/>
<line x1="231.9" y1="261.5" x2="199.9" y2="243.1" opacity="1.0" stroke="rgb(0,0,0)" stroke-width="2.0"/>
<line x1="230.3" y1="252.3" x2="208.7" y2="239.8" opacity="1.0" stroke="rgb(0,0,0)" stroke-width="2.0"/>
<line x1="199.9" y1="243.1" x2="199.9" y2="206.2" opacity="1.0" stroke="rgb(0,0,0)" stroke-width="2.0"/>
<line x1="199.9" y1="206.2" x2="231.9" y2="187.7" opacity="1.0" stroke="rgb(0,0,0)" stroke-width="2.0"/>
<line x1="208.7" y1="209.4" x2="230.3" y2="196.9" opacity="1.0" stroke="rgb(0,0,0)" stroke-width="2.0"/>
<line x1="231.9" y1="187.7" x2="263.8" y2="206.2" opacity="1.0" stroke="rgb(0,0,0)" stroke-width="2.0"/>
<line x1="263.8" y1="206.2" x2="263.8" y2="243.1" opacity="1.0" stroke="rgb(0,0,0)" stroke-width="2.0"/>
<line x1="256.6" y1="212.2" x2="256.6" y2="237.1" opacity="1.0" stroke="rgb(0,0,0)" stroke-width="2.0"/>
<line x1="199.9" y1="132.3" x2="231.9" y2="150.8" opacity="1.0" stroke="rgb(0,0,0)" stroke-width="2.0"/>
<line x1="201.5" y1="141.5" x2="223.1" y2="154.0" opacity="1.0" stroke="rgb(0,0,0)" stroke-width="2.0"/>
<line x1="231.9" y1="150.8" x2="231.9" y2="187.7" opacity="1.0" stroke="rgb(0,0,0)" stroke-width="2.0"/>
<line x1="199.9" y1="206.2" x2="167.9" y2="187.7" opacity="1.0" stroke="rgb(0,0,0)" stroke-width="2.0"/>
<line x1="167.9" y1="187.7" x2="167.9" y2="150.8" opacity="1.0" stroke="rgb(0,0,0)" stroke-width="2.0"/>
<line x1="175.1" y1="181.7" x2="175.1" y2="156.8" opacity="1.0" stroke="rgb(0,0,0)" stroke-width="2.0"/>
<line x1="167.9" y1="150.8" x2="199.9" y2="132.3" opacity="1.0" stroke="rgb(0,0,0)" stroke-width="2.0"/>
<line x1="135.9" y1="316.9" x2="104.0" y2="335.4" opacity="1.0" stroke="rgb(0,0,0)" stroke-width="2.0"/>
<line x1="104.0" y1="335.4" x2="72.0" y2="316.9" opacity="1.0" stroke="rgb(0,0,0)" stroke-width="2.0"/>
<line x1="102.4" y1="326.1" x2="80.8" y2="313.7" opacity="1.0" stroke="rgb(0,0,0)" stroke-width="2.0"/>
<line x1="72.0" y1="316.9" x2="72.0" y2="280.0" opacity="1.0" stroke="rgb(0,0,0)" stroke-width="2.0"/>
<line x1="72.0" y1="280.0" x2="104.0" y2="261.5" opacity="1.0" stroke="rgb(0,0,0)" stroke-width="2.0"/>
<line x1="80.8" y1="283.2" x2="102.4" y2="270.8" opacity="1.0" stroke="rgb(0,0,0)" stroke-width="2.0"/>
<line x1="104.0" y1="261.5" x2="135.9" y2="280.0" opacity="1.0" stroke="rgb(0,0,0)" stroke-width="2.0"/>
<line x1="135.9" y1="280.0" x2="135.9" y2="316.9" opacity="1.0" stroke="rgb(0,0,0)" stroke-width="2.0"/>
<line x1="128.7" y1="286.0" x2="128.7" y2="310.9" opacity="1.0" stroke="rgb(0,0,0)" stroke-width="2.0"/>
<text x="14.000000" y="343.384615" fill="rgb(102,102,102)" stroke-width="0" font-weight="bold" font-size="16">H</text>
<text x="26.000000" y="347.064615" fill="rgb(102,102,102)" stroke-width="0" font-weight="bold" font-size="13">3</text>
<text x="32.500000" y="343.384615" fill="rgb(102,102,102)" stroke-width="0" font-weight="bold" font-size="16">C</text>
<text x="451.692194" y="324.923077" fill="rgb(102,102,102)" stroke-width="0" font-weight="bold" font-size="16">CH</text>
<text x="475.692194" y="328.603077" fill="rgb(102,102,102)" stroke-width="0" font-weight="bold" font-size="13">3</text>
<text x="449.692194" y="288.000000" fill="rgb(255,12,12)" stroke-width="0" font-weight="bold" font-size="16">O</text>
<text x="289.810581" y="195.692308" fill="rgb(12,12,255)" stroke-width="0" font-weight="bold" font-size="16">N</text>
</svg>
</g>
</svg>
