<svg xmlns="http://www.w3.org/2000/svg" x="0" y="0" viewBox="0 0 100 100">
<title>E_6_M - Open Babel Depiction</title>
<rect x="0" y="0" width="100" height="100" fill="white"/>
<g transform="translate(0,0)">
<svg width="100" height="100" x="0" y="0" viewBox="0 0 528.601 394.5" font-family="sans-serif" stroke="rgb(0,0,0)" stroke-width="2" stroke-linecap="round">
<line x1="136.1" y1="169.5" x2="189.0" y2="200.0" opacity="1.0" stroke="rgb(0,0,0)" stroke-width="2.0"/>
<line x1="200.2" y1="219.5" x2="200.2" y2="280.5" opacity="1.0" stroke="rgb(0,0,0)" stroke-width="2.0"/>
<line x1="40.0" y1="101.0" x2="40.0" y2="90.0" opacity="1.0" stroke="rgb(0,0,0)" stroke-width="2.0"/>
<line x1="72.0" y1="132.5" x2="51.3" y2="120.5" opacity="1.0" stroke="rgb(0,0,0)" stroke-width="2.0"/>
<line x1="211.5" y1="200.0" x2="232.3" y2="188.0" opacity="1.0" stroke="rgb(0,0,0)" stroke-width="2.0"/>
<line x1="456.6" y1="58.5" x2="477.3" y2="46.5" opacity="1.0" stroke="rgb(0,0,0)" stroke-width="2.0"/>
<line x1="454.5" y1="54.9" x2="475.2" y2="42.9" opacity="1.0" stroke="rgb(0,0,0)" stroke-width="2.0"/>
<line x1="458.7" y1="62.1" x2="479.4" y2="50.1" opacity="1.0" stroke="rgb(0,0,0)" stroke-width="2.0"/>
<line x1="424.5" y1="77.0" x2="456.6" y2="58.5" opacity="1.0" stroke="rgb(0,0,0)" stroke-width="2.0"/>
<line x1="296.3" y1="151.0" x2="360.4" y2="114.0" opacity="1.0" stroke="rgb(0,0,0)" stroke-width="2.0"/>
<line x1="104.1" y1="114.0" x2="136.1" y2="132.5" opacity="1.0" stroke="rgb(0,0,0)" stroke-width="2.0"/>
<line x1="136.1" y1="132.5" x2="136.1" y2="169.5" opacity="1.0" stroke="rgb(0,0,0)" stroke-width="2.0"/>
<line x1="128.9" y1="138.5" x2="128.9" y2="163.5" opacity="1.0" stroke="rgb(0,0,0)" stroke-width="2.0"/>
<line x1="136.1" y1="169.5" x2="104.1" y2="188.0" opacity="1.0" stroke="rgb(0,0,0)" stroke-width="2.0"/>
<line x1="104.1" y1="188.0" x2="72.0" y2="169.5" opacity="1.0" stroke="rgb(0,0,0)" stroke-width="2.0"/>
<line x1="102.5" y1="178.8" x2="80.8" y2="166.3" opacity="1.0" stroke="rgb(0,0,0)" stroke-width="2.0"/>
<line x1="72.0" y1="169.5" x2="72.0" y2="132.5" opacity="1.0" stroke="rgb(0,0,0)" stroke-width="2.0"/>
<line x1="72.0" y1="132.5" x2="104.1" y2="114.0" opacity="1.0" stroke="rgb(0,0,0)" stroke-width="2.0"/>
<line x1="80.8" y1="135.7" x2="102.5" y2="123.2" opacity="1.0" stroke="rgb(0,0,0)" stroke-width="2.0"/>
<line x1="232.3" y1="299.0" x2="232.3" y2="336.0" opacity="1.0" stroke="rgb(0,0,0)" stroke-width="2.0"/>
<line x1="232.3" y1="336.0" x2="200.2" y2="354.5" opacity="1.0" stroke="rgb(0,0,0)" stroke-width="2.0"/>
<line x1="223.5" y1="332.8" x2="201.8" y2="345.3" opacity="1.0" stroke="rgb(0,0,0)" stroke-width="2.0"/>
<line x1="200.2" y1="354.5" x2="168.2" y2="336.0" opacity="1.0" stroke="rgb(0,0,0)" stroke-width="2.0"/>
<line x1="168.2" y1="336.0" x2="168.2" y2="299.0" opacity="1.0" stroke="rgb(0,0,0)" stroke-width="2.0"/>
<line x1="175.4" y1="330.0" x2="175.4" y2="305.0" opacity="1.0" stroke="rgb(0,0,0)" stroke-width="2.0"/>
<line x1="168.2" y1="299.0" x2="200.2" y2="280.5" opacity="1.0" stroke="rgb(0,0,0)" stroke-width="2.0"/>
<line x1="200.2" y1="280.5" x2="232.3" y2="299.0" opacity="1.0" stroke="rgb(0,0,0)" stroke-width="2.0"/>
<line x1="201.8" y1="289.7" x2="223.5" y2="302.2" opacity="1.0" stroke="rgb(0,0,0)" stroke-width="2.0"/>
<line x1="232.3" y1="151.0" x2="264.3" y2="132.5" opacity="1.0" stroke="rgb(0,0,0)" stroke-width="2.0"/>
<line x1="264.3" y1="132.5" x2="296.3" y2="151.0" opacity="1.0" stroke="rgb(0,0,0)" stroke-width="2.0"/>
<line x1="265.9" y1="141.7" x2="287.5" y2="154.2" opacity="1.0" stroke="rgb(0,0,0)" stroke-width="2.0"/>
<line x1="296.3" y1="151.0" x2="296.3" y2="188.0" opacity="1.0" stroke="rgb(0,0,0)" stroke-width="2.0"/>
<line x1="296.3" y1="188.0" x2="264.3" y2="206.5" opacity="1.0" stroke="rgb(0,0,0)" stroke-width="2.0"/>
<line x1="287.5" y1="184.8" x2="265.9" y2="197.3" opacity="1.0" stroke="rgb(0,0,0)" stroke-width="2.0"/>
<line x1="264.3" y1="206.5" x2="232.3" y2="188.0" opacity="1.0" stroke="rgb(0,0,0)" stroke-width="2.0"/>
<line x1="232.3" y1="188.0" x2="232.3" y2="151.0" opacity="1.0" stroke="rgb(0,0,0)" stroke-width="2.0"/>
<line x1="239.5" y1="182.0" x2="239.5" y2="157.0" opacity="1.0" stroke="rgb(0,0,0)" stroke-width="2.0"/>
<line x1="296.3" y1="262.0" x2="264.3" y2="243.5" opacity="1.0" stroke="rgb(0,0,0)" stroke-width="2.0"/>
<line x1="294.7" y1="252.8" x2="273.1" y2="240.3" opacity="1.0" stroke="rgb(0,0,0)" stroke-width="2.0"/>
<line x1="264.3" y1="243.5" x2="264.3" y2="206.5" opacity="1.0" stroke="rgb(0,0,0)" stroke-width="2.0"/>
<line x1="296.3" y1="188.0" x2="328.4" y2="206.5" opacity="1.0" stroke="rgb(0,0,0)" stroke-width="2.0"/>
<line x1="328.4" y1="206.5" x2="328.4" y2="243.5" opacity="1.0" stroke="rgb(0,0,0)" stroke-width="2.0"/>
<line x1="321.2" y1="212.5" x2="321.2" y2="237.5" opacity="1.0" stroke="rgb(0,0,0)" stroke-width="2.0"/>
<line x1="328.4" y1="243.5" x2="296.3" y2="262.0" opacity="1.0" stroke="rgb(0,0,0)" stroke-width="2.0"/>
<line x1="360.4" y1="77.0" x2="392.5" y2="58.5" opacity="1.0" stroke="rgb(0,0,0)" stroke-width="2.0"/>
<line x1="392.5" y1="58.5" x2="424.5" y2="77.0" opacity="1.0" stroke="rgb(0,0,0)" stroke-width="2.0"/>
<line x1="394.1" y1="67.7" x2="415.7" y2="80.2" opacity="1.0" stroke="rgb(0,0,0)" stroke-width="2.0"/>
<line x1="424.5" y1="77.0" x2="424.5" y2="114.0" opacity="1.0" stroke="rgb(0,0,0)" stroke-width="2.0"/>
<line x1="424.5" y1="114.0" x2="392.5" y2="132.5" opacity="1.0" stroke="rgb(0,0,0)" stroke-width="2.0"/>
<line x1="415.7" y1="110.8" x2="394.1" y2="123.3" opacity="1.0" stroke="rgb(0,0,0)" stroke-width="2.0"/>
<line x1="392.5" y1="132.5" x2="360.4" y2="114.0" opacity="1.0" stroke="rgb(0,0,0)" stroke-width="2.0"/>
<line x1="360.4" y1="114.0" x2="360.4" y2="77.0" opacity="1.0" stroke="rgb(0,0,0)" stroke-width="2.0"/>
<line x1="367.6" y1="108.0" x2="367.6" y2="83.0" opacity="1.0" stroke="rgb(0,0,0)" stroke-width="2.0"/>
<text x="482.601159" y="48.000000" fill="rgb(12,12,255)" stroke-width="0" font-weight="bold" font-size="16">N</text>
<text x="36.000000" y="85.000000" fill="rgb(102,102,102)" stroke-width="0" font-weight="bold" font-size="16">CH</text>
<text x="60.000000" y="88.680000" fill="rgb(102,102,102)" stroke-width="0" font-weight="bold" font-size="13">3</text>
<text x="34.000000" y="122.000000" fill="rgb(255,12,12)" stroke-width="0" font-weight="bold" font-size="16">O</text>
<text x="194.214700" y="214.500000" fill="rgb(12,12,255)" stroke-width="0" font-weight="bold" font-size="16">N</text>
</svg>
</g>
</svg>
