<svg xmlns="http://www.w3.org/2000/svg" xmlns:xlink="http://www.w3.org/1999/xlink" xmlns:cml="http://www.xml-cml.org/schema" version="1.1" id="topsvg" x="0" y="0" viewBox="0 0 100 100">
<title>E_6_O - Open Babel Depiction</title>
<rect x="0" y="0" width="100" height="100" fill="white"/>
<g transform="translate(0,0)">
<svg width="100" height="100" x="0" y="0" viewBox="0 0 407.685 420.541" font-family="sans-serif" stroke="rgb(0,0,0)" stroke-width="2" stroke-linecap="round">
<line x1="236.6" y1="248.1" x2="236.6" y2="185.4" opacity="1.0" stroke="rgb(0,0,0)" stroke-width="2.0"/>
<line x1="247.9" y1="165.9" x2="302.1" y2="134.6" opacity="1.0" stroke="rgb(0,0,0)" stroke-width="2.0"/>
<line x1="225.4" y1="368.1" x2="215.1" y2="374.0" opacity="1.0" stroke="rgb(0,0,0)" stroke-width="2.0"/>
<line x1="236.6" y1="323.8" x2="236.6" y2="348.6" opacity="1.0" stroke="rgb(0,0,0)" stroke-width="2.0"/>
<line x1="225.4" y1="165.9" x2="203.8" y2="153.5" opacity="1.0" stroke="rgb(0,0,0)" stroke-width="2.0"/>
<line x1="138.3" y1="115.7" x2="105.5" y2="96.8" opacity="1.0" stroke="rgb(0,0,0)" stroke-width="2.0"/>
<line x1="203.8" y1="304.9" x2="203.8" y2="267.0" opacity="1.0" stroke="rgb(0,0,0)" stroke-width="2.0"/>
<line x1="203.8" y1="267.0" x2="236.6" y2="248.1" opacity="1.0" stroke="rgb(0,0,0)" stroke-width="2.0"/>
<line x1="212.6" y1="270.3" x2="235.0" y2="257.3" opacity="1.0" stroke="rgb(0,0,0)" stroke-width="2.0"/>
<line x1="236.6" y1="248.1" x2="269.4" y2="267.0" opacity="1.0" stroke="rgb(0,0,0)" stroke-width="2.0"/>
<line x1="269.4" y1="267.0" x2="269.4" y2="304.9" opacity="1.0" stroke="rgb(0,0,0)" stroke-width="2.0"/>
<line x1="262.2" y1="273.0" x2="262.2" y2="298.9" opacity="1.0" stroke="rgb(0,0,0)" stroke-width="2.0"/>
<line x1="269.4" y1="304.9" x2="236.6" y2="323.8" opacity="1.0" stroke="rgb(0,0,0)" stroke-width="2.0"/>
<line x1="236.6" y1="323.8" x2="203.8" y2="304.9" opacity="1.0" stroke="rgb(0,0,0)" stroke-width="2.0"/>
<line x1="235.0" y1="314.5" x2="212.6" y2="301.6" opacity="1.0" stroke="rgb(0,0,0)" stroke-width="2.0"/>
<line x1="302.1" y1="96.8" x2="334.9" y2="77.8" opacity="1.0" stroke="rgb(0,0,0)" stroke-width="2.0"/>
<line x1="334.9" y1="77.8" x2="367.7" y2="96.8" opacity="1.0" stroke="rgb(0,0,0)" stroke-width="2.0"/>
<line x1="336.5" y1="87.1" x2="358.9" y2="100.0" opacity="1.0" stroke="rgb(0,0,0)" stroke-width="2.0"/>
<line x1="367.7" y1="96.8" x2="367.7" y2="134.6" opacity="1.0" stroke="rgb(0,0,0)" stroke-width="2.0"/>
<line x1="367.7" y1="134.6" x2="334.9" y2="153.5" opacity="1.0" stroke="rgb(0,0,0)" stroke-width="2.0"/>
<line x1="358.9" y1="131.4" x2="336.5" y2="144.3" opacity="1.0" stroke="rgb(0,0,0)" stroke-width="2.0"/>
<line x1="334.9" y1="153.5" x2="302.1" y2="134.6" opacity="1.0" stroke="rgb(0,0,0)" stroke-width="2.0"/>
<line x1="302.1" y1="134.6" x2="302.1" y2="96.8" opacity="1.0" stroke="rgb(0,0,0)" stroke-width="2.0"/>
<line x1="309.3" y1="128.6" x2="309.3" y2="102.8" opacity="1.0" stroke="rgb(0,0,0)" stroke-width="2.0"/>
<line x1="171.1" y1="172.4" x2="138.3" y2="153.5" opacity="1.0" stroke="rgb(0,0,0)" stroke-width="2.0"/>
<line x1="138.3" y1="153.5" x2="138.3" y2="115.7" opacity="1.0" stroke="rgb(0,0,0)" stroke-width="2.0"/>
<line x1="145.5" y1="147.5" x2="145.5" y2="121.7" opacity="1.0" stroke="rgb(0,0,0)" stroke-width="2.0"/>
<line x1="138.3" y1="115.7" x2="171.1" y2="96.8" opacity="1.0" stroke="rgb(0,0,0)" stroke-width="2.0"/>
<line x1="171.1" y1="96.8" x2="203.8" y2="115.7" opacity="1.0" stroke="rgb(0,0,0)" stroke-width="2.0"/>
<line x1="172.7" y1="106.0" x2="195.0" y2="118.9" opacity="1.0" stroke="rgb(0,0,0)" stroke-width="2.0"/>
<line x1="203.8" y1="115.7" x2="203.8" y2="153.5" opacity="1.0" stroke="rgb(0,0,0)" stroke-width="2.0"/>
<line x1="203.8" y1="153.5" x2="171.1" y2="172.4" opacity="1.0" stroke="rgb(0,0,0)" stroke-width="2.0"/>
<line x1="195.0" y1="150.3" x2="172.7" y2="163.2" opacity="1.0" stroke="rgb(0,0,0)" stroke-width="2.0"/>
<line x1="236.6" y1="58.9" x2="236.6" y2="96.8" opacity="1.0" stroke="rgb(0,0,0)" stroke-width="2.0"/>
<line x1="229.4" y1="64.9" x2="229.4" y2="90.8" opacity="1.0" stroke="rgb(0,0,0)" stroke-width="2.0"/>
<line x1="236.6" y1="96.8" x2="203.8" y2="115.7" opacity="1.0" stroke="rgb(0,0,0)" stroke-width="2.0"/>
<line x1="171.1" y1="96.8" x2="171.1" y2="58.9" opacity="1.0" stroke="rgb(0,0,0)" stroke-width="2.0"/>
<line x1="171.1" y1="58.9" x2="203.8" y2="40.0" opacity="1.0" stroke="rgb(0,0,0)" stroke-width="2.0"/>
<line x1="179.9" y1="62.2" x2="202.2" y2="49.2" opacity="1.0" stroke="rgb(0,0,0)" stroke-width="2.0"/>
<line x1="203.8" y1="40.0" x2="236.6" y2="58.9" opacity="1.0" stroke="rgb(0,0,0)" stroke-width="2.0"/>
<line x1="94.3" y1="52.4" x2="72.8" y2="40.0" opacity="1.0" stroke="rgb(0,0,0)" stroke-width="2.0"/>
<line x1="72.8" y1="40.0" x2="40.0" y2="58.9" opacity="1.0" stroke="rgb(0,0,0)" stroke-width="2.0"/>
<line x1="71.2" y1="49.2" x2="48.8" y2="62.2" opacity="1.0" stroke="rgb(0,0,0)" stroke-width="2.0"/>
<line x1="40.0" y1="58.9" x2="40.0" y2="96.8" opacity="1.0" stroke="rgb(0,0,0)" stroke-width="2.0"/>
<line x1="40.0" y1="96.8" x2="72.8" y2="115.7" opacity="1.0" stroke="rgb(0,0,0)" stroke-width="2.0"/>
<line x1="48.8" y1="93.5" x2="71.2" y2="106.4" opacity="1.0" stroke="rgb(0,0,0)" stroke-width="2.0"/>
<line x1="72.8" y1="115.7" x2="105.5" y2="96.8" opacity="1.0" stroke="rgb(0,0,0)" stroke-width="2.0"/>
<line x1="105.5" y1="96.8" x2="105.5" y2="71.4" opacity="1.0" stroke="rgb(0,0,0)" stroke-width="2.0"/>
<line x1="98.3" y1="90.8" x2="98.3" y2="73.6" opacity="1.0" stroke="rgb(0,0,0)" stroke-width="2.0"/>
<text x="99.537058" y="66.918919" fill="rgb(12,12,255)" stroke-width="0" font-weight="bold" font-size="16">N</text>
<text x="177.842644" y="388.540541" fill="rgb(102,102,102)" stroke-width="0" font-weight="bold" font-size="16">H</text>
<text x="189.842644" y="392.220541" fill="rgb(102,102,102)" stroke-width="0" font-weight="bold" font-size="13">3</text>
<text x="196.342644" y="388.540541" fill="rgb(102,102,102)" stroke-width="0" font-weight="bold" font-size="16">C</text>
<text x="230.611173" y="369.621622" fill="rgb(255,12,12)" stroke-width="0" font-weight="bold" font-size="16">O</text>
<text x="230.611173" y="180.432432" fill="rgb(12,12,255)" stroke-width="0" font-weight="bold" font-size="16">N</text>
</svg>
</g>
</svg>