<svg xmlns="http://www.w3.org/2000/svg" xmlns:xlink="http://www.w3.org/1999/xlink" xmlns:cml="http://www.xml-cml.org/schema" version="1.1" id="topsvg" x="0" y="0" viewBox="0 0 100 100">
<title>E_6_N - Open Babel Depiction</title>
<rect x="0" y="0" width="100" height="100" fill="white"/>
<g transform="translate(0,0)">
<svg width="100" height="100" x="0" y="0" viewBox="0 0 434.239 363.333" font-family="sans-serif" stroke="rgb(0,0,0)" stroke-width="2" stroke-linecap="round">
<line x1="296.1" y1="228.9" x2="241.9" y2="197.6" opacity="1.0" stroke="rgb(0,0,0)" stroke-width="2.0"/>
<line x1="230.7" y1="178.1" x2="230.7" y2="115.6" opacity="1.0" stroke="rgb(0,0,0)" stroke-width="2.0"/>
<line x1="394.2" y1="298.6" x2="394.2" y2="310.3" opacity="1.0" stroke="rgb(0,0,0)" stroke-width="2.0"/>
<line x1="361.5" y1="266.7" x2="383.0" y2="279.1" opacity="1.0" stroke="rgb(0,0,0)" stroke-width="2.0"/>
<line x1="219.4" y1="197.6" x2="197.9" y2="210.0" opacity="1.0" stroke="rgb(0,0,0)" stroke-width="2.0"/>
<line x1="132.5" y1="247.8" x2="99.8" y2="266.7" opacity="1.0" stroke="rgb(0,0,0)" stroke-width="2.0"/>
<line x1="95.8" y1="304.2" x2="71.6" y2="309.4" opacity="1.0" stroke="rgb(0,0,0)" stroke-width="2.0"/>
<line x1="52.4" y1="300.8" x2="40.0" y2="279.4" opacity="1.0" stroke="rgb(0,0,0)" stroke-width="2.0"/>
<line x1="40.0" y1="279.4" x2="65.3" y2="251.3" opacity="1.0" stroke="rgb(0,0,0)" stroke-width="2.0"/>
<line x1="49.4" y1="279.7" x2="66.6" y2="260.6" opacity="1.0" stroke="rgb(0,0,0)" stroke-width="2.0"/>
<line x1="65.3" y1="251.3" x2="99.8" y2="266.7" opacity="1.0" stroke="rgb(0,0,0)" stroke-width="2.0"/>
<line x1="99.8" y1="266.7" x2="95.8" y2="304.2" opacity="1.0" stroke="rgb(0,0,0)" stroke-width="2.0"/>
<line x1="92.0" y1="271.9" x2="89.3" y2="297.5" opacity="1.0" stroke="rgb(0,0,0)" stroke-width="2.0"/>
<line x1="328.8" y1="285.6" x2="296.1" y2="266.7" opacity="1.0" stroke="rgb(0,0,0)" stroke-width="2.0"/>
<line x1="296.1" y1="266.7" x2="296.1" y2="228.9" opacity="1.0" stroke="rgb(0,0,0)" stroke-width="2.0"/>
<line x1="303.3" y1="260.7" x2="303.3" y2="234.9" opacity="1.0" stroke="rgb(0,0,0)" stroke-width="2.0"/>
<line x1="296.1" y1="228.9" x2="328.8" y2="210.0" opacity="1.0" stroke="rgb(0,0,0)" stroke-width="2.0"/>
<line x1="328.8" y1="210.0" x2="361.5" y2="228.9" opacity="1.0" stroke="rgb(0,0,0)" stroke-width="2.0"/>
<line x1="330.4" y1="219.2" x2="352.7" y2="232.1" opacity="1.0" stroke="rgb(0,0,0)" stroke-width="2.0"/>
<line x1="361.5" y1="228.9" x2="361.5" y2="266.7" opacity="1.0" stroke="rgb(0,0,0)" stroke-width="2.0"/>
<line x1="361.5" y1="266.7" x2="328.8" y2="285.6" opacity="1.0" stroke="rgb(0,0,0)" stroke-width="2.0"/>
<line x1="352.7" y1="263.4" x2="330.4" y2="276.3" opacity="1.0" stroke="rgb(0,0,0)" stroke-width="2.0"/>
<line x1="197.9" y1="96.7" x2="197.9" y2="58.9" opacity="1.0" stroke="rgb(0,0,0)" stroke-width="2.0"/>
<line x1="197.9" y1="58.9" x2="230.7" y2="40.0" opacity="1.0" stroke="rgb(0,0,0)" stroke-width="2.0"/>
<line x1="206.7" y1="62.1" x2="229.1" y2="49.2" opacity="1.0" stroke="rgb(0,0,0)" stroke-width="2.0"/>
<line x1="230.7" y1="40.0" x2="263.4" y2="58.9" opacity="1.0" stroke="rgb(0,0,0)" stroke-width="2.0"/>
<line x1="263.4" y1="58.9" x2="263.4" y2="96.7" opacity="1.0" stroke="rgb(0,0,0)" stroke-width="2.0"/>
<line x1="256.2" y1="64.9" x2="256.2" y2="90.7" opacity="1.0" stroke="rgb(0,0,0)" stroke-width="2.0"/>
<line x1="263.4" y1="96.7" x2="230.7" y2="115.6" opacity="1.0" stroke="rgb(0,0,0)" stroke-width="2.0"/>
<line x1="230.7" y1="115.6" x2="197.9" y2="96.7" opacity="1.0" stroke="rgb(0,0,0)" stroke-width="2.0"/>
<line x1="229.1" y1="106.3" x2="206.7" y2="93.4" opacity="1.0" stroke="rgb(0,0,0)" stroke-width="2.0"/>
<line x1="197.9" y1="247.8" x2="165.2" y2="266.7" opacity="1.0" stroke="rgb(0,0,0)" stroke-width="2.0"/>
<line x1="165.2" y1="266.7" x2="132.5" y2="247.8" opacity="1.0" stroke="rgb(0,0,0)" stroke-width="2.0"/>
<line x1="163.6" y1="257.4" x2="141.3" y2="244.5" opacity="1.0" stroke="rgb(0,0,0)" stroke-width="2.0"/>
<line x1="132.5" y1="247.8" x2="132.5" y2="210.0" opacity="1.0" stroke="rgb(0,0,0)" stroke-width="2.0"/>
<line x1="132.5" y1="210.0" x2="165.2" y2="191.1" opacity="1.0" stroke="rgb(0,0,0)" stroke-width="2.0"/>
<line x1="141.3" y1="213.2" x2="163.6" y2="200.3" opacity="1.0" stroke="rgb(0,0,0)" stroke-width="2.0"/>
<line x1="165.2" y1="191.1" x2="197.9" y2="210.0" opacity="1.0" stroke="rgb(0,0,0)" stroke-width="2.0"/>
<line x1="197.9" y1="210.0" x2="197.9" y2="247.8" opacity="1.0" stroke="rgb(0,0,0)" stroke-width="2.0"/>
<line x1="190.7" y1="216.0" x2="190.7" y2="241.8" opacity="1.0" stroke="rgb(0,0,0)" stroke-width="2.0"/>
<line x1="132.5" y1="134.4" x2="165.2" y2="153.3" opacity="1.0" stroke="rgb(0,0,0)" stroke-width="2.0"/>
<line x1="134.1" y1="143.7" x2="156.4" y2="156.6" opacity="1.0" stroke="rgb(0,0,0)" stroke-width="2.0"/>
<line x1="165.2" y1="153.3" x2="165.2" y2="191.1" opacity="1.0" stroke="rgb(0,0,0)" stroke-width="2.0"/>
<line x1="132.5" y1="210.0" x2="99.8" y2="191.1" opacity="1.0" stroke="rgb(0,0,0)" stroke-width="2.0"/>
<line x1="99.8" y1="191.1" x2="99.8" y2="153.3" opacity="1.0" stroke="rgb(0,0,0)" stroke-width="2.0"/>
<line x1="107.0" y1="185.1" x2="107.0" y2="159.3" opacity="1.0" stroke="rgb(0,0,0)" stroke-width="2.0"/>
<line x1="99.8" y1="153.3" x2="132.5" y2="134.4" opacity="1.0" stroke="rgb(0,0,0)" stroke-width="2.0"/>
<text x="52.888889" y="320.091935" fill="rgb(178,178,0)" stroke-width="0" font-weight="bold" font-size="16">S</text>
<text x="390.238622" y="331.333333" fill="rgb(102,102,102)" stroke-width="0" font-weight="bold" font-size="16">CH</text>
<text x="414.238622" y="335.013333" fill="rgb(102,102,102)" stroke-width="0" font-weight="bold" font-size="13">3</text>
<text x="388.238622" y="293.555556" fill="rgb(255,12,12)" stroke-width="0" font-weight="bold" font-size="16">O</text>
<text x="224.656046" y="199.111111" fill="rgb(12,12,255)" stroke-width="0" font-weight="bold" font-size="16">N</text>
</svg>
</g>
</svg>