<svg xmlns="http://www.w3.org/2000/svg" x="0" y="0" viewBox="0 0 100 100">
<title>E_7_N - Open Babel Depiction</title>
<rect x="0" y="0" width="100" height="100" fill="white"/>
<g transform="translate(0,0)">
<svg width="100" height="100" x="0" y="0" viewBox="0 0 464.886 407.001" font-family="sans-serif" stroke="rgb(0,0,0)" stroke-width="2" stroke-linecap="round">
<line x1="294.7" y1="235.5" x2="294.7" y2="173.3" opacity="1.0" stroke="rgb(0,0,0)" stroke-width="2.0"/>
<line x1="306.0" y1="153.8" x2="359.8" y2="122.8" opacity="1.0" stroke="rgb(0,0,0)" stroke-width="2.0"/>
<line x1="283.5" y1="354.7" x2="273.4" y2="360.5" opacity="1.0" stroke="rgb(0,0,0)" stroke-width="2.0"/>
<line x1="294.7" y1="310.6" x2="294.7" y2="335.2" opacity="1.0" stroke="rgb(0,0,0)" stroke-width="2.0"/>
<line x1="197.1" y1="104.0" x2="164.6" y2="85.2" opacity="1.0" stroke="rgb(0,0,0)" stroke-width="2.0"/>
<line x1="166.1" y1="87.8" x2="133.5" y2="106.6" opacity="1.0" stroke="rgb(0,0,0)" stroke-width="2.0"/>
<line x1="163.1" y1="82.6" x2="130.5" y2="101.4" opacity="1.0" stroke="rgb(0,0,0)" stroke-width="2.0"/>
<line x1="283.5" y1="153.8" x2="262.2" y2="141.5" opacity="1.0" stroke="rgb(0,0,0)" stroke-width="2.0"/>
<line x1="132.0" y1="104.0" x2="99.5" y2="85.2" opacity="1.0" stroke="rgb(0,0,0)" stroke-width="2.0"/>
<line x1="95.5" y1="47.8" x2="71.5" y2="42.7" opacity="1.0" stroke="rgb(0,0,0)" stroke-width="2.0"/>
<line x1="52.3" y1="51.3" x2="40.0" y2="72.5" opacity="1.0" stroke="rgb(0,0,0)" stroke-width="2.0"/>
<line x1="40.0" y1="72.5" x2="65.1" y2="100.5" opacity="1.0" stroke="rgb(0,0,0)" stroke-width="2.0"/>
<line x1="49.4" y1="72.2" x2="66.5" y2="91.2" opacity="1.0" stroke="rgb(0,0,0)" stroke-width="2.0"/>
<line x1="65.1" y1="100.5" x2="99.5" y2="85.2" opacity="1.0" stroke="rgb(0,0,0)" stroke-width="2.0"/>
<line x1="99.5" y1="85.2" x2="95.5" y2="47.8" opacity="1.0" stroke="rgb(0,0,0)" stroke-width="2.0"/>
<line x1="91.7" y1="80.0" x2="89.0" y2="54.5" opacity="1.0" stroke="rgb(0,0,0)" stroke-width="2.0"/>
<line x1="262.2" y1="291.8" x2="262.2" y2="254.3" opacity="1.0" stroke="rgb(0,0,0)" stroke-width="2.0"/>
<line x1="262.2" y1="254.3" x2="294.7" y2="235.5" opacity="1.0" stroke="rgb(0,0,0)" stroke-width="2.0"/>
<line x1="271.0" y1="257.5" x2="293.1" y2="244.7" opacity="1.0" stroke="rgb(0,0,0)" stroke-width="2.0"/>
<line x1="294.7" y1="235.5" x2="327.3" y2="254.3" opacity="1.0" stroke="rgb(0,0,0)" stroke-width="2.0"/>
<line x1="327.3" y1="254.3" x2="327.3" y2="291.8" opacity="1.0" stroke="rgb(0,0,0)" stroke-width="2.0"/>
<line x1="320.1" y1="260.3" x2="320.1" y2="285.8" opacity="1.0" stroke="rgb(0,0,0)" stroke-width="2.0"/>
<line x1="327.3" y1="291.8" x2="294.7" y2="310.6" opacity="1.0" stroke="rgb(0,0,0)" stroke-width="2.0"/>
<line x1="294.7" y1="310.6" x2="262.2" y2="291.8" opacity="1.0" stroke="rgb(0,0,0)" stroke-width="2.0"/>
<line x1="293.1" y1="301.4" x2="271.0" y2="288.6" opacity="1.0" stroke="rgb(0,0,0)" stroke-width="2.0"/>
<line x1="359.8" y1="85.2" x2="392.3" y2="66.4" opacity="1.0" stroke="rgb(0,0,0)" stroke-width="2.0"/>
<line x1="392.3" y1="66.4" x2="424.9" y2="85.2" opacity="1.0" stroke="rgb(0,0,0)" stroke-width="2.0"/>
<line x1="393.9" y1="75.6" x2="416.1" y2="88.4" opacity="1.0" stroke="rgb(0,0,0)" stroke-width="2.0"/>
<line x1="424.9" y1="85.2" x2="424.9" y2="122.8" opacity="1.0" stroke="rgb(0,0,0)" stroke-width="2.0"/>
<line x1="424.9" y1="122.8" x2="392.3" y2="141.5" opacity="1.0" stroke="rgb(0,0,0)" stroke-width="2.0"/>
<line x1="416.1" y1="119.5" x2="393.9" y2="132.3" opacity="1.0" stroke="rgb(0,0,0)" stroke-width="2.0"/>
<line x1="392.3" y1="141.5" x2="359.8" y2="122.8" opacity="1.0" stroke="rgb(0,0,0)" stroke-width="2.0"/>
<line x1="359.8" y1="122.8" x2="359.8" y2="85.2" opacity="1.0" stroke="rgb(0,0,0)" stroke-width="2.0"/>
<line x1="367.0" y1="116.8" x2="367.0" y2="91.2" opacity="1.0" stroke="rgb(0,0,0)" stroke-width="2.0"/>
<line x1="229.6" y1="160.3" x2="197.1" y2="141.5" opacity="1.0" stroke="rgb(0,0,0)" stroke-width="2.0"/>
<line x1="197.1" y1="141.5" x2="197.1" y2="104.0" opacity="1.0" stroke="rgb(0,0,0)" stroke-width="2.0"/>
<line x1="204.3" y1="135.5" x2="204.3" y2="110.0" opacity="1.0" stroke="rgb(0,0,0)" stroke-width="2.0"/>
<line x1="197.1" y1="104.0" x2="229.6" y2="85.2" opacity="1.0" stroke="rgb(0,0,0)" stroke-width="2.0"/>
<line x1="229.6" y1="85.2" x2="262.2" y2="104.0" opacity="1.0" stroke="rgb(0,0,0)" stroke-width="2.0"/>
<line x1="231.2" y1="94.4" x2="253.4" y2="107.2" opacity="1.0" stroke="rgb(0,0,0)" stroke-width="2.0"/>
<line x1="262.2" y1="104.0" x2="262.2" y2="141.5" opacity="1.0" stroke="rgb(0,0,0)" stroke-width="2.0"/>
<line x1="262.2" y1="141.5" x2="229.6" y2="160.3" opacity="1.0" stroke="rgb(0,0,0)" stroke-width="2.0"/>
<line x1="253.4" y1="138.3" x2="231.2" y2="151.1" opacity="1.0" stroke="rgb(0,0,0)" stroke-width="2.0"/>
<text x="236.178055" y="375.000535" fill="rgb(102,102,102)" stroke-width="0" font-weight="bold" font-size="16">H</text>
<text x="248.178055" y="378.680535" fill="rgb(102,102,102)" stroke-width="0" font-weight="bold" font-size="13">3</text>
<text x="254.678055" y="375.000535" fill="rgb(102,102,102)" stroke-width="0" font-weight="bold" font-size="16">C</text>
<text x="52.787879" y="48.000000" fill="rgb(178,178,0)" stroke-width="0" font-weight="bold" font-size="16">S</text>
<text x="288.719616" y="356.212656" fill="rgb(255,12,12)" stroke-width="0" font-weight="bold" font-size="16">O</text>
<text x="288.719616" y="168.333868" fill="rgb(12,12,255)" stroke-width="0" font-weight="bold" font-size="16">N</text>
</svg>
</g>
</svg>
