<svg xmlns="http://www.w3.org/2000/svg" x="0" y="0" viewBox="0 0 100 100">
<title>E_7_L - Open Babel Depiction</title>
<rect x="0" y="0" width="100" height="100" fill="white"/>
<g transform="translate(0,0)">
<svg width="100" height="100" x="0" y="0" viewBox="0 0 501.975 462.08" font-family="sans-serif" stroke="rgb(0,0,0)" stroke-width="2" stroke-linecap="round">
<line x1="330.7" y1="289.4" x2="330.7" y2="226.7" opacity="1.0" stroke="rgb(0,0,0)" stroke-width="2.0"/>
<line x1="342.0" y1="207.2" x2="396.3" y2="175.8" opacity="1.0" stroke="rgb(0,0,0)" stroke-width="2.0"/>
<line x1="319.4" y1="409.6" x2="309.1" y2="415.6" opacity="1.0" stroke="rgb(0,0,0)" stroke-width="2.0"/>
<line x1="330.7" y1="365.2" x2="330.7" y2="390.1" opacity="1.0" stroke="rgb(0,0,0)" stroke-width="2.0"/>
<line x1="232.3" y1="156.8" x2="199.4" y2="137.9" opacity="1.0" stroke="rgb(0,0,0)" stroke-width="2.0"/>
<line x1="200.9" y1="140.5" x2="168.1" y2="159.4" opacity="1.0" stroke="rgb(0,0,0)" stroke-width="2.0"/>
<line x1="197.9" y1="135.3" x2="165.1" y2="154.2" opacity="1.0" stroke="rgb(0,0,0)" stroke-width="2.0"/>
<line x1="319.4" y1="207.2" x2="297.9" y2="194.7" opacity="1.0" stroke="rgb(0,0,0)" stroke-width="2.0"/>
<line x1="166.6" y1="156.8" x2="133.8" y2="137.9" opacity="1.0" stroke="rgb(0,0,0)" stroke-width="2.0"/>
<line x1="55.4" y1="40.0" x2="93.1" y2="44.0" opacity="1.0" stroke="rgb(0,0,0)" stroke-width="2.0"/>
<line x1="60.6" y1="47.8" x2="86.4" y2="50.5" opacity="1.0" stroke="rgb(0,0,0)" stroke-width="2.0"/>
<line x1="93.1" y1="44.0" x2="101.0" y2="81.0" opacity="1.0" stroke="rgb(0,0,0)" stroke-width="2.0"/>
<line x1="101.0" y1="81.0" x2="68.2" y2="100.0" opacity="1.0" stroke="rgb(0,0,0)" stroke-width="2.0"/>
<line x1="68.2" y1="100.0" x2="49.7" y2="83.3" opacity="1.0" stroke="rgb(0,0,0)" stroke-width="2.0"/>
<line x1="45.3" y1="62.7" x2="55.4" y2="40.0" opacity="1.0" stroke="rgb(0,0,0)" stroke-width="2.0"/>
<line x1="297.9" y1="346.3" x2="297.9" y2="308.4" opacity="1.0" stroke="rgb(0,0,0)" stroke-width="2.0"/>
<line x1="297.9" y1="308.4" x2="330.7" y2="289.4" opacity="1.0" stroke="rgb(0,0,0)" stroke-width="2.0"/>
<line x1="306.7" y1="311.6" x2="329.1" y2="298.7" opacity="1.0" stroke="rgb(0,0,0)" stroke-width="2.0"/>
<line x1="330.7" y1="289.4" x2="363.5" y2="308.4" opacity="1.0" stroke="rgb(0,0,0)" stroke-width="2.0"/>
<line x1="363.5" y1="308.4" x2="363.5" y2="346.3" opacity="1.0" stroke="rgb(0,0,0)" stroke-width="2.0"/>
<line x1="356.3" y1="314.4" x2="356.3" y2="340.3" opacity="1.0" stroke="rgb(0,0,0)" stroke-width="2.0"/>
<line x1="363.5" y1="346.3" x2="330.7" y2="365.2" opacity="1.0" stroke="rgb(0,0,0)" stroke-width="2.0"/>
<line x1="330.7" y1="365.2" x2="297.9" y2="346.3" opacity="1.0" stroke="rgb(0,0,0)" stroke-width="2.0"/>
<line x1="329.1" y1="356.0" x2="306.7" y2="343.1" opacity="1.0" stroke="rgb(0,0,0)" stroke-width="2.0"/>
<line x1="396.3" y1="137.9" x2="429.2" y2="118.9" opacity="1.0" stroke="rgb(0,0,0)" stroke-width="2.0"/>
<line x1="429.2" y1="118.9" x2="462.0" y2="137.9" opacity="1.0" stroke="rgb(0,0,0)" stroke-width="2.0"/>
<line x1="430.8" y1="128.2" x2="453.2" y2="141.1" opacity="1.0" stroke="rgb(0,0,0)" stroke-width="2.0"/>
<line x1="462.0" y1="137.9" x2="462.0" y2="175.8" opacity="1.0" stroke="rgb(0,0,0)" stroke-width="2.0"/>
<line x1="462.0" y1="175.8" x2="429.2" y2="194.7" opacity="1.0" stroke="rgb(0,0,0)" stroke-width="2.0"/>
<line x1="453.2" y1="172.5" x2="430.8" y2="185.5" opacity="1.0" stroke="rgb(0,0,0)" stroke-width="2.0"/>
<line x1="429.2" y1="194.7" x2="396.3" y2="175.8" opacity="1.0" stroke="rgb(0,0,0)" stroke-width="2.0"/>
<line x1="396.3" y1="175.8" x2="396.3" y2="137.9" opacity="1.0" stroke="rgb(0,0,0)" stroke-width="2.0"/>
<line x1="403.5" y1="169.8" x2="403.5" y2="143.9" opacity="1.0" stroke="rgb(0,0,0)" stroke-width="2.0"/>
<line x1="265.1" y1="213.7" x2="232.3" y2="194.7" opacity="1.0" stroke="rgb(0,0,0)" stroke-width="2.0"/>
<line x1="232.3" y1="194.7" x2="232.3" y2="156.8" opacity="1.0" stroke="rgb(0,0,0)" stroke-width="2.0"/>
<line x1="239.5" y1="188.7" x2="239.5" y2="162.8" opacity="1.0" stroke="rgb(0,0,0)" stroke-width="2.0"/>
<line x1="232.3" y1="156.8" x2="265.1" y2="137.9" opacity="1.0" stroke="rgb(0,0,0)" stroke-width="2.0"/>
<line x1="265.1" y1="137.9" x2="297.9" y2="156.8" opacity="1.0" stroke="rgb(0,0,0)" stroke-width="2.0"/>
<line x1="266.7" y1="147.1" x2="289.1" y2="160.1" opacity="1.0" stroke="rgb(0,0,0)" stroke-width="2.0"/>
<line x1="297.9" y1="156.8" x2="297.9" y2="194.7" opacity="1.0" stroke="rgb(0,0,0)" stroke-width="2.0"/>
<line x1="297.9" y1="194.7" x2="265.1" y2="213.7" opacity="1.0" stroke="rgb(0,0,0)" stroke-width="2.0"/>
<line x1="289.1" y1="191.5" x2="266.7" y2="204.4" opacity="1.0" stroke="rgb(0,0,0)" stroke-width="2.0"/>
<line x1="101.0" y1="156.8" x2="68.2" y2="137.9" opacity="1.0" stroke="rgb(0,0,0)" stroke-width="2.0"/>
<line x1="68.2" y1="137.9" x2="68.2" y2="100.0" opacity="1.0" stroke="rgb(0,0,0)" stroke-width="2.0"/>
<line x1="75.4" y1="131.9" x2="75.4" y2="106.0" opacity="1.0" stroke="rgb(0,0,0)" stroke-width="2.0"/>
<line x1="101.0" y1="81.0" x2="133.8" y2="100.0" opacity="1.0" stroke="rgb(0,0,0)" stroke-width="2.0"/>
<line x1="102.6" y1="90.3" x2="125.0" y2="103.2" opacity="1.0" stroke="rgb(0,0,0)" stroke-width="2.0"/>
<line x1="133.8" y1="100.0" x2="133.8" y2="137.9" opacity="1.0" stroke="rgb(0,0,0)" stroke-width="2.0"/>
<line x1="133.8" y1="137.9" x2="101.0" y2="156.8" opacity="1.0" stroke="rgb(0,0,0)" stroke-width="2.0"/>
<line x1="125.0" y1="134.6" x2="102.6" y2="147.6" opacity="1.0" stroke="rgb(0,0,0)" stroke-width="2.0"/>
<text x="22.000000" y="82.618565" fill="rgb(12,12,255)" stroke-width="0" font-weight="bold" font-size="16">HN</text>
<text x="271.885911" y="430.080356" fill="rgb(102,102,102)" stroke-width="0" font-weight="bold" font-size="16">H</text>
<text x="283.885911" y="433.760356" fill="rgb(102,102,102)" stroke-width="0" font-weight="bold" font-size="13">3</text>
<text x="290.385911" y="430.080356" fill="rgb(102,102,102)" stroke-width="0" font-weight="bold" font-size="16">C</text>
<text x="324.703716" y="411.132988" fill="rgb(255,12,12)" stroke-width="0" font-weight="bold" font-size="16">O</text>
<text x="324.703716" y="221.659303" fill="rgb(12,12,255)" stroke-width="0" font-weight="bold" font-size="16">N</text>
</svg>
</g>
</svg>
