<svg xmlns="http://www.w3.org/2000/svg" x="0" y="0" viewBox="0 0 100 100">
<title>E_8_R - Open Babel Depiction</title>
<rect x="0" y="0" width="100" height="100" fill="white"/>
<g transform="translate(0,0)">
<svg width="100" height="100" x="0" y="0" viewBox="0 0 507.239 402.564" font-family="sans-serif" stroke="rgb(0,0,0)" stroke-width="2" stroke-linecap="round">
<line x1="368.6" y1="229.7" x2="314.2" y2="198.3" opacity="1.0" stroke="rgb(0,0,0)" stroke-width="2.0"/>
<line x1="302.9" y1="178.8" x2="302.9" y2="115.9" opacity="1.0" stroke="rgb(0,0,0)" stroke-width="2.0"/>
<line x1="467.2" y1="299.7" x2="467.2" y2="311.6" opacity="1.0" stroke="rgb(0,0,0)" stroke-width="2.0"/>
<line x1="434.4" y1="267.7" x2="456.0" y2="280.2" opacity="1.0" stroke="rgb(0,0,0)" stroke-width="2.0"/>
<line x1="291.7" y1="198.3" x2="270.1" y2="210.8" opacity="1.0" stroke="rgb(0,0,0)" stroke-width="2.0"/>
<line x1="60.1" y1="320.7" x2="49.8" y2="314.7" opacity="1.0" stroke="rgb(0,0,0)" stroke-width="2.0"/>
<line x1="63.1" y1="315.5" x2="52.8" y2="309.5" opacity="1.0" stroke="rgb(0,0,0)" stroke-width="2.0"/>
<line x1="72.9" y1="337.6" x2="72.9" y2="349.6" opacity="1.0" stroke="rgb(0,0,0)" stroke-width="2.0"/>
<line x1="105.7" y1="305.6" x2="84.1" y2="318.1" opacity="1.0" stroke="rgb(0,0,0)" stroke-width="2.0"/>
<line x1="204.3" y1="248.7" x2="171.5" y2="267.7" opacity="1.0" stroke="rgb(0,0,0)" stroke-width="2.0"/>
<line x1="288.1" y1="296.9" x2="293.0" y2="286.0" opacity="1.0" stroke="rgb(0,0,0)" stroke-width="2.0"/>
<line x1="288.9" y1="265.7" x2="270.1" y2="248.7" opacity="1.0" stroke="rgb(0,0,0)" stroke-width="2.0"/>
<line x1="282.5" y1="269.6" x2="269.7" y2="258.1" opacity="1.0" stroke="rgb(0,0,0)" stroke-width="2.0"/>
<line x1="270.1" y1="248.7" x2="237.2" y2="267.7" opacity="1.0" stroke="rgb(0,0,0)" stroke-width="2.0"/>
<line x1="237.2" y1="267.7" x2="242.5" y2="292.6" opacity="1.0" stroke="rgb(0,0,0)" stroke-width="2.0"/>
<line x1="245.5" y1="272.1" x2="249.1" y2="288.9" opacity="1.0" stroke="rgb(0,0,0)" stroke-width="2.0"/>
<line x1="258.0" y1="306.2" x2="269.9" y2="307.4" opacity="1.0" stroke="rgb(0,0,0)" stroke-width="2.0"/>
<line x1="401.5" y1="286.7" x2="368.6" y2="267.7" opacity="1.0" stroke="rgb(0,0,0)" stroke-width="2.0"/>
<line x1="368.6" y1="267.7" x2="368.6" y2="229.7" opacity="1.0" stroke="rgb(0,0,0)" stroke-width="2.0"/>
<line x1="375.8" y1="261.7" x2="375.8" y2="235.7" opacity="1.0" stroke="rgb(0,0,0)" stroke-width="2.0"/>
<line x1="368.6" y1="229.7" x2="401.5" y2="210.8" opacity="1.0" stroke="rgb(0,0,0)" stroke-width="2.0"/>
<line x1="401.5" y1="210.8" x2="434.4" y2="229.7" opacity="1.0" stroke="rgb(0,0,0)" stroke-width="2.0"/>
<line x1="403.1" y1="220.0" x2="425.6" y2="233.0" opacity="1.0" stroke="rgb(0,0,0)" stroke-width="2.0"/>
<line x1="434.4" y1="229.7" x2="434.4" y2="267.7" opacity="1.0" stroke="rgb(0,0,0)" stroke-width="2.0"/>
<line x1="434.4" y1="267.7" x2="401.5" y2="286.7" opacity="1.0" stroke="rgb(0,0,0)" stroke-width="2.0"/>
<line x1="425.6" y1="264.5" x2="403.1" y2="277.4" opacity="1.0" stroke="rgb(0,0,0)" stroke-width="2.0"/>
<line x1="270.1" y1="96.9" x2="270.1" y2="59.0" opacity="1.0" stroke="rgb(0,0,0)" stroke-width="2.0"/>
<line x1="270.1" y1="59.0" x2="302.9" y2="40.0" opacity="1.0" stroke="rgb(0,0,0)" stroke-width="2.0"/>
<line x1="278.8" y1="62.2" x2="301.3" y2="49.2" opacity="1.0" stroke="rgb(0,0,0)" stroke-width="2.0"/>
<line x1="302.9" y1="40.0" x2="335.8" y2="59.0" opacity="1.0" stroke="rgb(0,0,0)" stroke-width="2.0"/>
<line x1="335.8" y1="59.0" x2="335.8" y2="96.9" opacity="1.0" stroke="rgb(0,0,0)" stroke-width="2.0"/>
<line x1="328.6" y1="65.0" x2="328.6" y2="90.9" opacity="1.0" stroke="rgb(0,0,0)" stroke-width="2.0"/>
<line x1="335.8" y1="96.9" x2="302.9" y2="115.9" opacity="1.0" stroke="rgb(0,0,0)" stroke-width="2.0"/>
<line x1="302.9" y1="115.9" x2="270.1" y2="96.9" opacity="1.0" stroke="rgb(0,0,0)" stroke-width="2.0"/>
<line x1="301.3" y1="106.7" x2="278.8" y2="93.7" opacity="1.0" stroke="rgb(0,0,0)" stroke-width="2.0"/>
<line x1="237.2" y1="191.8" x2="204.3" y2="210.8" opacity="1.0" stroke="rgb(0,0,0)" stroke-width="2.0"/>
<line x1="204.3" y1="210.8" x2="204.3" y2="248.7" opacity="1.0" stroke="rgb(0,0,0)" stroke-width="2.0"/>
<line x1="211.5" y1="216.8" x2="211.5" y2="242.7" opacity="1.0" stroke="rgb(0,0,0)" stroke-width="2.0"/>
<line x1="204.3" y1="248.7" x2="237.2" y2="267.7" opacity="1.0" stroke="rgb(0,0,0)" stroke-width="2.0"/>
<line x1="270.1" y1="248.7" x2="270.1" y2="210.8" opacity="1.0" stroke="rgb(0,0,0)" stroke-width="2.0"/>
<line x1="270.1" y1="210.8" x2="237.2" y2="191.8" opacity="1.0" stroke="rgb(0,0,0)" stroke-width="2.0"/>
<line x1="261.3" y1="214.0" x2="238.8" y2="201.0" opacity="1.0" stroke="rgb(0,0,0)" stroke-width="2.0"/>
<line x1="160.2" y1="312.1" x2="138.6" y2="324.6" opacity="1.0" stroke="rgb(0,0,0)" stroke-width="2.0"/>
<line x1="138.6" y1="324.6" x2="105.7" y2="305.6" opacity="1.0" stroke="rgb(0,0,0)" stroke-width="2.0"/>
<line x1="137.0" y1="315.4" x2="114.5" y2="302.4" opacity="1.0" stroke="rgb(0,0,0)" stroke-width="2.0"/>
<line x1="105.7" y1="305.6" x2="105.7" y2="267.7" opacity="1.0" stroke="rgb(0,0,0)" stroke-width="2.0"/>
<line x1="105.7" y1="267.7" x2="138.6" y2="248.7" opacity="1.0" stroke="rgb(0,0,0)" stroke-width="2.0"/>
<line x1="114.5" y1="270.9" x2="137.0" y2="258.0" opacity="1.0" stroke="rgb(0,0,0)" stroke-width="2.0"/>
<line x1="138.6" y1="248.7" x2="171.5" y2="267.7" opacity="1.0" stroke="rgb(0,0,0)" stroke-width="2.0"/>
<line x1="171.5" y1="267.7" x2="171.5" y2="293.1" opacity="1.0" stroke="rgb(0,0,0)" stroke-width="2.0"/>
<line x1="164.3" y1="273.7" x2="164.3" y2="290.9" opacity="1.0" stroke="rgb(0,0,0)" stroke-width="2.0"/>
<text x="165.458215" y="313.641026" fill="rgb(12,12,255)" stroke-width="0" font-weight="bold" font-size="16">N</text>
<text x="239.077305" y="312.811755" fill="rgb(12,12,255)" stroke-width="0" font-weight="bold" font-size="16">N</text>
<text x="276.818136" y="316.778476" fill="rgb(178,178,0)" stroke-width="0" font-weight="bold" font-size="16">S</text>
<text x="292.253270" y="282.110597" fill="rgb(12,12,255)" stroke-width="0" font-weight="bold" font-size="16">N</text>
<text x="66.864554" y="332.615385" fill="rgb(12,12,255)" stroke-width="0" font-weight="bold" font-size="16">N</text>
<text x="34.000000" y="313.641026" fill="rgb(255,12,12)" stroke-width="0" font-weight="bold" font-size="16">O</text>
<text x="77.664554" y="358.532103" fill="rgb(255,12,12)" stroke-width="0" font-weight="bold" font-size="16"/>
<text x="77.664554" y="358.532103" fill="rgb(255,12,12)" stroke-width="0" font-weight="bold" font-size="32">.</text>
<text x="66.864554" y="370.564103" fill="rgb(255,12,12)" stroke-width="0" font-weight="bold" font-size="16">O</text>
<text x="463.239199" y="332.615385" fill="rgb(102,102,102)" stroke-width="0" font-weight="bold" font-size="16">CH</text>
<text x="487.239199" y="336.295385" fill="rgb(102,102,102)" stroke-width="0" font-weight="bold" font-size="13">3</text>
<text x="461.239199" y="294.666667" fill="rgb(255,12,12)" stroke-width="0" font-weight="bold" font-size="16">O</text>
<text x="296.916430" y="199.794872" fill="rgb(12,12,255)" stroke-width="0" font-weight="bold" font-size="16">N</text>
</svg>
</g>
</svg>
