<svg xmlns="http://www.w3.org/2000/svg" xmlns:xlink="http://www.w3.org/1999/xlink" xmlns:cml="http://www.xml-cml.org/schema" version="1.1" id="topsvg" x="0" y="0" viewBox="0 0 100 100">
<title>E_8_T - Open Babel Depiction</title>
<rect x="0" y="0" width="100" height="100" fill="white"/>
<g transform="translate(0,0)">
<svg width="100" height="100" x="0" y="0" viewBox="0 0 473.222 363.784" font-family="sans-serif" stroke="rgb(0,0,0)" stroke-width="2" stroke-linecap="round">
<line x1="138.3" y1="134.6" x2="192.6" y2="165.9" opacity="1.0" stroke="rgb(0,0,0)" stroke-width="2.0"/>
<line x1="203.8" y1="185.4" x2="203.8" y2="248.1" opacity="1.0" stroke="rgb(0,0,0)" stroke-width="2.0"/>
<line x1="40.0" y1="64.8" x2="40.0" y2="53.0" opacity="1.0" stroke="rgb(0,0,0)" stroke-width="2.0"/>
<line x1="72.8" y1="96.8" x2="51.3" y2="84.3" opacity="1.0" stroke="rgb(0,0,0)" stroke-width="2.0"/>
<line x1="215.1" y1="165.9" x2="236.6" y2="153.5" opacity="1.0" stroke="rgb(0,0,0)" stroke-width="2.0"/>
<line x1="400.5" y1="58.9" x2="422.0" y2="46.5" opacity="1.0" stroke="rgb(0,0,0)" stroke-width="2.0"/>
<line x1="302.1" y1="115.7" x2="334.9" y2="96.8" opacity="1.0" stroke="rgb(0,0,0)" stroke-width="2.0"/>
<line x1="218.6" y1="67.7" x2="213.8" y2="78.5" opacity="1.0" stroke="rgb(0,0,0)" stroke-width="2.0"/>
<line x1="217.8" y1="98.7" x2="236.6" y2="115.7" opacity="1.0" stroke="rgb(0,0,0)" stroke-width="2.0"/>
<line x1="224.2" y1="94.8" x2="237.0" y2="106.3" opacity="1.0" stroke="rgb(0,0,0)" stroke-width="2.0"/>
<line x1="236.6" y1="115.7" x2="269.4" y2="96.8" opacity="1.0" stroke="rgb(0,0,0)" stroke-width="2.0"/>
<line x1="269.4" y1="96.8" x2="264.1" y2="72.0" opacity="1.0" stroke="rgb(0,0,0)" stroke-width="2.0"/>
<line x1="261.1" y1="92.4" x2="257.5" y2="75.6" opacity="1.0" stroke="rgb(0,0,0)" stroke-width="2.0"/>
<line x1="248.6" y1="58.4" x2="236.8" y2="57.1" opacity="1.0" stroke="rgb(0,0,0)" stroke-width="2.0"/>
<line x1="105.5" y1="77.8" x2="138.3" y2="96.8" opacity="1.0" stroke="rgb(0,0,0)" stroke-width="2.0"/>
<line x1="138.3" y1="96.8" x2="138.3" y2="134.6" opacity="1.0" stroke="rgb(0,0,0)" stroke-width="2.0"/>
<line x1="131.1" y1="102.8" x2="131.1" y2="128.6" opacity="1.0" stroke="rgb(0,0,0)" stroke-width="2.0"/>
<line x1="138.3" y1="134.6" x2="105.5" y2="153.5" opacity="1.0" stroke="rgb(0,0,0)" stroke-width="2.0"/>
<line x1="105.5" y1="153.5" x2="72.8" y2="134.6" opacity="1.0" stroke="rgb(0,0,0)" stroke-width="2.0"/>
<line x1="103.9" y1="144.3" x2="81.6" y2="131.4" opacity="1.0" stroke="rgb(0,0,0)" stroke-width="2.0"/>
<line x1="72.8" y1="134.6" x2="72.8" y2="96.8" opacity="1.0" stroke="rgb(0,0,0)" stroke-width="2.0"/>
<line x1="72.8" y1="96.8" x2="105.5" y2="77.8" opacity="1.0" stroke="rgb(0,0,0)" stroke-width="2.0"/>
<line x1="81.6" y1="100.0" x2="103.9" y2="87.1" opacity="1.0" stroke="rgb(0,0,0)" stroke-width="2.0"/>
<line x1="236.6" y1="267.0" x2="236.6" y2="304.9" opacity="1.0" stroke="rgb(0,0,0)" stroke-width="2.0"/>
<line x1="236.6" y1="304.9" x2="203.8" y2="323.8" opacity="1.0" stroke="rgb(0,0,0)" stroke-width="2.0"/>
<line x1="227.8" y1="301.6" x2="205.4" y2="314.5" opacity="1.0" stroke="rgb(0,0,0)" stroke-width="2.0"/>
<line x1="203.8" y1="323.8" x2="171.1" y2="304.9" opacity="1.0" stroke="rgb(0,0,0)" stroke-width="2.0"/>
<line x1="171.1" y1="304.9" x2="171.1" y2="267.0" opacity="1.0" stroke="rgb(0,0,0)" stroke-width="2.0"/>
<line x1="178.3" y1="298.9" x2="178.3" y2="273.0" opacity="1.0" stroke="rgb(0,0,0)" stroke-width="2.0"/>
<line x1="171.1" y1="267.0" x2="203.8" y2="248.1" opacity="1.0" stroke="rgb(0,0,0)" stroke-width="2.0"/>
<line x1="203.8" y1="248.1" x2="236.6" y2="267.0" opacity="1.0" stroke="rgb(0,0,0)" stroke-width="2.0"/>
<line x1="205.4" y1="257.3" x2="227.8" y2="270.3" opacity="1.0" stroke="rgb(0,0,0)" stroke-width="2.0"/>
<line x1="269.4" y1="172.4" x2="302.1" y2="153.5" opacity="1.0" stroke="rgb(0,0,0)" stroke-width="2.0"/>
<line x1="302.1" y1="153.5" x2="302.1" y2="115.7" opacity="1.0" stroke="rgb(0,0,0)" stroke-width="2.0"/>
<line x1="294.9" y1="147.5" x2="294.9" y2="121.7" opacity="1.0" stroke="rgb(0,0,0)" stroke-width="2.0"/>
<line x1="302.1" y1="115.7" x2="269.4" y2="96.8" opacity="1.0" stroke="rgb(0,0,0)" stroke-width="2.0"/>
<line x1="236.6" y1="115.7" x2="236.6" y2="153.5" opacity="1.0" stroke="rgb(0,0,0)" stroke-width="2.0"/>
<line x1="236.6" y1="153.5" x2="269.4" y2="172.4" opacity="1.0" stroke="rgb(0,0,0)" stroke-width="2.0"/>
<line x1="245.4" y1="150.3" x2="267.8" y2="163.2" opacity="1.0" stroke="rgb(0,0,0)" stroke-width="2.0"/>
<line x1="334.9" y1="58.9" x2="367.7" y2="40.0" opacity="1.0" stroke="rgb(0,0,0)" stroke-width="2.0"/>
<line x1="367.7" y1="40.0" x2="400.5" y2="58.9" opacity="1.0" stroke="rgb(0,0,0)" stroke-width="2.0"/>
<line x1="369.3" y1="49.2" x2="391.7" y2="62.2" opacity="1.0" stroke="rgb(0,0,0)" stroke-width="2.0"/>
<line x1="400.5" y1="58.9" x2="400.5" y2="96.8" opacity="1.0" stroke="rgb(0,0,0)" stroke-width="2.0"/>
<line x1="400.5" y1="96.8" x2="367.7" y2="115.7" opacity="1.0" stroke="rgb(0,0,0)" stroke-width="2.0"/>
<line x1="391.7" y1="93.5" x2="369.3" y2="106.4" opacity="1.0" stroke="rgb(0,0,0)" stroke-width="2.0"/>
<line x1="367.7" y1="115.7" x2="334.9" y2="96.8" opacity="1.0" stroke="rgb(0,0,0)" stroke-width="2.0"/>
<line x1="334.9" y1="96.8" x2="334.9" y2="58.9" opacity="1.0" stroke="rgb(0,0,0)" stroke-width="2.0"/>
<line x1="342.1" y1="90.8" x2="342.1" y2="64.9" opacity="1.0" stroke="rgb(0,0,0)" stroke-width="2.0"/>
<text x="429.222346" y="48.000000" fill="rgb(102,102,102)" stroke-width="0" font-weight="bold" font-size="16">CH</text>
<text x="453.222346" y="51.680000" fill="rgb(102,102,102)" stroke-width="0" font-weight="bold" font-size="13">3</text>
<text x="202.492179" y="98.357220" fill="rgb(12,12,255)" stroke-width="0" font-weight="bold" font-size="16">N</text>
<text x="217.882214" y="63.790635" fill="rgb(178,178,0)" stroke-width="0" font-weight="bold" font-size="16">S</text>
<text x="255.512773" y="67.745766" fill="rgb(12,12,255)" stroke-width="0" font-weight="bold" font-size="16">N</text>
<text x="36.000000" y="48.000000" fill="rgb(102,102,102)" stroke-width="0" font-weight="bold" font-size="16">CH</text>
<text x="60.000000" y="51.680000" fill="rgb(102,102,102)" stroke-width="0" font-weight="bold" font-size="13">3</text>
<text x="34.000000" y="85.837838" fill="rgb(255,12,12)" stroke-width="0" font-weight="bold" font-size="16">O</text>
<text x="197.842644" y="180.432432" fill="rgb(12,12,255)" stroke-width="0" font-weight="bold" font-size="16">N</text>
</svg>
</g>
</svg>