<svg xmlns="http://www.w3.org/2000/svg" xmlns:xlink="http://www.w3.org/1999/xlink" xmlns:cml="http://www.xml-cml.org/schema" version="1.1" id="topsvg" x="0" y="0" viewBox="0 0 100 100">
<title>E_8_N - Open Babel Depiction</title>
<rect x="0" y="0" width="100" height="100" fill="white"/>
<g transform="translate(0,0)">
<svg width="100" height="100" x="0" y="0" viewBox="0 0 433.643 362.857" font-family="sans-serif" stroke="rgb(0,0,0)" stroke-width="2" stroke-linecap="round">
<line x1="295.7" y1="228.6" x2="241.6" y2="197.4" opacity="1.0" stroke="rgb(0,0,0)" stroke-width="2.0"/>
<line x1="230.3" y1="177.9" x2="230.3" y2="115.4" opacity="1.0" stroke="rgb(0,0,0)" stroke-width="2.0"/>
<line x1="393.6" y1="298.1" x2="393.6" y2="309.9" opacity="1.0" stroke="rgb(0,0,0)" stroke-width="2.0"/>
<line x1="361.0" y1="266.3" x2="382.4" y2="278.6" opacity="1.0" stroke="rgb(0,0,0)" stroke-width="2.0"/>
<line x1="219.1" y1="197.4" x2="197.7" y2="209.7" opacity="1.0" stroke="rgb(0,0,0)" stroke-width="2.0"/>
<line x1="132.4" y1="247.4" x2="99.7" y2="266.3" opacity="1.0" stroke="rgb(0,0,0)" stroke-width="2.0"/>
<line x1="215.6" y1="295.2" x2="220.4" y2="284.5" opacity="1.0" stroke="rgb(0,0,0)" stroke-width="2.0"/>
<line x1="216.5" y1="264.3" x2="197.7" y2="247.4" opacity="1.0" stroke="rgb(0,0,0)" stroke-width="2.0"/>
<line x1="210.0" y1="268.2" x2="197.3" y2="256.8" opacity="1.0" stroke="rgb(0,0,0)" stroke-width="2.0"/>
<line x1="197.7" y1="247.4" x2="165.0" y2="266.3" opacity="1.0" stroke="rgb(0,0,0)" stroke-width="2.0"/>
<line x1="165.0" y1="266.3" x2="170.3" y2="291.0" opacity="1.0" stroke="rgb(0,0,0)" stroke-width="2.0"/>
<line x1="173.3" y1="270.7" x2="176.8" y2="287.3" opacity="1.0" stroke="rgb(0,0,0)" stroke-width="2.0"/>
<line x1="185.8" y1="304.5" x2="197.4" y2="305.8" opacity="1.0" stroke="rgb(0,0,0)" stroke-width="2.0"/>
<line x1="95.7" y1="303.8" x2="71.6" y2="308.9" opacity="1.0" stroke="rgb(0,0,0)" stroke-width="2.0"/>
<line x1="52.4" y1="300.4" x2="40.0" y2="279.0" opacity="1.0" stroke="rgb(0,0,0)" stroke-width="2.0"/>
<line x1="40.0" y1="279.0" x2="65.2" y2="250.9" opacity="1.0" stroke="rgb(0,0,0)" stroke-width="2.0"/>
<line x1="49.4" y1="279.3" x2="66.6" y2="260.2" opacity="1.0" stroke="rgb(0,0,0)" stroke-width="2.0"/>
<line x1="65.2" y1="250.9" x2="99.7" y2="266.3" opacity="1.0" stroke="rgb(0,0,0)" stroke-width="2.0"/>
<line x1="99.7" y1="266.3" x2="95.7" y2="303.8" opacity="1.0" stroke="rgb(0,0,0)" stroke-width="2.0"/>
<line x1="91.9" y1="271.5" x2="89.2" y2="297.1" opacity="1.0" stroke="rgb(0,0,0)" stroke-width="2.0"/>
<line x1="328.3" y1="285.1" x2="295.7" y2="266.3" opacity="1.0" stroke="rgb(0,0,0)" stroke-width="2.0"/>
<line x1="295.7" y1="266.3" x2="295.7" y2="228.6" opacity="1.0" stroke="rgb(0,0,0)" stroke-width="2.0"/>
<line x1="302.9" y1="260.3" x2="302.9" y2="234.6" opacity="1.0" stroke="rgb(0,0,0)" stroke-width="2.0"/>
<line x1="295.7" y1="228.6" x2="328.3" y2="209.7" opacity="1.0" stroke="rgb(0,0,0)" stroke-width="2.0"/>
<line x1="328.3" y1="209.7" x2="361.0" y2="228.6" opacity="1.0" stroke="rgb(0,0,0)" stroke-width="2.0"/>
<line x1="329.9" y1="218.9" x2="352.2" y2="231.8" opacity="1.0" stroke="rgb(0,0,0)" stroke-width="2.0"/>
<line x1="361.0" y1="228.6" x2="361.0" y2="266.3" opacity="1.0" stroke="rgb(0,0,0)" stroke-width="2.0"/>
<line x1="361.0" y1="266.3" x2="328.3" y2="285.1" opacity="1.0" stroke="rgb(0,0,0)" stroke-width="2.0"/>
<line x1="352.2" y1="263.1" x2="329.9" y2="275.9" opacity="1.0" stroke="rgb(0,0,0)" stroke-width="2.0"/>
<line x1="197.7" y1="96.6" x2="197.7" y2="58.9" opacity="1.0" stroke="rgb(0,0,0)" stroke-width="2.0"/>
<line x1="197.7" y1="58.9" x2="230.3" y2="40.0" opacity="1.0" stroke="rgb(0,0,0)" stroke-width="2.0"/>
<line x1="206.5" y1="62.1" x2="228.7" y2="49.2" opacity="1.0" stroke="rgb(0,0,0)" stroke-width="2.0"/>
<line x1="230.3" y1="40.0" x2="263.0" y2="58.9" opacity="1.0" stroke="rgb(0,0,0)" stroke-width="2.0"/>
<line x1="263.0" y1="58.9" x2="263.0" y2="96.6" opacity="1.0" stroke="rgb(0,0,0)" stroke-width="2.0"/>
<line x1="255.8" y1="64.9" x2="255.8" y2="90.6" opacity="1.0" stroke="rgb(0,0,0)" stroke-width="2.0"/>
<line x1="263.0" y1="96.6" x2="230.3" y2="115.4" opacity="1.0" stroke="rgb(0,0,0)" stroke-width="2.0"/>
<line x1="230.3" y1="115.4" x2="197.7" y2="96.6" opacity="1.0" stroke="rgb(0,0,0)" stroke-width="2.0"/>
<line x1="228.7" y1="106.2" x2="206.5" y2="93.3" opacity="1.0" stroke="rgb(0,0,0)" stroke-width="2.0"/>
<line x1="165.0" y1="190.9" x2="132.4" y2="209.7" opacity="1.0" stroke="rgb(0,0,0)" stroke-width="2.0"/>
<line x1="132.4" y1="209.7" x2="132.4" y2="247.4" opacity="1.0" stroke="rgb(0,0,0)" stroke-width="2.0"/>
<line x1="139.6" y1="215.7" x2="139.6" y2="241.4" opacity="1.0" stroke="rgb(0,0,0)" stroke-width="2.0"/>
<line x1="132.4" y1="247.4" x2="165.0" y2="266.3" opacity="1.0" stroke="rgb(0,0,0)" stroke-width="2.0"/>
<line x1="197.7" y1="247.4" x2="197.7" y2="209.7" opacity="1.0" stroke="rgb(0,0,0)" stroke-width="2.0"/>
<line x1="197.7" y1="209.7" x2="165.0" y2="190.9" opacity="1.0" stroke="rgb(0,0,0)" stroke-width="2.0"/>
<line x1="188.9" y1="212.9" x2="166.6" y2="200.1" opacity="1.0" stroke="rgb(0,0,0)" stroke-width="2.0"/>
<text x="389.643263" y="330.857143" fill="rgb(102,102,102)" stroke-width="0" font-weight="bold" font-size="16">CH</text>
<text x="413.643263" y="334.537143" fill="rgb(102,102,102)" stroke-width="0" font-weight="bold" font-size="13">3</text>
<text x="52.857143" y="319.634638" fill="rgb(178,178,0)" stroke-width="0" font-weight="bold" font-size="16">S</text>
<text x="219.701262" y="280.664354" fill="rgb(12,12,255)" stroke-width="0" font-weight="bold" font-size="16">N</text>
<text x="204.361480" y="315.118069" fill="rgb(178,178,0)" stroke-width="0" font-weight="bold" font-size="16">S</text>
<text x="166.853797" y="311.175852" fill="rgb(12,12,255)" stroke-width="0" font-weight="bold" font-size="16">N</text>
<text x="387.643263" y="293.142857" fill="rgb(255,12,12)" stroke-width="0" font-weight="bold" font-size="16">O</text>
<text x="224.335615" y="198.857143" fill="rgb(12,12,255)" stroke-width="0" font-weight="bold" font-size="16">N</text>
</svg>
</g>
</svg>