<svg xmlns="http://www.w3.org/2000/svg" x="0" y="0" viewBox="0 0 100 100">
<title>E_8_L - Open Babel Depiction</title>
<rect x="0" y="0" width="100" height="100" fill="white"/>
<g transform="translate(0,0)">
<svg width="100" height="100" x="0" y="0" viewBox="0 0 500.475 365" font-family="sans-serif" stroke="rgb(0,0,0)" stroke-width="2" stroke-linecap="round">
<line x1="138.7" y1="135.0" x2="193.3" y2="166.5" opacity="1.0" stroke="rgb(0,0,0)" stroke-width="2.0"/>
<line x1="204.5" y1="186.0" x2="204.5" y2="249.0" opacity="1.0" stroke="rgb(0,0,0)" stroke-width="2.0"/>
<line x1="40.0" y1="65.0" x2="40.0" y2="53.0" opacity="1.0" stroke="rgb(0,0,0)" stroke-width="2.0"/>
<line x1="72.9" y1="97.0" x2="51.3" y2="84.5" opacity="1.0" stroke="rgb(0,0,0)" stroke-width="2.0"/>
<line x1="215.8" y1="166.5" x2="237.5" y2="154.0" opacity="1.0" stroke="rgb(0,0,0)" stroke-width="2.0"/>
<line x1="303.3" y1="116.0" x2="336.2" y2="97.0" opacity="1.0" stroke="rgb(0,0,0)" stroke-width="2.0"/>
<line x1="219.4" y1="67.7" x2="214.5" y2="78.7" opacity="1.0" stroke="rgb(0,0,0)" stroke-width="2.0"/>
<line x1="218.5" y1="99.0" x2="237.5" y2="116.0" opacity="1.0" stroke="rgb(0,0,0)" stroke-width="2.0"/>
<line x1="225.0" y1="95.1" x2="237.8" y2="106.6" opacity="1.0" stroke="rgb(0,0,0)" stroke-width="2.0"/>
<line x1="237.5" y1="116.0" x2="270.4" y2="97.0" opacity="1.0" stroke="rgb(0,0,0)" stroke-width="2.0"/>
<line x1="270.4" y1="97.0" x2="265.1" y2="72.1" opacity="1.0" stroke="rgb(0,0,0)" stroke-width="2.0"/>
<line x1="262.1" y1="92.6" x2="258.5" y2="75.7" opacity="1.0" stroke="rgb(0,0,0)" stroke-width="2.0"/>
<line x1="249.5" y1="58.5" x2="237.6" y2="57.2" opacity="1.0" stroke="rgb(0,0,0)" stroke-width="2.0"/>
<line x1="460.5" y1="78.0" x2="438.1" y2="108.7" opacity="1.0" stroke="rgb(0,0,0)" stroke-width="2.0"/>
<line x1="451.1" y1="78.6" x2="435.8" y2="99.7" opacity="1.0" stroke="rgb(0,0,0)" stroke-width="2.0"/>
<line x1="438.1" y1="108.7" x2="402.0" y2="97.0" opacity="1.0" stroke="rgb(0,0,0)" stroke-width="2.0"/>
<line x1="402.0" y1="97.0" x2="402.0" y2="59.0" opacity="1.0" stroke="rgb(0,0,0)" stroke-width="2.0"/>
<line x1="402.0" y1="59.0" x2="425.8" y2="51.3" opacity="1.0" stroke="rgb(0,0,0)" stroke-width="2.0"/>
<line x1="445.8" y1="57.8" x2="460.5" y2="78.0" opacity="1.0" stroke="rgb(0,0,0)" stroke-width="2.0"/>
<line x1="105.8" y1="78.0" x2="138.7" y2="97.0" opacity="1.0" stroke="rgb(0,0,0)" stroke-width="2.0"/>
<line x1="138.7" y1="97.0" x2="138.7" y2="135.0" opacity="1.0" stroke="rgb(0,0,0)" stroke-width="2.0"/>
<line x1="131.5" y1="103.0" x2="131.5" y2="129.0" opacity="1.0" stroke="rgb(0,0,0)" stroke-width="2.0"/>
<line x1="138.7" y1="135.0" x2="105.8" y2="154.0" opacity="1.0" stroke="rgb(0,0,0)" stroke-width="2.0"/>
<line x1="105.8" y1="154.0" x2="72.9" y2="135.0" opacity="1.0" stroke="rgb(0,0,0)" stroke-width="2.0"/>
<line x1="104.2" y1="144.8" x2="81.7" y2="131.8" opacity="1.0" stroke="rgb(0,0,0)" stroke-width="2.0"/>
<line x1="72.9" y1="135.0" x2="72.9" y2="97.0" opacity="1.0" stroke="rgb(0,0,0)" stroke-width="2.0"/>
<line x1="72.9" y1="97.0" x2="105.8" y2="78.0" opacity="1.0" stroke="rgb(0,0,0)" stroke-width="2.0"/>
<line x1="81.7" y1="100.2" x2="104.2" y2="87.2" opacity="1.0" stroke="rgb(0,0,0)" stroke-width="2.0"/>
<line x1="237.5" y1="268.0" x2="237.5" y2="306.0" opacity="1.0" stroke="rgb(0,0,0)" stroke-width="2.0"/>
<line x1="237.5" y1="306.0" x2="204.5" y2="325.0" opacity="1.0" stroke="rgb(0,0,0)" stroke-width="2.0"/>
<line x1="228.7" y1="302.8" x2="206.1" y2="315.8" opacity="1.0" stroke="rgb(0,0,0)" stroke-width="2.0"/>
<line x1="204.5" y1="325.0" x2="171.6" y2="306.0" opacity="1.0" stroke="rgb(0,0,0)" stroke-width="2.0"/>
<line x1="171.6" y1="306.0" x2="171.6" y2="268.0" opacity="1.0" stroke="rgb(0,0,0)" stroke-width="2.0"/>
<line x1="178.8" y1="300.0" x2="178.8" y2="274.0" opacity="1.0" stroke="rgb(0,0,0)" stroke-width="2.0"/>
<line x1="171.6" y1="268.0" x2="204.5" y2="249.0" opacity="1.0" stroke="rgb(0,0,0)" stroke-width="2.0"/>
<line x1="204.5" y1="249.0" x2="237.5" y2="268.0" opacity="1.0" stroke="rgb(0,0,0)" stroke-width="2.0"/>
<line x1="206.1" y1="258.2" x2="228.7" y2="271.2" opacity="1.0" stroke="rgb(0,0,0)" stroke-width="2.0"/>
<line x1="270.4" y1="173.0" x2="303.3" y2="154.0" opacity="1.0" stroke="rgb(0,0,0)" stroke-width="2.0"/>
<line x1="303.3" y1="154.0" x2="303.3" y2="116.0" opacity="1.0" stroke="rgb(0,0,0)" stroke-width="2.0"/>
<line x1="296.1" y1="148.0" x2="296.1" y2="122.0" opacity="1.0" stroke="rgb(0,0,0)" stroke-width="2.0"/>
<line x1="303.3" y1="116.0" x2="270.4" y2="97.0" opacity="1.0" stroke="rgb(0,0,0)" stroke-width="2.0"/>
<line x1="237.5" y1="116.0" x2="237.5" y2="154.0" opacity="1.0" stroke="rgb(0,0,0)" stroke-width="2.0"/>
<line x1="237.5" y1="154.0" x2="270.4" y2="173.0" opacity="1.0" stroke="rgb(0,0,0)" stroke-width="2.0"/>
<line x1="246.2" y1="150.8" x2="268.8" y2="163.8" opacity="1.0" stroke="rgb(0,0,0)" stroke-width="2.0"/>
<line x1="336.2" y1="59.0" x2="369.1" y2="40.0" opacity="1.0" stroke="rgb(0,0,0)" stroke-width="2.0"/>
<line x1="369.1" y1="40.0" x2="402.0" y2="59.0" opacity="1.0" stroke="rgb(0,0,0)" stroke-width="2.0"/>
<line x1="370.7" y1="49.2" x2="393.2" y2="62.2" opacity="1.0" stroke="rgb(0,0,0)" stroke-width="2.0"/>
<line x1="402.0" y1="97.0" x2="369.1" y2="116.0" opacity="1.0" stroke="rgb(0,0,0)" stroke-width="2.0"/>
<line x1="393.2" y1="93.8" x2="370.7" y2="106.8" opacity="1.0" stroke="rgb(0,0,0)" stroke-width="2.0"/>
<line x1="369.1" y1="116.0" x2="336.2" y2="97.0" opacity="1.0" stroke="rgb(0,0,0)" stroke-width="2.0"/>
<line x1="336.2" y1="97.0" x2="336.2" y2="59.0" opacity="1.0" stroke="rgb(0,0,0)" stroke-width="2.0"/>
<line x1="343.4" y1="91.0" x2="343.4" y2="65.0" opacity="1.0" stroke="rgb(0,0,0)" stroke-width="2.0"/>
<text x="256.462113" y="67.830391" fill="rgb(12,12,255)" stroke-width="0" font-weight="bold" font-size="16">N</text>
<text x="218.670281" y="63.858310" fill="rgb(178,178,0)" stroke-width="0" font-weight="bold" font-size="16">S</text>
<text x="203.214289" y="98.573037" fill="rgb(12,12,255)" stroke-width="0" font-weight="bold" font-size="16">N</text>
<text x="432.138766" y="55.257354" fill="rgb(12,12,255)" stroke-width="0" font-weight="bold" font-size="16">N</text>
<text x="432.138766" y="39.257354" fill="rgb(12,12,255)" stroke-width="0" font-weight="bold" font-size="16">H</text>
<text x="36.000000" y="48.000000" fill="rgb(102,102,102)" stroke-width="0" font-weight="bold" font-size="16">CH</text>
<text x="60.000000" y="51.680000" fill="rgb(102,102,102)" stroke-width="0" font-weight="bold" font-size="13">3</text>
<text x="34.000000" y="86.000000" fill="rgb(255,12,12)" stroke-width="0" font-weight="bold" font-size="16">O</text>
<text x="198.544827" y="181.000000" fill="rgb(12,12,255)" stroke-width="0" font-weight="bold" font-size="16">N</text>
</svg>
</g>
</svg>
