<svg xmlns="http://www.w3.org/2000/svg" xmlns:xlink="http://www.w3.org/1999/xlink" xmlns:cml="http://www.xml-cml.org/schema" version="1.1" id="topsvg" x="0" y="0" viewBox="0 0 100 100">
<title>F_2_N - Open Babel Depiction</title>
<rect x="0" y="0" width="100" height="100" fill="white"/>
<g transform="translate(0,0)">
<svg width="100" height="100" x="0" y="0" viewBox="0 0 357.128 328.097" font-family="sans-serif" stroke="rgb(0,0,0)" stroke-width="2" stroke-linecap="round">
<line x1="201.9" y1="161.6" x2="178.6" y2="148.1" opacity="1.0" stroke="rgb(0,0,0)" stroke-width="2.0"/>
<line x1="213.2" y1="181.1" x2="213.2" y2="208.1" opacity="1.0" stroke="rgb(0,0,0)" stroke-width="2.0"/>
<line x1="224.5" y1="161.6" x2="247.8" y2="148.1" opacity="1.0" stroke="rgb(0,0,0)" stroke-width="2.0"/>
<line x1="247.8" y1="108.1" x2="213.2" y2="88.1" opacity="1.0" stroke="rgb(0,0,0)" stroke-width="2.0"/>
<line x1="176.7" y1="104.4" x2="158.6" y2="84.3" opacity="1.0" stroke="rgb(0,0,0)" stroke-width="2.0"/>
<line x1="156.4" y1="63.4" x2="169.9" y2="40.0" opacity="1.0" stroke="rgb(0,0,0)" stroke-width="2.0"/>
<line x1="169.9" y1="40.0" x2="209.0" y2="48.3" opacity="1.0" stroke="rgb(0,0,0)" stroke-width="2.0"/>
<line x1="174.3" y1="48.3" x2="201.7" y2="54.1" opacity="1.0" stroke="rgb(0,0,0)" stroke-width="2.0"/>
<line x1="209.0" y1="48.3" x2="213.2" y2="88.1" opacity="1.0" stroke="rgb(0,0,0)" stroke-width="2.0"/>
<line x1="213.2" y1="88.1" x2="176.7" y2="104.4" opacity="1.0" stroke="rgb(0,0,0)" stroke-width="2.0"/>
<line x1="204.8" y1="84.0" x2="179.2" y2="95.3" opacity="1.0" stroke="rgb(0,0,0)" stroke-width="2.0"/>
<line x1="247.8" y1="228.1" x2="247.8" y2="268.1" opacity="1.0" stroke="rgb(0,0,0)" stroke-width="2.0"/>
<line x1="247.8" y1="268.1" x2="213.2" y2="288.1" opacity="1.0" stroke="rgb(0,0,0)" stroke-width="2.0"/>
<line x1="239.0" y1="264.9" x2="214.8" y2="278.9" opacity="1.0" stroke="rgb(0,0,0)" stroke-width="2.0"/>
<line x1="213.2" y1="288.1" x2="178.6" y2="268.1" opacity="1.0" stroke="rgb(0,0,0)" stroke-width="2.0"/>
<line x1="178.6" y1="268.1" x2="178.6" y2="228.1" opacity="1.0" stroke="rgb(0,0,0)" stroke-width="2.0"/>
<line x1="185.8" y1="262.1" x2="185.8" y2="234.1" opacity="1.0" stroke="rgb(0,0,0)" stroke-width="2.0"/>
<line x1="178.6" y1="228.1" x2="213.2" y2="208.1" opacity="1.0" stroke="rgb(0,0,0)" stroke-width="2.0"/>
<line x1="213.2" y1="208.1" x2="247.8" y2="228.1" opacity="1.0" stroke="rgb(0,0,0)" stroke-width="2.0"/>
<line x1="214.8" y1="217.3" x2="239.0" y2="231.3" opacity="1.0" stroke="rgb(0,0,0)" stroke-width="2.0"/>
<line x1="178.6" y1="108.1" x2="143.9" y2="88.1" opacity="1.0" stroke="rgb(0,0,0)" stroke-width="2.0"/>
<line x1="143.9" y1="88.1" x2="109.3" y2="108.1" opacity="1.0" stroke="rgb(0,0,0)" stroke-width="2.0"/>
<line x1="142.3" y1="97.3" x2="118.1" y2="111.3" opacity="1.0" stroke="rgb(0,0,0)" stroke-width="2.0"/>
<line x1="109.3" y1="108.1" x2="109.3" y2="148.1" opacity="1.0" stroke="rgb(0,0,0)" stroke-width="2.0"/>
<line x1="109.3" y1="148.1" x2="143.9" y2="168.1" opacity="1.0" stroke="rgb(0,0,0)" stroke-width="2.0"/>
<line x1="118.1" y1="144.9" x2="142.3" y2="158.9" opacity="1.0" stroke="rgb(0,0,0)" stroke-width="2.0"/>
<line x1="143.9" y1="168.1" x2="178.6" y2="148.1" opacity="1.0" stroke="rgb(0,0,0)" stroke-width="2.0"/>
<line x1="178.6" y1="148.1" x2="178.6" y2="108.1" opacity="1.0" stroke="rgb(0,0,0)" stroke-width="2.0"/>
<line x1="171.4" y1="142.1" x2="171.4" y2="114.1" opacity="1.0" stroke="rgb(0,0,0)" stroke-width="2.0"/>
<line x1="40.0" y1="148.1" x2="74.6" y2="168.1" opacity="1.0" stroke="rgb(0,0,0)" stroke-width="2.0"/>
<line x1="48.8" y1="144.9" x2="73.0" y2="158.9" opacity="1.0" stroke="rgb(0,0,0)" stroke-width="2.0"/>
<line x1="74.6" y1="168.1" x2="109.3" y2="148.1" opacity="1.0" stroke="rgb(0,0,0)" stroke-width="2.0"/>
<line x1="109.3" y1="108.1" x2="74.6" y2="88.1" opacity="1.0" stroke="rgb(0,0,0)" stroke-width="2.0"/>
<line x1="74.6" y1="88.1" x2="40.0" y2="108.1" opacity="1.0" stroke="rgb(0,0,0)" stroke-width="2.0"/>
<line x1="73.0" y1="97.3" x2="48.8" y2="111.3" opacity="1.0" stroke="rgb(0,0,0)" stroke-width="2.0"/>
<line x1="40.0" y1="108.1" x2="40.0" y2="148.1" opacity="1.0" stroke="rgb(0,0,0)" stroke-width="2.0"/>
<line x1="282.5" y1="168.1" x2="317.1" y2="148.1" opacity="1.0" stroke="rgb(0,0,0)" stroke-width="2.0"/>
<line x1="317.1" y1="148.1" x2="317.1" y2="108.1" opacity="1.0" stroke="rgb(0,0,0)" stroke-width="2.0"/>
<line x1="309.9" y1="142.1" x2="309.9" y2="114.1" opacity="1.0" stroke="rgb(0,0,0)" stroke-width="2.0"/>
<line x1="317.1" y1="108.1" x2="282.5" y2="88.1" opacity="1.0" stroke="rgb(0,0,0)" stroke-width="2.0"/>
<line x1="282.5" y1="88.1" x2="247.8" y2="108.1" opacity="1.0" stroke="rgb(0,0,0)" stroke-width="2.0"/>
<line x1="280.9" y1="97.3" x2="256.6" y2="111.3" opacity="1.0" stroke="rgb(0,0,0)" stroke-width="2.0"/>
<line x1="247.8" y1="108.1" x2="247.8" y2="148.1" opacity="1.0" stroke="rgb(0,0,0)" stroke-width="2.0"/>
<line x1="247.8" y1="148.1" x2="282.5" y2="168.1" opacity="1.0" stroke="rgb(0,0,0)" stroke-width="2.0"/>
<line x1="256.6" y1="144.9" x2="280.9" y2="158.9" opacity="1.0" stroke="rgb(0,0,0)" stroke-width="2.0"/>
<text x="143.898038" y="82.641016" fill="rgb(178,178,0)" stroke-width="0" font-weight="bold" font-size="16">S</text>
<text x="207.205081" y="176.097343" fill="rgb(12,12,255)" stroke-width="0" font-weight="bold" font-size="16">N</text>
</svg>
</g>
</svg>