<svg xmlns="http://www.w3.org/2000/svg" x="0" y="0" viewBox="0 0 100 100">
<title>F_2_O - Open Babel Depiction</title>
<rect x="0" y="0" width="100" height="100" fill="white"/>
<g transform="translate(0,0)">
<svg width="100" height="100" x="0" y="0" viewBox="0 0 397.543 318.333" font-family="sans-serif" stroke="rgb(0,0,0)" stroke-width="2" stroke-linecap="round">
<line x1="155.8" y1="161.8" x2="135.3" y2="150.0" opacity="1.0" stroke="rgb(0,0,0)" stroke-width="2.0"/>
<line x1="167.0" y1="181.3" x2="167.0" y2="205.0" opacity="1.0" stroke="rgb(0,0,0)" stroke-width="2.0"/>
<line x1="178.3" y1="161.8" x2="294.0" y2="95.0" opacity="1.0" stroke="rgb(0,0,0)" stroke-width="2.0"/>
<line x1="325.8" y1="113.3" x2="325.8" y2="150.0" opacity="1.0" stroke="rgb(0,0,0)" stroke-width="2.0"/>
<line x1="198.8" y1="223.3" x2="198.8" y2="260.0" opacity="1.0" stroke="rgb(0,0,0)" stroke-width="2.0"/>
<line x1="198.8" y1="260.0" x2="167.0" y2="278.3" opacity="1.0" stroke="rgb(0,0,0)" stroke-width="2.0"/>
<line x1="190.0" y1="256.8" x2="168.6" y2="269.1" opacity="1.0" stroke="rgb(0,0,0)" stroke-width="2.0"/>
<line x1="167.0" y1="278.3" x2="135.3" y2="260.0" opacity="1.0" stroke="rgb(0,0,0)" stroke-width="2.0"/>
<line x1="135.3" y1="260.0" x2="135.3" y2="223.3" opacity="1.0" stroke="rgb(0,0,0)" stroke-width="2.0"/>
<line x1="142.5" y1="254.0" x2="142.5" y2="229.3" opacity="1.0" stroke="rgb(0,0,0)" stroke-width="2.0"/>
<line x1="135.3" y1="223.3" x2="167.0" y2="205.0" opacity="1.0" stroke="rgb(0,0,0)" stroke-width="2.0"/>
<line x1="167.0" y1="205.0" x2="198.8" y2="223.3" opacity="1.0" stroke="rgb(0,0,0)" stroke-width="2.0"/>
<line x1="168.6" y1="214.2" x2="190.0" y2="226.6" opacity="1.0" stroke="rgb(0,0,0)" stroke-width="2.0"/>
<line x1="103.5" y1="168.3" x2="71.8" y2="150.0" opacity="1.0" stroke="rgb(0,0,0)" stroke-width="2.0"/>
<line x1="71.8" y1="150.0" x2="71.8" y2="113.3" opacity="1.0" stroke="rgb(0,0,0)" stroke-width="2.0"/>
<line x1="79.0" y1="144.0" x2="79.0" y2="119.3" opacity="1.0" stroke="rgb(0,0,0)" stroke-width="2.0"/>
<line x1="71.8" y1="113.3" x2="103.5" y2="95.0" opacity="1.0" stroke="rgb(0,0,0)" stroke-width="2.0"/>
<line x1="103.5" y1="95.0" x2="135.3" y2="113.3" opacity="1.0" stroke="rgb(0,0,0)" stroke-width="2.0"/>
<line x1="105.1" y1="104.2" x2="126.5" y2="116.6" opacity="1.0" stroke="rgb(0,0,0)" stroke-width="2.0"/>
<line x1="135.3" y1="113.3" x2="135.3" y2="150.0" opacity="1.0" stroke="rgb(0,0,0)" stroke-width="2.0"/>
<line x1="135.3" y1="150.0" x2="103.5" y2="168.3" opacity="1.0" stroke="rgb(0,0,0)" stroke-width="2.0"/>
<line x1="126.5" y1="146.8" x2="105.1" y2="159.1" opacity="1.0" stroke="rgb(0,0,0)" stroke-width="2.0"/>
<line x1="71.8" y1="40.0" x2="103.5" y2="58.3" opacity="1.0" stroke="rgb(0,0,0)" stroke-width="2.0"/>
<line x1="73.4" y1="49.2" x2="94.7" y2="61.6" opacity="1.0" stroke="rgb(0,0,0)" stroke-width="2.0"/>
<line x1="103.5" y1="58.3" x2="103.5" y2="95.0" opacity="1.0" stroke="rgb(0,0,0)" stroke-width="2.0"/>
<line x1="71.8" y1="113.3" x2="40.0" y2="95.0" opacity="1.0" stroke="rgb(0,0,0)" stroke-width="2.0"/>
<line x1="40.0" y1="95.0" x2="40.0" y2="58.3" opacity="1.0" stroke="rgb(0,0,0)" stroke-width="2.0"/>
<line x1="47.2" y1="89.0" x2="47.2" y2="64.3" opacity="1.0" stroke="rgb(0,0,0)" stroke-width="2.0"/>
<line x1="40.0" y1="58.3" x2="71.8" y2="40.0" opacity="1.0" stroke="rgb(0,0,0)" stroke-width="2.0"/>
<line x1="294.0" y1="58.3" x2="325.8" y2="40.0" opacity="1.0" stroke="rgb(0,0,0)" stroke-width="2.0"/>
<line x1="325.8" y1="40.0" x2="357.5" y2="58.3" opacity="1.0" stroke="rgb(0,0,0)" stroke-width="2.0"/>
<line x1="327.4" y1="49.2" x2="348.7" y2="61.6" opacity="1.0" stroke="rgb(0,0,0)" stroke-width="2.0"/>
<line x1="357.5" y1="58.3" x2="357.5" y2="95.0" opacity="1.0" stroke="rgb(0,0,0)" stroke-width="2.0"/>
<line x1="357.5" y1="95.0" x2="325.8" y2="113.3" opacity="1.0" stroke="rgb(0,0,0)" stroke-width="2.0"/>
<line x1="348.7" y1="91.8" x2="327.4" y2="104.1" opacity="1.0" stroke="rgb(0,0,0)" stroke-width="2.0"/>
<line x1="325.8" y1="113.3" x2="294.0" y2="95.0" opacity="1.0" stroke="rgb(0,0,0)" stroke-width="2.0"/>
<line x1="294.0" y1="95.0" x2="294.0" y2="58.3" opacity="1.0" stroke="rgb(0,0,0)" stroke-width="2.0"/>
<line x1="301.2" y1="89.0" x2="301.2" y2="64.3" opacity="1.0" stroke="rgb(0,0,0)" stroke-width="2.0"/>
<line x1="294.0" y1="181.3" x2="294.0" y2="205.0" opacity="1.0" stroke="rgb(0,0,0)" stroke-width="2.0"/>
<line x1="294.0" y1="205.0" x2="325.8" y2="223.3" opacity="1.0" stroke="rgb(0,0,0)" stroke-width="2.0"/>
<line x1="302.8" y1="201.8" x2="324.2" y2="214.1" opacity="1.0" stroke="rgb(0,0,0)" stroke-width="2.0"/>
<line x1="325.8" y1="223.3" x2="357.5" y2="205.0" opacity="1.0" stroke="rgb(0,0,0)" stroke-width="2.0"/>
<line x1="357.5" y1="205.0" x2="357.5" y2="168.3" opacity="1.0" stroke="rgb(0,0,0)" stroke-width="2.0"/>
<line x1="350.3" y1="199.0" x2="350.3" y2="174.3" opacity="1.0" stroke="rgb(0,0,0)" stroke-width="2.0"/>
<line x1="357.5" y1="168.3" x2="325.8" y2="150.0" opacity="1.0" stroke="rgb(0,0,0)" stroke-width="2.0"/>
<line x1="325.8" y1="150.0" x2="304.5" y2="162.3" opacity="1.0" stroke="rgb(0,0,0)" stroke-width="2.0"/>
<line x1="324.2" y1="159.2" x2="310.1" y2="167.4" opacity="1.0" stroke="rgb(0,0,0)" stroke-width="2.0"/>
<text x="288.034118" y="176.333333" fill="rgb(12,12,255)" stroke-width="0" font-weight="bold" font-size="16">N</text>
<text x="161.017059" y="176.333333" fill="rgb(12,12,255)" stroke-width="0" font-weight="bold" font-size="16">N</text>
</svg>
</g>
</svg>
