<svg xmlns="http://www.w3.org/2000/svg" x="0" y="0" viewBox="0 0 100 100">
<title>F_2_Q - Open Babel Depiction</title>
<rect x="0" y="0" width="100" height="100" fill="white"/>
<g transform="translate(0,0)">
<svg width="100" height="100" x="0" y="0" viewBox="0 0 429.297 373.333" font-family="sans-serif" stroke="rgb(0,0,0)" stroke-width="2" stroke-linecap="round">
<line x1="187.5" y1="216.8" x2="167.0" y2="205.0" opacity="1.0" stroke="rgb(0,0,0)" stroke-width="2.0"/>
<line x1="198.8" y1="236.3" x2="198.8" y2="260.0" opacity="1.0" stroke="rgb(0,0,0)" stroke-width="2.0"/>
<line x1="210.0" y1="216.8" x2="325.8" y2="150.0" opacity="1.0" stroke="rgb(0,0,0)" stroke-width="2.0"/>
<line x1="325.8" y1="113.3" x2="294.0" y2="95.0" opacity="1.0" stroke="rgb(0,0,0)" stroke-width="2.0"/>
<line x1="230.5" y1="278.3" x2="230.5" y2="315.0" opacity="1.0" stroke="rgb(0,0,0)" stroke-width="2.0"/>
<line x1="230.5" y1="315.0" x2="198.8" y2="333.3" opacity="1.0" stroke="rgb(0,0,0)" stroke-width="2.0"/>
<line x1="221.7" y1="311.8" x2="200.4" y2="324.1" opacity="1.0" stroke="rgb(0,0,0)" stroke-width="2.0"/>
<line x1="198.8" y1="333.3" x2="167.0" y2="315.0" opacity="1.0" stroke="rgb(0,0,0)" stroke-width="2.0"/>
<line x1="167.0" y1="315.0" x2="167.0" y2="278.3" opacity="1.0" stroke="rgb(0,0,0)" stroke-width="2.0"/>
<line x1="174.2" y1="309.0" x2="174.2" y2="284.3" opacity="1.0" stroke="rgb(0,0,0)" stroke-width="2.0"/>
<line x1="167.0" y1="278.3" x2="198.8" y2="260.0" opacity="1.0" stroke="rgb(0,0,0)" stroke-width="2.0"/>
<line x1="198.8" y1="260.0" x2="230.5" y2="278.3" opacity="1.0" stroke="rgb(0,0,0)" stroke-width="2.0"/>
<line x1="200.4" y1="269.2" x2="221.7" y2="281.6" opacity="1.0" stroke="rgb(0,0,0)" stroke-width="2.0"/>
<line x1="167.0" y1="168.3" x2="135.3" y2="150.0" opacity="1.0" stroke="rgb(0,0,0)" stroke-width="2.0"/>
<line x1="135.3" y1="150.0" x2="103.5" y2="168.3" opacity="1.0" stroke="rgb(0,0,0)" stroke-width="2.0"/>
<line x1="133.7" y1="159.2" x2="112.3" y2="171.6" opacity="1.0" stroke="rgb(0,0,0)" stroke-width="2.0"/>
<line x1="103.5" y1="168.3" x2="103.5" y2="205.0" opacity="1.0" stroke="rgb(0,0,0)" stroke-width="2.0"/>
<line x1="103.5" y1="205.0" x2="135.3" y2="223.3" opacity="1.0" stroke="rgb(0,0,0)" stroke-width="2.0"/>
<line x1="112.3" y1="201.8" x2="133.7" y2="214.1" opacity="1.0" stroke="rgb(0,0,0)" stroke-width="2.0"/>
<line x1="135.3" y1="223.3" x2="167.0" y2="205.0" opacity="1.0" stroke="rgb(0,0,0)" stroke-width="2.0"/>
<line x1="167.0" y1="205.0" x2="167.0" y2="168.3" opacity="1.0" stroke="rgb(0,0,0)" stroke-width="2.0"/>
<line x1="159.8" y1="199.0" x2="159.8" y2="174.3" opacity="1.0" stroke="rgb(0,0,0)" stroke-width="2.0"/>
<line x1="40.0" y1="205.0" x2="71.8" y2="223.3" opacity="1.0" stroke="rgb(0,0,0)" stroke-width="2.0"/>
<line x1="48.8" y1="201.8" x2="70.2" y2="214.1" opacity="1.0" stroke="rgb(0,0,0)" stroke-width="2.0"/>
<line x1="71.8" y1="223.3" x2="103.5" y2="205.0" opacity="1.0" stroke="rgb(0,0,0)" stroke-width="2.0"/>
<line x1="103.5" y1="168.3" x2="71.8" y2="150.0" opacity="1.0" stroke="rgb(0,0,0)" stroke-width="2.0"/>
<line x1="71.8" y1="150.0" x2="40.0" y2="168.3" opacity="1.0" stroke="rgb(0,0,0)" stroke-width="2.0"/>
<line x1="70.2" y1="159.2" x2="48.8" y2="171.6" opacity="1.0" stroke="rgb(0,0,0)" stroke-width="2.0"/>
<line x1="40.0" y1="168.3" x2="40.0" y2="205.0" opacity="1.0" stroke="rgb(0,0,0)" stroke-width="2.0"/>
<line x1="357.5" y1="168.3" x2="389.3" y2="150.0" opacity="1.0" stroke="rgb(0,0,0)" stroke-width="2.0"/>
<line x1="389.3" y1="150.0" x2="389.3" y2="113.3" opacity="1.0" stroke="rgb(0,0,0)" stroke-width="2.0"/>
<line x1="382.1" y1="144.0" x2="382.1" y2="119.3" opacity="1.0" stroke="rgb(0,0,0)" stroke-width="2.0"/>
<line x1="389.3" y1="113.3" x2="357.5" y2="95.0" opacity="1.0" stroke="rgb(0,0,0)" stroke-width="2.0"/>
<line x1="357.5" y1="95.0" x2="325.8" y2="113.3" opacity="1.0" stroke="rgb(0,0,0)" stroke-width="2.0"/>
<line x1="355.9" y1="104.2" x2="334.6" y2="116.6" opacity="1.0" stroke="rgb(0,0,0)" stroke-width="2.0"/>
<line x1="325.8" y1="113.3" x2="325.8" y2="150.0" opacity="1.0" stroke="rgb(0,0,0)" stroke-width="2.0"/>
<line x1="325.8" y1="150.0" x2="357.5" y2="168.3" opacity="1.0" stroke="rgb(0,0,0)" stroke-width="2.0"/>
<line x1="334.6" y1="146.8" x2="355.9" y2="159.1" opacity="1.0" stroke="rgb(0,0,0)" stroke-width="2.0"/>
<line x1="282.8" y1="51.8" x2="262.3" y2="40.0" opacity="1.0" stroke="rgb(0,0,0)" stroke-width="2.0"/>
<line x1="262.3" y1="40.0" x2="230.5" y2="58.3" opacity="1.0" stroke="rgb(0,0,0)" stroke-width="2.0"/>
<line x1="260.7" y1="49.2" x2="239.3" y2="61.6" opacity="1.0" stroke="rgb(0,0,0)" stroke-width="2.0"/>
<line x1="230.5" y1="58.3" x2="230.5" y2="82.0" opacity="1.0" stroke="rgb(0,0,0)" stroke-width="2.0"/>
<line x1="241.0" y1="101.0" x2="262.3" y2="113.3" opacity="1.0" stroke="rgb(0,0,0)" stroke-width="2.0"/>
<line x1="246.6" y1="96.0" x2="260.7" y2="104.1" opacity="1.0" stroke="rgb(0,0,0)" stroke-width="2.0"/>
<line x1="262.3" y1="113.3" x2="294.0" y2="95.0" opacity="1.0" stroke="rgb(0,0,0)" stroke-width="2.0"/>
<line x1="294.0" y1="95.0" x2="294.0" y2="70.4" opacity="1.0" stroke="rgb(0,0,0)" stroke-width="2.0"/>
<line x1="286.8" y1="89.0" x2="286.8" y2="72.8" opacity="1.0" stroke="rgb(0,0,0)" stroke-width="2.0"/>
<text x="224.525589" y="103.000000" fill="rgb(12,12,255)" stroke-width="0" font-weight="bold" font-size="16">N</text>
<text x="288.034118" y="66.333333" fill="rgb(12,12,255)" stroke-width="0" font-weight="bold" font-size="16">N</text>
<text x="192.771324" y="231.333333" fill="rgb(12,12,255)" stroke-width="0" font-weight="bold" font-size="16">N</text>
</svg>
</g>
</svg>
