<svg xmlns="http://www.w3.org/2000/svg" xmlns:xlink="http://www.w3.org/1999/xlink" xmlns:cml="http://www.xml-cml.org/schema" version="1.1" id="topsvg" x="0" y="0" viewBox="0 0 100 100">
<title>F_2_S - Open Babel Depiction</title>
<rect x="0" y="0" width="100" height="100" fill="white"/>
<g transform="translate(0,0)">
<svg width="100" height="100" x="0" y="0" viewBox="0 0 399.763 320" font-family="sans-serif" stroke="rgb(0,0,0)" stroke-width="2" stroke-linecap="round">
<line x1="243.1" y1="157.3" x2="263.8" y2="169.2" opacity="1.0" stroke="rgb(0,0,0)" stroke-width="2.0"/>
<line x1="231.9" y1="137.8" x2="231.9" y2="113.8" opacity="1.0" stroke="rgb(0,0,0)" stroke-width="2.0"/>
<line x1="220.6" y1="157.3" x2="104.0" y2="224.6" opacity="1.0" stroke="rgb(0,0,0)" stroke-width="2.0"/>
<line x1="72.0" y1="95.4" x2="72.0" y2="58.5" opacity="1.0" stroke="rgb(0,0,0)" stroke-width="2.0"/>
<line x1="72.0" y1="58.5" x2="51.3" y2="46.5" opacity="1.0" stroke="rgb(0,0,0)" stroke-width="2.0"/>
<line x1="70.5" y1="55.9" x2="91.2" y2="43.9" opacity="1.0" stroke="rgb(0,0,0)" stroke-width="2.0"/>
<line x1="73.5" y1="61.1" x2="94.2" y2="49.1" opacity="1.0" stroke="rgb(0,0,0)" stroke-width="2.0"/>
<line x1="72.0" y1="206.2" x2="72.0" y2="169.2" opacity="1.0" stroke="rgb(0,0,0)" stroke-width="2.0"/>
<line x1="199.9" y1="95.4" x2="199.9" y2="58.5" opacity="1.0" stroke="rgb(0,0,0)" stroke-width="2.0"/>
<line x1="199.9" y1="58.5" x2="231.9" y2="40.0" opacity="1.0" stroke="rgb(0,0,0)" stroke-width="2.0"/>
<line x1="208.7" y1="61.7" x2="230.3" y2="49.2" opacity="1.0" stroke="rgb(0,0,0)" stroke-width="2.0"/>
<line x1="231.9" y1="40.0" x2="263.8" y2="58.5" opacity="1.0" stroke="rgb(0,0,0)" stroke-width="2.0"/>
<line x1="263.8" y1="58.5" x2="263.8" y2="95.4" opacity="1.0" stroke="rgb(0,0,0)" stroke-width="2.0"/>
<line x1="256.6" y1="64.5" x2="256.6" y2="89.4" opacity="1.0" stroke="rgb(0,0,0)" stroke-width="2.0"/>
<line x1="263.8" y1="95.4" x2="231.9" y2="113.8" opacity="1.0" stroke="rgb(0,0,0)" stroke-width="2.0"/>
<line x1="231.9" y1="113.8" x2="199.9" y2="95.4" opacity="1.0" stroke="rgb(0,0,0)" stroke-width="2.0"/>
<line x1="230.3" y1="104.6" x2="208.7" y2="92.1" opacity="1.0" stroke="rgb(0,0,0)" stroke-width="2.0"/>
<line x1="295.8" y1="150.8" x2="327.8" y2="169.2" opacity="1.0" stroke="rgb(0,0,0)" stroke-width="2.0"/>
<line x1="327.8" y1="169.2" x2="327.8" y2="206.2" opacity="1.0" stroke="rgb(0,0,0)" stroke-width="2.0"/>
<line x1="320.6" y1="175.2" x2="320.6" y2="200.2" opacity="1.0" stroke="rgb(0,0,0)" stroke-width="2.0"/>
<line x1="327.8" y1="206.2" x2="295.8" y2="224.6" opacity="1.0" stroke="rgb(0,0,0)" stroke-width="2.0"/>
<line x1="295.8" y1="224.6" x2="263.8" y2="206.2" opacity="1.0" stroke="rgb(0,0,0)" stroke-width="2.0"/>
<line x1="294.2" y1="215.4" x2="272.6" y2="202.9" opacity="1.0" stroke="rgb(0,0,0)" stroke-width="2.0"/>
<line x1="263.8" y1="206.2" x2="263.8" y2="169.2" opacity="1.0" stroke="rgb(0,0,0)" stroke-width="2.0"/>
<line x1="263.8" y1="169.2" x2="295.8" y2="150.8" opacity="1.0" stroke="rgb(0,0,0)" stroke-width="2.0"/>
<line x1="272.6" y1="172.5" x2="294.2" y2="160.0" opacity="1.0" stroke="rgb(0,0,0)" stroke-width="2.0"/>
<line x1="327.8" y1="280.0" x2="295.8" y2="261.5" opacity="1.0" stroke="rgb(0,0,0)" stroke-width="2.0"/>
<line x1="326.2" y1="270.8" x2="304.6" y2="258.3" opacity="1.0" stroke="rgb(0,0,0)" stroke-width="2.0"/>
<line x1="295.8" y1="261.5" x2="295.8" y2="224.6" opacity="1.0" stroke="rgb(0,0,0)" stroke-width="2.0"/>
<line x1="327.8" y1="206.2" x2="359.8" y2="224.6" opacity="1.0" stroke="rgb(0,0,0)" stroke-width="2.0"/>
<line x1="359.8" y1="224.6" x2="359.8" y2="261.5" opacity="1.0" stroke="rgb(0,0,0)" stroke-width="2.0"/>
<line x1="352.6" y1="230.6" x2="352.6" y2="255.5" opacity="1.0" stroke="rgb(0,0,0)" stroke-width="2.0"/>
<line x1="359.8" y1="261.5" x2="327.8" y2="280.0" opacity="1.0" stroke="rgb(0,0,0)" stroke-width="2.0"/>
<line x1="104.0" y1="261.5" x2="72.0" y2="280.0" opacity="1.0" stroke="rgb(0,0,0)" stroke-width="2.0"/>
<line x1="72.0" y1="280.0" x2="40.0" y2="261.5" opacity="1.0" stroke="rgb(0,0,0)" stroke-width="2.0"/>
<line x1="70.4" y1="270.8" x2="48.8" y2="258.3" opacity="1.0" stroke="rgb(0,0,0)" stroke-width="2.0"/>
<line x1="40.0" y1="261.5" x2="40.0" y2="224.6" opacity="1.0" stroke="rgb(0,0,0)" stroke-width="2.0"/>
<line x1="40.0" y1="224.6" x2="72.0" y2="206.2" opacity="1.0" stroke="rgb(0,0,0)" stroke-width="2.0"/>
<line x1="48.8" y1="227.9" x2="70.4" y2="215.4" opacity="1.0" stroke="rgb(0,0,0)" stroke-width="2.0"/>
<line x1="72.0" y1="206.2" x2="104.0" y2="224.6" opacity="1.0" stroke="rgb(0,0,0)" stroke-width="2.0"/>
<line x1="104.0" y1="224.6" x2="104.0" y2="261.5" opacity="1.0" stroke="rgb(0,0,0)" stroke-width="2.0"/>
<line x1="96.8" y1="230.6" x2="96.8" y2="255.5" opacity="1.0" stroke="rgb(0,0,0)" stroke-width="2.0"/>
<line x1="40.0" y1="150.8" x2="40.0" y2="113.8" opacity="1.0" stroke="rgb(0,0,0)" stroke-width="2.0"/>
<line x1="40.0" y1="113.8" x2="72.0" y2="95.4" opacity="1.0" stroke="rgb(0,0,0)" stroke-width="2.0"/>
<line x1="48.8" y1="117.1" x2="70.4" y2="104.6" opacity="1.0" stroke="rgb(0,0,0)" stroke-width="2.0"/>
<line x1="72.0" y1="95.4" x2="104.0" y2="113.8" opacity="1.0" stroke="rgb(0,0,0)" stroke-width="2.0"/>
<line x1="104.0" y1="113.8" x2="104.0" y2="150.8" opacity="1.0" stroke="rgb(0,0,0)" stroke-width="2.0"/>
<line x1="96.8" y1="119.8" x2="96.8" y2="144.8" opacity="1.0" stroke="rgb(0,0,0)" stroke-width="2.0"/>
<line x1="104.0" y1="150.8" x2="72.0" y2="169.2" opacity="1.0" stroke="rgb(0,0,0)" stroke-width="2.0"/>
<line x1="72.0" y1="169.2" x2="40.0" y2="150.8" opacity="1.0" stroke="rgb(0,0,0)" stroke-width="2.0"/>
<line x1="70.4" y1="160.0" x2="48.8" y2="147.5" opacity="1.0" stroke="rgb(0,0,0)" stroke-width="2.0"/>
<text x="97.952645" y="48.000000" fill="rgb(255,12,12)" stroke-width="0" font-weight="bold" font-size="16">O</text>
<text x="14.000000" y="48.000000" fill="rgb(102,102,102)" stroke-width="0" font-weight="bold" font-size="16">H</text>
<text x="26.000000" y="51.680000" fill="rgb(102,102,102)" stroke-width="0" font-weight="bold" font-size="13">3</text>
<text x="32.500000" y="48.000000" fill="rgb(102,102,102)" stroke-width="0" font-weight="bold" font-size="16">C</text>
<text x="225.857936" y="158.769231" fill="rgb(12,12,255)" stroke-width="0" font-weight="bold" font-size="16">N</text>
</svg>
</g>
</svg>