<svg xmlns="http://www.w3.org/2000/svg" x="0" y="0" viewBox="0 0 100 100">
<title>F_2_M - Open Babel Depiction</title>
<rect x="0" y="0" width="100" height="100" fill="white"/>
<g transform="translate(0,0)">
<svg width="100" height="100" x="0" y="0" viewBox="0 0 399.062 337.895" font-family="sans-serif" stroke="rgb(0,0,0)" stroke-width="2" stroke-linecap="round">
<line x1="242.7" y1="175.4" x2="263.3" y2="187.4" opacity="1.0" stroke="rgb(0,0,0)" stroke-width="2.0"/>
<line x1="231.4" y1="155.9" x2="231.4" y2="132.1" opacity="1.0" stroke="rgb(0,0,0)" stroke-width="2.0"/>
<line x1="220.2" y1="175.4" x2="103.8" y2="242.6" opacity="1.0" stroke="rgb(0,0,0)" stroke-width="2.0"/>
<line x1="71.9" y1="76.8" x2="71.9" y2="53.0" opacity="1.0" stroke="rgb(0,0,0)" stroke-width="2.0"/>
<line x1="67.7" y1="76.8" x2="67.7" y2="53.0" opacity="1.0" stroke="rgb(0,0,0)" stroke-width="2.0"/>
<line x1="76.1" y1="76.8" x2="76.1" y2="53.0" opacity="1.0" stroke="rgb(0,0,0)" stroke-width="2.0"/>
<line x1="71.9" y1="113.7" x2="71.9" y2="76.8" opacity="1.0" stroke="rgb(0,0,0)" stroke-width="2.0"/>
<line x1="71.9" y1="224.2" x2="71.9" y2="187.4" opacity="1.0" stroke="rgb(0,0,0)" stroke-width="2.0"/>
<line x1="199.5" y1="113.7" x2="199.5" y2="76.8" opacity="1.0" stroke="rgb(0,0,0)" stroke-width="2.0"/>
<line x1="199.5" y1="76.8" x2="231.4" y2="58.4" opacity="1.0" stroke="rgb(0,0,0)" stroke-width="2.0"/>
<line x1="208.3" y1="80.1" x2="229.8" y2="67.7" opacity="1.0" stroke="rgb(0,0,0)" stroke-width="2.0"/>
<line x1="231.4" y1="58.4" x2="263.3" y2="76.8" opacity="1.0" stroke="rgb(0,0,0)" stroke-width="2.0"/>
<line x1="263.3" y1="76.8" x2="263.3" y2="113.7" opacity="1.0" stroke="rgb(0,0,0)" stroke-width="2.0"/>
<line x1="256.1" y1="82.8" x2="256.1" y2="107.7" opacity="1.0" stroke="rgb(0,0,0)" stroke-width="2.0"/>
<line x1="263.3" y1="113.7" x2="231.4" y2="132.1" opacity="1.0" stroke="rgb(0,0,0)" stroke-width="2.0"/>
<line x1="231.4" y1="132.1" x2="199.5" y2="113.7" opacity="1.0" stroke="rgb(0,0,0)" stroke-width="2.0"/>
<line x1="229.8" y1="122.9" x2="208.3" y2="110.4" opacity="1.0" stroke="rgb(0,0,0)" stroke-width="2.0"/>
<line x1="295.2" y1="168.9" x2="327.2" y2="187.4" opacity="1.0" stroke="rgb(0,0,0)" stroke-width="2.0"/>
<line x1="327.2" y1="187.4" x2="327.2" y2="224.2" opacity="1.0" stroke="rgb(0,0,0)" stroke-width="2.0"/>
<line x1="320.0" y1="193.4" x2="320.0" y2="218.2" opacity="1.0" stroke="rgb(0,0,0)" stroke-width="2.0"/>
<line x1="327.2" y1="224.2" x2="295.2" y2="242.6" opacity="1.0" stroke="rgb(0,0,0)" stroke-width="2.0"/>
<line x1="295.2" y1="242.6" x2="263.3" y2="224.2" opacity="1.0" stroke="rgb(0,0,0)" stroke-width="2.0"/>
<line x1="293.7" y1="233.4" x2="272.1" y2="221.0" opacity="1.0" stroke="rgb(0,0,0)" stroke-width="2.0"/>
<line x1="263.3" y1="224.2" x2="263.3" y2="187.4" opacity="1.0" stroke="rgb(0,0,0)" stroke-width="2.0"/>
<line x1="263.3" y1="187.4" x2="295.2" y2="168.9" opacity="1.0" stroke="rgb(0,0,0)" stroke-width="2.0"/>
<line x1="272.1" y1="190.6" x2="293.7" y2="178.2" opacity="1.0" stroke="rgb(0,0,0)" stroke-width="2.0"/>
<line x1="327.2" y1="297.9" x2="295.2" y2="279.5" opacity="1.0" stroke="rgb(0,0,0)" stroke-width="2.0"/>
<line x1="325.6" y1="288.7" x2="304.0" y2="276.2" opacity="1.0" stroke="rgb(0,0,0)" stroke-width="2.0"/>
<line x1="295.2" y1="279.5" x2="295.2" y2="242.6" opacity="1.0" stroke="rgb(0,0,0)" stroke-width="2.0"/>
<line x1="327.2" y1="224.2" x2="359.1" y2="242.6" opacity="1.0" stroke="rgb(0,0,0)" stroke-width="2.0"/>
<line x1="359.1" y1="242.6" x2="359.1" y2="279.5" opacity="1.0" stroke="rgb(0,0,0)" stroke-width="2.0"/>
<line x1="351.9" y1="248.6" x2="351.9" y2="273.5" opacity="1.0" stroke="rgb(0,0,0)" stroke-width="2.0"/>
<line x1="359.1" y1="279.5" x2="327.2" y2="297.9" opacity="1.0" stroke="rgb(0,0,0)" stroke-width="2.0"/>
<line x1="103.8" y1="279.5" x2="71.9" y2="297.9" opacity="1.0" stroke="rgb(0,0,0)" stroke-width="2.0"/>
<line x1="71.9" y1="297.9" x2="40.0" y2="279.5" opacity="1.0" stroke="rgb(0,0,0)" stroke-width="2.0"/>
<line x1="70.3" y1="288.7" x2="48.8" y2="276.2" opacity="1.0" stroke="rgb(0,0,0)" stroke-width="2.0"/>
<line x1="40.0" y1="279.5" x2="40.0" y2="242.6" opacity="1.0" stroke="rgb(0,0,0)" stroke-width="2.0"/>
<line x1="40.0" y1="242.6" x2="71.9" y2="224.2" opacity="1.0" stroke="rgb(0,0,0)" stroke-width="2.0"/>
<line x1="48.8" y1="245.9" x2="70.3" y2="233.4" opacity="1.0" stroke="rgb(0,0,0)" stroke-width="2.0"/>
<line x1="71.9" y1="224.2" x2="103.8" y2="242.6" opacity="1.0" stroke="rgb(0,0,0)" stroke-width="2.0"/>
<line x1="103.8" y1="242.6" x2="103.8" y2="279.5" opacity="1.0" stroke="rgb(0,0,0)" stroke-width="2.0"/>
<line x1="96.6" y1="248.6" x2="96.6" y2="273.5" opacity="1.0" stroke="rgb(0,0,0)" stroke-width="2.0"/>
<line x1="40.0" y1="168.9" x2="40.0" y2="132.1" opacity="1.0" stroke="rgb(0,0,0)" stroke-width="2.0"/>
<line x1="40.0" y1="132.1" x2="71.9" y2="113.7" opacity="1.0" stroke="rgb(0,0,0)" stroke-width="2.0"/>
<line x1="48.8" y1="135.3" x2="70.3" y2="122.9" opacity="1.0" stroke="rgb(0,0,0)" stroke-width="2.0"/>
<line x1="71.9" y1="113.7" x2="103.8" y2="132.1" opacity="1.0" stroke="rgb(0,0,0)" stroke-width="2.0"/>
<line x1="103.8" y1="132.1" x2="103.8" y2="168.9" opacity="1.0" stroke="rgb(0,0,0)" stroke-width="2.0"/>
<line x1="96.6" y1="138.1" x2="96.6" y2="162.9" opacity="1.0" stroke="rgb(0,0,0)" stroke-width="2.0"/>
<line x1="103.8" y1="168.9" x2="71.9" y2="187.4" opacity="1.0" stroke="rgb(0,0,0)" stroke-width="2.0"/>
<line x1="71.9" y1="187.4" x2="40.0" y2="168.9" opacity="1.0" stroke="rgb(0,0,0)" stroke-width="2.0"/>
<line x1="70.3" y1="178.1" x2="48.8" y2="165.7" opacity="1.0" stroke="rgb(0,0,0)" stroke-width="2.0"/>
<text x="65.906199" y="48.000000" fill="rgb(12,12,255)" stroke-width="0" font-weight="bold" font-size="16">N</text>
<text x="225.437195" y="176.947368" fill="rgb(12,12,255)" stroke-width="0" font-weight="bold" font-size="16">N</text>
</svg>
</g>
</svg>
