<svg xmlns="http://www.w3.org/2000/svg" x="0" y="0" viewBox="0 0 100 100">
<title>F_3_N - Open Babel Depiction</title>
<rect x="0" y="0" width="100" height="100" fill="white"/>
<g transform="translate(0,0)">
<svg width="100" height="100" x="0" y="0" viewBox="0 0 480.189 353.488" font-family="sans-serif" stroke="rgb(0,0,0)" stroke-width="2" stroke-linecap="round">
<line x1="197.9" y1="189.8" x2="175.3" y2="176.7" opacity="1.0" stroke="rgb(0,0,0)" stroke-width="2.0"/>
<line x1="209.2" y1="209.3" x2="209.2" y2="235.3" opacity="1.0" stroke="rgb(0,0,0)" stroke-width="2.0"/>
<line x1="220.4" y1="189.8" x2="276.8" y2="157.2" opacity="1.0" stroke="rgb(0,0,0)" stroke-width="2.0"/>
<line x1="344.5" y1="118.1" x2="378.4" y2="98.6" opacity="1.0" stroke="rgb(0,0,0)" stroke-width="2.0"/>
<line x1="382.4" y1="59.7" x2="407.9" y2="54.3" opacity="1.0" stroke="rgb(0,0,0)" stroke-width="2.0"/>
<line x1="427.2" y1="62.9" x2="440.2" y2="85.5" opacity="1.0" stroke="rgb(0,0,0)" stroke-width="2.0"/>
<line x1="440.2" y1="85.5" x2="414.0" y2="114.5" opacity="1.0" stroke="rgb(0,0,0)" stroke-width="2.0"/>
<line x1="430.8" y1="85.1" x2="412.7" y2="105.2" opacity="1.0" stroke="rgb(0,0,0)" stroke-width="2.0"/>
<line x1="414.0" y1="114.5" x2="378.4" y2="98.6" opacity="1.0" stroke="rgb(0,0,0)" stroke-width="2.0"/>
<line x1="378.4" y1="98.6" x2="382.4" y2="59.7" opacity="1.0" stroke="rgb(0,0,0)" stroke-width="2.0"/>
<line x1="386.1" y1="93.4" x2="389.0" y2="66.5" opacity="1.0" stroke="rgb(0,0,0)" stroke-width="2.0"/>
<line x1="243.0" y1="254.9" x2="243.0" y2="294.0" opacity="1.0" stroke="rgb(0,0,0)" stroke-width="2.0"/>
<line x1="243.0" y1="294.0" x2="209.2" y2="313.5" opacity="1.0" stroke="rgb(0,0,0)" stroke-width="2.0"/>
<line x1="234.2" y1="290.7" x2="210.8" y2="304.3" opacity="1.0" stroke="rgb(0,0,0)" stroke-width="2.0"/>
<line x1="209.2" y1="313.5" x2="175.3" y2="294.0" opacity="1.0" stroke="rgb(0,0,0)" stroke-width="2.0"/>
<line x1="175.3" y1="294.0" x2="175.3" y2="254.9" opacity="1.0" stroke="rgb(0,0,0)" stroke-width="2.0"/>
<line x1="182.5" y1="288.0" x2="182.5" y2="260.9" opacity="1.0" stroke="rgb(0,0,0)" stroke-width="2.0"/>
<line x1="175.3" y1="254.9" x2="209.2" y2="235.3" opacity="1.0" stroke="rgb(0,0,0)" stroke-width="2.0"/>
<line x1="209.2" y1="235.3" x2="243.0" y2="254.9" opacity="1.0" stroke="rgb(0,0,0)" stroke-width="2.0"/>
<line x1="210.8" y1="244.6" x2="234.2" y2="258.1" opacity="1.0" stroke="rgb(0,0,0)" stroke-width="2.0"/>
<line x1="175.3" y1="137.7" x2="141.5" y2="118.1" opacity="1.0" stroke="rgb(0,0,0)" stroke-width="2.0"/>
<line x1="141.5" y1="118.1" x2="107.7" y2="137.7" opacity="1.0" stroke="rgb(0,0,0)" stroke-width="2.0"/>
<line x1="139.9" y1="127.4" x2="116.5" y2="140.9" opacity="1.0" stroke="rgb(0,0,0)" stroke-width="2.0"/>
<line x1="107.7" y1="137.7" x2="107.7" y2="176.7" opacity="1.0" stroke="rgb(0,0,0)" stroke-width="2.0"/>
<line x1="107.7" y1="176.7" x2="141.5" y2="196.3" opacity="1.0" stroke="rgb(0,0,0)" stroke-width="2.0"/>
<line x1="116.5" y1="173.5" x2="139.9" y2="187.0" opacity="1.0" stroke="rgb(0,0,0)" stroke-width="2.0"/>
<line x1="141.5" y1="196.3" x2="175.3" y2="176.7" opacity="1.0" stroke="rgb(0,0,0)" stroke-width="2.0"/>
<line x1="175.3" y1="176.7" x2="175.3" y2="137.7" opacity="1.0" stroke="rgb(0,0,0)" stroke-width="2.0"/>
<line x1="168.1" y1="170.7" x2="168.1" y2="143.7" opacity="1.0" stroke="rgb(0,0,0)" stroke-width="2.0"/>
<line x1="40.0" y1="176.7" x2="73.8" y2="196.3" opacity="1.0" stroke="rgb(0,0,0)" stroke-width="2.0"/>
<line x1="48.8" y1="173.5" x2="72.2" y2="187.0" opacity="1.0" stroke="rgb(0,0,0)" stroke-width="2.0"/>
<line x1="73.8" y1="196.3" x2="107.7" y2="176.7" opacity="1.0" stroke="rgb(0,0,0)" stroke-width="2.0"/>
<line x1="107.7" y1="137.7" x2="73.8" y2="118.1" opacity="1.0" stroke="rgb(0,0,0)" stroke-width="2.0"/>
<line x1="73.8" y1="118.1" x2="40.0" y2="137.7" opacity="1.0" stroke="rgb(0,0,0)" stroke-width="2.0"/>
<line x1="72.2" y1="127.4" x2="48.8" y2="140.9" opacity="1.0" stroke="rgb(0,0,0)" stroke-width="2.0"/>
<line x1="40.0" y1="137.7" x2="40.0" y2="176.7" opacity="1.0" stroke="rgb(0,0,0)" stroke-width="2.0"/>
<line x1="310.7" y1="215.8" x2="344.5" y2="235.3" opacity="1.0" stroke="rgb(0,0,0)" stroke-width="2.0"/>
<line x1="319.5" y1="212.6" x2="342.9" y2="226.1" opacity="1.0" stroke="rgb(0,0,0)" stroke-width="2.0"/>
<line x1="344.5" y1="235.3" x2="378.4" y2="215.8" opacity="1.0" stroke="rgb(0,0,0)" stroke-width="2.0"/>
<line x1="378.4" y1="215.8" x2="378.4" y2="176.7" opacity="1.0" stroke="rgb(0,0,0)" stroke-width="2.0"/>
<line x1="371.2" y1="209.8" x2="371.2" y2="182.7" opacity="1.0" stroke="rgb(0,0,0)" stroke-width="2.0"/>
<line x1="378.4" y1="176.7" x2="344.5" y2="157.2" opacity="1.0" stroke="rgb(0,0,0)" stroke-width="2.0"/>
<line x1="344.5" y1="157.2" x2="310.7" y2="176.7" opacity="1.0" stroke="rgb(0,0,0)" stroke-width="2.0"/>
<line x1="342.9" y1="166.4" x2="319.5" y2="180.0" opacity="1.0" stroke="rgb(0,0,0)" stroke-width="2.0"/>
<line x1="310.7" y1="176.7" x2="310.7" y2="215.8" opacity="1.0" stroke="rgb(0,0,0)" stroke-width="2.0"/>
<line x1="344.5" y1="118.1" x2="344.5" y2="157.2" opacity="1.0" stroke="rgb(0,0,0)" stroke-width="2.0"/>
<line x1="310.7" y1="176.7" x2="276.8" y2="157.2" opacity="1.0" stroke="rgb(0,0,0)" stroke-width="2.0"/>
<line x1="276.8" y1="157.2" x2="276.8" y2="118.1" opacity="1.0" stroke="rgb(0,0,0)" stroke-width="2.0"/>
<line x1="284.0" y1="151.2" x2="284.0" y2="124.1" opacity="1.0" stroke="rgb(0,0,0)" stroke-width="2.0"/>
<line x1="276.8" y1="118.1" x2="310.7" y2="98.6" opacity="1.0" stroke="rgb(0,0,0)" stroke-width="2.0"/>
<line x1="310.7" y1="98.6" x2="344.5" y2="118.1" opacity="1.0" stroke="rgb(0,0,0)" stroke-width="2.0"/>
<line x1="312.3" y1="107.8" x2="335.7" y2="121.4" opacity="1.0" stroke="rgb(0,0,0)" stroke-width="2.0"/>
<line x1="243.0" y1="59.5" x2="276.8" y2="40.0" opacity="1.0" stroke="rgb(0,0,0)" stroke-width="2.0"/>
<line x1="276.8" y1="40.0" x2="310.7" y2="59.5" opacity="1.0" stroke="rgb(0,0,0)" stroke-width="2.0"/>
<line x1="278.4" y1="49.2" x2="301.9" y2="62.8" opacity="1.0" stroke="rgb(0,0,0)" stroke-width="2.0"/>
<line x1="310.7" y1="59.5" x2="310.7" y2="98.6" opacity="1.0" stroke="rgb(0,0,0)" stroke-width="2.0"/>
<line x1="276.8" y1="118.1" x2="243.0" y2="98.6" opacity="1.0" stroke="rgb(0,0,0)" stroke-width="2.0"/>
<line x1="243.0" y1="98.6" x2="243.0" y2="59.5" opacity="1.0" stroke="rgb(0,0,0)" stroke-width="2.0"/>
<line x1="250.2" y1="92.6" x2="250.2" y2="65.5" opacity="1.0" stroke="rgb(0,0,0)" stroke-width="2.0"/>
<text x="414.654013" y="59.625851" fill="rgb(178,178,0)" stroke-width="0" font-weight="bold" font-size="16">S</text>
<text x="203.177056" y="204.279070" fill="rgb(12,12,255)" stroke-width="0" font-weight="bold" font-size="16">N</text>
</svg>
</g>
</svg>
