<svg xmlns="http://www.w3.org/2000/svg" xmlns:xlink="http://www.w3.org/1999/xlink" xmlns:cml="http://www.xml-cml.org/schema" version="1.1" id="topsvg" x="0" y="0" viewBox="0 0 100 100">
<title>F_3_S - Open Babel Depiction</title>
<rect x="0" y="0" width="100" height="100" fill="white"/>
<g transform="translate(0,0)">
<svg width="100" height="100" x="0" y="0" viewBox="0 0 554.656 393.191" font-family="sans-serif" stroke="rgb(0,0,0)" stroke-width="2" stroke-linecap="round">
<line x1="356.4" y1="163.9" x2="379.0" y2="177.0" opacity="1.0" stroke="rgb(0,0,0)" stroke-width="2.0"/>
<line x1="345.1" y1="144.4" x2="345.1" y2="118.3" opacity="1.0" stroke="rgb(0,0,0)" stroke-width="2.0"/>
<line x1="333.9" y1="163.9" x2="277.3" y2="196.6" opacity="1.0" stroke="rgb(0,0,0)" stroke-width="2.0"/>
<line x1="107.8" y1="294.5" x2="73.9" y2="314.0" opacity="1.0" stroke="rgb(0,0,0)" stroke-width="2.0"/>
<line x1="73.9" y1="314.0" x2="51.3" y2="301.0" opacity="1.0" stroke="rgb(0,0,0)" stroke-width="2.0"/>
<line x1="76.9" y1="314.0" x2="76.9" y2="340.2" opacity="1.0" stroke="rgb(0,0,0)" stroke-width="2.0"/>
<line x1="70.9" y1="314.0" x2="70.9" y2="340.2" opacity="1.0" stroke="rgb(0,0,0)" stroke-width="2.0"/>
<line x1="209.5" y1="235.7" x2="175.6" y2="255.3" opacity="1.0" stroke="rgb(0,0,0)" stroke-width="2.0"/>
<line x1="311.2" y1="98.7" x2="311.2" y2="59.6" opacity="1.0" stroke="rgb(0,0,0)" stroke-width="2.0"/>
<line x1="311.2" y1="59.6" x2="345.1" y2="40.0" opacity="1.0" stroke="rgb(0,0,0)" stroke-width="2.0"/>
<line x1="320.0" y1="62.8" x2="343.5" y2="49.2" opacity="1.0" stroke="rgb(0,0,0)" stroke-width="2.0"/>
<line x1="345.1" y1="40.0" x2="379.0" y2="59.6" opacity="1.0" stroke="rgb(0,0,0)" stroke-width="2.0"/>
<line x1="379.0" y1="59.6" x2="379.0" y2="98.7" opacity="1.0" stroke="rgb(0,0,0)" stroke-width="2.0"/>
<line x1="371.8" y1="65.6" x2="371.8" y2="92.7" opacity="1.0" stroke="rgb(0,0,0)" stroke-width="2.0"/>
<line x1="379.0" y1="98.7" x2="345.1" y2="118.3" opacity="1.0" stroke="rgb(0,0,0)" stroke-width="2.0"/>
<line x1="345.1" y1="118.3" x2="311.2" y2="98.7" opacity="1.0" stroke="rgb(0,0,0)" stroke-width="2.0"/>
<line x1="343.5" y1="109.1" x2="320.0" y2="95.5" opacity="1.0" stroke="rgb(0,0,0)" stroke-width="2.0"/>
<line x1="379.0" y1="216.2" x2="412.9" y2="235.7" opacity="1.0" stroke="rgb(0,0,0)" stroke-width="2.0"/>
<line x1="412.9" y1="235.7" x2="446.8" y2="216.2" opacity="1.0" stroke="rgb(0,0,0)" stroke-width="2.0"/>
<line x1="414.5" y1="226.5" x2="438.1" y2="212.9" opacity="1.0" stroke="rgb(0,0,0)" stroke-width="2.0"/>
<line x1="446.8" y1="216.2" x2="446.8" y2="177.0" opacity="1.0" stroke="rgb(0,0,0)" stroke-width="2.0"/>
<line x1="446.8" y1="177.0" x2="412.9" y2="157.4" opacity="1.0" stroke="rgb(0,0,0)" stroke-width="2.0"/>
<line x1="438.1" y1="180.3" x2="414.5" y2="166.7" opacity="1.0" stroke="rgb(0,0,0)" stroke-width="2.0"/>
<line x1="412.9" y1="157.4" x2="379.0" y2="177.0" opacity="1.0" stroke="rgb(0,0,0)" stroke-width="2.0"/>
<line x1="379.0" y1="177.0" x2="379.0" y2="216.2" opacity="1.0" stroke="rgb(0,0,0)" stroke-width="2.0"/>
<line x1="386.2" y1="183.0" x2="386.2" y2="210.2" opacity="1.0" stroke="rgb(0,0,0)" stroke-width="2.0"/>
<line x1="514.7" y1="177.0" x2="480.8" y2="157.4" opacity="1.0" stroke="rgb(0,0,0)" stroke-width="2.0"/>
<line x1="505.9" y1="180.3" x2="482.3" y2="166.7" opacity="1.0" stroke="rgb(0,0,0)" stroke-width="2.0"/>
<line x1="480.8" y1="157.4" x2="446.8" y2="177.0" opacity="1.0" stroke="rgb(0,0,0)" stroke-width="2.0"/>
<line x1="446.8" y1="216.2" x2="480.8" y2="235.7" opacity="1.0" stroke="rgb(0,0,0)" stroke-width="2.0"/>
<line x1="480.8" y1="235.7" x2="514.7" y2="216.2" opacity="1.0" stroke="rgb(0,0,0)" stroke-width="2.0"/>
<line x1="482.3" y1="226.5" x2="505.9" y2="212.9" opacity="1.0" stroke="rgb(0,0,0)" stroke-width="2.0"/>
<line x1="514.7" y1="216.2" x2="514.7" y2="177.0" opacity="1.0" stroke="rgb(0,0,0)" stroke-width="2.0"/>
<line x1="243.4" y1="137.9" x2="209.5" y2="118.3" opacity="1.0" stroke="rgb(0,0,0)" stroke-width="2.0"/>
<line x1="234.6" y1="141.1" x2="211.1" y2="127.5" opacity="1.0" stroke="rgb(0,0,0)" stroke-width="2.0"/>
<line x1="209.5" y1="118.3" x2="175.6" y2="137.9" opacity="1.0" stroke="rgb(0,0,0)" stroke-width="2.0"/>
<line x1="175.6" y1="137.9" x2="175.6" y2="177.0" opacity="1.0" stroke="rgb(0,0,0)" stroke-width="2.0"/>
<line x1="182.8" y1="143.9" x2="182.8" y2="171.0" opacity="1.0" stroke="rgb(0,0,0)" stroke-width="2.0"/>
<line x1="175.6" y1="177.0" x2="209.5" y2="196.6" opacity="1.0" stroke="rgb(0,0,0)" stroke-width="2.0"/>
<line x1="209.5" y1="196.6" x2="243.4" y2="177.0" opacity="1.0" stroke="rgb(0,0,0)" stroke-width="2.0"/>
<line x1="211.1" y1="187.4" x2="234.6" y2="173.8" opacity="1.0" stroke="rgb(0,0,0)" stroke-width="2.0"/>
<line x1="243.4" y1="177.0" x2="243.4" y2="137.9" opacity="1.0" stroke="rgb(0,0,0)" stroke-width="2.0"/>
<line x1="209.5" y1="235.7" x2="209.5" y2="196.6" opacity="1.0" stroke="rgb(0,0,0)" stroke-width="2.0"/>
<line x1="243.4" y1="177.0" x2="277.3" y2="196.6" opacity="1.0" stroke="rgb(0,0,0)" stroke-width="2.0"/>
<line x1="277.3" y1="196.6" x2="277.3" y2="235.7" opacity="1.0" stroke="rgb(0,0,0)" stroke-width="2.0"/>
<line x1="270.1" y1="202.6" x2="270.1" y2="229.7" opacity="1.0" stroke="rgb(0,0,0)" stroke-width="2.0"/>
<line x1="277.3" y1="235.7" x2="243.4" y2="255.3" opacity="1.0" stroke="rgb(0,0,0)" stroke-width="2.0"/>
<line x1="243.4" y1="255.3" x2="209.5" y2="235.7" opacity="1.0" stroke="rgb(0,0,0)" stroke-width="2.0"/>
<line x1="241.8" y1="246.1" x2="218.3" y2="232.5" opacity="1.0" stroke="rgb(0,0,0)" stroke-width="2.0"/>
<line x1="311.2" y1="294.5" x2="277.3" y2="314.0" opacity="1.0" stroke="rgb(0,0,0)" stroke-width="2.0"/>
<line x1="277.3" y1="314.0" x2="243.4" y2="294.5" opacity="1.0" stroke="rgb(0,0,0)" stroke-width="2.0"/>
<line x1="275.7" y1="304.8" x2="252.2" y2="291.2" opacity="1.0" stroke="rgb(0,0,0)" stroke-width="2.0"/>
<line x1="243.4" y1="294.5" x2="243.4" y2="255.3" opacity="1.0" stroke="rgb(0,0,0)" stroke-width="2.0"/>
<line x1="277.3" y1="235.7" x2="311.2" y2="255.3" opacity="1.0" stroke="rgb(0,0,0)" stroke-width="2.0"/>
<line x1="311.2" y1="255.3" x2="311.2" y2="294.5" opacity="1.0" stroke="rgb(0,0,0)" stroke-width="2.0"/>
<line x1="304.0" y1="261.3" x2="304.0" y2="288.5" opacity="1.0" stroke="rgb(0,0,0)" stroke-width="2.0"/>
<line x1="175.6" y1="294.5" x2="141.7" y2="314.0" opacity="1.0" stroke="rgb(0,0,0)" stroke-width="2.0"/>
<line x1="141.7" y1="314.0" x2="107.8" y2="294.5" opacity="1.0" stroke="rgb(0,0,0)" stroke-width="2.0"/>
<line x1="140.1" y1="304.8" x2="116.6" y2="291.2" opacity="1.0" stroke="rgb(0,0,0)" stroke-width="2.0"/>
<line x1="107.8" y1="294.5" x2="107.8" y2="255.3" opacity="1.0" stroke="rgb(0,0,0)" stroke-width="2.0"/>
<line x1="107.8" y1="255.3" x2="141.7" y2="235.7" opacity="1.0" stroke="rgb(0,0,0)" stroke-width="2.0"/>
<line x1="116.6" y1="258.6" x2="140.1" y2="245.0" opacity="1.0" stroke="rgb(0,0,0)" stroke-width="2.0"/>
<line x1="141.7" y1="235.7" x2="175.6" y2="255.3" opacity="1.0" stroke="rgb(0,0,0)" stroke-width="2.0"/>
<line x1="175.6" y1="255.3" x2="175.6" y2="294.5" opacity="1.0" stroke="rgb(0,0,0)" stroke-width="2.0"/>
<line x1="168.4" y1="261.3" x2="168.4" y2="288.5" opacity="1.0" stroke="rgb(0,0,0)" stroke-width="2.0"/>
<text x="14.000000" y="302.468085" fill="rgb(102,102,102)" stroke-width="0" font-weight="bold" font-size="16">H</text>
<text x="26.000000" y="306.148085" fill="rgb(102,102,102)" stroke-width="0" font-weight="bold" font-size="13">3</text>
<text x="32.500000" y="302.468085" fill="rgb(102,102,102)" stroke-width="0" font-weight="bold" font-size="16">C</text>
<text x="67.903973" y="361.191489" fill="rgb(255,12,12)" stroke-width="0" font-weight="bold" font-size="16">O</text>
<text x="339.135759" y="165.446809" fill="rgb(12,12,255)" stroke-width="0" font-weight="bold" font-size="16">N</text>
</svg>
</g>
</svg>