<svg xmlns="http://www.w3.org/2000/svg" x="0" y="0" viewBox="0 0 100 100">
<title>F_3_M - Open Babel Depiction</title>
<rect x="0" y="0" width="100" height="100" fill="white"/>
<g transform="translate(0,0)">
<svg width="100" height="100" x="0" y="0" viewBox="0 0 554.431 373.478" font-family="sans-serif" stroke="rgb(0,0,0)" stroke-width="2" stroke-linecap="round">
<line x1="356.2" y1="163.9" x2="378.9" y2="177.0" opacity="1.0" stroke="rgb(0,0,0)" stroke-width="2.0"/>
<line x1="345.0" y1="144.4" x2="345.0" y2="118.3" opacity="1.0" stroke="rgb(0,0,0)" stroke-width="2.0"/>
<line x1="333.7" y1="163.9" x2="277.2" y2="196.5" opacity="1.0" stroke="rgb(0,0,0)" stroke-width="2.0"/>
<line x1="73.9" y1="313.9" x2="51.3" y2="327.0" opacity="1.0" stroke="rgb(0,0,0)" stroke-width="2.0"/>
<line x1="76.0" y1="317.6" x2="53.4" y2="330.6" opacity="1.0" stroke="rgb(0,0,0)" stroke-width="2.0"/>
<line x1="71.8" y1="310.3" x2="49.2" y2="323.3" opacity="1.0" stroke="rgb(0,0,0)" stroke-width="2.0"/>
<line x1="107.8" y1="294.3" x2="73.9" y2="313.9" opacity="1.0" stroke="rgb(0,0,0)" stroke-width="2.0"/>
<line x1="209.4" y1="235.7" x2="175.6" y2="255.2" opacity="1.0" stroke="rgb(0,0,0)" stroke-width="2.0"/>
<line x1="311.1" y1="98.7" x2="311.1" y2="59.6" opacity="1.0" stroke="rgb(0,0,0)" stroke-width="2.0"/>
<line x1="311.1" y1="59.6" x2="345.0" y2="40.0" opacity="1.0" stroke="rgb(0,0,0)" stroke-width="2.0"/>
<line x1="319.9" y1="62.8" x2="343.4" y2="49.2" opacity="1.0" stroke="rgb(0,0,0)" stroke-width="2.0"/>
<line x1="345.0" y1="40.0" x2="378.9" y2="59.6" opacity="1.0" stroke="rgb(0,0,0)" stroke-width="2.0"/>
<line x1="378.9" y1="59.6" x2="378.9" y2="98.7" opacity="1.0" stroke="rgb(0,0,0)" stroke-width="2.0"/>
<line x1="371.7" y1="65.6" x2="371.7" y2="92.7" opacity="1.0" stroke="rgb(0,0,0)" stroke-width="2.0"/>
<line x1="378.9" y1="98.7" x2="345.0" y2="118.3" opacity="1.0" stroke="rgb(0,0,0)" stroke-width="2.0"/>
<line x1="345.0" y1="118.3" x2="311.1" y2="98.7" opacity="1.0" stroke="rgb(0,0,0)" stroke-width="2.0"/>
<line x1="343.4" y1="109.0" x2="319.9" y2="95.5" opacity="1.0" stroke="rgb(0,0,0)" stroke-width="2.0"/>
<line x1="378.9" y1="216.1" x2="412.8" y2="235.7" opacity="1.0" stroke="rgb(0,0,0)" stroke-width="2.0"/>
<line x1="412.8" y1="235.7" x2="446.7" y2="216.1" opacity="1.0" stroke="rgb(0,0,0)" stroke-width="2.0"/>
<line x1="414.4" y1="226.4" x2="437.9" y2="212.9" opacity="1.0" stroke="rgb(0,0,0)" stroke-width="2.0"/>
<line x1="446.7" y1="216.1" x2="446.7" y2="177.0" opacity="1.0" stroke="rgb(0,0,0)" stroke-width="2.0"/>
<line x1="446.7" y1="177.0" x2="412.8" y2="157.4" opacity="1.0" stroke="rgb(0,0,0)" stroke-width="2.0"/>
<line x1="437.9" y1="180.2" x2="414.4" y2="166.6" opacity="1.0" stroke="rgb(0,0,0)" stroke-width="2.0"/>
<line x1="412.8" y1="157.4" x2="378.9" y2="177.0" opacity="1.0" stroke="rgb(0,0,0)" stroke-width="2.0"/>
<line x1="378.9" y1="177.0" x2="378.9" y2="216.1" opacity="1.0" stroke="rgb(0,0,0)" stroke-width="2.0"/>
<line x1="386.1" y1="183.0" x2="386.1" y2="210.1" opacity="1.0" stroke="rgb(0,0,0)" stroke-width="2.0"/>
<line x1="514.4" y1="177.0" x2="480.5" y2="157.4" opacity="1.0" stroke="rgb(0,0,0)" stroke-width="2.0"/>
<line x1="505.6" y1="180.2" x2="482.1" y2="166.6" opacity="1.0" stroke="rgb(0,0,0)" stroke-width="2.0"/>
<line x1="480.5" y1="157.4" x2="446.7" y2="177.0" opacity="1.0" stroke="rgb(0,0,0)" stroke-width="2.0"/>
<line x1="446.7" y1="216.1" x2="480.5" y2="235.7" opacity="1.0" stroke="rgb(0,0,0)" stroke-width="2.0"/>
<line x1="480.5" y1="235.7" x2="514.4" y2="216.1" opacity="1.0" stroke="rgb(0,0,0)" stroke-width="2.0"/>
<line x1="482.1" y1="226.4" x2="505.6" y2="212.9" opacity="1.0" stroke="rgb(0,0,0)" stroke-width="2.0"/>
<line x1="514.4" y1="216.1" x2="514.4" y2="177.0" opacity="1.0" stroke="rgb(0,0,0)" stroke-width="2.0"/>
<line x1="243.3" y1="137.8" x2="209.4" y2="118.3" opacity="1.0" stroke="rgb(0,0,0)" stroke-width="2.0"/>
<line x1="234.5" y1="141.1" x2="211.0" y2="127.5" opacity="1.0" stroke="rgb(0,0,0)" stroke-width="2.0"/>
<line x1="209.4" y1="118.3" x2="175.6" y2="137.8" opacity="1.0" stroke="rgb(0,0,0)" stroke-width="2.0"/>
<line x1="175.6" y1="137.8" x2="175.6" y2="177.0" opacity="1.0" stroke="rgb(0,0,0)" stroke-width="2.0"/>
<line x1="182.8" y1="143.8" x2="182.8" y2="171.0" opacity="1.0" stroke="rgb(0,0,0)" stroke-width="2.0"/>
<line x1="175.6" y1="177.0" x2="209.4" y2="196.5" opacity="1.0" stroke="rgb(0,0,0)" stroke-width="2.0"/>
<line x1="209.4" y1="196.5" x2="243.3" y2="177.0" opacity="1.0" stroke="rgb(0,0,0)" stroke-width="2.0"/>
<line x1="211.0" y1="187.3" x2="234.5" y2="173.7" opacity="1.0" stroke="rgb(0,0,0)" stroke-width="2.0"/>
<line x1="243.3" y1="177.0" x2="243.3" y2="137.8" opacity="1.0" stroke="rgb(0,0,0)" stroke-width="2.0"/>
<line x1="209.4" y1="235.7" x2="209.4" y2="196.5" opacity="1.0" stroke="rgb(0,0,0)" stroke-width="2.0"/>
<line x1="243.3" y1="177.0" x2="277.2" y2="196.5" opacity="1.0" stroke="rgb(0,0,0)" stroke-width="2.0"/>
<line x1="277.2" y1="196.5" x2="277.2" y2="235.7" opacity="1.0" stroke="rgb(0,0,0)" stroke-width="2.0"/>
<line x1="270.0" y1="202.5" x2="270.0" y2="229.7" opacity="1.0" stroke="rgb(0,0,0)" stroke-width="2.0"/>
<line x1="277.2" y1="235.7" x2="243.3" y2="255.2" opacity="1.0" stroke="rgb(0,0,0)" stroke-width="2.0"/>
<line x1="243.3" y1="255.2" x2="209.4" y2="235.7" opacity="1.0" stroke="rgb(0,0,0)" stroke-width="2.0"/>
<line x1="241.7" y1="246.0" x2="218.2" y2="232.4" opacity="1.0" stroke="rgb(0,0,0)" stroke-width="2.0"/>
<line x1="311.1" y1="294.3" x2="277.2" y2="313.9" opacity="1.0" stroke="rgb(0,0,0)" stroke-width="2.0"/>
<line x1="277.2" y1="313.9" x2="243.3" y2="294.3" opacity="1.0" stroke="rgb(0,0,0)" stroke-width="2.0"/>
<line x1="275.6" y1="304.7" x2="252.1" y2="291.1" opacity="1.0" stroke="rgb(0,0,0)" stroke-width="2.0"/>
<line x1="243.3" y1="294.3" x2="243.3" y2="255.2" opacity="1.0" stroke="rgb(0,0,0)" stroke-width="2.0"/>
<line x1="277.2" y1="235.7" x2="311.1" y2="255.2" opacity="1.0" stroke="rgb(0,0,0)" stroke-width="2.0"/>
<line x1="311.1" y1="255.2" x2="311.1" y2="294.3" opacity="1.0" stroke="rgb(0,0,0)" stroke-width="2.0"/>
<line x1="303.9" y1="261.2" x2="303.9" y2="288.3" opacity="1.0" stroke="rgb(0,0,0)" stroke-width="2.0"/>
<line x1="175.6" y1="294.3" x2="141.7" y2="313.9" opacity="1.0" stroke="rgb(0,0,0)" stroke-width="2.0"/>
<line x1="141.7" y1="313.9" x2="107.8" y2="294.3" opacity="1.0" stroke="rgb(0,0,0)" stroke-width="2.0"/>
<line x1="140.1" y1="304.7" x2="116.6" y2="291.1" opacity="1.0" stroke="rgb(0,0,0)" stroke-width="2.0"/>
<line x1="107.8" y1="294.3" x2="107.8" y2="255.2" opacity="1.0" stroke="rgb(0,0,0)" stroke-width="2.0"/>
<line x1="107.8" y1="255.2" x2="141.7" y2="235.7" opacity="1.0" stroke="rgb(0,0,0)" stroke-width="2.0"/>
<line x1="116.6" y1="258.5" x2="140.1" y2="244.9" opacity="1.0" stroke="rgb(0,0,0)" stroke-width="2.0"/>
<line x1="141.7" y1="235.7" x2="175.6" y2="255.2" opacity="1.0" stroke="rgb(0,0,0)" stroke-width="2.0"/>
<line x1="175.6" y1="255.2" x2="175.6" y2="294.3" opacity="1.0" stroke="rgb(0,0,0)" stroke-width="2.0"/>
<line x1="168.4" y1="261.2" x2="168.4" y2="288.3" opacity="1.0" stroke="rgb(0,0,0)" stroke-width="2.0"/>
<text x="34.000000" y="341.478261" fill="rgb(12,12,255)" stroke-width="0" font-weight="bold" font-size="16">N</text>
<text x="338.991555" y="165.391304" fill="rgb(12,12,255)" stroke-width="0" font-weight="bold" font-size="16">N</text>
</svg>
</g>
</svg>
