<svg xmlns="http://www.w3.org/2000/svg" xmlns:xlink="http://www.w3.org/1999/xlink" xmlns:cml="http://www.xml-cml.org/schema" version="1.1" id="topsvg" x="0" y="0" viewBox="0 0 100 100">
<title>F_3_O - Open Babel Depiction</title>
<rect x="0" y="0" width="100" height="100" fill="white"/>
<g transform="translate(0,0)">
<svg width="100" height="100" x="0" y="0" viewBox="0 0 486.245 353.636" font-family="sans-serif" stroke="rgb(0,0,0)" stroke-width="2" stroke-linecap="round">
<line x1="288.2" y1="163.8" x2="310.8" y2="176.8" opacity="1.0" stroke="rgb(0,0,0)" stroke-width="2.0"/>
<line x1="277.0" y1="144.3" x2="277.0" y2="118.2" opacity="1.0" stroke="rgb(0,0,0)" stroke-width="2.0"/>
<line x1="265.7" y1="163.8" x2="209.3" y2="196.4" opacity="1.0" stroke="rgb(0,0,0)" stroke-width="2.0"/>
<line x1="141.6" y1="235.5" x2="107.7" y2="255.0" opacity="1.0" stroke="rgb(0,0,0)" stroke-width="2.0"/>
<line x1="243.1" y1="98.6" x2="243.1" y2="59.5" opacity="1.0" stroke="rgb(0,0,0)" stroke-width="2.0"/>
<line x1="243.1" y1="59.5" x2="277.0" y2="40.0" opacity="1.0" stroke="rgb(0,0,0)" stroke-width="2.0"/>
<line x1="251.9" y1="62.8" x2="275.4" y2="49.2" opacity="1.0" stroke="rgb(0,0,0)" stroke-width="2.0"/>
<line x1="277.0" y1="40.0" x2="310.8" y2="59.5" opacity="1.0" stroke="rgb(0,0,0)" stroke-width="2.0"/>
<line x1="310.8" y1="59.5" x2="310.8" y2="98.6" opacity="1.0" stroke="rgb(0,0,0)" stroke-width="2.0"/>
<line x1="303.6" y1="65.5" x2="303.6" y2="92.6" opacity="1.0" stroke="rgb(0,0,0)" stroke-width="2.0"/>
<line x1="310.8" y1="98.6" x2="277.0" y2="118.2" opacity="1.0" stroke="rgb(0,0,0)" stroke-width="2.0"/>
<line x1="277.0" y1="118.2" x2="243.1" y2="98.6" opacity="1.0" stroke="rgb(0,0,0)" stroke-width="2.0"/>
<line x1="275.4" y1="108.9" x2="251.9" y2="95.4" opacity="1.0" stroke="rgb(0,0,0)" stroke-width="2.0"/>
<line x1="310.8" y1="215.9" x2="344.7" y2="235.5" opacity="1.0" stroke="rgb(0,0,0)" stroke-width="2.0"/>
<line x1="344.7" y1="235.5" x2="378.5" y2="215.9" opacity="1.0" stroke="rgb(0,0,0)" stroke-width="2.0"/>
<line x1="346.3" y1="226.2" x2="369.7" y2="212.7" opacity="1.0" stroke="rgb(0,0,0)" stroke-width="2.0"/>
<line x1="378.5" y1="215.9" x2="378.5" y2="176.8" opacity="1.0" stroke="rgb(0,0,0)" stroke-width="2.0"/>
<line x1="378.5" y1="176.8" x2="344.7" y2="157.3" opacity="1.0" stroke="rgb(0,0,0)" stroke-width="2.0"/>
<line x1="369.7" y1="180.1" x2="346.3" y2="166.5" opacity="1.0" stroke="rgb(0,0,0)" stroke-width="2.0"/>
<line x1="344.7" y1="157.3" x2="310.8" y2="176.8" opacity="1.0" stroke="rgb(0,0,0)" stroke-width="2.0"/>
<line x1="310.8" y1="176.8" x2="310.8" y2="215.9" opacity="1.0" stroke="rgb(0,0,0)" stroke-width="2.0"/>
<line x1="318.0" y1="182.8" x2="318.0" y2="209.9" opacity="1.0" stroke="rgb(0,0,0)" stroke-width="2.0"/>
<line x1="446.2" y1="176.8" x2="412.4" y2="157.3" opacity="1.0" stroke="rgb(0,0,0)" stroke-width="2.0"/>
<line x1="437.4" y1="180.1" x2="414.0" y2="166.5" opacity="1.0" stroke="rgb(0,0,0)" stroke-width="2.0"/>
<line x1="412.4" y1="157.3" x2="378.5" y2="176.8" opacity="1.0" stroke="rgb(0,0,0)" stroke-width="2.0"/>
<line x1="378.5" y1="215.9" x2="412.4" y2="235.5" opacity="1.0" stroke="rgb(0,0,0)" stroke-width="2.0"/>
<line x1="412.4" y1="235.5" x2="446.2" y2="215.9" opacity="1.0" stroke="rgb(0,0,0)" stroke-width="2.0"/>
<line x1="414.0" y1="226.2" x2="437.4" y2="212.7" opacity="1.0" stroke="rgb(0,0,0)" stroke-width="2.0"/>
<line x1="446.2" y1="215.9" x2="446.2" y2="176.8" opacity="1.0" stroke="rgb(0,0,0)" stroke-width="2.0"/>
<line x1="175.4" y1="137.7" x2="141.6" y2="118.2" opacity="1.0" stroke="rgb(0,0,0)" stroke-width="2.0"/>
<line x1="166.6" y1="141.0" x2="143.2" y2="127.4" opacity="1.0" stroke="rgb(0,0,0)" stroke-width="2.0"/>
<line x1="141.6" y1="118.2" x2="107.7" y2="137.7" opacity="1.0" stroke="rgb(0,0,0)" stroke-width="2.0"/>
<line x1="107.7" y1="137.7" x2="107.7" y2="176.8" opacity="1.0" stroke="rgb(0,0,0)" stroke-width="2.0"/>
<line x1="114.9" y1="143.7" x2="114.9" y2="170.8" opacity="1.0" stroke="rgb(0,0,0)" stroke-width="2.0"/>
<line x1="107.7" y1="176.8" x2="141.6" y2="196.4" opacity="1.0" stroke="rgb(0,0,0)" stroke-width="2.0"/>
<line x1="141.6" y1="196.4" x2="175.4" y2="176.8" opacity="1.0" stroke="rgb(0,0,0)" stroke-width="2.0"/>
<line x1="143.2" y1="187.1" x2="166.6" y2="173.6" opacity="1.0" stroke="rgb(0,0,0)" stroke-width="2.0"/>
<line x1="175.4" y1="176.8" x2="175.4" y2="137.7" opacity="1.0" stroke="rgb(0,0,0)" stroke-width="2.0"/>
<line x1="141.6" y1="235.5" x2="141.6" y2="196.4" opacity="1.0" stroke="rgb(0,0,0)" stroke-width="2.0"/>
<line x1="175.4" y1="176.8" x2="209.3" y2="196.4" opacity="1.0" stroke="rgb(0,0,0)" stroke-width="2.0"/>
<line x1="209.3" y1="196.4" x2="209.3" y2="235.5" opacity="1.0" stroke="rgb(0,0,0)" stroke-width="2.0"/>
<line x1="202.1" y1="202.4" x2="202.1" y2="229.5" opacity="1.0" stroke="rgb(0,0,0)" stroke-width="2.0"/>
<line x1="209.3" y1="235.5" x2="175.4" y2="255.0" opacity="1.0" stroke="rgb(0,0,0)" stroke-width="2.0"/>
<line x1="175.4" y1="255.0" x2="141.6" y2="235.5" opacity="1.0" stroke="rgb(0,0,0)" stroke-width="2.0"/>
<line x1="173.8" y1="245.8" x2="150.4" y2="232.2" opacity="1.0" stroke="rgb(0,0,0)" stroke-width="2.0"/>
<line x1="243.1" y1="294.1" x2="209.3" y2="313.6" opacity="1.0" stroke="rgb(0,0,0)" stroke-width="2.0"/>
<line x1="209.3" y1="313.6" x2="175.4" y2="294.1" opacity="1.0" stroke="rgb(0,0,0)" stroke-width="2.0"/>
<line x1="207.7" y1="304.4" x2="184.2" y2="290.9" opacity="1.0" stroke="rgb(0,0,0)" stroke-width="2.0"/>
<line x1="175.4" y1="294.1" x2="175.4" y2="255.0" opacity="1.0" stroke="rgb(0,0,0)" stroke-width="2.0"/>
<line x1="209.3" y1="235.5" x2="243.1" y2="255.0" opacity="1.0" stroke="rgb(0,0,0)" stroke-width="2.0"/>
<line x1="243.1" y1="255.0" x2="243.1" y2="294.1" opacity="1.0" stroke="rgb(0,0,0)" stroke-width="2.0"/>
<line x1="235.9" y1="261.0" x2="235.9" y2="288.1" opacity="1.0" stroke="rgb(0,0,0)" stroke-width="2.0"/>
<line x1="96.4" y1="300.6" x2="73.9" y2="313.6" opacity="1.0" stroke="rgb(0,0,0)" stroke-width="2.0"/>
<line x1="73.9" y1="313.6" x2="40.0" y2="294.1" opacity="1.0" stroke="rgb(0,0,0)" stroke-width="2.0"/>
<line x1="72.3" y1="304.4" x2="48.8" y2="290.9" opacity="1.0" stroke="rgb(0,0,0)" stroke-width="2.0"/>
<line x1="40.0" y1="294.1" x2="40.0" y2="255.0" opacity="1.0" stroke="rgb(0,0,0)" stroke-width="2.0"/>
<line x1="40.0" y1="255.0" x2="73.9" y2="235.5" opacity="1.0" stroke="rgb(0,0,0)" stroke-width="2.0"/>
<line x1="48.8" y1="258.2" x2="72.3" y2="244.7" opacity="1.0" stroke="rgb(0,0,0)" stroke-width="2.0"/>
<line x1="73.9" y1="235.5" x2="107.7" y2="255.0" opacity="1.0" stroke="rgb(0,0,0)" stroke-width="2.0"/>
<line x1="107.7" y1="255.0" x2="107.7" y2="281.2" opacity="1.0" stroke="rgb(0,0,0)" stroke-width="2.0"/>
<line x1="100.5" y1="261.0" x2="100.5" y2="279.1" opacity="1.0" stroke="rgb(0,0,0)" stroke-width="2.0"/>
<text x="101.707441" y="302.090909" fill="rgb(12,12,255)" stroke-width="0" font-weight="bold" font-size="16">N</text>
<text x="270.976042" y="165.272727" fill="rgb(12,12,255)" stroke-width="0" font-weight="bold" font-size="16">N</text>
</svg>
</g>
</svg>