<svg xmlns="http://www.w3.org/2000/svg" xmlns:xlink="http://www.w3.org/1999/xlink" xmlns:cml="http://www.xml-cml.org/schema" version="1.1" id="topsvg" x="0" y="0" viewBox="0 0 100 100">
<title>F_3_Q - Open Babel Depiction</title>
<rect x="0" y="0" width="100" height="100" fill="white"/>
<g transform="translate(0,0)">
<svg width="100" height="100" x="0" y="0" viewBox="0 0 486.245 353.636" font-family="sans-serif" stroke="rgb(0,0,0)" stroke-width="2" stroke-linecap="round">
<line x1="198.0" y1="189.9" x2="175.4" y2="176.8" opacity="1.0" stroke="rgb(0,0,0)" stroke-width="2.0"/>
<line x1="209.3" y1="209.4" x2="209.3" y2="235.5" opacity="1.0" stroke="rgb(0,0,0)" stroke-width="2.0"/>
<line x1="220.5" y1="189.9" x2="277.0" y2="157.3" opacity="1.0" stroke="rgb(0,0,0)" stroke-width="2.0"/>
<line x1="344.7" y1="118.2" x2="378.5" y2="98.6" opacity="1.0" stroke="rgb(0,0,0)" stroke-width="2.0"/>
<line x1="243.1" y1="255.0" x2="243.1" y2="294.1" opacity="1.0" stroke="rgb(0,0,0)" stroke-width="2.0"/>
<line x1="243.1" y1="294.1" x2="209.3" y2="313.6" opacity="1.0" stroke="rgb(0,0,0)" stroke-width="2.0"/>
<line x1="234.3" y1="290.9" x2="210.9" y2="304.4" opacity="1.0" stroke="rgb(0,0,0)" stroke-width="2.0"/>
<line x1="209.3" y1="313.6" x2="175.4" y2="294.1" opacity="1.0" stroke="rgb(0,0,0)" stroke-width="2.0"/>
<line x1="175.4" y1="294.1" x2="175.4" y2="255.0" opacity="1.0" stroke="rgb(0,0,0)" stroke-width="2.0"/>
<line x1="182.6" y1="288.1" x2="182.6" y2="261.0" opacity="1.0" stroke="rgb(0,0,0)" stroke-width="2.0"/>
<line x1="175.4" y1="255.0" x2="209.3" y2="235.5" opacity="1.0" stroke="rgb(0,0,0)" stroke-width="2.0"/>
<line x1="209.3" y1="235.5" x2="243.1" y2="255.0" opacity="1.0" stroke="rgb(0,0,0)" stroke-width="2.0"/>
<line x1="210.9" y1="244.7" x2="234.3" y2="258.2" opacity="1.0" stroke="rgb(0,0,0)" stroke-width="2.0"/>
<line x1="175.4" y1="137.7" x2="141.6" y2="118.2" opacity="1.0" stroke="rgb(0,0,0)" stroke-width="2.0"/>
<line x1="141.6" y1="118.2" x2="107.7" y2="137.7" opacity="1.0" stroke="rgb(0,0,0)" stroke-width="2.0"/>
<line x1="140.0" y1="127.4" x2="116.5" y2="141.0" opacity="1.0" stroke="rgb(0,0,0)" stroke-width="2.0"/>
<line x1="107.7" y1="137.7" x2="107.7" y2="176.8" opacity="1.0" stroke="rgb(0,0,0)" stroke-width="2.0"/>
<line x1="107.7" y1="176.8" x2="141.6" y2="196.4" opacity="1.0" stroke="rgb(0,0,0)" stroke-width="2.0"/>
<line x1="116.5" y1="173.6" x2="140.0" y2="187.1" opacity="1.0" stroke="rgb(0,0,0)" stroke-width="2.0"/>
<line x1="141.6" y1="196.4" x2="175.4" y2="176.8" opacity="1.0" stroke="rgb(0,0,0)" stroke-width="2.0"/>
<line x1="175.4" y1="176.8" x2="175.4" y2="137.7" opacity="1.0" stroke="rgb(0,0,0)" stroke-width="2.0"/>
<line x1="168.2" y1="170.8" x2="168.2" y2="143.7" opacity="1.0" stroke="rgb(0,0,0)" stroke-width="2.0"/>
<line x1="40.0" y1="176.8" x2="73.9" y2="196.4" opacity="1.0" stroke="rgb(0,0,0)" stroke-width="2.0"/>
<line x1="48.8" y1="173.6" x2="72.3" y2="187.1" opacity="1.0" stroke="rgb(0,0,0)" stroke-width="2.0"/>
<line x1="73.9" y1="196.4" x2="107.7" y2="176.8" opacity="1.0" stroke="rgb(0,0,0)" stroke-width="2.0"/>
<line x1="107.7" y1="137.7" x2="73.9" y2="118.2" opacity="1.0" stroke="rgb(0,0,0)" stroke-width="2.0"/>
<line x1="73.9" y1="118.2" x2="40.0" y2="137.7" opacity="1.0" stroke="rgb(0,0,0)" stroke-width="2.0"/>
<line x1="72.3" y1="127.4" x2="48.8" y2="141.0" opacity="1.0" stroke="rgb(0,0,0)" stroke-width="2.0"/>
<line x1="40.0" y1="137.7" x2="40.0" y2="176.8" opacity="1.0" stroke="rgb(0,0,0)" stroke-width="2.0"/>
<line x1="310.8" y1="215.9" x2="344.7" y2="235.5" opacity="1.0" stroke="rgb(0,0,0)" stroke-width="2.0"/>
<line x1="319.6" y1="212.7" x2="343.1" y2="226.2" opacity="1.0" stroke="rgb(0,0,0)" stroke-width="2.0"/>
<line x1="344.7" y1="235.5" x2="378.5" y2="215.9" opacity="1.0" stroke="rgb(0,0,0)" stroke-width="2.0"/>
<line x1="378.5" y1="215.9" x2="378.5" y2="176.8" opacity="1.0" stroke="rgb(0,0,0)" stroke-width="2.0"/>
<line x1="371.3" y1="209.9" x2="371.3" y2="182.8" opacity="1.0" stroke="rgb(0,0,0)" stroke-width="2.0"/>
<line x1="378.5" y1="176.8" x2="344.7" y2="157.3" opacity="1.0" stroke="rgb(0,0,0)" stroke-width="2.0"/>
<line x1="344.7" y1="157.3" x2="310.8" y2="176.8" opacity="1.0" stroke="rgb(0,0,0)" stroke-width="2.0"/>
<line x1="343.1" y1="166.5" x2="319.6" y2="180.1" opacity="1.0" stroke="rgb(0,0,0)" stroke-width="2.0"/>
<line x1="310.8" y1="176.8" x2="310.8" y2="215.9" opacity="1.0" stroke="rgb(0,0,0)" stroke-width="2.0"/>
<line x1="344.7" y1="118.2" x2="344.7" y2="157.3" opacity="1.0" stroke="rgb(0,0,0)" stroke-width="2.0"/>
<line x1="310.8" y1="176.8" x2="277.0" y2="157.3" opacity="1.0" stroke="rgb(0,0,0)" stroke-width="2.0"/>
<line x1="277.0" y1="157.3" x2="277.0" y2="118.2" opacity="1.0" stroke="rgb(0,0,0)" stroke-width="2.0"/>
<line x1="284.2" y1="151.3" x2="284.2" y2="124.2" opacity="1.0" stroke="rgb(0,0,0)" stroke-width="2.0"/>
<line x1="277.0" y1="118.2" x2="310.8" y2="98.6" opacity="1.0" stroke="rgb(0,0,0)" stroke-width="2.0"/>
<line x1="310.8" y1="98.6" x2="344.7" y2="118.2" opacity="1.0" stroke="rgb(0,0,0)" stroke-width="2.0"/>
<line x1="312.4" y1="107.9" x2="335.9" y2="121.4" opacity="1.0" stroke="rgb(0,0,0)" stroke-width="2.0"/>
<line x1="243.1" y1="59.5" x2="277.0" y2="40.0" opacity="1.0" stroke="rgb(0,0,0)" stroke-width="2.0"/>
<line x1="277.0" y1="40.0" x2="310.8" y2="59.5" opacity="1.0" stroke="rgb(0,0,0)" stroke-width="2.0"/>
<line x1="278.6" y1="49.2" x2="302.0" y2="62.8" opacity="1.0" stroke="rgb(0,0,0)" stroke-width="2.0"/>
<line x1="310.8" y1="59.5" x2="310.8" y2="98.6" opacity="1.0" stroke="rgb(0,0,0)" stroke-width="2.0"/>
<line x1="277.0" y1="118.2" x2="243.1" y2="98.6" opacity="1.0" stroke="rgb(0,0,0)" stroke-width="2.0"/>
<line x1="243.1" y1="98.6" x2="243.1" y2="59.5" opacity="1.0" stroke="rgb(0,0,0)" stroke-width="2.0"/>
<line x1="250.3" y1="92.6" x2="250.3" y2="65.5" opacity="1.0" stroke="rgb(0,0,0)" stroke-width="2.0"/>
<line x1="389.8" y1="53.0" x2="412.4" y2="40.0" opacity="1.0" stroke="rgb(0,0,0)" stroke-width="2.0"/>
<line x1="412.4" y1="40.0" x2="446.2" y2="59.5" opacity="1.0" stroke="rgb(0,0,0)" stroke-width="2.0"/>
<line x1="414.0" y1="49.2" x2="437.4" y2="62.8" opacity="1.0" stroke="rgb(0,0,0)" stroke-width="2.0"/>
<line x1="446.2" y1="59.5" x2="446.2" y2="85.6" opacity="1.0" stroke="rgb(0,0,0)" stroke-width="2.0"/>
<line x1="435.1" y1="105.1" x2="412.4" y2="118.2" opacity="1.0" stroke="rgb(0,0,0)" stroke-width="2.0"/>
<line x1="429.7" y1="99.9" x2="414.0" y2="108.9" opacity="1.0" stroke="rgb(0,0,0)" stroke-width="2.0"/>
<line x1="412.4" y1="118.2" x2="378.5" y2="98.6" opacity="1.0" stroke="rgb(0,0,0)" stroke-width="2.0"/>
<line x1="378.5" y1="98.6" x2="378.5" y2="72.4" opacity="1.0" stroke="rgb(0,0,0)" stroke-width="2.0"/>
<line x1="385.7" y1="92.6" x2="385.7" y2="74.5" opacity="1.0" stroke="rgb(0,0,0)" stroke-width="2.0"/>
<text x="372.537203" y="67.545455" fill="rgb(12,12,255)" stroke-width="0" font-weight="bold" font-size="16">N</text>
<text x="440.244644" y="106.636364" fill="rgb(12,12,255)" stroke-width="0" font-weight="bold" font-size="16">N</text>
<text x="203.268602" y="204.363636" fill="rgb(12,12,255)" stroke-width="0" font-weight="bold" font-size="16">N</text>
</svg>
</g>
</svg>