<svg xmlns="http://www.w3.org/2000/svg" x="0" y="0" viewBox="0 0 100 100">
<title>F_6_Q - Open Babel Depiction</title>
<rect x="0" y="0" width="100" height="100" fill="white"/>
<g transform="translate(0,0)">
<svg width="100" height="100" x="0" y="0" viewBox="0 0 417.528 372.308" font-family="sans-serif" stroke="rgb(0,0,0)" stroke-width="2" stroke-linecap="round">
<line x1="253.8" y1="202.4" x2="276.3" y2="215.4" opacity="1.0" stroke="rgb(0,0,0)" stroke-width="2.0"/>
<line x1="242.5" y1="182.9" x2="242.5" y2="117.9" opacity="1.0" stroke="rgb(0,0,0)" stroke-width="2.0"/>
<line x1="231.3" y1="202.4" x2="208.8" y2="215.4" opacity="1.0" stroke="rgb(0,0,0)" stroke-width="2.0"/>
<line x1="141.3" y1="254.4" x2="107.5" y2="273.8" opacity="1.0" stroke="rgb(0,0,0)" stroke-width="2.0"/>
<line x1="208.8" y1="98.5" x2="208.8" y2="59.5" opacity="1.0" stroke="rgb(0,0,0)" stroke-width="2.0"/>
<line x1="208.8" y1="59.5" x2="242.5" y2="40.0" opacity="1.0" stroke="rgb(0,0,0)" stroke-width="2.0"/>
<line x1="217.6" y1="62.7" x2="240.9" y2="49.2" opacity="1.0" stroke="rgb(0,0,0)" stroke-width="2.0"/>
<line x1="242.5" y1="40.0" x2="276.3" y2="59.5" opacity="1.0" stroke="rgb(0,0,0)" stroke-width="2.0"/>
<line x1="276.3" y1="59.5" x2="276.3" y2="98.5" opacity="1.0" stroke="rgb(0,0,0)" stroke-width="2.0"/>
<line x1="269.1" y1="65.5" x2="269.1" y2="92.5" opacity="1.0" stroke="rgb(0,0,0)" stroke-width="2.0"/>
<line x1="276.3" y1="98.5" x2="242.5" y2="117.9" opacity="1.0" stroke="rgb(0,0,0)" stroke-width="2.0"/>
<line x1="242.5" y1="117.9" x2="208.8" y2="98.5" opacity="1.0" stroke="rgb(0,0,0)" stroke-width="2.0"/>
<line x1="240.9" y1="108.7" x2="217.6" y2="95.2" opacity="1.0" stroke="rgb(0,0,0)" stroke-width="2.0"/>
<line x1="310.0" y1="195.9" x2="343.8" y2="215.4" opacity="1.0" stroke="rgb(0,0,0)" stroke-width="2.0"/>
<line x1="343.8" y1="215.4" x2="343.8" y2="254.4" opacity="1.0" stroke="rgb(0,0,0)" stroke-width="2.0"/>
<line x1="336.6" y1="221.4" x2="336.6" y2="248.4" opacity="1.0" stroke="rgb(0,0,0)" stroke-width="2.0"/>
<line x1="343.8" y1="254.4" x2="310.0" y2="273.8" opacity="1.0" stroke="rgb(0,0,0)" stroke-width="2.0"/>
<line x1="310.0" y1="273.8" x2="276.3" y2="254.4" opacity="1.0" stroke="rgb(0,0,0)" stroke-width="2.0"/>
<line x1="308.4" y1="264.6" x2="285.1" y2="251.1" opacity="1.0" stroke="rgb(0,0,0)" stroke-width="2.0"/>
<line x1="276.3" y1="254.4" x2="276.3" y2="215.4" opacity="1.0" stroke="rgb(0,0,0)" stroke-width="2.0"/>
<line x1="276.3" y1="215.4" x2="310.0" y2="195.9" opacity="1.0" stroke="rgb(0,0,0)" stroke-width="2.0"/>
<line x1="285.1" y1="218.6" x2="308.4" y2="205.1" opacity="1.0" stroke="rgb(0,0,0)" stroke-width="2.0"/>
<line x1="343.8" y1="332.3" x2="310.0" y2="312.8" opacity="1.0" stroke="rgb(0,0,0)" stroke-width="2.0"/>
<line x1="342.2" y1="323.1" x2="318.8" y2="309.6" opacity="1.0" stroke="rgb(0,0,0)" stroke-width="2.0"/>
<line x1="310.0" y1="312.8" x2="310.0" y2="273.8" opacity="1.0" stroke="rgb(0,0,0)" stroke-width="2.0"/>
<line x1="343.8" y1="254.4" x2="377.5" y2="273.8" opacity="1.0" stroke="rgb(0,0,0)" stroke-width="2.0"/>
<line x1="377.5" y1="273.8" x2="377.5" y2="312.8" opacity="1.0" stroke="rgb(0,0,0)" stroke-width="2.0"/>
<line x1="370.3" y1="279.8" x2="370.3" y2="306.8" opacity="1.0" stroke="rgb(0,0,0)" stroke-width="2.0"/>
<line x1="377.5" y1="312.8" x2="343.8" y2="332.3" opacity="1.0" stroke="rgb(0,0,0)" stroke-width="2.0"/>
<line x1="208.8" y1="254.4" x2="175.0" y2="273.8" opacity="1.0" stroke="rgb(0,0,0)" stroke-width="2.0"/>
<line x1="175.0" y1="273.8" x2="141.3" y2="254.4" opacity="1.0" stroke="rgb(0,0,0)" stroke-width="2.0"/>
<line x1="173.4" y1="264.6" x2="150.1" y2="251.1" opacity="1.0" stroke="rgb(0,0,0)" stroke-width="2.0"/>
<line x1="141.3" y1="254.4" x2="141.3" y2="215.4" opacity="1.0" stroke="rgb(0,0,0)" stroke-width="2.0"/>
<line x1="141.3" y1="215.4" x2="175.0" y2="195.9" opacity="1.0" stroke="rgb(0,0,0)" stroke-width="2.0"/>
<line x1="150.1" y1="218.6" x2="173.4" y2="205.1" opacity="1.0" stroke="rgb(0,0,0)" stroke-width="2.0"/>
<line x1="175.0" y1="195.9" x2="208.8" y2="215.4" opacity="1.0" stroke="rgb(0,0,0)" stroke-width="2.0"/>
<line x1="208.8" y1="215.4" x2="208.8" y2="254.4" opacity="1.0" stroke="rgb(0,0,0)" stroke-width="2.0"/>
<line x1="201.6" y1="221.4" x2="201.6" y2="248.4" opacity="1.0" stroke="rgb(0,0,0)" stroke-width="2.0"/>
<line x1="141.3" y1="137.4" x2="175.0" y2="156.9" opacity="1.0" stroke="rgb(0,0,0)" stroke-width="2.0"/>
<line x1="142.9" y1="146.7" x2="166.2" y2="160.2" opacity="1.0" stroke="rgb(0,0,0)" stroke-width="2.0"/>
<line x1="175.0" y1="156.9" x2="175.0" y2="195.9" opacity="1.0" stroke="rgb(0,0,0)" stroke-width="2.0"/>
<line x1="141.3" y1="215.4" x2="107.5" y2="195.9" opacity="1.0" stroke="rgb(0,0,0)" stroke-width="2.0"/>
<line x1="107.5" y1="195.9" x2="107.5" y2="156.9" opacity="1.0" stroke="rgb(0,0,0)" stroke-width="2.0"/>
<line x1="114.7" y1="189.9" x2="114.7" y2="162.9" opacity="1.0" stroke="rgb(0,0,0)" stroke-width="2.0"/>
<line x1="107.5" y1="156.9" x2="141.3" y2="137.4" opacity="1.0" stroke="rgb(0,0,0)" stroke-width="2.0"/>
<line x1="62.5" y1="260.9" x2="40.0" y2="273.8" opacity="1.0" stroke="rgb(0,0,0)" stroke-width="2.0"/>
<line x1="40.0" y1="273.8" x2="40.0" y2="312.8" opacity="1.0" stroke="rgb(0,0,0)" stroke-width="2.0"/>
<line x1="47.2" y1="279.8" x2="47.2" y2="306.8" opacity="1.0" stroke="rgb(0,0,0)" stroke-width="2.0"/>
<line x1="40.0" y1="312.8" x2="62.5" y2="325.8" opacity="1.0" stroke="rgb(0,0,0)" stroke-width="2.0"/>
<line x1="84.9" y1="325.9" x2="107.5" y2="312.8" opacity="1.0" stroke="rgb(0,0,0)" stroke-width="2.0"/>
<line x1="83.1" y1="318.6" x2="98.7" y2="309.6" opacity="1.0" stroke="rgb(0,0,0)" stroke-width="2.0"/>
<line x1="107.5" y1="312.8" x2="107.5" y2="273.8" opacity="1.0" stroke="rgb(0,0,0)" stroke-width="2.0"/>
<line x1="107.5" y1="273.8" x2="84.9" y2="260.8" opacity="1.0" stroke="rgb(0,0,0)" stroke-width="2.0"/>
<line x1="98.7" y1="277.1" x2="83.1" y2="268.1" opacity="1.0" stroke="rgb(0,0,0)" stroke-width="2.0"/>
<text x="67.752785" y="262.358974" fill="rgb(12,12,255)" stroke-width="0" font-weight="bold" font-size="16">N</text>
<text x="67.752785" y="340.307692" fill="rgb(12,12,255)" stroke-width="0" font-weight="bold" font-size="16">N</text>
<text x="236.516710" y="203.897436" fill="rgb(12,12,255)" stroke-width="0" font-weight="bold" font-size="16">N</text>
</svg>
</g>
</svg>
