<svg xmlns="http://www.w3.org/2000/svg" xmlns:xlink="http://www.w3.org/1999/xlink" xmlns:cml="http://www.xml-cml.org/schema" version="1.1" id="topsvg" x="0" y="0" viewBox="0 0 100 100">
<title>F_6_M - Open Babel Depiction</title>
<rect x="0" y="0" width="100" height="100" fill="white"/>
<g transform="translate(0,0)">
<svg width="100" height="100" x="0" y="0" viewBox="0 0 485.553 392.195" font-family="sans-serif" stroke="rgb(0,0,0)" stroke-width="2" stroke-linecap="round">
<line x1="321.6" y1="202.6" x2="344.2" y2="215.6" opacity="1.0" stroke="rgb(0,0,0)" stroke-width="2.0"/>
<line x1="310.4" y1="183.1" x2="310.4" y2="118.0" opacity="1.0" stroke="rgb(0,0,0)" stroke-width="2.0"/>
<line x1="299.1" y1="202.6" x2="276.6" y2="215.6" opacity="1.0" stroke="rgb(0,0,0)" stroke-width="2.0"/>
<line x1="73.8" y1="332.7" x2="51.3" y2="345.7" opacity="1.0" stroke="rgb(0,0,0)" stroke-width="2.0"/>
<line x1="75.9" y1="336.3" x2="53.4" y2="349.3" opacity="1.0" stroke="rgb(0,0,0)" stroke-width="2.0"/>
<line x1="71.7" y1="329.0" x2="49.2" y2="342.1" opacity="1.0" stroke="rgb(0,0,0)" stroke-width="2.0"/>
<line x1="107.6" y1="313.2" x2="73.8" y2="332.7" opacity="1.0" stroke="rgb(0,0,0)" stroke-width="2.0"/>
<line x1="209.0" y1="254.6" x2="175.2" y2="274.1" opacity="1.0" stroke="rgb(0,0,0)" stroke-width="2.0"/>
<line x1="276.6" y1="98.5" x2="276.6" y2="59.5" opacity="1.0" stroke="rgb(0,0,0)" stroke-width="2.0"/>
<line x1="276.6" y1="59.5" x2="310.4" y2="40.0" opacity="1.0" stroke="rgb(0,0,0)" stroke-width="2.0"/>
<line x1="285.4" y1="62.7" x2="308.8" y2="49.2" opacity="1.0" stroke="rgb(0,0,0)" stroke-width="2.0"/>
<line x1="310.4" y1="40.0" x2="344.2" y2="59.5" opacity="1.0" stroke="rgb(0,0,0)" stroke-width="2.0"/>
<line x1="344.2" y1="59.5" x2="344.2" y2="98.5" opacity="1.0" stroke="rgb(0,0,0)" stroke-width="2.0"/>
<line x1="337.0" y1="65.5" x2="337.0" y2="92.5" opacity="1.0" stroke="rgb(0,0,0)" stroke-width="2.0"/>
<line x1="344.2" y1="98.5" x2="310.4" y2="118.0" opacity="1.0" stroke="rgb(0,0,0)" stroke-width="2.0"/>
<line x1="310.4" y1="118.0" x2="276.6" y2="98.5" opacity="1.0" stroke="rgb(0,0,0)" stroke-width="2.0"/>
<line x1="308.8" y1="108.8" x2="285.4" y2="95.3" opacity="1.0" stroke="rgb(0,0,0)" stroke-width="2.0"/>
<line x1="378.0" y1="196.1" x2="411.8" y2="215.6" opacity="1.0" stroke="rgb(0,0,0)" stroke-width="2.0"/>
<line x1="411.8" y1="215.6" x2="411.8" y2="254.6" opacity="1.0" stroke="rgb(0,0,0)" stroke-width="2.0"/>
<line x1="404.6" y1="221.6" x2="404.6" y2="248.6" opacity="1.0" stroke="rgb(0,0,0)" stroke-width="2.0"/>
<line x1="411.8" y1="254.6" x2="378.0" y2="274.1" opacity="1.0" stroke="rgb(0,0,0)" stroke-width="2.0"/>
<line x1="378.0" y1="274.1" x2="344.2" y2="254.6" opacity="1.0" stroke="rgb(0,0,0)" stroke-width="2.0"/>
<line x1="376.4" y1="264.9" x2="353.0" y2="251.4" opacity="1.0" stroke="rgb(0,0,0)" stroke-width="2.0"/>
<line x1="344.2" y1="254.6" x2="344.2" y2="215.6" opacity="1.0" stroke="rgb(0,0,0)" stroke-width="2.0"/>
<line x1="344.2" y1="215.6" x2="378.0" y2="196.1" opacity="1.0" stroke="rgb(0,0,0)" stroke-width="2.0"/>
<line x1="353.0" y1="218.8" x2="376.4" y2="205.3" opacity="1.0" stroke="rgb(0,0,0)" stroke-width="2.0"/>
<line x1="411.8" y1="332.7" x2="378.0" y2="313.2" opacity="1.0" stroke="rgb(0,0,0)" stroke-width="2.0"/>
<line x1="410.2" y1="323.4" x2="386.8" y2="309.9" opacity="1.0" stroke="rgb(0,0,0)" stroke-width="2.0"/>
<line x1="378.0" y1="313.2" x2="378.0" y2="274.1" opacity="1.0" stroke="rgb(0,0,0)" stroke-width="2.0"/>
<line x1="411.8" y1="254.6" x2="445.6" y2="274.1" opacity="1.0" stroke="rgb(0,0,0)" stroke-width="2.0"/>
<line x1="445.6" y1="274.1" x2="445.6" y2="313.2" opacity="1.0" stroke="rgb(0,0,0)" stroke-width="2.0"/>
<line x1="438.4" y1="280.1" x2="438.4" y2="307.2" opacity="1.0" stroke="rgb(0,0,0)" stroke-width="2.0"/>
<line x1="445.6" y1="313.2" x2="411.8" y2="332.7" opacity="1.0" stroke="rgb(0,0,0)" stroke-width="2.0"/>
<line x1="276.6" y1="254.6" x2="242.8" y2="274.1" opacity="1.0" stroke="rgb(0,0,0)" stroke-width="2.0"/>
<line x1="242.8" y1="274.1" x2="209.0" y2="254.6" opacity="1.0" stroke="rgb(0,0,0)" stroke-width="2.0"/>
<line x1="241.2" y1="264.9" x2="217.8" y2="251.4" opacity="1.0" stroke="rgb(0,0,0)" stroke-width="2.0"/>
<line x1="209.0" y1="254.6" x2="209.0" y2="215.6" opacity="1.0" stroke="rgb(0,0,0)" stroke-width="2.0"/>
<line x1="209.0" y1="215.6" x2="242.8" y2="196.1" opacity="1.0" stroke="rgb(0,0,0)" stroke-width="2.0"/>
<line x1="217.8" y1="218.8" x2="241.2" y2="205.3" opacity="1.0" stroke="rgb(0,0,0)" stroke-width="2.0"/>
<line x1="242.8" y1="196.1" x2="276.6" y2="215.6" opacity="1.0" stroke="rgb(0,0,0)" stroke-width="2.0"/>
<line x1="276.6" y1="215.6" x2="276.6" y2="254.6" opacity="1.0" stroke="rgb(0,0,0)" stroke-width="2.0"/>
<line x1="269.4" y1="221.6" x2="269.4" y2="248.6" opacity="1.0" stroke="rgb(0,0,0)" stroke-width="2.0"/>
<line x1="209.0" y1="137.6" x2="242.8" y2="157.1" opacity="1.0" stroke="rgb(0,0,0)" stroke-width="2.0"/>
<line x1="210.6" y1="146.8" x2="234.0" y2="160.3" opacity="1.0" stroke="rgb(0,0,0)" stroke-width="2.0"/>
<line x1="242.8" y1="157.1" x2="242.8" y2="196.1" opacity="1.0" stroke="rgb(0,0,0)" stroke-width="2.0"/>
<line x1="209.0" y1="215.6" x2="175.2" y2="196.1" opacity="1.0" stroke="rgb(0,0,0)" stroke-width="2.0"/>
<line x1="175.2" y1="196.1" x2="175.2" y2="157.1" opacity="1.0" stroke="rgb(0,0,0)" stroke-width="2.0"/>
<line x1="182.4" y1="190.1" x2="182.4" y2="163.1" opacity="1.0" stroke="rgb(0,0,0)" stroke-width="2.0"/>
<line x1="175.2" y1="157.1" x2="209.0" y2="137.6" opacity="1.0" stroke="rgb(0,0,0)" stroke-width="2.0"/>
<line x1="175.2" y1="313.2" x2="141.4" y2="332.7" opacity="1.0" stroke="rgb(0,0,0)" stroke-width="2.0"/>
<line x1="141.4" y1="332.7" x2="107.6" y2="313.2" opacity="1.0" stroke="rgb(0,0,0)" stroke-width="2.0"/>
<line x1="139.8" y1="323.4" x2="116.4" y2="309.9" opacity="1.0" stroke="rgb(0,0,0)" stroke-width="2.0"/>
<line x1="107.6" y1="313.2" x2="107.6" y2="274.1" opacity="1.0" stroke="rgb(0,0,0)" stroke-width="2.0"/>
<line x1="107.6" y1="274.1" x2="141.4" y2="254.6" opacity="1.0" stroke="rgb(0,0,0)" stroke-width="2.0"/>
<line x1="116.4" y1="277.4" x2="139.8" y2="263.9" opacity="1.0" stroke="rgb(0,0,0)" stroke-width="2.0"/>
<line x1="141.4" y1="254.6" x2="175.2" y2="274.1" opacity="1.0" stroke="rgb(0,0,0)" stroke-width="2.0"/>
<line x1="175.2" y1="274.1" x2="175.2" y2="313.2" opacity="1.0" stroke="rgb(0,0,0)" stroke-width="2.0"/>
<line x1="168.0" y1="280.1" x2="168.0" y2="307.2" opacity="1.0" stroke="rgb(0,0,0)" stroke-width="2.0"/>
<text x="34.000000" y="360.195122" fill="rgb(12,12,255)" stroke-width="0" font-weight="bold" font-size="16">N</text>
<text x="304.368907" y="204.097561" fill="rgb(12,12,255)" stroke-width="0" font-weight="bold" font-size="16">N</text>
</svg>
</g>
</svg>