<svg xmlns="http://www.w3.org/2000/svg" xmlns:xlink="http://www.w3.org/1999/xlink" xmlns:cml="http://www.xml-cml.org/schema" version="1.1" id="topsvg" x="0" y="0" viewBox="0 0 100 100">
<title>F_6_S - Open Babel Depiction</title>
<rect x="0" y="0" width="100" height="100" fill="white"/>
<g transform="translate(0,0)">
<svg width="100" height="100" x="0" y="0" viewBox="0 0 485.795 411.905" font-family="sans-serif" stroke="rgb(0,0,0)" stroke-width="2" stroke-linecap="round">
<line x1="164.0" y1="209.2" x2="141.4" y2="196.2" opacity="1.0" stroke="rgb(0,0,0)" stroke-width="2.0"/>
<line x1="175.3" y1="228.7" x2="175.3" y2="293.8" opacity="1.0" stroke="rgb(0,0,0)" stroke-width="2.0"/>
<line x1="186.5" y1="209.2" x2="209.1" y2="196.2" opacity="1.0" stroke="rgb(0,0,0)" stroke-width="2.0"/>
<line x1="378.2" y1="98.6" x2="412.0" y2="79.0" opacity="1.0" stroke="rgb(0,0,0)" stroke-width="2.0"/>
<line x1="412.0" y1="79.0" x2="434.5" y2="92.1" opacity="1.0" stroke="rgb(0,0,0)" stroke-width="2.0"/>
<line x1="409.0" y1="79.0" x2="409.0" y2="53.0" opacity="1.0" stroke="rgb(0,0,0)" stroke-width="2.0"/>
<line x1="415.0" y1="79.0" x2="415.0" y2="53.0" opacity="1.0" stroke="rgb(0,0,0)" stroke-width="2.0"/>
<line x1="276.7" y1="157.1" x2="310.5" y2="137.6" opacity="1.0" stroke="rgb(0,0,0)" stroke-width="2.0"/>
<line x1="209.1" y1="313.3" x2="209.1" y2="352.4" opacity="1.0" stroke="rgb(0,0,0)" stroke-width="2.0"/>
<line x1="209.1" y1="352.4" x2="175.3" y2="371.9" opacity="1.0" stroke="rgb(0,0,0)" stroke-width="2.0"/>
<line x1="200.3" y1="349.1" x2="176.9" y2="362.7" opacity="1.0" stroke="rgb(0,0,0)" stroke-width="2.0"/>
<line x1="175.3" y1="371.9" x2="141.4" y2="352.4" opacity="1.0" stroke="rgb(0,0,0)" stroke-width="2.0"/>
<line x1="141.4" y1="352.4" x2="141.4" y2="313.3" opacity="1.0" stroke="rgb(0,0,0)" stroke-width="2.0"/>
<line x1="148.6" y1="346.4" x2="148.6" y2="319.3" opacity="1.0" stroke="rgb(0,0,0)" stroke-width="2.0"/>
<line x1="141.4" y1="313.3" x2="175.3" y2="293.8" opacity="1.0" stroke="rgb(0,0,0)" stroke-width="2.0"/>
<line x1="175.3" y1="293.8" x2="209.1" y2="313.3" opacity="1.0" stroke="rgb(0,0,0)" stroke-width="2.0"/>
<line x1="176.9" y1="303.0" x2="200.3" y2="316.6" opacity="1.0" stroke="rgb(0,0,0)" stroke-width="2.0"/>
<line x1="107.6" y1="215.7" x2="73.8" y2="196.2" opacity="1.0" stroke="rgb(0,0,0)" stroke-width="2.0"/>
<line x1="73.8" y1="196.2" x2="73.8" y2="157.1" opacity="1.0" stroke="rgb(0,0,0)" stroke-width="2.0"/>
<line x1="81.0" y1="190.2" x2="81.0" y2="163.1" opacity="1.0" stroke="rgb(0,0,0)" stroke-width="2.0"/>
<line x1="73.8" y1="157.1" x2="107.6" y2="137.6" opacity="1.0" stroke="rgb(0,0,0)" stroke-width="2.0"/>
<line x1="107.6" y1="137.6" x2="141.4" y2="157.1" opacity="1.0" stroke="rgb(0,0,0)" stroke-width="2.0"/>
<line x1="109.2" y1="146.9" x2="132.7" y2="160.4" opacity="1.0" stroke="rgb(0,0,0)" stroke-width="2.0"/>
<line x1="141.4" y1="157.1" x2="141.4" y2="196.2" opacity="1.0" stroke="rgb(0,0,0)" stroke-width="2.0"/>
<line x1="141.4" y1="196.2" x2="107.6" y2="215.7" opacity="1.0" stroke="rgb(0,0,0)" stroke-width="2.0"/>
<line x1="132.7" y1="193.0" x2="109.2" y2="206.5" opacity="1.0" stroke="rgb(0,0,0)" stroke-width="2.0"/>
<line x1="73.8" y1="79.0" x2="107.6" y2="98.6" opacity="1.0" stroke="rgb(0,0,0)" stroke-width="2.0"/>
<line x1="75.4" y1="88.3" x2="98.8" y2="101.8" opacity="1.0" stroke="rgb(0,0,0)" stroke-width="2.0"/>
<line x1="107.6" y1="98.6" x2="107.6" y2="137.6" opacity="1.0" stroke="rgb(0,0,0)" stroke-width="2.0"/>
<line x1="73.8" y1="157.1" x2="40.0" y2="137.6" opacity="1.0" stroke="rgb(0,0,0)" stroke-width="2.0"/>
<line x1="40.0" y1="137.6" x2="40.0" y2="98.6" opacity="1.0" stroke="rgb(0,0,0)" stroke-width="2.0"/>
<line x1="47.2" y1="131.6" x2="47.2" y2="104.6" opacity="1.0" stroke="rgb(0,0,0)" stroke-width="2.0"/>
<line x1="40.0" y1="98.6" x2="73.8" y2="79.0" opacity="1.0" stroke="rgb(0,0,0)" stroke-width="2.0"/>
<line x1="209.1" y1="157.1" x2="242.9" y2="137.6" opacity="1.0" stroke="rgb(0,0,0)" stroke-width="2.0"/>
<line x1="242.9" y1="137.6" x2="276.7" y2="157.1" opacity="1.0" stroke="rgb(0,0,0)" stroke-width="2.0"/>
<line x1="244.5" y1="146.9" x2="267.9" y2="160.4" opacity="1.0" stroke="rgb(0,0,0)" stroke-width="2.0"/>
<line x1="276.7" y1="157.1" x2="276.7" y2="196.2" opacity="1.0" stroke="rgb(0,0,0)" stroke-width="2.0"/>
<line x1="276.7" y1="196.2" x2="242.9" y2="215.7" opacity="1.0" stroke="rgb(0,0,0)" stroke-width="2.0"/>
<line x1="267.9" y1="193.0" x2="244.5" y2="206.5" opacity="1.0" stroke="rgb(0,0,0)" stroke-width="2.0"/>
<line x1="242.9" y1="215.7" x2="209.1" y2="196.2" opacity="1.0" stroke="rgb(0,0,0)" stroke-width="2.0"/>
<line x1="209.1" y1="196.2" x2="209.1" y2="157.1" opacity="1.0" stroke="rgb(0,0,0)" stroke-width="2.0"/>
<line x1="216.3" y1="190.2" x2="216.3" y2="163.1" opacity="1.0" stroke="rgb(0,0,0)" stroke-width="2.0"/>
<line x1="276.7" y1="274.3" x2="242.9" y2="254.8" opacity="1.0" stroke="rgb(0,0,0)" stroke-width="2.0"/>
<line x1="275.1" y1="265.1" x2="251.7" y2="251.5" opacity="1.0" stroke="rgb(0,0,0)" stroke-width="2.0"/>
<line x1="242.9" y1="254.8" x2="242.9" y2="215.7" opacity="1.0" stroke="rgb(0,0,0)" stroke-width="2.0"/>
<line x1="276.7" y1="196.2" x2="310.5" y2="215.7" opacity="1.0" stroke="rgb(0,0,0)" stroke-width="2.0"/>
<line x1="310.5" y1="215.7" x2="310.5" y2="254.8" opacity="1.0" stroke="rgb(0,0,0)" stroke-width="2.0"/>
<line x1="303.3" y1="221.7" x2="303.3" y2="248.8" opacity="1.0" stroke="rgb(0,0,0)" stroke-width="2.0"/>
<line x1="310.5" y1="254.8" x2="276.7" y2="274.3" opacity="1.0" stroke="rgb(0,0,0)" stroke-width="2.0"/>
<line x1="310.5" y1="98.6" x2="344.3" y2="79.0" opacity="1.0" stroke="rgb(0,0,0)" stroke-width="2.0"/>
<line x1="344.3" y1="79.0" x2="378.2" y2="98.6" opacity="1.0" stroke="rgb(0,0,0)" stroke-width="2.0"/>
<line x1="345.9" y1="88.3" x2="369.4" y2="101.8" opacity="1.0" stroke="rgb(0,0,0)" stroke-width="2.0"/>
<line x1="378.2" y1="98.6" x2="378.2" y2="137.6" opacity="1.0" stroke="rgb(0,0,0)" stroke-width="2.0"/>
<line x1="378.2" y1="137.6" x2="344.3" y2="157.1" opacity="1.0" stroke="rgb(0,0,0)" stroke-width="2.0"/>
<line x1="369.4" y1="134.4" x2="345.9" y2="147.9" opacity="1.0" stroke="rgb(0,0,0)" stroke-width="2.0"/>
<line x1="344.3" y1="157.1" x2="310.5" y2="137.6" opacity="1.0" stroke="rgb(0,0,0)" stroke-width="2.0"/>
<line x1="310.5" y1="137.6" x2="310.5" y2="98.6" opacity="1.0" stroke="rgb(0,0,0)" stroke-width="2.0"/>
<line x1="317.7" y1="131.6" x2="317.7" y2="104.6" opacity="1.0" stroke="rgb(0,0,0)" stroke-width="2.0"/>
<text x="441.794761" y="106.571429" fill="rgb(102,102,102)" stroke-width="0" font-weight="bold" font-size="16">CH</text>
<text x="465.794761" y="110.251429" fill="rgb(102,102,102)" stroke-width="0" font-weight="bold" font-size="13">3</text>
<text x="405.978531" y="48.000000" fill="rgb(255,12,12)" stroke-width="0" font-weight="bold" font-size="16">O</text>
<text x="169.264920" y="223.714286" fill="rgb(12,12,255)" stroke-width="0" font-weight="bold" font-size="16">N</text>
</svg>
</g>
</svg>