<svg xmlns="http://www.w3.org/2000/svg" xmlns:xlink="http://www.w3.org/1999/xlink" xmlns:cml="http://www.xml-cml.org/schema" version="1.1" id="topsvg" x="0" y="0" viewBox="0 0 100 100">
<title>F_6_R - Open Babel Depiction</title>
<rect x="0" y="0" width="100" height="100" fill="white"/>
<g transform="translate(0,0)">
<svg width="100" height="100" x="0" y="0" viewBox="0 0 485.795 411.905" font-family="sans-serif" stroke="rgb(0,0,0)" stroke-width="2" stroke-linecap="round">
<line x1="321.8" y1="202.7" x2="344.3" y2="215.7" opacity="1.0" stroke="rgb(0,0,0)" stroke-width="2.0"/>
<line x1="310.5" y1="183.2" x2="310.5" y2="118.1" opacity="1.0" stroke="rgb(0,0,0)" stroke-width="2.0"/>
<line x1="299.3" y1="202.7" x2="276.7" y2="215.7" opacity="1.0" stroke="rgb(0,0,0)" stroke-width="2.0"/>
<line x1="76.8" y1="345.9" x2="76.8" y2="358.9" opacity="1.0" stroke="rgb(0,0,0)" stroke-width="2.0"/>
<line x1="70.8" y1="345.9" x2="70.8" y2="358.9" opacity="1.0" stroke="rgb(0,0,0)" stroke-width="2.0"/>
<line x1="62.6" y1="326.4" x2="51.3" y2="319.8" opacity="1.0" stroke="rgb(0,0,0)" stroke-width="2.0"/>
<line x1="107.6" y1="313.3" x2="85.1" y2="326.4" opacity="1.0" stroke="rgb(0,0,0)" stroke-width="2.0"/>
<line x1="209.1" y1="254.8" x2="175.3" y2="274.3" opacity="1.0" stroke="rgb(0,0,0)" stroke-width="2.0"/>
<line x1="276.7" y1="98.6" x2="276.7" y2="59.5" opacity="1.0" stroke="rgb(0,0,0)" stroke-width="2.0"/>
<line x1="276.7" y1="59.5" x2="310.5" y2="40.0" opacity="1.0" stroke="rgb(0,0,0)" stroke-width="2.0"/>
<line x1="285.5" y1="62.8" x2="308.9" y2="49.2" opacity="1.0" stroke="rgb(0,0,0)" stroke-width="2.0"/>
<line x1="310.5" y1="40.0" x2="344.3" y2="59.5" opacity="1.0" stroke="rgb(0,0,0)" stroke-width="2.0"/>
<line x1="344.3" y1="59.5" x2="344.3" y2="98.6" opacity="1.0" stroke="rgb(0,0,0)" stroke-width="2.0"/>
<line x1="337.1" y1="65.5" x2="337.1" y2="92.6" opacity="1.0" stroke="rgb(0,0,0)" stroke-width="2.0"/>
<line x1="344.3" y1="98.6" x2="310.5" y2="118.1" opacity="1.0" stroke="rgb(0,0,0)" stroke-width="2.0"/>
<line x1="310.5" y1="118.1" x2="276.7" y2="98.6" opacity="1.0" stroke="rgb(0,0,0)" stroke-width="2.0"/>
<line x1="308.9" y1="108.9" x2="285.5" y2="95.3" opacity="1.0" stroke="rgb(0,0,0)" stroke-width="2.0"/>
<line x1="378.2" y1="196.2" x2="412.0" y2="215.7" opacity="1.0" stroke="rgb(0,0,0)" stroke-width="2.0"/>
<line x1="412.0" y1="215.7" x2="412.0" y2="254.8" opacity="1.0" stroke="rgb(0,0,0)" stroke-width="2.0"/>
<line x1="404.8" y1="221.7" x2="404.8" y2="248.8" opacity="1.0" stroke="rgb(0,0,0)" stroke-width="2.0"/>
<line x1="412.0" y1="254.8" x2="378.2" y2="274.3" opacity="1.0" stroke="rgb(0,0,0)" stroke-width="2.0"/>
<line x1="378.2" y1="274.3" x2="344.3" y2="254.8" opacity="1.0" stroke="rgb(0,0,0)" stroke-width="2.0"/>
<line x1="376.6" y1="265.1" x2="353.1" y2="251.5" opacity="1.0" stroke="rgb(0,0,0)" stroke-width="2.0"/>
<line x1="344.3" y1="254.8" x2="344.3" y2="215.7" opacity="1.0" stroke="rgb(0,0,0)" stroke-width="2.0"/>
<line x1="344.3" y1="215.7" x2="378.2" y2="196.2" opacity="1.0" stroke="rgb(0,0,0)" stroke-width="2.0"/>
<line x1="353.1" y1="218.9" x2="376.6" y2="205.4" opacity="1.0" stroke="rgb(0,0,0)" stroke-width="2.0"/>
<line x1="412.0" y1="332.9" x2="378.2" y2="313.3" opacity="1.0" stroke="rgb(0,0,0)" stroke-width="2.0"/>
<line x1="410.4" y1="323.6" x2="387.0" y2="310.1" opacity="1.0" stroke="rgb(0,0,0)" stroke-width="2.0"/>
<line x1="378.2" y1="313.3" x2="378.2" y2="274.3" opacity="1.0" stroke="rgb(0,0,0)" stroke-width="2.0"/>
<line x1="412.0" y1="254.8" x2="445.8" y2="274.3" opacity="1.0" stroke="rgb(0,0,0)" stroke-width="2.0"/>
<line x1="445.8" y1="274.3" x2="445.8" y2="313.3" opacity="1.0" stroke="rgb(0,0,0)" stroke-width="2.0"/>
<line x1="438.6" y1="280.3" x2="438.6" y2="307.3" opacity="1.0" stroke="rgb(0,0,0)" stroke-width="2.0"/>
<line x1="445.8" y1="313.3" x2="412.0" y2="332.9" opacity="1.0" stroke="rgb(0,0,0)" stroke-width="2.0"/>
<line x1="276.7" y1="254.8" x2="242.9" y2="274.3" opacity="1.0" stroke="rgb(0,0,0)" stroke-width="2.0"/>
<line x1="242.9" y1="274.3" x2="209.1" y2="254.8" opacity="1.0" stroke="rgb(0,0,0)" stroke-width="2.0"/>
<line x1="241.3" y1="265.1" x2="217.9" y2="251.5" opacity="1.0" stroke="rgb(0,0,0)" stroke-width="2.0"/>
<line x1="209.1" y1="254.8" x2="209.1" y2="215.7" opacity="1.0" stroke="rgb(0,0,0)" stroke-width="2.0"/>
<line x1="209.1" y1="215.7" x2="242.9" y2="196.2" opacity="1.0" stroke="rgb(0,0,0)" stroke-width="2.0"/>
<line x1="217.9" y1="218.9" x2="241.3" y2="205.4" opacity="1.0" stroke="rgb(0,0,0)" stroke-width="2.0"/>
<line x1="242.9" y1="196.2" x2="276.7" y2="215.7" opacity="1.0" stroke="rgb(0,0,0)" stroke-width="2.0"/>
<line x1="276.7" y1="215.7" x2="276.7" y2="254.8" opacity="1.0" stroke="rgb(0,0,0)" stroke-width="2.0"/>
<line x1="269.5" y1="221.7" x2="269.5" y2="248.8" opacity="1.0" stroke="rgb(0,0,0)" stroke-width="2.0"/>
<line x1="209.1" y1="137.6" x2="242.9" y2="157.1" opacity="1.0" stroke="rgb(0,0,0)" stroke-width="2.0"/>
<line x1="210.7" y1="146.9" x2="234.1" y2="160.4" opacity="1.0" stroke="rgb(0,0,0)" stroke-width="2.0"/>
<line x1="242.9" y1="157.1" x2="242.9" y2="196.2" opacity="1.0" stroke="rgb(0,0,0)" stroke-width="2.0"/>
<line x1="209.1" y1="215.7" x2="175.3" y2="196.2" opacity="1.0" stroke="rgb(0,0,0)" stroke-width="2.0"/>
<line x1="175.3" y1="196.2" x2="175.3" y2="157.1" opacity="1.0" stroke="rgb(0,0,0)" stroke-width="2.0"/>
<line x1="182.5" y1="190.2" x2="182.5" y2="163.1" opacity="1.0" stroke="rgb(0,0,0)" stroke-width="2.0"/>
<line x1="175.3" y1="157.1" x2="209.1" y2="137.6" opacity="1.0" stroke="rgb(0,0,0)" stroke-width="2.0"/>
<line x1="130.2" y1="261.3" x2="107.6" y2="274.3" opacity="1.0" stroke="rgb(0,0,0)" stroke-width="2.0"/>
<line x1="107.6" y1="274.3" x2="107.6" y2="313.3" opacity="1.0" stroke="rgb(0,0,0)" stroke-width="2.0"/>
<line x1="114.8" y1="280.3" x2="114.8" y2="307.3" opacity="1.0" stroke="rgb(0,0,0)" stroke-width="2.0"/>
<line x1="107.6" y1="313.3" x2="141.4" y2="332.9" opacity="1.0" stroke="rgb(0,0,0)" stroke-width="2.0"/>
<line x1="141.4" y1="332.9" x2="175.3" y2="313.3" opacity="1.0" stroke="rgb(0,0,0)" stroke-width="2.0"/>
<line x1="143.0" y1="323.6" x2="166.5" y2="310.1" opacity="1.0" stroke="rgb(0,0,0)" stroke-width="2.0"/>
<line x1="175.3" y1="313.3" x2="175.3" y2="274.3" opacity="1.0" stroke="rgb(0,0,0)" stroke-width="2.0"/>
<line x1="175.3" y1="274.3" x2="152.6" y2="261.2" opacity="1.0" stroke="rgb(0,0,0)" stroke-width="2.0"/>
<line x1="166.5" y1="277.5" x2="150.8" y2="268.5" opacity="1.0" stroke="rgb(0,0,0)" stroke-width="2.0"/>
<text x="135.448690" y="262.761905" fill="rgb(12,12,255)" stroke-width="0" font-weight="bold" font-size="16">N</text>
<text x="67.816230" y="340.857143" fill="rgb(12,12,255)" stroke-width="0" font-weight="bold" font-size="16">N</text>
<text x="67.816230" y="379.904762" fill="rgb(255,12,12)" stroke-width="0" font-weight="bold" font-size="16">O</text>
<text x="44.800000" y="309.301333" fill="rgb(255,12,12)" stroke-width="0" font-weight="bold" font-size="16"/>
<text x="44.800000" y="309.301333" fill="rgb(255,12,12)" stroke-width="0" font-weight="bold" font-size="32">.</text>
<text x="34.000000" y="321.333333" fill="rgb(255,12,12)" stroke-width="0" font-weight="bold" font-size="16">O</text>
<text x="304.529840" y="204.190476" fill="rgb(12,12,255)" stroke-width="0" font-weight="bold" font-size="16">N</text>
</svg>
</g>
</svg>