<svg xmlns="http://www.w3.org/2000/svg" x="0" y="0" viewBox="0 0 100 100">
<title>F_7_N - Open Babel Depiction</title>
<rect x="0" y="0" width="100" height="100" fill="white"/>
<g transform="translate(0,0)">
<svg width="100" height="100" x="0" y="0" viewBox="0 0 455.076 388.097" font-family="sans-serif" stroke="rgb(0,0,0)" stroke-width="2" stroke-linecap="round">
<line x1="287.8" y1="166.5" x2="311.2" y2="180.0" opacity="1.0" stroke="rgb(0,0,0)" stroke-width="2.0"/>
<line x1="276.5" y1="147.0" x2="276.5" y2="120.0" opacity="1.0" stroke="rgb(0,0,0)" stroke-width="2.0"/>
<line x1="172.6" y1="220.0" x2="137.9" y2="240.0" opacity="1.0" stroke="rgb(0,0,0)" stroke-width="2.0"/>
<line x1="140.9" y1="240.0" x2="140.9" y2="280.0" opacity="1.0" stroke="rgb(0,0,0)" stroke-width="2.0"/>
<line x1="134.9" y1="240.0" x2="134.9" y2="280.0" opacity="1.0" stroke="rgb(0,0,0)" stroke-width="2.0"/>
<line x1="265.3" y1="166.5" x2="241.9" y2="180.0" opacity="1.0" stroke="rgb(0,0,0)" stroke-width="2.0"/>
<line x1="137.9" y1="280.0" x2="103.3" y2="300.0" opacity="1.0" stroke="rgb(0,0,0)" stroke-width="2.0"/>
<line x1="66.8" y1="283.7" x2="48.7" y2="303.8" opacity="1.0" stroke="rgb(0,0,0)" stroke-width="2.0"/>
<line x1="46.5" y1="324.7" x2="60.0" y2="348.1" opacity="1.0" stroke="rgb(0,0,0)" stroke-width="2.0"/>
<line x1="60.0" y1="348.1" x2="99.1" y2="339.8" opacity="1.0" stroke="rgb(0,0,0)" stroke-width="2.0"/>
<line x1="64.4" y1="339.8" x2="91.8" y2="334.0" opacity="1.0" stroke="rgb(0,0,0)" stroke-width="2.0"/>
<line x1="99.1" y1="339.8" x2="103.3" y2="300.0" opacity="1.0" stroke="rgb(0,0,0)" stroke-width="2.0"/>
<line x1="103.3" y1="300.0" x2="66.8" y2="283.7" opacity="1.0" stroke="rgb(0,0,0)" stroke-width="2.0"/>
<line x1="94.9" y1="304.1" x2="69.3" y2="292.7" opacity="1.0" stroke="rgb(0,0,0)" stroke-width="2.0"/>
<line x1="241.9" y1="100.0" x2="241.9" y2="60.0" opacity="1.0" stroke="rgb(0,0,0)" stroke-width="2.0"/>
<line x1="241.9" y1="60.0" x2="276.5" y2="40.0" opacity="1.0" stroke="rgb(0,0,0)" stroke-width="2.0"/>
<line x1="250.7" y1="63.2" x2="274.9" y2="49.2" opacity="1.0" stroke="rgb(0,0,0)" stroke-width="2.0"/>
<line x1="276.5" y1="40.0" x2="311.2" y2="60.0" opacity="1.0" stroke="rgb(0,0,0)" stroke-width="2.0"/>
<line x1="311.2" y1="60.0" x2="311.2" y2="100.0" opacity="1.0" stroke="rgb(0,0,0)" stroke-width="2.0"/>
<line x1="304.0" y1="66.0" x2="304.0" y2="94.0" opacity="1.0" stroke="rgb(0,0,0)" stroke-width="2.0"/>
<line x1="311.2" y1="100.0" x2="276.5" y2="120.0" opacity="1.0" stroke="rgb(0,0,0)" stroke-width="2.0"/>
<line x1="276.5" y1="120.0" x2="241.9" y2="100.0" opacity="1.0" stroke="rgb(0,0,0)" stroke-width="2.0"/>
<line x1="274.9" y1="110.8" x2="250.7" y2="96.8" opacity="1.0" stroke="rgb(0,0,0)" stroke-width="2.0"/>
<line x1="345.8" y1="160.0" x2="380.4" y2="180.0" opacity="1.0" stroke="rgb(0,0,0)" stroke-width="2.0"/>
<line x1="380.4" y1="180.0" x2="380.4" y2="220.0" opacity="1.0" stroke="rgb(0,0,0)" stroke-width="2.0"/>
<line x1="373.2" y1="186.0" x2="373.2" y2="214.0" opacity="1.0" stroke="rgb(0,0,0)" stroke-width="2.0"/>
<line x1="380.4" y1="220.0" x2="345.8" y2="240.0" opacity="1.0" stroke="rgb(0,0,0)" stroke-width="2.0"/>
<line x1="345.8" y1="240.0" x2="311.2" y2="220.0" opacity="1.0" stroke="rgb(0,0,0)" stroke-width="2.0"/>
<line x1="344.2" y1="230.8" x2="319.9" y2="216.8" opacity="1.0" stroke="rgb(0,0,0)" stroke-width="2.0"/>
<line x1="311.2" y1="220.0" x2="311.2" y2="180.0" opacity="1.0" stroke="rgb(0,0,0)" stroke-width="2.0"/>
<line x1="311.2" y1="180.0" x2="345.8" y2="160.0" opacity="1.0" stroke="rgb(0,0,0)" stroke-width="2.0"/>
<line x1="319.9" y1="183.2" x2="344.2" y2="169.2" opacity="1.0" stroke="rgb(0,0,0)" stroke-width="2.0"/>
<line x1="380.4" y1="300.0" x2="345.8" y2="280.0" opacity="1.0" stroke="rgb(0,0,0)" stroke-width="2.0"/>
<line x1="378.8" y1="290.8" x2="354.6" y2="276.8" opacity="1.0" stroke="rgb(0,0,0)" stroke-width="2.0"/>
<line x1="345.8" y1="280.0" x2="345.8" y2="240.0" opacity="1.0" stroke="rgb(0,0,0)" stroke-width="2.0"/>
<line x1="380.4" y1="220.0" x2="415.1" y2="240.0" opacity="1.0" stroke="rgb(0,0,0)" stroke-width="2.0"/>
<line x1="415.1" y1="240.0" x2="415.1" y2="280.0" opacity="1.0" stroke="rgb(0,0,0)" stroke-width="2.0"/>
<line x1="407.9" y1="246.0" x2="407.9" y2="274.0" opacity="1.0" stroke="rgb(0,0,0)" stroke-width="2.0"/>
<line x1="415.1" y1="280.0" x2="380.4" y2="300.0" opacity="1.0" stroke="rgb(0,0,0)" stroke-width="2.0"/>
<line x1="241.9" y1="220.0" x2="207.2" y2="240.0" opacity="1.0" stroke="rgb(0,0,0)" stroke-width="2.0"/>
<line x1="207.2" y1="240.0" x2="172.6" y2="220.0" opacity="1.0" stroke="rgb(0,0,0)" stroke-width="2.0"/>
<line x1="205.6" y1="230.8" x2="181.4" y2="216.8" opacity="1.0" stroke="rgb(0,0,0)" stroke-width="2.0"/>
<line x1="172.6" y1="220.0" x2="172.6" y2="180.0" opacity="1.0" stroke="rgb(0,0,0)" stroke-width="2.0"/>
<line x1="172.6" y1="180.0" x2="207.2" y2="160.0" opacity="1.0" stroke="rgb(0,0,0)" stroke-width="2.0"/>
<line x1="181.4" y1="183.2" x2="205.6" y2="169.2" opacity="1.0" stroke="rgb(0,0,0)" stroke-width="2.0"/>
<line x1="207.2" y1="160.0" x2="241.9" y2="180.0" opacity="1.0" stroke="rgb(0,0,0)" stroke-width="2.0"/>
<line x1="241.9" y1="180.0" x2="241.9" y2="220.0" opacity="1.0" stroke="rgb(0,0,0)" stroke-width="2.0"/>
<line x1="234.7" y1="186.0" x2="234.7" y2="214.0" opacity="1.0" stroke="rgb(0,0,0)" stroke-width="2.0"/>
<text x="34.000000" y="321.456327" fill="rgb(178,178,0)" stroke-width="0" font-weight="bold" font-size="16">S</text>
<text x="270.512123" y="168.000000" fill="rgb(12,12,255)" stroke-width="0" font-weight="bold" font-size="16">N</text>
</svg>
</g>
</svg>
