<svg xmlns="http://www.w3.org/2000/svg" xmlns:xlink="http://www.w3.org/1999/xlink" xmlns:cml="http://www.xml-cml.org/schema" version="1.1" id="topsvg" x="0" y="0" viewBox="0 0 100 100">
<title>F_8_P - Open Babel Depiction</title>
<rect x="0" y="0" width="100" height="100" fill="white"/>
<g transform="translate(0,0)">
<svg width="100" height="100" x="0" y="0" viewBox="0 0 461.051 380" font-family="sans-serif" stroke="rgb(0,0,0)" stroke-width="2" stroke-linecap="round">
<line x1="293.7" y1="166.5" x2="317.1" y2="180.0" opacity="1.0" stroke="rgb(0,0,0)" stroke-width="2.0"/>
<line x1="282.5" y1="147.0" x2="282.5" y2="120.0" opacity="1.0" stroke="rgb(0,0,0)" stroke-width="2.0"/>
<line x1="271.2" y1="166.5" x2="247.8" y2="180.0" opacity="1.0" stroke="rgb(0,0,0)" stroke-width="2.0"/>
<line x1="40.0" y1="313.0" x2="40.0" y2="327.0" opacity="1.0" stroke="rgb(0,0,0)" stroke-width="2.0"/>
<line x1="74.6" y1="280.0" x2="51.3" y2="293.5" opacity="1.0" stroke="rgb(0,0,0)" stroke-width="2.0"/>
<line x1="178.6" y1="220.0" x2="143.9" y2="240.0" opacity="1.0" stroke="rgb(0,0,0)" stroke-width="2.0"/>
<line x1="266.6" y1="271.4" x2="272.3" y2="258.6" opacity="1.0" stroke="rgb(0,0,0)" stroke-width="2.0"/>
<line x1="267.8" y1="237.9" x2="247.8" y2="220.0" opacity="1.0" stroke="rgb(0,0,0)" stroke-width="2.0"/>
<line x1="261.5" y1="241.9" x2="247.5" y2="229.4" opacity="1.0" stroke="rgb(0,0,0)" stroke-width="2.0"/>
<line x1="247.8" y1="220.0" x2="213.2" y2="240.0" opacity="1.0" stroke="rgb(0,0,0)" stroke-width="2.0"/>
<line x1="213.2" y1="240.0" x2="218.8" y2="266.2" opacity="1.0" stroke="rgb(0,0,0)" stroke-width="2.0"/>
<line x1="221.5" y1="244.4" x2="225.4" y2="262.8" opacity="1.0" stroke="rgb(0,0,0)" stroke-width="2.0"/>
<line x1="234.5" y1="280.5" x2="248.4" y2="281.9" opacity="1.0" stroke="rgb(0,0,0)" stroke-width="2.0"/>
<line x1="247.8" y1="100.0" x2="247.8" y2="60.0" opacity="1.0" stroke="rgb(0,0,0)" stroke-width="2.0"/>
<line x1="247.8" y1="60.0" x2="282.5" y2="40.0" opacity="1.0" stroke="rgb(0,0,0)" stroke-width="2.0"/>
<line x1="256.6" y1="63.2" x2="280.9" y2="49.2" opacity="1.0" stroke="rgb(0,0,0)" stroke-width="2.0"/>
<line x1="282.5" y1="40.0" x2="317.1" y2="60.0" opacity="1.0" stroke="rgb(0,0,0)" stroke-width="2.0"/>
<line x1="317.1" y1="60.0" x2="317.1" y2="100.0" opacity="1.0" stroke="rgb(0,0,0)" stroke-width="2.0"/>
<line x1="309.9" y1="66.0" x2="309.9" y2="94.0" opacity="1.0" stroke="rgb(0,0,0)" stroke-width="2.0"/>
<line x1="317.1" y1="100.0" x2="282.5" y2="120.0" opacity="1.0" stroke="rgb(0,0,0)" stroke-width="2.0"/>
<line x1="282.5" y1="120.0" x2="247.8" y2="100.0" opacity="1.0" stroke="rgb(0,0,0)" stroke-width="2.0"/>
<line x1="280.9" y1="110.8" x2="256.6" y2="96.8" opacity="1.0" stroke="rgb(0,0,0)" stroke-width="2.0"/>
<line x1="351.8" y1="160.0" x2="386.4" y2="180.0" opacity="1.0" stroke="rgb(0,0,0)" stroke-width="2.0"/>
<line x1="386.4" y1="180.0" x2="386.4" y2="220.0" opacity="1.0" stroke="rgb(0,0,0)" stroke-width="2.0"/>
<line x1="379.2" y1="186.0" x2="379.2" y2="214.0" opacity="1.0" stroke="rgb(0,0,0)" stroke-width="2.0"/>
<line x1="386.4" y1="220.0" x2="351.8" y2="240.0" opacity="1.0" stroke="rgb(0,0,0)" stroke-width="2.0"/>
<line x1="351.8" y1="240.0" x2="317.1" y2="220.0" opacity="1.0" stroke="rgb(0,0,0)" stroke-width="2.0"/>
<line x1="350.2" y1="230.8" x2="325.9" y2="216.8" opacity="1.0" stroke="rgb(0,0,0)" stroke-width="2.0"/>
<line x1="317.1" y1="220.0" x2="317.1" y2="180.0" opacity="1.0" stroke="rgb(0,0,0)" stroke-width="2.0"/>
<line x1="317.1" y1="180.0" x2="351.8" y2="160.0" opacity="1.0" stroke="rgb(0,0,0)" stroke-width="2.0"/>
<line x1="325.9" y1="183.2" x2="350.2" y2="169.2" opacity="1.0" stroke="rgb(0,0,0)" stroke-width="2.0"/>
<line x1="386.4" y1="300.0" x2="351.8" y2="280.0" opacity="1.0" stroke="rgb(0,0,0)" stroke-width="2.0"/>
<line x1="384.8" y1="290.8" x2="360.6" y2="276.8" opacity="1.0" stroke="rgb(0,0,0)" stroke-width="2.0"/>
<line x1="351.8" y1="280.0" x2="351.8" y2="240.0" opacity="1.0" stroke="rgb(0,0,0)" stroke-width="2.0"/>
<line x1="386.4" y1="220.0" x2="421.1" y2="240.0" opacity="1.0" stroke="rgb(0,0,0)" stroke-width="2.0"/>
<line x1="421.1" y1="240.0" x2="421.1" y2="280.0" opacity="1.0" stroke="rgb(0,0,0)" stroke-width="2.0"/>
<line x1="413.9" y1="246.0" x2="413.9" y2="274.0" opacity="1.0" stroke="rgb(0,0,0)" stroke-width="2.0"/>
<line x1="421.1" y1="280.0" x2="386.4" y2="300.0" opacity="1.0" stroke="rgb(0,0,0)" stroke-width="2.0"/>
<line x1="213.2" y1="160.0" x2="178.6" y2="180.0" opacity="1.0" stroke="rgb(0,0,0)" stroke-width="2.0"/>
<line x1="178.6" y1="180.0" x2="178.6" y2="220.0" opacity="1.0" stroke="rgb(0,0,0)" stroke-width="2.0"/>
<line x1="185.8" y1="186.0" x2="185.8" y2="214.0" opacity="1.0" stroke="rgb(0,0,0)" stroke-width="2.0"/>
<line x1="178.6" y1="220.0" x2="213.2" y2="240.0" opacity="1.0" stroke="rgb(0,0,0)" stroke-width="2.0"/>
<line x1="247.8" y1="220.0" x2="247.8" y2="180.0" opacity="1.0" stroke="rgb(0,0,0)" stroke-width="2.0"/>
<line x1="247.8" y1="180.0" x2="213.2" y2="160.0" opacity="1.0" stroke="rgb(0,0,0)" stroke-width="2.0"/>
<line x1="239.0" y1="183.2" x2="214.8" y2="169.2" opacity="1.0" stroke="rgb(0,0,0)" stroke-width="2.0"/>
<line x1="143.9" y1="280.0" x2="109.3" y2="300.0" opacity="1.0" stroke="rgb(0,0,0)" stroke-width="2.0"/>
<line x1="109.3" y1="300.0" x2="74.6" y2="280.0" opacity="1.0" stroke="rgb(0,0,0)" stroke-width="2.0"/>
<line x1="107.7" y1="290.8" x2="83.4" y2="276.8" opacity="1.0" stroke="rgb(0,0,0)" stroke-width="2.0"/>
<line x1="74.6" y1="280.0" x2="74.6" y2="240.0" opacity="1.0" stroke="rgb(0,0,0)" stroke-width="2.0"/>
<line x1="74.6" y1="240.0" x2="109.3" y2="220.0" opacity="1.0" stroke="rgb(0,0,0)" stroke-width="2.0"/>
<line x1="83.4" y1="243.2" x2="107.7" y2="229.2" opacity="1.0" stroke="rgb(0,0,0)" stroke-width="2.0"/>
<line x1="109.3" y1="220.0" x2="143.9" y2="240.0" opacity="1.0" stroke="rgb(0,0,0)" stroke-width="2.0"/>
<line x1="143.9" y1="240.0" x2="143.9" y2="280.0" opacity="1.0" stroke="rgb(0,0,0)" stroke-width="2.0"/>
<line x1="136.7" y1="246.0" x2="136.7" y2="274.0" opacity="1.0" stroke="rgb(0,0,0)" stroke-width="2.0"/>
<text x="215.521548" y="287.125904" fill="rgb(12,12,255)" stroke-width="0" font-weight="bold" font-size="16">N</text>
<text x="255.302424" y="291.307043" fill="rgb(178,178,0)" stroke-width="0" font-weight="bold" font-size="16">S</text>
<text x="271.571890" y="254.765224" fill="rgb(12,12,255)" stroke-width="0" font-weight="bold" font-size="16">N</text>
<text x="34.000000" y="308.000000" fill="rgb(255,12,12)" stroke-width="0" font-weight="bold" font-size="16">O</text>
<text x="36.000000" y="348.000000" fill="rgb(102,102,102)" stroke-width="0" font-weight="bold" font-size="16">CH</text>
<text x="60.000000" y="351.680000" fill="rgb(102,102,102)" stroke-width="0" font-weight="bold" font-size="13">3</text>
<text x="276.487113" y="168.000000" fill="rgb(12,12,255)" stroke-width="0" font-weight="bold" font-size="16">N</text>
</svg>
</g>
</svg>