<svg xmlns="http://www.w3.org/2000/svg" xmlns:xlink="http://www.w3.org/1999/xlink" xmlns:cml="http://www.xml-cml.org/schema" version="1.1" id="topsvg" x="0" y="0" viewBox="0 0 100 100">
<title>F_8_L - Open Babel Depiction</title>
<rect x="0" y="0" width="100" height="100" fill="white"/>
<g transform="translate(0,0)">
<svg width="100" height="100" x="0" y="0" viewBox="0 0 487.964 340" font-family="sans-serif" stroke="rgb(0,0,0)" stroke-width="2" stroke-linecap="round">
<line x1="167.3" y1="173.5" x2="143.9" y2="160.0" opacity="1.0" stroke="rgb(0,0,0)" stroke-width="2.0"/>
<line x1="178.6" y1="193.0" x2="178.6" y2="220.0" opacity="1.0" stroke="rgb(0,0,0)" stroke-width="2.0"/>
<line x1="189.8" y1="173.5" x2="213.2" y2="160.0" opacity="1.0" stroke="rgb(0,0,0)" stroke-width="2.0"/>
<line x1="282.5" y1="120.0" x2="317.1" y2="100.0" opacity="1.0" stroke="rgb(0,0,0)" stroke-width="2.0"/>
<line x1="194.5" y1="68.6" x2="188.8" y2="81.4" opacity="1.0" stroke="rgb(0,0,0)" stroke-width="2.0"/>
<line x1="193.3" y1="102.1" x2="213.2" y2="120.0" opacity="1.0" stroke="rgb(0,0,0)" stroke-width="2.0"/>
<line x1="199.6" y1="98.1" x2="213.6" y2="110.6" opacity="1.0" stroke="rgb(0,0,0)" stroke-width="2.0"/>
<line x1="213.2" y1="120.0" x2="247.8" y2="100.0" opacity="1.0" stroke="rgb(0,0,0)" stroke-width="2.0"/>
<line x1="247.8" y1="100.0" x2="242.3" y2="73.8" opacity="1.0" stroke="rgb(0,0,0)" stroke-width="2.0"/>
<line x1="239.6" y1="95.6" x2="235.6" y2="77.2" opacity="1.0" stroke="rgb(0,0,0)" stroke-width="2.0"/>
<line x1="226.6" y1="59.5" x2="212.7" y2="58.1" opacity="1.0" stroke="rgb(0,0,0)" stroke-width="2.0"/>
<line x1="448.0" y1="80.0" x2="424.5" y2="112.4" opacity="1.0" stroke="rgb(0,0,0)" stroke-width="2.0"/>
<line x1="438.6" y1="80.6" x2="422.2" y2="103.3" opacity="1.0" stroke="rgb(0,0,0)" stroke-width="2.0"/>
<line x1="424.5" y1="112.4" x2="386.4" y2="100.0" opacity="1.0" stroke="rgb(0,0,0)" stroke-width="2.0"/>
<line x1="386.4" y1="100.0" x2="386.4" y2="60.0" opacity="1.0" stroke="rgb(0,0,0)" stroke-width="2.0"/>
<line x1="386.4" y1="60.0" x2="412.1" y2="51.7" opacity="1.0" stroke="rgb(0,0,0)" stroke-width="2.0"/>
<line x1="432.1" y1="58.2" x2="448.0" y2="80.0" opacity="1.0" stroke="rgb(0,0,0)" stroke-width="2.0"/>
<line x1="213.2" y1="240.0" x2="213.2" y2="280.0" opacity="1.0" stroke="rgb(0,0,0)" stroke-width="2.0"/>
<line x1="213.2" y1="280.0" x2="178.6" y2="300.0" opacity="1.0" stroke="rgb(0,0,0)" stroke-width="2.0"/>
<line x1="204.4" y1="276.8" x2="180.2" y2="290.8" opacity="1.0" stroke="rgb(0,0,0)" stroke-width="2.0"/>
<line x1="178.6" y1="300.0" x2="143.9" y2="280.0" opacity="1.0" stroke="rgb(0,0,0)" stroke-width="2.0"/>
<line x1="143.9" y1="280.0" x2="143.9" y2="240.0" opacity="1.0" stroke="rgb(0,0,0)" stroke-width="2.0"/>
<line x1="151.1" y1="274.0" x2="151.1" y2="246.0" opacity="1.0" stroke="rgb(0,0,0)" stroke-width="2.0"/>
<line x1="143.9" y1="240.0" x2="178.6" y2="220.0" opacity="1.0" stroke="rgb(0,0,0)" stroke-width="2.0"/>
<line x1="178.6" y1="220.0" x2="213.2" y2="240.0" opacity="1.0" stroke="rgb(0,0,0)" stroke-width="2.0"/>
<line x1="180.2" y1="229.2" x2="204.4" y2="243.2" opacity="1.0" stroke="rgb(0,0,0)" stroke-width="2.0"/>
<line x1="109.3" y1="180.0" x2="74.6" y2="160.0" opacity="1.0" stroke="rgb(0,0,0)" stroke-width="2.0"/>
<line x1="74.6" y1="160.0" x2="74.6" y2="120.0" opacity="1.0" stroke="rgb(0,0,0)" stroke-width="2.0"/>
<line x1="81.8" y1="154.0" x2="81.8" y2="126.0" opacity="1.0" stroke="rgb(0,0,0)" stroke-width="2.0"/>
<line x1="74.6" y1="120.0" x2="109.3" y2="100.0" opacity="1.0" stroke="rgb(0,0,0)" stroke-width="2.0"/>
<line x1="109.3" y1="100.0" x2="143.9" y2="120.0" opacity="1.0" stroke="rgb(0,0,0)" stroke-width="2.0"/>
<line x1="110.9" y1="109.2" x2="135.1" y2="123.2" opacity="1.0" stroke="rgb(0,0,0)" stroke-width="2.0"/>
<line x1="143.9" y1="120.0" x2="143.9" y2="160.0" opacity="1.0" stroke="rgb(0,0,0)" stroke-width="2.0"/>
<line x1="143.9" y1="160.0" x2="109.3" y2="180.0" opacity="1.0" stroke="rgb(0,0,0)" stroke-width="2.0"/>
<line x1="135.1" y1="156.8" x2="110.9" y2="170.8" opacity="1.0" stroke="rgb(0,0,0)" stroke-width="2.0"/>
<line x1="74.6" y1="40.0" x2="109.3" y2="60.0" opacity="1.0" stroke="rgb(0,0,0)" stroke-width="2.0"/>
<line x1="76.2" y1="49.2" x2="100.5" y2="63.2" opacity="1.0" stroke="rgb(0,0,0)" stroke-width="2.0"/>
<line x1="109.3" y1="60.0" x2="109.3" y2="100.0" opacity="1.0" stroke="rgb(0,0,0)" stroke-width="2.0"/>
<line x1="74.6" y1="120.0" x2="40.0" y2="100.0" opacity="1.0" stroke="rgb(0,0,0)" stroke-width="2.0"/>
<line x1="40.0" y1="100.0" x2="40.0" y2="60.0" opacity="1.0" stroke="rgb(0,0,0)" stroke-width="2.0"/>
<line x1="47.2" y1="94.0" x2="47.2" y2="66.0" opacity="1.0" stroke="rgb(0,0,0)" stroke-width="2.0"/>
<line x1="40.0" y1="60.0" x2="74.6" y2="40.0" opacity="1.0" stroke="rgb(0,0,0)" stroke-width="2.0"/>
<line x1="247.8" y1="180.0" x2="282.5" y2="160.0" opacity="1.0" stroke="rgb(0,0,0)" stroke-width="2.0"/>
<line x1="282.5" y1="160.0" x2="282.5" y2="120.0" opacity="1.0" stroke="rgb(0,0,0)" stroke-width="2.0"/>
<line x1="275.3" y1="154.0" x2="275.3" y2="126.0" opacity="1.0" stroke="rgb(0,0,0)" stroke-width="2.0"/>
<line x1="282.5" y1="120.0" x2="247.8" y2="100.0" opacity="1.0" stroke="rgb(0,0,0)" stroke-width="2.0"/>
<line x1="213.2" y1="120.0" x2="213.2" y2="160.0" opacity="1.0" stroke="rgb(0,0,0)" stroke-width="2.0"/>
<line x1="213.2" y1="160.0" x2="247.8" y2="180.0" opacity="1.0" stroke="rgb(0,0,0)" stroke-width="2.0"/>
<line x1="222.0" y1="156.8" x2="246.2" y2="170.8" opacity="1.0" stroke="rgb(0,0,0)" stroke-width="2.0"/>
<line x1="317.1" y1="60.0" x2="351.8" y2="40.0" opacity="1.0" stroke="rgb(0,0,0)" stroke-width="2.0"/>
<line x1="351.8" y1="40.0" x2="386.4" y2="60.0" opacity="1.0" stroke="rgb(0,0,0)" stroke-width="2.0"/>
<line x1="353.4" y1="49.2" x2="377.6" y2="63.2" opacity="1.0" stroke="rgb(0,0,0)" stroke-width="2.0"/>
<line x1="386.4" y1="100.0" x2="351.8" y2="120.0" opacity="1.0" stroke="rgb(0,0,0)" stroke-width="2.0"/>
<line x1="377.6" y1="96.8" x2="353.4" y2="110.8" opacity="1.0" stroke="rgb(0,0,0)" stroke-width="2.0"/>
<line x1="351.8" y1="120.0" x2="317.1" y2="100.0" opacity="1.0" stroke="rgb(0,0,0)" stroke-width="2.0"/>
<line x1="317.1" y1="100.0" x2="317.1" y2="60.0" opacity="1.0" stroke="rgb(0,0,0)" stroke-width="2.0"/>
<line x1="324.3" y1="94.0" x2="324.3" y2="66.0" opacity="1.0" stroke="rgb(0,0,0)" stroke-width="2.0"/>
<text x="233.529629" y="68.874096" fill="rgb(12,12,255)" stroke-width="0" font-weight="bold" font-size="16">N</text>
<text x="193.748753" y="64.692957" fill="rgb(178,178,0)" stroke-width="0" font-weight="bold" font-size="16">S</text>
<text x="177.479288" y="101.234776" fill="rgb(12,12,255)" stroke-width="0" font-weight="bold" font-size="16">N</text>
<text x="418.452422" y="55.639320" fill="rgb(12,12,255)" stroke-width="0" font-weight="bold" font-size="16">N</text>
<text x="418.452422" y="39.639320" fill="rgb(12,12,255)" stroke-width="0" font-weight="bold" font-size="16">H</text>
<text x="172.564065" y="188.000000" fill="rgb(12,12,255)" stroke-width="0" font-weight="bold" font-size="16">N</text>
</svg>
</g>
</svg>