<svg xmlns="http://www.w3.org/2000/svg" x="0" y="0" viewBox="0 0 100 100">
<title>F_8_R - Open Babel Depiction</title>
<rect x="0" y="0" width="100" height="100" fill="white"/>
<g transform="translate(0,0)">
<svg width="100" height="100" x="0" y="0" viewBox="0 0 495.692 380" font-family="sans-serif" stroke="rgb(0,0,0)" stroke-width="2" stroke-linecap="round">
<line x1="167.3" y1="213.5" x2="143.9" y2="200.0" opacity="1.0" stroke="rgb(0,0,0)" stroke-width="2.0"/>
<line x1="178.6" y1="233.0" x2="178.6" y2="260.0" opacity="1.0" stroke="rgb(0,0,0)" stroke-width="2.0"/>
<line x1="189.8" y1="213.5" x2="213.2" y2="200.0" opacity="1.0" stroke="rgb(0,0,0)" stroke-width="2.0"/>
<line x1="433.8" y1="83.9" x2="445.9" y2="90.9" opacity="1.0" stroke="rgb(0,0,0)" stroke-width="2.0"/>
<line x1="430.8" y1="89.1" x2="442.9" y2="96.1" opacity="1.0" stroke="rgb(0,0,0)" stroke-width="2.0"/>
<line x1="421.1" y1="67.0" x2="421.1" y2="53.0" opacity="1.0" stroke="rgb(0,0,0)" stroke-width="2.0"/>
<line x1="386.4" y1="100.0" x2="409.8" y2="86.5" opacity="1.0" stroke="rgb(0,0,0)" stroke-width="2.0"/>
<line x1="282.5" y1="160.0" x2="317.1" y2="140.0" opacity="1.0" stroke="rgb(0,0,0)" stroke-width="2.0"/>
<line x1="194.5" y1="108.6" x2="188.8" y2="121.4" opacity="1.0" stroke="rgb(0,0,0)" stroke-width="2.0"/>
<line x1="193.3" y1="142.1" x2="213.2" y2="160.0" opacity="1.0" stroke="rgb(0,0,0)" stroke-width="2.0"/>
<line x1="199.6" y1="138.1" x2="213.6" y2="150.6" opacity="1.0" stroke="rgb(0,0,0)" stroke-width="2.0"/>
<line x1="213.2" y1="160.0" x2="247.8" y2="140.0" opacity="1.0" stroke="rgb(0,0,0)" stroke-width="2.0"/>
<line x1="247.8" y1="140.0" x2="242.3" y2="113.8" opacity="1.0" stroke="rgb(0,0,0)" stroke-width="2.0"/>
<line x1="239.6" y1="135.6" x2="235.6" y2="117.2" opacity="1.0" stroke="rgb(0,0,0)" stroke-width="2.0"/>
<line x1="226.6" y1="99.5" x2="212.7" y2="98.1" opacity="1.0" stroke="rgb(0,0,0)" stroke-width="2.0"/>
<line x1="213.2" y1="280.0" x2="213.2" y2="320.0" opacity="1.0" stroke="rgb(0,0,0)" stroke-width="2.0"/>
<line x1="213.2" y1="320.0" x2="178.6" y2="340.0" opacity="1.0" stroke="rgb(0,0,0)" stroke-width="2.0"/>
<line x1="204.4" y1="316.8" x2="180.2" y2="330.8" opacity="1.0" stroke="rgb(0,0,0)" stroke-width="2.0"/>
<line x1="178.6" y1="340.0" x2="143.9" y2="320.0" opacity="1.0" stroke="rgb(0,0,0)" stroke-width="2.0"/>
<line x1="143.9" y1="320.0" x2="143.9" y2="280.0" opacity="1.0" stroke="rgb(0,0,0)" stroke-width="2.0"/>
<line x1="151.1" y1="314.0" x2="151.1" y2="286.0" opacity="1.0" stroke="rgb(0,0,0)" stroke-width="2.0"/>
<line x1="143.9" y1="280.0" x2="178.6" y2="260.0" opacity="1.0" stroke="rgb(0,0,0)" stroke-width="2.0"/>
<line x1="178.6" y1="260.0" x2="213.2" y2="280.0" opacity="1.0" stroke="rgb(0,0,0)" stroke-width="2.0"/>
<line x1="180.2" y1="269.2" x2="204.4" y2="283.2" opacity="1.0" stroke="rgb(0,0,0)" stroke-width="2.0"/>
<line x1="109.3" y1="220.0" x2="74.6" y2="200.0" opacity="1.0" stroke="rgb(0,0,0)" stroke-width="2.0"/>
<line x1="74.6" y1="200.0" x2="74.6" y2="160.0" opacity="1.0" stroke="rgb(0,0,0)" stroke-width="2.0"/>
<line x1="81.8" y1="194.0" x2="81.8" y2="166.0" opacity="1.0" stroke="rgb(0,0,0)" stroke-width="2.0"/>
<line x1="74.6" y1="160.0" x2="109.3" y2="140.0" opacity="1.0" stroke="rgb(0,0,0)" stroke-width="2.0"/>
<line x1="109.3" y1="140.0" x2="143.9" y2="160.0" opacity="1.0" stroke="rgb(0,0,0)" stroke-width="2.0"/>
<line x1="110.9" y1="149.2" x2="135.1" y2="163.2" opacity="1.0" stroke="rgb(0,0,0)" stroke-width="2.0"/>
<line x1="143.9" y1="160.0" x2="143.9" y2="200.0" opacity="1.0" stroke="rgb(0,0,0)" stroke-width="2.0"/>
<line x1="143.9" y1="200.0" x2="109.3" y2="220.0" opacity="1.0" stroke="rgb(0,0,0)" stroke-width="2.0"/>
<line x1="135.1" y1="196.8" x2="110.9" y2="210.8" opacity="1.0" stroke="rgb(0,0,0)" stroke-width="2.0"/>
<line x1="74.6" y1="80.0" x2="109.3" y2="100.0" opacity="1.0" stroke="rgb(0,0,0)" stroke-width="2.0"/>
<line x1="76.2" y1="89.2" x2="100.5" y2="103.2" opacity="1.0" stroke="rgb(0,0,0)" stroke-width="2.0"/>
<line x1="109.3" y1="100.0" x2="109.3" y2="140.0" opacity="1.0" stroke="rgb(0,0,0)" stroke-width="2.0"/>
<line x1="74.6" y1="160.0" x2="40.0" y2="140.0" opacity="1.0" stroke="rgb(0,0,0)" stroke-width="2.0"/>
<line x1="40.0" y1="140.0" x2="40.0" y2="100.0" opacity="1.0" stroke="rgb(0,0,0)" stroke-width="2.0"/>
<line x1="47.2" y1="134.0" x2="47.2" y2="106.0" opacity="1.0" stroke="rgb(0,0,0)" stroke-width="2.0"/>
<line x1="40.0" y1="100.0" x2="74.6" y2="80.0" opacity="1.0" stroke="rgb(0,0,0)" stroke-width="2.0"/>
<line x1="247.8" y1="220.0" x2="282.5" y2="200.0" opacity="1.0" stroke="rgb(0,0,0)" stroke-width="2.0"/>
<line x1="282.5" y1="200.0" x2="282.5" y2="160.0" opacity="1.0" stroke="rgb(0,0,0)" stroke-width="2.0"/>
<line x1="275.3" y1="194.0" x2="275.3" y2="166.0" opacity="1.0" stroke="rgb(0,0,0)" stroke-width="2.0"/>
<line x1="282.5" y1="160.0" x2="247.8" y2="140.0" opacity="1.0" stroke="rgb(0,0,0)" stroke-width="2.0"/>
<line x1="213.2" y1="160.0" x2="213.2" y2="200.0" opacity="1.0" stroke="rgb(0,0,0)" stroke-width="2.0"/>
<line x1="213.2" y1="200.0" x2="247.8" y2="220.0" opacity="1.0" stroke="rgb(0,0,0)" stroke-width="2.0"/>
<line x1="222.0" y1="196.8" x2="246.2" y2="210.8" opacity="1.0" stroke="rgb(0,0,0)" stroke-width="2.0"/>
<line x1="328.4" y1="93.5" x2="351.8" y2="80.0" opacity="1.0" stroke="rgb(0,0,0)" stroke-width="2.0"/>
<line x1="351.8" y1="80.0" x2="386.4" y2="100.0" opacity="1.0" stroke="rgb(0,0,0)" stroke-width="2.0"/>
<line x1="353.4" y1="89.2" x2="377.6" y2="103.2" opacity="1.0" stroke="rgb(0,0,0)" stroke-width="2.0"/>
<line x1="386.4" y1="100.0" x2="386.4" y2="140.0" opacity="1.0" stroke="rgb(0,0,0)" stroke-width="2.0"/>
<line x1="386.4" y1="140.0" x2="351.8" y2="160.0" opacity="1.0" stroke="rgb(0,0,0)" stroke-width="2.0"/>
<line x1="377.6" y1="136.8" x2="353.4" y2="150.8" opacity="1.0" stroke="rgb(0,0,0)" stroke-width="2.0"/>
<line x1="351.8" y1="160.0" x2="317.1" y2="140.0" opacity="1.0" stroke="rgb(0,0,0)" stroke-width="2.0"/>
<line x1="317.1" y1="140.0" x2="317.1" y2="113.2" opacity="1.0" stroke="rgb(0,0,0)" stroke-width="2.0"/>
<line x1="324.3" y1="134.0" x2="324.3" y2="115.2" opacity="1.0" stroke="rgb(0,0,0)" stroke-width="2.0"/>
<text x="233.529629" y="108.874096" fill="rgb(12,12,255)" stroke-width="0" font-weight="bold" font-size="16">N</text>
<text x="193.748753" y="104.692957" fill="rgb(178,178,0)" stroke-width="0" font-weight="bold" font-size="16">S</text>
<text x="177.479288" y="141.234776" fill="rgb(12,12,255)" stroke-width="0" font-weight="bold" font-size="16">N</text>
<text x="311.128129" y="108.000000" fill="rgb(12,12,255)" stroke-width="0" font-weight="bold" font-size="16">N</text>
<text x="415.051178" y="88.000000" fill="rgb(12,12,255)" stroke-width="0" font-weight="bold" font-size="16">N</text>
<text x="449.692194" y="108.000000" fill="rgb(255,12,12)" stroke-width="0" font-weight="bold" font-size="16">O</text>
<text x="425.851178" y="35.968000" fill="rgb(255,12,12)" stroke-width="0" font-weight="bold" font-size="16"/>
<text x="425.851178" y="35.968000" fill="rgb(255,12,12)" stroke-width="0" font-weight="bold" font-size="32">.</text>
<text x="415.051178" y="48.000000" fill="rgb(255,12,12)" stroke-width="0" font-weight="bold" font-size="16">O</text>
<text x="172.564065" y="228.000000" fill="rgb(12,12,255)" stroke-width="0" font-weight="bold" font-size="16">N</text>
</svg>
</g>
</svg>
