<svg xmlns="http://www.w3.org/2000/svg" x="0" y="0" viewBox="0 0 100 100">
<title>F_9_L - Open Babel Depiction</title>
<rect x="0" y="0" width="100" height="100" fill="white"/>
<g transform="translate(0,0)">
<svg width="100" height="100" x="0" y="0" viewBox="0 0 487.964 340" font-family="sans-serif" stroke="rgb(0,0,0)" stroke-width="2" stroke-linecap="round">
<line x1="320.7" y1="166.5" x2="344.0" y2="180.0" opacity="1.0" stroke="rgb(0,0,0)" stroke-width="2.0"/>
<line x1="309.4" y1="147.0" x2="309.4" y2="120.0" opacity="1.0" stroke="rgb(0,0,0)" stroke-width="2.0"/>
<line x1="298.1" y1="166.5" x2="274.8" y2="180.0" opacity="1.0" stroke="rgb(0,0,0)" stroke-width="2.0"/>
<line x1="205.5" y1="180.0" x2="170.8" y2="160.0" opacity="1.0" stroke="rgb(0,0,0)" stroke-width="2.0"/>
<line x1="40.0" y1="140.0" x2="63.5" y2="172.4" opacity="1.0" stroke="rgb(0,0,0)" stroke-width="2.0"/>
<line x1="49.4" y1="140.6" x2="65.8" y2="163.3" opacity="1.0" stroke="rgb(0,0,0)" stroke-width="2.0"/>
<line x1="63.5" y1="172.4" x2="101.6" y2="160.0" opacity="1.0" stroke="rgb(0,0,0)" stroke-width="2.0"/>
<line x1="101.6" y1="160.0" x2="101.6" y2="120.0" opacity="1.0" stroke="rgb(0,0,0)" stroke-width="2.0"/>
<line x1="101.6" y1="120.0" x2="75.9" y2="111.7" opacity="1.0" stroke="rgb(0,0,0)" stroke-width="2.0"/>
<line x1="55.9" y1="118.2" x2="40.0" y2="140.0" opacity="1.0" stroke="rgb(0,0,0)" stroke-width="2.0"/>
<line x1="274.8" y1="100.0" x2="274.8" y2="60.0" opacity="1.0" stroke="rgb(0,0,0)" stroke-width="2.0"/>
<line x1="274.8" y1="60.0" x2="309.4" y2="40.0" opacity="1.0" stroke="rgb(0,0,0)" stroke-width="2.0"/>
<line x1="283.6" y1="63.2" x2="307.8" y2="49.2" opacity="1.0" stroke="rgb(0,0,0)" stroke-width="2.0"/>
<line x1="309.4" y1="40.0" x2="344.0" y2="60.0" opacity="1.0" stroke="rgb(0,0,0)" stroke-width="2.0"/>
<line x1="344.0" y1="60.0" x2="344.0" y2="100.0" opacity="1.0" stroke="rgb(0,0,0)" stroke-width="2.0"/>
<line x1="336.8" y1="66.0" x2="336.8" y2="94.0" opacity="1.0" stroke="rgb(0,0,0)" stroke-width="2.0"/>
<line x1="344.0" y1="100.0" x2="309.4" y2="120.0" opacity="1.0" stroke="rgb(0,0,0)" stroke-width="2.0"/>
<line x1="309.4" y1="120.0" x2="274.8" y2="100.0" opacity="1.0" stroke="rgb(0,0,0)" stroke-width="2.0"/>
<line x1="307.8" y1="110.8" x2="283.6" y2="96.8" opacity="1.0" stroke="rgb(0,0,0)" stroke-width="2.0"/>
<line x1="378.7" y1="160.0" x2="413.3" y2="180.0" opacity="1.0" stroke="rgb(0,0,0)" stroke-width="2.0"/>
<line x1="413.3" y1="180.0" x2="413.3" y2="220.0" opacity="1.0" stroke="rgb(0,0,0)" stroke-width="2.0"/>
<line x1="406.1" y1="186.0" x2="406.1" y2="214.0" opacity="1.0" stroke="rgb(0,0,0)" stroke-width="2.0"/>
<line x1="413.3" y1="220.0" x2="378.7" y2="240.0" opacity="1.0" stroke="rgb(0,0,0)" stroke-width="2.0"/>
<line x1="378.7" y1="240.0" x2="344.0" y2="220.0" opacity="1.0" stroke="rgb(0,0,0)" stroke-width="2.0"/>
<line x1="377.1" y1="230.8" x2="352.8" y2="216.8" opacity="1.0" stroke="rgb(0,0,0)" stroke-width="2.0"/>
<line x1="344.0" y1="220.0" x2="344.0" y2="180.0" opacity="1.0" stroke="rgb(0,0,0)" stroke-width="2.0"/>
<line x1="344.0" y1="180.0" x2="378.7" y2="160.0" opacity="1.0" stroke="rgb(0,0,0)" stroke-width="2.0"/>
<line x1="352.8" y1="183.2" x2="377.1" y2="169.2" opacity="1.0" stroke="rgb(0,0,0)" stroke-width="2.0"/>
<line x1="413.3" y1="300.0" x2="378.7" y2="280.0" opacity="1.0" stroke="rgb(0,0,0)" stroke-width="2.0"/>
<line x1="411.7" y1="290.8" x2="387.5" y2="276.8" opacity="1.0" stroke="rgb(0,0,0)" stroke-width="2.0"/>
<line x1="378.7" y1="280.0" x2="378.7" y2="240.0" opacity="1.0" stroke="rgb(0,0,0)" stroke-width="2.0"/>
<line x1="413.3" y1="220.0" x2="448.0" y2="240.0" opacity="1.0" stroke="rgb(0,0,0)" stroke-width="2.0"/>
<line x1="448.0" y1="240.0" x2="448.0" y2="280.0" opacity="1.0" stroke="rgb(0,0,0)" stroke-width="2.0"/>
<line x1="440.8" y1="246.0" x2="440.8" y2="274.0" opacity="1.0" stroke="rgb(0,0,0)" stroke-width="2.0"/>
<line x1="448.0" y1="280.0" x2="413.3" y2="300.0" opacity="1.0" stroke="rgb(0,0,0)" stroke-width="2.0"/>
<line x1="274.8" y1="220.0" x2="240.1" y2="240.0" opacity="1.0" stroke="rgb(0,0,0)" stroke-width="2.0"/>
<line x1="240.1" y1="240.0" x2="205.5" y2="220.0" opacity="1.0" stroke="rgb(0,0,0)" stroke-width="2.0"/>
<line x1="238.5" y1="230.8" x2="214.3" y2="216.8" opacity="1.0" stroke="rgb(0,0,0)" stroke-width="2.0"/>
<line x1="205.5" y1="220.0" x2="205.5" y2="180.0" opacity="1.0" stroke="rgb(0,0,0)" stroke-width="2.0"/>
<line x1="205.5" y1="180.0" x2="240.1" y2="160.0" opacity="1.0" stroke="rgb(0,0,0)" stroke-width="2.0"/>
<line x1="214.3" y1="183.2" x2="238.5" y2="169.2" opacity="1.0" stroke="rgb(0,0,0)" stroke-width="2.0"/>
<line x1="240.1" y1="160.0" x2="274.8" y2="180.0" opacity="1.0" stroke="rgb(0,0,0)" stroke-width="2.0"/>
<line x1="274.8" y1="180.0" x2="274.8" y2="220.0" opacity="1.0" stroke="rgb(0,0,0)" stroke-width="2.0"/>
<line x1="267.6" y1="186.0" x2="267.6" y2="214.0" opacity="1.0" stroke="rgb(0,0,0)" stroke-width="2.0"/>
<line x1="170.8" y1="120.0" x2="136.2" y2="100.0" opacity="1.0" stroke="rgb(0,0,0)" stroke-width="2.0"/>
<line x1="136.2" y1="100.0" x2="101.6" y2="120.0" opacity="1.0" stroke="rgb(0,0,0)" stroke-width="2.0"/>
<line x1="134.6" y1="109.2" x2="110.3" y2="123.2" opacity="1.0" stroke="rgb(0,0,0)" stroke-width="2.0"/>
<line x1="101.6" y1="160.0" x2="136.2" y2="180.0" opacity="1.0" stroke="rgb(0,0,0)" stroke-width="2.0"/>
<line x1="110.3" y1="156.8" x2="134.6" y2="170.8" opacity="1.0" stroke="rgb(0,0,0)" stroke-width="2.0"/>
<line x1="136.2" y1="180.0" x2="170.8" y2="160.0" opacity="1.0" stroke="rgb(0,0,0)" stroke-width="2.0"/>
<line x1="170.8" y1="160.0" x2="170.8" y2="120.0" opacity="1.0" stroke="rgb(0,0,0)" stroke-width="2.0"/>
<line x1="163.6" y1="154.0" x2="163.6" y2="126.0" opacity="1.0" stroke="rgb(0,0,0)" stroke-width="2.0"/>
<text x="57.511410" y="115.639320" fill="rgb(12,12,255)" stroke-width="0" font-weight="bold" font-size="16">N</text>
<text x="57.511410" y="99.639320" fill="rgb(12,12,255)" stroke-width="0" font-weight="bold" font-size="16">H</text>
<text x="303.399768" y="168.000000" fill="rgb(12,12,255)" stroke-width="0" font-weight="bold" font-size="16">N</text>
</svg>
</g>
</svg>
