<svg xmlns="http://www.w3.org/2000/svg" x="0" y="0" viewBox="0 0 100 100">
<title>G_10_K - Open Babel Depiction</title>
<rect x="0" y="0" width="100" height="100" fill="white"/>
<g transform="translate(0,0)">
<svg width="100" height="100" x="0" y="0" viewBox="0 0 405.841 376.358" font-family="sans-serif" stroke="rgb(0,0,0)" stroke-width="2" stroke-linecap="round">
<line x1="287.4" y1="137.6" x2="309.3" y2="121.7" opacity="1.0" stroke="rgb(0,0,0)" stroke-width="2.0"/>
<line x1="262.1" y1="227.8" x2="259.3" y2="200.9" opacity="1.0" stroke="rgb(0,0,0)" stroke-width="2.0"/>
<line x1="63.6" y1="89.8" x2="52.3" y2="98.1" opacity="1.0" stroke="rgb(0,0,0)" stroke-width="2.0"/>
<line x1="60.1" y1="85.0" x2="48.8" y2="93.2" opacity="1.0" stroke="rgb(0,0,0)" stroke-width="2.0"/>
<line x1="71.0" y1="66.9" x2="69.5" y2="52.9" opacity="1.0" stroke="rgb(0,0,0)" stroke-width="2.0"/>
<line x1="108.9" y1="96.1" x2="84.2" y2="85.1" opacity="1.0" stroke="rgb(0,0,0)" stroke-width="2.0"/>
<line x1="218.5" y1="144.9" x2="182.0" y2="128.6" opacity="1.0" stroke="rgb(0,0,0)" stroke-width="2.0"/>
<line x1="298.1" y1="260.7" x2="289.8" y2="299.8" opacity="1.0" stroke="rgb(0,0,0)" stroke-width="2.0"/>
<line x1="289.8" y1="299.8" x2="250.0" y2="304.0" opacity="1.0" stroke="rgb(0,0,0)" stroke-width="2.0"/>
<line x1="250.0" y1="304.0" x2="233.7" y2="267.5" opacity="1.0" stroke="rgb(0,0,0)" stroke-width="2.0"/>
<line x1="233.7" y1="267.5" x2="253.8" y2="249.4" opacity="1.0" stroke="rgb(0,0,0)" stroke-width="2.0"/>
<line x1="274.7" y1="247.2" x2="298.1" y2="260.7" opacity="1.0" stroke="rgb(0,0,0)" stroke-width="2.0"/>
<line x1="170.4" y1="295.6" x2="193.9" y2="263.3" opacity="1.0" stroke="rgb(0,0,0)" stroke-width="2.0"/>
<line x1="193.9" y1="263.3" x2="233.7" y2="267.5" opacity="1.0" stroke="rgb(0,0,0)" stroke-width="2.0"/>
<line x1="199.1" y1="271.1" x2="227.0" y2="274.0" opacity="1.0" stroke="rgb(0,0,0)" stroke-width="2.0"/>
<line x1="250.0" y1="304.0" x2="226.5" y2="336.4" opacity="1.0" stroke="rgb(0,0,0)" stroke-width="2.0"/>
<line x1="240.6" y1="304.6" x2="224.2" y2="327.3" opacity="1.0" stroke="rgb(0,0,0)" stroke-width="2.0"/>
<line x1="226.5" y1="336.4" x2="186.7" y2="332.2" opacity="1.0" stroke="rgb(0,0,0)" stroke-width="2.0"/>
<line x1="186.7" y1="332.2" x2="170.4" y2="295.6" opacity="1.0" stroke="rgb(0,0,0)" stroke-width="2.0"/>
<line x1="190.8" y1="323.8" x2="179.4" y2="298.2" opacity="1.0" stroke="rgb(0,0,0)" stroke-width="2.0"/>
<line x1="357.5" y1="314.2" x2="319.5" y2="326.6" opacity="1.0" stroke="rgb(0,0,0)" stroke-width="2.0"/>
<line x1="319.5" y1="326.6" x2="289.8" y2="299.8" opacity="1.0" stroke="rgb(0,0,0)" stroke-width="2.0"/>
<line x1="319.8" y1="317.2" x2="299.0" y2="298.5" opacity="1.0" stroke="rgb(0,0,0)" stroke-width="2.0"/>
<line x1="298.1" y1="260.7" x2="336.1" y2="248.3" opacity="1.0" stroke="rgb(0,0,0)" stroke-width="2.0"/>
<line x1="306.0" y1="265.7" x2="332.6" y2="257.0" opacity="1.0" stroke="rgb(0,0,0)" stroke-width="2.0"/>
<line x1="336.1" y1="248.3" x2="365.8" y2="275.1" opacity="1.0" stroke="rgb(0,0,0)" stroke-width="2.0"/>
<line x1="365.8" y1="275.1" x2="357.5" y2="314.2" opacity="1.0" stroke="rgb(0,0,0)" stroke-width="2.0"/>
<line x1="357.6" y1="279.5" x2="351.7" y2="306.9" opacity="1.0" stroke="rgb(0,0,0)" stroke-width="2.0"/>
<line x1="291.6" y1="177.4" x2="287.4" y2="137.6" opacity="1.0" stroke="rgb(0,0,0)" stroke-width="2.0"/>
<line x1="287.4" y1="137.6" x2="250.9" y2="121.3" opacity="1.0" stroke="rgb(0,0,0)" stroke-width="2.0"/>
<line x1="279.0" y1="141.8" x2="253.4" y2="130.4" opacity="1.0" stroke="rgb(0,0,0)" stroke-width="2.0"/>
<line x1="250.9" y1="121.3" x2="218.5" y2="144.9" opacity="1.0" stroke="rgb(0,0,0)" stroke-width="2.0"/>
<line x1="218.5" y1="144.9" x2="222.7" y2="184.6" opacity="1.0" stroke="rgb(0,0,0)" stroke-width="2.0"/>
<line x1="226.3" y1="150.1" x2="229.2" y2="177.9" opacity="1.0" stroke="rgb(0,0,0)" stroke-width="2.0"/>
<line x1="222.7" y1="184.6" x2="259.3" y2="200.9" opacity="1.0" stroke="rgb(0,0,0)" stroke-width="2.0"/>
<line x1="259.3" y1="200.9" x2="291.6" y2="177.4" opacity="1.0" stroke="rgb(0,0,0)" stroke-width="2.0"/>
<line x1="259.9" y1="191.6" x2="282.5" y2="175.1" opacity="1.0" stroke="rgb(0,0,0)" stroke-width="2.0"/>
<line x1="177.8" y1="88.8" x2="141.3" y2="72.5" opacity="1.0" stroke="rgb(0,0,0)" stroke-width="2.0"/>
<line x1="141.3" y1="72.5" x2="108.9" y2="96.1" opacity="1.0" stroke="rgb(0,0,0)" stroke-width="2.0"/>
<line x1="140.6" y1="81.9" x2="118.0" y2="98.3" opacity="1.0" stroke="rgb(0,0,0)" stroke-width="2.0"/>
<line x1="108.9" y1="96.1" x2="113.1" y2="135.8" opacity="1.0" stroke="rgb(0,0,0)" stroke-width="2.0"/>
<line x1="113.1" y1="135.8" x2="149.6" y2="152.1" opacity="1.0" stroke="rgb(0,0,0)" stroke-width="2.0"/>
<line x1="121.5" y1="131.7" x2="147.1" y2="143.1" opacity="1.0" stroke="rgb(0,0,0)" stroke-width="2.0"/>
<line x1="149.6" y1="152.1" x2="182.0" y2="128.6" opacity="1.0" stroke="rgb(0,0,0)" stroke-width="2.0"/>
<line x1="182.0" y1="128.6" x2="177.8" y2="88.8" opacity="1.0" stroke="rgb(0,0,0)" stroke-width="2.0"/>
<line x1="174.2" y1="123.4" x2="171.3" y2="95.5" opacity="1.0" stroke="rgb(0,0,0)" stroke-width="2.0"/>
<text x="72.979541" y="35.968000" fill="rgb(255,12,12)" stroke-width="0" font-weight="bold" font-size="16"/>
<text x="72.979541" y="35.968000" fill="rgb(255,12,12)" stroke-width="0" font-weight="bold" font-size="32">.</text>
<text x="62.179541" y="48.000000" fill="rgb(255,12,12)" stroke-width="0" font-weight="bold" font-size="16">O</text>
<text x="34.000000" y="111.292286" fill="rgb(255,12,12)" stroke-width="0" font-weight="bold" font-size="16">O</text>
<text x="66.360680" y="87.780876" fill="rgb(12,12,255)" stroke-width="0" font-weight="bold" font-size="16">N</text>
<text x="313.791131" y="122.105384" fill="rgb(127,178,255)" stroke-width="0" font-weight="bold" font-size="16">F</text>
<text x="257.432048" y="248.689956" fill="rgb(12,12,255)" stroke-width="0" font-weight="bold" font-size="16">N</text>
</svg>
</g>
</svg>
