<svg xmlns="http://www.w3.org/2000/svg" x="0" y="0" viewBox="0 0 100 100">
<title>G_10_T - Open Babel Depiction</title>
<rect x="0" y="0" width="100" height="100" fill="white"/>
<g transform="translate(0,0)">
<svg width="100" height="100" x="0" y="0" viewBox="0 0 373.48 343.819" font-family="sans-serif" stroke="rgb(0,0,0)" stroke-width="2" stroke-linecap="round">
<line x1="255.1" y1="105.1" x2="276.9" y2="89.2" opacity="1.0" stroke="rgb(0,0,0)" stroke-width="2.0"/>
<line x1="229.7" y1="195.2" x2="226.9" y2="168.4" opacity="1.0" stroke="rgb(0,0,0)" stroke-width="2.0"/>
<line x1="76.5" y1="63.5" x2="51.9" y2="52.5" opacity="1.0" stroke="rgb(0,0,0)" stroke-width="2.0"/>
<line x1="186.2" y1="112.3" x2="149.6" y2="96.1" opacity="1.0" stroke="rgb(0,0,0)" stroke-width="2.0"/>
<line x1="265.7" y1="228.2" x2="257.4" y2="267.3" opacity="1.0" stroke="rgb(0,0,0)" stroke-width="2.0"/>
<line x1="257.4" y1="267.3" x2="217.6" y2="271.5" opacity="1.0" stroke="rgb(0,0,0)" stroke-width="2.0"/>
<line x1="217.6" y1="271.5" x2="201.3" y2="234.9" opacity="1.0" stroke="rgb(0,0,0)" stroke-width="2.0"/>
<line x1="201.3" y1="234.9" x2="221.4" y2="216.8" opacity="1.0" stroke="rgb(0,0,0)" stroke-width="2.0"/>
<line x1="242.3" y1="214.7" x2="265.7" y2="228.2" opacity="1.0" stroke="rgb(0,0,0)" stroke-width="2.0"/>
<line x1="138.1" y1="263.1" x2="161.6" y2="230.7" opacity="1.0" stroke="rgb(0,0,0)" stroke-width="2.0"/>
<line x1="161.6" y1="230.7" x2="201.3" y2="234.9" opacity="1.0" stroke="rgb(0,0,0)" stroke-width="2.0"/>
<line x1="166.8" y1="238.5" x2="194.6" y2="241.4" opacity="1.0" stroke="rgb(0,0,0)" stroke-width="2.0"/>
<line x1="217.6" y1="271.5" x2="194.1" y2="303.8" opacity="1.0" stroke="rgb(0,0,0)" stroke-width="2.0"/>
<line x1="208.3" y1="272.1" x2="191.8" y2="294.7" opacity="1.0" stroke="rgb(0,0,0)" stroke-width="2.0"/>
<line x1="194.1" y1="303.8" x2="154.3" y2="299.6" opacity="1.0" stroke="rgb(0,0,0)" stroke-width="2.0"/>
<line x1="154.3" y1="299.6" x2="138.1" y2="263.1" opacity="1.0" stroke="rgb(0,0,0)" stroke-width="2.0"/>
<line x1="158.5" y1="291.2" x2="147.1" y2="265.6" opacity="1.0" stroke="rgb(0,0,0)" stroke-width="2.0"/>
<line x1="325.2" y1="281.7" x2="287.1" y2="294.0" opacity="1.0" stroke="rgb(0,0,0)" stroke-width="2.0"/>
<line x1="287.1" y1="294.0" x2="257.4" y2="267.3" opacity="1.0" stroke="rgb(0,0,0)" stroke-width="2.0"/>
<line x1="287.5" y1="284.7" x2="266.7" y2="265.9" opacity="1.0" stroke="rgb(0,0,0)" stroke-width="2.0"/>
<line x1="265.7" y1="228.2" x2="303.8" y2="215.8" opacity="1.0" stroke="rgb(0,0,0)" stroke-width="2.0"/>
<line x1="273.6" y1="233.1" x2="300.3" y2="224.5" opacity="1.0" stroke="rgb(0,0,0)" stroke-width="2.0"/>
<line x1="303.8" y1="215.8" x2="333.5" y2="242.6" opacity="1.0" stroke="rgb(0,0,0)" stroke-width="2.0"/>
<line x1="333.5" y1="242.6" x2="325.2" y2="281.7" opacity="1.0" stroke="rgb(0,0,0)" stroke-width="2.0"/>
<line x1="325.2" y1="246.9" x2="319.4" y2="274.3" opacity="1.0" stroke="rgb(0,0,0)" stroke-width="2.0"/>
<line x1="259.3" y1="144.9" x2="255.1" y2="105.1" opacity="1.0" stroke="rgb(0,0,0)" stroke-width="2.0"/>
<line x1="255.1" y1="105.1" x2="218.5" y2="88.8" opacity="1.0" stroke="rgb(0,0,0)" stroke-width="2.0"/>
<line x1="246.7" y1="109.2" x2="221.1" y2="97.8" opacity="1.0" stroke="rgb(0,0,0)" stroke-width="2.0"/>
<line x1="218.5" y1="88.8" x2="186.2" y2="112.3" opacity="1.0" stroke="rgb(0,0,0)" stroke-width="2.0"/>
<line x1="186.2" y1="112.3" x2="190.3" y2="152.1" opacity="1.0" stroke="rgb(0,0,0)" stroke-width="2.0"/>
<line x1="194.0" y1="117.5" x2="196.9" y2="145.4" opacity="1.0" stroke="rgb(0,0,0)" stroke-width="2.0"/>
<line x1="190.3" y1="152.1" x2="226.9" y2="168.4" opacity="1.0" stroke="rgb(0,0,0)" stroke-width="2.0"/>
<line x1="226.9" y1="168.4" x2="259.3" y2="144.9" opacity="1.0" stroke="rgb(0,0,0)" stroke-width="2.0"/>
<line x1="227.5" y1="159.0" x2="250.2" y2="142.6" opacity="1.0" stroke="rgb(0,0,0)" stroke-width="2.0"/>
<line x1="145.4" y1="56.3" x2="108.9" y2="40.0" opacity="1.0" stroke="rgb(0,0,0)" stroke-width="2.0"/>
<line x1="108.9" y1="40.0" x2="76.5" y2="63.5" opacity="1.0" stroke="rgb(0,0,0)" stroke-width="2.0"/>
<line x1="108.3" y1="49.4" x2="85.6" y2="65.8" opacity="1.0" stroke="rgb(0,0,0)" stroke-width="2.0"/>
<line x1="76.5" y1="63.5" x2="80.7" y2="103.3" opacity="1.0" stroke="rgb(0,0,0)" stroke-width="2.0"/>
<line x1="80.7" y1="103.3" x2="117.3" y2="119.6" opacity="1.0" stroke="rgb(0,0,0)" stroke-width="2.0"/>
<line x1="89.1" y1="99.2" x2="114.7" y2="110.5" opacity="1.0" stroke="rgb(0,0,0)" stroke-width="2.0"/>
<line x1="117.3" y1="119.6" x2="149.6" y2="96.1" opacity="1.0" stroke="rgb(0,0,0)" stroke-width="2.0"/>
<line x1="149.6" y1="96.1" x2="145.4" y2="56.3" opacity="1.0" stroke="rgb(0,0,0)" stroke-width="2.0"/>
<line x1="141.8" y1="90.8" x2="138.9" y2="63.0" opacity="1.0" stroke="rgb(0,0,0)" stroke-width="2.0"/>
<text x="14.000000" y="55.241944" fill="rgb(102,102,102)" stroke-width="0" font-weight="bold" font-size="16">H</text>
<text x="26.000000" y="58.921944" fill="rgb(102,102,102)" stroke-width="0" font-weight="bold" font-size="13">3</text>
<text x="32.500000" y="55.241944" fill="rgb(102,102,102)" stroke-width="0" font-weight="bold" font-size="16">C</text>
<text x="281.430451" y="89.566453" fill="rgb(127,178,255)" stroke-width="0" font-weight="bold" font-size="16">F</text>
<text x="225.071369" y="216.151025" fill="rgb(12,12,255)" stroke-width="0" font-weight="bold" font-size="16">N</text>
</svg>
</g>
</svg>
