<svg xmlns="http://www.w3.org/2000/svg" xmlns:xlink="http://www.w3.org/1999/xlink" xmlns:cml="http://www.xml-cml.org/schema" version="1.1" id="topsvg" x="0" y="0" viewBox="0 0 100 100">
<title>G_10_P - Open Babel Depiction</title>
<rect x="0" y="0" width="100" height="100" fill="white"/>
<g transform="translate(0,0)">
<svg width="100" height="100" x="0" y="0" viewBox="0 0 377.662 376.358" font-family="sans-serif" stroke="rgb(0,0,0)" stroke-width="2" stroke-linecap="round">
<line x1="259.3" y1="137.6" x2="281.1" y2="121.7" opacity="1.0" stroke="rgb(0,0,0)" stroke-width="2.0"/>
<line x1="233.9" y1="227.8" x2="231.1" y2="200.9" opacity="1.0" stroke="rgb(0,0,0)" stroke-width="2.0"/>
<line x1="42.8" y1="66.9" x2="41.4" y2="52.9" opacity="1.0" stroke="rgb(0,0,0)" stroke-width="2.0"/>
<line x1="80.7" y1="96.1" x2="56.1" y2="85.1" opacity="1.0" stroke="rgb(0,0,0)" stroke-width="2.0"/>
<line x1="190.3" y1="144.9" x2="153.8" y2="128.6" opacity="1.0" stroke="rgb(0,0,0)" stroke-width="2.0"/>
<line x1="269.9" y1="260.7" x2="261.6" y2="299.8" opacity="1.0" stroke="rgb(0,0,0)" stroke-width="2.0"/>
<line x1="261.6" y1="299.8" x2="221.8" y2="304.0" opacity="1.0" stroke="rgb(0,0,0)" stroke-width="2.0"/>
<line x1="221.8" y1="304.0" x2="205.5" y2="267.5" opacity="1.0" stroke="rgb(0,0,0)" stroke-width="2.0"/>
<line x1="205.5" y1="267.5" x2="225.6" y2="249.4" opacity="1.0" stroke="rgb(0,0,0)" stroke-width="2.0"/>
<line x1="246.5" y1="247.2" x2="269.9" y2="260.7" opacity="1.0" stroke="rgb(0,0,0)" stroke-width="2.0"/>
<line x1="142.2" y1="295.6" x2="165.7" y2="263.3" opacity="1.0" stroke="rgb(0,0,0)" stroke-width="2.0"/>
<line x1="165.7" y1="263.3" x2="205.5" y2="267.5" opacity="1.0" stroke="rgb(0,0,0)" stroke-width="2.0"/>
<line x1="171.0" y1="271.1" x2="198.8" y2="274.0" opacity="1.0" stroke="rgb(0,0,0)" stroke-width="2.0"/>
<line x1="221.8" y1="304.0" x2="198.3" y2="336.4" opacity="1.0" stroke="rgb(0,0,0)" stroke-width="2.0"/>
<line x1="212.4" y1="304.6" x2="196.0" y2="327.3" opacity="1.0" stroke="rgb(0,0,0)" stroke-width="2.0"/>
<line x1="198.3" y1="336.4" x2="158.5" y2="332.2" opacity="1.0" stroke="rgb(0,0,0)" stroke-width="2.0"/>
<line x1="158.5" y1="332.2" x2="142.2" y2="295.6" opacity="1.0" stroke="rgb(0,0,0)" stroke-width="2.0"/>
<line x1="162.6" y1="323.8" x2="151.3" y2="298.2" opacity="1.0" stroke="rgb(0,0,0)" stroke-width="2.0"/>
<line x1="329.3" y1="314.2" x2="291.3" y2="326.6" opacity="1.0" stroke="rgb(0,0,0)" stroke-width="2.0"/>
<line x1="291.3" y1="326.6" x2="261.6" y2="299.8" opacity="1.0" stroke="rgb(0,0,0)" stroke-width="2.0"/>
<line x1="291.7" y1="317.2" x2="270.9" y2="298.5" opacity="1.0" stroke="rgb(0,0,0)" stroke-width="2.0"/>
<line x1="269.9" y1="260.7" x2="307.9" y2="248.3" opacity="1.0" stroke="rgb(0,0,0)" stroke-width="2.0"/>
<line x1="277.8" y1="265.7" x2="304.5" y2="257.0" opacity="1.0" stroke="rgb(0,0,0)" stroke-width="2.0"/>
<line x1="307.9" y1="248.3" x2="337.7" y2="275.1" opacity="1.0" stroke="rgb(0,0,0)" stroke-width="2.0"/>
<line x1="337.7" y1="275.1" x2="329.3" y2="314.2" opacity="1.0" stroke="rgb(0,0,0)" stroke-width="2.0"/>
<line x1="329.4" y1="279.5" x2="323.5" y2="306.9" opacity="1.0" stroke="rgb(0,0,0)" stroke-width="2.0"/>
<line x1="263.4" y1="177.4" x2="259.3" y2="137.6" opacity="1.0" stroke="rgb(0,0,0)" stroke-width="2.0"/>
<line x1="259.3" y1="137.6" x2="222.7" y2="121.3" opacity="1.0" stroke="rgb(0,0,0)" stroke-width="2.0"/>
<line x1="250.8" y1="141.8" x2="225.3" y2="130.4" opacity="1.0" stroke="rgb(0,0,0)" stroke-width="2.0"/>
<line x1="222.7" y1="121.3" x2="190.3" y2="144.9" opacity="1.0" stroke="rgb(0,0,0)" stroke-width="2.0"/>
<line x1="190.3" y1="144.9" x2="194.5" y2="184.6" opacity="1.0" stroke="rgb(0,0,0)" stroke-width="2.0"/>
<line x1="198.1" y1="150.1" x2="201.1" y2="177.9" opacity="1.0" stroke="rgb(0,0,0)" stroke-width="2.0"/>
<line x1="194.5" y1="184.6" x2="231.1" y2="200.9" opacity="1.0" stroke="rgb(0,0,0)" stroke-width="2.0"/>
<line x1="231.1" y1="200.9" x2="263.4" y2="177.4" opacity="1.0" stroke="rgb(0,0,0)" stroke-width="2.0"/>
<line x1="231.7" y1="191.6" x2="254.3" y2="175.1" opacity="1.0" stroke="rgb(0,0,0)" stroke-width="2.0"/>
<line x1="149.6" y1="88.8" x2="113.1" y2="72.5" opacity="1.0" stroke="rgb(0,0,0)" stroke-width="2.0"/>
<line x1="113.1" y1="72.5" x2="80.7" y2="96.1" opacity="1.0" stroke="rgb(0,0,0)" stroke-width="2.0"/>
<line x1="112.5" y1="81.9" x2="89.8" y2="98.3" opacity="1.0" stroke="rgb(0,0,0)" stroke-width="2.0"/>
<line x1="80.7" y1="96.1" x2="84.9" y2="135.8" opacity="1.0" stroke="rgb(0,0,0)" stroke-width="2.0"/>
<line x1="84.9" y1="135.8" x2="121.4" y2="152.1" opacity="1.0" stroke="rgb(0,0,0)" stroke-width="2.0"/>
<line x1="93.3" y1="131.7" x2="118.9" y2="143.1" opacity="1.0" stroke="rgb(0,0,0)" stroke-width="2.0"/>
<line x1="121.4" y1="152.1" x2="153.8" y2="128.6" opacity="1.0" stroke="rgb(0,0,0)" stroke-width="2.0"/>
<line x1="153.8" y1="128.6" x2="149.6" y2="88.8" opacity="1.0" stroke="rgb(0,0,0)" stroke-width="2.0"/>
<line x1="146.0" y1="123.4" x2="143.1" y2="95.5" opacity="1.0" stroke="rgb(0,0,0)" stroke-width="2.0"/>
<text x="14.000000" y="48.000000" fill="rgb(102,102,102)" stroke-width="0" font-weight="bold" font-size="16">H</text>
<text x="26.000000" y="51.680000" fill="rgb(102,102,102)" stroke-width="0" font-weight="bold" font-size="13">3</text>
<text x="32.500000" y="48.000000" fill="rgb(102,102,102)" stroke-width="0" font-weight="bold" font-size="16">C</text>
<text x="38.181139" y="87.780876" fill="rgb(255,12,12)" stroke-width="0" font-weight="bold" font-size="16">O</text>
<text x="285.611590" y="122.105384" fill="rgb(127,178,255)" stroke-width="0" font-weight="bold" font-size="16">F</text>
<text x="229.252507" y="248.689956" fill="rgb(12,12,255)" stroke-width="0" font-weight="bold" font-size="16">N</text>
</svg>
</g>
</svg>