<svg xmlns="http://www.w3.org/2000/svg" xmlns:xlink="http://www.w3.org/1999/xlink" xmlns:cml="http://www.xml-cml.org/schema" version="1.1" id="topsvg" x="0" y="0" viewBox="0 0 100 100">
<title>G_1_T - Open Babel Depiction</title>
<rect x="0" y="0" width="100" height="100" fill="white"/>
<g transform="translate(0,0)">
<svg width="100" height="100" x="0" y="0" viewBox="0 0 275.427 454.134" font-family="sans-serif" stroke="rgb(0,0,0)" stroke-width="2" stroke-linecap="round">
<line x1="131.7" y1="305.5" x2="128.8" y2="278.7" opacity="1.0" stroke="rgb(0,0,0)" stroke-width="2.0"/>
<line x1="107.9" y1="79.8" x2="105.1" y2="52.9" opacity="1.0" stroke="rgb(0,0,0)" stroke-width="2.0"/>
<line x1="120.5" y1="199.1" x2="116.3" y2="159.3" opacity="1.0" stroke="rgb(0,0,0)" stroke-width="2.0"/>
<line x1="167.7" y1="338.5" x2="159.3" y2="377.6" opacity="1.0" stroke="rgb(0,0,0)" stroke-width="2.0"/>
<line x1="159.3" y1="377.6" x2="119.6" y2="381.8" opacity="1.0" stroke="rgb(0,0,0)" stroke-width="2.0"/>
<line x1="119.6" y1="381.8" x2="103.3" y2="345.2" opacity="1.0" stroke="rgb(0,0,0)" stroke-width="2.0"/>
<line x1="103.3" y1="345.2" x2="123.4" y2="327.2" opacity="1.0" stroke="rgb(0,0,0)" stroke-width="2.0"/>
<line x1="144.3" y1="325.0" x2="167.7" y2="338.5" opacity="1.0" stroke="rgb(0,0,0)" stroke-width="2.0"/>
<line x1="40.0" y1="373.4" x2="63.5" y2="341.1" opacity="1.0" stroke="rgb(0,0,0)" stroke-width="2.0"/>
<line x1="63.5" y1="341.1" x2="103.3" y2="345.2" opacity="1.0" stroke="rgb(0,0,0)" stroke-width="2.0"/>
<line x1="68.7" y1="348.8" x2="96.6" y2="351.8" opacity="1.0" stroke="rgb(0,0,0)" stroke-width="2.0"/>
<line x1="119.6" y1="381.8" x2="96.1" y2="414.1" opacity="1.0" stroke="rgb(0,0,0)" stroke-width="2.0"/>
<line x1="110.2" y1="382.4" x2="93.8" y2="405.0" opacity="1.0" stroke="rgb(0,0,0)" stroke-width="2.0"/>
<line x1="96.1" y1="414.1" x2="56.3" y2="410.0" opacity="1.0" stroke="rgb(0,0,0)" stroke-width="2.0"/>
<line x1="56.3" y1="410.0" x2="40.0" y2="373.4" opacity="1.0" stroke="rgb(0,0,0)" stroke-width="2.0"/>
<line x1="60.4" y1="401.5" x2="49.0" y2="376.0" opacity="1.0" stroke="rgb(0,0,0)" stroke-width="2.0"/>
<line x1="227.1" y1="392.0" x2="189.1" y2="404.4" opacity="1.0" stroke="rgb(0,0,0)" stroke-width="2.0"/>
<line x1="189.1" y1="404.4" x2="159.3" y2="377.6" opacity="1.0" stroke="rgb(0,0,0)" stroke-width="2.0"/>
<line x1="189.4" y1="395.0" x2="168.6" y2="376.3" opacity="1.0" stroke="rgb(0,0,0)" stroke-width="2.0"/>
<line x1="167.7" y1="338.5" x2="205.7" y2="326.1" opacity="1.0" stroke="rgb(0,0,0)" stroke-width="2.0"/>
<line x1="175.6" y1="343.5" x2="202.2" y2="334.8" opacity="1.0" stroke="rgb(0,0,0)" stroke-width="2.0"/>
<line x1="205.7" y1="326.1" x2="235.4" y2="352.9" opacity="1.0" stroke="rgb(0,0,0)" stroke-width="2.0"/>
<line x1="235.4" y1="352.9" x2="227.1" y2="392.0" opacity="1.0" stroke="rgb(0,0,0)" stroke-width="2.0"/>
<line x1="227.1" y1="357.2" x2="221.3" y2="384.6" opacity="1.0" stroke="rgb(0,0,0)" stroke-width="2.0"/>
<line x1="161.2" y1="255.2" x2="157.0" y2="215.4" opacity="1.0" stroke="rgb(0,0,0)" stroke-width="2.0"/>
<line x1="157.0" y1="215.4" x2="120.5" y2="199.1" opacity="1.0" stroke="rgb(0,0,0)" stroke-width="2.0"/>
<line x1="148.6" y1="219.5" x2="123.0" y2="208.1" opacity="1.0" stroke="rgb(0,0,0)" stroke-width="2.0"/>
<line x1="120.5" y1="199.1" x2="88.1" y2="222.6" opacity="1.0" stroke="rgb(0,0,0)" stroke-width="2.0"/>
<line x1="88.1" y1="222.6" x2="92.3" y2="262.4" opacity="1.0" stroke="rgb(0,0,0)" stroke-width="2.0"/>
<line x1="95.9" y1="227.8" x2="98.8" y2="255.7" opacity="1.0" stroke="rgb(0,0,0)" stroke-width="2.0"/>
<line x1="92.3" y1="262.4" x2="128.8" y2="278.7" opacity="1.0" stroke="rgb(0,0,0)" stroke-width="2.0"/>
<line x1="128.8" y1="278.7" x2="161.2" y2="255.2" opacity="1.0" stroke="rgb(0,0,0)" stroke-width="2.0"/>
<line x1="129.5" y1="269.3" x2="152.1" y2="252.9" opacity="1.0" stroke="rgb(0,0,0)" stroke-width="2.0"/>
<line x1="148.7" y1="135.8" x2="144.5" y2="96.1" opacity="1.0" stroke="rgb(0,0,0)" stroke-width="2.0"/>
<line x1="144.5" y1="96.1" x2="107.9" y2="79.8" opacity="1.0" stroke="rgb(0,0,0)" stroke-width="2.0"/>
<line x1="136.1" y1="100.2" x2="110.5" y2="88.8" opacity="1.0" stroke="rgb(0,0,0)" stroke-width="2.0"/>
<line x1="107.9" y1="79.8" x2="75.6" y2="103.3" opacity="1.0" stroke="rgb(0,0,0)" stroke-width="2.0"/>
<line x1="75.6" y1="103.3" x2="79.8" y2="143.1" opacity="1.0" stroke="rgb(0,0,0)" stroke-width="2.0"/>
<line x1="83.4" y1="108.5" x2="86.3" y2="136.4" opacity="1.0" stroke="rgb(0,0,0)" stroke-width="2.0"/>
<line x1="79.8" y1="143.1" x2="116.3" y2="159.3" opacity="1.0" stroke="rgb(0,0,0)" stroke-width="2.0"/>
<line x1="116.3" y1="159.3" x2="148.7" y2="135.8" opacity="1.0" stroke="rgb(0,0,0)" stroke-width="2.0"/>
<line x1="116.9" y1="150.0" x2="139.6" y2="133.5" opacity="1.0" stroke="rgb(0,0,0)" stroke-width="2.0"/>
<text x="77.750109" y="48.000000" fill="rgb(102,102,102)" stroke-width="0" font-weight="bold" font-size="16">H</text>
<text x="89.750109" y="51.680000" fill="rgb(102,102,102)" stroke-width="0" font-weight="bold" font-size="13">3</text>
<text x="96.250109" y="48.000000" fill="rgb(102,102,102)" stroke-width="0" font-weight="bold" font-size="16">C</text>
<text x="127.018079" y="326.466131" fill="rgb(12,12,255)" stroke-width="0" font-weight="bold" font-size="16">N</text>
</svg>
</g>
</svg>