<svg xmlns="http://www.w3.org/2000/svg" xmlns:xlink="http://www.w3.org/1999/xlink" xmlns:cml="http://www.xml-cml.org/schema" version="1.1" id="topsvg" x="0" y="0" viewBox="0 0 100 100">
<title>G_1_K - Open Babel Depiction</title>
<rect x="0" y="0" width="100" height="100" fill="white"/>
<g transform="translate(0,0)">
<svg width="100" height="100" x="0" y="0" viewBox="0 0 275.427 477.645" font-family="sans-serif" stroke="rgb(0,0,0)" stroke-width="2" stroke-linecap="round">
<line x1="131.7" y1="329.0" x2="128.8" y2="302.2" opacity="1.0" stroke="rgb(0,0,0)" stroke-width="2.0"/>
<line x1="90.7" y1="61.0" x2="77.9" y2="55.3" opacity="1.0" stroke="rgb(0,0,0)" stroke-width="2.0"/>
<line x1="93.1" y1="55.5" x2="80.3" y2="49.8" opacity="1.0" stroke="rgb(0,0,0)" stroke-width="2.0"/>
<line x1="114.3" y1="55.9" x2="125.6" y2="47.6" opacity="1.0" stroke="rgb(0,0,0)" stroke-width="2.0"/>
<line x1="107.9" y1="103.3" x2="105.1" y2="76.4" opacity="1.0" stroke="rgb(0,0,0)" stroke-width="2.0"/>
<line x1="120.5" y1="222.6" x2="116.3" y2="182.9" opacity="1.0" stroke="rgb(0,0,0)" stroke-width="2.0"/>
<line x1="167.7" y1="362.0" x2="159.3" y2="401.1" opacity="1.0" stroke="rgb(0,0,0)" stroke-width="2.0"/>
<line x1="159.3" y1="401.1" x2="119.6" y2="405.3" opacity="1.0" stroke="rgb(0,0,0)" stroke-width="2.0"/>
<line x1="119.6" y1="405.3" x2="103.3" y2="368.7" opacity="1.0" stroke="rgb(0,0,0)" stroke-width="2.0"/>
<line x1="103.3" y1="368.7" x2="123.4" y2="350.7" opacity="1.0" stroke="rgb(0,0,0)" stroke-width="2.0"/>
<line x1="144.3" y1="348.5" x2="167.7" y2="362.0" opacity="1.0" stroke="rgb(0,0,0)" stroke-width="2.0"/>
<line x1="40.0" y1="396.9" x2="63.5" y2="364.6" opacity="1.0" stroke="rgb(0,0,0)" stroke-width="2.0"/>
<line x1="63.5" y1="364.6" x2="103.3" y2="368.7" opacity="1.0" stroke="rgb(0,0,0)" stroke-width="2.0"/>
<line x1="68.7" y1="372.3" x2="96.6" y2="375.3" opacity="1.0" stroke="rgb(0,0,0)" stroke-width="2.0"/>
<line x1="119.6" y1="405.3" x2="96.1" y2="437.6" opacity="1.0" stroke="rgb(0,0,0)" stroke-width="2.0"/>
<line x1="110.2" y1="405.9" x2="93.8" y2="428.6" opacity="1.0" stroke="rgb(0,0,0)" stroke-width="2.0"/>
<line x1="96.1" y1="437.6" x2="56.3" y2="433.5" opacity="1.0" stroke="rgb(0,0,0)" stroke-width="2.0"/>
<line x1="56.3" y1="433.5" x2="40.0" y2="396.9" opacity="1.0" stroke="rgb(0,0,0)" stroke-width="2.0"/>
<line x1="60.4" y1="425.1" x2="49.0" y2="399.5" opacity="1.0" stroke="rgb(0,0,0)" stroke-width="2.0"/>
<line x1="227.1" y1="415.5" x2="189.1" y2="427.9" opacity="1.0" stroke="rgb(0,0,0)" stroke-width="2.0"/>
<line x1="189.1" y1="427.9" x2="159.3" y2="401.1" opacity="1.0" stroke="rgb(0,0,0)" stroke-width="2.0"/>
<line x1="189.4" y1="418.5" x2="168.6" y2="399.8" opacity="1.0" stroke="rgb(0,0,0)" stroke-width="2.0"/>
<line x1="167.7" y1="362.0" x2="205.7" y2="349.6" opacity="1.0" stroke="rgb(0,0,0)" stroke-width="2.0"/>
<line x1="175.6" y1="367.0" x2="202.2" y2="358.3" opacity="1.0" stroke="rgb(0,0,0)" stroke-width="2.0"/>
<line x1="205.7" y1="349.6" x2="235.4" y2="376.4" opacity="1.0" stroke="rgb(0,0,0)" stroke-width="2.0"/>
<line x1="235.4" y1="376.4" x2="227.1" y2="415.5" opacity="1.0" stroke="rgb(0,0,0)" stroke-width="2.0"/>
<line x1="227.1" y1="380.8" x2="221.3" y2="408.1" opacity="1.0" stroke="rgb(0,0,0)" stroke-width="2.0"/>
<line x1="161.2" y1="278.7" x2="157.0" y2="238.9" opacity="1.0" stroke="rgb(0,0,0)" stroke-width="2.0"/>
<line x1="157.0" y1="238.9" x2="120.5" y2="222.6" opacity="1.0" stroke="rgb(0,0,0)" stroke-width="2.0"/>
<line x1="148.6" y1="243.0" x2="123.0" y2="231.7" opacity="1.0" stroke="rgb(0,0,0)" stroke-width="2.0"/>
<line x1="120.5" y1="222.6" x2="88.1" y2="246.1" opacity="1.0" stroke="rgb(0,0,0)" stroke-width="2.0"/>
<line x1="88.1" y1="246.1" x2="92.3" y2="285.9" opacity="1.0" stroke="rgb(0,0,0)" stroke-width="2.0"/>
<line x1="95.9" y1="251.4" x2="98.8" y2="279.2" opacity="1.0" stroke="rgb(0,0,0)" stroke-width="2.0"/>
<line x1="92.3" y1="285.9" x2="128.8" y2="302.2" opacity="1.0" stroke="rgb(0,0,0)" stroke-width="2.0"/>
<line x1="128.8" y1="302.2" x2="161.2" y2="278.7" opacity="1.0" stroke="rgb(0,0,0)" stroke-width="2.0"/>
<line x1="129.5" y1="292.8" x2="152.1" y2="276.4" opacity="1.0" stroke="rgb(0,0,0)" stroke-width="2.0"/>
<line x1="148.7" y1="159.3" x2="144.5" y2="119.6" opacity="1.0" stroke="rgb(0,0,0)" stroke-width="2.0"/>
<line x1="144.5" y1="119.6" x2="107.9" y2="103.3" opacity="1.0" stroke="rgb(0,0,0)" stroke-width="2.0"/>
<line x1="136.1" y1="123.7" x2="110.5" y2="112.3" opacity="1.0" stroke="rgb(0,0,0)" stroke-width="2.0"/>
<line x1="107.9" y1="103.3" x2="75.6" y2="126.8" opacity="1.0" stroke="rgb(0,0,0)" stroke-width="2.0"/>
<line x1="75.6" y1="126.8" x2="79.8" y2="166.6" opacity="1.0" stroke="rgb(0,0,0)" stroke-width="2.0"/>
<line x1="83.4" y1="132.0" x2="86.3" y2="159.9" opacity="1.0" stroke="rgb(0,0,0)" stroke-width="2.0"/>
<line x1="79.8" y1="166.6" x2="116.3" y2="182.9" opacity="1.0" stroke="rgb(0,0,0)" stroke-width="2.0"/>
<line x1="116.3" y1="182.9" x2="148.7" y2="159.3" opacity="1.0" stroke="rgb(0,0,0)" stroke-width="2.0"/>
<line x1="116.9" y1="173.5" x2="139.6" y2="157.0" opacity="1.0" stroke="rgb(0,0,0)" stroke-width="2.0"/>
<text x="140.910789" y="35.968000" fill="rgb(255,12,12)" stroke-width="0" font-weight="bold" font-size="16"/>
<text x="140.910789" y="35.968000" fill="rgb(255,12,12)" stroke-width="0" font-weight="bold" font-size="32">.</text>
<text x="130.110789" y="48.000000" fill="rgb(255,12,12)" stroke-width="0" font-weight="bold" font-size="16">O</text>
<text x="61.208291" y="55.241944" fill="rgb(255,12,12)" stroke-width="0" font-weight="bold" font-size="16">O</text>
<text x="97.750109" y="71.511410" fill="rgb(12,12,255)" stroke-width="0" font-weight="bold" font-size="16">N</text>
<text x="127.018079" y="349.977541" fill="rgb(12,12,255)" stroke-width="0" font-weight="bold" font-size="16">N</text>
</svg>
</g>
</svg>