<svg xmlns="http://www.w3.org/2000/svg" xmlns:xlink="http://www.w3.org/1999/xlink" xmlns:cml="http://www.xml-cml.org/schema" version="1.1" id="topsvg" x="0" y="0" viewBox="0 0 100 100">
<title>G_3_L - Open Babel Depiction</title>
<rect x="0" y="0" width="100" height="100" fill="white"/>
<g transform="translate(0,0)">
<svg width="100" height="100" x="0" y="0" viewBox="0 0 296.216 452.395" font-family="sans-serif" stroke="rgb(0,0,0)" stroke-width="2" stroke-linecap="round">
<line x1="152.4" y1="303.8" x2="149.6" y2="276.9" opacity="1.0" stroke="rgb(0,0,0)" stroke-width="2.0"/>
<line x1="141.3" y1="197.4" x2="137.1" y2="157.6" opacity="1.0" stroke="rgb(0,0,0)" stroke-width="2.0"/>
<line x1="188.4" y1="336.7" x2="180.1" y2="375.9" opacity="1.0" stroke="rgb(0,0,0)" stroke-width="2.0"/>
<line x1="180.1" y1="375.9" x2="140.4" y2="380.0" opacity="1.0" stroke="rgb(0,0,0)" stroke-width="2.0"/>
<line x1="140.4" y1="380.0" x2="124.1" y2="343.5" opacity="1.0" stroke="rgb(0,0,0)" stroke-width="2.0"/>
<line x1="124.1" y1="343.5" x2="144.1" y2="325.4" opacity="1.0" stroke="rgb(0,0,0)" stroke-width="2.0"/>
<line x1="165.1" y1="323.2" x2="188.4" y2="336.7" opacity="1.0" stroke="rgb(0,0,0)" stroke-width="2.0"/>
<line x1="76.4" y1="40.0" x2="64.0" y2="78.0" opacity="1.0" stroke="rgb(0,0,0)" stroke-width="2.0"/>
<line x1="81.4" y1="47.9" x2="72.7" y2="74.6" opacity="1.0" stroke="rgb(0,0,0)" stroke-width="2.0"/>
<line x1="64.0" y1="78.0" x2="96.4" y2="101.6" opacity="1.0" stroke="rgb(0,0,0)" stroke-width="2.0"/>
<line x1="96.4" y1="101.6" x2="128.7" y2="78.0" opacity="1.0" stroke="rgb(0,0,0)" stroke-width="2.0"/>
<line x1="128.7" y1="78.0" x2="120.4" y2="52.4" opacity="1.0" stroke="rgb(0,0,0)" stroke-width="2.0"/>
<line x1="103.4" y1="40.0" x2="76.4" y2="40.0" opacity="1.0" stroke="rgb(0,0,0)" stroke-width="2.0"/>
<line x1="60.8" y1="371.7" x2="84.3" y2="339.3" opacity="1.0" stroke="rgb(0,0,0)" stroke-width="2.0"/>
<line x1="84.3" y1="339.3" x2="124.1" y2="343.5" opacity="1.0" stroke="rgb(0,0,0)" stroke-width="2.0"/>
<line x1="89.5" y1="347.1" x2="117.4" y2="350.0" opacity="1.0" stroke="rgb(0,0,0)" stroke-width="2.0"/>
<line x1="140.4" y1="380.0" x2="116.8" y2="412.4" opacity="1.0" stroke="rgb(0,0,0)" stroke-width="2.0"/>
<line x1="131.0" y1="380.7" x2="114.5" y2="403.3" opacity="1.0" stroke="rgb(0,0,0)" stroke-width="2.0"/>
<line x1="116.8" y1="412.4" x2="77.1" y2="408.2" opacity="1.0" stroke="rgb(0,0,0)" stroke-width="2.0"/>
<line x1="77.1" y1="408.2" x2="60.8" y2="371.7" opacity="1.0" stroke="rgb(0,0,0)" stroke-width="2.0"/>
<line x1="81.2" y1="399.8" x2="69.8" y2="374.2" opacity="1.0" stroke="rgb(0,0,0)" stroke-width="2.0"/>
<line x1="247.9" y1="390.3" x2="209.9" y2="402.6" opacity="1.0" stroke="rgb(0,0,0)" stroke-width="2.0"/>
<line x1="209.9" y1="402.6" x2="180.1" y2="375.9" opacity="1.0" stroke="rgb(0,0,0)" stroke-width="2.0"/>
<line x1="210.2" y1="393.3" x2="189.4" y2="374.5" opacity="1.0" stroke="rgb(0,0,0)" stroke-width="2.0"/>
<line x1="188.4" y1="336.7" x2="226.5" y2="324.4" opacity="1.0" stroke="rgb(0,0,0)" stroke-width="2.0"/>
<line x1="196.4" y1="341.7" x2="223.0" y2="333.1" opacity="1.0" stroke="rgb(0,0,0)" stroke-width="2.0"/>
<line x1="226.5" y1="324.4" x2="256.2" y2="351.1" opacity="1.0" stroke="rgb(0,0,0)" stroke-width="2.0"/>
<line x1="256.2" y1="351.1" x2="247.9" y2="390.3" opacity="1.0" stroke="rgb(0,0,0)" stroke-width="2.0"/>
<line x1="247.9" y1="355.5" x2="242.1" y2="382.9" opacity="1.0" stroke="rgb(0,0,0)" stroke-width="2.0"/>
<line x1="80.7" y1="284.2" x2="44.2" y2="267.9" opacity="1.0" stroke="rgb(0,0,0)" stroke-width="2.0"/>
<line x1="78.2" y1="275.2" x2="52.6" y2="263.8" opacity="1.0" stroke="rgb(0,0,0)" stroke-width="2.0"/>
<line x1="44.2" y1="267.9" x2="40.0" y2="228.1" opacity="1.0" stroke="rgb(0,0,0)" stroke-width="2.0"/>
<line x1="40.0" y1="228.1" x2="72.4" y2="204.6" opacity="1.0" stroke="rgb(0,0,0)" stroke-width="2.0"/>
<line x1="49.1" y1="230.4" x2="71.7" y2="214.0" opacity="1.0" stroke="rgb(0,0,0)" stroke-width="2.0"/>
<line x1="72.4" y1="204.6" x2="108.9" y2="220.9" opacity="1.0" stroke="rgb(0,0,0)" stroke-width="2.0"/>
<line x1="108.9" y1="220.9" x2="113.1" y2="260.7" opacity="1.0" stroke="rgb(0,0,0)" stroke-width="2.0"/>
<line x1="102.4" y1="227.6" x2="105.3" y2="255.5" opacity="1.0" stroke="rgb(0,0,0)" stroke-width="2.0"/>
<line x1="113.1" y1="260.7" x2="80.7" y2="284.2" opacity="1.0" stroke="rgb(0,0,0)" stroke-width="2.0"/>
<line x1="141.3" y1="197.4" x2="108.9" y2="220.9" opacity="1.0" stroke="rgb(0,0,0)" stroke-width="2.0"/>
<line x1="113.1" y1="260.7" x2="149.6" y2="276.9" opacity="1.0" stroke="rgb(0,0,0)" stroke-width="2.0"/>
<line x1="149.6" y1="276.9" x2="182.0" y2="253.4" opacity="1.0" stroke="rgb(0,0,0)" stroke-width="2.0"/>
<line x1="150.2" y1="267.6" x2="172.9" y2="251.1" opacity="1.0" stroke="rgb(0,0,0)" stroke-width="2.0"/>
<line x1="182.0" y1="253.4" x2="177.8" y2="213.7" opacity="1.0" stroke="rgb(0,0,0)" stroke-width="2.0"/>
<line x1="177.8" y1="213.7" x2="141.3" y2="197.4" opacity="1.0" stroke="rgb(0,0,0)" stroke-width="2.0"/>
<line x1="169.4" y1="217.8" x2="143.8" y2="206.4" opacity="1.0" stroke="rgb(0,0,0)" stroke-width="2.0"/>
<line x1="250.9" y1="246.2" x2="246.7" y2="206.4" opacity="1.0" stroke="rgb(0,0,0)" stroke-width="2.0"/>
<line x1="246.7" y1="206.4" x2="210.2" y2="190.1" opacity="1.0" stroke="rgb(0,0,0)" stroke-width="2.0"/>
<line x1="238.3" y1="210.5" x2="212.7" y2="199.2" opacity="1.0" stroke="rgb(0,0,0)" stroke-width="2.0"/>
<line x1="210.2" y1="190.1" x2="177.8" y2="213.7" opacity="1.0" stroke="rgb(0,0,0)" stroke-width="2.0"/>
<line x1="182.0" y1="253.4" x2="218.5" y2="269.7" opacity="1.0" stroke="rgb(0,0,0)" stroke-width="2.0"/>
<line x1="218.5" y1="269.7" x2="250.9" y2="246.2" opacity="1.0" stroke="rgb(0,0,0)" stroke-width="2.0"/>
<line x1="219.2" y1="260.4" x2="241.8" y2="243.9" opacity="1.0" stroke="rgb(0,0,0)" stroke-width="2.0"/>
<line x1="169.4" y1="134.1" x2="165.3" y2="94.3" opacity="1.0" stroke="rgb(0,0,0)" stroke-width="2.0"/>
<line x1="165.3" y1="94.3" x2="128.7" y2="78.0" opacity="1.0" stroke="rgb(0,0,0)" stroke-width="2.0"/>
<line x1="156.9" y1="98.4" x2="131.3" y2="87.1" opacity="1.0" stroke="rgb(0,0,0)" stroke-width="2.0"/>
<line x1="96.4" y1="101.6" x2="100.5" y2="141.3" opacity="1.0" stroke="rgb(0,0,0)" stroke-width="2.0"/>
<line x1="104.1" y1="106.8" x2="107.1" y2="134.6" opacity="1.0" stroke="rgb(0,0,0)" stroke-width="2.0"/>
<line x1="100.5" y1="141.3" x2="137.1" y2="157.6" opacity="1.0" stroke="rgb(0,0,0)" stroke-width="2.0"/>
<line x1="137.1" y1="157.6" x2="169.4" y2="134.1" opacity="1.0" stroke="rgb(0,0,0)" stroke-width="2.0"/>
<line x1="137.7" y1="148.3" x2="160.4" y2="131.8" opacity="1.0" stroke="rgb(0,0,0)" stroke-width="2.0"/>
<text x="110.359082" y="48.000000" fill="rgb(12,12,255)" stroke-width="0" font-weight="bold" font-size="16">N</text>
<text x="110.359082" y="32.000000" fill="rgb(12,12,255)" stroke-width="0" font-weight="bold" font-size="16">H</text>
<text x="147.806593" y="324.727516" fill="rgb(12,12,255)" stroke-width="0" font-weight="bold" font-size="16">N</text>
</svg>
</g>
</svg>