<svg xmlns="http://www.w3.org/2000/svg" xmlns:xlink="http://www.w3.org/1999/xlink" xmlns:cml="http://www.xml-cml.org/schema" version="1.1" id="topsvg" x="0" y="0" viewBox="0 0 100 100">
<title>G_5_K - Open Babel Depiction</title>
<rect x="0" y="0" width="100" height="100" fill="white"/>
<g transform="translate(0,0)">
<svg width="100" height="100" x="0" y="0" viewBox="0 0 446.564 432.408" font-family="sans-serif" stroke="rgb(0,0,0)" stroke-width="2" stroke-linecap="round">
<line x1="302.8" y1="283.8" x2="300.0" y2="257.0" opacity="1.0" stroke="rgb(0,0,0)" stroke-width="2.0"/>
<line x1="63.6" y1="89.8" x2="52.3" y2="98.1" opacity="1.0" stroke="rgb(0,0,0)" stroke-width="2.0"/>
<line x1="60.1" y1="85.0" x2="48.8" y2="93.2" opacity="1.0" stroke="rgb(0,0,0)" stroke-width="2.0"/>
<line x1="71.0" y1="66.9" x2="69.5" y2="52.9" opacity="1.0" stroke="rgb(0,0,0)" stroke-width="2.0"/>
<line x1="108.9" y1="96.1" x2="84.2" y2="85.1" opacity="1.0" stroke="rgb(0,0,0)" stroke-width="2.0"/>
<line x1="218.5" y1="144.9" x2="182.0" y2="128.6" opacity="1.0" stroke="rgb(0,0,0)" stroke-width="2.0"/>
<line x1="338.8" y1="316.7" x2="330.5" y2="355.9" opacity="1.0" stroke="rgb(0,0,0)" stroke-width="2.0"/>
<line x1="330.5" y1="355.9" x2="290.7" y2="360.0" opacity="1.0" stroke="rgb(0,0,0)" stroke-width="2.0"/>
<line x1="290.7" y1="360.0" x2="274.4" y2="323.5" opacity="1.0" stroke="rgb(0,0,0)" stroke-width="2.0"/>
<line x1="274.4" y1="323.5" x2="294.5" y2="305.4" opacity="1.0" stroke="rgb(0,0,0)" stroke-width="2.0"/>
<line x1="315.4" y1="303.2" x2="338.8" y2="316.7" opacity="1.0" stroke="rgb(0,0,0)" stroke-width="2.0"/>
<line x1="211.1" y1="351.7" x2="234.6" y2="319.3" opacity="1.0" stroke="rgb(0,0,0)" stroke-width="2.0"/>
<line x1="234.6" y1="319.3" x2="274.4" y2="323.5" opacity="1.0" stroke="rgb(0,0,0)" stroke-width="2.0"/>
<line x1="239.9" y1="327.1" x2="267.7" y2="330.0" opacity="1.0" stroke="rgb(0,0,0)" stroke-width="2.0"/>
<line x1="290.7" y1="360.0" x2="267.2" y2="392.4" opacity="1.0" stroke="rgb(0,0,0)" stroke-width="2.0"/>
<line x1="281.3" y1="360.7" x2="264.9" y2="383.3" opacity="1.0" stroke="rgb(0,0,0)" stroke-width="2.0"/>
<line x1="267.2" y1="392.4" x2="227.4" y2="388.2" opacity="1.0" stroke="rgb(0,0,0)" stroke-width="2.0"/>
<line x1="227.4" y1="388.2" x2="211.1" y2="351.7" opacity="1.0" stroke="rgb(0,0,0)" stroke-width="2.0"/>
<line x1="231.5" y1="379.8" x2="220.2" y2="354.2" opacity="1.0" stroke="rgb(0,0,0)" stroke-width="2.0"/>
<line x1="398.2" y1="370.3" x2="360.2" y2="382.6" opacity="1.0" stroke="rgb(0,0,0)" stroke-width="2.0"/>
<line x1="360.2" y1="382.6" x2="330.5" y2="355.9" opacity="1.0" stroke="rgb(0,0,0)" stroke-width="2.0"/>
<line x1="360.6" y1="373.3" x2="339.8" y2="354.5" opacity="1.0" stroke="rgb(0,0,0)" stroke-width="2.0"/>
<line x1="338.8" y1="316.7" x2="376.8" y2="304.4" opacity="1.0" stroke="rgb(0,0,0)" stroke-width="2.0"/>
<line x1="346.7" y1="321.7" x2="373.4" y2="313.1" opacity="1.0" stroke="rgb(0,0,0)" stroke-width="2.0"/>
<line x1="376.8" y1="304.4" x2="406.6" y2="331.1" opacity="1.0" stroke="rgb(0,0,0)" stroke-width="2.0"/>
<line x1="406.6" y1="331.1" x2="398.2" y2="370.3" opacity="1.0" stroke="rgb(0,0,0)" stroke-width="2.0"/>
<line x1="398.3" y1="335.5" x2="392.5" y2="362.9" opacity="1.0" stroke="rgb(0,0,0)" stroke-width="2.0"/>
<line x1="332.3" y1="233.4" x2="328.2" y2="193.7" opacity="1.0" stroke="rgb(0,0,0)" stroke-width="2.0"/>
<line x1="328.2" y1="193.7" x2="291.6" y2="177.4" opacity="1.0" stroke="rgb(0,0,0)" stroke-width="2.0"/>
<line x1="319.7" y1="197.8" x2="294.2" y2="186.4" opacity="1.0" stroke="rgb(0,0,0)" stroke-width="2.0"/>
<line x1="291.6" y1="177.4" x2="259.3" y2="200.9" opacity="1.0" stroke="rgb(0,0,0)" stroke-width="2.0"/>
<line x1="259.3" y1="200.9" x2="263.4" y2="240.7" opacity="1.0" stroke="rgb(0,0,0)" stroke-width="2.0"/>
<line x1="267.0" y1="206.1" x2="270.0" y2="234.0" opacity="1.0" stroke="rgb(0,0,0)" stroke-width="2.0"/>
<line x1="263.4" y1="240.7" x2="300.0" y2="257.0" opacity="1.0" stroke="rgb(0,0,0)" stroke-width="2.0"/>
<line x1="300.0" y1="257.0" x2="332.3" y2="233.4" opacity="1.0" stroke="rgb(0,0,0)" stroke-width="2.0"/>
<line x1="300.6" y1="247.6" x2="323.2" y2="231.1" opacity="1.0" stroke="rgb(0,0,0)" stroke-width="2.0"/>
<line x1="218.5" y1="144.9" x2="222.7" y2="184.6" opacity="1.0" stroke="rgb(0,0,0)" stroke-width="2.0"/>
<line x1="226.3" y1="150.1" x2="229.2" y2="177.9" opacity="1.0" stroke="rgb(0,0,0)" stroke-width="2.0"/>
<line x1="222.7" y1="184.6" x2="259.3" y2="200.9" opacity="1.0" stroke="rgb(0,0,0)" stroke-width="2.0"/>
<line x1="291.6" y1="177.4" x2="287.4" y2="137.6" opacity="1.0" stroke="rgb(0,0,0)" stroke-width="2.0"/>
<line x1="287.4" y1="137.6" x2="250.9" y2="121.3" opacity="1.0" stroke="rgb(0,0,0)" stroke-width="2.0"/>
<line x1="279.0" y1="141.8" x2="253.4" y2="130.4" opacity="1.0" stroke="rgb(0,0,0)" stroke-width="2.0"/>
<line x1="250.9" y1="121.3" x2="218.5" y2="144.9" opacity="1.0" stroke="rgb(0,0,0)" stroke-width="2.0"/>
<line x1="177.8" y1="88.8" x2="141.3" y2="72.5" opacity="1.0" stroke="rgb(0,0,0)" stroke-width="2.0"/>
<line x1="141.3" y1="72.5" x2="108.9" y2="96.1" opacity="1.0" stroke="rgb(0,0,0)" stroke-width="2.0"/>
<line x1="140.6" y1="81.9" x2="118.0" y2="98.3" opacity="1.0" stroke="rgb(0,0,0)" stroke-width="2.0"/>
<line x1="108.9" y1="96.1" x2="113.1" y2="135.8" opacity="1.0" stroke="rgb(0,0,0)" stroke-width="2.0"/>
<line x1="113.1" y1="135.8" x2="149.6" y2="152.1" opacity="1.0" stroke="rgb(0,0,0)" stroke-width="2.0"/>
<line x1="121.5" y1="131.7" x2="147.1" y2="143.1" opacity="1.0" stroke="rgb(0,0,0)" stroke-width="2.0"/>
<line x1="149.6" y1="152.1" x2="182.0" y2="128.6" opacity="1.0" stroke="rgb(0,0,0)" stroke-width="2.0"/>
<line x1="182.0" y1="128.6" x2="177.8" y2="88.8" opacity="1.0" stroke="rgb(0,0,0)" stroke-width="2.0"/>
<line x1="174.2" y1="123.4" x2="171.3" y2="95.5" opacity="1.0" stroke="rgb(0,0,0)" stroke-width="2.0"/>
<text x="72.979541" y="35.968000" fill="rgb(255,12,12)" stroke-width="0" font-weight="bold" font-size="16"/>
<text x="72.979541" y="35.968000" fill="rgb(255,12,12)" stroke-width="0" font-weight="bold" font-size="32">.</text>
<text x="62.179541" y="48.000000" fill="rgb(255,12,12)" stroke-width="0" font-weight="bold" font-size="16">O</text>
<text x="34.000000" y="111.292286" fill="rgb(255,12,12)" stroke-width="0" font-weight="bold" font-size="16">O</text>
<text x="66.360680" y="87.780876" fill="rgb(12,12,255)" stroke-width="0" font-weight="bold" font-size="16">N</text>
<text x="298.155005" y="304.740298" fill="rgb(12,12,255)" stroke-width="0" font-weight="bold" font-size="16">N</text>
</svg>
</g>
</svg>