<svg xmlns="http://www.w3.org/2000/svg" x="0" y="0" viewBox="0 0 100 100">
<title>G_6_M - Open Babel Depiction</title>
<rect x="0" y="0" width="100" height="100" fill="white"/>
<g transform="translate(0,0)">
<svg width="100" height="100" x="0" y="0" viewBox="0 0 296.216 493.915" font-family="sans-serif" stroke="rgb(0,0,0)" stroke-width="2" stroke-linecap="round">
<line x1="152.4" y1="345.3" x2="149.6" y2="318.5" opacity="1.0" stroke="rgb(0,0,0)" stroke-width="2.0"/>
<line x1="124.5" y1="79.8" x2="121.7" y2="52.9" opacity="1.0" stroke="rgb(0,0,0)" stroke-width="2.0"/>
<line x1="120.4" y1="80.2" x2="117.5" y2="53.4" opacity="1.0" stroke="rgb(0,0,0)" stroke-width="2.0"/>
<line x1="128.7" y1="79.3" x2="125.9" y2="52.5" opacity="1.0" stroke="rgb(0,0,0)" stroke-width="2.0"/>
<line x1="128.7" y1="119.6" x2="124.5" y2="79.8" opacity="1.0" stroke="rgb(0,0,0)" stroke-width="2.0"/>
<line x1="141.3" y1="238.9" x2="137.1" y2="199.1" opacity="1.0" stroke="rgb(0,0,0)" stroke-width="2.0"/>
<line x1="188.4" y1="378.2" x2="180.1" y2="417.4" opacity="1.0" stroke="rgb(0,0,0)" stroke-width="2.0"/>
<line x1="180.1" y1="417.4" x2="140.4" y2="421.6" opacity="1.0" stroke="rgb(0,0,0)" stroke-width="2.0"/>
<line x1="140.4" y1="421.6" x2="124.1" y2="385.0" opacity="1.0" stroke="rgb(0,0,0)" stroke-width="2.0"/>
<line x1="124.1" y1="385.0" x2="144.1" y2="366.9" opacity="1.0" stroke="rgb(0,0,0)" stroke-width="2.0"/>
<line x1="165.1" y1="364.7" x2="188.4" y2="378.2" opacity="1.0" stroke="rgb(0,0,0)" stroke-width="2.0"/>
<line x1="60.8" y1="413.2" x2="84.3" y2="380.8" opacity="1.0" stroke="rgb(0,0,0)" stroke-width="2.0"/>
<line x1="84.3" y1="380.8" x2="124.1" y2="385.0" opacity="1.0" stroke="rgb(0,0,0)" stroke-width="2.0"/>
<line x1="89.5" y1="388.6" x2="117.4" y2="391.5" opacity="1.0" stroke="rgb(0,0,0)" stroke-width="2.0"/>
<line x1="140.4" y1="421.6" x2="116.8" y2="453.9" opacity="1.0" stroke="rgb(0,0,0)" stroke-width="2.0"/>
<line x1="131.0" y1="422.2" x2="114.5" y2="444.8" opacity="1.0" stroke="rgb(0,0,0)" stroke-width="2.0"/>
<line x1="116.8" y1="453.9" x2="77.1" y2="449.7" opacity="1.0" stroke="rgb(0,0,0)" stroke-width="2.0"/>
<line x1="77.1" y1="449.7" x2="60.8" y2="413.2" opacity="1.0" stroke="rgb(0,0,0)" stroke-width="2.0"/>
<line x1="81.2" y1="441.3" x2="69.8" y2="415.7" opacity="1.0" stroke="rgb(0,0,0)" stroke-width="2.0"/>
<line x1="247.9" y1="431.8" x2="209.9" y2="444.1" opacity="1.0" stroke="rgb(0,0,0)" stroke-width="2.0"/>
<line x1="209.9" y1="444.1" x2="180.1" y2="417.4" opacity="1.0" stroke="rgb(0,0,0)" stroke-width="2.0"/>
<line x1="210.2" y1="434.8" x2="189.4" y2="416.0" opacity="1.0" stroke="rgb(0,0,0)" stroke-width="2.0"/>
<line x1="188.4" y1="378.2" x2="226.5" y2="365.9" opacity="1.0" stroke="rgb(0,0,0)" stroke-width="2.0"/>
<line x1="196.4" y1="383.2" x2="223.0" y2="374.6" opacity="1.0" stroke="rgb(0,0,0)" stroke-width="2.0"/>
<line x1="226.5" y1="365.9" x2="256.2" y2="392.7" opacity="1.0" stroke="rgb(0,0,0)" stroke-width="2.0"/>
<line x1="256.2" y1="392.7" x2="247.9" y2="431.8" opacity="1.0" stroke="rgb(0,0,0)" stroke-width="2.0"/>
<line x1="247.9" y1="397.0" x2="242.1" y2="424.4" opacity="1.0" stroke="rgb(0,0,0)" stroke-width="2.0"/>
<line x1="182.0" y1="295.0" x2="177.8" y2="255.2" opacity="1.0" stroke="rgb(0,0,0)" stroke-width="2.0"/>
<line x1="177.8" y1="255.2" x2="141.3" y2="238.9" opacity="1.0" stroke="rgb(0,0,0)" stroke-width="2.0"/>
<line x1="169.4" y1="259.3" x2="143.8" y2="247.9" opacity="1.0" stroke="rgb(0,0,0)" stroke-width="2.0"/>
<line x1="141.3" y1="238.9" x2="108.9" y2="262.4" opacity="1.0" stroke="rgb(0,0,0)" stroke-width="2.0"/>
<line x1="108.9" y1="262.4" x2="113.1" y2="302.2" opacity="1.0" stroke="rgb(0,0,0)" stroke-width="2.0"/>
<line x1="116.7" y1="267.6" x2="119.6" y2="295.5" opacity="1.0" stroke="rgb(0,0,0)" stroke-width="2.0"/>
<line x1="113.1" y1="302.2" x2="149.6" y2="318.5" opacity="1.0" stroke="rgb(0,0,0)" stroke-width="2.0"/>
<line x1="149.6" y1="318.5" x2="182.0" y2="295.0" opacity="1.0" stroke="rgb(0,0,0)" stroke-width="2.0"/>
<line x1="150.2" y1="309.1" x2="172.9" y2="292.7" opacity="1.0" stroke="rgb(0,0,0)" stroke-width="2.0"/>
<line x1="44.2" y1="309.4" x2="80.7" y2="325.7" opacity="1.0" stroke="rgb(0,0,0)" stroke-width="2.0"/>
<line x1="52.6" y1="305.3" x2="78.2" y2="316.7" opacity="1.0" stroke="rgb(0,0,0)" stroke-width="2.0"/>
<line x1="80.7" y1="325.7" x2="113.1" y2="302.2" opacity="1.0" stroke="rgb(0,0,0)" stroke-width="2.0"/>
<line x1="108.9" y1="262.4" x2="72.4" y2="246.1" opacity="1.0" stroke="rgb(0,0,0)" stroke-width="2.0"/>
<line x1="72.4" y1="246.1" x2="40.0" y2="269.7" opacity="1.0" stroke="rgb(0,0,0)" stroke-width="2.0"/>
<line x1="71.7" y1="255.5" x2="49.1" y2="272.0" opacity="1.0" stroke="rgb(0,0,0)" stroke-width="2.0"/>
<line x1="40.0" y1="269.7" x2="44.2" y2="309.4" opacity="1.0" stroke="rgb(0,0,0)" stroke-width="2.0"/>
<line x1="169.4" y1="175.6" x2="165.3" y2="135.8" opacity="1.0" stroke="rgb(0,0,0)" stroke-width="2.0"/>
<line x1="165.3" y1="135.8" x2="128.7" y2="119.6" opacity="1.0" stroke="rgb(0,0,0)" stroke-width="2.0"/>
<line x1="156.9" y1="140.0" x2="131.3" y2="128.6" opacity="1.0" stroke="rgb(0,0,0)" stroke-width="2.0"/>
<line x1="128.7" y1="119.6" x2="96.4" y2="143.1" opacity="1.0" stroke="rgb(0,0,0)" stroke-width="2.0"/>
<line x1="96.4" y1="143.1" x2="100.5" y2="182.9" opacity="1.0" stroke="rgb(0,0,0)" stroke-width="2.0"/>
<line x1="104.1" y1="148.3" x2="107.1" y2="176.1" opacity="1.0" stroke="rgb(0,0,0)" stroke-width="2.0"/>
<line x1="100.5" y1="182.9" x2="137.1" y2="199.1" opacity="1.0" stroke="rgb(0,0,0)" stroke-width="2.0"/>
<line x1="137.1" y1="199.1" x2="169.4" y2="175.6" opacity="1.0" stroke="rgb(0,0,0)" stroke-width="2.0"/>
<line x1="137.7" y1="189.8" x2="160.4" y2="173.3" opacity="1.0" stroke="rgb(0,0,0)" stroke-width="2.0"/>
<text x="114.357485" y="48.000000" fill="rgb(12,12,255)" stroke-width="0" font-weight="bold" font-size="16">N</text>
<text x="147.806593" y="366.247007" fill="rgb(12,12,255)" stroke-width="0" font-weight="bold" font-size="16">N</text>
</svg>
</g>
</svg>
