<svg xmlns="http://www.w3.org/2000/svg" xmlns:xlink="http://www.w3.org/1999/xlink" xmlns:cml="http://www.xml-cml.org/schema" version="1.1" id="topsvg" x="0" y="0" viewBox="0 0 100 100">
<title>G_7_P - Open Babel Depiction</title>
<rect x="0" y="0" width="100" height="100" fill="white"/>
<g transform="translate(0,0)">
<svg width="100" height="100" x="0" y="0" viewBox="0 0 280.58 533.696" font-family="sans-serif" stroke="rgb(0,0,0)" stroke-width="2" stroke-linecap="round">
<line x1="125.6" y1="278.7" x2="121.4" y2="238.9" opacity="1.0" stroke="rgb(0,0,0)" stroke-width="2.0"/>
<line x1="120.2" y1="241.6" x2="83.7" y2="225.4" opacity="1.0" stroke="rgb(0,0,0)" stroke-width="2.0"/>
<line x1="122.7" y1="236.2" x2="86.1" y2="219.9" opacity="1.0" stroke="rgb(0,0,0)" stroke-width="2.0"/>
<line x1="136.8" y1="385.1" x2="134.0" y2="358.2" opacity="1.0" stroke="rgb(0,0,0)" stroke-width="2.0"/>
<line x1="78.7" y1="55.9" x2="90.0" y2="47.6" opacity="1.0" stroke="rgb(0,0,0)" stroke-width="2.0"/>
<line x1="72.4" y1="103.3" x2="69.5" y2="76.4" opacity="1.0" stroke="rgb(0,0,0)" stroke-width="2.0"/>
<line x1="84.9" y1="222.6" x2="80.7" y2="182.9" opacity="1.0" stroke="rgb(0,0,0)" stroke-width="2.0"/>
<line x1="172.8" y1="418.0" x2="164.5" y2="457.2" opacity="1.0" stroke="rgb(0,0,0)" stroke-width="2.0"/>
<line x1="164.5" y1="457.2" x2="124.7" y2="461.3" opacity="1.0" stroke="rgb(0,0,0)" stroke-width="2.0"/>
<line x1="124.7" y1="461.3" x2="108.4" y2="424.8" opacity="1.0" stroke="rgb(0,0,0)" stroke-width="2.0"/>
<line x1="108.4" y1="424.8" x2="128.5" y2="406.7" opacity="1.0" stroke="rgb(0,0,0)" stroke-width="2.0"/>
<line x1="149.4" y1="404.5" x2="172.8" y2="418.0" opacity="1.0" stroke="rgb(0,0,0)" stroke-width="2.0"/>
<line x1="45.2" y1="453.0" x2="68.7" y2="420.6" opacity="1.0" stroke="rgb(0,0,0)" stroke-width="2.0"/>
<line x1="68.7" y1="420.6" x2="108.4" y2="424.8" opacity="1.0" stroke="rgb(0,0,0)" stroke-width="2.0"/>
<line x1="73.9" y1="428.4" x2="101.7" y2="431.3" opacity="1.0" stroke="rgb(0,0,0)" stroke-width="2.0"/>
<line x1="124.7" y1="461.3" x2="101.2" y2="493.7" opacity="1.0" stroke="rgb(0,0,0)" stroke-width="2.0"/>
<line x1="115.4" y1="462.0" x2="98.9" y2="484.6" opacity="1.0" stroke="rgb(0,0,0)" stroke-width="2.0"/>
<line x1="101.2" y1="493.7" x2="61.4" y2="489.5" opacity="1.0" stroke="rgb(0,0,0)" stroke-width="2.0"/>
<line x1="61.4" y1="489.5" x2="45.2" y2="453.0" opacity="1.0" stroke="rgb(0,0,0)" stroke-width="2.0"/>
<line x1="65.6" y1="481.1" x2="54.2" y2="455.5" opacity="1.0" stroke="rgb(0,0,0)" stroke-width="2.0"/>
<line x1="232.3" y1="471.6" x2="194.2" y2="483.9" opacity="1.0" stroke="rgb(0,0,0)" stroke-width="2.0"/>
<line x1="194.2" y1="483.9" x2="164.5" y2="457.2" opacity="1.0" stroke="rgb(0,0,0)" stroke-width="2.0"/>
<line x1="194.6" y1="474.6" x2="173.8" y2="455.8" opacity="1.0" stroke="rgb(0,0,0)" stroke-width="2.0"/>
<line x1="172.8" y1="418.0" x2="210.9" y2="405.7" opacity="1.0" stroke="rgb(0,0,0)" stroke-width="2.0"/>
<line x1="180.7" y1="423.0" x2="207.4" y2="414.4" opacity="1.0" stroke="rgb(0,0,0)" stroke-width="2.0"/>
<line x1="210.9" y1="405.7" x2="240.6" y2="432.4" opacity="1.0" stroke="rgb(0,0,0)" stroke-width="2.0"/>
<line x1="240.6" y1="432.4" x2="232.3" y2="471.6" opacity="1.0" stroke="rgb(0,0,0)" stroke-width="2.0"/>
<line x1="232.3" y1="436.8" x2="226.5" y2="464.2" opacity="1.0" stroke="rgb(0,0,0)" stroke-width="2.0"/>
<line x1="166.4" y1="334.7" x2="162.2" y2="295.0" opacity="1.0" stroke="rgb(0,0,0)" stroke-width="2.0"/>
<line x1="162.2" y1="295.0" x2="125.6" y2="278.7" opacity="1.0" stroke="rgb(0,0,0)" stroke-width="2.0"/>
<line x1="153.8" y1="299.1" x2="128.2" y2="287.7" opacity="1.0" stroke="rgb(0,0,0)" stroke-width="2.0"/>
<line x1="125.6" y1="278.7" x2="93.3" y2="302.2" opacity="1.0" stroke="rgb(0,0,0)" stroke-width="2.0"/>
<line x1="93.3" y1="302.2" x2="97.4" y2="342.0" opacity="1.0" stroke="rgb(0,0,0)" stroke-width="2.0"/>
<line x1="101.1" y1="307.4" x2="104.0" y2="335.3" opacity="1.0" stroke="rgb(0,0,0)" stroke-width="2.0"/>
<line x1="97.4" y1="342.0" x2="134.0" y2="358.2" opacity="1.0" stroke="rgb(0,0,0)" stroke-width="2.0"/>
<line x1="134.0" y1="358.2" x2="166.4" y2="334.7" opacity="1.0" stroke="rgb(0,0,0)" stroke-width="2.0"/>
<line x1="134.6" y1="348.9" x2="157.3" y2="332.4" opacity="1.0" stroke="rgb(0,0,0)" stroke-width="2.0"/>
<line x1="113.1" y1="159.3" x2="108.9" y2="119.6" opacity="1.0" stroke="rgb(0,0,0)" stroke-width="2.0"/>
<line x1="108.9" y1="119.6" x2="72.4" y2="103.3" opacity="1.0" stroke="rgb(0,0,0)" stroke-width="2.0"/>
<line x1="100.5" y1="123.7" x2="74.9" y2="112.3" opacity="1.0" stroke="rgb(0,0,0)" stroke-width="2.0"/>
<line x1="72.4" y1="103.3" x2="40.0" y2="126.8" opacity="1.0" stroke="rgb(0,0,0)" stroke-width="2.0"/>
<line x1="40.0" y1="126.8" x2="44.2" y2="166.6" opacity="1.0" stroke="rgb(0,0,0)" stroke-width="2.0"/>
<line x1="47.8" y1="132.0" x2="50.7" y2="159.9" opacity="1.0" stroke="rgb(0,0,0)" stroke-width="2.0"/>
<line x1="44.2" y1="166.6" x2="80.7" y2="182.9" opacity="1.0" stroke="rgb(0,0,0)" stroke-width="2.0"/>
<line x1="80.7" y1="182.9" x2="113.1" y2="159.3" opacity="1.0" stroke="rgb(0,0,0)" stroke-width="2.0"/>
<line x1="81.3" y1="173.5" x2="104.0" y2="157.0" opacity="1.0" stroke="rgb(0,0,0)" stroke-width="2.0"/>
<text x="96.540221" y="48.000000" fill="rgb(102,102,102)" stroke-width="0" font-weight="bold" font-size="16">CH</text>
<text x="120.540221" y="51.680000" fill="rgb(102,102,102)" stroke-width="0" font-weight="bold" font-size="13">3</text>
<text x="62.179541" y="71.511410" fill="rgb(255,12,12)" stroke-width="0" font-weight="bold" font-size="16">O</text>
<text x="132.170468" y="406.027882" fill="rgb(12,12,255)" stroke-width="0" font-weight="bold" font-size="16">N</text>
</svg>
</g>
</svg>