<svg xmlns="http://www.w3.org/2000/svg" x="0" y="0" viewBox="0 0 100 100">
<title>G_7_L - Open Babel Depiction</title>
<rect x="0" y="0" width="100" height="100" fill="white"/>
<g transform="translate(0,0)">
<svg width="100" height="100" x="0" y="0" viewBox="0 0 312.94 508.446" font-family="sans-serif" stroke="rgb(0,0,0)" stroke-width="2" stroke-linecap="round">
<line x1="158.0" y1="253.4" x2="153.8" y2="213.7" opacity="1.0" stroke="rgb(0,0,0)" stroke-width="2.0"/>
<line x1="152.6" y1="216.4" x2="116.0" y2="200.1" opacity="1.0" stroke="rgb(0,0,0)" stroke-width="2.0"/>
<line x1="155.0" y1="210.9" x2="118.5" y2="194.6" opacity="1.0" stroke="rgb(0,0,0)" stroke-width="2.0"/>
<line x1="169.2" y1="359.8" x2="166.4" y2="333.0" opacity="1.0" stroke="rgb(0,0,0)" stroke-width="2.0"/>
<line x1="117.3" y1="197.4" x2="113.1" y2="157.6" opacity="1.0" stroke="rgb(0,0,0)" stroke-width="2.0"/>
<line x1="205.2" y1="392.8" x2="196.9" y2="431.9" opacity="1.0" stroke="rgb(0,0,0)" stroke-width="2.0"/>
<line x1="196.9" y1="431.9" x2="157.1" y2="436.1" opacity="1.0" stroke="rgb(0,0,0)" stroke-width="2.0"/>
<line x1="157.1" y1="436.1" x2="140.8" y2="399.5" opacity="1.0" stroke="rgb(0,0,0)" stroke-width="2.0"/>
<line x1="140.8" y1="399.5" x2="160.9" y2="381.5" opacity="1.0" stroke="rgb(0,0,0)" stroke-width="2.0"/>
<line x1="181.8" y1="379.3" x2="205.2" y2="392.8" opacity="1.0" stroke="rgb(0,0,0)" stroke-width="2.0"/>
<line x1="52.4" y1="40.0" x2="40.0" y2="78.0" opacity="1.0" stroke="rgb(0,0,0)" stroke-width="2.0"/>
<line x1="57.4" y1="47.9" x2="48.7" y2="74.6" opacity="1.0" stroke="rgb(0,0,0)" stroke-width="2.0"/>
<line x1="40.0" y1="78.0" x2="72.4" y2="101.6" opacity="1.0" stroke="rgb(0,0,0)" stroke-width="2.0"/>
<line x1="72.4" y1="101.6" x2="104.7" y2="78.0" opacity="1.0" stroke="rgb(0,0,0)" stroke-width="2.0"/>
<line x1="104.7" y1="78.0" x2="96.4" y2="52.4" opacity="1.0" stroke="rgb(0,0,0)" stroke-width="2.0"/>
<line x1="79.4" y1="40.0" x2="52.4" y2="40.0" opacity="1.0" stroke="rgb(0,0,0)" stroke-width="2.0"/>
<line x1="77.5" y1="427.7" x2="101.0" y2="395.4" opacity="1.0" stroke="rgb(0,0,0)" stroke-width="2.0"/>
<line x1="101.0" y1="395.4" x2="140.8" y2="399.5" opacity="1.0" stroke="rgb(0,0,0)" stroke-width="2.0"/>
<line x1="106.2" y1="403.1" x2="134.1" y2="406.1" opacity="1.0" stroke="rgb(0,0,0)" stroke-width="2.0"/>
<line x1="157.1" y1="436.1" x2="133.6" y2="468.4" opacity="1.0" stroke="rgb(0,0,0)" stroke-width="2.0"/>
<line x1="147.7" y1="436.7" x2="131.3" y2="459.4" opacity="1.0" stroke="rgb(0,0,0)" stroke-width="2.0"/>
<line x1="133.6" y1="468.4" x2="93.8" y2="464.3" opacity="1.0" stroke="rgb(0,0,0)" stroke-width="2.0"/>
<line x1="93.8" y1="464.3" x2="77.5" y2="427.7" opacity="1.0" stroke="rgb(0,0,0)" stroke-width="2.0"/>
<line x1="97.9" y1="455.9" x2="86.5" y2="430.3" opacity="1.0" stroke="rgb(0,0,0)" stroke-width="2.0"/>
<line x1="264.6" y1="446.3" x2="226.6" y2="458.7" opacity="1.0" stroke="rgb(0,0,0)" stroke-width="2.0"/>
<line x1="226.6" y1="458.7" x2="196.9" y2="431.9" opacity="1.0" stroke="rgb(0,0,0)" stroke-width="2.0"/>
<line x1="226.9" y1="449.3" x2="206.1" y2="430.6" opacity="1.0" stroke="rgb(0,0,0)" stroke-width="2.0"/>
<line x1="205.2" y1="392.8" x2="243.2" y2="380.4" opacity="1.0" stroke="rgb(0,0,0)" stroke-width="2.0"/>
<line x1="213.1" y1="397.8" x2="239.7" y2="389.1" opacity="1.0" stroke="rgb(0,0,0)" stroke-width="2.0"/>
<line x1="243.2" y1="380.4" x2="272.9" y2="407.2" opacity="1.0" stroke="rgb(0,0,0)" stroke-width="2.0"/>
<line x1="272.9" y1="407.2" x2="264.6" y2="446.3" opacity="1.0" stroke="rgb(0,0,0)" stroke-width="2.0"/>
<line x1="264.7" y1="411.6" x2="258.8" y2="438.9" opacity="1.0" stroke="rgb(0,0,0)" stroke-width="2.0"/>
<line x1="198.7" y1="309.5" x2="194.5" y2="269.7" opacity="1.0" stroke="rgb(0,0,0)" stroke-width="2.0"/>
<line x1="194.5" y1="269.7" x2="158.0" y2="253.4" opacity="1.0" stroke="rgb(0,0,0)" stroke-width="2.0"/>
<line x1="186.1" y1="273.8" x2="160.5" y2="262.5" opacity="1.0" stroke="rgb(0,0,0)" stroke-width="2.0"/>
<line x1="158.0" y1="253.4" x2="125.6" y2="276.9" opacity="1.0" stroke="rgb(0,0,0)" stroke-width="2.0"/>
<line x1="125.6" y1="276.9" x2="129.8" y2="316.7" opacity="1.0" stroke="rgb(0,0,0)" stroke-width="2.0"/>
<line x1="133.4" y1="282.2" x2="136.3" y2="310.0" opacity="1.0" stroke="rgb(0,0,0)" stroke-width="2.0"/>
<line x1="129.8" y1="316.7" x2="166.4" y2="333.0" opacity="1.0" stroke="rgb(0,0,0)" stroke-width="2.0"/>
<line x1="166.4" y1="333.0" x2="198.7" y2="309.5" opacity="1.0" stroke="rgb(0,0,0)" stroke-width="2.0"/>
<line x1="167.0" y1="323.6" x2="189.6" y2="307.2" opacity="1.0" stroke="rgb(0,0,0)" stroke-width="2.0"/>
<line x1="145.4" y1="134.1" x2="141.3" y2="94.3" opacity="1.0" stroke="rgb(0,0,0)" stroke-width="2.0"/>
<line x1="141.3" y1="94.3" x2="104.7" y2="78.0" opacity="1.0" stroke="rgb(0,0,0)" stroke-width="2.0"/>
<line x1="132.9" y1="98.4" x2="107.3" y2="87.1" opacity="1.0" stroke="rgb(0,0,0)" stroke-width="2.0"/>
<line x1="72.4" y1="101.6" x2="76.5" y2="141.3" opacity="1.0" stroke="rgb(0,0,0)" stroke-width="2.0"/>
<line x1="80.1" y1="106.8" x2="83.1" y2="134.6" opacity="1.0" stroke="rgb(0,0,0)" stroke-width="2.0"/>
<line x1="76.5" y1="141.3" x2="113.1" y2="157.6" opacity="1.0" stroke="rgb(0,0,0)" stroke-width="2.0"/>
<line x1="113.1" y1="157.6" x2="145.4" y2="134.1" opacity="1.0" stroke="rgb(0,0,0)" stroke-width="2.0"/>
<line x1="113.7" y1="148.3" x2="136.4" y2="131.8" opacity="1.0" stroke="rgb(0,0,0)" stroke-width="2.0"/>
<text x="86.360680" y="48.000000" fill="rgb(12,12,255)" stroke-width="0" font-weight="bold" font-size="16">N</text>
<text x="86.360680" y="32.000000" fill="rgb(12,12,255)" stroke-width="0" font-weight="bold" font-size="16">H</text>
<text x="164.531148" y="380.777857" fill="rgb(12,12,255)" stroke-width="0" font-weight="bold" font-size="16">N</text>
</svg>
</g>
</svg>
