<svg xmlns="http://www.w3.org/2000/svg" x="0" y="0" viewBox="0 0 100 100">
<title>G_7_M - Open Babel Depiction</title>
<rect x="0" y="0" width="100" height="100" fill="white"/>
<g transform="translate(0,0)">
<svg width="100" height="100" x="0" y="0" viewBox="0 0 280.58 549.965" font-family="sans-serif" stroke="rgb(0,0,0)" stroke-width="2" stroke-linecap="round">
<line x1="125.6" y1="295.0" x2="121.4" y2="255.2" opacity="1.0" stroke="rgb(0,0,0)" stroke-width="2.0"/>
<line x1="120.2" y1="257.9" x2="83.7" y2="241.6" opacity="1.0" stroke="rgb(0,0,0)" stroke-width="2.0"/>
<line x1="122.7" y1="252.4" x2="86.1" y2="236.2" opacity="1.0" stroke="rgb(0,0,0)" stroke-width="2.0"/>
<line x1="136.8" y1="401.4" x2="134.0" y2="374.5" opacity="1.0" stroke="rgb(0,0,0)" stroke-width="2.0"/>
<line x1="68.2" y1="79.8" x2="65.4" y2="52.9" opacity="1.0" stroke="rgb(0,0,0)" stroke-width="2.0"/>
<line x1="64.0" y1="80.2" x2="61.2" y2="53.4" opacity="1.0" stroke="rgb(0,0,0)" stroke-width="2.0"/>
<line x1="72.4" y1="79.3" x2="69.5" y2="52.5" opacity="1.0" stroke="rgb(0,0,0)" stroke-width="2.0"/>
<line x1="72.4" y1="119.6" x2="68.2" y2="79.8" opacity="1.0" stroke="rgb(0,0,0)" stroke-width="2.0"/>
<line x1="84.9" y1="238.9" x2="80.7" y2="199.1" opacity="1.0" stroke="rgb(0,0,0)" stroke-width="2.0"/>
<line x1="172.8" y1="434.3" x2="164.5" y2="473.4" opacity="1.0" stroke="rgb(0,0,0)" stroke-width="2.0"/>
<line x1="164.5" y1="473.4" x2="124.7" y2="477.6" opacity="1.0" stroke="rgb(0,0,0)" stroke-width="2.0"/>
<line x1="124.7" y1="477.6" x2="108.4" y2="441.1" opacity="1.0" stroke="rgb(0,0,0)" stroke-width="2.0"/>
<line x1="108.4" y1="441.1" x2="128.5" y2="423.0" opacity="1.0" stroke="rgb(0,0,0)" stroke-width="2.0"/>
<line x1="149.4" y1="420.8" x2="172.8" y2="434.3" opacity="1.0" stroke="rgb(0,0,0)" stroke-width="2.0"/>
<line x1="45.2" y1="469.2" x2="68.7" y2="436.9" opacity="1.0" stroke="rgb(0,0,0)" stroke-width="2.0"/>
<line x1="68.7" y1="436.9" x2="108.4" y2="441.1" opacity="1.0" stroke="rgb(0,0,0)" stroke-width="2.0"/>
<line x1="73.9" y1="444.7" x2="101.7" y2="447.6" opacity="1.0" stroke="rgb(0,0,0)" stroke-width="2.0"/>
<line x1="124.7" y1="477.6" x2="101.2" y2="510.0" opacity="1.0" stroke="rgb(0,0,0)" stroke-width="2.0"/>
<line x1="115.4" y1="478.2" x2="98.9" y2="500.9" opacity="1.0" stroke="rgb(0,0,0)" stroke-width="2.0"/>
<line x1="101.2" y1="510.0" x2="61.4" y2="505.8" opacity="1.0" stroke="rgb(0,0,0)" stroke-width="2.0"/>
<line x1="61.4" y1="505.8" x2="45.2" y2="469.2" opacity="1.0" stroke="rgb(0,0,0)" stroke-width="2.0"/>
<line x1="65.6" y1="497.4" x2="54.2" y2="471.8" opacity="1.0" stroke="rgb(0,0,0)" stroke-width="2.0"/>
<line x1="232.3" y1="487.8" x2="194.2" y2="500.2" opacity="1.0" stroke="rgb(0,0,0)" stroke-width="2.0"/>
<line x1="194.2" y1="500.2" x2="164.5" y2="473.4" opacity="1.0" stroke="rgb(0,0,0)" stroke-width="2.0"/>
<line x1="194.6" y1="490.8" x2="173.8" y2="472.1" opacity="1.0" stroke="rgb(0,0,0)" stroke-width="2.0"/>
<line x1="172.8" y1="434.3" x2="210.9" y2="421.9" opacity="1.0" stroke="rgb(0,0,0)" stroke-width="2.0"/>
<line x1="180.7" y1="439.3" x2="207.4" y2="430.6" opacity="1.0" stroke="rgb(0,0,0)" stroke-width="2.0"/>
<line x1="210.9" y1="421.9" x2="240.6" y2="448.7" opacity="1.0" stroke="rgb(0,0,0)" stroke-width="2.0"/>
<line x1="240.6" y1="448.7" x2="232.3" y2="487.8" opacity="1.0" stroke="rgb(0,0,0)" stroke-width="2.0"/>
<line x1="232.3" y1="453.1" x2="226.5" y2="480.5" opacity="1.0" stroke="rgb(0,0,0)" stroke-width="2.0"/>
<line x1="166.4" y1="351.0" x2="162.2" y2="311.2" opacity="1.0" stroke="rgb(0,0,0)" stroke-width="2.0"/>
<line x1="162.2" y1="311.2" x2="125.6" y2="295.0" opacity="1.0" stroke="rgb(0,0,0)" stroke-width="2.0"/>
<line x1="153.8" y1="315.4" x2="128.2" y2="304.0" opacity="1.0" stroke="rgb(0,0,0)" stroke-width="2.0"/>
<line x1="125.6" y1="295.0" x2="93.3" y2="318.5" opacity="1.0" stroke="rgb(0,0,0)" stroke-width="2.0"/>
<line x1="93.3" y1="318.5" x2="97.4" y2="358.2" opacity="1.0" stroke="rgb(0,0,0)" stroke-width="2.0"/>
<line x1="101.1" y1="323.7" x2="104.0" y2="351.5" opacity="1.0" stroke="rgb(0,0,0)" stroke-width="2.0"/>
<line x1="97.4" y1="358.2" x2="134.0" y2="374.5" opacity="1.0" stroke="rgb(0,0,0)" stroke-width="2.0"/>
<line x1="134.0" y1="374.5" x2="166.4" y2="351.0" opacity="1.0" stroke="rgb(0,0,0)" stroke-width="2.0"/>
<line x1="134.6" y1="365.2" x2="157.3" y2="348.7" opacity="1.0" stroke="rgb(0,0,0)" stroke-width="2.0"/>
<line x1="113.1" y1="175.6" x2="108.9" y2="135.8" opacity="1.0" stroke="rgb(0,0,0)" stroke-width="2.0"/>
<line x1="108.9" y1="135.8" x2="72.4" y2="119.6" opacity="1.0" stroke="rgb(0,0,0)" stroke-width="2.0"/>
<line x1="100.5" y1="140.0" x2="74.9" y2="128.6" opacity="1.0" stroke="rgb(0,0,0)" stroke-width="2.0"/>
<line x1="72.4" y1="119.6" x2="40.0" y2="143.1" opacity="1.0" stroke="rgb(0,0,0)" stroke-width="2.0"/>
<line x1="40.0" y1="143.1" x2="44.2" y2="182.9" opacity="1.0" stroke="rgb(0,0,0)" stroke-width="2.0"/>
<line x1="47.8" y1="148.3" x2="50.7" y2="176.1" opacity="1.0" stroke="rgb(0,0,0)" stroke-width="2.0"/>
<line x1="44.2" y1="182.9" x2="80.7" y2="199.1" opacity="1.0" stroke="rgb(0,0,0)" stroke-width="2.0"/>
<line x1="80.7" y1="199.1" x2="113.1" y2="175.6" opacity="1.0" stroke="rgb(0,0,0)" stroke-width="2.0"/>
<line x1="81.3" y1="189.8" x2="104.0" y2="173.3" opacity="1.0" stroke="rgb(0,0,0)" stroke-width="2.0"/>
<text x="57.998403" y="48.000000" fill="rgb(12,12,255)" stroke-width="0" font-weight="bold" font-size="16">N</text>
<text x="132.170468" y="422.297348" fill="rgb(12,12,255)" stroke-width="0" font-weight="bold" font-size="16">N</text>
</svg>
</g>
</svg>
