<svg xmlns="http://www.w3.org/2000/svg" xmlns:xlink="http://www.w3.org/1999/xlink" xmlns:cml="http://www.xml-cml.org/schema" version="1.1" id="topsvg" x="0" y="0" viewBox="0 0 100 100">
<title>G_7_T - Open Babel Depiction</title>
<rect x="0" y="0" width="100" height="100" fill="white"/>
<g transform="translate(0,0)">
<svg width="100" height="100" x="0" y="0" viewBox="0 0 280.58 510.184" font-family="sans-serif" stroke="rgb(0,0,0)" stroke-width="2" stroke-linecap="round">
<line x1="125.6" y1="255.2" x2="121.4" y2="215.4" opacity="1.0" stroke="rgb(0,0,0)" stroke-width="2.0"/>
<line x1="120.2" y1="218.1" x2="83.7" y2="201.9" opacity="1.0" stroke="rgb(0,0,0)" stroke-width="2.0"/>
<line x1="122.7" y1="212.7" x2="86.1" y2="196.4" opacity="1.0" stroke="rgb(0,0,0)" stroke-width="2.0"/>
<line x1="136.8" y1="361.6" x2="134.0" y2="334.7" opacity="1.0" stroke="rgb(0,0,0)" stroke-width="2.0"/>
<line x1="72.4" y1="79.8" x2="69.5" y2="52.9" opacity="1.0" stroke="rgb(0,0,0)" stroke-width="2.0"/>
<line x1="84.9" y1="199.1" x2="80.7" y2="159.3" opacity="1.0" stroke="rgb(0,0,0)" stroke-width="2.0"/>
<line x1="172.8" y1="394.5" x2="164.5" y2="433.6" opacity="1.0" stroke="rgb(0,0,0)" stroke-width="2.0"/>
<line x1="164.5" y1="433.6" x2="124.7" y2="437.8" opacity="1.0" stroke="rgb(0,0,0)" stroke-width="2.0"/>
<line x1="124.7" y1="437.8" x2="108.4" y2="401.3" opacity="1.0" stroke="rgb(0,0,0)" stroke-width="2.0"/>
<line x1="108.4" y1="401.3" x2="128.5" y2="383.2" opacity="1.0" stroke="rgb(0,0,0)" stroke-width="2.0"/>
<line x1="149.4" y1="381.0" x2="172.8" y2="394.5" opacity="1.0" stroke="rgb(0,0,0)" stroke-width="2.0"/>
<line x1="45.2" y1="429.5" x2="68.7" y2="397.1" opacity="1.0" stroke="rgb(0,0,0)" stroke-width="2.0"/>
<line x1="68.7" y1="397.1" x2="108.4" y2="401.3" opacity="1.0" stroke="rgb(0,0,0)" stroke-width="2.0"/>
<line x1="73.9" y1="404.9" x2="101.7" y2="407.8" opacity="1.0" stroke="rgb(0,0,0)" stroke-width="2.0"/>
<line x1="124.7" y1="437.8" x2="101.2" y2="470.2" opacity="1.0" stroke="rgb(0,0,0)" stroke-width="2.0"/>
<line x1="115.4" y1="438.4" x2="98.9" y2="461.1" opacity="1.0" stroke="rgb(0,0,0)" stroke-width="2.0"/>
<line x1="101.2" y1="470.2" x2="61.4" y2="466.0" opacity="1.0" stroke="rgb(0,0,0)" stroke-width="2.0"/>
<line x1="61.4" y1="466.0" x2="45.2" y2="429.5" opacity="1.0" stroke="rgb(0,0,0)" stroke-width="2.0"/>
<line x1="65.6" y1="457.6" x2="54.2" y2="432.0" opacity="1.0" stroke="rgb(0,0,0)" stroke-width="2.0"/>
<line x1="232.3" y1="448.0" x2="194.2" y2="460.4" opacity="1.0" stroke="rgb(0,0,0)" stroke-width="2.0"/>
<line x1="194.2" y1="460.4" x2="164.5" y2="433.6" opacity="1.0" stroke="rgb(0,0,0)" stroke-width="2.0"/>
<line x1="194.6" y1="451.0" x2="173.8" y2="432.3" opacity="1.0" stroke="rgb(0,0,0)" stroke-width="2.0"/>
<line x1="172.8" y1="394.5" x2="210.9" y2="382.2" opacity="1.0" stroke="rgb(0,0,0)" stroke-width="2.0"/>
<line x1="180.7" y1="399.5" x2="207.4" y2="390.9" opacity="1.0" stroke="rgb(0,0,0)" stroke-width="2.0"/>
<line x1="210.9" y1="382.2" x2="240.6" y2="408.9" opacity="1.0" stroke="rgb(0,0,0)" stroke-width="2.0"/>
<line x1="240.6" y1="408.9" x2="232.3" y2="448.0" opacity="1.0" stroke="rgb(0,0,0)" stroke-width="2.0"/>
<line x1="232.3" y1="413.3" x2="226.5" y2="440.7" opacity="1.0" stroke="rgb(0,0,0)" stroke-width="2.0"/>
<line x1="166.4" y1="311.2" x2="162.2" y2="271.4" opacity="1.0" stroke="rgb(0,0,0)" stroke-width="2.0"/>
<line x1="162.2" y1="271.4" x2="125.6" y2="255.2" opacity="1.0" stroke="rgb(0,0,0)" stroke-width="2.0"/>
<line x1="153.8" y1="275.6" x2="128.2" y2="264.2" opacity="1.0" stroke="rgb(0,0,0)" stroke-width="2.0"/>
<line x1="125.6" y1="255.2" x2="93.3" y2="278.7" opacity="1.0" stroke="rgb(0,0,0)" stroke-width="2.0"/>
<line x1="93.3" y1="278.7" x2="97.4" y2="318.5" opacity="1.0" stroke="rgb(0,0,0)" stroke-width="2.0"/>
<line x1="101.1" y1="283.9" x2="104.0" y2="311.7" opacity="1.0" stroke="rgb(0,0,0)" stroke-width="2.0"/>
<line x1="97.4" y1="318.5" x2="134.0" y2="334.7" opacity="1.0" stroke="rgb(0,0,0)" stroke-width="2.0"/>
<line x1="134.0" y1="334.7" x2="166.4" y2="311.2" opacity="1.0" stroke="rgb(0,0,0)" stroke-width="2.0"/>
<line x1="134.6" y1="325.4" x2="157.3" y2="308.9" opacity="1.0" stroke="rgb(0,0,0)" stroke-width="2.0"/>
<line x1="113.1" y1="135.8" x2="108.9" y2="96.1" opacity="1.0" stroke="rgb(0,0,0)" stroke-width="2.0"/>
<line x1="108.9" y1="96.1" x2="72.4" y2="79.8" opacity="1.0" stroke="rgb(0,0,0)" stroke-width="2.0"/>
<line x1="100.5" y1="100.2" x2="74.9" y2="88.8" opacity="1.0" stroke="rgb(0,0,0)" stroke-width="2.0"/>
<line x1="72.4" y1="79.8" x2="40.0" y2="103.3" opacity="1.0" stroke="rgb(0,0,0)" stroke-width="2.0"/>
<line x1="40.0" y1="103.3" x2="44.2" y2="143.1" opacity="1.0" stroke="rgb(0,0,0)" stroke-width="2.0"/>
<line x1="47.8" y1="108.5" x2="50.7" y2="136.4" opacity="1.0" stroke="rgb(0,0,0)" stroke-width="2.0"/>
<line x1="44.2" y1="143.1" x2="80.7" y2="159.3" opacity="1.0" stroke="rgb(0,0,0)" stroke-width="2.0"/>
<line x1="80.7" y1="159.3" x2="113.1" y2="135.8" opacity="1.0" stroke="rgb(0,0,0)" stroke-width="2.0"/>
<line x1="81.3" y1="150.0" x2="104.0" y2="133.5" opacity="1.0" stroke="rgb(0,0,0)" stroke-width="2.0"/>
<text x="42.179541" y="48.000000" fill="rgb(102,102,102)" stroke-width="0" font-weight="bold" font-size="16">H</text>
<text x="54.179541" y="51.680000" fill="rgb(102,102,102)" stroke-width="0" font-weight="bold" font-size="13">3</text>
<text x="60.679541" y="48.000000" fill="rgb(102,102,102)" stroke-width="0" font-weight="bold" font-size="16">C</text>
<text x="132.170468" y="382.516472" fill="rgb(12,12,255)" stroke-width="0" font-weight="bold" font-size="16">N</text>
</svg>
</g>
</svg>