<svg xmlns="http://www.w3.org/2000/svg" x="0" y="0" viewBox="0 0 100 100">
<title>G_7_R - Open Babel Depiction</title>
<rect x="0" y="0" width="100" height="100" fill="white"/>
<g transform="translate(0,0)">
<svg width="100" height="100" x="0" y="0" viewBox="0 0 288.942 533.696" font-family="sans-serif" stroke="rgb(0,0,0)" stroke-width="2" stroke-linecap="round">
<line x1="134.0" y1="278.7" x2="129.8" y2="238.9" opacity="1.0" stroke="rgb(0,0,0)" stroke-width="2.0"/>
<line x1="128.6" y1="241.6" x2="92.0" y2="225.4" opacity="1.0" stroke="rgb(0,0,0)" stroke-width="2.0"/>
<line x1="131.0" y1="236.2" x2="94.5" y2="219.9" opacity="1.0" stroke="rgb(0,0,0)" stroke-width="2.0"/>
<line x1="145.2" y1="385.1" x2="142.4" y2="358.2" opacity="1.0" stroke="rgb(0,0,0)" stroke-width="2.0"/>
<line x1="63.4" y1="61.0" x2="50.7" y2="55.3" opacity="1.0" stroke="rgb(0,0,0)" stroke-width="2.0"/>
<line x1="65.9" y1="55.5" x2="53.1" y2="49.8" opacity="1.0" stroke="rgb(0,0,0)" stroke-width="2.0"/>
<line x1="87.1" y1="55.9" x2="98.4" y2="47.6" opacity="1.0" stroke="rgb(0,0,0)" stroke-width="2.0"/>
<line x1="80.7" y1="103.3" x2="77.9" y2="76.4" opacity="1.0" stroke="rgb(0,0,0)" stroke-width="2.0"/>
<line x1="93.3" y1="222.6" x2="89.1" y2="182.9" opacity="1.0" stroke="rgb(0,0,0)" stroke-width="2.0"/>
<line x1="181.2" y1="418.0" x2="172.9" y2="457.2" opacity="1.0" stroke="rgb(0,0,0)" stroke-width="2.0"/>
<line x1="172.9" y1="457.2" x2="133.1" y2="461.3" opacity="1.0" stroke="rgb(0,0,0)" stroke-width="2.0"/>
<line x1="133.1" y1="461.3" x2="116.8" y2="424.8" opacity="1.0" stroke="rgb(0,0,0)" stroke-width="2.0"/>
<line x1="116.8" y1="424.8" x2="136.9" y2="406.7" opacity="1.0" stroke="rgb(0,0,0)" stroke-width="2.0"/>
<line x1="157.8" y1="404.5" x2="181.2" y2="418.0" opacity="1.0" stroke="rgb(0,0,0)" stroke-width="2.0"/>
<line x1="53.5" y1="453.0" x2="77.0" y2="420.6" opacity="1.0" stroke="rgb(0,0,0)" stroke-width="2.0"/>
<line x1="77.0" y1="420.6" x2="116.8" y2="424.8" opacity="1.0" stroke="rgb(0,0,0)" stroke-width="2.0"/>
<line x1="82.2" y1="428.4" x2="110.1" y2="431.3" opacity="1.0" stroke="rgb(0,0,0)" stroke-width="2.0"/>
<line x1="133.1" y1="461.3" x2="109.6" y2="493.7" opacity="1.0" stroke="rgb(0,0,0)" stroke-width="2.0"/>
<line x1="123.7" y1="462.0" x2="107.3" y2="484.6" opacity="1.0" stroke="rgb(0,0,0)" stroke-width="2.0"/>
<line x1="109.6" y1="493.7" x2="69.8" y2="489.5" opacity="1.0" stroke="rgb(0,0,0)" stroke-width="2.0"/>
<line x1="69.8" y1="489.5" x2="53.5" y2="453.0" opacity="1.0" stroke="rgb(0,0,0)" stroke-width="2.0"/>
<line x1="73.9" y1="481.1" x2="62.5" y2="455.5" opacity="1.0" stroke="rgb(0,0,0)" stroke-width="2.0"/>
<line x1="240.6" y1="471.6" x2="202.6" y2="483.9" opacity="1.0" stroke="rgb(0,0,0)" stroke-width="2.0"/>
<line x1="202.6" y1="483.9" x2="172.9" y2="457.2" opacity="1.0" stroke="rgb(0,0,0)" stroke-width="2.0"/>
<line x1="202.9" y1="474.6" x2="182.1" y2="455.8" opacity="1.0" stroke="rgb(0,0,0)" stroke-width="2.0"/>
<line x1="181.2" y1="418.0" x2="219.2" y2="405.7" opacity="1.0" stroke="rgb(0,0,0)" stroke-width="2.0"/>
<line x1="189.1" y1="423.0" x2="215.7" y2="414.4" opacity="1.0" stroke="rgb(0,0,0)" stroke-width="2.0"/>
<line x1="219.2" y1="405.7" x2="248.9" y2="432.4" opacity="1.0" stroke="rgb(0,0,0)" stroke-width="2.0"/>
<line x1="248.9" y1="432.4" x2="240.6" y2="471.6" opacity="1.0" stroke="rgb(0,0,0)" stroke-width="2.0"/>
<line x1="240.7" y1="436.8" x2="234.8" y2="464.2" opacity="1.0" stroke="rgb(0,0,0)" stroke-width="2.0"/>
<line x1="174.7" y1="334.7" x2="170.5" y2="295.0" opacity="1.0" stroke="rgb(0,0,0)" stroke-width="2.0"/>
<line x1="170.5" y1="295.0" x2="134.0" y2="278.7" opacity="1.0" stroke="rgb(0,0,0)" stroke-width="2.0"/>
<line x1="162.1" y1="299.1" x2="136.5" y2="287.7" opacity="1.0" stroke="rgb(0,0,0)" stroke-width="2.0"/>
<line x1="134.0" y1="278.7" x2="101.6" y2="302.2" opacity="1.0" stroke="rgb(0,0,0)" stroke-width="2.0"/>
<line x1="101.6" y1="302.2" x2="105.8" y2="342.0" opacity="1.0" stroke="rgb(0,0,0)" stroke-width="2.0"/>
<line x1="109.4" y1="307.4" x2="112.3" y2="335.3" opacity="1.0" stroke="rgb(0,0,0)" stroke-width="2.0"/>
<line x1="105.8" y1="342.0" x2="142.4" y2="358.2" opacity="1.0" stroke="rgb(0,0,0)" stroke-width="2.0"/>
<line x1="142.4" y1="358.2" x2="174.7" y2="334.7" opacity="1.0" stroke="rgb(0,0,0)" stroke-width="2.0"/>
<line x1="143.0" y1="348.9" x2="165.6" y2="332.4" opacity="1.0" stroke="rgb(0,0,0)" stroke-width="2.0"/>
<line x1="120.1" y1="146.4" x2="117.3" y2="119.6" opacity="1.0" stroke="rgb(0,0,0)" stroke-width="2.0"/>
<line x1="117.3" y1="119.6" x2="80.7" y2="103.3" opacity="1.0" stroke="rgb(0,0,0)" stroke-width="2.0"/>
<line x1="108.9" y1="123.7" x2="83.3" y2="112.3" opacity="1.0" stroke="rgb(0,0,0)" stroke-width="2.0"/>
<line x1="80.7" y1="103.3" x2="48.4" y2="126.8" opacity="1.0" stroke="rgb(0,0,0)" stroke-width="2.0"/>
<line x1="48.4" y1="126.8" x2="52.5" y2="166.6" opacity="1.0" stroke="rgb(0,0,0)" stroke-width="2.0"/>
<line x1="56.2" y1="132.0" x2="59.1" y2="159.9" opacity="1.0" stroke="rgb(0,0,0)" stroke-width="2.0"/>
<line x1="52.5" y1="166.6" x2="89.1" y2="182.9" opacity="1.0" stroke="rgb(0,0,0)" stroke-width="2.0"/>
<line x1="89.1" y1="182.9" x2="110.8" y2="167.1" opacity="1.0" stroke="rgb(0,0,0)" stroke-width="2.0"/>
<line x1="89.7" y1="173.5" x2="104.9" y2="162.5" opacity="1.0" stroke="rgb(0,0,0)" stroke-width="2.0"/>
<text x="113.702498" y="35.968000" fill="rgb(255,12,12)" stroke-width="0" font-weight="bold" font-size="16"/>
<text x="113.702498" y="35.968000" fill="rgb(255,12,12)" stroke-width="0" font-weight="bold" font-size="32">.</text>
<text x="102.902498" y="48.000000" fill="rgb(255,12,12)" stroke-width="0" font-weight="bold" font-size="16">O</text>
<text x="34.000000" y="55.241944" fill="rgb(255,12,12)" stroke-width="0" font-weight="bold" font-size="16">O</text>
<text x="70.541818" y="71.511410" fill="rgb(12,12,255)" stroke-width="0" font-weight="bold" font-size="16">N</text>
<text x="115.445914" y="167.342627" fill="rgb(12,12,255)" stroke-width="0" font-weight="bold" font-size="16">N</text>
<text x="140.532745" y="406.027882" fill="rgb(12,12,255)" stroke-width="0" font-weight="bold" font-size="16">N</text>
</svg>
</g>
</svg>
