<svg xmlns="http://www.w3.org/2000/svg" x="0" y="0" viewBox="0 0 100 100">
<title>G_7_Q - Open Babel Depiction</title>
<rect x="0" y="0" width="100" height="100" fill="white"/>
<g transform="translate(0,0)">
<svg width="100" height="100" x="0" y="0" viewBox="0 0 280.58 470.403" font-family="sans-serif" stroke="rgb(0,0,0)" stroke-width="2" stroke-linecap="round">
<line x1="125.6" y1="215.4" x2="121.4" y2="175.6" opacity="1.0" stroke="rgb(0,0,0)" stroke-width="2.0"/>
<line x1="120.2" y1="178.4" x2="83.7" y2="162.1" opacity="1.0" stroke="rgb(0,0,0)" stroke-width="2.0"/>
<line x1="122.7" y1="172.9" x2="86.1" y2="156.6" opacity="1.0" stroke="rgb(0,0,0)" stroke-width="2.0"/>
<line x1="136.8" y1="321.8" x2="134.0" y2="295.0" opacity="1.0" stroke="rgb(0,0,0)" stroke-width="2.0"/>
<line x1="84.9" y1="159.3" x2="80.7" y2="119.6" opacity="1.0" stroke="rgb(0,0,0)" stroke-width="2.0"/>
<line x1="172.8" y1="354.7" x2="164.5" y2="393.9" opacity="1.0" stroke="rgb(0,0,0)" stroke-width="2.0"/>
<line x1="164.5" y1="393.9" x2="124.7" y2="398.0" opacity="1.0" stroke="rgb(0,0,0)" stroke-width="2.0"/>
<line x1="124.7" y1="398.0" x2="108.4" y2="361.5" opacity="1.0" stroke="rgb(0,0,0)" stroke-width="2.0"/>
<line x1="108.4" y1="361.5" x2="128.5" y2="343.4" opacity="1.0" stroke="rgb(0,0,0)" stroke-width="2.0"/>
<line x1="149.4" y1="341.2" x2="172.8" y2="354.7" opacity="1.0" stroke="rgb(0,0,0)" stroke-width="2.0"/>
<line x1="45.2" y1="389.7" x2="68.7" y2="357.3" opacity="1.0" stroke="rgb(0,0,0)" stroke-width="2.0"/>
<line x1="68.7" y1="357.3" x2="108.4" y2="361.5" opacity="1.0" stroke="rgb(0,0,0)" stroke-width="2.0"/>
<line x1="73.9" y1="365.1" x2="101.7" y2="368.0" opacity="1.0" stroke="rgb(0,0,0)" stroke-width="2.0"/>
<line x1="124.7" y1="398.0" x2="101.2" y2="430.4" opacity="1.0" stroke="rgb(0,0,0)" stroke-width="2.0"/>
<line x1="115.4" y1="398.7" x2="98.9" y2="421.3" opacity="1.0" stroke="rgb(0,0,0)" stroke-width="2.0"/>
<line x1="101.2" y1="430.4" x2="61.4" y2="426.2" opacity="1.0" stroke="rgb(0,0,0)" stroke-width="2.0"/>
<line x1="61.4" y1="426.2" x2="45.2" y2="389.7" opacity="1.0" stroke="rgb(0,0,0)" stroke-width="2.0"/>
<line x1="65.6" y1="417.8" x2="54.2" y2="392.2" opacity="1.0" stroke="rgb(0,0,0)" stroke-width="2.0"/>
<line x1="232.3" y1="408.3" x2="194.2" y2="420.6" opacity="1.0" stroke="rgb(0,0,0)" stroke-width="2.0"/>
<line x1="194.2" y1="420.6" x2="164.5" y2="393.9" opacity="1.0" stroke="rgb(0,0,0)" stroke-width="2.0"/>
<line x1="194.6" y1="411.3" x2="173.8" y2="392.5" opacity="1.0" stroke="rgb(0,0,0)" stroke-width="2.0"/>
<line x1="172.8" y1="354.7" x2="210.9" y2="342.4" opacity="1.0" stroke="rgb(0,0,0)" stroke-width="2.0"/>
<line x1="180.7" y1="359.7" x2="207.4" y2="351.1" opacity="1.0" stroke="rgb(0,0,0)" stroke-width="2.0"/>
<line x1="210.9" y1="342.4" x2="240.6" y2="369.1" opacity="1.0" stroke="rgb(0,0,0)" stroke-width="2.0"/>
<line x1="240.6" y1="369.1" x2="232.3" y2="408.3" opacity="1.0" stroke="rgb(0,0,0)" stroke-width="2.0"/>
<line x1="232.3" y1="373.5" x2="226.5" y2="400.9" opacity="1.0" stroke="rgb(0,0,0)" stroke-width="2.0"/>
<line x1="166.4" y1="271.4" x2="162.2" y2="231.7" opacity="1.0" stroke="rgb(0,0,0)" stroke-width="2.0"/>
<line x1="162.2" y1="231.7" x2="125.6" y2="215.4" opacity="1.0" stroke="rgb(0,0,0)" stroke-width="2.0"/>
<line x1="153.8" y1="235.8" x2="128.2" y2="224.4" opacity="1.0" stroke="rgb(0,0,0)" stroke-width="2.0"/>
<line x1="125.6" y1="215.4" x2="93.3" y2="238.9" opacity="1.0" stroke="rgb(0,0,0)" stroke-width="2.0"/>
<line x1="93.3" y1="238.9" x2="97.4" y2="278.7" opacity="1.0" stroke="rgb(0,0,0)" stroke-width="2.0"/>
<line x1="101.1" y1="244.1" x2="104.0" y2="272.0" opacity="1.0" stroke="rgb(0,0,0)" stroke-width="2.0"/>
<line x1="97.4" y1="278.7" x2="134.0" y2="295.0" opacity="1.0" stroke="rgb(0,0,0)" stroke-width="2.0"/>
<line x1="134.0" y1="295.0" x2="166.4" y2="271.4" opacity="1.0" stroke="rgb(0,0,0)" stroke-width="2.0"/>
<line x1="134.6" y1="285.6" x2="157.3" y2="269.1" opacity="1.0" stroke="rgb(0,0,0)" stroke-width="2.0"/>
<line x1="111.7" y1="83.1" x2="108.9" y2="56.3" opacity="1.0" stroke="rgb(0,0,0)" stroke-width="2.0"/>
<line x1="108.9" y1="56.3" x2="72.4" y2="40.0" opacity="1.0" stroke="rgb(0,0,0)" stroke-width="2.0"/>
<line x1="100.5" y1="60.4" x2="74.9" y2="49.0" opacity="1.0" stroke="rgb(0,0,0)" stroke-width="2.0"/>
<line x1="72.4" y1="40.0" x2="50.5" y2="55.9" opacity="1.0" stroke="rgb(0,0,0)" stroke-width="2.0"/>
<line x1="41.4" y1="76.6" x2="44.2" y2="103.3" opacity="1.0" stroke="rgb(0,0,0)" stroke-width="2.0"/>
<line x1="48.7" y1="77.9" x2="50.7" y2="96.6" opacity="1.0" stroke="rgb(0,0,0)" stroke-width="2.0"/>
<line x1="44.2" y1="103.3" x2="80.7" y2="119.6" opacity="1.0" stroke="rgb(0,0,0)" stroke-width="2.0"/>
<line x1="80.7" y1="119.6" x2="102.4" y2="103.8" opacity="1.0" stroke="rgb(0,0,0)" stroke-width="2.0"/>
<line x1="81.3" y1="110.2" x2="96.6" y2="99.2" opacity="1.0" stroke="rgb(0,0,0)" stroke-width="2.0"/>
<text x="34.000000" y="71.511410" fill="rgb(12,12,255)" stroke-width="0" font-weight="bold" font-size="16">N</text>
<text x="107.083637" y="104.050342" fill="rgb(12,12,255)" stroke-width="0" font-weight="bold" font-size="16">N</text>
<text x="132.170468" y="342.735596" fill="rgb(12,12,255)" stroke-width="0" font-weight="bold" font-size="16">N</text>
</svg>
</g>
</svg>
