<svg xmlns="http://www.w3.org/2000/svg" xmlns:xlink="http://www.w3.org/1999/xlink" xmlns:cml="http://www.xml-cml.org/schema" version="1.1" id="topsvg" x="0" y="0" viewBox="0 0 100 100">
<title>G_8_O - Open Babel Depiction</title>
<rect x="0" y="0" width="100" height="100" fill="white"/>
<g transform="translate(0,0)">
<svg width="100" height="100" x="0" y="0" viewBox="0 0 476.529 349.371" font-family="sans-serif" stroke="rgb(0,0,0)" stroke-width="2" stroke-linecap="round">
<line x1="331.9" y1="195.1" x2="218.7" y2="129.7" opacity="1.0" stroke="rgb(0,0,0)" stroke-width="2.0"/>
<line x1="147.2" y1="122.2" x2="111.5" y2="118.4" opacity="1.0" stroke="rgb(0,0,0)" stroke-width="2.0"/>
<line x1="374.3" y1="183.6" x2="405.4" y2="201.5" opacity="1.0" stroke="rgb(0,0,0)" stroke-width="2.0"/>
<line x1="405.4" y1="201.5" x2="374.3" y2="255.5" opacity="1.0" stroke="rgb(0,0,0)" stroke-width="2.0"/>
<line x1="374.3" y1="255.5" x2="343.1" y2="237.5" opacity="1.0" stroke="rgb(0,0,0)" stroke-width="2.0"/>
<line x1="343.1" y1="237.5" x2="343.1" y2="214.6" opacity="1.0" stroke="rgb(0,0,0)" stroke-width="2.0"/>
<line x1="354.4" y1="195.1" x2="374.3" y2="183.6" opacity="1.0" stroke="rgb(0,0,0)" stroke-width="2.0"/>
<line x1="201.6" y1="48.7" x2="209.0" y2="55.3" opacity="1.0" stroke="rgb(0,0,0)" stroke-width="2.0"/>
<line x1="213.8" y1="74.9" x2="204.1" y2="96.9" opacity="1.0" stroke="rgb(0,0,0)" stroke-width="2.0"/>
<line x1="206.3" y1="74.1" x2="199.9" y2="88.5" opacity="1.0" stroke="rgb(0,0,0)" stroke-width="2.0"/>
<line x1="204.1" y1="96.9" x2="168.3" y2="93.1" opacity="1.0" stroke="rgb(0,0,0)" stroke-width="2.0"/>
<line x1="168.3" y1="93.1" x2="163.3" y2="69.6" opacity="1.0" stroke="rgb(0,0,0)" stroke-width="2.0"/>
<line x1="174.1" y1="85.7" x2="170.9" y2="70.4" opacity="1.0" stroke="rgb(0,0,0)" stroke-width="2.0"/>
<line x1="172.1" y1="51.5" x2="180.7" y2="46.5" opacity="1.0" stroke="rgb(0,0,0)" stroke-width="2.0"/>
<line x1="312.0" y1="291.4" x2="312.0" y2="255.5" opacity="1.0" stroke="rgb(0,0,0)" stroke-width="2.0"/>
<line x1="312.0" y1="255.5" x2="343.1" y2="237.5" opacity="1.0" stroke="rgb(0,0,0)" stroke-width="2.0"/>
<line x1="320.8" y1="258.7" x2="341.5" y2="246.7" opacity="1.0" stroke="rgb(0,0,0)" stroke-width="2.0"/>
<line x1="374.3" y1="255.5" x2="374.3" y2="291.4" opacity="1.0" stroke="rgb(0,0,0)" stroke-width="2.0"/>
<line x1="367.1" y1="261.5" x2="367.1" y2="285.4" opacity="1.0" stroke="rgb(0,0,0)" stroke-width="2.0"/>
<line x1="374.3" y1="291.4" x2="343.2" y2="309.4" opacity="1.0" stroke="rgb(0,0,0)" stroke-width="2.0"/>
<line x1="343.2" y1="309.4" x2="312.0" y2="291.4" opacity="1.0" stroke="rgb(0,0,0)" stroke-width="2.0"/>
<line x1="341.6" y1="300.1" x2="320.8" y2="288.2" opacity="1.0" stroke="rgb(0,0,0)" stroke-width="2.0"/>
<line x1="436.5" y1="147.6" x2="436.5" y2="183.6" opacity="1.0" stroke="rgb(0,0,0)" stroke-width="2.0"/>
<line x1="436.5" y1="183.6" x2="405.4" y2="201.5" opacity="1.0" stroke="rgb(0,0,0)" stroke-width="2.0"/>
<line x1="427.7" y1="180.3" x2="407.0" y2="192.3" opacity="1.0" stroke="rgb(0,0,0)" stroke-width="2.0"/>
<line x1="374.3" y1="183.6" x2="374.3" y2="147.6" opacity="1.0" stroke="rgb(0,0,0)" stroke-width="2.0"/>
<line x1="381.5" y1="177.6" x2="381.5" y2="153.6" opacity="1.0" stroke="rgb(0,0,0)" stroke-width="2.0"/>
<line x1="374.3" y1="147.6" x2="405.4" y2="129.7" opacity="1.0" stroke="rgb(0,0,0)" stroke-width="2.0"/>
<line x1="405.4" y1="129.7" x2="436.5" y2="147.6" opacity="1.0" stroke="rgb(0,0,0)" stroke-width="2.0"/>
<line x1="407.0" y1="138.9" x2="427.7" y2="150.9" opacity="1.0" stroke="rgb(0,0,0)" stroke-width="2.0"/>
<line x1="197.6" y1="158.8" x2="161.8" y2="155.0" opacity="1.0" stroke="rgb(0,0,0)" stroke-width="2.0"/>
<line x1="161.8" y1="155.0" x2="147.2" y2="122.2" opacity="1.0" stroke="rgb(0,0,0)" stroke-width="2.0"/>
<line x1="166.0" y1="146.6" x2="156.2" y2="124.7" opacity="1.0" stroke="rgb(0,0,0)" stroke-width="2.0"/>
<line x1="147.2" y1="122.2" x2="168.3" y2="93.1" opacity="1.0" stroke="rgb(0,0,0)" stroke-width="2.0"/>
<line x1="204.1" y1="96.9" x2="218.7" y2="129.7" opacity="1.0" stroke="rgb(0,0,0)" stroke-width="2.0"/>
<line x1="218.7" y1="129.7" x2="197.6" y2="158.8" opacity="1.0" stroke="rgb(0,0,0)" stroke-width="2.0"/>
<line x1="209.3" y1="130.3" x2="195.3" y2="149.7" opacity="1.0" stroke="rgb(0,0,0)" stroke-width="2.0"/>
<line x1="77.4" y1="146.1" x2="54.6" y2="143.7" opacity="1.0" stroke="rgb(0,0,0)" stroke-width="2.0"/>
<line x1="54.6" y1="143.7" x2="40.0" y2="110.9" opacity="1.0" stroke="rgb(0,0,0)" stroke-width="2.0"/>
<line x1="58.8" y1="135.3" x2="49.0" y2="113.5" opacity="1.0" stroke="rgb(0,0,0)" stroke-width="2.0"/>
<line x1="40.0" y1="110.9" x2="61.1" y2="81.8" opacity="1.0" stroke="rgb(0,0,0)" stroke-width="2.0"/>
<line x1="61.1" y1="81.8" x2="96.9" y2="85.6" opacity="1.0" stroke="rgb(0,0,0)" stroke-width="2.0"/>
<line x1="66.3" y1="89.6" x2="90.1" y2="92.1" opacity="1.0" stroke="rgb(0,0,0)" stroke-width="2.0"/>
<line x1="96.9" y1="85.6" x2="111.5" y2="118.4" opacity="1.0" stroke="rgb(0,0,0)" stroke-width="2.0"/>
<line x1="111.5" y1="118.4" x2="97.3" y2="137.9" opacity="1.0" stroke="rgb(0,0,0)" stroke-width="2.0"/>
<line x1="102.1" y1="119.0" x2="92.9" y2="131.7" opacity="1.0" stroke="rgb(0,0,0)" stroke-width="2.0"/>
<text x="84.348374" y="155.492561" fill="rgb(12,12,255)" stroke-width="0" font-weight="bold" font-size="16">N</text>
<text x="212.669955" y="72.042414" fill="rgb(12,12,255)" stroke-width="0" font-weight="bold" font-size="16">N</text>
<text x="185.968149" y="48.000000" fill="rgb(178,178,0)" stroke-width="0" font-weight="bold" font-size="16">S</text>
<text x="154.851143" y="65.965412" fill="rgb(12,12,255)" stroke-width="0" font-weight="bold" font-size="16">N</text>
<text x="337.137980" y="209.552943" fill="rgb(12,12,255)" stroke-width="0" font-weight="bold" font-size="16">N</text>
</svg>
</g>
</svg>