<svg xmlns="http://www.w3.org/2000/svg" x="0" y="0" viewBox="0 0 100 100">
<title>G_8_N - Open Babel Depiction</title>
<rect x="0" y="0" width="100" height="100" fill="white"/>
<g transform="translate(0,0)">
<svg width="100" height="100" x="0" y="0" viewBox="0 0 286.439 398.098" font-family="sans-serif" stroke="rgb(0,0,0)" stroke-width="2" stroke-linecap="round">
<line x1="142.7" y1="249.5" x2="139.8" y2="222.6" opacity="1.0" stroke="rgb(0,0,0)" stroke-width="2.0"/>
<line x1="131.5" y1="143.1" x2="127.3" y2="103.3" opacity="1.0" stroke="rgb(0,0,0)" stroke-width="2.0"/>
<line x1="178.7" y1="282.4" x2="170.4" y2="321.6" opacity="1.0" stroke="rgb(0,0,0)" stroke-width="2.0"/>
<line x1="170.4" y1="321.6" x2="130.6" y2="325.7" opacity="1.0" stroke="rgb(0,0,0)" stroke-width="2.0"/>
<line x1="130.6" y1="325.7" x2="114.3" y2="289.2" opacity="1.0" stroke="rgb(0,0,0)" stroke-width="2.0"/>
<line x1="114.3" y1="289.2" x2="134.4" y2="271.1" opacity="1.0" stroke="rgb(0,0,0)" stroke-width="2.0"/>
<line x1="155.3" y1="268.9" x2="178.7" y2="282.4" opacity="1.0" stroke="rgb(0,0,0)" stroke-width="2.0"/>
<line x1="48.7" y1="202.6" x2="58.1" y2="213.0" opacity="1.0" stroke="rgb(0,0,0)" stroke-width="2.0"/>
<line x1="78.8" y1="217.3" x2="103.3" y2="206.4" opacity="1.0" stroke="rgb(0,0,0)" stroke-width="2.0"/>
<line x1="77.7" y1="209.9" x2="94.9" y2="202.2" opacity="1.0" stroke="rgb(0,0,0)" stroke-width="2.0"/>
<line x1="103.3" y1="206.4" x2="99.1" y2="166.6" opacity="1.0" stroke="rgb(0,0,0)" stroke-width="2.0"/>
<line x1="99.1" y1="166.6" x2="72.9" y2="161.0" opacity="1.0" stroke="rgb(0,0,0)" stroke-width="2.0"/>
<line x1="91.8" y1="172.4" x2="73.4" y2="168.5" opacity="1.0" stroke="rgb(0,0,0)" stroke-width="2.0"/>
<line x1="53.5" y1="169.5" x2="46.5" y2="181.7" opacity="1.0" stroke="rgb(0,0,0)" stroke-width="2.0"/>
<line x1="157.0" y1="76.5" x2="146.0" y2="51.9" opacity="1.0" stroke="rgb(0,0,0)" stroke-width="2.0"/>
<line x1="127.8" y1="41.4" x2="101.0" y2="44.2" opacity="1.0" stroke="rgb(0,0,0)" stroke-width="2.0"/>
<line x1="101.0" y1="44.2" x2="92.7" y2="83.3" opacity="1.0" stroke="rgb(0,0,0)" stroke-width="2.0"/>
<line x1="106.8" y1="51.5" x2="101.0" y2="78.9" opacity="1.0" stroke="rgb(0,0,0)" stroke-width="2.0"/>
<line x1="92.7" y1="83.3" x2="127.3" y2="103.3" opacity="1.0" stroke="rgb(0,0,0)" stroke-width="2.0"/>
<line x1="127.3" y1="103.3" x2="157.0" y2="76.5" opacity="1.0" stroke="rgb(0,0,0)" stroke-width="2.0"/>
<line x1="126.9" y1="93.9" x2="147.8" y2="75.2" opacity="1.0" stroke="rgb(0,0,0)" stroke-width="2.0"/>
<line x1="51.0" y1="317.4" x2="74.5" y2="285.0" opacity="1.0" stroke="rgb(0,0,0)" stroke-width="2.0"/>
<line x1="74.5" y1="285.0" x2="114.3" y2="289.2" opacity="1.0" stroke="rgb(0,0,0)" stroke-width="2.0"/>
<line x1="79.7" y1="292.8" x2="107.6" y2="295.7" opacity="1.0" stroke="rgb(0,0,0)" stroke-width="2.0"/>
<line x1="130.6" y1="325.7" x2="107.1" y2="358.1" opacity="1.0" stroke="rgb(0,0,0)" stroke-width="2.0"/>
<line x1="121.2" y1="326.4" x2="104.8" y2="349.0" opacity="1.0" stroke="rgb(0,0,0)" stroke-width="2.0"/>
<line x1="107.1" y1="358.1" x2="67.3" y2="353.9" opacity="1.0" stroke="rgb(0,0,0)" stroke-width="2.0"/>
<line x1="67.3" y1="353.9" x2="51.0" y2="317.4" opacity="1.0" stroke="rgb(0,0,0)" stroke-width="2.0"/>
<line x1="71.4" y1="345.5" x2="60.0" y2="319.9" opacity="1.0" stroke="rgb(0,0,0)" stroke-width="2.0"/>
<line x1="238.1" y1="336.0" x2="200.1" y2="348.3" opacity="1.0" stroke="rgb(0,0,0)" stroke-width="2.0"/>
<line x1="200.1" y1="348.3" x2="170.4" y2="321.6" opacity="1.0" stroke="rgb(0,0,0)" stroke-width="2.0"/>
<line x1="200.4" y1="339.0" x2="179.6" y2="320.2" opacity="1.0" stroke="rgb(0,0,0)" stroke-width="2.0"/>
<line x1="178.7" y1="282.4" x2="216.7" y2="270.1" opacity="1.0" stroke="rgb(0,0,0)" stroke-width="2.0"/>
<line x1="186.6" y1="287.4" x2="213.2" y2="278.8" opacity="1.0" stroke="rgb(0,0,0)" stroke-width="2.0"/>
<line x1="216.7" y1="270.1" x2="246.4" y2="296.8" opacity="1.0" stroke="rgb(0,0,0)" stroke-width="2.0"/>
<line x1="246.4" y1="296.8" x2="238.1" y2="336.0" opacity="1.0" stroke="rgb(0,0,0)" stroke-width="2.0"/>
<line x1="238.1" y1="301.2" x2="232.3" y2="328.6" opacity="1.0" stroke="rgb(0,0,0)" stroke-width="2.0"/>
<line x1="172.2" y1="199.1" x2="168.0" y2="159.4" opacity="1.0" stroke="rgb(0,0,0)" stroke-width="2.0"/>
<line x1="168.0" y1="159.4" x2="131.5" y2="143.1" opacity="1.0" stroke="rgb(0,0,0)" stroke-width="2.0"/>
<line x1="159.6" y1="163.5" x2="134.0" y2="152.1" opacity="1.0" stroke="rgb(0,0,0)" stroke-width="2.0"/>
<line x1="131.5" y1="143.1" x2="99.1" y2="166.6" opacity="1.0" stroke="rgb(0,0,0)" stroke-width="2.0"/>
<line x1="103.3" y1="206.4" x2="139.8" y2="222.6" opacity="1.0" stroke="rgb(0,0,0)" stroke-width="2.0"/>
<line x1="139.8" y1="222.6" x2="172.2" y2="199.1" opacity="1.0" stroke="rgb(0,0,0)" stroke-width="2.0"/>
<line x1="140.5" y1="213.3" x2="163.1" y2="196.8" opacity="1.0" stroke="rgb(0,0,0)" stroke-width="2.0"/>
<text x="134.761773" y="48.000000" fill="rgb(178,178,0)" stroke-width="0" font-weight="bold" font-size="16">S</text>
<text x="60.765224" y="230.649670" fill="rgb(12,12,255)" stroke-width="0" font-weight="bold" font-size="16">N</text>
<text x="34.000000" y="200.923877" fill="rgb(178,178,0)" stroke-width="0" font-weight="bold" font-size="16">S</text>
<text x="54.000000" y="166.282861" fill="rgb(12,12,255)" stroke-width="0" font-weight="bold" font-size="16">N</text>
<text x="138.029999" y="270.430546" fill="rgb(12,12,255)" stroke-width="0" font-weight="bold" font-size="16">N</text>
</svg>
</g>
</svg>
