<svg xmlns="http://www.w3.org/2000/svg" x="0" y="0" viewBox="0 0 100 100">
<title>G_8_L - Open Babel Depiction</title>
<rect x="0" y="0" width="100" height="100" fill="white"/>
<g transform="translate(0,0)">
<svg width="100" height="100" x="0" y="0" viewBox="0 0 286.439 452.395" font-family="sans-serif" stroke="rgb(0,0,0)" stroke-width="2" stroke-linecap="round">
<line x1="142.7" y1="303.8" x2="139.8" y2="276.9" opacity="1.0" stroke="rgb(0,0,0)" stroke-width="2.0"/>
<line x1="131.5" y1="197.4" x2="127.3" y2="157.6" opacity="1.0" stroke="rgb(0,0,0)" stroke-width="2.0"/>
<line x1="178.7" y1="336.7" x2="170.4" y2="375.9" opacity="1.0" stroke="rgb(0,0,0)" stroke-width="2.0"/>
<line x1="170.4" y1="375.9" x2="130.6" y2="380.0" opacity="1.0" stroke="rgb(0,0,0)" stroke-width="2.0"/>
<line x1="130.6" y1="380.0" x2="114.3" y2="343.5" opacity="1.0" stroke="rgb(0,0,0)" stroke-width="2.0"/>
<line x1="114.3" y1="343.5" x2="134.4" y2="325.4" opacity="1.0" stroke="rgb(0,0,0)" stroke-width="2.0"/>
<line x1="155.3" y1="323.2" x2="178.7" y2="336.7" opacity="1.0" stroke="rgb(0,0,0)" stroke-width="2.0"/>
<line x1="48.7" y1="256.9" x2="58.1" y2="267.3" opacity="1.0" stroke="rgb(0,0,0)" stroke-width="2.0"/>
<line x1="78.8" y1="271.6" x2="103.3" y2="260.7" opacity="1.0" stroke="rgb(0,0,0)" stroke-width="2.0"/>
<line x1="77.7" y1="264.2" x2="94.9" y2="256.5" opacity="1.0" stroke="rgb(0,0,0)" stroke-width="2.0"/>
<line x1="103.3" y1="260.7" x2="99.1" y2="220.9" opacity="1.0" stroke="rgb(0,0,0)" stroke-width="2.0"/>
<line x1="99.1" y1="220.9" x2="72.9" y2="215.3" opacity="1.0" stroke="rgb(0,0,0)" stroke-width="2.0"/>
<line x1="91.8" y1="226.7" x2="73.4" y2="222.8" opacity="1.0" stroke="rgb(0,0,0)" stroke-width="2.0"/>
<line x1="53.5" y1="223.8" x2="46.5" y2="236.0" opacity="1.0" stroke="rgb(0,0,0)" stroke-width="2.0"/>
<line x1="66.6" y1="40.0" x2="54.2" y2="78.0" opacity="1.0" stroke="rgb(0,0,0)" stroke-width="2.0"/>
<line x1="71.6" y1="47.9" x2="62.9" y2="74.6" opacity="1.0" stroke="rgb(0,0,0)" stroke-width="2.0"/>
<line x1="54.2" y1="78.0" x2="86.6" y2="101.6" opacity="1.0" stroke="rgb(0,0,0)" stroke-width="2.0"/>
<line x1="86.6" y1="101.6" x2="118.9" y2="78.0" opacity="1.0" stroke="rgb(0,0,0)" stroke-width="2.0"/>
<line x1="118.9" y1="78.0" x2="110.6" y2="52.4" opacity="1.0" stroke="rgb(0,0,0)" stroke-width="2.0"/>
<line x1="93.6" y1="40.0" x2="66.6" y2="40.0" opacity="1.0" stroke="rgb(0,0,0)" stroke-width="2.0"/>
<line x1="51.0" y1="371.7" x2="74.5" y2="339.3" opacity="1.0" stroke="rgb(0,0,0)" stroke-width="2.0"/>
<line x1="74.5" y1="339.3" x2="114.3" y2="343.5" opacity="1.0" stroke="rgb(0,0,0)" stroke-width="2.0"/>
<line x1="79.7" y1="347.1" x2="107.6" y2="350.0" opacity="1.0" stroke="rgb(0,0,0)" stroke-width="2.0"/>
<line x1="130.6" y1="380.0" x2="107.1" y2="412.4" opacity="1.0" stroke="rgb(0,0,0)" stroke-width="2.0"/>
<line x1="121.2" y1="380.7" x2="104.8" y2="403.3" opacity="1.0" stroke="rgb(0,0,0)" stroke-width="2.0"/>
<line x1="107.1" y1="412.4" x2="67.3" y2="408.2" opacity="1.0" stroke="rgb(0,0,0)" stroke-width="2.0"/>
<line x1="67.3" y1="408.2" x2="51.0" y2="371.7" opacity="1.0" stroke="rgb(0,0,0)" stroke-width="2.0"/>
<line x1="71.4" y1="399.8" x2="60.0" y2="374.2" opacity="1.0" stroke="rgb(0,0,0)" stroke-width="2.0"/>
<line x1="238.1" y1="390.3" x2="200.1" y2="402.6" opacity="1.0" stroke="rgb(0,0,0)" stroke-width="2.0"/>
<line x1="200.1" y1="402.6" x2="170.4" y2="375.9" opacity="1.0" stroke="rgb(0,0,0)" stroke-width="2.0"/>
<line x1="200.4" y1="393.3" x2="179.6" y2="374.5" opacity="1.0" stroke="rgb(0,0,0)" stroke-width="2.0"/>
<line x1="178.7" y1="336.7" x2="216.7" y2="324.4" opacity="1.0" stroke="rgb(0,0,0)" stroke-width="2.0"/>
<line x1="186.6" y1="341.7" x2="213.2" y2="333.1" opacity="1.0" stroke="rgb(0,0,0)" stroke-width="2.0"/>
<line x1="216.7" y1="324.4" x2="246.4" y2="351.1" opacity="1.0" stroke="rgb(0,0,0)" stroke-width="2.0"/>
<line x1="246.4" y1="351.1" x2="238.1" y2="390.3" opacity="1.0" stroke="rgb(0,0,0)" stroke-width="2.0"/>
<line x1="238.1" y1="355.5" x2="232.3" y2="382.9" opacity="1.0" stroke="rgb(0,0,0)" stroke-width="2.0"/>
<line x1="172.2" y1="253.4" x2="168.0" y2="213.7" opacity="1.0" stroke="rgb(0,0,0)" stroke-width="2.0"/>
<line x1="168.0" y1="213.7" x2="131.5" y2="197.4" opacity="1.0" stroke="rgb(0,0,0)" stroke-width="2.0"/>
<line x1="159.6" y1="217.8" x2="134.0" y2="206.4" opacity="1.0" stroke="rgb(0,0,0)" stroke-width="2.0"/>
<line x1="131.5" y1="197.4" x2="99.1" y2="220.9" opacity="1.0" stroke="rgb(0,0,0)" stroke-width="2.0"/>
<line x1="103.3" y1="260.7" x2="139.8" y2="276.9" opacity="1.0" stroke="rgb(0,0,0)" stroke-width="2.0"/>
<line x1="139.8" y1="276.9" x2="172.2" y2="253.4" opacity="1.0" stroke="rgb(0,0,0)" stroke-width="2.0"/>
<line x1="140.5" y1="267.6" x2="163.1" y2="251.1" opacity="1.0" stroke="rgb(0,0,0)" stroke-width="2.0"/>
<line x1="159.7" y1="134.1" x2="155.5" y2="94.3" opacity="1.0" stroke="rgb(0,0,0)" stroke-width="2.0"/>
<line x1="155.5" y1="94.3" x2="118.9" y2="78.0" opacity="1.0" stroke="rgb(0,0,0)" stroke-width="2.0"/>
<line x1="147.1" y1="98.4" x2="121.5" y2="87.1" opacity="1.0" stroke="rgb(0,0,0)" stroke-width="2.0"/>
<line x1="86.6" y1="101.6" x2="90.8" y2="141.3" opacity="1.0" stroke="rgb(0,0,0)" stroke-width="2.0"/>
<line x1="94.4" y1="106.8" x2="97.3" y2="134.6" opacity="1.0" stroke="rgb(0,0,0)" stroke-width="2.0"/>
<line x1="90.8" y1="141.3" x2="127.3" y2="157.6" opacity="1.0" stroke="rgb(0,0,0)" stroke-width="2.0"/>
<line x1="127.3" y1="157.6" x2="159.7" y2="134.1" opacity="1.0" stroke="rgb(0,0,0)" stroke-width="2.0"/>
<line x1="127.9" y1="148.3" x2="150.6" y2="131.8" opacity="1.0" stroke="rgb(0,0,0)" stroke-width="2.0"/>
<text x="100.582488" y="48.000000" fill="rgb(12,12,255)" stroke-width="0" font-weight="bold" font-size="16">N</text>
<text x="100.582488" y="32.000000" fill="rgb(12,12,255)" stroke-width="0" font-weight="bold" font-size="16">H</text>
<text x="60.765224" y="284.946640" fill="rgb(12,12,255)" stroke-width="0" font-weight="bold" font-size="16">N</text>
<text x="34.000000" y="255.220847" fill="rgb(178,178,0)" stroke-width="0" font-weight="bold" font-size="16">S</text>
<text x="54.000000" y="220.579831" fill="rgb(12,12,255)" stroke-width="0" font-weight="bold" font-size="16">N</text>
<text x="138.029999" y="324.727516" fill="rgb(12,12,255)" stroke-width="0" font-weight="bold" font-size="16">N</text>
</svg>
</g>
</svg>
