<svg xmlns="http://www.w3.org/2000/svg" x="0" y="0" viewBox="0 0 100 100">
<title>G_8_M - Open Babel Depiction</title>
<rect x="0" y="0" width="100" height="100" fill="white"/>
<g transform="translate(0,0)">
<svg width="100" height="100" x="0" y="0" viewBox="0 0 286.439 493.915" font-family="sans-serif" stroke="rgb(0,0,0)" stroke-width="2" stroke-linecap="round">
<line x1="142.7" y1="345.3" x2="139.8" y2="318.5" opacity="1.0" stroke="rgb(0,0,0)" stroke-width="2.0"/>
<line x1="114.8" y1="79.8" x2="111.9" y2="52.9" opacity="1.0" stroke="rgb(0,0,0)" stroke-width="2.0"/>
<line x1="110.6" y1="80.2" x2="107.8" y2="53.4" opacity="1.0" stroke="rgb(0,0,0)" stroke-width="2.0"/>
<line x1="118.9" y1="79.3" x2="116.1" y2="52.5" opacity="1.0" stroke="rgb(0,0,0)" stroke-width="2.0"/>
<line x1="118.9" y1="119.6" x2="114.8" y2="79.8" opacity="1.0" stroke="rgb(0,0,0)" stroke-width="2.0"/>
<line x1="131.5" y1="238.9" x2="127.3" y2="199.1" opacity="1.0" stroke="rgb(0,0,0)" stroke-width="2.0"/>
<line x1="178.7" y1="378.2" x2="170.4" y2="417.4" opacity="1.0" stroke="rgb(0,0,0)" stroke-width="2.0"/>
<line x1="170.4" y1="417.4" x2="130.6" y2="421.6" opacity="1.0" stroke="rgb(0,0,0)" stroke-width="2.0"/>
<line x1="130.6" y1="421.6" x2="114.3" y2="385.0" opacity="1.0" stroke="rgb(0,0,0)" stroke-width="2.0"/>
<line x1="114.3" y1="385.0" x2="134.4" y2="366.9" opacity="1.0" stroke="rgb(0,0,0)" stroke-width="2.0"/>
<line x1="155.3" y1="364.7" x2="178.7" y2="378.2" opacity="1.0" stroke="rgb(0,0,0)" stroke-width="2.0"/>
<line x1="48.7" y1="298.4" x2="58.1" y2="308.8" opacity="1.0" stroke="rgb(0,0,0)" stroke-width="2.0"/>
<line x1="78.8" y1="313.1" x2="103.3" y2="302.2" opacity="1.0" stroke="rgb(0,0,0)" stroke-width="2.0"/>
<line x1="77.7" y1="305.7" x2="94.9" y2="298.1" opacity="1.0" stroke="rgb(0,0,0)" stroke-width="2.0"/>
<line x1="103.3" y1="302.2" x2="99.1" y2="262.4" opacity="1.0" stroke="rgb(0,0,0)" stroke-width="2.0"/>
<line x1="99.1" y1="262.4" x2="72.9" y2="256.8" opacity="1.0" stroke="rgb(0,0,0)" stroke-width="2.0"/>
<line x1="91.8" y1="268.2" x2="73.4" y2="264.3" opacity="1.0" stroke="rgb(0,0,0)" stroke-width="2.0"/>
<line x1="53.5" y1="265.4" x2="46.5" y2="277.5" opacity="1.0" stroke="rgb(0,0,0)" stroke-width="2.0"/>
<line x1="51.0" y1="413.2" x2="74.5" y2="380.8" opacity="1.0" stroke="rgb(0,0,0)" stroke-width="2.0"/>
<line x1="74.5" y1="380.8" x2="114.3" y2="385.0" opacity="1.0" stroke="rgb(0,0,0)" stroke-width="2.0"/>
<line x1="79.7" y1="388.6" x2="107.6" y2="391.5" opacity="1.0" stroke="rgb(0,0,0)" stroke-width="2.0"/>
<line x1="130.6" y1="421.6" x2="107.1" y2="453.9" opacity="1.0" stroke="rgb(0,0,0)" stroke-width="2.0"/>
<line x1="121.2" y1="422.2" x2="104.8" y2="444.8" opacity="1.0" stroke="rgb(0,0,0)" stroke-width="2.0"/>
<line x1="107.1" y1="453.9" x2="67.3" y2="449.7" opacity="1.0" stroke="rgb(0,0,0)" stroke-width="2.0"/>
<line x1="67.3" y1="449.7" x2="51.0" y2="413.2" opacity="1.0" stroke="rgb(0,0,0)" stroke-width="2.0"/>
<line x1="71.4" y1="441.3" x2="60.0" y2="415.7" opacity="1.0" stroke="rgb(0,0,0)" stroke-width="2.0"/>
<line x1="238.1" y1="431.8" x2="200.1" y2="444.1" opacity="1.0" stroke="rgb(0,0,0)" stroke-width="2.0"/>
<line x1="200.1" y1="444.1" x2="170.4" y2="417.4" opacity="1.0" stroke="rgb(0,0,0)" stroke-width="2.0"/>
<line x1="200.4" y1="434.8" x2="179.6" y2="416.0" opacity="1.0" stroke="rgb(0,0,0)" stroke-width="2.0"/>
<line x1="178.7" y1="378.2" x2="216.7" y2="365.9" opacity="1.0" stroke="rgb(0,0,0)" stroke-width="2.0"/>
<line x1="186.6" y1="383.2" x2="213.2" y2="374.6" opacity="1.0" stroke="rgb(0,0,0)" stroke-width="2.0"/>
<line x1="216.7" y1="365.9" x2="246.4" y2="392.7" opacity="1.0" stroke="rgb(0,0,0)" stroke-width="2.0"/>
<line x1="246.4" y1="392.7" x2="238.1" y2="431.8" opacity="1.0" stroke="rgb(0,0,0)" stroke-width="2.0"/>
<line x1="238.1" y1="397.0" x2="232.3" y2="424.4" opacity="1.0" stroke="rgb(0,0,0)" stroke-width="2.0"/>
<line x1="172.2" y1="295.0" x2="168.0" y2="255.2" opacity="1.0" stroke="rgb(0,0,0)" stroke-width="2.0"/>
<line x1="168.0" y1="255.2" x2="131.5" y2="238.9" opacity="1.0" stroke="rgb(0,0,0)" stroke-width="2.0"/>
<line x1="159.6" y1="259.3" x2="134.0" y2="247.9" opacity="1.0" stroke="rgb(0,0,0)" stroke-width="2.0"/>
<line x1="131.5" y1="238.9" x2="99.1" y2="262.4" opacity="1.0" stroke="rgb(0,0,0)" stroke-width="2.0"/>
<line x1="103.3" y1="302.2" x2="139.8" y2="318.5" opacity="1.0" stroke="rgb(0,0,0)" stroke-width="2.0"/>
<line x1="139.8" y1="318.5" x2="172.2" y2="295.0" opacity="1.0" stroke="rgb(0,0,0)" stroke-width="2.0"/>
<line x1="140.5" y1="309.1" x2="163.1" y2="292.7" opacity="1.0" stroke="rgb(0,0,0)" stroke-width="2.0"/>
<line x1="159.7" y1="175.6" x2="155.5" y2="135.8" opacity="1.0" stroke="rgb(0,0,0)" stroke-width="2.0"/>
<line x1="155.5" y1="135.8" x2="118.9" y2="119.6" opacity="1.0" stroke="rgb(0,0,0)" stroke-width="2.0"/>
<line x1="147.1" y1="140.0" x2="121.5" y2="128.6" opacity="1.0" stroke="rgb(0,0,0)" stroke-width="2.0"/>
<line x1="118.9" y1="119.6" x2="86.6" y2="143.1" opacity="1.0" stroke="rgb(0,0,0)" stroke-width="2.0"/>
<line x1="86.6" y1="143.1" x2="90.8" y2="182.9" opacity="1.0" stroke="rgb(0,0,0)" stroke-width="2.0"/>
<line x1="94.4" y1="148.3" x2="97.3" y2="176.1" opacity="1.0" stroke="rgb(0,0,0)" stroke-width="2.0"/>
<line x1="90.8" y1="182.9" x2="127.3" y2="199.1" opacity="1.0" stroke="rgb(0,0,0)" stroke-width="2.0"/>
<line x1="127.3" y1="199.1" x2="159.7" y2="175.6" opacity="1.0" stroke="rgb(0,0,0)" stroke-width="2.0"/>
<line x1="127.9" y1="189.8" x2="150.6" y2="173.3" opacity="1.0" stroke="rgb(0,0,0)" stroke-width="2.0"/>
<text x="104.580891" y="48.000000" fill="rgb(12,12,255)" stroke-width="0" font-weight="bold" font-size="16">N</text>
<text x="60.765224" y="326.466131" fill="rgb(12,12,255)" stroke-width="0" font-weight="bold" font-size="16">N</text>
<text x="34.000000" y="296.740338" fill="rgb(178,178,0)" stroke-width="0" font-weight="bold" font-size="16">S</text>
<text x="54.000000" y="262.099322" fill="rgb(12,12,255)" stroke-width="0" font-weight="bold" font-size="16">N</text>
<text x="138.029999" y="366.247007" fill="rgb(12,12,255)" stroke-width="0" font-weight="bold" font-size="16">N</text>
</svg>
</g>
</svg>
