<svg xmlns="http://www.w3.org/2000/svg" x="0" y="0" viewBox="0 0 100 100">
<title>G_8_Q - Open Babel Depiction</title>
<rect x="0" y="0" width="100" height="100" fill="white"/>
<g transform="translate(0,0)">
<svg width="100" height="100" x="0" y="0" viewBox="0 0 476.529 349.371" font-family="sans-serif" stroke="rgb(0,0,0)" stroke-width="2" stroke-linecap="round">
<line x1="144.6" y1="154.3" x2="257.9" y2="219.7" opacity="1.0" stroke="rgb(0,0,0)" stroke-width="2.0"/>
<line x1="329.3" y1="227.2" x2="365.1" y2="230.9" opacity="1.0" stroke="rgb(0,0,0)" stroke-width="2.0"/>
<line x1="102.3" y1="165.8" x2="71.1" y2="147.8" opacity="1.0" stroke="rgb(0,0,0)" stroke-width="2.0"/>
<line x1="71.1" y1="147.8" x2="102.3" y2="93.9" opacity="1.0" stroke="rgb(0,0,0)" stroke-width="2.0"/>
<line x1="102.3" y1="93.9" x2="133.4" y2="111.9" opacity="1.0" stroke="rgb(0,0,0)" stroke-width="2.0"/>
<line x1="133.4" y1="111.9" x2="133.4" y2="134.8" opacity="1.0" stroke="rgb(0,0,0)" stroke-width="2.0"/>
<line x1="122.1" y1="154.3" x2="102.3" y2="165.8" opacity="1.0" stroke="rgb(0,0,0)" stroke-width="2.0"/>
<line x1="274.9" y1="300.7" x2="267.5" y2="294.0" opacity="1.0" stroke="rgb(0,0,0)" stroke-width="2.0"/>
<line x1="262.7" y1="274.5" x2="272.5" y2="252.5" opacity="1.0" stroke="rgb(0,0,0)" stroke-width="2.0"/>
<line x1="270.2" y1="275.2" x2="276.6" y2="260.9" opacity="1.0" stroke="rgb(0,0,0)" stroke-width="2.0"/>
<line x1="272.5" y1="252.5" x2="308.2" y2="256.3" opacity="1.0" stroke="rgb(0,0,0)" stroke-width="2.0"/>
<line x1="308.2" y1="256.3" x2="313.2" y2="279.8" opacity="1.0" stroke="rgb(0,0,0)" stroke-width="2.0"/>
<line x1="302.4" y1="263.6" x2="305.7" y2="279.0" opacity="1.0" stroke="rgb(0,0,0)" stroke-width="2.0"/>
<line x1="304.4" y1="297.9" x2="295.8" y2="302.9" opacity="1.0" stroke="rgb(0,0,0)" stroke-width="2.0"/>
<line x1="164.5" y1="58.0" x2="164.5" y2="93.9" opacity="1.0" stroke="rgb(0,0,0)" stroke-width="2.0"/>
<line x1="164.5" y1="93.9" x2="133.4" y2="111.9" opacity="1.0" stroke="rgb(0,0,0)" stroke-width="2.0"/>
<line x1="155.7" y1="90.7" x2="135.0" y2="102.7" opacity="1.0" stroke="rgb(0,0,0)" stroke-width="2.0"/>
<line x1="102.3" y1="93.9" x2="102.3" y2="58.0" opacity="1.0" stroke="rgb(0,0,0)" stroke-width="2.0"/>
<line x1="109.5" y1="87.9" x2="109.5" y2="64.0" opacity="1.0" stroke="rgb(0,0,0)" stroke-width="2.0"/>
<line x1="102.3" y1="58.0" x2="133.4" y2="40.0" opacity="1.0" stroke="rgb(0,0,0)" stroke-width="2.0"/>
<line x1="133.4" y1="40.0" x2="164.5" y2="58.0" opacity="1.0" stroke="rgb(0,0,0)" stroke-width="2.0"/>
<line x1="135.0" y1="49.2" x2="155.7" y2="61.2" opacity="1.0" stroke="rgb(0,0,0)" stroke-width="2.0"/>
<line x1="40.0" y1="201.7" x2="40.0" y2="165.8" opacity="1.0" stroke="rgb(0,0,0)" stroke-width="2.0"/>
<line x1="40.0" y1="165.8" x2="71.1" y2="147.8" opacity="1.0" stroke="rgb(0,0,0)" stroke-width="2.0"/>
<line x1="48.8" y1="169.0" x2="69.5" y2="157.1" opacity="1.0" stroke="rgb(0,0,0)" stroke-width="2.0"/>
<line x1="102.3" y1="165.8" x2="102.3" y2="201.7" opacity="1.0" stroke="rgb(0,0,0)" stroke-width="2.0"/>
<line x1="95.1" y1="171.8" x2="95.1" y2="195.7" opacity="1.0" stroke="rgb(0,0,0)" stroke-width="2.0"/>
<line x1="102.3" y1="201.7" x2="71.1" y2="219.7" opacity="1.0" stroke="rgb(0,0,0)" stroke-width="2.0"/>
<line x1="71.1" y1="219.7" x2="40.0" y2="201.7" opacity="1.0" stroke="rgb(0,0,0)" stroke-width="2.0"/>
<line x1="69.5" y1="210.5" x2="48.8" y2="198.5" opacity="1.0" stroke="rgb(0,0,0)" stroke-width="2.0"/>
<line x1="279.0" y1="190.6" x2="314.7" y2="194.4" opacity="1.0" stroke="rgb(0,0,0)" stroke-width="2.0"/>
<line x1="314.7" y1="194.4" x2="329.3" y2="227.2" opacity="1.0" stroke="rgb(0,0,0)" stroke-width="2.0"/>
<line x1="310.6" y1="202.8" x2="320.3" y2="224.6" opacity="1.0" stroke="rgb(0,0,0)" stroke-width="2.0"/>
<line x1="329.3" y1="227.2" x2="308.2" y2="256.3" opacity="1.0" stroke="rgb(0,0,0)" stroke-width="2.0"/>
<line x1="272.5" y1="252.5" x2="257.9" y2="219.7" opacity="1.0" stroke="rgb(0,0,0)" stroke-width="2.0"/>
<line x1="257.9" y1="219.7" x2="279.0" y2="190.6" opacity="1.0" stroke="rgb(0,0,0)" stroke-width="2.0"/>
<line x1="267.2" y1="219.1" x2="281.3" y2="199.7" opacity="1.0" stroke="rgb(0,0,0)" stroke-width="2.0"/>
<line x1="399.1" y1="203.2" x2="421.9" y2="205.6" opacity="1.0" stroke="rgb(0,0,0)" stroke-width="2.0"/>
<line x1="421.9" y1="205.6" x2="436.5" y2="238.5" opacity="1.0" stroke="rgb(0,0,0)" stroke-width="2.0"/>
<line x1="417.8" y1="214.0" x2="427.5" y2="235.9" opacity="1.0" stroke="rgb(0,0,0)" stroke-width="2.0"/>
<line x1="436.5" y1="238.5" x2="423.1" y2="257.0" opacity="1.0" stroke="rgb(0,0,0)" stroke-width="2.0"/>
<line x1="403.6" y1="266.3" x2="379.7" y2="263.8" opacity="1.0" stroke="rgb(0,0,0)" stroke-width="2.0"/>
<line x1="402.0" y1="258.9" x2="386.4" y2="257.2" opacity="1.0" stroke="rgb(0,0,0)" stroke-width="2.0"/>
<line x1="379.7" y1="263.8" x2="365.1" y2="230.9" opacity="1.0" stroke="rgb(0,0,0)" stroke-width="2.0"/>
<line x1="365.1" y1="230.9" x2="379.2" y2="211.5" opacity="1.0" stroke="rgb(0,0,0)" stroke-width="2.0"/>
<line x1="374.4" y1="230.3" x2="383.6" y2="217.7" opacity="1.0" stroke="rgb(0,0,0)" stroke-width="2.0"/>
<text x="409.409679" y="275.527248" fill="rgb(12,12,255)" stroke-width="0" font-weight="bold" font-size="16">N</text>
<text x="380.180913" y="209.878366" fill="rgb(12,12,255)" stroke-width="0" font-weight="bold" font-size="16">N</text>
<text x="251.859332" y="293.328514" fill="rgb(12,12,255)" stroke-width="0" font-weight="bold" font-size="16">N</text>
<text x="278.561138" y="317.370928" fill="rgb(178,178,0)" stroke-width="0" font-weight="bold" font-size="16">S</text>
<text x="309.678144" y="299.405516" fill="rgb(12,12,255)" stroke-width="0" font-weight="bold" font-size="16">N</text>
<text x="127.391307" y="155.817985" fill="rgb(12,12,255)" stroke-width="0" font-weight="bold" font-size="16">N</text>
</svg>
</g>
</svg>
