<svg xmlns="http://www.w3.org/2000/svg" x="0" y="0" viewBox="0 0 100 100">
<title>G_8_R - Open Babel Depiction</title>
<rect x="0" y="0" width="100" height="100" fill="white"/>
<g transform="translate(0,0)">
<svg width="100" height="100" x="0" y="0" viewBox="0 0 537.259 351.674" font-family="sans-serif" stroke="rgb(0,0,0)" stroke-width="2" stroke-linecap="round">
<line x1="145.4" y1="155.2" x2="259.7" y2="221.2" opacity="1.0" stroke="rgb(0,0,0)" stroke-width="2.0"/>
<line x1="484.0" y1="254.6" x2="488.2" y2="264.0" opacity="1.0" stroke="rgb(0,0,0)" stroke-width="2.0"/>
<line x1="478.5" y1="257.0" x2="482.7" y2="266.4" opacity="1.0" stroke="rgb(0,0,0)" stroke-width="2.0"/>
<line x1="483.6" y1="233.4" x2="489.6" y2="225.1" opacity="1.0" stroke="rgb(0,0,0)" stroke-width="2.0"/>
<line x1="439.9" y1="240.2" x2="463.0" y2="242.6" opacity="1.0" stroke="rgb(0,0,0)" stroke-width="2.0"/>
<line x1="331.8" y1="228.8" x2="367.8" y2="232.6" opacity="1.0" stroke="rgb(0,0,0)" stroke-width="2.0"/>
<line x1="102.8" y1="166.9" x2="71.4" y2="148.7" opacity="1.0" stroke="rgb(0,0,0)" stroke-width="2.0"/>
<line x1="71.4" y1="148.7" x2="102.8" y2="94.4" opacity="1.0" stroke="rgb(0,0,0)" stroke-width="2.0"/>
<line x1="102.8" y1="94.4" x2="134.2" y2="112.5" opacity="1.0" stroke="rgb(0,0,0)" stroke-width="2.0"/>
<line x1="134.2" y1="112.5" x2="134.2" y2="135.7" opacity="1.0" stroke="rgb(0,0,0)" stroke-width="2.0"/>
<line x1="122.9" y1="155.2" x2="102.8" y2="166.9" opacity="1.0" stroke="rgb(0,0,0)" stroke-width="2.0"/>
<line x1="277.0" y1="303.0" x2="269.4" y2="296.1" opacity="1.0" stroke="rgb(0,0,0)" stroke-width="2.0"/>
<line x1="264.6" y1="276.5" x2="274.5" y2="254.3" opacity="1.0" stroke="rgb(0,0,0)" stroke-width="2.0"/>
<line x1="272.1" y1="277.3" x2="278.6" y2="262.7" opacity="1.0" stroke="rgb(0,0,0)" stroke-width="2.0"/>
<line x1="274.5" y1="254.3" x2="310.5" y2="258.1" opacity="1.0" stroke="rgb(0,0,0)" stroke-width="2.0"/>
<line x1="310.5" y1="258.1" x2="315.5" y2="281.9" opacity="1.0" stroke="rgb(0,0,0)" stroke-width="2.0"/>
<line x1="304.7" y1="265.5" x2="308.0" y2="281.0" opacity="1.0" stroke="rgb(0,0,0)" stroke-width="2.0"/>
<line x1="306.8" y1="300.1" x2="297.9" y2="305.2" opacity="1.0" stroke="rgb(0,0,0)" stroke-width="2.0"/>
<line x1="165.6" y1="58.1" x2="165.6" y2="94.4" opacity="1.0" stroke="rgb(0,0,0)" stroke-width="2.0"/>
<line x1="165.6" y1="94.4" x2="134.2" y2="112.5" opacity="1.0" stroke="rgb(0,0,0)" stroke-width="2.0"/>
<line x1="156.8" y1="91.1" x2="135.8" y2="103.3" opacity="1.0" stroke="rgb(0,0,0)" stroke-width="2.0"/>
<line x1="102.8" y1="94.4" x2="102.8" y2="58.1" opacity="1.0" stroke="rgb(0,0,0)" stroke-width="2.0"/>
<line x1="110.0" y1="88.4" x2="110.0" y2="64.1" opacity="1.0" stroke="rgb(0,0,0)" stroke-width="2.0"/>
<line x1="102.8" y1="58.1" x2="134.2" y2="40.0" opacity="1.0" stroke="rgb(0,0,0)" stroke-width="2.0"/>
<line x1="134.2" y1="40.0" x2="165.6" y2="58.1" opacity="1.0" stroke="rgb(0,0,0)" stroke-width="2.0"/>
<line x1="135.8" y1="49.2" x2="156.8" y2="61.4" opacity="1.0" stroke="rgb(0,0,0)" stroke-width="2.0"/>
<line x1="40.0" y1="203.1" x2="40.0" y2="166.9" opacity="1.0" stroke="rgb(0,0,0)" stroke-width="2.0"/>
<line x1="40.0" y1="166.9" x2="71.4" y2="148.7" opacity="1.0" stroke="rgb(0,0,0)" stroke-width="2.0"/>
<line x1="48.8" y1="170.1" x2="69.8" y2="158.0" opacity="1.0" stroke="rgb(0,0,0)" stroke-width="2.0"/>
<line x1="102.8" y1="166.9" x2="102.8" y2="203.1" opacity="1.0" stroke="rgb(0,0,0)" stroke-width="2.0"/>
<line x1="95.6" y1="172.9" x2="95.6" y2="197.1" opacity="1.0" stroke="rgb(0,0,0)" stroke-width="2.0"/>
<line x1="102.8" y1="203.1" x2="71.4" y2="221.2" opacity="1.0" stroke="rgb(0,0,0)" stroke-width="2.0"/>
<line x1="71.4" y1="221.2" x2="40.0" y2="203.1" opacity="1.0" stroke="rgb(0,0,0)" stroke-width="2.0"/>
<line x1="69.8" y1="212.0" x2="48.8" y2="199.9" opacity="1.0" stroke="rgb(0,0,0)" stroke-width="2.0"/>
<line x1="281.0" y1="191.9" x2="317.1" y2="195.7" opacity="1.0" stroke="rgb(0,0,0)" stroke-width="2.0"/>
<line x1="317.1" y1="195.7" x2="331.8" y2="228.8" opacity="1.0" stroke="rgb(0,0,0)" stroke-width="2.0"/>
<line x1="312.9" y1="204.1" x2="322.8" y2="226.2" opacity="1.0" stroke="rgb(0,0,0)" stroke-width="2.0"/>
<line x1="331.8" y1="228.8" x2="310.5" y2="258.1" opacity="1.0" stroke="rgb(0,0,0)" stroke-width="2.0"/>
<line x1="274.5" y1="254.3" x2="259.7" y2="221.2" opacity="1.0" stroke="rgb(0,0,0)" stroke-width="2.0"/>
<line x1="259.7" y1="221.2" x2="281.0" y2="191.9" opacity="1.0" stroke="rgb(0,0,0)" stroke-width="2.0"/>
<line x1="269.1" y1="220.6" x2="283.3" y2="201.0" opacity="1.0" stroke="rgb(0,0,0)" stroke-width="2.0"/>
<line x1="402.1" y1="204.6" x2="425.2" y2="207.1" opacity="1.0" stroke="rgb(0,0,0)" stroke-width="2.0"/>
<line x1="425.2" y1="207.1" x2="439.9" y2="240.2" opacity="1.0" stroke="rgb(0,0,0)" stroke-width="2.0"/>
<line x1="421.0" y1="215.5" x2="430.9" y2="237.6" opacity="1.0" stroke="rgb(0,0,0)" stroke-width="2.0"/>
<line x1="439.9" y1="240.2" x2="418.6" y2="269.5" opacity="1.0" stroke="rgb(0,0,0)" stroke-width="2.0"/>
<line x1="418.6" y1="269.5" x2="382.6" y2="265.7" opacity="1.0" stroke="rgb(0,0,0)" stroke-width="2.0"/>
<line x1="413.4" y1="261.7" x2="389.3" y2="259.2" opacity="1.0" stroke="rgb(0,0,0)" stroke-width="2.0"/>
<line x1="382.6" y1="265.7" x2="367.8" y2="232.6" opacity="1.0" stroke="rgb(0,0,0)" stroke-width="2.0"/>
<line x1="367.8" y1="232.6" x2="382.1" y2="212.9" opacity="1.0" stroke="rgb(0,0,0)" stroke-width="2.0"/>
<line x1="377.2" y1="232.0" x2="386.5" y2="219.1" opacity="1.0" stroke="rgb(0,0,0)" stroke-width="2.0"/>
<text x="502.059279" y="210.594132" fill="rgb(255,12,12)" stroke-width="0" font-weight="bold" font-size="16"/>
<text x="502.059279" y="210.594132" fill="rgb(255,12,12)" stroke-width="0" font-weight="bold" font-size="32">.</text>
<text x="491.259279" y="222.626132" fill="rgb(255,12,12)" stroke-width="0" font-weight="bold" font-size="16">O</text>
<text x="484.698434" y="285.048402" fill="rgb(255,12,12)" stroke-width="0" font-weight="bold" font-size="16">O</text>
<text x="469.959100" y="251.943314" fill="rgb(12,12,255)" stroke-width="0" font-weight="bold" font-size="16">N</text>
<text x="383.140736" y="211.262415" fill="rgb(12,12,255)" stroke-width="0" font-weight="bold" font-size="16">N</text>
<text x="253.722014" y="295.426056" fill="rgb(12,12,255)" stroke-width="0" font-weight="bold" font-size="16">N</text>
<text x="280.652119" y="319.674031" fill="rgb(178,178,0)" stroke-width="0" font-weight="bold" font-size="16">S</text>
<text x="312.035173" y="301.555016" fill="rgb(12,12,255)" stroke-width="0" font-weight="bold" font-size="16">N</text>
<text x="128.189796" y="156.739821" fill="rgb(12,12,255)" stroke-width="0" font-weight="bold" font-size="16">N</text>
</svg>
</g>
</svg>
