<svg xmlns="http://www.w3.org/2000/svg" xmlns:xlink="http://www.w3.org/1999/xlink" xmlns:cml="http://www.xml-cml.org/schema" version="1.1" id="topsvg" x="0" y="0" viewBox="0 0 100 100">
<title>H_1_Q - Open Babel Depiction</title>
<rect x="0" y="0" width="100" height="100" fill="white"/>
<g transform="translate(0,0)">
<svg width="100" height="100" x="0" y="0" viewBox="0 0 415.236 350.968" font-family="sans-serif" stroke="rgb(0,0,0)" stroke-width="2" stroke-linecap="round">
<line x1="151.8" y1="188.3" x2="207.6" y2="156.1" opacity="1.0" stroke="rgb(0,0,0)" stroke-width="2.0"/>
<line x1="274.7" y1="117.4" x2="308.2" y2="98.1" opacity="1.0" stroke="rgb(0,0,0)" stroke-width="2.0"/>
<line x1="73.5" y1="117.4" x2="40.0" y2="136.8" opacity="1.0" stroke="rgb(0,0,0)" stroke-width="2.0"/>
<line x1="40.0" y1="136.8" x2="40.0" y2="175.5" opacity="1.0" stroke="rgb(0,0,0)" stroke-width="2.0"/>
<line x1="47.2" y1="142.8" x2="47.2" y2="169.5" opacity="1.0" stroke="rgb(0,0,0)" stroke-width="2.0"/>
<line x1="40.0" y1="175.5" x2="73.5" y2="194.8" opacity="1.0" stroke="rgb(0,0,0)" stroke-width="2.0"/>
<line x1="73.5" y1="194.8" x2="107.0" y2="175.5" opacity="1.0" stroke="rgb(0,0,0)" stroke-width="2.0"/>
<line x1="75.1" y1="185.6" x2="98.3" y2="172.2" opacity="1.0" stroke="rgb(0,0,0)" stroke-width="2.0"/>
<line x1="107.0" y1="175.5" x2="107.0" y2="136.8" opacity="1.0" stroke="rgb(0,0,0)" stroke-width="2.0"/>
<line x1="107.0" y1="136.8" x2="73.5" y2="117.4" opacity="1.0" stroke="rgb(0,0,0)" stroke-width="2.0"/>
<line x1="98.3" y1="140.0" x2="75.1" y2="126.7" opacity="1.0" stroke="rgb(0,0,0)" stroke-width="2.0"/>
<line x1="140.6" y1="311.0" x2="174.1" y2="291.6" opacity="1.0" stroke="rgb(0,0,0)" stroke-width="2.0"/>
<line x1="142.2" y1="301.7" x2="165.3" y2="288.4" opacity="1.0" stroke="rgb(0,0,0)" stroke-width="2.0"/>
<line x1="174.1" y1="291.6" x2="174.1" y2="252.9" opacity="1.0" stroke="rgb(0,0,0)" stroke-width="2.0"/>
<line x1="174.1" y1="252.9" x2="140.6" y2="233.5" opacity="1.0" stroke="rgb(0,0,0)" stroke-width="2.0"/>
<line x1="165.3" y1="256.1" x2="142.2" y2="242.8" opacity="1.0" stroke="rgb(0,0,0)" stroke-width="2.0"/>
<line x1="140.6" y1="233.5" x2="107.0" y2="252.9" opacity="1.0" stroke="rgb(0,0,0)" stroke-width="2.0"/>
<line x1="107.0" y1="252.9" x2="107.0" y2="291.6" opacity="1.0" stroke="rgb(0,0,0)" stroke-width="2.0"/>
<line x1="114.2" y1="258.9" x2="114.2" y2="285.6" opacity="1.0" stroke="rgb(0,0,0)" stroke-width="2.0"/>
<line x1="107.0" y1="291.6" x2="140.6" y2="311.0" opacity="1.0" stroke="rgb(0,0,0)" stroke-width="2.0"/>
<line x1="207.6" y1="117.4" x2="241.1" y2="98.1" opacity="1.0" stroke="rgb(0,0,0)" stroke-width="2.0"/>
<line x1="241.1" y1="98.1" x2="274.7" y2="117.4" opacity="1.0" stroke="rgb(0,0,0)" stroke-width="2.0"/>
<line x1="242.7" y1="107.3" x2="265.9" y2="120.7" opacity="1.0" stroke="rgb(0,0,0)" stroke-width="2.0"/>
<line x1="274.7" y1="117.4" x2="274.7" y2="156.1" opacity="1.0" stroke="rgb(0,0,0)" stroke-width="2.0"/>
<line x1="274.7" y1="156.1" x2="241.1" y2="175.5" opacity="1.0" stroke="rgb(0,0,0)" stroke-width="2.0"/>
<line x1="265.9" y1="152.9" x2="242.7" y2="166.2" opacity="1.0" stroke="rgb(0,0,0)" stroke-width="2.0"/>
<line x1="241.1" y1="175.5" x2="207.6" y2="156.1" opacity="1.0" stroke="rgb(0,0,0)" stroke-width="2.0"/>
<line x1="207.6" y1="156.1" x2="207.6" y2="117.4" opacity="1.0" stroke="rgb(0,0,0)" stroke-width="2.0"/>
<line x1="214.8" y1="150.1" x2="214.8" y2="123.4" opacity="1.0" stroke="rgb(0,0,0)" stroke-width="2.0"/>
<line x1="319.4" y1="52.9" x2="341.7" y2="40.0" opacity="1.0" stroke="rgb(0,0,0)" stroke-width="2.0"/>
<line x1="341.7" y1="40.0" x2="375.2" y2="59.4" opacity="1.0" stroke="rgb(0,0,0)" stroke-width="2.0"/>
<line x1="343.3" y1="49.2" x2="366.4" y2="62.6" opacity="1.0" stroke="rgb(0,0,0)" stroke-width="2.0"/>
<line x1="375.2" y1="59.4" x2="375.2" y2="85.1" opacity="1.0" stroke="rgb(0,0,0)" stroke-width="2.0"/>
<line x1="364.2" y1="104.5" x2="341.7" y2="117.4" opacity="1.0" stroke="rgb(0,0,0)" stroke-width="2.0"/>
<line x1="358.7" y1="99.3" x2="343.3" y2="108.2" opacity="1.0" stroke="rgb(0,0,0)" stroke-width="2.0"/>
<line x1="341.7" y1="117.4" x2="308.2" y2="98.1" opacity="1.0" stroke="rgb(0,0,0)" stroke-width="2.0"/>
<line x1="308.2" y1="98.1" x2="308.2" y2="72.1" opacity="1.0" stroke="rgb(0,0,0)" stroke-width="2.0"/>
<line x1="315.4" y1="92.1" x2="315.4" y2="74.3" opacity="1.0" stroke="rgb(0,0,0)" stroke-width="2.0"/>
<line x1="140.6" y1="233.5" x2="140.6" y2="207.8" opacity="1.0" stroke="rgb(0,0,0)" stroke-width="2.0"/>
<line x1="129.3" y1="188.3" x2="107.0" y2="175.5" opacity="1.0" stroke="rgb(0,0,0)" stroke-width="2.0"/>
<line x1="73.5" y1="194.8" x2="73.5" y2="220.5" opacity="1.0" stroke="rgb(0,0,0)" stroke-width="2.0"/>
<line x1="84.8" y1="240.0" x2="107.0" y2="252.9" opacity="1.0" stroke="rgb(0,0,0)" stroke-width="2.0"/>
<text x="67.523564" y="241.548387" fill="rgb(178,178,0)" stroke-width="0" font-weight="bold" font-size="16">S</text>
<text x="369.235640" y="106.064516" fill="rgb(12,12,255)" stroke-width="0" font-weight="bold" font-size="16">N</text>
<text x="302.188512" y="67.354839" fill="rgb(12,12,255)" stroke-width="0" font-weight="bold" font-size="16">N</text>
<text x="134.570692" y="202.838710" fill="rgb(12,12,255)" stroke-width="0" font-weight="bold" font-size="16">N</text>
</svg>
</g>
</svg>