<svg xmlns="http://www.w3.org/2000/svg" x="0" y="0" viewBox="0 0 100 100">
<title>H_1_N - Open Babel Depiction</title>
<rect x="0" y="0" width="100" height="100" fill="white"/>
<g transform="translate(0,0)">
<svg width="100" height="100" x="0" y="0" viewBox="0 0 409.087 339.161" font-family="sans-serif" stroke="rgb(0,0,0)" stroke-width="2" stroke-linecap="round">
<line x1="151.7" y1="176.7" x2="207.4" y2="144.5" opacity="1.0" stroke="rgb(0,0,0)" stroke-width="2.0"/>
<line x1="274.4" y1="105.8" x2="307.9" y2="86.5" opacity="1.0" stroke="rgb(0,0,0)" stroke-width="2.0"/>
<line x1="311.9" y1="48.0" x2="337.0" y2="42.7" opacity="1.0" stroke="rgb(0,0,0)" stroke-width="2.0"/>
<line x1="356.3" y1="51.3" x2="369.1" y2="73.5" opacity="1.0" stroke="rgb(0,0,0)" stroke-width="2.0"/>
<line x1="369.1" y1="73.5" x2="343.2" y2="102.2" opacity="1.0" stroke="rgb(0,0,0)" stroke-width="2.0"/>
<line x1="359.7" y1="73.1" x2="341.9" y2="92.9" opacity="1.0" stroke="rgb(0,0,0)" stroke-width="2.0"/>
<line x1="343.2" y1="102.2" x2="307.9" y2="86.5" opacity="1.0" stroke="rgb(0,0,0)" stroke-width="2.0"/>
<line x1="307.9" y1="86.5" x2="311.9" y2="48.0" opacity="1.0" stroke="rgb(0,0,0)" stroke-width="2.0"/>
<line x1="315.7" y1="81.3" x2="318.5" y2="54.8" opacity="1.0" stroke="rgb(0,0,0)" stroke-width="2.0"/>
<line x1="73.5" y1="105.8" x2="40.0" y2="125.2" opacity="1.0" stroke="rgb(0,0,0)" stroke-width="2.0"/>
<line x1="40.0" y1="125.2" x2="40.0" y2="163.8" opacity="1.0" stroke="rgb(0,0,0)" stroke-width="2.0"/>
<line x1="47.2" y1="131.2" x2="47.2" y2="157.8" opacity="1.0" stroke="rgb(0,0,0)" stroke-width="2.0"/>
<line x1="40.0" y1="163.8" x2="73.5" y2="183.2" opacity="1.0" stroke="rgb(0,0,0)" stroke-width="2.0"/>
<line x1="73.5" y1="183.2" x2="107.0" y2="163.8" opacity="1.0" stroke="rgb(0,0,0)" stroke-width="2.0"/>
<line x1="75.1" y1="173.9" x2="98.2" y2="160.6" opacity="1.0" stroke="rgb(0,0,0)" stroke-width="2.0"/>
<line x1="107.0" y1="163.8" x2="107.0" y2="125.2" opacity="1.0" stroke="rgb(0,0,0)" stroke-width="2.0"/>
<line x1="107.0" y1="125.2" x2="73.5" y2="105.8" opacity="1.0" stroke="rgb(0,0,0)" stroke-width="2.0"/>
<line x1="98.2" y1="128.4" x2="75.1" y2="115.1" opacity="1.0" stroke="rgb(0,0,0)" stroke-width="2.0"/>
<line x1="140.5" y1="299.2" x2="173.9" y2="279.8" opacity="1.0" stroke="rgb(0,0,0)" stroke-width="2.0"/>
<line x1="142.1" y1="289.9" x2="165.1" y2="276.6" opacity="1.0" stroke="rgb(0,0,0)" stroke-width="2.0"/>
<line x1="173.9" y1="279.8" x2="173.9" y2="241.2" opacity="1.0" stroke="rgb(0,0,0)" stroke-width="2.0"/>
<line x1="173.9" y1="241.2" x2="140.5" y2="221.8" opacity="1.0" stroke="rgb(0,0,0)" stroke-width="2.0"/>
<line x1="165.1" y1="244.4" x2="142.1" y2="231.1" opacity="1.0" stroke="rgb(0,0,0)" stroke-width="2.0"/>
<line x1="140.5" y1="221.8" x2="107.0" y2="241.2" opacity="1.0" stroke="rgb(0,0,0)" stroke-width="2.0"/>
<line x1="107.0" y1="241.2" x2="107.0" y2="279.8" opacity="1.0" stroke="rgb(0,0,0)" stroke-width="2.0"/>
<line x1="114.2" y1="247.2" x2="114.2" y2="273.8" opacity="1.0" stroke="rgb(0,0,0)" stroke-width="2.0"/>
<line x1="107.0" y1="279.8" x2="140.5" y2="299.2" opacity="1.0" stroke="rgb(0,0,0)" stroke-width="2.0"/>
<line x1="207.4" y1="105.8" x2="240.9" y2="86.5" opacity="1.0" stroke="rgb(0,0,0)" stroke-width="2.0"/>
<line x1="240.9" y1="86.5" x2="274.4" y2="105.8" opacity="1.0" stroke="rgb(0,0,0)" stroke-width="2.0"/>
<line x1="242.5" y1="95.7" x2="265.6" y2="109.1" opacity="1.0" stroke="rgb(0,0,0)" stroke-width="2.0"/>
<line x1="274.4" y1="105.8" x2="274.4" y2="144.5" opacity="1.0" stroke="rgb(0,0,0)" stroke-width="2.0"/>
<line x1="274.4" y1="144.5" x2="240.9" y2="163.8" opacity="1.0" stroke="rgb(0,0,0)" stroke-width="2.0"/>
<line x1="265.6" y1="141.3" x2="242.5" y2="154.6" opacity="1.0" stroke="rgb(0,0,0)" stroke-width="2.0"/>
<line x1="240.9" y1="163.8" x2="207.4" y2="144.5" opacity="1.0" stroke="rgb(0,0,0)" stroke-width="2.0"/>
<line x1="207.4" y1="144.5" x2="207.4" y2="105.8" opacity="1.0" stroke="rgb(0,0,0)" stroke-width="2.0"/>
<line x1="214.6" y1="138.5" x2="214.6" y2="111.8" opacity="1.0" stroke="rgb(0,0,0)" stroke-width="2.0"/>
<line x1="140.5" y1="221.8" x2="140.5" y2="196.2" opacity="1.0" stroke="rgb(0,0,0)" stroke-width="2.0"/>
<line x1="129.2" y1="176.7" x2="107.0" y2="163.8" opacity="1.0" stroke="rgb(0,0,0)" stroke-width="2.0"/>
<line x1="73.5" y1="183.2" x2="73.5" y2="208.8" opacity="1.0" stroke="rgb(0,0,0)" stroke-width="2.0"/>
<line x1="84.7" y1="228.3" x2="107.0" y2="241.2" opacity="1.0" stroke="rgb(0,0,0)" stroke-width="2.0"/>
<text x="343.753999" y="48.000000" fill="rgb(178,178,0)" stroke-width="0" font-weight="bold" font-size="16">S</text>
<text x="67.486316" y="229.827432" fill="rgb(178,178,0)" stroke-width="0" font-weight="bold" font-size="16">S</text>
<text x="134.458947" y="191.160765" fill="rgb(12,12,255)" stroke-width="0" font-weight="bold" font-size="16">N</text>
</svg>
</g>
</svg>
