<svg xmlns="http://www.w3.org/2000/svg" x="0" y="0" viewBox="0 0 100 100">
<title>H_2_N - Open Babel Depiction</title>
<rect x="0" y="0" width="100" height="100" fill="white"/>
<g transform="translate(0,0)">
<svg width="100" height="100" x="0" y="0" viewBox="0 0 362.541 359.213" font-family="sans-serif" stroke="rgb(0,0,0)" stroke-width="2" stroke-linecap="round">
<line x1="145.4" y1="204.0" x2="259.8" y2="138.0" opacity="1.0" stroke="rgb(0,0,0)" stroke-width="2.0"/>
<line x1="259.8" y1="101.7" x2="228.4" y2="83.6" opacity="1.0" stroke="rgb(0,0,0)" stroke-width="2.0"/>
<line x1="195.2" y1="98.3" x2="179.7" y2="81.1" opacity="1.0" stroke="rgb(0,0,0)" stroke-width="2.0"/>
<line x1="177.5" y1="60.1" x2="189.1" y2="40.0" opacity="1.0" stroke="rgb(0,0,0)" stroke-width="2.0"/>
<line x1="189.1" y1="40.0" x2="224.6" y2="47.5" opacity="1.0" stroke="rgb(0,0,0)" stroke-width="2.0"/>
<line x1="193.5" y1="48.3" x2="217.2" y2="53.3" opacity="1.0" stroke="rgb(0,0,0)" stroke-width="2.0"/>
<line x1="224.6" y1="47.5" x2="228.4" y2="83.6" opacity="1.0" stroke="rgb(0,0,0)" stroke-width="2.0"/>
<line x1="228.4" y1="83.6" x2="195.2" y2="98.3" opacity="1.0" stroke="rgb(0,0,0)" stroke-width="2.0"/>
<line x1="220.0" y1="79.5" x2="197.8" y2="89.3" opacity="1.0" stroke="rgb(0,0,0)" stroke-width="2.0"/>
<line x1="71.4" y1="138.0" x2="40.0" y2="156.1" opacity="1.0" stroke="rgb(0,0,0)" stroke-width="2.0"/>
<line x1="40.0" y1="156.1" x2="40.0" y2="192.3" opacity="1.0" stroke="rgb(0,0,0)" stroke-width="2.0"/>
<line x1="47.2" y1="162.1" x2="47.2" y2="186.3" opacity="1.0" stroke="rgb(0,0,0)" stroke-width="2.0"/>
<line x1="40.0" y1="192.3" x2="71.4" y2="210.5" opacity="1.0" stroke="rgb(0,0,0)" stroke-width="2.0"/>
<line x1="71.4" y1="210.5" x2="102.8" y2="192.3" opacity="1.0" stroke="rgb(0,0,0)" stroke-width="2.0"/>
<line x1="73.0" y1="201.2" x2="94.0" y2="189.1" opacity="1.0" stroke="rgb(0,0,0)" stroke-width="2.0"/>
<line x1="102.8" y1="192.3" x2="102.8" y2="156.1" opacity="1.0" stroke="rgb(0,0,0)" stroke-width="2.0"/>
<line x1="102.8" y1="156.1" x2="71.4" y2="138.0" opacity="1.0" stroke="rgb(0,0,0)" stroke-width="2.0"/>
<line x1="94.0" y1="159.3" x2="73.0" y2="147.2" opacity="1.0" stroke="rgb(0,0,0)" stroke-width="2.0"/>
<line x1="134.2" y1="319.2" x2="165.6" y2="301.1" opacity="1.0" stroke="rgb(0,0,0)" stroke-width="2.0"/>
<line x1="135.8" y1="310.0" x2="156.8" y2="297.9" opacity="1.0" stroke="rgb(0,0,0)" stroke-width="2.0"/>
<line x1="165.6" y1="301.1" x2="165.6" y2="264.8" opacity="1.0" stroke="rgb(0,0,0)" stroke-width="2.0"/>
<line x1="165.6" y1="264.8" x2="134.2" y2="246.7" opacity="1.0" stroke="rgb(0,0,0)" stroke-width="2.0"/>
<line x1="156.8" y1="268.1" x2="135.8" y2="255.9" opacity="1.0" stroke="rgb(0,0,0)" stroke-width="2.0"/>
<line x1="134.2" y1="246.7" x2="102.8" y2="264.8" opacity="1.0" stroke="rgb(0,0,0)" stroke-width="2.0"/>
<line x1="102.8" y1="264.8" x2="102.8" y2="301.1" opacity="1.0" stroke="rgb(0,0,0)" stroke-width="2.0"/>
<line x1="110.0" y1="270.8" x2="110.0" y2="295.1" opacity="1.0" stroke="rgb(0,0,0)" stroke-width="2.0"/>
<line x1="102.8" y1="301.1" x2="134.2" y2="319.2" opacity="1.0" stroke="rgb(0,0,0)" stroke-width="2.0"/>
<line x1="291.1" y1="156.1" x2="322.5" y2="138.0" opacity="1.0" stroke="rgb(0,0,0)" stroke-width="2.0"/>
<line x1="322.5" y1="138.0" x2="322.5" y2="101.7" opacity="1.0" stroke="rgb(0,0,0)" stroke-width="2.0"/>
<line x1="315.3" y1="132.0" x2="315.3" y2="107.7" opacity="1.0" stroke="rgb(0,0,0)" stroke-width="2.0"/>
<line x1="322.5" y1="101.7" x2="291.1" y2="83.6" opacity="1.0" stroke="rgb(0,0,0)" stroke-width="2.0"/>
<line x1="291.1" y1="83.6" x2="259.8" y2="101.7" opacity="1.0" stroke="rgb(0,0,0)" stroke-width="2.0"/>
<line x1="289.6" y1="92.8" x2="268.6" y2="104.9" opacity="1.0" stroke="rgb(0,0,0)" stroke-width="2.0"/>
<line x1="259.8" y1="101.7" x2="259.8" y2="138.0" opacity="1.0" stroke="rgb(0,0,0)" stroke-width="2.0"/>
<line x1="259.8" y1="138.0" x2="291.1" y2="156.1" opacity="1.0" stroke="rgb(0,0,0)" stroke-width="2.0"/>
<line x1="268.6" y1="134.7" x2="289.6" y2="146.9" opacity="1.0" stroke="rgb(0,0,0)" stroke-width="2.0"/>
<line x1="134.2" y1="246.7" x2="134.2" y2="223.5" opacity="1.0" stroke="rgb(0,0,0)" stroke-width="2.0"/>
<line x1="122.9" y1="204.0" x2="102.8" y2="192.3" opacity="1.0" stroke="rgb(0,0,0)" stroke-width="2.0"/>
<line x1="71.4" y1="210.5" x2="71.4" y2="233.7" opacity="1.0" stroke="rgb(0,0,0)" stroke-width="2.0"/>
<line x1="82.7" y1="253.2" x2="102.8" y2="264.8" opacity="1.0" stroke="rgb(0,0,0)" stroke-width="2.0"/>
<text x="164.988518" y="79.393421" fill="rgb(178,178,0)" stroke-width="0" font-weight="bold" font-size="16">S</text>
<text x="65.393421" y="254.713217" fill="rgb(178,178,0)" stroke-width="0" font-weight="bold" font-size="16">S</text>
<text x="128.180263" y="218.463217" fill="rgb(12,12,255)" stroke-width="0" font-weight="bold" font-size="16">N</text>
</svg>
</g>
</svg>
