<svg xmlns="http://www.w3.org/2000/svg" x="0" y="0" viewBox="0 0 100 100">
<title>H_2_T - Open Babel Depiction</title>
<rect x="0" y="0" width="100" height="100" fill="white"/>
<g transform="translate(0,0)">
<svg width="100" height="100" x="0" y="0" viewBox="0 0 364.26 317.059" font-family="sans-serif" stroke="rgb(0,0,0)" stroke-width="2" stroke-linecap="round">
<line x1="218.2" y1="155.9" x2="103.2" y2="222.4" opacity="1.0" stroke="rgb(0,0,0)" stroke-width="2.0"/>
<line x1="71.6" y1="94.7" x2="71.6" y2="71.2" opacity="1.0" stroke="rgb(0,0,0)" stroke-width="2.0"/>
<line x1="71.6" y1="204.1" x2="71.6" y2="167.6" opacity="1.0" stroke="rgb(0,0,0)" stroke-width="2.0"/>
<line x1="292.7" y1="222.4" x2="324.3" y2="204.1" opacity="1.0" stroke="rgb(0,0,0)" stroke-width="2.0"/>
<line x1="324.3" y1="204.1" x2="324.3" y2="167.6" opacity="1.0" stroke="rgb(0,0,0)" stroke-width="2.0"/>
<line x1="317.1" y1="198.1" x2="317.1" y2="173.6" opacity="1.0" stroke="rgb(0,0,0)" stroke-width="2.0"/>
<line x1="324.3" y1="167.6" x2="292.7" y2="149.4" opacity="1.0" stroke="rgb(0,0,0)" stroke-width="2.0"/>
<line x1="292.7" y1="149.4" x2="261.1" y2="167.6" opacity="1.0" stroke="rgb(0,0,0)" stroke-width="2.0"/>
<line x1="291.1" y1="158.6" x2="269.9" y2="170.9" opacity="1.0" stroke="rgb(0,0,0)" stroke-width="2.0"/>
<line x1="261.1" y1="167.6" x2="261.1" y2="204.1" opacity="1.0" stroke="rgb(0,0,0)" stroke-width="2.0"/>
<line x1="261.1" y1="204.1" x2="292.7" y2="222.4" opacity="1.0" stroke="rgb(0,0,0)" stroke-width="2.0"/>
<line x1="269.9" y1="200.9" x2="291.1" y2="213.1" opacity="1.0" stroke="rgb(0,0,0)" stroke-width="2.0"/>
<line x1="229.5" y1="40.0" x2="197.9" y2="58.2" opacity="1.0" stroke="rgb(0,0,0)" stroke-width="2.0"/>
<line x1="227.9" y1="49.2" x2="206.7" y2="61.5" opacity="1.0" stroke="rgb(0,0,0)" stroke-width="2.0"/>
<line x1="197.9" y1="58.2" x2="197.9" y2="94.7" opacity="1.0" stroke="rgb(0,0,0)" stroke-width="2.0"/>
<line x1="197.9" y1="94.7" x2="229.5" y2="112.9" opacity="1.0" stroke="rgb(0,0,0)" stroke-width="2.0"/>
<line x1="206.7" y1="91.5" x2="227.9" y2="103.7" opacity="1.0" stroke="rgb(0,0,0)" stroke-width="2.0"/>
<line x1="229.5" y1="112.9" x2="261.1" y2="94.7" opacity="1.0" stroke="rgb(0,0,0)" stroke-width="2.0"/>
<line x1="261.1" y1="94.7" x2="261.1" y2="58.2" opacity="1.0" stroke="rgb(0,0,0)" stroke-width="2.0"/>
<line x1="253.9" y1="88.7" x2="253.9" y2="64.2" opacity="1.0" stroke="rgb(0,0,0)" stroke-width="2.0"/>
<line x1="261.1" y1="58.2" x2="229.5" y2="40.0" opacity="1.0" stroke="rgb(0,0,0)" stroke-width="2.0"/>
<line x1="103.2" y1="258.8" x2="71.6" y2="277.1" opacity="1.0" stroke="rgb(0,0,0)" stroke-width="2.0"/>
<line x1="71.6" y1="277.1" x2="40.0" y2="258.8" opacity="1.0" stroke="rgb(0,0,0)" stroke-width="2.0"/>
<line x1="70.0" y1="267.8" x2="48.8" y2="255.6" opacity="1.0" stroke="rgb(0,0,0)" stroke-width="2.0"/>
<line x1="40.0" y1="258.8" x2="40.0" y2="222.4" opacity="1.0" stroke="rgb(0,0,0)" stroke-width="2.0"/>
<line x1="40.0" y1="222.4" x2="71.6" y2="204.1" opacity="1.0" stroke="rgb(0,0,0)" stroke-width="2.0"/>
<line x1="48.8" y1="225.6" x2="70.0" y2="213.4" opacity="1.0" stroke="rgb(0,0,0)" stroke-width="2.0"/>
<line x1="71.6" y1="204.1" x2="103.2" y2="222.4" opacity="1.0" stroke="rgb(0,0,0)" stroke-width="2.0"/>
<line x1="103.2" y1="222.4" x2="103.2" y2="258.8" opacity="1.0" stroke="rgb(0,0,0)" stroke-width="2.0"/>
<line x1="96.0" y1="228.4" x2="96.0" y2="252.8" opacity="1.0" stroke="rgb(0,0,0)" stroke-width="2.0"/>
<line x1="40.0" y1="149.4" x2="40.0" y2="112.9" opacity="1.0" stroke="rgb(0,0,0)" stroke-width="2.0"/>
<line x1="40.0" y1="112.9" x2="71.6" y2="94.7" opacity="1.0" stroke="rgb(0,0,0)" stroke-width="2.0"/>
<line x1="48.8" y1="116.2" x2="70.0" y2="103.9" opacity="1.0" stroke="rgb(0,0,0)" stroke-width="2.0"/>
<line x1="71.6" y1="94.7" x2="103.2" y2="112.9" opacity="1.0" stroke="rgb(0,0,0)" stroke-width="2.0"/>
<line x1="103.2" y1="112.9" x2="103.2" y2="149.4" opacity="1.0" stroke="rgb(0,0,0)" stroke-width="2.0"/>
<line x1="96.0" y1="118.9" x2="96.0" y2="143.4" opacity="1.0" stroke="rgb(0,0,0)" stroke-width="2.0"/>
<line x1="103.2" y1="149.4" x2="71.6" y2="167.6" opacity="1.0" stroke="rgb(0,0,0)" stroke-width="2.0"/>
<line x1="71.6" y1="167.6" x2="40.0" y2="149.4" opacity="1.0" stroke="rgb(0,0,0)" stroke-width="2.0"/>
<line x1="70.0" y1="158.4" x2="48.8" y2="146.2" opacity="1.0" stroke="rgb(0,0,0)" stroke-width="2.0"/>
<line x1="229.5" y1="112.9" x2="229.5" y2="136.4" opacity="1.0" stroke="rgb(0,0,0)" stroke-width="2.0"/>
<line x1="240.8" y1="155.9" x2="261.1" y2="167.6" opacity="1.0" stroke="rgb(0,0,0)" stroke-width="2.0"/>
<line x1="292.7" y1="149.4" x2="292.7" y2="125.9" opacity="1.0" stroke="rgb(0,0,0)" stroke-width="2.0"/>
<line x1="281.4" y1="106.4" x2="261.1" y2="94.7" opacity="1.0" stroke="rgb(0,0,0)" stroke-width="2.0"/>
<text x="286.675647" y="120.941176" fill="rgb(178,178,0)" stroke-width="0" font-weight="bold" font-size="16">S</text>
<text x="67.584456" y="66.235294" fill="rgb(102,102,102)" stroke-width="0" font-weight="bold" font-size="16">CH</text>
<text x="91.584456" y="69.915294" fill="rgb(102,102,102)" stroke-width="0" font-weight="bold" font-size="13">3</text>
<text x="223.506735" y="157.411765" fill="rgb(12,12,255)" stroke-width="0" font-weight="bold" font-size="16">N</text>
</svg>
</g>
</svg>
