<svg xmlns="http://www.w3.org/2000/svg" xmlns:xlink="http://www.w3.org/1999/xlink" xmlns:cml="http://www.xml-cml.org/schema" version="1.1" id="topsvg" x="0" y="0" viewBox="0 0 100 100">
<title>H_3_N - Open Babel Depiction</title>
<rect x="0" y="0" width="100" height="100" fill="white"/>
<g transform="translate(0,0)">
<svg width="100" height="100" x="0" y="0" viewBox="0 0 483.023 377.577" font-family="sans-serif" stroke="rgb(0,0,0)" stroke-width="2" stroke-linecap="round">
<line x1="337.5" y1="155.3" x2="223.1" y2="221.4" opacity="1.0" stroke="rgb(0,0,0)" stroke-width="2.0"/>
<line x1="160.3" y1="257.7" x2="97.4" y2="294.0" opacity="1.0" stroke="rgb(0,0,0)" stroke-width="2.0"/>
<line x1="93.6" y1="330.0" x2="70.9" y2="334.9" opacity="1.0" stroke="rgb(0,0,0)" stroke-width="2.0"/>
<line x1="51.6" y1="326.3" x2="40.0" y2="306.2" opacity="1.0" stroke="rgb(0,0,0)" stroke-width="2.0"/>
<line x1="40.0" y1="306.2" x2="64.3" y2="279.2" opacity="1.0" stroke="rgb(0,0,0)" stroke-width="2.0"/>
<line x1="49.4" y1="306.5" x2="65.6" y2="288.5" opacity="1.0" stroke="rgb(0,0,0)" stroke-width="2.0"/>
<line x1="64.3" y1="279.2" x2="97.4" y2="294.0" opacity="1.0" stroke="rgb(0,0,0)" stroke-width="2.0"/>
<line x1="97.4" y1="294.0" x2="93.6" y2="330.0" opacity="1.0" stroke="rgb(0,0,0)" stroke-width="2.0"/>
<line x1="89.6" y1="299.2" x2="87.1" y2="323.3" opacity="1.0" stroke="rgb(0,0,0)" stroke-width="2.0"/>
<line x1="411.6" y1="221.4" x2="443.0" y2="203.3" opacity="1.0" stroke="rgb(0,0,0)" stroke-width="2.0"/>
<line x1="443.0" y1="203.3" x2="443.0" y2="167.0" opacity="1.0" stroke="rgb(0,0,0)" stroke-width="2.0"/>
<line x1="435.8" y1="197.3" x2="435.8" y2="173.0" opacity="1.0" stroke="rgb(0,0,0)" stroke-width="2.0"/>
<line x1="443.0" y1="167.0" x2="411.6" y2="148.8" opacity="1.0" stroke="rgb(0,0,0)" stroke-width="2.0"/>
<line x1="411.6" y1="148.8" x2="380.2" y2="167.0" opacity="1.0" stroke="rgb(0,0,0)" stroke-width="2.0"/>
<line x1="410.0" y1="158.1" x2="389.0" y2="170.2" opacity="1.0" stroke="rgb(0,0,0)" stroke-width="2.0"/>
<line x1="380.2" y1="167.0" x2="380.2" y2="203.3" opacity="1.0" stroke="rgb(0,0,0)" stroke-width="2.0"/>
<line x1="380.2" y1="203.3" x2="411.6" y2="221.4" opacity="1.0" stroke="rgb(0,0,0)" stroke-width="2.0"/>
<line x1="389.0" y1="200.0" x2="410.0" y2="212.2" opacity="1.0" stroke="rgb(0,0,0)" stroke-width="2.0"/>
<line x1="348.8" y1="40.0" x2="317.3" y2="58.1" opacity="1.0" stroke="rgb(0,0,0)" stroke-width="2.0"/>
<line x1="347.2" y1="49.2" x2="326.1" y2="61.4" opacity="1.0" stroke="rgb(0,0,0)" stroke-width="2.0"/>
<line x1="317.3" y1="58.1" x2="317.3" y2="94.4" opacity="1.0" stroke="rgb(0,0,0)" stroke-width="2.0"/>
<line x1="317.3" y1="94.4" x2="348.8" y2="112.6" opacity="1.0" stroke="rgb(0,0,0)" stroke-width="2.0"/>
<line x1="326.1" y1="91.2" x2="347.2" y2="103.3" opacity="1.0" stroke="rgb(0,0,0)" stroke-width="2.0"/>
<line x1="348.8" y1="112.6" x2="380.2" y2="94.4" opacity="1.0" stroke="rgb(0,0,0)" stroke-width="2.0"/>
<line x1="380.2" y1="94.4" x2="380.2" y2="58.1" opacity="1.0" stroke="rgb(0,0,0)" stroke-width="2.0"/>
<line x1="373.0" y1="88.4" x2="373.0" y2="64.1" opacity="1.0" stroke="rgb(0,0,0)" stroke-width="2.0"/>
<line x1="380.2" y1="58.1" x2="348.8" y2="40.0" opacity="1.0" stroke="rgb(0,0,0)" stroke-width="2.0"/>
<line x1="191.7" y1="167.0" x2="160.3" y2="148.8" opacity="1.0" stroke="rgb(0,0,0)" stroke-width="2.0"/>
<line x1="182.9" y1="170.2" x2="161.9" y2="158.1" opacity="1.0" stroke="rgb(0,0,0)" stroke-width="2.0"/>
<line x1="160.3" y1="148.8" x2="128.8" y2="167.0" opacity="1.0" stroke="rgb(0,0,0)" stroke-width="2.0"/>
<line x1="128.8" y1="167.0" x2="128.8" y2="203.3" opacity="1.0" stroke="rgb(0,0,0)" stroke-width="2.0"/>
<line x1="136.0" y1="173.0" x2="136.0" y2="197.3" opacity="1.0" stroke="rgb(0,0,0)" stroke-width="2.0"/>
<line x1="128.8" y1="203.3" x2="160.3" y2="221.4" opacity="1.0" stroke="rgb(0,0,0)" stroke-width="2.0"/>
<line x1="160.3" y1="221.4" x2="191.7" y2="203.3" opacity="1.0" stroke="rgb(0,0,0)" stroke-width="2.0"/>
<line x1="161.9" y1="212.2" x2="182.9" y2="200.0" opacity="1.0" stroke="rgb(0,0,0)" stroke-width="2.0"/>
<line x1="191.7" y1="203.3" x2="191.7" y2="167.0" opacity="1.0" stroke="rgb(0,0,0)" stroke-width="2.0"/>
<line x1="160.3" y1="257.7" x2="160.3" y2="221.4" opacity="1.0" stroke="rgb(0,0,0)" stroke-width="2.0"/>
<line x1="191.7" y1="203.3" x2="223.1" y2="221.4" opacity="1.0" stroke="rgb(0,0,0)" stroke-width="2.0"/>
<line x1="223.1" y1="221.4" x2="223.1" y2="257.7" opacity="1.0" stroke="rgb(0,0,0)" stroke-width="2.0"/>
<line x1="215.9" y1="227.4" x2="215.9" y2="251.7" opacity="1.0" stroke="rgb(0,0,0)" stroke-width="2.0"/>
<line x1="223.1" y1="257.7" x2="191.7" y2="275.8" opacity="1.0" stroke="rgb(0,0,0)" stroke-width="2.0"/>
<line x1="191.7" y1="275.8" x2="160.3" y2="257.7" opacity="1.0" stroke="rgb(0,0,0)" stroke-width="2.0"/>
<line x1="190.1" y1="266.6" x2="169.1" y2="254.4" opacity="1.0" stroke="rgb(0,0,0)" stroke-width="2.0"/>
<line x1="254.5" y1="312.1" x2="223.1" y2="330.2" opacity="1.0" stroke="rgb(0,0,0)" stroke-width="2.0"/>
<line x1="223.1" y1="330.2" x2="191.7" y2="312.1" opacity="1.0" stroke="rgb(0,0,0)" stroke-width="2.0"/>
<line x1="221.5" y1="321.0" x2="200.5" y2="308.9" opacity="1.0" stroke="rgb(0,0,0)" stroke-width="2.0"/>
<line x1="191.7" y1="312.1" x2="191.7" y2="275.8" opacity="1.0" stroke="rgb(0,0,0)" stroke-width="2.0"/>
<line x1="223.1" y1="257.7" x2="254.5" y2="275.8" opacity="1.0" stroke="rgb(0,0,0)" stroke-width="2.0"/>
<line x1="254.5" y1="275.8" x2="254.5" y2="312.1" opacity="1.0" stroke="rgb(0,0,0)" stroke-width="2.0"/>
<line x1="247.3" y1="281.8" x2="247.3" y2="306.1" opacity="1.0" stroke="rgb(0,0,0)" stroke-width="2.0"/>
<line x1="348.8" y1="112.6" x2="348.8" y2="135.8" opacity="1.0" stroke="rgb(0,0,0)" stroke-width="2.0"/>
<line x1="360.0" y1="155.3" x2="380.2" y2="167.0" opacity="1.0" stroke="rgb(0,0,0)" stroke-width="2.0"/>
<line x1="411.6" y1="148.8" x2="411.6" y2="125.6" opacity="1.0" stroke="rgb(0,0,0)" stroke-width="2.0"/>
<line x1="400.3" y1="106.1" x2="380.2" y2="94.4" opacity="1.0" stroke="rgb(0,0,0)" stroke-width="2.0"/>
<text x="52.139535" y="345.576660" fill="rgb(178,178,0)" stroke-width="0" font-weight="bold" font-size="16">S</text>
<text x="342.766784" y="156.837209" fill="rgb(12,12,255)" stroke-width="0" font-weight="bold" font-size="16">N</text>
<text x="405.603976" y="120.558140" fill="rgb(178,178,0)" stroke-width="0" font-weight="bold" font-size="16">S</text>
</svg>
</g>
</svg>