<svg xmlns="http://www.w3.org/2000/svg" x="0" y="0" viewBox="0 0 100 100">
<title>H_3_P - Open Babel Depiction</title>
<rect x="0" y="0" width="100" height="100" fill="white"/>
<g transform="translate(0,0)">
<svg width="100" height="100" x="0" y="0" viewBox="0 0 554.431 390.435" font-family="sans-serif" stroke="rgb(0,0,0)" stroke-width="2" stroke-linecap="round">
<line x1="146.1" y1="234.4" x2="261.4" y2="167.8" opacity="1.0" stroke="rgb(0,0,0)" stroke-width="2.0"/>
<line x1="494.1" y1="46.5" x2="503.2" y2="51.8" opacity="1.0" stroke="rgb(0,0,0)" stroke-width="2.0"/>
<line x1="451.2" y1="58.3" x2="471.5" y2="46.5" opacity="1.0" stroke="rgb(0,0,0)" stroke-width="2.0"/>
<line x1="324.7" y1="131.3" x2="387.9" y2="94.8" opacity="1.0" stroke="rgb(0,0,0)" stroke-width="2.0"/>
<line x1="71.6" y1="167.8" x2="40.0" y2="186.1" opacity="1.0" stroke="rgb(0,0,0)" stroke-width="2.0"/>
<line x1="40.0" y1="186.1" x2="40.0" y2="222.6" opacity="1.0" stroke="rgb(0,0,0)" stroke-width="2.0"/>
<line x1="47.2" y1="192.1" x2="47.2" y2="216.6" opacity="1.0" stroke="rgb(0,0,0)" stroke-width="2.0"/>
<line x1="40.0" y1="222.6" x2="71.6" y2="240.9" opacity="1.0" stroke="rgb(0,0,0)" stroke-width="2.0"/>
<line x1="71.6" y1="240.9" x2="103.3" y2="222.6" opacity="1.0" stroke="rgb(0,0,0)" stroke-width="2.0"/>
<line x1="73.2" y1="231.6" x2="94.5" y2="219.4" opacity="1.0" stroke="rgb(0,0,0)" stroke-width="2.0"/>
<line x1="103.3" y1="222.6" x2="103.3" y2="186.1" opacity="1.0" stroke="rgb(0,0,0)" stroke-width="2.0"/>
<line x1="103.3" y1="186.1" x2="71.6" y2="167.8" opacity="1.0" stroke="rgb(0,0,0)" stroke-width="2.0"/>
<line x1="94.5" y1="189.3" x2="73.2" y2="177.1" opacity="1.0" stroke="rgb(0,0,0)" stroke-width="2.0"/>
<line x1="134.9" y1="350.4" x2="166.5" y2="332.2" opacity="1.0" stroke="rgb(0,0,0)" stroke-width="2.0"/>
<line x1="136.5" y1="341.2" x2="157.7" y2="328.9" opacity="1.0" stroke="rgb(0,0,0)" stroke-width="2.0"/>
<line x1="166.5" y1="332.2" x2="166.5" y2="295.7" opacity="1.0" stroke="rgb(0,0,0)" stroke-width="2.0"/>
<line x1="166.5" y1="295.7" x2="134.9" y2="277.4" opacity="1.0" stroke="rgb(0,0,0)" stroke-width="2.0"/>
<line x1="157.7" y1="298.9" x2="136.5" y2="286.6" opacity="1.0" stroke="rgb(0,0,0)" stroke-width="2.0"/>
<line x1="134.9" y1="277.4" x2="103.3" y2="295.7" opacity="1.0" stroke="rgb(0,0,0)" stroke-width="2.0"/>
<line x1="103.3" y1="295.7" x2="103.3" y2="332.2" opacity="1.0" stroke="rgb(0,0,0)" stroke-width="2.0"/>
<line x1="110.5" y1="301.7" x2="110.5" y2="326.2" opacity="1.0" stroke="rgb(0,0,0)" stroke-width="2.0"/>
<line x1="103.3" y1="332.2" x2="134.9" y2="350.4" opacity="1.0" stroke="rgb(0,0,0)" stroke-width="2.0"/>
<line x1="293.0" y1="222.6" x2="324.7" y2="240.9" opacity="1.0" stroke="rgb(0,0,0)" stroke-width="2.0"/>
<line x1="301.8" y1="219.4" x2="323.1" y2="231.6" opacity="1.0" stroke="rgb(0,0,0)" stroke-width="2.0"/>
<line x1="324.7" y1="240.9" x2="356.3" y2="222.6" opacity="1.0" stroke="rgb(0,0,0)" stroke-width="2.0"/>
<line x1="356.3" y1="222.6" x2="356.3" y2="186.1" opacity="1.0" stroke="rgb(0,0,0)" stroke-width="2.0"/>
<line x1="349.1" y1="216.6" x2="349.1" y2="192.1" opacity="1.0" stroke="rgb(0,0,0)" stroke-width="2.0"/>
<line x1="356.3" y1="186.1" x2="324.7" y2="167.8" opacity="1.0" stroke="rgb(0,0,0)" stroke-width="2.0"/>
<line x1="324.7" y1="167.8" x2="293.0" y2="186.1" opacity="1.0" stroke="rgb(0,0,0)" stroke-width="2.0"/>
<line x1="323.1" y1="177.1" x2="301.8" y2="189.3" opacity="1.0" stroke="rgb(0,0,0)" stroke-width="2.0"/>
<line x1="293.0" y1="186.1" x2="293.0" y2="222.6" opacity="1.0" stroke="rgb(0,0,0)" stroke-width="2.0"/>
<line x1="324.7" y1="131.3" x2="324.7" y2="167.8" opacity="1.0" stroke="rgb(0,0,0)" stroke-width="2.0"/>
<line x1="293.0" y1="186.1" x2="261.4" y2="167.8" opacity="1.0" stroke="rgb(0,0,0)" stroke-width="2.0"/>
<line x1="261.4" y1="167.8" x2="261.4" y2="131.3" opacity="1.0" stroke="rgb(0,0,0)" stroke-width="2.0"/>
<line x1="268.6" y1="161.8" x2="268.6" y2="137.3" opacity="1.0" stroke="rgb(0,0,0)" stroke-width="2.0"/>
<line x1="261.4" y1="131.3" x2="293.0" y2="113.0" opacity="1.0" stroke="rgb(0,0,0)" stroke-width="2.0"/>
<line x1="293.0" y1="113.0" x2="324.7" y2="131.3" opacity="1.0" stroke="rgb(0,0,0)" stroke-width="2.0"/>
<line x1="294.6" y1="122.3" x2="315.9" y2="134.5" opacity="1.0" stroke="rgb(0,0,0)" stroke-width="2.0"/>
<line x1="229.8" y1="76.5" x2="261.4" y2="58.3" opacity="1.0" stroke="rgb(0,0,0)" stroke-width="2.0"/>
<line x1="261.4" y1="58.3" x2="293.0" y2="76.5" opacity="1.0" stroke="rgb(0,0,0)" stroke-width="2.0"/>
<line x1="263.0" y1="67.5" x2="284.2" y2="79.8" opacity="1.0" stroke="rgb(0,0,0)" stroke-width="2.0"/>
<line x1="293.0" y1="76.5" x2="293.0" y2="113.0" opacity="1.0" stroke="rgb(0,0,0)" stroke-width="2.0"/>
<line x1="261.4" y1="131.3" x2="229.8" y2="113.0" opacity="1.0" stroke="rgb(0,0,0)" stroke-width="2.0"/>
<line x1="229.8" y1="113.0" x2="229.8" y2="76.5" opacity="1.0" stroke="rgb(0,0,0)" stroke-width="2.0"/>
<line x1="237.0" y1="107.0" x2="237.0" y2="82.5" opacity="1.0" stroke="rgb(0,0,0)" stroke-width="2.0"/>
<line x1="387.9" y1="58.3" x2="419.5" y2="40.0" opacity="1.0" stroke="rgb(0,0,0)" stroke-width="2.0"/>
<line x1="419.5" y1="40.0" x2="451.2" y2="58.3" opacity="1.0" stroke="rgb(0,0,0)" stroke-width="2.0"/>
<line x1="421.1" y1="49.2" x2="442.4" y2="61.5" opacity="1.0" stroke="rgb(0,0,0)" stroke-width="2.0"/>
<line x1="451.2" y1="58.3" x2="451.2" y2="94.8" opacity="1.0" stroke="rgb(0,0,0)" stroke-width="2.0"/>
<line x1="451.2" y1="94.8" x2="419.5" y2="113.0" opacity="1.0" stroke="rgb(0,0,0)" stroke-width="2.0"/>
<line x1="442.4" y1="91.5" x2="421.1" y2="103.8" opacity="1.0" stroke="rgb(0,0,0)" stroke-width="2.0"/>
<line x1="419.5" y1="113.0" x2="387.9" y2="94.8" opacity="1.0" stroke="rgb(0,0,0)" stroke-width="2.0"/>
<line x1="387.9" y1="94.8" x2="387.9" y2="58.3" opacity="1.0" stroke="rgb(0,0,0)" stroke-width="2.0"/>
<line x1="395.1" y1="88.8" x2="395.1" y2="64.3" opacity="1.0" stroke="rgb(0,0,0)" stroke-width="2.0"/>
<line x1="134.9" y1="277.4" x2="134.9" y2="253.9" opacity="1.0" stroke="rgb(0,0,0)" stroke-width="2.0"/>
<line x1="123.6" y1="234.4" x2="103.3" y2="222.6" opacity="1.0" stroke="rgb(0,0,0)" stroke-width="2.0"/>
<line x1="71.6" y1="240.9" x2="71.6" y2="264.4" opacity="1.0" stroke="rgb(0,0,0)" stroke-width="2.0"/>
<line x1="82.9" y1="283.9" x2="103.3" y2="295.7" opacity="1.0" stroke="rgb(0,0,0)" stroke-width="2.0"/>
<text x="476.802554" y="48.000000" fill="rgb(255,12,12)" stroke-width="0" font-weight="bold" font-size="16">O</text>
<text x="510.431308" y="66.260870" fill="rgb(102,102,102)" stroke-width="0" font-weight="bold" font-size="16">CH</text>
<text x="534.431308" y="69.940870" fill="rgb(102,102,102)" stroke-width="0" font-weight="bold" font-size="13">3</text>
<text x="128.886262" y="248.869565" fill="rgb(12,12,255)" stroke-width="0" font-weight="bold" font-size="16">N</text>
<text x="65.628754" y="285.391304" fill="rgb(178,178,0)" stroke-width="0" font-weight="bold" font-size="16">S</text>
</svg>
</g>
</svg>
