<svg xmlns="http://www.w3.org/2000/svg" xmlns:xlink="http://www.w3.org/1999/xlink" xmlns:cml="http://www.xml-cml.org/schema" version="1.1" id="topsvg" x="0" y="0" viewBox="0 0 100 100">
<title>H_3_Q - Open Babel Depiction</title>
<rect x="0" y="0" width="100" height="100" fill="white"/>
<g transform="translate(0,0)">
<svg width="100" height="100" x="0" y="0" viewBox="0 0 489.394 389.091" font-family="sans-serif" stroke="rgb(0,0,0)" stroke-width="2" stroke-linecap="round">
<line x1="145.7" y1="233.5" x2="260.4" y2="167.3" opacity="1.0" stroke="rgb(0,0,0)" stroke-width="2.0"/>
<line x1="323.4" y1="130.9" x2="386.4" y2="94.5" opacity="1.0" stroke="rgb(0,0,0)" stroke-width="2.0"/>
<line x1="71.5" y1="167.3" x2="40.0" y2="185.5" opacity="1.0" stroke="rgb(0,0,0)" stroke-width="2.0"/>
<line x1="40.0" y1="185.5" x2="40.0" y2="221.8" opacity="1.0" stroke="rgb(0,0,0)" stroke-width="2.0"/>
<line x1="47.2" y1="191.5" x2="47.2" y2="215.8" opacity="1.0" stroke="rgb(0,0,0)" stroke-width="2.0"/>
<line x1="40.0" y1="221.8" x2="71.5" y2="240.0" opacity="1.0" stroke="rgb(0,0,0)" stroke-width="2.0"/>
<line x1="71.5" y1="240.0" x2="103.0" y2="221.8" opacity="1.0" stroke="rgb(0,0,0)" stroke-width="2.0"/>
<line x1="73.1" y1="230.8" x2="94.2" y2="218.6" opacity="1.0" stroke="rgb(0,0,0)" stroke-width="2.0"/>
<line x1="103.0" y1="221.8" x2="103.0" y2="185.5" opacity="1.0" stroke="rgb(0,0,0)" stroke-width="2.0"/>
<line x1="103.0" y1="185.5" x2="71.5" y2="167.3" opacity="1.0" stroke="rgb(0,0,0)" stroke-width="2.0"/>
<line x1="94.2" y1="188.7" x2="73.1" y2="176.5" opacity="1.0" stroke="rgb(0,0,0)" stroke-width="2.0"/>
<line x1="134.5" y1="349.1" x2="166.0" y2="330.9" opacity="1.0" stroke="rgb(0,0,0)" stroke-width="2.0"/>
<line x1="136.1" y1="339.9" x2="157.2" y2="327.7" opacity="1.0" stroke="rgb(0,0,0)" stroke-width="2.0"/>
<line x1="166.0" y1="330.9" x2="166.0" y2="294.5" opacity="1.0" stroke="rgb(0,0,0)" stroke-width="2.0"/>
<line x1="166.0" y1="294.5" x2="134.5" y2="276.4" opacity="1.0" stroke="rgb(0,0,0)" stroke-width="2.0"/>
<line x1="157.2" y1="297.8" x2="136.1" y2="285.6" opacity="1.0" stroke="rgb(0,0,0)" stroke-width="2.0"/>
<line x1="134.5" y1="276.4" x2="103.0" y2="294.5" opacity="1.0" stroke="rgb(0,0,0)" stroke-width="2.0"/>
<line x1="103.0" y1="294.5" x2="103.0" y2="330.9" opacity="1.0" stroke="rgb(0,0,0)" stroke-width="2.0"/>
<line x1="110.2" y1="300.5" x2="110.2" y2="324.9" opacity="1.0" stroke="rgb(0,0,0)" stroke-width="2.0"/>
<line x1="103.0" y1="330.9" x2="134.5" y2="349.1" opacity="1.0" stroke="rgb(0,0,0)" stroke-width="2.0"/>
<line x1="291.9" y1="221.8" x2="323.4" y2="240.0" opacity="1.0" stroke="rgb(0,0,0)" stroke-width="2.0"/>
<line x1="300.7" y1="218.6" x2="321.8" y2="230.8" opacity="1.0" stroke="rgb(0,0,0)" stroke-width="2.0"/>
<line x1="323.4" y1="240.0" x2="354.9" y2="221.8" opacity="1.0" stroke="rgb(0,0,0)" stroke-width="2.0"/>
<line x1="354.9" y1="221.8" x2="354.9" y2="185.5" opacity="1.0" stroke="rgb(0,0,0)" stroke-width="2.0"/>
<line x1="347.7" y1="215.8" x2="347.7" y2="191.5" opacity="1.0" stroke="rgb(0,0,0)" stroke-width="2.0"/>
<line x1="354.9" y1="185.5" x2="323.4" y2="167.3" opacity="1.0" stroke="rgb(0,0,0)" stroke-width="2.0"/>
<line x1="323.4" y1="167.3" x2="291.9" y2="185.5" opacity="1.0" stroke="rgb(0,0,0)" stroke-width="2.0"/>
<line x1="321.8" y1="176.5" x2="300.7" y2="188.7" opacity="1.0" stroke="rgb(0,0,0)" stroke-width="2.0"/>
<line x1="291.9" y1="185.5" x2="291.9" y2="221.8" opacity="1.0" stroke="rgb(0,0,0)" stroke-width="2.0"/>
<line x1="323.4" y1="130.9" x2="323.4" y2="167.3" opacity="1.0" stroke="rgb(0,0,0)" stroke-width="2.0"/>
<line x1="291.9" y1="185.5" x2="260.4" y2="167.3" opacity="1.0" stroke="rgb(0,0,0)" stroke-width="2.0"/>
<line x1="260.4" y1="167.3" x2="260.4" y2="130.9" opacity="1.0" stroke="rgb(0,0,0)" stroke-width="2.0"/>
<line x1="267.6" y1="161.3" x2="267.6" y2="136.9" opacity="1.0" stroke="rgb(0,0,0)" stroke-width="2.0"/>
<line x1="260.4" y1="130.9" x2="291.9" y2="112.7" opacity="1.0" stroke="rgb(0,0,0)" stroke-width="2.0"/>
<line x1="291.9" y1="112.7" x2="323.4" y2="130.9" opacity="1.0" stroke="rgb(0,0,0)" stroke-width="2.0"/>
<line x1="293.5" y1="122.0" x2="314.6" y2="134.1" opacity="1.0" stroke="rgb(0,0,0)" stroke-width="2.0"/>
<line x1="229.0" y1="76.4" x2="260.4" y2="58.2" opacity="1.0" stroke="rgb(0,0,0)" stroke-width="2.0"/>
<line x1="260.4" y1="58.2" x2="291.9" y2="76.4" opacity="1.0" stroke="rgb(0,0,0)" stroke-width="2.0"/>
<line x1="262.0" y1="67.4" x2="283.1" y2="79.6" opacity="1.0" stroke="rgb(0,0,0)" stroke-width="2.0"/>
<line x1="291.9" y1="76.4" x2="291.9" y2="112.7" opacity="1.0" stroke="rgb(0,0,0)" stroke-width="2.0"/>
<line x1="260.4" y1="130.9" x2="229.0" y2="112.7" opacity="1.0" stroke="rgb(0,0,0)" stroke-width="2.0"/>
<line x1="229.0" y1="112.7" x2="229.0" y2="76.4" opacity="1.0" stroke="rgb(0,0,0)" stroke-width="2.0"/>
<line x1="236.2" y1="106.7" x2="236.2" y2="82.4" opacity="1.0" stroke="rgb(0,0,0)" stroke-width="2.0"/>
<line x1="397.7" y1="51.7" x2="417.9" y2="40.0" opacity="1.0" stroke="rgb(0,0,0)" stroke-width="2.0"/>
<line x1="417.9" y1="40.0" x2="449.4" y2="58.2" opacity="1.0" stroke="rgb(0,0,0)" stroke-width="2.0"/>
<line x1="419.5" y1="49.2" x2="440.6" y2="61.4" opacity="1.0" stroke="rgb(0,0,0)" stroke-width="2.0"/>
<line x1="449.4" y1="58.2" x2="449.4" y2="81.5" opacity="1.0" stroke="rgb(0,0,0)" stroke-width="2.0"/>
<line x1="439.0" y1="100.5" x2="417.9" y2="112.7" opacity="1.0" stroke="rgb(0,0,0)" stroke-width="2.0"/>
<line x1="433.4" y1="95.5" x2="419.5" y2="103.5" opacity="1.0" stroke="rgb(0,0,0)" stroke-width="2.0"/>
<line x1="417.9" y1="112.7" x2="386.4" y2="94.5" opacity="1.0" stroke="rgb(0,0,0)" stroke-width="2.0"/>
<line x1="386.4" y1="94.5" x2="386.4" y2="70.2" opacity="1.0" stroke="rgb(0,0,0)" stroke-width="2.0"/>
<line x1="393.6" y1="88.5" x2="393.6" y2="72.5" opacity="1.0" stroke="rgb(0,0,0)" stroke-width="2.0"/>
<line x1="134.5" y1="276.4" x2="134.5" y2="253.0" opacity="1.0" stroke="rgb(0,0,0)" stroke-width="2.0"/>
<line x1="123.2" y1="233.5" x2="103.0" y2="221.8" opacity="1.0" stroke="rgb(0,0,0)" stroke-width="2.0"/>
<line x1="71.5" y1="240.0" x2="71.5" y2="263.4" opacity="1.0" stroke="rgb(0,0,0)" stroke-width="2.0"/>
<line x1="82.8" y1="282.9" x2="103.0" y2="294.5" opacity="1.0" stroke="rgb(0,0,0)" stroke-width="2.0"/>
<text x="380.410162" y="66.181818" fill="rgb(12,12,255)" stroke-width="0" font-weight="bold" font-size="16">N</text>
<text x="443.393827" y="102.545455" fill="rgb(12,12,255)" stroke-width="0" font-weight="bold" font-size="16">N</text>
<text x="128.475499" y="248.000000" fill="rgb(12,12,255)" stroke-width="0" font-weight="bold" font-size="16">N</text>
<text x="65.491833" y="284.363636" fill="rgb(178,178,0)" stroke-width="0" font-weight="bold" font-size="16">S</text>
</svg>
</g>
</svg>