<svg xmlns="http://www.w3.org/2000/svg" xmlns:xlink="http://www.w3.org/1999/xlink" xmlns:cml="http://www.xml-cml.org/schema" version="1.1" id="topsvg" x="0" y="0" viewBox="0 0 100 100">
<title>H_3_O - Open Babel Depiction</title>
<rect x="0" y="0" width="100" height="100" fill="white"/>
<g transform="translate(0,0)">
<svg width="100" height="100" x="0" y="0" viewBox="0 0 489.394 389.091" font-family="sans-serif" stroke="rgb(0,0,0)" stroke-width="2" stroke-linecap="round">
<line x1="343.7" y1="155.6" x2="229.0" y2="221.8" opacity="1.0" stroke="rgb(0,0,0)" stroke-width="2.0"/>
<line x1="166.0" y1="258.2" x2="103.0" y2="294.5" opacity="1.0" stroke="rgb(0,0,0)" stroke-width="2.0"/>
<line x1="417.9" y1="221.8" x2="449.4" y2="203.6" opacity="1.0" stroke="rgb(0,0,0)" stroke-width="2.0"/>
<line x1="449.4" y1="203.6" x2="449.4" y2="167.3" opacity="1.0" stroke="rgb(0,0,0)" stroke-width="2.0"/>
<line x1="442.2" y1="197.6" x2="442.2" y2="173.3" opacity="1.0" stroke="rgb(0,0,0)" stroke-width="2.0"/>
<line x1="449.4" y1="167.3" x2="417.9" y2="149.1" opacity="1.0" stroke="rgb(0,0,0)" stroke-width="2.0"/>
<line x1="417.9" y1="149.1" x2="386.4" y2="167.3" opacity="1.0" stroke="rgb(0,0,0)" stroke-width="2.0"/>
<line x1="416.3" y1="158.3" x2="395.2" y2="170.5" opacity="1.0" stroke="rgb(0,0,0)" stroke-width="2.0"/>
<line x1="386.4" y1="167.3" x2="386.4" y2="203.6" opacity="1.0" stroke="rgb(0,0,0)" stroke-width="2.0"/>
<line x1="386.4" y1="203.6" x2="417.9" y2="221.8" opacity="1.0" stroke="rgb(0,0,0)" stroke-width="2.0"/>
<line x1="395.2" y1="200.4" x2="416.3" y2="212.6" opacity="1.0" stroke="rgb(0,0,0)" stroke-width="2.0"/>
<line x1="354.9" y1="40.0" x2="323.4" y2="58.2" opacity="1.0" stroke="rgb(0,0,0)" stroke-width="2.0"/>
<line x1="353.3" y1="49.2" x2="332.2" y2="61.4" opacity="1.0" stroke="rgb(0,0,0)" stroke-width="2.0"/>
<line x1="323.4" y1="58.2" x2="323.4" y2="94.5" opacity="1.0" stroke="rgb(0,0,0)" stroke-width="2.0"/>
<line x1="323.4" y1="94.5" x2="354.9" y2="112.7" opacity="1.0" stroke="rgb(0,0,0)" stroke-width="2.0"/>
<line x1="332.2" y1="91.3" x2="353.3" y2="103.5" opacity="1.0" stroke="rgb(0,0,0)" stroke-width="2.0"/>
<line x1="354.9" y1="112.7" x2="386.4" y2="94.5" opacity="1.0" stroke="rgb(0,0,0)" stroke-width="2.0"/>
<line x1="386.4" y1="94.5" x2="386.4" y2="58.2" opacity="1.0" stroke="rgb(0,0,0)" stroke-width="2.0"/>
<line x1="379.2" y1="88.5" x2="379.2" y2="64.2" opacity="1.0" stroke="rgb(0,0,0)" stroke-width="2.0"/>
<line x1="386.4" y1="58.2" x2="354.9" y2="40.0" opacity="1.0" stroke="rgb(0,0,0)" stroke-width="2.0"/>
<line x1="197.5" y1="167.3" x2="166.0" y2="149.1" opacity="1.0" stroke="rgb(0,0,0)" stroke-width="2.0"/>
<line x1="188.7" y1="170.5" x2="167.6" y2="158.3" opacity="1.0" stroke="rgb(0,0,0)" stroke-width="2.0"/>
<line x1="166.0" y1="149.1" x2="134.5" y2="167.3" opacity="1.0" stroke="rgb(0,0,0)" stroke-width="2.0"/>
<line x1="134.5" y1="167.3" x2="134.5" y2="203.6" opacity="1.0" stroke="rgb(0,0,0)" stroke-width="2.0"/>
<line x1="141.7" y1="173.3" x2="141.7" y2="197.6" opacity="1.0" stroke="rgb(0,0,0)" stroke-width="2.0"/>
<line x1="134.5" y1="203.6" x2="166.0" y2="221.8" opacity="1.0" stroke="rgb(0,0,0)" stroke-width="2.0"/>
<line x1="166.0" y1="221.8" x2="197.5" y2="203.6" opacity="1.0" stroke="rgb(0,0,0)" stroke-width="2.0"/>
<line x1="167.6" y1="212.6" x2="188.7" y2="200.4" opacity="1.0" stroke="rgb(0,0,0)" stroke-width="2.0"/>
<line x1="197.5" y1="203.6" x2="197.5" y2="167.3" opacity="1.0" stroke="rgb(0,0,0)" stroke-width="2.0"/>
<line x1="166.0" y1="258.2" x2="166.0" y2="221.8" opacity="1.0" stroke="rgb(0,0,0)" stroke-width="2.0"/>
<line x1="197.5" y1="203.6" x2="229.0" y2="221.8" opacity="1.0" stroke="rgb(0,0,0)" stroke-width="2.0"/>
<line x1="229.0" y1="221.8" x2="229.0" y2="258.2" opacity="1.0" stroke="rgb(0,0,0)" stroke-width="2.0"/>
<line x1="221.8" y1="227.8" x2="221.8" y2="252.2" opacity="1.0" stroke="rgb(0,0,0)" stroke-width="2.0"/>
<line x1="229.0" y1="258.2" x2="197.5" y2="276.4" opacity="1.0" stroke="rgb(0,0,0)" stroke-width="2.0"/>
<line x1="197.5" y1="276.4" x2="166.0" y2="258.2" opacity="1.0" stroke="rgb(0,0,0)" stroke-width="2.0"/>
<line x1="195.9" y1="267.1" x2="174.8" y2="254.9" opacity="1.0" stroke="rgb(0,0,0)" stroke-width="2.0"/>
<line x1="260.4" y1="312.7" x2="229.0" y2="330.9" opacity="1.0" stroke="rgb(0,0,0)" stroke-width="2.0"/>
<line x1="229.0" y1="330.9" x2="197.5" y2="312.7" opacity="1.0" stroke="rgb(0,0,0)" stroke-width="2.0"/>
<line x1="227.4" y1="321.7" x2="206.3" y2="309.5" opacity="1.0" stroke="rgb(0,0,0)" stroke-width="2.0"/>
<line x1="197.5" y1="312.7" x2="197.5" y2="276.4" opacity="1.0" stroke="rgb(0,0,0)" stroke-width="2.0"/>
<line x1="229.0" y1="258.2" x2="260.4" y2="276.4" opacity="1.0" stroke="rgb(0,0,0)" stroke-width="2.0"/>
<line x1="260.4" y1="276.4" x2="260.4" y2="312.7" opacity="1.0" stroke="rgb(0,0,0)" stroke-width="2.0"/>
<line x1="253.2" y1="282.4" x2="253.2" y2="306.7" opacity="1.0" stroke="rgb(0,0,0)" stroke-width="2.0"/>
<line x1="91.7" y1="337.4" x2="71.5" y2="349.1" opacity="1.0" stroke="rgb(0,0,0)" stroke-width="2.0"/>
<line x1="71.5" y1="349.1" x2="40.0" y2="330.9" opacity="1.0" stroke="rgb(0,0,0)" stroke-width="2.0"/>
<line x1="69.9" y1="339.9" x2="48.8" y2="327.7" opacity="1.0" stroke="rgb(0,0,0)" stroke-width="2.0"/>
<line x1="40.0" y1="330.9" x2="40.0" y2="294.5" opacity="1.0" stroke="rgb(0,0,0)" stroke-width="2.0"/>
<line x1="40.0" y1="294.5" x2="71.5" y2="276.4" opacity="1.0" stroke="rgb(0,0,0)" stroke-width="2.0"/>
<line x1="48.8" y1="297.8" x2="69.9" y2="285.6" opacity="1.0" stroke="rgb(0,0,0)" stroke-width="2.0"/>
<line x1="71.5" y1="276.4" x2="103.0" y2="294.5" opacity="1.0" stroke="rgb(0,0,0)" stroke-width="2.0"/>
<line x1="103.0" y1="294.5" x2="103.0" y2="318.9" opacity="1.0" stroke="rgb(0,0,0)" stroke-width="2.0"/>
<line x1="95.8" y1="300.5" x2="95.8" y2="316.5" opacity="1.0" stroke="rgb(0,0,0)" stroke-width="2.0"/>
<line x1="354.9" y1="112.7" x2="354.9" y2="136.1" opacity="1.0" stroke="rgb(0,0,0)" stroke-width="2.0"/>
<line x1="366.2" y1="155.6" x2="386.4" y2="167.3" opacity="1.0" stroke="rgb(0,0,0)" stroke-width="2.0"/>
<line x1="417.9" y1="149.1" x2="417.9" y2="125.7" opacity="1.0" stroke="rgb(0,0,0)" stroke-width="2.0"/>
<line x1="406.6" y1="106.2" x2="386.4" y2="94.5" opacity="1.0" stroke="rgb(0,0,0)" stroke-width="2.0"/>
<text x="96.983666" y="338.909091" fill="rgb(12,12,255)" stroke-width="0" font-weight="bold" font-size="16">N</text>
<text x="348.918329" y="157.090909" fill="rgb(12,12,255)" stroke-width="0" font-weight="bold" font-size="16">N</text>
<text x="411.901994" y="120.727273" fill="rgb(178,178,0)" stroke-width="0" font-weight="bold" font-size="16">S</text>
</svg>
</g>
</svg>