<svg xmlns="http://www.w3.org/2000/svg" xmlns:xlink="http://www.w3.org/1999/xlink" xmlns:cml="http://www.xml-cml.org/schema" version="1.1" id="topsvg" x="0" y="0" viewBox="0 0 100 100">
<title>H_4_L - Open Babel Depiction</title>
<rect x="0" y="0" width="100" height="100" fill="white"/>
<g transform="translate(0,0)">
<svg width="100" height="100" x="0" y="0" viewBox="0 0 476.938 352.432" font-family="sans-serif" stroke="rgb(0,0,0)" stroke-width="2" stroke-linecap="round">
<line x1="246.0" y1="299.5" x2="257.2" y2="305.9" opacity="1.0" stroke="rgb(0,0,0)" stroke-width="2.0"/>
<line x1="234.7" y1="254.1" x2="234.7" y2="280.0" opacity="1.0" stroke="rgb(0,0,0)" stroke-width="2.0"/>
<line x1="324.6" y1="163.3" x2="268.4" y2="195.7" opacity="1.0" stroke="rgb(0,0,0)" stroke-width="2.0"/>
<line x1="201.0" y1="195.7" x2="167.3" y2="176.2" opacity="1.0" stroke="rgb(0,0,0)" stroke-width="2.0"/>
<line x1="40.0" y1="156.8" x2="62.9" y2="188.2" opacity="1.0" stroke="rgb(0,0,0)" stroke-width="2.0"/>
<line x1="49.4" y1="157.4" x2="65.2" y2="179.2" opacity="1.0" stroke="rgb(0,0,0)" stroke-width="2.0"/>
<line x1="62.9" y1="188.2" x2="99.9" y2="176.2" opacity="1.0" stroke="rgb(0,0,0)" stroke-width="2.0"/>
<line x1="99.9" y1="176.2" x2="99.9" y2="137.3" opacity="1.0" stroke="rgb(0,0,0)" stroke-width="2.0"/>
<line x1="99.9" y1="137.3" x2="75.2" y2="129.3" opacity="1.0" stroke="rgb(0,0,0)" stroke-width="2.0"/>
<line x1="55.2" y1="135.8" x2="40.0" y2="156.8" opacity="1.0" stroke="rgb(0,0,0)" stroke-width="2.0"/>
<line x1="403.2" y1="234.6" x2="436.9" y2="215.1" opacity="1.0" stroke="rgb(0,0,0)" stroke-width="2.0"/>
<line x1="436.9" y1="215.1" x2="436.9" y2="176.2" opacity="1.0" stroke="rgb(0,0,0)" stroke-width="2.0"/>
<line x1="429.7" y1="209.1" x2="429.7" y2="182.2" opacity="1.0" stroke="rgb(0,0,0)" stroke-width="2.0"/>
<line x1="436.9" y1="176.2" x2="403.2" y2="156.8" opacity="1.0" stroke="rgb(0,0,0)" stroke-width="2.0"/>
<line x1="403.2" y1="156.8" x2="369.5" y2="176.2" opacity="1.0" stroke="rgb(0,0,0)" stroke-width="2.0"/>
<line x1="401.6" y1="166.0" x2="378.3" y2="179.5" opacity="1.0" stroke="rgb(0,0,0)" stroke-width="2.0"/>
<line x1="369.5" y1="176.2" x2="369.5" y2="215.1" opacity="1.0" stroke="rgb(0,0,0)" stroke-width="2.0"/>
<line x1="369.5" y1="215.1" x2="403.2" y2="234.6" opacity="1.0" stroke="rgb(0,0,0)" stroke-width="2.0"/>
<line x1="378.3" y1="211.9" x2="401.6" y2="225.4" opacity="1.0" stroke="rgb(0,0,0)" stroke-width="2.0"/>
<line x1="335.8" y1="40.0" x2="302.1" y2="59.5" opacity="1.0" stroke="rgb(0,0,0)" stroke-width="2.0"/>
<line x1="334.2" y1="49.2" x2="310.9" y2="62.7" opacity="1.0" stroke="rgb(0,0,0)" stroke-width="2.0"/>
<line x1="302.1" y1="59.5" x2="302.1" y2="98.4" opacity="1.0" stroke="rgb(0,0,0)" stroke-width="2.0"/>
<line x1="302.1" y1="98.4" x2="335.8" y2="117.8" opacity="1.0" stroke="rgb(0,0,0)" stroke-width="2.0"/>
<line x1="310.9" y1="95.1" x2="334.2" y2="108.6" opacity="1.0" stroke="rgb(0,0,0)" stroke-width="2.0"/>
<line x1="335.8" y1="117.8" x2="369.5" y2="98.4" opacity="1.0" stroke="rgb(0,0,0)" stroke-width="2.0"/>
<line x1="369.5" y1="98.4" x2="369.5" y2="59.5" opacity="1.0" stroke="rgb(0,0,0)" stroke-width="2.0"/>
<line x1="362.3" y1="92.4" x2="362.3" y2="65.5" opacity="1.0" stroke="rgb(0,0,0)" stroke-width="2.0"/>
<line x1="369.5" y1="59.5" x2="335.8" y2="40.0" opacity="1.0" stroke="rgb(0,0,0)" stroke-width="2.0"/>
<line x1="268.4" y1="234.6" x2="234.7" y2="254.1" opacity="1.0" stroke="rgb(0,0,0)" stroke-width="2.0"/>
<line x1="234.7" y1="254.1" x2="201.0" y2="234.6" opacity="1.0" stroke="rgb(0,0,0)" stroke-width="2.0"/>
<line x1="233.1" y1="244.8" x2="209.8" y2="231.4" opacity="1.0" stroke="rgb(0,0,0)" stroke-width="2.0"/>
<line x1="201.0" y1="234.6" x2="201.0" y2="195.7" opacity="1.0" stroke="rgb(0,0,0)" stroke-width="2.0"/>
<line x1="201.0" y1="195.7" x2="234.7" y2="176.2" opacity="1.0" stroke="rgb(0,0,0)" stroke-width="2.0"/>
<line x1="209.8" y1="198.9" x2="233.1" y2="185.5" opacity="1.0" stroke="rgb(0,0,0)" stroke-width="2.0"/>
<line x1="234.7" y1="176.2" x2="268.4" y2="195.7" opacity="1.0" stroke="rgb(0,0,0)" stroke-width="2.0"/>
<line x1="268.4" y1="195.7" x2="268.4" y2="234.6" opacity="1.0" stroke="rgb(0,0,0)" stroke-width="2.0"/>
<line x1="261.2" y1="201.7" x2="261.2" y2="228.6" opacity="1.0" stroke="rgb(0,0,0)" stroke-width="2.0"/>
<line x1="167.3" y1="137.3" x2="133.6" y2="117.8" opacity="1.0" stroke="rgb(0,0,0)" stroke-width="2.0"/>
<line x1="133.6" y1="117.8" x2="99.9" y2="137.3" opacity="1.0" stroke="rgb(0,0,0)" stroke-width="2.0"/>
<line x1="132.0" y1="127.1" x2="108.7" y2="140.5" opacity="1.0" stroke="rgb(0,0,0)" stroke-width="2.0"/>
<line x1="99.9" y1="176.2" x2="133.6" y2="195.7" opacity="1.0" stroke="rgb(0,0,0)" stroke-width="2.0"/>
<line x1="108.7" y1="173.0" x2="132.0" y2="186.4" opacity="1.0" stroke="rgb(0,0,0)" stroke-width="2.0"/>
<line x1="133.6" y1="195.7" x2="167.3" y2="176.2" opacity="1.0" stroke="rgb(0,0,0)" stroke-width="2.0"/>
<line x1="167.3" y1="176.2" x2="167.3" y2="137.3" opacity="1.0" stroke="rgb(0,0,0)" stroke-width="2.0"/>
<line x1="160.1" y1="170.2" x2="160.1" y2="143.3" opacity="1.0" stroke="rgb(0,0,0)" stroke-width="2.0"/>
<line x1="335.8" y1="117.8" x2="335.8" y2="143.8" opacity="1.0" stroke="rgb(0,0,0)" stroke-width="2.0"/>
<line x1="347.1" y1="163.3" x2="369.5" y2="176.2" opacity="1.0" stroke="rgb(0,0,0)" stroke-width="2.0"/>
<line x1="403.2" y1="156.8" x2="403.2" y2="130.8" opacity="1.0" stroke="rgb(0,0,0)" stroke-width="2.0"/>
<line x1="392.0" y1="111.3" x2="369.5" y2="98.4" opacity="1.0" stroke="rgb(0,0,0)" stroke-width="2.0"/>
<text x="56.875967" y="133.270690" fill="rgb(12,12,255)" stroke-width="0" font-weight="bold" font-size="16">N</text>
<text x="56.875967" y="117.270690" fill="rgb(12,12,255)" stroke-width="0" font-weight="bold" font-size="16">H</text>
<text x="264.413920" y="320.432432" fill="rgb(102,102,102)" stroke-width="0" font-weight="bold" font-size="16">CH</text>
<text x="288.413920" y="324.112432" fill="rgb(102,102,102)" stroke-width="0" font-weight="bold" font-size="13">3</text>
<text x="228.709148" y="300.972973" fill="rgb(255,12,12)" stroke-width="0" font-weight="bold" font-size="16">O</text>
<text x="329.823465" y="164.756757" fill="rgb(12,12,255)" stroke-width="0" font-weight="bold" font-size="16">N</text>
<text x="397.233010" y="125.837838" fill="rgb(178,178,0)" stroke-width="0" font-weight="bold" font-size="16">S</text>
</svg>
</g>
</svg>