<svg xmlns="http://www.w3.org/2000/svg" x="0" y="0" viewBox="0 0 100 100">
<title>H_4_T - Open Babel Depiction</title>
<rect x="0" y="0" width="100" height="100" fill="white"/>
<g transform="translate(0,0)">
<svg width="100" height="100" x="0" y="0" viewBox="0 0 449.844 351.765" font-family="sans-serif" stroke="rgb(0,0,0)" stroke-width="2" stroke-linecap="round">
<line x1="196.9" y1="298.9" x2="185.7" y2="305.3" opacity="1.0" stroke="rgb(0,0,0)" stroke-width="2.0"/>
<line x1="208.1" y1="253.5" x2="208.1" y2="279.4" opacity="1.0" stroke="rgb(0,0,0)" stroke-width="2.0"/>
<line x1="297.7" y1="163.0" x2="241.7" y2="195.3" opacity="1.0" stroke="rgb(0,0,0)" stroke-width="2.0"/>
<line x1="73.6" y1="137.1" x2="51.3" y2="124.1" opacity="1.0" stroke="rgb(0,0,0)" stroke-width="2.0"/>
<line x1="174.5" y1="195.3" x2="140.9" y2="175.9" opacity="1.0" stroke="rgb(0,0,0)" stroke-width="2.0"/>
<line x1="376.2" y1="234.1" x2="409.8" y2="214.7" opacity="1.0" stroke="rgb(0,0,0)" stroke-width="2.0"/>
<line x1="409.8" y1="214.7" x2="409.8" y2="175.9" opacity="1.0" stroke="rgb(0,0,0)" stroke-width="2.0"/>
<line x1="402.6" y1="208.7" x2="402.6" y2="181.9" opacity="1.0" stroke="rgb(0,0,0)" stroke-width="2.0"/>
<line x1="409.8" y1="175.9" x2="376.2" y2="156.5" opacity="1.0" stroke="rgb(0,0,0)" stroke-width="2.0"/>
<line x1="376.2" y1="156.5" x2="342.6" y2="175.9" opacity="1.0" stroke="rgb(0,0,0)" stroke-width="2.0"/>
<line x1="374.6" y1="165.7" x2="351.4" y2="179.1" opacity="1.0" stroke="rgb(0,0,0)" stroke-width="2.0"/>
<line x1="342.6" y1="175.9" x2="342.6" y2="214.7" opacity="1.0" stroke="rgb(0,0,0)" stroke-width="2.0"/>
<line x1="342.6" y1="214.7" x2="376.2" y2="234.1" opacity="1.0" stroke="rgb(0,0,0)" stroke-width="2.0"/>
<line x1="351.4" y1="211.5" x2="374.6" y2="224.9" opacity="1.0" stroke="rgb(0,0,0)" stroke-width="2.0"/>
<line x1="309.0" y1="40.0" x2="275.4" y2="59.4" opacity="1.0" stroke="rgb(0,0,0)" stroke-width="2.0"/>
<line x1="307.4" y1="49.2" x2="284.2" y2="62.6" opacity="1.0" stroke="rgb(0,0,0)" stroke-width="2.0"/>
<line x1="275.4" y1="59.4" x2="275.4" y2="98.2" opacity="1.0" stroke="rgb(0,0,0)" stroke-width="2.0"/>
<line x1="275.4" y1="98.2" x2="309.0" y2="117.6" opacity="1.0" stroke="rgb(0,0,0)" stroke-width="2.0"/>
<line x1="284.2" y1="95.0" x2="307.4" y2="108.4" opacity="1.0" stroke="rgb(0,0,0)" stroke-width="2.0"/>
<line x1="309.0" y1="117.6" x2="342.6" y2="98.2" opacity="1.0" stroke="rgb(0,0,0)" stroke-width="2.0"/>
<line x1="342.6" y1="98.2" x2="342.6" y2="59.4" opacity="1.0" stroke="rgb(0,0,0)" stroke-width="2.0"/>
<line x1="335.4" y1="92.2" x2="335.4" y2="65.4" opacity="1.0" stroke="rgb(0,0,0)" stroke-width="2.0"/>
<line x1="342.6" y1="59.4" x2="309.0" y2="40.0" opacity="1.0" stroke="rgb(0,0,0)" stroke-width="2.0"/>
<line x1="241.7" y1="234.1" x2="208.1" y2="253.5" opacity="1.0" stroke="rgb(0,0,0)" stroke-width="2.0"/>
<line x1="208.1" y1="253.5" x2="174.5" y2="234.1" opacity="1.0" stroke="rgb(0,0,0)" stroke-width="2.0"/>
<line x1="206.5" y1="244.3" x2="183.3" y2="230.9" opacity="1.0" stroke="rgb(0,0,0)" stroke-width="2.0"/>
<line x1="174.5" y1="234.1" x2="174.5" y2="195.3" opacity="1.0" stroke="rgb(0,0,0)" stroke-width="2.0"/>
<line x1="174.5" y1="195.3" x2="208.1" y2="175.9" opacity="1.0" stroke="rgb(0,0,0)" stroke-width="2.0"/>
<line x1="183.3" y1="198.5" x2="206.5" y2="185.1" opacity="1.0" stroke="rgb(0,0,0)" stroke-width="2.0"/>
<line x1="208.1" y1="175.9" x2="241.7" y2="195.3" opacity="1.0" stroke="rgb(0,0,0)" stroke-width="2.0"/>
<line x1="241.7" y1="195.3" x2="241.7" y2="234.1" opacity="1.0" stroke="rgb(0,0,0)" stroke-width="2.0"/>
<line x1="234.5" y1="201.3" x2="234.5" y2="228.1" opacity="1.0" stroke="rgb(0,0,0)" stroke-width="2.0"/>
<line x1="107.2" y1="195.3" x2="73.6" y2="175.9" opacity="1.0" stroke="rgb(0,0,0)" stroke-width="2.0"/>
<line x1="73.6" y1="175.9" x2="73.6" y2="137.1" opacity="1.0" stroke="rgb(0,0,0)" stroke-width="2.0"/>
<line x1="80.8" y1="169.9" x2="80.8" y2="143.1" opacity="1.0" stroke="rgb(0,0,0)" stroke-width="2.0"/>
<line x1="73.6" y1="137.1" x2="107.2" y2="117.6" opacity="1.0" stroke="rgb(0,0,0)" stroke-width="2.0"/>
<line x1="107.2" y1="117.6" x2="140.9" y2="137.1" opacity="1.0" stroke="rgb(0,0,0)" stroke-width="2.0"/>
<line x1="108.8" y1="126.9" x2="132.1" y2="140.3" opacity="1.0" stroke="rgb(0,0,0)" stroke-width="2.0"/>
<line x1="140.9" y1="137.1" x2="140.9" y2="175.9" opacity="1.0" stroke="rgb(0,0,0)" stroke-width="2.0"/>
<line x1="140.9" y1="175.9" x2="107.2" y2="195.3" opacity="1.0" stroke="rgb(0,0,0)" stroke-width="2.0"/>
<line x1="132.1" y1="172.6" x2="108.8" y2="186.1" opacity="1.0" stroke="rgb(0,0,0)" stroke-width="2.0"/>
<line x1="309.0" y1="117.6" x2="309.0" y2="143.5" opacity="1.0" stroke="rgb(0,0,0)" stroke-width="2.0"/>
<line x1="320.2" y1="163.0" x2="342.6" y2="175.9" opacity="1.0" stroke="rgb(0,0,0)" stroke-width="2.0"/>
<line x1="376.2" y1="156.5" x2="376.2" y2="130.6" opacity="1.0" stroke="rgb(0,0,0)" stroke-width="2.0"/>
<line x1="365.0" y1="111.1" x2="342.6" y2="98.2" opacity="1.0" stroke="rgb(0,0,0)" stroke-width="2.0"/>
<text x="14.000000" y="125.647059" fill="rgb(102,102,102)" stroke-width="0" font-weight="bold" font-size="16">H</text>
<text x="26.000000" y="129.327059" fill="rgb(102,102,102)" stroke-width="0" font-weight="bold" font-size="13">3</text>
<text x="32.500000" y="125.647059" fill="rgb(102,102,102)" stroke-width="0" font-weight="bold" font-size="16">C</text>
<text x="148.488651" y="319.764706" fill="rgb(102,102,102)" stroke-width="0" font-weight="bold" font-size="16">H</text>
<text x="160.488651" y="323.444706" fill="rgb(102,102,102)" stroke-width="0" font-weight="bold" font-size="13">3</text>
<text x="166.988651" y="319.764706" fill="rgb(102,102,102)" stroke-width="0" font-weight="bold" font-size="16">C</text>
<text x="202.110814" y="300.352941" fill="rgb(255,12,12)" stroke-width="0" font-weight="bold" font-size="16">O</text>
<text x="302.977302" y="164.470588" fill="rgb(12,12,255)" stroke-width="0" font-weight="bold" font-size="16">N</text>
<text x="370.221627" y="125.647059" fill="rgb(178,178,0)" stroke-width="0" font-weight="bold" font-size="16">S</text>
</svg>
</g>
</svg>
