<svg xmlns="http://www.w3.org/2000/svg" x="0" y="0" viewBox="0 0 100 100">
<title>H_4_S - Open Babel Depiction</title>
<rect x="0" y="0" width="100" height="100" fill="white"/>
<g transform="translate(0,0)">
<svg width="100" height="100" x="0" y="0" viewBox="0 0 484.145 352.222" font-family="sans-serif" stroke="rgb(0,0,0)" stroke-width="2" stroke-linecap="round">
<line x1="230.8" y1="299.3" x2="219.7" y2="305.7" opacity="1.0" stroke="rgb(0,0,0)" stroke-width="2.0"/>
<line x1="242.1" y1="253.9" x2="242.1" y2="279.8" opacity="1.0" stroke="rgb(0,0,0)" stroke-width="2.0"/>
<line x1="331.9" y1="163.2" x2="275.8" y2="195.6" opacity="1.0" stroke="rgb(0,0,0)" stroke-width="2.0"/>
<line x1="107.4" y1="137.2" x2="73.7" y2="117.8" opacity="1.0" stroke="rgb(0,0,0)" stroke-width="2.0"/>
<line x1="73.7" y1="117.8" x2="73.7" y2="91.9" opacity="1.0" stroke="rgb(0,0,0)" stroke-width="2.0"/>
<line x1="75.2" y1="120.4" x2="52.8" y2="133.3" opacity="1.0" stroke="rgb(0,0,0)" stroke-width="2.0"/>
<line x1="72.2" y1="115.2" x2="49.8" y2="128.1" opacity="1.0" stroke="rgb(0,0,0)" stroke-width="2.0"/>
<line x1="208.4" y1="195.6" x2="174.7" y2="176.1" opacity="1.0" stroke="rgb(0,0,0)" stroke-width="2.0"/>
<line x1="410.5" y1="234.4" x2="444.1" y2="215.0" opacity="1.0" stroke="rgb(0,0,0)" stroke-width="2.0"/>
<line x1="444.1" y1="215.0" x2="444.1" y2="176.1" opacity="1.0" stroke="rgb(0,0,0)" stroke-width="2.0"/>
<line x1="436.9" y1="209.0" x2="436.9" y2="182.1" opacity="1.0" stroke="rgb(0,0,0)" stroke-width="2.0"/>
<line x1="444.1" y1="176.1" x2="410.5" y2="156.7" opacity="1.0" stroke="rgb(0,0,0)" stroke-width="2.0"/>
<line x1="410.5" y1="156.7" x2="376.8" y2="176.1" opacity="1.0" stroke="rgb(0,0,0)" stroke-width="2.0"/>
<line x1="408.9" y1="165.9" x2="385.6" y2="179.3" opacity="1.0" stroke="rgb(0,0,0)" stroke-width="2.0"/>
<line x1="376.8" y1="176.1" x2="376.8" y2="215.0" opacity="1.0" stroke="rgb(0,0,0)" stroke-width="2.0"/>
<line x1="376.8" y1="215.0" x2="410.5" y2="234.4" opacity="1.0" stroke="rgb(0,0,0)" stroke-width="2.0"/>
<line x1="385.6" y1="211.8" x2="408.9" y2="225.2" opacity="1.0" stroke="rgb(0,0,0)" stroke-width="2.0"/>
<line x1="343.1" y1="40.0" x2="309.4" y2="59.4" opacity="1.0" stroke="rgb(0,0,0)" stroke-width="2.0"/>
<line x1="341.5" y1="49.2" x2="318.2" y2="62.7" opacity="1.0" stroke="rgb(0,0,0)" stroke-width="2.0"/>
<line x1="309.4" y1="59.4" x2="309.4" y2="98.3" opacity="1.0" stroke="rgb(0,0,0)" stroke-width="2.0"/>
<line x1="309.4" y1="98.3" x2="343.1" y2="117.8" opacity="1.0" stroke="rgb(0,0,0)" stroke-width="2.0"/>
<line x1="318.2" y1="95.1" x2="341.5" y2="108.5" opacity="1.0" stroke="rgb(0,0,0)" stroke-width="2.0"/>
<line x1="343.1" y1="117.8" x2="376.8" y2="98.3" opacity="1.0" stroke="rgb(0,0,0)" stroke-width="2.0"/>
<line x1="376.8" y1="98.3" x2="376.8" y2="59.4" opacity="1.0" stroke="rgb(0,0,0)" stroke-width="2.0"/>
<line x1="369.6" y1="92.3" x2="369.6" y2="65.4" opacity="1.0" stroke="rgb(0,0,0)" stroke-width="2.0"/>
<line x1="376.8" y1="59.4" x2="343.1" y2="40.0" opacity="1.0" stroke="rgb(0,0,0)" stroke-width="2.0"/>
<line x1="275.8" y1="234.4" x2="242.1" y2="253.9" opacity="1.0" stroke="rgb(0,0,0)" stroke-width="2.0"/>
<line x1="242.1" y1="253.9" x2="208.4" y2="234.4" opacity="1.0" stroke="rgb(0,0,0)" stroke-width="2.0"/>
<line x1="240.5" y1="244.7" x2="217.2" y2="231.2" opacity="1.0" stroke="rgb(0,0,0)" stroke-width="2.0"/>
<line x1="208.4" y1="234.4" x2="208.4" y2="195.6" opacity="1.0" stroke="rgb(0,0,0)" stroke-width="2.0"/>
<line x1="208.4" y1="195.6" x2="242.1" y2="176.1" opacity="1.0" stroke="rgb(0,0,0)" stroke-width="2.0"/>
<line x1="217.2" y1="198.8" x2="240.5" y2="185.3" opacity="1.0" stroke="rgb(0,0,0)" stroke-width="2.0"/>
<line x1="242.1" y1="176.1" x2="275.8" y2="195.6" opacity="1.0" stroke="rgb(0,0,0)" stroke-width="2.0"/>
<line x1="275.8" y1="195.6" x2="275.8" y2="234.4" opacity="1.0" stroke="rgb(0,0,0)" stroke-width="2.0"/>
<line x1="268.6" y1="201.6" x2="268.6" y2="228.4" opacity="1.0" stroke="rgb(0,0,0)" stroke-width="2.0"/>
<line x1="141.0" y1="195.6" x2="107.4" y2="176.1" opacity="1.0" stroke="rgb(0,0,0)" stroke-width="2.0"/>
<line x1="107.4" y1="176.1" x2="107.4" y2="137.2" opacity="1.0" stroke="rgb(0,0,0)" stroke-width="2.0"/>
<line x1="114.6" y1="170.1" x2="114.6" y2="143.2" opacity="1.0" stroke="rgb(0,0,0)" stroke-width="2.0"/>
<line x1="107.4" y1="137.2" x2="141.0" y2="117.8" opacity="1.0" stroke="rgb(0,0,0)" stroke-width="2.0"/>
<line x1="141.0" y1="117.8" x2="174.7" y2="137.2" opacity="1.0" stroke="rgb(0,0,0)" stroke-width="2.0"/>
<line x1="142.6" y1="127.0" x2="165.9" y2="140.5" opacity="1.0" stroke="rgb(0,0,0)" stroke-width="2.0"/>
<line x1="174.7" y1="137.2" x2="174.7" y2="176.1" opacity="1.0" stroke="rgb(0,0,0)" stroke-width="2.0"/>
<line x1="174.7" y1="176.1" x2="141.0" y2="195.6" opacity="1.0" stroke="rgb(0,0,0)" stroke-width="2.0"/>
<line x1="165.9" y1="172.9" x2="142.6" y2="186.3" opacity="1.0" stroke="rgb(0,0,0)" stroke-width="2.0"/>
<line x1="343.1" y1="117.8" x2="343.1" y2="143.7" opacity="1.0" stroke="rgb(0,0,0)" stroke-width="2.0"/>
<line x1="354.4" y1="163.2" x2="376.8" y2="176.1" opacity="1.0" stroke="rgb(0,0,0)" stroke-width="2.0"/>
<line x1="410.5" y1="156.7" x2="410.5" y2="130.8" opacity="1.0" stroke="rgb(0,0,0)" stroke-width="2.0"/>
<line x1="399.2" y1="111.3" x2="376.8" y2="98.3" opacity="1.0" stroke="rgb(0,0,0)" stroke-width="2.0"/>
<text x="34.000000" y="145.222222" fill="rgb(255,12,12)" stroke-width="0" font-weight="bold" font-size="16">O</text>
<text x="69.678766" y="86.888889" fill="rgb(102,102,102)" stroke-width="0" font-weight="bold" font-size="16">CH</text>
<text x="93.678766" y="90.568889" fill="rgb(102,102,102)" stroke-width="0" font-weight="bold" font-size="13">3</text>
<text x="182.393829" y="320.222222" fill="rgb(102,102,102)" stroke-width="0" font-weight="bold" font-size="16">H</text>
<text x="194.393829" y="323.902222" fill="rgb(102,102,102)" stroke-width="0" font-weight="bold" font-size="13">3</text>
<text x="200.893829" y="320.222222" fill="rgb(102,102,102)" stroke-width="0" font-weight="bold" font-size="16">C</text>
<text x="236.072594" y="300.777778" fill="rgb(255,12,12)" stroke-width="0" font-weight="bold" font-size="16">O</text>
<text x="337.108891" y="164.666667" fill="rgb(12,12,255)" stroke-width="0" font-weight="bold" font-size="16">N</text>
<text x="404.466423" y="125.777778" fill="rgb(178,178,0)" stroke-width="0" font-weight="bold" font-size="16">S</text>
</svg>
</g>
</svg>
