<svg xmlns="http://www.w3.org/2000/svg" xmlns:xlink="http://www.w3.org/1999/xlink" xmlns:cml="http://www.xml-cml.org/schema" version="1.1" id="topsvg" x="0" y="0" viewBox="0 0 100 100">
<title>H_5_O - Open Babel Depiction</title>
<rect x="0" y="0" width="100" height="100" fill="white"/>
<g transform="translate(0,0)">
<svg width="100" height="100" x="0" y="0" viewBox="0 0 484.145 293.889" font-family="sans-serif" stroke="rgb(0,0,0)" stroke-width="2" stroke-linecap="round">
<line x1="152.3" y1="130.7" x2="208.4" y2="98.3" opacity="1.0" stroke="rgb(0,0,0)" stroke-width="2.0"/>
<line x1="343.1" y1="98.3" x2="376.8" y2="117.8" opacity="1.0" stroke="rgb(0,0,0)" stroke-width="2.0"/>
<line x1="73.7" y1="59.4" x2="40.0" y2="78.9" opacity="1.0" stroke="rgb(0,0,0)" stroke-width="2.0"/>
<line x1="40.0" y1="78.9" x2="40.0" y2="117.8" opacity="1.0" stroke="rgb(0,0,0)" stroke-width="2.0"/>
<line x1="47.2" y1="84.9" x2="47.2" y2="111.8" opacity="1.0" stroke="rgb(0,0,0)" stroke-width="2.0"/>
<line x1="40.0" y1="117.8" x2="73.7" y2="137.2" opacity="1.0" stroke="rgb(0,0,0)" stroke-width="2.0"/>
<line x1="73.7" y1="137.2" x2="107.4" y2="117.8" opacity="1.0" stroke="rgb(0,0,0)" stroke-width="2.0"/>
<line x1="75.3" y1="128.0" x2="98.6" y2="114.5" opacity="1.0" stroke="rgb(0,0,0)" stroke-width="2.0"/>
<line x1="107.4" y1="117.8" x2="107.4" y2="78.9" opacity="1.0" stroke="rgb(0,0,0)" stroke-width="2.0"/>
<line x1="107.4" y1="78.9" x2="73.7" y2="59.4" opacity="1.0" stroke="rgb(0,0,0)" stroke-width="2.0"/>
<line x1="98.6" y1="82.1" x2="75.3" y2="68.7" opacity="1.0" stroke="rgb(0,0,0)" stroke-width="2.0"/>
<line x1="141.0" y1="253.9" x2="174.7" y2="234.4" opacity="1.0" stroke="rgb(0,0,0)" stroke-width="2.0"/>
<line x1="142.6" y1="244.7" x2="165.9" y2="231.2" opacity="1.0" stroke="rgb(0,0,0)" stroke-width="2.0"/>
<line x1="174.7" y1="234.4" x2="174.7" y2="195.6" opacity="1.0" stroke="rgb(0,0,0)" stroke-width="2.0"/>
<line x1="174.7" y1="195.6" x2="141.0" y2="176.1" opacity="1.0" stroke="rgb(0,0,0)" stroke-width="2.0"/>
<line x1="165.9" y1="198.8" x2="142.6" y2="185.3" opacity="1.0" stroke="rgb(0,0,0)" stroke-width="2.0"/>
<line x1="141.0" y1="176.1" x2="107.4" y2="195.6" opacity="1.0" stroke="rgb(0,0,0)" stroke-width="2.0"/>
<line x1="107.4" y1="195.6" x2="107.4" y2="234.4" opacity="1.0" stroke="rgb(0,0,0)" stroke-width="2.0"/>
<line x1="114.6" y1="201.6" x2="114.6" y2="228.4" opacity="1.0" stroke="rgb(0,0,0)" stroke-width="2.0"/>
<line x1="107.4" y1="234.4" x2="141.0" y2="253.9" opacity="1.0" stroke="rgb(0,0,0)" stroke-width="2.0"/>
<line x1="208.4" y1="59.4" x2="242.1" y2="40.0" opacity="1.0" stroke="rgb(0,0,0)" stroke-width="2.0"/>
<line x1="242.1" y1="40.0" x2="275.8" y2="59.4" opacity="1.0" stroke="rgb(0,0,0)" stroke-width="2.0"/>
<line x1="243.7" y1="49.2" x2="267.0" y2="62.7" opacity="1.0" stroke="rgb(0,0,0)" stroke-width="2.0"/>
<line x1="275.8" y1="59.4" x2="275.8" y2="98.3" opacity="1.0" stroke="rgb(0,0,0)" stroke-width="2.0"/>
<line x1="275.8" y1="98.3" x2="242.1" y2="117.8" opacity="1.0" stroke="rgb(0,0,0)" stroke-width="2.0"/>
<line x1="267.0" y1="95.1" x2="243.7" y2="108.5" opacity="1.0" stroke="rgb(0,0,0)" stroke-width="2.0"/>
<line x1="242.1" y1="117.8" x2="208.4" y2="98.3" opacity="1.0" stroke="rgb(0,0,0)" stroke-width="2.0"/>
<line x1="208.4" y1="98.3" x2="208.4" y2="59.4" opacity="1.0" stroke="rgb(0,0,0)" stroke-width="2.0"/>
<line x1="215.6" y1="92.3" x2="215.6" y2="65.4" opacity="1.0" stroke="rgb(0,0,0)" stroke-width="2.0"/>
<line x1="343.1" y1="98.3" x2="309.4" y2="117.8" opacity="1.0" stroke="rgb(0,0,0)" stroke-width="2.0"/>
<line x1="334.3" y1="95.1" x2="311.0" y2="108.5" opacity="1.0" stroke="rgb(0,0,0)" stroke-width="2.0"/>
<line x1="309.4" y1="117.8" x2="275.8" y2="98.3" opacity="1.0" stroke="rgb(0,0,0)" stroke-width="2.0"/>
<line x1="275.8" y1="59.4" x2="309.4" y2="40.0" opacity="1.0" stroke="rgb(0,0,0)" stroke-width="2.0"/>
<line x1="309.4" y1="40.0" x2="343.1" y2="59.4" opacity="1.0" stroke="rgb(0,0,0)" stroke-width="2.0"/>
<line x1="311.0" y1="49.2" x2="334.3" y2="62.7" opacity="1.0" stroke="rgb(0,0,0)" stroke-width="2.0"/>
<line x1="343.1" y1="59.4" x2="343.1" y2="98.3" opacity="1.0" stroke="rgb(0,0,0)" stroke-width="2.0"/>
<line x1="421.7" y1="104.8" x2="444.1" y2="117.8" opacity="1.0" stroke="rgb(0,0,0)" stroke-width="2.0"/>
<line x1="444.1" y1="117.8" x2="444.1" y2="156.7" opacity="1.0" stroke="rgb(0,0,0)" stroke-width="2.0"/>
<line x1="436.9" y1="123.8" x2="436.9" y2="150.7" opacity="1.0" stroke="rgb(0,0,0)" stroke-width="2.0"/>
<line x1="444.1" y1="156.7" x2="410.5" y2="176.1" opacity="1.0" stroke="rgb(0,0,0)" stroke-width="2.0"/>
<line x1="410.5" y1="176.1" x2="376.8" y2="156.7" opacity="1.0" stroke="rgb(0,0,0)" stroke-width="2.0"/>
<line x1="408.9" y1="166.9" x2="385.6" y2="153.4" opacity="1.0" stroke="rgb(0,0,0)" stroke-width="2.0"/>
<line x1="376.8" y1="156.7" x2="376.8" y2="117.8" opacity="1.0" stroke="rgb(0,0,0)" stroke-width="2.0"/>
<line x1="376.8" y1="117.8" x2="399.4" y2="104.8" opacity="1.0" stroke="rgb(0,0,0)" stroke-width="2.0"/>
<line x1="385.6" y1="121.0" x2="401.1" y2="112.0" opacity="1.0" stroke="rgb(0,0,0)" stroke-width="2.0"/>
<line x1="141.0" y1="176.1" x2="141.0" y2="150.2" opacity="1.0" stroke="rgb(0,0,0)" stroke-width="2.0"/>
<line x1="129.8" y1="130.7" x2="107.4" y2="117.8" opacity="1.0" stroke="rgb(0,0,0)" stroke-width="2.0"/>
<line x1="73.7" y1="137.2" x2="73.7" y2="163.1" opacity="1.0" stroke="rgb(0,0,0)" stroke-width="2.0"/>
<line x1="84.9" y1="182.6" x2="107.4" y2="195.6" opacity="1.0" stroke="rgb(0,0,0)" stroke-width="2.0"/>
<text x="404.466423" y="106.333333" fill="rgb(12,12,255)" stroke-width="0" font-weight="bold" font-size="16">N</text>
<text x="135.036297" y="145.222222" fill="rgb(12,12,255)" stroke-width="0" font-weight="bold" font-size="16">N</text>
<text x="67.678766" y="184.111111" fill="rgb(178,178,0)" stroke-width="0" font-weight="bold" font-size="16">S</text>
</svg>
</g>
</svg>