<svg xmlns="http://www.w3.org/2000/svg" x="0" y="0" viewBox="0 0 100 100">
<title>H_5_L - Open Babel Depiction</title>
<rect x="0" y="0" width="100" height="100" fill="white"/>
<g transform="translate(0,0)">
<svg width="100" height="100" x="0" y="0" viewBox="0 0 514.283 294.5" font-family="sans-serif" stroke="rgb(0,0,0)" stroke-width="2" stroke-linecap="round">
<line x1="152.6" y1="163.5" x2="208.9" y2="196.0" opacity="1.0" stroke="rgb(0,0,0)" stroke-width="2.0"/>
<line x1="344.0" y1="196.0" x2="377.7" y2="176.5" opacity="1.0" stroke="rgb(0,0,0)" stroke-width="2.0"/>
<line x1="458.4" y1="75.8" x2="419.6" y2="79.9" opacity="1.0" stroke="rgb(0,0,0)" stroke-width="2.0"/>
<line x1="453.2" y1="83.6" x2="426.4" y2="86.4" opacity="1.0" stroke="rgb(0,0,0)" stroke-width="2.0"/>
<line x1="419.6" y1="79.9" x2="411.5" y2="118.0" opacity="1.0" stroke="rgb(0,0,0)" stroke-width="2.0"/>
<line x1="411.5" y1="118.0" x2="445.3" y2="137.5" opacity="1.0" stroke="rgb(0,0,0)" stroke-width="2.0"/>
<line x1="445.3" y1="137.5" x2="464.6" y2="120.1" opacity="1.0" stroke="rgb(0,0,0)" stroke-width="2.0"/>
<line x1="469.0" y1="99.5" x2="458.4" y2="75.8" opacity="1.0" stroke="rgb(0,0,0)" stroke-width="2.0"/>
<line x1="175.1" y1="59.5" x2="141.3" y2="40.0" opacity="1.0" stroke="rgb(0,0,0)" stroke-width="2.0"/>
<line x1="141.3" y1="40.0" x2="107.5" y2="59.5" opacity="1.0" stroke="rgb(0,0,0)" stroke-width="2.0"/>
<line x1="139.7" y1="49.2" x2="116.3" y2="62.7" opacity="1.0" stroke="rgb(0,0,0)" stroke-width="2.0"/>
<line x1="107.5" y1="59.5" x2="107.5" y2="98.5" opacity="1.0" stroke="rgb(0,0,0)" stroke-width="2.0"/>
<line x1="107.5" y1="98.5" x2="141.3" y2="118.0" opacity="1.0" stroke="rgb(0,0,0)" stroke-width="2.0"/>
<line x1="116.3" y1="95.3" x2="139.7" y2="108.8" opacity="1.0" stroke="rgb(0,0,0)" stroke-width="2.0"/>
<line x1="141.3" y1="118.0" x2="175.1" y2="98.5" opacity="1.0" stroke="rgb(0,0,0)" stroke-width="2.0"/>
<line x1="175.1" y1="98.5" x2="175.1" y2="59.5" opacity="1.0" stroke="rgb(0,0,0)" stroke-width="2.0"/>
<line x1="167.9" y1="92.5" x2="167.9" y2="65.5" opacity="1.0" stroke="rgb(0,0,0)" stroke-width="2.0"/>
<line x1="40.0" y1="215.5" x2="73.8" y2="235.0" opacity="1.0" stroke="rgb(0,0,0)" stroke-width="2.0"/>
<line x1="48.8" y1="212.3" x2="72.2" y2="225.8" opacity="1.0" stroke="rgb(0,0,0)" stroke-width="2.0"/>
<line x1="73.8" y1="235.0" x2="107.5" y2="215.5" opacity="1.0" stroke="rgb(0,0,0)" stroke-width="2.0"/>
<line x1="107.5" y1="215.5" x2="107.5" y2="176.5" opacity="1.0" stroke="rgb(0,0,0)" stroke-width="2.0"/>
<line x1="100.3" y1="209.5" x2="100.3" y2="182.5" opacity="1.0" stroke="rgb(0,0,0)" stroke-width="2.0"/>
<line x1="107.5" y1="176.5" x2="73.8" y2="157.0" opacity="1.0" stroke="rgb(0,0,0)" stroke-width="2.0"/>
<line x1="73.8" y1="157.0" x2="40.0" y2="176.5" opacity="1.0" stroke="rgb(0,0,0)" stroke-width="2.0"/>
<line x1="72.2" y1="166.2" x2="48.8" y2="179.7" opacity="1.0" stroke="rgb(0,0,0)" stroke-width="2.0"/>
<line x1="40.0" y1="176.5" x2="40.0" y2="215.5" opacity="1.0" stroke="rgb(0,0,0)" stroke-width="2.0"/>
<line x1="208.9" y1="235.0" x2="242.6" y2="254.5" opacity="1.0" stroke="rgb(0,0,0)" stroke-width="2.0"/>
<line x1="242.6" y1="254.5" x2="276.4" y2="235.0" opacity="1.0" stroke="rgb(0,0,0)" stroke-width="2.0"/>
<line x1="244.2" y1="245.3" x2="267.6" y2="231.8" opacity="1.0" stroke="rgb(0,0,0)" stroke-width="2.0"/>
<line x1="276.4" y1="235.0" x2="276.4" y2="196.0" opacity="1.0" stroke="rgb(0,0,0)" stroke-width="2.0"/>
<line x1="276.4" y1="196.0" x2="242.6" y2="176.5" opacity="1.0" stroke="rgb(0,0,0)" stroke-width="2.0"/>
<line x1="267.6" y1="199.2" x2="244.2" y2="185.7" opacity="1.0" stroke="rgb(0,0,0)" stroke-width="2.0"/>
<line x1="242.6" y1="176.5" x2="208.9" y2="196.0" opacity="1.0" stroke="rgb(0,0,0)" stroke-width="2.0"/>
<line x1="208.9" y1="196.0" x2="208.9" y2="235.0" opacity="1.0" stroke="rgb(0,0,0)" stroke-width="2.0"/>
<line x1="216.1" y1="202.0" x2="216.1" y2="229.0" opacity="1.0" stroke="rgb(0,0,0)" stroke-width="2.0"/>
<line x1="344.0" y1="196.0" x2="310.2" y2="176.5" opacity="1.0" stroke="rgb(0,0,0)" stroke-width="2.0"/>
<line x1="335.2" y1="199.2" x2="311.8" y2="185.7" opacity="1.0" stroke="rgb(0,0,0)" stroke-width="2.0"/>
<line x1="310.2" y1="176.5" x2="276.4" y2="196.0" opacity="1.0" stroke="rgb(0,0,0)" stroke-width="2.0"/>
<line x1="276.4" y1="235.0" x2="310.2" y2="254.5" opacity="1.0" stroke="rgb(0,0,0)" stroke-width="2.0"/>
<line x1="310.2" y1="254.5" x2="344.0" y2="235.0" opacity="1.0" stroke="rgb(0,0,0)" stroke-width="2.0"/>
<line x1="311.8" y1="245.3" x2="335.2" y2="231.8" opacity="1.0" stroke="rgb(0,0,0)" stroke-width="2.0"/>
<line x1="344.0" y1="235.0" x2="344.0" y2="196.0" opacity="1.0" stroke="rgb(0,0,0)" stroke-width="2.0"/>
<line x1="411.5" y1="196.0" x2="445.3" y2="176.5" opacity="1.0" stroke="rgb(0,0,0)" stroke-width="2.0"/>
<line x1="445.3" y1="176.5" x2="445.3" y2="137.5" opacity="1.0" stroke="rgb(0,0,0)" stroke-width="2.0"/>
<line x1="438.1" y1="170.5" x2="438.1" y2="143.5" opacity="1.0" stroke="rgb(0,0,0)" stroke-width="2.0"/>
<line x1="411.5" y1="118.0" x2="377.7" y2="137.5" opacity="1.0" stroke="rgb(0,0,0)" stroke-width="2.0"/>
<line x1="409.9" y1="127.2" x2="386.5" y2="140.7" opacity="1.0" stroke="rgb(0,0,0)" stroke-width="2.0"/>
<line x1="377.7" y1="137.5" x2="377.7" y2="176.5" opacity="1.0" stroke="rgb(0,0,0)" stroke-width="2.0"/>
<line x1="377.7" y1="176.5" x2="411.5" y2="196.0" opacity="1.0" stroke="rgb(0,0,0)" stroke-width="2.0"/>
<line x1="386.5" y1="173.3" x2="409.9" y2="186.8" opacity="1.0" stroke="rgb(0,0,0)" stroke-width="2.0"/>
<line x1="107.5" y1="176.5" x2="130.1" y2="163.5" opacity="1.0" stroke="rgb(0,0,0)" stroke-width="2.0"/>
<line x1="141.3" y1="144.0" x2="141.3" y2="118.0" opacity="1.0" stroke="rgb(0,0,0)" stroke-width="2.0"/>
<line x1="107.5" y1="98.5" x2="85.0" y2="111.5" opacity="1.0" stroke="rgb(0,0,0)" stroke-width="2.0"/>
<line x1="73.8" y1="131.0" x2="73.8" y2="157.0" opacity="1.0" stroke="rgb(0,0,0)" stroke-width="2.0"/>
<text x="468.282537" y="119.403906" fill="rgb(12,12,255)" stroke-width="0" font-weight="bold" font-size="16">NH</text>
<text x="135.324972" y="165.000000" fill="rgb(12,12,255)" stroke-width="0" font-weight="bold" font-size="16">N</text>
<text x="67.774991" y="126.000000" fill="rgb(178,178,0)" stroke-width="0" font-weight="bold" font-size="16">S</text>
</svg>
</g>
</svg>
