<svg xmlns="http://www.w3.org/2000/svg" xmlns:xlink="http://www.w3.org/1999/xlink" xmlns:cml="http://www.xml-cml.org/schema" version="1.1" id="topsvg" x="0" y="0" viewBox="0 0 100 100">
<title>H_5_M - Open Babel Depiction</title>
<rect x="0" y="0" width="100" height="100" fill="white"/>
<g transform="translate(0,0)">
<svg width="100" height="100" x="0" y="0" viewBox="0 0 552.212 294.211" font-family="sans-serif" stroke="rgb(0,0,0)" stroke-width="2" stroke-linecap="round">
<line x1="152.4" y1="130.9" x2="208.6" y2="98.4" opacity="1.0" stroke="rgb(0,0,0)" stroke-width="2.0"/>
<line x1="478.5" y1="176.3" x2="501.0" y2="189.3" opacity="1.0" stroke="rgb(0,0,0)" stroke-width="2.0"/>
<line x1="480.6" y1="172.7" x2="503.1" y2="185.7" opacity="1.0" stroke="rgb(0,0,0)" stroke-width="2.0"/>
<line x1="476.4" y1="180.0" x2="498.9" y2="192.9" opacity="1.0" stroke="rgb(0,0,0)" stroke-width="2.0"/>
<line x1="444.8" y1="156.8" x2="478.5" y2="176.3" opacity="1.0" stroke="rgb(0,0,0)" stroke-width="2.0"/>
<line x1="343.6" y1="98.4" x2="377.3" y2="117.9" opacity="1.0" stroke="rgb(0,0,0)" stroke-width="2.0"/>
<line x1="73.7" y1="59.5" x2="40.0" y2="78.9" opacity="1.0" stroke="rgb(0,0,0)" stroke-width="2.0"/>
<line x1="40.0" y1="78.9" x2="40.0" y2="117.9" opacity="1.0" stroke="rgb(0,0,0)" stroke-width="2.0"/>
<line x1="47.2" y1="84.9" x2="47.2" y2="111.9" opacity="1.0" stroke="rgb(0,0,0)" stroke-width="2.0"/>
<line x1="40.0" y1="117.9" x2="73.7" y2="137.4" opacity="1.0" stroke="rgb(0,0,0)" stroke-width="2.0"/>
<line x1="73.7" y1="137.4" x2="107.5" y2="117.9" opacity="1.0" stroke="rgb(0,0,0)" stroke-width="2.0"/>
<line x1="75.3" y1="128.1" x2="98.7" y2="114.7" opacity="1.0" stroke="rgb(0,0,0)" stroke-width="2.0"/>
<line x1="107.5" y1="117.9" x2="107.5" y2="78.9" opacity="1.0" stroke="rgb(0,0,0)" stroke-width="2.0"/>
<line x1="107.5" y1="78.9" x2="73.7" y2="59.5" opacity="1.0" stroke="rgb(0,0,0)" stroke-width="2.0"/>
<line x1="98.7" y1="82.2" x2="75.3" y2="68.7" opacity="1.0" stroke="rgb(0,0,0)" stroke-width="2.0"/>
<line x1="141.2" y1="254.2" x2="174.9" y2="234.7" opacity="1.0" stroke="rgb(0,0,0)" stroke-width="2.0"/>
<line x1="142.8" y1="245.0" x2="166.1" y2="231.5" opacity="1.0" stroke="rgb(0,0,0)" stroke-width="2.0"/>
<line x1="174.9" y1="234.7" x2="174.9" y2="195.8" opacity="1.0" stroke="rgb(0,0,0)" stroke-width="2.0"/>
<line x1="174.9" y1="195.8" x2="141.2" y2="176.3" opacity="1.0" stroke="rgb(0,0,0)" stroke-width="2.0"/>
<line x1="166.1" y1="199.0" x2="142.8" y2="185.6" opacity="1.0" stroke="rgb(0,0,0)" stroke-width="2.0"/>
<line x1="141.2" y1="176.3" x2="107.5" y2="195.8" opacity="1.0" stroke="rgb(0,0,0)" stroke-width="2.0"/>
<line x1="107.5" y1="195.8" x2="107.5" y2="234.7" opacity="1.0" stroke="rgb(0,0,0)" stroke-width="2.0"/>
<line x1="114.7" y1="201.8" x2="114.7" y2="228.7" opacity="1.0" stroke="rgb(0,0,0)" stroke-width="2.0"/>
<line x1="107.5" y1="234.7" x2="141.2" y2="254.2" opacity="1.0" stroke="rgb(0,0,0)" stroke-width="2.0"/>
<line x1="208.6" y1="59.5" x2="242.4" y2="40.0" opacity="1.0" stroke="rgb(0,0,0)" stroke-width="2.0"/>
<line x1="242.4" y1="40.0" x2="276.1" y2="59.5" opacity="1.0" stroke="rgb(0,0,0)" stroke-width="2.0"/>
<line x1="244.0" y1="49.2" x2="267.3" y2="62.7" opacity="1.0" stroke="rgb(0,0,0)" stroke-width="2.0"/>
<line x1="276.1" y1="59.5" x2="276.1" y2="98.4" opacity="1.0" stroke="rgb(0,0,0)" stroke-width="2.0"/>
<line x1="276.1" y1="98.4" x2="242.4" y2="117.9" opacity="1.0" stroke="rgb(0,0,0)" stroke-width="2.0"/>
<line x1="267.3" y1="95.2" x2="244.0" y2="108.7" opacity="1.0" stroke="rgb(0,0,0)" stroke-width="2.0"/>
<line x1="242.4" y1="117.9" x2="208.6" y2="98.4" opacity="1.0" stroke="rgb(0,0,0)" stroke-width="2.0"/>
<line x1="208.6" y1="98.4" x2="208.6" y2="59.5" opacity="1.0" stroke="rgb(0,0,0)" stroke-width="2.0"/>
<line x1="215.8" y1="92.4" x2="215.8" y2="65.5" opacity="1.0" stroke="rgb(0,0,0)" stroke-width="2.0"/>
<line x1="343.6" y1="98.4" x2="309.8" y2="117.9" opacity="1.0" stroke="rgb(0,0,0)" stroke-width="2.0"/>
<line x1="334.8" y1="95.2" x2="311.4" y2="108.7" opacity="1.0" stroke="rgb(0,0,0)" stroke-width="2.0"/>
<line x1="309.8" y1="117.9" x2="276.1" y2="98.4" opacity="1.0" stroke="rgb(0,0,0)" stroke-width="2.0"/>
<line x1="276.1" y1="59.5" x2="309.8" y2="40.0" opacity="1.0" stroke="rgb(0,0,0)" stroke-width="2.0"/>
<line x1="309.8" y1="40.0" x2="343.6" y2="59.5" opacity="1.0" stroke="rgb(0,0,0)" stroke-width="2.0"/>
<line x1="311.4" y1="49.2" x2="334.8" y2="62.7" opacity="1.0" stroke="rgb(0,0,0)" stroke-width="2.0"/>
<line x1="343.6" y1="59.5" x2="343.6" y2="98.4" opacity="1.0" stroke="rgb(0,0,0)" stroke-width="2.0"/>
<line x1="411.0" y1="98.4" x2="444.8" y2="117.9" opacity="1.0" stroke="rgb(0,0,0)" stroke-width="2.0"/>
<line x1="444.8" y1="117.9" x2="444.8" y2="156.8" opacity="1.0" stroke="rgb(0,0,0)" stroke-width="2.0"/>
<line x1="437.6" y1="123.9" x2="437.6" y2="150.8" opacity="1.0" stroke="rgb(0,0,0)" stroke-width="2.0"/>
<line x1="444.8" y1="156.8" x2="411.0" y2="176.3" opacity="1.0" stroke="rgb(0,0,0)" stroke-width="2.0"/>
<line x1="411.0" y1="176.3" x2="377.3" y2="156.8" opacity="1.0" stroke="rgb(0,0,0)" stroke-width="2.0"/>
<line x1="409.4" y1="167.1" x2="386.1" y2="153.6" opacity="1.0" stroke="rgb(0,0,0)" stroke-width="2.0"/>
<line x1="377.3" y1="156.8" x2="377.3" y2="117.9" opacity="1.0" stroke="rgb(0,0,0)" stroke-width="2.0"/>
<line x1="377.3" y1="117.9" x2="411.0" y2="98.4" opacity="1.0" stroke="rgb(0,0,0)" stroke-width="2.0"/>
<line x1="386.1" y1="121.1" x2="409.4" y2="107.7" opacity="1.0" stroke="rgb(0,0,0)" stroke-width="2.0"/>
<line x1="141.2" y1="176.3" x2="141.2" y2="150.4" opacity="1.0" stroke="rgb(0,0,0)" stroke-width="2.0"/>
<line x1="129.9" y1="130.9" x2="107.5" y2="117.9" opacity="1.0" stroke="rgb(0,0,0)" stroke-width="2.0"/>
<line x1="73.7" y1="137.4" x2="73.7" y2="163.3" opacity="1.0" stroke="rgb(0,0,0)" stroke-width="2.0"/>
<line x1="85.0" y1="182.8" x2="107.5" y2="195.8" opacity="1.0" stroke="rgb(0,0,0)" stroke-width="2.0"/>
<text x="506.211746" y="203.789474" fill="rgb(12,12,255)" stroke-width="0" font-weight="bold" font-size="16">N</text>
<text x="135.188231" y="145.368421" fill="rgb(12,12,255)" stroke-width="0" font-weight="bold" font-size="16">N</text>
<text x="67.729410" y="184.315789" fill="rgb(178,178,0)" stroke-width="0" font-weight="bold" font-size="16">S</text>
</svg>
</g>
</svg>