<svg xmlns="http://www.w3.org/2000/svg" xmlns:xlink="http://www.w3.org/1999/xlink" xmlns:cml="http://www.xml-cml.org/schema" version="1.1" id="topsvg" x="0" y="0" viewBox="0 0 100 100">
<title>H_6_P - Open Babel Depiction</title>
<rect x="0" y="0" width="100" height="100" fill="white"/>
<g transform="translate(0,0)">
<svg width="100" height="100" x="0" y="0" viewBox="0 0 548.921 386.829" font-family="sans-serif" stroke="rgb(0,0,0)" stroke-width="2" stroke-linecap="round">
<line x1="403.9" y1="154.8" x2="290.1" y2="220.5" opacity="1.0" stroke="rgb(0,0,0)" stroke-width="2.0"/>
<line x1="60.0" y1="340.3" x2="51.3" y2="335.3" opacity="1.0" stroke="rgb(0,0,0)" stroke-width="2.0"/>
<line x1="102.5" y1="328.8" x2="82.5" y2="340.3" opacity="1.0" stroke="rgb(0,0,0)" stroke-width="2.0"/>
<line x1="227.6" y1="256.6" x2="165.0" y2="292.7" opacity="1.0" stroke="rgb(0,0,0)" stroke-width="2.0"/>
<line x1="477.7" y1="220.5" x2="508.9" y2="202.4" opacity="1.0" stroke="rgb(0,0,0)" stroke-width="2.0"/>
<line x1="508.9" y1="202.4" x2="508.9" y2="166.3" opacity="1.0" stroke="rgb(0,0,0)" stroke-width="2.0"/>
<line x1="501.7" y1="196.4" x2="501.7" y2="172.3" opacity="1.0" stroke="rgb(0,0,0)" stroke-width="2.0"/>
<line x1="508.9" y1="166.3" x2="477.7" y2="148.3" opacity="1.0" stroke="rgb(0,0,0)" stroke-width="2.0"/>
<line x1="477.7" y1="148.3" x2="446.4" y2="166.3" opacity="1.0" stroke="rgb(0,0,0)" stroke-width="2.0"/>
<line x1="476.1" y1="157.5" x2="455.2" y2="169.6" opacity="1.0" stroke="rgb(0,0,0)" stroke-width="2.0"/>
<line x1="446.4" y1="166.3" x2="446.4" y2="202.4" opacity="1.0" stroke="rgb(0,0,0)" stroke-width="2.0"/>
<line x1="446.4" y1="202.4" x2="477.7" y2="220.5" opacity="1.0" stroke="rgb(0,0,0)" stroke-width="2.0"/>
<line x1="455.2" y1="199.2" x2="476.1" y2="211.3" opacity="1.0" stroke="rgb(0,0,0)" stroke-width="2.0"/>
<line x1="415.1" y1="40.0" x2="383.9" y2="58.0" opacity="1.0" stroke="rgb(0,0,0)" stroke-width="2.0"/>
<line x1="413.5" y1="49.2" x2="392.7" y2="61.3" opacity="1.0" stroke="rgb(0,0,0)" stroke-width="2.0"/>
<line x1="383.9" y1="58.0" x2="383.9" y2="94.1" opacity="1.0" stroke="rgb(0,0,0)" stroke-width="2.0"/>
<line x1="383.9" y1="94.1" x2="415.1" y2="112.2" opacity="1.0" stroke="rgb(0,0,0)" stroke-width="2.0"/>
<line x1="392.7" y1="90.9" x2="413.5" y2="103.0" opacity="1.0" stroke="rgb(0,0,0)" stroke-width="2.0"/>
<line x1="415.1" y1="112.2" x2="446.4" y2="94.1" opacity="1.0" stroke="rgb(0,0,0)" stroke-width="2.0"/>
<line x1="446.4" y1="94.1" x2="446.4" y2="58.0" opacity="1.0" stroke="rgb(0,0,0)" stroke-width="2.0"/>
<line x1="439.2" y1="88.1" x2="439.2" y2="64.0" opacity="1.0" stroke="rgb(0,0,0)" stroke-width="2.0"/>
<line x1="446.4" y1="58.0" x2="415.1" y2="40.0" opacity="1.0" stroke="rgb(0,0,0)" stroke-width="2.0"/>
<line x1="290.1" y1="256.6" x2="258.8" y2="274.6" opacity="1.0" stroke="rgb(0,0,0)" stroke-width="2.0"/>
<line x1="258.8" y1="274.6" x2="227.6" y2="256.6" opacity="1.0" stroke="rgb(0,0,0)" stroke-width="2.0"/>
<line x1="257.2" y1="265.4" x2="236.4" y2="253.3" opacity="1.0" stroke="rgb(0,0,0)" stroke-width="2.0"/>
<line x1="227.6" y1="256.6" x2="227.6" y2="220.5" opacity="1.0" stroke="rgb(0,0,0)" stroke-width="2.0"/>
<line x1="227.6" y1="220.5" x2="258.8" y2="202.4" opacity="1.0" stroke="rgb(0,0,0)" stroke-width="2.0"/>
<line x1="236.4" y1="223.7" x2="257.2" y2="211.7" opacity="1.0" stroke="rgb(0,0,0)" stroke-width="2.0"/>
<line x1="258.8" y1="202.4" x2="290.1" y2="220.5" opacity="1.0" stroke="rgb(0,0,0)" stroke-width="2.0"/>
<line x1="290.1" y1="220.5" x2="290.1" y2="256.6" opacity="1.0" stroke="rgb(0,0,0)" stroke-width="2.0"/>
<line x1="282.9" y1="226.5" x2="282.9" y2="250.6" opacity="1.0" stroke="rgb(0,0,0)" stroke-width="2.0"/>
<line x1="227.6" y1="148.3" x2="258.8" y2="166.3" opacity="1.0" stroke="rgb(0,0,0)" stroke-width="2.0"/>
<line x1="229.2" y1="157.5" x2="250.0" y2="169.6" opacity="1.0" stroke="rgb(0,0,0)" stroke-width="2.0"/>
<line x1="258.8" y1="166.3" x2="258.8" y2="202.4" opacity="1.0" stroke="rgb(0,0,0)" stroke-width="2.0"/>
<line x1="227.6" y1="220.5" x2="196.3" y2="202.4" opacity="1.0" stroke="rgb(0,0,0)" stroke-width="2.0"/>
<line x1="196.3" y1="202.4" x2="196.3" y2="166.3" opacity="1.0" stroke="rgb(0,0,0)" stroke-width="2.0"/>
<line x1="203.5" y1="196.4" x2="203.5" y2="172.3" opacity="1.0" stroke="rgb(0,0,0)" stroke-width="2.0"/>
<line x1="196.3" y1="166.3" x2="227.6" y2="148.3" opacity="1.0" stroke="rgb(0,0,0)" stroke-width="2.0"/>
<line x1="165.0" y1="328.8" x2="133.8" y2="346.8" opacity="1.0" stroke="rgb(0,0,0)" stroke-width="2.0"/>
<line x1="133.8" y1="346.8" x2="102.5" y2="328.8" opacity="1.0" stroke="rgb(0,0,0)" stroke-width="2.0"/>
<line x1="132.2" y1="337.6" x2="111.3" y2="325.5" opacity="1.0" stroke="rgb(0,0,0)" stroke-width="2.0"/>
<line x1="102.5" y1="328.8" x2="102.5" y2="292.7" opacity="1.0" stroke="rgb(0,0,0)" stroke-width="2.0"/>
<line x1="102.5" y1="292.7" x2="133.8" y2="274.6" opacity="1.0" stroke="rgb(0,0,0)" stroke-width="2.0"/>
<line x1="111.3" y1="295.9" x2="132.2" y2="283.9" opacity="1.0" stroke="rgb(0,0,0)" stroke-width="2.0"/>
<line x1="133.8" y1="274.6" x2="165.0" y2="292.7" opacity="1.0" stroke="rgb(0,0,0)" stroke-width="2.0"/>
<line x1="165.0" y1="292.7" x2="165.0" y2="328.8" opacity="1.0" stroke="rgb(0,0,0)" stroke-width="2.0"/>
<line x1="157.8" y1="298.7" x2="157.8" y2="322.8" opacity="1.0" stroke="rgb(0,0,0)" stroke-width="2.0"/>
<line x1="415.1" y1="112.2" x2="415.1" y2="135.3" opacity="1.0" stroke="rgb(0,0,0)" stroke-width="2.0"/>
<line x1="426.4" y1="154.8" x2="446.4" y2="166.3" opacity="1.0" stroke="rgb(0,0,0)" stroke-width="2.0"/>
<line x1="477.7" y1="148.3" x2="477.7" y2="125.2" opacity="1.0" stroke="rgb(0,0,0)" stroke-width="2.0"/>
<line x1="466.4" y1="105.7" x2="446.4" y2="94.1" opacity="1.0" stroke="rgb(0,0,0)" stroke-width="2.0"/>
<text x="14.000000" y="336.780488" fill="rgb(102,102,102)" stroke-width="0" font-weight="bold" font-size="16">H</text>
<text x="26.000000" y="340.460488" fill="rgb(102,102,102)" stroke-width="0" font-weight="bold" font-size="13">3</text>
<text x="32.500000" y="336.780488" fill="rgb(102,102,102)" stroke-width="0" font-weight="bold" font-size="16">C</text>
<text x="65.261405" y="354.829268" fill="rgb(255,12,12)" stroke-width="0" font-weight="bold" font-size="16">O</text>
<text x="409.136858" y="156.292683" fill="rgb(12,12,255)" stroke-width="0" font-weight="bold" font-size="16">N</text>
<text x="471.659667" y="120.195122" fill="rgb(178,178,0)" stroke-width="0" font-weight="bold" font-size="16">S</text>
</svg>
</g>
</svg>