<svg xmlns="http://www.w3.org/2000/svg" xmlns:xlink="http://www.w3.org/1999/xlink" xmlns:cml="http://www.xml-cml.org/schema" version="1.1" id="topsvg" x="0" y="0" viewBox="0 0 100 100">
<title>H_6_M - Open Babel Depiction</title>
<rect x="0" y="0" width="100" height="100" fill="white"/>
<g transform="translate(0,0)">
<svg width="100" height="100" x="0" y="0" viewBox="0 0 548.921 404.878" font-family="sans-serif" stroke="rgb(0,0,0)" stroke-width="2" stroke-linecap="round">
<line x1="145.0" y1="250.1" x2="258.8" y2="184.4" opacity="1.0" stroke="rgb(0,0,0)" stroke-width="2.0"/>
<line x1="477.7" y1="58.0" x2="497.7" y2="46.5" opacity="1.0" stroke="rgb(0,0,0)" stroke-width="2.0"/>
<line x1="475.6" y1="54.4" x2="495.6" y2="42.9" opacity="1.0" stroke="rgb(0,0,0)" stroke-width="2.0"/>
<line x1="479.8" y1="61.7" x2="499.8" y2="50.1" opacity="1.0" stroke="rgb(0,0,0)" stroke-width="2.0"/>
<line x1="446.4" y1="76.1" x2="477.7" y2="58.0" opacity="1.0" stroke="rgb(0,0,0)" stroke-width="2.0"/>
<line x1="321.4" y1="148.3" x2="383.9" y2="112.2" opacity="1.0" stroke="rgb(0,0,0)" stroke-width="2.0"/>
<line x1="71.3" y1="184.4" x2="40.0" y2="202.4" opacity="1.0" stroke="rgb(0,0,0)" stroke-width="2.0"/>
<line x1="40.0" y1="202.4" x2="40.0" y2="238.5" opacity="1.0" stroke="rgb(0,0,0)" stroke-width="2.0"/>
<line x1="47.2" y1="208.4" x2="47.2" y2="232.5" opacity="1.0" stroke="rgb(0,0,0)" stroke-width="2.0"/>
<line x1="40.0" y1="238.5" x2="71.3" y2="256.6" opacity="1.0" stroke="rgb(0,0,0)" stroke-width="2.0"/>
<line x1="71.3" y1="256.6" x2="102.5" y2="238.5" opacity="1.0" stroke="rgb(0,0,0)" stroke-width="2.0"/>
<line x1="72.9" y1="247.3" x2="93.7" y2="235.3" opacity="1.0" stroke="rgb(0,0,0)" stroke-width="2.0"/>
<line x1="102.5" y1="238.5" x2="102.5" y2="202.4" opacity="1.0" stroke="rgb(0,0,0)" stroke-width="2.0"/>
<line x1="102.5" y1="202.4" x2="71.3" y2="184.4" opacity="1.0" stroke="rgb(0,0,0)" stroke-width="2.0"/>
<line x1="93.7" y1="205.7" x2="72.9" y2="193.6" opacity="1.0" stroke="rgb(0,0,0)" stroke-width="2.0"/>
<line x1="133.8" y1="364.9" x2="165.0" y2="346.8" opacity="1.0" stroke="rgb(0,0,0)" stroke-width="2.0"/>
<line x1="135.4" y1="355.6" x2="156.2" y2="343.6" opacity="1.0" stroke="rgb(0,0,0)" stroke-width="2.0"/>
<line x1="165.0" y1="346.8" x2="165.0" y2="310.7" opacity="1.0" stroke="rgb(0,0,0)" stroke-width="2.0"/>
<line x1="165.0" y1="310.7" x2="133.8" y2="292.7" opacity="1.0" stroke="rgb(0,0,0)" stroke-width="2.0"/>
<line x1="156.2" y1="314.0" x2="135.4" y2="301.9" opacity="1.0" stroke="rgb(0,0,0)" stroke-width="2.0"/>
<line x1="133.8" y1="292.7" x2="102.5" y2="310.7" opacity="1.0" stroke="rgb(0,0,0)" stroke-width="2.0"/>
<line x1="102.5" y1="310.7" x2="102.5" y2="346.8" opacity="1.0" stroke="rgb(0,0,0)" stroke-width="2.0"/>
<line x1="109.7" y1="316.7" x2="109.7" y2="340.8" opacity="1.0" stroke="rgb(0,0,0)" stroke-width="2.0"/>
<line x1="102.5" y1="346.8" x2="133.8" y2="364.9" opacity="1.0" stroke="rgb(0,0,0)" stroke-width="2.0"/>
<line x1="258.8" y1="148.3" x2="290.1" y2="130.2" opacity="1.0" stroke="rgb(0,0,0)" stroke-width="2.0"/>
<line x1="290.1" y1="130.2" x2="321.4" y2="148.3" opacity="1.0" stroke="rgb(0,0,0)" stroke-width="2.0"/>
<line x1="291.7" y1="139.5" x2="312.6" y2="151.5" opacity="1.0" stroke="rgb(0,0,0)" stroke-width="2.0"/>
<line x1="321.4" y1="148.3" x2="321.4" y2="184.4" opacity="1.0" stroke="rgb(0,0,0)" stroke-width="2.0"/>
<line x1="321.4" y1="184.4" x2="290.1" y2="202.4" opacity="1.0" stroke="rgb(0,0,0)" stroke-width="2.0"/>
<line x1="312.6" y1="181.2" x2="291.7" y2="193.2" opacity="1.0" stroke="rgb(0,0,0)" stroke-width="2.0"/>
<line x1="290.1" y1="202.4" x2="258.8" y2="184.4" opacity="1.0" stroke="rgb(0,0,0)" stroke-width="2.0"/>
<line x1="258.8" y1="184.4" x2="258.8" y2="148.3" opacity="1.0" stroke="rgb(0,0,0)" stroke-width="2.0"/>
<line x1="266.0" y1="178.4" x2="266.0" y2="154.3" opacity="1.0" stroke="rgb(0,0,0)" stroke-width="2.0"/>
<line x1="321.4" y1="256.6" x2="290.1" y2="238.5" opacity="1.0" stroke="rgb(0,0,0)" stroke-width="2.0"/>
<line x1="319.8" y1="247.3" x2="298.9" y2="235.3" opacity="1.0" stroke="rgb(0,0,0)" stroke-width="2.0"/>
<line x1="290.1" y1="238.5" x2="290.1" y2="202.4" opacity="1.0" stroke="rgb(0,0,0)" stroke-width="2.0"/>
<line x1="321.4" y1="184.4" x2="352.6" y2="202.4" opacity="1.0" stroke="rgb(0,0,0)" stroke-width="2.0"/>
<line x1="352.6" y1="202.4" x2="352.6" y2="238.5" opacity="1.0" stroke="rgb(0,0,0)" stroke-width="2.0"/>
<line x1="345.4" y1="208.4" x2="345.4" y2="232.5" opacity="1.0" stroke="rgb(0,0,0)" stroke-width="2.0"/>
<line x1="352.6" y1="238.5" x2="321.4" y2="256.6" opacity="1.0" stroke="rgb(0,0,0)" stroke-width="2.0"/>
<line x1="383.9" y1="76.1" x2="415.1" y2="58.0" opacity="1.0" stroke="rgb(0,0,0)" stroke-width="2.0"/>
<line x1="415.1" y1="58.0" x2="446.4" y2="76.1" opacity="1.0" stroke="rgb(0,0,0)" stroke-width="2.0"/>
<line x1="416.7" y1="67.3" x2="437.6" y2="79.3" opacity="1.0" stroke="rgb(0,0,0)" stroke-width="2.0"/>
<line x1="446.4" y1="76.1" x2="446.4" y2="112.2" opacity="1.0" stroke="rgb(0,0,0)" stroke-width="2.0"/>
<line x1="446.4" y1="112.2" x2="415.1" y2="130.2" opacity="1.0" stroke="rgb(0,0,0)" stroke-width="2.0"/>
<line x1="437.6" y1="109.0" x2="416.7" y2="121.0" opacity="1.0" stroke="rgb(0,0,0)" stroke-width="2.0"/>
<line x1="415.1" y1="130.2" x2="383.9" y2="112.2" opacity="1.0" stroke="rgb(0,0,0)" stroke-width="2.0"/>
<line x1="383.9" y1="112.2" x2="383.9" y2="76.1" opacity="1.0" stroke="rgb(0,0,0)" stroke-width="2.0"/>
<line x1="391.1" y1="106.2" x2="391.1" y2="82.1" opacity="1.0" stroke="rgb(0,0,0)" stroke-width="2.0"/>
<line x1="133.8" y1="292.7" x2="133.8" y2="269.6" opacity="1.0" stroke="rgb(0,0,0)" stroke-width="2.0"/>
<line x1="122.5" y1="250.1" x2="102.5" y2="238.5" opacity="1.0" stroke="rgb(0,0,0)" stroke-width="2.0"/>
<line x1="71.3" y1="256.6" x2="71.3" y2="279.7" opacity="1.0" stroke="rgb(0,0,0)" stroke-width="2.0"/>
<line x1="82.5" y1="299.2" x2="102.5" y2="310.7" opacity="1.0" stroke="rgb(0,0,0)" stroke-width="2.0"/>
<text x="502.921072" y="48.000000" fill="rgb(12,12,255)" stroke-width="0" font-weight="bold" font-size="16">N</text>
<text x="127.784214" y="264.585366" fill="rgb(12,12,255)" stroke-width="0" font-weight="bold" font-size="16">N</text>
<text x="65.261405" y="300.682927" fill="rgb(178,178,0)" stroke-width="0" font-weight="bold" font-size="16">S</text>
</svg>
</g>
</svg>