<svg xmlns="http://www.w3.org/2000/svg" x="0" y="0" viewBox="0 0 100 100">
<title>H_6_T - Open Babel Depiction</title>
<rect x="0" y="0" width="100" height="100" fill="white"/>
<g transform="translate(0,0)">
<svg width="100" height="100" x="0" y="0" viewBox="0 0 516.477 386" font-family="sans-serif" stroke="rgb(0,0,0)" stroke-width="2" stroke-linecap="round">
<line x1="144.8" y1="231.5" x2="258.2" y2="166.0" opacity="1.0" stroke="rgb(0,0,0)" stroke-width="2.0"/>
<line x1="445.3" y1="58.0" x2="465.2" y2="46.5" opacity="1.0" stroke="rgb(0,0,0)" stroke-width="2.0"/>
<line x1="320.6" y1="130.0" x2="382.9" y2="94.0" opacity="1.0" stroke="rgb(0,0,0)" stroke-width="2.0"/>
<line x1="71.2" y1="166.0" x2="40.0" y2="184.0" opacity="1.0" stroke="rgb(0,0,0)" stroke-width="2.0"/>
<line x1="40.0" y1="184.0" x2="40.0" y2="220.0" opacity="1.0" stroke="rgb(0,0,0)" stroke-width="2.0"/>
<line x1="47.2" y1="190.0" x2="47.2" y2="214.0" opacity="1.0" stroke="rgb(0,0,0)" stroke-width="2.0"/>
<line x1="40.0" y1="220.0" x2="71.2" y2="238.0" opacity="1.0" stroke="rgb(0,0,0)" stroke-width="2.0"/>
<line x1="71.2" y1="238.0" x2="102.4" y2="220.0" opacity="1.0" stroke="rgb(0,0,0)" stroke-width="2.0"/>
<line x1="72.8" y1="228.8" x2="93.6" y2="216.8" opacity="1.0" stroke="rgb(0,0,0)" stroke-width="2.0"/>
<line x1="102.4" y1="220.0" x2="102.4" y2="184.0" opacity="1.0" stroke="rgb(0,0,0)" stroke-width="2.0"/>
<line x1="102.4" y1="184.0" x2="71.2" y2="166.0" opacity="1.0" stroke="rgb(0,0,0)" stroke-width="2.0"/>
<line x1="93.6" y1="187.2" x2="72.8" y2="175.2" opacity="1.0" stroke="rgb(0,0,0)" stroke-width="2.0"/>
<line x1="133.5" y1="346.0" x2="164.7" y2="328.0" opacity="1.0" stroke="rgb(0,0,0)" stroke-width="2.0"/>
<line x1="135.1" y1="336.8" x2="155.9" y2="324.8" opacity="1.0" stroke="rgb(0,0,0)" stroke-width="2.0"/>
<line x1="164.7" y1="328.0" x2="164.7" y2="292.0" opacity="1.0" stroke="rgb(0,0,0)" stroke-width="2.0"/>
<line x1="164.7" y1="292.0" x2="133.5" y2="274.0" opacity="1.0" stroke="rgb(0,0,0)" stroke-width="2.0"/>
<line x1="155.9" y1="295.2" x2="135.1" y2="283.2" opacity="1.0" stroke="rgb(0,0,0)" stroke-width="2.0"/>
<line x1="133.5" y1="274.0" x2="102.4" y2="292.0" opacity="1.0" stroke="rgb(0,0,0)" stroke-width="2.0"/>
<line x1="102.4" y1="292.0" x2="102.4" y2="328.0" opacity="1.0" stroke="rgb(0,0,0)" stroke-width="2.0"/>
<line x1="109.6" y1="298.0" x2="109.6" y2="322.0" opacity="1.0" stroke="rgb(0,0,0)" stroke-width="2.0"/>
<line x1="102.4" y1="328.0" x2="133.5" y2="346.0" opacity="1.0" stroke="rgb(0,0,0)" stroke-width="2.0"/>
<line x1="258.2" y1="130.0" x2="289.4" y2="112.0" opacity="1.0" stroke="rgb(0,0,0)" stroke-width="2.0"/>
<line x1="289.4" y1="112.0" x2="320.6" y2="130.0" opacity="1.0" stroke="rgb(0,0,0)" stroke-width="2.0"/>
<line x1="291.0" y1="121.2" x2="311.8" y2="133.2" opacity="1.0" stroke="rgb(0,0,0)" stroke-width="2.0"/>
<line x1="320.6" y1="130.0" x2="320.6" y2="166.0" opacity="1.0" stroke="rgb(0,0,0)" stroke-width="2.0"/>
<line x1="320.6" y1="166.0" x2="289.4" y2="184.0" opacity="1.0" stroke="rgb(0,0,0)" stroke-width="2.0"/>
<line x1="311.8" y1="162.8" x2="291.0" y2="174.8" opacity="1.0" stroke="rgb(0,0,0)" stroke-width="2.0"/>
<line x1="289.4" y1="184.0" x2="258.2" y2="166.0" opacity="1.0" stroke="rgb(0,0,0)" stroke-width="2.0"/>
<line x1="258.2" y1="166.0" x2="258.2" y2="130.0" opacity="1.0" stroke="rgb(0,0,0)" stroke-width="2.0"/>
<line x1="265.4" y1="160.0" x2="265.4" y2="136.0" opacity="1.0" stroke="rgb(0,0,0)" stroke-width="2.0"/>
<line x1="320.6" y1="238.0" x2="289.4" y2="220.0" opacity="1.0" stroke="rgb(0,0,0)" stroke-width="2.0"/>
<line x1="319.0" y1="228.8" x2="298.2" y2="216.8" opacity="1.0" stroke="rgb(0,0,0)" stroke-width="2.0"/>
<line x1="289.4" y1="220.0" x2="289.4" y2="184.0" opacity="1.0" stroke="rgb(0,0,0)" stroke-width="2.0"/>
<line x1="320.6" y1="166.0" x2="351.8" y2="184.0" opacity="1.0" stroke="rgb(0,0,0)" stroke-width="2.0"/>
<line x1="351.8" y1="184.0" x2="351.8" y2="220.0" opacity="1.0" stroke="rgb(0,0,0)" stroke-width="2.0"/>
<line x1="344.6" y1="190.0" x2="344.6" y2="214.0" opacity="1.0" stroke="rgb(0,0,0)" stroke-width="2.0"/>
<line x1="351.8" y1="220.0" x2="320.6" y2="238.0" opacity="1.0" stroke="rgb(0,0,0)" stroke-width="2.0"/>
<line x1="382.9" y1="58.0" x2="414.1" y2="40.0" opacity="1.0" stroke="rgb(0,0,0)" stroke-width="2.0"/>
<line x1="414.1" y1="40.0" x2="445.3" y2="58.0" opacity="1.0" stroke="rgb(0,0,0)" stroke-width="2.0"/>
<line x1="415.7" y1="49.2" x2="436.5" y2="61.2" opacity="1.0" stroke="rgb(0,0,0)" stroke-width="2.0"/>
<line x1="445.3" y1="58.0" x2="445.3" y2="94.0" opacity="1.0" stroke="rgb(0,0,0)" stroke-width="2.0"/>
<line x1="445.3" y1="94.0" x2="414.1" y2="112.0" opacity="1.0" stroke="rgb(0,0,0)" stroke-width="2.0"/>
<line x1="436.5" y1="90.8" x2="415.7" y2="102.8" opacity="1.0" stroke="rgb(0,0,0)" stroke-width="2.0"/>
<line x1="414.1" y1="112.0" x2="382.9" y2="94.0" opacity="1.0" stroke="rgb(0,0,0)" stroke-width="2.0"/>
<line x1="382.9" y1="94.0" x2="382.9" y2="58.0" opacity="1.0" stroke="rgb(0,0,0)" stroke-width="2.0"/>
<line x1="390.1" y1="88.0" x2="390.1" y2="64.0" opacity="1.0" stroke="rgb(0,0,0)" stroke-width="2.0"/>
<line x1="133.5" y1="274.0" x2="133.5" y2="251.0" opacity="1.0" stroke="rgb(0,0,0)" stroke-width="2.0"/>
<line x1="122.3" y1="231.5" x2="102.4" y2="220.0" opacity="1.0" stroke="rgb(0,0,0)" stroke-width="2.0"/>
<line x1="71.2" y1="238.0" x2="71.2" y2="261.0" opacity="1.0" stroke="rgb(0,0,0)" stroke-width="2.0"/>
<line x1="82.4" y1="280.5" x2="102.4" y2="292.0" opacity="1.0" stroke="rgb(0,0,0)" stroke-width="2.0"/>
<text x="472.476804" y="48.000000" fill="rgb(102,102,102)" stroke-width="0" font-weight="bold" font-size="16">CH</text>
<text x="496.476804" y="51.680000" fill="rgb(102,102,102)" stroke-width="0" font-weight="bold" font-size="13">3</text>
<text x="127.530744" y="246.000000" fill="rgb(12,12,255)" stroke-width="0" font-weight="bold" font-size="16">N</text>
<text x="65.176915" y="282.000000" fill="rgb(178,178,0)" stroke-width="0" font-weight="bold" font-size="16">S</text>
</svg>
</g>
</svg>
