<svg xmlns="http://www.w3.org/2000/svg" x="0" y="0" viewBox="0 0 100 100">
<title>H_6_K - Open Babel Depiction</title>
<rect x="0" y="0" width="100" height="100" fill="white"/>
<g transform="translate(0,0)">
<svg width="100" height="100" x="0" y="0" viewBox="0 0 550.128 423.81" font-family="sans-serif" stroke="rgb(0,0,0)" stroke-width="2" stroke-linecap="round">
<line x1="404.8" y1="155.1" x2="290.7" y2="221.0" opacity="1.0" stroke="rgb(0,0,0)" stroke-width="2.0"/>
<line x1="58.6" y1="343.7" x2="49.8" y2="338.6" opacity="1.0" stroke="rgb(0,0,0)" stroke-width="2.0"/>
<line x1="61.6" y1="338.5" x2="52.8" y2="333.4" opacity="1.0" stroke="rgb(0,0,0)" stroke-width="2.0"/>
<line x1="71.3" y1="360.6" x2="71.3" y2="370.8" opacity="1.0" stroke="rgb(0,0,0)" stroke-width="2.0"/>
<line x1="102.7" y1="329.5" x2="82.6" y2="341.1" opacity="1.0" stroke="rgb(0,0,0)" stroke-width="2.0"/>
<line x1="228.1" y1="257.1" x2="165.4" y2="293.3" opacity="1.0" stroke="rgb(0,0,0)" stroke-width="2.0"/>
<line x1="478.8" y1="221.0" x2="510.1" y2="202.9" opacity="1.0" stroke="rgb(0,0,0)" stroke-width="2.0"/>
<line x1="510.1" y1="202.9" x2="510.1" y2="166.7" opacity="1.0" stroke="rgb(0,0,0)" stroke-width="2.0"/>
<line x1="502.9" y1="196.9" x2="502.9" y2="172.7" opacity="1.0" stroke="rgb(0,0,0)" stroke-width="2.0"/>
<line x1="510.1" y1="166.7" x2="478.8" y2="148.6" opacity="1.0" stroke="rgb(0,0,0)" stroke-width="2.0"/>
<line x1="478.8" y1="148.6" x2="447.4" y2="166.7" opacity="1.0" stroke="rgb(0,0,0)" stroke-width="2.0"/>
<line x1="477.2" y1="157.8" x2="456.2" y2="169.9" opacity="1.0" stroke="rgb(0,0,0)" stroke-width="2.0"/>
<line x1="447.4" y1="166.7" x2="447.4" y2="202.9" opacity="1.0" stroke="rgb(0,0,0)" stroke-width="2.0"/>
<line x1="447.4" y1="202.9" x2="478.8" y2="221.0" opacity="1.0" stroke="rgb(0,0,0)" stroke-width="2.0"/>
<line x1="456.2" y1="199.6" x2="477.2" y2="211.7" opacity="1.0" stroke="rgb(0,0,0)" stroke-width="2.0"/>
<line x1="416.1" y1="40.0" x2="384.8" y2="58.1" opacity="1.0" stroke="rgb(0,0,0)" stroke-width="2.0"/>
<line x1="414.5" y1="49.2" x2="393.6" y2="61.3" opacity="1.0" stroke="rgb(0,0,0)" stroke-width="2.0"/>
<line x1="384.8" y1="58.1" x2="384.8" y2="94.3" opacity="1.0" stroke="rgb(0,0,0)" stroke-width="2.0"/>
<line x1="384.8" y1="94.3" x2="416.1" y2="112.4" opacity="1.0" stroke="rgb(0,0,0)" stroke-width="2.0"/>
<line x1="393.6" y1="91.1" x2="414.5" y2="103.1" opacity="1.0" stroke="rgb(0,0,0)" stroke-width="2.0"/>
<line x1="416.1" y1="112.4" x2="447.4" y2="94.3" opacity="1.0" stroke="rgb(0,0,0)" stroke-width="2.0"/>
<line x1="447.4" y1="94.3" x2="447.4" y2="58.1" opacity="1.0" stroke="rgb(0,0,0)" stroke-width="2.0"/>
<line x1="440.2" y1="88.3" x2="440.2" y2="64.1" opacity="1.0" stroke="rgb(0,0,0)" stroke-width="2.0"/>
<line x1="447.4" y1="58.1" x2="416.1" y2="40.0" opacity="1.0" stroke="rgb(0,0,0)" stroke-width="2.0"/>
<line x1="290.7" y1="257.1" x2="259.4" y2="275.2" opacity="1.0" stroke="rgb(0,0,0)" stroke-width="2.0"/>
<line x1="259.4" y1="275.2" x2="228.1" y2="257.1" opacity="1.0" stroke="rgb(0,0,0)" stroke-width="2.0"/>
<line x1="257.8" y1="266.0" x2="236.8" y2="253.9" opacity="1.0" stroke="rgb(0,0,0)" stroke-width="2.0"/>
<line x1="228.1" y1="257.1" x2="228.1" y2="221.0" opacity="1.0" stroke="rgb(0,0,0)" stroke-width="2.0"/>
<line x1="228.1" y1="221.0" x2="259.4" y2="202.9" opacity="1.0" stroke="rgb(0,0,0)" stroke-width="2.0"/>
<line x1="236.8" y1="224.2" x2="257.8" y2="212.1" opacity="1.0" stroke="rgb(0,0,0)" stroke-width="2.0"/>
<line x1="259.4" y1="202.9" x2="290.7" y2="221.0" opacity="1.0" stroke="rgb(0,0,0)" stroke-width="2.0"/>
<line x1="290.7" y1="221.0" x2="290.7" y2="257.1" opacity="1.0" stroke="rgb(0,0,0)" stroke-width="2.0"/>
<line x1="283.5" y1="227.0" x2="283.5" y2="251.1" opacity="1.0" stroke="rgb(0,0,0)" stroke-width="2.0"/>
<line x1="228.1" y1="148.6" x2="259.4" y2="166.7" opacity="1.0" stroke="rgb(0,0,0)" stroke-width="2.0"/>
<line x1="229.6" y1="157.8" x2="250.6" y2="169.9" opacity="1.0" stroke="rgb(0,0,0)" stroke-width="2.0"/>
<line x1="259.4" y1="166.7" x2="259.4" y2="202.9" opacity="1.0" stroke="rgb(0,0,0)" stroke-width="2.0"/>
<line x1="228.1" y1="221.0" x2="196.7" y2="202.9" opacity="1.0" stroke="rgb(0,0,0)" stroke-width="2.0"/>
<line x1="196.7" y1="202.9" x2="196.7" y2="166.7" opacity="1.0" stroke="rgb(0,0,0)" stroke-width="2.0"/>
<line x1="203.9" y1="196.9" x2="203.9" y2="172.7" opacity="1.0" stroke="rgb(0,0,0)" stroke-width="2.0"/>
<line x1="196.7" y1="166.7" x2="228.1" y2="148.6" opacity="1.0" stroke="rgb(0,0,0)" stroke-width="2.0"/>
<line x1="165.4" y1="329.5" x2="134.0" y2="347.6" opacity="1.0" stroke="rgb(0,0,0)" stroke-width="2.0"/>
<line x1="134.0" y1="347.6" x2="102.7" y2="329.5" opacity="1.0" stroke="rgb(0,0,0)" stroke-width="2.0"/>
<line x1="132.4" y1="338.4" x2="111.5" y2="326.3" opacity="1.0" stroke="rgb(0,0,0)" stroke-width="2.0"/>
<line x1="102.7" y1="329.5" x2="102.7" y2="293.3" opacity="1.0" stroke="rgb(0,0,0)" stroke-width="2.0"/>
<line x1="102.7" y1="293.3" x2="134.0" y2="275.2" opacity="1.0" stroke="rgb(0,0,0)" stroke-width="2.0"/>
<line x1="111.5" y1="296.6" x2="132.4" y2="284.5" opacity="1.0" stroke="rgb(0,0,0)" stroke-width="2.0"/>
<line x1="134.0" y1="275.2" x2="165.4" y2="293.3" opacity="1.0" stroke="rgb(0,0,0)" stroke-width="2.0"/>
<line x1="165.4" y1="293.3" x2="165.4" y2="329.5" opacity="1.0" stroke="rgb(0,0,0)" stroke-width="2.0"/>
<line x1="158.2" y1="299.3" x2="158.2" y2="323.5" opacity="1.0" stroke="rgb(0,0,0)" stroke-width="2.0"/>
<line x1="416.1" y1="112.4" x2="416.1" y2="135.6" opacity="1.0" stroke="rgb(0,0,0)" stroke-width="2.0"/>
<line x1="427.4" y1="155.1" x2="447.4" y2="166.7" opacity="1.0" stroke="rgb(0,0,0)" stroke-width="2.0"/>
<line x1="478.8" y1="148.6" x2="478.8" y2="125.4" opacity="1.0" stroke="rgb(0,0,0)" stroke-width="2.0"/>
<line x1="467.5" y1="105.9" x2="447.4" y2="94.3" opacity="1.0" stroke="rgb(0,0,0)" stroke-width="2.0"/>
<text x="65.341872" y="355.619048" fill="rgb(12,12,255)" stroke-width="0" font-weight="bold" font-size="16">N</text>
<text x="34.000000" y="337.523810" fill="rgb(255,12,12)" stroke-width="0" font-weight="bold" font-size="16">O</text>
<text x="76.141872" y="379.777524" fill="rgb(255,12,12)" stroke-width="0" font-weight="bold" font-size="16"/>
<text x="76.141872" y="379.777524" fill="rgb(255,12,12)" stroke-width="0" font-weight="bold" font-size="32">.</text>
<text x="65.341872" y="391.809524" fill="rgb(255,12,12)" stroke-width="0" font-weight="bold" font-size="16">O</text>
<text x="410.102461" y="156.571429" fill="rgb(12,12,255)" stroke-width="0" font-weight="bold" font-size="16">N</text>
<text x="472.786205" y="120.380952" fill="rgb(178,178,0)" stroke-width="0" font-weight="bold" font-size="16">S</text>
</svg>
</g>
</svg>
