<svg xmlns="http://www.w3.org/2000/svg" xmlns:xlink="http://www.w3.org/1999/xlink" xmlns:cml="http://www.xml-cml.org/schema" version="1.1" id="topsvg" x="0" y="0" viewBox="0 0 100 100">
<title>H_6_L - Open Babel Depiction</title>
<rect x="0" y="0" width="100" height="100" fill="white"/>
<g transform="translate(0,0)">
<svg width="100" height="100" x="0" y="0" viewBox="0 0 544.269 388.372" font-family="sans-serif" stroke="rgb(0,0,0)" stroke-width="2" stroke-linecap="round">
<line x1="145.5" y1="155.3" x2="259.9" y2="221.4" opacity="1.0" stroke="rgb(0,0,0)" stroke-width="2.0"/>
<line x1="322.8" y1="257.7" x2="385.6" y2="294.0" opacity="1.0" stroke="rgb(0,0,0)" stroke-width="2.0"/>
<line x1="504.3" y1="312.1" x2="482.9" y2="282.7" opacity="1.0" stroke="rgb(0,0,0)" stroke-width="2.0"/>
<line x1="494.9" y1="311.5" x2="480.6" y2="291.8" opacity="1.0" stroke="rgb(0,0,0)" stroke-width="2.0"/>
<line x1="482.9" y1="282.7" x2="448.4" y2="294.0" opacity="1.0" stroke="rgb(0,0,0)" stroke-width="2.0"/>
<line x1="448.4" y1="294.0" x2="448.4" y2="330.2" opacity="1.0" stroke="rgb(0,0,0)" stroke-width="2.0"/>
<line x1="448.4" y1="330.2" x2="470.6" y2="337.4" opacity="1.0" stroke="rgb(0,0,0)" stroke-width="2.0"/>
<line x1="490.6" y1="330.9" x2="504.3" y2="312.1" opacity="1.0" stroke="rgb(0,0,0)" stroke-width="2.0"/>
<line x1="165.7" y1="58.1" x2="134.3" y2="40.0" opacity="1.0" stroke="rgb(0,0,0)" stroke-width="2.0"/>
<line x1="134.3" y1="40.0" x2="102.8" y2="58.1" opacity="1.0" stroke="rgb(0,0,0)" stroke-width="2.0"/>
<line x1="132.7" y1="49.2" x2="111.6" y2="61.4" opacity="1.0" stroke="rgb(0,0,0)" stroke-width="2.0"/>
<line x1="102.8" y1="58.1" x2="102.8" y2="94.4" opacity="1.0" stroke="rgb(0,0,0)" stroke-width="2.0"/>
<line x1="102.8" y1="94.4" x2="134.3" y2="112.6" opacity="1.0" stroke="rgb(0,0,0)" stroke-width="2.0"/>
<line x1="111.6" y1="91.2" x2="132.7" y2="103.3" opacity="1.0" stroke="rgb(0,0,0)" stroke-width="2.0"/>
<line x1="134.3" y1="112.6" x2="165.7" y2="94.4" opacity="1.0" stroke="rgb(0,0,0)" stroke-width="2.0"/>
<line x1="165.7" y1="94.4" x2="165.7" y2="58.1" opacity="1.0" stroke="rgb(0,0,0)" stroke-width="2.0"/>
<line x1="158.5" y1="88.4" x2="158.5" y2="64.1" opacity="1.0" stroke="rgb(0,0,0)" stroke-width="2.0"/>
<line x1="40.0" y1="203.3" x2="71.4" y2="221.4" opacity="1.0" stroke="rgb(0,0,0)" stroke-width="2.0"/>
<line x1="48.8" y1="200.0" x2="69.8" y2="212.2" opacity="1.0" stroke="rgb(0,0,0)" stroke-width="2.0"/>
<line x1="71.4" y1="221.4" x2="102.8" y2="203.3" opacity="1.0" stroke="rgb(0,0,0)" stroke-width="2.0"/>
<line x1="102.8" y1="203.3" x2="102.8" y2="167.0" opacity="1.0" stroke="rgb(0,0,0)" stroke-width="2.0"/>
<line x1="95.6" y1="197.3" x2="95.6" y2="173.0" opacity="1.0" stroke="rgb(0,0,0)" stroke-width="2.0"/>
<line x1="102.8" y1="167.0" x2="71.4" y2="148.8" opacity="1.0" stroke="rgb(0,0,0)" stroke-width="2.0"/>
<line x1="71.4" y1="148.8" x2="40.0" y2="167.0" opacity="1.0" stroke="rgb(0,0,0)" stroke-width="2.0"/>
<line x1="69.8" y1="158.1" x2="48.8" y2="170.2" opacity="1.0" stroke="rgb(0,0,0)" stroke-width="2.0"/>
<line x1="40.0" y1="167.0" x2="40.0" y2="203.3" opacity="1.0" stroke="rgb(0,0,0)" stroke-width="2.0"/>
<line x1="291.3" y1="203.3" x2="322.8" y2="221.4" opacity="1.0" stroke="rgb(0,0,0)" stroke-width="2.0"/>
<line x1="322.8" y1="221.4" x2="322.8" y2="257.7" opacity="1.0" stroke="rgb(0,0,0)" stroke-width="2.0"/>
<line x1="315.6" y1="227.4" x2="315.6" y2="251.7" opacity="1.0" stroke="rgb(0,0,0)" stroke-width="2.0"/>
<line x1="322.8" y1="257.7" x2="291.3" y2="275.8" opacity="1.0" stroke="rgb(0,0,0)" stroke-width="2.0"/>
<line x1="291.3" y1="275.8" x2="259.9" y2="257.7" opacity="1.0" stroke="rgb(0,0,0)" stroke-width="2.0"/>
<line x1="289.8" y1="266.6" x2="268.7" y2="254.4" opacity="1.0" stroke="rgb(0,0,0)" stroke-width="2.0"/>
<line x1="259.9" y1="257.7" x2="259.9" y2="221.4" opacity="1.0" stroke="rgb(0,0,0)" stroke-width="2.0"/>
<line x1="259.9" y1="221.4" x2="291.3" y2="203.3" opacity="1.0" stroke="rgb(0,0,0)" stroke-width="2.0"/>
<line x1="268.7" y1="224.6" x2="289.8" y2="212.5" opacity="1.0" stroke="rgb(0,0,0)" stroke-width="2.0"/>
<line x1="228.5" y1="312.1" x2="228.5" y2="275.8" opacity="1.0" stroke="rgb(0,0,0)" stroke-width="2.0"/>
<line x1="235.7" y1="306.1" x2="235.7" y2="281.8" opacity="1.0" stroke="rgb(0,0,0)" stroke-width="2.0"/>
<line x1="228.5" y1="275.8" x2="259.9" y2="257.7" opacity="1.0" stroke="rgb(0,0,0)" stroke-width="2.0"/>
<line x1="291.3" y1="275.8" x2="291.3" y2="312.1" opacity="1.0" stroke="rgb(0,0,0)" stroke-width="2.0"/>
<line x1="291.3" y1="312.1" x2="259.9" y2="330.2" opacity="1.0" stroke="rgb(0,0,0)" stroke-width="2.0"/>
<line x1="282.6" y1="308.9" x2="261.5" y2="321.0" opacity="1.0" stroke="rgb(0,0,0)" stroke-width="2.0"/>
<line x1="259.9" y1="330.2" x2="228.5" y2="312.1" opacity="1.0" stroke="rgb(0,0,0)" stroke-width="2.0"/>
<line x1="385.6" y1="330.2" x2="417.0" y2="348.4" opacity="1.0" stroke="rgb(0,0,0)" stroke-width="2.0"/>
<line x1="417.0" y1="348.4" x2="448.4" y2="330.2" opacity="1.0" stroke="rgb(0,0,0)" stroke-width="2.0"/>
<line x1="418.6" y1="339.1" x2="439.6" y2="327.0" opacity="1.0" stroke="rgb(0,0,0)" stroke-width="2.0"/>
<line x1="448.4" y1="294.0" x2="417.0" y2="275.8" opacity="1.0" stroke="rgb(0,0,0)" stroke-width="2.0"/>
<line x1="439.6" y1="297.2" x2="418.6" y2="285.0" opacity="1.0" stroke="rgb(0,0,0)" stroke-width="2.0"/>
<line x1="417.0" y1="275.8" x2="385.6" y2="294.0" opacity="1.0" stroke="rgb(0,0,0)" stroke-width="2.0"/>
<line x1="385.6" y1="294.0" x2="385.6" y2="330.2" opacity="1.0" stroke="rgb(0,0,0)" stroke-width="2.0"/>
<line x1="392.8" y1="300.0" x2="392.8" y2="324.2" opacity="1.0" stroke="rgb(0,0,0)" stroke-width="2.0"/>
<line x1="102.8" y1="167.0" x2="123.0" y2="155.3" opacity="1.0" stroke="rgb(0,0,0)" stroke-width="2.0"/>
<line x1="134.3" y1="135.8" x2="134.3" y2="112.6" opacity="1.0" stroke="rgb(0,0,0)" stroke-width="2.0"/>
<line x1="102.8" y1="94.4" x2="82.7" y2="106.1" opacity="1.0" stroke="rgb(0,0,0)" stroke-width="2.0"/>
<line x1="71.4" y1="125.6" x2="71.4" y2="148.8" opacity="1.0" stroke="rgb(0,0,0)" stroke-width="2.0"/>
<text x="476.945194" y="349.443407" fill="rgb(12,12,255)" stroke-width="0" font-weight="bold" font-size="16">N</text>
<text x="476.945194" y="365.443407" fill="rgb(12,12,255)" stroke-width="0" font-weight="bold" font-size="16">H</text>
<text x="128.255788" y="156.837209" fill="rgb(12,12,255)" stroke-width="0" font-weight="bold" font-size="16">N</text>
<text x="65.418596" y="120.558140" fill="rgb(178,178,0)" stroke-width="0" font-weight="bold" font-size="16">S</text>
</svg>
</g>
</svg>