<svg xmlns="http://www.w3.org/2000/svg" xmlns:xlink="http://www.w3.org/1999/xlink" xmlns:cml="http://www.xml-cml.org/schema" version="1.1" id="topsvg" x="0" y="0" viewBox="0 0 100 100">
<title>H_7_L - Open Babel Depiction</title>
<rect x="0" y="0" width="100" height="100" fill="white"/>
<g transform="translate(0,0)">
<svg width="100" height="100" x="0" y="0" viewBox="0 0 513.38 394.569" font-family="sans-serif" stroke="rgb(0,0,0)" stroke-width="2" stroke-linecap="round">
<line x1="237.4" y1="160.0" x2="203.7" y2="140.5" opacity="1.0" stroke="rgb(0,0,0)" stroke-width="2.0"/>
<line x1="205.2" y1="143.1" x2="171.5" y2="162.6" opacity="1.0" stroke="rgb(0,0,0)" stroke-width="2.0"/>
<line x1="202.2" y1="137.9" x2="168.5" y2="157.4" opacity="1.0" stroke="rgb(0,0,0)" stroke-width="2.0"/>
<line x1="361.0" y1="231.3" x2="304.9" y2="198.9" opacity="1.0" stroke="rgb(0,0,0)" stroke-width="2.0"/>
<line x1="170.0" y1="160.0" x2="136.3" y2="140.5" opacity="1.0" stroke="rgb(0,0,0)" stroke-width="2.0"/>
<line x1="55.8" y1="40.0" x2="94.5" y2="44.1" opacity="1.0" stroke="rgb(0,0,0)" stroke-width="2.0"/>
<line x1="61.0" y1="47.8" x2="87.8" y2="50.6" opacity="1.0" stroke="rgb(0,0,0)" stroke-width="2.0"/>
<line x1="94.5" y1="44.1" x2="102.6" y2="82.1" opacity="1.0" stroke="rgb(0,0,0)" stroke-width="2.0"/>
<line x1="102.6" y1="82.1" x2="68.9" y2="101.6" opacity="1.0" stroke="rgb(0,0,0)" stroke-width="2.0"/>
<line x1="68.9" y1="101.6" x2="49.7" y2="84.3" opacity="1.0" stroke="rgb(0,0,0)" stroke-width="2.0"/>
<line x1="45.3" y1="63.7" x2="55.8" y2="40.0" opacity="1.0" stroke="rgb(0,0,0)" stroke-width="2.0"/>
<line x1="338.6" y1="335.1" x2="372.3" y2="354.6" opacity="1.0" stroke="rgb(0,0,0)" stroke-width="2.0"/>
<line x1="372.3" y1="354.6" x2="406.0" y2="335.1" opacity="1.0" stroke="rgb(0,0,0)" stroke-width="2.0"/>
<line x1="373.9" y1="345.3" x2="397.2" y2="331.9" opacity="1.0" stroke="rgb(0,0,0)" stroke-width="2.0"/>
<line x1="406.0" y1="335.1" x2="406.0" y2="296.2" opacity="1.0" stroke="rgb(0,0,0)" stroke-width="2.0"/>
<line x1="406.0" y1="296.2" x2="372.3" y2="276.7" opacity="1.0" stroke="rgb(0,0,0)" stroke-width="2.0"/>
<line x1="397.2" y1="299.4" x2="373.9" y2="286.0" opacity="1.0" stroke="rgb(0,0,0)" stroke-width="2.0"/>
<line x1="372.3" y1="276.7" x2="338.6" y2="296.2" opacity="1.0" stroke="rgb(0,0,0)" stroke-width="2.0"/>
<line x1="338.6" y1="296.2" x2="338.6" y2="335.1" opacity="1.0" stroke="rgb(0,0,0)" stroke-width="2.0"/>
<line x1="345.8" y1="302.2" x2="345.8" y2="329.1" opacity="1.0" stroke="rgb(0,0,0)" stroke-width="2.0"/>
<line x1="473.4" y1="179.4" x2="439.7" y2="160.0" opacity="1.0" stroke="rgb(0,0,0)" stroke-width="2.0"/>
<line x1="464.6" y1="182.7" x2="441.3" y2="169.2" opacity="1.0" stroke="rgb(0,0,0)" stroke-width="2.0"/>
<line x1="439.7" y1="160.0" x2="406.0" y2="179.4" opacity="1.0" stroke="rgb(0,0,0)" stroke-width="2.0"/>
<line x1="406.0" y1="179.4" x2="406.0" y2="218.4" opacity="1.0" stroke="rgb(0,0,0)" stroke-width="2.0"/>
<line x1="413.2" y1="185.4" x2="413.2" y2="212.4" opacity="1.0" stroke="rgb(0,0,0)" stroke-width="2.0"/>
<line x1="406.0" y1="218.4" x2="439.7" y2="237.8" opacity="1.0" stroke="rgb(0,0,0)" stroke-width="2.0"/>
<line x1="439.7" y1="237.8" x2="473.4" y2="218.4" opacity="1.0" stroke="rgb(0,0,0)" stroke-width="2.0"/>
<line x1="441.3" y1="228.6" x2="464.6" y2="215.1" opacity="1.0" stroke="rgb(0,0,0)" stroke-width="2.0"/>
<line x1="473.4" y1="218.4" x2="473.4" y2="179.4" opacity="1.0" stroke="rgb(0,0,0)" stroke-width="2.0"/>
<line x1="271.2" y1="218.4" x2="237.4" y2="198.9" opacity="1.0" stroke="rgb(0,0,0)" stroke-width="2.0"/>
<line x1="237.4" y1="198.9" x2="237.4" y2="160.0" opacity="1.0" stroke="rgb(0,0,0)" stroke-width="2.0"/>
<line x1="244.6" y1="192.9" x2="244.6" y2="166.0" opacity="1.0" stroke="rgb(0,0,0)" stroke-width="2.0"/>
<line x1="237.4" y1="160.0" x2="271.2" y2="140.5" opacity="1.0" stroke="rgb(0,0,0)" stroke-width="2.0"/>
<line x1="271.2" y1="140.5" x2="304.9" y2="160.0" opacity="1.0" stroke="rgb(0,0,0)" stroke-width="2.0"/>
<line x1="272.7" y1="149.8" x2="296.1" y2="163.2" opacity="1.0" stroke="rgb(0,0,0)" stroke-width="2.0"/>
<line x1="304.9" y1="160.0" x2="304.9" y2="198.9" opacity="1.0" stroke="rgb(0,0,0)" stroke-width="2.0"/>
<line x1="304.9" y1="198.9" x2="271.2" y2="218.4" opacity="1.0" stroke="rgb(0,0,0)" stroke-width="2.0"/>
<line x1="296.1" y1="195.7" x2="272.7" y2="209.1" opacity="1.0" stroke="rgb(0,0,0)" stroke-width="2.0"/>
<line x1="102.6" y1="160.0" x2="68.9" y2="140.5" opacity="1.0" stroke="rgb(0,0,0)" stroke-width="2.0"/>
<line x1="68.9" y1="140.5" x2="68.9" y2="101.6" opacity="1.0" stroke="rgb(0,0,0)" stroke-width="2.0"/>
<line x1="76.1" y1="134.5" x2="76.1" y2="107.6" opacity="1.0" stroke="rgb(0,0,0)" stroke-width="2.0"/>
<line x1="102.6" y1="82.1" x2="136.3" y2="101.6" opacity="1.0" stroke="rgb(0,0,0)" stroke-width="2.0"/>
<line x1="104.2" y1="91.4" x2="127.5" y2="104.8" opacity="1.0" stroke="rgb(0,0,0)" stroke-width="2.0"/>
<line x1="136.3" y1="101.6" x2="136.3" y2="140.5" opacity="1.0" stroke="rgb(0,0,0)" stroke-width="2.0"/>
<line x1="136.3" y1="140.5" x2="102.6" y2="160.0" opacity="1.0" stroke="rgb(0,0,0)" stroke-width="2.0"/>
<line x1="127.5" y1="137.3" x2="104.2" y2="150.7" opacity="1.0" stroke="rgb(0,0,0)" stroke-width="2.0"/>
<line x1="406.0" y1="218.4" x2="383.5" y2="231.3" opacity="1.0" stroke="rgb(0,0,0)" stroke-width="2.0"/>
<line x1="372.3" y1="250.8" x2="372.3" y2="276.7" opacity="1.0" stroke="rgb(0,0,0)" stroke-width="2.0"/>
<line x1="406.0" y1="296.2" x2="428.4" y2="283.2" opacity="1.0" stroke="rgb(0,0,0)" stroke-width="2.0"/>
<line x1="439.7" y1="263.7" x2="439.7" y2="237.8" opacity="1.0" stroke="rgb(0,0,0)" stroke-width="2.0"/>
<text x="22.000000" y="83.554202" fill="rgb(12,12,255)" stroke-width="0" font-weight="bold" font-size="16">HN</text>
<text x="366.265345" y="245.812258" fill="rgb(12,12,255)" stroke-width="0" font-weight="bold" font-size="16">N</text>
<text x="433.674890" y="284.731177" fill="rgb(178,178,0)" stroke-width="0" font-weight="bold" font-size="16">S</text>
</svg>
</g>
</svg>