<svg xmlns="http://www.w3.org/2000/svg" xmlns:xlink="http://www.w3.org/1999/xlink" xmlns:cml="http://www.xml-cml.org/schema" version="1.1" id="topsvg" x="0" y="0" viewBox="0 0 100 100">
<title>H_7_R - Open Babel Depiction</title>
<rect x="0" y="0" width="100" height="100" fill="white"/>
<g transform="translate(0,0)">
<svg width="100" height="100" x="0" y="0" viewBox="0 0 551.503 391.111" font-family="sans-serif" stroke="rgb(0,0,0)" stroke-width="2" stroke-linecap="round">
<line x1="275.8" y1="234.4" x2="242.1" y2="253.9" opacity="1.0" stroke="rgb(0,0,0)" stroke-width="2.0"/>
<line x1="240.6" y1="256.5" x2="206.9" y2="237.0" opacity="1.0" stroke="rgb(0,0,0)" stroke-width="2.0"/>
<line x1="243.6" y1="251.3" x2="209.9" y2="231.8" opacity="1.0" stroke="rgb(0,0,0)" stroke-width="2.0"/>
<line x1="399.2" y1="163.2" x2="343.1" y2="195.6" opacity="1.0" stroke="rgb(0,0,0)" stroke-width="2.0"/>
<line x1="60.9" y1="308.3" x2="49.8" y2="301.9" opacity="1.0" stroke="rgb(0,0,0)" stroke-width="2.0"/>
<line x1="63.9" y1="303.1" x2="52.8" y2="296.7" opacity="1.0" stroke="rgb(0,0,0)" stroke-width="2.0"/>
<line x1="73.7" y1="325.2" x2="73.7" y2="338.1" opacity="1.0" stroke="rgb(0,0,0)" stroke-width="2.0"/>
<line x1="107.4" y1="292.8" x2="84.9" y2="305.7" opacity="1.0" stroke="rgb(0,0,0)" stroke-width="2.0"/>
<line x1="208.4" y1="234.4" x2="174.7" y2="253.9" opacity="1.0" stroke="rgb(0,0,0)" stroke-width="2.0"/>
<line x1="477.8" y1="234.4" x2="511.5" y2="215.0" opacity="1.0" stroke="rgb(0,0,0)" stroke-width="2.0"/>
<line x1="511.5" y1="215.0" x2="511.5" y2="176.1" opacity="1.0" stroke="rgb(0,0,0)" stroke-width="2.0"/>
<line x1="504.3" y1="209.0" x2="504.3" y2="182.1" opacity="1.0" stroke="rgb(0,0,0)" stroke-width="2.0"/>
<line x1="511.5" y1="176.1" x2="477.8" y2="156.7" opacity="1.0" stroke="rgb(0,0,0)" stroke-width="2.0"/>
<line x1="477.8" y1="156.7" x2="444.1" y2="176.1" opacity="1.0" stroke="rgb(0,0,0)" stroke-width="2.0"/>
<line x1="476.2" y1="165.9" x2="452.9" y2="179.3" opacity="1.0" stroke="rgb(0,0,0)" stroke-width="2.0"/>
<line x1="444.1" y1="176.1" x2="444.1" y2="215.0" opacity="1.0" stroke="rgb(0,0,0)" stroke-width="2.0"/>
<line x1="444.1" y1="215.0" x2="477.8" y2="234.4" opacity="1.0" stroke="rgb(0,0,0)" stroke-width="2.0"/>
<line x1="452.9" y1="211.8" x2="476.2" y2="225.2" opacity="1.0" stroke="rgb(0,0,0)" stroke-width="2.0"/>
<line x1="410.5" y1="40.0" x2="376.8" y2="59.4" opacity="1.0" stroke="rgb(0,0,0)" stroke-width="2.0"/>
<line x1="408.9" y1="49.2" x2="385.6" y2="62.7" opacity="1.0" stroke="rgb(0,0,0)" stroke-width="2.0"/>
<line x1="376.8" y1="59.4" x2="376.8" y2="98.3" opacity="1.0" stroke="rgb(0,0,0)" stroke-width="2.0"/>
<line x1="376.8" y1="98.3" x2="410.5" y2="117.8" opacity="1.0" stroke="rgb(0,0,0)" stroke-width="2.0"/>
<line x1="385.6" y1="95.1" x2="408.9" y2="108.5" opacity="1.0" stroke="rgb(0,0,0)" stroke-width="2.0"/>
<line x1="410.5" y1="117.8" x2="444.1" y2="98.3" opacity="1.0" stroke="rgb(0,0,0)" stroke-width="2.0"/>
<line x1="444.1" y1="98.3" x2="444.1" y2="59.4" opacity="1.0" stroke="rgb(0,0,0)" stroke-width="2.0"/>
<line x1="436.9" y1="92.3" x2="436.9" y2="65.4" opacity="1.0" stroke="rgb(0,0,0)" stroke-width="2.0"/>
<line x1="444.1" y1="59.4" x2="410.5" y2="40.0" opacity="1.0" stroke="rgb(0,0,0)" stroke-width="2.0"/>
<line x1="343.1" y1="234.4" x2="309.4" y2="253.9" opacity="1.0" stroke="rgb(0,0,0)" stroke-width="2.0"/>
<line x1="309.4" y1="253.9" x2="275.8" y2="234.4" opacity="1.0" stroke="rgb(0,0,0)" stroke-width="2.0"/>
<line x1="307.8" y1="244.7" x2="284.5" y2="231.2" opacity="1.0" stroke="rgb(0,0,0)" stroke-width="2.0"/>
<line x1="275.8" y1="234.4" x2="275.8" y2="195.6" opacity="1.0" stroke="rgb(0,0,0)" stroke-width="2.0"/>
<line x1="275.8" y1="195.6" x2="309.4" y2="176.1" opacity="1.0" stroke="rgb(0,0,0)" stroke-width="2.0"/>
<line x1="284.5" y1="198.8" x2="307.8" y2="185.3" opacity="1.0" stroke="rgb(0,0,0)" stroke-width="2.0"/>
<line x1="309.4" y1="176.1" x2="343.1" y2="195.6" opacity="1.0" stroke="rgb(0,0,0)" stroke-width="2.0"/>
<line x1="343.1" y1="195.6" x2="343.1" y2="234.4" opacity="1.0" stroke="rgb(0,0,0)" stroke-width="2.0"/>
<line x1="335.9" y1="201.6" x2="335.9" y2="228.4" opacity="1.0" stroke="rgb(0,0,0)" stroke-width="2.0"/>
<line x1="163.5" y1="299.3" x2="141.0" y2="312.2" opacity="1.0" stroke="rgb(0,0,0)" stroke-width="2.0"/>
<line x1="141.0" y1="312.2" x2="107.4" y2="292.8" opacity="1.0" stroke="rgb(0,0,0)" stroke-width="2.0"/>
<line x1="139.4" y1="303.0" x2="116.2" y2="289.5" opacity="1.0" stroke="rgb(0,0,0)" stroke-width="2.0"/>
<line x1="107.4" y1="292.8" x2="107.4" y2="253.9" opacity="1.0" stroke="rgb(0,0,0)" stroke-width="2.0"/>
<line x1="107.4" y1="253.9" x2="141.0" y2="234.4" opacity="1.0" stroke="rgb(0,0,0)" stroke-width="2.0"/>
<line x1="116.2" y1="257.1" x2="139.4" y2="243.7" opacity="1.0" stroke="rgb(0,0,0)" stroke-width="2.0"/>
<line x1="141.0" y1="234.4" x2="174.7" y2="253.9" opacity="1.0" stroke="rgb(0,0,0)" stroke-width="2.0"/>
<line x1="174.7" y1="253.9" x2="174.7" y2="279.9" opacity="1.0" stroke="rgb(0,0,0)" stroke-width="2.0"/>
<line x1="167.5" y1="259.9" x2="167.5" y2="277.8" opacity="1.0" stroke="rgb(0,0,0)" stroke-width="2.0"/>
<line x1="410.5" y1="117.8" x2="410.5" y2="143.7" opacity="1.0" stroke="rgb(0,0,0)" stroke-width="2.0"/>
<line x1="421.7" y1="163.2" x2="444.1" y2="176.1" opacity="1.0" stroke="rgb(0,0,0)" stroke-width="2.0"/>
<line x1="477.8" y1="156.7" x2="477.8" y2="130.8" opacity="1.0" stroke="rgb(0,0,0)" stroke-width="2.0"/>
<line x1="466.6" y1="111.3" x2="444.1" y2="98.3" opacity="1.0" stroke="rgb(0,0,0)" stroke-width="2.0"/>
<text x="78.478766" y="347.079111" fill="rgb(255,12,12)" stroke-width="0" font-weight="bold" font-size="16"/>
<text x="78.478766" y="347.079111" fill="rgb(255,12,12)" stroke-width="0" font-weight="bold" font-size="32">.</text>
<text x="67.678766" y="359.111111" fill="rgb(255,12,12)" stroke-width="0" font-weight="bold" font-size="16">O</text>
<text x="34.000000" y="300.777778" fill="rgb(255,12,12)" stroke-width="0" font-weight="bold" font-size="16">O</text>
<text x="67.678766" y="320.222222" fill="rgb(12,12,255)" stroke-width="0" font-weight="bold" font-size="16">N</text>
<text x="168.715063" y="300.777778" fill="rgb(12,12,255)" stroke-width="0" font-weight="bold" font-size="16">N</text>
<text x="404.466423" y="164.666667" fill="rgb(12,12,255)" stroke-width="0" font-weight="bold" font-size="16">N</text>
<text x="471.823954" y="125.777778" fill="rgb(178,178,0)" stroke-width="0" font-weight="bold" font-size="16">S</text>
</svg>
</g>
</svg>