<svg xmlns="http://www.w3.org/2000/svg" xmlns:xlink="http://www.w3.org/1999/xlink" xmlns:cml="http://www.xml-cml.org/schema" version="1.1" id="topsvg" x="0" y="0" viewBox="0 0 100 100">
<title>H_7_M - Open Babel Depiction</title>
<rect x="0" y="0" width="100" height="100" fill="white"/>
<g transform="translate(0,0)">
<svg width="100" height="100" x="0" y="0" viewBox="0 0 551.118 371.429" font-family="sans-serif" stroke="rgb(0,0,0)" stroke-width="2" stroke-linecap="round">
<line x1="275.6" y1="137.1" x2="309.2" y2="117.7" opacity="1.0" stroke="rgb(0,0,0)" stroke-width="2.0"/>
<line x1="310.7" y1="115.1" x2="344.4" y2="134.5" opacity="1.0" stroke="rgb(0,0,0)" stroke-width="2.0"/>
<line x1="307.7" y1="120.3" x2="341.4" y2="139.7" opacity="1.0" stroke="rgb(0,0,0)" stroke-width="2.0"/>
<line x1="152.2" y1="208.4" x2="208.3" y2="176.0" opacity="1.0" stroke="rgb(0,0,0)" stroke-width="2.0"/>
<line x1="477.5" y1="59.4" x2="499.9" y2="46.5" opacity="1.0" stroke="rgb(0,0,0)" stroke-width="2.0"/>
<line x1="475.4" y1="55.8" x2="497.8" y2="42.9" opacity="1.0" stroke="rgb(0,0,0)" stroke-width="2.0"/>
<line x1="479.6" y1="63.1" x2="502.0" y2="50.1" opacity="1.0" stroke="rgb(0,0,0)" stroke-width="2.0"/>
<line x1="443.8" y1="78.9" x2="477.5" y2="59.4" opacity="1.0" stroke="rgb(0,0,0)" stroke-width="2.0"/>
<line x1="342.9" y1="137.1" x2="376.5" y2="117.7" opacity="1.0" stroke="rgb(0,0,0)" stroke-width="2.0"/>
<line x1="73.7" y1="137.1" x2="40.0" y2="156.6" opacity="1.0" stroke="rgb(0,0,0)" stroke-width="2.0"/>
<line x1="40.0" y1="156.6" x2="40.0" y2="195.4" opacity="1.0" stroke="rgb(0,0,0)" stroke-width="2.0"/>
<line x1="47.2" y1="162.6" x2="47.2" y2="189.4" opacity="1.0" stroke="rgb(0,0,0)" stroke-width="2.0"/>
<line x1="40.0" y1="195.4" x2="73.7" y2="214.9" opacity="1.0" stroke="rgb(0,0,0)" stroke-width="2.0"/>
<line x1="73.7" y1="214.9" x2="107.3" y2="195.4" opacity="1.0" stroke="rgb(0,0,0)" stroke-width="2.0"/>
<line x1="75.2" y1="205.6" x2="98.5" y2="192.2" opacity="1.0" stroke="rgb(0,0,0)" stroke-width="2.0"/>
<line x1="107.3" y1="195.4" x2="107.3" y2="156.6" opacity="1.0" stroke="rgb(0,0,0)" stroke-width="2.0"/>
<line x1="107.3" y1="156.6" x2="73.7" y2="137.1" opacity="1.0" stroke="rgb(0,0,0)" stroke-width="2.0"/>
<line x1="98.5" y1="159.8" x2="75.2" y2="146.4" opacity="1.0" stroke="rgb(0,0,0)" stroke-width="2.0"/>
<line x1="141.0" y1="331.4" x2="174.6" y2="312.0" opacity="1.0" stroke="rgb(0,0,0)" stroke-width="2.0"/>
<line x1="142.5" y1="322.2" x2="165.8" y2="308.8" opacity="1.0" stroke="rgb(0,0,0)" stroke-width="2.0"/>
<line x1="174.6" y1="312.0" x2="174.6" y2="273.1" opacity="1.0" stroke="rgb(0,0,0)" stroke-width="2.0"/>
<line x1="174.6" y1="273.1" x2="141.0" y2="253.7" opacity="1.0" stroke="rgb(0,0,0)" stroke-width="2.0"/>
<line x1="165.8" y1="276.4" x2="142.5" y2="262.9" opacity="1.0" stroke="rgb(0,0,0)" stroke-width="2.0"/>
<line x1="141.0" y1="253.7" x2="107.3" y2="273.1" opacity="1.0" stroke="rgb(0,0,0)" stroke-width="2.0"/>
<line x1="107.3" y1="273.1" x2="107.3" y2="312.0" opacity="1.0" stroke="rgb(0,0,0)" stroke-width="2.0"/>
<line x1="114.5" y1="279.1" x2="114.5" y2="306.0" opacity="1.0" stroke="rgb(0,0,0)" stroke-width="2.0"/>
<line x1="107.3" y1="312.0" x2="141.0" y2="331.4" opacity="1.0" stroke="rgb(0,0,0)" stroke-width="2.0"/>
<line x1="208.3" y1="137.1" x2="241.9" y2="117.7" opacity="1.0" stroke="rgb(0,0,0)" stroke-width="2.0"/>
<line x1="241.9" y1="117.7" x2="275.6" y2="137.1" opacity="1.0" stroke="rgb(0,0,0)" stroke-width="2.0"/>
<line x1="243.5" y1="126.9" x2="266.8" y2="140.4" opacity="1.0" stroke="rgb(0,0,0)" stroke-width="2.0"/>
<line x1="275.6" y1="137.1" x2="275.6" y2="176.0" opacity="1.0" stroke="rgb(0,0,0)" stroke-width="2.0"/>
<line x1="275.6" y1="176.0" x2="241.9" y2="195.4" opacity="1.0" stroke="rgb(0,0,0)" stroke-width="2.0"/>
<line x1="266.8" y1="172.8" x2="243.5" y2="186.2" opacity="1.0" stroke="rgb(0,0,0)" stroke-width="2.0"/>
<line x1="241.9" y1="195.4" x2="208.3" y2="176.0" opacity="1.0" stroke="rgb(0,0,0)" stroke-width="2.0"/>
<line x1="208.3" y1="176.0" x2="208.3" y2="137.1" opacity="1.0" stroke="rgb(0,0,0)" stroke-width="2.0"/>
<line x1="215.5" y1="170.0" x2="215.5" y2="143.1" opacity="1.0" stroke="rgb(0,0,0)" stroke-width="2.0"/>
<line x1="376.5" y1="78.9" x2="410.2" y2="59.4" opacity="1.0" stroke="rgb(0,0,0)" stroke-width="2.0"/>
<line x1="410.2" y1="59.4" x2="443.8" y2="78.9" opacity="1.0" stroke="rgb(0,0,0)" stroke-width="2.0"/>
<line x1="411.8" y1="68.7" x2="435.0" y2="82.1" opacity="1.0" stroke="rgb(0,0,0)" stroke-width="2.0"/>
<line x1="443.8" y1="78.9" x2="443.8" y2="117.7" opacity="1.0" stroke="rgb(0,0,0)" stroke-width="2.0"/>
<line x1="443.8" y1="117.7" x2="410.2" y2="137.1" opacity="1.0" stroke="rgb(0,0,0)" stroke-width="2.0"/>
<line x1="435.0" y1="114.5" x2="411.8" y2="127.9" opacity="1.0" stroke="rgb(0,0,0)" stroke-width="2.0"/>
<line x1="410.2" y1="137.1" x2="376.5" y2="117.7" opacity="1.0" stroke="rgb(0,0,0)" stroke-width="2.0"/>
<line x1="376.5" y1="117.7" x2="376.5" y2="78.9" opacity="1.0" stroke="rgb(0,0,0)" stroke-width="2.0"/>
<line x1="383.7" y1="111.7" x2="383.7" y2="84.9" opacity="1.0" stroke="rgb(0,0,0)" stroke-width="2.0"/>
<line x1="141.0" y1="253.7" x2="141.0" y2="227.9" opacity="1.0" stroke="rgb(0,0,0)" stroke-width="2.0"/>
<line x1="129.7" y1="208.4" x2="107.3" y2="195.4" opacity="1.0" stroke="rgb(0,0,0)" stroke-width="2.0"/>
<line x1="73.7" y1="214.9" x2="73.7" y2="240.7" opacity="1.0" stroke="rgb(0,0,0)" stroke-width="2.0"/>
<line x1="84.9" y1="260.2" x2="107.3" y2="273.1" opacity="1.0" stroke="rgb(0,0,0)" stroke-width="2.0"/>
<text x="505.117820" y="48.000000" fill="rgb(12,12,255)" stroke-width="0" font-weight="bold" font-size="16">N</text>
<text x="134.953818" y="222.857143" fill="rgb(12,12,255)" stroke-width="0" font-weight="bold" font-size="16">N</text>
<text x="67.651273" y="261.714286" fill="rgb(178,178,0)" stroke-width="0" font-weight="bold" font-size="16">S</text>
</svg>
</g>
</svg>