<svg xmlns="http://www.w3.org/2000/svg" xmlns:xlink="http://www.w3.org/1999/xlink" xmlns:cml="http://www.xml-cml.org/schema" version="1.1" id="topsvg" x="0" y="0" viewBox="0 0 100 100">
<title>H_8_L - Open Babel Depiction</title>
<rect x="0" y="0" width="100" height="100" fill="white"/>
<g transform="translate(0,0)">
<svg width="100" height="100" x="0" y="0" viewBox="0 0 477.503 352.821" font-family="sans-serif" stroke="rgb(0,0,0)" stroke-width="2" stroke-linecap="round">
<line x1="152.5" y1="189.4" x2="208.8" y2="156.9" opacity="1.0" stroke="rgb(0,0,0)" stroke-width="2.0"/>
<line x1="276.3" y1="117.9" x2="310.0" y2="98.5" opacity="1.0" stroke="rgb(0,0,0)" stroke-width="2.0"/>
<line x1="190.4" y1="68.1" x2="185.1" y2="80.0" opacity="1.0" stroke="rgb(0,0,0)" stroke-width="2.0"/>
<line x1="189.4" y1="100.5" x2="208.8" y2="117.9" opacity="1.0" stroke="rgb(0,0,0)" stroke-width="2.0"/>
<line x1="195.7" y1="96.5" x2="209.1" y2="108.6" opacity="1.0" stroke="rgb(0,0,0)" stroke-width="2.0"/>
<line x1="208.8" y1="117.9" x2="242.5" y2="98.5" opacity="1.0" stroke="rgb(0,0,0)" stroke-width="2.0"/>
<line x1="242.5" y1="98.5" x2="237.1" y2="72.9" opacity="1.0" stroke="rgb(0,0,0)" stroke-width="2.0"/>
<line x1="234.2" y1="94.1" x2="230.5" y2="76.5" opacity="1.0" stroke="rgb(0,0,0)" stroke-width="2.0"/>
<line x1="221.5" y1="59.0" x2="208.6" y2="57.6" opacity="1.0" stroke="rgb(0,0,0)" stroke-width="2.0"/>
<line x1="437.5" y1="79.0" x2="414.6" y2="110.5" opacity="1.0" stroke="rgb(0,0,0)" stroke-width="2.0"/>
<line x1="428.2" y1="79.6" x2="412.3" y2="101.4" opacity="1.0" stroke="rgb(0,0,0)" stroke-width="2.0"/>
<line x1="414.6" y1="110.5" x2="377.5" y2="98.5" opacity="1.0" stroke="rgb(0,0,0)" stroke-width="2.0"/>
<line x1="377.5" y1="98.5" x2="377.5" y2="59.5" opacity="1.0" stroke="rgb(0,0,0)" stroke-width="2.0"/>
<line x1="377.5" y1="59.5" x2="402.2" y2="51.5" opacity="1.0" stroke="rgb(0,0,0)" stroke-width="2.0"/>
<line x1="422.2" y1="58.0" x2="437.5" y2="79.0" opacity="1.0" stroke="rgb(0,0,0)" stroke-width="2.0"/>
<line x1="73.8" y1="117.9" x2="40.0" y2="137.4" opacity="1.0" stroke="rgb(0,0,0)" stroke-width="2.0"/>
<line x1="40.0" y1="137.4" x2="40.0" y2="176.4" opacity="1.0" stroke="rgb(0,0,0)" stroke-width="2.0"/>
<line x1="47.2" y1="143.4" x2="47.2" y2="170.4" opacity="1.0" stroke="rgb(0,0,0)" stroke-width="2.0"/>
<line x1="40.0" y1="176.4" x2="73.8" y2="195.9" opacity="1.0" stroke="rgb(0,0,0)" stroke-width="2.0"/>
<line x1="73.8" y1="195.9" x2="107.5" y2="176.4" opacity="1.0" stroke="rgb(0,0,0)" stroke-width="2.0"/>
<line x1="75.3" y1="186.7" x2="98.7" y2="173.2" opacity="1.0" stroke="rgb(0,0,0)" stroke-width="2.0"/>
<line x1="107.5" y1="176.4" x2="107.5" y2="137.4" opacity="1.0" stroke="rgb(0,0,0)" stroke-width="2.0"/>
<line x1="107.5" y1="137.4" x2="73.8" y2="117.9" opacity="1.0" stroke="rgb(0,0,0)" stroke-width="2.0"/>
<line x1="98.7" y1="140.7" x2="75.3" y2="127.2" opacity="1.0" stroke="rgb(0,0,0)" stroke-width="2.0"/>
<line x1="141.3" y1="312.8" x2="175.0" y2="293.3" opacity="1.0" stroke="rgb(0,0,0)" stroke-width="2.0"/>
<line x1="142.9" y1="303.6" x2="166.2" y2="290.1" opacity="1.0" stroke="rgb(0,0,0)" stroke-width="2.0"/>
<line x1="175.0" y1="293.3" x2="175.0" y2="254.4" opacity="1.0" stroke="rgb(0,0,0)" stroke-width="2.0"/>
<line x1="175.0" y1="254.4" x2="141.3" y2="234.9" opacity="1.0" stroke="rgb(0,0,0)" stroke-width="2.0"/>
<line x1="166.2" y1="257.6" x2="142.9" y2="244.1" opacity="1.0" stroke="rgb(0,0,0)" stroke-width="2.0"/>
<line x1="141.3" y1="234.9" x2="107.5" y2="254.4" opacity="1.0" stroke="rgb(0,0,0)" stroke-width="2.0"/>
<line x1="107.5" y1="254.4" x2="107.5" y2="293.3" opacity="1.0" stroke="rgb(0,0,0)" stroke-width="2.0"/>
<line x1="114.7" y1="260.4" x2="114.7" y2="287.3" opacity="1.0" stroke="rgb(0,0,0)" stroke-width="2.0"/>
<line x1="107.5" y1="293.3" x2="141.3" y2="312.8" opacity="1.0" stroke="rgb(0,0,0)" stroke-width="2.0"/>
<line x1="242.5" y1="176.4" x2="276.3" y2="156.9" opacity="1.0" stroke="rgb(0,0,0)" stroke-width="2.0"/>
<line x1="276.3" y1="156.9" x2="276.3" y2="117.9" opacity="1.0" stroke="rgb(0,0,0)" stroke-width="2.0"/>
<line x1="269.1" y1="150.9" x2="269.1" y2="123.9" opacity="1.0" stroke="rgb(0,0,0)" stroke-width="2.0"/>
<line x1="276.3" y1="117.9" x2="242.5" y2="98.5" opacity="1.0" stroke="rgb(0,0,0)" stroke-width="2.0"/>
<line x1="208.8" y1="117.9" x2="208.8" y2="156.9" opacity="1.0" stroke="rgb(0,0,0)" stroke-width="2.0"/>
<line x1="208.8" y1="156.9" x2="242.5" y2="176.4" opacity="1.0" stroke="rgb(0,0,0)" stroke-width="2.0"/>
<line x1="217.6" y1="153.7" x2="240.9" y2="167.2" opacity="1.0" stroke="rgb(0,0,0)" stroke-width="2.0"/>
<line x1="310.0" y1="59.5" x2="343.8" y2="40.0" opacity="1.0" stroke="rgb(0,0,0)" stroke-width="2.0"/>
<line x1="343.8" y1="40.0" x2="377.5" y2="59.5" opacity="1.0" stroke="rgb(0,0,0)" stroke-width="2.0"/>
<line x1="345.4" y1="49.2" x2="368.7" y2="62.7" opacity="1.0" stroke="rgb(0,0,0)" stroke-width="2.0"/>
<line x1="377.5" y1="98.5" x2="343.8" y2="117.9" opacity="1.0" stroke="rgb(0,0,0)" stroke-width="2.0"/>
<line x1="368.7" y1="95.2" x2="345.4" y2="108.7" opacity="1.0" stroke="rgb(0,0,0)" stroke-width="2.0"/>
<line x1="343.8" y1="117.9" x2="310.0" y2="98.5" opacity="1.0" stroke="rgb(0,0,0)" stroke-width="2.0"/>
<line x1="310.0" y1="98.5" x2="310.0" y2="59.5" opacity="1.0" stroke="rgb(0,0,0)" stroke-width="2.0"/>
<line x1="317.2" y1="92.5" x2="317.2" y2="65.5" opacity="1.0" stroke="rgb(0,0,0)" stroke-width="2.0"/>
<line x1="141.3" y1="234.9" x2="141.3" y2="208.9" opacity="1.0" stroke="rgb(0,0,0)" stroke-width="2.0"/>
<line x1="130.0" y1="189.4" x2="107.5" y2="176.4" opacity="1.0" stroke="rgb(0,0,0)" stroke-width="2.0"/>
<line x1="73.8" y1="195.9" x2="73.8" y2="221.9" opacity="1.0" stroke="rgb(0,0,0)" stroke-width="2.0"/>
<line x1="85.0" y1="241.4" x2="107.5" y2="254.4" opacity="1.0" stroke="rgb(0,0,0)" stroke-width="2.0"/>
<text x="408.594668" y="55.443440" fill="rgb(12,12,255)" stroke-width="0" font-weight="bold" font-size="16">N</text>
<text x="408.594668" y="39.443440" fill="rgb(12,12,255)" stroke-width="0" font-weight="bold" font-size="16">H</text>
<text x="173.800332" y="99.869781" fill="rgb(12,12,255)" stroke-width="0" font-weight="bold" font-size="16">N</text>
<text x="189.652632" y="64.264933" fill="rgb(178,178,0)" stroke-width="0" font-weight="bold" font-size="16">S</text>
<text x="228.413485" y="68.338863" fill="rgb(12,12,255)" stroke-width="0" font-weight="bold" font-size="16">N</text>
<text x="135.258355" y="203.897436" fill="rgb(12,12,255)" stroke-width="0" font-weight="bold" font-size="16">N</text>
<text x="67.752785" y="242.871795" fill="rgb(178,178,0)" stroke-width="0" font-weight="bold" font-size="16">S</text>
</svg>
</g>
</svg>