<svg xmlns="http://www.w3.org/2000/svg" xmlns:xlink="http://www.w3.org/1999/xlink" xmlns:cml="http://www.xml-cml.org/schema" version="1.1" id="topsvg" x="0" y="0" viewBox="0 0 100 100">
<title>H_8_K - Open Babel Depiction</title>
<rect x="0" y="0" width="100" height="100" fill="white"/>
<g transform="translate(0,0)">
<svg width="100" height="100" x="0" y="0" viewBox="0 0 484.753 391.579" font-family="sans-serif" stroke="rgb(0,0,0)" stroke-width="2" stroke-linecap="round">
<line x1="332.3" y1="163.3" x2="276.1" y2="195.8" opacity="1.0" stroke="rgb(0,0,0)" stroke-width="2.0"/>
<line x1="61.0" y1="308.7" x2="49.8" y2="302.3" opacity="1.0" stroke="rgb(0,0,0)" stroke-width="2.0"/>
<line x1="64.0" y1="303.5" x2="52.8" y2="297.1" opacity="1.0" stroke="rgb(0,0,0)" stroke-width="2.0"/>
<line x1="73.7" y1="325.6" x2="73.7" y2="338.6" opacity="1.0" stroke="rgb(0,0,0)" stroke-width="2.0"/>
<line x1="107.5" y1="293.2" x2="85.0" y2="306.1" opacity="1.0" stroke="rgb(0,0,0)" stroke-width="2.0"/>
<line x1="208.6" y1="234.7" x2="174.9" y2="254.2" opacity="1.0" stroke="rgb(0,0,0)" stroke-width="2.0"/>
<line x1="294.5" y1="284.5" x2="299.8" y2="272.7" opacity="1.0" stroke="rgb(0,0,0)" stroke-width="2.0"/>
<line x1="295.5" y1="252.2" x2="276.1" y2="234.7" opacity="1.0" stroke="rgb(0,0,0)" stroke-width="2.0"/>
<line x1="289.1" y1="256.1" x2="275.7" y2="244.1" opacity="1.0" stroke="rgb(0,0,0)" stroke-width="2.0"/>
<line x1="276.1" y1="234.7" x2="242.4" y2="254.2" opacity="1.0" stroke="rgb(0,0,0)" stroke-width="2.0"/>
<line x1="242.4" y1="254.2" x2="247.8" y2="279.7" opacity="1.0" stroke="rgb(0,0,0)" stroke-width="2.0"/>
<line x1="250.7" y1="258.6" x2="254.4" y2="276.2" opacity="1.0" stroke="rgb(0,0,0)" stroke-width="2.0"/>
<line x1="263.4" y1="293.7" x2="276.3" y2="295.0" opacity="1.0" stroke="rgb(0,0,0)" stroke-width="2.0"/>
<line x1="411.0" y1="234.7" x2="444.8" y2="215.3" opacity="1.0" stroke="rgb(0,0,0)" stroke-width="2.0"/>
<line x1="444.8" y1="215.3" x2="444.8" y2="176.3" opacity="1.0" stroke="rgb(0,0,0)" stroke-width="2.0"/>
<line x1="437.6" y1="209.3" x2="437.6" y2="182.3" opacity="1.0" stroke="rgb(0,0,0)" stroke-width="2.0"/>
<line x1="444.8" y1="176.3" x2="411.0" y2="156.8" opacity="1.0" stroke="rgb(0,0,0)" stroke-width="2.0"/>
<line x1="411.0" y1="156.8" x2="377.3" y2="176.3" opacity="1.0" stroke="rgb(0,0,0)" stroke-width="2.0"/>
<line x1="409.4" y1="166.1" x2="386.1" y2="179.6" opacity="1.0" stroke="rgb(0,0,0)" stroke-width="2.0"/>
<line x1="377.3" y1="176.3" x2="377.3" y2="215.3" opacity="1.0" stroke="rgb(0,0,0)" stroke-width="2.0"/>
<line x1="377.3" y1="215.3" x2="411.0" y2="234.7" opacity="1.0" stroke="rgb(0,0,0)" stroke-width="2.0"/>
<line x1="386.1" y1="212.0" x2="409.4" y2="225.5" opacity="1.0" stroke="rgb(0,0,0)" stroke-width="2.0"/>
<line x1="343.6" y1="40.0" x2="309.8" y2="59.5" opacity="1.0" stroke="rgb(0,0,0)" stroke-width="2.0"/>
<line x1="342.0" y1="49.2" x2="318.6" y2="62.7" opacity="1.0" stroke="rgb(0,0,0)" stroke-width="2.0"/>
<line x1="309.8" y1="59.5" x2="309.8" y2="98.4" opacity="1.0" stroke="rgb(0,0,0)" stroke-width="2.0"/>
<line x1="309.8" y1="98.4" x2="343.6" y2="117.9" opacity="1.0" stroke="rgb(0,0,0)" stroke-width="2.0"/>
<line x1="318.6" y1="95.2" x2="342.0" y2="108.7" opacity="1.0" stroke="rgb(0,0,0)" stroke-width="2.0"/>
<line x1="343.6" y1="117.9" x2="377.3" y2="98.4" opacity="1.0" stroke="rgb(0,0,0)" stroke-width="2.0"/>
<line x1="377.3" y1="98.4" x2="377.3" y2="59.5" opacity="1.0" stroke="rgb(0,0,0)" stroke-width="2.0"/>
<line x1="370.1" y1="92.4" x2="370.1" y2="65.5" opacity="1.0" stroke="rgb(0,0,0)" stroke-width="2.0"/>
<line x1="377.3" y1="59.5" x2="343.6" y2="40.0" opacity="1.0" stroke="rgb(0,0,0)" stroke-width="2.0"/>
<line x1="242.4" y1="176.3" x2="208.6" y2="195.8" opacity="1.0" stroke="rgb(0,0,0)" stroke-width="2.0"/>
<line x1="208.6" y1="195.8" x2="208.6" y2="234.7" opacity="1.0" stroke="rgb(0,0,0)" stroke-width="2.0"/>
<line x1="215.8" y1="201.8" x2="215.8" y2="228.7" opacity="1.0" stroke="rgb(0,0,0)" stroke-width="2.0"/>
<line x1="208.6" y1="234.7" x2="242.4" y2="254.2" opacity="1.0" stroke="rgb(0,0,0)" stroke-width="2.0"/>
<line x1="276.1" y1="234.7" x2="276.1" y2="195.8" opacity="1.0" stroke="rgb(0,0,0)" stroke-width="2.0"/>
<line x1="276.1" y1="195.8" x2="242.4" y2="176.3" opacity="1.0" stroke="rgb(0,0,0)" stroke-width="2.0"/>
<line x1="267.3" y1="199.0" x2="244.0" y2="185.6" opacity="1.0" stroke="rgb(0,0,0)" stroke-width="2.0"/>
<line x1="174.9" y1="293.2" x2="141.2" y2="312.6" opacity="1.0" stroke="rgb(0,0,0)" stroke-width="2.0"/>
<line x1="141.2" y1="312.6" x2="107.5" y2="293.2" opacity="1.0" stroke="rgb(0,0,0)" stroke-width="2.0"/>
<line x1="139.6" y1="303.4" x2="116.3" y2="289.9" opacity="1.0" stroke="rgb(0,0,0)" stroke-width="2.0"/>
<line x1="107.5" y1="293.2" x2="107.5" y2="254.2" opacity="1.0" stroke="rgb(0,0,0)" stroke-width="2.0"/>
<line x1="107.5" y1="254.2" x2="141.2" y2="234.7" opacity="1.0" stroke="rgb(0,0,0)" stroke-width="2.0"/>
<line x1="116.3" y1="257.4" x2="139.6" y2="244.0" opacity="1.0" stroke="rgb(0,0,0)" stroke-width="2.0"/>
<line x1="141.2" y1="234.7" x2="174.9" y2="254.2" opacity="1.0" stroke="rgb(0,0,0)" stroke-width="2.0"/>
<line x1="174.9" y1="254.2" x2="174.9" y2="293.2" opacity="1.0" stroke="rgb(0,0,0)" stroke-width="2.0"/>
<line x1="167.7" y1="260.2" x2="167.7" y2="287.2" opacity="1.0" stroke="rgb(0,0,0)" stroke-width="2.0"/>
<line x1="343.6" y1="117.9" x2="343.6" y2="143.8" opacity="1.0" stroke="rgb(0,0,0)" stroke-width="2.0"/>
<line x1="354.8" y1="163.3" x2="377.3" y2="176.3" opacity="1.0" stroke="rgb(0,0,0)" stroke-width="2.0"/>
<line x1="411.0" y1="156.8" x2="411.0" y2="130.9" opacity="1.0" stroke="rgb(0,0,0)" stroke-width="2.0"/>
<line x1="399.8" y1="111.4" x2="377.3" y2="98.4" opacity="1.0" stroke="rgb(0,0,0)" stroke-width="2.0"/>
<text x="78.529410" y="347.546947" fill="rgb(255,12,12)" stroke-width="0" font-weight="bold" font-size="16"/>
<text x="78.529410" y="347.546947" fill="rgb(255,12,12)" stroke-width="0" font-weight="bold" font-size="32">.</text>
<text x="67.729410" y="359.578947" fill="rgb(255,12,12)" stroke-width="0" font-weight="bold" font-size="16">O</text>
<text x="34.000000" y="301.157895" fill="rgb(255,12,12)" stroke-width="0" font-weight="bold" font-size="16">O</text>
<text x="67.729410" y="320.631579" fill="rgb(12,12,255)" stroke-width="0" font-weight="bold" font-size="16">N</text>
<text x="299.049409" y="268.797718" fill="rgb(12,12,255)" stroke-width="0" font-weight="bold" font-size="16">N</text>
<text x="283.208087" y="304.377910" fill="rgb(178,178,0)" stroke-width="0" font-weight="bold" font-size="16">S</text>
<text x="244.474076" y="300.306801" fill="rgb(12,12,255)" stroke-width="0" font-weight="bold" font-size="16">N</text>
<text x="337.564694" y="164.842105" fill="rgb(12,12,255)" stroke-width="0" font-weight="bold" font-size="16">N</text>
<text x="405.023515" y="125.894737" fill="rgb(178,178,0)" stroke-width="0" font-weight="bold" font-size="16">S</text>
</svg>
</g>
</svg>