<svg xmlns="http://www.w3.org/2000/svg" x="0" y="0" viewBox="0 0 100 100">
<title>H_8_S - Open Babel Depiction</title>
<rect x="0" y="0" width="100" height="100" fill="white"/>
<g transform="translate(0,0)">
<svg width="100" height="100" x="0" y="0" viewBox="0 0 484.753 391.579" font-family="sans-serif" stroke="rgb(0,0,0)" stroke-width="2" stroke-linecap="round">
<line x1="152.4" y1="228.2" x2="208.6" y2="195.8" opacity="1.0" stroke="rgb(0,0,0)" stroke-width="2.0"/>
<line x1="377.3" y1="98.4" x2="411.0" y2="78.9" opacity="1.0" stroke="rgb(0,0,0)" stroke-width="2.0"/>
<line x1="411.0" y1="78.9" x2="433.5" y2="91.9" opacity="1.0" stroke="rgb(0,0,0)" stroke-width="2.0"/>
<line x1="408.0" y1="78.9" x2="408.0" y2="53.0" opacity="1.0" stroke="rgb(0,0,0)" stroke-width="2.0"/>
<line x1="414.0" y1="78.9" x2="414.0" y2="53.0" opacity="1.0" stroke="rgb(0,0,0)" stroke-width="2.0"/>
<line x1="276.1" y1="156.8" x2="309.8" y2="137.4" opacity="1.0" stroke="rgb(0,0,0)" stroke-width="2.0"/>
<line x1="190.3" y1="107.1" x2="185.0" y2="118.9" opacity="1.0" stroke="rgb(0,0,0)" stroke-width="2.0"/>
<line x1="189.3" y1="139.4" x2="208.6" y2="156.8" opacity="1.0" stroke="rgb(0,0,0)" stroke-width="2.0"/>
<line x1="195.6" y1="135.4" x2="209.0" y2="147.5" opacity="1.0" stroke="rgb(0,0,0)" stroke-width="2.0"/>
<line x1="208.6" y1="156.8" x2="242.4" y2="137.4" opacity="1.0" stroke="rgb(0,0,0)" stroke-width="2.0"/>
<line x1="242.4" y1="137.4" x2="237.0" y2="111.8" opacity="1.0" stroke="rgb(0,0,0)" stroke-width="2.0"/>
<line x1="234.1" y1="133.0" x2="230.3" y2="115.4" opacity="1.0" stroke="rgb(0,0,0)" stroke-width="2.0"/>
<line x1="221.4" y1="97.9" x2="208.5" y2="96.6" opacity="1.0" stroke="rgb(0,0,0)" stroke-width="2.0"/>
<line x1="73.7" y1="156.8" x2="40.0" y2="176.3" opacity="1.0" stroke="rgb(0,0,0)" stroke-width="2.0"/>
<line x1="40.0" y1="176.3" x2="40.0" y2="215.3" opacity="1.0" stroke="rgb(0,0,0)" stroke-width="2.0"/>
<line x1="47.2" y1="182.3" x2="47.2" y2="209.3" opacity="1.0" stroke="rgb(0,0,0)" stroke-width="2.0"/>
<line x1="40.0" y1="215.3" x2="73.7" y2="234.7" opacity="1.0" stroke="rgb(0,0,0)" stroke-width="2.0"/>
<line x1="73.7" y1="234.7" x2="107.5" y2="215.3" opacity="1.0" stroke="rgb(0,0,0)" stroke-width="2.0"/>
<line x1="75.3" y1="225.5" x2="98.7" y2="212.0" opacity="1.0" stroke="rgb(0,0,0)" stroke-width="2.0"/>
<line x1="107.5" y1="215.3" x2="107.5" y2="176.3" opacity="1.0" stroke="rgb(0,0,0)" stroke-width="2.0"/>
<line x1="107.5" y1="176.3" x2="73.7" y2="156.8" opacity="1.0" stroke="rgb(0,0,0)" stroke-width="2.0"/>
<line x1="98.7" y1="179.6" x2="75.3" y2="166.1" opacity="1.0" stroke="rgb(0,0,0)" stroke-width="2.0"/>
<line x1="141.2" y1="351.6" x2="174.9" y2="332.1" opacity="1.0" stroke="rgb(0,0,0)" stroke-width="2.0"/>
<line x1="142.8" y1="342.3" x2="166.1" y2="328.9" opacity="1.0" stroke="rgb(0,0,0)" stroke-width="2.0"/>
<line x1="174.9" y1="332.1" x2="174.9" y2="293.2" opacity="1.0" stroke="rgb(0,0,0)" stroke-width="2.0"/>
<line x1="174.9" y1="293.2" x2="141.2" y2="273.7" opacity="1.0" stroke="rgb(0,0,0)" stroke-width="2.0"/>
<line x1="166.1" y1="296.4" x2="142.8" y2="282.9" opacity="1.0" stroke="rgb(0,0,0)" stroke-width="2.0"/>
<line x1="141.2" y1="273.7" x2="107.5" y2="293.2" opacity="1.0" stroke="rgb(0,0,0)" stroke-width="2.0"/>
<line x1="107.5" y1="293.2" x2="107.5" y2="332.1" opacity="1.0" stroke="rgb(0,0,0)" stroke-width="2.0"/>
<line x1="114.7" y1="299.2" x2="114.7" y2="326.1" opacity="1.0" stroke="rgb(0,0,0)" stroke-width="2.0"/>
<line x1="107.5" y1="332.1" x2="141.2" y2="351.6" opacity="1.0" stroke="rgb(0,0,0)" stroke-width="2.0"/>
<line x1="242.4" y1="215.3" x2="276.1" y2="195.8" opacity="1.0" stroke="rgb(0,0,0)" stroke-width="2.0"/>
<line x1="276.1" y1="195.8" x2="276.1" y2="156.8" opacity="1.0" stroke="rgb(0,0,0)" stroke-width="2.0"/>
<line x1="268.9" y1="189.8" x2="268.9" y2="162.8" opacity="1.0" stroke="rgb(0,0,0)" stroke-width="2.0"/>
<line x1="276.1" y1="156.8" x2="242.4" y2="137.4" opacity="1.0" stroke="rgb(0,0,0)" stroke-width="2.0"/>
<line x1="208.6" y1="156.8" x2="208.6" y2="195.8" opacity="1.0" stroke="rgb(0,0,0)" stroke-width="2.0"/>
<line x1="208.6" y1="195.8" x2="242.4" y2="215.3" opacity="1.0" stroke="rgb(0,0,0)" stroke-width="2.0"/>
<line x1="217.4" y1="192.6" x2="240.8" y2="206.0" opacity="1.0" stroke="rgb(0,0,0)" stroke-width="2.0"/>
<line x1="309.8" y1="98.4" x2="343.6" y2="78.9" opacity="1.0" stroke="rgb(0,0,0)" stroke-width="2.0"/>
<line x1="343.6" y1="78.9" x2="377.3" y2="98.4" opacity="1.0" stroke="rgb(0,0,0)" stroke-width="2.0"/>
<line x1="345.2" y1="88.2" x2="368.5" y2="101.7" opacity="1.0" stroke="rgb(0,0,0)" stroke-width="2.0"/>
<line x1="377.3" y1="98.4" x2="377.3" y2="137.4" opacity="1.0" stroke="rgb(0,0,0)" stroke-width="2.0"/>
<line x1="377.3" y1="137.4" x2="343.6" y2="156.8" opacity="1.0" stroke="rgb(0,0,0)" stroke-width="2.0"/>
<line x1="368.5" y1="134.1" x2="345.2" y2="147.6" opacity="1.0" stroke="rgb(0,0,0)" stroke-width="2.0"/>
<line x1="343.6" y1="156.8" x2="309.8" y2="137.4" opacity="1.0" stroke="rgb(0,0,0)" stroke-width="2.0"/>
<line x1="309.8" y1="137.4" x2="309.8" y2="98.4" opacity="1.0" stroke="rgb(0,0,0)" stroke-width="2.0"/>
<line x1="317.0" y1="131.4" x2="317.0" y2="104.4" opacity="1.0" stroke="rgb(0,0,0)" stroke-width="2.0"/>
<line x1="141.2" y1="273.7" x2="141.2" y2="247.7" opacity="1.0" stroke="rgb(0,0,0)" stroke-width="2.0"/>
<line x1="129.9" y1="228.2" x2="107.5" y2="215.3" opacity="1.0" stroke="rgb(0,0,0)" stroke-width="2.0"/>
<line x1="73.7" y1="234.7" x2="73.7" y2="260.7" opacity="1.0" stroke="rgb(0,0,0)" stroke-width="2.0"/>
<line x1="85.0" y1="280.2" x2="107.5" y2="293.2" opacity="1.0" stroke="rgb(0,0,0)" stroke-width="2.0"/>
<text x="405.023515" y="48.000000" fill="rgb(255,12,12)" stroke-width="0" font-weight="bold" font-size="16">O</text>
<text x="440.752926" y="106.421053" fill="rgb(102,102,102)" stroke-width="0" font-weight="bold" font-size="16">CH</text>
<text x="464.752926" y="110.101053" fill="rgb(102,102,102)" stroke-width="0" font-weight="bold" font-size="13">3</text>
<text x="173.703517" y="138.781229" fill="rgb(12,12,255)" stroke-width="0" font-weight="bold" font-size="16">N</text>
<text x="189.544839" y="103.201038" fill="rgb(178,178,0)" stroke-width="0" font-weight="bold" font-size="16">S</text>
<text x="228.278850" y="107.272146" fill="rgb(12,12,255)" stroke-width="0" font-weight="bold" font-size="16">N</text>
<text x="135.188231" y="242.736842" fill="rgb(12,12,255)" stroke-width="0" font-weight="bold" font-size="16">N</text>
<text x="67.729410" y="281.684211" fill="rgb(178,178,0)" stroke-width="0" font-weight="bold" font-size="16">S</text>
</svg>
</g>
</svg>
