<svg xmlns="http://www.w3.org/2000/svg" x="0" y="0" viewBox="0 0 100 100">
<title>H_9_O - Open Babel Depiction</title>
<rect x="0" y="0" width="100" height="100" fill="white"/>
<g transform="translate(0,0)">
<svg width="100" height="100" x="0" y="0" viewBox="0 0 415.236 292.903" font-family="sans-serif" stroke="rgb(0,0,0)" stroke-width="2" stroke-linecap="round">
<line x1="151.8" y1="130.3" x2="207.6" y2="98.1" opacity="1.0" stroke="rgb(0,0,0)" stroke-width="2.0"/>
<line x1="274.7" y1="98.1" x2="308.2" y2="117.4" opacity="1.0" stroke="rgb(0,0,0)" stroke-width="2.0"/>
<line x1="73.5" y1="59.4" x2="40.0" y2="78.7" opacity="1.0" stroke="rgb(0,0,0)" stroke-width="2.0"/>
<line x1="40.0" y1="78.7" x2="40.0" y2="117.4" opacity="1.0" stroke="rgb(0,0,0)" stroke-width="2.0"/>
<line x1="47.2" y1="84.7" x2="47.2" y2="111.4" opacity="1.0" stroke="rgb(0,0,0)" stroke-width="2.0"/>
<line x1="40.0" y1="117.4" x2="73.5" y2="136.8" opacity="1.0" stroke="rgb(0,0,0)" stroke-width="2.0"/>
<line x1="73.5" y1="136.8" x2="107.0" y2="117.4" opacity="1.0" stroke="rgb(0,0,0)" stroke-width="2.0"/>
<line x1="75.1" y1="127.5" x2="98.3" y2="114.2" opacity="1.0" stroke="rgb(0,0,0)" stroke-width="2.0"/>
<line x1="107.0" y1="117.4" x2="107.0" y2="78.7" opacity="1.0" stroke="rgb(0,0,0)" stroke-width="2.0"/>
<line x1="107.0" y1="78.7" x2="73.5" y2="59.4" opacity="1.0" stroke="rgb(0,0,0)" stroke-width="2.0"/>
<line x1="98.3" y1="81.9" x2="75.1" y2="68.6" opacity="1.0" stroke="rgb(0,0,0)" stroke-width="2.0"/>
<line x1="140.6" y1="252.9" x2="174.1" y2="233.5" opacity="1.0" stroke="rgb(0,0,0)" stroke-width="2.0"/>
<line x1="142.2" y1="243.7" x2="165.3" y2="230.3" opacity="1.0" stroke="rgb(0,0,0)" stroke-width="2.0"/>
<line x1="174.1" y1="233.5" x2="174.1" y2="194.8" opacity="1.0" stroke="rgb(0,0,0)" stroke-width="2.0"/>
<line x1="174.1" y1="194.8" x2="140.6" y2="175.5" opacity="1.0" stroke="rgb(0,0,0)" stroke-width="2.0"/>
<line x1="165.3" y1="198.1" x2="142.2" y2="184.7" opacity="1.0" stroke="rgb(0,0,0)" stroke-width="2.0"/>
<line x1="140.6" y1="175.5" x2="107.0" y2="194.8" opacity="1.0" stroke="rgb(0,0,0)" stroke-width="2.0"/>
<line x1="107.0" y1="194.8" x2="107.0" y2="233.5" opacity="1.0" stroke="rgb(0,0,0)" stroke-width="2.0"/>
<line x1="114.2" y1="200.8" x2="114.2" y2="227.5" opacity="1.0" stroke="rgb(0,0,0)" stroke-width="2.0"/>
<line x1="107.0" y1="233.5" x2="140.6" y2="252.9" opacity="1.0" stroke="rgb(0,0,0)" stroke-width="2.0"/>
<line x1="207.6" y1="59.4" x2="241.1" y2="40.0" opacity="1.0" stroke="rgb(0,0,0)" stroke-width="2.0"/>
<line x1="241.1" y1="40.0" x2="274.7" y2="59.4" opacity="1.0" stroke="rgb(0,0,0)" stroke-width="2.0"/>
<line x1="242.7" y1="49.2" x2="265.9" y2="62.6" opacity="1.0" stroke="rgb(0,0,0)" stroke-width="2.0"/>
<line x1="274.7" y1="59.4" x2="274.7" y2="98.1" opacity="1.0" stroke="rgb(0,0,0)" stroke-width="2.0"/>
<line x1="274.7" y1="98.1" x2="241.1" y2="117.4" opacity="1.0" stroke="rgb(0,0,0)" stroke-width="2.0"/>
<line x1="265.9" y1="94.8" x2="242.7" y2="108.2" opacity="1.0" stroke="rgb(0,0,0)" stroke-width="2.0"/>
<line x1="241.1" y1="117.4" x2="207.6" y2="98.1" opacity="1.0" stroke="rgb(0,0,0)" stroke-width="2.0"/>
<line x1="207.6" y1="98.1" x2="207.6" y2="59.4" opacity="1.0" stroke="rgb(0,0,0)" stroke-width="2.0"/>
<line x1="214.8" y1="92.1" x2="214.8" y2="65.4" opacity="1.0" stroke="rgb(0,0,0)" stroke-width="2.0"/>
<line x1="353.0" y1="104.6" x2="375.2" y2="117.4" opacity="1.0" stroke="rgb(0,0,0)" stroke-width="2.0"/>
<line x1="375.2" y1="117.4" x2="375.2" y2="156.1" opacity="1.0" stroke="rgb(0,0,0)" stroke-width="2.0"/>
<line x1="368.0" y1="123.4" x2="368.0" y2="150.1" opacity="1.0" stroke="rgb(0,0,0)" stroke-width="2.0"/>
<line x1="375.2" y1="156.1" x2="341.7" y2="175.5" opacity="1.0" stroke="rgb(0,0,0)" stroke-width="2.0"/>
<line x1="341.7" y1="175.5" x2="308.2" y2="156.1" opacity="1.0" stroke="rgb(0,0,0)" stroke-width="2.0"/>
<line x1="340.1" y1="166.2" x2="317.0" y2="152.9" opacity="1.0" stroke="rgb(0,0,0)" stroke-width="2.0"/>
<line x1="308.2" y1="156.1" x2="308.2" y2="117.4" opacity="1.0" stroke="rgb(0,0,0)" stroke-width="2.0"/>
<line x1="308.2" y1="117.4" x2="330.6" y2="104.5" opacity="1.0" stroke="rgb(0,0,0)" stroke-width="2.0"/>
<line x1="317.0" y1="120.7" x2="332.4" y2="111.8" opacity="1.0" stroke="rgb(0,0,0)" stroke-width="2.0"/>
<line x1="140.6" y1="175.5" x2="140.6" y2="149.8" opacity="1.0" stroke="rgb(0,0,0)" stroke-width="2.0"/>
<line x1="129.3" y1="130.3" x2="107.0" y2="117.4" opacity="1.0" stroke="rgb(0,0,0)" stroke-width="2.0"/>
<line x1="73.5" y1="136.8" x2="73.5" y2="162.5" opacity="1.0" stroke="rgb(0,0,0)" stroke-width="2.0"/>
<line x1="84.8" y1="182.0" x2="107.0" y2="194.8" opacity="1.0" stroke="rgb(0,0,0)" stroke-width="2.0"/>
<text x="67.523564" y="183.483871" fill="rgb(178,178,0)" stroke-width="0" font-weight="bold" font-size="16">S</text>
<text x="335.712076" y="106.064516" fill="rgb(12,12,255)" stroke-width="0" font-weight="bold" font-size="16">N</text>
<text x="134.570692" y="144.774194" fill="rgb(12,12,255)" stroke-width="0" font-weight="bold" font-size="16">N</text>
</svg>
</g>
</svg>
