<svg xmlns="http://www.w3.org/2000/svg" xmlns:xlink="http://www.w3.org/1999/xlink" xmlns:cml="http://www.xml-cml.org/schema" version="1.1" id="topsvg" x="0" y="0" viewBox="0 0 100 100">
<title>H_9_L - Open Babel Depiction</title>
<rect x="0" y="0" width="100" height="100" fill="white"/>
<g transform="translate(0,0)">
<svg width="100" height="100" x="0" y="0" viewBox="0 0 476.308 293.714" font-family="sans-serif" stroke="rgb(0,0,0)" stroke-width="2" stroke-linecap="round">
<line x1="324.1" y1="163.1" x2="268.1" y2="195.4" opacity="1.0" stroke="rgb(0,0,0)" stroke-width="2.0"/>
<line x1="200.7" y1="195.4" x2="167.1" y2="176.0" opacity="1.0" stroke="rgb(0,0,0)" stroke-width="2.0"/>
<line x1="40.0" y1="156.6" x2="62.8" y2="188.0" opacity="1.0" stroke="rgb(0,0,0)" stroke-width="2.0"/>
<line x1="49.4" y1="157.2" x2="65.1" y2="178.9" opacity="1.0" stroke="rgb(0,0,0)" stroke-width="2.0"/>
<line x1="62.8" y1="188.0" x2="99.8" y2="176.0" opacity="1.0" stroke="rgb(0,0,0)" stroke-width="2.0"/>
<line x1="99.8" y1="176.0" x2="99.8" y2="137.1" opacity="1.0" stroke="rgb(0,0,0)" stroke-width="2.0"/>
<line x1="99.8" y1="137.1" x2="75.2" y2="129.2" opacity="1.0" stroke="rgb(0,0,0)" stroke-width="2.0"/>
<line x1="55.2" y1="135.7" x2="40.0" y2="156.6" opacity="1.0" stroke="rgb(0,0,0)" stroke-width="2.0"/>
<line x1="402.7" y1="234.3" x2="436.3" y2="214.9" opacity="1.0" stroke="rgb(0,0,0)" stroke-width="2.0"/>
<line x1="436.3" y1="214.9" x2="436.3" y2="176.0" opacity="1.0" stroke="rgb(0,0,0)" stroke-width="2.0"/>
<line x1="429.1" y1="208.9" x2="429.1" y2="182.0" opacity="1.0" stroke="rgb(0,0,0)" stroke-width="2.0"/>
<line x1="436.3" y1="176.0" x2="402.7" y2="156.6" opacity="1.0" stroke="rgb(0,0,0)" stroke-width="2.0"/>
<line x1="402.7" y1="156.6" x2="369.0" y2="176.0" opacity="1.0" stroke="rgb(0,0,0)" stroke-width="2.0"/>
<line x1="401.1" y1="165.8" x2="377.8" y2="179.2" opacity="1.0" stroke="rgb(0,0,0)" stroke-width="2.0"/>
<line x1="369.0" y1="176.0" x2="369.0" y2="214.9" opacity="1.0" stroke="rgb(0,0,0)" stroke-width="2.0"/>
<line x1="369.0" y1="214.9" x2="402.7" y2="234.3" opacity="1.0" stroke="rgb(0,0,0)" stroke-width="2.0"/>
<line x1="377.8" y1="211.6" x2="401.1" y2="225.1" opacity="1.0" stroke="rgb(0,0,0)" stroke-width="2.0"/>
<line x1="335.4" y1="40.0" x2="301.7" y2="59.4" opacity="1.0" stroke="rgb(0,0,0)" stroke-width="2.0"/>
<line x1="333.8" y1="49.2" x2="310.5" y2="62.7" opacity="1.0" stroke="rgb(0,0,0)" stroke-width="2.0"/>
<line x1="301.7" y1="59.4" x2="301.7" y2="98.3" opacity="1.0" stroke="rgb(0,0,0)" stroke-width="2.0"/>
<line x1="301.7" y1="98.3" x2="335.4" y2="117.7" opacity="1.0" stroke="rgb(0,0,0)" stroke-width="2.0"/>
<line x1="310.5" y1="95.1" x2="333.8" y2="108.5" opacity="1.0" stroke="rgb(0,0,0)" stroke-width="2.0"/>
<line x1="335.4" y1="117.7" x2="369.0" y2="98.3" opacity="1.0" stroke="rgb(0,0,0)" stroke-width="2.0"/>
<line x1="369.0" y1="98.3" x2="369.0" y2="59.4" opacity="1.0" stroke="rgb(0,0,0)" stroke-width="2.0"/>
<line x1="361.8" y1="92.3" x2="361.8" y2="65.4" opacity="1.0" stroke="rgb(0,0,0)" stroke-width="2.0"/>
<line x1="369.0" y1="59.4" x2="335.4" y2="40.0" opacity="1.0" stroke="rgb(0,0,0)" stroke-width="2.0"/>
<line x1="268.1" y1="234.3" x2="234.4" y2="253.7" opacity="1.0" stroke="rgb(0,0,0)" stroke-width="2.0"/>
<line x1="234.4" y1="253.7" x2="200.7" y2="234.3" opacity="1.0" stroke="rgb(0,0,0)" stroke-width="2.0"/>
<line x1="232.8" y1="244.5" x2="209.5" y2="231.1" opacity="1.0" stroke="rgb(0,0,0)" stroke-width="2.0"/>
<line x1="200.7" y1="234.3" x2="200.7" y2="195.4" opacity="1.0" stroke="rgb(0,0,0)" stroke-width="2.0"/>
<line x1="200.7" y1="195.4" x2="234.4" y2="176.0" opacity="1.0" stroke="rgb(0,0,0)" stroke-width="2.0"/>
<line x1="209.5" y1="198.7" x2="232.8" y2="185.2" opacity="1.0" stroke="rgb(0,0,0)" stroke-width="2.0"/>
<line x1="234.4" y1="176.0" x2="268.1" y2="195.4" opacity="1.0" stroke="rgb(0,0,0)" stroke-width="2.0"/>
<line x1="268.1" y1="195.4" x2="268.1" y2="234.3" opacity="1.0" stroke="rgb(0,0,0)" stroke-width="2.0"/>
<line x1="260.9" y1="201.4" x2="260.9" y2="228.3" opacity="1.0" stroke="rgb(0,0,0)" stroke-width="2.0"/>
<line x1="167.1" y1="137.1" x2="133.4" y2="117.7" opacity="1.0" stroke="rgb(0,0,0)" stroke-width="2.0"/>
<line x1="133.4" y1="117.7" x2="99.8" y2="137.1" opacity="1.0" stroke="rgb(0,0,0)" stroke-width="2.0"/>
<line x1="131.9" y1="126.9" x2="108.6" y2="140.4" opacity="1.0" stroke="rgb(0,0,0)" stroke-width="2.0"/>
<line x1="99.8" y1="176.0" x2="133.4" y2="195.4" opacity="1.0" stroke="rgb(0,0,0)" stroke-width="2.0"/>
<line x1="108.6" y1="172.8" x2="131.9" y2="186.2" opacity="1.0" stroke="rgb(0,0,0)" stroke-width="2.0"/>
<line x1="133.4" y1="195.4" x2="167.1" y2="176.0" opacity="1.0" stroke="rgb(0,0,0)" stroke-width="2.0"/>
<line x1="167.1" y1="176.0" x2="167.1" y2="137.1" opacity="1.0" stroke="rgb(0,0,0)" stroke-width="2.0"/>
<line x1="159.9" y1="170.0" x2="159.9" y2="143.1" opacity="1.0" stroke="rgb(0,0,0)" stroke-width="2.0"/>
<line x1="335.4" y1="117.7" x2="335.4" y2="143.6" opacity="1.0" stroke="rgb(0,0,0)" stroke-width="2.0"/>
<line x1="346.6" y1="163.1" x2="369.0" y2="176.0" opacity="1.0" stroke="rgb(0,0,0)" stroke-width="2.0"/>
<line x1="402.7" y1="156.6" x2="402.7" y2="130.7" opacity="1.0" stroke="rgb(0,0,0)" stroke-width="2.0"/>
<line x1="391.4" y1="111.2" x2="369.0" y2="98.3" opacity="1.0" stroke="rgb(0,0,0)" stroke-width="2.0"/>
<text x="56.839656" y="133.135340" fill="rgb(12,12,255)" stroke-width="0" font-weight="bold" font-size="16">N</text>
<text x="56.839656" y="117.135340" fill="rgb(12,12,255)" stroke-width="0" font-weight="bold" font-size="16">H</text>
<text x="329.353904" y="164.571429" fill="rgb(12,12,255)" stroke-width="0" font-weight="bold" font-size="16">N</text>
<text x="396.656450" y="125.714286" fill="rgb(178,178,0)" stroke-width="0" font-weight="bold" font-size="16">S</text>
</svg>
</g>
</svg>