<svg xmlns="http://www.w3.org/2000/svg" x="0" y="0" viewBox="0 0 100 100">
<title>H_9_S - Open Babel Depiction</title>
<rect x="0" y="0" width="100" height="100" fill="white"/>
<g transform="translate(0,0)">
<svg width="100" height="100" x="0" y="0" viewBox="0 0 483.466 293.529" font-family="sans-serif" stroke="rgb(0,0,0)" stroke-width="2" stroke-linecap="round">
<line x1="152.1" y1="130.6" x2="208.1" y2="98.2" opacity="1.0" stroke="rgb(0,0,0)" stroke-width="2.0"/>
<line x1="376.2" y1="156.5" x2="409.8" y2="175.9" opacity="1.0" stroke="rgb(0,0,0)" stroke-width="2.0"/>
<line x1="409.8" y1="175.9" x2="409.8" y2="201.7" opacity="1.0" stroke="rgb(0,0,0)" stroke-width="2.0"/>
<line x1="408.3" y1="173.3" x2="430.7" y2="160.4" opacity="1.0" stroke="rgb(0,0,0)" stroke-width="2.0"/>
<line x1="411.3" y1="178.5" x2="433.7" y2="165.6" opacity="1.0" stroke="rgb(0,0,0)" stroke-width="2.0"/>
<line x1="275.4" y1="98.2" x2="309.0" y2="117.6" opacity="1.0" stroke="rgb(0,0,0)" stroke-width="2.0"/>
<line x1="73.6" y1="59.4" x2="40.0" y2="78.8" opacity="1.0" stroke="rgb(0,0,0)" stroke-width="2.0"/>
<line x1="40.0" y1="78.8" x2="40.0" y2="117.6" opacity="1.0" stroke="rgb(0,0,0)" stroke-width="2.0"/>
<line x1="47.2" y1="84.8" x2="47.2" y2="111.6" opacity="1.0" stroke="rgb(0,0,0)" stroke-width="2.0"/>
<line x1="40.0" y1="117.6" x2="73.6" y2="137.1" opacity="1.0" stroke="rgb(0,0,0)" stroke-width="2.0"/>
<line x1="73.6" y1="137.1" x2="107.2" y2="117.6" opacity="1.0" stroke="rgb(0,0,0)" stroke-width="2.0"/>
<line x1="75.2" y1="127.8" x2="98.4" y2="114.4" opacity="1.0" stroke="rgb(0,0,0)" stroke-width="2.0"/>
<line x1="107.2" y1="117.6" x2="107.2" y2="78.8" opacity="1.0" stroke="rgb(0,0,0)" stroke-width="2.0"/>
<line x1="107.2" y1="78.8" x2="73.6" y2="59.4" opacity="1.0" stroke="rgb(0,0,0)" stroke-width="2.0"/>
<line x1="98.4" y1="82.1" x2="75.2" y2="68.6" opacity="1.0" stroke="rgb(0,0,0)" stroke-width="2.0"/>
<line x1="140.9" y1="253.5" x2="174.5" y2="234.1" opacity="1.0" stroke="rgb(0,0,0)" stroke-width="2.0"/>
<line x1="142.5" y1="244.3" x2="165.7" y2="230.9" opacity="1.0" stroke="rgb(0,0,0)" stroke-width="2.0"/>
<line x1="174.5" y1="234.1" x2="174.5" y2="195.3" opacity="1.0" stroke="rgb(0,0,0)" stroke-width="2.0"/>
<line x1="174.5" y1="195.3" x2="140.9" y2="175.9" opacity="1.0" stroke="rgb(0,0,0)" stroke-width="2.0"/>
<line x1="165.7" y1="198.5" x2="142.5" y2="185.1" opacity="1.0" stroke="rgb(0,0,0)" stroke-width="2.0"/>
<line x1="140.9" y1="175.9" x2="107.2" y2="195.3" opacity="1.0" stroke="rgb(0,0,0)" stroke-width="2.0"/>
<line x1="107.2" y1="195.3" x2="107.2" y2="234.1" opacity="1.0" stroke="rgb(0,0,0)" stroke-width="2.0"/>
<line x1="114.4" y1="201.3" x2="114.4" y2="228.1" opacity="1.0" stroke="rgb(0,0,0)" stroke-width="2.0"/>
<line x1="107.2" y1="234.1" x2="140.9" y2="253.5" opacity="1.0" stroke="rgb(0,0,0)" stroke-width="2.0"/>
<line x1="208.1" y1="59.4" x2="241.7" y2="40.0" opacity="1.0" stroke="rgb(0,0,0)" stroke-width="2.0"/>
<line x1="241.7" y1="40.0" x2="275.4" y2="59.4" opacity="1.0" stroke="rgb(0,0,0)" stroke-width="2.0"/>
<line x1="243.3" y1="49.2" x2="266.6" y2="62.6" opacity="1.0" stroke="rgb(0,0,0)" stroke-width="2.0"/>
<line x1="275.4" y1="59.4" x2="275.4" y2="98.2" opacity="1.0" stroke="rgb(0,0,0)" stroke-width="2.0"/>
<line x1="275.4" y1="98.2" x2="241.7" y2="117.6" opacity="1.0" stroke="rgb(0,0,0)" stroke-width="2.0"/>
<line x1="266.6" y1="95.0" x2="243.3" y2="108.4" opacity="1.0" stroke="rgb(0,0,0)" stroke-width="2.0"/>
<line x1="241.7" y1="117.6" x2="208.1" y2="98.2" opacity="1.0" stroke="rgb(0,0,0)" stroke-width="2.0"/>
<line x1="208.1" y1="98.2" x2="208.1" y2="59.4" opacity="1.0" stroke="rgb(0,0,0)" stroke-width="2.0"/>
<line x1="215.3" y1="92.2" x2="215.3" y2="65.4" opacity="1.0" stroke="rgb(0,0,0)" stroke-width="2.0"/>
<line x1="342.6" y1="98.2" x2="376.2" y2="117.6" opacity="1.0" stroke="rgb(0,0,0)" stroke-width="2.0"/>
<line x1="376.2" y1="117.6" x2="376.2" y2="156.5" opacity="1.0" stroke="rgb(0,0,0)" stroke-width="2.0"/>
<line x1="369.0" y1="123.6" x2="369.0" y2="150.5" opacity="1.0" stroke="rgb(0,0,0)" stroke-width="2.0"/>
<line x1="376.2" y1="156.5" x2="342.6" y2="175.9" opacity="1.0" stroke="rgb(0,0,0)" stroke-width="2.0"/>
<line x1="342.6" y1="175.9" x2="309.0" y2="156.5" opacity="1.0" stroke="rgb(0,0,0)" stroke-width="2.0"/>
<line x1="341.0" y1="166.6" x2="317.8" y2="153.2" opacity="1.0" stroke="rgb(0,0,0)" stroke-width="2.0"/>
<line x1="309.0" y1="156.5" x2="309.0" y2="117.6" opacity="1.0" stroke="rgb(0,0,0)" stroke-width="2.0"/>
<line x1="309.0" y1="117.6" x2="342.6" y2="98.2" opacity="1.0" stroke="rgb(0,0,0)" stroke-width="2.0"/>
<line x1="317.8" y1="120.9" x2="341.0" y2="107.5" opacity="1.0" stroke="rgb(0,0,0)" stroke-width="2.0"/>
<line x1="140.9" y1="175.9" x2="140.9" y2="150.1" opacity="1.0" stroke="rgb(0,0,0)" stroke-width="2.0"/>
<line x1="129.6" y1="130.6" x2="107.2" y2="117.6" opacity="1.0" stroke="rgb(0,0,0)" stroke-width="2.0"/>
<line x1="73.6" y1="137.1" x2="73.6" y2="162.9" opacity="1.0" stroke="rgb(0,0,0)" stroke-width="2.0"/>
<line x1="84.9" y1="182.4" x2="107.2" y2="195.3" opacity="1.0" stroke="rgb(0,0,0)" stroke-width="2.0"/>
<text x="437.465953" y="164.470588" fill="rgb(255,12,12)" stroke-width="0" font-weight="bold" font-size="16">O</text>
<text x="405.843790" y="222.705882" fill="rgb(102,102,102)" stroke-width="0" font-weight="bold" font-size="16">CH</text>
<text x="429.843790" y="226.385882" fill="rgb(102,102,102)" stroke-width="0" font-weight="bold" font-size="13">3</text>
<text x="134.866488" y="145.058824" fill="rgb(12,12,255)" stroke-width="0" font-weight="bold" font-size="16">N</text>
<text x="67.622163" y="183.882353" fill="rgb(178,178,0)" stroke-width="0" font-weight="bold" font-size="16">S</text>
</svg>
</g>
</svg>
