<svg xmlns="http://www.w3.org/2000/svg" xmlns:xlink="http://www.w3.org/1999/xlink" xmlns:cml="http://www.xml-cml.org/schema" version="1.1" id="topsvg" x="0" y="0" viewBox="0 0 100 100">
<title>I_10_O - Open Babel Depiction</title>
<rect x="0" y="0" width="100" height="100" fill="white"/>
<g transform="translate(0,0)">
<svg width="100" height="100" x="0" y="0" viewBox="0 0 415.585 331.875" font-family="sans-serif" stroke="rgb(0,0,0)" stroke-width="2" stroke-linecap="round">
<line x1="241.4" y1="78.7" x2="241.4" y2="53.0" opacity="1.0" stroke="rgb(0,0,0)" stroke-width="2.0"/>
<line x1="151.9" y1="169.1" x2="207.8" y2="136.9" opacity="1.0" stroke="rgb(0,0,0)" stroke-width="2.0"/>
<line x1="274.9" y1="136.9" x2="308.5" y2="156.2" opacity="1.0" stroke="rgb(0,0,0)" stroke-width="2.0"/>
<line x1="107.1" y1="272.5" x2="107.1" y2="233.8" opacity="1.0" stroke="rgb(0,0,0)" stroke-width="2.0"/>
<line x1="107.1" y1="233.8" x2="140.7" y2="214.4" opacity="1.0" stroke="rgb(0,0,0)" stroke-width="2.0"/>
<line x1="115.9" y1="237.0" x2="139.1" y2="223.6" opacity="1.0" stroke="rgb(0,0,0)" stroke-width="2.0"/>
<line x1="140.7" y1="214.4" x2="174.2" y2="233.7" opacity="1.0" stroke="rgb(0,0,0)" stroke-width="2.0"/>
<line x1="174.2" y1="233.7" x2="174.2" y2="272.5" opacity="1.0" stroke="rgb(0,0,0)" stroke-width="2.0"/>
<line x1="167.0" y1="239.7" x2="167.0" y2="266.5" opacity="1.0" stroke="rgb(0,0,0)" stroke-width="2.0"/>
<line x1="174.2" y1="272.5" x2="140.7" y2="291.9" opacity="1.0" stroke="rgb(0,0,0)" stroke-width="2.0"/>
<line x1="140.7" y1="291.9" x2="107.1" y2="272.5" opacity="1.0" stroke="rgb(0,0,0)" stroke-width="2.0"/>
<line x1="139.1" y1="282.6" x2="115.9" y2="269.3" opacity="1.0" stroke="rgb(0,0,0)" stroke-width="2.0"/>
<line x1="73.6" y1="98.1" x2="107.1" y2="117.5" opacity="1.0" stroke="rgb(0,0,0)" stroke-width="2.0"/>
<line x1="75.2" y1="107.4" x2="98.3" y2="120.7" opacity="1.0" stroke="rgb(0,0,0)" stroke-width="2.0"/>
<line x1="107.1" y1="117.5" x2="107.1" y2="156.2" opacity="1.0" stroke="rgb(0,0,0)" stroke-width="2.0"/>
<line x1="107.1" y1="156.2" x2="73.6" y2="175.6" opacity="1.0" stroke="rgb(0,0,0)" stroke-width="2.0"/>
<line x1="98.3" y1="153.0" x2="75.2" y2="166.4" opacity="1.0" stroke="rgb(0,0,0)" stroke-width="2.0"/>
<line x1="73.6" y1="175.6" x2="40.0" y2="156.2" opacity="1.0" stroke="rgb(0,0,0)" stroke-width="2.0"/>
<line x1="40.0" y1="156.2" x2="40.0" y2="117.5" opacity="1.0" stroke="rgb(0,0,0)" stroke-width="2.0"/>
<line x1="47.2" y1="150.2" x2="47.2" y2="123.5" opacity="1.0" stroke="rgb(0,0,0)" stroke-width="2.0"/>
<line x1="40.0" y1="117.5" x2="73.6" y2="98.1" opacity="1.0" stroke="rgb(0,0,0)" stroke-width="2.0"/>
<line x1="207.8" y1="98.1" x2="241.4" y2="78.7" opacity="1.0" stroke="rgb(0,0,0)" stroke-width="2.0"/>
<line x1="241.4" y1="78.7" x2="274.9" y2="98.1" opacity="1.0" stroke="rgb(0,0,0)" stroke-width="2.0"/>
<line x1="242.9" y1="88.0" x2="266.1" y2="101.4" opacity="1.0" stroke="rgb(0,0,0)" stroke-width="2.0"/>
<line x1="274.9" y1="98.1" x2="274.9" y2="136.9" opacity="1.0" stroke="rgb(0,0,0)" stroke-width="2.0"/>
<line x1="274.9" y1="136.9" x2="241.4" y2="156.2" opacity="1.0" stroke="rgb(0,0,0)" stroke-width="2.0"/>
<line x1="266.1" y1="133.6" x2="242.9" y2="147.0" opacity="1.0" stroke="rgb(0,0,0)" stroke-width="2.0"/>
<line x1="241.4" y1="156.2" x2="207.8" y2="136.9" opacity="1.0" stroke="rgb(0,0,0)" stroke-width="2.0"/>
<line x1="207.8" y1="136.9" x2="207.8" y2="98.1" opacity="1.0" stroke="rgb(0,0,0)" stroke-width="2.0"/>
<line x1="215.0" y1="130.9" x2="215.0" y2="104.1" opacity="1.0" stroke="rgb(0,0,0)" stroke-width="2.0"/>
<line x1="353.3" y1="143.4" x2="375.6" y2="156.2" opacity="1.0" stroke="rgb(0,0,0)" stroke-width="2.0"/>
<line x1="375.6" y1="156.2" x2="375.6" y2="195.0" opacity="1.0" stroke="rgb(0,0,0)" stroke-width="2.0"/>
<line x1="368.4" y1="162.2" x2="368.4" y2="189.0" opacity="1.0" stroke="rgb(0,0,0)" stroke-width="2.0"/>
<line x1="375.6" y1="195.0" x2="342.0" y2="214.4" opacity="1.0" stroke="rgb(0,0,0)" stroke-width="2.0"/>
<line x1="342.0" y1="214.4" x2="308.5" y2="195.0" opacity="1.0" stroke="rgb(0,0,0)" stroke-width="2.0"/>
<line x1="340.4" y1="205.1" x2="317.3" y2="191.8" opacity="1.0" stroke="rgb(0,0,0)" stroke-width="2.0"/>
<line x1="308.5" y1="195.0" x2="308.5" y2="156.2" opacity="1.0" stroke="rgb(0,0,0)" stroke-width="2.0"/>
<line x1="308.5" y1="156.2" x2="331.0" y2="143.3" opacity="1.0" stroke="rgb(0,0,0)" stroke-width="2.0"/>
<line x1="317.3" y1="159.5" x2="332.7" y2="150.6" opacity="1.0" stroke="rgb(0,0,0)" stroke-width="2.0"/>
<line x1="107.1" y1="156.2" x2="129.4" y2="169.1" opacity="1.0" stroke="rgb(0,0,0)" stroke-width="2.0"/>
<line x1="140.7" y1="188.6" x2="140.7" y2="214.4" opacity="1.0" stroke="rgb(0,0,0)" stroke-width="2.0"/>
<line x1="107.1" y1="233.8" x2="84.8" y2="220.9" opacity="1.0" stroke="rgb(0,0,0)" stroke-width="2.0"/>
<line x1="73.6" y1="201.4" x2="73.6" y2="175.6" opacity="1.0" stroke="rgb(0,0,0)" stroke-width="2.0"/>
<text x="67.558484" y="222.375000" fill="rgb(255,12,12)" stroke-width="0" font-weight="bold" font-size="16">O</text>
<text x="336.026360" y="144.875000" fill="rgb(12,12,255)" stroke-width="0" font-weight="bold" font-size="16">N</text>
<text x="235.350906" y="48.000000" fill="rgb(127,178,255)" stroke-width="0" font-weight="bold" font-size="16">F</text>
<text x="134.675453" y="183.625000" fill="rgb(12,12,255)" stroke-width="0" font-weight="bold" font-size="16">N</text>
</svg>
</g>
</svg>