<svg xmlns="http://www.w3.org/2000/svg" xmlns:xlink="http://www.w3.org/1999/xlink" xmlns:cml="http://www.xml-cml.org/schema" version="1.1" id="topsvg" x="0" y="0" viewBox="0 0 100 100">
<title>I_10_L - Open Babel Depiction</title>
<rect x="0" y="0" width="100" height="100" fill="white"/>
<g transform="translate(0,0)">
<svg width="100" height="100" x="0" y="0" viewBox="0 0 476.632 332.778" font-family="sans-serif" stroke="rgb(0,0,0)" stroke-width="2" stroke-linecap="round">
<line x1="234.6" y1="253.9" x2="234.6" y2="279.8" opacity="1.0" stroke="rgb(0,0,0)" stroke-width="2.0"/>
<line x1="324.3" y1="163.2" x2="268.2" y2="195.6" opacity="1.0" stroke="rgb(0,0,0)" stroke-width="2.0"/>
<line x1="200.9" y1="195.6" x2="167.2" y2="176.1" opacity="1.0" stroke="rgb(0,0,0)" stroke-width="2.0"/>
<line x1="40.0" y1="156.7" x2="62.9" y2="188.1" opacity="1.0" stroke="rgb(0,0,0)" stroke-width="2.0"/>
<line x1="49.4" y1="157.3" x2="65.2" y2="179.0" opacity="1.0" stroke="rgb(0,0,0)" stroke-width="2.0"/>
<line x1="62.9" y1="188.1" x2="99.8" y2="176.1" opacity="1.0" stroke="rgb(0,0,0)" stroke-width="2.0"/>
<line x1="99.8" y1="176.1" x2="99.8" y2="137.2" opacity="1.0" stroke="rgb(0,0,0)" stroke-width="2.0"/>
<line x1="99.8" y1="137.2" x2="75.2" y2="129.2" opacity="1.0" stroke="rgb(0,0,0)" stroke-width="2.0"/>
<line x1="55.2" y1="135.7" x2="40.0" y2="156.7" opacity="1.0" stroke="rgb(0,0,0)" stroke-width="2.0"/>
<line x1="436.6" y1="176.1" x2="403.0" y2="156.7" opacity="1.0" stroke="rgb(0,0,0)" stroke-width="2.0"/>
<line x1="403.0" y1="156.7" x2="369.3" y2="176.1" opacity="1.0" stroke="rgb(0,0,0)" stroke-width="2.0"/>
<line x1="401.4" y1="165.9" x2="378.1" y2="179.3" opacity="1.0" stroke="rgb(0,0,0)" stroke-width="2.0"/>
<line x1="369.3" y1="176.1" x2="369.3" y2="215.0" opacity="1.0" stroke="rgb(0,0,0)" stroke-width="2.0"/>
<line x1="369.3" y1="215.0" x2="403.0" y2="234.4" opacity="1.0" stroke="rgb(0,0,0)" stroke-width="2.0"/>
<line x1="378.1" y1="211.8" x2="401.4" y2="225.2" opacity="1.0" stroke="rgb(0,0,0)" stroke-width="2.0"/>
<line x1="403.0" y1="234.4" x2="436.6" y2="215.0" opacity="1.0" stroke="rgb(0,0,0)" stroke-width="2.0"/>
<line x1="436.6" y1="215.0" x2="436.6" y2="176.1" opacity="1.0" stroke="rgb(0,0,0)" stroke-width="2.0"/>
<line x1="429.4" y1="209.0" x2="429.4" y2="182.1" opacity="1.0" stroke="rgb(0,0,0)" stroke-width="2.0"/>
<line x1="301.9" y1="59.4" x2="301.9" y2="98.3" opacity="1.0" stroke="rgb(0,0,0)" stroke-width="2.0"/>
<line x1="309.1" y1="65.4" x2="309.1" y2="92.3" opacity="1.0" stroke="rgb(0,0,0)" stroke-width="2.0"/>
<line x1="301.9" y1="98.3" x2="335.6" y2="117.8" opacity="1.0" stroke="rgb(0,0,0)" stroke-width="2.0"/>
<line x1="335.6" y1="117.8" x2="369.3" y2="98.3" opacity="1.0" stroke="rgb(0,0,0)" stroke-width="2.0"/>
<line x1="337.2" y1="108.5" x2="360.5" y2="95.1" opacity="1.0" stroke="rgb(0,0,0)" stroke-width="2.0"/>
<line x1="369.3" y1="98.3" x2="369.3" y2="59.4" opacity="1.0" stroke="rgb(0,0,0)" stroke-width="2.0"/>
<line x1="369.3" y1="59.4" x2="335.6" y2="40.0" opacity="1.0" stroke="rgb(0,0,0)" stroke-width="2.0"/>
<line x1="360.5" y1="62.7" x2="337.2" y2="49.2" opacity="1.0" stroke="rgb(0,0,0)" stroke-width="2.0"/>
<line x1="335.6" y1="40.0" x2="301.9" y2="59.4" opacity="1.0" stroke="rgb(0,0,0)" stroke-width="2.0"/>
<line x1="268.2" y1="234.4" x2="234.6" y2="253.9" opacity="1.0" stroke="rgb(0,0,0)" stroke-width="2.0"/>
<line x1="234.6" y1="253.9" x2="200.9" y2="234.4" opacity="1.0" stroke="rgb(0,0,0)" stroke-width="2.0"/>
<line x1="233.0" y1="244.7" x2="209.7" y2="231.2" opacity="1.0" stroke="rgb(0,0,0)" stroke-width="2.0"/>
<line x1="200.9" y1="234.4" x2="200.9" y2="195.6" opacity="1.0" stroke="rgb(0,0,0)" stroke-width="2.0"/>
<line x1="200.9" y1="195.6" x2="234.6" y2="176.1" opacity="1.0" stroke="rgb(0,0,0)" stroke-width="2.0"/>
<line x1="209.7" y1="198.8" x2="233.0" y2="185.3" opacity="1.0" stroke="rgb(0,0,0)" stroke-width="2.0"/>
<line x1="234.6" y1="176.1" x2="268.2" y2="195.6" opacity="1.0" stroke="rgb(0,0,0)" stroke-width="2.0"/>
<line x1="268.2" y1="195.6" x2="268.2" y2="234.4" opacity="1.0" stroke="rgb(0,0,0)" stroke-width="2.0"/>
<line x1="261.0" y1="201.6" x2="261.0" y2="228.4" opacity="1.0" stroke="rgb(0,0,0)" stroke-width="2.0"/>
<line x1="167.2" y1="137.2" x2="133.5" y2="117.8" opacity="1.0" stroke="rgb(0,0,0)" stroke-width="2.0"/>
<line x1="133.5" y1="117.8" x2="99.8" y2="137.2" opacity="1.0" stroke="rgb(0,0,0)" stroke-width="2.0"/>
<line x1="131.9" y1="127.0" x2="108.6" y2="140.5" opacity="1.0" stroke="rgb(0,0,0)" stroke-width="2.0"/>
<line x1="99.8" y1="176.1" x2="133.5" y2="195.6" opacity="1.0" stroke="rgb(0,0,0)" stroke-width="2.0"/>
<line x1="108.6" y1="172.9" x2="131.9" y2="186.3" opacity="1.0" stroke="rgb(0,0,0)" stroke-width="2.0"/>
<line x1="133.5" y1="195.6" x2="167.2" y2="176.1" opacity="1.0" stroke="rgb(0,0,0)" stroke-width="2.0"/>
<line x1="167.2" y1="176.1" x2="167.2" y2="137.2" opacity="1.0" stroke="rgb(0,0,0)" stroke-width="2.0"/>
<line x1="160.0" y1="170.1" x2="160.0" y2="143.2" opacity="1.0" stroke="rgb(0,0,0)" stroke-width="2.0"/>
<line x1="335.6" y1="117.8" x2="335.6" y2="143.7" opacity="1.0" stroke="rgb(0,0,0)" stroke-width="2.0"/>
<line x1="346.9" y1="163.2" x2="369.3" y2="176.1" opacity="1.0" stroke="rgb(0,0,0)" stroke-width="2.0"/>
<line x1="403.0" y1="156.7" x2="403.0" y2="130.8" opacity="1.0" stroke="rgb(0,0,0)" stroke-width="2.0"/>
<line x1="391.7" y1="111.3" x2="369.3" y2="98.3" opacity="1.0" stroke="rgb(0,0,0)" stroke-width="2.0"/>
<text x="56.858315" y="133.204895" fill="rgb(12,12,255)" stroke-width="0" font-weight="bold" font-size="16">N</text>
<text x="56.858315" y="117.204895" fill="rgb(12,12,255)" stroke-width="0" font-weight="bold" font-size="16">H</text>
<text x="228.558909" y="300.777778" fill="rgb(127,178,255)" stroke-width="0" font-weight="bold" font-size="16">F</text>
<text x="396.952738" y="125.777778" fill="rgb(255,12,12)" stroke-width="0" font-weight="bold" font-size="16">O</text>
<text x="329.595206" y="164.666667" fill="rgb(12,12,255)" stroke-width="0" font-weight="bold" font-size="16">N</text>
</svg>
</g>
</svg>