<svg xmlns="http://www.w3.org/2000/svg" xmlns:xlink="http://www.w3.org/1999/xlink" xmlns:cml="http://www.xml-cml.org/schema" version="1.1" id="topsvg" x="0" y="0" viewBox="0 0 100 100">
<title>I_10_M - Open Babel Depiction</title>
<rect x="0" y="0" width="100" height="100" fill="white"/>
<g transform="translate(0,0)">
<svg width="100" height="100" x="0" y="0" viewBox="0 0 483.466 332.353" font-family="sans-serif" stroke="rgb(0,0,0)" stroke-width="2" stroke-linecap="round">
<line x1="241.7" y1="78.8" x2="241.7" y2="53.0" opacity="1.0" stroke="rgb(0,0,0)" stroke-width="2.0"/>
<line x1="152.1" y1="169.4" x2="208.1" y2="137.1" opacity="1.0" stroke="rgb(0,0,0)" stroke-width="2.0"/>
<line x1="409.8" y1="214.7" x2="432.2" y2="227.6" opacity="1.0" stroke="rgb(0,0,0)" stroke-width="2.0"/>
<line x1="411.9" y1="211.1" x2="434.3" y2="224.0" opacity="1.0" stroke="rgb(0,0,0)" stroke-width="2.0"/>
<line x1="407.7" y1="218.3" x2="430.1" y2="231.3" opacity="1.0" stroke="rgb(0,0,0)" stroke-width="2.0"/>
<line x1="376.2" y1="195.3" x2="409.8" y2="214.7" opacity="1.0" stroke="rgb(0,0,0)" stroke-width="2.0"/>
<line x1="275.4" y1="137.1" x2="309.0" y2="156.5" opacity="1.0" stroke="rgb(0,0,0)" stroke-width="2.0"/>
<line x1="107.2" y1="272.9" x2="107.2" y2="234.1" opacity="1.0" stroke="rgb(0,0,0)" stroke-width="2.0"/>
<line x1="107.2" y1="234.1" x2="140.9" y2="214.7" opacity="1.0" stroke="rgb(0,0,0)" stroke-width="2.0"/>
<line x1="116.0" y1="237.4" x2="139.3" y2="223.9" opacity="1.0" stroke="rgb(0,0,0)" stroke-width="2.0"/>
<line x1="140.9" y1="214.7" x2="174.5" y2="234.1" opacity="1.0" stroke="rgb(0,0,0)" stroke-width="2.0"/>
<line x1="174.5" y1="234.1" x2="174.5" y2="272.9" opacity="1.0" stroke="rgb(0,0,0)" stroke-width="2.0"/>
<line x1="167.3" y1="240.1" x2="167.3" y2="266.9" opacity="1.0" stroke="rgb(0,0,0)" stroke-width="2.0"/>
<line x1="174.5" y1="272.9" x2="140.9" y2="292.4" opacity="1.0" stroke="rgb(0,0,0)" stroke-width="2.0"/>
<line x1="140.9" y1="292.4" x2="107.2" y2="272.9" opacity="1.0" stroke="rgb(0,0,0)" stroke-width="2.0"/>
<line x1="139.3" y1="283.1" x2="116.0" y2="269.7" opacity="1.0" stroke="rgb(0,0,0)" stroke-width="2.0"/>
<line x1="73.6" y1="98.2" x2="107.2" y2="117.6" opacity="1.0" stroke="rgb(0,0,0)" stroke-width="2.0"/>
<line x1="75.2" y1="107.5" x2="98.4" y2="120.9" opacity="1.0" stroke="rgb(0,0,0)" stroke-width="2.0"/>
<line x1="107.2" y1="117.6" x2="107.2" y2="156.5" opacity="1.0" stroke="rgb(0,0,0)" stroke-width="2.0"/>
<line x1="107.2" y1="156.5" x2="73.6" y2="175.9" opacity="1.0" stroke="rgb(0,0,0)" stroke-width="2.0"/>
<line x1="98.4" y1="153.2" x2="75.2" y2="166.6" opacity="1.0" stroke="rgb(0,0,0)" stroke-width="2.0"/>
<line x1="73.6" y1="175.9" x2="40.0" y2="156.5" opacity="1.0" stroke="rgb(0,0,0)" stroke-width="2.0"/>
<line x1="40.0" y1="156.5" x2="40.0" y2="117.6" opacity="1.0" stroke="rgb(0,0,0)" stroke-width="2.0"/>
<line x1="47.2" y1="150.5" x2="47.2" y2="123.6" opacity="1.0" stroke="rgb(0,0,0)" stroke-width="2.0"/>
<line x1="40.0" y1="117.6" x2="73.6" y2="98.2" opacity="1.0" stroke="rgb(0,0,0)" stroke-width="2.0"/>
<line x1="208.1" y1="98.2" x2="241.7" y2="78.8" opacity="1.0" stroke="rgb(0,0,0)" stroke-width="2.0"/>
<line x1="241.7" y1="78.8" x2="275.4" y2="98.2" opacity="1.0" stroke="rgb(0,0,0)" stroke-width="2.0"/>
<line x1="243.3" y1="88.1" x2="266.6" y2="101.5" opacity="1.0" stroke="rgb(0,0,0)" stroke-width="2.0"/>
<line x1="275.4" y1="98.2" x2="275.4" y2="137.1" opacity="1.0" stroke="rgb(0,0,0)" stroke-width="2.0"/>
<line x1="275.4" y1="137.1" x2="241.7" y2="156.5" opacity="1.0" stroke="rgb(0,0,0)" stroke-width="2.0"/>
<line x1="266.6" y1="133.8" x2="243.3" y2="147.2" opacity="1.0" stroke="rgb(0,0,0)" stroke-width="2.0"/>
<line x1="241.7" y1="156.5" x2="208.1" y2="137.1" opacity="1.0" stroke="rgb(0,0,0)" stroke-width="2.0"/>
<line x1="208.1" y1="137.1" x2="208.1" y2="98.2" opacity="1.0" stroke="rgb(0,0,0)" stroke-width="2.0"/>
<line x1="215.3" y1="131.1" x2="215.3" y2="104.2" opacity="1.0" stroke="rgb(0,0,0)" stroke-width="2.0"/>
<line x1="342.6" y1="137.1" x2="376.2" y2="156.5" opacity="1.0" stroke="rgb(0,0,0)" stroke-width="2.0"/>
<line x1="376.2" y1="156.5" x2="376.2" y2="195.3" opacity="1.0" stroke="rgb(0,0,0)" stroke-width="2.0"/>
<line x1="369.0" y1="162.5" x2="369.0" y2="189.3" opacity="1.0" stroke="rgb(0,0,0)" stroke-width="2.0"/>
<line x1="376.2" y1="195.3" x2="342.6" y2="214.7" opacity="1.0" stroke="rgb(0,0,0)" stroke-width="2.0"/>
<line x1="342.6" y1="214.7" x2="309.0" y2="195.3" opacity="1.0" stroke="rgb(0,0,0)" stroke-width="2.0"/>
<line x1="341.0" y1="205.5" x2="317.8" y2="192.1" opacity="1.0" stroke="rgb(0,0,0)" stroke-width="2.0"/>
<line x1="309.0" y1="195.3" x2="309.0" y2="156.5" opacity="1.0" stroke="rgb(0,0,0)" stroke-width="2.0"/>
<line x1="309.0" y1="156.5" x2="342.6" y2="137.1" opacity="1.0" stroke="rgb(0,0,0)" stroke-width="2.0"/>
<line x1="317.8" y1="159.7" x2="341.0" y2="146.3" opacity="1.0" stroke="rgb(0,0,0)" stroke-width="2.0"/>
<line x1="107.2" y1="156.5" x2="129.6" y2="169.4" opacity="1.0" stroke="rgb(0,0,0)" stroke-width="2.0"/>
<line x1="140.9" y1="188.9" x2="140.9" y2="214.7" opacity="1.0" stroke="rgb(0,0,0)" stroke-width="2.0"/>
<line x1="107.2" y1="234.1" x2="84.9" y2="221.2" opacity="1.0" stroke="rgb(0,0,0)" stroke-width="2.0"/>
<line x1="73.6" y1="201.7" x2="73.6" y2="175.9" opacity="1.0" stroke="rgb(0,0,0)" stroke-width="2.0"/>
<text x="437.465953" y="242.117647" fill="rgb(12,12,255)" stroke-width="0" font-weight="bold" font-size="16">N</text>
<text x="235.732976" y="48.000000" fill="rgb(127,178,255)" stroke-width="0" font-weight="bold" font-size="16">F</text>
<text x="67.622163" y="222.705882" fill="rgb(255,12,12)" stroke-width="0" font-weight="bold" font-size="16">O</text>
<text x="134.866488" y="183.882353" fill="rgb(12,12,255)" stroke-width="0" font-weight="bold" font-size="16">N</text>
</svg>
</g>
</svg>