<svg xmlns="http://www.w3.org/2000/svg" x="0" y="0" viewBox="0 0 100 100">
<title>I_10_N - Open Babel Depiction</title>
<rect x="0" y="0" width="100" height="100" fill="white"/>
<g transform="translate(0,0)">
<svg width="100" height="100" x="0" y="0" viewBox="0 0 409.453 331.613" font-family="sans-serif" stroke="rgb(0,0,0)" stroke-width="2" stroke-linecap="round">
<line x1="241.1" y1="78.7" x2="241.1" y2="53.0" opacity="1.0" stroke="rgb(0,0,0)" stroke-width="2.0"/>
<line x1="151.8" y1="169.0" x2="207.6" y2="136.8" opacity="1.0" stroke="rgb(0,0,0)" stroke-width="2.0"/>
<line x1="274.7" y1="136.8" x2="308.2" y2="156.1" opacity="1.0" stroke="rgb(0,0,0)" stroke-width="2.0"/>
<line x1="343.6" y1="140.4" x2="360.8" y2="159.5" opacity="1.0" stroke="rgb(0,0,0)" stroke-width="2.0"/>
<line x1="363.0" y1="180.4" x2="350.1" y2="202.7" opacity="1.0" stroke="rgb(0,0,0)" stroke-width="2.0"/>
<line x1="350.1" y1="202.7" x2="312.2" y2="194.6" opacity="1.0" stroke="rgb(0,0,0)" stroke-width="2.0"/>
<line x1="345.7" y1="194.4" x2="319.6" y2="188.8" opacity="1.0" stroke="rgb(0,0,0)" stroke-width="2.0"/>
<line x1="312.2" y1="194.6" x2="308.2" y2="156.1" opacity="1.0" stroke="rgb(0,0,0)" stroke-width="2.0"/>
<line x1="308.2" y1="156.1" x2="343.6" y2="140.4" opacity="1.0" stroke="rgb(0,0,0)" stroke-width="2.0"/>
<line x1="316.6" y1="160.3" x2="341.0" y2="149.4" opacity="1.0" stroke="rgb(0,0,0)" stroke-width="2.0"/>
<line x1="40.0" y1="156.1" x2="73.5" y2="175.5" opacity="1.0" stroke="rgb(0,0,0)" stroke-width="2.0"/>
<line x1="73.5" y1="175.5" x2="107.0" y2="156.1" opacity="1.0" stroke="rgb(0,0,0)" stroke-width="2.0"/>
<line x1="75.1" y1="166.2" x2="98.3" y2="152.9" opacity="1.0" stroke="rgb(0,0,0)" stroke-width="2.0"/>
<line x1="107.0" y1="156.1" x2="107.0" y2="117.4" opacity="1.0" stroke="rgb(0,0,0)" stroke-width="2.0"/>
<line x1="107.0" y1="117.4" x2="73.5" y2="98.1" opacity="1.0" stroke="rgb(0,0,0)" stroke-width="2.0"/>
<line x1="98.3" y1="120.7" x2="75.1" y2="107.3" opacity="1.0" stroke="rgb(0,0,0)" stroke-width="2.0"/>
<line x1="73.5" y1="98.1" x2="40.0" y2="117.4" opacity="1.0" stroke="rgb(0,0,0)" stroke-width="2.0"/>
<line x1="40.0" y1="117.4" x2="40.0" y2="156.1" opacity="1.0" stroke="rgb(0,0,0)" stroke-width="2.0"/>
<line x1="47.2" y1="123.4" x2="47.2" y2="150.1" opacity="1.0" stroke="rgb(0,0,0)" stroke-width="2.0"/>
<line x1="174.1" y1="272.3" x2="174.1" y2="233.5" opacity="1.0" stroke="rgb(0,0,0)" stroke-width="2.0"/>
<line x1="166.9" y1="266.3" x2="166.9" y2="239.5" opacity="1.0" stroke="rgb(0,0,0)" stroke-width="2.0"/>
<line x1="174.1" y1="233.5" x2="140.6" y2="214.2" opacity="1.0" stroke="rgb(0,0,0)" stroke-width="2.0"/>
<line x1="140.6" y1="214.2" x2="107.0" y2="233.5" opacity="1.0" stroke="rgb(0,0,0)" stroke-width="2.0"/>
<line x1="139.0" y1="223.4" x2="115.8" y2="236.8" opacity="1.0" stroke="rgb(0,0,0)" stroke-width="2.0"/>
<line x1="107.0" y1="233.5" x2="107.0" y2="272.3" opacity="1.0" stroke="rgb(0,0,0)" stroke-width="2.0"/>
<line x1="107.0" y1="272.3" x2="140.6" y2="291.6" opacity="1.0" stroke="rgb(0,0,0)" stroke-width="2.0"/>
<line x1="115.8" y1="269.0" x2="139.0" y2="282.4" opacity="1.0" stroke="rgb(0,0,0)" stroke-width="2.0"/>
<line x1="140.6" y1="291.6" x2="174.1" y2="272.3" opacity="1.0" stroke="rgb(0,0,0)" stroke-width="2.0"/>
<line x1="207.6" y1="98.1" x2="241.1" y2="78.7" opacity="1.0" stroke="rgb(0,0,0)" stroke-width="2.0"/>
<line x1="241.1" y1="78.7" x2="274.7" y2="98.1" opacity="1.0" stroke="rgb(0,0,0)" stroke-width="2.0"/>
<line x1="242.7" y1="87.9" x2="265.9" y2="101.3" opacity="1.0" stroke="rgb(0,0,0)" stroke-width="2.0"/>
<line x1="274.7" y1="98.1" x2="274.7" y2="136.8" opacity="1.0" stroke="rgb(0,0,0)" stroke-width="2.0"/>
<line x1="274.7" y1="136.8" x2="241.1" y2="156.1" opacity="1.0" stroke="rgb(0,0,0)" stroke-width="2.0"/>
<line x1="265.9" y1="133.5" x2="242.7" y2="146.9" opacity="1.0" stroke="rgb(0,0,0)" stroke-width="2.0"/>
<line x1="241.1" y1="156.1" x2="207.6" y2="136.8" opacity="1.0" stroke="rgb(0,0,0)" stroke-width="2.0"/>
<line x1="207.6" y1="136.8" x2="207.6" y2="98.1" opacity="1.0" stroke="rgb(0,0,0)" stroke-width="2.0"/>
<line x1="214.8" y1="130.8" x2="214.8" y2="104.1" opacity="1.0" stroke="rgb(0,0,0)" stroke-width="2.0"/>
<line x1="140.6" y1="214.2" x2="140.6" y2="188.5" opacity="1.0" stroke="rgb(0,0,0)" stroke-width="2.0"/>
<line x1="129.3" y1="169.0" x2="107.0" y2="156.1" opacity="1.0" stroke="rgb(0,0,0)" stroke-width="2.0"/>
<line x1="73.5" y1="175.5" x2="73.5" y2="201.2" opacity="1.0" stroke="rgb(0,0,0)" stroke-width="2.0"/>
<line x1="84.8" y1="220.7" x2="107.0" y2="233.5" opacity="1.0" stroke="rgb(0,0,0)" stroke-width="2.0"/>
<text x="67.523564" y="222.193548" fill="rgb(255,12,12)" stroke-width="0" font-weight="bold" font-size="16">O</text>
<text x="363.453392" y="177.151284" fill="rgb(178,178,0)" stroke-width="0" font-weight="bold" font-size="16">S</text>
<text x="235.141384" y="48.000000" fill="rgb(127,178,255)" stroke-width="0" font-weight="bold" font-size="16">F</text>
<text x="134.570692" y="183.483871" fill="rgb(12,12,255)" stroke-width="0" font-weight="bold" font-size="16">N</text>
</svg>
</g>
</svg>
