<svg xmlns="http://www.w3.org/2000/svg" x="0" y="0" viewBox="0 0 100 100">
<title>I_10_K - Open Babel Depiction</title>
<rect x="0" y="0" width="100" height="100" fill="white"/>
<g transform="translate(0,0)">
<svg width="100" height="100" x="0" y="0" viewBox="0 0 483.815 332.571" font-family="sans-serif" stroke="rgb(0,0,0)" stroke-width="2" stroke-linecap="round">
<line x1="241.9" y1="78.9" x2="241.9" y2="53.0" opacity="1.0" stroke="rgb(0,0,0)" stroke-width="2.0"/>
<line x1="152.2" y1="169.5" x2="208.3" y2="137.1" opacity="1.0" stroke="rgb(0,0,0)" stroke-width="2.0"/>
<line x1="413.2" y1="227.9" x2="413.2" y2="240.7" opacity="1.0" stroke="rgb(0,0,0)" stroke-width="2.0"/>
<line x1="407.2" y1="227.9" x2="407.2" y2="240.7" opacity="1.0" stroke="rgb(0,0,0)" stroke-width="2.0"/>
<line x1="421.4" y1="208.4" x2="432.6" y2="201.9" opacity="1.0" stroke="rgb(0,0,0)" stroke-width="2.0"/>
<line x1="376.5" y1="195.4" x2="398.9" y2="208.4" opacity="1.0" stroke="rgb(0,0,0)" stroke-width="2.0"/>
<line x1="275.6" y1="137.1" x2="309.2" y2="156.6" opacity="1.0" stroke="rgb(0,0,0)" stroke-width="2.0"/>
<line x1="107.3" y1="273.1" x2="107.3" y2="234.3" opacity="1.0" stroke="rgb(0,0,0)" stroke-width="2.0"/>
<line x1="107.3" y1="234.3" x2="141.0" y2="214.9" opacity="1.0" stroke="rgb(0,0,0)" stroke-width="2.0"/>
<line x1="116.1" y1="237.5" x2="139.4" y2="224.1" opacity="1.0" stroke="rgb(0,0,0)" stroke-width="2.0"/>
<line x1="141.0" y1="214.9" x2="174.6" y2="234.3" opacity="1.0" stroke="rgb(0,0,0)" stroke-width="2.0"/>
<line x1="174.6" y1="234.3" x2="174.6" y2="273.1" opacity="1.0" stroke="rgb(0,0,0)" stroke-width="2.0"/>
<line x1="167.4" y1="240.3" x2="167.4" y2="267.1" opacity="1.0" stroke="rgb(0,0,0)" stroke-width="2.0"/>
<line x1="174.6" y1="273.1" x2="141.0" y2="292.6" opacity="1.0" stroke="rgb(0,0,0)" stroke-width="2.0"/>
<line x1="141.0" y1="292.6" x2="107.3" y2="273.1" opacity="1.0" stroke="rgb(0,0,0)" stroke-width="2.0"/>
<line x1="139.4" y1="283.3" x2="116.1" y2="269.9" opacity="1.0" stroke="rgb(0,0,0)" stroke-width="2.0"/>
<line x1="73.7" y1="98.3" x2="107.3" y2="117.7" opacity="1.0" stroke="rgb(0,0,0)" stroke-width="2.0"/>
<line x1="75.2" y1="107.5" x2="98.5" y2="120.9" opacity="1.0" stroke="rgb(0,0,0)" stroke-width="2.0"/>
<line x1="107.3" y1="117.7" x2="107.3" y2="156.6" opacity="1.0" stroke="rgb(0,0,0)" stroke-width="2.0"/>
<line x1="107.3" y1="156.6" x2="73.7" y2="176.0" opacity="1.0" stroke="rgb(0,0,0)" stroke-width="2.0"/>
<line x1="98.5" y1="153.3" x2="75.2" y2="166.8" opacity="1.0" stroke="rgb(0,0,0)" stroke-width="2.0"/>
<line x1="73.7" y1="176.0" x2="40.0" y2="156.6" opacity="1.0" stroke="rgb(0,0,0)" stroke-width="2.0"/>
<line x1="40.0" y1="156.6" x2="40.0" y2="117.7" opacity="1.0" stroke="rgb(0,0,0)" stroke-width="2.0"/>
<line x1="47.2" y1="150.6" x2="47.2" y2="123.7" opacity="1.0" stroke="rgb(0,0,0)" stroke-width="2.0"/>
<line x1="40.0" y1="117.7" x2="73.7" y2="98.3" opacity="1.0" stroke="rgb(0,0,0)" stroke-width="2.0"/>
<line x1="208.3" y1="98.3" x2="241.9" y2="78.9" opacity="1.0" stroke="rgb(0,0,0)" stroke-width="2.0"/>
<line x1="241.9" y1="78.9" x2="275.6" y2="98.3" opacity="1.0" stroke="rgb(0,0,0)" stroke-width="2.0"/>
<line x1="243.5" y1="88.1" x2="266.8" y2="101.5" opacity="1.0" stroke="rgb(0,0,0)" stroke-width="2.0"/>
<line x1="275.6" y1="98.3" x2="275.6" y2="137.1" opacity="1.0" stroke="rgb(0,0,0)" stroke-width="2.0"/>
<line x1="275.6" y1="137.1" x2="241.9" y2="156.6" opacity="1.0" stroke="rgb(0,0,0)" stroke-width="2.0"/>
<line x1="266.8" y1="133.9" x2="243.5" y2="147.3" opacity="1.0" stroke="rgb(0,0,0)" stroke-width="2.0"/>
<line x1="241.9" y1="156.6" x2="208.3" y2="137.1" opacity="1.0" stroke="rgb(0,0,0)" stroke-width="2.0"/>
<line x1="208.3" y1="137.1" x2="208.3" y2="98.3" opacity="1.0" stroke="rgb(0,0,0)" stroke-width="2.0"/>
<line x1="215.5" y1="131.1" x2="215.5" y2="104.3" opacity="1.0" stroke="rgb(0,0,0)" stroke-width="2.0"/>
<line x1="342.9" y1="137.1" x2="376.5" y2="156.6" opacity="1.0" stroke="rgb(0,0,0)" stroke-width="2.0"/>
<line x1="376.5" y1="156.6" x2="376.5" y2="195.4" opacity="1.0" stroke="rgb(0,0,0)" stroke-width="2.0"/>
<line x1="369.3" y1="162.6" x2="369.3" y2="189.4" opacity="1.0" stroke="rgb(0,0,0)" stroke-width="2.0"/>
<line x1="376.5" y1="195.4" x2="342.9" y2="214.9" opacity="1.0" stroke="rgb(0,0,0)" stroke-width="2.0"/>
<line x1="342.9" y1="214.9" x2="309.2" y2="195.4" opacity="1.0" stroke="rgb(0,0,0)" stroke-width="2.0"/>
<line x1="341.3" y1="205.6" x2="318.0" y2="192.2" opacity="1.0" stroke="rgb(0,0,0)" stroke-width="2.0"/>
<line x1="309.2" y1="195.4" x2="309.2" y2="156.6" opacity="1.0" stroke="rgb(0,0,0)" stroke-width="2.0"/>
<line x1="309.2" y1="156.6" x2="342.9" y2="137.1" opacity="1.0" stroke="rgb(0,0,0)" stroke-width="2.0"/>
<line x1="318.0" y1="159.8" x2="341.3" y2="146.4" opacity="1.0" stroke="rgb(0,0,0)" stroke-width="2.0"/>
<line x1="107.3" y1="156.6" x2="129.7" y2="169.5" opacity="1.0" stroke="rgb(0,0,0)" stroke-width="2.0"/>
<line x1="141.0" y1="189.0" x2="141.0" y2="214.9" opacity="1.0" stroke="rgb(0,0,0)" stroke-width="2.0"/>
<line x1="107.3" y1="234.3" x2="84.9" y2="221.4" opacity="1.0" stroke="rgb(0,0,0)" stroke-width="2.0"/>
<line x1="73.7" y1="201.9" x2="73.7" y2="176.0" opacity="1.0" stroke="rgb(0,0,0)" stroke-width="2.0"/>
<text x="448.615274" y="191.396571" fill="rgb(255,12,12)" stroke-width="0" font-weight="bold" font-size="16"/>
<text x="448.615274" y="191.396571" fill="rgb(255,12,12)" stroke-width="0" font-weight="bold" font-size="32">.</text>
<text x="437.815274" y="203.428571" fill="rgb(255,12,12)" stroke-width="0" font-weight="bold" font-size="16">O</text>
<text x="404.164001" y="261.714286" fill="rgb(255,12,12)" stroke-width="0" font-weight="bold" font-size="16">O</text>
<text x="404.164001" y="222.857143" fill="rgb(12,12,255)" stroke-width="0" font-weight="bold" font-size="16">N</text>
<text x="235.907637" y="48.000000" fill="rgb(127,178,255)" stroke-width="0" font-weight="bold" font-size="16">F</text>
<text x="67.651273" y="222.857143" fill="rgb(255,12,12)" stroke-width="0" font-weight="bold" font-size="16">O</text>
<text x="134.953818" y="184.000000" fill="rgb(12,12,255)" stroke-width="0" font-weight="bold" font-size="16">N</text>
</svg>
</g>
</svg>
