<svg xmlns="http://www.w3.org/2000/svg" xmlns:xlink="http://www.w3.org/1999/xlink" xmlns:cml="http://www.xml-cml.org/schema" version="1.1" id="topsvg" x="0" y="0" viewBox="0 0 100 100">
<title>I_1_M - Open Babel Depiction</title>
<rect x="0" y="0" width="100" height="100" fill="white"/>
<g transform="translate(0,0)">
<svg width="100" height="100" x="0" y="0" viewBox="0 0 483.095 370.909" font-family="sans-serif" stroke="rgb(0,0,0)" stroke-width="2" stroke-linecap="round">
<line x1="152.0" y1="208.0" x2="208.0" y2="175.8" opacity="1.0" stroke="rgb(0,0,0)" stroke-width="2.0"/>
<line x1="409.5" y1="59.4" x2="431.8" y2="46.5" opacity="1.0" stroke="rgb(0,0,0)" stroke-width="2.0"/>
<line x1="407.4" y1="55.8" x2="429.7" y2="42.9" opacity="1.0" stroke="rgb(0,0,0)" stroke-width="2.0"/>
<line x1="411.6" y1="63.0" x2="433.9" y2="50.1" opacity="1.0" stroke="rgb(0,0,0)" stroke-width="2.0"/>
<line x1="375.9" y1="78.8" x2="409.5" y2="59.4" opacity="1.0" stroke="rgb(0,0,0)" stroke-width="2.0"/>
<line x1="275.1" y1="137.0" x2="308.7" y2="117.6" opacity="1.0" stroke="rgb(0,0,0)" stroke-width="2.0"/>
<line x1="107.2" y1="311.5" x2="107.2" y2="272.7" opacity="1.0" stroke="rgb(0,0,0)" stroke-width="2.0"/>
<line x1="107.2" y1="272.7" x2="140.8" y2="253.3" opacity="1.0" stroke="rgb(0,0,0)" stroke-width="2.0"/>
<line x1="116.0" y1="276.0" x2="139.2" y2="262.6" opacity="1.0" stroke="rgb(0,0,0)" stroke-width="2.0"/>
<line x1="140.8" y1="253.3" x2="174.4" y2="272.7" opacity="1.0" stroke="rgb(0,0,0)" stroke-width="2.0"/>
<line x1="174.4" y1="272.7" x2="174.4" y2="311.5" opacity="1.0" stroke="rgb(0,0,0)" stroke-width="2.0"/>
<line x1="167.2" y1="278.7" x2="167.2" y2="305.5" opacity="1.0" stroke="rgb(0,0,0)" stroke-width="2.0"/>
<line x1="174.4" y1="311.5" x2="140.8" y2="330.9" opacity="1.0" stroke="rgb(0,0,0)" stroke-width="2.0"/>
<line x1="140.8" y1="330.9" x2="107.2" y2="311.5" opacity="1.0" stroke="rgb(0,0,0)" stroke-width="2.0"/>
<line x1="139.2" y1="321.7" x2="116.0" y2="308.3" opacity="1.0" stroke="rgb(0,0,0)" stroke-width="2.0"/>
<line x1="73.6" y1="137.0" x2="107.2" y2="156.4" opacity="1.0" stroke="rgb(0,0,0)" stroke-width="2.0"/>
<line x1="75.2" y1="146.2" x2="98.4" y2="159.6" opacity="1.0" stroke="rgb(0,0,0)" stroke-width="2.0"/>
<line x1="107.2" y1="156.4" x2="107.2" y2="195.2" opacity="1.0" stroke="rgb(0,0,0)" stroke-width="2.0"/>
<line x1="107.2" y1="195.2" x2="73.6" y2="214.5" opacity="1.0" stroke="rgb(0,0,0)" stroke-width="2.0"/>
<line x1="98.4" y1="191.9" x2="75.2" y2="205.3" opacity="1.0" stroke="rgb(0,0,0)" stroke-width="2.0"/>
<line x1="73.6" y1="214.5" x2="40.0" y2="195.2" opacity="1.0" stroke="rgb(0,0,0)" stroke-width="2.0"/>
<line x1="40.0" y1="195.2" x2="40.0" y2="156.4" opacity="1.0" stroke="rgb(0,0,0)" stroke-width="2.0"/>
<line x1="47.2" y1="189.2" x2="47.2" y2="162.4" opacity="1.0" stroke="rgb(0,0,0)" stroke-width="2.0"/>
<line x1="40.0" y1="156.4" x2="73.6" y2="137.0" opacity="1.0" stroke="rgb(0,0,0)" stroke-width="2.0"/>
<line x1="208.0" y1="137.0" x2="241.5" y2="117.6" opacity="1.0" stroke="rgb(0,0,0)" stroke-width="2.0"/>
<line x1="241.5" y1="117.6" x2="275.1" y2="137.0" opacity="1.0" stroke="rgb(0,0,0)" stroke-width="2.0"/>
<line x1="243.1" y1="126.8" x2="266.3" y2="140.2" opacity="1.0" stroke="rgb(0,0,0)" stroke-width="2.0"/>
<line x1="275.1" y1="137.0" x2="275.1" y2="175.8" opacity="1.0" stroke="rgb(0,0,0)" stroke-width="2.0"/>
<line x1="275.1" y1="175.8" x2="241.5" y2="195.2" opacity="1.0" stroke="rgb(0,0,0)" stroke-width="2.0"/>
<line x1="266.3" y1="172.5" x2="243.1" y2="185.9" opacity="1.0" stroke="rgb(0,0,0)" stroke-width="2.0"/>
<line x1="241.5" y1="195.2" x2="208.0" y2="175.8" opacity="1.0" stroke="rgb(0,0,0)" stroke-width="2.0"/>
<line x1="208.0" y1="175.8" x2="208.0" y2="137.0" opacity="1.0" stroke="rgb(0,0,0)" stroke-width="2.0"/>
<line x1="215.2" y1="169.8" x2="215.2" y2="143.0" opacity="1.0" stroke="rgb(0,0,0)" stroke-width="2.0"/>
<line x1="308.7" y1="78.8" x2="342.3" y2="59.4" opacity="1.0" stroke="rgb(0,0,0)" stroke-width="2.0"/>
<line x1="342.3" y1="59.4" x2="375.9" y2="78.8" opacity="1.0" stroke="rgb(0,0,0)" stroke-width="2.0"/>
<line x1="343.9" y1="68.6" x2="367.1" y2="82.0" opacity="1.0" stroke="rgb(0,0,0)" stroke-width="2.0"/>
<line x1="375.9" y1="78.8" x2="375.9" y2="117.6" opacity="1.0" stroke="rgb(0,0,0)" stroke-width="2.0"/>
<line x1="375.9" y1="117.6" x2="342.3" y2="137.0" opacity="1.0" stroke="rgb(0,0,0)" stroke-width="2.0"/>
<line x1="367.1" y1="114.3" x2="343.9" y2="127.7" opacity="1.0" stroke="rgb(0,0,0)" stroke-width="2.0"/>
<line x1="342.3" y1="137.0" x2="308.7" y2="117.6" opacity="1.0" stroke="rgb(0,0,0)" stroke-width="2.0"/>
<line x1="308.7" y1="117.6" x2="308.7" y2="78.8" opacity="1.0" stroke="rgb(0,0,0)" stroke-width="2.0"/>
<line x1="315.9" y1="111.6" x2="315.9" y2="84.8" opacity="1.0" stroke="rgb(0,0,0)" stroke-width="2.0"/>
<line x1="107.2" y1="195.2" x2="129.5" y2="208.0" opacity="1.0" stroke="rgb(0,0,0)" stroke-width="2.0"/>
<line x1="140.8" y1="227.5" x2="140.8" y2="253.3" opacity="1.0" stroke="rgb(0,0,0)" stroke-width="2.0"/>
<line x1="107.2" y1="272.7" x2="84.8" y2="259.8" opacity="1.0" stroke="rgb(0,0,0)" stroke-width="2.0"/>
<line x1="73.6" y1="240.3" x2="73.6" y2="214.5" opacity="1.0" stroke="rgb(0,0,0)" stroke-width="2.0"/>
<text x="437.095461" y="48.000000" fill="rgb(12,12,255)" stroke-width="0" font-weight="bold" font-size="16">N</text>
<text x="67.591288" y="261.333333" fill="rgb(255,12,12)" stroke-width="0" font-weight="bold" font-size="16">O</text>
<text x="134.773865" y="222.545455" fill="rgb(12,12,255)" stroke-width="0" font-weight="bold" font-size="16">N</text>
</svg>
</g>
</svg>