<svg xmlns="http://www.w3.org/2000/svg" xmlns:xlink="http://www.w3.org/1999/xlink" xmlns:cml="http://www.xml-cml.org/schema" version="1.1" id="topsvg" x="0" y="0" viewBox="0 0 100 100">
<title>I_2_P - Open Babel Depiction</title>
<rect x="0" y="0" width="100" height="100" fill="white"/>
<g transform="translate(0,0)">
<svg width="100" height="100" x="0" y="0" viewBox="0 0 365.046 317.714" font-family="sans-serif" stroke="rgb(0,0,0)" stroke-width="2" stroke-linecap="round">
<line x1="146.3" y1="161.5" x2="261.7" y2="94.9" opacity="1.0" stroke="rgb(0,0,0)" stroke-width="2.0"/>
<line x1="282.1" y1="265.9" x2="273.0" y2="271.2" opacity="1.0" stroke="rgb(0,0,0)" stroke-width="2.0"/>
<line x1="293.4" y1="222.9" x2="293.4" y2="246.4" opacity="1.0" stroke="rgb(0,0,0)" stroke-width="2.0"/>
<line x1="293.4" y1="113.1" x2="293.4" y2="149.7" opacity="1.0" stroke="rgb(0,0,0)" stroke-width="2.0"/>
<line x1="103.3" y1="259.4" x2="103.3" y2="222.9" opacity="1.0" stroke="rgb(0,0,0)" stroke-width="2.0"/>
<line x1="103.3" y1="222.9" x2="135.0" y2="204.6" opacity="1.0" stroke="rgb(0,0,0)" stroke-width="2.0"/>
<line x1="112.1" y1="226.1" x2="133.4" y2="213.8" opacity="1.0" stroke="rgb(0,0,0)" stroke-width="2.0"/>
<line x1="135.0" y1="204.6" x2="166.7" y2="222.9" opacity="1.0" stroke="rgb(0,0,0)" stroke-width="2.0"/>
<line x1="166.7" y1="222.9" x2="166.7" y2="259.4" opacity="1.0" stroke="rgb(0,0,0)" stroke-width="2.0"/>
<line x1="159.5" y1="228.9" x2="159.5" y2="253.4" opacity="1.0" stroke="rgb(0,0,0)" stroke-width="2.0"/>
<line x1="166.7" y1="259.4" x2="135.0" y2="277.7" opacity="1.0" stroke="rgb(0,0,0)" stroke-width="2.0"/>
<line x1="135.0" y1="277.7" x2="103.3" y2="259.4" opacity="1.0" stroke="rgb(0,0,0)" stroke-width="2.0"/>
<line x1="133.4" y1="268.5" x2="112.1" y2="256.2" opacity="1.0" stroke="rgb(0,0,0)" stroke-width="2.0"/>
<line x1="71.7" y1="94.9" x2="103.3" y2="113.1" opacity="1.0" stroke="rgb(0,0,0)" stroke-width="2.0"/>
<line x1="73.3" y1="104.1" x2="94.5" y2="116.4" opacity="1.0" stroke="rgb(0,0,0)" stroke-width="2.0"/>
<line x1="103.3" y1="113.1" x2="103.3" y2="149.7" opacity="1.0" stroke="rgb(0,0,0)" stroke-width="2.0"/>
<line x1="103.3" y1="149.7" x2="71.7" y2="168.0" opacity="1.0" stroke="rgb(0,0,0)" stroke-width="2.0"/>
<line x1="94.5" y1="146.5" x2="73.3" y2="158.8" opacity="1.0" stroke="rgb(0,0,0)" stroke-width="2.0"/>
<line x1="71.7" y1="168.0" x2="40.0" y2="149.7" opacity="1.0" stroke="rgb(0,0,0)" stroke-width="2.0"/>
<line x1="40.0" y1="149.7" x2="40.0" y2="113.1" opacity="1.0" stroke="rgb(0,0,0)" stroke-width="2.0"/>
<line x1="47.2" y1="143.7" x2="47.2" y2="119.1" opacity="1.0" stroke="rgb(0,0,0)" stroke-width="2.0"/>
<line x1="40.0" y1="113.1" x2="71.7" y2="94.9" opacity="1.0" stroke="rgb(0,0,0)" stroke-width="2.0"/>
<line x1="261.7" y1="58.3" x2="293.4" y2="40.0" opacity="1.0" stroke="rgb(0,0,0)" stroke-width="2.0"/>
<line x1="293.4" y1="40.0" x2="325.0" y2="58.3" opacity="1.0" stroke="rgb(0,0,0)" stroke-width="2.0"/>
<line x1="295.0" y1="49.2" x2="316.2" y2="61.5" opacity="1.0" stroke="rgb(0,0,0)" stroke-width="2.0"/>
<line x1="325.0" y1="58.3" x2="325.0" y2="94.9" opacity="1.0" stroke="rgb(0,0,0)" stroke-width="2.0"/>
<line x1="325.0" y1="94.9" x2="293.4" y2="113.1" opacity="1.0" stroke="rgb(0,0,0)" stroke-width="2.0"/>
<line x1="316.2" y1="91.6" x2="295.0" y2="103.9" opacity="1.0" stroke="rgb(0,0,0)" stroke-width="2.0"/>
<line x1="293.4" y1="113.1" x2="261.7" y2="94.9" opacity="1.0" stroke="rgb(0,0,0)" stroke-width="2.0"/>
<line x1="261.7" y1="94.9" x2="261.7" y2="58.3" opacity="1.0" stroke="rgb(0,0,0)" stroke-width="2.0"/>
<line x1="268.9" y1="88.9" x2="268.9" y2="64.3" opacity="1.0" stroke="rgb(0,0,0)" stroke-width="2.0"/>
<line x1="325.0" y1="168.0" x2="325.0" y2="204.6" opacity="1.0" stroke="rgb(0,0,0)" stroke-width="2.0"/>
<line x1="325.0" y1="204.6" x2="293.4" y2="222.9" opacity="1.0" stroke="rgb(0,0,0)" stroke-width="2.0"/>
<line x1="316.2" y1="201.3" x2="295.0" y2="213.6" opacity="1.0" stroke="rgb(0,0,0)" stroke-width="2.0"/>
<line x1="293.4" y1="222.9" x2="261.7" y2="204.6" opacity="1.0" stroke="rgb(0,0,0)" stroke-width="2.0"/>
<line x1="261.7" y1="204.6" x2="261.7" y2="168.0" opacity="1.0" stroke="rgb(0,0,0)" stroke-width="2.0"/>
<line x1="268.9" y1="198.6" x2="268.9" y2="174.0" opacity="1.0" stroke="rgb(0,0,0)" stroke-width="2.0"/>
<line x1="261.7" y1="168.0" x2="293.4" y2="149.7" opacity="1.0" stroke="rgb(0,0,0)" stroke-width="2.0"/>
<line x1="293.4" y1="149.7" x2="325.0" y2="168.0" opacity="1.0" stroke="rgb(0,0,0)" stroke-width="2.0"/>
<line x1="295.0" y1="158.9" x2="316.2" y2="171.2" opacity="1.0" stroke="rgb(0,0,0)" stroke-width="2.0"/>
<line x1="103.3" y1="149.7" x2="123.8" y2="161.5" opacity="1.0" stroke="rgb(0,0,0)" stroke-width="2.0"/>
<line x1="135.0" y1="181.0" x2="135.0" y2="204.6" opacity="1.0" stroke="rgb(0,0,0)" stroke-width="2.0"/>
<line x1="103.3" y1="222.9" x2="82.9" y2="211.1" opacity="1.0" stroke="rgb(0,0,0)" stroke-width="2.0"/>
<line x1="71.7" y1="191.6" x2="71.7" y2="168.0" opacity="1.0" stroke="rgb(0,0,0)" stroke-width="2.0"/>
<text x="235.702503" y="285.714286" fill="rgb(102,102,102)" stroke-width="0" font-weight="bold" font-size="16">H</text>
<text x="247.702503" y="289.394286" fill="rgb(102,102,102)" stroke-width="0" font-weight="bold" font-size="13">3</text>
<text x="254.202503" y="285.714286" fill="rgb(102,102,102)" stroke-width="0" font-weight="bold" font-size="16">C</text>
<text x="287.374290" y="267.428571" fill="rgb(255,12,12)" stroke-width="0" font-weight="bold" font-size="16">O</text>
<text x="65.671786" y="212.571429" fill="rgb(255,12,12)" stroke-width="0" font-weight="bold" font-size="16">O</text>
<text x="129.015359" y="176.000000" fill="rgb(12,12,255)" stroke-width="0" font-weight="bold" font-size="16">N</text>
</svg>
</g>
</svg>