<svg xmlns="http://www.w3.org/2000/svg" xmlns:xlink="http://www.w3.org/1999/xlink" xmlns:cml="http://www.xml-cml.org/schema" version="1.1" id="topsvg" x="0" y="0" viewBox="0 0 100 100">
<title>I_2_K - Open Babel Depiction</title>
<rect x="0" y="0" width="100" height="100" fill="white"/>
<g transform="translate(0,0)">
<svg width="100" height="100" x="0" y="0" viewBox="0 0 365.788 318.333" font-family="sans-serif" stroke="rgb(0,0,0)" stroke-width="2" stroke-linecap="round">
<line x1="146.5" y1="161.8" x2="262.3" y2="95.0" opacity="1.0" stroke="rgb(0,0,0)" stroke-width="2.0"/>
<line x1="284.3" y1="269.1" x2="275.0" y2="274.4" opacity="1.0" stroke="rgb(0,0,0)" stroke-width="2.0"/>
<line x1="281.3" y1="263.9" x2="272.0" y2="269.2" opacity="1.0" stroke="rgb(0,0,0)" stroke-width="2.0"/>
<line x1="305.3" y1="266.5" x2="314.5" y2="271.8" opacity="1.0" stroke="rgb(0,0,0)" stroke-width="2.0"/>
<line x1="294.0" y1="223.3" x2="294.0" y2="247.0" opacity="1.0" stroke="rgb(0,0,0)" stroke-width="2.0"/>
<line x1="294.0" y1="113.3" x2="294.0" y2="150.0" opacity="1.0" stroke="rgb(0,0,0)" stroke-width="2.0"/>
<line x1="103.5" y1="260.0" x2="103.5" y2="223.3" opacity="1.0" stroke="rgb(0,0,0)" stroke-width="2.0"/>
<line x1="103.5" y1="223.3" x2="135.3" y2="205.0" opacity="1.0" stroke="rgb(0,0,0)" stroke-width="2.0"/>
<line x1="112.3" y1="226.6" x2="133.7" y2="214.2" opacity="1.0" stroke="rgb(0,0,0)" stroke-width="2.0"/>
<line x1="135.3" y1="205.0" x2="167.0" y2="223.3" opacity="1.0" stroke="rgb(0,0,0)" stroke-width="2.0"/>
<line x1="167.0" y1="223.3" x2="167.0" y2="260.0" opacity="1.0" stroke="rgb(0,0,0)" stroke-width="2.0"/>
<line x1="159.8" y1="229.3" x2="159.8" y2="254.0" opacity="1.0" stroke="rgb(0,0,0)" stroke-width="2.0"/>
<line x1="167.0" y1="260.0" x2="135.3" y2="278.3" opacity="1.0" stroke="rgb(0,0,0)" stroke-width="2.0"/>
<line x1="135.3" y1="278.3" x2="103.5" y2="260.0" opacity="1.0" stroke="rgb(0,0,0)" stroke-width="2.0"/>
<line x1="133.7" y1="269.1" x2="112.3" y2="256.8" opacity="1.0" stroke="rgb(0,0,0)" stroke-width="2.0"/>
<line x1="71.8" y1="95.0" x2="103.5" y2="113.3" opacity="1.0" stroke="rgb(0,0,0)" stroke-width="2.0"/>
<line x1="73.4" y1="104.2" x2="94.7" y2="116.6" opacity="1.0" stroke="rgb(0,0,0)" stroke-width="2.0"/>
<line x1="103.5" y1="113.3" x2="103.5" y2="150.0" opacity="1.0" stroke="rgb(0,0,0)" stroke-width="2.0"/>
<line x1="103.5" y1="150.0" x2="71.8" y2="168.3" opacity="1.0" stroke="rgb(0,0,0)" stroke-width="2.0"/>
<line x1="94.7" y1="146.8" x2="73.4" y2="159.1" opacity="1.0" stroke="rgb(0,0,0)" stroke-width="2.0"/>
<line x1="71.8" y1="168.3" x2="40.0" y2="150.0" opacity="1.0" stroke="rgb(0,0,0)" stroke-width="2.0"/>
<line x1="40.0" y1="150.0" x2="40.0" y2="113.3" opacity="1.0" stroke="rgb(0,0,0)" stroke-width="2.0"/>
<line x1="47.2" y1="144.0" x2="47.2" y2="119.3" opacity="1.0" stroke="rgb(0,0,0)" stroke-width="2.0"/>
<line x1="40.0" y1="113.3" x2="71.8" y2="95.0" opacity="1.0" stroke="rgb(0,0,0)" stroke-width="2.0"/>
<line x1="262.3" y1="58.3" x2="294.0" y2="40.0" opacity="1.0" stroke="rgb(0,0,0)" stroke-width="2.0"/>
<line x1="294.0" y1="40.0" x2="325.8" y2="58.3" opacity="1.0" stroke="rgb(0,0,0)" stroke-width="2.0"/>
<line x1="295.6" y1="49.2" x2="317.0" y2="61.6" opacity="1.0" stroke="rgb(0,0,0)" stroke-width="2.0"/>
<line x1="325.8" y1="58.3" x2="325.8" y2="95.0" opacity="1.0" stroke="rgb(0,0,0)" stroke-width="2.0"/>
<line x1="325.8" y1="95.0" x2="294.0" y2="113.3" opacity="1.0" stroke="rgb(0,0,0)" stroke-width="2.0"/>
<line x1="317.0" y1="91.8" x2="295.6" y2="104.1" opacity="1.0" stroke="rgb(0,0,0)" stroke-width="2.0"/>
<line x1="294.0" y1="113.3" x2="262.3" y2="95.0" opacity="1.0" stroke="rgb(0,0,0)" stroke-width="2.0"/>
<line x1="262.3" y1="95.0" x2="262.3" y2="58.3" opacity="1.0" stroke="rgb(0,0,0)" stroke-width="2.0"/>
<line x1="269.5" y1="89.0" x2="269.5" y2="64.3" opacity="1.0" stroke="rgb(0,0,0)" stroke-width="2.0"/>
<line x1="325.8" y1="168.3" x2="325.8" y2="205.0" opacity="1.0" stroke="rgb(0,0,0)" stroke-width="2.0"/>
<line x1="325.8" y1="205.0" x2="294.0" y2="223.3" opacity="1.0" stroke="rgb(0,0,0)" stroke-width="2.0"/>
<line x1="317.0" y1="201.8" x2="295.6" y2="214.1" opacity="1.0" stroke="rgb(0,0,0)" stroke-width="2.0"/>
<line x1="294.0" y1="223.3" x2="262.3" y2="205.0" opacity="1.0" stroke="rgb(0,0,0)" stroke-width="2.0"/>
<line x1="262.3" y1="205.0" x2="262.3" y2="168.3" opacity="1.0" stroke="rgb(0,0,0)" stroke-width="2.0"/>
<line x1="269.5" y1="199.0" x2="269.5" y2="174.3" opacity="1.0" stroke="rgb(0,0,0)" stroke-width="2.0"/>
<line x1="262.3" y1="168.3" x2="294.0" y2="150.0" opacity="1.0" stroke="rgb(0,0,0)" stroke-width="2.0"/>
<line x1="294.0" y1="150.0" x2="325.8" y2="168.3" opacity="1.0" stroke="rgb(0,0,0)" stroke-width="2.0"/>
<line x1="295.6" y1="159.2" x2="317.0" y2="171.6" opacity="1.0" stroke="rgb(0,0,0)" stroke-width="2.0"/>
<line x1="103.5" y1="150.0" x2="124.0" y2="161.8" opacity="1.0" stroke="rgb(0,0,0)" stroke-width="2.0"/>
<line x1="135.3" y1="181.3" x2="135.3" y2="205.0" opacity="1.0" stroke="rgb(0,0,0)" stroke-width="2.0"/>
<line x1="103.5" y1="223.3" x2="83.0" y2="211.5" opacity="1.0" stroke="rgb(0,0,0)" stroke-width="2.0"/>
<line x1="71.8" y1="192.0" x2="71.8" y2="168.3" opacity="1.0" stroke="rgb(0,0,0)" stroke-width="2.0"/>
<text x="330.588383" y="274.301333" fill="rgb(255,12,12)" stroke-width="0" font-weight="bold" font-size="16"/>
<text x="330.588383" y="274.301333" fill="rgb(255,12,12)" stroke-width="0" font-weight="bold" font-size="32">.</text>
<text x="319.788383" y="286.333333" fill="rgb(255,12,12)" stroke-width="0" font-weight="bold" font-size="16">O</text>
<text x="256.279854" y="286.333333" fill="rgb(255,12,12)" stroke-width="0" font-weight="bold" font-size="16">O</text>
<text x="288.034118" y="268.000000" fill="rgb(12,12,255)" stroke-width="0" font-weight="bold" font-size="16">N</text>
<text x="65.754265" y="213.000000" fill="rgb(255,12,12)" stroke-width="0" font-weight="bold" font-size="16">O</text>
<text x="129.262794" y="176.333333" fill="rgb(12,12,255)" stroke-width="0" font-weight="bold" font-size="16">N</text>
</svg>
</g>
</svg>