<svg xmlns="http://www.w3.org/2000/svg" x="0" y="0" viewBox="0 0 100 100">
<title>I_2_T - Open Babel Depiction</title>
<rect x="0" y="0" width="100" height="100" fill="white"/>
<g transform="translate(0,0)">
<svg width="100" height="100" x="0" y="0" viewBox="0 0 364.26 317.059" font-family="sans-serif" stroke="rgb(0,0,0)" stroke-width="2" stroke-linecap="round">
<line x1="146.0" y1="161.1" x2="261.1" y2="94.7" opacity="1.0" stroke="rgb(0,0,0)" stroke-width="2.0"/>
<line x1="292.7" y1="222.4" x2="292.7" y2="245.8" opacity="1.0" stroke="rgb(0,0,0)" stroke-width="2.0"/>
<line x1="292.7" y1="112.9" x2="292.7" y2="149.4" opacity="1.0" stroke="rgb(0,0,0)" stroke-width="2.0"/>
<line x1="103.2" y1="258.8" x2="103.2" y2="222.4" opacity="1.0" stroke="rgb(0,0,0)" stroke-width="2.0"/>
<line x1="103.2" y1="222.4" x2="134.8" y2="204.1" opacity="1.0" stroke="rgb(0,0,0)" stroke-width="2.0"/>
<line x1="112.0" y1="225.6" x2="133.2" y2="213.4" opacity="1.0" stroke="rgb(0,0,0)" stroke-width="2.0"/>
<line x1="134.8" y1="204.1" x2="166.3" y2="222.4" opacity="1.0" stroke="rgb(0,0,0)" stroke-width="2.0"/>
<line x1="166.3" y1="222.4" x2="166.3" y2="258.8" opacity="1.0" stroke="rgb(0,0,0)" stroke-width="2.0"/>
<line x1="159.1" y1="228.4" x2="159.1" y2="252.8" opacity="1.0" stroke="rgb(0,0,0)" stroke-width="2.0"/>
<line x1="166.3" y1="258.8" x2="134.8" y2="277.1" opacity="1.0" stroke="rgb(0,0,0)" stroke-width="2.0"/>
<line x1="134.8" y1="277.1" x2="103.2" y2="258.8" opacity="1.0" stroke="rgb(0,0,0)" stroke-width="2.0"/>
<line x1="133.2" y1="267.8" x2="112.0" y2="255.6" opacity="1.0" stroke="rgb(0,0,0)" stroke-width="2.0"/>
<line x1="71.6" y1="94.7" x2="103.2" y2="112.9" opacity="1.0" stroke="rgb(0,0,0)" stroke-width="2.0"/>
<line x1="73.2" y1="103.9" x2="94.4" y2="116.2" opacity="1.0" stroke="rgb(0,0,0)" stroke-width="2.0"/>
<line x1="103.2" y1="112.9" x2="103.2" y2="149.4" opacity="1.0" stroke="rgb(0,0,0)" stroke-width="2.0"/>
<line x1="103.2" y1="149.4" x2="71.6" y2="167.6" opacity="1.0" stroke="rgb(0,0,0)" stroke-width="2.0"/>
<line x1="94.4" y1="146.2" x2="73.2" y2="158.4" opacity="1.0" stroke="rgb(0,0,0)" stroke-width="2.0"/>
<line x1="71.6" y1="167.6" x2="40.0" y2="149.4" opacity="1.0" stroke="rgb(0,0,0)" stroke-width="2.0"/>
<line x1="40.0" y1="149.4" x2="40.0" y2="112.9" opacity="1.0" stroke="rgb(0,0,0)" stroke-width="2.0"/>
<line x1="47.2" y1="143.4" x2="47.2" y2="118.9" opacity="1.0" stroke="rgb(0,0,0)" stroke-width="2.0"/>
<line x1="40.0" y1="112.9" x2="71.6" y2="94.7" opacity="1.0" stroke="rgb(0,0,0)" stroke-width="2.0"/>
<line x1="261.1" y1="58.2" x2="292.7" y2="40.0" opacity="1.0" stroke="rgb(0,0,0)" stroke-width="2.0"/>
<line x1="292.7" y1="40.0" x2="324.3" y2="58.2" opacity="1.0" stroke="rgb(0,0,0)" stroke-width="2.0"/>
<line x1="294.3" y1="49.2" x2="315.5" y2="61.5" opacity="1.0" stroke="rgb(0,0,0)" stroke-width="2.0"/>
<line x1="324.3" y1="58.2" x2="324.3" y2="94.7" opacity="1.0" stroke="rgb(0,0,0)" stroke-width="2.0"/>
<line x1="324.3" y1="94.7" x2="292.7" y2="112.9" opacity="1.0" stroke="rgb(0,0,0)" stroke-width="2.0"/>
<line x1="315.5" y1="91.5" x2="294.3" y2="103.7" opacity="1.0" stroke="rgb(0,0,0)" stroke-width="2.0"/>
<line x1="292.7" y1="112.9" x2="261.1" y2="94.7" opacity="1.0" stroke="rgb(0,0,0)" stroke-width="2.0"/>
<line x1="261.1" y1="94.7" x2="261.1" y2="58.2" opacity="1.0" stroke="rgb(0,0,0)" stroke-width="2.0"/>
<line x1="268.3" y1="88.7" x2="268.3" y2="64.2" opacity="1.0" stroke="rgb(0,0,0)" stroke-width="2.0"/>
<line x1="324.3" y1="167.6" x2="324.3" y2="204.1" opacity="1.0" stroke="rgb(0,0,0)" stroke-width="2.0"/>
<line x1="324.3" y1="204.1" x2="292.7" y2="222.4" opacity="1.0" stroke="rgb(0,0,0)" stroke-width="2.0"/>
<line x1="315.5" y1="200.9" x2="294.3" y2="213.1" opacity="1.0" stroke="rgb(0,0,0)" stroke-width="2.0"/>
<line x1="292.7" y1="222.4" x2="261.1" y2="204.1" opacity="1.0" stroke="rgb(0,0,0)" stroke-width="2.0"/>
<line x1="261.1" y1="204.1" x2="261.1" y2="167.6" opacity="1.0" stroke="rgb(0,0,0)" stroke-width="2.0"/>
<line x1="268.3" y1="198.1" x2="268.3" y2="173.6" opacity="1.0" stroke="rgb(0,0,0)" stroke-width="2.0"/>
<line x1="261.1" y1="167.6" x2="292.7" y2="149.4" opacity="1.0" stroke="rgb(0,0,0)" stroke-width="2.0"/>
<line x1="292.7" y1="149.4" x2="324.3" y2="167.6" opacity="1.0" stroke="rgb(0,0,0)" stroke-width="2.0"/>
<line x1="294.3" y1="158.6" x2="315.5" y2="170.9" opacity="1.0" stroke="rgb(0,0,0)" stroke-width="2.0"/>
<line x1="103.2" y1="149.4" x2="123.5" y2="161.1" opacity="1.0" stroke="rgb(0,0,0)" stroke-width="2.0"/>
<line x1="134.8" y1="180.6" x2="134.8" y2="204.1" opacity="1.0" stroke="rgb(0,0,0)" stroke-width="2.0"/>
<line x1="103.2" y1="222.4" x2="82.8" y2="210.6" opacity="1.0" stroke="rgb(0,0,0)" stroke-width="2.0"/>
<line x1="71.6" y1="191.1" x2="71.6" y2="167.6" opacity="1.0" stroke="rgb(0,0,0)" stroke-width="2.0"/>
<text x="65.584456" y="212.117647" fill="rgb(255,12,12)" stroke-width="0" font-weight="bold" font-size="16">O</text>
<text x="288.675647" y="266.823529" fill="rgb(102,102,102)" stroke-width="0" font-weight="bold" font-size="16">CH</text>
<text x="312.675647" y="270.503529" fill="rgb(102,102,102)" stroke-width="0" font-weight="bold" font-size="13">3</text>
<text x="128.753368" y="175.647059" fill="rgb(12,12,255)" stroke-width="0" font-weight="bold" font-size="16">N</text>
</svg>
</g>
</svg>
