<svg xmlns="http://www.w3.org/2000/svg" xmlns:xlink="http://www.w3.org/1999/xlink" xmlns:cml="http://www.xml-cml.org/schema" version="1.1" id="topsvg" x="0" y="0" viewBox="0 0 100 100">
<title>I_2_L - Open Babel Depiction</title>
<rect x="0" y="0" width="100" height="100" fill="white"/>
<g transform="translate(0,0)">
<svg width="100" height="100" x="0" y="0" viewBox="0 0 393.806 318.919" font-family="sans-serif" stroke="rgb(0,0,0)" stroke-width="2" stroke-linecap="round">
<line x1="247.1" y1="162.1" x2="131.0" y2="95.1" opacity="1.0" stroke="rgb(0,0,0)" stroke-width="2.0"/>
<line x1="99.1" y1="113.5" x2="99.1" y2="150.3" opacity="1.0" stroke="rgb(0,0,0)" stroke-width="2.0"/>
<line x1="55.0" y1="263.6" x2="40.0" y2="230.0" opacity="1.0" stroke="rgb(0,0,0)" stroke-width="2.0"/>
<line x1="59.1" y1="255.2" x2="49.0" y2="232.6" opacity="1.0" stroke="rgb(0,0,0)" stroke-width="2.0"/>
<line x1="40.0" y1="230.0" x2="67.3" y2="205.4" opacity="1.0" stroke="rgb(0,0,0)" stroke-width="2.0"/>
<line x1="67.3" y1="205.4" x2="99.1" y2="223.8" opacity="1.0" stroke="rgb(0,0,0)" stroke-width="2.0"/>
<line x1="99.1" y1="223.8" x2="94.2" y2="247.0" opacity="1.0" stroke="rgb(0,0,0)" stroke-width="2.0"/>
<line x1="78.6" y1="261.1" x2="55.0" y2="263.6" opacity="1.0" stroke="rgb(0,0,0)" stroke-width="2.0"/>
<line x1="290.1" y1="260.5" x2="290.1" y2="223.8" opacity="1.0" stroke="rgb(0,0,0)" stroke-width="2.0"/>
<line x1="290.1" y1="223.8" x2="258.3" y2="205.4" opacity="1.0" stroke="rgb(0,0,0)" stroke-width="2.0"/>
<line x1="281.3" y1="227.0" x2="259.9" y2="214.6" opacity="1.0" stroke="rgb(0,0,0)" stroke-width="2.0"/>
<line x1="258.3" y1="205.4" x2="226.5" y2="223.8" opacity="1.0" stroke="rgb(0,0,0)" stroke-width="2.0"/>
<line x1="226.5" y1="223.8" x2="226.5" y2="260.5" opacity="1.0" stroke="rgb(0,0,0)" stroke-width="2.0"/>
<line x1="233.7" y1="229.8" x2="233.7" y2="254.5" opacity="1.0" stroke="rgb(0,0,0)" stroke-width="2.0"/>
<line x1="226.5" y1="260.5" x2="258.3" y2="278.9" opacity="1.0" stroke="rgb(0,0,0)" stroke-width="2.0"/>
<line x1="258.3" y1="278.9" x2="290.1" y2="260.5" opacity="1.0" stroke="rgb(0,0,0)" stroke-width="2.0"/>
<line x1="259.9" y1="269.7" x2="281.3" y2="257.3" opacity="1.0" stroke="rgb(0,0,0)" stroke-width="2.0"/>
<line x1="322.0" y1="95.1" x2="290.1" y2="113.5" opacity="1.0" stroke="rgb(0,0,0)" stroke-width="2.0"/>
<line x1="320.4" y1="104.4" x2="298.9" y2="116.7" opacity="1.0" stroke="rgb(0,0,0)" stroke-width="2.0"/>
<line x1="290.1" y1="113.5" x2="290.1" y2="150.3" opacity="1.0" stroke="rgb(0,0,0)" stroke-width="2.0"/>
<line x1="290.1" y1="150.3" x2="322.0" y2="168.6" opacity="1.0" stroke="rgb(0,0,0)" stroke-width="2.0"/>
<line x1="298.9" y1="147.0" x2="320.4" y2="159.4" opacity="1.0" stroke="rgb(0,0,0)" stroke-width="2.0"/>
<line x1="322.0" y1="168.6" x2="353.8" y2="150.3" opacity="1.0" stroke="rgb(0,0,0)" stroke-width="2.0"/>
<line x1="353.8" y1="150.3" x2="353.8" y2="113.5" opacity="1.0" stroke="rgb(0,0,0)" stroke-width="2.0"/>
<line x1="346.6" y1="144.3" x2="346.6" y2="119.5" opacity="1.0" stroke="rgb(0,0,0)" stroke-width="2.0"/>
<line x1="353.8" y1="113.5" x2="322.0" y2="95.1" opacity="1.0" stroke="rgb(0,0,0)" stroke-width="2.0"/>
<line x1="131.0" y1="58.4" x2="99.1" y2="40.0" opacity="1.0" stroke="rgb(0,0,0)" stroke-width="2.0"/>
<line x1="99.1" y1="40.0" x2="67.3" y2="58.4" opacity="1.0" stroke="rgb(0,0,0)" stroke-width="2.0"/>
<line x1="97.6" y1="49.2" x2="76.1" y2="61.6" opacity="1.0" stroke="rgb(0,0,0)" stroke-width="2.0"/>
<line x1="67.3" y1="58.4" x2="67.3" y2="95.1" opacity="1.0" stroke="rgb(0,0,0)" stroke-width="2.0"/>
<line x1="67.3" y1="95.1" x2="99.1" y2="113.5" opacity="1.0" stroke="rgb(0,0,0)" stroke-width="2.0"/>
<line x1="76.1" y1="91.9" x2="97.6" y2="104.3" opacity="1.0" stroke="rgb(0,0,0)" stroke-width="2.0"/>
<line x1="99.1" y1="113.5" x2="131.0" y2="95.1" opacity="1.0" stroke="rgb(0,0,0)" stroke-width="2.0"/>
<line x1="131.0" y1="95.1" x2="131.0" y2="58.4" opacity="1.0" stroke="rgb(0,0,0)" stroke-width="2.0"/>
<line x1="123.8" y1="89.1" x2="123.8" y2="64.4" opacity="1.0" stroke="rgb(0,0,0)" stroke-width="2.0"/>
<line x1="131.0" y1="168.6" x2="131.0" y2="205.4" opacity="1.0" stroke="rgb(0,0,0)" stroke-width="2.0"/>
<line x1="131.0" y1="205.4" x2="99.1" y2="223.8" opacity="1.0" stroke="rgb(0,0,0)" stroke-width="2.0"/>
<line x1="122.2" y1="202.2" x2="100.7" y2="214.5" opacity="1.0" stroke="rgb(0,0,0)" stroke-width="2.0"/>
<line x1="67.3" y1="205.4" x2="67.3" y2="168.6" opacity="1.0" stroke="rgb(0,0,0)" stroke-width="2.0"/>
<line x1="74.5" y1="199.4" x2="74.5" y2="174.6" opacity="1.0" stroke="rgb(0,0,0)" stroke-width="2.0"/>
<line x1="67.3" y1="168.6" x2="99.1" y2="150.3" opacity="1.0" stroke="rgb(0,0,0)" stroke-width="2.0"/>
<line x1="99.1" y1="150.3" x2="131.0" y2="168.6" opacity="1.0" stroke="rgb(0,0,0)" stroke-width="2.0"/>
<line x1="100.7" y1="159.5" x2="122.2" y2="171.9" opacity="1.0" stroke="rgb(0,0,0)" stroke-width="2.0"/>
<line x1="290.1" y1="150.3" x2="269.6" y2="162.1" opacity="1.0" stroke="rgb(0,0,0)" stroke-width="2.0"/>
<line x1="258.3" y1="181.6" x2="258.3" y2="205.4" opacity="1.0" stroke="rgb(0,0,0)" stroke-width="2.0"/>
<line x1="290.1" y1="223.8" x2="310.7" y2="211.9" opacity="1.0" stroke="rgb(0,0,0)" stroke-width="2.0"/>
<line x1="322.0" y1="192.4" x2="322.0" y2="168.6" opacity="1.0" stroke="rgb(0,0,0)" stroke-width="2.0"/>
<text x="85.505719" y="267.737317" fill="rgb(12,12,255)" stroke-width="0" font-weight="bold" font-size="16">N</text>
<text x="85.505719" y="283.737317" fill="rgb(12,12,255)" stroke-width="0" font-weight="bold" font-size="16">H</text>
<text x="315.973874" y="213.405405" fill="rgb(255,12,12)" stroke-width="0" font-weight="bold" font-size="16">O</text>
<text x="252.309304" y="176.648649" fill="rgb(12,12,255)" stroke-width="0" font-weight="bold" font-size="16">N</text>
</svg>
</g>
</svg>