<svg xmlns="http://www.w3.org/2000/svg" x="0" y="0" viewBox="0 0 100 100">
<title>I_3_L - Open Babel Depiction</title>
<rect x="0" y="0" width="100" height="100" fill="white"/>
<g transform="translate(0,0)">
<svg width="100" height="100" x="0" y="0" viewBox="0 0 549.23 391.667" font-family="sans-serif" stroke="rgb(0,0,0)" stroke-width="2" stroke-linecap="round">
<line x1="402.7" y1="235.2" x2="286.9" y2="168.3" opacity="1.0" stroke="rgb(0,0,0)" stroke-width="2.0"/>
<line x1="223.4" y1="131.7" x2="159.9" y2="95.0" opacity="1.0" stroke="rgb(0,0,0)" stroke-width="2.0"/>
<line x1="40.0" y1="76.7" x2="61.6" y2="106.3" opacity="1.0" stroke="rgb(0,0,0)" stroke-width="2.0"/>
<line x1="49.4" y1="77.3" x2="63.9" y2="97.2" opacity="1.0" stroke="rgb(0,0,0)" stroke-width="2.0"/>
<line x1="61.6" y1="106.3" x2="96.4" y2="95.0" opacity="1.0" stroke="rgb(0,0,0)" stroke-width="2.0"/>
<line x1="96.4" y1="95.0" x2="96.4" y2="58.3" opacity="1.0" stroke="rgb(0,0,0)" stroke-width="2.0"/>
<line x1="96.4" y1="58.3" x2="73.9" y2="51.0" opacity="1.0" stroke="rgb(0,0,0)" stroke-width="2.0"/>
<line x1="53.9" y1="57.5" x2="40.0" y2="76.7" opacity="1.0" stroke="rgb(0,0,0)" stroke-width="2.0"/>
<line x1="445.7" y1="333.3" x2="445.7" y2="296.7" opacity="1.0" stroke="rgb(0,0,0)" stroke-width="2.0"/>
<line x1="445.7" y1="296.7" x2="414.0" y2="278.3" opacity="1.0" stroke="rgb(0,0,0)" stroke-width="2.0"/>
<line x1="436.9" y1="299.9" x2="415.6" y2="287.6" opacity="1.0" stroke="rgb(0,0,0)" stroke-width="2.0"/>
<line x1="414.0" y1="278.3" x2="382.2" y2="296.7" opacity="1.0" stroke="rgb(0,0,0)" stroke-width="2.0"/>
<line x1="382.2" y1="296.7" x2="382.2" y2="333.3" opacity="1.0" stroke="rgb(0,0,0)" stroke-width="2.0"/>
<line x1="389.4" y1="302.7" x2="389.4" y2="327.3" opacity="1.0" stroke="rgb(0,0,0)" stroke-width="2.0"/>
<line x1="382.2" y1="333.3" x2="414.0" y2="351.7" opacity="1.0" stroke="rgb(0,0,0)" stroke-width="2.0"/>
<line x1="414.0" y1="351.7" x2="445.7" y2="333.3" opacity="1.0" stroke="rgb(0,0,0)" stroke-width="2.0"/>
<line x1="415.6" y1="342.4" x2="436.9" y2="330.1" opacity="1.0" stroke="rgb(0,0,0)" stroke-width="2.0"/>
<line x1="477.5" y1="168.3" x2="445.7" y2="186.7" opacity="1.0" stroke="rgb(0,0,0)" stroke-width="2.0"/>
<line x1="475.9" y1="177.6" x2="454.5" y2="189.9" opacity="1.0" stroke="rgb(0,0,0)" stroke-width="2.0"/>
<line x1="445.7" y1="186.7" x2="445.7" y2="223.3" opacity="1.0" stroke="rgb(0,0,0)" stroke-width="2.0"/>
<line x1="445.7" y1="223.3" x2="477.5" y2="241.7" opacity="1.0" stroke="rgb(0,0,0)" stroke-width="2.0"/>
<line x1="454.5" y1="220.1" x2="475.9" y2="232.4" opacity="1.0" stroke="rgb(0,0,0)" stroke-width="2.0"/>
<line x1="477.5" y1="241.7" x2="509.2" y2="223.3" opacity="1.0" stroke="rgb(0,0,0)" stroke-width="2.0"/>
<line x1="509.2" y1="223.3" x2="509.2" y2="186.7" opacity="1.0" stroke="rgb(0,0,0)" stroke-width="2.0"/>
<line x1="502.0" y1="217.3" x2="502.0" y2="192.7" opacity="1.0" stroke="rgb(0,0,0)" stroke-width="2.0"/>
<line x1="509.2" y1="186.7" x2="477.5" y2="168.3" opacity="1.0" stroke="rgb(0,0,0)" stroke-width="2.0"/>
<line x1="318.7" y1="113.3" x2="318.7" y2="76.7" opacity="1.0" stroke="rgb(0,0,0)" stroke-width="2.0"/>
<line x1="311.5" y1="107.3" x2="311.5" y2="82.7" opacity="1.0" stroke="rgb(0,0,0)" stroke-width="2.0"/>
<line x1="318.7" y1="76.7" x2="286.9" y2="58.3" opacity="1.0" stroke="rgb(0,0,0)" stroke-width="2.0"/>
<line x1="286.9" y1="58.3" x2="255.2" y2="76.7" opacity="1.0" stroke="rgb(0,0,0)" stroke-width="2.0"/>
<line x1="285.4" y1="67.6" x2="264.0" y2="79.9" opacity="1.0" stroke="rgb(0,0,0)" stroke-width="2.0"/>
<line x1="255.2" y1="76.7" x2="255.2" y2="113.3" opacity="1.0" stroke="rgb(0,0,0)" stroke-width="2.0"/>
<line x1="255.2" y1="113.3" x2="286.9" y2="131.7" opacity="1.0" stroke="rgb(0,0,0)" stroke-width="2.0"/>
<line x1="264.0" y1="110.1" x2="285.4" y2="122.4" opacity="1.0" stroke="rgb(0,0,0)" stroke-width="2.0"/>
<line x1="286.9" y1="131.7" x2="318.7" y2="113.3" opacity="1.0" stroke="rgb(0,0,0)" stroke-width="2.0"/>
<line x1="223.4" y1="131.7" x2="255.2" y2="113.3" opacity="1.0" stroke="rgb(0,0,0)" stroke-width="2.0"/>
<line x1="286.9" y1="131.7" x2="286.9" y2="168.3" opacity="1.0" stroke="rgb(0,0,0)" stroke-width="2.0"/>
<line x1="286.9" y1="168.3" x2="255.2" y2="186.7" opacity="1.0" stroke="rgb(0,0,0)" stroke-width="2.0"/>
<line x1="278.2" y1="165.1" x2="256.8" y2="177.4" opacity="1.0" stroke="rgb(0,0,0)" stroke-width="2.0"/>
<line x1="255.2" y1="186.7" x2="223.4" y2="168.3" opacity="1.0" stroke="rgb(0,0,0)" stroke-width="2.0"/>
<line x1="223.4" y1="168.3" x2="223.4" y2="131.7" opacity="1.0" stroke="rgb(0,0,0)" stroke-width="2.0"/>
<line x1="230.6" y1="162.3" x2="230.6" y2="137.7" opacity="1.0" stroke="rgb(0,0,0)" stroke-width="2.0"/>
<line x1="223.4" y1="241.7" x2="191.7" y2="223.3" opacity="1.0" stroke="rgb(0,0,0)" stroke-width="2.0"/>
<line x1="191.7" y1="223.3" x2="191.7" y2="186.7" opacity="1.0" stroke="rgb(0,0,0)" stroke-width="2.0"/>
<line x1="198.9" y1="217.3" x2="198.9" y2="192.7" opacity="1.0" stroke="rgb(0,0,0)" stroke-width="2.0"/>
<line x1="191.7" y1="186.7" x2="223.4" y2="168.3" opacity="1.0" stroke="rgb(0,0,0)" stroke-width="2.0"/>
<line x1="255.2" y1="186.7" x2="255.2" y2="223.3" opacity="1.0" stroke="rgb(0,0,0)" stroke-width="2.0"/>
<line x1="255.2" y1="223.3" x2="223.4" y2="241.7" opacity="1.0" stroke="rgb(0,0,0)" stroke-width="2.0"/>
<line x1="246.4" y1="220.1" x2="225.0" y2="232.4" opacity="1.0" stroke="rgb(0,0,0)" stroke-width="2.0"/>
<line x1="159.9" y1="58.3" x2="128.2" y2="40.0" opacity="1.0" stroke="rgb(0,0,0)" stroke-width="2.0"/>
<line x1="128.2" y1="40.0" x2="96.4" y2="58.3" opacity="1.0" stroke="rgb(0,0,0)" stroke-width="2.0"/>
<line x1="126.6" y1="49.2" x2="105.2" y2="61.6" opacity="1.0" stroke="rgb(0,0,0)" stroke-width="2.0"/>
<line x1="96.4" y1="95.0" x2="128.2" y2="113.3" opacity="1.0" stroke="rgb(0,0,0)" stroke-width="2.0"/>
<line x1="105.2" y1="91.8" x2="126.6" y2="104.1" opacity="1.0" stroke="rgb(0,0,0)" stroke-width="2.0"/>
<line x1="128.2" y1="113.3" x2="159.9" y2="95.0" opacity="1.0" stroke="rgb(0,0,0)" stroke-width="2.0"/>
<line x1="159.9" y1="95.0" x2="159.9" y2="58.3" opacity="1.0" stroke="rgb(0,0,0)" stroke-width="2.0"/>
<line x1="152.7" y1="89.0" x2="152.7" y2="64.3" opacity="1.0" stroke="rgb(0,0,0)" stroke-width="2.0"/>
<line x1="445.7" y1="223.3" x2="425.2" y2="235.2" opacity="1.0" stroke="rgb(0,0,0)" stroke-width="2.0"/>
<line x1="414.0" y1="254.7" x2="414.0" y2="278.3" opacity="1.0" stroke="rgb(0,0,0)" stroke-width="2.0"/>
<line x1="445.7" y1="296.7" x2="466.2" y2="284.8" opacity="1.0" stroke="rgb(0,0,0)" stroke-width="2.0"/>
<line x1="477.5" y1="265.3" x2="477.5" y2="241.7" opacity="1.0" stroke="rgb(0,0,0)" stroke-width="2.0"/>
<text x="55.552126" y="55.002710" fill="rgb(12,12,255)" stroke-width="0" font-weight="bold" font-size="16">N</text>
<text x="55.552126" y="39.002710" fill="rgb(12,12,255)" stroke-width="0" font-weight="bold" font-size="16">H</text>
<text x="407.966846" y="249.666667" fill="rgb(12,12,255)" stroke-width="0" font-weight="bold" font-size="16">N</text>
<text x="471.475376" y="286.333333" fill="rgb(255,12,12)" stroke-width="0" font-weight="bold" font-size="16">O</text>
</svg>
</g>
</svg>
