<svg xmlns="http://www.w3.org/2000/svg" xmlns:xlink="http://www.w3.org/1999/xlink" xmlns:cml="http://www.xml-cml.org/schema" version="1.1" id="topsvg" x="0" y="0" viewBox="0 0 100 100">
<title>I_3_T - Open Babel Depiction</title>
<rect x="0" y="0" width="100" height="100" fill="white"/>
<g transform="translate(0,0)">
<svg width="100" height="100" x="0" y="0" viewBox="0 0 521.865 389.778" font-family="sans-serif" stroke="rgb(0,0,0)" stroke-width="2" stroke-linecap="round">
<line x1="145.9" y1="233.9" x2="260.9" y2="167.6" opacity="1.0" stroke="rgb(0,0,0)" stroke-width="2.0"/>
<line x1="450.3" y1="58.2" x2="470.6" y2="46.5" opacity="1.0" stroke="rgb(0,0,0)" stroke-width="2.0"/>
<line x1="324.1" y1="131.1" x2="387.2" y2="94.7" opacity="1.0" stroke="rgb(0,0,0)" stroke-width="2.0"/>
<line x1="103.1" y1="331.6" x2="103.1" y2="295.1" opacity="1.0" stroke="rgb(0,0,0)" stroke-width="2.0"/>
<line x1="103.1" y1="295.1" x2="134.7" y2="276.9" opacity="1.0" stroke="rgb(0,0,0)" stroke-width="2.0"/>
<line x1="111.9" y1="298.3" x2="133.1" y2="286.1" opacity="1.0" stroke="rgb(0,0,0)" stroke-width="2.0"/>
<line x1="134.7" y1="276.9" x2="166.2" y2="295.1" opacity="1.0" stroke="rgb(0,0,0)" stroke-width="2.0"/>
<line x1="166.2" y1="295.1" x2="166.2" y2="331.6" opacity="1.0" stroke="rgb(0,0,0)" stroke-width="2.0"/>
<line x1="159.0" y1="301.1" x2="159.0" y2="325.6" opacity="1.0" stroke="rgb(0,0,0)" stroke-width="2.0"/>
<line x1="166.2" y1="331.6" x2="134.7" y2="349.8" opacity="1.0" stroke="rgb(0,0,0)" stroke-width="2.0"/>
<line x1="134.7" y1="349.8" x2="103.1" y2="331.6" opacity="1.0" stroke="rgb(0,0,0)" stroke-width="2.0"/>
<line x1="133.1" y1="340.5" x2="111.9" y2="328.3" opacity="1.0" stroke="rgb(0,0,0)" stroke-width="2.0"/>
<line x1="71.6" y1="167.6" x2="103.1" y2="185.8" opacity="1.0" stroke="rgb(0,0,0)" stroke-width="2.0"/>
<line x1="73.2" y1="176.8" x2="94.3" y2="189.0" opacity="1.0" stroke="rgb(0,0,0)" stroke-width="2.0"/>
<line x1="103.1" y1="185.8" x2="103.1" y2="222.2" opacity="1.0" stroke="rgb(0,0,0)" stroke-width="2.0"/>
<line x1="103.1" y1="222.2" x2="71.6" y2="240.4" opacity="1.0" stroke="rgb(0,0,0)" stroke-width="2.0"/>
<line x1="94.3" y1="219.0" x2="73.2" y2="231.2" opacity="1.0" stroke="rgb(0,0,0)" stroke-width="2.0"/>
<line x1="71.6" y1="240.4" x2="40.0" y2="222.2" opacity="1.0" stroke="rgb(0,0,0)" stroke-width="2.0"/>
<line x1="40.0" y1="222.2" x2="40.0" y2="185.8" opacity="1.0" stroke="rgb(0,0,0)" stroke-width="2.0"/>
<line x1="47.2" y1="216.2" x2="47.2" y2="191.8" opacity="1.0" stroke="rgb(0,0,0)" stroke-width="2.0"/>
<line x1="40.0" y1="185.8" x2="71.6" y2="167.6" opacity="1.0" stroke="rgb(0,0,0)" stroke-width="2.0"/>
<line x1="292.5" y1="222.2" x2="324.1" y2="240.4" opacity="1.0" stroke="rgb(0,0,0)" stroke-width="2.0"/>
<line x1="301.3" y1="219.0" x2="322.5" y2="231.2" opacity="1.0" stroke="rgb(0,0,0)" stroke-width="2.0"/>
<line x1="324.1" y1="240.4" x2="355.6" y2="222.2" opacity="1.0" stroke="rgb(0,0,0)" stroke-width="2.0"/>
<line x1="355.6" y1="222.2" x2="355.6" y2="185.8" opacity="1.0" stroke="rgb(0,0,0)" stroke-width="2.0"/>
<line x1="348.4" y1="216.2" x2="348.4" y2="191.8" opacity="1.0" stroke="rgb(0,0,0)" stroke-width="2.0"/>
<line x1="355.6" y1="185.8" x2="324.1" y2="167.6" opacity="1.0" stroke="rgb(0,0,0)" stroke-width="2.0"/>
<line x1="324.1" y1="167.6" x2="292.5" y2="185.8" opacity="1.0" stroke="rgb(0,0,0)" stroke-width="2.0"/>
<line x1="322.5" y1="176.8" x2="301.3" y2="189.0" opacity="1.0" stroke="rgb(0,0,0)" stroke-width="2.0"/>
<line x1="292.5" y1="185.8" x2="292.5" y2="222.2" opacity="1.0" stroke="rgb(0,0,0)" stroke-width="2.0"/>
<line x1="324.1" y1="131.1" x2="324.1" y2="167.6" opacity="1.0" stroke="rgb(0,0,0)" stroke-width="2.0"/>
<line x1="292.5" y1="185.8" x2="260.9" y2="167.6" opacity="1.0" stroke="rgb(0,0,0)" stroke-width="2.0"/>
<line x1="260.9" y1="167.6" x2="260.9" y2="131.1" opacity="1.0" stroke="rgb(0,0,0)" stroke-width="2.0"/>
<line x1="268.1" y1="161.6" x2="268.1" y2="137.1" opacity="1.0" stroke="rgb(0,0,0)" stroke-width="2.0"/>
<line x1="260.9" y1="131.1" x2="292.5" y2="112.9" opacity="1.0" stroke="rgb(0,0,0)" stroke-width="2.0"/>
<line x1="292.5" y1="112.9" x2="324.1" y2="131.1" opacity="1.0" stroke="rgb(0,0,0)" stroke-width="2.0"/>
<line x1="294.1" y1="122.1" x2="315.3" y2="134.3" opacity="1.0" stroke="rgb(0,0,0)" stroke-width="2.0"/>
<line x1="229.4" y1="76.4" x2="260.9" y2="58.2" opacity="1.0" stroke="rgb(0,0,0)" stroke-width="2.0"/>
<line x1="260.9" y1="58.2" x2="292.5" y2="76.4" opacity="1.0" stroke="rgb(0,0,0)" stroke-width="2.0"/>
<line x1="262.5" y1="67.5" x2="283.7" y2="79.7" opacity="1.0" stroke="rgb(0,0,0)" stroke-width="2.0"/>
<line x1="292.5" y1="76.4" x2="292.5" y2="112.9" opacity="1.0" stroke="rgb(0,0,0)" stroke-width="2.0"/>
<line x1="260.9" y1="131.1" x2="229.4" y2="112.9" opacity="1.0" stroke="rgb(0,0,0)" stroke-width="2.0"/>
<line x1="229.4" y1="112.9" x2="229.4" y2="76.4" opacity="1.0" stroke="rgb(0,0,0)" stroke-width="2.0"/>
<line x1="236.6" y1="106.9" x2="236.6" y2="82.4" opacity="1.0" stroke="rgb(0,0,0)" stroke-width="2.0"/>
<line x1="387.2" y1="58.2" x2="418.7" y2="40.0" opacity="1.0" stroke="rgb(0,0,0)" stroke-width="2.0"/>
<line x1="418.7" y1="40.0" x2="450.3" y2="58.2" opacity="1.0" stroke="rgb(0,0,0)" stroke-width="2.0"/>
<line x1="420.3" y1="49.2" x2="441.5" y2="61.5" opacity="1.0" stroke="rgb(0,0,0)" stroke-width="2.0"/>
<line x1="450.3" y1="58.2" x2="450.3" y2="94.7" opacity="1.0" stroke="rgb(0,0,0)" stroke-width="2.0"/>
<line x1="450.3" y1="94.7" x2="418.7" y2="112.9" opacity="1.0" stroke="rgb(0,0,0)" stroke-width="2.0"/>
<line x1="441.5" y1="91.4" x2="420.3" y2="103.7" opacity="1.0" stroke="rgb(0,0,0)" stroke-width="2.0"/>
<line x1="418.7" y1="112.9" x2="387.2" y2="94.7" opacity="1.0" stroke="rgb(0,0,0)" stroke-width="2.0"/>
<line x1="387.2" y1="94.7" x2="387.2" y2="58.2" opacity="1.0" stroke="rgb(0,0,0)" stroke-width="2.0"/>
<line x1="394.4" y1="88.7" x2="394.4" y2="64.2" opacity="1.0" stroke="rgb(0,0,0)" stroke-width="2.0"/>
<line x1="103.1" y1="222.2" x2="123.4" y2="233.9" opacity="1.0" stroke="rgb(0,0,0)" stroke-width="2.0"/>
<line x1="134.7" y1="253.4" x2="134.7" y2="276.9" opacity="1.0" stroke="rgb(0,0,0)" stroke-width="2.0"/>
<line x1="103.1" y1="295.1" x2="82.8" y2="283.4" opacity="1.0" stroke="rgb(0,0,0)" stroke-width="2.0"/>
<line x1="71.6" y1="263.9" x2="71.6" y2="240.4" opacity="1.0" stroke="rgb(0,0,0)" stroke-width="2.0"/>
<text x="477.865406" y="48.000000" fill="rgb(102,102,102)" stroke-width="0" font-weight="bold" font-size="16">CH</text>
<text x="501.865406" y="51.680000" fill="rgb(102,102,102)" stroke-width="0" font-weight="bold" font-size="13">3</text>
<text x="128.685444" y="248.444444" fill="rgb(12,12,255)" stroke-width="0" font-weight="bold" font-size="16">N</text>
<text x="65.561815" y="284.888889" fill="rgb(255,12,12)" stroke-width="0" font-weight="bold" font-size="16">O</text>
</svg>
</g>
</svg>