<svg xmlns="http://www.w3.org/2000/svg" xmlns:xlink="http://www.w3.org/1999/xlink" xmlns:cml="http://www.xml-cml.org/schema" version="1.1" id="topsvg" x="0" y="0" viewBox="0 0 100 100">
<title>I_3_Q - Open Babel Depiction</title>
<rect x="0" y="0" width="100" height="100" fill="white"/>
<g transform="translate(0,0)">
<svg width="100" height="100" x="0" y="0" viewBox="0 0 489.394 389.091" font-family="sans-serif" stroke="rgb(0,0,0)" stroke-width="2" stroke-linecap="round">
<line x1="343.7" y1="233.5" x2="229.0" y2="167.3" opacity="1.0" stroke="rgb(0,0,0)" stroke-width="2.0"/>
<line x1="166.0" y1="130.9" x2="103.0" y2="94.5" opacity="1.0" stroke="rgb(0,0,0)" stroke-width="2.0"/>
<line x1="449.4" y1="221.8" x2="417.9" y2="240.0" opacity="1.0" stroke="rgb(0,0,0)" stroke-width="2.0"/>
<line x1="417.9" y1="240.0" x2="386.4" y2="221.8" opacity="1.0" stroke="rgb(0,0,0)" stroke-width="2.0"/>
<line x1="416.3" y1="230.8" x2="395.2" y2="218.6" opacity="1.0" stroke="rgb(0,0,0)" stroke-width="2.0"/>
<line x1="386.4" y1="221.8" x2="386.4" y2="185.5" opacity="1.0" stroke="rgb(0,0,0)" stroke-width="2.0"/>
<line x1="386.4" y1="185.5" x2="417.9" y2="167.3" opacity="1.0" stroke="rgb(0,0,0)" stroke-width="2.0"/>
<line x1="395.2" y1="188.7" x2="416.3" y2="176.5" opacity="1.0" stroke="rgb(0,0,0)" stroke-width="2.0"/>
<line x1="417.9" y1="167.3" x2="449.4" y2="185.5" opacity="1.0" stroke="rgb(0,0,0)" stroke-width="2.0"/>
<line x1="449.4" y1="185.5" x2="449.4" y2="221.8" opacity="1.0" stroke="rgb(0,0,0)" stroke-width="2.0"/>
<line x1="442.2" y1="191.5" x2="442.2" y2="215.8" opacity="1.0" stroke="rgb(0,0,0)" stroke-width="2.0"/>
<line x1="323.4" y1="330.9" x2="323.4" y2="294.5" opacity="1.0" stroke="rgb(0,0,0)" stroke-width="2.0"/>
<line x1="330.6" y1="324.9" x2="330.6" y2="300.5" opacity="1.0" stroke="rgb(0,0,0)" stroke-width="2.0"/>
<line x1="323.4" y1="294.5" x2="354.9" y2="276.4" opacity="1.0" stroke="rgb(0,0,0)" stroke-width="2.0"/>
<line x1="354.9" y1="276.4" x2="386.4" y2="294.5" opacity="1.0" stroke="rgb(0,0,0)" stroke-width="2.0"/>
<line x1="356.5" y1="285.6" x2="377.6" y2="297.8" opacity="1.0" stroke="rgb(0,0,0)" stroke-width="2.0"/>
<line x1="386.4" y1="294.5" x2="386.4" y2="330.9" opacity="1.0" stroke="rgb(0,0,0)" stroke-width="2.0"/>
<line x1="386.4" y1="330.9" x2="354.9" y2="349.1" opacity="1.0" stroke="rgb(0,0,0)" stroke-width="2.0"/>
<line x1="377.6" y1="327.7" x2="356.5" y2="339.9" opacity="1.0" stroke="rgb(0,0,0)" stroke-width="2.0"/>
<line x1="354.9" y1="349.1" x2="323.4" y2="330.9" opacity="1.0" stroke="rgb(0,0,0)" stroke-width="2.0"/>
<line x1="260.4" y1="112.7" x2="260.4" y2="76.4" opacity="1.0" stroke="rgb(0,0,0)" stroke-width="2.0"/>
<line x1="253.2" y1="106.7" x2="253.2" y2="82.4" opacity="1.0" stroke="rgb(0,0,0)" stroke-width="2.0"/>
<line x1="260.4" y1="76.4" x2="229.0" y2="58.2" opacity="1.0" stroke="rgb(0,0,0)" stroke-width="2.0"/>
<line x1="229.0" y1="58.2" x2="197.5" y2="76.4" opacity="1.0" stroke="rgb(0,0,0)" stroke-width="2.0"/>
<line x1="227.4" y1="67.4" x2="206.3" y2="79.6" opacity="1.0" stroke="rgb(0,0,0)" stroke-width="2.0"/>
<line x1="197.5" y1="76.4" x2="197.5" y2="112.7" opacity="1.0" stroke="rgb(0,0,0)" stroke-width="2.0"/>
<line x1="197.5" y1="112.7" x2="229.0" y2="130.9" opacity="1.0" stroke="rgb(0,0,0)" stroke-width="2.0"/>
<line x1="206.3" y1="109.5" x2="227.4" y2="121.7" opacity="1.0" stroke="rgb(0,0,0)" stroke-width="2.0"/>
<line x1="229.0" y1="130.9" x2="260.4" y2="112.7" opacity="1.0" stroke="rgb(0,0,0)" stroke-width="2.0"/>
<line x1="166.0" y1="130.9" x2="197.5" y2="112.7" opacity="1.0" stroke="rgb(0,0,0)" stroke-width="2.0"/>
<line x1="229.0" y1="130.9" x2="229.0" y2="167.3" opacity="1.0" stroke="rgb(0,0,0)" stroke-width="2.0"/>
<line x1="229.0" y1="167.3" x2="197.5" y2="185.5" opacity="1.0" stroke="rgb(0,0,0)" stroke-width="2.0"/>
<line x1="220.2" y1="164.0" x2="199.1" y2="176.2" opacity="1.0" stroke="rgb(0,0,0)" stroke-width="2.0"/>
<line x1="197.5" y1="185.5" x2="166.0" y2="167.3" opacity="1.0" stroke="rgb(0,0,0)" stroke-width="2.0"/>
<line x1="166.0" y1="167.3" x2="166.0" y2="130.9" opacity="1.0" stroke="rgb(0,0,0)" stroke-width="2.0"/>
<line x1="173.2" y1="161.3" x2="173.2" y2="136.9" opacity="1.0" stroke="rgb(0,0,0)" stroke-width="2.0"/>
<line x1="166.0" y1="240.0" x2="134.5" y2="221.8" opacity="1.0" stroke="rgb(0,0,0)" stroke-width="2.0"/>
<line x1="134.5" y1="221.8" x2="134.5" y2="185.5" opacity="1.0" stroke="rgb(0,0,0)" stroke-width="2.0"/>
<line x1="141.7" y1="215.8" x2="141.7" y2="191.5" opacity="1.0" stroke="rgb(0,0,0)" stroke-width="2.0"/>
<line x1="134.5" y1="185.5" x2="166.0" y2="167.3" opacity="1.0" stroke="rgb(0,0,0)" stroke-width="2.0"/>
<line x1="197.5" y1="185.5" x2="197.5" y2="221.8" opacity="1.0" stroke="rgb(0,0,0)" stroke-width="2.0"/>
<line x1="197.5" y1="221.8" x2="166.0" y2="240.0" opacity="1.0" stroke="rgb(0,0,0)" stroke-width="2.0"/>
<line x1="188.7" y1="218.6" x2="167.6" y2="230.8" opacity="1.0" stroke="rgb(0,0,0)" stroke-width="2.0"/>
<line x1="60.2" y1="106.2" x2="40.0" y2="94.5" opacity="1.0" stroke="rgb(0,0,0)" stroke-width="2.0"/>
<line x1="40.0" y1="94.5" x2="40.0" y2="58.2" opacity="1.0" stroke="rgb(0,0,0)" stroke-width="2.0"/>
<line x1="47.2" y1="88.5" x2="47.2" y2="64.2" opacity="1.0" stroke="rgb(0,0,0)" stroke-width="2.0"/>
<line x1="40.0" y1="58.2" x2="60.2" y2="46.5" opacity="1.0" stroke="rgb(0,0,0)" stroke-width="2.0"/>
<line x1="81.9" y1="46.0" x2="103.0" y2="58.2" opacity="1.0" stroke="rgb(0,0,0)" stroke-width="2.0"/>
<line x1="80.3" y1="53.4" x2="94.2" y2="61.4" opacity="1.0" stroke="rgb(0,0,0)" stroke-width="2.0"/>
<line x1="103.0" y1="58.2" x2="103.0" y2="94.5" opacity="1.0" stroke="rgb(0,0,0)" stroke-width="2.0"/>
<line x1="103.0" y1="94.5" x2="81.9" y2="106.7" opacity="1.0" stroke="rgb(0,0,0)" stroke-width="2.0"/>
<line x1="94.2" y1="91.3" x2="80.3" y2="99.3" opacity="1.0" stroke="rgb(0,0,0)" stroke-width="2.0"/>
<line x1="354.9" y1="276.4" x2="354.9" y2="253.0" opacity="1.0" stroke="rgb(0,0,0)" stroke-width="2.0"/>
<line x1="366.2" y1="233.5" x2="386.4" y2="221.8" opacity="1.0" stroke="rgb(0,0,0)" stroke-width="2.0"/>
<line x1="417.9" y1="240.0" x2="417.9" y2="263.4" opacity="1.0" stroke="rgb(0,0,0)" stroke-width="2.0"/>
<line x1="406.6" y1="282.9" x2="386.4" y2="294.5" opacity="1.0" stroke="rgb(0,0,0)" stroke-width="2.0"/>
<text x="65.491833" y="120.727273" fill="rgb(12,12,255)" stroke-width="0" font-weight="bold" font-size="16">N</text>
<text x="65.491833" y="48.000000" fill="rgb(12,12,255)" stroke-width="0" font-weight="bold" font-size="16">N</text>
<text x="348.918329" y="248.000000" fill="rgb(12,12,255)" stroke-width="0" font-weight="bold" font-size="16">N</text>
<text x="411.901994" y="284.363636" fill="rgb(255,12,12)" stroke-width="0" font-weight="bold" font-size="16">O</text>
</svg>
</g>
</svg>