<svg xmlns="http://www.w3.org/2000/svg" xmlns:xlink="http://www.w3.org/1999/xlink" xmlns:cml="http://www.xml-cml.org/schema" version="1.1" id="topsvg" x="0" y="0" viewBox="0 0 100 100">
<title>I_3_M - Open Babel Depiction</title>
<rect x="0" y="0" width="100" height="100" fill="white"/>
<g transform="translate(0,0)">
<svg width="100" height="100" x="0" y="0" viewBox="0 0 554.431 408.696" font-family="sans-serif" stroke="rgb(0,0,0)" stroke-width="2" stroke-linecap="round">
<line x1="146.1" y1="252.6" x2="261.4" y2="186.1" opacity="1.0" stroke="rgb(0,0,0)" stroke-width="2.0"/>
<line x1="482.8" y1="58.3" x2="503.2" y2="46.5" opacity="1.0" stroke="rgb(0,0,0)" stroke-width="2.0"/>
<line x1="480.7" y1="54.6" x2="501.1" y2="42.9" opacity="1.0" stroke="rgb(0,0,0)" stroke-width="2.0"/>
<line x1="484.9" y1="61.9" x2="505.3" y2="50.1" opacity="1.0" stroke="rgb(0,0,0)" stroke-width="2.0"/>
<line x1="451.2" y1="76.5" x2="482.8" y2="58.3" opacity="1.0" stroke="rgb(0,0,0)" stroke-width="2.0"/>
<line x1="324.7" y1="149.6" x2="387.9" y2="113.0" opacity="1.0" stroke="rgb(0,0,0)" stroke-width="2.0"/>
<line x1="103.3" y1="350.4" x2="103.3" y2="313.9" opacity="1.0" stroke="rgb(0,0,0)" stroke-width="2.0"/>
<line x1="103.3" y1="313.9" x2="134.9" y2="295.7" opacity="1.0" stroke="rgb(0,0,0)" stroke-width="2.0"/>
<line x1="112.1" y1="317.1" x2="133.3" y2="304.9" opacity="1.0" stroke="rgb(0,0,0)" stroke-width="2.0"/>
<line x1="134.9" y1="295.7" x2="166.5" y2="313.9" opacity="1.0" stroke="rgb(0,0,0)" stroke-width="2.0"/>
<line x1="166.5" y1="313.9" x2="166.5" y2="350.4" opacity="1.0" stroke="rgb(0,0,0)" stroke-width="2.0"/>
<line x1="159.3" y1="319.9" x2="159.3" y2="344.4" opacity="1.0" stroke="rgb(0,0,0)" stroke-width="2.0"/>
<line x1="166.5" y1="350.4" x2="134.9" y2="368.7" opacity="1.0" stroke="rgb(0,0,0)" stroke-width="2.0"/>
<line x1="134.9" y1="368.7" x2="103.3" y2="350.4" opacity="1.0" stroke="rgb(0,0,0)" stroke-width="2.0"/>
<line x1="133.3" y1="359.5" x2="112.1" y2="347.2" opacity="1.0" stroke="rgb(0,0,0)" stroke-width="2.0"/>
<line x1="71.6" y1="186.1" x2="103.3" y2="204.3" opacity="1.0" stroke="rgb(0,0,0)" stroke-width="2.0"/>
<line x1="73.2" y1="195.3" x2="94.5" y2="207.6" opacity="1.0" stroke="rgb(0,0,0)" stroke-width="2.0"/>
<line x1="103.3" y1="204.3" x2="103.3" y2="240.9" opacity="1.0" stroke="rgb(0,0,0)" stroke-width="2.0"/>
<line x1="103.3" y1="240.9" x2="71.6" y2="259.1" opacity="1.0" stroke="rgb(0,0,0)" stroke-width="2.0"/>
<line x1="94.5" y1="237.6" x2="73.2" y2="249.9" opacity="1.0" stroke="rgb(0,0,0)" stroke-width="2.0"/>
<line x1="71.6" y1="259.1" x2="40.0" y2="240.9" opacity="1.0" stroke="rgb(0,0,0)" stroke-width="2.0"/>
<line x1="40.0" y1="240.9" x2="40.0" y2="204.3" opacity="1.0" stroke="rgb(0,0,0)" stroke-width="2.0"/>
<line x1="47.2" y1="234.9" x2="47.2" y2="210.3" opacity="1.0" stroke="rgb(0,0,0)" stroke-width="2.0"/>
<line x1="40.0" y1="204.3" x2="71.6" y2="186.1" opacity="1.0" stroke="rgb(0,0,0)" stroke-width="2.0"/>
<line x1="293.0" y1="240.9" x2="324.7" y2="259.1" opacity="1.0" stroke="rgb(0,0,0)" stroke-width="2.0"/>
<line x1="301.8" y1="237.6" x2="323.1" y2="249.9" opacity="1.0" stroke="rgb(0,0,0)" stroke-width="2.0"/>
<line x1="324.7" y1="259.1" x2="356.3" y2="240.9" opacity="1.0" stroke="rgb(0,0,0)" stroke-width="2.0"/>
<line x1="356.3" y1="240.9" x2="356.3" y2="204.3" opacity="1.0" stroke="rgb(0,0,0)" stroke-width="2.0"/>
<line x1="349.1" y1="234.9" x2="349.1" y2="210.3" opacity="1.0" stroke="rgb(0,0,0)" stroke-width="2.0"/>
<line x1="356.3" y1="204.3" x2="324.7" y2="186.1" opacity="1.0" stroke="rgb(0,0,0)" stroke-width="2.0"/>
<line x1="324.7" y1="186.1" x2="293.0" y2="204.3" opacity="1.0" stroke="rgb(0,0,0)" stroke-width="2.0"/>
<line x1="323.1" y1="195.3" x2="301.8" y2="207.6" opacity="1.0" stroke="rgb(0,0,0)" stroke-width="2.0"/>
<line x1="293.0" y1="204.3" x2="293.0" y2="240.9" opacity="1.0" stroke="rgb(0,0,0)" stroke-width="2.0"/>
<line x1="324.7" y1="149.6" x2="324.7" y2="186.1" opacity="1.0" stroke="rgb(0,0,0)" stroke-width="2.0"/>
<line x1="293.0" y1="204.3" x2="261.4" y2="186.1" opacity="1.0" stroke="rgb(0,0,0)" stroke-width="2.0"/>
<line x1="261.4" y1="186.1" x2="261.4" y2="149.6" opacity="1.0" stroke="rgb(0,0,0)" stroke-width="2.0"/>
<line x1="268.6" y1="180.1" x2="268.6" y2="155.6" opacity="1.0" stroke="rgb(0,0,0)" stroke-width="2.0"/>
<line x1="261.4" y1="149.6" x2="293.0" y2="131.3" opacity="1.0" stroke="rgb(0,0,0)" stroke-width="2.0"/>
<line x1="293.0" y1="131.3" x2="324.7" y2="149.6" opacity="1.0" stroke="rgb(0,0,0)" stroke-width="2.0"/>
<line x1="294.6" y1="140.5" x2="315.9" y2="152.8" opacity="1.0" stroke="rgb(0,0,0)" stroke-width="2.0"/>
<line x1="229.8" y1="94.8" x2="261.4" y2="76.5" opacity="1.0" stroke="rgb(0,0,0)" stroke-width="2.0"/>
<line x1="261.4" y1="76.5" x2="293.0" y2="94.8" opacity="1.0" stroke="rgb(0,0,0)" stroke-width="2.0"/>
<line x1="263.0" y1="85.8" x2="284.2" y2="98.0" opacity="1.0" stroke="rgb(0,0,0)" stroke-width="2.0"/>
<line x1="293.0" y1="94.8" x2="293.0" y2="131.3" opacity="1.0" stroke="rgb(0,0,0)" stroke-width="2.0"/>
<line x1="261.4" y1="149.6" x2="229.8" y2="131.3" opacity="1.0" stroke="rgb(0,0,0)" stroke-width="2.0"/>
<line x1="229.8" y1="131.3" x2="229.8" y2="94.8" opacity="1.0" stroke="rgb(0,0,0)" stroke-width="2.0"/>
<line x1="237.0" y1="125.3" x2="237.0" y2="100.8" opacity="1.0" stroke="rgb(0,0,0)" stroke-width="2.0"/>
<line x1="387.9" y1="76.5" x2="419.5" y2="58.3" opacity="1.0" stroke="rgb(0,0,0)" stroke-width="2.0"/>
<line x1="419.5" y1="58.3" x2="451.2" y2="76.5" opacity="1.0" stroke="rgb(0,0,0)" stroke-width="2.0"/>
<line x1="421.1" y1="67.5" x2="442.4" y2="79.8" opacity="1.0" stroke="rgb(0,0,0)" stroke-width="2.0"/>
<line x1="451.2" y1="76.5" x2="451.2" y2="113.0" opacity="1.0" stroke="rgb(0,0,0)" stroke-width="2.0"/>
<line x1="451.2" y1="113.0" x2="419.5" y2="131.3" opacity="1.0" stroke="rgb(0,0,0)" stroke-width="2.0"/>
<line x1="442.4" y1="109.8" x2="421.1" y2="122.1" opacity="1.0" stroke="rgb(0,0,0)" stroke-width="2.0"/>
<line x1="419.5" y1="131.3" x2="387.9" y2="113.0" opacity="1.0" stroke="rgb(0,0,0)" stroke-width="2.0"/>
<line x1="387.9" y1="113.0" x2="387.9" y2="76.5" opacity="1.0" stroke="rgb(0,0,0)" stroke-width="2.0"/>
<line x1="395.1" y1="107.0" x2="395.1" y2="82.5" opacity="1.0" stroke="rgb(0,0,0)" stroke-width="2.0"/>
<line x1="103.3" y1="240.9" x2="123.6" y2="252.6" opacity="1.0" stroke="rgb(0,0,0)" stroke-width="2.0"/>
<line x1="134.9" y1="272.1" x2="134.9" y2="295.7" opacity="1.0" stroke="rgb(0,0,0)" stroke-width="2.0"/>
<line x1="103.3" y1="313.9" x2="82.9" y2="302.2" opacity="1.0" stroke="rgb(0,0,0)" stroke-width="2.0"/>
<line x1="71.6" y1="282.7" x2="71.6" y2="259.1" opacity="1.0" stroke="rgb(0,0,0)" stroke-width="2.0"/>
<text x="508.431308" y="48.000000" fill="rgb(12,12,255)" stroke-width="0" font-weight="bold" font-size="16">N</text>
<text x="128.886262" y="267.130435" fill="rgb(12,12,255)" stroke-width="0" font-weight="bold" font-size="16">N</text>
<text x="65.628754" y="303.652174" fill="rgb(255,12,12)" stroke-width="0" font-weight="bold" font-size="16">O</text>
</svg>
</g>
</svg>