<svg xmlns="http://www.w3.org/2000/svg" xmlns:xlink="http://www.w3.org/1999/xlink" xmlns:cml="http://www.xml-cml.org/schema" version="1.1" id="topsvg" x="0" y="0" viewBox="0 0 100 100">
<title>I_4_N - Open Babel Depiction</title>
<rect x="0" y="0" width="100" height="100" fill="white"/>
<g transform="translate(0,0)">
<svg width="100" height="100" x="0" y="0" viewBox="0 0 409.797 351.25" font-family="sans-serif" stroke="rgb(0,0,0)" stroke-width="2" stroke-linecap="round">
<line x1="252.6" y1="52.9" x2="263.7" y2="46.5" opacity="1.0" stroke="rgb(0,0,0)" stroke-width="2.0"/>
<line x1="241.4" y1="98.1" x2="241.4" y2="72.4" opacity="1.0" stroke="rgb(0,0,0)" stroke-width="2.0"/>
<line x1="151.9" y1="188.5" x2="207.8" y2="156.2" opacity="1.0" stroke="rgb(0,0,0)" stroke-width="2.0"/>
<line x1="274.9" y1="156.2" x2="308.5" y2="175.6" opacity="1.0" stroke="rgb(0,0,0)" stroke-width="2.0"/>
<line x1="343.9" y1="159.9" x2="361.1" y2="179.0" opacity="1.0" stroke="rgb(0,0,0)" stroke-width="2.0"/>
<line x1="363.3" y1="199.9" x2="350.4" y2="222.2" opacity="1.0" stroke="rgb(0,0,0)" stroke-width="2.0"/>
<line x1="350.4" y1="222.2" x2="312.5" y2="214.2" opacity="1.0" stroke="rgb(0,0,0)" stroke-width="2.0"/>
<line x1="346.0" y1="213.9" x2="319.9" y2="208.4" opacity="1.0" stroke="rgb(0,0,0)" stroke-width="2.0"/>
<line x1="312.5" y1="214.2" x2="308.5" y2="175.6" opacity="1.0" stroke="rgb(0,0,0)" stroke-width="2.0"/>
<line x1="308.5" y1="175.6" x2="343.9" y2="159.9" opacity="1.0" stroke="rgb(0,0,0)" stroke-width="2.0"/>
<line x1="316.9" y1="179.8" x2="341.3" y2="168.9" opacity="1.0" stroke="rgb(0,0,0)" stroke-width="2.0"/>
<line x1="40.0" y1="175.6" x2="73.6" y2="195.0" opacity="1.0" stroke="rgb(0,0,0)" stroke-width="2.0"/>
<line x1="73.6" y1="195.0" x2="107.1" y2="175.6" opacity="1.0" stroke="rgb(0,0,0)" stroke-width="2.0"/>
<line x1="75.2" y1="185.8" x2="98.3" y2="172.4" opacity="1.0" stroke="rgb(0,0,0)" stroke-width="2.0"/>
<line x1="107.1" y1="175.6" x2="107.1" y2="136.9" opacity="1.0" stroke="rgb(0,0,0)" stroke-width="2.0"/>
<line x1="107.1" y1="136.9" x2="73.6" y2="117.5" opacity="1.0" stroke="rgb(0,0,0)" stroke-width="2.0"/>
<line x1="98.3" y1="140.1" x2="75.2" y2="126.7" opacity="1.0" stroke="rgb(0,0,0)" stroke-width="2.0"/>
<line x1="73.6" y1="117.5" x2="40.0" y2="136.9" opacity="1.0" stroke="rgb(0,0,0)" stroke-width="2.0"/>
<line x1="40.0" y1="136.9" x2="40.0" y2="175.6" opacity="1.0" stroke="rgb(0,0,0)" stroke-width="2.0"/>
<line x1="47.2" y1="142.9" x2="47.2" y2="169.6" opacity="1.0" stroke="rgb(0,0,0)" stroke-width="2.0"/>
<line x1="174.2" y1="291.9" x2="174.2" y2="253.1" opacity="1.0" stroke="rgb(0,0,0)" stroke-width="2.0"/>
<line x1="167.0" y1="285.9" x2="167.0" y2="259.1" opacity="1.0" stroke="rgb(0,0,0)" stroke-width="2.0"/>
<line x1="174.2" y1="253.1" x2="140.7" y2="233.7" opacity="1.0" stroke="rgb(0,0,0)" stroke-width="2.0"/>
<line x1="140.7" y1="233.7" x2="107.1" y2="253.1" opacity="1.0" stroke="rgb(0,0,0)" stroke-width="2.0"/>
<line x1="139.1" y1="243.0" x2="115.9" y2="256.4" opacity="1.0" stroke="rgb(0,0,0)" stroke-width="2.0"/>
<line x1="107.1" y1="253.1" x2="107.1" y2="291.9" opacity="1.0" stroke="rgb(0,0,0)" stroke-width="2.0"/>
<line x1="107.1" y1="291.9" x2="140.7" y2="311.2" opacity="1.0" stroke="rgb(0,0,0)" stroke-width="2.0"/>
<line x1="115.9" y1="288.6" x2="139.1" y2="302.0" opacity="1.0" stroke="rgb(0,0,0)" stroke-width="2.0"/>
<line x1="140.7" y1="311.2" x2="174.2" y2="291.9" opacity="1.0" stroke="rgb(0,0,0)" stroke-width="2.0"/>
<line x1="207.8" y1="117.5" x2="241.4" y2="98.1" opacity="1.0" stroke="rgb(0,0,0)" stroke-width="2.0"/>
<line x1="241.4" y1="98.1" x2="274.9" y2="117.5" opacity="1.0" stroke="rgb(0,0,0)" stroke-width="2.0"/>
<line x1="242.9" y1="107.4" x2="266.1" y2="120.7" opacity="1.0" stroke="rgb(0,0,0)" stroke-width="2.0"/>
<line x1="274.9" y1="117.5" x2="274.9" y2="156.2" opacity="1.0" stroke="rgb(0,0,0)" stroke-width="2.0"/>
<line x1="274.9" y1="156.2" x2="241.4" y2="175.6" opacity="1.0" stroke="rgb(0,0,0)" stroke-width="2.0"/>
<line x1="266.1" y1="153.0" x2="242.9" y2="166.4" opacity="1.0" stroke="rgb(0,0,0)" stroke-width="2.0"/>
<line x1="241.4" y1="175.6" x2="207.8" y2="156.2" opacity="1.0" stroke="rgb(0,0,0)" stroke-width="2.0"/>
<line x1="207.8" y1="156.2" x2="207.8" y2="117.5" opacity="1.0" stroke="rgb(0,0,0)" stroke-width="2.0"/>
<line x1="215.0" y1="150.2" x2="215.0" y2="123.5" opacity="1.0" stroke="rgb(0,0,0)" stroke-width="2.0"/>
<line x1="140.7" y1="233.7" x2="140.7" y2="208.0" opacity="1.0" stroke="rgb(0,0,0)" stroke-width="2.0"/>
<line x1="129.4" y1="188.5" x2="107.1" y2="175.6" opacity="1.0" stroke="rgb(0,0,0)" stroke-width="2.0"/>
<line x1="73.6" y1="195.0" x2="73.6" y2="220.7" opacity="1.0" stroke="rgb(0,0,0)" stroke-width="2.0"/>
<line x1="84.8" y1="240.2" x2="107.1" y2="253.1" opacity="1.0" stroke="rgb(0,0,0)" stroke-width="2.0"/>
<text x="67.558484" y="241.750000" fill="rgb(255,12,12)" stroke-width="0" font-weight="bold" font-size="16">O</text>
<text x="363.796573" y="196.660817" fill="rgb(178,178,0)" stroke-width="0" font-weight="bold" font-size="16">S</text>
<text x="270.909391" y="48.000000" fill="rgb(102,102,102)" stroke-width="0" font-weight="bold" font-size="16">CH</text>
<text x="294.909391" y="51.680000" fill="rgb(102,102,102)" stroke-width="0" font-weight="bold" font-size="13">3</text>
<text x="235.350906" y="67.375000" fill="rgb(255,12,12)" stroke-width="0" font-weight="bold" font-size="16">O</text>
<text x="134.675453" y="203.000000" fill="rgb(12,12,255)" stroke-width="0" font-weight="bold" font-size="16">N</text>
</svg>
</g>
</svg>