<svg xmlns="http://www.w3.org/2000/svg" x="0" y="0" viewBox="0 0 100 100">
<title>I_4_Q - Open Babel Depiction</title>
<rect x="0" y="0" width="100" height="100" fill="white"/>
<g transform="translate(0,0)">
<svg width="100" height="100" x="0" y="0" viewBox="0 0 415.913 351.515" font-family="sans-serif" stroke="rgb(0,0,0)" stroke-width="2" stroke-linecap="round">
<line x1="252.8" y1="52.9" x2="263.9" y2="46.5" opacity="1.0" stroke="rgb(0,0,0)" stroke-width="2.0"/>
<line x1="241.5" y1="98.2" x2="241.5" y2="72.4" opacity="1.0" stroke="rgb(0,0,0)" stroke-width="2.0"/>
<line x1="152.0" y1="188.7" x2="208.0" y2="156.4" opacity="1.0" stroke="rgb(0,0,0)" stroke-width="2.0"/>
<line x1="275.1" y1="156.4" x2="308.7" y2="175.8" opacity="1.0" stroke="rgb(0,0,0)" stroke-width="2.0"/>
<line x1="107.2" y1="292.1" x2="107.2" y2="253.3" opacity="1.0" stroke="rgb(0,0,0)" stroke-width="2.0"/>
<line x1="107.2" y1="253.3" x2="140.8" y2="233.9" opacity="1.0" stroke="rgb(0,0,0)" stroke-width="2.0"/>
<line x1="116.0" y1="256.6" x2="139.2" y2="243.2" opacity="1.0" stroke="rgb(0,0,0)" stroke-width="2.0"/>
<line x1="140.8" y1="233.9" x2="174.4" y2="253.3" opacity="1.0" stroke="rgb(0,0,0)" stroke-width="2.0"/>
<line x1="174.4" y1="253.3" x2="174.4" y2="292.1" opacity="1.0" stroke="rgb(0,0,0)" stroke-width="2.0"/>
<line x1="167.2" y1="259.3" x2="167.2" y2="286.1" opacity="1.0" stroke="rgb(0,0,0)" stroke-width="2.0"/>
<line x1="174.4" y1="292.1" x2="140.8" y2="311.5" opacity="1.0" stroke="rgb(0,0,0)" stroke-width="2.0"/>
<line x1="140.8" y1="311.5" x2="107.2" y2="292.1" opacity="1.0" stroke="rgb(0,0,0)" stroke-width="2.0"/>
<line x1="139.2" y1="302.3" x2="116.0" y2="288.9" opacity="1.0" stroke="rgb(0,0,0)" stroke-width="2.0"/>
<line x1="73.6" y1="117.6" x2="107.2" y2="137.0" opacity="1.0" stroke="rgb(0,0,0)" stroke-width="2.0"/>
<line x1="75.2" y1="126.8" x2="98.4" y2="140.2" opacity="1.0" stroke="rgb(0,0,0)" stroke-width="2.0"/>
<line x1="107.2" y1="137.0" x2="107.2" y2="175.8" opacity="1.0" stroke="rgb(0,0,0)" stroke-width="2.0"/>
<line x1="107.2" y1="175.8" x2="73.6" y2="195.2" opacity="1.0" stroke="rgb(0,0,0)" stroke-width="2.0"/>
<line x1="98.4" y1="172.5" x2="75.2" y2="185.9" opacity="1.0" stroke="rgb(0,0,0)" stroke-width="2.0"/>
<line x1="73.6" y1="195.2" x2="40.0" y2="175.8" opacity="1.0" stroke="rgb(0,0,0)" stroke-width="2.0"/>
<line x1="40.0" y1="175.8" x2="40.0" y2="137.0" opacity="1.0" stroke="rgb(0,0,0)" stroke-width="2.0"/>
<line x1="47.2" y1="169.8" x2="47.2" y2="143.0" opacity="1.0" stroke="rgb(0,0,0)" stroke-width="2.0"/>
<line x1="40.0" y1="137.0" x2="73.6" y2="117.6" opacity="1.0" stroke="rgb(0,0,0)" stroke-width="2.0"/>
<line x1="208.0" y1="117.6" x2="241.5" y2="98.2" opacity="1.0" stroke="rgb(0,0,0)" stroke-width="2.0"/>
<line x1="241.5" y1="98.2" x2="275.1" y2="117.6" opacity="1.0" stroke="rgb(0,0,0)" stroke-width="2.0"/>
<line x1="243.1" y1="107.4" x2="266.3" y2="120.8" opacity="1.0" stroke="rgb(0,0,0)" stroke-width="2.0"/>
<line x1="275.1" y1="117.6" x2="275.1" y2="156.4" opacity="1.0" stroke="rgb(0,0,0)" stroke-width="2.0"/>
<line x1="275.1" y1="156.4" x2="241.5" y2="175.8" opacity="1.0" stroke="rgb(0,0,0)" stroke-width="2.0"/>
<line x1="266.3" y1="153.1" x2="243.1" y2="166.5" opacity="1.0" stroke="rgb(0,0,0)" stroke-width="2.0"/>
<line x1="241.5" y1="175.8" x2="208.0" y2="156.4" opacity="1.0" stroke="rgb(0,0,0)" stroke-width="2.0"/>
<line x1="208.0" y1="156.4" x2="208.0" y2="117.6" opacity="1.0" stroke="rgb(0,0,0)" stroke-width="2.0"/>
<line x1="215.2" y1="150.4" x2="215.2" y2="123.6" opacity="1.0" stroke="rgb(0,0,0)" stroke-width="2.0"/>
<line x1="353.6" y1="162.9" x2="375.9" y2="175.8" opacity="1.0" stroke="rgb(0,0,0)" stroke-width="2.0"/>
<line x1="375.9" y1="175.8" x2="375.9" y2="214.5" opacity="1.0" stroke="rgb(0,0,0)" stroke-width="2.0"/>
<line x1="368.7" y1="181.8" x2="368.7" y2="208.5" opacity="1.0" stroke="rgb(0,0,0)" stroke-width="2.0"/>
<line x1="375.9" y1="214.5" x2="353.6" y2="227.4" opacity="1.0" stroke="rgb(0,0,0)" stroke-width="2.0"/>
<line x1="331.2" y1="227.5" x2="308.7" y2="214.5" opacity="1.0" stroke="rgb(0,0,0)" stroke-width="2.0"/>
<line x1="333.0" y1="220.2" x2="317.5" y2="211.3" opacity="1.0" stroke="rgb(0,0,0)" stroke-width="2.0"/>
<line x1="308.7" y1="214.5" x2="308.7" y2="175.8" opacity="1.0" stroke="rgb(0,0,0)" stroke-width="2.0"/>
<line x1="308.7" y1="175.8" x2="331.2" y2="162.8" opacity="1.0" stroke="rgb(0,0,0)" stroke-width="2.0"/>
<line x1="317.5" y1="179.0" x2="333.0" y2="170.1" opacity="1.0" stroke="rgb(0,0,0)" stroke-width="2.0"/>
<line x1="107.2" y1="175.8" x2="129.5" y2="188.7" opacity="1.0" stroke="rgb(0,0,0)" stroke-width="2.0"/>
<line x1="140.8" y1="208.2" x2="140.8" y2="233.9" opacity="1.0" stroke="rgb(0,0,0)" stroke-width="2.0"/>
<line x1="107.2" y1="253.3" x2="84.8" y2="240.4" opacity="1.0" stroke="rgb(0,0,0)" stroke-width="2.0"/>
<line x1="73.6" y1="220.9" x2="73.6" y2="195.2" opacity="1.0" stroke="rgb(0,0,0)" stroke-width="2.0"/>
<text x="336.321596" y="241.939394" fill="rgb(12,12,255)" stroke-width="0" font-weight="bold" font-size="16">N</text>
<text x="336.321596" y="164.363636" fill="rgb(12,12,255)" stroke-width="0" font-weight="bold" font-size="16">N</text>
<text x="271.139019" y="48.000000" fill="rgb(102,102,102)" stroke-width="0" font-weight="bold" font-size="16">CH</text>
<text x="295.139019" y="51.680000" fill="rgb(102,102,102)" stroke-width="0" font-weight="bold" font-size="13">3</text>
<text x="235.547730" y="67.393939" fill="rgb(255,12,12)" stroke-width="0" font-weight="bold" font-size="16">O</text>
<text x="67.591288" y="241.939394" fill="rgb(255,12,12)" stroke-width="0" font-weight="bold" font-size="16">O</text>
<text x="134.773865" y="203.151515" fill="rgb(12,12,255)" stroke-width="0" font-weight="bold" font-size="16">N</text>
</svg>
</g>
</svg>
