<svg xmlns="http://www.w3.org/2000/svg" x="0" y="0" viewBox="0 0 100 100">
<title>I_5_R - Open Babel Depiction</title>
<rect x="0" y="0" width="100" height="100" fill="white"/>
<g transform="translate(0,0)">
<svg width="100" height="100" x="0" y="0" viewBox="0 0 552.539 294.359" font-family="sans-serif" stroke="rgb(0,0,0)" stroke-width="2" stroke-linecap="round">
<line x1="400.0" y1="163.4" x2="343.8" y2="195.9" opacity="1.0" stroke="rgb(0,0,0)" stroke-width="2.0"/>
<line x1="70.8" y1="104.9" x2="70.8" y2="92.0" opacity="1.0" stroke="rgb(0,0,0)" stroke-width="2.0"/>
<line x1="76.8" y1="104.9" x2="76.8" y2="92.0" opacity="1.0" stroke="rgb(0,0,0)" stroke-width="2.0"/>
<line x1="62.5" y1="124.4" x2="51.3" y2="130.9" opacity="1.0" stroke="rgb(0,0,0)" stroke-width="2.0"/>
<line x1="107.5" y1="137.4" x2="85.0" y2="124.4" opacity="1.0" stroke="rgb(0,0,0)" stroke-width="2.0"/>
<line x1="208.8" y1="195.9" x2="175.0" y2="176.4" opacity="1.0" stroke="rgb(0,0,0)" stroke-width="2.0"/>
<line x1="445.0" y1="59.5" x2="445.0" y2="98.5" opacity="1.0" stroke="rgb(0,0,0)" stroke-width="2.0"/>
<line x1="445.0" y1="98.5" x2="411.3" y2="117.9" opacity="1.0" stroke="rgb(0,0,0)" stroke-width="2.0"/>
<line x1="436.2" y1="95.2" x2="412.9" y2="108.7" opacity="1.0" stroke="rgb(0,0,0)" stroke-width="2.0"/>
<line x1="411.3" y1="117.9" x2="377.5" y2="98.5" opacity="1.0" stroke="rgb(0,0,0)" stroke-width="2.0"/>
<line x1="377.5" y1="98.5" x2="377.5" y2="59.5" opacity="1.0" stroke="rgb(0,0,0)" stroke-width="2.0"/>
<line x1="384.7" y1="92.5" x2="384.7" y2="65.5" opacity="1.0" stroke="rgb(0,0,0)" stroke-width="2.0"/>
<line x1="377.5" y1="59.5" x2="411.3" y2="40.0" opacity="1.0" stroke="rgb(0,0,0)" stroke-width="2.0"/>
<line x1="411.3" y1="40.0" x2="445.0" y2="59.5" opacity="1.0" stroke="rgb(0,0,0)" stroke-width="2.0"/>
<line x1="412.9" y1="49.2" x2="436.2" y2="62.7" opacity="1.0" stroke="rgb(0,0,0)" stroke-width="2.0"/>
<line x1="478.8" y1="234.9" x2="445.0" y2="215.4" opacity="1.0" stroke="rgb(0,0,0)" stroke-width="2.0"/>
<line x1="477.2" y1="225.6" x2="453.8" y2="212.1" opacity="1.0" stroke="rgb(0,0,0)" stroke-width="2.0"/>
<line x1="445.0" y1="215.4" x2="445.0" y2="176.4" opacity="1.0" stroke="rgb(0,0,0)" stroke-width="2.0"/>
<line x1="445.0" y1="176.4" x2="478.8" y2="156.9" opacity="1.0" stroke="rgb(0,0,0)" stroke-width="2.0"/>
<line x1="453.8" y1="179.6" x2="477.2" y2="166.2" opacity="1.0" stroke="rgb(0,0,0)" stroke-width="2.0"/>
<line x1="478.8" y1="156.9" x2="512.5" y2="176.4" opacity="1.0" stroke="rgb(0,0,0)" stroke-width="2.0"/>
<line x1="512.5" y1="176.4" x2="512.5" y2="215.4" opacity="1.0" stroke="rgb(0,0,0)" stroke-width="2.0"/>
<line x1="505.3" y1="182.4" x2="505.3" y2="209.4" opacity="1.0" stroke="rgb(0,0,0)" stroke-width="2.0"/>
<line x1="512.5" y1="215.4" x2="478.8" y2="234.9" opacity="1.0" stroke="rgb(0,0,0)" stroke-width="2.0"/>
<line x1="343.8" y1="234.9" x2="310.0" y2="254.4" opacity="1.0" stroke="rgb(0,0,0)" stroke-width="2.0"/>
<line x1="310.0" y1="254.4" x2="276.3" y2="234.9" opacity="1.0" stroke="rgb(0,0,0)" stroke-width="2.0"/>
<line x1="308.4" y1="245.1" x2="285.1" y2="231.6" opacity="1.0" stroke="rgb(0,0,0)" stroke-width="2.0"/>
<line x1="276.3" y1="234.9" x2="276.3" y2="195.9" opacity="1.0" stroke="rgb(0,0,0)" stroke-width="2.0"/>
<line x1="276.3" y1="195.9" x2="310.0" y2="176.4" opacity="1.0" stroke="rgb(0,0,0)" stroke-width="2.0"/>
<line x1="285.1" y1="199.1" x2="308.4" y2="185.6" opacity="1.0" stroke="rgb(0,0,0)" stroke-width="2.0"/>
<line x1="310.0" y1="176.4" x2="343.8" y2="195.9" opacity="1.0" stroke="rgb(0,0,0)" stroke-width="2.0"/>
<line x1="343.8" y1="195.9" x2="343.8" y2="234.9" opacity="1.0" stroke="rgb(0,0,0)" stroke-width="2.0"/>
<line x1="336.6" y1="201.9" x2="336.6" y2="228.9" opacity="1.0" stroke="rgb(0,0,0)" stroke-width="2.0"/>
<line x1="208.8" y1="195.9" x2="242.5" y2="176.4" opacity="1.0" stroke="rgb(0,0,0)" stroke-width="2.0"/>
<line x1="217.6" y1="199.1" x2="240.9" y2="185.6" opacity="1.0" stroke="rgb(0,0,0)" stroke-width="2.0"/>
<line x1="242.5" y1="176.4" x2="276.3" y2="195.9" opacity="1.0" stroke="rgb(0,0,0)" stroke-width="2.0"/>
<line x1="276.3" y1="234.9" x2="242.5" y2="254.4" opacity="1.0" stroke="rgb(0,0,0)" stroke-width="2.0"/>
<line x1="242.5" y1="254.4" x2="208.8" y2="234.9" opacity="1.0" stroke="rgb(0,0,0)" stroke-width="2.0"/>
<line x1="240.9" y1="245.1" x2="217.6" y2="231.6" opacity="1.0" stroke="rgb(0,0,0)" stroke-width="2.0"/>
<line x1="208.8" y1="234.9" x2="208.8" y2="195.9" opacity="1.0" stroke="rgb(0,0,0)" stroke-width="2.0"/>
<line x1="130.0" y1="189.4" x2="107.5" y2="176.4" opacity="1.0" stroke="rgb(0,0,0)" stroke-width="2.0"/>
<line x1="107.5" y1="176.4" x2="107.5" y2="137.4" opacity="1.0" stroke="rgb(0,0,0)" stroke-width="2.0"/>
<line x1="114.7" y1="170.4" x2="114.7" y2="143.4" opacity="1.0" stroke="rgb(0,0,0)" stroke-width="2.0"/>
<line x1="107.5" y1="137.4" x2="141.3" y2="117.9" opacity="1.0" stroke="rgb(0,0,0)" stroke-width="2.0"/>
<line x1="141.3" y1="117.9" x2="175.0" y2="137.4" opacity="1.0" stroke="rgb(0,0,0)" stroke-width="2.0"/>
<line x1="142.9" y1="127.2" x2="166.2" y2="140.7" opacity="1.0" stroke="rgb(0,0,0)" stroke-width="2.0"/>
<line x1="175.0" y1="137.4" x2="175.0" y2="176.4" opacity="1.0" stroke="rgb(0,0,0)" stroke-width="2.0"/>
<line x1="175.0" y1="176.4" x2="152.4" y2="189.5" opacity="1.0" stroke="rgb(0,0,0)" stroke-width="2.0"/>
<line x1="166.2" y1="173.2" x2="150.6" y2="182.2" opacity="1.0" stroke="rgb(0,0,0)" stroke-width="2.0"/>
<line x1="445.0" y1="176.4" x2="422.5" y2="163.4" opacity="1.0" stroke="rgb(0,0,0)" stroke-width="2.0"/>
<line x1="411.3" y1="143.9" x2="411.3" y2="117.9" opacity="1.0" stroke="rgb(0,0,0)" stroke-width="2.0"/>
<line x1="445.0" y1="98.5" x2="467.5" y2="111.4" opacity="1.0" stroke="rgb(0,0,0)" stroke-width="2.0"/>
<line x1="478.8" y1="130.9" x2="478.8" y2="156.9" opacity="1.0" stroke="rgb(0,0,0)" stroke-width="2.0"/>
<text x="135.258355" y="203.897436" fill="rgb(12,12,255)" stroke-width="0" font-weight="bold" font-size="16">N</text>
<text x="67.752785" y="125.948718" fill="rgb(12,12,255)" stroke-width="0" font-weight="bold" font-size="16">N</text>
<text x="67.752785" y="86.974359" fill="rgb(255,12,12)" stroke-width="0" font-weight="bold" font-size="16">O</text>
<text x="44.800000" y="133.403897" fill="rgb(255,12,12)" stroke-width="0" font-weight="bold" font-size="16"/>
<text x="44.800000" y="133.403897" fill="rgb(255,12,12)" stroke-width="0" font-weight="bold" font-size="32">.</text>
<text x="34.000000" y="145.435897" fill="rgb(255,12,12)" stroke-width="0" font-weight="bold" font-size="16">O</text>
<text x="472.786205" y="125.948718" fill="rgb(255,12,12)" stroke-width="0" font-weight="bold" font-size="16">O</text>
<text x="405.280635" y="164.923077" fill="rgb(12,12,255)" stroke-width="0" font-weight="bold" font-size="16">N</text>
</svg>
</g>
</svg>
