<svg xmlns="http://www.w3.org/2000/svg" xmlns:xlink="http://www.w3.org/1999/xlink" xmlns:cml="http://www.xml-cml.org/schema" version="1.1" id="topsvg" x="0" y="0" viewBox="0 0 100 100">
<title>I_5_T - Open Babel Depiction</title>
<rect x="0" y="0" width="100" height="100" fill="white"/>
<g transform="translate(0,0)">
<svg width="100" height="100" x="0" y="0" viewBox="0 0 518.162 294.054" font-family="sans-serif" stroke="rgb(0,0,0)" stroke-width="2" stroke-linecap="round">
<line x1="152.4" y1="130.8" x2="208.5" y2="98.4" opacity="1.0" stroke="rgb(0,0,0)" stroke-width="2.0"/>
<line x1="444.5" y1="156.8" x2="466.9" y2="169.7" opacity="1.0" stroke="rgb(0,0,0)" stroke-width="2.0"/>
<line x1="343.3" y1="98.4" x2="377.0" y2="117.8" opacity="1.0" stroke="rgb(0,0,0)" stroke-width="2.0"/>
<line x1="107.4" y1="234.6" x2="107.4" y2="195.7" opacity="1.0" stroke="rgb(0,0,0)" stroke-width="2.0"/>
<line x1="107.4" y1="195.7" x2="141.1" y2="176.2" opacity="1.0" stroke="rgb(0,0,0)" stroke-width="2.0"/>
<line x1="116.2" y1="198.9" x2="139.5" y2="185.5" opacity="1.0" stroke="rgb(0,0,0)" stroke-width="2.0"/>
<line x1="141.1" y1="176.2" x2="174.8" y2="195.7" opacity="1.0" stroke="rgb(0,0,0)" stroke-width="2.0"/>
<line x1="174.8" y1="195.7" x2="174.8" y2="234.6" opacity="1.0" stroke="rgb(0,0,0)" stroke-width="2.0"/>
<line x1="167.6" y1="201.7" x2="167.6" y2="228.6" opacity="1.0" stroke="rgb(0,0,0)" stroke-width="2.0"/>
<line x1="174.8" y1="234.6" x2="141.1" y2="254.1" opacity="1.0" stroke="rgb(0,0,0)" stroke-width="2.0"/>
<line x1="141.1" y1="254.1" x2="107.4" y2="234.6" opacity="1.0" stroke="rgb(0,0,0)" stroke-width="2.0"/>
<line x1="139.5" y1="244.8" x2="116.2" y2="231.4" opacity="1.0" stroke="rgb(0,0,0)" stroke-width="2.0"/>
<line x1="73.7" y1="59.5" x2="107.4" y2="78.9" opacity="1.0" stroke="rgb(0,0,0)" stroke-width="2.0"/>
<line x1="75.3" y1="68.7" x2="98.6" y2="82.2" opacity="1.0" stroke="rgb(0,0,0)" stroke-width="2.0"/>
<line x1="107.4" y1="78.9" x2="107.4" y2="117.8" opacity="1.0" stroke="rgb(0,0,0)" stroke-width="2.0"/>
<line x1="107.4" y1="117.8" x2="73.7" y2="137.3" opacity="1.0" stroke="rgb(0,0,0)" stroke-width="2.0"/>
<line x1="98.6" y1="114.6" x2="75.3" y2="128.1" opacity="1.0" stroke="rgb(0,0,0)" stroke-width="2.0"/>
<line x1="73.7" y1="137.3" x2="40.0" y2="117.8" opacity="1.0" stroke="rgb(0,0,0)" stroke-width="2.0"/>
<line x1="40.0" y1="117.8" x2="40.0" y2="78.9" opacity="1.0" stroke="rgb(0,0,0)" stroke-width="2.0"/>
<line x1="47.2" y1="111.8" x2="47.2" y2="84.9" opacity="1.0" stroke="rgb(0,0,0)" stroke-width="2.0"/>
<line x1="40.0" y1="78.9" x2="73.7" y2="59.5" opacity="1.0" stroke="rgb(0,0,0)" stroke-width="2.0"/>
<line x1="208.5" y1="59.5" x2="242.2" y2="40.0" opacity="1.0" stroke="rgb(0,0,0)" stroke-width="2.0"/>
<line x1="242.2" y1="40.0" x2="275.9" y2="59.5" opacity="1.0" stroke="rgb(0,0,0)" stroke-width="2.0"/>
<line x1="243.8" y1="49.2" x2="267.1" y2="62.7" opacity="1.0" stroke="rgb(0,0,0)" stroke-width="2.0"/>
<line x1="275.9" y1="59.5" x2="275.9" y2="98.4" opacity="1.0" stroke="rgb(0,0,0)" stroke-width="2.0"/>
<line x1="275.9" y1="98.4" x2="242.2" y2="117.8" opacity="1.0" stroke="rgb(0,0,0)" stroke-width="2.0"/>
<line x1="267.1" y1="95.1" x2="243.8" y2="108.6" opacity="1.0" stroke="rgb(0,0,0)" stroke-width="2.0"/>
<line x1="242.2" y1="117.8" x2="208.5" y2="98.4" opacity="1.0" stroke="rgb(0,0,0)" stroke-width="2.0"/>
<line x1="208.5" y1="98.4" x2="208.5" y2="59.5" opacity="1.0" stroke="rgb(0,0,0)" stroke-width="2.0"/>
<line x1="215.7" y1="92.4" x2="215.7" y2="65.5" opacity="1.0" stroke="rgb(0,0,0)" stroke-width="2.0"/>
<line x1="343.3" y1="98.4" x2="309.6" y2="117.8" opacity="1.0" stroke="rgb(0,0,0)" stroke-width="2.0"/>
<line x1="334.5" y1="95.1" x2="311.2" y2="108.6" opacity="1.0" stroke="rgb(0,0,0)" stroke-width="2.0"/>
<line x1="309.6" y1="117.8" x2="275.9" y2="98.4" opacity="1.0" stroke="rgb(0,0,0)" stroke-width="2.0"/>
<line x1="275.9" y1="59.5" x2="309.6" y2="40.0" opacity="1.0" stroke="rgb(0,0,0)" stroke-width="2.0"/>
<line x1="309.6" y1="40.0" x2="343.3" y2="59.5" opacity="1.0" stroke="rgb(0,0,0)" stroke-width="2.0"/>
<line x1="311.2" y1="49.2" x2="334.5" y2="62.7" opacity="1.0" stroke="rgb(0,0,0)" stroke-width="2.0"/>
<line x1="343.3" y1="59.5" x2="343.3" y2="98.4" opacity="1.0" stroke="rgb(0,0,0)" stroke-width="2.0"/>
<line x1="410.8" y1="98.4" x2="444.5" y2="117.8" opacity="1.0" stroke="rgb(0,0,0)" stroke-width="2.0"/>
<line x1="444.5" y1="117.8" x2="444.5" y2="156.8" opacity="1.0" stroke="rgb(0,0,0)" stroke-width="2.0"/>
<line x1="437.3" y1="123.8" x2="437.3" y2="150.8" opacity="1.0" stroke="rgb(0,0,0)" stroke-width="2.0"/>
<line x1="444.5" y1="156.8" x2="410.8" y2="176.2" opacity="1.0" stroke="rgb(0,0,0)" stroke-width="2.0"/>
<line x1="410.8" y1="176.2" x2="377.0" y2="156.8" opacity="1.0" stroke="rgb(0,0,0)" stroke-width="2.0"/>
<line x1="409.2" y1="167.0" x2="385.8" y2="153.5" opacity="1.0" stroke="rgb(0,0,0)" stroke-width="2.0"/>
<line x1="377.0" y1="156.8" x2="377.0" y2="117.8" opacity="1.0" stroke="rgb(0,0,0)" stroke-width="2.0"/>
<line x1="377.0" y1="117.8" x2="410.8" y2="98.4" opacity="1.0" stroke="rgb(0,0,0)" stroke-width="2.0"/>
<line x1="385.8" y1="121.1" x2="409.2" y2="107.6" opacity="1.0" stroke="rgb(0,0,0)" stroke-width="2.0"/>
<line x1="107.4" y1="117.8" x2="129.9" y2="130.8" opacity="1.0" stroke="rgb(0,0,0)" stroke-width="2.0"/>
<line x1="141.1" y1="150.3" x2="141.1" y2="176.2" opacity="1.0" stroke="rgb(0,0,0)" stroke-width="2.0"/>
<line x1="107.4" y1="195.7" x2="85.0" y2="182.7" opacity="1.0" stroke="rgb(0,0,0)" stroke-width="2.0"/>
<line x1="73.7" y1="163.2" x2="73.7" y2="137.3" opacity="1.0" stroke="rgb(0,0,0)" stroke-width="2.0"/>
<text x="474.162042" y="184.216216" fill="rgb(102,102,102)" stroke-width="0" font-weight="bold" font-size="16">CH</text>
<text x="498.162042" y="187.896216" fill="rgb(102,102,102)" stroke-width="0" font-weight="bold" font-size="13">3</text>
<text x="67.704772" y="184.216216" fill="rgb(255,12,12)" stroke-width="0" font-weight="bold" font-size="16">O</text>
<text x="135.114317" y="145.297297" fill="rgb(12,12,255)" stroke-width="0" font-weight="bold" font-size="16">N</text>
</svg>
</g>
</svg>