<svg xmlns="http://www.w3.org/2000/svg" x="0" y="0" viewBox="0 0 100 100">
<title>I_5_M - Open Babel Depiction</title>
<rect x="0" y="0" width="100" height="100" fill="white"/>
<g transform="translate(0,0)">
<svg width="100" height="100" x="0" y="0" viewBox="0 0 552.212 294.211" font-family="sans-serif" stroke="rgb(0,0,0)" stroke-width="2" stroke-linecap="round">
<line x1="399.8" y1="163.3" x2="343.6" y2="195.8" opacity="1.0" stroke="rgb(0,0,0)" stroke-width="2.0"/>
<line x1="73.7" y1="117.9" x2="51.3" y2="104.9" opacity="1.0" stroke="rgb(0,0,0)" stroke-width="2.0"/>
<line x1="71.6" y1="121.5" x2="49.2" y2="108.6" opacity="1.0" stroke="rgb(0,0,0)" stroke-width="2.0"/>
<line x1="75.8" y1="114.3" x2="53.4" y2="101.3" opacity="1.0" stroke="rgb(0,0,0)" stroke-width="2.0"/>
<line x1="107.5" y1="137.4" x2="73.7" y2="117.9" opacity="1.0" stroke="rgb(0,0,0)" stroke-width="2.0"/>
<line x1="208.6" y1="195.8" x2="174.9" y2="176.3" opacity="1.0" stroke="rgb(0,0,0)" stroke-width="2.0"/>
<line x1="444.8" y1="59.5" x2="444.8" y2="98.4" opacity="1.0" stroke="rgb(0,0,0)" stroke-width="2.0"/>
<line x1="444.8" y1="98.4" x2="411.0" y2="117.9" opacity="1.0" stroke="rgb(0,0,0)" stroke-width="2.0"/>
<line x1="436.0" y1="95.2" x2="412.6" y2="108.7" opacity="1.0" stroke="rgb(0,0,0)" stroke-width="2.0"/>
<line x1="411.0" y1="117.9" x2="377.3" y2="98.4" opacity="1.0" stroke="rgb(0,0,0)" stroke-width="2.0"/>
<line x1="377.3" y1="98.4" x2="377.3" y2="59.5" opacity="1.0" stroke="rgb(0,0,0)" stroke-width="2.0"/>
<line x1="384.5" y1="92.4" x2="384.5" y2="65.5" opacity="1.0" stroke="rgb(0,0,0)" stroke-width="2.0"/>
<line x1="377.3" y1="59.5" x2="411.0" y2="40.0" opacity="1.0" stroke="rgb(0,0,0)" stroke-width="2.0"/>
<line x1="411.0" y1="40.0" x2="444.8" y2="59.5" opacity="1.0" stroke="rgb(0,0,0)" stroke-width="2.0"/>
<line x1="412.6" y1="49.2" x2="436.0" y2="62.7" opacity="1.0" stroke="rgb(0,0,0)" stroke-width="2.0"/>
<line x1="478.5" y1="234.7" x2="444.8" y2="215.3" opacity="1.0" stroke="rgb(0,0,0)" stroke-width="2.0"/>
<line x1="476.9" y1="225.5" x2="453.5" y2="212.0" opacity="1.0" stroke="rgb(0,0,0)" stroke-width="2.0"/>
<line x1="444.8" y1="215.3" x2="444.8" y2="176.3" opacity="1.0" stroke="rgb(0,0,0)" stroke-width="2.0"/>
<line x1="444.8" y1="176.3" x2="478.5" y2="156.8" opacity="1.0" stroke="rgb(0,0,0)" stroke-width="2.0"/>
<line x1="453.5" y1="179.6" x2="476.9" y2="166.1" opacity="1.0" stroke="rgb(0,0,0)" stroke-width="2.0"/>
<line x1="478.5" y1="156.8" x2="512.2" y2="176.3" opacity="1.0" stroke="rgb(0,0,0)" stroke-width="2.0"/>
<line x1="512.2" y1="176.3" x2="512.2" y2="215.3" opacity="1.0" stroke="rgb(0,0,0)" stroke-width="2.0"/>
<line x1="505.0" y1="182.3" x2="505.0" y2="209.3" opacity="1.0" stroke="rgb(0,0,0)" stroke-width="2.0"/>
<line x1="512.2" y1="215.3" x2="478.5" y2="234.7" opacity="1.0" stroke="rgb(0,0,0)" stroke-width="2.0"/>
<line x1="343.6" y1="234.7" x2="309.8" y2="254.2" opacity="1.0" stroke="rgb(0,0,0)" stroke-width="2.0"/>
<line x1="309.8" y1="254.2" x2="276.1" y2="234.7" opacity="1.0" stroke="rgb(0,0,0)" stroke-width="2.0"/>
<line x1="308.2" y1="245.0" x2="284.9" y2="231.5" opacity="1.0" stroke="rgb(0,0,0)" stroke-width="2.0"/>
<line x1="276.1" y1="234.7" x2="276.1" y2="195.8" opacity="1.0" stroke="rgb(0,0,0)" stroke-width="2.0"/>
<line x1="276.1" y1="195.8" x2="309.8" y2="176.3" opacity="1.0" stroke="rgb(0,0,0)" stroke-width="2.0"/>
<line x1="284.9" y1="199.0" x2="308.2" y2="185.6" opacity="1.0" stroke="rgb(0,0,0)" stroke-width="2.0"/>
<line x1="309.8" y1="176.3" x2="343.6" y2="195.8" opacity="1.0" stroke="rgb(0,0,0)" stroke-width="2.0"/>
<line x1="343.6" y1="195.8" x2="343.6" y2="234.7" opacity="1.0" stroke="rgb(0,0,0)" stroke-width="2.0"/>
<line x1="336.4" y1="201.8" x2="336.4" y2="228.7" opacity="1.0" stroke="rgb(0,0,0)" stroke-width="2.0"/>
<line x1="208.6" y1="195.8" x2="242.4" y2="176.3" opacity="1.0" stroke="rgb(0,0,0)" stroke-width="2.0"/>
<line x1="217.4" y1="199.0" x2="240.8" y2="185.6" opacity="1.0" stroke="rgb(0,0,0)" stroke-width="2.0"/>
<line x1="242.4" y1="176.3" x2="276.1" y2="195.8" opacity="1.0" stroke="rgb(0,0,0)" stroke-width="2.0"/>
<line x1="276.1" y1="234.7" x2="242.4" y2="254.2" opacity="1.0" stroke="rgb(0,0,0)" stroke-width="2.0"/>
<line x1="242.4" y1="254.2" x2="208.6" y2="234.7" opacity="1.0" stroke="rgb(0,0,0)" stroke-width="2.0"/>
<line x1="240.8" y1="245.0" x2="217.4" y2="231.5" opacity="1.0" stroke="rgb(0,0,0)" stroke-width="2.0"/>
<line x1="208.6" y1="234.7" x2="208.6" y2="195.8" opacity="1.0" stroke="rgb(0,0,0)" stroke-width="2.0"/>
<line x1="141.2" y1="195.8" x2="107.5" y2="176.3" opacity="1.0" stroke="rgb(0,0,0)" stroke-width="2.0"/>
<line x1="107.5" y1="176.3" x2="107.5" y2="137.4" opacity="1.0" stroke="rgb(0,0,0)" stroke-width="2.0"/>
<line x1="114.7" y1="170.3" x2="114.7" y2="143.4" opacity="1.0" stroke="rgb(0,0,0)" stroke-width="2.0"/>
<line x1="107.5" y1="137.4" x2="141.2" y2="117.9" opacity="1.0" stroke="rgb(0,0,0)" stroke-width="2.0"/>
<line x1="141.2" y1="117.9" x2="174.9" y2="137.4" opacity="1.0" stroke="rgb(0,0,0)" stroke-width="2.0"/>
<line x1="142.8" y1="127.1" x2="166.1" y2="140.6" opacity="1.0" stroke="rgb(0,0,0)" stroke-width="2.0"/>
<line x1="174.9" y1="137.4" x2="174.9" y2="176.3" opacity="1.0" stroke="rgb(0,0,0)" stroke-width="2.0"/>
<line x1="174.9" y1="176.3" x2="141.2" y2="195.8" opacity="1.0" stroke="rgb(0,0,0)" stroke-width="2.0"/>
<line x1="166.1" y1="173.1" x2="142.8" y2="186.6" opacity="1.0" stroke="rgb(0,0,0)" stroke-width="2.0"/>
<line x1="444.8" y1="176.3" x2="422.3" y2="163.3" opacity="1.0" stroke="rgb(0,0,0)" stroke-width="2.0"/>
<line x1="411.0" y1="143.8" x2="411.0" y2="117.9" opacity="1.0" stroke="rgb(0,0,0)" stroke-width="2.0"/>
<line x1="444.8" y1="98.4" x2="467.2" y2="111.4" opacity="1.0" stroke="rgb(0,0,0)" stroke-width="2.0"/>
<line x1="478.5" y1="130.9" x2="478.5" y2="156.8" opacity="1.0" stroke="rgb(0,0,0)" stroke-width="2.0"/>
<text x="34.000000" y="106.421053" fill="rgb(12,12,255)" stroke-width="0" font-weight="bold" font-size="16">N</text>
<text x="472.482336" y="125.894737" fill="rgb(255,12,12)" stroke-width="0" font-weight="bold" font-size="16">O</text>
<text x="405.023515" y="164.842105" fill="rgb(12,12,255)" stroke-width="0" font-weight="bold" font-size="16">N</text>
</svg>
</g>
</svg>
