<svg xmlns="http://www.w3.org/2000/svg" x="0" y="0" viewBox="0 0 100 100">
<title>I_5_N - Open Babel Depiction</title>
<rect x="0" y="0" width="100" height="100" fill="white"/>
<g transform="translate(0,0)">
<svg width="100" height="100" x="0" y="0" viewBox="0 0 478.011 293.714" font-family="sans-serif" stroke="rgb(0,0,0)" stroke-width="2" stroke-linecap="round">
<line x1="325.8" y1="130.6" x2="269.8" y2="98.3" opacity="1.0" stroke="rgb(0,0,0)" stroke-width="2.0"/>
<line x1="135.1" y1="98.3" x2="101.5" y2="117.7" opacity="1.0" stroke="rgb(0,0,0)" stroke-width="2.0"/>
<line x1="97.4" y1="156.4" x2="72.1" y2="161.7" opacity="1.0" stroke="rgb(0,0,0)" stroke-width="2.0"/>
<line x1="52.9" y1="153.2" x2="40.0" y2="130.8" opacity="1.0" stroke="rgb(0,0,0)" stroke-width="2.0"/>
<line x1="40.0" y1="130.8" x2="66.0" y2="101.9" opacity="1.0" stroke="rgb(0,0,0)" stroke-width="2.0"/>
<line x1="49.4" y1="131.1" x2="67.3" y2="111.2" opacity="1.0" stroke="rgb(0,0,0)" stroke-width="2.0"/>
<line x1="66.0" y1="101.9" x2="101.5" y2="117.7" opacity="1.0" stroke="rgb(0,0,0)" stroke-width="2.0"/>
<line x1="101.5" y1="117.7" x2="97.4" y2="156.4" opacity="1.0" stroke="rgb(0,0,0)" stroke-width="2.0"/>
<line x1="93.7" y1="122.9" x2="90.9" y2="149.6" opacity="1.0" stroke="rgb(0,0,0)" stroke-width="2.0"/>
<line x1="370.7" y1="234.3" x2="370.7" y2="195.4" opacity="1.0" stroke="rgb(0,0,0)" stroke-width="2.0"/>
<line x1="370.7" y1="195.4" x2="337.1" y2="176.0" opacity="1.0" stroke="rgb(0,0,0)" stroke-width="2.0"/>
<line x1="361.9" y1="198.7" x2="338.7" y2="185.2" opacity="1.0" stroke="rgb(0,0,0)" stroke-width="2.0"/>
<line x1="337.1" y1="176.0" x2="303.4" y2="195.4" opacity="1.0" stroke="rgb(0,0,0)" stroke-width="2.0"/>
<line x1="303.4" y1="195.4" x2="303.4" y2="234.3" opacity="1.0" stroke="rgb(0,0,0)" stroke-width="2.0"/>
<line x1="310.6" y1="201.4" x2="310.6" y2="228.3" opacity="1.0" stroke="rgb(0,0,0)" stroke-width="2.0"/>
<line x1="303.4" y1="234.3" x2="337.1" y2="253.7" opacity="1.0" stroke="rgb(0,0,0)" stroke-width="2.0"/>
<line x1="337.1" y1="253.7" x2="370.7" y2="234.3" opacity="1.0" stroke="rgb(0,0,0)" stroke-width="2.0"/>
<line x1="338.7" y1="244.5" x2="361.9" y2="231.1" opacity="1.0" stroke="rgb(0,0,0)" stroke-width="2.0"/>
<line x1="404.4" y1="59.4" x2="370.7" y2="78.9" opacity="1.0" stroke="rgb(0,0,0)" stroke-width="2.0"/>
<line x1="402.8" y1="68.7" x2="379.5" y2="82.1" opacity="1.0" stroke="rgb(0,0,0)" stroke-width="2.0"/>
<line x1="370.7" y1="78.9" x2="370.7" y2="117.7" opacity="1.0" stroke="rgb(0,0,0)" stroke-width="2.0"/>
<line x1="370.7" y1="117.7" x2="404.4" y2="137.1" opacity="1.0" stroke="rgb(0,0,0)" stroke-width="2.0"/>
<line x1="379.5" y1="114.5" x2="402.8" y2="127.9" opacity="1.0" stroke="rgb(0,0,0)" stroke-width="2.0"/>
<line x1="404.4" y1="137.1" x2="438.0" y2="117.7" opacity="1.0" stroke="rgb(0,0,0)" stroke-width="2.0"/>
<line x1="438.0" y1="117.7" x2="438.0" y2="78.9" opacity="1.0" stroke="rgb(0,0,0)" stroke-width="2.0"/>
<line x1="430.8" y1="111.7" x2="430.8" y2="84.9" opacity="1.0" stroke="rgb(0,0,0)" stroke-width="2.0"/>
<line x1="438.0" y1="78.9" x2="404.4" y2="59.4" opacity="1.0" stroke="rgb(0,0,0)" stroke-width="2.0"/>
<line x1="269.8" y1="59.4" x2="236.1" y2="40.0" opacity="1.0" stroke="rgb(0,0,0)" stroke-width="2.0"/>
<line x1="236.1" y1="40.0" x2="202.5" y2="59.4" opacity="1.0" stroke="rgb(0,0,0)" stroke-width="2.0"/>
<line x1="234.5" y1="49.2" x2="211.2" y2="62.7" opacity="1.0" stroke="rgb(0,0,0)" stroke-width="2.0"/>
<line x1="202.5" y1="59.4" x2="202.5" y2="98.3" opacity="1.0" stroke="rgb(0,0,0)" stroke-width="2.0"/>
<line x1="202.5" y1="98.3" x2="236.1" y2="117.7" opacity="1.0" stroke="rgb(0,0,0)" stroke-width="2.0"/>
<line x1="211.2" y1="95.1" x2="234.5" y2="108.5" opacity="1.0" stroke="rgb(0,0,0)" stroke-width="2.0"/>
<line x1="236.1" y1="117.7" x2="269.8" y2="98.3" opacity="1.0" stroke="rgb(0,0,0)" stroke-width="2.0"/>
<line x1="269.8" y1="98.3" x2="269.8" y2="59.4" opacity="1.0" stroke="rgb(0,0,0)" stroke-width="2.0"/>
<line x1="262.6" y1="92.3" x2="262.6" y2="65.4" opacity="1.0" stroke="rgb(0,0,0)" stroke-width="2.0"/>
<line x1="135.1" y1="98.3" x2="168.8" y2="117.7" opacity="1.0" stroke="rgb(0,0,0)" stroke-width="2.0"/>
<line x1="143.9" y1="95.1" x2="167.2" y2="108.5" opacity="1.0" stroke="rgb(0,0,0)" stroke-width="2.0"/>
<line x1="168.8" y1="117.7" x2="202.5" y2="98.3" opacity="1.0" stroke="rgb(0,0,0)" stroke-width="2.0"/>
<line x1="202.5" y1="59.4" x2="168.8" y2="40.0" opacity="1.0" stroke="rgb(0,0,0)" stroke-width="2.0"/>
<line x1="168.8" y1="40.0" x2="135.1" y2="59.4" opacity="1.0" stroke="rgb(0,0,0)" stroke-width="2.0"/>
<line x1="167.2" y1="49.2" x2="143.9" y2="62.7" opacity="1.0" stroke="rgb(0,0,0)" stroke-width="2.0"/>
<line x1="135.1" y1="59.4" x2="135.1" y2="98.3" opacity="1.0" stroke="rgb(0,0,0)" stroke-width="2.0"/>
<line x1="370.7" y1="117.7" x2="348.3" y2="130.6" opacity="1.0" stroke="rgb(0,0,0)" stroke-width="2.0"/>
<line x1="337.1" y1="150.1" x2="337.1" y2="176.0" opacity="1.0" stroke="rgb(0,0,0)" stroke-width="2.0"/>
<line x1="370.7" y1="195.4" x2="393.1" y2="182.5" opacity="1.0" stroke="rgb(0,0,0)" stroke-width="2.0"/>
<line x1="404.4" y1="163.0" x2="404.4" y2="137.1" opacity="1.0" stroke="rgb(0,0,0)" stroke-width="2.0"/>
<text x="53.428571" y="172.437419" fill="rgb(178,178,0)" stroke-width="0" font-weight="bold" font-size="16">S</text>
<text x="398.359725" y="184.000000" fill="rgb(255,12,12)" stroke-width="0" font-weight="bold" font-size="16">O</text>
<text x="331.057180" y="145.142857" fill="rgb(12,12,255)" stroke-width="0" font-weight="bold" font-size="16">N</text>
</svg>
</g>
</svg>
