<svg xmlns="http://www.w3.org/2000/svg" xmlns:xlink="http://www.w3.org/1999/xlink" xmlns:cml="http://www.xml-cml.org/schema" version="1.1" id="topsvg" x="0" y="0" viewBox="0 0 100 100">
<title>I_6_S - Open Babel Depiction</title>
<rect x="0" y="0" width="100" height="100" fill="white"/>
<g transform="translate(0,0)">
<svg width="100" height="100" x="0" y="0" viewBox="0 0 550.128 423.81" font-family="sans-serif" stroke="rgb(0,0,0)" stroke-width="2" stroke-linecap="round">
<line x1="145.3" y1="268.7" x2="259.4" y2="202.9" opacity="1.0" stroke="rgb(0,0,0)" stroke-width="2.0"/>
<line x1="447.4" y1="94.3" x2="478.8" y2="76.2" opacity="1.0" stroke="rgb(0,0,0)" stroke-width="2.0"/>
<line x1="478.8" y1="76.2" x2="498.9" y2="87.8" opacity="1.0" stroke="rgb(0,0,0)" stroke-width="2.0"/>
<line x1="475.8" y1="76.2" x2="475.8" y2="53.0" opacity="1.0" stroke="rgb(0,0,0)" stroke-width="2.0"/>
<line x1="481.8" y1="76.2" x2="481.8" y2="53.0" opacity="1.0" stroke="rgb(0,0,0)" stroke-width="2.0"/>
<line x1="322.1" y1="166.7" x2="384.8" y2="130.5" opacity="1.0" stroke="rgb(0,0,0)" stroke-width="2.0"/>
<line x1="102.7" y1="365.7" x2="102.7" y2="329.5" opacity="1.0" stroke="rgb(0,0,0)" stroke-width="2.0"/>
<line x1="102.7" y1="329.5" x2="134.0" y2="311.4" opacity="1.0" stroke="rgb(0,0,0)" stroke-width="2.0"/>
<line x1="111.5" y1="332.8" x2="132.4" y2="320.7" opacity="1.0" stroke="rgb(0,0,0)" stroke-width="2.0"/>
<line x1="134.0" y1="311.4" x2="165.4" y2="329.5" opacity="1.0" stroke="rgb(0,0,0)" stroke-width="2.0"/>
<line x1="165.4" y1="329.5" x2="165.4" y2="365.7" opacity="1.0" stroke="rgb(0,0,0)" stroke-width="2.0"/>
<line x1="158.2" y1="335.5" x2="158.2" y2="359.7" opacity="1.0" stroke="rgb(0,0,0)" stroke-width="2.0"/>
<line x1="165.4" y1="365.7" x2="134.0" y2="383.8" opacity="1.0" stroke="rgb(0,0,0)" stroke-width="2.0"/>
<line x1="134.0" y1="383.8" x2="102.7" y2="365.7" opacity="1.0" stroke="rgb(0,0,0)" stroke-width="2.0"/>
<line x1="132.4" y1="374.6" x2="111.5" y2="362.5" opacity="1.0" stroke="rgb(0,0,0)" stroke-width="2.0"/>
<line x1="71.3" y1="202.9" x2="102.7" y2="221.0" opacity="1.0" stroke="rgb(0,0,0)" stroke-width="2.0"/>
<line x1="72.9" y1="212.1" x2="93.9" y2="224.2" opacity="1.0" stroke="rgb(0,0,0)" stroke-width="2.0"/>
<line x1="102.7" y1="221.0" x2="102.7" y2="257.1" opacity="1.0" stroke="rgb(0,0,0)" stroke-width="2.0"/>
<line x1="102.7" y1="257.1" x2="71.3" y2="275.2" opacity="1.0" stroke="rgb(0,0,0)" stroke-width="2.0"/>
<line x1="93.9" y1="253.9" x2="72.9" y2="266.0" opacity="1.0" stroke="rgb(0,0,0)" stroke-width="2.0"/>
<line x1="71.3" y1="275.2" x2="40.0" y2="257.1" opacity="1.0" stroke="rgb(0,0,0)" stroke-width="2.0"/>
<line x1="40.0" y1="257.1" x2="40.0" y2="221.0" opacity="1.0" stroke="rgb(0,0,0)" stroke-width="2.0"/>
<line x1="47.2" y1="251.1" x2="47.2" y2="227.0" opacity="1.0" stroke="rgb(0,0,0)" stroke-width="2.0"/>
<line x1="40.0" y1="221.0" x2="71.3" y2="202.9" opacity="1.0" stroke="rgb(0,0,0)" stroke-width="2.0"/>
<line x1="259.4" y1="166.7" x2="290.7" y2="148.6" opacity="1.0" stroke="rgb(0,0,0)" stroke-width="2.0"/>
<line x1="290.7" y1="148.6" x2="322.1" y2="166.7" opacity="1.0" stroke="rgb(0,0,0)" stroke-width="2.0"/>
<line x1="292.3" y1="157.8" x2="313.3" y2="169.9" opacity="1.0" stroke="rgb(0,0,0)" stroke-width="2.0"/>
<line x1="322.1" y1="166.7" x2="322.1" y2="202.9" opacity="1.0" stroke="rgb(0,0,0)" stroke-width="2.0"/>
<line x1="322.1" y1="202.9" x2="290.7" y2="221.0" opacity="1.0" stroke="rgb(0,0,0)" stroke-width="2.0"/>
<line x1="313.3" y1="199.6" x2="292.3" y2="211.7" opacity="1.0" stroke="rgb(0,0,0)" stroke-width="2.0"/>
<line x1="290.7" y1="221.0" x2="259.4" y2="202.9" opacity="1.0" stroke="rgb(0,0,0)" stroke-width="2.0"/>
<line x1="259.4" y1="202.9" x2="259.4" y2="166.7" opacity="1.0" stroke="rgb(0,0,0)" stroke-width="2.0"/>
<line x1="266.6" y1="196.9" x2="266.6" y2="172.7" opacity="1.0" stroke="rgb(0,0,0)" stroke-width="2.0"/>
<line x1="322.1" y1="275.2" x2="290.7" y2="257.1" opacity="1.0" stroke="rgb(0,0,0)" stroke-width="2.0"/>
<line x1="320.5" y1="266.0" x2="299.5" y2="253.9" opacity="1.0" stroke="rgb(0,0,0)" stroke-width="2.0"/>
<line x1="290.7" y1="257.1" x2="290.7" y2="221.0" opacity="1.0" stroke="rgb(0,0,0)" stroke-width="2.0"/>
<line x1="322.1" y1="202.9" x2="353.4" y2="221.0" opacity="1.0" stroke="rgb(0,0,0)" stroke-width="2.0"/>
<line x1="353.4" y1="221.0" x2="353.4" y2="257.1" opacity="1.0" stroke="rgb(0,0,0)" stroke-width="2.0"/>
<line x1="346.2" y1="227.0" x2="346.2" y2="251.1" opacity="1.0" stroke="rgb(0,0,0)" stroke-width="2.0"/>
<line x1="353.4" y1="257.1" x2="322.1" y2="275.2" opacity="1.0" stroke="rgb(0,0,0)" stroke-width="2.0"/>
<line x1="384.8" y1="94.3" x2="416.1" y2="76.2" opacity="1.0" stroke="rgb(0,0,0)" stroke-width="2.0"/>
<line x1="416.1" y1="76.2" x2="447.4" y2="94.3" opacity="1.0" stroke="rgb(0,0,0)" stroke-width="2.0"/>
<line x1="417.7" y1="85.4" x2="438.6" y2="97.5" opacity="1.0" stroke="rgb(0,0,0)" stroke-width="2.0"/>
<line x1="447.4" y1="94.3" x2="447.4" y2="130.5" opacity="1.0" stroke="rgb(0,0,0)" stroke-width="2.0"/>
<line x1="447.4" y1="130.5" x2="416.1" y2="148.6" opacity="1.0" stroke="rgb(0,0,0)" stroke-width="2.0"/>
<line x1="438.6" y1="127.2" x2="417.7" y2="139.3" opacity="1.0" stroke="rgb(0,0,0)" stroke-width="2.0"/>
<line x1="416.1" y1="148.6" x2="384.8" y2="130.5" opacity="1.0" stroke="rgb(0,0,0)" stroke-width="2.0"/>
<line x1="384.8" y1="130.5" x2="384.8" y2="94.3" opacity="1.0" stroke="rgb(0,0,0)" stroke-width="2.0"/>
<line x1="392.0" y1="124.5" x2="392.0" y2="100.3" opacity="1.0" stroke="rgb(0,0,0)" stroke-width="2.0"/>
<line x1="102.7" y1="257.1" x2="122.8" y2="268.7" opacity="1.0" stroke="rgb(0,0,0)" stroke-width="2.0"/>
<line x1="134.0" y1="288.2" x2="134.0" y2="311.4" opacity="1.0" stroke="rgb(0,0,0)" stroke-width="2.0"/>
<line x1="102.7" y1="329.5" x2="82.6" y2="317.9" opacity="1.0" stroke="rgb(0,0,0)" stroke-width="2.0"/>
<line x1="71.3" y1="298.4" x2="71.3" y2="275.2" opacity="1.0" stroke="rgb(0,0,0)" stroke-width="2.0"/>
<text x="506.128076" y="102.285714" fill="rgb(102,102,102)" stroke-width="0" font-weight="bold" font-size="16">CH</text>
<text x="530.128076" y="105.965714" fill="rgb(102,102,102)" stroke-width="0" font-weight="bold" font-size="13">3</text>
<text x="472.786205" y="48.000000" fill="rgb(255,12,12)" stroke-width="0" font-weight="bold" font-size="16">O</text>
<text x="65.341872" y="319.428571" fill="rgb(255,12,12)" stroke-width="0" font-weight="bold" font-size="16">O</text>
<text x="128.025615" y="283.238095" fill="rgb(12,12,255)" stroke-width="0" font-weight="bold" font-size="16">N</text>
</svg>
</g>
</svg>