<svg xmlns="http://www.w3.org/2000/svg" xmlns:xlink="http://www.w3.org/1999/xlink" xmlns:cml="http://www.xml-cml.org/schema" version="1.1" id="topsvg" x="0" y="0" viewBox="0 0 100 100">
<title>I_6_R - Open Babel Depiction</title>
<rect x="0" y="0" width="100" height="100" fill="white"/>
<g transform="translate(0,0)">
<svg width="100" height="100" x="0" y="0" viewBox="0 0 529.488 413.659" font-family="sans-serif" stroke="rgb(0,0,0)" stroke-width="2" stroke-linecap="round">
<line x1="147.6" y1="255.9" x2="264.7" y2="188.3" opacity="1.0" stroke="rgb(0,0,0)" stroke-width="2.0"/>
<line x1="454.4" y1="64.1" x2="454.4" y2="53.0" opacity="1.0" stroke="rgb(0,0,0)" stroke-width="2.0"/>
<line x1="460.4" y1="64.1" x2="460.4" y2="53.0" opacity="1.0" stroke="rgb(0,0,0)" stroke-width="2.0"/>
<line x1="468.6" y1="83.6" x2="478.2" y2="89.1" opacity="1.0" stroke="rgb(0,0,0)" stroke-width="2.0"/>
<line x1="425.3" y1="95.6" x2="446.1" y2="83.6" opacity="1.0" stroke="rgb(0,0,0)" stroke-width="2.0"/>
<line x1="329.0" y1="151.2" x2="361.1" y2="132.7" opacity="1.0" stroke="rgb(0,0,0)" stroke-width="2.0"/>
<line x1="104.2" y1="355.1" x2="104.2" y2="318.0" opacity="1.0" stroke="rgb(0,0,0)" stroke-width="2.0"/>
<line x1="104.2" y1="318.0" x2="136.3" y2="299.5" opacity="1.0" stroke="rgb(0,0,0)" stroke-width="2.0"/>
<line x1="113.0" y1="321.3" x2="134.7" y2="308.7" opacity="1.0" stroke="rgb(0,0,0)" stroke-width="2.0"/>
<line x1="136.3" y1="299.5" x2="168.4" y2="318.0" opacity="1.0" stroke="rgb(0,0,0)" stroke-width="2.0"/>
<line x1="168.4" y1="318.0" x2="168.4" y2="355.1" opacity="1.0" stroke="rgb(0,0,0)" stroke-width="2.0"/>
<line x1="161.2" y1="324.0" x2="161.2" y2="349.1" opacity="1.0" stroke="rgb(0,0,0)" stroke-width="2.0"/>
<line x1="168.4" y1="355.1" x2="136.3" y2="373.7" opacity="1.0" stroke="rgb(0,0,0)" stroke-width="2.0"/>
<line x1="136.3" y1="373.7" x2="104.2" y2="355.1" opacity="1.0" stroke="rgb(0,0,0)" stroke-width="2.0"/>
<line x1="134.7" y1="364.4" x2="113.0" y2="351.9" opacity="1.0" stroke="rgb(0,0,0)" stroke-width="2.0"/>
<line x1="72.1" y1="188.3" x2="104.2" y2="206.8" opacity="1.0" stroke="rgb(0,0,0)" stroke-width="2.0"/>
<line x1="73.7" y1="197.5" x2="95.4" y2="210.1" opacity="1.0" stroke="rgb(0,0,0)" stroke-width="2.0"/>
<line x1="104.2" y1="206.8" x2="104.2" y2="243.9" opacity="1.0" stroke="rgb(0,0,0)" stroke-width="2.0"/>
<line x1="104.2" y1="243.9" x2="72.1" y2="262.4" opacity="1.0" stroke="rgb(0,0,0)" stroke-width="2.0"/>
<line x1="95.4" y1="240.7" x2="73.7" y2="253.2" opacity="1.0" stroke="rgb(0,0,0)" stroke-width="2.0"/>
<line x1="72.1" y1="262.4" x2="40.0" y2="243.9" opacity="1.0" stroke="rgb(0,0,0)" stroke-width="2.0"/>
<line x1="40.0" y1="243.9" x2="40.0" y2="206.8" opacity="1.0" stroke="rgb(0,0,0)" stroke-width="2.0"/>
<line x1="47.2" y1="237.9" x2="47.2" y2="212.8" opacity="1.0" stroke="rgb(0,0,0)" stroke-width="2.0"/>
<line x1="40.0" y1="206.8" x2="72.1" y2="188.3" opacity="1.0" stroke="rgb(0,0,0)" stroke-width="2.0"/>
<line x1="264.7" y1="151.2" x2="296.9" y2="132.7" opacity="1.0" stroke="rgb(0,0,0)" stroke-width="2.0"/>
<line x1="296.9" y1="132.7" x2="329.0" y2="151.2" opacity="1.0" stroke="rgb(0,0,0)" stroke-width="2.0"/>
<line x1="298.4" y1="141.9" x2="320.2" y2="154.5" opacity="1.0" stroke="rgb(0,0,0)" stroke-width="2.0"/>
<line x1="329.0" y1="151.2" x2="329.0" y2="188.3" opacity="1.0" stroke="rgb(0,0,0)" stroke-width="2.0"/>
<line x1="329.0" y1="188.3" x2="296.9" y2="206.8" opacity="1.0" stroke="rgb(0,0,0)" stroke-width="2.0"/>
<line x1="320.2" y1="185.1" x2="298.4" y2="197.6" opacity="1.0" stroke="rgb(0,0,0)" stroke-width="2.0"/>
<line x1="296.9" y1="206.8" x2="264.7" y2="188.3" opacity="1.0" stroke="rgb(0,0,0)" stroke-width="2.0"/>
<line x1="264.7" y1="188.3" x2="264.7" y2="151.2" opacity="1.0" stroke="rgb(0,0,0)" stroke-width="2.0"/>
<line x1="271.9" y1="182.3" x2="271.9" y2="157.2" opacity="1.0" stroke="rgb(0,0,0)" stroke-width="2.0"/>
<line x1="329.0" y1="262.4" x2="296.9" y2="243.9" opacity="1.0" stroke="rgb(0,0,0)" stroke-width="2.0"/>
<line x1="327.4" y1="253.2" x2="305.6" y2="240.7" opacity="1.0" stroke="rgb(0,0,0)" stroke-width="2.0"/>
<line x1="296.9" y1="243.9" x2="296.9" y2="206.8" opacity="1.0" stroke="rgb(0,0,0)" stroke-width="2.0"/>
<line x1="329.0" y1="188.3" x2="361.1" y2="206.8" opacity="1.0" stroke="rgb(0,0,0)" stroke-width="2.0"/>
<line x1="361.1" y1="206.8" x2="361.1" y2="243.9" opacity="1.0" stroke="rgb(0,0,0)" stroke-width="2.0"/>
<line x1="353.9" y1="212.8" x2="353.9" y2="237.9" opacity="1.0" stroke="rgb(0,0,0)" stroke-width="2.0"/>
<line x1="361.1" y1="243.9" x2="329.0" y2="262.4" opacity="1.0" stroke="rgb(0,0,0)" stroke-width="2.0"/>
<line x1="404.4" y1="144.7" x2="425.3" y2="132.7" opacity="1.0" stroke="rgb(0,0,0)" stroke-width="2.0"/>
<line x1="425.3" y1="132.7" x2="425.3" y2="95.6" opacity="1.0" stroke="rgb(0,0,0)" stroke-width="2.0"/>
<line x1="418.1" y1="126.7" x2="418.1" y2="101.6" opacity="1.0" stroke="rgb(0,0,0)" stroke-width="2.0"/>
<line x1="425.3" y1="95.6" x2="393.2" y2="77.1" opacity="1.0" stroke="rgb(0,0,0)" stroke-width="2.0"/>
<line x1="393.2" y1="77.1" x2="361.1" y2="95.6" opacity="1.0" stroke="rgb(0,0,0)" stroke-width="2.0"/>
<line x1="391.6" y1="86.3" x2="369.9" y2="98.8" opacity="1.0" stroke="rgb(0,0,0)" stroke-width="2.0"/>
<line x1="361.1" y1="95.6" x2="361.1" y2="132.7" opacity="1.0" stroke="rgb(0,0,0)" stroke-width="2.0"/>
<line x1="361.1" y1="132.7" x2="382.6" y2="145.1" opacity="1.0" stroke="rgb(0,0,0)" stroke-width="2.0"/>
<line x1="369.9" y1="129.4" x2="384.2" y2="137.7" opacity="1.0" stroke="rgb(0,0,0)" stroke-width="2.0"/>
<line x1="104.2" y1="243.9" x2="125.1" y2="255.9" opacity="1.0" stroke="rgb(0,0,0)" stroke-width="2.0"/>
<line x1="136.3" y1="275.4" x2="136.3" y2="299.5" opacity="1.0" stroke="rgb(0,0,0)" stroke-width="2.0"/>
<line x1="104.2" y1="318.0" x2="83.4" y2="306.0" opacity="1.0" stroke="rgb(0,0,0)" stroke-width="2.0"/>
<line x1="72.1" y1="286.5" x2="72.1" y2="262.4" opacity="1.0" stroke="rgb(0,0,0)" stroke-width="2.0"/>
<text x="387.169384" y="159.219512" fill="rgb(12,12,255)" stroke-width="0" font-weight="bold" font-size="16">N</text>
<text x="451.381999" y="85.073171" fill="rgb(12,12,255)" stroke-width="0" font-weight="bold" font-size="16">N</text>
<text x="451.381999" y="48.000000" fill="rgb(255,12,12)" stroke-width="0" font-weight="bold" font-size="16">O</text>
<text x="494.288307" y="91.577756" fill="rgb(255,12,12)" stroke-width="0" font-weight="bold" font-size="16"/>
<text x="494.288307" y="91.577756" fill="rgb(255,12,12)" stroke-width="0" font-weight="bold" font-size="32">.</text>
<text x="483.488307" y="103.609756" fill="rgb(255,12,12)" stroke-width="0" font-weight="bold" font-size="16">O</text>
<text x="66.106308" y="307.512195" fill="rgb(255,12,12)" stroke-width="0" font-weight="bold" font-size="16">O</text>
<text x="130.318923" y="270.439024" fill="rgb(12,12,255)" stroke-width="0" font-weight="bold" font-size="16">N</text>
</svg>
</g>
</svg>