<svg xmlns="http://www.w3.org/2000/svg" x="0" y="0" viewBox="0 0 100 100">
<title>I_6_M - Open Babel Depiction</title>
<rect x="0" y="0" width="100" height="100" fill="white"/>
<g transform="translate(0,0)">
<svg width="100" height="100" x="0" y="0" viewBox="0 0 548.921 404.878" font-family="sans-serif" stroke="rgb(0,0,0)" stroke-width="2" stroke-linecap="round">
<line x1="403.9" y1="250.1" x2="290.1" y2="184.4" opacity="1.0" stroke="rgb(0,0,0)" stroke-width="2.0"/>
<line x1="71.3" y1="58.0" x2="51.3" y2="46.5" opacity="1.0" stroke="rgb(0,0,0)" stroke-width="2.0"/>
<line x1="69.2" y1="61.7" x2="49.2" y2="50.1" opacity="1.0" stroke="rgb(0,0,0)" stroke-width="2.0"/>
<line x1="73.4" y1="54.4" x2="53.4" y2="42.9" opacity="1.0" stroke="rgb(0,0,0)" stroke-width="2.0"/>
<line x1="102.5" y1="76.1" x2="71.3" y2="58.0" opacity="1.0" stroke="rgb(0,0,0)" stroke-width="2.0"/>
<line x1="227.6" y1="148.3" x2="165.0" y2="112.2" opacity="1.0" stroke="rgb(0,0,0)" stroke-width="2.0"/>
<line x1="508.9" y1="238.5" x2="477.7" y2="256.6" opacity="1.0" stroke="rgb(0,0,0)" stroke-width="2.0"/>
<line x1="477.7" y1="256.6" x2="446.4" y2="238.5" opacity="1.0" stroke="rgb(0,0,0)" stroke-width="2.0"/>
<line x1="476.1" y1="247.3" x2="455.2" y2="235.3" opacity="1.0" stroke="rgb(0,0,0)" stroke-width="2.0"/>
<line x1="446.4" y1="238.5" x2="446.4" y2="202.4" opacity="1.0" stroke="rgb(0,0,0)" stroke-width="2.0"/>
<line x1="446.4" y1="202.4" x2="477.7" y2="184.4" opacity="1.0" stroke="rgb(0,0,0)" stroke-width="2.0"/>
<line x1="455.2" y1="205.7" x2="476.1" y2="193.6" opacity="1.0" stroke="rgb(0,0,0)" stroke-width="2.0"/>
<line x1="477.7" y1="184.4" x2="508.9" y2="202.4" opacity="1.0" stroke="rgb(0,0,0)" stroke-width="2.0"/>
<line x1="508.9" y1="202.4" x2="508.9" y2="238.5" opacity="1.0" stroke="rgb(0,0,0)" stroke-width="2.0"/>
<line x1="501.7" y1="208.4" x2="501.7" y2="232.5" opacity="1.0" stroke="rgb(0,0,0)" stroke-width="2.0"/>
<line x1="383.9" y1="346.8" x2="383.9" y2="310.7" opacity="1.0" stroke="rgb(0,0,0)" stroke-width="2.0"/>
<line x1="391.1" y1="340.8" x2="391.1" y2="316.7" opacity="1.0" stroke="rgb(0,0,0)" stroke-width="2.0"/>
<line x1="383.9" y1="310.7" x2="415.1" y2="292.7" opacity="1.0" stroke="rgb(0,0,0)" stroke-width="2.0"/>
<line x1="415.1" y1="292.7" x2="446.4" y2="310.7" opacity="1.0" stroke="rgb(0,0,0)" stroke-width="2.0"/>
<line x1="416.7" y1="301.9" x2="437.6" y2="314.0" opacity="1.0" stroke="rgb(0,0,0)" stroke-width="2.0"/>
<line x1="446.4" y1="310.7" x2="446.4" y2="346.8" opacity="1.0" stroke="rgb(0,0,0)" stroke-width="2.0"/>
<line x1="446.4" y1="346.8" x2="415.1" y2="364.9" opacity="1.0" stroke="rgb(0,0,0)" stroke-width="2.0"/>
<line x1="437.6" y1="343.6" x2="416.7" y2="355.6" opacity="1.0" stroke="rgb(0,0,0)" stroke-width="2.0"/>
<line x1="415.1" y1="364.9" x2="383.9" y2="346.8" opacity="1.0" stroke="rgb(0,0,0)" stroke-width="2.0"/>
<line x1="258.8" y1="202.4" x2="227.6" y2="184.4" opacity="1.0" stroke="rgb(0,0,0)" stroke-width="2.0"/>
<line x1="227.6" y1="184.4" x2="227.6" y2="148.3" opacity="1.0" stroke="rgb(0,0,0)" stroke-width="2.0"/>
<line x1="234.8" y1="178.4" x2="234.8" y2="154.3" opacity="1.0" stroke="rgb(0,0,0)" stroke-width="2.0"/>
<line x1="227.6" y1="148.3" x2="258.8" y2="130.2" opacity="1.0" stroke="rgb(0,0,0)" stroke-width="2.0"/>
<line x1="258.8" y1="130.2" x2="290.1" y2="148.3" opacity="1.0" stroke="rgb(0,0,0)" stroke-width="2.0"/>
<line x1="260.4" y1="139.5" x2="281.3" y2="151.5" opacity="1.0" stroke="rgb(0,0,0)" stroke-width="2.0"/>
<line x1="290.1" y1="148.3" x2="290.1" y2="184.4" opacity="1.0" stroke="rgb(0,0,0)" stroke-width="2.0"/>
<line x1="290.1" y1="184.4" x2="258.8" y2="202.4" opacity="1.0" stroke="rgb(0,0,0)" stroke-width="2.0"/>
<line x1="281.3" y1="181.2" x2="260.4" y2="193.2" opacity="1.0" stroke="rgb(0,0,0)" stroke-width="2.0"/>
<line x1="321.4" y1="94.1" x2="321.4" y2="130.2" opacity="1.0" stroke="rgb(0,0,0)" stroke-width="2.0"/>
<line x1="314.2" y1="100.1" x2="314.2" y2="124.2" opacity="1.0" stroke="rgb(0,0,0)" stroke-width="2.0"/>
<line x1="321.4" y1="130.2" x2="290.1" y2="148.3" opacity="1.0" stroke="rgb(0,0,0)" stroke-width="2.0"/>
<line x1="258.8" y1="130.2" x2="258.8" y2="94.1" opacity="1.0" stroke="rgb(0,0,0)" stroke-width="2.0"/>
<line x1="258.8" y1="94.1" x2="290.1" y2="76.1" opacity="1.0" stroke="rgb(0,0,0)" stroke-width="2.0"/>
<line x1="267.6" y1="97.4" x2="288.5" y2="85.3" opacity="1.0" stroke="rgb(0,0,0)" stroke-width="2.0"/>
<line x1="290.1" y1="76.1" x2="321.4" y2="94.1" opacity="1.0" stroke="rgb(0,0,0)" stroke-width="2.0"/>
<line x1="133.8" y1="130.2" x2="102.5" y2="112.2" opacity="1.0" stroke="rgb(0,0,0)" stroke-width="2.0"/>
<line x1="102.5" y1="112.2" x2="102.5" y2="76.1" opacity="1.0" stroke="rgb(0,0,0)" stroke-width="2.0"/>
<line x1="109.7" y1="106.2" x2="109.7" y2="82.1" opacity="1.0" stroke="rgb(0,0,0)" stroke-width="2.0"/>
<line x1="102.5" y1="76.1" x2="133.8" y2="58.0" opacity="1.0" stroke="rgb(0,0,0)" stroke-width="2.0"/>
<line x1="133.8" y1="58.0" x2="165.0" y2="76.1" opacity="1.0" stroke="rgb(0,0,0)" stroke-width="2.0"/>
<line x1="135.4" y1="67.3" x2="156.2" y2="79.3" opacity="1.0" stroke="rgb(0,0,0)" stroke-width="2.0"/>
<line x1="165.0" y1="76.1" x2="165.0" y2="112.2" opacity="1.0" stroke="rgb(0,0,0)" stroke-width="2.0"/>
<line x1="165.0" y1="112.2" x2="133.8" y2="130.2" opacity="1.0" stroke="rgb(0,0,0)" stroke-width="2.0"/>
<line x1="156.2" y1="109.0" x2="135.4" y2="121.0" opacity="1.0" stroke="rgb(0,0,0)" stroke-width="2.0"/>
<line x1="415.1" y1="292.7" x2="415.1" y2="269.6" opacity="1.0" stroke="rgb(0,0,0)" stroke-width="2.0"/>
<line x1="426.4" y1="250.1" x2="446.4" y2="238.5" opacity="1.0" stroke="rgb(0,0,0)" stroke-width="2.0"/>
<line x1="477.7" y1="256.6" x2="477.7" y2="279.7" opacity="1.0" stroke="rgb(0,0,0)" stroke-width="2.0"/>
<line x1="466.4" y1="299.2" x2="446.4" y2="310.7" opacity="1.0" stroke="rgb(0,0,0)" stroke-width="2.0"/>
<text x="34.000000" y="48.000000" fill="rgb(12,12,255)" stroke-width="0" font-weight="bold" font-size="16">N</text>
<text x="471.659667" y="300.682927" fill="rgb(255,12,12)" stroke-width="0" font-weight="bold" font-size="16">O</text>
<text x="409.136858" y="264.585366" fill="rgb(12,12,255)" stroke-width="0" font-weight="bold" font-size="16">N</text>
</svg>
</g>
</svg>
