<svg xmlns="http://www.w3.org/2000/svg" xmlns:xlink="http://www.w3.org/1999/xlink" xmlns:cml="http://www.xml-cml.org/schema" version="1.1" id="topsvg" x="0" y="0" viewBox="0 0 100 100">
<title>I_6_N - Open Babel Depiction</title>
<rect x="0" y="0" width="100" height="100" fill="white"/>
<g transform="translate(0,0)">
<svg width="100" height="100" x="0" y="0" viewBox="0 0 456.497 363.116" font-family="sans-serif" stroke="rgb(0,0,0)" stroke-width="2" stroke-linecap="round">
<line x1="309.7" y1="156.8" x2="193.7" y2="223.8" opacity="1.0" stroke="rgb(0,0,0)" stroke-width="2.0"/>
<line x1="130.0" y1="260.5" x2="98.2" y2="278.9" opacity="1.0" stroke="rgb(0,0,0)" stroke-width="2.0"/>
<line x1="94.3" y1="315.5" x2="71.1" y2="320.4" opacity="1.0" stroke="rgb(0,0,0)" stroke-width="2.0"/>
<line x1="51.9" y1="311.9" x2="40.0" y2="291.3" opacity="1.0" stroke="rgb(0,0,0)" stroke-width="2.0"/>
<line x1="40.0" y1="291.3" x2="64.6" y2="264.0" opacity="1.0" stroke="rgb(0,0,0)" stroke-width="2.0"/>
<line x1="49.4" y1="291.6" x2="65.9" y2="273.2" opacity="1.0" stroke="rgb(0,0,0)" stroke-width="2.0"/>
<line x1="64.6" y1="264.0" x2="98.2" y2="278.9" opacity="1.0" stroke="rgb(0,0,0)" stroke-width="2.0"/>
<line x1="98.2" y1="278.9" x2="94.3" y2="315.5" opacity="1.0" stroke="rgb(0,0,0)" stroke-width="2.0"/>
<line x1="90.4" y1="284.1" x2="87.8" y2="308.8" opacity="1.0" stroke="rgb(0,0,0)" stroke-width="2.0"/>
<line x1="416.5" y1="168.6" x2="384.7" y2="150.3" opacity="1.0" stroke="rgb(0,0,0)" stroke-width="2.0"/>
<line x1="384.7" y1="150.3" x2="352.8" y2="168.6" opacity="1.0" stroke="rgb(0,0,0)" stroke-width="2.0"/>
<line x1="383.1" y1="159.5" x2="361.6" y2="171.9" opacity="1.0" stroke="rgb(0,0,0)" stroke-width="2.0"/>
<line x1="352.8" y1="168.6" x2="352.8" y2="205.4" opacity="1.0" stroke="rgb(0,0,0)" stroke-width="2.0"/>
<line x1="352.8" y1="205.4" x2="384.7" y2="223.8" opacity="1.0" stroke="rgb(0,0,0)" stroke-width="2.0"/>
<line x1="361.6" y1="202.2" x2="383.1" y2="214.5" opacity="1.0" stroke="rgb(0,0,0)" stroke-width="2.0"/>
<line x1="384.7" y1="223.8" x2="416.5" y2="205.4" opacity="1.0" stroke="rgb(0,0,0)" stroke-width="2.0"/>
<line x1="416.5" y1="205.4" x2="416.5" y2="168.6" opacity="1.0" stroke="rgb(0,0,0)" stroke-width="2.0"/>
<line x1="409.3" y1="199.4" x2="409.3" y2="174.6" opacity="1.0" stroke="rgb(0,0,0)" stroke-width="2.0"/>
<line x1="289.2" y1="58.4" x2="289.2" y2="95.1" opacity="1.0" stroke="rgb(0,0,0)" stroke-width="2.0"/>
<line x1="296.4" y1="64.4" x2="296.4" y2="89.1" opacity="1.0" stroke="rgb(0,0,0)" stroke-width="2.0"/>
<line x1="289.2" y1="95.1" x2="321.0" y2="113.5" opacity="1.0" stroke="rgb(0,0,0)" stroke-width="2.0"/>
<line x1="321.0" y1="113.5" x2="352.8" y2="95.1" opacity="1.0" stroke="rgb(0,0,0)" stroke-width="2.0"/>
<line x1="322.6" y1="104.3" x2="344.0" y2="91.9" opacity="1.0" stroke="rgb(0,0,0)" stroke-width="2.0"/>
<line x1="352.8" y1="95.1" x2="352.8" y2="58.4" opacity="1.0" stroke="rgb(0,0,0)" stroke-width="2.0"/>
<line x1="352.8" y1="58.4" x2="321.0" y2="40.0" opacity="1.0" stroke="rgb(0,0,0)" stroke-width="2.0"/>
<line x1="344.0" y1="61.6" x2="322.6" y2="49.2" opacity="1.0" stroke="rgb(0,0,0)" stroke-width="2.0"/>
<line x1="321.0" y1="40.0" x2="289.2" y2="58.4" opacity="1.0" stroke="rgb(0,0,0)" stroke-width="2.0"/>
<line x1="193.7" y1="260.5" x2="161.8" y2="278.9" opacity="1.0" stroke="rgb(0,0,0)" stroke-width="2.0"/>
<line x1="161.8" y1="278.9" x2="130.0" y2="260.5" opacity="1.0" stroke="rgb(0,0,0)" stroke-width="2.0"/>
<line x1="160.2" y1="269.7" x2="138.8" y2="257.3" opacity="1.0" stroke="rgb(0,0,0)" stroke-width="2.0"/>
<line x1="130.0" y1="260.5" x2="130.0" y2="223.8" opacity="1.0" stroke="rgb(0,0,0)" stroke-width="2.0"/>
<line x1="130.0" y1="223.8" x2="161.8" y2="205.4" opacity="1.0" stroke="rgb(0,0,0)" stroke-width="2.0"/>
<line x1="138.8" y1="227.0" x2="160.2" y2="214.6" opacity="1.0" stroke="rgb(0,0,0)" stroke-width="2.0"/>
<line x1="161.8" y1="205.4" x2="193.7" y2="223.8" opacity="1.0" stroke="rgb(0,0,0)" stroke-width="2.0"/>
<line x1="193.7" y1="223.8" x2="193.7" y2="260.5" opacity="1.0" stroke="rgb(0,0,0)" stroke-width="2.0"/>
<line x1="186.5" y1="229.8" x2="186.5" y2="254.5" opacity="1.0" stroke="rgb(0,0,0)" stroke-width="2.0"/>
<line x1="130.0" y1="150.3" x2="161.8" y2="168.6" opacity="1.0" stroke="rgb(0,0,0)" stroke-width="2.0"/>
<line x1="131.6" y1="159.5" x2="153.0" y2="171.9" opacity="1.0" stroke="rgb(0,0,0)" stroke-width="2.0"/>
<line x1="161.8" y1="168.6" x2="161.8" y2="205.4" opacity="1.0" stroke="rgb(0,0,0)" stroke-width="2.0"/>
<line x1="130.0" y1="223.8" x2="98.2" y2="205.4" opacity="1.0" stroke="rgb(0,0,0)" stroke-width="2.0"/>
<line x1="98.2" y1="205.4" x2="98.2" y2="168.6" opacity="1.0" stroke="rgb(0,0,0)" stroke-width="2.0"/>
<line x1="105.4" y1="199.4" x2="105.4" y2="174.6" opacity="1.0" stroke="rgb(0,0,0)" stroke-width="2.0"/>
<line x1="98.2" y1="168.6" x2="130.0" y2="150.3" opacity="1.0" stroke="rgb(0,0,0)" stroke-width="2.0"/>
<line x1="321.0" y1="113.5" x2="321.0" y2="137.3" opacity="1.0" stroke="rgb(0,0,0)" stroke-width="2.0"/>
<line x1="332.3" y1="156.8" x2="352.8" y2="168.6" opacity="1.0" stroke="rgb(0,0,0)" stroke-width="2.0"/>
<line x1="384.7" y1="150.3" x2="384.7" y2="126.5" opacity="1.0" stroke="rgb(0,0,0)" stroke-width="2.0"/>
<line x1="373.4" y1="107.0" x2="352.8" y2="95.1" opacity="1.0" stroke="rgb(0,0,0)" stroke-width="2.0"/>
<text x="52.378378" y="331.116478" fill="rgb(178,178,0)" stroke-width="0" font-weight="bold" font-size="16">S</text>
<text x="378.664605" y="121.513514" fill="rgb(255,12,12)" stroke-width="0" font-weight="bold" font-size="16">O</text>
<text x="315.000035" y="158.270270" fill="rgb(12,12,255)" stroke-width="0" font-weight="bold" font-size="16">N</text>
</svg>
</g>
</svg>