<svg xmlns="http://www.w3.org/2000/svg" x="0" y="0" viewBox="0 0 100 100">
<title>I_6_P - Open Babel Depiction</title>
<rect x="0" y="0" width="100" height="100" fill="white"/>
<g transform="translate(0,0)">
<svg width="100" height="100" x="0" y="0" viewBox="0 0 517.66 422.927" font-family="sans-serif" stroke="rgb(0,0,0)" stroke-width="2" stroke-linecap="round">
<line x1="145.0" y1="268.1" x2="258.8" y2="202.4" opacity="1.0" stroke="rgb(0,0,0)" stroke-width="2.0"/>
<line x1="477.7" y1="63.1" x2="477.7" y2="53.0" opacity="1.0" stroke="rgb(0,0,0)" stroke-width="2.0"/>
<line x1="446.4" y1="94.1" x2="466.4" y2="82.6" opacity="1.0" stroke="rgb(0,0,0)" stroke-width="2.0"/>
<line x1="321.4" y1="166.3" x2="383.9" y2="130.2" opacity="1.0" stroke="rgb(0,0,0)" stroke-width="2.0"/>
<line x1="102.5" y1="364.9" x2="102.5" y2="328.8" opacity="1.0" stroke="rgb(0,0,0)" stroke-width="2.0"/>
<line x1="102.5" y1="328.8" x2="133.8" y2="310.7" opacity="1.0" stroke="rgb(0,0,0)" stroke-width="2.0"/>
<line x1="111.3" y1="332.0" x2="132.2" y2="320.0" opacity="1.0" stroke="rgb(0,0,0)" stroke-width="2.0"/>
<line x1="133.8" y1="310.7" x2="165.0" y2="328.8" opacity="1.0" stroke="rgb(0,0,0)" stroke-width="2.0"/>
<line x1="165.0" y1="328.8" x2="165.0" y2="364.9" opacity="1.0" stroke="rgb(0,0,0)" stroke-width="2.0"/>
<line x1="157.8" y1="334.8" x2="157.8" y2="358.9" opacity="1.0" stroke="rgb(0,0,0)" stroke-width="2.0"/>
<line x1="165.0" y1="364.9" x2="133.8" y2="382.9" opacity="1.0" stroke="rgb(0,0,0)" stroke-width="2.0"/>
<line x1="133.8" y1="382.9" x2="102.5" y2="364.9" opacity="1.0" stroke="rgb(0,0,0)" stroke-width="2.0"/>
<line x1="132.2" y1="373.7" x2="111.3" y2="361.6" opacity="1.0" stroke="rgb(0,0,0)" stroke-width="2.0"/>
<line x1="71.3" y1="202.4" x2="102.5" y2="220.5" opacity="1.0" stroke="rgb(0,0,0)" stroke-width="2.0"/>
<line x1="72.9" y1="211.7" x2="93.7" y2="223.7" opacity="1.0" stroke="rgb(0,0,0)" stroke-width="2.0"/>
<line x1="102.5" y1="220.5" x2="102.5" y2="256.6" opacity="1.0" stroke="rgb(0,0,0)" stroke-width="2.0"/>
<line x1="102.5" y1="256.6" x2="71.3" y2="274.6" opacity="1.0" stroke="rgb(0,0,0)" stroke-width="2.0"/>
<line x1="93.7" y1="253.3" x2="72.9" y2="265.4" opacity="1.0" stroke="rgb(0,0,0)" stroke-width="2.0"/>
<line x1="71.3" y1="274.6" x2="40.0" y2="256.6" opacity="1.0" stroke="rgb(0,0,0)" stroke-width="2.0"/>
<line x1="40.0" y1="256.6" x2="40.0" y2="220.5" opacity="1.0" stroke="rgb(0,0,0)" stroke-width="2.0"/>
<line x1="47.2" y1="250.6" x2="47.2" y2="226.5" opacity="1.0" stroke="rgb(0,0,0)" stroke-width="2.0"/>
<line x1="40.0" y1="220.5" x2="71.3" y2="202.4" opacity="1.0" stroke="rgb(0,0,0)" stroke-width="2.0"/>
<line x1="258.8" y1="166.3" x2="290.1" y2="148.3" opacity="1.0" stroke="rgb(0,0,0)" stroke-width="2.0"/>
<line x1="290.1" y1="148.3" x2="321.4" y2="166.3" opacity="1.0" stroke="rgb(0,0,0)" stroke-width="2.0"/>
<line x1="291.7" y1="157.5" x2="312.6" y2="169.6" opacity="1.0" stroke="rgb(0,0,0)" stroke-width="2.0"/>
<line x1="321.4" y1="166.3" x2="321.4" y2="202.4" opacity="1.0" stroke="rgb(0,0,0)" stroke-width="2.0"/>
<line x1="321.4" y1="202.4" x2="290.1" y2="220.5" opacity="1.0" stroke="rgb(0,0,0)" stroke-width="2.0"/>
<line x1="312.6" y1="199.2" x2="291.7" y2="211.3" opacity="1.0" stroke="rgb(0,0,0)" stroke-width="2.0"/>
<line x1="290.1" y1="220.5" x2="258.8" y2="202.4" opacity="1.0" stroke="rgb(0,0,0)" stroke-width="2.0"/>
<line x1="258.8" y1="202.4" x2="258.8" y2="166.3" opacity="1.0" stroke="rgb(0,0,0)" stroke-width="2.0"/>
<line x1="266.0" y1="196.4" x2="266.0" y2="172.3" opacity="1.0" stroke="rgb(0,0,0)" stroke-width="2.0"/>
<line x1="321.4" y1="274.6" x2="290.1" y2="256.6" opacity="1.0" stroke="rgb(0,0,0)" stroke-width="2.0"/>
<line x1="319.8" y1="265.4" x2="298.9" y2="253.3" opacity="1.0" stroke="rgb(0,0,0)" stroke-width="2.0"/>
<line x1="290.1" y1="256.6" x2="290.1" y2="220.5" opacity="1.0" stroke="rgb(0,0,0)" stroke-width="2.0"/>
<line x1="321.4" y1="202.4" x2="352.6" y2="220.5" opacity="1.0" stroke="rgb(0,0,0)" stroke-width="2.0"/>
<line x1="352.6" y1="220.5" x2="352.6" y2="256.6" opacity="1.0" stroke="rgb(0,0,0)" stroke-width="2.0"/>
<line x1="345.4" y1="226.5" x2="345.4" y2="250.6" opacity="1.0" stroke="rgb(0,0,0)" stroke-width="2.0"/>
<line x1="352.6" y1="256.6" x2="321.4" y2="274.6" opacity="1.0" stroke="rgb(0,0,0)" stroke-width="2.0"/>
<line x1="383.9" y1="94.1" x2="415.1" y2="76.1" opacity="1.0" stroke="rgb(0,0,0)" stroke-width="2.0"/>
<line x1="415.1" y1="76.1" x2="446.4" y2="94.1" opacity="1.0" stroke="rgb(0,0,0)" stroke-width="2.0"/>
<line x1="416.7" y1="85.3" x2="437.6" y2="97.4" opacity="1.0" stroke="rgb(0,0,0)" stroke-width="2.0"/>
<line x1="446.4" y1="94.1" x2="446.4" y2="130.2" opacity="1.0" stroke="rgb(0,0,0)" stroke-width="2.0"/>
<line x1="446.4" y1="130.2" x2="415.1" y2="148.3" opacity="1.0" stroke="rgb(0,0,0)" stroke-width="2.0"/>
<line x1="437.6" y1="127.0" x2="416.7" y2="139.1" opacity="1.0" stroke="rgb(0,0,0)" stroke-width="2.0"/>
<line x1="415.1" y1="148.3" x2="383.9" y2="130.2" opacity="1.0" stroke="rgb(0,0,0)" stroke-width="2.0"/>
<line x1="383.9" y1="130.2" x2="383.9" y2="94.1" opacity="1.0" stroke="rgb(0,0,0)" stroke-width="2.0"/>
<line x1="391.1" y1="124.2" x2="391.1" y2="100.1" opacity="1.0" stroke="rgb(0,0,0)" stroke-width="2.0"/>
<line x1="102.5" y1="256.6" x2="122.5" y2="268.1" opacity="1.0" stroke="rgb(0,0,0)" stroke-width="2.0"/>
<line x1="133.8" y1="287.6" x2="133.8" y2="310.7" opacity="1.0" stroke="rgb(0,0,0)" stroke-width="2.0"/>
<line x1="102.5" y1="328.8" x2="82.5" y2="317.2" opacity="1.0" stroke="rgb(0,0,0)" stroke-width="2.0"/>
<line x1="71.3" y1="297.7" x2="71.3" y2="274.6" opacity="1.0" stroke="rgb(0,0,0)" stroke-width="2.0"/>
<text x="473.659667" y="48.000000" fill="rgb(102,102,102)" stroke-width="0" font-weight="bold" font-size="16">CH</text>
<text x="497.659667" y="51.680000" fill="rgb(102,102,102)" stroke-width="0" font-weight="bold" font-size="13">3</text>
<text x="471.659667" y="84.097561" fill="rgb(255,12,12)" stroke-width="0" font-weight="bold" font-size="16">O</text>
<text x="65.261405" y="318.731707" fill="rgb(255,12,12)" stroke-width="0" font-weight="bold" font-size="16">O</text>
<text x="127.784214" y="282.634146" fill="rgb(12,12,255)" stroke-width="0" font-weight="bold" font-size="16">N</text>
</svg>
</g>
</svg>
