<svg xmlns="http://www.w3.org/2000/svg" x="0" y="0" viewBox="0 0 100 100">
<title>I_7_N - Open Babel Depiction</title>
<rect x="0" y="0" width="100" height="100" fill="white"/>
<g transform="translate(0,0)">
<svg width="100" height="100" x="0" y="0" viewBox="0 0 476.914 339.719" font-family="sans-serif" stroke="rgb(0,0,0)" stroke-width="2" stroke-linecap="round">
<line x1="202.0" y1="106.0" x2="168.4" y2="86.6" opacity="1.0" stroke="rgb(0,0,0)" stroke-width="2.0"/>
<line x1="169.9" y1="89.2" x2="136.4" y2="108.6" opacity="1.0" stroke="rgb(0,0,0)" stroke-width="2.0"/>
<line x1="166.9" y1="84.0" x2="133.4" y2="103.4" opacity="1.0" stroke="rgb(0,0,0)" stroke-width="2.0"/>
<line x1="325.0" y1="177.0" x2="269.1" y2="144.7" opacity="1.0" stroke="rgb(0,0,0)" stroke-width="2.0"/>
<line x1="134.9" y1="106.0" x2="101.3" y2="86.6" opacity="1.0" stroke="rgb(0,0,0)" stroke-width="2.0"/>
<line x1="97.3" y1="48.1" x2="72.1" y2="42.7" opacity="1.0" stroke="rgb(0,0,0)" stroke-width="2.0"/>
<line x1="52.9" y1="51.3" x2="40.0" y2="73.6" opacity="1.0" stroke="rgb(0,0,0)" stroke-width="2.0"/>
<line x1="40.0" y1="73.6" x2="65.9" y2="102.4" opacity="1.0" stroke="rgb(0,0,0)" stroke-width="2.0"/>
<line x1="49.4" y1="73.2" x2="67.3" y2="93.1" opacity="1.0" stroke="rgb(0,0,0)" stroke-width="2.0"/>
<line x1="65.9" y1="102.4" x2="101.3" y2="86.6" opacity="1.0" stroke="rgb(0,0,0)" stroke-width="2.0"/>
<line x1="101.3" y1="86.6" x2="97.3" y2="48.1" opacity="1.0" stroke="rgb(0,0,0)" stroke-width="2.0"/>
<line x1="93.5" y1="81.4" x2="90.7" y2="54.8" opacity="1.0" stroke="rgb(0,0,0)" stroke-width="2.0"/>
<line x1="369.8" y1="280.3" x2="369.8" y2="241.6" opacity="1.0" stroke="rgb(0,0,0)" stroke-width="2.0"/>
<line x1="369.8" y1="241.6" x2="336.2" y2="222.2" opacity="1.0" stroke="rgb(0,0,0)" stroke-width="2.0"/>
<line x1="361.0" y1="244.8" x2="337.8" y2="231.5" opacity="1.0" stroke="rgb(0,0,0)" stroke-width="2.0"/>
<line x1="336.2" y1="222.2" x2="302.7" y2="241.6" opacity="1.0" stroke="rgb(0,0,0)" stroke-width="2.0"/>
<line x1="302.7" y1="241.6" x2="302.7" y2="280.3" opacity="1.0" stroke="rgb(0,0,0)" stroke-width="2.0"/>
<line x1="309.9" y1="247.6" x2="309.9" y2="274.3" opacity="1.0" stroke="rgb(0,0,0)" stroke-width="2.0"/>
<line x1="302.7" y1="280.3" x2="336.2" y2="299.7" opacity="1.0" stroke="rgb(0,0,0)" stroke-width="2.0"/>
<line x1="336.2" y1="299.7" x2="369.8" y2="280.3" opacity="1.0" stroke="rgb(0,0,0)" stroke-width="2.0"/>
<line x1="337.8" y1="290.5" x2="361.0" y2="277.1" opacity="1.0" stroke="rgb(0,0,0)" stroke-width="2.0"/>
<line x1="403.4" y1="106.0" x2="369.8" y2="125.3" opacity="1.0" stroke="rgb(0,0,0)" stroke-width="2.0"/>
<line x1="401.8" y1="115.2" x2="378.6" y2="128.6" opacity="1.0" stroke="rgb(0,0,0)" stroke-width="2.0"/>
<line x1="369.8" y1="125.3" x2="369.8" y2="164.1" opacity="1.0" stroke="rgb(0,0,0)" stroke-width="2.0"/>
<line x1="369.8" y1="164.1" x2="403.4" y2="183.5" opacity="1.0" stroke="rgb(0,0,0)" stroke-width="2.0"/>
<line x1="378.6" y1="160.9" x2="401.8" y2="174.2" opacity="1.0" stroke="rgb(0,0,0)" stroke-width="2.0"/>
<line x1="403.4" y1="183.5" x2="436.9" y2="164.1" opacity="1.0" stroke="rgb(0,0,0)" stroke-width="2.0"/>
<line x1="436.9" y1="164.1" x2="436.9" y2="125.3" opacity="1.0" stroke="rgb(0,0,0)" stroke-width="2.0"/>
<line x1="429.7" y1="158.1" x2="429.7" y2="131.3" opacity="1.0" stroke="rgb(0,0,0)" stroke-width="2.0"/>
<line x1="436.9" y1="125.3" x2="403.4" y2="106.0" opacity="1.0" stroke="rgb(0,0,0)" stroke-width="2.0"/>
<line x1="235.6" y1="164.1" x2="202.0" y2="144.7" opacity="1.0" stroke="rgb(0,0,0)" stroke-width="2.0"/>
<line x1="202.0" y1="144.7" x2="202.0" y2="106.0" opacity="1.0" stroke="rgb(0,0,0)" stroke-width="2.0"/>
<line x1="209.2" y1="138.7" x2="209.2" y2="112.0" opacity="1.0" stroke="rgb(0,0,0)" stroke-width="2.0"/>
<line x1="202.0" y1="106.0" x2="235.6" y2="86.6" opacity="1.0" stroke="rgb(0,0,0)" stroke-width="2.0"/>
<line x1="235.6" y1="86.6" x2="269.1" y2="106.0" opacity="1.0" stroke="rgb(0,0,0)" stroke-width="2.0"/>
<line x1="237.2" y1="95.8" x2="260.3" y2="109.2" opacity="1.0" stroke="rgb(0,0,0)" stroke-width="2.0"/>
<line x1="269.1" y1="106.0" x2="269.1" y2="144.7" opacity="1.0" stroke="rgb(0,0,0)" stroke-width="2.0"/>
<line x1="269.1" y1="144.7" x2="235.6" y2="164.1" opacity="1.0" stroke="rgb(0,0,0)" stroke-width="2.0"/>
<line x1="260.3" y1="141.5" x2="237.2" y2="154.9" opacity="1.0" stroke="rgb(0,0,0)" stroke-width="2.0"/>
<line x1="369.8" y1="164.1" x2="347.5" y2="177.0" opacity="1.0" stroke="rgb(0,0,0)" stroke-width="2.0"/>
<line x1="336.2" y1="196.5" x2="336.2" y2="222.2" opacity="1.0" stroke="rgb(0,0,0)" stroke-width="2.0"/>
<line x1="369.8" y1="241.6" x2="392.1" y2="228.7" opacity="1.0" stroke="rgb(0,0,0)" stroke-width="2.0"/>
<line x1="403.4" y1="209.2" x2="403.4" y2="183.5" opacity="1.0" stroke="rgb(0,0,0)" stroke-width="2.0"/>
<text x="397.355057" y="230.219301" fill="rgb(255,12,12)" stroke-width="0" font-weight="bold" font-size="16">O</text>
<text x="53.375000" y="48.000000" fill="rgb(178,178,0)" stroke-width="0" font-weight="bold" font-size="16">S</text>
<text x="330.238088" y="191.469301" fill="rgb(12,12,255)" stroke-width="0" font-weight="bold" font-size="16">N</text>
</svg>
</g>
</svg>
