<svg xmlns="http://www.w3.org/2000/svg" xmlns:xlink="http://www.w3.org/1999/xlink" xmlns:cml="http://www.xml-cml.org/schema" version="1.1" id="topsvg" x="0" y="0" viewBox="0 0 100 100">
<title>I_7_Q - Open Babel Depiction</title>
<rect x="0" y="0" width="100" height="100" fill="white"/>
<g transform="translate(0,0)">
<svg width="100" height="100" x="0" y="0" viewBox="0 0 483.095 351.515" font-family="sans-serif" stroke="rgb(0,0,0)" stroke-width="2" stroke-linecap="round">
<line x1="275.1" y1="117.6" x2="308.7" y2="98.2" opacity="1.0" stroke="rgb(0,0,0)" stroke-width="2.0"/>
<line x1="310.2" y1="95.6" x2="343.8" y2="115.0" opacity="1.0" stroke="rgb(0,0,0)" stroke-width="2.0"/>
<line x1="307.2" y1="100.8" x2="340.8" y2="120.2" opacity="1.0" stroke="rgb(0,0,0)" stroke-width="2.0"/>
<line x1="152.0" y1="188.7" x2="208.0" y2="156.4" opacity="1.0" stroke="rgb(0,0,0)" stroke-width="2.0"/>
<line x1="342.3" y1="117.6" x2="375.9" y2="98.2" opacity="1.0" stroke="rgb(0,0,0)" stroke-width="2.0"/>
<line x1="107.2" y1="292.1" x2="107.2" y2="253.3" opacity="1.0" stroke="rgb(0,0,0)" stroke-width="2.0"/>
<line x1="107.2" y1="253.3" x2="140.8" y2="233.9" opacity="1.0" stroke="rgb(0,0,0)" stroke-width="2.0"/>
<line x1="116.0" y1="256.6" x2="139.2" y2="243.2" opacity="1.0" stroke="rgb(0,0,0)" stroke-width="2.0"/>
<line x1="140.8" y1="233.9" x2="174.4" y2="253.3" opacity="1.0" stroke="rgb(0,0,0)" stroke-width="2.0"/>
<line x1="174.4" y1="253.3" x2="174.4" y2="292.1" opacity="1.0" stroke="rgb(0,0,0)" stroke-width="2.0"/>
<line x1="167.2" y1="259.3" x2="167.2" y2="286.1" opacity="1.0" stroke="rgb(0,0,0)" stroke-width="2.0"/>
<line x1="174.4" y1="292.1" x2="140.8" y2="311.5" opacity="1.0" stroke="rgb(0,0,0)" stroke-width="2.0"/>
<line x1="140.8" y1="311.5" x2="107.2" y2="292.1" opacity="1.0" stroke="rgb(0,0,0)" stroke-width="2.0"/>
<line x1="139.2" y1="302.3" x2="116.0" y2="288.9" opacity="1.0" stroke="rgb(0,0,0)" stroke-width="2.0"/>
<line x1="73.6" y1="117.6" x2="107.2" y2="137.0" opacity="1.0" stroke="rgb(0,0,0)" stroke-width="2.0"/>
<line x1="75.2" y1="126.8" x2="98.4" y2="140.2" opacity="1.0" stroke="rgb(0,0,0)" stroke-width="2.0"/>
<line x1="107.2" y1="137.0" x2="107.2" y2="175.8" opacity="1.0" stroke="rgb(0,0,0)" stroke-width="2.0"/>
<line x1="107.2" y1="175.8" x2="73.6" y2="195.2" opacity="1.0" stroke="rgb(0,0,0)" stroke-width="2.0"/>
<line x1="98.4" y1="172.5" x2="75.2" y2="185.9" opacity="1.0" stroke="rgb(0,0,0)" stroke-width="2.0"/>
<line x1="73.6" y1="195.2" x2="40.0" y2="175.8" opacity="1.0" stroke="rgb(0,0,0)" stroke-width="2.0"/>
<line x1="40.0" y1="175.8" x2="40.0" y2="137.0" opacity="1.0" stroke="rgb(0,0,0)" stroke-width="2.0"/>
<line x1="47.2" y1="169.8" x2="47.2" y2="143.0" opacity="1.0" stroke="rgb(0,0,0)" stroke-width="2.0"/>
<line x1="40.0" y1="137.0" x2="73.6" y2="117.6" opacity="1.0" stroke="rgb(0,0,0)" stroke-width="2.0"/>
<line x1="208.0" y1="117.6" x2="241.5" y2="98.2" opacity="1.0" stroke="rgb(0,0,0)" stroke-width="2.0"/>
<line x1="241.5" y1="98.2" x2="275.1" y2="117.6" opacity="1.0" stroke="rgb(0,0,0)" stroke-width="2.0"/>
<line x1="243.1" y1="107.4" x2="266.3" y2="120.8" opacity="1.0" stroke="rgb(0,0,0)" stroke-width="2.0"/>
<line x1="275.1" y1="117.6" x2="275.1" y2="156.4" opacity="1.0" stroke="rgb(0,0,0)" stroke-width="2.0"/>
<line x1="275.1" y1="156.4" x2="241.5" y2="175.8" opacity="1.0" stroke="rgb(0,0,0)" stroke-width="2.0"/>
<line x1="266.3" y1="153.1" x2="243.1" y2="166.5" opacity="1.0" stroke="rgb(0,0,0)" stroke-width="2.0"/>
<line x1="241.5" y1="175.8" x2="208.0" y2="156.4" opacity="1.0" stroke="rgb(0,0,0)" stroke-width="2.0"/>
<line x1="208.0" y1="156.4" x2="208.0" y2="117.6" opacity="1.0" stroke="rgb(0,0,0)" stroke-width="2.0"/>
<line x1="215.2" y1="150.4" x2="215.2" y2="123.6" opacity="1.0" stroke="rgb(0,0,0)" stroke-width="2.0"/>
<line x1="387.2" y1="52.9" x2="409.5" y2="40.0" opacity="1.0" stroke="rgb(0,0,0)" stroke-width="2.0"/>
<line x1="409.5" y1="40.0" x2="443.1" y2="59.4" opacity="1.0" stroke="rgb(0,0,0)" stroke-width="2.0"/>
<line x1="411.1" y1="49.2" x2="434.3" y2="62.6" opacity="1.0" stroke="rgb(0,0,0)" stroke-width="2.0"/>
<line x1="443.1" y1="59.4" x2="443.1" y2="85.2" opacity="1.0" stroke="rgb(0,0,0)" stroke-width="2.0"/>
<line x1="432.0" y1="104.6" x2="409.5" y2="117.6" opacity="1.0" stroke="rgb(0,0,0)" stroke-width="2.0"/>
<line x1="426.6" y1="99.4" x2="411.1" y2="108.3" opacity="1.0" stroke="rgb(0,0,0)" stroke-width="2.0"/>
<line x1="409.5" y1="117.6" x2="375.9" y2="98.2" opacity="1.0" stroke="rgb(0,0,0)" stroke-width="2.0"/>
<line x1="375.9" y1="98.2" x2="375.9" y2="72.2" opacity="1.0" stroke="rgb(0,0,0)" stroke-width="2.0"/>
<line x1="383.1" y1="92.2" x2="383.1" y2="74.3" opacity="1.0" stroke="rgb(0,0,0)" stroke-width="2.0"/>
<line x1="107.2" y1="175.8" x2="129.5" y2="188.7" opacity="1.0" stroke="rgb(0,0,0)" stroke-width="2.0"/>
<line x1="140.8" y1="208.2" x2="140.8" y2="233.9" opacity="1.0" stroke="rgb(0,0,0)" stroke-width="2.0"/>
<line x1="107.2" y1="253.3" x2="84.8" y2="240.4" opacity="1.0" stroke="rgb(0,0,0)" stroke-width="2.0"/>
<line x1="73.6" y1="220.9" x2="73.6" y2="195.2" opacity="1.0" stroke="rgb(0,0,0)" stroke-width="2.0"/>
<text x="437.095461" y="106.181818" fill="rgb(12,12,255)" stroke-width="0" font-weight="bold" font-size="16">N</text>
<text x="369.912884" y="67.393939" fill="rgb(12,12,255)" stroke-width="0" font-weight="bold" font-size="16">N</text>
<text x="67.591288" y="241.939394" fill="rgb(255,12,12)" stroke-width="0" font-weight="bold" font-size="16">O</text>
<text x="134.773865" y="203.151515" fill="rgb(12,12,255)" stroke-width="0" font-weight="bold" font-size="16">N</text>
</svg>
</g>
</svg>