<svg xmlns="http://www.w3.org/2000/svg" xmlns:xlink="http://www.w3.org/1999/xlink" xmlns:cml="http://www.xml-cml.org/schema" version="1.1" id="topsvg" x="0" y="0" viewBox="0 0 100 100">
<title>I_8_M - Open Babel Depiction</title>
<rect x="0" y="0" width="100" height="100" fill="white"/>
<g transform="translate(0,0)">
<svg width="100" height="100" x="0" y="0" viewBox="0 0 484.457 371.892" font-family="sans-serif" stroke="rgb(0,0,0)" stroke-width="2" stroke-linecap="round">
<line x1="332.1" y1="163.3" x2="275.9" y2="195.7" opacity="1.0" stroke="rgb(0,0,0)" stroke-width="2.0"/>
<line x1="73.7" y1="312.4" x2="51.3" y2="325.4" opacity="1.0" stroke="rgb(0,0,0)" stroke-width="2.0"/>
<line x1="75.8" y1="316.1" x2="53.4" y2="329.0" opacity="1.0" stroke="rgb(0,0,0)" stroke-width="2.0"/>
<line x1="71.6" y1="308.8" x2="49.2" y2="321.8" opacity="1.0" stroke="rgb(0,0,0)" stroke-width="2.0"/>
<line x1="107.4" y1="293.0" x2="73.7" y2="312.4" opacity="1.0" stroke="rgb(0,0,0)" stroke-width="2.0"/>
<line x1="208.5" y1="234.6" x2="174.8" y2="254.1" opacity="1.0" stroke="rgb(0,0,0)" stroke-width="2.0"/>
<line x1="294.3" y1="284.3" x2="299.6" y2="272.5" opacity="1.0" stroke="rgb(0,0,0)" stroke-width="2.0"/>
<line x1="295.3" y1="252.0" x2="275.9" y2="234.6" opacity="1.0" stroke="rgb(0,0,0)" stroke-width="2.0"/>
<line x1="288.9" y1="256.0" x2="275.6" y2="244.0" opacity="1.0" stroke="rgb(0,0,0)" stroke-width="2.0"/>
<line x1="275.9" y1="234.6" x2="242.2" y2="254.1" opacity="1.0" stroke="rgb(0,0,0)" stroke-width="2.0"/>
<line x1="242.2" y1="254.1" x2="247.7" y2="279.6" opacity="1.0" stroke="rgb(0,0,0)" stroke-width="2.0"/>
<line x1="250.5" y1="258.4" x2="254.3" y2="276.0" opacity="1.0" stroke="rgb(0,0,0)" stroke-width="2.0"/>
<line x1="263.2" y1="293.5" x2="276.1" y2="294.8" opacity="1.0" stroke="rgb(0,0,0)" stroke-width="2.0"/>
<line x1="444.5" y1="176.2" x2="410.8" y2="156.8" opacity="1.0" stroke="rgb(0,0,0)" stroke-width="2.0"/>
<line x1="410.8" y1="156.8" x2="377.0" y2="176.2" opacity="1.0" stroke="rgb(0,0,0)" stroke-width="2.0"/>
<line x1="409.2" y1="166.0" x2="385.8" y2="179.5" opacity="1.0" stroke="rgb(0,0,0)" stroke-width="2.0"/>
<line x1="377.0" y1="176.2" x2="377.0" y2="215.1" opacity="1.0" stroke="rgb(0,0,0)" stroke-width="2.0"/>
<line x1="377.0" y1="215.1" x2="410.8" y2="234.6" opacity="1.0" stroke="rgb(0,0,0)" stroke-width="2.0"/>
<line x1="385.8" y1="211.9" x2="409.2" y2="225.4" opacity="1.0" stroke="rgb(0,0,0)" stroke-width="2.0"/>
<line x1="410.8" y1="234.6" x2="444.5" y2="215.1" opacity="1.0" stroke="rgb(0,0,0)" stroke-width="2.0"/>
<line x1="444.5" y1="215.1" x2="444.5" y2="176.2" opacity="1.0" stroke="rgb(0,0,0)" stroke-width="2.0"/>
<line x1="437.3" y1="209.1" x2="437.3" y2="182.2" opacity="1.0" stroke="rgb(0,0,0)" stroke-width="2.0"/>
<line x1="309.6" y1="59.5" x2="309.6" y2="98.4" opacity="1.0" stroke="rgb(0,0,0)" stroke-width="2.0"/>
<line x1="316.8" y1="65.5" x2="316.8" y2="92.4" opacity="1.0" stroke="rgb(0,0,0)" stroke-width="2.0"/>
<line x1="309.6" y1="98.4" x2="343.3" y2="117.8" opacity="1.0" stroke="rgb(0,0,0)" stroke-width="2.0"/>
<line x1="343.3" y1="117.8" x2="377.0" y2="98.4" opacity="1.0" stroke="rgb(0,0,0)" stroke-width="2.0"/>
<line x1="344.9" y1="108.6" x2="368.3" y2="95.1" opacity="1.0" stroke="rgb(0,0,0)" stroke-width="2.0"/>
<line x1="377.0" y1="98.4" x2="377.0" y2="59.5" opacity="1.0" stroke="rgb(0,0,0)" stroke-width="2.0"/>
<line x1="377.0" y1="59.5" x2="343.3" y2="40.0" opacity="1.0" stroke="rgb(0,0,0)" stroke-width="2.0"/>
<line x1="368.3" y1="62.7" x2="344.9" y2="49.2" opacity="1.0" stroke="rgb(0,0,0)" stroke-width="2.0"/>
<line x1="343.3" y1="40.0" x2="309.6" y2="59.5" opacity="1.0" stroke="rgb(0,0,0)" stroke-width="2.0"/>
<line x1="242.2" y1="176.2" x2="208.5" y2="195.7" opacity="1.0" stroke="rgb(0,0,0)" stroke-width="2.0"/>
<line x1="208.5" y1="195.7" x2="208.5" y2="234.6" opacity="1.0" stroke="rgb(0,0,0)" stroke-width="2.0"/>
<line x1="215.7" y1="201.7" x2="215.7" y2="228.6" opacity="1.0" stroke="rgb(0,0,0)" stroke-width="2.0"/>
<line x1="208.5" y1="234.6" x2="242.2" y2="254.1" opacity="1.0" stroke="rgb(0,0,0)" stroke-width="2.0"/>
<line x1="275.9" y1="234.6" x2="275.9" y2="195.7" opacity="1.0" stroke="rgb(0,0,0)" stroke-width="2.0"/>
<line x1="275.9" y1="195.7" x2="242.2" y2="176.2" opacity="1.0" stroke="rgb(0,0,0)" stroke-width="2.0"/>
<line x1="267.1" y1="198.9" x2="243.8" y2="185.5" opacity="1.0" stroke="rgb(0,0,0)" stroke-width="2.0"/>
<line x1="174.8" y1="293.0" x2="141.1" y2="312.4" opacity="1.0" stroke="rgb(0,0,0)" stroke-width="2.0"/>
<line x1="141.1" y1="312.4" x2="107.4" y2="293.0" opacity="1.0" stroke="rgb(0,0,0)" stroke-width="2.0"/>
<line x1="139.5" y1="303.2" x2="116.2" y2="289.7" opacity="1.0" stroke="rgb(0,0,0)" stroke-width="2.0"/>
<line x1="107.4" y1="293.0" x2="107.4" y2="254.1" opacity="1.0" stroke="rgb(0,0,0)" stroke-width="2.0"/>
<line x1="107.4" y1="254.1" x2="141.1" y2="234.6" opacity="1.0" stroke="rgb(0,0,0)" stroke-width="2.0"/>
<line x1="116.2" y1="257.3" x2="139.5" y2="243.8" opacity="1.0" stroke="rgb(0,0,0)" stroke-width="2.0"/>
<line x1="141.1" y1="234.6" x2="174.8" y2="254.1" opacity="1.0" stroke="rgb(0,0,0)" stroke-width="2.0"/>
<line x1="174.8" y1="254.1" x2="174.8" y2="293.0" opacity="1.0" stroke="rgb(0,0,0)" stroke-width="2.0"/>
<line x1="167.6" y1="260.1" x2="167.6" y2="287.0" opacity="1.0" stroke="rgb(0,0,0)" stroke-width="2.0"/>
<line x1="343.3" y1="117.8" x2="343.3" y2="143.8" opacity="1.0" stroke="rgb(0,0,0)" stroke-width="2.0"/>
<line x1="354.6" y1="163.3" x2="377.0" y2="176.2" opacity="1.0" stroke="rgb(0,0,0)" stroke-width="2.0"/>
<line x1="410.8" y1="156.8" x2="410.8" y2="130.8" opacity="1.0" stroke="rgb(0,0,0)" stroke-width="2.0"/>
<line x1="399.5" y1="111.3" x2="377.0" y2="98.4" opacity="1.0" stroke="rgb(0,0,0)" stroke-width="2.0"/>
<text x="34.000000" y="339.891892" fill="rgb(12,12,255)" stroke-width="0" font-weight="bold" font-size="16">N</text>
<text x="298.855801" y="268.636434" fill="rgb(12,12,255)" stroke-width="0" font-weight="bold" font-size="16">N</text>
<text x="283.026050" y="304.190636" fill="rgb(178,178,0)" stroke-width="0" font-weight="bold" font-size="16">S</text>
<text x="244.320333" y="300.122501" fill="rgb(12,12,255)" stroke-width="0" font-weight="bold" font-size="16">N</text>
<text x="404.752497" y="125.837838" fill="rgb(255,12,12)" stroke-width="0" font-weight="bold" font-size="16">O</text>
<text x="337.342952" y="164.756757" fill="rgb(12,12,255)" stroke-width="0" font-weight="bold" font-size="16">N</text>
</svg>
</g>
</svg>