<svg xmlns="http://www.w3.org/2000/svg" x="0" y="0" viewBox="0 0 100 100">
<title>I_8_L - Open Babel Depiction</title>
<rect x="0" y="0" width="100" height="100" fill="white"/>
<g transform="translate(0,0)">
<svg width="100" height="100" x="0" y="0" viewBox="0 0 477.503 352.821" font-family="sans-serif" stroke="rgb(0,0,0)" stroke-width="2" stroke-linecap="round">
<line x1="325.0" y1="163.4" x2="268.7" y2="195.9" opacity="1.0" stroke="rgb(0,0,0)" stroke-width="2.0"/>
<line x1="201.2" y1="234.9" x2="167.5" y2="254.4" opacity="1.0" stroke="rgb(0,0,0)" stroke-width="2.0"/>
<line x1="287.1" y1="284.7" x2="292.4" y2="272.8" opacity="1.0" stroke="rgb(0,0,0)" stroke-width="2.0"/>
<line x1="288.1" y1="252.3" x2="268.7" y2="234.9" opacity="1.0" stroke="rgb(0,0,0)" stroke-width="2.0"/>
<line x1="281.8" y1="256.3" x2="268.4" y2="244.2" opacity="1.0" stroke="rgb(0,0,0)" stroke-width="2.0"/>
<line x1="268.7" y1="234.9" x2="235.0" y2="254.4" opacity="1.0" stroke="rgb(0,0,0)" stroke-width="2.0"/>
<line x1="235.0" y1="254.4" x2="240.4" y2="279.9" opacity="1.0" stroke="rgb(0,0,0)" stroke-width="2.0"/>
<line x1="243.3" y1="258.7" x2="247.0" y2="276.3" opacity="1.0" stroke="rgb(0,0,0)" stroke-width="2.0"/>
<line x1="256.0" y1="293.8" x2="268.9" y2="295.2" opacity="1.0" stroke="rgb(0,0,0)" stroke-width="2.0"/>
<line x1="40.0" y1="273.8" x2="62.9" y2="242.3" opacity="1.0" stroke="rgb(0,0,0)" stroke-width="2.0"/>
<line x1="49.4" y1="273.2" x2="65.2" y2="251.4" opacity="1.0" stroke="rgb(0,0,0)" stroke-width="2.0"/>
<line x1="62.9" y1="242.3" x2="100.0" y2="254.4" opacity="1.0" stroke="rgb(0,0,0)" stroke-width="2.0"/>
<line x1="100.0" y1="254.4" x2="100.0" y2="293.3" opacity="1.0" stroke="rgb(0,0,0)" stroke-width="2.0"/>
<line x1="100.0" y1="293.3" x2="75.3" y2="301.4" opacity="1.0" stroke="rgb(0,0,0)" stroke-width="2.0"/>
<line x1="55.3" y1="294.9" x2="40.0" y2="273.8" opacity="1.0" stroke="rgb(0,0,0)" stroke-width="2.0"/>
<line x1="437.5" y1="176.4" x2="403.8" y2="156.9" opacity="1.0" stroke="rgb(0,0,0)" stroke-width="2.0"/>
<line x1="403.8" y1="156.9" x2="370.0" y2="176.4" opacity="1.0" stroke="rgb(0,0,0)" stroke-width="2.0"/>
<line x1="402.2" y1="166.2" x2="378.8" y2="179.6" opacity="1.0" stroke="rgb(0,0,0)" stroke-width="2.0"/>
<line x1="370.0" y1="176.4" x2="370.0" y2="215.4" opacity="1.0" stroke="rgb(0,0,0)" stroke-width="2.0"/>
<line x1="370.0" y1="215.4" x2="403.8" y2="234.9" opacity="1.0" stroke="rgb(0,0,0)" stroke-width="2.0"/>
<line x1="378.8" y1="212.1" x2="402.2" y2="225.6" opacity="1.0" stroke="rgb(0,0,0)" stroke-width="2.0"/>
<line x1="403.8" y1="234.9" x2="437.5" y2="215.4" opacity="1.0" stroke="rgb(0,0,0)" stroke-width="2.0"/>
<line x1="437.5" y1="215.4" x2="437.5" y2="176.4" opacity="1.0" stroke="rgb(0,0,0)" stroke-width="2.0"/>
<line x1="430.3" y1="209.4" x2="430.3" y2="182.4" opacity="1.0" stroke="rgb(0,0,0)" stroke-width="2.0"/>
<line x1="302.5" y1="59.5" x2="302.5" y2="98.5" opacity="1.0" stroke="rgb(0,0,0)" stroke-width="2.0"/>
<line x1="309.7" y1="65.5" x2="309.7" y2="92.5" opacity="1.0" stroke="rgb(0,0,0)" stroke-width="2.0"/>
<line x1="302.5" y1="98.5" x2="336.2" y2="117.9" opacity="1.0" stroke="rgb(0,0,0)" stroke-width="2.0"/>
<line x1="336.2" y1="117.9" x2="370.0" y2="98.5" opacity="1.0" stroke="rgb(0,0,0)" stroke-width="2.0"/>
<line x1="337.8" y1="108.7" x2="361.2" y2="95.2" opacity="1.0" stroke="rgb(0,0,0)" stroke-width="2.0"/>
<line x1="370.0" y1="98.5" x2="370.0" y2="59.5" opacity="1.0" stroke="rgb(0,0,0)" stroke-width="2.0"/>
<line x1="370.0" y1="59.5" x2="336.2" y2="40.0" opacity="1.0" stroke="rgb(0,0,0)" stroke-width="2.0"/>
<line x1="361.2" y1="62.7" x2="337.8" y2="49.2" opacity="1.0" stroke="rgb(0,0,0)" stroke-width="2.0"/>
<line x1="336.2" y1="40.0" x2="302.5" y2="59.5" opacity="1.0" stroke="rgb(0,0,0)" stroke-width="2.0"/>
<line x1="235.0" y1="176.4" x2="201.2" y2="195.9" opacity="1.0" stroke="rgb(0,0,0)" stroke-width="2.0"/>
<line x1="201.2" y1="195.9" x2="201.2" y2="234.9" opacity="1.0" stroke="rgb(0,0,0)" stroke-width="2.0"/>
<line x1="208.4" y1="201.9" x2="208.4" y2="228.9" opacity="1.0" stroke="rgb(0,0,0)" stroke-width="2.0"/>
<line x1="201.2" y1="234.9" x2="235.0" y2="254.4" opacity="1.0" stroke="rgb(0,0,0)" stroke-width="2.0"/>
<line x1="268.7" y1="234.9" x2="268.7" y2="195.9" opacity="1.0" stroke="rgb(0,0,0)" stroke-width="2.0"/>
<line x1="268.7" y1="195.9" x2="235.0" y2="176.4" opacity="1.0" stroke="rgb(0,0,0)" stroke-width="2.0"/>
<line x1="259.9" y1="199.1" x2="236.6" y2="185.6" opacity="1.0" stroke="rgb(0,0,0)" stroke-width="2.0"/>
<line x1="167.5" y1="293.3" x2="133.7" y2="312.8" opacity="1.0" stroke="rgb(0,0,0)" stroke-width="2.0"/>
<line x1="133.7" y1="312.8" x2="100.0" y2="293.3" opacity="1.0" stroke="rgb(0,0,0)" stroke-width="2.0"/>
<line x1="132.1" y1="303.6" x2="108.8" y2="290.1" opacity="1.0" stroke="rgb(0,0,0)" stroke-width="2.0"/>
<line x1="100.0" y1="254.4" x2="133.7" y2="234.9" opacity="1.0" stroke="rgb(0,0,0)" stroke-width="2.0"/>
<line x1="108.8" y1="257.6" x2="132.1" y2="244.1" opacity="1.0" stroke="rgb(0,0,0)" stroke-width="2.0"/>
<line x1="133.7" y1="234.9" x2="167.5" y2="254.4" opacity="1.0" stroke="rgb(0,0,0)" stroke-width="2.0"/>
<line x1="167.5" y1="254.4" x2="167.5" y2="293.3" opacity="1.0" stroke="rgb(0,0,0)" stroke-width="2.0"/>
<line x1="160.3" y1="260.4" x2="160.3" y2="287.3" opacity="1.0" stroke="rgb(0,0,0)" stroke-width="2.0"/>
<line x1="336.2" y1="117.9" x2="336.2" y2="143.9" opacity="1.0" stroke="rgb(0,0,0)" stroke-width="2.0"/>
<line x1="347.5" y1="163.4" x2="370.0" y2="176.4" opacity="1.0" stroke="rgb(0,0,0)" stroke-width="2.0"/>
<line x1="403.8" y1="156.9" x2="403.8" y2="130.9" opacity="1.0" stroke="rgb(0,0,0)" stroke-width="2.0"/>
<line x1="392.5" y1="111.4" x2="370.0" y2="98.5" opacity="1.0" stroke="rgb(0,0,0)" stroke-width="2.0"/>
<text x="56.908553" y="313.377073" fill="rgb(12,12,255)" stroke-width="0" font-weight="bold" font-size="16">N</text>
<text x="56.908553" y="329.377073" fill="rgb(12,12,255)" stroke-width="0" font-weight="bold" font-size="16">H</text>
<text x="291.702890" y="268.950731" fill="rgb(12,12,255)" stroke-width="0" font-weight="bold" font-size="16">N</text>
<text x="275.850590" y="304.555580" fill="rgb(178,178,0)" stroke-width="0" font-weight="bold" font-size="16">S</text>
<text x="237.089736" y="300.481650" fill="rgb(12,12,255)" stroke-width="0" font-weight="bold" font-size="16">N</text>
<text x="397.750436" y="125.948718" fill="rgb(255,12,12)" stroke-width="0" font-weight="bold" font-size="16">O</text>
<text x="330.244866" y="164.923077" fill="rgb(12,12,255)" stroke-width="0" font-weight="bold" font-size="16">N</text>
</svg>
</g>
</svg>
