<svg xmlns="http://www.w3.org/2000/svg" x="0" y="0" viewBox="0 0 100 100">
<title>I_9_N - Open Babel Depiction</title>
<rect x="0" y="0" width="100" height="100" fill="white"/>
<g transform="translate(0,0)">
<svg width="100" height="100" x="0" y="0" viewBox="0 0 409.087 292.667" font-family="sans-serif" stroke="rgb(0,0,0)" stroke-width="2" stroke-linecap="round">
<line x1="151.7" y1="130.2" x2="207.4" y2="98.0" opacity="1.0" stroke="rgb(0,0,0)" stroke-width="2.0"/>
<line x1="274.4" y1="98.0" x2="307.9" y2="117.3" opacity="1.0" stroke="rgb(0,0,0)" stroke-width="2.0"/>
<line x1="343.2" y1="101.6" x2="360.4" y2="120.7" opacity="1.0" stroke="rgb(0,0,0)" stroke-width="2.0"/>
<line x1="362.6" y1="141.6" x2="349.8" y2="163.8" opacity="1.0" stroke="rgb(0,0,0)" stroke-width="2.0"/>
<line x1="349.8" y1="163.8" x2="311.9" y2="155.8" opacity="1.0" stroke="rgb(0,0,0)" stroke-width="2.0"/>
<line x1="345.4" y1="155.5" x2="319.3" y2="150.0" opacity="1.0" stroke="rgb(0,0,0)" stroke-width="2.0"/>
<line x1="311.9" y1="155.8" x2="307.9" y2="117.3" opacity="1.0" stroke="rgb(0,0,0)" stroke-width="2.0"/>
<line x1="307.9" y1="117.3" x2="343.2" y2="101.6" opacity="1.0" stroke="rgb(0,0,0)" stroke-width="2.0"/>
<line x1="316.3" y1="121.5" x2="340.7" y2="110.6" opacity="1.0" stroke="rgb(0,0,0)" stroke-width="2.0"/>
<line x1="40.0" y1="117.3" x2="73.5" y2="136.7" opacity="1.0" stroke="rgb(0,0,0)" stroke-width="2.0"/>
<line x1="73.5" y1="136.7" x2="107.0" y2="117.3" opacity="1.0" stroke="rgb(0,0,0)" stroke-width="2.0"/>
<line x1="75.1" y1="127.4" x2="98.2" y2="114.1" opacity="1.0" stroke="rgb(0,0,0)" stroke-width="2.0"/>
<line x1="107.0" y1="117.3" x2="107.0" y2="78.7" opacity="1.0" stroke="rgb(0,0,0)" stroke-width="2.0"/>
<line x1="107.0" y1="78.7" x2="73.5" y2="59.3" opacity="1.0" stroke="rgb(0,0,0)" stroke-width="2.0"/>
<line x1="98.2" y1="81.9" x2="75.1" y2="68.6" opacity="1.0" stroke="rgb(0,0,0)" stroke-width="2.0"/>
<line x1="73.5" y1="59.3" x2="40.0" y2="78.7" opacity="1.0" stroke="rgb(0,0,0)" stroke-width="2.0"/>
<line x1="40.0" y1="78.7" x2="40.0" y2="117.3" opacity="1.0" stroke="rgb(0,0,0)" stroke-width="2.0"/>
<line x1="47.2" y1="84.7" x2="47.2" y2="111.3" opacity="1.0" stroke="rgb(0,0,0)" stroke-width="2.0"/>
<line x1="173.9" y1="233.3" x2="173.9" y2="194.7" opacity="1.0" stroke="rgb(0,0,0)" stroke-width="2.0"/>
<line x1="166.7" y1="227.3" x2="166.7" y2="200.7" opacity="1.0" stroke="rgb(0,0,0)" stroke-width="2.0"/>
<line x1="173.9" y1="194.7" x2="140.5" y2="175.3" opacity="1.0" stroke="rgb(0,0,0)" stroke-width="2.0"/>
<line x1="140.5" y1="175.3" x2="107.0" y2="194.7" opacity="1.0" stroke="rgb(0,0,0)" stroke-width="2.0"/>
<line x1="138.9" y1="184.6" x2="115.8" y2="197.9" opacity="1.0" stroke="rgb(0,0,0)" stroke-width="2.0"/>
<line x1="107.0" y1="194.7" x2="107.0" y2="233.3" opacity="1.0" stroke="rgb(0,0,0)" stroke-width="2.0"/>
<line x1="107.0" y1="233.3" x2="140.5" y2="252.7" opacity="1.0" stroke="rgb(0,0,0)" stroke-width="2.0"/>
<line x1="115.8" y1="230.1" x2="138.9" y2="243.4" opacity="1.0" stroke="rgb(0,0,0)" stroke-width="2.0"/>
<line x1="140.5" y1="252.7" x2="173.9" y2="233.3" opacity="1.0" stroke="rgb(0,0,0)" stroke-width="2.0"/>
<line x1="207.4" y1="59.3" x2="240.9" y2="40.0" opacity="1.0" stroke="rgb(0,0,0)" stroke-width="2.0"/>
<line x1="240.9" y1="40.0" x2="274.4" y2="59.3" opacity="1.0" stroke="rgb(0,0,0)" stroke-width="2.0"/>
<line x1="242.5" y1="49.2" x2="265.6" y2="62.6" opacity="1.0" stroke="rgb(0,0,0)" stroke-width="2.0"/>
<line x1="274.4" y1="59.3" x2="274.4" y2="98.0" opacity="1.0" stroke="rgb(0,0,0)" stroke-width="2.0"/>
<line x1="274.4" y1="98.0" x2="240.9" y2="117.3" opacity="1.0" stroke="rgb(0,0,0)" stroke-width="2.0"/>
<line x1="265.6" y1="94.8" x2="242.5" y2="108.1" opacity="1.0" stroke="rgb(0,0,0)" stroke-width="2.0"/>
<line x1="240.9" y1="117.3" x2="207.4" y2="98.0" opacity="1.0" stroke="rgb(0,0,0)" stroke-width="2.0"/>
<line x1="207.4" y1="98.0" x2="207.4" y2="59.3" opacity="1.0" stroke="rgb(0,0,0)" stroke-width="2.0"/>
<line x1="214.6" y1="92.0" x2="214.6" y2="65.3" opacity="1.0" stroke="rgb(0,0,0)" stroke-width="2.0"/>
<line x1="140.5" y1="175.3" x2="140.5" y2="149.7" opacity="1.0" stroke="rgb(0,0,0)" stroke-width="2.0"/>
<line x1="129.2" y1="130.2" x2="107.0" y2="117.3" opacity="1.0" stroke="rgb(0,0,0)" stroke-width="2.0"/>
<line x1="73.5" y1="136.7" x2="73.5" y2="162.3" opacity="1.0" stroke="rgb(0,0,0)" stroke-width="2.0"/>
<line x1="84.7" y1="181.8" x2="107.0" y2="194.7" opacity="1.0" stroke="rgb(0,0,0)" stroke-width="2.0"/>
<text x="363.087333" y="138.341116" fill="rgb(178,178,0)" stroke-width="0" font-weight="bold" font-size="16">S</text>
<text x="67.486316" y="183.333333" fill="rgb(255,12,12)" stroke-width="0" font-weight="bold" font-size="16">O</text>
<text x="134.458947" y="144.666667" fill="rgb(12,12,255)" stroke-width="0" font-weight="bold" font-size="16">N</text>
</svg>
</g>
</svg>
