<svg xmlns="http://www.w3.org/2000/svg" x="0" y="0" viewBox="0 0 100 100">
<title>I_9_T - Open Babel Depiction</title>
<rect x="0" y="0" width="100" height="100" fill="white"/>
<g transform="translate(0,0)">
<svg width="100" height="100" x="0" y="0" viewBox="0 0 449.143 293.125" font-family="sans-serif" stroke="rgb(0,0,0)" stroke-width="2" stroke-linecap="round">
<line x1="151.9" y1="130.4" x2="207.8" y2="98.1" opacity="1.0" stroke="rgb(0,0,0)" stroke-width="2.0"/>
<line x1="375.6" y1="156.2" x2="397.9" y2="169.1" opacity="1.0" stroke="rgb(0,0,0)" stroke-width="2.0"/>
<line x1="274.9" y1="98.1" x2="308.5" y2="117.5" opacity="1.0" stroke="rgb(0,0,0)" stroke-width="2.0"/>
<line x1="107.1" y1="233.8" x2="107.1" y2="195.0" opacity="1.0" stroke="rgb(0,0,0)" stroke-width="2.0"/>
<line x1="107.1" y1="195.0" x2="140.7" y2="175.6" opacity="1.0" stroke="rgb(0,0,0)" stroke-width="2.0"/>
<line x1="115.9" y1="198.2" x2="139.1" y2="184.9" opacity="1.0" stroke="rgb(0,0,0)" stroke-width="2.0"/>
<line x1="140.7" y1="175.6" x2="174.2" y2="195.0" opacity="1.0" stroke="rgb(0,0,0)" stroke-width="2.0"/>
<line x1="174.2" y1="195.0" x2="174.2" y2="233.8" opacity="1.0" stroke="rgb(0,0,0)" stroke-width="2.0"/>
<line x1="167.0" y1="201.0" x2="167.0" y2="227.8" opacity="1.0" stroke="rgb(0,0,0)" stroke-width="2.0"/>
<line x1="174.2" y1="233.8" x2="140.7" y2="253.1" opacity="1.0" stroke="rgb(0,0,0)" stroke-width="2.0"/>
<line x1="140.7" y1="253.1" x2="107.1" y2="233.8" opacity="1.0" stroke="rgb(0,0,0)" stroke-width="2.0"/>
<line x1="139.1" y1="243.9" x2="115.9" y2="230.5" opacity="1.0" stroke="rgb(0,0,0)" stroke-width="2.0"/>
<line x1="73.6" y1="59.4" x2="107.1" y2="78.7" opacity="1.0" stroke="rgb(0,0,0)" stroke-width="2.0"/>
<line x1="75.2" y1="68.6" x2="98.3" y2="82.0" opacity="1.0" stroke="rgb(0,0,0)" stroke-width="2.0"/>
<line x1="107.1" y1="78.7" x2="107.1" y2="117.5" opacity="1.0" stroke="rgb(0,0,0)" stroke-width="2.0"/>
<line x1="107.1" y1="117.5" x2="73.6" y2="136.9" opacity="1.0" stroke="rgb(0,0,0)" stroke-width="2.0"/>
<line x1="98.3" y1="114.3" x2="75.2" y2="127.6" opacity="1.0" stroke="rgb(0,0,0)" stroke-width="2.0"/>
<line x1="73.6" y1="136.9" x2="40.0" y2="117.5" opacity="1.0" stroke="rgb(0,0,0)" stroke-width="2.0"/>
<line x1="40.0" y1="117.5" x2="40.0" y2="78.8" opacity="1.0" stroke="rgb(0,0,0)" stroke-width="2.0"/>
<line x1="47.2" y1="111.5" x2="47.2" y2="84.8" opacity="1.0" stroke="rgb(0,0,0)" stroke-width="2.0"/>
<line x1="40.0" y1="78.8" x2="73.6" y2="59.4" opacity="1.0" stroke="rgb(0,0,0)" stroke-width="2.0"/>
<line x1="207.8" y1="59.4" x2="241.4" y2="40.0" opacity="1.0" stroke="rgb(0,0,0)" stroke-width="2.0"/>
<line x1="241.4" y1="40.0" x2="274.9" y2="59.4" opacity="1.0" stroke="rgb(0,0,0)" stroke-width="2.0"/>
<line x1="242.9" y1="49.2" x2="266.1" y2="62.6" opacity="1.0" stroke="rgb(0,0,0)" stroke-width="2.0"/>
<line x1="274.9" y1="59.4" x2="274.9" y2="98.1" opacity="1.0" stroke="rgb(0,0,0)" stroke-width="2.0"/>
<line x1="274.9" y1="98.1" x2="241.4" y2="117.5" opacity="1.0" stroke="rgb(0,0,0)" stroke-width="2.0"/>
<line x1="266.1" y1="94.9" x2="242.9" y2="108.3" opacity="1.0" stroke="rgb(0,0,0)" stroke-width="2.0"/>
<line x1="241.4" y1="117.5" x2="207.8" y2="98.1" opacity="1.0" stroke="rgb(0,0,0)" stroke-width="2.0"/>
<line x1="207.8" y1="98.1" x2="207.8" y2="59.4" opacity="1.0" stroke="rgb(0,0,0)" stroke-width="2.0"/>
<line x1="215.0" y1="92.1" x2="215.0" y2="65.4" opacity="1.0" stroke="rgb(0,0,0)" stroke-width="2.0"/>
<line x1="342.0" y1="98.1" x2="375.6" y2="117.5" opacity="1.0" stroke="rgb(0,0,0)" stroke-width="2.0"/>
<line x1="375.6" y1="117.5" x2="375.6" y2="156.2" opacity="1.0" stroke="rgb(0,0,0)" stroke-width="2.0"/>
<line x1="368.4" y1="123.5" x2="368.4" y2="150.2" opacity="1.0" stroke="rgb(0,0,0)" stroke-width="2.0"/>
<line x1="375.6" y1="156.2" x2="342.0" y2="175.6" opacity="1.0" stroke="rgb(0,0,0)" stroke-width="2.0"/>
<line x1="342.0" y1="175.6" x2="308.5" y2="156.2" opacity="1.0" stroke="rgb(0,0,0)" stroke-width="2.0"/>
<line x1="340.4" y1="166.4" x2="317.3" y2="153.0" opacity="1.0" stroke="rgb(0,0,0)" stroke-width="2.0"/>
<line x1="308.5" y1="156.2" x2="308.5" y2="117.5" opacity="1.0" stroke="rgb(0,0,0)" stroke-width="2.0"/>
<line x1="308.5" y1="117.5" x2="342.0" y2="98.1" opacity="1.0" stroke="rgb(0,0,0)" stroke-width="2.0"/>
<line x1="317.3" y1="120.7" x2="340.4" y2="107.4" opacity="1.0" stroke="rgb(0,0,0)" stroke-width="2.0"/>
<line x1="107.1" y1="117.5" x2="129.4" y2="130.4" opacity="1.0" stroke="rgb(0,0,0)" stroke-width="2.0"/>
<line x1="140.7" y1="149.9" x2="140.7" y2="175.6" opacity="1.0" stroke="rgb(0,0,0)" stroke-width="2.0"/>
<line x1="107.1" y1="195.0" x2="84.8" y2="182.1" opacity="1.0" stroke="rgb(0,0,0)" stroke-width="2.0"/>
<line x1="73.6" y1="162.6" x2="73.6" y2="136.9" opacity="1.0" stroke="rgb(0,0,0)" stroke-width="2.0"/>
<text x="67.558484" y="183.625000" fill="rgb(255,12,12)" stroke-width="0" font-weight="bold" font-size="16">O</text>
<text x="405.143328" y="183.625000" fill="rgb(102,102,102)" stroke-width="0" font-weight="bold" font-size="16">CH</text>
<text x="429.143328" y="187.305000" fill="rgb(102,102,102)" stroke-width="0" font-weight="bold" font-size="13">3</text>
<text x="134.675453" y="144.875000" fill="rgb(12,12,255)" stroke-width="0" font-weight="bold" font-size="16">N</text>
</svg>
</g>
</svg>
