<svg xmlns="http://www.w3.org/2000/svg" x="0" y="0" viewBox="0 0 100 100">
<title>I_9_O - Open Babel Depiction</title>
<rect x="0" y="0" width="100" height="100" fill="white"/>
<g transform="translate(0,0)">
<svg width="100" height="100" x="0" y="0" viewBox="0 0 415.236 292.903" font-family="sans-serif" stroke="rgb(0,0,0)" stroke-width="2" stroke-linecap="round">
<line x1="263.4" y1="162.6" x2="207.6" y2="194.8" opacity="1.0" stroke="rgb(0,0,0)" stroke-width="2.0"/>
<line x1="140.6" y1="194.8" x2="107.0" y2="175.5" opacity="1.0" stroke="rgb(0,0,0)" stroke-width="2.0"/>
<line x1="308.2" y1="59.4" x2="308.2" y2="98.1" opacity="1.0" stroke="rgb(0,0,0)" stroke-width="2.0"/>
<line x1="308.2" y1="98.1" x2="274.7" y2="117.4" opacity="1.0" stroke="rgb(0,0,0)" stroke-width="2.0"/>
<line x1="299.4" y1="94.8" x2="276.3" y2="108.2" opacity="1.0" stroke="rgb(0,0,0)" stroke-width="2.0"/>
<line x1="274.7" y1="117.4" x2="241.1" y2="98.1" opacity="1.0" stroke="rgb(0,0,0)" stroke-width="2.0"/>
<line x1="241.1" y1="98.1" x2="241.1" y2="59.4" opacity="1.0" stroke="rgb(0,0,0)" stroke-width="2.0"/>
<line x1="248.3" y1="92.1" x2="248.3" y2="65.4" opacity="1.0" stroke="rgb(0,0,0)" stroke-width="2.0"/>
<line x1="241.1" y1="59.4" x2="274.7" y2="40.0" opacity="1.0" stroke="rgb(0,0,0)" stroke-width="2.0"/>
<line x1="274.7" y1="40.0" x2="308.2" y2="59.4" opacity="1.0" stroke="rgb(0,0,0)" stroke-width="2.0"/>
<line x1="276.3" y1="49.2" x2="299.4" y2="62.6" opacity="1.0" stroke="rgb(0,0,0)" stroke-width="2.0"/>
<line x1="341.7" y1="233.5" x2="308.2" y2="214.2" opacity="1.0" stroke="rgb(0,0,0)" stroke-width="2.0"/>
<line x1="340.1" y1="224.3" x2="317.0" y2="211.0" opacity="1.0" stroke="rgb(0,0,0)" stroke-width="2.0"/>
<line x1="308.2" y1="214.2" x2="308.2" y2="175.5" opacity="1.0" stroke="rgb(0,0,0)" stroke-width="2.0"/>
<line x1="308.2" y1="175.5" x2="341.7" y2="156.1" opacity="1.0" stroke="rgb(0,0,0)" stroke-width="2.0"/>
<line x1="317.0" y1="178.7" x2="340.1" y2="165.4" opacity="1.0" stroke="rgb(0,0,0)" stroke-width="2.0"/>
<line x1="341.7" y1="156.1" x2="375.2" y2="175.5" opacity="1.0" stroke="rgb(0,0,0)" stroke-width="2.0"/>
<line x1="375.2" y1="175.5" x2="375.2" y2="214.2" opacity="1.0" stroke="rgb(0,0,0)" stroke-width="2.0"/>
<line x1="368.0" y1="181.5" x2="368.0" y2="208.2" opacity="1.0" stroke="rgb(0,0,0)" stroke-width="2.0"/>
<line x1="375.2" y1="214.2" x2="341.7" y2="233.5" opacity="1.0" stroke="rgb(0,0,0)" stroke-width="2.0"/>
<line x1="207.6" y1="233.5" x2="174.1" y2="252.9" opacity="1.0" stroke="rgb(0,0,0)" stroke-width="2.0"/>
<line x1="174.1" y1="252.9" x2="140.6" y2="233.5" opacity="1.0" stroke="rgb(0,0,0)" stroke-width="2.0"/>
<line x1="172.5" y1="243.7" x2="149.4" y2="230.3" opacity="1.0" stroke="rgb(0,0,0)" stroke-width="2.0"/>
<line x1="140.6" y1="233.5" x2="140.6" y2="194.8" opacity="1.0" stroke="rgb(0,0,0)" stroke-width="2.0"/>
<line x1="140.6" y1="194.8" x2="174.1" y2="175.5" opacity="1.0" stroke="rgb(0,0,0)" stroke-width="2.0"/>
<line x1="149.4" y1="198.1" x2="172.5" y2="184.7" opacity="1.0" stroke="rgb(0,0,0)" stroke-width="2.0"/>
<line x1="174.1" y1="175.5" x2="207.6" y2="194.8" opacity="1.0" stroke="rgb(0,0,0)" stroke-width="2.0"/>
<line x1="207.6" y1="194.8" x2="207.6" y2="233.5" opacity="1.0" stroke="rgb(0,0,0)" stroke-width="2.0"/>
<line x1="200.4" y1="200.8" x2="200.4" y2="227.5" opacity="1.0" stroke="rgb(0,0,0)" stroke-width="2.0"/>
<line x1="62.3" y1="188.3" x2="40.0" y2="175.5" opacity="1.0" stroke="rgb(0,0,0)" stroke-width="2.0"/>
<line x1="40.0" y1="175.5" x2="40.0" y2="136.8" opacity="1.0" stroke="rgb(0,0,0)" stroke-width="2.0"/>
<line x1="47.2" y1="169.5" x2="47.2" y2="142.8" opacity="1.0" stroke="rgb(0,0,0)" stroke-width="2.0"/>
<line x1="40.0" y1="136.8" x2="73.5" y2="117.4" opacity="1.0" stroke="rgb(0,0,0)" stroke-width="2.0"/>
<line x1="73.5" y1="117.4" x2="107.0" y2="136.8" opacity="1.0" stroke="rgb(0,0,0)" stroke-width="2.0"/>
<line x1="75.1" y1="126.7" x2="98.3" y2="140.0" opacity="1.0" stroke="rgb(0,0,0)" stroke-width="2.0"/>
<line x1="107.0" y1="136.8" x2="107.0" y2="175.5" opacity="1.0" stroke="rgb(0,0,0)" stroke-width="2.0"/>
<line x1="107.0" y1="175.5" x2="84.6" y2="188.5" opacity="1.0" stroke="rgb(0,0,0)" stroke-width="2.0"/>
<line x1="98.3" y1="172.2" x2="82.8" y2="181.2" opacity="1.0" stroke="rgb(0,0,0)" stroke-width="2.0"/>
<line x1="308.2" y1="175.5" x2="285.9" y2="162.6" opacity="1.0" stroke="rgb(0,0,0)" stroke-width="2.0"/>
<line x1="274.7" y1="143.1" x2="274.7" y2="117.4" opacity="1.0" stroke="rgb(0,0,0)" stroke-width="2.0"/>
<line x1="308.2" y1="98.1" x2="330.5" y2="110.9" opacity="1.0" stroke="rgb(0,0,0)" stroke-width="2.0"/>
<line x1="341.7" y1="130.4" x2="341.7" y2="156.1" opacity="1.0" stroke="rgb(0,0,0)" stroke-width="2.0"/>
<text x="335.712076" y="125.419355" fill="rgb(255,12,12)" stroke-width="0" font-weight="bold" font-size="16">O</text>
<text x="67.523564" y="202.838710" fill="rgb(12,12,255)" stroke-width="0" font-weight="bold" font-size="16">N</text>
<text x="268.664948" y="164.129032" fill="rgb(12,12,255)" stroke-width="0" font-weight="bold" font-size="16">N</text>
</svg>
</g>
</svg>
