<svg xmlns="http://www.w3.org/2000/svg" xmlns:xlink="http://www.w3.org/1999/xlink" xmlns:cml="http://www.xml-cml.org/schema" version="1.1" id="topsvg" x="0" y="0" viewBox="0 0 100 100">
<title>J_10_P - Open Babel Depiction</title>
<rect x="0" y="0" width="100" height="100" fill="white"/>
<g transform="translate(0,0)">
<svg width="100" height="100" x="0" y="0" viewBox="0 0 494.307 484.8" font-family="sans-serif" stroke="rgb(0,0,0)" stroke-width="2" stroke-linecap="round">
<line x1="390.6" y1="242.4" x2="338.1" y2="272.7" opacity="1.0" stroke="rgb(0,0,0)" stroke-width="2.0"/>
<line x1="315.6" y1="272.7" x2="263.1" y2="242.4" opacity="1.0" stroke="rgb(0,0,0)" stroke-width="2.0"/>
<line x1="167.5" y1="174.2" x2="167.5" y2="113.6" opacity="1.0" stroke="rgb(0,0,0)" stroke-width="2.0"/>
<line x1="156.2" y1="193.7" x2="103.7" y2="224.0" opacity="1.0" stroke="rgb(0,0,0)" stroke-width="2.0"/>
<line x1="199.3" y1="205.6" x2="178.7" y2="193.7" opacity="1.0" stroke="rgb(0,0,0)" stroke-width="2.0"/>
<line x1="358.7" y1="371.2" x2="379.3" y2="383.1" opacity="1.0" stroke="rgb(0,0,0)" stroke-width="2.0"/>
<line x1="326.8" y1="292.2" x2="326.8" y2="316.0" opacity="1.0" stroke="rgb(0,0,0)" stroke-width="2.0"/>
<line x1="156.2" y1="438.3" x2="146.9" y2="432.9" opacity="1.0" stroke="rgb(0,0,0)" stroke-width="2.0"/>
<line x1="199.3" y1="426.4" x2="178.7" y2="438.3" opacity="1.0" stroke="rgb(0,0,0)" stroke-width="2.0"/>
<line x1="295.0" y1="371.2" x2="263.1" y2="389.6" opacity="1.0" stroke="rgb(0,0,0)" stroke-width="2.0"/>
<line x1="454.3" y1="242.4" x2="422.4" y2="260.8" opacity="1.0" stroke="rgb(0,0,0)" stroke-width="2.0"/>
<line x1="422.4" y1="260.8" x2="390.6" y2="242.4" opacity="1.0" stroke="rgb(0,0,0)" stroke-width="2.0"/>
<line x1="420.8" y1="251.6" x2="399.4" y2="239.2" opacity="1.0" stroke="rgb(0,0,0)" stroke-width="2.0"/>
<line x1="390.6" y1="242.4" x2="390.6" y2="205.6" opacity="1.0" stroke="rgb(0,0,0)" stroke-width="2.0"/>
<line x1="390.6" y1="205.6" x2="422.4" y2="187.2" opacity="1.0" stroke="rgb(0,0,0)" stroke-width="2.0"/>
<line x1="399.4" y1="208.8" x2="420.8" y2="196.4" opacity="1.0" stroke="rgb(0,0,0)" stroke-width="2.0"/>
<line x1="422.4" y1="187.2" x2="454.3" y2="205.6" opacity="1.0" stroke="rgb(0,0,0)" stroke-width="2.0"/>
<line x1="454.3" y1="205.6" x2="454.3" y2="242.4" opacity="1.0" stroke="rgb(0,0,0)" stroke-width="2.0"/>
<line x1="447.1" y1="211.6" x2="447.1" y2="236.4" opacity="1.0" stroke="rgb(0,0,0)" stroke-width="2.0"/>
<line x1="231.2" y1="260.8" x2="199.3" y2="242.4" opacity="1.0" stroke="rgb(0,0,0)" stroke-width="2.0"/>
<line x1="199.3" y1="242.4" x2="199.3" y2="205.6" opacity="1.0" stroke="rgb(0,0,0)" stroke-width="2.0"/>
<line x1="206.5" y1="236.4" x2="206.5" y2="211.6" opacity="1.0" stroke="rgb(0,0,0)" stroke-width="2.0"/>
<line x1="199.3" y1="205.6" x2="231.2" y2="187.2" opacity="1.0" stroke="rgb(0,0,0)" stroke-width="2.0"/>
<line x1="231.2" y1="187.2" x2="263.1" y2="205.6" opacity="1.0" stroke="rgb(0,0,0)" stroke-width="2.0"/>
<line x1="232.8" y1="196.4" x2="254.3" y2="208.8" opacity="1.0" stroke="rgb(0,0,0)" stroke-width="2.0"/>
<line x1="263.1" y1="205.6" x2="263.1" y2="242.4" opacity="1.0" stroke="rgb(0,0,0)" stroke-width="2.0"/>
<line x1="263.1" y1="242.4" x2="231.2" y2="260.8" opacity="1.0" stroke="rgb(0,0,0)" stroke-width="2.0"/>
<line x1="254.3" y1="239.2" x2="232.8" y2="251.6" opacity="1.0" stroke="rgb(0,0,0)" stroke-width="2.0"/>
<line x1="103.7" y1="260.8" x2="103.7" y2="224.0" opacity="1.0" stroke="rgb(0,0,0)" stroke-width="2.0"/>
<line x1="96.5" y1="254.8" x2="96.5" y2="230.0" opacity="1.0" stroke="rgb(0,0,0)" stroke-width="2.0"/>
<line x1="103.7" y1="224.0" x2="71.9" y2="205.6" opacity="1.0" stroke="rgb(0,0,0)" stroke-width="2.0"/>
<line x1="71.9" y1="205.6" x2="40.0" y2="224.0" opacity="1.0" stroke="rgb(0,0,0)" stroke-width="2.0"/>
<line x1="70.3" y1="214.8" x2="48.8" y2="227.2" opacity="1.0" stroke="rgb(0,0,0)" stroke-width="2.0"/>
<line x1="40.0" y1="224.0" x2="40.0" y2="260.8" opacity="1.0" stroke="rgb(0,0,0)" stroke-width="2.0"/>
<line x1="40.0" y1="260.8" x2="71.9" y2="279.2" opacity="1.0" stroke="rgb(0,0,0)" stroke-width="2.0"/>
<line x1="48.8" y1="257.6" x2="70.3" y2="270.0" opacity="1.0" stroke="rgb(0,0,0)" stroke-width="2.0"/>
<line x1="71.9" y1="279.2" x2="103.7" y2="260.8" opacity="1.0" stroke="rgb(0,0,0)" stroke-width="2.0"/>
<line x1="135.6" y1="95.2" x2="167.5" y2="113.6" opacity="1.0" stroke="rgb(0,0,0)" stroke-width="2.0"/>
<line x1="144.4" y1="92.0" x2="165.9" y2="104.4" opacity="1.0" stroke="rgb(0,0,0)" stroke-width="2.0"/>
<line x1="167.5" y1="113.6" x2="199.3" y2="95.2" opacity="1.0" stroke="rgb(0,0,0)" stroke-width="2.0"/>
<line x1="199.3" y1="95.2" x2="199.3" y2="58.4" opacity="1.0" stroke="rgb(0,0,0)" stroke-width="2.0"/>
<line x1="192.1" y1="89.2" x2="192.1" y2="64.4" opacity="1.0" stroke="rgb(0,0,0)" stroke-width="2.0"/>
<line x1="199.3" y1="58.4" x2="167.5" y2="40.0" opacity="1.0" stroke="rgb(0,0,0)" stroke-width="2.0"/>
<line x1="167.5" y1="40.0" x2="135.6" y2="58.4" opacity="1.0" stroke="rgb(0,0,0)" stroke-width="2.0"/>
<line x1="165.9" y1="49.2" x2="144.4" y2="61.6" opacity="1.0" stroke="rgb(0,0,0)" stroke-width="2.0"/>
<line x1="135.6" y1="58.4" x2="135.6" y2="95.2" opacity="1.0" stroke="rgb(0,0,0)" stroke-width="2.0"/>
<line x1="358.7" y1="334.4" x2="358.7" y2="371.2" opacity="1.0" stroke="rgb(0,0,0)" stroke-width="2.0"/>
<line x1="358.7" y1="371.2" x2="326.8" y2="389.6" opacity="1.0" stroke="rgb(0,0,0)" stroke-width="2.0"/>
<line x1="349.9" y1="368.0" x2="328.4" y2="380.4" opacity="1.0" stroke="rgb(0,0,0)" stroke-width="2.0"/>
<line x1="326.8" y1="389.6" x2="295.0" y2="371.2" opacity="1.0" stroke="rgb(0,0,0)" stroke-width="2.0"/>
<line x1="295.0" y1="371.2" x2="295.0" y2="334.4" opacity="1.0" stroke="rgb(0,0,0)" stroke-width="2.0"/>
<line x1="302.2" y1="365.2" x2="302.2" y2="340.4" opacity="1.0" stroke="rgb(0,0,0)" stroke-width="2.0"/>
<line x1="295.0" y1="334.4" x2="326.8" y2="316.0" opacity="1.0" stroke="rgb(0,0,0)" stroke-width="2.0"/>
<line x1="326.8" y1="316.0" x2="358.7" y2="334.4" opacity="1.0" stroke="rgb(0,0,0)" stroke-width="2.0"/>
<line x1="328.4" y1="325.2" x2="349.9" y2="337.6" opacity="1.0" stroke="rgb(0,0,0)" stroke-width="2.0"/>
<line x1="263.1" y1="426.4" x2="231.2" y2="444.8" opacity="1.0" stroke="rgb(0,0,0)" stroke-width="2.0"/>
<line x1="231.2" y1="444.8" x2="199.3" y2="426.4" opacity="1.0" stroke="rgb(0,0,0)" stroke-width="2.0"/>
<line x1="229.6" y1="435.6" x2="208.1" y2="423.2" opacity="1.0" stroke="rgb(0,0,0)" stroke-width="2.0"/>
<line x1="199.3" y1="426.4" x2="199.3" y2="389.6" opacity="1.0" stroke="rgb(0,0,0)" stroke-width="2.0"/>
<line x1="199.3" y1="389.6" x2="231.2" y2="371.2" opacity="1.0" stroke="rgb(0,0,0)" stroke-width="2.0"/>
<line x1="208.1" y1="392.8" x2="229.6" y2="380.4" opacity="1.0" stroke="rgb(0,0,0)" stroke-width="2.0"/>
<line x1="231.2" y1="371.2" x2="263.1" y2="389.6" opacity="1.0" stroke="rgb(0,0,0)" stroke-width="2.0"/>
<line x1="263.1" y1="389.6" x2="263.1" y2="426.4" opacity="1.0" stroke="rgb(0,0,0)" stroke-width="2.0"/>
<line x1="255.9" y1="395.6" x2="255.9" y2="420.4" opacity="1.0" stroke="rgb(0,0,0)" stroke-width="2.0"/>
<text x="384.567083" y="397.600000" fill="rgb(127,178,255)" stroke-width="0" font-weight="bold" font-size="16">F</text>
<text x="161.478939" y="452.800000" fill="rgb(255,12,12)" stroke-width="0" font-weight="bold" font-size="16">O</text>
<text x="109.609205" y="434.400000" fill="rgb(102,102,102)" stroke-width="0" font-weight="bold" font-size="16">H</text>
<text x="121.609205" y="438.080000" fill="rgb(102,102,102)" stroke-width="0" font-weight="bold" font-size="13">3</text>
<text x="128.109205" y="434.400000" fill="rgb(102,102,102)" stroke-width="0" font-weight="bold" font-size="16">C</text>
<text x="320.827614" y="287.200000" fill="rgb(12,12,255)" stroke-width="0" font-weight="bold" font-size="16">N</text>
<text x="161.478939" y="195.200000" fill="rgb(12,12,255)" stroke-width="0" font-weight="bold" font-size="16">N</text>
</svg>
</g>
</svg>