<svg xmlns="http://www.w3.org/2000/svg" xmlns:xlink="http://www.w3.org/1999/xlink" xmlns:cml="http://www.xml-cml.org/schema" version="1.1" id="topsvg" x="0" y="0" viewBox="0 0 100 100">
<title>J_10_S - Open Babel Depiction</title>
<rect x="0" y="0" width="100" height="100" fill="white"/>
<g transform="translate(0,0)">
<svg width="100" height="100" x="0" y="0" viewBox="0 0 495.013 522.353" font-family="sans-serif" stroke="rgb(0,0,0)" stroke-width="2" stroke-linecap="round">
<line x1="103.8" y1="279.6" x2="156.4" y2="249.2" opacity="1.0" stroke="rgb(0,0,0)" stroke-width="2.0"/>
<line x1="179.0" y1="249.2" x2="231.5" y2="279.6" opacity="1.0" stroke="rgb(0,0,0)" stroke-width="2.0"/>
<line x1="327.3" y1="347.9" x2="327.3" y2="408.6" opacity="1.0" stroke="rgb(0,0,0)" stroke-width="2.0"/>
<line x1="338.6" y1="328.4" x2="391.2" y2="298.0" opacity="1.0" stroke="rgb(0,0,0)" stroke-width="2.0"/>
<line x1="295.4" y1="316.5" x2="316.1" y2="328.4" opacity="1.0" stroke="rgb(0,0,0)" stroke-width="2.0"/>
<line x1="135.8" y1="150.6" x2="115.1" y2="138.7" opacity="1.0" stroke="rgb(0,0,0)" stroke-width="2.0"/>
<line x1="167.7" y1="229.7" x2="167.7" y2="205.9" opacity="1.0" stroke="rgb(0,0,0)" stroke-width="2.0"/>
<line x1="295.4" y1="95.3" x2="327.3" y2="76.9" opacity="1.0" stroke="rgb(0,0,0)" stroke-width="2.0"/>
<line x1="327.3" y1="76.9" x2="348.0" y2="88.8" opacity="1.0" stroke="rgb(0,0,0)" stroke-width="2.0"/>
<line x1="324.3" y1="76.9" x2="324.3" y2="53.0" opacity="1.0" stroke="rgb(0,0,0)" stroke-width="2.0"/>
<line x1="330.3" y1="76.9" x2="330.3" y2="53.0" opacity="1.0" stroke="rgb(0,0,0)" stroke-width="2.0"/>
<line x1="199.6" y1="150.6" x2="231.5" y2="132.2" opacity="1.0" stroke="rgb(0,0,0)" stroke-width="2.0"/>
<line x1="40.0" y1="279.6" x2="71.9" y2="261.2" opacity="1.0" stroke="rgb(0,0,0)" stroke-width="2.0"/>
<line x1="71.9" y1="261.2" x2="103.8" y2="279.6" opacity="1.0" stroke="rgb(0,0,0)" stroke-width="2.0"/>
<line x1="73.5" y1="270.4" x2="95.1" y2="282.8" opacity="1.0" stroke="rgb(0,0,0)" stroke-width="2.0"/>
<line x1="103.8" y1="279.6" x2="103.8" y2="316.5" opacity="1.0" stroke="rgb(0,0,0)" stroke-width="2.0"/>
<line x1="103.8" y1="316.5" x2="71.9" y2="334.9" opacity="1.0" stroke="rgb(0,0,0)" stroke-width="2.0"/>
<line x1="95.1" y1="313.2" x2="73.5" y2="325.7" opacity="1.0" stroke="rgb(0,0,0)" stroke-width="2.0"/>
<line x1="71.9" y1="334.9" x2="40.0" y2="316.5" opacity="1.0" stroke="rgb(0,0,0)" stroke-width="2.0"/>
<line x1="40.0" y1="316.5" x2="40.0" y2="279.6" opacity="1.0" stroke="rgb(0,0,0)" stroke-width="2.0"/>
<line x1="47.2" y1="310.5" x2="47.2" y2="285.6" opacity="1.0" stroke="rgb(0,0,0)" stroke-width="2.0"/>
<line x1="263.5" y1="261.2" x2="295.4" y2="279.6" opacity="1.0" stroke="rgb(0,0,0)" stroke-width="2.0"/>
<line x1="295.4" y1="279.6" x2="295.4" y2="316.5" opacity="1.0" stroke="rgb(0,0,0)" stroke-width="2.0"/>
<line x1="288.2" y1="285.6" x2="288.2" y2="310.5" opacity="1.0" stroke="rgb(0,0,0)" stroke-width="2.0"/>
<line x1="295.4" y1="316.5" x2="263.5" y2="334.9" opacity="1.0" stroke="rgb(0,0,0)" stroke-width="2.0"/>
<line x1="263.5" y1="334.9" x2="231.5" y2="316.5" opacity="1.0" stroke="rgb(0,0,0)" stroke-width="2.0"/>
<line x1="261.9" y1="325.7" x2="240.3" y2="313.2" opacity="1.0" stroke="rgb(0,0,0)" stroke-width="2.0"/>
<line x1="231.5" y1="316.5" x2="231.5" y2="279.6" opacity="1.0" stroke="rgb(0,0,0)" stroke-width="2.0"/>
<line x1="231.5" y1="279.6" x2="263.5" y2="261.2" opacity="1.0" stroke="rgb(0,0,0)" stroke-width="2.0"/>
<line x1="240.3" y1="282.8" x2="261.9" y2="270.4" opacity="1.0" stroke="rgb(0,0,0)" stroke-width="2.0"/>
<line x1="391.2" y1="261.2" x2="391.2" y2="298.0" opacity="1.0" stroke="rgb(0,0,0)" stroke-width="2.0"/>
<line x1="398.4" y1="267.2" x2="398.4" y2="292.0" opacity="1.0" stroke="rgb(0,0,0)" stroke-width="2.0"/>
<line x1="391.2" y1="298.0" x2="423.1" y2="316.5" opacity="1.0" stroke="rgb(0,0,0)" stroke-width="2.0"/>
<line x1="423.1" y1="316.5" x2="455.0" y2="298.0" opacity="1.0" stroke="rgb(0,0,0)" stroke-width="2.0"/>
<line x1="424.7" y1="307.2" x2="446.2" y2="294.8" opacity="1.0" stroke="rgb(0,0,0)" stroke-width="2.0"/>
<line x1="455.0" y1="298.0" x2="455.0" y2="261.2" opacity="1.0" stroke="rgb(0,0,0)" stroke-width="2.0"/>
<line x1="455.0" y1="261.2" x2="423.1" y2="242.7" opacity="1.0" stroke="rgb(0,0,0)" stroke-width="2.0"/>
<line x1="446.2" y1="264.4" x2="424.7" y2="252.0" opacity="1.0" stroke="rgb(0,0,0)" stroke-width="2.0"/>
<line x1="423.1" y1="242.7" x2="391.2" y2="261.2" opacity="1.0" stroke="rgb(0,0,0)" stroke-width="2.0"/>
<line x1="359.2" y1="427.1" x2="327.3" y2="408.6" opacity="1.0" stroke="rgb(0,0,0)" stroke-width="2.0"/>
<line x1="350.4" y1="430.3" x2="328.9" y2="417.9" opacity="1.0" stroke="rgb(0,0,0)" stroke-width="2.0"/>
<line x1="327.3" y1="408.6" x2="295.4" y2="427.1" opacity="1.0" stroke="rgb(0,0,0)" stroke-width="2.0"/>
<line x1="295.4" y1="427.1" x2="295.4" y2="463.9" opacity="1.0" stroke="rgb(0,0,0)" stroke-width="2.0"/>
<line x1="302.6" y1="433.1" x2="302.6" y2="457.9" opacity="1.0" stroke="rgb(0,0,0)" stroke-width="2.0"/>
<line x1="295.4" y1="463.9" x2="327.3" y2="482.4" opacity="1.0" stroke="rgb(0,0,0)" stroke-width="2.0"/>
<line x1="327.3" y1="482.4" x2="359.2" y2="463.9" opacity="1.0" stroke="rgb(0,0,0)" stroke-width="2.0"/>
<line x1="328.9" y1="473.1" x2="350.4" y2="460.7" opacity="1.0" stroke="rgb(0,0,0)" stroke-width="2.0"/>
<line x1="359.2" y1="463.9" x2="359.2" y2="427.1" opacity="1.0" stroke="rgb(0,0,0)" stroke-width="2.0"/>
<line x1="135.8" y1="187.5" x2="135.8" y2="150.6" opacity="1.0" stroke="rgb(0,0,0)" stroke-width="2.0"/>
<line x1="135.8" y1="150.6" x2="167.7" y2="132.2" opacity="1.0" stroke="rgb(0,0,0)" stroke-width="2.0"/>
<line x1="144.6" y1="153.8" x2="166.1" y2="141.4" opacity="1.0" stroke="rgb(0,0,0)" stroke-width="2.0"/>
<line x1="167.7" y1="132.2" x2="199.6" y2="150.6" opacity="1.0" stroke="rgb(0,0,0)" stroke-width="2.0"/>
<line x1="199.6" y1="150.6" x2="199.6" y2="187.5" opacity="1.0" stroke="rgb(0,0,0)" stroke-width="2.0"/>
<line x1="192.4" y1="156.6" x2="192.4" y2="181.5" opacity="1.0" stroke="rgb(0,0,0)" stroke-width="2.0"/>
<line x1="199.6" y1="187.5" x2="167.7" y2="205.9" opacity="1.0" stroke="rgb(0,0,0)" stroke-width="2.0"/>
<line x1="167.7" y1="205.9" x2="135.8" y2="187.5" opacity="1.0" stroke="rgb(0,0,0)" stroke-width="2.0"/>
<line x1="166.1" y1="196.6" x2="144.6" y2="184.2" opacity="1.0" stroke="rgb(0,0,0)" stroke-width="2.0"/>
<line x1="231.5" y1="95.3" x2="263.5" y2="76.9" opacity="1.0" stroke="rgb(0,0,0)" stroke-width="2.0"/>
<line x1="263.5" y1="76.9" x2="295.4" y2="95.3" opacity="1.0" stroke="rgb(0,0,0)" stroke-width="2.0"/>
<line x1="265.1" y1="86.1" x2="286.6" y2="98.5" opacity="1.0" stroke="rgb(0,0,0)" stroke-width="2.0"/>
<line x1="295.4" y1="95.3" x2="295.4" y2="132.2" opacity="1.0" stroke="rgb(0,0,0)" stroke-width="2.0"/>
<line x1="295.4" y1="132.2" x2="263.5" y2="150.6" opacity="1.0" stroke="rgb(0,0,0)" stroke-width="2.0"/>
<line x1="286.6" y1="128.9" x2="265.1" y2="141.4" opacity="1.0" stroke="rgb(0,0,0)" stroke-width="2.0"/>
<line x1="263.5" y1="150.6" x2="231.5" y2="132.2" opacity="1.0" stroke="rgb(0,0,0)" stroke-width="2.0"/>
<line x1="231.5" y1="132.2" x2="231.5" y2="95.3" opacity="1.0" stroke="rgb(0,0,0)" stroke-width="2.0"/>
<line x1="238.7" y1="126.2" x2="238.7" y2="101.3" opacity="1.0" stroke="rgb(0,0,0)" stroke-width="2.0"/>
<text x="97.848147" y="140.156863" fill="rgb(127,178,255)" stroke-width="0" font-weight="bold" font-size="16">F</text>
<text x="355.240737" y="103.294118" fill="rgb(102,102,102)" stroke-width="0" font-weight="bold" font-size="16">CH</text>
<text x="379.240737" y="106.974118" fill="rgb(102,102,102)" stroke-width="0" font-weight="bold" font-size="13">3</text>
<text x="321.316663" y="48.000000" fill="rgb(255,12,12)" stroke-width="0" font-weight="bold" font-size="16">O</text>
<text x="161.696295" y="250.745098" fill="rgb(12,12,255)" stroke-width="0" font-weight="bold" font-size="16">N</text>
<text x="321.316663" y="342.901961" fill="rgb(12,12,255)" stroke-width="0" font-weight="bold" font-size="16">N</text>
</svg>
</g>
</svg>