<svg xmlns="http://www.w3.org/2000/svg" xmlns:xlink="http://www.w3.org/1999/xlink" xmlns:cml="http://www.xml-cml.org/schema" version="1.1" id="topsvg" x="0" y="0" viewBox="0 0 100 100">
<title>J_1_N - Open Babel Depiction</title>
<rect x="0" y="0" width="100" height="100" fill="white"/>
<g transform="translate(0,0)">
<svg width="100" height="100" x="0" y="0" viewBox="0 0 548.976 463.478" font-family="sans-serif" stroke="rgb(0,0,0)" stroke-width="2" stroke-linecap="round">
<line x1="224.3" y1="350.4" x2="224.3" y2="290.4" opacity="1.0" stroke="rgb(0,0,0)" stroke-width="2.0"/>
<line x1="235.6" y1="270.9" x2="287.6" y2="240.9" opacity="1.0" stroke="rgb(0,0,0)" stroke-width="2.0"/>
<line x1="393.7" y1="192.6" x2="445.7" y2="222.6" opacity="1.0" stroke="rgb(0,0,0)" stroke-width="2.0"/>
<line x1="382.5" y1="173.1" x2="382.5" y2="113.0" opacity="1.0" stroke="rgb(0,0,0)" stroke-width="2.0"/>
<line x1="350.8" y1="204.3" x2="371.2" y2="192.6" opacity="1.0" stroke="rgb(0,0,0)" stroke-width="2.0"/>
<line x1="213.1" y1="270.9" x2="192.7" y2="259.1" opacity="1.0" stroke="rgb(0,0,0)" stroke-width="2.0"/>
<line x1="129.4" y1="222.6" x2="97.8" y2="204.3" opacity="1.0" stroke="rgb(0,0,0)" stroke-width="2.0"/>
<line x1="64.4" y1="219.2" x2="48.7" y2="201.7" opacity="1.0" stroke="rgb(0,0,0)" stroke-width="2.0"/>
<line x1="46.5" y1="180.8" x2="58.3" y2="160.4" opacity="1.0" stroke="rgb(0,0,0)" stroke-width="2.0"/>
<line x1="58.3" y1="160.4" x2="94.0" y2="168.0" opacity="1.0" stroke="rgb(0,0,0)" stroke-width="2.0"/>
<line x1="62.6" y1="168.7" x2="86.6" y2="173.8" opacity="1.0" stroke="rgb(0,0,0)" stroke-width="2.0"/>
<line x1="94.0" y1="168.0" x2="97.8" y2="204.3" opacity="1.0" stroke="rgb(0,0,0)" stroke-width="2.0"/>
<line x1="97.8" y1="204.3" x2="64.4" y2="219.2" opacity="1.0" stroke="rgb(0,0,0)" stroke-width="2.0"/>
<line x1="89.4" y1="200.2" x2="67.0" y2="210.2" opacity="1.0" stroke="rgb(0,0,0)" stroke-width="2.0"/>
<line x1="192.7" y1="405.2" x2="192.7" y2="368.7" opacity="1.0" stroke="rgb(0,0,0)" stroke-width="2.0"/>
<line x1="192.7" y1="368.7" x2="224.3" y2="350.4" opacity="1.0" stroke="rgb(0,0,0)" stroke-width="2.0"/>
<line x1="201.5" y1="371.9" x2="222.7" y2="359.7" opacity="1.0" stroke="rgb(0,0,0)" stroke-width="2.0"/>
<line x1="224.3" y1="350.4" x2="255.9" y2="368.7" opacity="1.0" stroke="rgb(0,0,0)" stroke-width="2.0"/>
<line x1="255.9" y1="368.7" x2="255.9" y2="405.2" opacity="1.0" stroke="rgb(0,0,0)" stroke-width="2.0"/>
<line x1="248.7" y1="374.7" x2="248.7" y2="399.2" opacity="1.0" stroke="rgb(0,0,0)" stroke-width="2.0"/>
<line x1="255.9" y1="405.2" x2="224.3" y2="423.5" opacity="1.0" stroke="rgb(0,0,0)" stroke-width="2.0"/>
<line x1="224.3" y1="423.5" x2="192.7" y2="405.2" opacity="1.0" stroke="rgb(0,0,0)" stroke-width="2.0"/>
<line x1="222.7" y1="414.2" x2="201.5" y2="402.0" opacity="1.0" stroke="rgb(0,0,0)" stroke-width="2.0"/>
<line x1="287.6" y1="204.3" x2="319.2" y2="186.1" opacity="1.0" stroke="rgb(0,0,0)" stroke-width="2.0"/>
<line x1="319.2" y1="186.1" x2="350.8" y2="204.3" opacity="1.0" stroke="rgb(0,0,0)" stroke-width="2.0"/>
<line x1="320.8" y1="195.3" x2="342.0" y2="207.6" opacity="1.0" stroke="rgb(0,0,0)" stroke-width="2.0"/>
<line x1="350.8" y1="204.3" x2="350.8" y2="240.9" opacity="1.0" stroke="rgb(0,0,0)" stroke-width="2.0"/>
<line x1="350.8" y1="240.9" x2="319.2" y2="259.1" opacity="1.0" stroke="rgb(0,0,0)" stroke-width="2.0"/>
<line x1="342.0" y1="237.6" x2="320.8" y2="249.9" opacity="1.0" stroke="rgb(0,0,0)" stroke-width="2.0"/>
<line x1="319.2" y1="259.1" x2="287.6" y2="240.9" opacity="1.0" stroke="rgb(0,0,0)" stroke-width="2.0"/>
<line x1="287.6" y1="240.9" x2="287.6" y2="204.3" opacity="1.0" stroke="rgb(0,0,0)" stroke-width="2.0"/>
<line x1="294.8" y1="234.9" x2="294.8" y2="210.3" opacity="1.0" stroke="rgb(0,0,0)" stroke-width="2.0"/>
<line x1="350.8" y1="94.8" x2="382.5" y2="113.0" opacity="1.0" stroke="rgb(0,0,0)" stroke-width="2.0"/>
<line x1="359.6" y1="91.5" x2="380.9" y2="103.8" opacity="1.0" stroke="rgb(0,0,0)" stroke-width="2.0"/>
<line x1="382.5" y1="113.0" x2="414.1" y2="94.8" opacity="1.0" stroke="rgb(0,0,0)" stroke-width="2.0"/>
<line x1="414.1" y1="94.8" x2="414.1" y2="58.3" opacity="1.0" stroke="rgb(0,0,0)" stroke-width="2.0"/>
<line x1="406.9" y1="88.8" x2="406.9" y2="64.3" opacity="1.0" stroke="rgb(0,0,0)" stroke-width="2.0"/>
<line x1="414.1" y1="58.3" x2="382.5" y2="40.0" opacity="1.0" stroke="rgb(0,0,0)" stroke-width="2.0"/>
<line x1="382.5" y1="40.0" x2="350.8" y2="58.3" opacity="1.0" stroke="rgb(0,0,0)" stroke-width="2.0"/>
<line x1="380.9" y1="49.2" x2="359.6" y2="61.5" opacity="1.0" stroke="rgb(0,0,0)" stroke-width="2.0"/>
<line x1="350.8" y1="58.3" x2="350.8" y2="94.8" opacity="1.0" stroke="rgb(0,0,0)" stroke-width="2.0"/>
<line x1="477.3" y1="204.3" x2="445.7" y2="222.6" opacity="1.0" stroke="rgb(0,0,0)" stroke-width="2.0"/>
<line x1="475.8" y1="213.6" x2="454.5" y2="225.8" opacity="1.0" stroke="rgb(0,0,0)" stroke-width="2.0"/>
<line x1="445.7" y1="222.6" x2="445.7" y2="259.1" opacity="1.0" stroke="rgb(0,0,0)" stroke-width="2.0"/>
<line x1="445.7" y1="259.1" x2="477.3" y2="277.4" opacity="1.0" stroke="rgb(0,0,0)" stroke-width="2.0"/>
<line x1="454.5" y1="255.9" x2="475.8" y2="268.2" opacity="1.0" stroke="rgb(0,0,0)" stroke-width="2.0"/>
<line x1="477.3" y1="277.4" x2="509.0" y2="259.1" opacity="1.0" stroke="rgb(0,0,0)" stroke-width="2.0"/>
<line x1="509.0" y1="259.1" x2="509.0" y2="222.6" opacity="1.0" stroke="rgb(0,0,0)" stroke-width="2.0"/>
<line x1="501.8" y1="253.1" x2="501.8" y2="228.6" opacity="1.0" stroke="rgb(0,0,0)" stroke-width="2.0"/>
<line x1="509.0" y1="222.6" x2="477.3" y2="204.3" opacity="1.0" stroke="rgb(0,0,0)" stroke-width="2.0"/>
<line x1="161.1" y1="277.4" x2="129.4" y2="259.1" opacity="1.0" stroke="rgb(0,0,0)" stroke-width="2.0"/>
<line x1="129.4" y1="259.1" x2="129.4" y2="222.6" opacity="1.0" stroke="rgb(0,0,0)" stroke-width="2.0"/>
<line x1="136.6" y1="253.1" x2="136.6" y2="228.6" opacity="1.0" stroke="rgb(0,0,0)" stroke-width="2.0"/>
<line x1="129.4" y1="222.6" x2="161.1" y2="204.3" opacity="1.0" stroke="rgb(0,0,0)" stroke-width="2.0"/>
<line x1="161.1" y1="204.3" x2="192.7" y2="222.6" opacity="1.0" stroke="rgb(0,0,0)" stroke-width="2.0"/>
<line x1="162.7" y1="213.6" x2="183.9" y2="225.8" opacity="1.0" stroke="rgb(0,0,0)" stroke-width="2.0"/>
<line x1="192.7" y1="222.6" x2="192.7" y2="259.1" opacity="1.0" stroke="rgb(0,0,0)" stroke-width="2.0"/>
<line x1="192.7" y1="259.1" x2="161.1" y2="277.4" opacity="1.0" stroke="rgb(0,0,0)" stroke-width="2.0"/>
<line x1="183.9" y1="255.9" x2="162.7" y2="268.2" opacity="1.0" stroke="rgb(0,0,0)" stroke-width="2.0"/>
<text x="34.000000" y="200.061614" fill="rgb(178,178,0)" stroke-width="0" font-weight="bold" font-size="16">S</text>
<text x="218.317098" y="285.391304" fill="rgb(12,12,255)" stroke-width="0" font-weight="bold" font-size="16">N</text>
<text x="376.460867" y="194.086957" fill="rgb(12,12,255)" stroke-width="0" font-weight="bold" font-size="16">N</text>
</svg>
</g>
</svg>