<svg xmlns="http://www.w3.org/2000/svg" xmlns:xlink="http://www.w3.org/1999/xlink" xmlns:cml="http://www.xml-cml.org/schema" version="1.1" id="topsvg" x="0" y="0" viewBox="0 0 100 100">
<title>J_1_O - Open Babel Depiction</title>
<rect x="0" y="0" width="100" height="100" fill="white"/>
<g transform="translate(0,0)">
<svg width="100" height="100" x="0" y="0" viewBox="0 0 555.393 464.255" font-family="sans-serif" stroke="rgb(0,0,0)" stroke-width="2" stroke-linecap="round">
<line x1="230.2" y1="351.1" x2="230.2" y2="290.9" opacity="1.0" stroke="rgb(0,0,0)" stroke-width="2.0"/>
<line x1="241.4" y1="271.4" x2="293.5" y2="241.3" opacity="1.0" stroke="rgb(0,0,0)" stroke-width="2.0"/>
<line x1="399.9" y1="192.9" x2="452.0" y2="223.0" opacity="1.0" stroke="rgb(0,0,0)" stroke-width="2.0"/>
<line x1="388.6" y1="173.4" x2="388.6" y2="113.2" opacity="1.0" stroke="rgb(0,0,0)" stroke-width="2.0"/>
<line x1="356.9" y1="204.7" x2="377.4" y2="192.9" opacity="1.0" stroke="rgb(0,0,0)" stroke-width="2.0"/>
<line x1="218.9" y1="271.4" x2="198.5" y2="259.6" opacity="1.0" stroke="rgb(0,0,0)" stroke-width="2.0"/>
<line x1="135.1" y1="223.0" x2="103.4" y2="204.7" opacity="1.0" stroke="rgb(0,0,0)" stroke-width="2.0"/>
<line x1="198.5" y1="406.0" x2="198.5" y2="369.4" opacity="1.0" stroke="rgb(0,0,0)" stroke-width="2.0"/>
<line x1="198.5" y1="369.4" x2="230.2" y2="351.1" opacity="1.0" stroke="rgb(0,0,0)" stroke-width="2.0"/>
<line x1="207.3" y1="372.6" x2="228.6" y2="360.3" opacity="1.0" stroke="rgb(0,0,0)" stroke-width="2.0"/>
<line x1="230.2" y1="351.1" x2="261.8" y2="369.4" opacity="1.0" stroke="rgb(0,0,0)" stroke-width="2.0"/>
<line x1="261.8" y1="369.4" x2="261.8" y2="406.0" opacity="1.0" stroke="rgb(0,0,0)" stroke-width="2.0"/>
<line x1="254.6" y1="375.4" x2="254.6" y2="400.0" opacity="1.0" stroke="rgb(0,0,0)" stroke-width="2.0"/>
<line x1="261.8" y1="406.0" x2="230.2" y2="424.3" opacity="1.0" stroke="rgb(0,0,0)" stroke-width="2.0"/>
<line x1="230.2" y1="424.3" x2="198.5" y2="406.0" opacity="1.0" stroke="rgb(0,0,0)" stroke-width="2.0"/>
<line x1="228.6" y1="415.0" x2="207.3" y2="402.7" opacity="1.0" stroke="rgb(0,0,0)" stroke-width="2.0"/>
<line x1="293.5" y1="204.7" x2="325.2" y2="186.4" opacity="1.0" stroke="rgb(0,0,0)" stroke-width="2.0"/>
<line x1="325.2" y1="186.4" x2="356.9" y2="204.7" opacity="1.0" stroke="rgb(0,0,0)" stroke-width="2.0"/>
<line x1="326.8" y1="195.6" x2="348.1" y2="207.9" opacity="1.0" stroke="rgb(0,0,0)" stroke-width="2.0"/>
<line x1="356.9" y1="204.7" x2="356.9" y2="241.3" opacity="1.0" stroke="rgb(0,0,0)" stroke-width="2.0"/>
<line x1="356.9" y1="241.3" x2="325.2" y2="259.6" opacity="1.0" stroke="rgb(0,0,0)" stroke-width="2.0"/>
<line x1="348.1" y1="238.0" x2="326.8" y2="250.3" opacity="1.0" stroke="rgb(0,0,0)" stroke-width="2.0"/>
<line x1="325.2" y1="259.6" x2="293.5" y2="241.3" opacity="1.0" stroke="rgb(0,0,0)" stroke-width="2.0"/>
<line x1="293.5" y1="241.3" x2="293.5" y2="204.7" opacity="1.0" stroke="rgb(0,0,0)" stroke-width="2.0"/>
<line x1="300.7" y1="235.3" x2="300.7" y2="210.7" opacity="1.0" stroke="rgb(0,0,0)" stroke-width="2.0"/>
<line x1="356.9" y1="94.9" x2="388.6" y2="113.2" opacity="1.0" stroke="rgb(0,0,0)" stroke-width="2.0"/>
<line x1="365.7" y1="91.7" x2="387.0" y2="104.0" opacity="1.0" stroke="rgb(0,0,0)" stroke-width="2.0"/>
<line x1="388.6" y1="113.2" x2="420.3" y2="94.9" opacity="1.0" stroke="rgb(0,0,0)" stroke-width="2.0"/>
<line x1="420.3" y1="94.9" x2="420.3" y2="58.3" opacity="1.0" stroke="rgb(0,0,0)" stroke-width="2.0"/>
<line x1="413.1" y1="88.9" x2="413.1" y2="64.3" opacity="1.0" stroke="rgb(0,0,0)" stroke-width="2.0"/>
<line x1="420.3" y1="58.3" x2="388.6" y2="40.0" opacity="1.0" stroke="rgb(0,0,0)" stroke-width="2.0"/>
<line x1="388.6" y1="40.0" x2="356.9" y2="58.3" opacity="1.0" stroke="rgb(0,0,0)" stroke-width="2.0"/>
<line x1="387.0" y1="49.2" x2="365.7" y2="61.5" opacity="1.0" stroke="rgb(0,0,0)" stroke-width="2.0"/>
<line x1="356.9" y1="58.3" x2="356.9" y2="94.9" opacity="1.0" stroke="rgb(0,0,0)" stroke-width="2.0"/>
<line x1="483.7" y1="204.7" x2="452.0" y2="223.0" opacity="1.0" stroke="rgb(0,0,0)" stroke-width="2.0"/>
<line x1="482.1" y1="213.9" x2="460.8" y2="226.2" opacity="1.0" stroke="rgb(0,0,0)" stroke-width="2.0"/>
<line x1="452.0" y1="223.0" x2="452.0" y2="259.6" opacity="1.0" stroke="rgb(0,0,0)" stroke-width="2.0"/>
<line x1="452.0" y1="259.6" x2="483.7" y2="277.9" opacity="1.0" stroke="rgb(0,0,0)" stroke-width="2.0"/>
<line x1="460.8" y1="256.3" x2="482.1" y2="268.6" opacity="1.0" stroke="rgb(0,0,0)" stroke-width="2.0"/>
<line x1="483.7" y1="277.9" x2="515.4" y2="259.6" opacity="1.0" stroke="rgb(0,0,0)" stroke-width="2.0"/>
<line x1="515.4" y1="259.6" x2="515.4" y2="223.0" opacity="1.0" stroke="rgb(0,0,0)" stroke-width="2.0"/>
<line x1="508.2" y1="253.6" x2="508.2" y2="229.0" opacity="1.0" stroke="rgb(0,0,0)" stroke-width="2.0"/>
<line x1="515.4" y1="223.0" x2="483.7" y2="204.7" opacity="1.0" stroke="rgb(0,0,0)" stroke-width="2.0"/>
<line x1="166.8" y1="277.9" x2="135.1" y2="259.6" opacity="1.0" stroke="rgb(0,0,0)" stroke-width="2.0"/>
<line x1="135.1" y1="259.6" x2="135.1" y2="223.0" opacity="1.0" stroke="rgb(0,0,0)" stroke-width="2.0"/>
<line x1="142.3" y1="253.6" x2="142.3" y2="229.0" opacity="1.0" stroke="rgb(0,0,0)" stroke-width="2.0"/>
<line x1="135.1" y1="223.0" x2="166.8" y2="204.7" opacity="1.0" stroke="rgb(0,0,0)" stroke-width="2.0"/>
<line x1="166.8" y1="204.7" x2="198.5" y2="223.0" opacity="1.0" stroke="rgb(0,0,0)" stroke-width="2.0"/>
<line x1="168.4" y1="213.9" x2="189.7" y2="226.2" opacity="1.0" stroke="rgb(0,0,0)" stroke-width="2.0"/>
<line x1="198.5" y1="223.0" x2="198.5" y2="259.6" opacity="1.0" stroke="rgb(0,0,0)" stroke-width="2.0"/>
<line x1="198.5" y1="259.6" x2="166.8" y2="277.9" opacity="1.0" stroke="rgb(0,0,0)" stroke-width="2.0"/>
<line x1="189.7" y1="256.3" x2="168.4" y2="268.6" opacity="1.0" stroke="rgb(0,0,0)" stroke-width="2.0"/>
<line x1="60.4" y1="216.5" x2="40.0" y2="204.7" opacity="1.0" stroke="rgb(0,0,0)" stroke-width="2.0"/>
<line x1="40.0" y1="204.7" x2="40.0" y2="168.1" opacity="1.0" stroke="rgb(0,0,0)" stroke-width="2.0"/>
<line x1="47.2" y1="198.7" x2="47.2" y2="174.1" opacity="1.0" stroke="rgb(0,0,0)" stroke-width="2.0"/>
<line x1="40.0" y1="168.1" x2="71.7" y2="149.8" opacity="1.0" stroke="rgb(0,0,0)" stroke-width="2.0"/>
<line x1="71.7" y1="149.8" x2="103.4" y2="168.1" opacity="1.0" stroke="rgb(0,0,0)" stroke-width="2.0"/>
<line x1="73.3" y1="159.0" x2="94.6" y2="171.3" opacity="1.0" stroke="rgb(0,0,0)" stroke-width="2.0"/>
<line x1="103.4" y1="168.1" x2="103.4" y2="204.7" opacity="1.0" stroke="rgb(0,0,0)" stroke-width="2.0"/>
<line x1="103.4" y1="204.7" x2="82.2" y2="216.9" opacity="1.0" stroke="rgb(0,0,0)" stroke-width="2.0"/>
<line x1="94.6" y1="201.4" x2="80.6" y2="209.5" opacity="1.0" stroke="rgb(0,0,0)" stroke-width="2.0"/>
<text x="65.692845" y="230.978723" fill="rgb(12,12,255)" stroke-width="0" font-weight="bold" font-size="16">N</text>
<text x="224.157067" y="285.872340" fill="rgb(12,12,255)" stroke-width="0" font-weight="bold" font-size="16">N</text>
<text x="382.621290" y="194.382979" fill="rgb(12,12,255)" stroke-width="0" font-weight="bold" font-size="16">N</text>
</svg>
</g>
</svg>