<svg xmlns="http://www.w3.org/2000/svg" xmlns:xlink="http://www.w3.org/1999/xlink" xmlns:cml="http://www.xml-cml.org/schema" version="1.1" id="topsvg" x="0" y="0" viewBox="0 0 100 100">
<title>J_1_L - Open Babel Depiction</title>
<rect x="0" y="0" width="100" height="100" fill="white"/>
<g transform="translate(0,0)">
<svg width="100" height="100" x="0" y="0" viewBox="0 0 615.587 467.059" font-family="sans-serif" stroke="rgb(0,0,0)" stroke-width="2" stroke-linecap="round">
<line x1="288.3" y1="353.3" x2="288.3" y2="292.6" opacity="1.0" stroke="rgb(0,0,0)" stroke-width="2.0"/>
<line x1="299.5" y1="273.1" x2="352.1" y2="242.7" opacity="1.0" stroke="rgb(0,0,0)" stroke-width="2.0"/>
<line x1="459.1" y1="194.0" x2="511.7" y2="224.3" opacity="1.0" stroke="rgb(0,0,0)" stroke-width="2.0"/>
<line x1="447.9" y1="174.5" x2="447.9" y2="113.7" opacity="1.0" stroke="rgb(0,0,0)" stroke-width="2.0"/>
<line x1="416.0" y1="205.9" x2="436.6" y2="194.0" opacity="1.0" stroke="rgb(0,0,0)" stroke-width="2.0"/>
<line x1="277.0" y1="273.1" x2="256.3" y2="261.2" opacity="1.0" stroke="rgb(0,0,0)" stroke-width="2.0"/>
<line x1="192.5" y1="224.3" x2="160.6" y2="205.9" opacity="1.0" stroke="rgb(0,0,0)" stroke-width="2.0"/>
<line x1="40.0" y1="187.5" x2="61.7" y2="217.3" opacity="1.0" stroke="rgb(0,0,0)" stroke-width="2.0"/>
<line x1="49.4" y1="188.1" x2="64.0" y2="208.2" opacity="1.0" stroke="rgb(0,0,0)" stroke-width="2.0"/>
<line x1="61.7" y1="217.3" x2="96.7" y2="205.9" opacity="1.0" stroke="rgb(0,0,0)" stroke-width="2.0"/>
<line x1="96.7" y1="205.9" x2="96.7" y2="169.0" opacity="1.0" stroke="rgb(0,0,0)" stroke-width="2.0"/>
<line x1="96.7" y1="169.0" x2="74.0" y2="161.6" opacity="1.0" stroke="rgb(0,0,0)" stroke-width="2.0"/>
<line x1="54.0" y1="168.1" x2="40.0" y2="187.5" opacity="1.0" stroke="rgb(0,0,0)" stroke-width="2.0"/>
<line x1="256.3" y1="408.6" x2="256.3" y2="371.8" opacity="1.0" stroke="rgb(0,0,0)" stroke-width="2.0"/>
<line x1="256.3" y1="371.8" x2="288.3" y2="353.3" opacity="1.0" stroke="rgb(0,0,0)" stroke-width="2.0"/>
<line x1="265.1" y1="375.0" x2="286.7" y2="362.6" opacity="1.0" stroke="rgb(0,0,0)" stroke-width="2.0"/>
<line x1="288.3" y1="353.3" x2="320.2" y2="371.8" opacity="1.0" stroke="rgb(0,0,0)" stroke-width="2.0"/>
<line x1="320.2" y1="371.8" x2="320.2" y2="408.6" opacity="1.0" stroke="rgb(0,0,0)" stroke-width="2.0"/>
<line x1="313.0" y1="377.8" x2="313.0" y2="402.6" opacity="1.0" stroke="rgb(0,0,0)" stroke-width="2.0"/>
<line x1="320.2" y1="408.6" x2="288.3" y2="427.1" opacity="1.0" stroke="rgb(0,0,0)" stroke-width="2.0"/>
<line x1="288.3" y1="427.1" x2="256.3" y2="408.6" opacity="1.0" stroke="rgb(0,0,0)" stroke-width="2.0"/>
<line x1="286.7" y1="417.8" x2="265.1" y2="405.4" opacity="1.0" stroke="rgb(0,0,0)" stroke-width="2.0"/>
<line x1="352.1" y1="205.9" x2="384.0" y2="187.5" opacity="1.0" stroke="rgb(0,0,0)" stroke-width="2.0"/>
<line x1="384.0" y1="187.5" x2="416.0" y2="205.9" opacity="1.0" stroke="rgb(0,0,0)" stroke-width="2.0"/>
<line x1="385.6" y1="196.7" x2="407.2" y2="209.1" opacity="1.0" stroke="rgb(0,0,0)" stroke-width="2.0"/>
<line x1="416.0" y1="205.9" x2="416.0" y2="242.7" opacity="1.0" stroke="rgb(0,0,0)" stroke-width="2.0"/>
<line x1="416.0" y1="242.7" x2="384.0" y2="261.2" opacity="1.0" stroke="rgb(0,0,0)" stroke-width="2.0"/>
<line x1="407.2" y1="239.5" x2="385.6" y2="251.9" opacity="1.0" stroke="rgb(0,0,0)" stroke-width="2.0"/>
<line x1="384.0" y1="261.2" x2="352.1" y2="242.7" opacity="1.0" stroke="rgb(0,0,0)" stroke-width="2.0"/>
<line x1="352.1" y1="242.7" x2="352.1" y2="205.9" opacity="1.0" stroke="rgb(0,0,0)" stroke-width="2.0"/>
<line x1="359.3" y1="236.7" x2="359.3" y2="211.9" opacity="1.0" stroke="rgb(0,0,0)" stroke-width="2.0"/>
<line x1="416.0" y1="95.3" x2="447.9" y2="113.7" opacity="1.0" stroke="rgb(0,0,0)" stroke-width="2.0"/>
<line x1="424.8" y1="92.1" x2="446.3" y2="104.5" opacity="1.0" stroke="rgb(0,0,0)" stroke-width="2.0"/>
<line x1="447.9" y1="113.7" x2="479.8" y2="95.3" opacity="1.0" stroke="rgb(0,0,0)" stroke-width="2.0"/>
<line x1="479.8" y1="95.3" x2="479.8" y2="58.4" opacity="1.0" stroke="rgb(0,0,0)" stroke-width="2.0"/>
<line x1="472.6" y1="89.3" x2="472.6" y2="64.4" opacity="1.0" stroke="rgb(0,0,0)" stroke-width="2.0"/>
<line x1="479.8" y1="58.4" x2="447.9" y2="40.0" opacity="1.0" stroke="rgb(0,0,0)" stroke-width="2.0"/>
<line x1="447.9" y1="40.0" x2="416.0" y2="58.4" opacity="1.0" stroke="rgb(0,0,0)" stroke-width="2.0"/>
<line x1="446.3" y1="49.2" x2="424.8" y2="61.7" opacity="1.0" stroke="rgb(0,0,0)" stroke-width="2.0"/>
<line x1="416.0" y1="58.4" x2="416.0" y2="95.3" opacity="1.0" stroke="rgb(0,0,0)" stroke-width="2.0"/>
<line x1="543.7" y1="205.9" x2="511.7" y2="224.3" opacity="1.0" stroke="rgb(0,0,0)" stroke-width="2.0"/>
<line x1="542.1" y1="215.1" x2="520.5" y2="227.5" opacity="1.0" stroke="rgb(0,0,0)" stroke-width="2.0"/>
<line x1="511.7" y1="224.3" x2="511.7" y2="261.2" opacity="1.0" stroke="rgb(0,0,0)" stroke-width="2.0"/>
<line x1="511.7" y1="261.2" x2="543.7" y2="279.6" opacity="1.0" stroke="rgb(0,0,0)" stroke-width="2.0"/>
<line x1="520.5" y1="257.9" x2="542.1" y2="270.4" opacity="1.0" stroke="rgb(0,0,0)" stroke-width="2.0"/>
<line x1="543.7" y1="279.6" x2="575.6" y2="261.2" opacity="1.0" stroke="rgb(0,0,0)" stroke-width="2.0"/>
<line x1="575.6" y1="261.2" x2="575.6" y2="224.3" opacity="1.0" stroke="rgb(0,0,0)" stroke-width="2.0"/>
<line x1="568.4" y1="255.2" x2="568.4" y2="230.3" opacity="1.0" stroke="rgb(0,0,0)" stroke-width="2.0"/>
<line x1="575.6" y1="224.3" x2="543.7" y2="205.9" opacity="1.0" stroke="rgb(0,0,0)" stroke-width="2.0"/>
<line x1="224.4" y1="279.6" x2="192.5" y2="261.2" opacity="1.0" stroke="rgb(0,0,0)" stroke-width="2.0"/>
<line x1="192.5" y1="261.2" x2="192.5" y2="224.3" opacity="1.0" stroke="rgb(0,0,0)" stroke-width="2.0"/>
<line x1="199.7" y1="255.2" x2="199.7" y2="230.3" opacity="1.0" stroke="rgb(0,0,0)" stroke-width="2.0"/>
<line x1="192.5" y1="224.3" x2="224.4" y2="205.9" opacity="1.0" stroke="rgb(0,0,0)" stroke-width="2.0"/>
<line x1="224.4" y1="205.9" x2="256.3" y2="224.3" opacity="1.0" stroke="rgb(0,0,0)" stroke-width="2.0"/>
<line x1="226.0" y1="215.1" x2="247.6" y2="227.5" opacity="1.0" stroke="rgb(0,0,0)" stroke-width="2.0"/>
<line x1="256.3" y1="224.3" x2="256.3" y2="261.2" opacity="1.0" stroke="rgb(0,0,0)" stroke-width="2.0"/>
<line x1="256.3" y1="261.2" x2="224.4" y2="279.6" opacity="1.0" stroke="rgb(0,0,0)" stroke-width="2.0"/>
<line x1="247.6" y1="257.9" x2="226.0" y2="270.4" opacity="1.0" stroke="rgb(0,0,0)" stroke-width="2.0"/>
<line x1="160.6" y1="169.0" x2="128.7" y2="150.6" opacity="1.0" stroke="rgb(0,0,0)" stroke-width="2.0"/>
<line x1="128.7" y1="150.6" x2="96.7" y2="169.0" opacity="1.0" stroke="rgb(0,0,0)" stroke-width="2.0"/>
<line x1="127.1" y1="159.8" x2="105.5" y2="172.3" opacity="1.0" stroke="rgb(0,0,0)" stroke-width="2.0"/>
<line x1="96.7" y1="205.9" x2="128.7" y2="224.3" opacity="1.0" stroke="rgb(0,0,0)" stroke-width="2.0"/>
<line x1="105.5" y1="202.6" x2="127.1" y2="215.1" opacity="1.0" stroke="rgb(0,0,0)" stroke-width="2.0"/>
<line x1="128.7" y1="224.3" x2="160.6" y2="205.9" opacity="1.0" stroke="rgb(0,0,0)" stroke-width="2.0"/>
<line x1="160.6" y1="205.9" x2="160.6" y2="169.0" opacity="1.0" stroke="rgb(0,0,0)" stroke-width="2.0"/>
<line x1="153.4" y1="199.9" x2="153.4" y2="175.0" opacity="1.0" stroke="rgb(0,0,0)" stroke-width="2.0"/>
<text x="55.667378" y="165.628393" fill="rgb(12,12,255)" stroke-width="0" font-weight="bold" font-size="16">N</text>
<text x="55.667378" y="149.628393" fill="rgb(12,12,255)" stroke-width="0" font-weight="bold" font-size="16">H</text>
<text x="282.270374" y="287.607843" fill="rgb(12,12,255)" stroke-width="0" font-weight="bold" font-size="16">N</text>
<text x="441.890743" y="195.450980" fill="rgb(12,12,255)" stroke-width="0" font-weight="bold" font-size="16">N</text>
</svg>
</g>
</svg>