<svg xmlns="http://www.w3.org/2000/svg" xmlns:xlink="http://www.w3.org/1999/xlink" xmlns:cml="http://www.xml-cml.org/schema" version="1.1" id="topsvg" x="0" y="0" viewBox="0 0 100 100">
<title>J_2_T - Open Babel Depiction</title>
<rect x="0" y="0" width="100" height="100" fill="white"/>
<g transform="translate(0,0)">
<svg width="100" height="100" x="0" y="0" viewBox="0 0 506.777 432" font-family="sans-serif" stroke="rgb(0,0,0)" stroke-width="2" stroke-linecap="round">
<line x1="222.9" y1="321.6" x2="222.9" y2="264.2" opacity="1.0" stroke="rgb(0,0,0)" stroke-width="2.0"/>
<line x1="234.2" y1="244.7" x2="253.4" y2="233.6" opacity="1.0" stroke="rgb(0,0,0)" stroke-width="2.0"/>
<line x1="356.1" y1="187.3" x2="405.8" y2="216.0" opacity="1.0" stroke="rgb(0,0,0)" stroke-width="2.0"/>
<line x1="344.8" y1="167.8" x2="344.8" y2="110.4" opacity="1.0" stroke="rgb(0,0,0)" stroke-width="2.0"/>
<line x1="314.4" y1="198.4" x2="333.6" y2="187.3" opacity="1.0" stroke="rgb(0,0,0)" stroke-width="2.0"/>
<line x1="211.6" y1="244.7" x2="101.0" y2="180.8" opacity="1.0" stroke="rgb(0,0,0)" stroke-width="2.0"/>
<line x1="70.5" y1="304.0" x2="70.5" y2="326.2" opacity="1.0" stroke="rgb(0,0,0)" stroke-width="2.0"/>
<line x1="70.5" y1="198.4" x2="70.5" y2="233.6" opacity="1.0" stroke="rgb(0,0,0)" stroke-width="2.0"/>
<line x1="192.4" y1="374.4" x2="192.4" y2="339.2" opacity="1.0" stroke="rgb(0,0,0)" stroke-width="2.0"/>
<line x1="192.4" y1="339.2" x2="222.9" y2="321.6" opacity="1.0" stroke="rgb(0,0,0)" stroke-width="2.0"/>
<line x1="201.2" y1="342.4" x2="221.3" y2="330.8" opacity="1.0" stroke="rgb(0,0,0)" stroke-width="2.0"/>
<line x1="222.9" y1="321.6" x2="253.4" y2="339.2" opacity="1.0" stroke="rgb(0,0,0)" stroke-width="2.0"/>
<line x1="253.4" y1="339.2" x2="253.4" y2="374.4" opacity="1.0" stroke="rgb(0,0,0)" stroke-width="2.0"/>
<line x1="246.2" y1="345.2" x2="246.2" y2="368.4" opacity="1.0" stroke="rgb(0,0,0)" stroke-width="2.0"/>
<line x1="253.4" y1="374.4" x2="222.9" y2="392.0" opacity="1.0" stroke="rgb(0,0,0)" stroke-width="2.0"/>
<line x1="222.9" y1="392.0" x2="192.4" y2="374.4" opacity="1.0" stroke="rgb(0,0,0)" stroke-width="2.0"/>
<line x1="221.3" y1="382.8" x2="201.2" y2="371.2" opacity="1.0" stroke="rgb(0,0,0)" stroke-width="2.0"/>
<line x1="253.4" y1="198.4" x2="283.9" y2="180.8" opacity="1.0" stroke="rgb(0,0,0)" stroke-width="2.0"/>
<line x1="283.9" y1="180.8" x2="314.4" y2="198.4" opacity="1.0" stroke="rgb(0,0,0)" stroke-width="2.0"/>
<line x1="285.5" y1="190.0" x2="305.6" y2="201.6" opacity="1.0" stroke="rgb(0,0,0)" stroke-width="2.0"/>
<line x1="314.4" y1="198.4" x2="314.4" y2="233.6" opacity="1.0" stroke="rgb(0,0,0)" stroke-width="2.0"/>
<line x1="314.4" y1="233.6" x2="283.9" y2="251.2" opacity="1.0" stroke="rgb(0,0,0)" stroke-width="2.0"/>
<line x1="305.6" y1="230.4" x2="285.5" y2="242.0" opacity="1.0" stroke="rgb(0,0,0)" stroke-width="2.0"/>
<line x1="283.9" y1="251.2" x2="253.4" y2="233.6" opacity="1.0" stroke="rgb(0,0,0)" stroke-width="2.0"/>
<line x1="253.4" y1="233.6" x2="253.4" y2="198.4" opacity="1.0" stroke="rgb(0,0,0)" stroke-width="2.0"/>
<line x1="260.6" y1="227.6" x2="260.6" y2="204.4" opacity="1.0" stroke="rgb(0,0,0)" stroke-width="2.0"/>
<line x1="314.4" y1="92.8" x2="344.8" y2="110.4" opacity="1.0" stroke="rgb(0,0,0)" stroke-width="2.0"/>
<line x1="323.2" y1="89.6" x2="343.2" y2="101.2" opacity="1.0" stroke="rgb(0,0,0)" stroke-width="2.0"/>
<line x1="344.8" y1="110.4" x2="375.3" y2="92.8" opacity="1.0" stroke="rgb(0,0,0)" stroke-width="2.0"/>
<line x1="375.3" y1="92.8" x2="375.3" y2="57.6" opacity="1.0" stroke="rgb(0,0,0)" stroke-width="2.0"/>
<line x1="368.1" y1="86.8" x2="368.1" y2="63.6" opacity="1.0" stroke="rgb(0,0,0)" stroke-width="2.0"/>
<line x1="375.3" y1="57.6" x2="344.8" y2="40.0" opacity="1.0" stroke="rgb(0,0,0)" stroke-width="2.0"/>
<line x1="344.8" y1="40.0" x2="314.4" y2="57.6" opacity="1.0" stroke="rgb(0,0,0)" stroke-width="2.0"/>
<line x1="343.2" y1="49.2" x2="323.2" y2="60.8" opacity="1.0" stroke="rgb(0,0,0)" stroke-width="2.0"/>
<line x1="314.4" y1="57.6" x2="314.4" y2="92.8" opacity="1.0" stroke="rgb(0,0,0)" stroke-width="2.0"/>
<line x1="436.3" y1="198.4" x2="405.8" y2="216.0" opacity="1.0" stroke="rgb(0,0,0)" stroke-width="2.0"/>
<line x1="434.7" y1="207.6" x2="414.6" y2="219.2" opacity="1.0" stroke="rgb(0,0,0)" stroke-width="2.0"/>
<line x1="405.8" y1="216.0" x2="405.8" y2="251.2" opacity="1.0" stroke="rgb(0,0,0)" stroke-width="2.0"/>
<line x1="405.8" y1="251.2" x2="436.3" y2="268.8" opacity="1.0" stroke="rgb(0,0,0)" stroke-width="2.0"/>
<line x1="414.6" y1="248.0" x2="434.7" y2="259.6" opacity="1.0" stroke="rgb(0,0,0)" stroke-width="2.0"/>
<line x1="436.3" y1="268.8" x2="466.8" y2="251.2" opacity="1.0" stroke="rgb(0,0,0)" stroke-width="2.0"/>
<line x1="466.8" y1="251.2" x2="466.8" y2="216.0" opacity="1.0" stroke="rgb(0,0,0)" stroke-width="2.0"/>
<line x1="459.6" y1="245.2" x2="459.6" y2="222.0" opacity="1.0" stroke="rgb(0,0,0)" stroke-width="2.0"/>
<line x1="466.8" y1="216.0" x2="436.3" y2="198.4" opacity="1.0" stroke="rgb(0,0,0)" stroke-width="2.0"/>
<line x1="101.0" y1="145.6" x2="70.5" y2="128.0" opacity="1.0" stroke="rgb(0,0,0)" stroke-width="2.0"/>
<line x1="70.5" y1="128.0" x2="40.0" y2="145.6" opacity="1.0" stroke="rgb(0,0,0)" stroke-width="2.0"/>
<line x1="68.9" y1="137.2" x2="48.8" y2="148.8" opacity="1.0" stroke="rgb(0,0,0)" stroke-width="2.0"/>
<line x1="40.0" y1="145.6" x2="40.0" y2="180.8" opacity="1.0" stroke="rgb(0,0,0)" stroke-width="2.0"/>
<line x1="40.0" y1="180.8" x2="70.5" y2="198.4" opacity="1.0" stroke="rgb(0,0,0)" stroke-width="2.0"/>
<line x1="48.8" y1="177.6" x2="68.9" y2="189.2" opacity="1.0" stroke="rgb(0,0,0)" stroke-width="2.0"/>
<line x1="70.5" y1="198.4" x2="101.0" y2="180.8" opacity="1.0" stroke="rgb(0,0,0)" stroke-width="2.0"/>
<line x1="101.0" y1="180.8" x2="101.0" y2="145.6" opacity="1.0" stroke="rgb(0,0,0)" stroke-width="2.0"/>
<line x1="93.8" y1="174.8" x2="93.8" y2="151.6" opacity="1.0" stroke="rgb(0,0,0)" stroke-width="2.0"/>
<line x1="40.0" y1="251.2" x2="40.0" y2="286.4" opacity="1.0" stroke="rgb(0,0,0)" stroke-width="2.0"/>
<line x1="40.0" y1="286.4" x2="70.5" y2="304.0" opacity="1.0" stroke="rgb(0,0,0)" stroke-width="2.0"/>
<line x1="48.8" y1="283.2" x2="68.9" y2="294.8" opacity="1.0" stroke="rgb(0,0,0)" stroke-width="2.0"/>
<line x1="70.5" y1="304.0" x2="101.0" y2="286.4" opacity="1.0" stroke="rgb(0,0,0)" stroke-width="2.0"/>
<line x1="101.0" y1="286.4" x2="101.0" y2="251.2" opacity="1.0" stroke="rgb(0,0,0)" stroke-width="2.0"/>
<line x1="93.8" y1="280.4" x2="93.8" y2="257.2" opacity="1.0" stroke="rgb(0,0,0)" stroke-width="2.0"/>
<line x1="101.0" y1="251.2" x2="70.5" y2="233.6" opacity="1.0" stroke="rgb(0,0,0)" stroke-width="2.0"/>
<line x1="70.5" y1="233.6" x2="40.0" y2="251.2" opacity="1.0" stroke="rgb(0,0,0)" stroke-width="2.0"/>
<line x1="68.9" y1="242.8" x2="48.8" y2="254.4" opacity="1.0" stroke="rgb(0,0,0)" stroke-width="2.0"/>
<text x="66.484094" y="347.200000" fill="rgb(102,102,102)" stroke-width="0" font-weight="bold" font-size="16">CH</text>
<text x="90.484094" y="350.880000" fill="rgb(102,102,102)" stroke-width="0" font-weight="bold" font-size="13">3</text>
<text x="216.904565" y="259.200000" fill="rgb(12,12,255)" stroke-width="0" font-weight="bold" font-size="16">N</text>
<text x="338.840942" y="188.800000" fill="rgb(12,12,255)" stroke-width="0" font-weight="bold" font-size="16">N</text>
</svg>
</g>
</svg>