<svg xmlns="http://www.w3.org/2000/svg" x="0" y="0" viewBox="0 0 100 100">
<title>J_2_S - Open Babel Depiction</title>
<rect x="0" y="0" width="100" height="100" fill="white"/>
<g transform="translate(0,0)">
<svg width="100" height="100" x="0" y="0" viewBox="0 0 509.016 433.846" font-family="sans-serif" stroke="rgb(0,0,0)" stroke-width="2" stroke-linecap="round">
<line x1="223.9" y1="323.1" x2="223.9" y2="265.3" opacity="1.0" stroke="rgb(0,0,0)" stroke-width="2.0"/>
<line x1="235.1" y1="245.8" x2="254.5" y2="234.6" opacity="1.0" stroke="rgb(0,0,0)" stroke-width="2.0"/>
<line x1="357.7" y1="188.0" x2="407.7" y2="216.9" opacity="1.0" stroke="rgb(0,0,0)" stroke-width="2.0"/>
<line x1="346.4" y1="168.5" x2="346.4" y2="110.8" opacity="1.0" stroke="rgb(0,0,0)" stroke-width="2.0"/>
<line x1="315.8" y1="199.2" x2="335.2" y2="188.0" opacity="1.0" stroke="rgb(0,0,0)" stroke-width="2.0"/>
<line x1="212.6" y1="245.8" x2="101.3" y2="181.5" opacity="1.0" stroke="rgb(0,0,0)" stroke-width="2.0"/>
<line x1="70.6" y1="305.4" x2="70.6" y2="340.8" opacity="1.0" stroke="rgb(0,0,0)" stroke-width="2.0"/>
<line x1="70.6" y1="340.8" x2="51.3" y2="352.0" opacity="1.0" stroke="rgb(0,0,0)" stroke-width="2.0"/>
<line x1="72.1" y1="338.2" x2="91.5" y2="349.4" opacity="1.0" stroke="rgb(0,0,0)" stroke-width="2.0"/>
<line x1="69.1" y1="343.4" x2="88.5" y2="354.6" opacity="1.0" stroke="rgb(0,0,0)" stroke-width="2.0"/>
<line x1="70.6" y1="199.2" x2="70.6" y2="234.6" opacity="1.0" stroke="rgb(0,0,0)" stroke-width="2.0"/>
<line x1="193.2" y1="376.2" x2="193.2" y2="340.8" opacity="1.0" stroke="rgb(0,0,0)" stroke-width="2.0"/>
<line x1="193.2" y1="340.8" x2="223.9" y2="323.1" opacity="1.0" stroke="rgb(0,0,0)" stroke-width="2.0"/>
<line x1="202.0" y1="344.0" x2="222.3" y2="332.3" opacity="1.0" stroke="rgb(0,0,0)" stroke-width="2.0"/>
<line x1="223.9" y1="323.1" x2="254.5" y2="340.8" opacity="1.0" stroke="rgb(0,0,0)" stroke-width="2.0"/>
<line x1="254.5" y1="340.8" x2="254.5" y2="376.2" opacity="1.0" stroke="rgb(0,0,0)" stroke-width="2.0"/>
<line x1="247.3" y1="346.8" x2="247.3" y2="370.2" opacity="1.0" stroke="rgb(0,0,0)" stroke-width="2.0"/>
<line x1="254.5" y1="376.2" x2="223.9" y2="393.8" opacity="1.0" stroke="rgb(0,0,0)" stroke-width="2.0"/>
<line x1="223.9" y1="393.8" x2="193.2" y2="376.2" opacity="1.0" stroke="rgb(0,0,0)" stroke-width="2.0"/>
<line x1="222.3" y1="384.6" x2="202.0" y2="372.9" opacity="1.0" stroke="rgb(0,0,0)" stroke-width="2.0"/>
<line x1="254.5" y1="199.2" x2="285.2" y2="181.5" opacity="1.0" stroke="rgb(0,0,0)" stroke-width="2.0"/>
<line x1="285.2" y1="181.5" x2="315.8" y2="199.2" opacity="1.0" stroke="rgb(0,0,0)" stroke-width="2.0"/>
<line x1="286.7" y1="190.8" x2="307.0" y2="202.5" opacity="1.0" stroke="rgb(0,0,0)" stroke-width="2.0"/>
<line x1="315.8" y1="199.2" x2="315.8" y2="234.6" opacity="1.0" stroke="rgb(0,0,0)" stroke-width="2.0"/>
<line x1="315.8" y1="234.6" x2="285.2" y2="252.3" opacity="1.0" stroke="rgb(0,0,0)" stroke-width="2.0"/>
<line x1="307.0" y1="231.4" x2="286.7" y2="243.1" opacity="1.0" stroke="rgb(0,0,0)" stroke-width="2.0"/>
<line x1="285.2" y1="252.3" x2="254.5" y2="234.6" opacity="1.0" stroke="rgb(0,0,0)" stroke-width="2.0"/>
<line x1="254.5" y1="234.6" x2="254.5" y2="199.2" opacity="1.0" stroke="rgb(0,0,0)" stroke-width="2.0"/>
<line x1="261.7" y1="228.6" x2="261.7" y2="205.2" opacity="1.0" stroke="rgb(0,0,0)" stroke-width="2.0"/>
<line x1="315.8" y1="93.1" x2="346.4" y2="110.8" opacity="1.0" stroke="rgb(0,0,0)" stroke-width="2.0"/>
<line x1="324.6" y1="89.8" x2="344.8" y2="101.5" opacity="1.0" stroke="rgb(0,0,0)" stroke-width="2.0"/>
<line x1="346.4" y1="110.8" x2="377.1" y2="93.1" opacity="1.0" stroke="rgb(0,0,0)" stroke-width="2.0"/>
<line x1="377.1" y1="93.1" x2="377.1" y2="57.7" opacity="1.0" stroke="rgb(0,0,0)" stroke-width="2.0"/>
<line x1="369.9" y1="87.1" x2="369.9" y2="63.7" opacity="1.0" stroke="rgb(0,0,0)" stroke-width="2.0"/>
<line x1="377.1" y1="57.7" x2="346.4" y2="40.0" opacity="1.0" stroke="rgb(0,0,0)" stroke-width="2.0"/>
<line x1="346.4" y1="40.0" x2="315.8" y2="57.7" opacity="1.0" stroke="rgb(0,0,0)" stroke-width="2.0"/>
<line x1="344.8" y1="49.2" x2="324.6" y2="60.9" opacity="1.0" stroke="rgb(0,0,0)" stroke-width="2.0"/>
<line x1="315.8" y1="57.7" x2="315.8" y2="93.1" opacity="1.0" stroke="rgb(0,0,0)" stroke-width="2.0"/>
<line x1="438.4" y1="199.2" x2="407.7" y2="216.9" opacity="1.0" stroke="rgb(0,0,0)" stroke-width="2.0"/>
<line x1="436.8" y1="208.5" x2="416.5" y2="220.2" opacity="1.0" stroke="rgb(0,0,0)" stroke-width="2.0"/>
<line x1="407.7" y1="216.9" x2="407.7" y2="252.3" opacity="1.0" stroke="rgb(0,0,0)" stroke-width="2.0"/>
<line x1="407.7" y1="252.3" x2="438.4" y2="270.0" opacity="1.0" stroke="rgb(0,0,0)" stroke-width="2.0"/>
<line x1="416.5" y1="249.1" x2="436.8" y2="260.8" opacity="1.0" stroke="rgb(0,0,0)" stroke-width="2.0"/>
<line x1="438.4" y1="270.0" x2="469.0" y2="252.3" opacity="1.0" stroke="rgb(0,0,0)" stroke-width="2.0"/>
<line x1="469.0" y1="252.3" x2="469.0" y2="216.9" opacity="1.0" stroke="rgb(0,0,0)" stroke-width="2.0"/>
<line x1="461.8" y1="246.3" x2="461.8" y2="222.9" opacity="1.0" stroke="rgb(0,0,0)" stroke-width="2.0"/>
<line x1="469.0" y1="216.9" x2="438.4" y2="199.2" opacity="1.0" stroke="rgb(0,0,0)" stroke-width="2.0"/>
<line x1="101.3" y1="146.2" x2="70.6" y2="128.5" opacity="1.0" stroke="rgb(0,0,0)" stroke-width="2.0"/>
<line x1="70.6" y1="128.5" x2="40.0" y2="146.2" opacity="1.0" stroke="rgb(0,0,0)" stroke-width="2.0"/>
<line x1="69.0" y1="137.7" x2="48.8" y2="149.4" opacity="1.0" stroke="rgb(0,0,0)" stroke-width="2.0"/>
<line x1="40.0" y1="146.2" x2="40.0" y2="181.5" opacity="1.0" stroke="rgb(0,0,0)" stroke-width="2.0"/>
<line x1="40.0" y1="181.5" x2="70.6" y2="199.2" opacity="1.0" stroke="rgb(0,0,0)" stroke-width="2.0"/>
<line x1="48.8" y1="178.3" x2="69.0" y2="190.0" opacity="1.0" stroke="rgb(0,0,0)" stroke-width="2.0"/>
<line x1="70.6" y1="199.2" x2="101.3" y2="181.5" opacity="1.0" stroke="rgb(0,0,0)" stroke-width="2.0"/>
<line x1="101.3" y1="181.5" x2="101.3" y2="146.2" opacity="1.0" stroke="rgb(0,0,0)" stroke-width="2.0"/>
<line x1="94.1" y1="175.5" x2="94.1" y2="152.2" opacity="1.0" stroke="rgb(0,0,0)" stroke-width="2.0"/>
<line x1="40.0" y1="252.3" x2="40.0" y2="287.7" opacity="1.0" stroke="rgb(0,0,0)" stroke-width="2.0"/>
<line x1="40.0" y1="287.7" x2="70.6" y2="305.4" opacity="1.0" stroke="rgb(0,0,0)" stroke-width="2.0"/>
<line x1="48.8" y1="284.5" x2="69.0" y2="296.1" opacity="1.0" stroke="rgb(0,0,0)" stroke-width="2.0"/>
<line x1="70.6" y1="305.4" x2="101.3" y2="287.7" opacity="1.0" stroke="rgb(0,0,0)" stroke-width="2.0"/>
<line x1="101.3" y1="287.7" x2="101.3" y2="252.3" opacity="1.0" stroke="rgb(0,0,0)" stroke-width="2.0"/>
<line x1="94.1" y1="281.7" x2="94.1" y2="258.3" opacity="1.0" stroke="rgb(0,0,0)" stroke-width="2.0"/>
<line x1="101.3" y1="252.3" x2="70.6" y2="234.6" opacity="1.0" stroke="rgb(0,0,0)" stroke-width="2.0"/>
<line x1="70.6" y1="234.6" x2="40.0" y2="252.3" opacity="1.0" stroke="rgb(0,0,0)" stroke-width="2.0"/>
<line x1="69.0" y1="243.9" x2="48.8" y2="255.5" opacity="1.0" stroke="rgb(0,0,0)" stroke-width="2.0"/>
<text x="14.000000" y="366.461538" fill="rgb(102,102,102)" stroke-width="0" font-weight="bold" font-size="16">H</text>
<text x="26.000000" y="370.141538" fill="rgb(102,102,102)" stroke-width="0" font-weight="bold" font-size="13">3</text>
<text x="32.500000" y="366.461538" fill="rgb(102,102,102)" stroke-width="0" font-weight="bold" font-size="16">C</text>
<text x="95.287952" y="366.461538" fill="rgb(255,12,12)" stroke-width="0" font-weight="bold" font-size="16">O</text>
<text x="217.863855" y="260.307692" fill="rgb(12,12,255)" stroke-width="0" font-weight="bold" font-size="16">N</text>
<text x="340.439758" y="189.538462" fill="rgb(12,12,255)" stroke-width="0" font-weight="bold" font-size="16">N</text>
</svg>
</g>
</svg>
