<svg xmlns="http://www.w3.org/2000/svg" x="0" y="0" viewBox="0 0 100 100">
<title>J_2_Q - Open Babel Depiction</title>
<rect x="0" y="0" width="100" height="100" fill="white"/>
<g transform="translate(0,0)">
<svg width="100" height="100" x="0" y="0" viewBox="0 0 505.59 431.02" font-family="sans-serif" stroke="rgb(0,0,0)" stroke-width="2" stroke-linecap="round">
<line x1="222.4" y1="320.8" x2="222.4" y2="263.6" opacity="1.0" stroke="rgb(0,0,0)" stroke-width="2.0"/>
<line x1="233.7" y1="244.1" x2="252.8" y2="233.1" opacity="1.0" stroke="rgb(0,0,0)" stroke-width="2.0"/>
<line x1="355.3" y1="186.9" x2="404.8" y2="215.5" opacity="1.0" stroke="rgb(0,0,0)" stroke-width="2.0"/>
<line x1="344.0" y1="167.4" x2="344.0" y2="110.2" opacity="1.0" stroke="rgb(0,0,0)" stroke-width="2.0"/>
<line x1="313.6" y1="198.0" x2="332.7" y2="186.9" opacity="1.0" stroke="rgb(0,0,0)" stroke-width="2.0"/>
<line x1="211.1" y1="244.1" x2="100.8" y2="180.4" opacity="1.0" stroke="rgb(0,0,0)" stroke-width="2.0"/>
<line x1="100.8" y1="145.3" x2="131.2" y2="127.8" opacity="1.0" stroke="rgb(0,0,0)" stroke-width="2.0"/>
<line x1="192.0" y1="373.5" x2="192.0" y2="338.4" opacity="1.0" stroke="rgb(0,0,0)" stroke-width="2.0"/>
<line x1="192.0" y1="338.4" x2="222.4" y2="320.8" opacity="1.0" stroke="rgb(0,0,0)" stroke-width="2.0"/>
<line x1="200.8" y1="341.6" x2="220.8" y2="330.1" opacity="1.0" stroke="rgb(0,0,0)" stroke-width="2.0"/>
<line x1="222.4" y1="320.8" x2="252.8" y2="338.4" opacity="1.0" stroke="rgb(0,0,0)" stroke-width="2.0"/>
<line x1="252.8" y1="338.4" x2="252.8" y2="373.5" opacity="1.0" stroke="rgb(0,0,0)" stroke-width="2.0"/>
<line x1="245.6" y1="344.4" x2="245.6" y2="367.5" opacity="1.0" stroke="rgb(0,0,0)" stroke-width="2.0"/>
<line x1="252.8" y1="373.5" x2="222.4" y2="391.0" opacity="1.0" stroke="rgb(0,0,0)" stroke-width="2.0"/>
<line x1="222.4" y1="391.0" x2="192.0" y2="373.5" opacity="1.0" stroke="rgb(0,0,0)" stroke-width="2.0"/>
<line x1="220.8" y1="381.8" x2="200.8" y2="370.2" opacity="1.0" stroke="rgb(0,0,0)" stroke-width="2.0"/>
<line x1="252.8" y1="198.0" x2="283.2" y2="180.4" opacity="1.0" stroke="rgb(0,0,0)" stroke-width="2.0"/>
<line x1="283.2" y1="180.4" x2="313.6" y2="198.0" opacity="1.0" stroke="rgb(0,0,0)" stroke-width="2.0"/>
<line x1="284.8" y1="189.6" x2="304.8" y2="201.2" opacity="1.0" stroke="rgb(0,0,0)" stroke-width="2.0"/>
<line x1="313.6" y1="198.0" x2="313.6" y2="233.1" opacity="1.0" stroke="rgb(0,0,0)" stroke-width="2.0"/>
<line x1="313.6" y1="233.1" x2="283.2" y2="250.6" opacity="1.0" stroke="rgb(0,0,0)" stroke-width="2.0"/>
<line x1="304.8" y1="229.8" x2="284.8" y2="241.4" opacity="1.0" stroke="rgb(0,0,0)" stroke-width="2.0"/>
<line x1="283.2" y1="250.6" x2="252.8" y2="233.1" opacity="1.0" stroke="rgb(0,0,0)" stroke-width="2.0"/>
<line x1="252.8" y1="233.1" x2="252.8" y2="198.0" opacity="1.0" stroke="rgb(0,0,0)" stroke-width="2.0"/>
<line x1="260.0" y1="227.1" x2="260.0" y2="204.0" opacity="1.0" stroke="rgb(0,0,0)" stroke-width="2.0"/>
<line x1="313.6" y1="92.7" x2="344.0" y2="110.2" opacity="1.0" stroke="rgb(0,0,0)" stroke-width="2.0"/>
<line x1="322.4" y1="89.4" x2="342.4" y2="101.0" opacity="1.0" stroke="rgb(0,0,0)" stroke-width="2.0"/>
<line x1="344.0" y1="110.2" x2="374.4" y2="92.7" opacity="1.0" stroke="rgb(0,0,0)" stroke-width="2.0"/>
<line x1="374.4" y1="92.7" x2="374.4" y2="57.6" opacity="1.0" stroke="rgb(0,0,0)" stroke-width="2.0"/>
<line x1="367.2" y1="86.7" x2="367.2" y2="63.6" opacity="1.0" stroke="rgb(0,0,0)" stroke-width="2.0"/>
<line x1="374.4" y1="57.6" x2="344.0" y2="40.0" opacity="1.0" stroke="rgb(0,0,0)" stroke-width="2.0"/>
<line x1="344.0" y1="40.0" x2="313.6" y2="57.6" opacity="1.0" stroke="rgb(0,0,0)" stroke-width="2.0"/>
<line x1="342.4" y1="49.2" x2="322.4" y2="60.8" opacity="1.0" stroke="rgb(0,0,0)" stroke-width="2.0"/>
<line x1="313.6" y1="57.6" x2="313.6" y2="92.7" opacity="1.0" stroke="rgb(0,0,0)" stroke-width="2.0"/>
<line x1="435.2" y1="198.0" x2="404.8" y2="215.5" opacity="1.0" stroke="rgb(0,0,0)" stroke-width="2.0"/>
<line x1="433.6" y1="207.2" x2="413.6" y2="218.7" opacity="1.0" stroke="rgb(0,0,0)" stroke-width="2.0"/>
<line x1="404.8" y1="215.5" x2="404.8" y2="250.6" opacity="1.0" stroke="rgb(0,0,0)" stroke-width="2.0"/>
<line x1="404.8" y1="250.6" x2="435.2" y2="268.2" opacity="1.0" stroke="rgb(0,0,0)" stroke-width="2.0"/>
<line x1="413.6" y1="247.4" x2="433.6" y2="258.9" opacity="1.0" stroke="rgb(0,0,0)" stroke-width="2.0"/>
<line x1="435.2" y1="268.2" x2="465.6" y2="250.6" opacity="1.0" stroke="rgb(0,0,0)" stroke-width="2.0"/>
<line x1="465.6" y1="250.6" x2="465.6" y2="215.5" opacity="1.0" stroke="rgb(0,0,0)" stroke-width="2.0"/>
<line x1="458.4" y1="244.6" x2="458.4" y2="221.5" opacity="1.0" stroke="rgb(0,0,0)" stroke-width="2.0"/>
<line x1="465.6" y1="215.5" x2="435.2" y2="198.0" opacity="1.0" stroke="rgb(0,0,0)" stroke-width="2.0"/>
<line x1="70.4" y1="198.0" x2="40.0" y2="180.4" opacity="1.0" stroke="rgb(0,0,0)" stroke-width="2.0"/>
<line x1="40.0" y1="180.4" x2="40.0" y2="145.3" opacity="1.0" stroke="rgb(0,0,0)" stroke-width="2.0"/>
<line x1="47.2" y1="174.4" x2="47.2" y2="151.3" opacity="1.0" stroke="rgb(0,0,0)" stroke-width="2.0"/>
<line x1="40.0" y1="145.3" x2="70.4" y2="127.8" opacity="1.0" stroke="rgb(0,0,0)" stroke-width="2.0"/>
<line x1="70.4" y1="127.8" x2="100.8" y2="145.3" opacity="1.0" stroke="rgb(0,0,0)" stroke-width="2.0"/>
<line x1="72.0" y1="137.0" x2="92.0" y2="148.5" opacity="1.0" stroke="rgb(0,0,0)" stroke-width="2.0"/>
<line x1="100.8" y1="145.3" x2="100.8" y2="180.4" opacity="1.0" stroke="rgb(0,0,0)" stroke-width="2.0"/>
<line x1="100.8" y1="180.4" x2="70.4" y2="198.0" opacity="1.0" stroke="rgb(0,0,0)" stroke-width="2.0"/>
<line x1="92.0" y1="177.2" x2="72.0" y2="188.7" opacity="1.0" stroke="rgb(0,0,0)" stroke-width="2.0"/>
<line x1="172.9" y1="138.8" x2="192.0" y2="127.8" opacity="1.0" stroke="rgb(0,0,0)" stroke-width="2.0"/>
<line x1="192.0" y1="127.8" x2="192.0" y2="92.7" opacity="1.0" stroke="rgb(0,0,0)" stroke-width="2.0"/>
<line x1="184.8" y1="121.8" x2="184.8" y2="98.7" opacity="1.0" stroke="rgb(0,0,0)" stroke-width="2.0"/>
<line x1="192.0" y1="92.7" x2="172.9" y2="81.6" opacity="1.0" stroke="rgb(0,0,0)" stroke-width="2.0"/>
<line x1="151.6" y1="80.9" x2="131.2" y2="92.7" opacity="1.0" stroke="rgb(0,0,0)" stroke-width="2.0"/>
<line x1="153.0" y1="88.4" x2="140.0" y2="95.9" opacity="1.0" stroke="rgb(0,0,0)" stroke-width="2.0"/>
<line x1="131.2" y1="92.7" x2="131.2" y2="127.8" opacity="1.0" stroke="rgb(0,0,0)" stroke-width="2.0"/>
<line x1="131.2" y1="127.8" x2="151.6" y2="139.5" opacity="1.0" stroke="rgb(0,0,0)" stroke-width="2.0"/>
<line x1="140.0" y1="124.5" x2="153.0" y2="132.0" opacity="1.0" stroke="rgb(0,0,0)" stroke-width="2.0"/>
<text x="155.597036" y="153.306122" fill="rgb(12,12,255)" stroke-width="0" font-weight="bold" font-size="16">N</text>
<text x="155.597036" y="83.102041" fill="rgb(12,12,255)" stroke-width="0" font-weight="bold" font-size="16">N</text>
<text x="216.395554" y="258.612245" fill="rgb(12,12,255)" stroke-width="0" font-weight="bold" font-size="16">N</text>
<text x="337.992591" y="188.408163" fill="rgb(12,12,255)" stroke-width="0" font-weight="bold" font-size="16">N</text>
</svg>
</g>
</svg>
