<svg xmlns="http://www.w3.org/2000/svg" x="0" y="0" viewBox="0 0 100 100">
<title>J_2_L - Open Babel Depiction</title>
<rect x="0" y="0" width="100" height="100" fill="white"/>
<g transform="translate(0,0)">
<svg width="100" height="100" x="0" y="0" viewBox="0 0 536.432 434.717" font-family="sans-serif" stroke="rgb(0,0,0)" stroke-width="2" stroke-linecap="round">
<line x1="250.7" y1="323.8" x2="250.7" y2="265.8" opacity="1.0" stroke="rgb(0,0,0)" stroke-width="2.0"/>
<line x1="261.9" y1="246.3" x2="281.4" y2="235.1" opacity="1.0" stroke="rgb(0,0,0)" stroke-width="2.0"/>
<line x1="384.8" y1="188.4" x2="435.0" y2="217.4" opacity="1.0" stroke="rgb(0,0,0)" stroke-width="2.0"/>
<line x1="373.6" y1="168.9" x2="373.6" y2="110.9" opacity="1.0" stroke="rgb(0,0,0)" stroke-width="2.0"/>
<line x1="342.8" y1="199.6" x2="362.3" y2="188.4" opacity="1.0" stroke="rgb(0,0,0)" stroke-width="2.0"/>
<line x1="239.4" y1="246.3" x2="127.8" y2="181.9" opacity="1.0" stroke="rgb(0,0,0)" stroke-width="2.0"/>
<line x1="97.1" y1="199.6" x2="97.1" y2="235.1" opacity="1.0" stroke="rgb(0,0,0)" stroke-width="2.0"/>
<line x1="54.4" y1="344.4" x2="40.0" y2="312.0" opacity="1.0" stroke="rgb(0,0,0)" stroke-width="2.0"/>
<line x1="58.6" y1="336.0" x2="49.0" y2="314.6" opacity="1.0" stroke="rgb(0,0,0)" stroke-width="2.0"/>
<line x1="40.0" y1="312.0" x2="66.4" y2="288.3" opacity="1.0" stroke="rgb(0,0,0)" stroke-width="2.0"/>
<line x1="66.4" y1="288.3" x2="97.1" y2="306.0" opacity="1.0" stroke="rgb(0,0,0)" stroke-width="2.0"/>
<line x1="97.1" y1="306.0" x2="92.4" y2="328.0" opacity="1.0" stroke="rgb(0,0,0)" stroke-width="2.0"/>
<line x1="76.8" y1="342.1" x2="54.4" y2="344.4" opacity="1.0" stroke="rgb(0,0,0)" stroke-width="2.0"/>
<line x1="220.0" y1="377.0" x2="220.0" y2="341.5" opacity="1.0" stroke="rgb(0,0,0)" stroke-width="2.0"/>
<line x1="220.0" y1="341.5" x2="250.7" y2="323.8" opacity="1.0" stroke="rgb(0,0,0)" stroke-width="2.0"/>
<line x1="228.8" y1="344.7" x2="249.1" y2="333.0" opacity="1.0" stroke="rgb(0,0,0)" stroke-width="2.0"/>
<line x1="250.7" y1="323.8" x2="281.4" y2="341.5" opacity="1.0" stroke="rgb(0,0,0)" stroke-width="2.0"/>
<line x1="281.4" y1="341.5" x2="281.4" y2="377.0" opacity="1.0" stroke="rgb(0,0,0)" stroke-width="2.0"/>
<line x1="274.2" y1="347.5" x2="274.2" y2="371.0" opacity="1.0" stroke="rgb(0,0,0)" stroke-width="2.0"/>
<line x1="281.4" y1="377.0" x2="250.7" y2="394.7" opacity="1.0" stroke="rgb(0,0,0)" stroke-width="2.0"/>
<line x1="250.7" y1="394.7" x2="220.0" y2="377.0" opacity="1.0" stroke="rgb(0,0,0)" stroke-width="2.0"/>
<line x1="249.1" y1="385.5" x2="228.8" y2="373.7" opacity="1.0" stroke="rgb(0,0,0)" stroke-width="2.0"/>
<line x1="281.4" y1="199.6" x2="312.1" y2="181.9" opacity="1.0" stroke="rgb(0,0,0)" stroke-width="2.0"/>
<line x1="312.1" y1="181.9" x2="342.8" y2="199.6" opacity="1.0" stroke="rgb(0,0,0)" stroke-width="2.0"/>
<line x1="313.7" y1="191.1" x2="334.0" y2="202.9" opacity="1.0" stroke="rgb(0,0,0)" stroke-width="2.0"/>
<line x1="342.8" y1="199.6" x2="342.8" y2="235.1" opacity="1.0" stroke="rgb(0,0,0)" stroke-width="2.0"/>
<line x1="342.8" y1="235.1" x2="312.1" y2="252.8" opacity="1.0" stroke="rgb(0,0,0)" stroke-width="2.0"/>
<line x1="334.0" y1="231.9" x2="313.7" y2="243.6" opacity="1.0" stroke="rgb(0,0,0)" stroke-width="2.0"/>
<line x1="312.1" y1="252.8" x2="281.4" y2="235.1" opacity="1.0" stroke="rgb(0,0,0)" stroke-width="2.0"/>
<line x1="281.4" y1="235.1" x2="281.4" y2="199.6" opacity="1.0" stroke="rgb(0,0,0)" stroke-width="2.0"/>
<line x1="288.6" y1="229.1" x2="288.6" y2="205.6" opacity="1.0" stroke="rgb(0,0,0)" stroke-width="2.0"/>
<line x1="342.8" y1="93.2" x2="373.6" y2="110.9" opacity="1.0" stroke="rgb(0,0,0)" stroke-width="2.0"/>
<line x1="351.6" y1="90.0" x2="372.0" y2="101.7" opacity="1.0" stroke="rgb(0,0,0)" stroke-width="2.0"/>
<line x1="373.6" y1="110.9" x2="404.3" y2="93.2" opacity="1.0" stroke="rgb(0,0,0)" stroke-width="2.0"/>
<line x1="404.3" y1="93.2" x2="404.3" y2="57.7" opacity="1.0" stroke="rgb(0,0,0)" stroke-width="2.0"/>
<line x1="397.1" y1="87.2" x2="397.1" y2="63.7" opacity="1.0" stroke="rgb(0,0,0)" stroke-width="2.0"/>
<line x1="404.3" y1="57.7" x2="373.6" y2="40.0" opacity="1.0" stroke="rgb(0,0,0)" stroke-width="2.0"/>
<line x1="373.6" y1="40.0" x2="342.8" y2="57.7" opacity="1.0" stroke="rgb(0,0,0)" stroke-width="2.0"/>
<line x1="372.0" y1="49.2" x2="351.6" y2="61.0" opacity="1.0" stroke="rgb(0,0,0)" stroke-width="2.0"/>
<line x1="342.8" y1="57.7" x2="342.8" y2="93.2" opacity="1.0" stroke="rgb(0,0,0)" stroke-width="2.0"/>
<line x1="465.7" y1="199.6" x2="435.0" y2="217.4" opacity="1.0" stroke="rgb(0,0,0)" stroke-width="2.0"/>
<line x1="464.1" y1="208.9" x2="443.8" y2="220.6" opacity="1.0" stroke="rgb(0,0,0)" stroke-width="2.0"/>
<line x1="435.0" y1="217.4" x2="435.0" y2="252.8" opacity="1.0" stroke="rgb(0,0,0)" stroke-width="2.0"/>
<line x1="435.0" y1="252.8" x2="465.7" y2="270.6" opacity="1.0" stroke="rgb(0,0,0)" stroke-width="2.0"/>
<line x1="443.8" y1="249.6" x2="464.1" y2="261.3" opacity="1.0" stroke="rgb(0,0,0)" stroke-width="2.0"/>
<line x1="465.7" y1="270.6" x2="496.4" y2="252.8" opacity="1.0" stroke="rgb(0,0,0)" stroke-width="2.0"/>
<line x1="496.4" y1="252.8" x2="496.4" y2="217.4" opacity="1.0" stroke="rgb(0,0,0)" stroke-width="2.0"/>
<line x1="489.2" y1="246.8" x2="489.2" y2="223.4" opacity="1.0" stroke="rgb(0,0,0)" stroke-width="2.0"/>
<line x1="496.4" y1="217.4" x2="465.7" y2="199.6" opacity="1.0" stroke="rgb(0,0,0)" stroke-width="2.0"/>
<line x1="127.8" y1="146.4" x2="97.1" y2="128.7" opacity="1.0" stroke="rgb(0,0,0)" stroke-width="2.0"/>
<line x1="97.1" y1="128.7" x2="66.4" y2="146.4" opacity="1.0" stroke="rgb(0,0,0)" stroke-width="2.0"/>
<line x1="95.5" y1="137.9" x2="75.2" y2="149.7" opacity="1.0" stroke="rgb(0,0,0)" stroke-width="2.0"/>
<line x1="66.4" y1="146.4" x2="66.4" y2="181.9" opacity="1.0" stroke="rgb(0,0,0)" stroke-width="2.0"/>
<line x1="66.4" y1="181.9" x2="97.1" y2="199.6" opacity="1.0" stroke="rgb(0,0,0)" stroke-width="2.0"/>
<line x1="75.2" y1="178.7" x2="95.5" y2="190.4" opacity="1.0" stroke="rgb(0,0,0)" stroke-width="2.0"/>
<line x1="97.1" y1="199.6" x2="127.8" y2="181.9" opacity="1.0" stroke="rgb(0,0,0)" stroke-width="2.0"/>
<line x1="127.8" y1="181.9" x2="127.8" y2="146.4" opacity="1.0" stroke="rgb(0,0,0)" stroke-width="2.0"/>
<line x1="120.6" y1="175.9" x2="120.6" y2="152.4" opacity="1.0" stroke="rgb(0,0,0)" stroke-width="2.0"/>
<line x1="127.8" y1="252.8" x2="127.8" y2="288.3" opacity="1.0" stroke="rgb(0,0,0)" stroke-width="2.0"/>
<line x1="127.8" y1="288.3" x2="97.1" y2="306.0" opacity="1.0" stroke="rgb(0,0,0)" stroke-width="2.0"/>
<line x1="119.0" y1="285.1" x2="98.7" y2="296.8" opacity="1.0" stroke="rgb(0,0,0)" stroke-width="2.0"/>
<line x1="66.4" y1="288.3" x2="66.4" y2="252.8" opacity="1.0" stroke="rgb(0,0,0)" stroke-width="2.0"/>
<line x1="73.6" y1="282.3" x2="73.6" y2="258.8" opacity="1.0" stroke="rgb(0,0,0)" stroke-width="2.0"/>
<line x1="66.4" y1="252.8" x2="97.1" y2="235.1" opacity="1.0" stroke="rgb(0,0,0)" stroke-width="2.0"/>
<line x1="97.1" y1="235.1" x2="127.8" y2="252.8" opacity="1.0" stroke="rgb(0,0,0)" stroke-width="2.0"/>
<line x1="98.7" y1="244.3" x2="119.0" y2="256.1" opacity="1.0" stroke="rgb(0,0,0)" stroke-width="2.0"/>
<text x="83.705020" y="348.734292" fill="rgb(12,12,255)" stroke-width="0" font-weight="bold" font-size="16">N</text>
<text x="83.705020" y="364.734292" fill="rgb(12,12,255)" stroke-width="0" font-weight="bold" font-size="16">H</text>
<text x="244.676959" y="260.830189" fill="rgb(12,12,255)" stroke-width="0" font-weight="bold" font-size="16">N</text>
<text x="367.554526" y="189.886792" fill="rgb(12,12,255)" stroke-width="0" font-weight="bold" font-size="16">N</text>
</svg>
</g>
</svg>
