<svg xmlns="http://www.w3.org/2000/svg" x="0" y="0" viewBox="0 0 100 100">
<title>J_2_M - Open Babel Depiction</title>
<rect x="0" y="0" width="100" height="100" fill="white"/>
<g transform="translate(0,0)">
<svg width="100" height="100" x="0" y="0" viewBox="0 0 507.918 432.941" font-family="sans-serif" stroke="rgb(0,0,0)" stroke-width="2" stroke-linecap="round">
<line x1="223.4" y1="322.4" x2="223.4" y2="264.8" opacity="1.0" stroke="rgb(0,0,0)" stroke-width="2.0"/>
<line x1="234.7" y1="245.3" x2="254.0" y2="234.1" opacity="1.0" stroke="rgb(0,0,0)" stroke-width="2.0"/>
<line x1="356.9" y1="187.7" x2="406.8" y2="216.5" opacity="1.0" stroke="rgb(0,0,0)" stroke-width="2.0"/>
<line x1="345.7" y1="168.2" x2="345.7" y2="110.6" opacity="1.0" stroke="rgb(0,0,0)" stroke-width="2.0"/>
<line x1="315.1" y1="198.8" x2="334.4" y2="187.7" opacity="1.0" stroke="rgb(0,0,0)" stroke-width="2.0"/>
<line x1="212.1" y1="245.3" x2="101.1" y2="181.2" opacity="1.0" stroke="rgb(0,0,0)" stroke-width="2.0"/>
<line x1="70.6" y1="340.0" x2="70.6" y2="362.3" opacity="1.0" stroke="rgb(0,0,0)" stroke-width="2.0"/>
<line x1="74.8" y1="340.0" x2="74.8" y2="362.3" opacity="1.0" stroke="rgb(0,0,0)" stroke-width="2.0"/>
<line x1="66.4" y1="340.0" x2="66.4" y2="362.3" opacity="1.0" stroke="rgb(0,0,0)" stroke-width="2.0"/>
<line x1="70.6" y1="304.7" x2="70.6" y2="340.0" opacity="1.0" stroke="rgb(0,0,0)" stroke-width="2.0"/>
<line x1="70.6" y1="198.8" x2="70.6" y2="234.1" opacity="1.0" stroke="rgb(0,0,0)" stroke-width="2.0"/>
<line x1="192.8" y1="375.3" x2="192.8" y2="340.0" opacity="1.0" stroke="rgb(0,0,0)" stroke-width="2.0"/>
<line x1="192.8" y1="340.0" x2="223.4" y2="322.4" opacity="1.0" stroke="rgb(0,0,0)" stroke-width="2.0"/>
<line x1="201.6" y1="343.2" x2="221.8" y2="331.6" opacity="1.0" stroke="rgb(0,0,0)" stroke-width="2.0"/>
<line x1="223.4" y1="322.4" x2="254.0" y2="340.0" opacity="1.0" stroke="rgb(0,0,0)" stroke-width="2.0"/>
<line x1="254.0" y1="340.0" x2="254.0" y2="375.3" opacity="1.0" stroke="rgb(0,0,0)" stroke-width="2.0"/>
<line x1="246.8" y1="346.0" x2="246.8" y2="369.3" opacity="1.0" stroke="rgb(0,0,0)" stroke-width="2.0"/>
<line x1="254.0" y1="375.3" x2="223.4" y2="392.9" opacity="1.0" stroke="rgb(0,0,0)" stroke-width="2.0"/>
<line x1="223.4" y1="392.9" x2="192.8" y2="375.3" opacity="1.0" stroke="rgb(0,0,0)" stroke-width="2.0"/>
<line x1="221.8" y1="383.7" x2="201.6" y2="372.1" opacity="1.0" stroke="rgb(0,0,0)" stroke-width="2.0"/>
<line x1="254.0" y1="198.8" x2="284.5" y2="181.2" opacity="1.0" stroke="rgb(0,0,0)" stroke-width="2.0"/>
<line x1="284.5" y1="181.2" x2="315.1" y2="198.8" opacity="1.0" stroke="rgb(0,0,0)" stroke-width="2.0"/>
<line x1="286.1" y1="190.4" x2="306.3" y2="202.1" opacity="1.0" stroke="rgb(0,0,0)" stroke-width="2.0"/>
<line x1="315.1" y1="198.8" x2="315.1" y2="234.1" opacity="1.0" stroke="rgb(0,0,0)" stroke-width="2.0"/>
<line x1="315.1" y1="234.1" x2="284.5" y2="251.8" opacity="1.0" stroke="rgb(0,0,0)" stroke-width="2.0"/>
<line x1="306.3" y1="230.9" x2="286.1" y2="242.5" opacity="1.0" stroke="rgb(0,0,0)" stroke-width="2.0"/>
<line x1="284.5" y1="251.8" x2="254.0" y2="234.1" opacity="1.0" stroke="rgb(0,0,0)" stroke-width="2.0"/>
<line x1="254.0" y1="234.1" x2="254.0" y2="198.8" opacity="1.0" stroke="rgb(0,0,0)" stroke-width="2.0"/>
<line x1="261.2" y1="228.1" x2="261.2" y2="204.8" opacity="1.0" stroke="rgb(0,0,0)" stroke-width="2.0"/>
<line x1="315.1" y1="92.9" x2="345.7" y2="110.6" opacity="1.0" stroke="rgb(0,0,0)" stroke-width="2.0"/>
<line x1="323.9" y1="89.7" x2="344.1" y2="101.4" opacity="1.0" stroke="rgb(0,0,0)" stroke-width="2.0"/>
<line x1="345.7" y1="110.6" x2="376.2" y2="92.9" opacity="1.0" stroke="rgb(0,0,0)" stroke-width="2.0"/>
<line x1="376.2" y1="92.9" x2="376.2" y2="57.6" opacity="1.0" stroke="rgb(0,0,0)" stroke-width="2.0"/>
<line x1="369.0" y1="86.9" x2="369.0" y2="63.6" opacity="1.0" stroke="rgb(0,0,0)" stroke-width="2.0"/>
<line x1="376.2" y1="57.6" x2="345.7" y2="40.0" opacity="1.0" stroke="rgb(0,0,0)" stroke-width="2.0"/>
<line x1="345.7" y1="40.0" x2="315.1" y2="57.6" opacity="1.0" stroke="rgb(0,0,0)" stroke-width="2.0"/>
<line x1="344.1" y1="49.2" x2="323.9" y2="60.9" opacity="1.0" stroke="rgb(0,0,0)" stroke-width="2.0"/>
<line x1="315.1" y1="57.6" x2="315.1" y2="92.9" opacity="1.0" stroke="rgb(0,0,0)" stroke-width="2.0"/>
<line x1="437.4" y1="198.8" x2="406.8" y2="216.5" opacity="1.0" stroke="rgb(0,0,0)" stroke-width="2.0"/>
<line x1="435.8" y1="208.1" x2="415.6" y2="219.7" opacity="1.0" stroke="rgb(0,0,0)" stroke-width="2.0"/>
<line x1="406.8" y1="216.5" x2="406.8" y2="251.8" opacity="1.0" stroke="rgb(0,0,0)" stroke-width="2.0"/>
<line x1="406.8" y1="251.8" x2="437.4" y2="269.4" opacity="1.0" stroke="rgb(0,0,0)" stroke-width="2.0"/>
<line x1="415.6" y1="248.5" x2="435.8" y2="260.2" opacity="1.0" stroke="rgb(0,0,0)" stroke-width="2.0"/>
<line x1="437.4" y1="269.4" x2="467.9" y2="251.8" opacity="1.0" stroke="rgb(0,0,0)" stroke-width="2.0"/>
<line x1="467.9" y1="251.8" x2="467.9" y2="216.5" opacity="1.0" stroke="rgb(0,0,0)" stroke-width="2.0"/>
<line x1="460.7" y1="245.8" x2="460.7" y2="222.5" opacity="1.0" stroke="rgb(0,0,0)" stroke-width="2.0"/>
<line x1="467.9" y1="216.5" x2="437.4" y2="198.8" opacity="1.0" stroke="rgb(0,0,0)" stroke-width="2.0"/>
<line x1="101.1" y1="145.9" x2="70.6" y2="128.2" opacity="1.0" stroke="rgb(0,0,0)" stroke-width="2.0"/>
<line x1="70.6" y1="128.2" x2="40.0" y2="145.9" opacity="1.0" stroke="rgb(0,0,0)" stroke-width="2.0"/>
<line x1="69.0" y1="137.5" x2="48.8" y2="149.1" opacity="1.0" stroke="rgb(0,0,0)" stroke-width="2.0"/>
<line x1="40.0" y1="145.9" x2="40.0" y2="181.2" opacity="1.0" stroke="rgb(0,0,0)" stroke-width="2.0"/>
<line x1="40.0" y1="181.2" x2="70.6" y2="198.8" opacity="1.0" stroke="rgb(0,0,0)" stroke-width="2.0"/>
<line x1="48.8" y1="177.9" x2="69.0" y2="189.6" opacity="1.0" stroke="rgb(0,0,0)" stroke-width="2.0"/>
<line x1="70.6" y1="198.8" x2="101.1" y2="181.2" opacity="1.0" stroke="rgb(0,0,0)" stroke-width="2.0"/>
<line x1="101.1" y1="181.2" x2="101.1" y2="145.9" opacity="1.0" stroke="rgb(0,0,0)" stroke-width="2.0"/>
<line x1="93.9" y1="175.2" x2="93.9" y2="151.9" opacity="1.0" stroke="rgb(0,0,0)" stroke-width="2.0"/>
<line x1="40.0" y1="251.8" x2="40.0" y2="287.1" opacity="1.0" stroke="rgb(0,0,0)" stroke-width="2.0"/>
<line x1="40.0" y1="287.1" x2="70.6" y2="304.7" opacity="1.0" stroke="rgb(0,0,0)" stroke-width="2.0"/>
<line x1="48.8" y1="283.8" x2="69.0" y2="295.5" opacity="1.0" stroke="rgb(0,0,0)" stroke-width="2.0"/>
<line x1="70.6" y1="304.7" x2="101.1" y2="287.1" opacity="1.0" stroke="rgb(0,0,0)" stroke-width="2.0"/>
<line x1="101.1" y1="287.1" x2="101.1" y2="251.8" opacity="1.0" stroke="rgb(0,0,0)" stroke-width="2.0"/>
<line x1="93.9" y1="281.1" x2="93.9" y2="257.8" opacity="1.0" stroke="rgb(0,0,0)" stroke-width="2.0"/>
<line x1="101.1" y1="251.8" x2="70.6" y2="234.1" opacity="1.0" stroke="rgb(0,0,0)" stroke-width="2.0"/>
<line x1="70.6" y1="234.1" x2="40.0" y2="251.8" opacity="1.0" stroke="rgb(0,0,0)" stroke-width="2.0"/>
<line x1="69.0" y1="243.4" x2="48.8" y2="255.0" opacity="1.0" stroke="rgb(0,0,0)" stroke-width="2.0"/>
<text x="64.565602" y="383.294118" fill="rgb(12,12,255)" stroke-width="0" font-weight="bold" font-size="16">N</text>
<text x="217.393615" y="259.764706" fill="rgb(12,12,255)" stroke-width="0" font-weight="bold" font-size="16">N</text>
<text x="339.656025" y="189.176471" fill="rgb(12,12,255)" stroke-width="0" font-weight="bold" font-size="16">N</text>
</svg>
</g>
</svg>
