<svg xmlns="http://www.w3.org/2000/svg" xmlns:xlink="http://www.w3.org/1999/xlink" xmlns:cml="http://www.xml-cml.org/schema" version="1.1" id="topsvg" x="0" y="0" viewBox="0 0 100 100">
<title>J_3_P - Open Babel Depiction</title>
<rect x="0" y="0" width="100" height="100" fill="white"/>
<g transform="translate(0,0)">
<svg width="100" height="100" x="0" y="0" viewBox="0 0 673.44 440.656" font-family="sans-serif" stroke="rgb(0,0,0)" stroke-width="2" stroke-linecap="round">
<line x1="352.3" y1="112.1" x2="352.3" y2="171.3" opacity="1.0" stroke="rgb(0,0,0)" stroke-width="2.0"/>
<line x1="341.1" y1="190.8" x2="289.9" y2="220.3" opacity="1.0" stroke="rgb(0,0,0)" stroke-width="2.0"/>
<line x1="153.7" y1="286.0" x2="102.5" y2="256.4" opacity="1.0" stroke="rgb(0,0,0)" stroke-width="2.0"/>
<line x1="164.9" y1="305.5" x2="164.9" y2="328.5" opacity="1.0" stroke="rgb(0,0,0)" stroke-width="2.0"/>
<line x1="227.4" y1="256.4" x2="176.2" y2="286.0" opacity="1.0" stroke="rgb(0,0,0)" stroke-width="2.0"/>
<line x1="363.6" y1="190.8" x2="414.8" y2="220.3" opacity="1.0" stroke="rgb(0,0,0)" stroke-width="2.0"/>
<line x1="633.4" y1="359.6" x2="633.4" y2="369.6" opacity="1.0" stroke="rgb(0,0,0)" stroke-width="2.0"/>
<line x1="602.2" y1="328.5" x2="622.2" y2="340.1" opacity="1.0" stroke="rgb(0,0,0)" stroke-width="2.0"/>
<line x1="477.3" y1="256.4" x2="539.7" y2="292.5" opacity="1.0" stroke="rgb(0,0,0)" stroke-width="2.0"/>
<line x1="383.6" y1="58.0" x2="383.6" y2="94.1" opacity="1.0" stroke="rgb(0,0,0)" stroke-width="2.0"/>
<line x1="383.6" y1="94.1" x2="352.3" y2="112.1" opacity="1.0" stroke="rgb(0,0,0)" stroke-width="2.0"/>
<line x1="374.8" y1="90.9" x2="353.9" y2="102.9" opacity="1.0" stroke="rgb(0,0,0)" stroke-width="2.0"/>
<line x1="352.3" y1="112.1" x2="321.1" y2="94.1" opacity="1.0" stroke="rgb(0,0,0)" stroke-width="2.0"/>
<line x1="321.1" y1="94.1" x2="321.1" y2="58.0" opacity="1.0" stroke="rgb(0,0,0)" stroke-width="2.0"/>
<line x1="328.3" y1="88.1" x2="328.3" y2="64.0" opacity="1.0" stroke="rgb(0,0,0)" stroke-width="2.0"/>
<line x1="321.1" y1="58.0" x2="352.3" y2="40.0" opacity="1.0" stroke="rgb(0,0,0)" stroke-width="2.0"/>
<line x1="352.3" y1="40.0" x2="383.6" y2="58.0" opacity="1.0" stroke="rgb(0,0,0)" stroke-width="2.0"/>
<line x1="353.9" y1="49.2" x2="374.8" y2="61.3" opacity="1.0" stroke="rgb(0,0,0)" stroke-width="2.0"/>
<line x1="289.9" y1="256.4" x2="258.6" y2="274.4" opacity="1.0" stroke="rgb(0,0,0)" stroke-width="2.0"/>
<line x1="258.6" y1="274.4" x2="227.4" y2="256.4" opacity="1.0" stroke="rgb(0,0,0)" stroke-width="2.0"/>
<line x1="257.0" y1="265.2" x2="236.2" y2="253.2" opacity="1.0" stroke="rgb(0,0,0)" stroke-width="2.0"/>
<line x1="227.4" y1="256.4" x2="227.4" y2="220.3" opacity="1.0" stroke="rgb(0,0,0)" stroke-width="2.0"/>
<line x1="227.4" y1="220.3" x2="258.6" y2="202.3" opacity="1.0" stroke="rgb(0,0,0)" stroke-width="2.0"/>
<line x1="236.2" y1="223.6" x2="257.0" y2="211.5" opacity="1.0" stroke="rgb(0,0,0)" stroke-width="2.0"/>
<line x1="258.6" y1="202.3" x2="289.9" y2="220.3" opacity="1.0" stroke="rgb(0,0,0)" stroke-width="2.0"/>
<line x1="289.9" y1="220.3" x2="289.9" y2="256.4" opacity="1.0" stroke="rgb(0,0,0)" stroke-width="2.0"/>
<line x1="282.7" y1="226.3" x2="282.7" y2="250.4" opacity="1.0" stroke="rgb(0,0,0)" stroke-width="2.0"/>
<line x1="196.2" y1="346.6" x2="164.9" y2="328.5" opacity="1.0" stroke="rgb(0,0,0)" stroke-width="2.0"/>
<line x1="187.4" y1="349.8" x2="166.5" y2="337.8" opacity="1.0" stroke="rgb(0,0,0)" stroke-width="2.0"/>
<line x1="164.9" y1="328.5" x2="133.7" y2="346.6" opacity="1.0" stroke="rgb(0,0,0)" stroke-width="2.0"/>
<line x1="133.7" y1="346.6" x2="133.7" y2="382.6" opacity="1.0" stroke="rgb(0,0,0)" stroke-width="2.0"/>
<line x1="140.9" y1="352.6" x2="140.9" y2="376.6" opacity="1.0" stroke="rgb(0,0,0)" stroke-width="2.0"/>
<line x1="133.7" y1="382.6" x2="164.9" y2="400.7" opacity="1.0" stroke="rgb(0,0,0)" stroke-width="2.0"/>
<line x1="164.9" y1="400.7" x2="196.2" y2="382.6" opacity="1.0" stroke="rgb(0,0,0)" stroke-width="2.0"/>
<line x1="166.5" y1="391.4" x2="187.4" y2="379.4" opacity="1.0" stroke="rgb(0,0,0)" stroke-width="2.0"/>
<line x1="196.2" y1="382.6" x2="196.2" y2="346.6" opacity="1.0" stroke="rgb(0,0,0)" stroke-width="2.0"/>
<line x1="71.2" y1="274.4" x2="102.5" y2="256.4" opacity="1.0" stroke="rgb(0,0,0)" stroke-width="2.0"/>
<line x1="72.8" y1="265.2" x2="93.7" y2="253.2" opacity="1.0" stroke="rgb(0,0,0)" stroke-width="2.0"/>
<line x1="102.5" y1="256.4" x2="102.5" y2="220.3" opacity="1.0" stroke="rgb(0,0,0)" stroke-width="2.0"/>
<line x1="102.5" y1="220.3" x2="71.2" y2="202.3" opacity="1.0" stroke="rgb(0,0,0)" stroke-width="2.0"/>
<line x1="93.7" y1="223.6" x2="72.8" y2="211.5" opacity="1.0" stroke="rgb(0,0,0)" stroke-width="2.0"/>
<line x1="71.2" y1="202.3" x2="40.0" y2="220.3" opacity="1.0" stroke="rgb(0,0,0)" stroke-width="2.0"/>
<line x1="40.0" y1="220.3" x2="40.0" y2="256.4" opacity="1.0" stroke="rgb(0,0,0)" stroke-width="2.0"/>
<line x1="47.2" y1="226.3" x2="47.2" y2="250.4" opacity="1.0" stroke="rgb(0,0,0)" stroke-width="2.0"/>
<line x1="40.0" y1="256.4" x2="71.2" y2="274.4" opacity="1.0" stroke="rgb(0,0,0)" stroke-width="2.0"/>
<line x1="383.6" y1="274.4" x2="383.6" y2="310.5" opacity="1.0" stroke="rgb(0,0,0)" stroke-width="2.0"/>
<line x1="390.8" y1="280.4" x2="390.8" y2="304.5" opacity="1.0" stroke="rgb(0,0,0)" stroke-width="2.0"/>
<line x1="383.6" y1="310.5" x2="414.8" y2="328.5" opacity="1.0" stroke="rgb(0,0,0)" stroke-width="2.0"/>
<line x1="414.8" y1="328.5" x2="446.0" y2="310.5" opacity="1.0" stroke="rgb(0,0,0)" stroke-width="2.0"/>
<line x1="416.4" y1="319.3" x2="437.2" y2="307.3" opacity="1.0" stroke="rgb(0,0,0)" stroke-width="2.0"/>
<line x1="446.0" y1="310.5" x2="446.0" y2="274.4" opacity="1.0" stroke="rgb(0,0,0)" stroke-width="2.0"/>
<line x1="446.0" y1="274.4" x2="414.8" y2="256.4" opacity="1.0" stroke="rgb(0,0,0)" stroke-width="2.0"/>
<line x1="437.2" y1="277.7" x2="416.4" y2="265.6" opacity="1.0" stroke="rgb(0,0,0)" stroke-width="2.0"/>
<line x1="414.8" y1="256.4" x2="383.6" y2="274.4" opacity="1.0" stroke="rgb(0,0,0)" stroke-width="2.0"/>
<line x1="477.3" y1="256.4" x2="446.0" y2="274.4" opacity="1.0" stroke="rgb(0,0,0)" stroke-width="2.0"/>
<line x1="414.8" y1="256.4" x2="414.8" y2="220.3" opacity="1.0" stroke="rgb(0,0,0)" stroke-width="2.0"/>
<line x1="414.8" y1="220.3" x2="446.0" y2="202.3" opacity="1.0" stroke="rgb(0,0,0)" stroke-width="2.0"/>
<line x1="423.6" y1="223.6" x2="444.4" y2="211.5" opacity="1.0" stroke="rgb(0,0,0)" stroke-width="2.0"/>
<line x1="446.0" y1="202.3" x2="477.3" y2="220.3" opacity="1.0" stroke="rgb(0,0,0)" stroke-width="2.0"/>
<line x1="477.3" y1="220.3" x2="477.3" y2="256.4" opacity="1.0" stroke="rgb(0,0,0)" stroke-width="2.0"/>
<line x1="470.1" y1="226.3" x2="470.1" y2="250.4" opacity="1.0" stroke="rgb(0,0,0)" stroke-width="2.0"/>
<line x1="477.3" y1="148.2" x2="508.5" y2="166.2" opacity="1.0" stroke="rgb(0,0,0)" stroke-width="2.0"/>
<line x1="508.5" y1="166.2" x2="508.5" y2="202.3" opacity="1.0" stroke="rgb(0,0,0)" stroke-width="2.0"/>
<line x1="501.3" y1="172.2" x2="501.3" y2="196.3" opacity="1.0" stroke="rgb(0,0,0)" stroke-width="2.0"/>
<line x1="508.5" y1="202.3" x2="477.3" y2="220.3" opacity="1.0" stroke="rgb(0,0,0)" stroke-width="2.0"/>
<line x1="446.0" y1="202.3" x2="446.0" y2="166.2" opacity="1.0" stroke="rgb(0,0,0)" stroke-width="2.0"/>
<line x1="446.0" y1="166.2" x2="477.3" y2="148.2" opacity="1.0" stroke="rgb(0,0,0)" stroke-width="2.0"/>
<line x1="454.8" y1="169.5" x2="475.7" y2="157.4" opacity="1.0" stroke="rgb(0,0,0)" stroke-width="2.0"/>
<line x1="571.0" y1="274.4" x2="602.2" y2="292.5" opacity="1.0" stroke="rgb(0,0,0)" stroke-width="2.0"/>
<line x1="602.2" y1="292.5" x2="602.2" y2="328.5" opacity="1.0" stroke="rgb(0,0,0)" stroke-width="2.0"/>
<line x1="595.0" y1="298.5" x2="595.0" y2="322.5" opacity="1.0" stroke="rgb(0,0,0)" stroke-width="2.0"/>
<line x1="602.2" y1="328.5" x2="571.0" y2="346.6" opacity="1.0" stroke="rgb(0,0,0)" stroke-width="2.0"/>
<line x1="571.0" y1="346.6" x2="539.7" y2="328.5" opacity="1.0" stroke="rgb(0,0,0)" stroke-width="2.0"/>
<line x1="569.4" y1="337.3" x2="548.5" y2="325.3" opacity="1.0" stroke="rgb(0,0,0)" stroke-width="2.0"/>
<line x1="539.7" y1="328.5" x2="539.7" y2="292.5" opacity="1.0" stroke="rgb(0,0,0)" stroke-width="2.0"/>
<line x1="539.7" y1="292.5" x2="571.0" y2="274.4" opacity="1.0" stroke="rgb(0,0,0)" stroke-width="2.0"/>
<line x1="548.5" y1="295.7" x2="569.4" y2="283.7" opacity="1.0" stroke="rgb(0,0,0)" stroke-width="2.0"/>
<text x="627.440359" y="354.557377" fill="rgb(255,12,12)" stroke-width="0" font-weight="bold" font-size="16">O</text>
<text x="629.440359" y="390.622951" fill="rgb(102,102,102)" stroke-width="0" font-weight="bold" font-size="16">CH</text>
<text x="653.440359" y="394.302951" fill="rgb(102,102,102)" stroke-width="0" font-weight="bold" font-size="13">3</text>
<text x="346.337031" y="192.262295" fill="rgb(12,12,255)" stroke-width="0" font-weight="bold" font-size="16">N</text>
<text x="158.934812" y="300.459016" fill="rgb(12,12,255)" stroke-width="0" font-weight="bold" font-size="16">N</text>
</svg>
</g>
</svg>