<svg xmlns="http://www.w3.org/2000/svg" xmlns:xlink="http://www.w3.org/1999/xlink" xmlns:cml="http://www.xml-cml.org/schema" version="1.1" id="topsvg" x="0" y="0" viewBox="0 0 100 100">
<title>J_3_M - Open Babel Depiction</title>
<rect x="0" y="0" width="100" height="100" fill="white"/>
<g transform="translate(0,0)">
<svg width="100" height="100" x="0" y="0" viewBox="0 0 673.44 458.689" font-family="sans-serif" stroke="rgb(0,0,0)" stroke-width="2" stroke-linecap="round">
<line x1="321.1" y1="112.1" x2="321.1" y2="171.3" opacity="1.0" stroke="rgb(0,0,0)" stroke-width="2.0"/>
<line x1="309.8" y1="190.8" x2="258.6" y2="220.3" opacity="1.0" stroke="rgb(0,0,0)" stroke-width="2.0"/>
<line x1="153.7" y1="267.9" x2="102.5" y2="238.4" opacity="1.0" stroke="rgb(0,0,0)" stroke-width="2.0"/>
<line x1="164.9" y1="287.4" x2="164.9" y2="346.6" opacity="1.0" stroke="rgb(0,0,0)" stroke-width="2.0"/>
<line x1="196.2" y1="256.4" x2="176.2" y2="267.9" opacity="1.0" stroke="rgb(0,0,0)" stroke-width="2.0"/>
<line x1="332.4" y1="190.8" x2="383.6" y2="220.3" opacity="1.0" stroke="rgb(0,0,0)" stroke-width="2.0"/>
<line x1="602.2" y1="346.6" x2="622.2" y2="358.1" opacity="1.0" stroke="rgb(0,0,0)" stroke-width="2.0"/>
<line x1="604.3" y1="342.9" x2="624.3" y2="354.5" opacity="1.0" stroke="rgb(0,0,0)" stroke-width="2.0"/>
<line x1="600.1" y1="350.2" x2="620.1" y2="361.7" opacity="1.0" stroke="rgb(0,0,0)" stroke-width="2.0"/>
<line x1="571.0" y1="328.5" x2="602.2" y2="346.6" opacity="1.0" stroke="rgb(0,0,0)" stroke-width="2.0"/>
<line x1="446.0" y1="256.4" x2="508.5" y2="292.5" opacity="1.0" stroke="rgb(0,0,0)" stroke-width="2.0"/>
<line x1="352.3" y1="58.0" x2="352.3" y2="94.1" opacity="1.0" stroke="rgb(0,0,0)" stroke-width="2.0"/>
<line x1="352.3" y1="94.1" x2="321.1" y2="112.1" opacity="1.0" stroke="rgb(0,0,0)" stroke-width="2.0"/>
<line x1="343.5" y1="90.9" x2="322.7" y2="102.9" opacity="1.0" stroke="rgb(0,0,0)" stroke-width="2.0"/>
<line x1="321.1" y1="112.1" x2="289.9" y2="94.1" opacity="1.0" stroke="rgb(0,0,0)" stroke-width="2.0"/>
<line x1="289.9" y1="94.1" x2="289.9" y2="58.0" opacity="1.0" stroke="rgb(0,0,0)" stroke-width="2.0"/>
<line x1="297.1" y1="88.1" x2="297.1" y2="64.0" opacity="1.0" stroke="rgb(0,0,0)" stroke-width="2.0"/>
<line x1="289.9" y1="58.0" x2="321.1" y2="40.0" opacity="1.0" stroke="rgb(0,0,0)" stroke-width="2.0"/>
<line x1="321.1" y1="40.0" x2="352.3" y2="58.0" opacity="1.0" stroke="rgb(0,0,0)" stroke-width="2.0"/>
<line x1="322.7" y1="49.2" x2="343.5" y2="61.3" opacity="1.0" stroke="rgb(0,0,0)" stroke-width="2.0"/>
<line x1="258.6" y1="256.4" x2="227.4" y2="274.4" opacity="1.0" stroke="rgb(0,0,0)" stroke-width="2.0"/>
<line x1="227.4" y1="274.4" x2="196.2" y2="256.4" opacity="1.0" stroke="rgb(0,0,0)" stroke-width="2.0"/>
<line x1="225.8" y1="265.2" x2="205.0" y2="253.2" opacity="1.0" stroke="rgb(0,0,0)" stroke-width="2.0"/>
<line x1="196.2" y1="256.4" x2="196.2" y2="220.3" opacity="1.0" stroke="rgb(0,0,0)" stroke-width="2.0"/>
<line x1="196.2" y1="220.3" x2="227.4" y2="202.3" opacity="1.0" stroke="rgb(0,0,0)" stroke-width="2.0"/>
<line x1="205.0" y1="223.6" x2="225.8" y2="211.5" opacity="1.0" stroke="rgb(0,0,0)" stroke-width="2.0"/>
<line x1="227.4" y1="202.3" x2="258.6" y2="220.3" opacity="1.0" stroke="rgb(0,0,0)" stroke-width="2.0"/>
<line x1="258.6" y1="220.3" x2="258.6" y2="256.4" opacity="1.0" stroke="rgb(0,0,0)" stroke-width="2.0"/>
<line x1="251.4" y1="226.3" x2="251.4" y2="250.4" opacity="1.0" stroke="rgb(0,0,0)" stroke-width="2.0"/>
<line x1="196.2" y1="364.6" x2="164.9" y2="346.6" opacity="1.0" stroke="rgb(0,0,0)" stroke-width="2.0"/>
<line x1="187.4" y1="367.8" x2="166.5" y2="355.8" opacity="1.0" stroke="rgb(0,0,0)" stroke-width="2.0"/>
<line x1="164.9" y1="346.6" x2="133.7" y2="364.6" opacity="1.0" stroke="rgb(0,0,0)" stroke-width="2.0"/>
<line x1="133.7" y1="364.6" x2="133.7" y2="400.7" opacity="1.0" stroke="rgb(0,0,0)" stroke-width="2.0"/>
<line x1="140.9" y1="370.6" x2="140.9" y2="394.7" opacity="1.0" stroke="rgb(0,0,0)" stroke-width="2.0"/>
<line x1="133.7" y1="400.7" x2="164.9" y2="418.7" opacity="1.0" stroke="rgb(0,0,0)" stroke-width="2.0"/>
<line x1="164.9" y1="418.7" x2="196.2" y2="400.7" opacity="1.0" stroke="rgb(0,0,0)" stroke-width="2.0"/>
<line x1="166.5" y1="409.5" x2="187.4" y2="397.4" opacity="1.0" stroke="rgb(0,0,0)" stroke-width="2.0"/>
<line x1="196.2" y1="400.7" x2="196.2" y2="364.6" opacity="1.0" stroke="rgb(0,0,0)" stroke-width="2.0"/>
<line x1="71.2" y1="256.4" x2="102.5" y2="238.4" opacity="1.0" stroke="rgb(0,0,0)" stroke-width="2.0"/>
<line x1="72.8" y1="247.2" x2="93.7" y2="235.1" opacity="1.0" stroke="rgb(0,0,0)" stroke-width="2.0"/>
<line x1="102.5" y1="238.4" x2="102.5" y2="202.3" opacity="1.0" stroke="rgb(0,0,0)" stroke-width="2.0"/>
<line x1="102.5" y1="202.3" x2="71.2" y2="184.3" opacity="1.0" stroke="rgb(0,0,0)" stroke-width="2.0"/>
<line x1="93.7" y1="205.5" x2="72.8" y2="193.5" opacity="1.0" stroke="rgb(0,0,0)" stroke-width="2.0"/>
<line x1="71.2" y1="184.3" x2="40.0" y2="202.3" opacity="1.0" stroke="rgb(0,0,0)" stroke-width="2.0"/>
<line x1="40.0" y1="202.3" x2="40.0" y2="238.4" opacity="1.0" stroke="rgb(0,0,0)" stroke-width="2.0"/>
<line x1="47.2" y1="208.3" x2="47.2" y2="232.4" opacity="1.0" stroke="rgb(0,0,0)" stroke-width="2.0"/>
<line x1="40.0" y1="238.4" x2="71.2" y2="256.4" opacity="1.0" stroke="rgb(0,0,0)" stroke-width="2.0"/>
<line x1="414.8" y1="166.2" x2="446.0" y2="148.2" opacity="1.0" stroke="rgb(0,0,0)" stroke-width="2.0"/>
<line x1="423.6" y1="169.5" x2="444.4" y2="157.4" opacity="1.0" stroke="rgb(0,0,0)" stroke-width="2.0"/>
<line x1="446.0" y1="148.2" x2="477.3" y2="166.2" opacity="1.0" stroke="rgb(0,0,0)" stroke-width="2.0"/>
<line x1="477.3" y1="166.2" x2="477.3" y2="202.3" opacity="1.0" stroke="rgb(0,0,0)" stroke-width="2.0"/>
<line x1="470.1" y1="172.2" x2="470.1" y2="196.3" opacity="1.0" stroke="rgb(0,0,0)" stroke-width="2.0"/>
<line x1="477.3" y1="202.3" x2="446.0" y2="220.3" opacity="1.0" stroke="rgb(0,0,0)" stroke-width="2.0"/>
<line x1="446.0" y1="220.3" x2="414.8" y2="202.3" opacity="1.0" stroke="rgb(0,0,0)" stroke-width="2.0"/>
<line x1="444.4" y1="211.1" x2="423.6" y2="199.1" opacity="1.0" stroke="rgb(0,0,0)" stroke-width="2.0"/>
<line x1="414.8" y1="202.3" x2="414.8" y2="166.2" opacity="1.0" stroke="rgb(0,0,0)" stroke-width="2.0"/>
<line x1="446.0" y1="256.4" x2="446.0" y2="220.3" opacity="1.0" stroke="rgb(0,0,0)" stroke-width="2.0"/>
<line x1="414.8" y1="202.3" x2="383.6" y2="220.3" opacity="1.0" stroke="rgb(0,0,0)" stroke-width="2.0"/>
<line x1="383.6" y1="220.3" x2="383.6" y2="256.4" opacity="1.0" stroke="rgb(0,0,0)" stroke-width="2.0"/>
<line x1="390.8" y1="226.3" x2="390.8" y2="250.4" opacity="1.0" stroke="rgb(0,0,0)" stroke-width="2.0"/>
<line x1="383.6" y1="256.4" x2="414.8" y2="274.4" opacity="1.0" stroke="rgb(0,0,0)" stroke-width="2.0"/>
<line x1="414.8" y1="274.4" x2="446.0" y2="256.4" opacity="1.0" stroke="rgb(0,0,0)" stroke-width="2.0"/>
<line x1="416.4" y1="265.2" x2="437.2" y2="253.2" opacity="1.0" stroke="rgb(0,0,0)" stroke-width="2.0"/>
<line x1="352.3" y1="310.5" x2="383.6" y2="328.5" opacity="1.0" stroke="rgb(0,0,0)" stroke-width="2.0"/>
<line x1="383.6" y1="328.5" x2="414.8" y2="310.5" opacity="1.0" stroke="rgb(0,0,0)" stroke-width="2.0"/>
<line x1="385.2" y1="319.3" x2="406.0" y2="307.3" opacity="1.0" stroke="rgb(0,0,0)" stroke-width="2.0"/>
<line x1="414.8" y1="310.5" x2="414.8" y2="274.4" opacity="1.0" stroke="rgb(0,0,0)" stroke-width="2.0"/>
<line x1="383.6" y1="256.4" x2="352.3" y2="274.4" opacity="1.0" stroke="rgb(0,0,0)" stroke-width="2.0"/>
<line x1="352.3" y1="274.4" x2="352.3" y2="310.5" opacity="1.0" stroke="rgb(0,0,0)" stroke-width="2.0"/>
<line x1="359.5" y1="280.4" x2="359.5" y2="304.5" opacity="1.0" stroke="rgb(0,0,0)" stroke-width="2.0"/>
<line x1="508.5" y1="328.5" x2="539.7" y2="346.6" opacity="1.0" stroke="rgb(0,0,0)" stroke-width="2.0"/>
<line x1="539.7" y1="346.6" x2="571.0" y2="328.5" opacity="1.0" stroke="rgb(0,0,0)" stroke-width="2.0"/>
<line x1="541.3" y1="337.3" x2="562.2" y2="325.3" opacity="1.0" stroke="rgb(0,0,0)" stroke-width="2.0"/>
<line x1="571.0" y1="328.5" x2="571.0" y2="292.5" opacity="1.0" stroke="rgb(0,0,0)" stroke-width="2.0"/>
<line x1="571.0" y1="292.5" x2="539.7" y2="274.4" opacity="1.0" stroke="rgb(0,0,0)" stroke-width="2.0"/>
<line x1="562.2" y1="295.7" x2="541.3" y2="283.7" opacity="1.0" stroke="rgb(0,0,0)" stroke-width="2.0"/>
<line x1="539.7" y1="274.4" x2="508.5" y2="292.5" opacity="1.0" stroke="rgb(0,0,0)" stroke-width="2.0"/>
<line x1="508.5" y1="292.5" x2="508.5" y2="328.5" opacity="1.0" stroke="rgb(0,0,0)" stroke-width="2.0"/>
<line x1="515.7" y1="298.5" x2="515.7" y2="322.5" opacity="1.0" stroke="rgb(0,0,0)" stroke-width="2.0"/>
<text x="627.440359" y="372.590164" fill="rgb(12,12,255)" stroke-width="0" font-weight="bold" font-size="16">N</text>
<text x="315.103328" y="192.262295" fill="rgb(12,12,255)" stroke-width="0" font-weight="bold" font-size="16">N</text>
<text x="158.934812" y="282.426230" fill="rgb(12,12,255)" stroke-width="0" font-weight="bold" font-size="16">N</text>
</svg>
</g>
</svg>