<svg xmlns="http://www.w3.org/2000/svg" xmlns:xlink="http://www.w3.org/1999/xlink" xmlns:cml="http://www.xml-cml.org/schema" version="1.1" id="topsvg" x="0" y="0" viewBox="0 0 100 100">
<title>J_3_T - Open Babel Depiction</title>
<rect x="0" y="0" width="100" height="100" fill="white"/>
<g transform="translate(0,0)">
<svg width="100" height="100" x="0" y="0" viewBox="0 0 672.361 440" font-family="sans-serif" stroke="rgb(0,0,0)" stroke-width="2" stroke-linecap="round">
<line x1="320.6" y1="328.0" x2="320.6" y2="269.0" opacity="1.0" stroke="rgb(0,0,0)" stroke-width="2.0"/>
<line x1="331.9" y1="249.5" x2="382.9" y2="220.0" opacity="1.0" stroke="rgb(0,0,0)" stroke-width="2.0"/>
<line x1="518.9" y1="154.5" x2="570.0" y2="184.0" opacity="1.0" stroke="rgb(0,0,0)" stroke-width="2.0"/>
<line x1="507.7" y1="135.0" x2="507.7" y2="112.0" opacity="1.0" stroke="rgb(0,0,0)" stroke-width="2.0"/>
<line x1="445.3" y1="184.0" x2="496.4" y2="154.5" opacity="1.0" stroke="rgb(0,0,0)" stroke-width="2.0"/>
<line x1="309.3" y1="249.5" x2="258.2" y2="220.0" opacity="1.0" stroke="rgb(0,0,0)" stroke-width="2.0"/>
<line x1="71.2" y1="112.0" x2="51.3" y2="100.5" opacity="1.0" stroke="rgb(0,0,0)" stroke-width="2.0"/>
<line x1="195.9" y1="184.0" x2="133.5" y2="148.0" opacity="1.0" stroke="rgb(0,0,0)" stroke-width="2.0"/>
<line x1="289.4" y1="382.0" x2="289.4" y2="346.0" opacity="1.0" stroke="rgb(0,0,0)" stroke-width="2.0"/>
<line x1="289.4" y1="346.0" x2="320.6" y2="328.0" opacity="1.0" stroke="rgb(0,0,0)" stroke-width="2.0"/>
<line x1="298.2" y1="349.2" x2="319.0" y2="337.2" opacity="1.0" stroke="rgb(0,0,0)" stroke-width="2.0"/>
<line x1="320.6" y1="328.0" x2="351.8" y2="346.0" opacity="1.0" stroke="rgb(0,0,0)" stroke-width="2.0"/>
<line x1="351.8" y1="346.0" x2="351.8" y2="382.0" opacity="1.0" stroke="rgb(0,0,0)" stroke-width="2.0"/>
<line x1="344.6" y1="352.0" x2="344.6" y2="376.0" opacity="1.0" stroke="rgb(0,0,0)" stroke-width="2.0"/>
<line x1="351.8" y1="382.0" x2="320.6" y2="400.0" opacity="1.0" stroke="rgb(0,0,0)" stroke-width="2.0"/>
<line x1="320.6" y1="400.0" x2="289.4" y2="382.0" opacity="1.0" stroke="rgb(0,0,0)" stroke-width="2.0"/>
<line x1="319.0" y1="390.8" x2="298.2" y2="378.8" opacity="1.0" stroke="rgb(0,0,0)" stroke-width="2.0"/>
<line x1="382.9" y1="184.0" x2="414.1" y2="166.0" opacity="1.0" stroke="rgb(0,0,0)" stroke-width="2.0"/>
<line x1="414.1" y1="166.0" x2="445.3" y2="184.0" opacity="1.0" stroke="rgb(0,0,0)" stroke-width="2.0"/>
<line x1="415.7" y1="175.2" x2="436.5" y2="187.2" opacity="1.0" stroke="rgb(0,0,0)" stroke-width="2.0"/>
<line x1="445.3" y1="184.0" x2="445.3" y2="220.0" opacity="1.0" stroke="rgb(0,0,0)" stroke-width="2.0"/>
<line x1="445.3" y1="220.0" x2="414.1" y2="238.0" opacity="1.0" stroke="rgb(0,0,0)" stroke-width="2.0"/>
<line x1="436.5" y1="216.8" x2="415.7" y2="228.8" opacity="1.0" stroke="rgb(0,0,0)" stroke-width="2.0"/>
<line x1="414.1" y1="238.0" x2="382.9" y2="220.0" opacity="1.0" stroke="rgb(0,0,0)" stroke-width="2.0"/>
<line x1="382.9" y1="220.0" x2="382.9" y2="184.0" opacity="1.0" stroke="rgb(0,0,0)" stroke-width="2.0"/>
<line x1="390.1" y1="214.0" x2="390.1" y2="190.0" opacity="1.0" stroke="rgb(0,0,0)" stroke-width="2.0"/>
<line x1="476.5" y1="94.0" x2="507.7" y2="112.0" opacity="1.0" stroke="rgb(0,0,0)" stroke-width="2.0"/>
<line x1="485.3" y1="90.8" x2="506.1" y2="102.8" opacity="1.0" stroke="rgb(0,0,0)" stroke-width="2.0"/>
<line x1="507.7" y1="112.0" x2="538.8" y2="94.0" opacity="1.0" stroke="rgb(0,0,0)" stroke-width="2.0"/>
<line x1="538.8" y1="94.0" x2="538.8" y2="58.0" opacity="1.0" stroke="rgb(0,0,0)" stroke-width="2.0"/>
<line x1="531.6" y1="88.0" x2="531.6" y2="64.0" opacity="1.0" stroke="rgb(0,0,0)" stroke-width="2.0"/>
<line x1="538.8" y1="58.0" x2="507.7" y2="40.0" opacity="1.0" stroke="rgb(0,0,0)" stroke-width="2.0"/>
<line x1="507.7" y1="40.0" x2="476.5" y2="58.0" opacity="1.0" stroke="rgb(0,0,0)" stroke-width="2.0"/>
<line x1="506.1" y1="49.2" x2="485.3" y2="61.2" opacity="1.0" stroke="rgb(0,0,0)" stroke-width="2.0"/>
<line x1="476.5" y1="58.0" x2="476.5" y2="94.0" opacity="1.0" stroke="rgb(0,0,0)" stroke-width="2.0"/>
<line x1="601.2" y1="166.0" x2="570.0" y2="184.0" opacity="1.0" stroke="rgb(0,0,0)" stroke-width="2.0"/>
<line x1="599.6" y1="175.2" x2="578.8" y2="187.2" opacity="1.0" stroke="rgb(0,0,0)" stroke-width="2.0"/>
<line x1="570.0" y1="184.0" x2="570.0" y2="220.0" opacity="1.0" stroke="rgb(0,0,0)" stroke-width="2.0"/>
<line x1="570.0" y1="220.0" x2="601.2" y2="238.0" opacity="1.0" stroke="rgb(0,0,0)" stroke-width="2.0"/>
<line x1="578.8" y1="216.8" x2="599.6" y2="228.8" opacity="1.0" stroke="rgb(0,0,0)" stroke-width="2.0"/>
<line x1="601.2" y1="238.0" x2="632.4" y2="220.0" opacity="1.0" stroke="rgb(0,0,0)" stroke-width="2.0"/>
<line x1="632.4" y1="220.0" x2="632.4" y2="184.0" opacity="1.0" stroke="rgb(0,0,0)" stroke-width="2.0"/>
<line x1="625.2" y1="214.0" x2="625.2" y2="190.0" opacity="1.0" stroke="rgb(0,0,0)" stroke-width="2.0"/>
<line x1="632.4" y1="184.0" x2="601.2" y2="166.0" opacity="1.0" stroke="rgb(0,0,0)" stroke-width="2.0"/>
<line x1="289.4" y1="166.0" x2="289.4" y2="130.0" opacity="1.0" stroke="rgb(0,0,0)" stroke-width="2.0"/>
<line x1="282.2" y1="160.0" x2="282.2" y2="136.0" opacity="1.0" stroke="rgb(0,0,0)" stroke-width="2.0"/>
<line x1="289.4" y1="130.0" x2="258.2" y2="112.0" opacity="1.0" stroke="rgb(0,0,0)" stroke-width="2.0"/>
<line x1="258.2" y1="112.0" x2="227.1" y2="130.0" opacity="1.0" stroke="rgb(0,0,0)" stroke-width="2.0"/>
<line x1="256.6" y1="121.2" x2="235.9" y2="133.2" opacity="1.0" stroke="rgb(0,0,0)" stroke-width="2.0"/>
<line x1="227.1" y1="130.0" x2="227.1" y2="166.0" opacity="1.0" stroke="rgb(0,0,0)" stroke-width="2.0"/>
<line x1="227.1" y1="166.0" x2="258.2" y2="184.0" opacity="1.0" stroke="rgb(0,0,0)" stroke-width="2.0"/>
<line x1="235.9" y1="162.8" x2="256.6" y2="174.8" opacity="1.0" stroke="rgb(0,0,0)" stroke-width="2.0"/>
<line x1="258.2" y1="184.0" x2="289.4" y2="166.0" opacity="1.0" stroke="rgb(0,0,0)" stroke-width="2.0"/>
<line x1="195.9" y1="184.0" x2="227.1" y2="166.0" opacity="1.0" stroke="rgb(0,0,0)" stroke-width="2.0"/>
<line x1="258.2" y1="184.0" x2="258.2" y2="220.0" opacity="1.0" stroke="rgb(0,0,0)" stroke-width="2.0"/>
<line x1="258.2" y1="220.0" x2="227.1" y2="238.0" opacity="1.0" stroke="rgb(0,0,0)" stroke-width="2.0"/>
<line x1="249.4" y1="216.8" x2="228.7" y2="228.8" opacity="1.0" stroke="rgb(0,0,0)" stroke-width="2.0"/>
<line x1="227.1" y1="238.0" x2="195.9" y2="220.0" opacity="1.0" stroke="rgb(0,0,0)" stroke-width="2.0"/>
<line x1="195.9" y1="220.0" x2="195.9" y2="184.0" opacity="1.0" stroke="rgb(0,0,0)" stroke-width="2.0"/>
<line x1="203.1" y1="214.0" x2="203.1" y2="190.0" opacity="1.0" stroke="rgb(0,0,0)" stroke-width="2.0"/>
<line x1="195.9" y1="292.0" x2="164.7" y2="274.0" opacity="1.0" stroke="rgb(0,0,0)" stroke-width="2.0"/>
<line x1="164.7" y1="274.0" x2="164.7" y2="238.0" opacity="1.0" stroke="rgb(0,0,0)" stroke-width="2.0"/>
<line x1="171.9" y1="268.0" x2="171.9" y2="244.0" opacity="1.0" stroke="rgb(0,0,0)" stroke-width="2.0"/>
<line x1="164.7" y1="238.0" x2="195.9" y2="220.0" opacity="1.0" stroke="rgb(0,0,0)" stroke-width="2.0"/>
<line x1="227.1" y1="238.0" x2="227.1" y2="274.0" opacity="1.0" stroke="rgb(0,0,0)" stroke-width="2.0"/>
<line x1="227.1" y1="274.0" x2="195.9" y2="292.0" opacity="1.0" stroke="rgb(0,0,0)" stroke-width="2.0"/>
<line x1="218.3" y1="270.8" x2="197.5" y2="282.8" opacity="1.0" stroke="rgb(0,0,0)" stroke-width="2.0"/>
<line x1="102.4" y1="166.0" x2="71.2" y2="148.0" opacity="1.0" stroke="rgb(0,0,0)" stroke-width="2.0"/>
<line x1="71.2" y1="148.0" x2="71.2" y2="112.0" opacity="1.0" stroke="rgb(0,0,0)" stroke-width="2.0"/>
<line x1="78.4" y1="142.0" x2="78.4" y2="118.0" opacity="1.0" stroke="rgb(0,0,0)" stroke-width="2.0"/>
<line x1="71.2" y1="112.0" x2="102.4" y2="94.0" opacity="1.0" stroke="rgb(0,0,0)" stroke-width="2.0"/>
<line x1="102.4" y1="94.0" x2="133.5" y2="112.0" opacity="1.0" stroke="rgb(0,0,0)" stroke-width="2.0"/>
<line x1="103.9" y1="103.2" x2="124.7" y2="115.2" opacity="1.0" stroke="rgb(0,0,0)" stroke-width="2.0"/>
<line x1="133.5" y1="112.0" x2="133.5" y2="148.0" opacity="1.0" stroke="rgb(0,0,0)" stroke-width="2.0"/>
<line x1="133.5" y1="148.0" x2="102.4" y2="166.0" opacity="1.0" stroke="rgb(0,0,0)" stroke-width="2.0"/>
<line x1="124.7" y1="144.8" x2="103.9" y2="156.8" opacity="1.0" stroke="rgb(0,0,0)" stroke-width="2.0"/>
<text x="14.000000" y="102.000000" fill="rgb(102,102,102)" stroke-width="0" font-weight="bold" font-size="16">H</text>
<text x="26.000000" y="105.680000" fill="rgb(102,102,102)" stroke-width="0" font-weight="bold" font-size="13">3</text>
<text x="32.500000" y="102.000000" fill="rgb(102,102,102)" stroke-width="0" font-weight="bold" font-size="16">C</text>
<text x="314.592231" y="264.000000" fill="rgb(12,12,255)" stroke-width="0" font-weight="bold" font-size="16">N</text>
<text x="501.653718" y="156.000000" fill="rgb(12,12,255)" stroke-width="0" font-weight="bold" font-size="16">N</text>
</svg>
</g>
</svg>