<svg xmlns="http://www.w3.org/2000/svg" x="0" y="0" viewBox="0 0 100 100">
<title>J_3_O - Open Babel Depiction</title>
<rect x="0" y="0" width="100" height="100" fill="white"/>
<g transform="translate(0,0)">
<svg width="100" height="100" x="0" y="0" viewBox="0 0 640.128 439.322" font-family="sans-serif" stroke="rgb(0,0,0)" stroke-width="2" stroke-linecap="round">
<line x1="288.9" y1="327.5" x2="288.9" y2="268.6" opacity="1.0" stroke="rgb(0,0,0)" stroke-width="2.0"/>
<line x1="300.2" y1="249.1" x2="351.2" y2="219.7" opacity="1.0" stroke="rgb(0,0,0)" stroke-width="2.0"/>
<line x1="486.9" y1="154.3" x2="537.9" y2="183.7" opacity="1.0" stroke="rgb(0,0,0)" stroke-width="2.0"/>
<line x1="475.7" y1="134.8" x2="475.7" y2="111.9" opacity="1.0" stroke="rgb(0,0,0)" stroke-width="2.0"/>
<line x1="413.4" y1="183.7" x2="464.4" y2="154.3" opacity="1.0" stroke="rgb(0,0,0)" stroke-width="2.0"/>
<line x1="277.7" y1="249.1" x2="226.7" y2="219.7" opacity="1.0" stroke="rgb(0,0,0)" stroke-width="2.0"/>
<line x1="164.5" y1="183.7" x2="102.2" y2="147.8" opacity="1.0" stroke="rgb(0,0,0)" stroke-width="2.0"/>
<line x1="257.8" y1="381.4" x2="257.8" y2="345.4" opacity="1.0" stroke="rgb(0,0,0)" stroke-width="2.0"/>
<line x1="257.8" y1="345.4" x2="288.9" y2="327.5" opacity="1.0" stroke="rgb(0,0,0)" stroke-width="2.0"/>
<line x1="266.6" y1="348.7" x2="287.3" y2="336.7" opacity="1.0" stroke="rgb(0,0,0)" stroke-width="2.0"/>
<line x1="288.9" y1="327.5" x2="320.1" y2="345.4" opacity="1.0" stroke="rgb(0,0,0)" stroke-width="2.0"/>
<line x1="320.1" y1="345.4" x2="320.1" y2="381.4" opacity="1.0" stroke="rgb(0,0,0)" stroke-width="2.0"/>
<line x1="312.9" y1="351.4" x2="312.9" y2="375.4" opacity="1.0" stroke="rgb(0,0,0)" stroke-width="2.0"/>
<line x1="320.1" y1="381.4" x2="288.9" y2="399.3" opacity="1.0" stroke="rgb(0,0,0)" stroke-width="2.0"/>
<line x1="288.9" y1="399.3" x2="257.8" y2="381.4" opacity="1.0" stroke="rgb(0,0,0)" stroke-width="2.0"/>
<line x1="287.3" y1="390.1" x2="266.6" y2="378.1" opacity="1.0" stroke="rgb(0,0,0)" stroke-width="2.0"/>
<line x1="351.2" y1="183.7" x2="382.3" y2="165.8" opacity="1.0" stroke="rgb(0,0,0)" stroke-width="2.0"/>
<line x1="382.3" y1="165.8" x2="413.4" y2="183.7" opacity="1.0" stroke="rgb(0,0,0)" stroke-width="2.0"/>
<line x1="383.9" y1="175.0" x2="404.6" y2="187.0" opacity="1.0" stroke="rgb(0,0,0)" stroke-width="2.0"/>
<line x1="413.4" y1="183.7" x2="413.4" y2="219.7" opacity="1.0" stroke="rgb(0,0,0)" stroke-width="2.0"/>
<line x1="413.4" y1="219.7" x2="382.3" y2="237.6" opacity="1.0" stroke="rgb(0,0,0)" stroke-width="2.0"/>
<line x1="404.6" y1="216.4" x2="383.9" y2="228.4" opacity="1.0" stroke="rgb(0,0,0)" stroke-width="2.0"/>
<line x1="382.3" y1="237.6" x2="351.2" y2="219.7" opacity="1.0" stroke="rgb(0,0,0)" stroke-width="2.0"/>
<line x1="351.2" y1="219.7" x2="351.2" y2="183.7" opacity="1.0" stroke="rgb(0,0,0)" stroke-width="2.0"/>
<line x1="358.4" y1="213.7" x2="358.4" y2="189.7" opacity="1.0" stroke="rgb(0,0,0)" stroke-width="2.0"/>
<line x1="444.5" y1="93.9" x2="475.7" y2="111.9" opacity="1.0" stroke="rgb(0,0,0)" stroke-width="2.0"/>
<line x1="453.3" y1="90.7" x2="474.1" y2="102.6" opacity="1.0" stroke="rgb(0,0,0)" stroke-width="2.0"/>
<line x1="475.7" y1="111.9" x2="506.8" y2="93.9" opacity="1.0" stroke="rgb(0,0,0)" stroke-width="2.0"/>
<line x1="506.8" y1="93.9" x2="506.8" y2="58.0" opacity="1.0" stroke="rgb(0,0,0)" stroke-width="2.0"/>
<line x1="499.6" y1="87.9" x2="499.6" y2="64.0" opacity="1.0" stroke="rgb(0,0,0)" stroke-width="2.0"/>
<line x1="506.8" y1="58.0" x2="475.7" y2="40.0" opacity="1.0" stroke="rgb(0,0,0)" stroke-width="2.0"/>
<line x1="475.7" y1="40.0" x2="444.5" y2="58.0" opacity="1.0" stroke="rgb(0,0,0)" stroke-width="2.0"/>
<line x1="474.1" y1="49.2" x2="453.3" y2="61.2" opacity="1.0" stroke="rgb(0,0,0)" stroke-width="2.0"/>
<line x1="444.5" y1="58.0" x2="444.5" y2="93.9" opacity="1.0" stroke="rgb(0,0,0)" stroke-width="2.0"/>
<line x1="569.0" y1="165.8" x2="537.9" y2="183.7" opacity="1.0" stroke="rgb(0,0,0)" stroke-width="2.0"/>
<line x1="567.4" y1="175.0" x2="546.7" y2="187.0" opacity="1.0" stroke="rgb(0,0,0)" stroke-width="2.0"/>
<line x1="537.9" y1="183.7" x2="537.9" y2="219.7" opacity="1.0" stroke="rgb(0,0,0)" stroke-width="2.0"/>
<line x1="537.9" y1="219.7" x2="569.0" y2="237.6" opacity="1.0" stroke="rgb(0,0,0)" stroke-width="2.0"/>
<line x1="546.7" y1="216.4" x2="567.4" y2="228.4" opacity="1.0" stroke="rgb(0,0,0)" stroke-width="2.0"/>
<line x1="569.0" y1="237.6" x2="600.1" y2="219.7" opacity="1.0" stroke="rgb(0,0,0)" stroke-width="2.0"/>
<line x1="600.1" y1="219.7" x2="600.1" y2="183.7" opacity="1.0" stroke="rgb(0,0,0)" stroke-width="2.0"/>
<line x1="592.9" y1="213.7" x2="592.9" y2="189.7" opacity="1.0" stroke="rgb(0,0,0)" stroke-width="2.0"/>
<line x1="600.1" y1="183.7" x2="569.0" y2="165.8" opacity="1.0" stroke="rgb(0,0,0)" stroke-width="2.0"/>
<line x1="195.6" y1="273.6" x2="164.5" y2="291.5" opacity="1.0" stroke="rgb(0,0,0)" stroke-width="2.0"/>
<line x1="186.8" y1="270.3" x2="166.1" y2="282.3" opacity="1.0" stroke="rgb(0,0,0)" stroke-width="2.0"/>
<line x1="164.5" y1="291.5" x2="133.4" y2="273.6" opacity="1.0" stroke="rgb(0,0,0)" stroke-width="2.0"/>
<line x1="133.4" y1="273.6" x2="133.4" y2="237.6" opacity="1.0" stroke="rgb(0,0,0)" stroke-width="2.0"/>
<line x1="140.6" y1="267.6" x2="140.6" y2="243.6" opacity="1.0" stroke="rgb(0,0,0)" stroke-width="2.0"/>
<line x1="133.4" y1="237.6" x2="164.5" y2="219.7" opacity="1.0" stroke="rgb(0,0,0)" stroke-width="2.0"/>
<line x1="164.5" y1="219.7" x2="195.6" y2="237.6" opacity="1.0" stroke="rgb(0,0,0)" stroke-width="2.0"/>
<line x1="166.1" y1="228.9" x2="186.8" y2="240.9" opacity="1.0" stroke="rgb(0,0,0)" stroke-width="2.0"/>
<line x1="195.6" y1="237.6" x2="195.6" y2="273.6" opacity="1.0" stroke="rgb(0,0,0)" stroke-width="2.0"/>
<line x1="164.5" y1="183.7" x2="164.5" y2="219.7" opacity="1.0" stroke="rgb(0,0,0)" stroke-width="2.0"/>
<line x1="195.6" y1="237.6" x2="226.7" y2="219.7" opacity="1.0" stroke="rgb(0,0,0)" stroke-width="2.0"/>
<line x1="226.7" y1="219.7" x2="226.7" y2="183.7" opacity="1.0" stroke="rgb(0,0,0)" stroke-width="2.0"/>
<line x1="219.5" y1="213.7" x2="219.5" y2="189.7" opacity="1.0" stroke="rgb(0,0,0)" stroke-width="2.0"/>
<line x1="226.7" y1="183.7" x2="195.6" y2="165.8" opacity="1.0" stroke="rgb(0,0,0)" stroke-width="2.0"/>
<line x1="195.6" y1="165.8" x2="164.5" y2="183.7" opacity="1.0" stroke="rgb(0,0,0)" stroke-width="2.0"/>
<line x1="194.0" y1="175.0" x2="173.3" y2="187.0" opacity="1.0" stroke="rgb(0,0,0)" stroke-width="2.0"/>
<line x1="257.8" y1="129.8" x2="226.7" y2="111.9" opacity="1.0" stroke="rgb(0,0,0)" stroke-width="2.0"/>
<line x1="226.7" y1="111.9" x2="195.6" y2="129.8" opacity="1.0" stroke="rgb(0,0,0)" stroke-width="2.0"/>
<line x1="225.1" y1="121.1" x2="204.4" y2="133.1" opacity="1.0" stroke="rgb(0,0,0)" stroke-width="2.0"/>
<line x1="195.6" y1="129.8" x2="195.6" y2="165.8" opacity="1.0" stroke="rgb(0,0,0)" stroke-width="2.0"/>
<line x1="226.7" y1="183.7" x2="257.8" y2="165.8" opacity="1.0" stroke="rgb(0,0,0)" stroke-width="2.0"/>
<line x1="257.8" y1="165.8" x2="257.8" y2="129.8" opacity="1.0" stroke="rgb(0,0,0)" stroke-width="2.0"/>
<line x1="250.6" y1="159.8" x2="250.6" y2="135.8" opacity="1.0" stroke="rgb(0,0,0)" stroke-width="2.0"/>
<line x1="91.0" y1="105.4" x2="71.1" y2="93.9" opacity="1.0" stroke="rgb(0,0,0)" stroke-width="2.0"/>
<line x1="71.1" y1="93.9" x2="40.0" y2="111.9" opacity="1.0" stroke="rgb(0,0,0)" stroke-width="2.0"/>
<line x1="69.5" y1="103.1" x2="48.8" y2="115.1" opacity="1.0" stroke="rgb(0,0,0)" stroke-width="2.0"/>
<line x1="40.0" y1="111.9" x2="40.0" y2="147.8" opacity="1.0" stroke="rgb(0,0,0)" stroke-width="2.0"/>
<line x1="40.0" y1="147.8" x2="71.1" y2="165.8" opacity="1.0" stroke="rgb(0,0,0)" stroke-width="2.0"/>
<line x1="48.8" y1="144.6" x2="69.5" y2="156.5" opacity="1.0" stroke="rgb(0,0,0)" stroke-width="2.0"/>
<line x1="71.1" y1="165.8" x2="102.2" y2="147.8" opacity="1.0" stroke="rgb(0,0,0)" stroke-width="2.0"/>
<line x1="102.2" y1="147.8" x2="102.2" y2="123.7" opacity="1.0" stroke="rgb(0,0,0)" stroke-width="2.0"/>
<line x1="95.0" y1="141.8" x2="95.0" y2="126.1" opacity="1.0" stroke="rgb(0,0,0)" stroke-width="2.0"/>
<text x="96.236402" y="119.864407" fill="rgb(12,12,255)" stroke-width="0" font-weight="bold" font-size="16">N</text>
<text x="282.945608" y="263.593220" fill="rgb(12,12,255)" stroke-width="0" font-weight="bold" font-size="16">N</text>
<text x="469.654813" y="155.796610" fill="rgb(12,12,255)" stroke-width="0" font-weight="bold" font-size="16">N</text>
</svg>
</g>
</svg>
