<svg xmlns="http://www.w3.org/2000/svg" x="0" y="0" viewBox="0 0 100 100">
<title>J_3_L - Open Babel Depiction</title>
<rect x="0" y="0" width="100" height="100" fill="white"/>
<g transform="translate(0,0)">
<svg width="100" height="100" x="0" y="0" viewBox="0 0 668.503 460" font-family="sans-serif" stroke="rgb(0,0,0)" stroke-width="2" stroke-linecap="round">
<line x1="346.4" y1="347.6" x2="346.4" y2="288.2" opacity="1.0" stroke="rgb(0,0,0)" stroke-width="2.0"/>
<line x1="357.7" y1="268.7" x2="409.1" y2="239.0" opacity="1.0" stroke="rgb(0,0,0)" stroke-width="2.0"/>
<line x1="514.4" y1="191.3" x2="565.8" y2="221.0" opacity="1.0" stroke="rgb(0,0,0)" stroke-width="2.0"/>
<line x1="503.1" y1="171.8" x2="503.1" y2="112.4" opacity="1.0" stroke="rgb(0,0,0)" stroke-width="2.0"/>
<line x1="471.8" y1="202.9" x2="491.9" y2="191.3" opacity="1.0" stroke="rgb(0,0,0)" stroke-width="2.0"/>
<line x1="335.2" y1="268.7" x2="283.7" y2="239.0" opacity="1.0" stroke="rgb(0,0,0)" stroke-width="2.0"/>
<line x1="221.1" y1="202.9" x2="158.4" y2="166.7" opacity="1.0" stroke="rgb(0,0,0)" stroke-width="2.0"/>
<line x1="40.0" y1="148.6" x2="61.3" y2="177.9" opacity="1.0" stroke="rgb(0,0,0)" stroke-width="2.0"/>
<line x1="49.4" y1="149.2" x2="63.6" y2="168.8" opacity="1.0" stroke="rgb(0,0,0)" stroke-width="2.0"/>
<line x1="61.3" y1="177.9" x2="95.7" y2="166.7" opacity="1.0" stroke="rgb(0,0,0)" stroke-width="2.0"/>
<line x1="95.7" y1="166.7" x2="95.7" y2="130.5" opacity="1.0" stroke="rgb(0,0,0)" stroke-width="2.0"/>
<line x1="95.7" y1="130.5" x2="73.6" y2="123.3" opacity="1.0" stroke="rgb(0,0,0)" stroke-width="2.0"/>
<line x1="53.6" y1="129.8" x2="40.0" y2="148.6" opacity="1.0" stroke="rgb(0,0,0)" stroke-width="2.0"/>
<line x1="315.1" y1="401.9" x2="315.1" y2="365.7" opacity="1.0" stroke="rgb(0,0,0)" stroke-width="2.0"/>
<line x1="315.1" y1="365.7" x2="346.4" y2="347.6" opacity="1.0" stroke="rgb(0,0,0)" stroke-width="2.0"/>
<line x1="323.9" y1="368.9" x2="344.8" y2="356.9" opacity="1.0" stroke="rgb(0,0,0)" stroke-width="2.0"/>
<line x1="346.4" y1="347.6" x2="377.8" y2="365.7" opacity="1.0" stroke="rgb(0,0,0)" stroke-width="2.0"/>
<line x1="377.8" y1="365.7" x2="377.8" y2="401.9" opacity="1.0" stroke="rgb(0,0,0)" stroke-width="2.0"/>
<line x1="370.6" y1="371.7" x2="370.6" y2="395.9" opacity="1.0" stroke="rgb(0,0,0)" stroke-width="2.0"/>
<line x1="377.8" y1="401.9" x2="346.4" y2="420.0" opacity="1.0" stroke="rgb(0,0,0)" stroke-width="2.0"/>
<line x1="346.4" y1="420.0" x2="315.1" y2="401.9" opacity="1.0" stroke="rgb(0,0,0)" stroke-width="2.0"/>
<line x1="344.8" y1="410.8" x2="323.9" y2="398.7" opacity="1.0" stroke="rgb(0,0,0)" stroke-width="2.0"/>
<line x1="409.1" y1="202.9" x2="440.5" y2="184.8" opacity="1.0" stroke="rgb(0,0,0)" stroke-width="2.0"/>
<line x1="440.5" y1="184.8" x2="471.8" y2="202.9" opacity="1.0" stroke="rgb(0,0,0)" stroke-width="2.0"/>
<line x1="442.0" y1="194.0" x2="463.0" y2="206.1" opacity="1.0" stroke="rgb(0,0,0)" stroke-width="2.0"/>
<line x1="471.8" y1="202.9" x2="471.8" y2="239.0" opacity="1.0" stroke="rgb(0,0,0)" stroke-width="2.0"/>
<line x1="471.8" y1="239.0" x2="440.5" y2="257.1" opacity="1.0" stroke="rgb(0,0,0)" stroke-width="2.0"/>
<line x1="463.0" y1="235.8" x2="442.0" y2="247.9" opacity="1.0" stroke="rgb(0,0,0)" stroke-width="2.0"/>
<line x1="440.5" y1="257.1" x2="409.1" y2="239.0" opacity="1.0" stroke="rgb(0,0,0)" stroke-width="2.0"/>
<line x1="409.1" y1="239.0" x2="409.1" y2="202.9" opacity="1.0" stroke="rgb(0,0,0)" stroke-width="2.0"/>
<line x1="416.3" y1="233.0" x2="416.3" y2="208.9" opacity="1.0" stroke="rgb(0,0,0)" stroke-width="2.0"/>
<line x1="471.8" y1="94.3" x2="503.1" y2="112.4" opacity="1.0" stroke="rgb(0,0,0)" stroke-width="2.0"/>
<line x1="480.6" y1="91.1" x2="501.5" y2="103.1" opacity="1.0" stroke="rgb(0,0,0)" stroke-width="2.0"/>
<line x1="503.1" y1="112.4" x2="534.5" y2="94.3" opacity="1.0" stroke="rgb(0,0,0)" stroke-width="2.0"/>
<line x1="534.5" y1="94.3" x2="534.5" y2="58.1" opacity="1.0" stroke="rgb(0,0,0)" stroke-width="2.0"/>
<line x1="527.3" y1="88.3" x2="527.3" y2="64.1" opacity="1.0" stroke="rgb(0,0,0)" stroke-width="2.0"/>
<line x1="534.5" y1="58.1" x2="503.1" y2="40.0" opacity="1.0" stroke="rgb(0,0,0)" stroke-width="2.0"/>
<line x1="503.1" y1="40.0" x2="471.8" y2="58.1" opacity="1.0" stroke="rgb(0,0,0)" stroke-width="2.0"/>
<line x1="501.5" y1="49.2" x2="480.6" y2="61.3" opacity="1.0" stroke="rgb(0,0,0)" stroke-width="2.0"/>
<line x1="471.8" y1="58.1" x2="471.8" y2="94.3" opacity="1.0" stroke="rgb(0,0,0)" stroke-width="2.0"/>
<line x1="597.2" y1="202.9" x2="565.8" y2="221.0" opacity="1.0" stroke="rgb(0,0,0)" stroke-width="2.0"/>
<line x1="595.6" y1="212.1" x2="574.6" y2="224.2" opacity="1.0" stroke="rgb(0,0,0)" stroke-width="2.0"/>
<line x1="565.8" y1="221.0" x2="565.8" y2="257.1" opacity="1.0" stroke="rgb(0,0,0)" stroke-width="2.0"/>
<line x1="565.8" y1="257.1" x2="597.2" y2="275.2" opacity="1.0" stroke="rgb(0,0,0)" stroke-width="2.0"/>
<line x1="574.6" y1="253.9" x2="595.6" y2="266.0" opacity="1.0" stroke="rgb(0,0,0)" stroke-width="2.0"/>
<line x1="597.2" y1="275.2" x2="628.5" y2="257.1" opacity="1.0" stroke="rgb(0,0,0)" stroke-width="2.0"/>
<line x1="628.5" y1="257.1" x2="628.5" y2="221.0" opacity="1.0" stroke="rgb(0,0,0)" stroke-width="2.0"/>
<line x1="621.3" y1="251.1" x2="621.3" y2="227.0" opacity="1.0" stroke="rgb(0,0,0)" stroke-width="2.0"/>
<line x1="628.5" y1="221.0" x2="597.2" y2="202.9" opacity="1.0" stroke="rgb(0,0,0)" stroke-width="2.0"/>
<line x1="315.1" y1="184.8" x2="315.1" y2="148.6" opacity="1.0" stroke="rgb(0,0,0)" stroke-width="2.0"/>
<line x1="307.9" y1="178.8" x2="307.9" y2="154.6" opacity="1.0" stroke="rgb(0,0,0)" stroke-width="2.0"/>
<line x1="315.1" y1="148.6" x2="283.7" y2="130.5" opacity="1.0" stroke="rgb(0,0,0)" stroke-width="2.0"/>
<line x1="283.7" y1="130.5" x2="252.4" y2="148.6" opacity="1.0" stroke="rgb(0,0,0)" stroke-width="2.0"/>
<line x1="282.1" y1="139.7" x2="261.2" y2="151.8" opacity="1.0" stroke="rgb(0,0,0)" stroke-width="2.0"/>
<line x1="252.4" y1="148.6" x2="252.4" y2="184.8" opacity="1.0" stroke="rgb(0,0,0)" stroke-width="2.0"/>
<line x1="252.4" y1="184.8" x2="283.7" y2="202.9" opacity="1.0" stroke="rgb(0,0,0)" stroke-width="2.0"/>
<line x1="261.2" y1="181.5" x2="282.1" y2="193.6" opacity="1.0" stroke="rgb(0,0,0)" stroke-width="2.0"/>
<line x1="283.7" y1="202.9" x2="315.1" y2="184.8" opacity="1.0" stroke="rgb(0,0,0)" stroke-width="2.0"/>
<line x1="221.1" y1="202.9" x2="252.4" y2="184.8" opacity="1.0" stroke="rgb(0,0,0)" stroke-width="2.0"/>
<line x1="283.7" y1="202.9" x2="283.7" y2="239.0" opacity="1.0" stroke="rgb(0,0,0)" stroke-width="2.0"/>
<line x1="283.7" y1="239.0" x2="252.4" y2="257.1" opacity="1.0" stroke="rgb(0,0,0)" stroke-width="2.0"/>
<line x1="274.9" y1="235.8" x2="254.0" y2="247.9" opacity="1.0" stroke="rgb(0,0,0)" stroke-width="2.0"/>
<line x1="252.4" y1="257.1" x2="221.1" y2="239.0" opacity="1.0" stroke="rgb(0,0,0)" stroke-width="2.0"/>
<line x1="221.1" y1="239.0" x2="221.1" y2="202.9" opacity="1.0" stroke="rgb(0,0,0)" stroke-width="2.0"/>
<line x1="228.3" y1="233.0" x2="228.3" y2="208.9" opacity="1.0" stroke="rgb(0,0,0)" stroke-width="2.0"/>
<line x1="221.1" y1="311.4" x2="189.7" y2="293.3" opacity="1.0" stroke="rgb(0,0,0)" stroke-width="2.0"/>
<line x1="189.7" y1="293.3" x2="189.7" y2="257.1" opacity="1.0" stroke="rgb(0,0,0)" stroke-width="2.0"/>
<line x1="196.9" y1="287.3" x2="196.9" y2="263.1" opacity="1.0" stroke="rgb(0,0,0)" stroke-width="2.0"/>
<line x1="189.7" y1="257.1" x2="221.1" y2="239.0" opacity="1.0" stroke="rgb(0,0,0)" stroke-width="2.0"/>
<line x1="252.4" y1="257.1" x2="252.4" y2="293.3" opacity="1.0" stroke="rgb(0,0,0)" stroke-width="2.0"/>
<line x1="252.4" y1="293.3" x2="221.1" y2="311.4" opacity="1.0" stroke="rgb(0,0,0)" stroke-width="2.0"/>
<line x1="243.6" y1="290.1" x2="222.7" y2="302.2" opacity="1.0" stroke="rgb(0,0,0)" stroke-width="2.0"/>
<line x1="158.4" y1="130.5" x2="127.0" y2="112.4" opacity="1.0" stroke="rgb(0,0,0)" stroke-width="2.0"/>
<line x1="127.0" y1="112.4" x2="95.7" y2="130.5" opacity="1.0" stroke="rgb(0,0,0)" stroke-width="2.0"/>
<line x1="125.4" y1="121.6" x2="104.5" y2="133.7" opacity="1.0" stroke="rgb(0,0,0)" stroke-width="2.0"/>
<line x1="95.7" y1="166.7" x2="127.0" y2="184.8" opacity="1.0" stroke="rgb(0,0,0)" stroke-width="2.0"/>
<line x1="104.5" y1="163.4" x2="125.4" y2="175.5" opacity="1.0" stroke="rgb(0,0,0)" stroke-width="2.0"/>
<line x1="127.0" y1="184.8" x2="158.4" y2="166.7" opacity="1.0" stroke="rgb(0,0,0)" stroke-width="2.0"/>
<line x1="158.4" y1="166.7" x2="158.4" y2="130.5" opacity="1.0" stroke="rgb(0,0,0)" stroke-width="2.0"/>
<line x1="151.2" y1="160.7" x2="151.2" y2="136.5" opacity="1.0" stroke="rgb(0,0,0)" stroke-width="2.0"/>
<text x="55.272228" y="127.292718" fill="rgb(12,12,255)" stroke-width="0" font-weight="bold" font-size="16">N</text>
<text x="55.272228" y="111.292718" fill="rgb(12,12,255)" stroke-width="0" font-weight="bold" font-size="16">H</text>
<text x="340.426390" y="283.238095" fill="rgb(12,12,255)" stroke-width="0" font-weight="bold" font-size="16">N</text>
<text x="497.135749" y="192.761905" fill="rgb(12,12,255)" stroke-width="0" font-weight="bold" font-size="16">N</text>
</svg>
</g>
</svg>
