<svg xmlns="http://www.w3.org/2000/svg" xmlns:xlink="http://www.w3.org/1999/xlink" xmlns:cml="http://www.xml-cml.org/schema" version="1.1" id="topsvg" x="0" y="0" viewBox="0 0 100 100">
<title>J_3_N - Open Babel Depiction</title>
<rect x="0" y="0" width="100" height="100" fill="white"/>
<g transform="translate(0,0)">
<svg width="100" height="100" x="0" y="0" viewBox="0 0 602.62 456.552" font-family="sans-serif" stroke="rgb(0,0,0)" stroke-width="2" stroke-linecap="round">
<line x1="283.1" y1="344.8" x2="283.1" y2="286.1" opacity="1.0" stroke="rgb(0,0,0)" stroke-width="2.0"/>
<line x1="294.4" y1="266.6" x2="345.2" y2="237.2" opacity="1.0" stroke="rgb(0,0,0)" stroke-width="2.0"/>
<line x1="449.6" y1="189.9" x2="500.5" y2="219.3" opacity="1.0" stroke="rgb(0,0,0)" stroke-width="2.0"/>
<line x1="438.4" y1="170.4" x2="438.4" y2="111.7" opacity="1.0" stroke="rgb(0,0,0)" stroke-width="2.0"/>
<line x1="407.3" y1="201.4" x2="427.1" y2="189.9" opacity="1.0" stroke="rgb(0,0,0)" stroke-width="2.0"/>
<line x1="271.8" y1="266.6" x2="221.0" y2="237.2" opacity="1.0" stroke="rgb(0,0,0)" stroke-width="2.0"/>
<line x1="158.9" y1="201.4" x2="96.8" y2="165.5" opacity="1.0" stroke="rgb(0,0,0)" stroke-width="2.0"/>
<line x1="64.0" y1="180.1" x2="48.7" y2="163.1" opacity="1.0" stroke="rgb(0,0,0)" stroke-width="2.0"/>
<line x1="46.5" y1="142.2" x2="57.9" y2="122.4" opacity="1.0" stroke="rgb(0,0,0)" stroke-width="2.0"/>
<line x1="57.9" y1="122.4" x2="93.0" y2="129.9" opacity="1.0" stroke="rgb(0,0,0)" stroke-width="2.0"/>
<line x1="62.3" y1="130.7" x2="85.6" y2="135.6" opacity="1.0" stroke="rgb(0,0,0)" stroke-width="2.0"/>
<line x1="93.0" y1="129.9" x2="96.8" y2="165.5" opacity="1.0" stroke="rgb(0,0,0)" stroke-width="2.0"/>
<line x1="96.8" y1="165.5" x2="64.0" y2="180.1" opacity="1.0" stroke="rgb(0,0,0)" stroke-width="2.0"/>
<line x1="88.3" y1="161.4" x2="66.5" y2="171.1" opacity="1.0" stroke="rgb(0,0,0)" stroke-width="2.0"/>
<line x1="252.0" y1="398.6" x2="252.0" y2="362.8" opacity="1.0" stroke="rgb(0,0,0)" stroke-width="2.0"/>
<line x1="252.0" y1="362.8" x2="283.1" y2="344.8" opacity="1.0" stroke="rgb(0,0,0)" stroke-width="2.0"/>
<line x1="260.8" y1="366.0" x2="281.5" y2="354.1" opacity="1.0" stroke="rgb(0,0,0)" stroke-width="2.0"/>
<line x1="283.1" y1="344.8" x2="314.2" y2="362.8" opacity="1.0" stroke="rgb(0,0,0)" stroke-width="2.0"/>
<line x1="314.2" y1="362.8" x2="314.2" y2="398.6" opacity="1.0" stroke="rgb(0,0,0)" stroke-width="2.0"/>
<line x1="307.0" y1="368.8" x2="307.0" y2="392.6" opacity="1.0" stroke="rgb(0,0,0)" stroke-width="2.0"/>
<line x1="314.2" y1="398.6" x2="283.1" y2="416.6" opacity="1.0" stroke="rgb(0,0,0)" stroke-width="2.0"/>
<line x1="283.1" y1="416.6" x2="252.0" y2="398.6" opacity="1.0" stroke="rgb(0,0,0)" stroke-width="2.0"/>
<line x1="281.5" y1="407.3" x2="260.8" y2="395.4" opacity="1.0" stroke="rgb(0,0,0)" stroke-width="2.0"/>
<line x1="345.2" y1="201.4" x2="376.3" y2="183.4" opacity="1.0" stroke="rgb(0,0,0)" stroke-width="2.0"/>
<line x1="376.3" y1="183.4" x2="407.3" y2="201.4" opacity="1.0" stroke="rgb(0,0,0)" stroke-width="2.0"/>
<line x1="377.9" y1="192.7" x2="398.5" y2="204.6" opacity="1.0" stroke="rgb(0,0,0)" stroke-width="2.0"/>
<line x1="407.3" y1="201.4" x2="407.3" y2="237.2" opacity="1.0" stroke="rgb(0,0,0)" stroke-width="2.0"/>
<line x1="407.3" y1="237.2" x2="376.3" y2="255.2" opacity="1.0" stroke="rgb(0,0,0)" stroke-width="2.0"/>
<line x1="398.5" y1="234.0" x2="377.9" y2="245.9" opacity="1.0" stroke="rgb(0,0,0)" stroke-width="2.0"/>
<line x1="376.3" y1="255.2" x2="345.2" y2="237.2" opacity="1.0" stroke="rgb(0,0,0)" stroke-width="2.0"/>
<line x1="345.2" y1="237.2" x2="345.2" y2="201.4" opacity="1.0" stroke="rgb(0,0,0)" stroke-width="2.0"/>
<line x1="352.4" y1="231.2" x2="352.4" y2="207.4" opacity="1.0" stroke="rgb(0,0,0)" stroke-width="2.0"/>
<line x1="407.3" y1="93.8" x2="438.4" y2="111.7" opacity="1.0" stroke="rgb(0,0,0)" stroke-width="2.0"/>
<line x1="416.1" y1="90.6" x2="436.8" y2="102.5" opacity="1.0" stroke="rgb(0,0,0)" stroke-width="2.0"/>
<line x1="438.4" y1="111.7" x2="469.4" y2="93.8" opacity="1.0" stroke="rgb(0,0,0)" stroke-width="2.0"/>
<line x1="469.4" y1="93.8" x2="469.4" y2="57.9" opacity="1.0" stroke="rgb(0,0,0)" stroke-width="2.0"/>
<line x1="462.2" y1="87.8" x2="462.2" y2="63.9" opacity="1.0" stroke="rgb(0,0,0)" stroke-width="2.0"/>
<line x1="469.4" y1="57.9" x2="438.4" y2="40.0" opacity="1.0" stroke="rgb(0,0,0)" stroke-width="2.0"/>
<line x1="438.4" y1="40.0" x2="407.3" y2="57.9" opacity="1.0" stroke="rgb(0,0,0)" stroke-width="2.0"/>
<line x1="436.8" y1="49.2" x2="416.1" y2="61.2" opacity="1.0" stroke="rgb(0,0,0)" stroke-width="2.0"/>
<line x1="407.3" y1="57.9" x2="407.3" y2="93.8" opacity="1.0" stroke="rgb(0,0,0)" stroke-width="2.0"/>
<line x1="531.6" y1="201.4" x2="500.5" y2="219.3" opacity="1.0" stroke="rgb(0,0,0)" stroke-width="2.0"/>
<line x1="530.0" y1="210.6" x2="509.3" y2="222.5" opacity="1.0" stroke="rgb(0,0,0)" stroke-width="2.0"/>
<line x1="500.5" y1="219.3" x2="500.5" y2="255.2" opacity="1.0" stroke="rgb(0,0,0)" stroke-width="2.0"/>
<line x1="500.5" y1="255.2" x2="531.6" y2="273.1" opacity="1.0" stroke="rgb(0,0,0)" stroke-width="2.0"/>
<line x1="509.3" y1="251.9" x2="530.0" y2="263.9" opacity="1.0" stroke="rgb(0,0,0)" stroke-width="2.0"/>
<line x1="531.6" y1="273.1" x2="562.6" y2="255.2" opacity="1.0" stroke="rgb(0,0,0)" stroke-width="2.0"/>
<line x1="562.6" y1="255.2" x2="562.6" y2="219.3" opacity="1.0" stroke="rgb(0,0,0)" stroke-width="2.0"/>
<line x1="555.4" y1="249.2" x2="555.4" y2="225.3" opacity="1.0" stroke="rgb(0,0,0)" stroke-width="2.0"/>
<line x1="562.6" y1="219.3" x2="531.6" y2="201.4" opacity="1.0" stroke="rgb(0,0,0)" stroke-width="2.0"/>
<line x1="252.0" y1="183.4" x2="252.0" y2="147.6" opacity="1.0" stroke="rgb(0,0,0)" stroke-width="2.0"/>
<line x1="244.8" y1="177.4" x2="244.8" y2="153.6" opacity="1.0" stroke="rgb(0,0,0)" stroke-width="2.0"/>
<line x1="252.0" y1="147.6" x2="221.0" y2="129.7" opacity="1.0" stroke="rgb(0,0,0)" stroke-width="2.0"/>
<line x1="221.0" y1="129.7" x2="189.9" y2="147.6" opacity="1.0" stroke="rgb(0,0,0)" stroke-width="2.0"/>
<line x1="219.4" y1="138.9" x2="198.7" y2="150.8" opacity="1.0" stroke="rgb(0,0,0)" stroke-width="2.0"/>
<line x1="189.9" y1="147.6" x2="189.9" y2="183.4" opacity="1.0" stroke="rgb(0,0,0)" stroke-width="2.0"/>
<line x1="189.9" y1="183.4" x2="221.0" y2="201.4" opacity="1.0" stroke="rgb(0,0,0)" stroke-width="2.0"/>
<line x1="198.7" y1="180.2" x2="219.4" y2="192.1" opacity="1.0" stroke="rgb(0,0,0)" stroke-width="2.0"/>
<line x1="221.0" y1="201.4" x2="252.0" y2="183.4" opacity="1.0" stroke="rgb(0,0,0)" stroke-width="2.0"/>
<line x1="158.9" y1="201.4" x2="189.9" y2="183.4" opacity="1.0" stroke="rgb(0,0,0)" stroke-width="2.0"/>
<line x1="221.0" y1="201.4" x2="221.0" y2="237.2" opacity="1.0" stroke="rgb(0,0,0)" stroke-width="2.0"/>
<line x1="221.0" y1="237.2" x2="189.9" y2="255.2" opacity="1.0" stroke="rgb(0,0,0)" stroke-width="2.0"/>
<line x1="212.2" y1="234.0" x2="191.5" y2="245.9" opacity="1.0" stroke="rgb(0,0,0)" stroke-width="2.0"/>
<line x1="189.9" y1="255.2" x2="158.9" y2="237.2" opacity="1.0" stroke="rgb(0,0,0)" stroke-width="2.0"/>
<line x1="158.9" y1="237.2" x2="158.9" y2="201.4" opacity="1.0" stroke="rgb(0,0,0)" stroke-width="2.0"/>
<line x1="166.1" y1="231.2" x2="166.1" y2="207.4" opacity="1.0" stroke="rgb(0,0,0)" stroke-width="2.0"/>
<line x1="158.9" y1="309.0" x2="127.8" y2="291.0" opacity="1.0" stroke="rgb(0,0,0)" stroke-width="2.0"/>
<line x1="127.8" y1="291.0" x2="127.8" y2="255.2" opacity="1.0" stroke="rgb(0,0,0)" stroke-width="2.0"/>
<line x1="135.0" y1="285.0" x2="135.0" y2="261.2" opacity="1.0" stroke="rgb(0,0,0)" stroke-width="2.0"/>
<line x1="127.8" y1="255.2" x2="158.9" y2="237.2" opacity="1.0" stroke="rgb(0,0,0)" stroke-width="2.0"/>
<line x1="189.9" y1="255.2" x2="189.9" y2="291.0" opacity="1.0" stroke="rgb(0,0,0)" stroke-width="2.0"/>
<line x1="189.9" y1="291.0" x2="158.9" y2="309.0" opacity="1.0" stroke="rgb(0,0,0)" stroke-width="2.0"/>
<line x1="181.1" y1="287.8" x2="160.5" y2="299.7" opacity="1.0" stroke="rgb(0,0,0)" stroke-width="2.0"/>
<text x="34.000000" y="161.452948" fill="rgb(178,178,0)" stroke-width="0" font-weight="bold" font-size="16">S</text>
<text x="277.102815" y="281.103448" fill="rgb(12,12,255)" stroke-width="0" font-weight="bold" font-size="16">N</text>
<text x="432.390128" y="191.448276" fill="rgb(12,12,255)" stroke-width="0" font-weight="bold" font-size="16">N</text>
</svg>
</g>
</svg>