<svg xmlns="http://www.w3.org/2000/svg" x="0" y="0" viewBox="0 0 100 100">
<title>J_4_P - Open Babel Depiction</title>
<rect x="0" y="0" width="100" height="100" fill="white"/>
<g transform="translate(0,0)">
<svg width="100" height="100" x="0" y="0" viewBox="0 0 495.013 485.49" font-family="sans-serif" stroke="rgb(0,0,0)" stroke-width="2" stroke-linecap="round">
<line x1="103.8" y1="242.7" x2="156.4" y2="212.4" opacity="1.0" stroke="rgb(0,0,0)" stroke-width="2.0"/>
<line x1="179.0" y1="212.4" x2="231.5" y2="242.7" opacity="1.0" stroke="rgb(0,0,0)" stroke-width="2.0"/>
<line x1="327.3" y1="311.0" x2="327.3" y2="371.8" opacity="1.0" stroke="rgb(0,0,0)" stroke-width="2.0"/>
<line x1="338.6" y1="291.5" x2="391.2" y2="261.2" opacity="1.0" stroke="rgb(0,0,0)" stroke-width="2.0"/>
<line x1="295.4" y1="279.6" x2="316.1" y2="291.5" opacity="1.0" stroke="rgb(0,0,0)" stroke-width="2.0"/>
<line x1="92.6" y1="101.8" x2="83.2" y2="107.2" opacity="1.0" stroke="rgb(0,0,0)" stroke-width="2.0"/>
<line x1="135.8" y1="113.7" x2="115.1" y2="101.8" opacity="1.0" stroke="rgb(0,0,0)" stroke-width="2.0"/>
<line x1="167.7" y1="192.9" x2="167.7" y2="169.0" opacity="1.0" stroke="rgb(0,0,0)" stroke-width="2.0"/>
<line x1="338.6" y1="46.5" x2="348.0" y2="51.9" opacity="1.0" stroke="rgb(0,0,0)" stroke-width="2.0"/>
<line x1="295.4" y1="58.4" x2="316.1" y2="46.5" opacity="1.0" stroke="rgb(0,0,0)" stroke-width="2.0"/>
<line x1="199.6" y1="113.7" x2="231.5" y2="95.3" opacity="1.0" stroke="rgb(0,0,0)" stroke-width="2.0"/>
<line x1="40.0" y1="242.7" x2="71.9" y2="224.3" opacity="1.0" stroke="rgb(0,0,0)" stroke-width="2.0"/>
<line x1="71.9" y1="224.3" x2="103.8" y2="242.7" opacity="1.0" stroke="rgb(0,0,0)" stroke-width="2.0"/>
<line x1="73.5" y1="233.5" x2="95.1" y2="246.0" opacity="1.0" stroke="rgb(0,0,0)" stroke-width="2.0"/>
<line x1="103.8" y1="242.7" x2="103.8" y2="279.6" opacity="1.0" stroke="rgb(0,0,0)" stroke-width="2.0"/>
<line x1="103.8" y1="279.6" x2="71.9" y2="298.0" opacity="1.0" stroke="rgb(0,0,0)" stroke-width="2.0"/>
<line x1="95.1" y1="276.4" x2="73.5" y2="288.8" opacity="1.0" stroke="rgb(0,0,0)" stroke-width="2.0"/>
<line x1="71.9" y1="298.0" x2="40.0" y2="279.6" opacity="1.0" stroke="rgb(0,0,0)" stroke-width="2.0"/>
<line x1="40.0" y1="279.6" x2="40.0" y2="242.7" opacity="1.0" stroke="rgb(0,0,0)" stroke-width="2.0"/>
<line x1="47.2" y1="273.6" x2="47.2" y2="248.7" opacity="1.0" stroke="rgb(0,0,0)" stroke-width="2.0"/>
<line x1="263.5" y1="224.3" x2="295.4" y2="242.7" opacity="1.0" stroke="rgb(0,0,0)" stroke-width="2.0"/>
<line x1="295.4" y1="242.7" x2="295.4" y2="279.6" opacity="1.0" stroke="rgb(0,0,0)" stroke-width="2.0"/>
<line x1="288.2" y1="248.7" x2="288.2" y2="273.6" opacity="1.0" stroke="rgb(0,0,0)" stroke-width="2.0"/>
<line x1="295.4" y1="279.6" x2="263.5" y2="298.0" opacity="1.0" stroke="rgb(0,0,0)" stroke-width="2.0"/>
<line x1="263.5" y1="298.0" x2="231.5" y2="279.6" opacity="1.0" stroke="rgb(0,0,0)" stroke-width="2.0"/>
<line x1="261.9" y1="288.8" x2="240.3" y2="276.4" opacity="1.0" stroke="rgb(0,0,0)" stroke-width="2.0"/>
<line x1="231.5" y1="279.6" x2="231.5" y2="242.7" opacity="1.0" stroke="rgb(0,0,0)" stroke-width="2.0"/>
<line x1="231.5" y1="242.7" x2="263.5" y2="224.3" opacity="1.0" stroke="rgb(0,0,0)" stroke-width="2.0"/>
<line x1="240.3" y1="246.0" x2="261.9" y2="233.5" opacity="1.0" stroke="rgb(0,0,0)" stroke-width="2.0"/>
<line x1="391.2" y1="224.3" x2="391.2" y2="261.2" opacity="1.0" stroke="rgb(0,0,0)" stroke-width="2.0"/>
<line x1="398.4" y1="230.3" x2="398.4" y2="255.2" opacity="1.0" stroke="rgb(0,0,0)" stroke-width="2.0"/>
<line x1="391.2" y1="261.2" x2="423.1" y2="279.6" opacity="1.0" stroke="rgb(0,0,0)" stroke-width="2.0"/>
<line x1="423.1" y1="279.6" x2="455.0" y2="261.2" opacity="1.0" stroke="rgb(0,0,0)" stroke-width="2.0"/>
<line x1="424.7" y1="270.4" x2="446.2" y2="257.9" opacity="1.0" stroke="rgb(0,0,0)" stroke-width="2.0"/>
<line x1="455.0" y1="261.2" x2="455.0" y2="224.3" opacity="1.0" stroke="rgb(0,0,0)" stroke-width="2.0"/>
<line x1="455.0" y1="224.3" x2="423.1" y2="205.9" opacity="1.0" stroke="rgb(0,0,0)" stroke-width="2.0"/>
<line x1="446.2" y1="227.5" x2="424.7" y2="215.1" opacity="1.0" stroke="rgb(0,0,0)" stroke-width="2.0"/>
<line x1="423.1" y1="205.9" x2="391.2" y2="224.3" opacity="1.0" stroke="rgb(0,0,0)" stroke-width="2.0"/>
<line x1="359.2" y1="390.2" x2="327.3" y2="371.8" opacity="1.0" stroke="rgb(0,0,0)" stroke-width="2.0"/>
<line x1="350.4" y1="393.4" x2="328.9" y2="381.0" opacity="1.0" stroke="rgb(0,0,0)" stroke-width="2.0"/>
<line x1="327.3" y1="371.8" x2="295.4" y2="390.2" opacity="1.0" stroke="rgb(0,0,0)" stroke-width="2.0"/>
<line x1="295.4" y1="390.2" x2="295.4" y2="427.1" opacity="1.0" stroke="rgb(0,0,0)" stroke-width="2.0"/>
<line x1="302.6" y1="396.2" x2="302.6" y2="421.1" opacity="1.0" stroke="rgb(0,0,0)" stroke-width="2.0"/>
<line x1="295.4" y1="427.1" x2="327.3" y2="445.5" opacity="1.0" stroke="rgb(0,0,0)" stroke-width="2.0"/>
<line x1="327.3" y1="445.5" x2="359.2" y2="427.1" opacity="1.0" stroke="rgb(0,0,0)" stroke-width="2.0"/>
<line x1="328.9" y1="436.3" x2="350.4" y2="423.8" opacity="1.0" stroke="rgb(0,0,0)" stroke-width="2.0"/>
<line x1="359.2" y1="427.1" x2="359.2" y2="390.2" opacity="1.0" stroke="rgb(0,0,0)" stroke-width="2.0"/>
<line x1="135.8" y1="150.6" x2="135.8" y2="113.7" opacity="1.0" stroke="rgb(0,0,0)" stroke-width="2.0"/>
<line x1="135.8" y1="113.7" x2="167.7" y2="95.3" opacity="1.0" stroke="rgb(0,0,0)" stroke-width="2.0"/>
<line x1="144.6" y1="117.0" x2="166.1" y2="104.5" opacity="1.0" stroke="rgb(0,0,0)" stroke-width="2.0"/>
<line x1="167.7" y1="95.3" x2="199.6" y2="113.7" opacity="1.0" stroke="rgb(0,0,0)" stroke-width="2.0"/>
<line x1="199.6" y1="113.7" x2="199.6" y2="150.6" opacity="1.0" stroke="rgb(0,0,0)" stroke-width="2.0"/>
<line x1="192.4" y1="119.7" x2="192.4" y2="144.6" opacity="1.0" stroke="rgb(0,0,0)" stroke-width="2.0"/>
<line x1="199.6" y1="150.6" x2="167.7" y2="169.0" opacity="1.0" stroke="rgb(0,0,0)" stroke-width="2.0"/>
<line x1="167.7" y1="169.0" x2="135.8" y2="150.6" opacity="1.0" stroke="rgb(0,0,0)" stroke-width="2.0"/>
<line x1="166.1" y1="159.8" x2="144.6" y2="147.4" opacity="1.0" stroke="rgb(0,0,0)" stroke-width="2.0"/>
<line x1="231.5" y1="58.4" x2="263.5" y2="40.0" opacity="1.0" stroke="rgb(0,0,0)" stroke-width="2.0"/>
<line x1="263.5" y1="40.0" x2="295.4" y2="58.4" opacity="1.0" stroke="rgb(0,0,0)" stroke-width="2.0"/>
<line x1="265.1" y1="49.2" x2="286.6" y2="61.7" opacity="1.0" stroke="rgb(0,0,0)" stroke-width="2.0"/>
<line x1="295.4" y1="58.4" x2="295.4" y2="95.3" opacity="1.0" stroke="rgb(0,0,0)" stroke-width="2.0"/>
<line x1="295.4" y1="95.3" x2="263.5" y2="113.7" opacity="1.0" stroke="rgb(0,0,0)" stroke-width="2.0"/>
<line x1="286.6" y1="92.1" x2="265.1" y2="104.5" opacity="1.0" stroke="rgb(0,0,0)" stroke-width="2.0"/>
<line x1="263.5" y1="113.7" x2="231.5" y2="95.3" opacity="1.0" stroke="rgb(0,0,0)" stroke-width="2.0"/>
<line x1="231.5" y1="95.3" x2="231.5" y2="58.4" opacity="1.0" stroke="rgb(0,0,0)" stroke-width="2.0"/>
<line x1="238.7" y1="89.3" x2="238.7" y2="64.4" opacity="1.0" stroke="rgb(0,0,0)" stroke-width="2.0"/>
<text x="97.848147" y="103.294118" fill="rgb(255,12,12)" stroke-width="0" font-weight="bold" font-size="16">O</text>
<text x="45.924074" y="121.725490" fill="rgb(102,102,102)" stroke-width="0" font-weight="bold" font-size="16">H</text>
<text x="57.924074" y="125.405490" fill="rgb(102,102,102)" stroke-width="0" font-weight="bold" font-size="13">3</text>
<text x="64.424074" y="121.725490" fill="rgb(102,102,102)" stroke-width="0" font-weight="bold" font-size="16">C</text>
<text x="321.316663" y="48.000000" fill="rgb(255,12,12)" stroke-width="0" font-weight="bold" font-size="16">O</text>
<text x="355.240737" y="66.431373" fill="rgb(102,102,102)" stroke-width="0" font-weight="bold" font-size="16">CH</text>
<text x="379.240737" y="70.111373" fill="rgb(102,102,102)" stroke-width="0" font-weight="bold" font-size="13">3</text>
<text x="161.696295" y="213.882353" fill="rgb(12,12,255)" stroke-width="0" font-weight="bold" font-size="16">N</text>
<text x="321.316663" y="306.039216" fill="rgb(12,12,255)" stroke-width="0" font-weight="bold" font-size="16">N</text>
</svg>
</g>
</svg>
