<svg xmlns="http://www.w3.org/2000/svg" x="0" y="0" viewBox="0 0 100 100">
<title>J_4_N - Open Babel Depiction</title>
<rect x="0" y="0" width="100" height="100" fill="white"/>
<g transform="translate(0,0)">
<svg width="100" height="100" x="0" y="0" viewBox="0 0 492.805 472.423" font-family="sans-serif" stroke="rgb(0,0,0)" stroke-width="2" stroke-linecap="round">
<line x1="389.3" y1="241.7" x2="337.0" y2="271.8" opacity="1.0" stroke="rgb(0,0,0)" stroke-width="2.0"/>
<line x1="314.5" y1="271.8" x2="262.3" y2="241.7" opacity="1.0" stroke="rgb(0,0,0)" stroke-width="2.0"/>
<line x1="167.0" y1="173.7" x2="167.0" y2="113.3" opacity="1.0" stroke="rgb(0,0,0)" stroke-width="2.0"/>
<line x1="155.8" y1="193.2" x2="103.5" y2="223.3" opacity="1.0" stroke="rgb(0,0,0)" stroke-width="2.0"/>
<line x1="198.8" y1="205.0" x2="178.3" y2="193.2" opacity="1.0" stroke="rgb(0,0,0)" stroke-width="2.0"/>
<line x1="389.3" y1="401.3" x2="389.3" y2="412.0" opacity="1.0" stroke="rgb(0,0,0)" stroke-width="2.0"/>
<line x1="357.5" y1="370.0" x2="378.0" y2="381.8" opacity="1.0" stroke="rgb(0,0,0)" stroke-width="2.0"/>
<line x1="325.8" y1="291.3" x2="325.8" y2="315.0" opacity="1.0" stroke="rgb(0,0,0)" stroke-width="2.0"/>
<line x1="294.0" y1="370.0" x2="262.3" y2="388.3" opacity="1.0" stroke="rgb(0,0,0)" stroke-width="2.0"/>
<line x1="258.4" y1="424.8" x2="235.3" y2="429.7" opacity="1.0" stroke="rgb(0,0,0)" stroke-width="2.0"/>
<line x1="216.1" y1="421.2" x2="204.2" y2="400.7" opacity="1.0" stroke="rgb(0,0,0)" stroke-width="2.0"/>
<line x1="204.2" y1="400.7" x2="228.8" y2="373.4" opacity="1.0" stroke="rgb(0,0,0)" stroke-width="2.0"/>
<line x1="213.6" y1="401.0" x2="230.1" y2="382.7" opacity="1.0" stroke="rgb(0,0,0)" stroke-width="2.0"/>
<line x1="228.8" y1="373.4" x2="262.3" y2="388.3" opacity="1.0" stroke="rgb(0,0,0)" stroke-width="2.0"/>
<line x1="262.3" y1="388.3" x2="258.4" y2="424.8" opacity="1.0" stroke="rgb(0,0,0)" stroke-width="2.0"/>
<line x1="254.5" y1="393.5" x2="251.9" y2="418.1" opacity="1.0" stroke="rgb(0,0,0)" stroke-width="2.0"/>
<line x1="452.8" y1="241.7" x2="421.1" y2="260.0" opacity="1.0" stroke="rgb(0,0,0)" stroke-width="2.0"/>
<line x1="421.1" y1="260.0" x2="389.3" y2="241.7" opacity="1.0" stroke="rgb(0,0,0)" stroke-width="2.0"/>
<line x1="419.5" y1="250.8" x2="398.1" y2="238.4" opacity="1.0" stroke="rgb(0,0,0)" stroke-width="2.0"/>
<line x1="389.3" y1="241.7" x2="389.3" y2="205.0" opacity="1.0" stroke="rgb(0,0,0)" stroke-width="2.0"/>
<line x1="389.3" y1="205.0" x2="421.1" y2="186.7" opacity="1.0" stroke="rgb(0,0,0)" stroke-width="2.0"/>
<line x1="398.1" y1="208.2" x2="419.5" y2="195.9" opacity="1.0" stroke="rgb(0,0,0)" stroke-width="2.0"/>
<line x1="421.1" y1="186.7" x2="452.8" y2="205.0" opacity="1.0" stroke="rgb(0,0,0)" stroke-width="2.0"/>
<line x1="452.8" y1="205.0" x2="452.8" y2="241.7" opacity="1.0" stroke="rgb(0,0,0)" stroke-width="2.0"/>
<line x1="445.6" y1="211.0" x2="445.6" y2="235.7" opacity="1.0" stroke="rgb(0,0,0)" stroke-width="2.0"/>
<line x1="230.5" y1="260.0" x2="198.8" y2="241.7" opacity="1.0" stroke="rgb(0,0,0)" stroke-width="2.0"/>
<line x1="198.8" y1="241.7" x2="198.8" y2="205.0" opacity="1.0" stroke="rgb(0,0,0)" stroke-width="2.0"/>
<line x1="206.0" y1="235.7" x2="206.0" y2="211.0" opacity="1.0" stroke="rgb(0,0,0)" stroke-width="2.0"/>
<line x1="198.8" y1="205.0" x2="230.5" y2="186.7" opacity="1.0" stroke="rgb(0,0,0)" stroke-width="2.0"/>
<line x1="230.5" y1="186.7" x2="262.3" y2="205.0" opacity="1.0" stroke="rgb(0,0,0)" stroke-width="2.0"/>
<line x1="232.1" y1="195.9" x2="253.5" y2="208.2" opacity="1.0" stroke="rgb(0,0,0)" stroke-width="2.0"/>
<line x1="262.3" y1="205.0" x2="262.3" y2="241.7" opacity="1.0" stroke="rgb(0,0,0)" stroke-width="2.0"/>
<line x1="262.3" y1="241.7" x2="230.5" y2="260.0" opacity="1.0" stroke="rgb(0,0,0)" stroke-width="2.0"/>
<line x1="253.5" y1="238.4" x2="232.1" y2="250.8" opacity="1.0" stroke="rgb(0,0,0)" stroke-width="2.0"/>
<line x1="103.5" y1="260.0" x2="103.5" y2="223.3" opacity="1.0" stroke="rgb(0,0,0)" stroke-width="2.0"/>
<line x1="96.3" y1="254.0" x2="96.3" y2="229.3" opacity="1.0" stroke="rgb(0,0,0)" stroke-width="2.0"/>
<line x1="103.5" y1="223.3" x2="71.8" y2="205.0" opacity="1.0" stroke="rgb(0,0,0)" stroke-width="2.0"/>
<line x1="71.8" y1="205.0" x2="40.0" y2="223.3" opacity="1.0" stroke="rgb(0,0,0)" stroke-width="2.0"/>
<line x1="70.2" y1="214.2" x2="48.8" y2="226.6" opacity="1.0" stroke="rgb(0,0,0)" stroke-width="2.0"/>
<line x1="40.0" y1="223.3" x2="40.0" y2="260.0" opacity="1.0" stroke="rgb(0,0,0)" stroke-width="2.0"/>
<line x1="40.0" y1="260.0" x2="71.8" y2="278.3" opacity="1.0" stroke="rgb(0,0,0)" stroke-width="2.0"/>
<line x1="48.8" y1="256.8" x2="70.2" y2="269.1" opacity="1.0" stroke="rgb(0,0,0)" stroke-width="2.0"/>
<line x1="71.8" y1="278.3" x2="103.5" y2="260.0" opacity="1.0" stroke="rgb(0,0,0)" stroke-width="2.0"/>
<line x1="135.3" y1="95.0" x2="167.0" y2="113.3" opacity="1.0" stroke="rgb(0,0,0)" stroke-width="2.0"/>
<line x1="144.1" y1="91.8" x2="165.4" y2="104.1" opacity="1.0" stroke="rgb(0,0,0)" stroke-width="2.0"/>
<line x1="167.0" y1="113.3" x2="198.8" y2="95.0" opacity="1.0" stroke="rgb(0,0,0)" stroke-width="2.0"/>
<line x1="198.8" y1="95.0" x2="198.8" y2="58.3" opacity="1.0" stroke="rgb(0,0,0)" stroke-width="2.0"/>
<line x1="191.6" y1="89.0" x2="191.6" y2="64.3" opacity="1.0" stroke="rgb(0,0,0)" stroke-width="2.0"/>
<line x1="198.8" y1="58.3" x2="167.0" y2="40.0" opacity="1.0" stroke="rgb(0,0,0)" stroke-width="2.0"/>
<line x1="167.0" y1="40.0" x2="135.3" y2="58.3" opacity="1.0" stroke="rgb(0,0,0)" stroke-width="2.0"/>
<line x1="165.4" y1="49.2" x2="144.1" y2="61.6" opacity="1.0" stroke="rgb(0,0,0)" stroke-width="2.0"/>
<line x1="135.3" y1="58.3" x2="135.3" y2="95.0" opacity="1.0" stroke="rgb(0,0,0)" stroke-width="2.0"/>
<line x1="357.5" y1="333.3" x2="357.5" y2="370.0" opacity="1.0" stroke="rgb(0,0,0)" stroke-width="2.0"/>
<line x1="357.5" y1="370.0" x2="325.8" y2="388.3" opacity="1.0" stroke="rgb(0,0,0)" stroke-width="2.0"/>
<line x1="348.7" y1="366.8" x2="327.4" y2="379.1" opacity="1.0" stroke="rgb(0,0,0)" stroke-width="2.0"/>
<line x1="325.8" y1="388.3" x2="294.0" y2="370.0" opacity="1.0" stroke="rgb(0,0,0)" stroke-width="2.0"/>
<line x1="294.0" y1="370.0" x2="294.0" y2="333.3" opacity="1.0" stroke="rgb(0,0,0)" stroke-width="2.0"/>
<line x1="301.2" y1="364.0" x2="301.2" y2="339.3" opacity="1.0" stroke="rgb(0,0,0)" stroke-width="2.0"/>
<line x1="294.0" y1="333.3" x2="325.8" y2="315.0" opacity="1.0" stroke="rgb(0,0,0)" stroke-width="2.0"/>
<line x1="325.8" y1="315.0" x2="357.5" y2="333.3" opacity="1.0" stroke="rgb(0,0,0)" stroke-width="2.0"/>
<line x1="327.4" y1="324.2" x2="348.7" y2="336.6" opacity="1.0" stroke="rgb(0,0,0)" stroke-width="2.0"/>
<text x="383.296913" y="396.333333" fill="rgb(255,12,12)" stroke-width="0" font-weight="bold" font-size="16">O</text>
<text x="385.296913" y="433.000000" fill="rgb(102,102,102)" stroke-width="0" font-weight="bold" font-size="16">CH</text>
<text x="409.296913" y="436.680000" fill="rgb(102,102,102)" stroke-width="0" font-weight="bold" font-size="13">3</text>
<text x="216.581731" y="440.422565" fill="rgb(178,178,0)" stroke-width="0" font-weight="bold" font-size="16">S</text>
<text x="319.788383" y="286.333333" fill="rgb(12,12,255)" stroke-width="0" font-weight="bold" font-size="16">N</text>
<text x="161.017059" y="194.666667" fill="rgb(12,12,255)" stroke-width="0" font-weight="bold" font-size="16">N</text>
</svg>
</g>
</svg>
