<svg xmlns="http://www.w3.org/2000/svg" xmlns:xlink="http://www.w3.org/1999/xlink" xmlns:cml="http://www.xml-cml.org/schema" version="1.1" id="topsvg" x="0" y="0" viewBox="0 0 100 100">
<title>J_4_M - Open Babel Depiction</title>
<rect x="0" y="0" width="100" height="100" fill="white"/>
<g transform="translate(0,0)">
<svg width="100" height="100" x="0" y="0" viewBox="0 0 495.013 503.922" font-family="sans-serif" stroke="rgb(0,0,0)" stroke-width="2" stroke-linecap="round">
<line x1="103.8" y1="261.2" x2="156.4" y2="230.8" opacity="1.0" stroke="rgb(0,0,0)" stroke-width="2.0"/>
<line x1="179.0" y1="230.8" x2="231.5" y2="261.2" opacity="1.0" stroke="rgb(0,0,0)" stroke-width="2.0"/>
<line x1="327.3" y1="329.5" x2="327.3" y2="390.2" opacity="1.0" stroke="rgb(0,0,0)" stroke-width="2.0"/>
<line x1="338.6" y1="310.0" x2="391.2" y2="279.6" opacity="1.0" stroke="rgb(0,0,0)" stroke-width="2.0"/>
<line x1="295.4" y1="298.0" x2="316.1" y2="310.0" opacity="1.0" stroke="rgb(0,0,0)" stroke-width="2.0"/>
<line x1="92.6" y1="120.2" x2="83.2" y2="125.7" opacity="1.0" stroke="rgb(0,0,0)" stroke-width="2.0"/>
<line x1="135.8" y1="132.2" x2="115.1" y2="120.2" opacity="1.0" stroke="rgb(0,0,0)" stroke-width="2.0"/>
<line x1="167.7" y1="211.3" x2="167.7" y2="187.5" opacity="1.0" stroke="rgb(0,0,0)" stroke-width="2.0"/>
<line x1="327.3" y1="58.4" x2="348.0" y2="46.5" opacity="1.0" stroke="rgb(0,0,0)" stroke-width="2.0"/>
<line x1="325.2" y1="54.8" x2="345.9" y2="42.9" opacity="1.0" stroke="rgb(0,0,0)" stroke-width="2.0"/>
<line x1="329.4" y1="62.1" x2="350.1" y2="50.1" opacity="1.0" stroke="rgb(0,0,0)" stroke-width="2.0"/>
<line x1="295.4" y1="76.9" x2="327.3" y2="58.4" opacity="1.0" stroke="rgb(0,0,0)" stroke-width="2.0"/>
<line x1="199.6" y1="132.2" x2="231.5" y2="113.7" opacity="1.0" stroke="rgb(0,0,0)" stroke-width="2.0"/>
<line x1="40.0" y1="261.2" x2="71.9" y2="242.7" opacity="1.0" stroke="rgb(0,0,0)" stroke-width="2.0"/>
<line x1="71.9" y1="242.7" x2="103.8" y2="261.2" opacity="1.0" stroke="rgb(0,0,0)" stroke-width="2.0"/>
<line x1="73.5" y1="252.0" x2="95.1" y2="264.4" opacity="1.0" stroke="rgb(0,0,0)" stroke-width="2.0"/>
<line x1="103.8" y1="261.2" x2="103.8" y2="298.0" opacity="1.0" stroke="rgb(0,0,0)" stroke-width="2.0"/>
<line x1="103.8" y1="298.0" x2="71.9" y2="316.5" opacity="1.0" stroke="rgb(0,0,0)" stroke-width="2.0"/>
<line x1="95.1" y1="294.8" x2="73.5" y2="307.2" opacity="1.0" stroke="rgb(0,0,0)" stroke-width="2.0"/>
<line x1="71.9" y1="316.5" x2="40.0" y2="298.0" opacity="1.0" stroke="rgb(0,0,0)" stroke-width="2.0"/>
<line x1="40.0" y1="298.0" x2="40.0" y2="261.2" opacity="1.0" stroke="rgb(0,0,0)" stroke-width="2.0"/>
<line x1="47.2" y1="292.0" x2="47.2" y2="267.2" opacity="1.0" stroke="rgb(0,0,0)" stroke-width="2.0"/>
<line x1="263.5" y1="242.7" x2="295.4" y2="261.2" opacity="1.0" stroke="rgb(0,0,0)" stroke-width="2.0"/>
<line x1="295.4" y1="261.2" x2="295.4" y2="298.0" opacity="1.0" stroke="rgb(0,0,0)" stroke-width="2.0"/>
<line x1="288.2" y1="267.2" x2="288.2" y2="292.0" opacity="1.0" stroke="rgb(0,0,0)" stroke-width="2.0"/>
<line x1="295.4" y1="298.0" x2="263.5" y2="316.5" opacity="1.0" stroke="rgb(0,0,0)" stroke-width="2.0"/>
<line x1="263.5" y1="316.5" x2="231.5" y2="298.0" opacity="1.0" stroke="rgb(0,0,0)" stroke-width="2.0"/>
<line x1="261.9" y1="307.2" x2="240.3" y2="294.8" opacity="1.0" stroke="rgb(0,0,0)" stroke-width="2.0"/>
<line x1="231.5" y1="298.0" x2="231.5" y2="261.2" opacity="1.0" stroke="rgb(0,0,0)" stroke-width="2.0"/>
<line x1="231.5" y1="261.2" x2="263.5" y2="242.7" opacity="1.0" stroke="rgb(0,0,0)" stroke-width="2.0"/>
<line x1="240.3" y1="264.4" x2="261.9" y2="252.0" opacity="1.0" stroke="rgb(0,0,0)" stroke-width="2.0"/>
<line x1="391.2" y1="242.7" x2="391.2" y2="279.6" opacity="1.0" stroke="rgb(0,0,0)" stroke-width="2.0"/>
<line x1="398.4" y1="248.7" x2="398.4" y2="273.6" opacity="1.0" stroke="rgb(0,0,0)" stroke-width="2.0"/>
<line x1="391.2" y1="279.6" x2="423.1" y2="298.0" opacity="1.0" stroke="rgb(0,0,0)" stroke-width="2.0"/>
<line x1="423.1" y1="298.0" x2="455.0" y2="279.6" opacity="1.0" stroke="rgb(0,0,0)" stroke-width="2.0"/>
<line x1="424.7" y1="288.8" x2="446.2" y2="276.4" opacity="1.0" stroke="rgb(0,0,0)" stroke-width="2.0"/>
<line x1="455.0" y1="279.6" x2="455.0" y2="242.7" opacity="1.0" stroke="rgb(0,0,0)" stroke-width="2.0"/>
<line x1="455.0" y1="242.7" x2="423.1" y2="224.3" opacity="1.0" stroke="rgb(0,0,0)" stroke-width="2.0"/>
<line x1="446.2" y1="246.0" x2="424.7" y2="233.5" opacity="1.0" stroke="rgb(0,0,0)" stroke-width="2.0"/>
<line x1="423.1" y1="224.3" x2="391.2" y2="242.7" opacity="1.0" stroke="rgb(0,0,0)" stroke-width="2.0"/>
<line x1="359.2" y1="408.6" x2="327.3" y2="390.2" opacity="1.0" stroke="rgb(0,0,0)" stroke-width="2.0"/>
<line x1="350.4" y1="411.9" x2="328.9" y2="399.4" opacity="1.0" stroke="rgb(0,0,0)" stroke-width="2.0"/>
<line x1="327.3" y1="390.2" x2="295.4" y2="408.6" opacity="1.0" stroke="rgb(0,0,0)" stroke-width="2.0"/>
<line x1="295.4" y1="408.6" x2="295.4" y2="445.5" opacity="1.0" stroke="rgb(0,0,0)" stroke-width="2.0"/>
<line x1="302.6" y1="414.6" x2="302.6" y2="439.5" opacity="1.0" stroke="rgb(0,0,0)" stroke-width="2.0"/>
<line x1="295.4" y1="445.5" x2="327.3" y2="463.9" opacity="1.0" stroke="rgb(0,0,0)" stroke-width="2.0"/>
<line x1="327.3" y1="463.9" x2="359.2" y2="445.5" opacity="1.0" stroke="rgb(0,0,0)" stroke-width="2.0"/>
<line x1="328.9" y1="454.7" x2="350.4" y2="442.3" opacity="1.0" stroke="rgb(0,0,0)" stroke-width="2.0"/>
<line x1="359.2" y1="445.5" x2="359.2" y2="408.6" opacity="1.0" stroke="rgb(0,0,0)" stroke-width="2.0"/>
<line x1="135.8" y1="169.0" x2="135.8" y2="132.2" opacity="1.0" stroke="rgb(0,0,0)" stroke-width="2.0"/>
<line x1="135.8" y1="132.2" x2="167.7" y2="113.7" opacity="1.0" stroke="rgb(0,0,0)" stroke-width="2.0"/>
<line x1="144.6" y1="135.4" x2="166.1" y2="123.0" opacity="1.0" stroke="rgb(0,0,0)" stroke-width="2.0"/>
<line x1="167.7" y1="113.7" x2="199.6" y2="132.2" opacity="1.0" stroke="rgb(0,0,0)" stroke-width="2.0"/>
<line x1="199.6" y1="132.2" x2="199.6" y2="169.0" opacity="1.0" stroke="rgb(0,0,0)" stroke-width="2.0"/>
<line x1="192.4" y1="138.2" x2="192.4" y2="163.0" opacity="1.0" stroke="rgb(0,0,0)" stroke-width="2.0"/>
<line x1="199.6" y1="169.0" x2="167.7" y2="187.5" opacity="1.0" stroke="rgb(0,0,0)" stroke-width="2.0"/>
<line x1="167.7" y1="187.5" x2="135.8" y2="169.0" opacity="1.0" stroke="rgb(0,0,0)" stroke-width="2.0"/>
<line x1="166.1" y1="178.2" x2="144.6" y2="165.8" opacity="1.0" stroke="rgb(0,0,0)" stroke-width="2.0"/>
<line x1="231.5" y1="76.9" x2="263.5" y2="58.4" opacity="1.0" stroke="rgb(0,0,0)" stroke-width="2.0"/>
<line x1="263.5" y1="58.4" x2="295.4" y2="76.9" opacity="1.0" stroke="rgb(0,0,0)" stroke-width="2.0"/>
<line x1="265.1" y1="67.7" x2="286.6" y2="80.1" opacity="1.0" stroke="rgb(0,0,0)" stroke-width="2.0"/>
<line x1="295.4" y1="76.9" x2="295.4" y2="113.7" opacity="1.0" stroke="rgb(0,0,0)" stroke-width="2.0"/>
<line x1="295.4" y1="113.7" x2="263.5" y2="132.2" opacity="1.0" stroke="rgb(0,0,0)" stroke-width="2.0"/>
<line x1="286.6" y1="110.5" x2="265.1" y2="122.9" opacity="1.0" stroke="rgb(0,0,0)" stroke-width="2.0"/>
<line x1="263.5" y1="132.2" x2="231.5" y2="113.7" opacity="1.0" stroke="rgb(0,0,0)" stroke-width="2.0"/>
<line x1="231.5" y1="113.7" x2="231.5" y2="76.9" opacity="1.0" stroke="rgb(0,0,0)" stroke-width="2.0"/>
<line x1="238.7" y1="107.7" x2="238.7" y2="82.9" opacity="1.0" stroke="rgb(0,0,0)" stroke-width="2.0"/>
<text x="97.848147" y="121.725490" fill="rgb(255,12,12)" stroke-width="0" font-weight="bold" font-size="16">O</text>
<text x="45.924074" y="140.156863" fill="rgb(102,102,102)" stroke-width="0" font-weight="bold" font-size="16">H</text>
<text x="57.924074" y="143.836863" fill="rgb(102,102,102)" stroke-width="0" font-weight="bold" font-size="13">3</text>
<text x="64.424074" y="140.156863" fill="rgb(102,102,102)" stroke-width="0" font-weight="bold" font-size="16">C</text>
<text x="353.240737" y="48.000000" fill="rgb(12,12,255)" stroke-width="0" font-weight="bold" font-size="16">N</text>
<text x="161.696295" y="232.313725" fill="rgb(12,12,255)" stroke-width="0" font-weight="bold" font-size="16">N</text>
<text x="321.316663" y="324.470588" fill="rgb(12,12,255)" stroke-width="0" font-weight="bold" font-size="16">N</text>
</svg>
</g>
</svg>