<svg xmlns="http://www.w3.org/2000/svg" x="0" y="0" viewBox="0 0 100 100">
<title>J_4_Q - Open Babel Depiction</title>
<rect x="0" y="0" width="100" height="100" fill="white"/>
<g transform="translate(0,0)">
<svg width="100" height="100" x="0" y="0" viewBox="0 0 493.571 484.082" font-family="sans-serif" stroke="rgb(0,0,0)" stroke-width="2" stroke-linecap="round">
<line x1="103.6" y1="242.0" x2="156.0" y2="211.8" opacity="1.0" stroke="rgb(0,0,0)" stroke-width="2.0"/>
<line x1="178.5" y1="211.8" x2="230.9" y2="242.0" opacity="1.0" stroke="rgb(0,0,0)" stroke-width="2.0"/>
<line x1="326.3" y1="310.1" x2="326.3" y2="370.6" opacity="1.0" stroke="rgb(0,0,0)" stroke-width="2.0"/>
<line x1="337.6" y1="290.6" x2="389.9" y2="260.4" opacity="1.0" stroke="rgb(0,0,0)" stroke-width="2.0"/>
<line x1="294.5" y1="278.8" x2="315.1" y2="290.6" opacity="1.0" stroke="rgb(0,0,0)" stroke-width="2.0"/>
<line x1="103.6" y1="82.1" x2="103.6" y2="71.4" opacity="1.0" stroke="rgb(0,0,0)" stroke-width="2.0"/>
<line x1="135.4" y1="113.5" x2="114.9" y2="101.6" opacity="1.0" stroke="rgb(0,0,0)" stroke-width="2.0"/>
<line x1="167.3" y1="192.3" x2="167.3" y2="168.6" opacity="1.0" stroke="rgb(0,0,0)" stroke-width="2.0"/>
<line x1="199.1" y1="113.5" x2="230.9" y2="95.1" opacity="1.0" stroke="rgb(0,0,0)" stroke-width="2.0"/>
<line x1="40.0" y1="242.0" x2="71.8" y2="223.7" opacity="1.0" stroke="rgb(0,0,0)" stroke-width="2.0"/>
<line x1="71.8" y1="223.7" x2="103.6" y2="242.0" opacity="1.0" stroke="rgb(0,0,0)" stroke-width="2.0"/>
<line x1="73.4" y1="232.9" x2="94.8" y2="245.3" opacity="1.0" stroke="rgb(0,0,0)" stroke-width="2.0"/>
<line x1="103.6" y1="242.0" x2="103.6" y2="278.8" opacity="1.0" stroke="rgb(0,0,0)" stroke-width="2.0"/>
<line x1="103.6" y1="278.8" x2="71.8" y2="297.1" opacity="1.0" stroke="rgb(0,0,0)" stroke-width="2.0"/>
<line x1="94.8" y1="275.5" x2="73.4" y2="287.9" opacity="1.0" stroke="rgb(0,0,0)" stroke-width="2.0"/>
<line x1="71.8" y1="297.1" x2="40.0" y2="278.8" opacity="1.0" stroke="rgb(0,0,0)" stroke-width="2.0"/>
<line x1="40.0" y1="278.8" x2="40.0" y2="242.0" opacity="1.0" stroke="rgb(0,0,0)" stroke-width="2.0"/>
<line x1="47.2" y1="272.8" x2="47.2" y2="248.0" opacity="1.0" stroke="rgb(0,0,0)" stroke-width="2.0"/>
<line x1="262.7" y1="223.7" x2="294.5" y2="242.0" opacity="1.0" stroke="rgb(0,0,0)" stroke-width="2.0"/>
<line x1="294.5" y1="242.0" x2="294.5" y2="278.8" opacity="1.0" stroke="rgb(0,0,0)" stroke-width="2.0"/>
<line x1="287.3" y1="248.0" x2="287.3" y2="272.8" opacity="1.0" stroke="rgb(0,0,0)" stroke-width="2.0"/>
<line x1="294.5" y1="278.8" x2="262.7" y2="297.1" opacity="1.0" stroke="rgb(0,0,0)" stroke-width="2.0"/>
<line x1="262.7" y1="297.1" x2="230.9" y2="278.8" opacity="1.0" stroke="rgb(0,0,0)" stroke-width="2.0"/>
<line x1="261.1" y1="287.9" x2="239.7" y2="275.5" opacity="1.0" stroke="rgb(0,0,0)" stroke-width="2.0"/>
<line x1="230.9" y1="278.8" x2="230.9" y2="242.0" opacity="1.0" stroke="rgb(0,0,0)" stroke-width="2.0"/>
<line x1="230.9" y1="242.0" x2="262.7" y2="223.7" opacity="1.0" stroke="rgb(0,0,0)" stroke-width="2.0"/>
<line x1="239.7" y1="245.3" x2="261.1" y2="232.9" opacity="1.0" stroke="rgb(0,0,0)" stroke-width="2.0"/>
<line x1="389.9" y1="223.7" x2="389.9" y2="260.4" opacity="1.0" stroke="rgb(0,0,0)" stroke-width="2.0"/>
<line x1="397.1" y1="229.7" x2="397.1" y2="254.4" opacity="1.0" stroke="rgb(0,0,0)" stroke-width="2.0"/>
<line x1="389.9" y1="260.4" x2="421.8" y2="278.8" opacity="1.0" stroke="rgb(0,0,0)" stroke-width="2.0"/>
<line x1="421.8" y1="278.8" x2="453.6" y2="260.4" opacity="1.0" stroke="rgb(0,0,0)" stroke-width="2.0"/>
<line x1="423.4" y1="269.5" x2="444.8" y2="257.2" opacity="1.0" stroke="rgb(0,0,0)" stroke-width="2.0"/>
<line x1="453.6" y1="260.4" x2="453.6" y2="223.7" opacity="1.0" stroke="rgb(0,0,0)" stroke-width="2.0"/>
<line x1="453.6" y1="223.7" x2="421.8" y2="205.3" opacity="1.0" stroke="rgb(0,0,0)" stroke-width="2.0"/>
<line x1="444.8" y1="226.9" x2="423.4" y2="214.5" opacity="1.0" stroke="rgb(0,0,0)" stroke-width="2.0"/>
<line x1="421.8" y1="205.3" x2="389.9" y2="223.7" opacity="1.0" stroke="rgb(0,0,0)" stroke-width="2.0"/>
<line x1="358.1" y1="389.0" x2="326.3" y2="370.6" opacity="1.0" stroke="rgb(0,0,0)" stroke-width="2.0"/>
<line x1="349.3" y1="392.2" x2="327.9" y2="379.8" opacity="1.0" stroke="rgb(0,0,0)" stroke-width="2.0"/>
<line x1="326.3" y1="370.6" x2="294.5" y2="389.0" opacity="1.0" stroke="rgb(0,0,0)" stroke-width="2.0"/>
<line x1="294.5" y1="389.0" x2="294.5" y2="425.7" opacity="1.0" stroke="rgb(0,0,0)" stroke-width="2.0"/>
<line x1="301.7" y1="395.0" x2="301.7" y2="419.7" opacity="1.0" stroke="rgb(0,0,0)" stroke-width="2.0"/>
<line x1="294.5" y1="425.7" x2="326.3" y2="444.1" opacity="1.0" stroke="rgb(0,0,0)" stroke-width="2.0"/>
<line x1="326.3" y1="444.1" x2="358.1" y2="425.7" opacity="1.0" stroke="rgb(0,0,0)" stroke-width="2.0"/>
<line x1="327.9" y1="434.8" x2="349.3" y2="422.5" opacity="1.0" stroke="rgb(0,0,0)" stroke-width="2.0"/>
<line x1="358.1" y1="425.7" x2="358.1" y2="389.0" opacity="1.0" stroke="rgb(0,0,0)" stroke-width="2.0"/>
<line x1="135.4" y1="150.2" x2="135.4" y2="113.5" opacity="1.0" stroke="rgb(0,0,0)" stroke-width="2.0"/>
<line x1="135.4" y1="113.5" x2="167.3" y2="95.1" opacity="1.0" stroke="rgb(0,0,0)" stroke-width="2.0"/>
<line x1="144.2" y1="116.7" x2="165.7" y2="104.3" opacity="1.0" stroke="rgb(0,0,0)" stroke-width="2.0"/>
<line x1="167.3" y1="95.1" x2="199.1" y2="113.5" opacity="1.0" stroke="rgb(0,0,0)" stroke-width="2.0"/>
<line x1="199.1" y1="113.5" x2="199.1" y2="150.2" opacity="1.0" stroke="rgb(0,0,0)" stroke-width="2.0"/>
<line x1="191.9" y1="119.5" x2="191.9" y2="144.2" opacity="1.0" stroke="rgb(0,0,0)" stroke-width="2.0"/>
<line x1="199.1" y1="150.2" x2="167.3" y2="168.6" opacity="1.0" stroke="rgb(0,0,0)" stroke-width="2.0"/>
<line x1="167.3" y1="168.6" x2="135.4" y2="150.2" opacity="1.0" stroke="rgb(0,0,0)" stroke-width="2.0"/>
<line x1="165.7" y1="159.3" x2="144.2" y2="147.0" opacity="1.0" stroke="rgb(0,0,0)" stroke-width="2.0"/>
<line x1="242.1" y1="51.9" x2="262.7" y2="40.0" opacity="1.0" stroke="rgb(0,0,0)" stroke-width="2.0"/>
<line x1="262.7" y1="40.0" x2="294.5" y2="58.4" opacity="1.0" stroke="rgb(0,0,0)" stroke-width="2.0"/>
<line x1="264.3" y1="49.2" x2="285.7" y2="61.6" opacity="1.0" stroke="rgb(0,0,0)" stroke-width="2.0"/>
<line x1="294.5" y1="58.4" x2="294.5" y2="82.1" opacity="1.0" stroke="rgb(0,0,0)" stroke-width="2.0"/>
<line x1="284.0" y1="101.2" x2="262.7" y2="113.5" opacity="1.0" stroke="rgb(0,0,0)" stroke-width="2.0"/>
<line x1="278.4" y1="96.1" x2="264.3" y2="104.2" opacity="1.0" stroke="rgb(0,0,0)" stroke-width="2.0"/>
<line x1="262.7" y1="113.5" x2="230.9" y2="95.1" opacity="1.0" stroke="rgb(0,0,0)" stroke-width="2.0"/>
<line x1="230.9" y1="95.1" x2="230.9" y2="70.5" opacity="1.0" stroke="rgb(0,0,0)" stroke-width="2.0"/>
<line x1="238.1" y1="89.1" x2="238.1" y2="72.8" opacity="1.0" stroke="rgb(0,0,0)" stroke-width="2.0"/>
<text x="97.626356" y="103.102041" fill="rgb(255,12,12)" stroke-width="0" font-weight="bold" font-size="16">O</text>
<text x="99.626356" y="66.367347" fill="rgb(102,102,102)" stroke-width="0" font-weight="bold" font-size="16">CH</text>
<text x="123.626356" y="70.047347" fill="rgb(102,102,102)" stroke-width="0" font-weight="bold" font-size="13">3</text>
<text x="224.879069" y="66.367347" fill="rgb(12,12,255)" stroke-width="0" font-weight="bold" font-size="16">N</text>
<text x="288.505425" y="103.102041" fill="rgb(12,12,255)" stroke-width="0" font-weight="bold" font-size="16">N</text>
<text x="161.252712" y="213.306122" fill="rgb(12,12,255)" stroke-width="0" font-weight="bold" font-size="16">N</text>
<text x="320.318603" y="305.142857" fill="rgb(12,12,255)" stroke-width="0" font-weight="bold" font-size="16">N</text>
</svg>
</g>
</svg>
