<svg xmlns="http://www.w3.org/2000/svg" x="0" y="0" viewBox="0 0 100 100">
<title>J_5_T - Open Babel Depiction</title>
<rect x="0" y="0" width="100" height="100" fill="white"/>
<g transform="translate(0,0)">
<svg width="100" height="100" x="0" y="0" viewBox="0 0 496.346 505.283" font-family="sans-serif" stroke="rgb(0,0,0)" stroke-width="2" stroke-linecap="round">
<line x1="168.1" y1="391.3" x2="168.1" y2="330.4" opacity="1.0" stroke="rgb(0,0,0)" stroke-width="2.0"/>
<line x1="179.4" y1="310.9" x2="232.2" y2="280.4" opacity="1.0" stroke="rgb(0,0,0)" stroke-width="2.0"/>
<line x1="339.5" y1="231.4" x2="392.3" y2="261.9" opacity="1.0" stroke="rgb(0,0,0)" stroke-width="2.0"/>
<line x1="328.2" y1="211.9" x2="328.2" y2="150.9" opacity="1.0" stroke="rgb(0,0,0)" stroke-width="2.0"/>
<line x1="296.2" y1="243.4" x2="317.0" y2="231.4" opacity="1.0" stroke="rgb(0,0,0)" stroke-width="2.0"/>
<line x1="156.8" y1="310.9" x2="136.1" y2="298.9" opacity="1.0" stroke="rgb(0,0,0)" stroke-width="2.0"/>
<line x1="72.0" y1="77.0" x2="72.0" y2="53.0" opacity="1.0" stroke="rgb(0,0,0)" stroke-width="2.0"/>
<line x1="72.0" y1="187.9" x2="72.0" y2="150.9" opacity="1.0" stroke="rgb(0,0,0)" stroke-width="2.0"/>
<line x1="136.1" y1="446.8" x2="136.1" y2="409.8" opacity="1.0" stroke="rgb(0,0,0)" stroke-width="2.0"/>
<line x1="136.1" y1="409.8" x2="168.1" y2="391.3" opacity="1.0" stroke="rgb(0,0,0)" stroke-width="2.0"/>
<line x1="144.9" y1="413.0" x2="166.5" y2="400.6" opacity="1.0" stroke="rgb(0,0,0)" stroke-width="2.0"/>
<line x1="168.1" y1="391.3" x2="200.1" y2="409.8" opacity="1.0" stroke="rgb(0,0,0)" stroke-width="2.0"/>
<line x1="200.1" y1="409.8" x2="200.1" y2="446.8" opacity="1.0" stroke="rgb(0,0,0)" stroke-width="2.0"/>
<line x1="192.9" y1="415.8" x2="192.9" y2="440.8" opacity="1.0" stroke="rgb(0,0,0)" stroke-width="2.0"/>
<line x1="200.1" y1="446.8" x2="168.1" y2="465.3" opacity="1.0" stroke="rgb(0,0,0)" stroke-width="2.0"/>
<line x1="168.1" y1="465.3" x2="136.1" y2="446.8" opacity="1.0" stroke="rgb(0,0,0)" stroke-width="2.0"/>
<line x1="166.5" y1="456.0" x2="144.9" y2="443.6" opacity="1.0" stroke="rgb(0,0,0)" stroke-width="2.0"/>
<line x1="232.2" y1="243.4" x2="264.2" y2="224.9" opacity="1.0" stroke="rgb(0,0,0)" stroke-width="2.0"/>
<line x1="264.2" y1="224.9" x2="296.2" y2="243.4" opacity="1.0" stroke="rgb(0,0,0)" stroke-width="2.0"/>
<line x1="265.8" y1="234.1" x2="287.4" y2="246.6" opacity="1.0" stroke="rgb(0,0,0)" stroke-width="2.0"/>
<line x1="296.2" y1="243.4" x2="296.2" y2="280.4" opacity="1.0" stroke="rgb(0,0,0)" stroke-width="2.0"/>
<line x1="296.2" y1="280.4" x2="264.2" y2="298.9" opacity="1.0" stroke="rgb(0,0,0)" stroke-width="2.0"/>
<line x1="287.4" y1="277.1" x2="265.8" y2="289.6" opacity="1.0" stroke="rgb(0,0,0)" stroke-width="2.0"/>
<line x1="264.2" y1="298.9" x2="232.2" y2="280.4" opacity="1.0" stroke="rgb(0,0,0)" stroke-width="2.0"/>
<line x1="232.2" y1="280.4" x2="232.2" y2="243.4" opacity="1.0" stroke="rgb(0,0,0)" stroke-width="2.0"/>
<line x1="239.4" y1="274.4" x2="239.4" y2="249.4" opacity="1.0" stroke="rgb(0,0,0)" stroke-width="2.0"/>
<line x1="296.2" y1="132.5" x2="328.2" y2="150.9" opacity="1.0" stroke="rgb(0,0,0)" stroke-width="2.0"/>
<line x1="305.0" y1="129.2" x2="326.6" y2="141.7" opacity="1.0" stroke="rgb(0,0,0)" stroke-width="2.0"/>
<line x1="328.2" y1="150.9" x2="360.3" y2="132.5" opacity="1.0" stroke="rgb(0,0,0)" stroke-width="2.0"/>
<line x1="360.3" y1="132.5" x2="360.3" y2="95.5" opacity="1.0" stroke="rgb(0,0,0)" stroke-width="2.0"/>
<line x1="353.1" y1="126.5" x2="353.1" y2="101.5" opacity="1.0" stroke="rgb(0,0,0)" stroke-width="2.0"/>
<line x1="360.3" y1="95.5" x2="328.2" y2="77.0" opacity="1.0" stroke="rgb(0,0,0)" stroke-width="2.0"/>
<line x1="328.2" y1="77.0" x2="296.2" y2="95.5" opacity="1.0" stroke="rgb(0,0,0)" stroke-width="2.0"/>
<line x1="326.6" y1="86.2" x2="305.0" y2="98.7" opacity="1.0" stroke="rgb(0,0,0)" stroke-width="2.0"/>
<line x1="296.2" y1="95.5" x2="296.2" y2="132.5" opacity="1.0" stroke="rgb(0,0,0)" stroke-width="2.0"/>
<line x1="424.3" y1="243.4" x2="392.3" y2="261.9" opacity="1.0" stroke="rgb(0,0,0)" stroke-width="2.0"/>
<line x1="422.7" y1="252.6" x2="401.1" y2="265.1" opacity="1.0" stroke="rgb(0,0,0)" stroke-width="2.0"/>
<line x1="392.3" y1="261.9" x2="392.3" y2="298.9" opacity="1.0" stroke="rgb(0,0,0)" stroke-width="2.0"/>
<line x1="392.3" y1="298.9" x2="424.3" y2="317.4" opacity="1.0" stroke="rgb(0,0,0)" stroke-width="2.0"/>
<line x1="401.1" y1="295.6" x2="422.7" y2="308.1" opacity="1.0" stroke="rgb(0,0,0)" stroke-width="2.0"/>
<line x1="424.3" y1="317.4" x2="456.3" y2="298.9" opacity="1.0" stroke="rgb(0,0,0)" stroke-width="2.0"/>
<line x1="456.3" y1="298.9" x2="456.3" y2="261.9" opacity="1.0" stroke="rgb(0,0,0)" stroke-width="2.0"/>
<line x1="449.1" y1="292.9" x2="449.1" y2="267.9" opacity="1.0" stroke="rgb(0,0,0)" stroke-width="2.0"/>
<line x1="456.3" y1="261.9" x2="424.3" y2="243.4" opacity="1.0" stroke="rgb(0,0,0)" stroke-width="2.0"/>
<line x1="104.1" y1="317.4" x2="72.0" y2="298.9" opacity="1.0" stroke="rgb(0,0,0)" stroke-width="2.0"/>
<line x1="72.0" y1="298.9" x2="72.0" y2="261.9" opacity="1.0" stroke="rgb(0,0,0)" stroke-width="2.0"/>
<line x1="79.2" y1="292.9" x2="79.2" y2="267.9" opacity="1.0" stroke="rgb(0,0,0)" stroke-width="2.0"/>
<line x1="72.0" y1="261.9" x2="104.1" y2="243.4" opacity="1.0" stroke="rgb(0,0,0)" stroke-width="2.0"/>
<line x1="104.1" y1="243.4" x2="136.1" y2="261.9" opacity="1.0" stroke="rgb(0,0,0)" stroke-width="2.0"/>
<line x1="105.6" y1="252.6" x2="127.3" y2="265.1" opacity="1.0" stroke="rgb(0,0,0)" stroke-width="2.0"/>
<line x1="136.1" y1="261.9" x2="136.1" y2="298.9" opacity="1.0" stroke="rgb(0,0,0)" stroke-width="2.0"/>
<line x1="136.1" y1="298.9" x2="104.1" y2="317.4" opacity="1.0" stroke="rgb(0,0,0)" stroke-width="2.0"/>
<line x1="127.3" y1="295.6" x2="105.6" y2="308.1" opacity="1.0" stroke="rgb(0,0,0)" stroke-width="2.0"/>
<line x1="72.0" y1="187.9" x2="104.1" y2="206.4" opacity="1.0" stroke="rgb(0,0,0)" stroke-width="2.0"/>
<line x1="73.6" y1="197.2" x2="95.3" y2="209.7" opacity="1.0" stroke="rgb(0,0,0)" stroke-width="2.0"/>
<line x1="104.1" y1="206.4" x2="104.1" y2="243.4" opacity="1.0" stroke="rgb(0,0,0)" stroke-width="2.0"/>
<line x1="72.0" y1="261.9" x2="40.0" y2="243.4" opacity="1.0" stroke="rgb(0,0,0)" stroke-width="2.0"/>
<line x1="40.0" y1="243.4" x2="40.0" y2="206.4" opacity="1.0" stroke="rgb(0,0,0)" stroke-width="2.0"/>
<line x1="47.2" y1="237.4" x2="47.2" y2="212.4" opacity="1.0" stroke="rgb(0,0,0)" stroke-width="2.0"/>
<line x1="40.0" y1="206.4" x2="72.0" y2="187.9" opacity="1.0" stroke="rgb(0,0,0)" stroke-width="2.0"/>
<line x1="40.0" y1="132.5" x2="40.0" y2="95.5" opacity="1.0" stroke="rgb(0,0,0)" stroke-width="2.0"/>
<line x1="40.0" y1="95.5" x2="72.0" y2="77.0" opacity="1.0" stroke="rgb(0,0,0)" stroke-width="2.0"/>
<line x1="48.8" y1="98.7" x2="70.4" y2="86.2" opacity="1.0" stroke="rgb(0,0,0)" stroke-width="2.0"/>
<line x1="72.0" y1="77.0" x2="104.1" y2="95.5" opacity="1.0" stroke="rgb(0,0,0)" stroke-width="2.0"/>
<line x1="104.1" y1="95.5" x2="104.1" y2="132.5" opacity="1.0" stroke="rgb(0,0,0)" stroke-width="2.0"/>
<line x1="96.9" y1="101.5" x2="96.9" y2="126.5" opacity="1.0" stroke="rgb(0,0,0)" stroke-width="2.0"/>
<line x1="104.1" y1="132.5" x2="72.0" y2="150.9" opacity="1.0" stroke="rgb(0,0,0)" stroke-width="2.0"/>
<line x1="72.0" y1="150.9" x2="40.0" y2="132.5" opacity="1.0" stroke="rgb(0,0,0)" stroke-width="2.0"/>
<line x1="70.4" y1="141.7" x2="48.8" y2="129.2" opacity="1.0" stroke="rgb(0,0,0)" stroke-width="2.0"/>
<text x="68.026600" y="48.000000" fill="rgb(102,102,102)" stroke-width="0" font-weight="bold" font-size="16">CH</text>
<text x="92.026600" y="51.680000" fill="rgb(102,102,102)" stroke-width="0" font-weight="bold" font-size="13">3</text>
<text x="162.106399" y="325.358491" fill="rgb(12,12,255)" stroke-width="0" font-weight="bold" font-size="16">N</text>
<text x="322.239399" y="232.905660" fill="rgb(12,12,255)" stroke-width="0" font-weight="bold" font-size="16">N</text>
</svg>
</g>
</svg>
