<svg xmlns="http://www.w3.org/2000/svg" xmlns:xlink="http://www.w3.org/1999/xlink" xmlns:cml="http://www.xml-cml.org/schema" version="1.1" id="topsvg" x="0" y="0" viewBox="0 0 100 100">
<title>J_5_R - Open Babel Depiction</title>
<rect x="0" y="0" width="100" height="100" fill="white"/>
<g transform="translate(0,0)">
<svg width="100" height="100" x="0" y="0" viewBox="0 0 497.582 580.727" font-family="sans-serif" stroke="rgb(0,0,0)" stroke-width="2" stroke-linecap="round">
<line x1="393.3" y1="244.0" x2="340.4" y2="274.6" opacity="1.0" stroke="rgb(0,0,0)" stroke-width="2.0"/>
<line x1="317.8" y1="274.6" x2="264.9" y2="244.0" opacity="1.0" stroke="rgb(0,0,0)" stroke-width="2.0"/>
<line x1="168.5" y1="175.4" x2="168.5" y2="114.2" opacity="1.0" stroke="rgb(0,0,0)" stroke-width="2.0"/>
<line x1="157.2" y1="194.9" x2="104.2" y2="225.5" opacity="1.0" stroke="rgb(0,0,0)" stroke-width="2.0"/>
<line x1="200.6" y1="206.9" x2="179.7" y2="194.9" opacity="1.0" stroke="rgb(0,0,0)" stroke-width="2.0"/>
<line x1="329.1" y1="294.1" x2="329.1" y2="318.2" opacity="1.0" stroke="rgb(0,0,0)" stroke-width="2.0"/>
<line x1="123.6" y1="499.7" x2="114.0" y2="494.2" opacity="1.0" stroke="rgb(0,0,0)" stroke-width="2.0"/>
<line x1="126.6" y1="494.5" x2="117.0" y2="489.0" opacity="1.0" stroke="rgb(0,0,0)" stroke-width="2.0"/>
<line x1="136.4" y1="516.6" x2="136.4" y2="527.7" opacity="1.0" stroke="rgb(0,0,0)" stroke-width="2.0"/>
<line x1="168.5" y1="485.1" x2="147.6" y2="497.1" opacity="1.0" stroke="rgb(0,0,0)" stroke-width="2.0"/>
<line x1="264.9" y1="429.5" x2="232.7" y2="448.0" opacity="1.0" stroke="rgb(0,0,0)" stroke-width="2.0"/>
<line x1="457.6" y1="244.0" x2="425.5" y2="262.5" opacity="1.0" stroke="rgb(0,0,0)" stroke-width="2.0"/>
<line x1="425.5" y1="262.5" x2="393.3" y2="244.0" opacity="1.0" stroke="rgb(0,0,0)" stroke-width="2.0"/>
<line x1="423.9" y1="253.3" x2="402.1" y2="240.8" opacity="1.0" stroke="rgb(0,0,0)" stroke-width="2.0"/>
<line x1="393.3" y1="244.0" x2="393.3" y2="206.9" opacity="1.0" stroke="rgb(0,0,0)" stroke-width="2.0"/>
<line x1="393.3" y1="206.9" x2="425.5" y2="188.4" opacity="1.0" stroke="rgb(0,0,0)" stroke-width="2.0"/>
<line x1="402.1" y1="210.1" x2="423.9" y2="197.6" opacity="1.0" stroke="rgb(0,0,0)" stroke-width="2.0"/>
<line x1="425.5" y1="188.4" x2="457.6" y2="206.9" opacity="1.0" stroke="rgb(0,0,0)" stroke-width="2.0"/>
<line x1="457.6" y1="206.9" x2="457.6" y2="244.0" opacity="1.0" stroke="rgb(0,0,0)" stroke-width="2.0"/>
<line x1="450.4" y1="212.9" x2="450.4" y2="238.0" opacity="1.0" stroke="rgb(0,0,0)" stroke-width="2.0"/>
<line x1="232.7" y1="262.5" x2="200.6" y2="244.0" opacity="1.0" stroke="rgb(0,0,0)" stroke-width="2.0"/>
<line x1="200.6" y1="244.0" x2="200.6" y2="206.9" opacity="1.0" stroke="rgb(0,0,0)" stroke-width="2.0"/>
<line x1="207.8" y1="238.0" x2="207.8" y2="212.9" opacity="1.0" stroke="rgb(0,0,0)" stroke-width="2.0"/>
<line x1="200.6" y1="206.9" x2="232.7" y2="188.4" opacity="1.0" stroke="rgb(0,0,0)" stroke-width="2.0"/>
<line x1="232.7" y1="188.4" x2="264.9" y2="206.9" opacity="1.0" stroke="rgb(0,0,0)" stroke-width="2.0"/>
<line x1="234.3" y1="197.6" x2="256.1" y2="210.1" opacity="1.0" stroke="rgb(0,0,0)" stroke-width="2.0"/>
<line x1="264.9" y1="206.9" x2="264.9" y2="244.0" opacity="1.0" stroke="rgb(0,0,0)" stroke-width="2.0"/>
<line x1="264.9" y1="244.0" x2="232.7" y2="262.5" opacity="1.0" stroke="rgb(0,0,0)" stroke-width="2.0"/>
<line x1="256.1" y1="240.8" x2="234.3" y2="253.3" opacity="1.0" stroke="rgb(0,0,0)" stroke-width="2.0"/>
<line x1="104.2" y1="262.5" x2="104.2" y2="225.5" opacity="1.0" stroke="rgb(0,0,0)" stroke-width="2.0"/>
<line x1="97.0" y1="256.5" x2="97.0" y2="231.5" opacity="1.0" stroke="rgb(0,0,0)" stroke-width="2.0"/>
<line x1="104.2" y1="225.5" x2="72.1" y2="206.9" opacity="1.0" stroke="rgb(0,0,0)" stroke-width="2.0"/>
<line x1="72.1" y1="206.9" x2="40.0" y2="225.5" opacity="1.0" stroke="rgb(0,0,0)" stroke-width="2.0"/>
<line x1="70.5" y1="216.1" x2="48.8" y2="228.7" opacity="1.0" stroke="rgb(0,0,0)" stroke-width="2.0"/>
<line x1="40.0" y1="225.5" x2="40.0" y2="262.5" opacity="1.0" stroke="rgb(0,0,0)" stroke-width="2.0"/>
<line x1="40.0" y1="262.5" x2="72.1" y2="281.1" opacity="1.0" stroke="rgb(0,0,0)" stroke-width="2.0"/>
<line x1="48.8" y1="259.3" x2="70.5" y2="271.9" opacity="1.0" stroke="rgb(0,0,0)" stroke-width="2.0"/>
<line x1="72.1" y1="281.1" x2="104.2" y2="262.5" opacity="1.0" stroke="rgb(0,0,0)" stroke-width="2.0"/>
<line x1="136.4" y1="95.6" x2="168.5" y2="114.2" opacity="1.0" stroke="rgb(0,0,0)" stroke-width="2.0"/>
<line x1="145.2" y1="92.4" x2="166.9" y2="104.9" opacity="1.0" stroke="rgb(0,0,0)" stroke-width="2.0"/>
<line x1="168.5" y1="114.2" x2="200.6" y2="95.6" opacity="1.0" stroke="rgb(0,0,0)" stroke-width="2.0"/>
<line x1="200.6" y1="95.6" x2="200.6" y2="58.5" opacity="1.0" stroke="rgb(0,0,0)" stroke-width="2.0"/>
<line x1="193.4" y1="89.6" x2="193.4" y2="64.5" opacity="1.0" stroke="rgb(0,0,0)" stroke-width="2.0"/>
<line x1="200.6" y1="58.5" x2="168.5" y2="40.0" opacity="1.0" stroke="rgb(0,0,0)" stroke-width="2.0"/>
<line x1="168.5" y1="40.0" x2="136.4" y2="58.5" opacity="1.0" stroke="rgb(0,0,0)" stroke-width="2.0"/>
<line x1="166.9" y1="49.2" x2="145.2" y2="61.8" opacity="1.0" stroke="rgb(0,0,0)" stroke-width="2.0"/>
<line x1="136.4" y1="58.5" x2="136.4" y2="95.6" opacity="1.0" stroke="rgb(0,0,0)" stroke-width="2.0"/>
<line x1="361.2" y1="336.7" x2="361.2" y2="373.8" opacity="1.0" stroke="rgb(0,0,0)" stroke-width="2.0"/>
<line x1="361.2" y1="373.8" x2="329.1" y2="392.4" opacity="1.0" stroke="rgb(0,0,0)" stroke-width="2.0"/>
<line x1="352.4" y1="370.6" x2="330.7" y2="383.1" opacity="1.0" stroke="rgb(0,0,0)" stroke-width="2.0"/>
<line x1="329.1" y1="392.4" x2="297.0" y2="373.8" opacity="1.0" stroke="rgb(0,0,0)" stroke-width="2.0"/>
<line x1="297.0" y1="373.8" x2="297.0" y2="336.7" opacity="1.0" stroke="rgb(0,0,0)" stroke-width="2.0"/>
<line x1="304.2" y1="367.8" x2="304.2" y2="342.7" opacity="1.0" stroke="rgb(0,0,0)" stroke-width="2.0"/>
<line x1="297.0" y1="336.7" x2="329.1" y2="318.2" opacity="1.0" stroke="rgb(0,0,0)" stroke-width="2.0"/>
<line x1="329.1" y1="318.2" x2="361.2" y2="336.7" opacity="1.0" stroke="rgb(0,0,0)" stroke-width="2.0"/>
<line x1="330.7" y1="327.4" x2="352.4" y2="340.0" opacity="1.0" stroke="rgb(0,0,0)" stroke-width="2.0"/>
<line x1="264.9" y1="429.5" x2="264.9" y2="392.4" opacity="1.0" stroke="rgb(0,0,0)" stroke-width="2.0"/>
<line x1="272.1" y1="423.5" x2="272.1" y2="398.4" opacity="1.0" stroke="rgb(0,0,0)" stroke-width="2.0"/>
<line x1="264.9" y1="392.4" x2="297.0" y2="373.8" opacity="1.0" stroke="rgb(0,0,0)" stroke-width="2.0"/>
<line x1="329.1" y1="392.4" x2="329.1" y2="429.5" opacity="1.0" stroke="rgb(0,0,0)" stroke-width="2.0"/>
<line x1="329.1" y1="429.5" x2="297.0" y2="448.0" opacity="1.0" stroke="rgb(0,0,0)" stroke-width="2.0"/>
<line x1="320.3" y1="426.2" x2="298.6" y2="438.8" opacity="1.0" stroke="rgb(0,0,0)" stroke-width="2.0"/>
<line x1="297.0" y1="448.0" x2="264.9" y2="429.5" opacity="1.0" stroke="rgb(0,0,0)" stroke-width="2.0"/>
<line x1="221.5" y1="491.6" x2="200.6" y2="503.6" opacity="1.0" stroke="rgb(0,0,0)" stroke-width="2.0"/>
<line x1="200.6" y1="503.6" x2="168.5" y2="485.1" opacity="1.0" stroke="rgb(0,0,0)" stroke-width="2.0"/>
<line x1="199.0" y1="494.4" x2="177.3" y2="481.9" opacity="1.0" stroke="rgb(0,0,0)" stroke-width="2.0"/>
<line x1="168.5" y1="485.1" x2="168.5" y2="448.0" opacity="1.0" stroke="rgb(0,0,0)" stroke-width="2.0"/>
<line x1="168.5" y1="448.0" x2="200.6" y2="429.5" opacity="1.0" stroke="rgb(0,0,0)" stroke-width="2.0"/>
<line x1="177.3" y1="451.2" x2="199.0" y2="438.7" opacity="1.0" stroke="rgb(0,0,0)" stroke-width="2.0"/>
<line x1="200.6" y1="429.5" x2="232.7" y2="448.0" opacity="1.0" stroke="rgb(0,0,0)" stroke-width="2.0"/>
<line x1="232.7" y1="448.0" x2="232.7" y2="472.9" opacity="1.0" stroke="rgb(0,0,0)" stroke-width="2.0"/>
<line x1="225.5" y1="454.0" x2="225.5" y2="470.6" opacity="1.0" stroke="rgb(0,0,0)" stroke-width="2.0"/>
<text x="226.730017" y="493.090909" fill="rgb(12,12,255)" stroke-width="0" font-weight="bold" font-size="16">N</text>
<text x="130.365009" y="511.636364" fill="rgb(12,12,255)" stroke-width="0" font-weight="bold" font-size="16">N</text>
<text x="98.243339" y="493.090909" fill="rgb(255,12,12)" stroke-width="0" font-weight="bold" font-size="16">O</text>
<text x="141.165009" y="536.695273" fill="rgb(255,12,12)" stroke-width="0" font-weight="bold" font-size="16"/>
<text x="141.165009" y="536.695273" fill="rgb(255,12,12)" stroke-width="0" font-weight="bold" font-size="32">.</text>
<text x="130.365009" y="548.727273" fill="rgb(255,12,12)" stroke-width="0" font-weight="bold" font-size="16">O</text>
<text x="323.095026" y="289.090909" fill="rgb(12,12,255)" stroke-width="0" font-weight="bold" font-size="16">N</text>
<text x="162.486678" y="196.363636" fill="rgb(12,12,255)" stroke-width="0" font-weight="bold" font-size="16">N</text>
</svg>
</g>
</svg>