<svg xmlns="http://www.w3.org/2000/svg" xmlns:xlink="http://www.w3.org/1999/xlink" xmlns:cml="http://www.xml-cml.org/schema" version="1.1" id="topsvg" x="0" y="0" viewBox="0 0 100 100">
<title>J_5_M - Open Babel Depiction</title>
<rect x="0" y="0" width="100" height="100" fill="white"/>
<g transform="translate(0,0)">
<svg width="100" height="100" x="0" y="0" viewBox="0 0 496.975 561.481" font-family="sans-serif" stroke="rgb(0,0,0)" stroke-width="2" stroke-linecap="round">
<line x1="104.2" y1="317.8" x2="157.0" y2="287.2" opacity="1.0" stroke="rgb(0,0,0)" stroke-width="2.0"/>
<line x1="179.6" y1="287.2" x2="232.5" y2="317.8" opacity="1.0" stroke="rgb(0,0,0)" stroke-width="2.0"/>
<line x1="328.7" y1="386.3" x2="328.7" y2="447.4" opacity="1.0" stroke="rgb(0,0,0)" stroke-width="2.0"/>
<line x1="339.9" y1="366.8" x2="392.8" y2="336.3" opacity="1.0" stroke="rgb(0,0,0)" stroke-width="2.0"/>
<line x1="296.6" y1="354.8" x2="317.4" y2="366.8" opacity="1.0" stroke="rgb(0,0,0)" stroke-width="2.0"/>
<line x1="168.3" y1="267.7" x2="168.3" y2="243.7" opacity="1.0" stroke="rgb(0,0,0)" stroke-width="2.0"/>
<line x1="360.8" y1="58.5" x2="381.6" y2="46.5" opacity="1.0" stroke="rgb(0,0,0)" stroke-width="2.0"/>
<line x1="358.7" y1="54.9" x2="379.5" y2="42.9" opacity="1.0" stroke="rgb(0,0,0)" stroke-width="2.0"/>
<line x1="362.9" y1="62.2" x2="383.7" y2="50.1" opacity="1.0" stroke="rgb(0,0,0)" stroke-width="2.0"/>
<line x1="328.7" y1="77.0" x2="360.8" y2="58.5" opacity="1.0" stroke="rgb(0,0,0)" stroke-width="2.0"/>
<line x1="232.5" y1="132.6" x2="264.5" y2="114.1" opacity="1.0" stroke="rgb(0,0,0)" stroke-width="2.0"/>
<line x1="40.0" y1="317.8" x2="72.1" y2="299.3" opacity="1.0" stroke="rgb(0,0,0)" stroke-width="2.0"/>
<line x1="72.1" y1="299.3" x2="104.2" y2="317.8" opacity="1.0" stroke="rgb(0,0,0)" stroke-width="2.0"/>
<line x1="73.7" y1="308.5" x2="95.4" y2="321.0" opacity="1.0" stroke="rgb(0,0,0)" stroke-width="2.0"/>
<line x1="104.2" y1="317.8" x2="104.2" y2="354.8" opacity="1.0" stroke="rgb(0,0,0)" stroke-width="2.0"/>
<line x1="104.2" y1="354.8" x2="72.1" y2="373.3" opacity="1.0" stroke="rgb(0,0,0)" stroke-width="2.0"/>
<line x1="95.4" y1="351.6" x2="73.7" y2="364.1" opacity="1.0" stroke="rgb(0,0,0)" stroke-width="2.0"/>
<line x1="72.1" y1="373.3" x2="40.0" y2="354.8" opacity="1.0" stroke="rgb(0,0,0)" stroke-width="2.0"/>
<line x1="40.0" y1="354.8" x2="40.0" y2="317.8" opacity="1.0" stroke="rgb(0,0,0)" stroke-width="2.0"/>
<line x1="47.2" y1="348.8" x2="47.2" y2="323.8" opacity="1.0" stroke="rgb(0,0,0)" stroke-width="2.0"/>
<line x1="264.5" y1="299.3" x2="296.6" y2="317.8" opacity="1.0" stroke="rgb(0,0,0)" stroke-width="2.0"/>
<line x1="296.6" y1="317.8" x2="296.6" y2="354.8" opacity="1.0" stroke="rgb(0,0,0)" stroke-width="2.0"/>
<line x1="289.4" y1="323.8" x2="289.4" y2="348.8" opacity="1.0" stroke="rgb(0,0,0)" stroke-width="2.0"/>
<line x1="296.6" y1="354.8" x2="264.5" y2="373.3" opacity="1.0" stroke="rgb(0,0,0)" stroke-width="2.0"/>
<line x1="264.5" y1="373.3" x2="232.5" y2="354.8" opacity="1.0" stroke="rgb(0,0,0)" stroke-width="2.0"/>
<line x1="262.9" y1="364.1" x2="241.2" y2="351.6" opacity="1.0" stroke="rgb(0,0,0)" stroke-width="2.0"/>
<line x1="232.5" y1="354.8" x2="232.5" y2="317.8" opacity="1.0" stroke="rgb(0,0,0)" stroke-width="2.0"/>
<line x1="232.5" y1="317.8" x2="264.5" y2="299.3" opacity="1.0" stroke="rgb(0,0,0)" stroke-width="2.0"/>
<line x1="241.2" y1="321.0" x2="262.9" y2="308.5" opacity="1.0" stroke="rgb(0,0,0)" stroke-width="2.0"/>
<line x1="392.8" y1="299.3" x2="392.8" y2="336.3" opacity="1.0" stroke="rgb(0,0,0)" stroke-width="2.0"/>
<line x1="400.0" y1="305.3" x2="400.0" y2="330.3" opacity="1.0" stroke="rgb(0,0,0)" stroke-width="2.0"/>
<line x1="392.8" y1="336.3" x2="424.9" y2="354.8" opacity="1.0" stroke="rgb(0,0,0)" stroke-width="2.0"/>
<line x1="424.9" y1="354.8" x2="457.0" y2="336.3" opacity="1.0" stroke="rgb(0,0,0)" stroke-width="2.0"/>
<line x1="426.5" y1="345.6" x2="448.2" y2="333.1" opacity="1.0" stroke="rgb(0,0,0)" stroke-width="2.0"/>
<line x1="457.0" y1="336.3" x2="457.0" y2="299.3" opacity="1.0" stroke="rgb(0,0,0)" stroke-width="2.0"/>
<line x1="457.0" y1="299.3" x2="424.9" y2="280.7" opacity="1.0" stroke="rgb(0,0,0)" stroke-width="2.0"/>
<line x1="448.2" y1="302.5" x2="426.5" y2="290.0" opacity="1.0" stroke="rgb(0,0,0)" stroke-width="2.0"/>
<line x1="424.9" y1="280.7" x2="392.8" y2="299.3" opacity="1.0" stroke="rgb(0,0,0)" stroke-width="2.0"/>
<line x1="360.8" y1="465.9" x2="328.7" y2="447.4" opacity="1.0" stroke="rgb(0,0,0)" stroke-width="2.0"/>
<line x1="352.0" y1="469.2" x2="330.3" y2="456.6" opacity="1.0" stroke="rgb(0,0,0)" stroke-width="2.0"/>
<line x1="328.7" y1="447.4" x2="296.6" y2="465.9" opacity="1.0" stroke="rgb(0,0,0)" stroke-width="2.0"/>
<line x1="296.6" y1="465.9" x2="296.6" y2="503.0" opacity="1.0" stroke="rgb(0,0,0)" stroke-width="2.0"/>
<line x1="303.8" y1="471.9" x2="303.8" y2="497.0" opacity="1.0" stroke="rgb(0,0,0)" stroke-width="2.0"/>
<line x1="296.6" y1="503.0" x2="328.7" y2="521.5" opacity="1.0" stroke="rgb(0,0,0)" stroke-width="2.0"/>
<line x1="328.7" y1="521.5" x2="360.8" y2="503.0" opacity="1.0" stroke="rgb(0,0,0)" stroke-width="2.0"/>
<line x1="330.3" y1="512.2" x2="352.0" y2="499.7" opacity="1.0" stroke="rgb(0,0,0)" stroke-width="2.0"/>
<line x1="360.8" y1="503.0" x2="360.8" y2="465.9" opacity="1.0" stroke="rgb(0,0,0)" stroke-width="2.0"/>
<line x1="136.2" y1="225.2" x2="136.2" y2="188.1" opacity="1.0" stroke="rgb(0,0,0)" stroke-width="2.0"/>
<line x1="136.2" y1="188.1" x2="168.3" y2="169.6" opacity="1.0" stroke="rgb(0,0,0)" stroke-width="2.0"/>
<line x1="145.0" y1="191.4" x2="166.7" y2="178.9" opacity="1.0" stroke="rgb(0,0,0)" stroke-width="2.0"/>
<line x1="168.3" y1="169.6" x2="200.4" y2="188.1" opacity="1.0" stroke="rgb(0,0,0)" stroke-width="2.0"/>
<line x1="200.4" y1="188.1" x2="200.4" y2="225.2" opacity="1.0" stroke="rgb(0,0,0)" stroke-width="2.0"/>
<line x1="193.2" y1="194.1" x2="193.2" y2="219.2" opacity="1.0" stroke="rgb(0,0,0)" stroke-width="2.0"/>
<line x1="200.4" y1="225.2" x2="168.3" y2="243.7" opacity="1.0" stroke="rgb(0,0,0)" stroke-width="2.0"/>
<line x1="168.3" y1="243.7" x2="136.2" y2="225.2" opacity="1.0" stroke="rgb(0,0,0)" stroke-width="2.0"/>
<line x1="166.7" y1="234.5" x2="145.0" y2="221.9" opacity="1.0" stroke="rgb(0,0,0)" stroke-width="2.0"/>
<line x1="232.5" y1="132.6" x2="232.5" y2="169.6" opacity="1.0" stroke="rgb(0,0,0)" stroke-width="2.0"/>
<line x1="225.3" y1="138.6" x2="225.3" y2="163.6" opacity="1.0" stroke="rgb(0,0,0)" stroke-width="2.0"/>
<line x1="232.5" y1="169.6" x2="200.4" y2="188.1" opacity="1.0" stroke="rgb(0,0,0)" stroke-width="2.0"/>
<line x1="168.3" y1="169.6" x2="168.3" y2="132.6" opacity="1.0" stroke="rgb(0,0,0)" stroke-width="2.0"/>
<line x1="168.3" y1="132.6" x2="200.4" y2="114.1" opacity="1.0" stroke="rgb(0,0,0)" stroke-width="2.0"/>
<line x1="177.1" y1="135.8" x2="198.8" y2="123.3" opacity="1.0" stroke="rgb(0,0,0)" stroke-width="2.0"/>
<line x1="200.4" y1="114.1" x2="232.5" y2="132.6" opacity="1.0" stroke="rgb(0,0,0)" stroke-width="2.0"/>
<line x1="264.5" y1="77.0" x2="296.6" y2="58.5" opacity="1.0" stroke="rgb(0,0,0)" stroke-width="2.0"/>
<line x1="296.6" y1="58.5" x2="328.7" y2="77.0" opacity="1.0" stroke="rgb(0,0,0)" stroke-width="2.0"/>
<line x1="298.2" y1="67.8" x2="319.9" y2="80.3" opacity="1.0" stroke="rgb(0,0,0)" stroke-width="2.0"/>
<line x1="328.7" y1="77.0" x2="328.7" y2="114.1" opacity="1.0" stroke="rgb(0,0,0)" stroke-width="2.0"/>
<line x1="328.7" y1="114.1" x2="296.6" y2="132.6" opacity="1.0" stroke="rgb(0,0,0)" stroke-width="2.0"/>
<line x1="319.9" y1="110.8" x2="298.2" y2="123.4" opacity="1.0" stroke="rgb(0,0,0)" stroke-width="2.0"/>
<line x1="296.6" y1="132.6" x2="264.5" y2="114.1" opacity="1.0" stroke="rgb(0,0,0)" stroke-width="2.0"/>
<line x1="264.5" y1="114.1" x2="264.5" y2="77.0" opacity="1.0" stroke="rgb(0,0,0)" stroke-width="2.0"/>
<line x1="271.7" y1="108.1" x2="271.7" y2="83.0" opacity="1.0" stroke="rgb(0,0,0)" stroke-width="2.0"/>
<text x="386.825165" y="48.000000" fill="rgb(12,12,255)" stroke-width="0" font-weight="bold" font-size="16">N</text>
<text x="162.300060" y="288.740741" fill="rgb(12,12,255)" stroke-width="0" font-weight="bold" font-size="16">N</text>
<text x="322.675135" y="381.333333" fill="rgb(12,12,255)" stroke-width="0" font-weight="bold" font-size="16">N</text>
</svg>
</g>
</svg>