<svg xmlns="http://www.w3.org/2000/svg" x="0" y="0" viewBox="0 0 100 100">
<title>J_5_L - Open Babel Depiction</title>
<rect x="0" y="0" width="100" height="100" fill="white"/>
<g transform="translate(0,0)">
<svg width="100" height="100" x="0" y="0" viewBox="0 0 654.436 470" font-family="sans-serif" stroke="rgb(0,0,0)" stroke-width="2" stroke-linecap="round">
<line x1="324.9" y1="355.7" x2="324.9" y2="294.4" opacity="1.0" stroke="rgb(0,0,0)" stroke-width="2.0"/>
<line x1="336.2" y1="274.9" x2="389.3" y2="244.3" opacity="1.0" stroke="rgb(0,0,0)" stroke-width="2.0"/>
<line x1="497.0" y1="195.1" x2="550.1" y2="225.7" opacity="1.0" stroke="rgb(0,0,0)" stroke-width="2.0"/>
<line x1="485.8" y1="175.6" x2="485.8" y2="114.3" opacity="1.0" stroke="rgb(0,0,0)" stroke-width="2.0"/>
<line x1="453.6" y1="207.1" x2="474.5" y2="195.1" opacity="1.0" stroke="rgb(0,0,0)" stroke-width="2.0"/>
<line x1="313.7" y1="274.9" x2="292.8" y2="262.9" opacity="1.0" stroke="rgb(0,0,0)" stroke-width="2.0"/>
<line x1="164.1" y1="262.9" x2="131.9" y2="281.4" opacity="1.0" stroke="rgb(0,0,0)" stroke-width="2.0"/>
<line x1="55.1" y1="377.4" x2="92.0" y2="373.5" opacity="1.0" stroke="rgb(0,0,0)" stroke-width="2.0"/>
<line x1="60.3" y1="369.6" x2="85.3" y2="366.9" opacity="1.0" stroke="rgb(0,0,0)" stroke-width="2.0"/>
<line x1="92.0" y1="373.5" x2="99.8" y2="337.1" opacity="1.0" stroke="rgb(0,0,0)" stroke-width="2.0"/>
<line x1="99.8" y1="337.1" x2="67.6" y2="318.6" opacity="1.0" stroke="rgb(0,0,0)" stroke-width="2.0"/>
<line x1="67.6" y1="318.6" x2="49.7" y2="334.7" opacity="1.0" stroke="rgb(0,0,0)" stroke-width="2.0"/>
<line x1="45.3" y1="355.3" x2="55.1" y2="377.4" opacity="1.0" stroke="rgb(0,0,0)" stroke-width="2.0"/>
<line x1="292.8" y1="411.4" x2="292.8" y2="374.3" opacity="1.0" stroke="rgb(0,0,0)" stroke-width="2.0"/>
<line x1="292.8" y1="374.3" x2="324.9" y2="355.7" opacity="1.0" stroke="rgb(0,0,0)" stroke-width="2.0"/>
<line x1="301.6" y1="377.5" x2="323.3" y2="364.9" opacity="1.0" stroke="rgb(0,0,0)" stroke-width="2.0"/>
<line x1="324.9" y1="355.7" x2="357.1" y2="374.3" opacity="1.0" stroke="rgb(0,0,0)" stroke-width="2.0"/>
<line x1="357.1" y1="374.3" x2="357.1" y2="411.4" opacity="1.0" stroke="rgb(0,0,0)" stroke-width="2.0"/>
<line x1="349.9" y1="380.3" x2="349.9" y2="405.4" opacity="1.0" stroke="rgb(0,0,0)" stroke-width="2.0"/>
<line x1="357.1" y1="411.4" x2="324.9" y2="430.0" opacity="1.0" stroke="rgb(0,0,0)" stroke-width="2.0"/>
<line x1="324.9" y1="430.0" x2="292.8" y2="411.4" opacity="1.0" stroke="rgb(0,0,0)" stroke-width="2.0"/>
<line x1="323.3" y1="420.8" x2="301.6" y2="408.2" opacity="1.0" stroke="rgb(0,0,0)" stroke-width="2.0"/>
<line x1="389.3" y1="207.1" x2="421.4" y2="188.6" opacity="1.0" stroke="rgb(0,0,0)" stroke-width="2.0"/>
<line x1="421.4" y1="188.6" x2="453.6" y2="207.1" opacity="1.0" stroke="rgb(0,0,0)" stroke-width="2.0"/>
<line x1="423.0" y1="197.8" x2="444.8" y2="210.4" opacity="1.0" stroke="rgb(0,0,0)" stroke-width="2.0"/>
<line x1="453.6" y1="207.1" x2="453.6" y2="244.3" opacity="1.0" stroke="rgb(0,0,0)" stroke-width="2.0"/>
<line x1="453.6" y1="244.3" x2="421.4" y2="262.9" opacity="1.0" stroke="rgb(0,0,0)" stroke-width="2.0"/>
<line x1="444.8" y1="241.1" x2="423.0" y2="253.6" opacity="1.0" stroke="rgb(0,0,0)" stroke-width="2.0"/>
<line x1="421.4" y1="262.9" x2="389.3" y2="244.3" opacity="1.0" stroke="rgb(0,0,0)" stroke-width="2.0"/>
<line x1="389.3" y1="244.3" x2="389.3" y2="207.1" opacity="1.0" stroke="rgb(0,0,0)" stroke-width="2.0"/>
<line x1="396.5" y1="238.3" x2="396.5" y2="213.1" opacity="1.0" stroke="rgb(0,0,0)" stroke-width="2.0"/>
<line x1="453.6" y1="95.7" x2="485.8" y2="114.3" opacity="1.0" stroke="rgb(0,0,0)" stroke-width="2.0"/>
<line x1="462.4" y1="92.5" x2="484.2" y2="105.1" opacity="1.0" stroke="rgb(0,0,0)" stroke-width="2.0"/>
<line x1="485.8" y1="114.3" x2="517.9" y2="95.7" opacity="1.0" stroke="rgb(0,0,0)" stroke-width="2.0"/>
<line x1="517.9" y1="95.7" x2="517.9" y2="58.6" opacity="1.0" stroke="rgb(0,0,0)" stroke-width="2.0"/>
<line x1="510.7" y1="89.7" x2="510.7" y2="64.6" opacity="1.0" stroke="rgb(0,0,0)" stroke-width="2.0"/>
<line x1="517.9" y1="58.6" x2="485.8" y2="40.0" opacity="1.0" stroke="rgb(0,0,0)" stroke-width="2.0"/>
<line x1="485.8" y1="40.0" x2="453.6" y2="58.6" opacity="1.0" stroke="rgb(0,0,0)" stroke-width="2.0"/>
<line x1="484.2" y1="49.2" x2="462.4" y2="61.8" opacity="1.0" stroke="rgb(0,0,0)" stroke-width="2.0"/>
<line x1="453.6" y1="58.6" x2="453.6" y2="95.7" opacity="1.0" stroke="rgb(0,0,0)" stroke-width="2.0"/>
<line x1="582.3" y1="207.1" x2="550.1" y2="225.7" opacity="1.0" stroke="rgb(0,0,0)" stroke-width="2.0"/>
<line x1="580.7" y1="216.4" x2="558.9" y2="228.9" opacity="1.0" stroke="rgb(0,0,0)" stroke-width="2.0"/>
<line x1="550.1" y1="225.7" x2="550.1" y2="262.9" opacity="1.0" stroke="rgb(0,0,0)" stroke-width="2.0"/>
<line x1="550.1" y1="262.9" x2="582.3" y2="281.4" opacity="1.0" stroke="rgb(0,0,0)" stroke-width="2.0"/>
<line x1="558.9" y1="259.6" x2="580.7" y2="272.2" opacity="1.0" stroke="rgb(0,0,0)" stroke-width="2.0"/>
<line x1="582.3" y1="281.4" x2="614.4" y2="262.9" opacity="1.0" stroke="rgb(0,0,0)" stroke-width="2.0"/>
<line x1="614.4" y1="262.9" x2="614.4" y2="225.7" opacity="1.0" stroke="rgb(0,0,0)" stroke-width="2.0"/>
<line x1="607.2" y1="256.9" x2="607.2" y2="231.7" opacity="1.0" stroke="rgb(0,0,0)" stroke-width="2.0"/>
<line x1="614.4" y1="225.7" x2="582.3" y2="207.1" opacity="1.0" stroke="rgb(0,0,0)" stroke-width="2.0"/>
<line x1="292.8" y1="225.7" x2="260.6" y2="207.1" opacity="1.0" stroke="rgb(0,0,0)" stroke-width="2.0"/>
<line x1="260.6" y1="207.1" x2="228.4" y2="225.7" opacity="1.0" stroke="rgb(0,0,0)" stroke-width="2.0"/>
<line x1="259.0" y1="216.4" x2="237.2" y2="228.9" opacity="1.0" stroke="rgb(0,0,0)" stroke-width="2.0"/>
<line x1="228.4" y1="225.7" x2="228.4" y2="262.9" opacity="1.0" stroke="rgb(0,0,0)" stroke-width="2.0"/>
<line x1="228.4" y1="262.9" x2="260.6" y2="281.4" opacity="1.0" stroke="rgb(0,0,0)" stroke-width="2.0"/>
<line x1="237.2" y1="259.6" x2="259.0" y2="272.2" opacity="1.0" stroke="rgb(0,0,0)" stroke-width="2.0"/>
<line x1="260.6" y1="281.4" x2="292.8" y2="262.9" opacity="1.0" stroke="rgb(0,0,0)" stroke-width="2.0"/>
<line x1="292.8" y1="262.9" x2="292.8" y2="225.7" opacity="1.0" stroke="rgb(0,0,0)" stroke-width="2.0"/>
<line x1="285.6" y1="256.9" x2="285.6" y2="231.7" opacity="1.0" stroke="rgb(0,0,0)" stroke-width="2.0"/>
<line x1="164.1" y1="262.9" x2="196.3" y2="281.4" opacity="1.0" stroke="rgb(0,0,0)" stroke-width="2.0"/>
<line x1="172.9" y1="259.6" x2="194.7" y2="272.2" opacity="1.0" stroke="rgb(0,0,0)" stroke-width="2.0"/>
<line x1="196.3" y1="281.4" x2="228.4" y2="262.9" opacity="1.0" stroke="rgb(0,0,0)" stroke-width="2.0"/>
<line x1="228.4" y1="225.7" x2="196.3" y2="207.1" opacity="1.0" stroke="rgb(0,0,0)" stroke-width="2.0"/>
<line x1="196.3" y1="207.1" x2="164.1" y2="225.7" opacity="1.0" stroke="rgb(0,0,0)" stroke-width="2.0"/>
<line x1="194.7" y1="216.4" x2="172.9" y2="228.9" opacity="1.0" stroke="rgb(0,0,0)" stroke-width="2.0"/>
<line x1="164.1" y1="225.7" x2="164.1" y2="262.9" opacity="1.0" stroke="rgb(0,0,0)" stroke-width="2.0"/>
<line x1="99.8" y1="262.9" x2="67.6" y2="281.4" opacity="1.0" stroke="rgb(0,0,0)" stroke-width="2.0"/>
<line x1="67.6" y1="281.4" x2="67.6" y2="318.6" opacity="1.0" stroke="rgb(0,0,0)" stroke-width="2.0"/>
<line x1="74.8" y1="287.4" x2="74.8" y2="312.6" opacity="1.0" stroke="rgb(0,0,0)" stroke-width="2.0"/>
<line x1="99.8" y1="337.1" x2="131.9" y2="318.6" opacity="1.0" stroke="rgb(0,0,0)" stroke-width="2.0"/>
<line x1="101.4" y1="327.9" x2="123.1" y2="315.3" opacity="1.0" stroke="rgb(0,0,0)" stroke-width="2.0"/>
<line x1="131.9" y1="318.6" x2="131.9" y2="281.4" opacity="1.0" stroke="rgb(0,0,0)" stroke-width="2.0"/>
<line x1="131.9" y1="281.4" x2="99.8" y2="262.9" opacity="1.0" stroke="rgb(0,0,0)" stroke-width="2.0"/>
<line x1="123.1" y1="284.7" x2="101.4" y2="272.1" opacity="1.0" stroke="rgb(0,0,0)" stroke-width="2.0"/>
<text x="22.000000" y="351.424851" fill="rgb(12,12,255)" stroke-width="0" font-weight="bold" font-size="16">HN</text>
<text x="318.935785" y="289.428571" fill="rgb(12,12,255)" stroke-width="0" font-weight="bold" font-size="16">N</text>
<text x="479.769074" y="196.571429" fill="rgb(12,12,255)" stroke-width="0" font-weight="bold" font-size="16">N</text>
</svg>
</g>
</svg>
