<svg xmlns="http://www.w3.org/2000/svg" x="0" y="0" viewBox="0 0 100 100">
<title>J_5_K - Open Babel Depiction</title>
<rect x="0" y="0" width="100" height="100" fill="white"/>
<g transform="translate(0,0)">
<svg width="100" height="100" x="0" y="0" viewBox="0 0 497.582 525.091" font-family="sans-serif" stroke="rgb(0,0,0)" stroke-width="2" stroke-linecap="round">
<line x1="168.5" y1="410.9" x2="168.5" y2="349.7" opacity="1.0" stroke="rgb(0,0,0)" stroke-width="2.0"/>
<line x1="179.7" y1="330.2" x2="232.7" y2="299.6" opacity="1.0" stroke="rgb(0,0,0)" stroke-width="2.0"/>
<line x1="340.4" y1="250.5" x2="393.3" y2="281.1" opacity="1.0" stroke="rgb(0,0,0)" stroke-width="2.0"/>
<line x1="329.1" y1="231.0" x2="329.1" y2="169.8" opacity="1.0" stroke="rgb(0,0,0)" stroke-width="2.0"/>
<line x1="297.0" y1="262.5" x2="317.8" y2="250.5" opacity="1.0" stroke="rgb(0,0,0)" stroke-width="2.0"/>
<line x1="157.2" y1="330.2" x2="136.4" y2="318.2" opacity="1.0" stroke="rgb(0,0,0)" stroke-width="2.0"/>
<line x1="81.9" y1="49.4" x2="91.5" y2="43.9" opacity="1.0" stroke="rgb(0,0,0)" stroke-width="2.0"/>
<line x1="84.9" y1="54.6" x2="94.5" y2="49.1" opacity="1.0" stroke="rgb(0,0,0)" stroke-width="2.0"/>
<line x1="60.9" y1="52.0" x2="51.3" y2="46.5" opacity="1.0" stroke="rgb(0,0,0)" stroke-width="2.0"/>
<line x1="72.1" y1="95.6" x2="72.1" y2="71.5" opacity="1.0" stroke="rgb(0,0,0)" stroke-width="2.0"/>
<line x1="72.1" y1="206.9" x2="72.1" y2="169.8" opacity="1.0" stroke="rgb(0,0,0)" stroke-width="2.0"/>
<line x1="136.4" y1="466.5" x2="136.4" y2="429.5" opacity="1.0" stroke="rgb(0,0,0)" stroke-width="2.0"/>
<line x1="136.4" y1="429.5" x2="168.5" y2="410.9" opacity="1.0" stroke="rgb(0,0,0)" stroke-width="2.0"/>
<line x1="145.2" y1="432.7" x2="166.9" y2="420.1" opacity="1.0" stroke="rgb(0,0,0)" stroke-width="2.0"/>
<line x1="168.5" y1="410.9" x2="200.6" y2="429.5" opacity="1.0" stroke="rgb(0,0,0)" stroke-width="2.0"/>
<line x1="200.6" y1="429.5" x2="200.6" y2="466.5" opacity="1.0" stroke="rgb(0,0,0)" stroke-width="2.0"/>
<line x1="193.4" y1="435.5" x2="193.4" y2="460.5" opacity="1.0" stroke="rgb(0,0,0)" stroke-width="2.0"/>
<line x1="200.6" y1="466.5" x2="168.5" y2="485.1" opacity="1.0" stroke="rgb(0,0,0)" stroke-width="2.0"/>
<line x1="168.5" y1="485.1" x2="136.4" y2="466.5" opacity="1.0" stroke="rgb(0,0,0)" stroke-width="2.0"/>
<line x1="166.9" y1="475.9" x2="145.2" y2="463.3" opacity="1.0" stroke="rgb(0,0,0)" stroke-width="2.0"/>
<line x1="232.7" y1="262.5" x2="264.9" y2="244.0" opacity="1.0" stroke="rgb(0,0,0)" stroke-width="2.0"/>
<line x1="264.9" y1="244.0" x2="297.0" y2="262.5" opacity="1.0" stroke="rgb(0,0,0)" stroke-width="2.0"/>
<line x1="266.4" y1="253.2" x2="288.2" y2="265.8" opacity="1.0" stroke="rgb(0,0,0)" stroke-width="2.0"/>
<line x1="297.0" y1="262.5" x2="297.0" y2="299.6" opacity="1.0" stroke="rgb(0,0,0)" stroke-width="2.0"/>
<line x1="297.0" y1="299.6" x2="264.9" y2="318.2" opacity="1.0" stroke="rgb(0,0,0)" stroke-width="2.0"/>
<line x1="288.2" y1="296.4" x2="266.4" y2="308.9" opacity="1.0" stroke="rgb(0,0,0)" stroke-width="2.0"/>
<line x1="264.9" y1="318.2" x2="232.7" y2="299.6" opacity="1.0" stroke="rgb(0,0,0)" stroke-width="2.0"/>
<line x1="232.7" y1="299.6" x2="232.7" y2="262.5" opacity="1.0" stroke="rgb(0,0,0)" stroke-width="2.0"/>
<line x1="239.9" y1="293.6" x2="239.9" y2="268.5" opacity="1.0" stroke="rgb(0,0,0)" stroke-width="2.0"/>
<line x1="297.0" y1="151.3" x2="329.1" y2="169.8" opacity="1.0" stroke="rgb(0,0,0)" stroke-width="2.0"/>
<line x1="305.8" y1="148.0" x2="327.5" y2="160.6" opacity="1.0" stroke="rgb(0,0,0)" stroke-width="2.0"/>
<line x1="329.1" y1="169.8" x2="361.2" y2="151.3" opacity="1.0" stroke="rgb(0,0,0)" stroke-width="2.0"/>
<line x1="361.2" y1="151.3" x2="361.2" y2="114.2" opacity="1.0" stroke="rgb(0,0,0)" stroke-width="2.0"/>
<line x1="354.0" y1="145.3" x2="354.0" y2="120.2" opacity="1.0" stroke="rgb(0,0,0)" stroke-width="2.0"/>
<line x1="361.2" y1="114.2" x2="329.1" y2="95.6" opacity="1.0" stroke="rgb(0,0,0)" stroke-width="2.0"/>
<line x1="329.1" y1="95.6" x2="297.0" y2="114.2" opacity="1.0" stroke="rgb(0,0,0)" stroke-width="2.0"/>
<line x1="327.5" y1="104.9" x2="305.8" y2="117.4" opacity="1.0" stroke="rgb(0,0,0)" stroke-width="2.0"/>
<line x1="297.0" y1="114.2" x2="297.0" y2="151.3" opacity="1.0" stroke="rgb(0,0,0)" stroke-width="2.0"/>
<line x1="425.5" y1="262.5" x2="393.3" y2="281.1" opacity="1.0" stroke="rgb(0,0,0)" stroke-width="2.0"/>
<line x1="423.9" y1="271.8" x2="402.1" y2="284.3" opacity="1.0" stroke="rgb(0,0,0)" stroke-width="2.0"/>
<line x1="393.3" y1="281.1" x2="393.3" y2="318.2" opacity="1.0" stroke="rgb(0,0,0)" stroke-width="2.0"/>
<line x1="393.3" y1="318.2" x2="425.5" y2="336.7" opacity="1.0" stroke="rgb(0,0,0)" stroke-width="2.0"/>
<line x1="402.1" y1="314.9" x2="423.9" y2="327.5" opacity="1.0" stroke="rgb(0,0,0)" stroke-width="2.0"/>
<line x1="425.5" y1="336.7" x2="457.6" y2="318.2" opacity="1.0" stroke="rgb(0,0,0)" stroke-width="2.0"/>
<line x1="457.6" y1="318.2" x2="457.6" y2="281.1" opacity="1.0" stroke="rgb(0,0,0)" stroke-width="2.0"/>
<line x1="450.4" y1="312.2" x2="450.4" y2="287.1" opacity="1.0" stroke="rgb(0,0,0)" stroke-width="2.0"/>
<line x1="457.6" y1="281.1" x2="425.5" y2="262.5" opacity="1.0" stroke="rgb(0,0,0)" stroke-width="2.0"/>
<line x1="104.2" y1="336.7" x2="72.1" y2="318.2" opacity="1.0" stroke="rgb(0,0,0)" stroke-width="2.0"/>
<line x1="72.1" y1="318.2" x2="72.1" y2="281.1" opacity="1.0" stroke="rgb(0,0,0)" stroke-width="2.0"/>
<line x1="79.3" y1="312.2" x2="79.3" y2="287.1" opacity="1.0" stroke="rgb(0,0,0)" stroke-width="2.0"/>
<line x1="72.1" y1="281.1" x2="104.2" y2="262.5" opacity="1.0" stroke="rgb(0,0,0)" stroke-width="2.0"/>
<line x1="104.2" y1="262.5" x2="136.4" y2="281.1" opacity="1.0" stroke="rgb(0,0,0)" stroke-width="2.0"/>
<line x1="105.8" y1="271.8" x2="127.6" y2="284.3" opacity="1.0" stroke="rgb(0,0,0)" stroke-width="2.0"/>
<line x1="136.4" y1="281.1" x2="136.4" y2="318.2" opacity="1.0" stroke="rgb(0,0,0)" stroke-width="2.0"/>
<line x1="136.4" y1="318.2" x2="104.2" y2="336.7" opacity="1.0" stroke="rgb(0,0,0)" stroke-width="2.0"/>
<line x1="127.6" y1="314.9" x2="105.8" y2="327.5" opacity="1.0" stroke="rgb(0,0,0)" stroke-width="2.0"/>
<line x1="72.1" y1="206.9" x2="104.2" y2="225.5" opacity="1.0" stroke="rgb(0,0,0)" stroke-width="2.0"/>
<line x1="73.7" y1="216.1" x2="95.4" y2="228.7" opacity="1.0" stroke="rgb(0,0,0)" stroke-width="2.0"/>
<line x1="104.2" y1="225.5" x2="104.2" y2="262.5" opacity="1.0" stroke="rgb(0,0,0)" stroke-width="2.0"/>
<line x1="72.1" y1="281.1" x2="40.0" y2="262.5" opacity="1.0" stroke="rgb(0,0,0)" stroke-width="2.0"/>
<line x1="40.0" y1="262.5" x2="40.0" y2="225.5" opacity="1.0" stroke="rgb(0,0,0)" stroke-width="2.0"/>
<line x1="47.2" y1="256.5" x2="47.2" y2="231.5" opacity="1.0" stroke="rgb(0,0,0)" stroke-width="2.0"/>
<line x1="40.0" y1="225.5" x2="72.1" y2="206.9" opacity="1.0" stroke="rgb(0,0,0)" stroke-width="2.0"/>
<line x1="40.0" y1="151.3" x2="40.0" y2="114.2" opacity="1.0" stroke="rgb(0,0,0)" stroke-width="2.0"/>
<line x1="40.0" y1="114.2" x2="72.1" y2="95.6" opacity="1.0" stroke="rgb(0,0,0)" stroke-width="2.0"/>
<line x1="48.8" y1="117.4" x2="70.5" y2="104.9" opacity="1.0" stroke="rgb(0,0,0)" stroke-width="2.0"/>
<line x1="72.1" y1="95.6" x2="104.2" y2="114.2" opacity="1.0" stroke="rgb(0,0,0)" stroke-width="2.0"/>
<line x1="104.2" y1="114.2" x2="104.2" y2="151.3" opacity="1.0" stroke="rgb(0,0,0)" stroke-width="2.0"/>
<line x1="97.0" y1="120.2" x2="97.0" y2="145.3" opacity="1.0" stroke="rgb(0,0,0)" stroke-width="2.0"/>
<line x1="104.2" y1="151.3" x2="72.1" y2="169.8" opacity="1.0" stroke="rgb(0,0,0)" stroke-width="2.0"/>
<line x1="72.1" y1="169.8" x2="40.0" y2="151.3" opacity="1.0" stroke="rgb(0,0,0)" stroke-width="2.0"/>
<line x1="70.5" y1="160.6" x2="48.8" y2="148.0" opacity="1.0" stroke="rgb(0,0,0)" stroke-width="2.0"/>
<text x="66.121670" y="66.545455" fill="rgb(12,12,255)" stroke-width="0" font-weight="bold" font-size="16">N</text>
<text x="98.243339" y="48.000000" fill="rgb(255,12,12)" stroke-width="0" font-weight="bold" font-size="16">O</text>
<text x="44.800000" y="35.968000" fill="rgb(255,12,12)" stroke-width="0" font-weight="bold" font-size="16"/>
<text x="44.800000" y="35.968000" fill="rgb(255,12,12)" stroke-width="0" font-weight="bold" font-size="32">.</text>
<text x="34.000000" y="48.000000" fill="rgb(255,12,12)" stroke-width="0" font-weight="bold" font-size="16">O</text>
<text x="162.486678" y="344.727273" fill="rgb(12,12,255)" stroke-width="0" font-weight="bold" font-size="16">N</text>
<text x="323.095026" y="252.000000" fill="rgb(12,12,255)" stroke-width="0" font-weight="bold" font-size="16">N</text>
</svg>
</g>
</svg>
