<svg xmlns="http://www.w3.org/2000/svg" x="0" y="0" viewBox="0 0 100 100">
<title>J_5_S - Open Babel Depiction</title>
<rect x="0" y="0" width="100" height="100" fill="white"/>
<g transform="translate(0,0)">
<svg width="100" height="100" x="0" y="0" viewBox="0 0 497.582 525.091" font-family="sans-serif" stroke="rgb(0,0,0)" stroke-width="2" stroke-linecap="round">
<line x1="329.1" y1="114.2" x2="329.1" y2="175.4" opacity="1.0" stroke="rgb(0,0,0)" stroke-width="2.0"/>
<line x1="317.8" y1="194.9" x2="264.9" y2="225.5" opacity="1.0" stroke="rgb(0,0,0)" stroke-width="2.0"/>
<line x1="157.2" y1="274.6" x2="104.2" y2="244.0" opacity="1.0" stroke="rgb(0,0,0)" stroke-width="2.0"/>
<line x1="168.5" y1="294.1" x2="168.5" y2="355.3" opacity="1.0" stroke="rgb(0,0,0)" stroke-width="2.0"/>
<line x1="200.6" y1="262.5" x2="179.7" y2="274.6" opacity="1.0" stroke="rgb(0,0,0)" stroke-width="2.0"/>
<line x1="340.4" y1="194.9" x2="361.2" y2="206.9" opacity="1.0" stroke="rgb(0,0,0)" stroke-width="2.0"/>
<line x1="425.5" y1="429.5" x2="425.5" y2="466.5" opacity="1.0" stroke="rgb(0,0,0)" stroke-width="2.0"/>
<line x1="425.5" y1="466.5" x2="404.6" y2="478.6" opacity="1.0" stroke="rgb(0,0,0)" stroke-width="2.0"/>
<line x1="427.0" y1="463.9" x2="447.8" y2="476.0" opacity="1.0" stroke="rgb(0,0,0)" stroke-width="2.0"/>
<line x1="424.0" y1="469.1" x2="444.8" y2="481.2" opacity="1.0" stroke="rgb(0,0,0)" stroke-width="2.0"/>
<line x1="425.5" y1="318.2" x2="425.5" y2="355.3" opacity="1.0" stroke="rgb(0,0,0)" stroke-width="2.0"/>
<line x1="361.2" y1="58.5" x2="361.2" y2="95.6" opacity="1.0" stroke="rgb(0,0,0)" stroke-width="2.0"/>
<line x1="361.2" y1="95.6" x2="329.1" y2="114.2" opacity="1.0" stroke="rgb(0,0,0)" stroke-width="2.0"/>
<line x1="352.4" y1="92.4" x2="330.7" y2="104.9" opacity="1.0" stroke="rgb(0,0,0)" stroke-width="2.0"/>
<line x1="329.1" y1="114.2" x2="297.0" y2="95.6" opacity="1.0" stroke="rgb(0,0,0)" stroke-width="2.0"/>
<line x1="297.0" y1="95.6" x2="297.0" y2="58.5" opacity="1.0" stroke="rgb(0,0,0)" stroke-width="2.0"/>
<line x1="304.2" y1="89.6" x2="304.2" y2="64.5" opacity="1.0" stroke="rgb(0,0,0)" stroke-width="2.0"/>
<line x1="297.0" y1="58.5" x2="329.1" y2="40.0" opacity="1.0" stroke="rgb(0,0,0)" stroke-width="2.0"/>
<line x1="329.1" y1="40.0" x2="361.2" y2="58.5" opacity="1.0" stroke="rgb(0,0,0)" stroke-width="2.0"/>
<line x1="330.7" y1="49.2" x2="352.4" y2="61.8" opacity="1.0" stroke="rgb(0,0,0)" stroke-width="2.0"/>
<line x1="264.9" y1="262.5" x2="232.7" y2="281.1" opacity="1.0" stroke="rgb(0,0,0)" stroke-width="2.0"/>
<line x1="232.7" y1="281.1" x2="200.6" y2="262.5" opacity="1.0" stroke="rgb(0,0,0)" stroke-width="2.0"/>
<line x1="231.1" y1="271.9" x2="209.4" y2="259.3" opacity="1.0" stroke="rgb(0,0,0)" stroke-width="2.0"/>
<line x1="200.6" y1="262.5" x2="200.6" y2="225.5" opacity="1.0" stroke="rgb(0,0,0)" stroke-width="2.0"/>
<line x1="200.6" y1="225.5" x2="232.7" y2="206.9" opacity="1.0" stroke="rgb(0,0,0)" stroke-width="2.0"/>
<line x1="209.4" y1="228.7" x2="231.1" y2="216.1" opacity="1.0" stroke="rgb(0,0,0)" stroke-width="2.0"/>
<line x1="232.7" y1="206.9" x2="264.9" y2="225.5" opacity="1.0" stroke="rgb(0,0,0)" stroke-width="2.0"/>
<line x1="264.9" y1="225.5" x2="264.9" y2="262.5" opacity="1.0" stroke="rgb(0,0,0)" stroke-width="2.0"/>
<line x1="257.7" y1="231.5" x2="257.7" y2="256.5" opacity="1.0" stroke="rgb(0,0,0)" stroke-width="2.0"/>
<line x1="200.6" y1="373.8" x2="168.5" y2="355.3" opacity="1.0" stroke="rgb(0,0,0)" stroke-width="2.0"/>
<line x1="191.8" y1="377.1" x2="170.1" y2="364.5" opacity="1.0" stroke="rgb(0,0,0)" stroke-width="2.0"/>
<line x1="168.5" y1="355.3" x2="136.4" y2="373.8" opacity="1.0" stroke="rgb(0,0,0)" stroke-width="2.0"/>
<line x1="136.4" y1="373.8" x2="136.4" y2="410.9" opacity="1.0" stroke="rgb(0,0,0)" stroke-width="2.0"/>
<line x1="143.6" y1="379.8" x2="143.6" y2="404.9" opacity="1.0" stroke="rgb(0,0,0)" stroke-width="2.0"/>
<line x1="136.4" y1="410.9" x2="168.5" y2="429.5" opacity="1.0" stroke="rgb(0,0,0)" stroke-width="2.0"/>
<line x1="168.5" y1="429.5" x2="200.6" y2="410.9" opacity="1.0" stroke="rgb(0,0,0)" stroke-width="2.0"/>
<line x1="170.1" y1="420.2" x2="191.8" y2="407.7" opacity="1.0" stroke="rgb(0,0,0)" stroke-width="2.0"/>
<line x1="200.6" y1="410.9" x2="200.6" y2="373.8" opacity="1.0" stroke="rgb(0,0,0)" stroke-width="2.0"/>
<line x1="72.1" y1="262.5" x2="104.2" y2="244.0" opacity="1.0" stroke="rgb(0,0,0)" stroke-width="2.0"/>
<line x1="73.7" y1="253.3" x2="95.4" y2="240.8" opacity="1.0" stroke="rgb(0,0,0)" stroke-width="2.0"/>
<line x1="104.2" y1="244.0" x2="104.2" y2="206.9" opacity="1.0" stroke="rgb(0,0,0)" stroke-width="2.0"/>
<line x1="104.2" y1="206.9" x2="72.1" y2="188.4" opacity="1.0" stroke="rgb(0,0,0)" stroke-width="2.0"/>
<line x1="95.4" y1="210.1" x2="73.7" y2="197.6" opacity="1.0" stroke="rgb(0,0,0)" stroke-width="2.0"/>
<line x1="72.1" y1="188.4" x2="40.0" y2="206.9" opacity="1.0" stroke="rgb(0,0,0)" stroke-width="2.0"/>
<line x1="40.0" y1="206.9" x2="40.0" y2="244.0" opacity="1.0" stroke="rgb(0,0,0)" stroke-width="2.0"/>
<line x1="47.2" y1="212.9" x2="47.2" y2="238.0" opacity="1.0" stroke="rgb(0,0,0)" stroke-width="2.0"/>
<line x1="40.0" y1="244.0" x2="72.1" y2="262.5" opacity="1.0" stroke="rgb(0,0,0)" stroke-width="2.0"/>
<line x1="393.3" y1="188.4" x2="425.5" y2="206.9" opacity="1.0" stroke="rgb(0,0,0)" stroke-width="2.0"/>
<line x1="425.5" y1="206.9" x2="425.5" y2="244.0" opacity="1.0" stroke="rgb(0,0,0)" stroke-width="2.0"/>
<line x1="418.3" y1="212.9" x2="418.3" y2="238.0" opacity="1.0" stroke="rgb(0,0,0)" stroke-width="2.0"/>
<line x1="425.5" y1="244.0" x2="393.3" y2="262.5" opacity="1.0" stroke="rgb(0,0,0)" stroke-width="2.0"/>
<line x1="393.3" y1="262.5" x2="361.2" y2="244.0" opacity="1.0" stroke="rgb(0,0,0)" stroke-width="2.0"/>
<line x1="391.7" y1="253.3" x2="370.0" y2="240.8" opacity="1.0" stroke="rgb(0,0,0)" stroke-width="2.0"/>
<line x1="361.2" y1="244.0" x2="361.2" y2="206.9" opacity="1.0" stroke="rgb(0,0,0)" stroke-width="2.0"/>
<line x1="361.2" y1="206.9" x2="393.3" y2="188.4" opacity="1.0" stroke="rgb(0,0,0)" stroke-width="2.0"/>
<line x1="370.0" y1="210.1" x2="391.7" y2="197.6" opacity="1.0" stroke="rgb(0,0,0)" stroke-width="2.0"/>
<line x1="425.5" y1="318.2" x2="393.3" y2="299.6" opacity="1.0" stroke="rgb(0,0,0)" stroke-width="2.0"/>
<line x1="423.9" y1="308.9" x2="402.1" y2="296.4" opacity="1.0" stroke="rgb(0,0,0)" stroke-width="2.0"/>
<line x1="393.3" y1="299.6" x2="393.3" y2="262.5" opacity="1.0" stroke="rgb(0,0,0)" stroke-width="2.0"/>
<line x1="425.5" y1="244.0" x2="457.6" y2="262.5" opacity="1.0" stroke="rgb(0,0,0)" stroke-width="2.0"/>
<line x1="457.6" y1="262.5" x2="457.6" y2="299.6" opacity="1.0" stroke="rgb(0,0,0)" stroke-width="2.0"/>
<line x1="450.4" y1="268.5" x2="450.4" y2="293.6" opacity="1.0" stroke="rgb(0,0,0)" stroke-width="2.0"/>
<line x1="457.6" y1="299.6" x2="425.5" y2="318.2" opacity="1.0" stroke="rgb(0,0,0)" stroke-width="2.0"/>
<line x1="457.6" y1="373.8" x2="457.6" y2="410.9" opacity="1.0" stroke="rgb(0,0,0)" stroke-width="2.0"/>
<line x1="457.6" y1="410.9" x2="425.5" y2="429.5" opacity="1.0" stroke="rgb(0,0,0)" stroke-width="2.0"/>
<line x1="448.8" y1="407.7" x2="427.1" y2="420.2" opacity="1.0" stroke="rgb(0,0,0)" stroke-width="2.0"/>
<line x1="425.5" y1="429.5" x2="393.3" y2="410.9" opacity="1.0" stroke="rgb(0,0,0)" stroke-width="2.0"/>
<line x1="393.3" y1="410.9" x2="393.3" y2="373.8" opacity="1.0" stroke="rgb(0,0,0)" stroke-width="2.0"/>
<line x1="400.5" y1="404.9" x2="400.5" y2="379.8" opacity="1.0" stroke="rgb(0,0,0)" stroke-width="2.0"/>
<line x1="393.3" y1="373.8" x2="425.5" y2="355.3" opacity="1.0" stroke="rgb(0,0,0)" stroke-width="2.0"/>
<line x1="425.5" y1="355.3" x2="457.6" y2="373.8" opacity="1.0" stroke="rgb(0,0,0)" stroke-width="2.0"/>
<line x1="427.1" y1="364.5" x2="448.8" y2="377.1" opacity="1.0" stroke="rgb(0,0,0)" stroke-width="2.0"/>
<text x="367.338365" y="493.090909" fill="rgb(102,102,102)" stroke-width="0" font-weight="bold" font-size="16">H</text>
<text x="379.338365" y="496.770909" fill="rgb(102,102,102)" stroke-width="0" font-weight="bold" font-size="13">3</text>
<text x="385.838365" y="493.090909" fill="rgb(102,102,102)" stroke-width="0" font-weight="bold" font-size="16">C</text>
<text x="451.581704" y="493.090909" fill="rgb(255,12,12)" stroke-width="0" font-weight="bold" font-size="16">O</text>
<text x="323.095026" y="196.363636" fill="rgb(12,12,255)" stroke-width="0" font-weight="bold" font-size="16">N</text>
<text x="162.486678" y="289.090909" fill="rgb(12,12,255)" stroke-width="0" font-weight="bold" font-size="16">N</text>
</svg>
</g>
</svg>
