<svg xmlns="http://www.w3.org/2000/svg" xmlns:xlink="http://www.w3.org/1999/xlink" xmlns:cml="http://www.xml-cml.org/schema" version="1.1" id="topsvg" x="0" y="0" viewBox="0 0 100 100">
<title>J_6_T - Open Babel Depiction</title>
<rect x="0" y="0" width="100" height="100" fill="white"/>
<g transform="translate(0,0)">
<svg width="100" height="100" x="0" y="0" viewBox="0 0 614.37 461.111" font-family="sans-serif" stroke="rgb(0,0,0)" stroke-width="2" stroke-linecap="round">
<line x1="291.5" y1="348.5" x2="291.5" y2="288.9" opacity="1.0" stroke="rgb(0,0,0)" stroke-width="2.0"/>
<line x1="302.7" y1="269.4" x2="354.3" y2="239.6" opacity="1.0" stroke="rgb(0,0,0)" stroke-width="2.0"/>
<line x1="459.9" y1="191.7" x2="511.5" y2="221.5" opacity="1.0" stroke="rgb(0,0,0)" stroke-width="2.0"/>
<line x1="448.6" y1="172.2" x2="448.6" y2="112.6" opacity="1.0" stroke="rgb(0,0,0)" stroke-width="2.0"/>
<line x1="417.2" y1="203.3" x2="437.4" y2="191.7" opacity="1.0" stroke="rgb(0,0,0)" stroke-width="2.0"/>
<line x1="280.2" y1="269.4" x2="260.0" y2="257.8" opacity="1.0" stroke="rgb(0,0,0)" stroke-width="2.0"/>
<line x1="71.4" y1="148.9" x2="51.3" y2="137.2" opacity="1.0" stroke="rgb(0,0,0)" stroke-width="2.0"/>
<line x1="197.2" y1="221.5" x2="134.3" y2="185.2" opacity="1.0" stroke="rgb(0,0,0)" stroke-width="2.0"/>
<line x1="260.0" y1="403.0" x2="260.0" y2="366.7" opacity="1.0" stroke="rgb(0,0,0)" stroke-width="2.0"/>
<line x1="260.0" y1="366.7" x2="291.5" y2="348.5" opacity="1.0" stroke="rgb(0,0,0)" stroke-width="2.0"/>
<line x1="268.8" y1="369.9" x2="289.9" y2="357.8" opacity="1.0" stroke="rgb(0,0,0)" stroke-width="2.0"/>
<line x1="291.5" y1="348.5" x2="322.9" y2="366.7" opacity="1.0" stroke="rgb(0,0,0)" stroke-width="2.0"/>
<line x1="322.9" y1="366.7" x2="322.9" y2="403.0" opacity="1.0" stroke="rgb(0,0,0)" stroke-width="2.0"/>
<line x1="315.7" y1="372.7" x2="315.7" y2="397.0" opacity="1.0" stroke="rgb(0,0,0)" stroke-width="2.0"/>
<line x1="322.9" y1="403.0" x2="291.5" y2="421.1" opacity="1.0" stroke="rgb(0,0,0)" stroke-width="2.0"/>
<line x1="291.5" y1="421.1" x2="260.0" y2="403.0" opacity="1.0" stroke="rgb(0,0,0)" stroke-width="2.0"/>
<line x1="289.9" y1="411.9" x2="268.8" y2="399.7" opacity="1.0" stroke="rgb(0,0,0)" stroke-width="2.0"/>
<line x1="354.3" y1="203.3" x2="385.8" y2="185.2" opacity="1.0" stroke="rgb(0,0,0)" stroke-width="2.0"/>
<line x1="385.8" y1="185.2" x2="417.2" y2="203.3" opacity="1.0" stroke="rgb(0,0,0)" stroke-width="2.0"/>
<line x1="387.4" y1="194.4" x2="408.4" y2="206.6" opacity="1.0" stroke="rgb(0,0,0)" stroke-width="2.0"/>
<line x1="417.2" y1="203.3" x2="417.2" y2="239.6" opacity="1.0" stroke="rgb(0,0,0)" stroke-width="2.0"/>
<line x1="417.2" y1="239.6" x2="385.8" y2="257.8" opacity="1.0" stroke="rgb(0,0,0)" stroke-width="2.0"/>
<line x1="408.4" y1="236.4" x2="387.4" y2="248.5" opacity="1.0" stroke="rgb(0,0,0)" stroke-width="2.0"/>
<line x1="385.8" y1="257.8" x2="354.3" y2="239.6" opacity="1.0" stroke="rgb(0,0,0)" stroke-width="2.0"/>
<line x1="354.3" y1="239.6" x2="354.3" y2="203.3" opacity="1.0" stroke="rgb(0,0,0)" stroke-width="2.0"/>
<line x1="361.5" y1="233.6" x2="361.5" y2="209.3" opacity="1.0" stroke="rgb(0,0,0)" stroke-width="2.0"/>
<line x1="417.2" y1="94.4" x2="448.6" y2="112.6" opacity="1.0" stroke="rgb(0,0,0)" stroke-width="2.0"/>
<line x1="426.0" y1="91.2" x2="447.0" y2="103.4" opacity="1.0" stroke="rgb(0,0,0)" stroke-width="2.0"/>
<line x1="448.6" y1="112.6" x2="480.1" y2="94.4" opacity="1.0" stroke="rgb(0,0,0)" stroke-width="2.0"/>
<line x1="480.1" y1="94.4" x2="480.1" y2="58.1" opacity="1.0" stroke="rgb(0,0,0)" stroke-width="2.0"/>
<line x1="472.9" y1="88.4" x2="472.9" y2="64.1" opacity="1.0" stroke="rgb(0,0,0)" stroke-width="2.0"/>
<line x1="480.1" y1="58.1" x2="448.6" y2="40.0" opacity="1.0" stroke="rgb(0,0,0)" stroke-width="2.0"/>
<line x1="448.6" y1="40.0" x2="417.2" y2="58.1" opacity="1.0" stroke="rgb(0,0,0)" stroke-width="2.0"/>
<line x1="447.0" y1="49.2" x2="426.0" y2="61.4" opacity="1.0" stroke="rgb(0,0,0)" stroke-width="2.0"/>
<line x1="417.2" y1="58.1" x2="417.2" y2="94.4" opacity="1.0" stroke="rgb(0,0,0)" stroke-width="2.0"/>
<line x1="542.9" y1="203.3" x2="511.5" y2="221.5" opacity="1.0" stroke="rgb(0,0,0)" stroke-width="2.0"/>
<line x1="541.3" y1="212.6" x2="520.3" y2="224.7" opacity="1.0" stroke="rgb(0,0,0)" stroke-width="2.0"/>
<line x1="511.5" y1="221.5" x2="511.5" y2="257.8" opacity="1.0" stroke="rgb(0,0,0)" stroke-width="2.0"/>
<line x1="511.5" y1="257.8" x2="542.9" y2="275.9" opacity="1.0" stroke="rgb(0,0,0)" stroke-width="2.0"/>
<line x1="520.3" y1="254.5" x2="541.3" y2="266.7" opacity="1.0" stroke="rgb(0,0,0)" stroke-width="2.0"/>
<line x1="542.9" y1="275.9" x2="574.4" y2="257.8" opacity="1.0" stroke="rgb(0,0,0)" stroke-width="2.0"/>
<line x1="574.4" y1="257.8" x2="574.4" y2="221.5" opacity="1.0" stroke="rgb(0,0,0)" stroke-width="2.0"/>
<line x1="567.2" y1="251.8" x2="567.2" y2="227.5" opacity="1.0" stroke="rgb(0,0,0)" stroke-width="2.0"/>
<line x1="574.4" y1="221.5" x2="542.9" y2="203.3" opacity="1.0" stroke="rgb(0,0,0)" stroke-width="2.0"/>
<line x1="228.6" y1="275.9" x2="197.2" y2="257.8" opacity="1.0" stroke="rgb(0,0,0)" stroke-width="2.0"/>
<line x1="197.2" y1="257.8" x2="197.2" y2="221.5" opacity="1.0" stroke="rgb(0,0,0)" stroke-width="2.0"/>
<line x1="204.4" y1="251.8" x2="204.4" y2="227.5" opacity="1.0" stroke="rgb(0,0,0)" stroke-width="2.0"/>
<line x1="197.2" y1="221.5" x2="228.6" y2="203.3" opacity="1.0" stroke="rgb(0,0,0)" stroke-width="2.0"/>
<line x1="228.6" y1="203.3" x2="260.0" y2="221.5" opacity="1.0" stroke="rgb(0,0,0)" stroke-width="2.0"/>
<line x1="230.2" y1="212.6" x2="251.2" y2="224.7" opacity="1.0" stroke="rgb(0,0,0)" stroke-width="2.0"/>
<line x1="260.0" y1="221.5" x2="260.0" y2="257.8" opacity="1.0" stroke="rgb(0,0,0)" stroke-width="2.0"/>
<line x1="260.0" y1="257.8" x2="228.6" y2="275.9" opacity="1.0" stroke="rgb(0,0,0)" stroke-width="2.0"/>
<line x1="251.2" y1="254.5" x2="230.2" y2="266.7" opacity="1.0" stroke="rgb(0,0,0)" stroke-width="2.0"/>
<line x1="291.5" y1="167.0" x2="291.5" y2="203.3" opacity="1.0" stroke="rgb(0,0,0)" stroke-width="2.0"/>
<line x1="284.3" y1="173.0" x2="284.3" y2="197.3" opacity="1.0" stroke="rgb(0,0,0)" stroke-width="2.0"/>
<line x1="291.5" y1="203.3" x2="260.0" y2="221.5" opacity="1.0" stroke="rgb(0,0,0)" stroke-width="2.0"/>
<line x1="228.6" y1="203.3" x2="228.6" y2="167.0" opacity="1.0" stroke="rgb(0,0,0)" stroke-width="2.0"/>
<line x1="228.6" y1="167.0" x2="260.0" y2="148.9" opacity="1.0" stroke="rgb(0,0,0)" stroke-width="2.0"/>
<line x1="237.4" y1="170.3" x2="258.4" y2="158.1" opacity="1.0" stroke="rgb(0,0,0)" stroke-width="2.0"/>
<line x1="260.0" y1="148.9" x2="291.5" y2="167.0" opacity="1.0" stroke="rgb(0,0,0)" stroke-width="2.0"/>
<line x1="102.9" y1="203.3" x2="71.4" y2="185.2" opacity="1.0" stroke="rgb(0,0,0)" stroke-width="2.0"/>
<line x1="71.4" y1="185.2" x2="71.4" y2="148.9" opacity="1.0" stroke="rgb(0,0,0)" stroke-width="2.0"/>
<line x1="78.6" y1="179.2" x2="78.6" y2="154.9" opacity="1.0" stroke="rgb(0,0,0)" stroke-width="2.0"/>
<line x1="71.4" y1="148.9" x2="102.9" y2="130.7" opacity="1.0" stroke="rgb(0,0,0)" stroke-width="2.0"/>
<line x1="102.9" y1="130.7" x2="134.3" y2="148.9" opacity="1.0" stroke="rgb(0,0,0)" stroke-width="2.0"/>
<line x1="104.5" y1="140.0" x2="125.5" y2="152.1" opacity="1.0" stroke="rgb(0,0,0)" stroke-width="2.0"/>
<line x1="134.3" y1="148.9" x2="134.3" y2="185.2" opacity="1.0" stroke="rgb(0,0,0)" stroke-width="2.0"/>
<line x1="134.3" y1="185.2" x2="102.9" y2="203.3" opacity="1.0" stroke="rgb(0,0,0)" stroke-width="2.0"/>
<line x1="125.5" y1="181.9" x2="104.5" y2="194.1" opacity="1.0" stroke="rgb(0,0,0)" stroke-width="2.0"/>
<text x="14.000000" y="138.740741" fill="rgb(102,102,102)" stroke-width="0" font-weight="bold" font-size="16">H</text>
<text x="26.000000" y="142.420741" fill="rgb(102,102,102)" stroke-width="0" font-weight="bold" font-size="13">3</text>
<text x="32.500000" y="138.740741" fill="rgb(102,102,102)" stroke-width="0" font-weight="bold" font-size="16">C</text>
<text x="285.468117" y="283.925926" fill="rgb(12,12,255)" stroke-width="0" font-weight="bold" font-size="16">N</text>
<text x="442.635691" y="193.185185" fill="rgb(12,12,255)" stroke-width="0" font-weight="bold" font-size="16">N</text>
</svg>
</g>
</svg>