<svg xmlns="http://www.w3.org/2000/svg" x="0" y="0" viewBox="0 0 100 100">
<title>J_6_L - Open Babel Depiction</title>
<rect x="0" y="0" width="100" height="100" fill="white"/>
<g transform="translate(0,0)">
<svg width="100" height="100" x="0" y="0" viewBox="0 0 641.792 463.158" font-family="sans-serif" stroke="rgb(0,0,0)" stroke-width="2" stroke-linecap="round">
<line x1="324.4" y1="113.0" x2="324.4" y2="173.0" opacity="1.0" stroke="rgb(0,0,0)" stroke-width="2.0"/>
<line x1="313.2" y1="192.5" x2="261.2" y2="222.5" opacity="1.0" stroke="rgb(0,0,0)" stroke-width="2.0"/>
<line x1="155.2" y1="270.7" x2="103.2" y2="240.7" opacity="1.0" stroke="rgb(0,0,0)" stroke-width="2.0"/>
<line x1="166.4" y1="290.2" x2="166.4" y2="350.2" opacity="1.0" stroke="rgb(0,0,0)" stroke-width="2.0"/>
<line x1="198.0" y1="258.9" x2="177.7" y2="270.7" opacity="1.0" stroke="rgb(0,0,0)" stroke-width="2.0"/>
<line x1="335.7" y1="192.5" x2="356.0" y2="204.2" opacity="1.0" stroke="rgb(0,0,0)" stroke-width="2.0"/>
<line x1="419.2" y1="240.7" x2="482.4" y2="277.2" opacity="1.0" stroke="rgb(0,0,0)" stroke-width="2.0"/>
<line x1="601.8" y1="295.4" x2="580.3" y2="265.9" opacity="1.0" stroke="rgb(0,0,0)" stroke-width="2.0"/>
<line x1="592.4" y1="294.8" x2="578.0" y2="275.0" opacity="1.0" stroke="rgb(0,0,0)" stroke-width="2.0"/>
<line x1="580.3" y1="265.9" x2="545.6" y2="277.2" opacity="1.0" stroke="rgb(0,0,0)" stroke-width="2.0"/>
<line x1="545.6" y1="277.2" x2="545.6" y2="313.7" opacity="1.0" stroke="rgb(0,0,0)" stroke-width="2.0"/>
<line x1="545.6" y1="313.7" x2="568.0" y2="320.9" opacity="1.0" stroke="rgb(0,0,0)" stroke-width="2.0"/>
<line x1="588.0" y1="314.4" x2="601.8" y2="295.4" opacity="1.0" stroke="rgb(0,0,0)" stroke-width="2.0"/>
<line x1="356.0" y1="58.2" x2="356.0" y2="94.7" opacity="1.0" stroke="rgb(0,0,0)" stroke-width="2.0"/>
<line x1="356.0" y1="94.7" x2="324.4" y2="113.0" opacity="1.0" stroke="rgb(0,0,0)" stroke-width="2.0"/>
<line x1="347.2" y1="91.5" x2="326.0" y2="103.7" opacity="1.0" stroke="rgb(0,0,0)" stroke-width="2.0"/>
<line x1="324.4" y1="113.0" x2="292.8" y2="94.7" opacity="1.0" stroke="rgb(0,0,0)" stroke-width="2.0"/>
<line x1="292.8" y1="94.7" x2="292.8" y2="58.2" opacity="1.0" stroke="rgb(0,0,0)" stroke-width="2.0"/>
<line x1="300.0" y1="88.7" x2="300.0" y2="64.2" opacity="1.0" stroke="rgb(0,0,0)" stroke-width="2.0"/>
<line x1="292.8" y1="58.2" x2="324.4" y2="40.0" opacity="1.0" stroke="rgb(0,0,0)" stroke-width="2.0"/>
<line x1="324.4" y1="40.0" x2="356.0" y2="58.2" opacity="1.0" stroke="rgb(0,0,0)" stroke-width="2.0"/>
<line x1="326.0" y1="49.2" x2="347.2" y2="61.5" opacity="1.0" stroke="rgb(0,0,0)" stroke-width="2.0"/>
<line x1="261.2" y1="258.9" x2="229.6" y2="277.2" opacity="1.0" stroke="rgb(0,0,0)" stroke-width="2.0"/>
<line x1="229.6" y1="277.2" x2="198.0" y2="258.9" opacity="1.0" stroke="rgb(0,0,0)" stroke-width="2.0"/>
<line x1="228.0" y1="268.0" x2="206.8" y2="255.7" opacity="1.0" stroke="rgb(0,0,0)" stroke-width="2.0"/>
<line x1="198.0" y1="258.9" x2="198.0" y2="222.5" opacity="1.0" stroke="rgb(0,0,0)" stroke-width="2.0"/>
<line x1="198.0" y1="222.5" x2="229.6" y2="204.2" opacity="1.0" stroke="rgb(0,0,0)" stroke-width="2.0"/>
<line x1="206.8" y1="225.7" x2="228.0" y2="213.4" opacity="1.0" stroke="rgb(0,0,0)" stroke-width="2.0"/>
<line x1="229.6" y1="204.2" x2="261.2" y2="222.5" opacity="1.0" stroke="rgb(0,0,0)" stroke-width="2.0"/>
<line x1="261.2" y1="222.5" x2="261.2" y2="258.9" opacity="1.0" stroke="rgb(0,0,0)" stroke-width="2.0"/>
<line x1="254.0" y1="228.5" x2="254.0" y2="252.9" opacity="1.0" stroke="rgb(0,0,0)" stroke-width="2.0"/>
<line x1="198.0" y1="368.4" x2="166.4" y2="350.2" opacity="1.0" stroke="rgb(0,0,0)" stroke-width="2.0"/>
<line x1="189.2" y1="371.7" x2="168.0" y2="359.4" opacity="1.0" stroke="rgb(0,0,0)" stroke-width="2.0"/>
<line x1="166.4" y1="350.2" x2="134.8" y2="368.4" opacity="1.0" stroke="rgb(0,0,0)" stroke-width="2.0"/>
<line x1="134.8" y1="368.4" x2="134.8" y2="404.9" opacity="1.0" stroke="rgb(0,0,0)" stroke-width="2.0"/>
<line x1="142.0" y1="374.4" x2="142.0" y2="398.9" opacity="1.0" stroke="rgb(0,0,0)" stroke-width="2.0"/>
<line x1="134.8" y1="404.9" x2="166.4" y2="423.2" opacity="1.0" stroke="rgb(0,0,0)" stroke-width="2.0"/>
<line x1="166.4" y1="423.2" x2="198.0" y2="404.9" opacity="1.0" stroke="rgb(0,0,0)" stroke-width="2.0"/>
<line x1="168.0" y1="413.9" x2="189.2" y2="401.7" opacity="1.0" stroke="rgb(0,0,0)" stroke-width="2.0"/>
<line x1="198.0" y1="404.9" x2="198.0" y2="368.4" opacity="1.0" stroke="rgb(0,0,0)" stroke-width="2.0"/>
<line x1="71.6" y1="258.9" x2="103.2" y2="240.7" opacity="1.0" stroke="rgb(0,0,0)" stroke-width="2.0"/>
<line x1="73.2" y1="249.7" x2="94.4" y2="237.5" opacity="1.0" stroke="rgb(0,0,0)" stroke-width="2.0"/>
<line x1="103.2" y1="240.7" x2="103.2" y2="204.2" opacity="1.0" stroke="rgb(0,0,0)" stroke-width="2.0"/>
<line x1="103.2" y1="204.2" x2="71.6" y2="186.0" opacity="1.0" stroke="rgb(0,0,0)" stroke-width="2.0"/>
<line x1="94.4" y1="207.4" x2="73.2" y2="195.2" opacity="1.0" stroke="rgb(0,0,0)" stroke-width="2.0"/>
<line x1="71.6" y1="186.0" x2="40.0" y2="204.2" opacity="1.0" stroke="rgb(0,0,0)" stroke-width="2.0"/>
<line x1="40.0" y1="204.2" x2="40.0" y2="240.7" opacity="1.0" stroke="rgb(0,0,0)" stroke-width="2.0"/>
<line x1="47.2" y1="210.2" x2="47.2" y2="234.7" opacity="1.0" stroke="rgb(0,0,0)" stroke-width="2.0"/>
<line x1="40.0" y1="240.7" x2="71.6" y2="258.9" opacity="1.0" stroke="rgb(0,0,0)" stroke-width="2.0"/>
<line x1="387.6" y1="186.0" x2="419.2" y2="204.2" opacity="1.0" stroke="rgb(0,0,0)" stroke-width="2.0"/>
<line x1="419.2" y1="204.2" x2="419.2" y2="240.7" opacity="1.0" stroke="rgb(0,0,0)" stroke-width="2.0"/>
<line x1="412.0" y1="210.2" x2="412.0" y2="234.7" opacity="1.0" stroke="rgb(0,0,0)" stroke-width="2.0"/>
<line x1="419.2" y1="240.7" x2="387.6" y2="258.9" opacity="1.0" stroke="rgb(0,0,0)" stroke-width="2.0"/>
<line x1="387.6" y1="258.9" x2="356.0" y2="240.7" opacity="1.0" stroke="rgb(0,0,0)" stroke-width="2.0"/>
<line x1="386.0" y1="249.7" x2="364.8" y2="237.5" opacity="1.0" stroke="rgb(0,0,0)" stroke-width="2.0"/>
<line x1="356.0" y1="240.7" x2="356.0" y2="204.2" opacity="1.0" stroke="rgb(0,0,0)" stroke-width="2.0"/>
<line x1="356.0" y1="204.2" x2="387.6" y2="186.0" opacity="1.0" stroke="rgb(0,0,0)" stroke-width="2.0"/>
<line x1="364.8" y1="207.4" x2="386.0" y2="195.2" opacity="1.0" stroke="rgb(0,0,0)" stroke-width="2.0"/>
<line x1="324.4" y1="295.4" x2="324.4" y2="258.9" opacity="1.0" stroke="rgb(0,0,0)" stroke-width="2.0"/>
<line x1="331.6" y1="289.4" x2="331.6" y2="264.9" opacity="1.0" stroke="rgb(0,0,0)" stroke-width="2.0"/>
<line x1="324.4" y1="258.9" x2="356.0" y2="240.7" opacity="1.0" stroke="rgb(0,0,0)" stroke-width="2.0"/>
<line x1="387.6" y1="258.9" x2="387.6" y2="295.4" opacity="1.0" stroke="rgb(0,0,0)" stroke-width="2.0"/>
<line x1="387.6" y1="295.4" x2="356.0" y2="313.7" opacity="1.0" stroke="rgb(0,0,0)" stroke-width="2.0"/>
<line x1="378.8" y1="292.2" x2="357.6" y2="304.4" opacity="1.0" stroke="rgb(0,0,0)" stroke-width="2.0"/>
<line x1="356.0" y1="313.7" x2="324.4" y2="295.4" opacity="1.0" stroke="rgb(0,0,0)" stroke-width="2.0"/>
<line x1="482.4" y1="313.7" x2="514.0" y2="331.9" opacity="1.0" stroke="rgb(0,0,0)" stroke-width="2.0"/>
<line x1="514.0" y1="331.9" x2="545.6" y2="313.7" opacity="1.0" stroke="rgb(0,0,0)" stroke-width="2.0"/>
<line x1="515.6" y1="322.7" x2="536.8" y2="310.4" opacity="1.0" stroke="rgb(0,0,0)" stroke-width="2.0"/>
<line x1="545.6" y1="277.2" x2="514.0" y2="258.9" opacity="1.0" stroke="rgb(0,0,0)" stroke-width="2.0"/>
<line x1="536.8" y1="280.4" x2="515.6" y2="268.2" opacity="1.0" stroke="rgb(0,0,0)" stroke-width="2.0"/>
<line x1="514.0" y1="258.9" x2="482.4" y2="277.2" opacity="1.0" stroke="rgb(0,0,0)" stroke-width="2.0"/>
<line x1="482.4" y1="277.2" x2="482.4" y2="313.7" opacity="1.0" stroke="rgb(0,0,0)" stroke-width="2.0"/>
<line x1="489.6" y1="283.2" x2="489.6" y2="307.7" opacity="1.0" stroke="rgb(0,0,0)" stroke-width="2.0"/>
<text x="574.342509" y="332.960620" fill="rgb(12,12,255)" stroke-width="0" font-weight="bold" font-size="16">N</text>
<text x="574.342509" y="348.960620" fill="rgb(12,12,255)" stroke-width="0" font-weight="bold" font-size="16">H</text>
<text x="318.420975" y="193.964912" fill="rgb(12,12,255)" stroke-width="0" font-weight="bold" font-size="16">N</text>
<text x="160.409322" y="285.192982" fill="rgb(12,12,255)" stroke-width="0" font-weight="bold" font-size="16">N</text>
</svg>
</g>
</svg>
