<svg xmlns="http://www.w3.org/2000/svg" x="0" y="0" viewBox="0 0 100 100">
<title>J_6_M - Open Babel Depiction</title>
<rect x="0" y="0" width="100" height="100" fill="white"/>
<g transform="translate(0,0)">
<svg width="100" height="100" x="0" y="0" viewBox="0 0 646.853 461.818" font-family="sans-serif" stroke="rgb(0,0,0)" stroke-width="2" stroke-linecap="round">
<line x1="323.4" y1="349.1" x2="323.4" y2="289.4" opacity="1.0" stroke="rgb(0,0,0)" stroke-width="2.0"/>
<line x1="334.7" y1="269.9" x2="386.4" y2="240.0" opacity="1.0" stroke="rgb(0,0,0)" stroke-width="2.0"/>
<line x1="492.1" y1="192.0" x2="543.9" y2="221.8" opacity="1.0" stroke="rgb(0,0,0)" stroke-width="2.0"/>
<line x1="480.9" y1="172.5" x2="480.9" y2="112.7" opacity="1.0" stroke="rgb(0,0,0)" stroke-width="2.0"/>
<line x1="449.4" y1="203.6" x2="469.6" y2="192.0" opacity="1.0" stroke="rgb(0,0,0)" stroke-width="2.0"/>
<line x1="312.2" y1="269.9" x2="291.9" y2="258.2" opacity="1.0" stroke="rgb(0,0,0)" stroke-width="2.0"/>
<line x1="71.5" y1="130.9" x2="51.3" y2="119.2" opacity="1.0" stroke="rgb(0,0,0)" stroke-width="2.0"/>
<line x1="69.4" y1="134.5" x2="49.2" y2="122.9" opacity="1.0" stroke="rgb(0,0,0)" stroke-width="2.0"/>
<line x1="73.6" y1="127.3" x2="53.4" y2="115.6" opacity="1.0" stroke="rgb(0,0,0)" stroke-width="2.0"/>
<line x1="103.0" y1="149.1" x2="71.5" y2="130.9" opacity="1.0" stroke="rgb(0,0,0)" stroke-width="2.0"/>
<line x1="229.0" y1="221.8" x2="166.0" y2="185.5" opacity="1.0" stroke="rgb(0,0,0)" stroke-width="2.0"/>
<line x1="291.9" y1="403.6" x2="291.9" y2="367.3" opacity="1.0" stroke="rgb(0,0,0)" stroke-width="2.0"/>
<line x1="291.9" y1="367.3" x2="323.4" y2="349.1" opacity="1.0" stroke="rgb(0,0,0)" stroke-width="2.0"/>
<line x1="300.7" y1="370.5" x2="321.8" y2="358.3" opacity="1.0" stroke="rgb(0,0,0)" stroke-width="2.0"/>
<line x1="323.4" y1="349.1" x2="354.9" y2="367.3" opacity="1.0" stroke="rgb(0,0,0)" stroke-width="2.0"/>
<line x1="354.9" y1="367.3" x2="354.9" y2="403.6" opacity="1.0" stroke="rgb(0,0,0)" stroke-width="2.0"/>
<line x1="347.7" y1="373.3" x2="347.7" y2="397.6" opacity="1.0" stroke="rgb(0,0,0)" stroke-width="2.0"/>
<line x1="354.9" y1="403.6" x2="323.4" y2="421.8" opacity="1.0" stroke="rgb(0,0,0)" stroke-width="2.0"/>
<line x1="323.4" y1="421.8" x2="291.9" y2="403.6" opacity="1.0" stroke="rgb(0,0,0)" stroke-width="2.0"/>
<line x1="321.8" y1="412.6" x2="300.7" y2="400.4" opacity="1.0" stroke="rgb(0,0,0)" stroke-width="2.0"/>
<line x1="386.4" y1="203.6" x2="417.9" y2="185.5" opacity="1.0" stroke="rgb(0,0,0)" stroke-width="2.0"/>
<line x1="417.9" y1="185.5" x2="449.4" y2="203.6" opacity="1.0" stroke="rgb(0,0,0)" stroke-width="2.0"/>
<line x1="419.5" y1="194.7" x2="440.6" y2="206.9" opacity="1.0" stroke="rgb(0,0,0)" stroke-width="2.0"/>
<line x1="449.4" y1="203.6" x2="449.4" y2="240.0" opacity="1.0" stroke="rgb(0,0,0)" stroke-width="2.0"/>
<line x1="449.4" y1="240.0" x2="417.9" y2="258.2" opacity="1.0" stroke="rgb(0,0,0)" stroke-width="2.0"/>
<line x1="440.6" y1="236.8" x2="419.5" y2="248.9" opacity="1.0" stroke="rgb(0,0,0)" stroke-width="2.0"/>
<line x1="417.9" y1="258.2" x2="386.4" y2="240.0" opacity="1.0" stroke="rgb(0,0,0)" stroke-width="2.0"/>
<line x1="386.4" y1="240.0" x2="386.4" y2="203.6" opacity="1.0" stroke="rgb(0,0,0)" stroke-width="2.0"/>
<line x1="393.6" y1="234.0" x2="393.6" y2="209.6" opacity="1.0" stroke="rgb(0,0,0)" stroke-width="2.0"/>
<line x1="449.4" y1="94.5" x2="480.9" y2="112.7" opacity="1.0" stroke="rgb(0,0,0)" stroke-width="2.0"/>
<line x1="458.2" y1="91.3" x2="479.3" y2="103.5" opacity="1.0" stroke="rgb(0,0,0)" stroke-width="2.0"/>
<line x1="480.9" y1="112.7" x2="512.4" y2="94.5" opacity="1.0" stroke="rgb(0,0,0)" stroke-width="2.0"/>
<line x1="512.4" y1="94.5" x2="512.4" y2="58.2" opacity="1.0" stroke="rgb(0,0,0)" stroke-width="2.0"/>
<line x1="505.2" y1="88.5" x2="505.2" y2="64.2" opacity="1.0" stroke="rgb(0,0,0)" stroke-width="2.0"/>
<line x1="512.4" y1="58.2" x2="480.9" y2="40.0" opacity="1.0" stroke="rgb(0,0,0)" stroke-width="2.0"/>
<line x1="480.9" y1="40.0" x2="449.4" y2="58.2" opacity="1.0" stroke="rgb(0,0,0)" stroke-width="2.0"/>
<line x1="479.3" y1="49.2" x2="458.2" y2="61.4" opacity="1.0" stroke="rgb(0,0,0)" stroke-width="2.0"/>
<line x1="449.4" y1="58.2" x2="449.4" y2="94.5" opacity="1.0" stroke="rgb(0,0,0)" stroke-width="2.0"/>
<line x1="575.4" y1="203.6" x2="543.9" y2="221.8" opacity="1.0" stroke="rgb(0,0,0)" stroke-width="2.0"/>
<line x1="573.8" y1="212.9" x2="552.7" y2="225.1" opacity="1.0" stroke="rgb(0,0,0)" stroke-width="2.0"/>
<line x1="543.9" y1="221.8" x2="543.9" y2="258.2" opacity="1.0" stroke="rgb(0,0,0)" stroke-width="2.0"/>
<line x1="543.9" y1="258.2" x2="575.4" y2="276.4" opacity="1.0" stroke="rgb(0,0,0)" stroke-width="2.0"/>
<line x1="552.7" y1="254.9" x2="573.8" y2="267.1" opacity="1.0" stroke="rgb(0,0,0)" stroke-width="2.0"/>
<line x1="575.4" y1="276.4" x2="606.9" y2="258.2" opacity="1.0" stroke="rgb(0,0,0)" stroke-width="2.0"/>
<line x1="606.9" y1="258.2" x2="606.9" y2="221.8" opacity="1.0" stroke="rgb(0,0,0)" stroke-width="2.0"/>
<line x1="599.7" y1="252.2" x2="599.7" y2="227.8" opacity="1.0" stroke="rgb(0,0,0)" stroke-width="2.0"/>
<line x1="606.9" y1="221.8" x2="575.4" y2="203.6" opacity="1.0" stroke="rgb(0,0,0)" stroke-width="2.0"/>
<line x1="260.4" y1="276.4" x2="229.0" y2="258.2" opacity="1.0" stroke="rgb(0,0,0)" stroke-width="2.0"/>
<line x1="229.0" y1="258.2" x2="229.0" y2="221.8" opacity="1.0" stroke="rgb(0,0,0)" stroke-width="2.0"/>
<line x1="236.2" y1="252.2" x2="236.2" y2="227.8" opacity="1.0" stroke="rgb(0,0,0)" stroke-width="2.0"/>
<line x1="229.0" y1="221.8" x2="260.4" y2="203.6" opacity="1.0" stroke="rgb(0,0,0)" stroke-width="2.0"/>
<line x1="260.4" y1="203.6" x2="291.9" y2="221.8" opacity="1.0" stroke="rgb(0,0,0)" stroke-width="2.0"/>
<line x1="262.0" y1="212.9" x2="283.1" y2="225.1" opacity="1.0" stroke="rgb(0,0,0)" stroke-width="2.0"/>
<line x1="291.9" y1="221.8" x2="291.9" y2="258.2" opacity="1.0" stroke="rgb(0,0,0)" stroke-width="2.0"/>
<line x1="291.9" y1="258.2" x2="260.4" y2="276.4" opacity="1.0" stroke="rgb(0,0,0)" stroke-width="2.0"/>
<line x1="283.1" y1="254.9" x2="262.0" y2="267.1" opacity="1.0" stroke="rgb(0,0,0)" stroke-width="2.0"/>
<line x1="323.4" y1="167.3" x2="323.4" y2="203.6" opacity="1.0" stroke="rgb(0,0,0)" stroke-width="2.0"/>
<line x1="316.2" y1="173.3" x2="316.2" y2="197.6" opacity="1.0" stroke="rgb(0,0,0)" stroke-width="2.0"/>
<line x1="323.4" y1="203.6" x2="291.9" y2="221.8" opacity="1.0" stroke="rgb(0,0,0)" stroke-width="2.0"/>
<line x1="260.4" y1="203.6" x2="260.4" y2="167.3" opacity="1.0" stroke="rgb(0,0,0)" stroke-width="2.0"/>
<line x1="260.4" y1="167.3" x2="291.9" y2="149.1" opacity="1.0" stroke="rgb(0,0,0)" stroke-width="2.0"/>
<line x1="269.2" y1="170.5" x2="290.3" y2="158.3" opacity="1.0" stroke="rgb(0,0,0)" stroke-width="2.0"/>
<line x1="291.9" y1="149.1" x2="323.4" y2="167.3" opacity="1.0" stroke="rgb(0,0,0)" stroke-width="2.0"/>
<line x1="134.5" y1="203.6" x2="103.0" y2="185.5" opacity="1.0" stroke="rgb(0,0,0)" stroke-width="2.0"/>
<line x1="103.0" y1="185.5" x2="103.0" y2="149.1" opacity="1.0" stroke="rgb(0,0,0)" stroke-width="2.0"/>
<line x1="110.2" y1="179.5" x2="110.2" y2="155.1" opacity="1.0" stroke="rgb(0,0,0)" stroke-width="2.0"/>
<line x1="103.0" y1="149.1" x2="134.5" y2="130.9" opacity="1.0" stroke="rgb(0,0,0)" stroke-width="2.0"/>
<line x1="134.5" y1="130.9" x2="166.0" y2="149.1" opacity="1.0" stroke="rgb(0,0,0)" stroke-width="2.0"/>
<line x1="136.1" y1="140.1" x2="157.2" y2="152.3" opacity="1.0" stroke="rgb(0,0,0)" stroke-width="2.0"/>
<line x1="166.0" y1="149.1" x2="166.0" y2="185.5" opacity="1.0" stroke="rgb(0,0,0)" stroke-width="2.0"/>
<line x1="166.0" y1="185.5" x2="134.5" y2="203.6" opacity="1.0" stroke="rgb(0,0,0)" stroke-width="2.0"/>
<line x1="157.2" y1="182.2" x2="136.1" y2="194.4" opacity="1.0" stroke="rgb(0,0,0)" stroke-width="2.0"/>
<text x="34.000000" y="120.727273" fill="rgb(12,12,255)" stroke-width="0" font-weight="bold" font-size="16">N</text>
<text x="317.426496" y="284.363636" fill="rgb(12,12,255)" stroke-width="0" font-weight="bold" font-size="16">N</text>
<text x="474.885660" y="193.454545" fill="rgb(12,12,255)" stroke-width="0" font-weight="bold" font-size="16">N</text>
</svg>
</g>
</svg>
