<svg xmlns="http://www.w3.org/2000/svg" x="0" y="0" viewBox="0 0 100 100">
<title>J_6_N - Open Babel Depiction</title>
<rect x="0" y="0" width="100" height="100" fill="white"/>
<g transform="translate(0,0)">
<svg width="100" height="100" x="0" y="0" viewBox="0 0 553.355 467.059" font-family="sans-serif" stroke="rgb(0,0,0)" stroke-width="2" stroke-linecap="round">
<line x1="226.0" y1="353.3" x2="226.0" y2="292.6" opacity="1.0" stroke="rgb(0,0,0)" stroke-width="2.0"/>
<line x1="237.3" y1="273.1" x2="289.9" y2="242.7" opacity="1.0" stroke="rgb(0,0,0)" stroke-width="2.0"/>
<line x1="396.9" y1="194.0" x2="449.5" y2="224.3" opacity="1.0" stroke="rgb(0,0,0)" stroke-width="2.0"/>
<line x1="385.7" y1="174.5" x2="385.7" y2="113.7" opacity="1.0" stroke="rgb(0,0,0)" stroke-width="2.0"/>
<line x1="353.7" y1="205.9" x2="374.4" y2="194.0" opacity="1.0" stroke="rgb(0,0,0)" stroke-width="2.0"/>
<line x1="214.8" y1="273.1" x2="194.1" y2="261.2" opacity="1.0" stroke="rgb(0,0,0)" stroke-width="2.0"/>
<line x1="130.3" y1="224.3" x2="98.3" y2="205.9" opacity="1.0" stroke="rgb(0,0,0)" stroke-width="2.0"/>
<line x1="64.7" y1="220.9" x2="48.7" y2="203.1" opacity="1.0" stroke="rgb(0,0,0)" stroke-width="2.0"/>
<line x1="46.5" y1="182.2" x2="58.4" y2="161.6" opacity="1.0" stroke="rgb(0,0,0)" stroke-width="2.0"/>
<line x1="58.4" y1="161.6" x2="94.5" y2="169.2" opacity="1.0" stroke="rgb(0,0,0)" stroke-width="2.0"/>
<line x1="62.8" y1="169.8" x2="87.1" y2="175.0" opacity="1.0" stroke="rgb(0,0,0)" stroke-width="2.0"/>
<line x1="94.5" y1="169.2" x2="98.3" y2="205.9" opacity="1.0" stroke="rgb(0,0,0)" stroke-width="2.0"/>
<line x1="98.3" y1="205.9" x2="64.7" y2="220.9" opacity="1.0" stroke="rgb(0,0,0)" stroke-width="2.0"/>
<line x1="89.9" y1="201.7" x2="67.2" y2="211.9" opacity="1.0" stroke="rgb(0,0,0)" stroke-width="2.0"/>
<line x1="194.1" y1="408.6" x2="194.1" y2="371.8" opacity="1.0" stroke="rgb(0,0,0)" stroke-width="2.0"/>
<line x1="194.1" y1="371.8" x2="226.0" y2="353.3" opacity="1.0" stroke="rgb(0,0,0)" stroke-width="2.0"/>
<line x1="202.9" y1="375.0" x2="224.4" y2="362.6" opacity="1.0" stroke="rgb(0,0,0)" stroke-width="2.0"/>
<line x1="226.0" y1="353.3" x2="258.0" y2="371.8" opacity="1.0" stroke="rgb(0,0,0)" stroke-width="2.0"/>
<line x1="258.0" y1="371.8" x2="258.0" y2="408.6" opacity="1.0" stroke="rgb(0,0,0)" stroke-width="2.0"/>
<line x1="250.8" y1="377.8" x2="250.8" y2="402.6" opacity="1.0" stroke="rgb(0,0,0)" stroke-width="2.0"/>
<line x1="258.0" y1="408.6" x2="226.0" y2="427.1" opacity="1.0" stroke="rgb(0,0,0)" stroke-width="2.0"/>
<line x1="226.0" y1="427.1" x2="194.1" y2="408.6" opacity="1.0" stroke="rgb(0,0,0)" stroke-width="2.0"/>
<line x1="224.4" y1="417.8" x2="202.9" y2="405.4" opacity="1.0" stroke="rgb(0,0,0)" stroke-width="2.0"/>
<line x1="289.9" y1="205.9" x2="321.8" y2="187.5" opacity="1.0" stroke="rgb(0,0,0)" stroke-width="2.0"/>
<line x1="321.8" y1="187.5" x2="353.7" y2="205.9" opacity="1.0" stroke="rgb(0,0,0)" stroke-width="2.0"/>
<line x1="323.4" y1="196.7" x2="344.9" y2="209.1" opacity="1.0" stroke="rgb(0,0,0)" stroke-width="2.0"/>
<line x1="353.7" y1="205.9" x2="353.7" y2="242.7" opacity="1.0" stroke="rgb(0,0,0)" stroke-width="2.0"/>
<line x1="353.7" y1="242.7" x2="321.8" y2="261.2" opacity="1.0" stroke="rgb(0,0,0)" stroke-width="2.0"/>
<line x1="344.9" y1="239.5" x2="323.4" y2="251.9" opacity="1.0" stroke="rgb(0,0,0)" stroke-width="2.0"/>
<line x1="321.8" y1="261.2" x2="289.9" y2="242.7" opacity="1.0" stroke="rgb(0,0,0)" stroke-width="2.0"/>
<line x1="289.9" y1="242.7" x2="289.9" y2="205.9" opacity="1.0" stroke="rgb(0,0,0)" stroke-width="2.0"/>
<line x1="297.1" y1="236.7" x2="297.1" y2="211.9" opacity="1.0" stroke="rgb(0,0,0)" stroke-width="2.0"/>
<line x1="353.7" y1="95.3" x2="385.7" y2="113.7" opacity="1.0" stroke="rgb(0,0,0)" stroke-width="2.0"/>
<line x1="362.5" y1="92.1" x2="384.1" y2="104.5" opacity="1.0" stroke="rgb(0,0,0)" stroke-width="2.0"/>
<line x1="385.7" y1="113.7" x2="417.6" y2="95.3" opacity="1.0" stroke="rgb(0,0,0)" stroke-width="2.0"/>
<line x1="417.6" y1="95.3" x2="417.6" y2="58.4" opacity="1.0" stroke="rgb(0,0,0)" stroke-width="2.0"/>
<line x1="410.4" y1="89.3" x2="410.4" y2="64.4" opacity="1.0" stroke="rgb(0,0,0)" stroke-width="2.0"/>
<line x1="417.6" y1="58.4" x2="385.7" y2="40.0" opacity="1.0" stroke="rgb(0,0,0)" stroke-width="2.0"/>
<line x1="385.7" y1="40.0" x2="353.7" y2="58.4" opacity="1.0" stroke="rgb(0,0,0)" stroke-width="2.0"/>
<line x1="384.1" y1="49.2" x2="362.5" y2="61.7" opacity="1.0" stroke="rgb(0,0,0)" stroke-width="2.0"/>
<line x1="353.7" y1="58.4" x2="353.7" y2="95.3" opacity="1.0" stroke="rgb(0,0,0)" stroke-width="2.0"/>
<line x1="481.4" y1="205.9" x2="449.5" y2="224.3" opacity="1.0" stroke="rgb(0,0,0)" stroke-width="2.0"/>
<line x1="479.8" y1="215.1" x2="458.3" y2="227.5" opacity="1.0" stroke="rgb(0,0,0)" stroke-width="2.0"/>
<line x1="449.5" y1="224.3" x2="449.5" y2="261.2" opacity="1.0" stroke="rgb(0,0,0)" stroke-width="2.0"/>
<line x1="449.5" y1="261.2" x2="481.4" y2="279.6" opacity="1.0" stroke="rgb(0,0,0)" stroke-width="2.0"/>
<line x1="458.3" y1="257.9" x2="479.8" y2="270.4" opacity="1.0" stroke="rgb(0,0,0)" stroke-width="2.0"/>
<line x1="481.4" y1="279.6" x2="513.4" y2="261.2" opacity="1.0" stroke="rgb(0,0,0)" stroke-width="2.0"/>
<line x1="513.4" y1="261.2" x2="513.4" y2="224.3" opacity="1.0" stroke="rgb(0,0,0)" stroke-width="2.0"/>
<line x1="506.2" y1="255.2" x2="506.2" y2="230.3" opacity="1.0" stroke="rgb(0,0,0)" stroke-width="2.0"/>
<line x1="513.4" y1="224.3" x2="481.4" y2="205.9" opacity="1.0" stroke="rgb(0,0,0)" stroke-width="2.0"/>
<line x1="162.2" y1="279.6" x2="130.3" y2="261.2" opacity="1.0" stroke="rgb(0,0,0)" stroke-width="2.0"/>
<line x1="130.3" y1="261.2" x2="130.3" y2="224.3" opacity="1.0" stroke="rgb(0,0,0)" stroke-width="2.0"/>
<line x1="137.5" y1="255.2" x2="137.5" y2="230.3" opacity="1.0" stroke="rgb(0,0,0)" stroke-width="2.0"/>
<line x1="130.3" y1="224.3" x2="162.2" y2="205.9" opacity="1.0" stroke="rgb(0,0,0)" stroke-width="2.0"/>
<line x1="162.2" y1="205.9" x2="194.1" y2="224.3" opacity="1.0" stroke="rgb(0,0,0)" stroke-width="2.0"/>
<line x1="163.8" y1="215.1" x2="185.3" y2="227.5" opacity="1.0" stroke="rgb(0,0,0)" stroke-width="2.0"/>
<line x1="194.1" y1="224.3" x2="194.1" y2="261.2" opacity="1.0" stroke="rgb(0,0,0)" stroke-width="2.0"/>
<line x1="194.1" y1="261.2" x2="162.2" y2="279.6" opacity="1.0" stroke="rgb(0,0,0)" stroke-width="2.0"/>
<line x1="185.3" y1="257.9" x2="163.8" y2="270.4" opacity="1.0" stroke="rgb(0,0,0)" stroke-width="2.0"/>
<line x1="226.0" y1="169.0" x2="226.0" y2="205.9" opacity="1.0" stroke="rgb(0,0,0)" stroke-width="2.0"/>
<line x1="218.8" y1="175.0" x2="218.8" y2="199.9" opacity="1.0" stroke="rgb(0,0,0)" stroke-width="2.0"/>
<line x1="226.0" y1="205.9" x2="194.1" y2="224.3" opacity="1.0" stroke="rgb(0,0,0)" stroke-width="2.0"/>
<line x1="162.2" y1="205.9" x2="162.2" y2="169.0" opacity="1.0" stroke="rgb(0,0,0)" stroke-width="2.0"/>
<line x1="162.2" y1="169.0" x2="194.1" y2="150.6" opacity="1.0" stroke="rgb(0,0,0)" stroke-width="2.0"/>
<line x1="171.0" y1="172.3" x2="192.5" y2="159.8" opacity="1.0" stroke="rgb(0,0,0)" stroke-width="2.0"/>
<line x1="194.1" y1="150.6" x2="226.0" y2="169.0" opacity="1.0" stroke="rgb(0,0,0)" stroke-width="2.0"/>
<text x="34.000000" y="201.481424" fill="rgb(178,178,0)" stroke-width="0" font-weight="bold" font-size="16">S</text>
<text x="220.038079" y="287.607843" fill="rgb(12,12,255)" stroke-width="0" font-weight="bold" font-size="16">N</text>
<text x="379.658448" y="195.450980" fill="rgb(12,12,255)" stroke-width="0" font-weight="bold" font-size="16">N</text>
</svg>
</g>
</svg>
