<svg xmlns="http://www.w3.org/2000/svg" x="0" y="0" viewBox="0 0 100 100">
<title>J_6_S - Open Babel Depiction</title>
<rect x="0" y="0" width="100" height="100" fill="white"/>
<g transform="translate(0,0)">
<svg width="100" height="100" x="0" y="0" viewBox="0 0 647.865 462.5" font-family="sans-serif" stroke="rgb(0,0,0)" stroke-width="2" stroke-linecap="round">
<line x1="323.9" y1="349.6" x2="323.9" y2="289.8" opacity="1.0" stroke="rgb(0,0,0)" stroke-width="2.0"/>
<line x1="335.2" y1="270.3" x2="387.0" y2="240.4" opacity="1.0" stroke="rgb(0,0,0)" stroke-width="2.0"/>
<line x1="492.9" y1="192.2" x2="544.8" y2="222.1" opacity="1.0" stroke="rgb(0,0,0)" stroke-width="2.0"/>
<line x1="481.7" y1="172.7" x2="481.7" y2="112.9" opacity="1.0" stroke="rgb(0,0,0)" stroke-width="2.0"/>
<line x1="450.1" y1="203.9" x2="470.4" y2="192.2" opacity="1.0" stroke="rgb(0,0,0)" stroke-width="2.0"/>
<line x1="312.7" y1="270.3" x2="292.4" y2="258.6" opacity="1.0" stroke="rgb(0,0,0)" stroke-width="2.0"/>
<line x1="103.1" y1="149.3" x2="71.5" y2="131.1" opacity="1.0" stroke="rgb(0,0,0)" stroke-width="2.0"/>
<line x1="71.5" y1="131.1" x2="71.5" y2="107.6" opacity="1.0" stroke="rgb(0,0,0)" stroke-width="2.0"/>
<line x1="73.0" y1="133.7" x2="52.8" y2="145.4" opacity="1.0" stroke="rgb(0,0,0)" stroke-width="2.0"/>
<line x1="70.0" y1="128.5" x2="49.8" y2="140.2" opacity="1.0" stroke="rgb(0,0,0)" stroke-width="2.0"/>
<line x1="229.3" y1="222.1" x2="166.2" y2="185.7" opacity="1.0" stroke="rgb(0,0,0)" stroke-width="2.0"/>
<line x1="292.4" y1="404.3" x2="292.4" y2="367.9" opacity="1.0" stroke="rgb(0,0,0)" stroke-width="2.0"/>
<line x1="292.4" y1="367.9" x2="323.9" y2="349.6" opacity="1.0" stroke="rgb(0,0,0)" stroke-width="2.0"/>
<line x1="301.2" y1="371.1" x2="322.3" y2="358.9" opacity="1.0" stroke="rgb(0,0,0)" stroke-width="2.0"/>
<line x1="323.9" y1="349.6" x2="355.5" y2="367.9" opacity="1.0" stroke="rgb(0,0,0)" stroke-width="2.0"/>
<line x1="355.5" y1="367.9" x2="355.5" y2="404.3" opacity="1.0" stroke="rgb(0,0,0)" stroke-width="2.0"/>
<line x1="348.3" y1="373.9" x2="348.3" y2="398.3" opacity="1.0" stroke="rgb(0,0,0)" stroke-width="2.0"/>
<line x1="355.5" y1="404.3" x2="323.9" y2="422.5" opacity="1.0" stroke="rgb(0,0,0)" stroke-width="2.0"/>
<line x1="323.9" y1="422.5" x2="292.4" y2="404.3" opacity="1.0" stroke="rgb(0,0,0)" stroke-width="2.0"/>
<line x1="322.3" y1="413.3" x2="301.2" y2="401.1" opacity="1.0" stroke="rgb(0,0,0)" stroke-width="2.0"/>
<line x1="387.0" y1="203.9" x2="418.6" y2="185.7" opacity="1.0" stroke="rgb(0,0,0)" stroke-width="2.0"/>
<line x1="418.6" y1="185.7" x2="450.1" y2="203.9" opacity="1.0" stroke="rgb(0,0,0)" stroke-width="2.0"/>
<line x1="420.2" y1="194.9" x2="441.3" y2="207.2" opacity="1.0" stroke="rgb(0,0,0)" stroke-width="2.0"/>
<line x1="450.1" y1="203.9" x2="450.1" y2="240.4" opacity="1.0" stroke="rgb(0,0,0)" stroke-width="2.0"/>
<line x1="450.1" y1="240.4" x2="418.6" y2="258.6" opacity="1.0" stroke="rgb(0,0,0)" stroke-width="2.0"/>
<line x1="441.3" y1="237.1" x2="420.2" y2="249.3" opacity="1.0" stroke="rgb(0,0,0)" stroke-width="2.0"/>
<line x1="418.6" y1="258.6" x2="387.0" y2="240.4" opacity="1.0" stroke="rgb(0,0,0)" stroke-width="2.0"/>
<line x1="387.0" y1="240.4" x2="387.0" y2="203.9" opacity="1.0" stroke="rgb(0,0,0)" stroke-width="2.0"/>
<line x1="394.2" y1="234.4" x2="394.2" y2="209.9" opacity="1.0" stroke="rgb(0,0,0)" stroke-width="2.0"/>
<line x1="450.1" y1="94.6" x2="481.7" y2="112.9" opacity="1.0" stroke="rgb(0,0,0)" stroke-width="2.0"/>
<line x1="458.9" y1="91.4" x2="480.1" y2="103.6" opacity="1.0" stroke="rgb(0,0,0)" stroke-width="2.0"/>
<line x1="481.7" y1="112.9" x2="513.2" y2="94.6" opacity="1.0" stroke="rgb(0,0,0)" stroke-width="2.0"/>
<line x1="513.2" y1="94.6" x2="513.2" y2="58.2" opacity="1.0" stroke="rgb(0,0,0)" stroke-width="2.0"/>
<line x1="506.0" y1="88.6" x2="506.0" y2="64.2" opacity="1.0" stroke="rgb(0,0,0)" stroke-width="2.0"/>
<line x1="513.2" y1="58.2" x2="481.7" y2="40.0" opacity="1.0" stroke="rgb(0,0,0)" stroke-width="2.0"/>
<line x1="481.7" y1="40.0" x2="450.1" y2="58.2" opacity="1.0" stroke="rgb(0,0,0)" stroke-width="2.0"/>
<line x1="480.1" y1="49.2" x2="458.9" y2="61.4" opacity="1.0" stroke="rgb(0,0,0)" stroke-width="2.0"/>
<line x1="450.1" y1="58.2" x2="450.1" y2="94.6" opacity="1.0" stroke="rgb(0,0,0)" stroke-width="2.0"/>
<line x1="576.3" y1="203.9" x2="544.8" y2="222.1" opacity="1.0" stroke="rgb(0,0,0)" stroke-width="2.0"/>
<line x1="574.7" y1="213.2" x2="553.6" y2="225.4" opacity="1.0" stroke="rgb(0,0,0)" stroke-width="2.0"/>
<line x1="544.8" y1="222.1" x2="544.8" y2="258.6" opacity="1.0" stroke="rgb(0,0,0)" stroke-width="2.0"/>
<line x1="544.8" y1="258.6" x2="576.3" y2="276.8" opacity="1.0" stroke="rgb(0,0,0)" stroke-width="2.0"/>
<line x1="553.6" y1="255.3" x2="574.7" y2="267.6" opacity="1.0" stroke="rgb(0,0,0)" stroke-width="2.0"/>
<line x1="576.3" y1="276.8" x2="607.9" y2="258.6" opacity="1.0" stroke="rgb(0,0,0)" stroke-width="2.0"/>
<line x1="607.9" y1="258.6" x2="607.9" y2="222.1" opacity="1.0" stroke="rgb(0,0,0)" stroke-width="2.0"/>
<line x1="600.7" y1="252.6" x2="600.7" y2="228.1" opacity="1.0" stroke="rgb(0,0,0)" stroke-width="2.0"/>
<line x1="607.9" y1="222.1" x2="576.3" y2="203.9" opacity="1.0" stroke="rgb(0,0,0)" stroke-width="2.0"/>
<line x1="260.8" y1="276.8" x2="229.3" y2="258.6" opacity="1.0" stroke="rgb(0,0,0)" stroke-width="2.0"/>
<line x1="229.3" y1="258.6" x2="229.3" y2="222.1" opacity="1.0" stroke="rgb(0,0,0)" stroke-width="2.0"/>
<line x1="236.5" y1="252.6" x2="236.5" y2="228.1" opacity="1.0" stroke="rgb(0,0,0)" stroke-width="2.0"/>
<line x1="229.3" y1="222.1" x2="260.8" y2="203.9" opacity="1.0" stroke="rgb(0,0,0)" stroke-width="2.0"/>
<line x1="260.8" y1="203.9" x2="292.4" y2="222.1" opacity="1.0" stroke="rgb(0,0,0)" stroke-width="2.0"/>
<line x1="262.4" y1="213.2" x2="283.6" y2="225.4" opacity="1.0" stroke="rgb(0,0,0)" stroke-width="2.0"/>
<line x1="292.4" y1="222.1" x2="292.4" y2="258.6" opacity="1.0" stroke="rgb(0,0,0)" stroke-width="2.0"/>
<line x1="292.4" y1="258.6" x2="260.8" y2="276.8" opacity="1.0" stroke="rgb(0,0,0)" stroke-width="2.0"/>
<line x1="283.6" y1="255.3" x2="262.4" y2="267.6" opacity="1.0" stroke="rgb(0,0,0)" stroke-width="2.0"/>
<line x1="323.9" y1="167.5" x2="323.9" y2="203.9" opacity="1.0" stroke="rgb(0,0,0)" stroke-width="2.0"/>
<line x1="316.7" y1="173.5" x2="316.7" y2="197.9" opacity="1.0" stroke="rgb(0,0,0)" stroke-width="2.0"/>
<line x1="323.9" y1="203.9" x2="292.4" y2="222.1" opacity="1.0" stroke="rgb(0,0,0)" stroke-width="2.0"/>
<line x1="260.8" y1="203.9" x2="260.8" y2="167.5" opacity="1.0" stroke="rgb(0,0,0)" stroke-width="2.0"/>
<line x1="260.8" y1="167.5" x2="292.4" y2="149.3" opacity="1.0" stroke="rgb(0,0,0)" stroke-width="2.0"/>
<line x1="269.6" y1="170.7" x2="290.8" y2="158.5" opacity="1.0" stroke="rgb(0,0,0)" stroke-width="2.0"/>
<line x1="292.4" y1="149.3" x2="323.9" y2="167.5" opacity="1.0" stroke="rgb(0,0,0)" stroke-width="2.0"/>
<line x1="134.6" y1="203.9" x2="103.1" y2="185.7" opacity="1.0" stroke="rgb(0,0,0)" stroke-width="2.0"/>
<line x1="103.1" y1="185.7" x2="103.1" y2="149.3" opacity="1.0" stroke="rgb(0,0,0)" stroke-width="2.0"/>
<line x1="110.3" y1="179.7" x2="110.3" y2="155.3" opacity="1.0" stroke="rgb(0,0,0)" stroke-width="2.0"/>
<line x1="103.1" y1="149.3" x2="134.6" y2="131.1" opacity="1.0" stroke="rgb(0,0,0)" stroke-width="2.0"/>
<line x1="134.6" y1="131.1" x2="166.2" y2="149.3" opacity="1.0" stroke="rgb(0,0,0)" stroke-width="2.0"/>
<line x1="136.2" y1="140.3" x2="157.4" y2="152.5" opacity="1.0" stroke="rgb(0,0,0)" stroke-width="2.0"/>
<line x1="166.2" y1="149.3" x2="166.2" y2="185.7" opacity="1.0" stroke="rgb(0,0,0)" stroke-width="2.0"/>
<line x1="166.2" y1="185.7" x2="134.6" y2="203.9" opacity="1.0" stroke="rgb(0,0,0)" stroke-width="2.0"/>
<line x1="157.4" y1="182.5" x2="136.2" y2="194.7" opacity="1.0" stroke="rgb(0,0,0)" stroke-width="2.0"/>
<text x="67.548068" y="102.642857" fill="rgb(102,102,102)" stroke-width="0" font-weight="bold" font-size="16">CH</text>
<text x="91.548068" y="106.322857" fill="rgb(102,102,102)" stroke-width="0" font-weight="bold" font-size="13">3</text>
<text x="34.000000" y="157.285714" fill="rgb(255,12,12)" stroke-width="0" font-weight="bold" font-size="16">O</text>
<text x="317.932615" y="284.785714" fill="rgb(12,12,255)" stroke-width="0" font-weight="bold" font-size="16">N</text>
<text x="475.672956" y="193.714286" fill="rgb(12,12,255)" stroke-width="0" font-weight="bold" font-size="16">N</text>
</svg>
</g>
</svg>
