<svg xmlns="http://www.w3.org/2000/svg" xmlns:xlink="http://www.w3.org/1999/xlink" xmlns:cml="http://www.xml-cml.org/schema" version="1.1" id="topsvg" x="0" y="0" viewBox="0 0 100 100">
<title>J_6_P - Open Babel Depiction</title>
<rect x="0" y="0" width="100" height="100" fill="white"/>
<g transform="translate(0,0)">
<svg width="100" height="100" x="0" y="0" viewBox="0 0 615.361 461.818" font-family="sans-serif" stroke="rgb(0,0,0)" stroke-width="2" stroke-linecap="round">
<line x1="291.9" y1="349.1" x2="291.9" y2="289.4" opacity="1.0" stroke="rgb(0,0,0)" stroke-width="2.0"/>
<line x1="303.2" y1="269.9" x2="354.9" y2="240.0" opacity="1.0" stroke="rgb(0,0,0)" stroke-width="2.0"/>
<line x1="460.7" y1="192.0" x2="512.4" y2="221.8" opacity="1.0" stroke="rgb(0,0,0)" stroke-width="2.0"/>
<line x1="449.4" y1="172.5" x2="449.4" y2="112.7" opacity="1.0" stroke="rgb(0,0,0)" stroke-width="2.0"/>
<line x1="417.9" y1="203.6" x2="438.1" y2="192.0" opacity="1.0" stroke="rgb(0,0,0)" stroke-width="2.0"/>
<line x1="280.7" y1="269.9" x2="260.4" y2="258.2" opacity="1.0" stroke="rgb(0,0,0)" stroke-width="2.0"/>
<line x1="40.0" y1="117.9" x2="40.0" y2="107.5" opacity="1.0" stroke="rgb(0,0,0)" stroke-width="2.0"/>
<line x1="71.5" y1="149.1" x2="51.3" y2="137.4" opacity="1.0" stroke="rgb(0,0,0)" stroke-width="2.0"/>
<line x1="197.5" y1="221.8" x2="134.5" y2="185.5" opacity="1.0" stroke="rgb(0,0,0)" stroke-width="2.0"/>
<line x1="260.4" y1="403.6" x2="260.4" y2="367.3" opacity="1.0" stroke="rgb(0,0,0)" stroke-width="2.0"/>
<line x1="260.4" y1="367.3" x2="291.9" y2="349.1" opacity="1.0" stroke="rgb(0,0,0)" stroke-width="2.0"/>
<line x1="269.2" y1="370.5" x2="290.3" y2="358.3" opacity="1.0" stroke="rgb(0,0,0)" stroke-width="2.0"/>
<line x1="291.9" y1="349.1" x2="323.4" y2="367.3" opacity="1.0" stroke="rgb(0,0,0)" stroke-width="2.0"/>
<line x1="323.4" y1="367.3" x2="323.4" y2="403.6" opacity="1.0" stroke="rgb(0,0,0)" stroke-width="2.0"/>
<line x1="316.2" y1="373.3" x2="316.2" y2="397.6" opacity="1.0" stroke="rgb(0,0,0)" stroke-width="2.0"/>
<line x1="323.4" y1="403.6" x2="291.9" y2="421.8" opacity="1.0" stroke="rgb(0,0,0)" stroke-width="2.0"/>
<line x1="291.9" y1="421.8" x2="260.4" y2="403.6" opacity="1.0" stroke="rgb(0,0,0)" stroke-width="2.0"/>
<line x1="290.3" y1="412.6" x2="269.2" y2="400.4" opacity="1.0" stroke="rgb(0,0,0)" stroke-width="2.0"/>
<line x1="354.9" y1="203.6" x2="386.4" y2="185.5" opacity="1.0" stroke="rgb(0,0,0)" stroke-width="2.0"/>
<line x1="386.4" y1="185.5" x2="417.9" y2="203.6" opacity="1.0" stroke="rgb(0,0,0)" stroke-width="2.0"/>
<line x1="388.0" y1="194.7" x2="409.1" y2="206.9" opacity="1.0" stroke="rgb(0,0,0)" stroke-width="2.0"/>
<line x1="417.9" y1="203.6" x2="417.9" y2="240.0" opacity="1.0" stroke="rgb(0,0,0)" stroke-width="2.0"/>
<line x1="417.9" y1="240.0" x2="386.4" y2="258.2" opacity="1.0" stroke="rgb(0,0,0)" stroke-width="2.0"/>
<line x1="409.1" y1="236.8" x2="388.0" y2="248.9" opacity="1.0" stroke="rgb(0,0,0)" stroke-width="2.0"/>
<line x1="386.4" y1="258.2" x2="354.9" y2="240.0" opacity="1.0" stroke="rgb(0,0,0)" stroke-width="2.0"/>
<line x1="354.9" y1="240.0" x2="354.9" y2="203.6" opacity="1.0" stroke="rgb(0,0,0)" stroke-width="2.0"/>
<line x1="362.1" y1="234.0" x2="362.1" y2="209.6" opacity="1.0" stroke="rgb(0,0,0)" stroke-width="2.0"/>
<line x1="417.9" y1="94.5" x2="449.4" y2="112.7" opacity="1.0" stroke="rgb(0,0,0)" stroke-width="2.0"/>
<line x1="426.7" y1="91.3" x2="447.8" y2="103.5" opacity="1.0" stroke="rgb(0,0,0)" stroke-width="2.0"/>
<line x1="449.4" y1="112.7" x2="480.9" y2="94.5" opacity="1.0" stroke="rgb(0,0,0)" stroke-width="2.0"/>
<line x1="480.9" y1="94.5" x2="480.9" y2="58.2" opacity="1.0" stroke="rgb(0,0,0)" stroke-width="2.0"/>
<line x1="473.7" y1="88.5" x2="473.7" y2="64.2" opacity="1.0" stroke="rgb(0,0,0)" stroke-width="2.0"/>
<line x1="480.9" y1="58.2" x2="449.4" y2="40.0" opacity="1.0" stroke="rgb(0,0,0)" stroke-width="2.0"/>
<line x1="449.4" y1="40.0" x2="417.9" y2="58.2" opacity="1.0" stroke="rgb(0,0,0)" stroke-width="2.0"/>
<line x1="447.8" y1="49.2" x2="426.7" y2="61.4" opacity="1.0" stroke="rgb(0,0,0)" stroke-width="2.0"/>
<line x1="417.9" y1="58.2" x2="417.9" y2="94.5" opacity="1.0" stroke="rgb(0,0,0)" stroke-width="2.0"/>
<line x1="543.9" y1="203.6" x2="512.4" y2="221.8" opacity="1.0" stroke="rgb(0,0,0)" stroke-width="2.0"/>
<line x1="542.3" y1="212.9" x2="521.2" y2="225.1" opacity="1.0" stroke="rgb(0,0,0)" stroke-width="2.0"/>
<line x1="512.4" y1="221.8" x2="512.4" y2="258.2" opacity="1.0" stroke="rgb(0,0,0)" stroke-width="2.0"/>
<line x1="512.4" y1="258.2" x2="543.9" y2="276.4" opacity="1.0" stroke="rgb(0,0,0)" stroke-width="2.0"/>
<line x1="521.2" y1="254.9" x2="542.3" y2="267.1" opacity="1.0" stroke="rgb(0,0,0)" stroke-width="2.0"/>
<line x1="543.9" y1="276.4" x2="575.4" y2="258.2" opacity="1.0" stroke="rgb(0,0,0)" stroke-width="2.0"/>
<line x1="575.4" y1="258.2" x2="575.4" y2="221.8" opacity="1.0" stroke="rgb(0,0,0)" stroke-width="2.0"/>
<line x1="568.2" y1="252.2" x2="568.2" y2="227.8" opacity="1.0" stroke="rgb(0,0,0)" stroke-width="2.0"/>
<line x1="575.4" y1="221.8" x2="543.9" y2="203.6" opacity="1.0" stroke="rgb(0,0,0)" stroke-width="2.0"/>
<line x1="229.0" y1="276.4" x2="197.5" y2="258.2" opacity="1.0" stroke="rgb(0,0,0)" stroke-width="2.0"/>
<line x1="197.5" y1="258.2" x2="197.5" y2="221.8" opacity="1.0" stroke="rgb(0,0,0)" stroke-width="2.0"/>
<line x1="204.7" y1="252.2" x2="204.7" y2="227.8" opacity="1.0" stroke="rgb(0,0,0)" stroke-width="2.0"/>
<line x1="197.5" y1="221.8" x2="229.0" y2="203.6" opacity="1.0" stroke="rgb(0,0,0)" stroke-width="2.0"/>
<line x1="229.0" y1="203.6" x2="260.4" y2="221.8" opacity="1.0" stroke="rgb(0,0,0)" stroke-width="2.0"/>
<line x1="230.5" y1="212.9" x2="251.6" y2="225.1" opacity="1.0" stroke="rgb(0,0,0)" stroke-width="2.0"/>
<line x1="260.4" y1="221.8" x2="260.4" y2="258.2" opacity="1.0" stroke="rgb(0,0,0)" stroke-width="2.0"/>
<line x1="260.4" y1="258.2" x2="229.0" y2="276.4" opacity="1.0" stroke="rgb(0,0,0)" stroke-width="2.0"/>
<line x1="251.6" y1="254.9" x2="230.5" y2="267.1" opacity="1.0" stroke="rgb(0,0,0)" stroke-width="2.0"/>
<line x1="291.9" y1="167.3" x2="291.9" y2="203.6" opacity="1.0" stroke="rgb(0,0,0)" stroke-width="2.0"/>
<line x1="284.7" y1="173.3" x2="284.7" y2="197.6" opacity="1.0" stroke="rgb(0,0,0)" stroke-width="2.0"/>
<line x1="291.9" y1="203.6" x2="260.4" y2="221.8" opacity="1.0" stroke="rgb(0,0,0)" stroke-width="2.0"/>
<line x1="229.0" y1="203.6" x2="229.0" y2="167.3" opacity="1.0" stroke="rgb(0,0,0)" stroke-width="2.0"/>
<line x1="229.0" y1="167.3" x2="260.4" y2="149.1" opacity="1.0" stroke="rgb(0,0,0)" stroke-width="2.0"/>
<line x1="237.7" y1="170.5" x2="258.8" y2="158.3" opacity="1.0" stroke="rgb(0,0,0)" stroke-width="2.0"/>
<line x1="260.4" y1="149.1" x2="291.9" y2="167.3" opacity="1.0" stroke="rgb(0,0,0)" stroke-width="2.0"/>
<line x1="103.0" y1="203.6" x2="71.5" y2="185.5" opacity="1.0" stroke="rgb(0,0,0)" stroke-width="2.0"/>
<line x1="71.5" y1="185.5" x2="71.5" y2="149.1" opacity="1.0" stroke="rgb(0,0,0)" stroke-width="2.0"/>
<line x1="78.7" y1="179.5" x2="78.7" y2="155.1" opacity="1.0" stroke="rgb(0,0,0)" stroke-width="2.0"/>
<line x1="71.5" y1="149.1" x2="103.0" y2="130.9" opacity="1.0" stroke="rgb(0,0,0)" stroke-width="2.0"/>
<line x1="103.0" y1="130.9" x2="134.5" y2="149.1" opacity="1.0" stroke="rgb(0,0,0)" stroke-width="2.0"/>
<line x1="104.6" y1="140.1" x2="125.7" y2="152.3" opacity="1.0" stroke="rgb(0,0,0)" stroke-width="2.0"/>
<line x1="134.5" y1="149.1" x2="134.5" y2="185.5" opacity="1.0" stroke="rgb(0,0,0)" stroke-width="2.0"/>
<line x1="134.5" y1="185.5" x2="103.0" y2="203.6" opacity="1.0" stroke="rgb(0,0,0)" stroke-width="2.0"/>
<line x1="125.7" y1="182.2" x2="104.6" y2="194.4" opacity="1.0" stroke="rgb(0,0,0)" stroke-width="2.0"/>
<text x="34.000000" y="138.909091" fill="rgb(255,12,12)" stroke-width="0" font-weight="bold" font-size="16">O</text>
<text x="36.000000" y="102.545455" fill="rgb(102,102,102)" stroke-width="0" font-weight="bold" font-size="16">CH</text>
<text x="60.000000" y="106.225455" fill="rgb(102,102,102)" stroke-width="0" font-weight="bold" font-size="13">3</text>
<text x="285.934663" y="284.363636" fill="rgb(12,12,255)" stroke-width="0" font-weight="bold" font-size="16">N</text>
<text x="443.393827" y="193.454545" fill="rgb(12,12,255)" stroke-width="0" font-weight="bold" font-size="16">N</text>
</svg>
</g>
</svg>