<svg xmlns="http://www.w3.org/2000/svg" xmlns:xlink="http://www.w3.org/1999/xlink" xmlns:cml="http://www.xml-cml.org/schema" version="1.1" id="topsvg" x="0" y="0" viewBox="0 0 100 100">
<title>J_6_O - Open Babel Depiction</title>
<rect x="0" y="0" width="100" height="100" fill="white"/>
<g transform="translate(0,0)">
<svg width="100" height="100" x="0" y="0" viewBox="0 0 559.645 467.692" font-family="sans-serif" stroke="rgb(0,0,0)" stroke-width="2" stroke-linecap="round">
<line x1="231.9" y1="353.8" x2="231.9" y2="293.0" opacity="1.0" stroke="rgb(0,0,0)" stroke-width="2.0"/>
<line x1="243.1" y1="273.5" x2="295.8" y2="243.1" opacity="1.0" stroke="rgb(0,0,0)" stroke-width="2.0"/>
<line x1="403.0" y1="194.2" x2="455.7" y2="224.6" opacity="1.0" stroke="rgb(0,0,0)" stroke-width="2.0"/>
<line x1="391.7" y1="174.7" x2="391.7" y2="113.8" opacity="1.0" stroke="rgb(0,0,0)" stroke-width="2.0"/>
<line x1="359.8" y1="206.2" x2="380.5" y2="194.2" opacity="1.0" stroke="rgb(0,0,0)" stroke-width="2.0"/>
<line x1="220.6" y1="273.5" x2="199.9" y2="261.5" opacity="1.0" stroke="rgb(0,0,0)" stroke-width="2.0"/>
<line x1="135.9" y1="224.6" x2="104.0" y2="206.2" opacity="1.0" stroke="rgb(0,0,0)" stroke-width="2.0"/>
<line x1="199.9" y1="409.2" x2="199.9" y2="372.3" opacity="1.0" stroke="rgb(0,0,0)" stroke-width="2.0"/>
<line x1="199.9" y1="372.3" x2="231.9" y2="353.8" opacity="1.0" stroke="rgb(0,0,0)" stroke-width="2.0"/>
<line x1="208.7" y1="375.5" x2="230.3" y2="363.1" opacity="1.0" stroke="rgb(0,0,0)" stroke-width="2.0"/>
<line x1="231.9" y1="353.8" x2="263.8" y2="372.3" opacity="1.0" stroke="rgb(0,0,0)" stroke-width="2.0"/>
<line x1="263.8" y1="372.3" x2="263.8" y2="409.2" opacity="1.0" stroke="rgb(0,0,0)" stroke-width="2.0"/>
<line x1="256.6" y1="378.3" x2="256.6" y2="403.2" opacity="1.0" stroke="rgb(0,0,0)" stroke-width="2.0"/>
<line x1="263.8" y1="409.2" x2="231.9" y2="427.7" opacity="1.0" stroke="rgb(0,0,0)" stroke-width="2.0"/>
<line x1="231.9" y1="427.7" x2="199.9" y2="409.2" opacity="1.0" stroke="rgb(0,0,0)" stroke-width="2.0"/>
<line x1="230.3" y1="418.5" x2="208.7" y2="406.0" opacity="1.0" stroke="rgb(0,0,0)" stroke-width="2.0"/>
<line x1="295.8" y1="206.2" x2="327.8" y2="187.7" opacity="1.0" stroke="rgb(0,0,0)" stroke-width="2.0"/>
<line x1="327.8" y1="187.7" x2="359.8" y2="206.2" opacity="1.0" stroke="rgb(0,0,0)" stroke-width="2.0"/>
<line x1="329.4" y1="196.9" x2="351.0" y2="209.4" opacity="1.0" stroke="rgb(0,0,0)" stroke-width="2.0"/>
<line x1="359.8" y1="206.2" x2="359.8" y2="243.1" opacity="1.0" stroke="rgb(0,0,0)" stroke-width="2.0"/>
<line x1="359.8" y1="243.1" x2="327.8" y2="261.5" opacity="1.0" stroke="rgb(0,0,0)" stroke-width="2.0"/>
<line x1="351.0" y1="239.8" x2="329.4" y2="252.3" opacity="1.0" stroke="rgb(0,0,0)" stroke-width="2.0"/>
<line x1="327.8" y1="261.5" x2="295.8" y2="243.1" opacity="1.0" stroke="rgb(0,0,0)" stroke-width="2.0"/>
<line x1="295.8" y1="243.1" x2="295.8" y2="206.2" opacity="1.0" stroke="rgb(0,0,0)" stroke-width="2.0"/>
<line x1="303.0" y1="237.1" x2="303.0" y2="212.2" opacity="1.0" stroke="rgb(0,0,0)" stroke-width="2.0"/>
<line x1="359.8" y1="95.4" x2="391.7" y2="113.8" opacity="1.0" stroke="rgb(0,0,0)" stroke-width="2.0"/>
<line x1="368.6" y1="92.1" x2="390.1" y2="104.6" opacity="1.0" stroke="rgb(0,0,0)" stroke-width="2.0"/>
<line x1="391.7" y1="113.8" x2="423.7" y2="95.4" opacity="1.0" stroke="rgb(0,0,0)" stroke-width="2.0"/>
<line x1="423.7" y1="95.4" x2="423.7" y2="58.5" opacity="1.0" stroke="rgb(0,0,0)" stroke-width="2.0"/>
<line x1="416.5" y1="89.4" x2="416.5" y2="64.5" opacity="1.0" stroke="rgb(0,0,0)" stroke-width="2.0"/>
<line x1="423.7" y1="58.5" x2="391.7" y2="40.0" opacity="1.0" stroke="rgb(0,0,0)" stroke-width="2.0"/>
<line x1="391.7" y1="40.0" x2="359.8" y2="58.5" opacity="1.0" stroke="rgb(0,0,0)" stroke-width="2.0"/>
<line x1="390.1" y1="49.2" x2="368.6" y2="61.7" opacity="1.0" stroke="rgb(0,0,0)" stroke-width="2.0"/>
<line x1="359.8" y1="58.5" x2="359.8" y2="95.4" opacity="1.0" stroke="rgb(0,0,0)" stroke-width="2.0"/>
<line x1="487.7" y1="206.2" x2="455.7" y2="224.6" opacity="1.0" stroke="rgb(0,0,0)" stroke-width="2.0"/>
<line x1="486.1" y1="215.4" x2="464.5" y2="227.9" opacity="1.0" stroke="rgb(0,0,0)" stroke-width="2.0"/>
<line x1="455.7" y1="224.6" x2="455.7" y2="261.5" opacity="1.0" stroke="rgb(0,0,0)" stroke-width="2.0"/>
<line x1="455.7" y1="261.5" x2="487.7" y2="280.0" opacity="1.0" stroke="rgb(0,0,0)" stroke-width="2.0"/>
<line x1="464.5" y1="258.3" x2="486.1" y2="270.8" opacity="1.0" stroke="rgb(0,0,0)" stroke-width="2.0"/>
<line x1="487.7" y1="280.0" x2="519.6" y2="261.5" opacity="1.0" stroke="rgb(0,0,0)" stroke-width="2.0"/>
<line x1="519.6" y1="261.5" x2="519.6" y2="224.6" opacity="1.0" stroke="rgb(0,0,0)" stroke-width="2.0"/>
<line x1="512.4" y1="255.5" x2="512.4" y2="230.6" opacity="1.0" stroke="rgb(0,0,0)" stroke-width="2.0"/>
<line x1="519.6" y1="224.6" x2="487.7" y2="206.2" opacity="1.0" stroke="rgb(0,0,0)" stroke-width="2.0"/>
<line x1="167.9" y1="280.0" x2="135.9" y2="261.5" opacity="1.0" stroke="rgb(0,0,0)" stroke-width="2.0"/>
<line x1="135.9" y1="261.5" x2="135.9" y2="224.6" opacity="1.0" stroke="rgb(0,0,0)" stroke-width="2.0"/>
<line x1="143.1" y1="255.5" x2="143.1" y2="230.6" opacity="1.0" stroke="rgb(0,0,0)" stroke-width="2.0"/>
<line x1="135.9" y1="224.6" x2="167.9" y2="206.2" opacity="1.0" stroke="rgb(0,0,0)" stroke-width="2.0"/>
<line x1="167.9" y1="206.2" x2="199.9" y2="224.6" opacity="1.0" stroke="rgb(0,0,0)" stroke-width="2.0"/>
<line x1="169.5" y1="215.4" x2="191.1" y2="227.9" opacity="1.0" stroke="rgb(0,0,0)" stroke-width="2.0"/>
<line x1="199.9" y1="224.6" x2="199.9" y2="261.5" opacity="1.0" stroke="rgb(0,0,0)" stroke-width="2.0"/>
<line x1="199.9" y1="261.5" x2="167.9" y2="280.0" opacity="1.0" stroke="rgb(0,0,0)" stroke-width="2.0"/>
<line x1="191.1" y1="258.3" x2="169.5" y2="270.8" opacity="1.0" stroke="rgb(0,0,0)" stroke-width="2.0"/>
<line x1="231.9" y1="169.2" x2="231.9" y2="206.2" opacity="1.0" stroke="rgb(0,0,0)" stroke-width="2.0"/>
<line x1="224.7" y1="175.2" x2="224.7" y2="200.2" opacity="1.0" stroke="rgb(0,0,0)" stroke-width="2.0"/>
<line x1="231.9" y1="206.2" x2="199.9" y2="224.6" opacity="1.0" stroke="rgb(0,0,0)" stroke-width="2.0"/>
<line x1="167.9" y1="206.2" x2="167.9" y2="169.2" opacity="1.0" stroke="rgb(0,0,0)" stroke-width="2.0"/>
<line x1="167.9" y1="169.2" x2="199.9" y2="150.8" opacity="1.0" stroke="rgb(0,0,0)" stroke-width="2.0"/>
<line x1="176.7" y1="172.5" x2="198.3" y2="160.0" opacity="1.0" stroke="rgb(0,0,0)" stroke-width="2.0"/>
<line x1="199.9" y1="150.8" x2="231.9" y2="169.2" opacity="1.0" stroke="rgb(0,0,0)" stroke-width="2.0"/>
<line x1="92.7" y1="162.7" x2="72.0" y2="150.8" opacity="1.0" stroke="rgb(0,0,0)" stroke-width="2.0"/>
<line x1="72.0" y1="150.8" x2="40.0" y2="169.2" opacity="1.0" stroke="rgb(0,0,0)" stroke-width="2.0"/>
<line x1="70.4" y1="160.0" x2="48.8" y2="172.5" opacity="1.0" stroke="rgb(0,0,0)" stroke-width="2.0"/>
<line x1="40.0" y1="169.2" x2="40.0" y2="206.2" opacity="1.0" stroke="rgb(0,0,0)" stroke-width="2.0"/>
<line x1="40.0" y1="206.2" x2="72.0" y2="224.6" opacity="1.0" stroke="rgb(0,0,0)" stroke-width="2.0"/>
<line x1="48.8" y1="202.9" x2="70.4" y2="215.4" opacity="1.0" stroke="rgb(0,0,0)" stroke-width="2.0"/>
<line x1="72.0" y1="224.6" x2="104.0" y2="206.2" opacity="1.0" stroke="rgb(0,0,0)" stroke-width="2.0"/>
<line x1="104.0" y1="206.2" x2="104.0" y2="181.4" opacity="1.0" stroke="rgb(0,0,0)" stroke-width="2.0"/>
<line x1="96.8" y1="200.2" x2="96.8" y2="183.7" opacity="1.0" stroke="rgb(0,0,0)" stroke-width="2.0"/>
<text x="97.952645" y="177.230769" fill="rgb(12,12,255)" stroke-width="0" font-weight="bold" font-size="16">N</text>
<text x="225.857936" y="288.000000" fill="rgb(12,12,255)" stroke-width="0" font-weight="bold" font-size="16">N</text>
<text x="385.739549" y="195.692308" fill="rgb(12,12,255)" stroke-width="0" font-weight="bold" font-size="16">N</text>
</svg>
</g>
</svg>