<svg xmlns="http://www.w3.org/2000/svg" xmlns:xlink="http://www.w3.org/1999/xlink" xmlns:cml="http://www.xml-cml.org/schema" version="1.1" id="topsvg" x="0" y="0" viewBox="0 0 100 100">
<title>J_7_Q - Open Babel Depiction</title>
<rect x="0" y="0" width="100" height="100" fill="white"/>
<g transform="translate(0,0)">
<svg width="100" height="100" x="0" y="0" viewBox="0 0 589.011 465.714" font-family="sans-serif" stroke="rgb(0,0,0)" stroke-width="2" stroke-linecap="round">
<line x1="262.7" y1="352.2" x2="262.7" y2="291.8" opacity="1.0" stroke="rgb(0,0,0)" stroke-width="2.0"/>
<line x1="274.0" y1="272.3" x2="326.3" y2="242.0" opacity="1.0" stroke="rgb(0,0,0)" stroke-width="2.0"/>
<line x1="433.0" y1="193.4" x2="485.4" y2="223.7" opacity="1.0" stroke="rgb(0,0,0)" stroke-width="2.0"/>
<line x1="421.8" y1="173.9" x2="421.8" y2="113.5" opacity="1.0" stroke="rgb(0,0,0)" stroke-width="2.0"/>
<line x1="389.9" y1="205.3" x2="410.5" y2="193.4" opacity="1.0" stroke="rgb(0,0,0)" stroke-width="2.0"/>
<line x1="167.3" y1="223.7" x2="135.4" y2="205.3" opacity="1.0" stroke="rgb(0,0,0)" stroke-width="2.0"/>
<line x1="132.4" y1="205.3" x2="132.4" y2="168.6" opacity="1.0" stroke="rgb(0,0,0)" stroke-width="2.0"/>
<line x1="138.4" y1="205.3" x2="138.4" y2="168.6" opacity="1.0" stroke="rgb(0,0,0)" stroke-width="2.0"/>
<line x1="251.4" y1="272.3" x2="230.9" y2="260.4" opacity="1.0" stroke="rgb(0,0,0)" stroke-width="2.0"/>
<line x1="135.4" y1="168.6" x2="103.6" y2="150.2" opacity="1.0" stroke="rgb(0,0,0)" stroke-width="2.0"/>
<line x1="230.9" y1="407.3" x2="230.9" y2="370.6" opacity="1.0" stroke="rgb(0,0,0)" stroke-width="2.0"/>
<line x1="230.9" y1="370.6" x2="262.7" y2="352.2" opacity="1.0" stroke="rgb(0,0,0)" stroke-width="2.0"/>
<line x1="239.7" y1="373.8" x2="261.1" y2="361.5" opacity="1.0" stroke="rgb(0,0,0)" stroke-width="2.0"/>
<line x1="262.7" y1="352.2" x2="294.5" y2="370.6" opacity="1.0" stroke="rgb(0,0,0)" stroke-width="2.0"/>
<line x1="294.5" y1="370.6" x2="294.5" y2="407.3" opacity="1.0" stroke="rgb(0,0,0)" stroke-width="2.0"/>
<line x1="287.3" y1="376.6" x2="287.3" y2="401.3" opacity="1.0" stroke="rgb(0,0,0)" stroke-width="2.0"/>
<line x1="294.5" y1="407.3" x2="262.7" y2="425.7" opacity="1.0" stroke="rgb(0,0,0)" stroke-width="2.0"/>
<line x1="262.7" y1="425.7" x2="230.9" y2="407.3" opacity="1.0" stroke="rgb(0,0,0)" stroke-width="2.0"/>
<line x1="261.1" y1="416.5" x2="239.7" y2="404.1" opacity="1.0" stroke="rgb(0,0,0)" stroke-width="2.0"/>
<line x1="326.3" y1="205.3" x2="358.1" y2="186.9" opacity="1.0" stroke="rgb(0,0,0)" stroke-width="2.0"/>
<line x1="358.1" y1="186.9" x2="389.9" y2="205.3" opacity="1.0" stroke="rgb(0,0,0)" stroke-width="2.0"/>
<line x1="359.7" y1="196.2" x2="381.1" y2="208.5" opacity="1.0" stroke="rgb(0,0,0)" stroke-width="2.0"/>
<line x1="389.9" y1="205.3" x2="389.9" y2="242.0" opacity="1.0" stroke="rgb(0,0,0)" stroke-width="2.0"/>
<line x1="389.9" y1="242.0" x2="358.1" y2="260.4" opacity="1.0" stroke="rgb(0,0,0)" stroke-width="2.0"/>
<line x1="381.1" y1="238.8" x2="359.7" y2="251.2" opacity="1.0" stroke="rgb(0,0,0)" stroke-width="2.0"/>
<line x1="358.1" y1="260.4" x2="326.3" y2="242.0" opacity="1.0" stroke="rgb(0,0,0)" stroke-width="2.0"/>
<line x1="326.3" y1="242.0" x2="326.3" y2="205.3" opacity="1.0" stroke="rgb(0,0,0)" stroke-width="2.0"/>
<line x1="333.5" y1="236.0" x2="333.5" y2="211.3" opacity="1.0" stroke="rgb(0,0,0)" stroke-width="2.0"/>
<line x1="389.9" y1="95.1" x2="421.8" y2="113.5" opacity="1.0" stroke="rgb(0,0,0)" stroke-width="2.0"/>
<line x1="398.7" y1="91.9" x2="420.2" y2="104.2" opacity="1.0" stroke="rgb(0,0,0)" stroke-width="2.0"/>
<line x1="421.8" y1="113.5" x2="453.6" y2="95.1" opacity="1.0" stroke="rgb(0,0,0)" stroke-width="2.0"/>
<line x1="453.6" y1="95.1" x2="453.6" y2="58.4" opacity="1.0" stroke="rgb(0,0,0)" stroke-width="2.0"/>
<line x1="446.4" y1="89.1" x2="446.4" y2="64.4" opacity="1.0" stroke="rgb(0,0,0)" stroke-width="2.0"/>
<line x1="453.6" y1="58.4" x2="421.8" y2="40.0" opacity="1.0" stroke="rgb(0,0,0)" stroke-width="2.0"/>
<line x1="421.8" y1="40.0" x2="389.9" y2="58.4" opacity="1.0" stroke="rgb(0,0,0)" stroke-width="2.0"/>
<line x1="420.2" y1="49.2" x2="398.7" y2="61.6" opacity="1.0" stroke="rgb(0,0,0)" stroke-width="2.0"/>
<line x1="389.9" y1="58.4" x2="389.9" y2="95.1" opacity="1.0" stroke="rgb(0,0,0)" stroke-width="2.0"/>
<line x1="517.2" y1="205.3" x2="485.4" y2="223.7" opacity="1.0" stroke="rgb(0,0,0)" stroke-width="2.0"/>
<line x1="515.6" y1="214.5" x2="494.2" y2="226.9" opacity="1.0" stroke="rgb(0,0,0)" stroke-width="2.0"/>
<line x1="485.4" y1="223.7" x2="485.4" y2="260.4" opacity="1.0" stroke="rgb(0,0,0)" stroke-width="2.0"/>
<line x1="485.4" y1="260.4" x2="517.2" y2="278.8" opacity="1.0" stroke="rgb(0,0,0)" stroke-width="2.0"/>
<line x1="494.2" y1="257.2" x2="515.6" y2="269.5" opacity="1.0" stroke="rgb(0,0,0)" stroke-width="2.0"/>
<line x1="517.2" y1="278.8" x2="549.0" y2="260.4" opacity="1.0" stroke="rgb(0,0,0)" stroke-width="2.0"/>
<line x1="549.0" y1="260.4" x2="549.0" y2="223.7" opacity="1.0" stroke="rgb(0,0,0)" stroke-width="2.0"/>
<line x1="541.8" y1="254.4" x2="541.8" y2="229.7" opacity="1.0" stroke="rgb(0,0,0)" stroke-width="2.0"/>
<line x1="549.0" y1="223.7" x2="517.2" y2="205.3" opacity="1.0" stroke="rgb(0,0,0)" stroke-width="2.0"/>
<line x1="199.1" y1="278.8" x2="167.3" y2="260.4" opacity="1.0" stroke="rgb(0,0,0)" stroke-width="2.0"/>
<line x1="167.3" y1="260.4" x2="167.3" y2="223.7" opacity="1.0" stroke="rgb(0,0,0)" stroke-width="2.0"/>
<line x1="174.5" y1="254.4" x2="174.5" y2="229.7" opacity="1.0" stroke="rgb(0,0,0)" stroke-width="2.0"/>
<line x1="167.3" y1="223.7" x2="199.1" y2="205.3" opacity="1.0" stroke="rgb(0,0,0)" stroke-width="2.0"/>
<line x1="199.1" y1="205.3" x2="230.9" y2="223.7" opacity="1.0" stroke="rgb(0,0,0)" stroke-width="2.0"/>
<line x1="200.7" y1="214.5" x2="222.1" y2="226.9" opacity="1.0" stroke="rgb(0,0,0)" stroke-width="2.0"/>
<line x1="230.9" y1="223.7" x2="230.9" y2="260.4" opacity="1.0" stroke="rgb(0,0,0)" stroke-width="2.0"/>
<line x1="230.9" y1="260.4" x2="199.1" y2="278.8" opacity="1.0" stroke="rgb(0,0,0)" stroke-width="2.0"/>
<line x1="222.1" y1="257.2" x2="200.7" y2="269.5" opacity="1.0" stroke="rgb(0,0,0)" stroke-width="2.0"/>
<line x1="60.6" y1="162.1" x2="40.0" y2="150.2" opacity="1.0" stroke="rgb(0,0,0)" stroke-width="2.0"/>
<line x1="40.0" y1="150.2" x2="40.0" y2="113.5" opacity="1.0" stroke="rgb(0,0,0)" stroke-width="2.0"/>
<line x1="47.2" y1="144.2" x2="47.2" y2="119.5" opacity="1.0" stroke="rgb(0,0,0)" stroke-width="2.0"/>
<line x1="40.0" y1="113.5" x2="60.6" y2="101.6" opacity="1.0" stroke="rgb(0,0,0)" stroke-width="2.0"/>
<line x1="82.3" y1="101.2" x2="103.6" y2="113.5" opacity="1.0" stroke="rgb(0,0,0)" stroke-width="2.0"/>
<line x1="80.7" y1="108.6" x2="94.8" y2="116.7" opacity="1.0" stroke="rgb(0,0,0)" stroke-width="2.0"/>
<line x1="103.6" y1="113.5" x2="103.6" y2="150.2" opacity="1.0" stroke="rgb(0,0,0)" stroke-width="2.0"/>
<line x1="103.6" y1="150.2" x2="82.3" y2="162.5" opacity="1.0" stroke="rgb(0,0,0)" stroke-width="2.0"/>
<line x1="94.8" y1="147.0" x2="80.7" y2="155.1" opacity="1.0" stroke="rgb(0,0,0)" stroke-width="2.0"/>
<text x="65.813178" y="176.571429" fill="rgb(12,12,255)" stroke-width="0" font-weight="bold" font-size="16">N</text>
<text x="65.813178" y="103.102041" fill="rgb(12,12,255)" stroke-width="0" font-weight="bold" font-size="16">N</text>
<text x="256.692247" y="286.775510" fill="rgb(12,12,255)" stroke-width="0" font-weight="bold" font-size="16">N</text>
<text x="415.758137" y="194.938776" fill="rgb(12,12,255)" stroke-width="0" font-weight="bold" font-size="16">N</text>
</svg>
</g>
</svg>