<svg xmlns="http://www.w3.org/2000/svg" x="0" y="0" viewBox="0 0 100 100">
<title>J_7_O - Open Babel Depiction</title>
<rect x="0" y="0" width="100" height="100" fill="white"/>
<g transform="translate(0,0)">
<svg width="100" height="100" x="0" y="0" viewBox="0 0 589.011 465.714" font-family="sans-serif" stroke="rgb(0,0,0)" stroke-width="2" stroke-linecap="round">
<line x1="326.3" y1="113.5" x2="326.3" y2="173.9" opacity="1.0" stroke="rgb(0,0,0)" stroke-width="2.0"/>
<line x1="315.1" y1="193.4" x2="262.7" y2="223.7" opacity="1.0" stroke="rgb(0,0,0)" stroke-width="2.0"/>
<line x1="156.0" y1="272.3" x2="103.6" y2="242.0" opacity="1.0" stroke="rgb(0,0,0)" stroke-width="2.0"/>
<line x1="167.3" y1="291.8" x2="167.3" y2="352.2" opacity="1.0" stroke="rgb(0,0,0)" stroke-width="2.0"/>
<line x1="199.1" y1="260.4" x2="178.5" y2="272.3" opacity="1.0" stroke="rgb(0,0,0)" stroke-width="2.0"/>
<line x1="421.8" y1="242.0" x2="453.6" y2="260.4" opacity="1.0" stroke="rgb(0,0,0)" stroke-width="2.0"/>
<line x1="456.6" y1="260.4" x2="456.6" y2="297.1" opacity="1.0" stroke="rgb(0,0,0)" stroke-width="2.0"/>
<line x1="450.6" y1="260.4" x2="450.6" y2="297.1" opacity="1.0" stroke="rgb(0,0,0)" stroke-width="2.0"/>
<line x1="337.6" y1="193.4" x2="358.1" y2="205.3" opacity="1.0" stroke="rgb(0,0,0)" stroke-width="2.0"/>
<line x1="453.6" y1="297.1" x2="485.4" y2="315.5" opacity="1.0" stroke="rgb(0,0,0)" stroke-width="2.0"/>
<line x1="358.1" y1="58.4" x2="358.1" y2="95.1" opacity="1.0" stroke="rgb(0,0,0)" stroke-width="2.0"/>
<line x1="358.1" y1="95.1" x2="326.3" y2="113.5" opacity="1.0" stroke="rgb(0,0,0)" stroke-width="2.0"/>
<line x1="349.3" y1="91.9" x2="327.9" y2="104.2" opacity="1.0" stroke="rgb(0,0,0)" stroke-width="2.0"/>
<line x1="326.3" y1="113.5" x2="294.5" y2="95.1" opacity="1.0" stroke="rgb(0,0,0)" stroke-width="2.0"/>
<line x1="294.5" y1="95.1" x2="294.5" y2="58.4" opacity="1.0" stroke="rgb(0,0,0)" stroke-width="2.0"/>
<line x1="301.7" y1="89.1" x2="301.7" y2="64.4" opacity="1.0" stroke="rgb(0,0,0)" stroke-width="2.0"/>
<line x1="294.5" y1="58.4" x2="326.3" y2="40.0" opacity="1.0" stroke="rgb(0,0,0)" stroke-width="2.0"/>
<line x1="326.3" y1="40.0" x2="358.1" y2="58.4" opacity="1.0" stroke="rgb(0,0,0)" stroke-width="2.0"/>
<line x1="327.9" y1="49.2" x2="349.3" y2="61.6" opacity="1.0" stroke="rgb(0,0,0)" stroke-width="2.0"/>
<line x1="262.7" y1="260.4" x2="230.9" y2="278.8" opacity="1.0" stroke="rgb(0,0,0)" stroke-width="2.0"/>
<line x1="230.9" y1="278.8" x2="199.1" y2="260.4" opacity="1.0" stroke="rgb(0,0,0)" stroke-width="2.0"/>
<line x1="229.3" y1="269.5" x2="207.9" y2="257.2" opacity="1.0" stroke="rgb(0,0,0)" stroke-width="2.0"/>
<line x1="199.1" y1="260.4" x2="199.1" y2="223.7" opacity="1.0" stroke="rgb(0,0,0)" stroke-width="2.0"/>
<line x1="199.1" y1="223.7" x2="230.9" y2="205.3" opacity="1.0" stroke="rgb(0,0,0)" stroke-width="2.0"/>
<line x1="207.9" y1="226.9" x2="229.3" y2="214.5" opacity="1.0" stroke="rgb(0,0,0)" stroke-width="2.0"/>
<line x1="230.9" y1="205.3" x2="262.7" y2="223.7" opacity="1.0" stroke="rgb(0,0,0)" stroke-width="2.0"/>
<line x1="262.7" y1="223.7" x2="262.7" y2="260.4" opacity="1.0" stroke="rgb(0,0,0)" stroke-width="2.0"/>
<line x1="255.5" y1="229.7" x2="255.5" y2="254.4" opacity="1.0" stroke="rgb(0,0,0)" stroke-width="2.0"/>
<line x1="199.1" y1="370.6" x2="167.3" y2="352.2" opacity="1.0" stroke="rgb(0,0,0)" stroke-width="2.0"/>
<line x1="190.3" y1="373.8" x2="168.8" y2="361.5" opacity="1.0" stroke="rgb(0,0,0)" stroke-width="2.0"/>
<line x1="167.3" y1="352.2" x2="135.4" y2="370.6" opacity="1.0" stroke="rgb(0,0,0)" stroke-width="2.0"/>
<line x1="135.4" y1="370.6" x2="135.4" y2="407.3" opacity="1.0" stroke="rgb(0,0,0)" stroke-width="2.0"/>
<line x1="142.6" y1="376.6" x2="142.6" y2="401.3" opacity="1.0" stroke="rgb(0,0,0)" stroke-width="2.0"/>
<line x1="135.4" y1="407.3" x2="167.3" y2="425.7" opacity="1.0" stroke="rgb(0,0,0)" stroke-width="2.0"/>
<line x1="167.3" y1="425.7" x2="199.1" y2="407.3" opacity="1.0" stroke="rgb(0,0,0)" stroke-width="2.0"/>
<line x1="168.8" y1="416.5" x2="190.3" y2="404.1" opacity="1.0" stroke="rgb(0,0,0)" stroke-width="2.0"/>
<line x1="199.1" y1="407.3" x2="199.1" y2="370.6" opacity="1.0" stroke="rgb(0,0,0)" stroke-width="2.0"/>
<line x1="71.8" y1="260.4" x2="103.6" y2="242.0" opacity="1.0" stroke="rgb(0,0,0)" stroke-width="2.0"/>
<line x1="73.4" y1="251.2" x2="94.8" y2="238.8" opacity="1.0" stroke="rgb(0,0,0)" stroke-width="2.0"/>
<line x1="103.6" y1="242.0" x2="103.6" y2="205.3" opacity="1.0" stroke="rgb(0,0,0)" stroke-width="2.0"/>
<line x1="103.6" y1="205.3" x2="71.8" y2="186.9" opacity="1.0" stroke="rgb(0,0,0)" stroke-width="2.0"/>
<line x1="94.8" y1="208.5" x2="73.4" y2="196.2" opacity="1.0" stroke="rgb(0,0,0)" stroke-width="2.0"/>
<line x1="71.8" y1="186.9" x2="40.0" y2="205.3" opacity="1.0" stroke="rgb(0,0,0)" stroke-width="2.0"/>
<line x1="40.0" y1="205.3" x2="40.0" y2="242.0" opacity="1.0" stroke="rgb(0,0,0)" stroke-width="2.0"/>
<line x1="47.2" y1="211.3" x2="47.2" y2="236.0" opacity="1.0" stroke="rgb(0,0,0)" stroke-width="2.0"/>
<line x1="40.0" y1="242.0" x2="71.8" y2="260.4" opacity="1.0" stroke="rgb(0,0,0)" stroke-width="2.0"/>
<line x1="389.9" y1="186.9" x2="421.8" y2="205.3" opacity="1.0" stroke="rgb(0,0,0)" stroke-width="2.0"/>
<line x1="421.8" y1="205.3" x2="421.8" y2="242.0" opacity="1.0" stroke="rgb(0,0,0)" stroke-width="2.0"/>
<line x1="414.6" y1="211.3" x2="414.6" y2="236.0" opacity="1.0" stroke="rgb(0,0,0)" stroke-width="2.0"/>
<line x1="421.8" y1="242.0" x2="389.9" y2="260.4" opacity="1.0" stroke="rgb(0,0,0)" stroke-width="2.0"/>
<line x1="389.9" y1="260.4" x2="358.1" y2="242.0" opacity="1.0" stroke="rgb(0,0,0)" stroke-width="2.0"/>
<line x1="388.3" y1="251.2" x2="366.9" y2="238.8" opacity="1.0" stroke="rgb(0,0,0)" stroke-width="2.0"/>
<line x1="358.1" y1="242.0" x2="358.1" y2="205.3" opacity="1.0" stroke="rgb(0,0,0)" stroke-width="2.0"/>
<line x1="358.1" y1="205.3" x2="389.9" y2="186.9" opacity="1.0" stroke="rgb(0,0,0)" stroke-width="2.0"/>
<line x1="366.9" y1="208.5" x2="388.3" y2="196.2" opacity="1.0" stroke="rgb(0,0,0)" stroke-width="2.0"/>
<line x1="528.5" y1="303.6" x2="549.0" y2="315.5" opacity="1.0" stroke="rgb(0,0,0)" stroke-width="2.0"/>
<line x1="549.0" y1="315.5" x2="549.0" y2="352.2" opacity="1.0" stroke="rgb(0,0,0)" stroke-width="2.0"/>
<line x1="541.8" y1="321.5" x2="541.8" y2="346.2" opacity="1.0" stroke="rgb(0,0,0)" stroke-width="2.0"/>
<line x1="549.0" y1="352.2" x2="517.2" y2="370.6" opacity="1.0" stroke="rgb(0,0,0)" stroke-width="2.0"/>
<line x1="517.2" y1="370.6" x2="485.4" y2="352.2" opacity="1.0" stroke="rgb(0,0,0)" stroke-width="2.0"/>
<line x1="515.6" y1="361.4" x2="494.2" y2="349.0" opacity="1.0" stroke="rgb(0,0,0)" stroke-width="2.0"/>
<line x1="485.4" y1="352.2" x2="485.4" y2="315.5" opacity="1.0" stroke="rgb(0,0,0)" stroke-width="2.0"/>
<line x1="485.4" y1="315.5" x2="506.7" y2="303.2" opacity="1.0" stroke="rgb(0,0,0)" stroke-width="2.0"/>
<line x1="494.2" y1="318.7" x2="508.3" y2="310.6" opacity="1.0" stroke="rgb(0,0,0)" stroke-width="2.0"/>
<text x="511.197671" y="305.142857" fill="rgb(12,12,255)" stroke-width="0" font-weight="bold" font-size="16">N</text>
<text x="320.318603" y="194.938776" fill="rgb(12,12,255)" stroke-width="0" font-weight="bold" font-size="16">N</text>
<text x="161.252712" y="286.775510" fill="rgb(12,12,255)" stroke-width="0" font-weight="bold" font-size="16">N</text>
</svg>
</g>
</svg>
