<svg xmlns="http://www.w3.org/2000/svg" xmlns:xlink="http://www.w3.org/1999/xlink" xmlns:cml="http://www.xml-cml.org/schema" version="1.1" id="topsvg" x="0" y="0" viewBox="0 0 100 100">
<title>J_7_K - Open Babel Depiction</title>
<rect x="0" y="0" width="100" height="100" fill="white"/>
<g transform="translate(0,0)">
<svg width="100" height="100" x="0" y="0" viewBox="0 0 655.574 467.692" font-family="sans-serif" stroke="rgb(0,0,0)" stroke-width="2" stroke-linecap="round">
<line x1="327.8" y1="353.8" x2="327.8" y2="293.0" opacity="1.0" stroke="rgb(0,0,0)" stroke-width="2.0"/>
<line x1="339.0" y1="273.5" x2="391.7" y2="243.1" opacity="1.0" stroke="rgb(0,0,0)" stroke-width="2.0"/>
<line x1="498.9" y1="194.2" x2="551.6" y2="224.6" opacity="1.0" stroke="rgb(0,0,0)" stroke-width="2.0"/>
<line x1="487.7" y1="174.7" x2="487.7" y2="113.8" opacity="1.0" stroke="rgb(0,0,0)" stroke-width="2.0"/>
<line x1="455.7" y1="206.2" x2="476.4" y2="194.2" opacity="1.0" stroke="rgb(0,0,0)" stroke-width="2.0"/>
<line x1="231.9" y1="224.6" x2="199.9" y2="206.2" opacity="1.0" stroke="rgb(0,0,0)" stroke-width="2.0"/>
<line x1="196.9" y1="206.2" x2="196.9" y2="169.2" opacity="1.0" stroke="rgb(0,0,0)" stroke-width="2.0"/>
<line x1="202.9" y1="206.2" x2="202.9" y2="169.2" opacity="1.0" stroke="rgb(0,0,0)" stroke-width="2.0"/>
<line x1="316.5" y1="273.5" x2="295.8" y2="261.5" opacity="1.0" stroke="rgb(0,0,0)" stroke-width="2.0"/>
<line x1="69.0" y1="82.4" x2="69.0" y2="71.5" opacity="1.0" stroke="rgb(0,0,0)" stroke-width="2.0"/>
<line x1="75.0" y1="82.4" x2="75.0" y2="71.5" opacity="1.0" stroke="rgb(0,0,0)" stroke-width="2.0"/>
<line x1="60.7" y1="101.9" x2="51.3" y2="107.3" opacity="1.0" stroke="rgb(0,0,0)" stroke-width="2.0"/>
<line x1="104.0" y1="113.8" x2="83.2" y2="101.9" opacity="1.0" stroke="rgb(0,0,0)" stroke-width="2.0"/>
<line x1="199.9" y1="169.2" x2="167.9" y2="150.8" opacity="1.0" stroke="rgb(0,0,0)" stroke-width="2.0"/>
<line x1="295.8" y1="409.2" x2="295.8" y2="372.3" opacity="1.0" stroke="rgb(0,0,0)" stroke-width="2.0"/>
<line x1="295.8" y1="372.3" x2="327.8" y2="353.8" opacity="1.0" stroke="rgb(0,0,0)" stroke-width="2.0"/>
<line x1="304.6" y1="375.5" x2="326.2" y2="363.1" opacity="1.0" stroke="rgb(0,0,0)" stroke-width="2.0"/>
<line x1="327.8" y1="353.8" x2="359.8" y2="372.3" opacity="1.0" stroke="rgb(0,0,0)" stroke-width="2.0"/>
<line x1="359.8" y1="372.3" x2="359.8" y2="409.2" opacity="1.0" stroke="rgb(0,0,0)" stroke-width="2.0"/>
<line x1="352.6" y1="378.3" x2="352.6" y2="403.2" opacity="1.0" stroke="rgb(0,0,0)" stroke-width="2.0"/>
<line x1="359.8" y1="409.2" x2="327.8" y2="427.7" opacity="1.0" stroke="rgb(0,0,0)" stroke-width="2.0"/>
<line x1="327.8" y1="427.7" x2="295.8" y2="409.2" opacity="1.0" stroke="rgb(0,0,0)" stroke-width="2.0"/>
<line x1="326.2" y1="418.5" x2="304.6" y2="406.0" opacity="1.0" stroke="rgb(0,0,0)" stroke-width="2.0"/>
<line x1="391.7" y1="206.2" x2="423.7" y2="187.7" opacity="1.0" stroke="rgb(0,0,0)" stroke-width="2.0"/>
<line x1="423.7" y1="187.7" x2="455.7" y2="206.2" opacity="1.0" stroke="rgb(0,0,0)" stroke-width="2.0"/>
<line x1="425.3" y1="196.9" x2="446.9" y2="209.4" opacity="1.0" stroke="rgb(0,0,0)" stroke-width="2.0"/>
<line x1="455.7" y1="206.2" x2="455.7" y2="243.1" opacity="1.0" stroke="rgb(0,0,0)" stroke-width="2.0"/>
<line x1="455.7" y1="243.1" x2="423.7" y2="261.5" opacity="1.0" stroke="rgb(0,0,0)" stroke-width="2.0"/>
<line x1="446.9" y1="239.8" x2="425.3" y2="252.3" opacity="1.0" stroke="rgb(0,0,0)" stroke-width="2.0"/>
<line x1="423.7" y1="261.5" x2="391.7" y2="243.1" opacity="1.0" stroke="rgb(0,0,0)" stroke-width="2.0"/>
<line x1="391.7" y1="243.1" x2="391.7" y2="206.2" opacity="1.0" stroke="rgb(0,0,0)" stroke-width="2.0"/>
<line x1="398.9" y1="237.1" x2="398.9" y2="212.2" opacity="1.0" stroke="rgb(0,0,0)" stroke-width="2.0"/>
<line x1="455.7" y1="95.4" x2="487.7" y2="113.8" opacity="1.0" stroke="rgb(0,0,0)" stroke-width="2.0"/>
<line x1="464.5" y1="92.1" x2="486.1" y2="104.6" opacity="1.0" stroke="rgb(0,0,0)" stroke-width="2.0"/>
<line x1="487.7" y1="113.8" x2="519.6" y2="95.4" opacity="1.0" stroke="rgb(0,0,0)" stroke-width="2.0"/>
<line x1="519.6" y1="95.4" x2="519.6" y2="58.5" opacity="1.0" stroke="rgb(0,0,0)" stroke-width="2.0"/>
<line x1="512.4" y1="89.4" x2="512.4" y2="64.5" opacity="1.0" stroke="rgb(0,0,0)" stroke-width="2.0"/>
<line x1="519.6" y1="58.5" x2="487.7" y2="40.0" opacity="1.0" stroke="rgb(0,0,0)" stroke-width="2.0"/>
<line x1="487.7" y1="40.0" x2="455.7" y2="58.5" opacity="1.0" stroke="rgb(0,0,0)" stroke-width="2.0"/>
<line x1="486.1" y1="49.2" x2="464.5" y2="61.7" opacity="1.0" stroke="rgb(0,0,0)" stroke-width="2.0"/>
<line x1="455.7" y1="58.5" x2="455.7" y2="95.4" opacity="1.0" stroke="rgb(0,0,0)" stroke-width="2.0"/>
<line x1="583.6" y1="206.2" x2="551.6" y2="224.6" opacity="1.0" stroke="rgb(0,0,0)" stroke-width="2.0"/>
<line x1="582.0" y1="215.4" x2="560.4" y2="227.9" opacity="1.0" stroke="rgb(0,0,0)" stroke-width="2.0"/>
<line x1="551.6" y1="224.6" x2="551.6" y2="261.5" opacity="1.0" stroke="rgb(0,0,0)" stroke-width="2.0"/>
<line x1="551.6" y1="261.5" x2="583.6" y2="280.0" opacity="1.0" stroke="rgb(0,0,0)" stroke-width="2.0"/>
<line x1="560.4" y1="258.3" x2="582.0" y2="270.8" opacity="1.0" stroke="rgb(0,0,0)" stroke-width="2.0"/>
<line x1="583.6" y1="280.0" x2="615.6" y2="261.5" opacity="1.0" stroke="rgb(0,0,0)" stroke-width="2.0"/>
<line x1="615.6" y1="261.5" x2="615.6" y2="224.6" opacity="1.0" stroke="rgb(0,0,0)" stroke-width="2.0"/>
<line x1="608.4" y1="255.5" x2="608.4" y2="230.6" opacity="1.0" stroke="rgb(0,0,0)" stroke-width="2.0"/>
<line x1="615.6" y1="224.6" x2="583.6" y2="206.2" opacity="1.0" stroke="rgb(0,0,0)" stroke-width="2.0"/>
<line x1="263.8" y1="280.0" x2="231.9" y2="261.5" opacity="1.0" stroke="rgb(0,0,0)" stroke-width="2.0"/>
<line x1="231.9" y1="261.5" x2="231.9" y2="224.6" opacity="1.0" stroke="rgb(0,0,0)" stroke-width="2.0"/>
<line x1="239.1" y1="255.5" x2="239.1" y2="230.6" opacity="1.0" stroke="rgb(0,0,0)" stroke-width="2.0"/>
<line x1="231.9" y1="224.6" x2="263.8" y2="206.2" opacity="1.0" stroke="rgb(0,0,0)" stroke-width="2.0"/>
<line x1="263.8" y1="206.2" x2="295.8" y2="224.6" opacity="1.0" stroke="rgb(0,0,0)" stroke-width="2.0"/>
<line x1="265.4" y1="215.4" x2="287.0" y2="227.9" opacity="1.0" stroke="rgb(0,0,0)" stroke-width="2.0"/>
<line x1="295.8" y1="224.6" x2="295.8" y2="261.5" opacity="1.0" stroke="rgb(0,0,0)" stroke-width="2.0"/>
<line x1="295.8" y1="261.5" x2="263.8" y2="280.0" opacity="1.0" stroke="rgb(0,0,0)" stroke-width="2.0"/>
<line x1="287.0" y1="258.3" x2="265.4" y2="270.8" opacity="1.0" stroke="rgb(0,0,0)" stroke-width="2.0"/>
<line x1="135.9" y1="169.2" x2="104.0" y2="150.8" opacity="1.0" stroke="rgb(0,0,0)" stroke-width="2.0"/>
<line x1="104.0" y1="150.8" x2="104.0" y2="113.8" opacity="1.0" stroke="rgb(0,0,0)" stroke-width="2.0"/>
<line x1="111.2" y1="144.8" x2="111.2" y2="119.8" opacity="1.0" stroke="rgb(0,0,0)" stroke-width="2.0"/>
<line x1="104.0" y1="113.8" x2="135.9" y2="95.4" opacity="1.0" stroke="rgb(0,0,0)" stroke-width="2.0"/>
<line x1="135.9" y1="95.4" x2="167.9" y2="113.8" opacity="1.0" stroke="rgb(0,0,0)" stroke-width="2.0"/>
<line x1="137.5" y1="104.6" x2="159.1" y2="117.1" opacity="1.0" stroke="rgb(0,0,0)" stroke-width="2.0"/>
<line x1="167.9" y1="113.8" x2="167.9" y2="150.8" opacity="1.0" stroke="rgb(0,0,0)" stroke-width="2.0"/>
<line x1="167.9" y1="150.8" x2="135.9" y2="169.2" opacity="1.0" stroke="rgb(0,0,0)" stroke-width="2.0"/>
<line x1="159.1" y1="147.5" x2="137.5" y2="160.0" opacity="1.0" stroke="rgb(0,0,0)" stroke-width="2.0"/>
<text x="65.976323" y="103.384615" fill="rgb(12,12,255)" stroke-width="0" font-weight="bold" font-size="16">N</text>
<text x="65.976323" y="66.461538" fill="rgb(255,12,12)" stroke-width="0" font-weight="bold" font-size="16">O</text>
<text x="44.800000" y="109.814154" fill="rgb(255,12,12)" stroke-width="0" font-weight="bold" font-size="16"/>
<text x="44.800000" y="109.814154" fill="rgb(255,12,12)" stroke-width="0" font-weight="bold" font-size="32">.</text>
<text x="34.000000" y="121.846154" fill="rgb(255,12,12)" stroke-width="0" font-weight="bold" font-size="16">O</text>
<text x="321.786903" y="288.000000" fill="rgb(12,12,255)" stroke-width="0" font-weight="bold" font-size="16">N</text>
<text x="481.668516" y="195.692308" fill="rgb(12,12,255)" stroke-width="0" font-weight="bold" font-size="16">N</text>
</svg>
</g>
</svg>