<svg xmlns="http://www.w3.org/2000/svg" x="0" y="0" viewBox="0 0 100 100">
<title>J_7_R - Open Babel Depiction</title>
<rect x="0" y="0" width="100" height="100" fill="white"/>
<g transform="translate(0,0)">
<svg width="100" height="100" x="0" y="0" viewBox="0 0 655.574 467.692" font-family="sans-serif" stroke="rgb(0,0,0)" stroke-width="2" stroke-linecap="round">
<line x1="327.8" y1="113.8" x2="327.8" y2="174.7" opacity="1.0" stroke="rgb(0,0,0)" stroke-width="2.0"/>
<line x1="316.5" y1="194.2" x2="263.8" y2="224.6" opacity="1.0" stroke="rgb(0,0,0)" stroke-width="2.0"/>
<line x1="156.6" y1="273.5" x2="104.0" y2="243.1" opacity="1.0" stroke="rgb(0,0,0)" stroke-width="2.0"/>
<line x1="167.9" y1="293.0" x2="167.9" y2="353.8" opacity="1.0" stroke="rgb(0,0,0)" stroke-width="2.0"/>
<line x1="199.9" y1="261.5" x2="179.2" y2="273.5" opacity="1.0" stroke="rgb(0,0,0)" stroke-width="2.0"/>
<line x1="423.7" y1="243.1" x2="455.7" y2="261.5" opacity="1.0" stroke="rgb(0,0,0)" stroke-width="2.0"/>
<line x1="458.7" y1="261.5" x2="458.7" y2="298.5" opacity="1.0" stroke="rgb(0,0,0)" stroke-width="2.0"/>
<line x1="452.7" y1="261.5" x2="452.7" y2="298.5" opacity="1.0" stroke="rgb(0,0,0)" stroke-width="2.0"/>
<line x1="339.0" y1="194.2" x2="359.8" y2="206.2" opacity="1.0" stroke="rgb(0,0,0)" stroke-width="2.0"/>
<line x1="586.6" y1="385.3" x2="586.6" y2="396.2" opacity="1.0" stroke="rgb(0,0,0)" stroke-width="2.0"/>
<line x1="580.6" y1="385.3" x2="580.6" y2="396.2" opacity="1.0" stroke="rgb(0,0,0)" stroke-width="2.0"/>
<line x1="594.9" y1="365.8" x2="604.3" y2="360.3" opacity="1.0" stroke="rgb(0,0,0)" stroke-width="2.0"/>
<line x1="551.6" y1="353.8" x2="572.3" y2="365.8" opacity="1.0" stroke="rgb(0,0,0)" stroke-width="2.0"/>
<line x1="455.7" y1="298.5" x2="487.7" y2="316.9" opacity="1.0" stroke="rgb(0,0,0)" stroke-width="2.0"/>
<line x1="359.8" y1="58.5" x2="359.8" y2="95.4" opacity="1.0" stroke="rgb(0,0,0)" stroke-width="2.0"/>
<line x1="359.8" y1="95.4" x2="327.8" y2="113.8" opacity="1.0" stroke="rgb(0,0,0)" stroke-width="2.0"/>
<line x1="351.0" y1="92.1" x2="329.4" y2="104.6" opacity="1.0" stroke="rgb(0,0,0)" stroke-width="2.0"/>
<line x1="327.8" y1="113.8" x2="295.8" y2="95.4" opacity="1.0" stroke="rgb(0,0,0)" stroke-width="2.0"/>
<line x1="295.8" y1="95.4" x2="295.8" y2="58.5" opacity="1.0" stroke="rgb(0,0,0)" stroke-width="2.0"/>
<line x1="303.0" y1="89.4" x2="303.0" y2="64.5" opacity="1.0" stroke="rgb(0,0,0)" stroke-width="2.0"/>
<line x1="295.8" y1="58.5" x2="327.8" y2="40.0" opacity="1.0" stroke="rgb(0,0,0)" stroke-width="2.0"/>
<line x1="327.8" y1="40.0" x2="359.8" y2="58.5" opacity="1.0" stroke="rgb(0,0,0)" stroke-width="2.0"/>
<line x1="329.4" y1="49.2" x2="351.0" y2="61.7" opacity="1.0" stroke="rgb(0,0,0)" stroke-width="2.0"/>
<line x1="263.8" y1="261.5" x2="231.9" y2="280.0" opacity="1.0" stroke="rgb(0,0,0)" stroke-width="2.0"/>
<line x1="231.9" y1="280.0" x2="199.9" y2="261.5" opacity="1.0" stroke="rgb(0,0,0)" stroke-width="2.0"/>
<line x1="230.3" y1="270.8" x2="208.7" y2="258.3" opacity="1.0" stroke="rgb(0,0,0)" stroke-width="2.0"/>
<line x1="199.9" y1="261.5" x2="199.9" y2="224.6" opacity="1.0" stroke="rgb(0,0,0)" stroke-width="2.0"/>
<line x1="199.9" y1="224.6" x2="231.9" y2="206.2" opacity="1.0" stroke="rgb(0,0,0)" stroke-width="2.0"/>
<line x1="208.7" y1="227.9" x2="230.3" y2="215.4" opacity="1.0" stroke="rgb(0,0,0)" stroke-width="2.0"/>
<line x1="231.9" y1="206.2" x2="263.8" y2="224.6" opacity="1.0" stroke="rgb(0,0,0)" stroke-width="2.0"/>
<line x1="263.8" y1="224.6" x2="263.8" y2="261.5" opacity="1.0" stroke="rgb(0,0,0)" stroke-width="2.0"/>
<line x1="256.6" y1="230.6" x2="256.6" y2="255.5" opacity="1.0" stroke="rgb(0,0,0)" stroke-width="2.0"/>
<line x1="199.9" y1="372.3" x2="167.9" y2="353.8" opacity="1.0" stroke="rgb(0,0,0)" stroke-width="2.0"/>
<line x1="191.1" y1="375.5" x2="169.5" y2="363.1" opacity="1.0" stroke="rgb(0,0,0)" stroke-width="2.0"/>
<line x1="167.9" y1="353.8" x2="135.9" y2="372.3" opacity="1.0" stroke="rgb(0,0,0)" stroke-width="2.0"/>
<line x1="135.9" y1="372.3" x2="135.9" y2="409.2" opacity="1.0" stroke="rgb(0,0,0)" stroke-width="2.0"/>
<line x1="143.1" y1="378.3" x2="143.1" y2="403.2" opacity="1.0" stroke="rgb(0,0,0)" stroke-width="2.0"/>
<line x1="135.9" y1="409.2" x2="167.9" y2="427.7" opacity="1.0" stroke="rgb(0,0,0)" stroke-width="2.0"/>
<line x1="167.9" y1="427.7" x2="199.9" y2="409.2" opacity="1.0" stroke="rgb(0,0,0)" stroke-width="2.0"/>
<line x1="169.5" y1="418.5" x2="191.1" y2="406.0" opacity="1.0" stroke="rgb(0,0,0)" stroke-width="2.0"/>
<line x1="199.9" y1="409.2" x2="199.9" y2="372.3" opacity="1.0" stroke="rgb(0,0,0)" stroke-width="2.0"/>
<line x1="72.0" y1="261.5" x2="104.0" y2="243.1" opacity="1.0" stroke="rgb(0,0,0)" stroke-width="2.0"/>
<line x1="73.6" y1="252.3" x2="95.2" y2="239.8" opacity="1.0" stroke="rgb(0,0,0)" stroke-width="2.0"/>
<line x1="104.0" y1="243.1" x2="104.0" y2="206.2" opacity="1.0" stroke="rgb(0,0,0)" stroke-width="2.0"/>
<line x1="104.0" y1="206.2" x2="72.0" y2="187.7" opacity="1.0" stroke="rgb(0,0,0)" stroke-width="2.0"/>
<line x1="95.2" y1="209.4" x2="73.6" y2="196.9" opacity="1.0" stroke="rgb(0,0,0)" stroke-width="2.0"/>
<line x1="72.0" y1="187.7" x2="40.0" y2="206.2" opacity="1.0" stroke="rgb(0,0,0)" stroke-width="2.0"/>
<line x1="40.0" y1="206.2" x2="40.0" y2="243.1" opacity="1.0" stroke="rgb(0,0,0)" stroke-width="2.0"/>
<line x1="47.2" y1="212.2" x2="47.2" y2="237.1" opacity="1.0" stroke="rgb(0,0,0)" stroke-width="2.0"/>
<line x1="40.0" y1="243.1" x2="72.0" y2="261.5" opacity="1.0" stroke="rgb(0,0,0)" stroke-width="2.0"/>
<line x1="391.7" y1="187.7" x2="423.7" y2="206.2" opacity="1.0" stroke="rgb(0,0,0)" stroke-width="2.0"/>
<line x1="423.7" y1="206.2" x2="423.7" y2="243.1" opacity="1.0" stroke="rgb(0,0,0)" stroke-width="2.0"/>
<line x1="416.5" y1="212.2" x2="416.5" y2="237.1" opacity="1.0" stroke="rgb(0,0,0)" stroke-width="2.0"/>
<line x1="423.7" y1="243.1" x2="391.7" y2="261.5" opacity="1.0" stroke="rgb(0,0,0)" stroke-width="2.0"/>
<line x1="391.7" y1="261.5" x2="359.8" y2="243.1" opacity="1.0" stroke="rgb(0,0,0)" stroke-width="2.0"/>
<line x1="390.1" y1="252.3" x2="368.6" y2="239.8" opacity="1.0" stroke="rgb(0,0,0)" stroke-width="2.0"/>
<line x1="359.8" y1="243.1" x2="359.8" y2="206.2" opacity="1.0" stroke="rgb(0,0,0)" stroke-width="2.0"/>
<line x1="359.8" y1="206.2" x2="391.7" y2="187.7" opacity="1.0" stroke="rgb(0,0,0)" stroke-width="2.0"/>
<line x1="368.6" y1="209.4" x2="390.1" y2="196.9" opacity="1.0" stroke="rgb(0,0,0)" stroke-width="2.0"/>
<line x1="530.9" y1="305.0" x2="551.6" y2="316.9" opacity="1.0" stroke="rgb(0,0,0)" stroke-width="2.0"/>
<line x1="551.6" y1="316.9" x2="551.6" y2="353.8" opacity="1.0" stroke="rgb(0,0,0)" stroke-width="2.0"/>
<line x1="544.4" y1="322.9" x2="544.4" y2="347.8" opacity="1.0" stroke="rgb(0,0,0)" stroke-width="2.0"/>
<line x1="551.6" y1="353.8" x2="519.6" y2="372.3" opacity="1.0" stroke="rgb(0,0,0)" stroke-width="2.0"/>
<line x1="519.6" y1="372.3" x2="487.7" y2="353.8" opacity="1.0" stroke="rgb(0,0,0)" stroke-width="2.0"/>
<line x1="518.0" y1="363.1" x2="496.5" y2="350.6" opacity="1.0" stroke="rgb(0,0,0)" stroke-width="2.0"/>
<line x1="487.7" y1="353.8" x2="487.7" y2="316.9" opacity="1.0" stroke="rgb(0,0,0)" stroke-width="2.0"/>
<line x1="487.7" y1="316.9" x2="509.1" y2="304.6" opacity="1.0" stroke="rgb(0,0,0)" stroke-width="2.0"/>
<line x1="496.5" y1="320.2" x2="510.7" y2="311.9" opacity="1.0" stroke="rgb(0,0,0)" stroke-width="2.0"/>
<text x="513.644839" y="306.461538" fill="rgb(12,12,255)" stroke-width="0" font-weight="bold" font-size="16">N</text>
<text x="577.597484" y="380.307692" fill="rgb(12,12,255)" stroke-width="0" font-weight="bold" font-size="16">N</text>
<text x="577.597484" y="417.230769" fill="rgb(255,12,12)" stroke-width="0" font-weight="bold" font-size="16">O</text>
<text x="620.373807" y="349.814154" fill="rgb(255,12,12)" stroke-width="0" font-weight="bold" font-size="16"/>
<text x="620.373807" y="349.814154" fill="rgb(255,12,12)" stroke-width="0" font-weight="bold" font-size="32">.</text>
<text x="609.573807" y="361.846154" fill="rgb(255,12,12)" stroke-width="0" font-weight="bold" font-size="16">O</text>
<text x="321.786903" y="195.692308" fill="rgb(12,12,255)" stroke-width="0" font-weight="bold" font-size="16">N</text>
<text x="161.905290" y="288.000000" fill="rgb(12,12,255)" stroke-width="0" font-weight="bold" font-size="16">N</text>
</svg>
</g>
</svg>
