<svg xmlns="http://www.w3.org/2000/svg" x="0" y="0" viewBox="0 0 100 100">
<title>J_7_N - Open Babel Depiction</title>
<rect x="0" y="0" width="100" height="100" fill="white"/>
<g transform="translate(0,0)">
<svg width="100" height="100" x="0" y="0" viewBox="0 0 614.345 465" font-family="sans-serif" stroke="rgb(0,0,0)" stroke-width="2" stroke-linecap="round">
<line x1="288.6" y1="351.7" x2="288.6" y2="291.3" opacity="1.0" stroke="rgb(0,0,0)" stroke-width="2.0"/>
<line x1="299.8" y1="271.8" x2="352.1" y2="241.7" opacity="1.0" stroke="rgb(0,0,0)" stroke-width="2.0"/>
<line x1="458.6" y1="193.2" x2="510.8" y2="223.3" opacity="1.0" stroke="rgb(0,0,0)" stroke-width="2.0"/>
<line x1="447.3" y1="173.7" x2="447.3" y2="113.3" opacity="1.0" stroke="rgb(0,0,0)" stroke-width="2.0"/>
<line x1="415.6" y1="205.0" x2="436.1" y2="193.2" opacity="1.0" stroke="rgb(0,0,0)" stroke-width="2.0"/>
<line x1="193.3" y1="223.3" x2="161.5" y2="205.0" opacity="1.0" stroke="rgb(0,0,0)" stroke-width="2.0"/>
<line x1="163.0" y1="207.6" x2="131.3" y2="225.9" opacity="1.0" stroke="rgb(0,0,0)" stroke-width="2.0"/>
<line x1="160.0" y1="202.4" x2="128.3" y2="220.7" opacity="1.0" stroke="rgb(0,0,0)" stroke-width="2.0"/>
<line x1="277.3" y1="271.8" x2="256.8" y2="260.0" opacity="1.0" stroke="rgb(0,0,0)" stroke-width="2.0"/>
<line x1="129.8" y1="223.3" x2="98.0" y2="205.0" opacity="1.0" stroke="rgb(0,0,0)" stroke-width="2.0"/>
<line x1="94.2" y1="168.5" x2="71.0" y2="163.6" opacity="1.0" stroke="rgb(0,0,0)" stroke-width="2.0"/>
<line x1="51.8" y1="172.2" x2="40.0" y2="192.7" opacity="1.0" stroke="rgb(0,0,0)" stroke-width="2.0"/>
<line x1="40.0" y1="192.7" x2="64.5" y2="219.9" opacity="1.0" stroke="rgb(0,0,0)" stroke-width="2.0"/>
<line x1="49.4" y1="192.3" x2="65.9" y2="210.6" opacity="1.0" stroke="rgb(0,0,0)" stroke-width="2.0"/>
<line x1="64.5" y1="219.9" x2="98.0" y2="205.0" opacity="1.0" stroke="rgb(0,0,0)" stroke-width="2.0"/>
<line x1="98.0" y1="205.0" x2="94.2" y2="168.5" opacity="1.0" stroke="rgb(0,0,0)" stroke-width="2.0"/>
<line x1="90.2" y1="199.8" x2="87.7" y2="175.3" opacity="1.0" stroke="rgb(0,0,0)" stroke-width="2.0"/>
<line x1="256.8" y1="406.7" x2="256.8" y2="370.0" opacity="1.0" stroke="rgb(0,0,0)" stroke-width="2.0"/>
<line x1="256.8" y1="370.0" x2="288.6" y2="351.7" opacity="1.0" stroke="rgb(0,0,0)" stroke-width="2.0"/>
<line x1="265.6" y1="373.2" x2="287.0" y2="360.9" opacity="1.0" stroke="rgb(0,0,0)" stroke-width="2.0"/>
<line x1="288.6" y1="351.7" x2="320.3" y2="370.0" opacity="1.0" stroke="rgb(0,0,0)" stroke-width="2.0"/>
<line x1="320.3" y1="370.0" x2="320.3" y2="406.7" opacity="1.0" stroke="rgb(0,0,0)" stroke-width="2.0"/>
<line x1="313.1" y1="376.0" x2="313.1" y2="400.7" opacity="1.0" stroke="rgb(0,0,0)" stroke-width="2.0"/>
<line x1="320.3" y1="406.7" x2="288.6" y2="425.0" opacity="1.0" stroke="rgb(0,0,0)" stroke-width="2.0"/>
<line x1="288.6" y1="425.0" x2="256.8" y2="406.7" opacity="1.0" stroke="rgb(0,0,0)" stroke-width="2.0"/>
<line x1="287.0" y1="415.8" x2="265.6" y2="403.4" opacity="1.0" stroke="rgb(0,0,0)" stroke-width="2.0"/>
<line x1="352.1" y1="205.0" x2="383.8" y2="186.7" opacity="1.0" stroke="rgb(0,0,0)" stroke-width="2.0"/>
<line x1="383.8" y1="186.7" x2="415.6" y2="205.0" opacity="1.0" stroke="rgb(0,0,0)" stroke-width="2.0"/>
<line x1="385.4" y1="195.9" x2="406.8" y2="208.2" opacity="1.0" stroke="rgb(0,0,0)" stroke-width="2.0"/>
<line x1="415.6" y1="205.0" x2="415.6" y2="241.7" opacity="1.0" stroke="rgb(0,0,0)" stroke-width="2.0"/>
<line x1="415.6" y1="241.7" x2="383.8" y2="260.0" opacity="1.0" stroke="rgb(0,0,0)" stroke-width="2.0"/>
<line x1="406.8" y1="238.4" x2="385.4" y2="250.8" opacity="1.0" stroke="rgb(0,0,0)" stroke-width="2.0"/>
<line x1="383.8" y1="260.0" x2="352.1" y2="241.7" opacity="1.0" stroke="rgb(0,0,0)" stroke-width="2.0"/>
<line x1="352.1" y1="241.7" x2="352.1" y2="205.0" opacity="1.0" stroke="rgb(0,0,0)" stroke-width="2.0"/>
<line x1="359.3" y1="235.7" x2="359.3" y2="211.0" opacity="1.0" stroke="rgb(0,0,0)" stroke-width="2.0"/>
<line x1="415.6" y1="95.0" x2="447.3" y2="113.3" opacity="1.0" stroke="rgb(0,0,0)" stroke-width="2.0"/>
<line x1="424.4" y1="91.8" x2="445.7" y2="104.1" opacity="1.0" stroke="rgb(0,0,0)" stroke-width="2.0"/>
<line x1="447.3" y1="113.3" x2="479.1" y2="95.0" opacity="1.0" stroke="rgb(0,0,0)" stroke-width="2.0"/>
<line x1="479.1" y1="95.0" x2="479.1" y2="58.3" opacity="1.0" stroke="rgb(0,0,0)" stroke-width="2.0"/>
<line x1="471.9" y1="89.0" x2="471.9" y2="64.3" opacity="1.0" stroke="rgb(0,0,0)" stroke-width="2.0"/>
<line x1="479.1" y1="58.3" x2="447.3" y2="40.0" opacity="1.0" stroke="rgb(0,0,0)" stroke-width="2.0"/>
<line x1="447.3" y1="40.0" x2="415.6" y2="58.3" opacity="1.0" stroke="rgb(0,0,0)" stroke-width="2.0"/>
<line x1="445.7" y1="49.2" x2="424.4" y2="61.6" opacity="1.0" stroke="rgb(0,0,0)" stroke-width="2.0"/>
<line x1="415.6" y1="58.3" x2="415.6" y2="95.0" opacity="1.0" stroke="rgb(0,0,0)" stroke-width="2.0"/>
<line x1="542.6" y1="205.0" x2="510.8" y2="223.3" opacity="1.0" stroke="rgb(0,0,0)" stroke-width="2.0"/>
<line x1="541.0" y1="214.2" x2="519.6" y2="226.6" opacity="1.0" stroke="rgb(0,0,0)" stroke-width="2.0"/>
<line x1="510.8" y1="223.3" x2="510.8" y2="260.0" opacity="1.0" stroke="rgb(0,0,0)" stroke-width="2.0"/>
<line x1="510.8" y1="260.0" x2="542.6" y2="278.3" opacity="1.0" stroke="rgb(0,0,0)" stroke-width="2.0"/>
<line x1="519.6" y1="256.8" x2="541.0" y2="269.1" opacity="1.0" stroke="rgb(0,0,0)" stroke-width="2.0"/>
<line x1="542.6" y1="278.3" x2="574.3" y2="260.0" opacity="1.0" stroke="rgb(0,0,0)" stroke-width="2.0"/>
<line x1="574.3" y1="260.0" x2="574.3" y2="223.3" opacity="1.0" stroke="rgb(0,0,0)" stroke-width="2.0"/>
<line x1="567.1" y1="254.0" x2="567.1" y2="229.3" opacity="1.0" stroke="rgb(0,0,0)" stroke-width="2.0"/>
<line x1="574.3" y1="223.3" x2="542.6" y2="205.0" opacity="1.0" stroke="rgb(0,0,0)" stroke-width="2.0"/>
<line x1="225.0" y1="278.3" x2="193.3" y2="260.0" opacity="1.0" stroke="rgb(0,0,0)" stroke-width="2.0"/>
<line x1="193.3" y1="260.0" x2="193.3" y2="223.3" opacity="1.0" stroke="rgb(0,0,0)" stroke-width="2.0"/>
<line x1="200.5" y1="254.0" x2="200.5" y2="229.3" opacity="1.0" stroke="rgb(0,0,0)" stroke-width="2.0"/>
<line x1="193.3" y1="223.3" x2="225.0" y2="205.0" opacity="1.0" stroke="rgb(0,0,0)" stroke-width="2.0"/>
<line x1="225.0" y1="205.0" x2="256.8" y2="223.3" opacity="1.0" stroke="rgb(0,0,0)" stroke-width="2.0"/>
<line x1="226.6" y1="214.2" x2="248.0" y2="226.6" opacity="1.0" stroke="rgb(0,0,0)" stroke-width="2.0"/>
<line x1="256.8" y1="223.3" x2="256.8" y2="260.0" opacity="1.0" stroke="rgb(0,0,0)" stroke-width="2.0"/>
<line x1="256.8" y1="260.0" x2="225.0" y2="278.3" opacity="1.0" stroke="rgb(0,0,0)" stroke-width="2.0"/>
<line x1="248.0" y1="256.8" x2="226.6" y2="269.1" opacity="1.0" stroke="rgb(0,0,0)" stroke-width="2.0"/>
<text x="52.333333" y="168.910769" fill="rgb(178,178,0)" stroke-width="0" font-weight="bold" font-size="16">S</text>
<text x="282.557045" y="286.333333" fill="rgb(12,12,255)" stroke-width="0" font-weight="bold" font-size="16">N</text>
<text x="441.328369" y="194.666667" fill="rgb(12,12,255)" stroke-width="0" font-weight="bold" font-size="16">N</text>
</svg>
</g>
</svg>
