<svg xmlns="http://www.w3.org/2000/svg" xmlns:xlink="http://www.w3.org/1999/xlink" xmlns:cml="http://www.xml-cml.org/schema" version="1.1" id="topsvg" x="0" y="0" viewBox="0 0 100 100">
<title>J_8_K - Open Babel Depiction</title>
<rect x="0" y="0" width="100" height="100" fill="white"/>
<g transform="translate(0,0)">
<svg width="100" height="100" x="0" y="0" viewBox="0 0 625.275 468.889" font-family="sans-serif" stroke="rgb(0,0,0)" stroke-width="2" stroke-linecap="round">
<line x1="296.6" y1="354.8" x2="296.6" y2="293.7" opacity="1.0" stroke="rgb(0,0,0)" stroke-width="2.0"/>
<line x1="307.9" y1="274.2" x2="360.8" y2="243.7" opacity="1.0" stroke="rgb(0,0,0)" stroke-width="2.0"/>
<line x1="468.2" y1="194.6" x2="521.1" y2="225.2" opacity="1.0" stroke="rgb(0,0,0)" stroke-width="2.0"/>
<line x1="457.0" y1="175.1" x2="457.0" y2="114.1" opacity="1.0" stroke="rgb(0,0,0)" stroke-width="2.0"/>
<line x1="424.9" y1="206.7" x2="445.7" y2="194.6" opacity="1.0" stroke="rgb(0,0,0)" stroke-width="2.0"/>
<line x1="285.3" y1="274.2" x2="264.5" y2="262.2" opacity="1.0" stroke="rgb(0,0,0)" stroke-width="2.0"/>
<line x1="69.1" y1="138.1" x2="69.1" y2="127.1" opacity="1.0" stroke="rgb(0,0,0)" stroke-width="2.0"/>
<line x1="75.1" y1="138.1" x2="75.1" y2="127.1" opacity="1.0" stroke="rgb(0,0,0)" stroke-width="2.0"/>
<line x1="60.8" y1="157.6" x2="51.3" y2="163.1" opacity="1.0" stroke="rgb(0,0,0)" stroke-width="2.0"/>
<line x1="104.2" y1="169.6" x2="83.3" y2="157.6" opacity="1.0" stroke="rgb(0,0,0)" stroke-width="2.0"/>
<line x1="200.4" y1="225.2" x2="168.3" y2="206.7" opacity="1.0" stroke="rgb(0,0,0)" stroke-width="2.0"/>
<line x1="200.8" y1="319.5" x2="211.8" y2="318.3" opacity="1.0" stroke="rgb(0,0,0)" stroke-width="2.0"/>
<line x1="227.3" y1="305.0" x2="232.5" y2="280.7" opacity="1.0" stroke="rgb(0,0,0)" stroke-width="2.0"/>
<line x1="220.7" y1="301.3" x2="224.2" y2="285.1" opacity="1.0" stroke="rgb(0,0,0)" stroke-width="2.0"/>
<line x1="232.5" y1="280.7" x2="200.4" y2="262.2" opacity="1.0" stroke="rgb(0,0,0)" stroke-width="2.0"/>
<line x1="200.4" y1="262.2" x2="181.9" y2="278.8" opacity="1.0" stroke="rgb(0,0,0)" stroke-width="2.0"/>
<line x1="200.7" y1="271.6" x2="188.5" y2="282.6" opacity="1.0" stroke="rgb(0,0,0)" stroke-width="2.0"/>
<line x1="178.1" y1="298.9" x2="182.6" y2="309.0" opacity="1.0" stroke="rgb(0,0,0)" stroke-width="2.0"/>
<line x1="264.5" y1="410.4" x2="264.5" y2="373.3" opacity="1.0" stroke="rgb(0,0,0)" stroke-width="2.0"/>
<line x1="264.5" y1="373.3" x2="296.6" y2="354.8" opacity="1.0" stroke="rgb(0,0,0)" stroke-width="2.0"/>
<line x1="273.3" y1="376.6" x2="295.0" y2="364.1" opacity="1.0" stroke="rgb(0,0,0)" stroke-width="2.0"/>
<line x1="296.6" y1="354.8" x2="328.7" y2="373.3" opacity="1.0" stroke="rgb(0,0,0)" stroke-width="2.0"/>
<line x1="328.7" y1="373.3" x2="328.7" y2="410.4" opacity="1.0" stroke="rgb(0,0,0)" stroke-width="2.0"/>
<line x1="321.5" y1="379.3" x2="321.5" y2="404.4" opacity="1.0" stroke="rgb(0,0,0)" stroke-width="2.0"/>
<line x1="328.7" y1="410.4" x2="296.6" y2="428.9" opacity="1.0" stroke="rgb(0,0,0)" stroke-width="2.0"/>
<line x1="296.6" y1="428.9" x2="264.5" y2="410.4" opacity="1.0" stroke="rgb(0,0,0)" stroke-width="2.0"/>
<line x1="295.0" y1="419.7" x2="273.3" y2="407.1" opacity="1.0" stroke="rgb(0,0,0)" stroke-width="2.0"/>
<line x1="360.8" y1="206.7" x2="392.8" y2="188.1" opacity="1.0" stroke="rgb(0,0,0)" stroke-width="2.0"/>
<line x1="392.8" y1="188.1" x2="424.9" y2="206.7" opacity="1.0" stroke="rgb(0,0,0)" stroke-width="2.0"/>
<line x1="394.4" y1="197.4" x2="416.1" y2="209.9" opacity="1.0" stroke="rgb(0,0,0)" stroke-width="2.0"/>
<line x1="424.9" y1="206.7" x2="424.9" y2="243.7" opacity="1.0" stroke="rgb(0,0,0)" stroke-width="2.0"/>
<line x1="424.9" y1="243.7" x2="392.8" y2="262.2" opacity="1.0" stroke="rgb(0,0,0)" stroke-width="2.0"/>
<line x1="416.1" y1="240.5" x2="394.4" y2="253.0" opacity="1.0" stroke="rgb(0,0,0)" stroke-width="2.0"/>
<line x1="392.8" y1="262.2" x2="360.8" y2="243.7" opacity="1.0" stroke="rgb(0,0,0)" stroke-width="2.0"/>
<line x1="360.8" y1="243.7" x2="360.8" y2="206.7" opacity="1.0" stroke="rgb(0,0,0)" stroke-width="2.0"/>
<line x1="368.0" y1="237.7" x2="368.0" y2="212.7" opacity="1.0" stroke="rgb(0,0,0)" stroke-width="2.0"/>
<line x1="424.9" y1="95.6" x2="457.0" y2="114.1" opacity="1.0" stroke="rgb(0,0,0)" stroke-width="2.0"/>
<line x1="433.7" y1="92.3" x2="455.4" y2="104.8" opacity="1.0" stroke="rgb(0,0,0)" stroke-width="2.0"/>
<line x1="457.0" y1="114.1" x2="489.1" y2="95.6" opacity="1.0" stroke="rgb(0,0,0)" stroke-width="2.0"/>
<line x1="489.1" y1="95.6" x2="489.1" y2="58.5" opacity="1.0" stroke="rgb(0,0,0)" stroke-width="2.0"/>
<line x1="481.9" y1="89.6" x2="481.9" y2="64.5" opacity="1.0" stroke="rgb(0,0,0)" stroke-width="2.0"/>
<line x1="489.1" y1="58.5" x2="457.0" y2="40.0" opacity="1.0" stroke="rgb(0,0,0)" stroke-width="2.0"/>
<line x1="457.0" y1="40.0" x2="424.9" y2="58.5" opacity="1.0" stroke="rgb(0,0,0)" stroke-width="2.0"/>
<line x1="455.4" y1="49.2" x2="433.7" y2="61.8" opacity="1.0" stroke="rgb(0,0,0)" stroke-width="2.0"/>
<line x1="424.9" y1="58.5" x2="424.9" y2="95.6" opacity="1.0" stroke="rgb(0,0,0)" stroke-width="2.0"/>
<line x1="553.2" y1="206.7" x2="521.1" y2="225.2" opacity="1.0" stroke="rgb(0,0,0)" stroke-width="2.0"/>
<line x1="551.6" y1="215.9" x2="529.9" y2="228.4" opacity="1.0" stroke="rgb(0,0,0)" stroke-width="2.0"/>
<line x1="521.1" y1="225.2" x2="521.1" y2="262.2" opacity="1.0" stroke="rgb(0,0,0)" stroke-width="2.0"/>
<line x1="521.1" y1="262.2" x2="553.2" y2="280.7" opacity="1.0" stroke="rgb(0,0,0)" stroke-width="2.0"/>
<line x1="529.9" y1="259.0" x2="551.6" y2="271.5" opacity="1.0" stroke="rgb(0,0,0)" stroke-width="2.0"/>
<line x1="553.2" y1="280.7" x2="585.3" y2="262.2" opacity="1.0" stroke="rgb(0,0,0)" stroke-width="2.0"/>
<line x1="585.3" y1="262.2" x2="585.3" y2="225.2" opacity="1.0" stroke="rgb(0,0,0)" stroke-width="2.0"/>
<line x1="578.1" y1="256.2" x2="578.1" y2="231.2" opacity="1.0" stroke="rgb(0,0,0)" stroke-width="2.0"/>
<line x1="585.3" y1="225.2" x2="553.2" y2="206.7" opacity="1.0" stroke="rgb(0,0,0)" stroke-width="2.0"/>
<line x1="264.5" y1="225.2" x2="232.5" y2="206.7" opacity="1.0" stroke="rgb(0,0,0)" stroke-width="2.0"/>
<line x1="232.5" y1="206.7" x2="200.4" y2="225.2" opacity="1.0" stroke="rgb(0,0,0)" stroke-width="2.0"/>
<line x1="230.9" y1="215.9" x2="209.2" y2="228.4" opacity="1.0" stroke="rgb(0,0,0)" stroke-width="2.0"/>
<line x1="200.4" y1="225.2" x2="200.4" y2="262.2" opacity="1.0" stroke="rgb(0,0,0)" stroke-width="2.0"/>
<line x1="232.5" y1="280.7" x2="264.5" y2="262.2" opacity="1.0" stroke="rgb(0,0,0)" stroke-width="2.0"/>
<line x1="264.5" y1="262.2" x2="264.5" y2="225.2" opacity="1.0" stroke="rgb(0,0,0)" stroke-width="2.0"/>
<line x1="257.3" y1="256.2" x2="257.3" y2="231.2" opacity="1.0" stroke="rgb(0,0,0)" stroke-width="2.0"/>
<line x1="136.2" y1="225.2" x2="104.2" y2="206.7" opacity="1.0" stroke="rgb(0,0,0)" stroke-width="2.0"/>
<line x1="104.2" y1="206.7" x2="104.2" y2="169.6" opacity="1.0" stroke="rgb(0,0,0)" stroke-width="2.0"/>
<line x1="111.4" y1="200.7" x2="111.4" y2="175.6" opacity="1.0" stroke="rgb(0,0,0)" stroke-width="2.0"/>
<line x1="104.2" y1="169.6" x2="136.2" y2="151.1" opacity="1.0" stroke="rgb(0,0,0)" stroke-width="2.0"/>
<line x1="136.2" y1="151.1" x2="168.3" y2="169.6" opacity="1.0" stroke="rgb(0,0,0)" stroke-width="2.0"/>
<line x1="137.8" y1="160.3" x2="159.5" y2="172.9" opacity="1.0" stroke="rgb(0,0,0)" stroke-width="2.0"/>
<line x1="168.3" y1="169.6" x2="168.3" y2="206.7" opacity="1.0" stroke="rgb(0,0,0)" stroke-width="2.0"/>
<line x1="168.3" y1="206.7" x2="136.2" y2="225.2" opacity="1.0" stroke="rgb(0,0,0)" stroke-width="2.0"/>
<line x1="159.5" y1="203.4" x2="137.8" y2="215.9" opacity="1.0" stroke="rgb(0,0,0)" stroke-width="2.0"/>
<text x="181.915512" y="328.839854" fill="rgb(178,178,0)" stroke-width="0" font-weight="bold" font-size="16">S</text>
<text x="166.851192" y="295.004837" fill="rgb(12,12,255)" stroke-width="0" font-weight="bold" font-size="16">N</text>
<text x="218.749657" y="324.968430" fill="rgb(12,12,255)" stroke-width="0" font-weight="bold" font-size="16">N</text>
<text x="66.075015" y="159.111111" fill="rgb(12,12,255)" stroke-width="0" font-weight="bold" font-size="16">N</text>
<text x="66.075015" y="122.074074" fill="rgb(255,12,12)" stroke-width="0" font-weight="bold" font-size="16">O</text>
<text x="44.800000" y="165.597630" fill="rgb(255,12,12)" stroke-width="0" font-weight="bold" font-size="16"/>
<text x="44.800000" y="165.597630" fill="rgb(255,12,12)" stroke-width="0" font-weight="bold" font-size="32">.</text>
<text x="34.000000" y="177.629630" fill="rgb(255,12,12)" stroke-width="0" font-weight="bold" font-size="16">O</text>
<text x="290.600120" y="288.740741" fill="rgb(12,12,255)" stroke-width="0" font-weight="bold" font-size="16">N</text>
<text x="450.975194" y="196.148148" fill="rgb(12,12,255)" stroke-width="0" font-weight="bold" font-size="16">N</text>
</svg>
</g>
</svg>