<svg xmlns="http://www.w3.org/2000/svg" x="0" y="0" viewBox="0 0 100 100">
<title>J_8_M - Open Babel Depiction</title>
<rect x="0" y="0" width="100" height="100" fill="white"/>
<g transform="translate(0,0)">
<svg width="100" height="100" x="0" y="0" viewBox="0 0 624.452 468.302" font-family="sans-serif" stroke="rgb(0,0,0)" stroke-width="2" stroke-linecap="round">
<line x1="328.2" y1="114.0" x2="328.2" y2="174.9" opacity="1.0" stroke="rgb(0,0,0)" stroke-width="2.0"/>
<line x1="317.0" y1="194.4" x2="264.2" y2="224.9" opacity="1.0" stroke="rgb(0,0,0)" stroke-width="2.0"/>
<line x1="156.8" y1="273.9" x2="104.1" y2="243.4" opacity="1.0" stroke="rgb(0,0,0)" stroke-width="2.0"/>
<line x1="168.1" y1="293.4" x2="168.1" y2="354.3" opacity="1.0" stroke="rgb(0,0,0)" stroke-width="2.0"/>
<line x1="200.1" y1="261.9" x2="179.4" y2="273.9" opacity="1.0" stroke="rgb(0,0,0)" stroke-width="2.0"/>
<line x1="339.5" y1="194.4" x2="360.3" y2="206.4" opacity="1.0" stroke="rgb(0,0,0)" stroke-width="2.0"/>
<line x1="552.4" y1="317.4" x2="573.2" y2="329.3" opacity="1.0" stroke="rgb(0,0,0)" stroke-width="2.0"/>
<line x1="554.5" y1="313.7" x2="575.3" y2="325.7" opacity="1.0" stroke="rgb(0,0,0)" stroke-width="2.0"/>
<line x1="550.3" y1="321.0" x2="571.1" y2="333.0" opacity="1.0" stroke="rgb(0,0,0)" stroke-width="2.0"/>
<line x1="520.4" y1="298.9" x2="552.4" y2="317.4" opacity="1.0" stroke="rgb(0,0,0)" stroke-width="2.0"/>
<line x1="424.3" y1="243.4" x2="456.3" y2="261.9" opacity="1.0" stroke="rgb(0,0,0)" stroke-width="2.0"/>
<line x1="423.8" y1="149.2" x2="412.9" y2="150.4" opacity="1.0" stroke="rgb(0,0,0)" stroke-width="2.0"/>
<line x1="397.4" y1="163.7" x2="392.3" y2="187.9" opacity="1.0" stroke="rgb(0,0,0)" stroke-width="2.0"/>
<line x1="404.0" y1="167.4" x2="400.6" y2="183.6" opacity="1.0" stroke="rgb(0,0,0)" stroke-width="2.0"/>
<line x1="392.3" y1="187.9" x2="424.3" y2="206.4" opacity="1.0" stroke="rgb(0,0,0)" stroke-width="2.0"/>
<line x1="424.3" y1="206.4" x2="442.7" y2="189.8" opacity="1.0" stroke="rgb(0,0,0)" stroke-width="2.0"/>
<line x1="424.0" y1="197.0" x2="436.2" y2="186.0" opacity="1.0" stroke="rgb(0,0,0)" stroke-width="2.0"/>
<line x1="446.5" y1="169.8" x2="442.0" y2="159.8" opacity="1.0" stroke="rgb(0,0,0)" stroke-width="2.0"/>
<line x1="360.3" y1="58.5" x2="360.3" y2="95.5" opacity="1.0" stroke="rgb(0,0,0)" stroke-width="2.0"/>
<line x1="360.3" y1="95.5" x2="328.2" y2="114.0" opacity="1.0" stroke="rgb(0,0,0)" stroke-width="2.0"/>
<line x1="351.5" y1="92.2" x2="329.8" y2="104.7" opacity="1.0" stroke="rgb(0,0,0)" stroke-width="2.0"/>
<line x1="328.2" y1="114.0" x2="296.2" y2="95.5" opacity="1.0" stroke="rgb(0,0,0)" stroke-width="2.0"/>
<line x1="296.2" y1="95.5" x2="296.2" y2="58.5" opacity="1.0" stroke="rgb(0,0,0)" stroke-width="2.0"/>
<line x1="303.4" y1="89.5" x2="303.4" y2="64.5" opacity="1.0" stroke="rgb(0,0,0)" stroke-width="2.0"/>
<line x1="296.2" y1="58.5" x2="328.2" y2="40.0" opacity="1.0" stroke="rgb(0,0,0)" stroke-width="2.0"/>
<line x1="328.2" y1="40.0" x2="360.3" y2="58.5" opacity="1.0" stroke="rgb(0,0,0)" stroke-width="2.0"/>
<line x1="329.8" y1="49.2" x2="351.5" y2="61.7" opacity="1.0" stroke="rgb(0,0,0)" stroke-width="2.0"/>
<line x1="264.2" y1="261.9" x2="232.2" y2="280.4" opacity="1.0" stroke="rgb(0,0,0)" stroke-width="2.0"/>
<line x1="232.2" y1="280.4" x2="200.1" y2="261.9" opacity="1.0" stroke="rgb(0,0,0)" stroke-width="2.0"/>
<line x1="230.6" y1="271.1" x2="208.9" y2="258.7" opacity="1.0" stroke="rgb(0,0,0)" stroke-width="2.0"/>
<line x1="200.1" y1="261.9" x2="200.1" y2="224.9" opacity="1.0" stroke="rgb(0,0,0)" stroke-width="2.0"/>
<line x1="200.1" y1="224.9" x2="232.2" y2="206.4" opacity="1.0" stroke="rgb(0,0,0)" stroke-width="2.0"/>
<line x1="208.9" y1="228.1" x2="230.6" y2="215.7" opacity="1.0" stroke="rgb(0,0,0)" stroke-width="2.0"/>
<line x1="232.2" y1="206.4" x2="264.2" y2="224.9" opacity="1.0" stroke="rgb(0,0,0)" stroke-width="2.0"/>
<line x1="264.2" y1="224.9" x2="264.2" y2="261.9" opacity="1.0" stroke="rgb(0,0,0)" stroke-width="2.0"/>
<line x1="257.0" y1="230.9" x2="257.0" y2="255.9" opacity="1.0" stroke="rgb(0,0,0)" stroke-width="2.0"/>
<line x1="200.1" y1="372.8" x2="168.1" y2="354.3" opacity="1.0" stroke="rgb(0,0,0)" stroke-width="2.0"/>
<line x1="191.3" y1="376.1" x2="169.7" y2="363.6" opacity="1.0" stroke="rgb(0,0,0)" stroke-width="2.0"/>
<line x1="168.1" y1="354.3" x2="136.1" y2="372.8" opacity="1.0" stroke="rgb(0,0,0)" stroke-width="2.0"/>
<line x1="136.1" y1="372.8" x2="136.1" y2="409.8" opacity="1.0" stroke="rgb(0,0,0)" stroke-width="2.0"/>
<line x1="143.3" y1="378.8" x2="143.3" y2="403.8" opacity="1.0" stroke="rgb(0,0,0)" stroke-width="2.0"/>
<line x1="136.1" y1="409.8" x2="168.1" y2="428.3" opacity="1.0" stroke="rgb(0,0,0)" stroke-width="2.0"/>
<line x1="168.1" y1="428.3" x2="200.1" y2="409.8" opacity="1.0" stroke="rgb(0,0,0)" stroke-width="2.0"/>
<line x1="169.7" y1="419.1" x2="191.3" y2="406.6" opacity="1.0" stroke="rgb(0,0,0)" stroke-width="2.0"/>
<line x1="200.1" y1="409.8" x2="200.1" y2="372.8" opacity="1.0" stroke="rgb(0,0,0)" stroke-width="2.0"/>
<line x1="72.0" y1="261.9" x2="104.1" y2="243.4" opacity="1.0" stroke="rgb(0,0,0)" stroke-width="2.0"/>
<line x1="73.6" y1="252.7" x2="95.3" y2="240.2" opacity="1.0" stroke="rgb(0,0,0)" stroke-width="2.0"/>
<line x1="104.1" y1="243.4" x2="104.1" y2="206.4" opacity="1.0" stroke="rgb(0,0,0)" stroke-width="2.0"/>
<line x1="104.1" y1="206.4" x2="72.0" y2="187.9" opacity="1.0" stroke="rgb(0,0,0)" stroke-width="2.0"/>
<line x1="95.3" y1="209.7" x2="73.6" y2="197.2" opacity="1.0" stroke="rgb(0,0,0)" stroke-width="2.0"/>
<line x1="72.0" y1="187.9" x2="40.0" y2="206.4" opacity="1.0" stroke="rgb(0,0,0)" stroke-width="2.0"/>
<line x1="40.0" y1="206.4" x2="40.0" y2="243.4" opacity="1.0" stroke="rgb(0,0,0)" stroke-width="2.0"/>
<line x1="47.2" y1="212.4" x2="47.2" y2="237.4" opacity="1.0" stroke="rgb(0,0,0)" stroke-width="2.0"/>
<line x1="40.0" y1="243.4" x2="72.0" y2="261.9" opacity="1.0" stroke="rgb(0,0,0)" stroke-width="2.0"/>
<line x1="360.3" y1="243.4" x2="392.3" y2="261.9" opacity="1.0" stroke="rgb(0,0,0)" stroke-width="2.0"/>
<line x1="392.3" y1="261.9" x2="424.3" y2="243.4" opacity="1.0" stroke="rgb(0,0,0)" stroke-width="2.0"/>
<line x1="393.9" y1="252.7" x2="415.5" y2="240.2" opacity="1.0" stroke="rgb(0,0,0)" stroke-width="2.0"/>
<line x1="424.3" y1="243.4" x2="424.3" y2="206.4" opacity="1.0" stroke="rgb(0,0,0)" stroke-width="2.0"/>
<line x1="392.3" y1="187.9" x2="360.3" y2="206.4" opacity="1.0" stroke="rgb(0,0,0)" stroke-width="2.0"/>
<line x1="360.3" y1="206.4" x2="360.3" y2="243.4" opacity="1.0" stroke="rgb(0,0,0)" stroke-width="2.0"/>
<line x1="367.5" y1="212.4" x2="367.5" y2="237.4" opacity="1.0" stroke="rgb(0,0,0)" stroke-width="2.0"/>
<line x1="488.4" y1="243.4" x2="520.4" y2="261.9" opacity="1.0" stroke="rgb(0,0,0)" stroke-width="2.0"/>
<line x1="520.4" y1="261.9" x2="520.4" y2="298.9" opacity="1.0" stroke="rgb(0,0,0)" stroke-width="2.0"/>
<line x1="513.2" y1="267.9" x2="513.2" y2="292.9" opacity="1.0" stroke="rgb(0,0,0)" stroke-width="2.0"/>
<line x1="520.4" y1="298.9" x2="488.4" y2="317.4" opacity="1.0" stroke="rgb(0,0,0)" stroke-width="2.0"/>
<line x1="488.4" y1="317.4" x2="456.3" y2="298.9" opacity="1.0" stroke="rgb(0,0,0)" stroke-width="2.0"/>
<line x1="486.8" y1="308.1" x2="465.1" y2="295.6" opacity="1.0" stroke="rgb(0,0,0)" stroke-width="2.0"/>
<line x1="456.3" y1="298.9" x2="456.3" y2="261.9" opacity="1.0" stroke="rgb(0,0,0)" stroke-width="2.0"/>
<line x1="456.3" y1="261.9" x2="488.4" y2="243.4" opacity="1.0" stroke="rgb(0,0,0)" stroke-width="2.0"/>
<line x1="465.1" y1="265.1" x2="486.8" y2="252.6" opacity="1.0" stroke="rgb(0,0,0)" stroke-width="2.0"/>
<text x="445.801535" y="189.669887" fill="rgb(12,12,255)" stroke-width="0" font-weight="bold" font-size="16">N</text>
<text x="430.759953" y="155.885942" fill="rgb(178,178,0)" stroke-width="0" font-weight="bold" font-size="16">S</text>
<text x="393.981408" y="159.751523" fill="rgb(12,12,255)" stroke-width="0" font-weight="bold" font-size="16">N</text>
<text x="578.452197" y="343.849057" fill="rgb(12,12,255)" stroke-width="0" font-weight="bold" font-size="16">N</text>
<text x="322.239399" y="195.924528" fill="rgb(12,12,255)" stroke-width="0" font-weight="bold" font-size="16">N</text>
<text x="162.106399" y="288.377358" fill="rgb(12,12,255)" stroke-width="0" font-weight="bold" font-size="16">N</text>
</svg>
</g>
</svg>
