<svg xmlns="http://www.w3.org/2000/svg" x="0" y="0" viewBox="0 0 100 100">
<title>J_8_L - Open Babel Depiction</title>
<rect x="0" y="0" width="100" height="100" fill="white"/>
<g transform="translate(0,0)">
<svg width="100" height="100" x="0" y="0" viewBox="0 0 589.389 469.455" font-family="sans-serif" stroke="rgb(0,0,0)" stroke-width="2" stroke-linecap="round">
<line x1="329.1" y1="114.2" x2="329.1" y2="175.4" opacity="1.0" stroke="rgb(0,0,0)" stroke-width="2.0"/>
<line x1="317.8" y1="194.9" x2="264.9" y2="225.5" opacity="1.0" stroke="rgb(0,0,0)" stroke-width="2.0"/>
<line x1="157.2" y1="274.6" x2="104.2" y2="244.0" opacity="1.0" stroke="rgb(0,0,0)" stroke-width="2.0"/>
<line x1="168.5" y1="294.1" x2="168.5" y2="355.3" opacity="1.0" stroke="rgb(0,0,0)" stroke-width="2.0"/>
<line x1="200.6" y1="262.5" x2="179.7" y2="274.6" opacity="1.0" stroke="rgb(0,0,0)" stroke-width="2.0"/>
<line x1="340.4" y1="194.9" x2="361.2" y2="206.9" opacity="1.0" stroke="rgb(0,0,0)" stroke-width="2.0"/>
<line x1="425.5" y1="244.0" x2="457.6" y2="262.5" opacity="1.0" stroke="rgb(0,0,0)" stroke-width="2.0"/>
<line x1="425.0" y1="149.6" x2="414.0" y2="150.7" opacity="1.0" stroke="rgb(0,0,0)" stroke-width="2.0"/>
<line x1="398.5" y1="164.1" x2="393.3" y2="188.4" opacity="1.0" stroke="rgb(0,0,0)" stroke-width="2.0"/>
<line x1="405.1" y1="167.8" x2="401.6" y2="184.0" opacity="1.0" stroke="rgb(0,0,0)" stroke-width="2.0"/>
<line x1="393.3" y1="188.4" x2="425.5" y2="206.9" opacity="1.0" stroke="rgb(0,0,0)" stroke-width="2.0"/>
<line x1="425.5" y1="206.9" x2="443.9" y2="190.3" opacity="1.0" stroke="rgb(0,0,0)" stroke-width="2.0"/>
<line x1="425.1" y1="197.5" x2="437.4" y2="186.5" opacity="1.0" stroke="rgb(0,0,0)" stroke-width="2.0"/>
<line x1="447.7" y1="170.2" x2="443.2" y2="160.1" opacity="1.0" stroke="rgb(0,0,0)" stroke-width="2.0"/>
<line x1="534.3" y1="358.3" x2="497.4" y2="354.5" opacity="1.0" stroke="rgb(0,0,0)" stroke-width="2.0"/>
<line x1="529.1" y1="350.6" x2="504.1" y2="347.9" opacity="1.0" stroke="rgb(0,0,0)" stroke-width="2.0"/>
<line x1="497.4" y1="354.5" x2="489.7" y2="318.2" opacity="1.0" stroke="rgb(0,0,0)" stroke-width="2.0"/>
<line x1="489.7" y1="318.2" x2="521.8" y2="299.6" opacity="1.0" stroke="rgb(0,0,0)" stroke-width="2.0"/>
<line x1="521.8" y1="299.6" x2="539.7" y2="315.8" opacity="1.0" stroke="rgb(0,0,0)" stroke-width="2.0"/>
<line x1="544.1" y1="336.3" x2="534.3" y2="358.3" opacity="1.0" stroke="rgb(0,0,0)" stroke-width="2.0"/>
<line x1="361.2" y1="58.5" x2="361.2" y2="95.6" opacity="1.0" stroke="rgb(0,0,0)" stroke-width="2.0"/>
<line x1="361.2" y1="95.6" x2="329.1" y2="114.2" opacity="1.0" stroke="rgb(0,0,0)" stroke-width="2.0"/>
<line x1="352.4" y1="92.4" x2="330.7" y2="104.9" opacity="1.0" stroke="rgb(0,0,0)" stroke-width="2.0"/>
<line x1="329.1" y1="114.2" x2="297.0" y2="95.6" opacity="1.0" stroke="rgb(0,0,0)" stroke-width="2.0"/>
<line x1="297.0" y1="95.6" x2="297.0" y2="58.5" opacity="1.0" stroke="rgb(0,0,0)" stroke-width="2.0"/>
<line x1="304.2" y1="89.6" x2="304.2" y2="64.5" opacity="1.0" stroke="rgb(0,0,0)" stroke-width="2.0"/>
<line x1="297.0" y1="58.5" x2="329.1" y2="40.0" opacity="1.0" stroke="rgb(0,0,0)" stroke-width="2.0"/>
<line x1="329.1" y1="40.0" x2="361.2" y2="58.5" opacity="1.0" stroke="rgb(0,0,0)" stroke-width="2.0"/>
<line x1="330.7" y1="49.2" x2="352.4" y2="61.8" opacity="1.0" stroke="rgb(0,0,0)" stroke-width="2.0"/>
<line x1="264.9" y1="262.5" x2="232.7" y2="281.1" opacity="1.0" stroke="rgb(0,0,0)" stroke-width="2.0"/>
<line x1="232.7" y1="281.1" x2="200.6" y2="262.5" opacity="1.0" stroke="rgb(0,0,0)" stroke-width="2.0"/>
<line x1="231.1" y1="271.9" x2="209.4" y2="259.3" opacity="1.0" stroke="rgb(0,0,0)" stroke-width="2.0"/>
<line x1="200.6" y1="262.5" x2="200.6" y2="225.5" opacity="1.0" stroke="rgb(0,0,0)" stroke-width="2.0"/>
<line x1="200.6" y1="225.5" x2="232.7" y2="206.9" opacity="1.0" stroke="rgb(0,0,0)" stroke-width="2.0"/>
<line x1="209.4" y1="228.7" x2="231.1" y2="216.1" opacity="1.0" stroke="rgb(0,0,0)" stroke-width="2.0"/>
<line x1="232.7" y1="206.9" x2="264.9" y2="225.5" opacity="1.0" stroke="rgb(0,0,0)" stroke-width="2.0"/>
<line x1="264.9" y1="225.5" x2="264.9" y2="262.5" opacity="1.0" stroke="rgb(0,0,0)" stroke-width="2.0"/>
<line x1="257.7" y1="231.5" x2="257.7" y2="256.5" opacity="1.0" stroke="rgb(0,0,0)" stroke-width="2.0"/>
<line x1="200.6" y1="373.8" x2="168.5" y2="355.3" opacity="1.0" stroke="rgb(0,0,0)" stroke-width="2.0"/>
<line x1="191.8" y1="377.1" x2="170.1" y2="364.5" opacity="1.0" stroke="rgb(0,0,0)" stroke-width="2.0"/>
<line x1="168.5" y1="355.3" x2="136.4" y2="373.8" opacity="1.0" stroke="rgb(0,0,0)" stroke-width="2.0"/>
<line x1="136.4" y1="373.8" x2="136.4" y2="410.9" opacity="1.0" stroke="rgb(0,0,0)" stroke-width="2.0"/>
<line x1="143.6" y1="379.8" x2="143.6" y2="404.9" opacity="1.0" stroke="rgb(0,0,0)" stroke-width="2.0"/>
<line x1="136.4" y1="410.9" x2="168.5" y2="429.5" opacity="1.0" stroke="rgb(0,0,0)" stroke-width="2.0"/>
<line x1="168.5" y1="429.5" x2="200.6" y2="410.9" opacity="1.0" stroke="rgb(0,0,0)" stroke-width="2.0"/>
<line x1="170.1" y1="420.2" x2="191.8" y2="407.7" opacity="1.0" stroke="rgb(0,0,0)" stroke-width="2.0"/>
<line x1="200.6" y1="410.9" x2="200.6" y2="373.8" opacity="1.0" stroke="rgb(0,0,0)" stroke-width="2.0"/>
<line x1="72.1" y1="262.5" x2="104.2" y2="244.0" opacity="1.0" stroke="rgb(0,0,0)" stroke-width="2.0"/>
<line x1="73.7" y1="253.3" x2="95.4" y2="240.8" opacity="1.0" stroke="rgb(0,0,0)" stroke-width="2.0"/>
<line x1="104.2" y1="244.0" x2="104.2" y2="206.9" opacity="1.0" stroke="rgb(0,0,0)" stroke-width="2.0"/>
<line x1="104.2" y1="206.9" x2="72.1" y2="188.4" opacity="1.0" stroke="rgb(0,0,0)" stroke-width="2.0"/>
<line x1="95.4" y1="210.1" x2="73.7" y2="197.6" opacity="1.0" stroke="rgb(0,0,0)" stroke-width="2.0"/>
<line x1="72.1" y1="188.4" x2="40.0" y2="206.9" opacity="1.0" stroke="rgb(0,0,0)" stroke-width="2.0"/>
<line x1="40.0" y1="206.9" x2="40.0" y2="244.0" opacity="1.0" stroke="rgb(0,0,0)" stroke-width="2.0"/>
<line x1="47.2" y1="212.9" x2="47.2" y2="238.0" opacity="1.0" stroke="rgb(0,0,0)" stroke-width="2.0"/>
<line x1="40.0" y1="244.0" x2="72.1" y2="262.5" opacity="1.0" stroke="rgb(0,0,0)" stroke-width="2.0"/>
<line x1="361.2" y1="244.0" x2="393.3" y2="262.5" opacity="1.0" stroke="rgb(0,0,0)" stroke-width="2.0"/>
<line x1="393.3" y1="262.5" x2="425.5" y2="244.0" opacity="1.0" stroke="rgb(0,0,0)" stroke-width="2.0"/>
<line x1="394.9" y1="253.3" x2="416.7" y2="240.8" opacity="1.0" stroke="rgb(0,0,0)" stroke-width="2.0"/>
<line x1="425.5" y1="244.0" x2="425.5" y2="206.9" opacity="1.0" stroke="rgb(0,0,0)" stroke-width="2.0"/>
<line x1="393.3" y1="188.4" x2="361.2" y2="206.9" opacity="1.0" stroke="rgb(0,0,0)" stroke-width="2.0"/>
<line x1="361.2" y1="206.9" x2="361.2" y2="244.0" opacity="1.0" stroke="rgb(0,0,0)" stroke-width="2.0"/>
<line x1="368.4" y1="212.9" x2="368.4" y2="238.0" opacity="1.0" stroke="rgb(0,0,0)" stroke-width="2.0"/>
<line x1="489.7" y1="244.0" x2="521.8" y2="262.5" opacity="1.0" stroke="rgb(0,0,0)" stroke-width="2.0"/>
<line x1="521.8" y1="262.5" x2="521.8" y2="299.6" opacity="1.0" stroke="rgb(0,0,0)" stroke-width="2.0"/>
<line x1="514.6" y1="268.5" x2="514.6" y2="293.6" opacity="1.0" stroke="rgb(0,0,0)" stroke-width="2.0"/>
<line x1="489.7" y1="318.2" x2="457.6" y2="299.6" opacity="1.0" stroke="rgb(0,0,0)" stroke-width="2.0"/>
<line x1="488.1" y1="308.9" x2="466.4" y2="296.4" opacity="1.0" stroke="rgb(0,0,0)" stroke-width="2.0"/>
<line x1="457.6" y1="299.6" x2="457.6" y2="262.5" opacity="1.0" stroke="rgb(0,0,0)" stroke-width="2.0"/>
<line x1="457.6" y1="262.5" x2="489.7" y2="244.0" opacity="1.0" stroke="rgb(0,0,0)" stroke-width="2.0"/>
<line x1="466.4" y1="265.8" x2="488.1" y2="253.2" opacity="1.0" stroke="rgb(0,0,0)" stroke-width="2.0"/>
<text x="431.937720" y="156.206197" fill="rgb(178,178,0)" stroke-width="0" font-weight="bold" font-size="16">S</text>
<text x="447.023951" y="190.090428" fill="rgb(12,12,255)" stroke-width="0" font-weight="bold" font-size="16">N</text>
<text x="395.049998" y="160.083253" fill="rgb(12,12,255)" stroke-width="0" font-weight="bold" font-size="16">N</text>
<text x="543.388960" y="332.455026" fill="rgb(12,12,255)" stroke-width="0" font-weight="bold" font-size="16">NH</text>
<text x="323.095026" y="196.363636" fill="rgb(12,12,255)" stroke-width="0" font-weight="bold" font-size="16">N</text>
<text x="162.486678" y="289.090909" fill="rgb(12,12,255)" stroke-width="0" font-weight="bold" font-size="16">N</text>
</svg>
</g>
</svg>
