<svg xmlns="http://www.w3.org/2000/svg" xmlns:xlink="http://www.w3.org/1999/xlink" xmlns:cml="http://www.xml-cml.org/schema" version="1.1" id="topsvg" x="0" y="0" viewBox="0 0 100 100">
<title>J_8_P - Open Babel Depiction</title>
<rect x="0" y="0" width="100" height="100" fill="white"/>
<g transform="translate(0,0)">
<svg width="100" height="100" x="0" y="0" viewBox="0 0 624.452 468.302" font-family="sans-serif" stroke="rgb(0,0,0)" stroke-width="2" stroke-linecap="round">
<line x1="296.2" y1="354.3" x2="296.2" y2="293.4" opacity="1.0" stroke="rgb(0,0,0)" stroke-width="2.0"/>
<line x1="307.5" y1="273.9" x2="360.3" y2="243.4" opacity="1.0" stroke="rgb(0,0,0)" stroke-width="2.0"/>
<line x1="467.6" y1="194.4" x2="520.4" y2="224.9" opacity="1.0" stroke="rgb(0,0,0)" stroke-width="2.0"/>
<line x1="456.3" y1="174.9" x2="456.3" y2="114.0" opacity="1.0" stroke="rgb(0,0,0)" stroke-width="2.0"/>
<line x1="424.3" y1="206.4" x2="445.1" y2="194.4" opacity="1.0" stroke="rgb(0,0,0)" stroke-width="2.0"/>
<line x1="285.0" y1="273.9" x2="264.2" y2="261.9" opacity="1.0" stroke="rgb(0,0,0)" stroke-width="2.0"/>
<line x1="60.8" y1="157.4" x2="51.3" y2="162.9" opacity="1.0" stroke="rgb(0,0,0)" stroke-width="2.0"/>
<line x1="104.1" y1="169.4" x2="83.3" y2="157.4" opacity="1.0" stroke="rgb(0,0,0)" stroke-width="2.0"/>
<line x1="200.1" y1="224.9" x2="168.1" y2="206.4" opacity="1.0" stroke="rgb(0,0,0)" stroke-width="2.0"/>
<line x1="200.6" y1="319.1" x2="211.5" y2="317.9" opacity="1.0" stroke="rgb(0,0,0)" stroke-width="2.0"/>
<line x1="227.0" y1="304.6" x2="232.2" y2="280.4" opacity="1.0" stroke="rgb(0,0,0)" stroke-width="2.0"/>
<line x1="220.4" y1="300.9" x2="223.9" y2="284.7" opacity="1.0" stroke="rgb(0,0,0)" stroke-width="2.0"/>
<line x1="232.2" y1="280.4" x2="200.1" y2="261.9" opacity="1.0" stroke="rgb(0,0,0)" stroke-width="2.0"/>
<line x1="200.1" y1="261.9" x2="181.7" y2="278.5" opacity="1.0" stroke="rgb(0,0,0)" stroke-width="2.0"/>
<line x1="200.5" y1="271.3" x2="188.2" y2="282.3" opacity="1.0" stroke="rgb(0,0,0)" stroke-width="2.0"/>
<line x1="177.9" y1="298.5" x2="182.4" y2="308.5" opacity="1.0" stroke="rgb(0,0,0)" stroke-width="2.0"/>
<line x1="264.2" y1="409.8" x2="264.2" y2="372.8" opacity="1.0" stroke="rgb(0,0,0)" stroke-width="2.0"/>
<line x1="264.2" y1="372.8" x2="296.2" y2="354.3" opacity="1.0" stroke="rgb(0,0,0)" stroke-width="2.0"/>
<line x1="273.0" y1="376.1" x2="294.6" y2="363.6" opacity="1.0" stroke="rgb(0,0,0)" stroke-width="2.0"/>
<line x1="296.2" y1="354.3" x2="328.2" y2="372.8" opacity="1.0" stroke="rgb(0,0,0)" stroke-width="2.0"/>
<line x1="328.2" y1="372.8" x2="328.2" y2="409.8" opacity="1.0" stroke="rgb(0,0,0)" stroke-width="2.0"/>
<line x1="321.0" y1="378.8" x2="321.0" y2="403.8" opacity="1.0" stroke="rgb(0,0,0)" stroke-width="2.0"/>
<line x1="328.2" y1="409.8" x2="296.2" y2="428.3" opacity="1.0" stroke="rgb(0,0,0)" stroke-width="2.0"/>
<line x1="296.2" y1="428.3" x2="264.2" y2="409.8" opacity="1.0" stroke="rgb(0,0,0)" stroke-width="2.0"/>
<line x1="294.6" y1="419.1" x2="273.0" y2="406.6" opacity="1.0" stroke="rgb(0,0,0)" stroke-width="2.0"/>
<line x1="360.3" y1="206.4" x2="392.3" y2="187.9" opacity="1.0" stroke="rgb(0,0,0)" stroke-width="2.0"/>
<line x1="392.3" y1="187.9" x2="424.3" y2="206.4" opacity="1.0" stroke="rgb(0,0,0)" stroke-width="2.0"/>
<line x1="393.9" y1="197.2" x2="415.5" y2="209.7" opacity="1.0" stroke="rgb(0,0,0)" stroke-width="2.0"/>
<line x1="424.3" y1="206.4" x2="424.3" y2="243.4" opacity="1.0" stroke="rgb(0,0,0)" stroke-width="2.0"/>
<line x1="424.3" y1="243.4" x2="392.3" y2="261.9" opacity="1.0" stroke="rgb(0,0,0)" stroke-width="2.0"/>
<line x1="415.5" y1="240.2" x2="393.9" y2="252.7" opacity="1.0" stroke="rgb(0,0,0)" stroke-width="2.0"/>
<line x1="392.3" y1="261.9" x2="360.3" y2="243.4" opacity="1.0" stroke="rgb(0,0,0)" stroke-width="2.0"/>
<line x1="360.3" y1="243.4" x2="360.3" y2="206.4" opacity="1.0" stroke="rgb(0,0,0)" stroke-width="2.0"/>
<line x1="367.5" y1="237.4" x2="367.5" y2="212.4" opacity="1.0" stroke="rgb(0,0,0)" stroke-width="2.0"/>
<line x1="424.3" y1="95.5" x2="456.3" y2="114.0" opacity="1.0" stroke="rgb(0,0,0)" stroke-width="2.0"/>
<line x1="433.1" y1="92.2" x2="454.7" y2="104.7" opacity="1.0" stroke="rgb(0,0,0)" stroke-width="2.0"/>
<line x1="456.3" y1="114.0" x2="488.4" y2="95.5" opacity="1.0" stroke="rgb(0,0,0)" stroke-width="2.0"/>
<line x1="488.4" y1="95.5" x2="488.4" y2="58.5" opacity="1.0" stroke="rgb(0,0,0)" stroke-width="2.0"/>
<line x1="481.2" y1="89.5" x2="481.2" y2="64.5" opacity="1.0" stroke="rgb(0,0,0)" stroke-width="2.0"/>
<line x1="488.4" y1="58.5" x2="456.3" y2="40.0" opacity="1.0" stroke="rgb(0,0,0)" stroke-width="2.0"/>
<line x1="456.3" y1="40.0" x2="424.3" y2="58.5" opacity="1.0" stroke="rgb(0,0,0)" stroke-width="2.0"/>
<line x1="454.7" y1="49.2" x2="433.1" y2="61.7" opacity="1.0" stroke="rgb(0,0,0)" stroke-width="2.0"/>
<line x1="424.3" y1="58.5" x2="424.3" y2="95.5" opacity="1.0" stroke="rgb(0,0,0)" stroke-width="2.0"/>
<line x1="552.4" y1="206.4" x2="520.4" y2="224.9" opacity="1.0" stroke="rgb(0,0,0)" stroke-width="2.0"/>
<line x1="550.8" y1="215.7" x2="529.2" y2="228.1" opacity="1.0" stroke="rgb(0,0,0)" stroke-width="2.0"/>
<line x1="520.4" y1="224.9" x2="520.4" y2="261.9" opacity="1.0" stroke="rgb(0,0,0)" stroke-width="2.0"/>
<line x1="520.4" y1="261.9" x2="552.4" y2="280.4" opacity="1.0" stroke="rgb(0,0,0)" stroke-width="2.0"/>
<line x1="529.2" y1="258.7" x2="550.8" y2="271.1" opacity="1.0" stroke="rgb(0,0,0)" stroke-width="2.0"/>
<line x1="552.4" y1="280.4" x2="584.5" y2="261.9" opacity="1.0" stroke="rgb(0,0,0)" stroke-width="2.0"/>
<line x1="584.5" y1="261.9" x2="584.5" y2="224.9" opacity="1.0" stroke="rgb(0,0,0)" stroke-width="2.0"/>
<line x1="577.3" y1="255.9" x2="577.3" y2="230.9" opacity="1.0" stroke="rgb(0,0,0)" stroke-width="2.0"/>
<line x1="584.5" y1="224.9" x2="552.4" y2="206.4" opacity="1.0" stroke="rgb(0,0,0)" stroke-width="2.0"/>
<line x1="264.2" y1="224.9" x2="232.2" y2="206.4" opacity="1.0" stroke="rgb(0,0,0)" stroke-width="2.0"/>
<line x1="232.2" y1="206.4" x2="200.1" y2="224.9" opacity="1.0" stroke="rgb(0,0,0)" stroke-width="2.0"/>
<line x1="230.6" y1="215.7" x2="208.9" y2="228.1" opacity="1.0" stroke="rgb(0,0,0)" stroke-width="2.0"/>
<line x1="200.1" y1="224.9" x2="200.1" y2="261.9" opacity="1.0" stroke="rgb(0,0,0)" stroke-width="2.0"/>
<line x1="232.2" y1="280.4" x2="264.2" y2="261.9" opacity="1.0" stroke="rgb(0,0,0)" stroke-width="2.0"/>
<line x1="264.2" y1="261.9" x2="264.2" y2="224.9" opacity="1.0" stroke="rgb(0,0,0)" stroke-width="2.0"/>
<line x1="257.0" y1="255.9" x2="257.0" y2="230.9" opacity="1.0" stroke="rgb(0,0,0)" stroke-width="2.0"/>
<line x1="136.1" y1="224.9" x2="104.1" y2="206.4" opacity="1.0" stroke="rgb(0,0,0)" stroke-width="2.0"/>
<line x1="104.1" y1="206.4" x2="104.1" y2="169.4" opacity="1.0" stroke="rgb(0,0,0)" stroke-width="2.0"/>
<line x1="111.3" y1="200.4" x2="111.3" y2="175.4" opacity="1.0" stroke="rgb(0,0,0)" stroke-width="2.0"/>
<line x1="104.1" y1="169.4" x2="136.1" y2="150.9" opacity="1.0" stroke="rgb(0,0,0)" stroke-width="2.0"/>
<line x1="136.1" y1="150.9" x2="168.1" y2="169.4" opacity="1.0" stroke="rgb(0,0,0)" stroke-width="2.0"/>
<line x1="137.7" y1="160.2" x2="159.3" y2="172.7" opacity="1.0" stroke="rgb(0,0,0)" stroke-width="2.0"/>
<line x1="168.1" y1="169.4" x2="168.1" y2="206.4" opacity="1.0" stroke="rgb(0,0,0)" stroke-width="2.0"/>
<line x1="168.1" y1="206.4" x2="136.1" y2="224.9" opacity="1.0" stroke="rgb(0,0,0)" stroke-width="2.0"/>
<line x1="159.3" y1="203.2" x2="137.7" y2="215.7" opacity="1.0" stroke="rgb(0,0,0)" stroke-width="2.0"/>
<text x="166.650662" y="294.632000" fill="rgb(12,12,255)" stroke-width="0" font-weight="bold" font-size="16">N</text>
<text x="181.692244" y="328.415945" fill="rgb(178,178,0)" stroke-width="0" font-weight="bold" font-size="16">S</text>
<text x="218.470789" y="324.550364" fill="rgb(12,12,255)" stroke-width="0" font-weight="bold" font-size="16">N</text>
<text x="66.026600" y="158.943396" fill="rgb(255,12,12)" stroke-width="0" font-weight="bold" font-size="16">O</text>
<text x="14.000000" y="177.433962" fill="rgb(102,102,102)" stroke-width="0" font-weight="bold" font-size="16">H</text>
<text x="26.000000" y="181.113962" fill="rgb(102,102,102)" stroke-width="0" font-weight="bold" font-size="13">3</text>
<text x="32.500000" y="177.433962" fill="rgb(102,102,102)" stroke-width="0" font-weight="bold" font-size="16">C</text>
<text x="290.212799" y="288.377358" fill="rgb(12,12,255)" stroke-width="0" font-weight="bold" font-size="16">N</text>
<text x="450.345798" y="195.924528" fill="rgb(12,12,255)" stroke-width="0" font-weight="bold" font-size="16">N</text>
</svg>
</g>
</svg>