<svg xmlns="http://www.w3.org/2000/svg" x="0" y="0" viewBox="0 0 100 100">
<title>J_8_Q - Open Babel Depiction</title>
<rect x="0" y="0" width="100" height="100" fill="white"/>
<g transform="translate(0,0)">
<svg width="100" height="100" x="0" y="0" viewBox="0 0 558.861 467.059" font-family="sans-serif" stroke="rgb(0,0,0)" stroke-width="2" stroke-linecap="round">
<line x1="327.3" y1="113.7" x2="327.3" y2="174.5" opacity="1.0" stroke="rgb(0,0,0)" stroke-width="2.0"/>
<line x1="316.1" y1="194.0" x2="263.5" y2="224.3" opacity="1.0" stroke="rgb(0,0,0)" stroke-width="2.0"/>
<line x1="156.4" y1="273.1" x2="103.8" y2="242.7" opacity="1.0" stroke="rgb(0,0,0)" stroke-width="2.0"/>
<line x1="167.7" y1="292.6" x2="167.7" y2="353.3" opacity="1.0" stroke="rgb(0,0,0)" stroke-width="2.0"/>
<line x1="199.6" y1="261.2" x2="179.0" y2="273.1" opacity="1.0" stroke="rgb(0,0,0)" stroke-width="2.0"/>
<line x1="338.6" y1="194.0" x2="359.2" y2="205.9" opacity="1.0" stroke="rgb(0,0,0)" stroke-width="2.0"/>
<line x1="423.1" y1="242.7" x2="455.0" y2="261.2" opacity="1.0" stroke="rgb(0,0,0)" stroke-width="2.0"/>
<line x1="422.6" y1="148.9" x2="411.8" y2="150.0" opacity="1.0" stroke="rgb(0,0,0)" stroke-width="2.0"/>
<line x1="396.3" y1="163.3" x2="391.2" y2="187.5" opacity="1.0" stroke="rgb(0,0,0)" stroke-width="2.0"/>
<line x1="402.9" y1="167.1" x2="399.5" y2="183.1" opacity="1.0" stroke="rgb(0,0,0)" stroke-width="2.0"/>
<line x1="391.2" y1="187.5" x2="423.1" y2="205.9" opacity="1.0" stroke="rgb(0,0,0)" stroke-width="2.0"/>
<line x1="423.1" y1="205.9" x2="441.4" y2="189.4" opacity="1.0" stroke="rgb(0,0,0)" stroke-width="2.0"/>
<line x1="422.7" y1="196.5" x2="434.9" y2="185.6" opacity="1.0" stroke="rgb(0,0,0)" stroke-width="2.0"/>
<line x1="445.2" y1="169.3" x2="440.8" y2="159.4" opacity="1.0" stroke="rgb(0,0,0)" stroke-width="2.0"/>
<line x1="359.2" y1="58.4" x2="359.2" y2="95.3" opacity="1.0" stroke="rgb(0,0,0)" stroke-width="2.0"/>
<line x1="359.2" y1="95.3" x2="327.3" y2="113.7" opacity="1.0" stroke="rgb(0,0,0)" stroke-width="2.0"/>
<line x1="350.4" y1="92.1" x2="328.9" y2="104.5" opacity="1.0" stroke="rgb(0,0,0)" stroke-width="2.0"/>
<line x1="327.3" y1="113.7" x2="295.4" y2="95.3" opacity="1.0" stroke="rgb(0,0,0)" stroke-width="2.0"/>
<line x1="295.4" y1="95.3" x2="295.4" y2="58.4" opacity="1.0" stroke="rgb(0,0,0)" stroke-width="2.0"/>
<line x1="302.6" y1="89.3" x2="302.6" y2="64.4" opacity="1.0" stroke="rgb(0,0,0)" stroke-width="2.0"/>
<line x1="295.4" y1="58.4" x2="327.3" y2="40.0" opacity="1.0" stroke="rgb(0,0,0)" stroke-width="2.0"/>
<line x1="327.3" y1="40.0" x2="359.2" y2="58.4" opacity="1.0" stroke="rgb(0,0,0)" stroke-width="2.0"/>
<line x1="328.9" y1="49.2" x2="350.4" y2="61.7" opacity="1.0" stroke="rgb(0,0,0)" stroke-width="2.0"/>
<line x1="263.5" y1="261.2" x2="231.5" y2="279.6" opacity="1.0" stroke="rgb(0,0,0)" stroke-width="2.0"/>
<line x1="231.5" y1="279.6" x2="199.6" y2="261.2" opacity="1.0" stroke="rgb(0,0,0)" stroke-width="2.0"/>
<line x1="229.9" y1="270.4" x2="208.4" y2="257.9" opacity="1.0" stroke="rgb(0,0,0)" stroke-width="2.0"/>
<line x1="199.6" y1="261.2" x2="199.6" y2="224.3" opacity="1.0" stroke="rgb(0,0,0)" stroke-width="2.0"/>
<line x1="199.6" y1="224.3" x2="231.5" y2="205.9" opacity="1.0" stroke="rgb(0,0,0)" stroke-width="2.0"/>
<line x1="208.4" y1="227.5" x2="229.9" y2="215.1" opacity="1.0" stroke="rgb(0,0,0)" stroke-width="2.0"/>
<line x1="231.5" y1="205.9" x2="263.5" y2="224.3" opacity="1.0" stroke="rgb(0,0,0)" stroke-width="2.0"/>
<line x1="263.5" y1="224.3" x2="263.5" y2="261.2" opacity="1.0" stroke="rgb(0,0,0)" stroke-width="2.0"/>
<line x1="256.3" y1="230.3" x2="256.3" y2="255.2" opacity="1.0" stroke="rgb(0,0,0)" stroke-width="2.0"/>
<line x1="199.6" y1="371.8" x2="167.7" y2="353.3" opacity="1.0" stroke="rgb(0,0,0)" stroke-width="2.0"/>
<line x1="190.8" y1="375.0" x2="169.3" y2="362.6" opacity="1.0" stroke="rgb(0,0,0)" stroke-width="2.0"/>
<line x1="167.7" y1="353.3" x2="135.8" y2="371.8" opacity="1.0" stroke="rgb(0,0,0)" stroke-width="2.0"/>
<line x1="135.8" y1="371.8" x2="135.8" y2="408.6" opacity="1.0" stroke="rgb(0,0,0)" stroke-width="2.0"/>
<line x1="143.0" y1="377.8" x2="143.0" y2="402.6" opacity="1.0" stroke="rgb(0,0,0)" stroke-width="2.0"/>
<line x1="135.8" y1="408.6" x2="167.7" y2="427.1" opacity="1.0" stroke="rgb(0,0,0)" stroke-width="2.0"/>
<line x1="167.7" y1="427.1" x2="199.6" y2="408.6" opacity="1.0" stroke="rgb(0,0,0)" stroke-width="2.0"/>
<line x1="169.3" y1="417.8" x2="190.8" y2="405.4" opacity="1.0" stroke="rgb(0,0,0)" stroke-width="2.0"/>
<line x1="199.6" y1="408.6" x2="199.6" y2="371.8" opacity="1.0" stroke="rgb(0,0,0)" stroke-width="2.0"/>
<line x1="71.9" y1="261.2" x2="103.8" y2="242.7" opacity="1.0" stroke="rgb(0,0,0)" stroke-width="2.0"/>
<line x1="73.5" y1="251.9" x2="95.1" y2="239.5" opacity="1.0" stroke="rgb(0,0,0)" stroke-width="2.0"/>
<line x1="103.8" y1="242.7" x2="103.8" y2="205.9" opacity="1.0" stroke="rgb(0,0,0)" stroke-width="2.0"/>
<line x1="103.8" y1="205.9" x2="71.9" y2="187.5" opacity="1.0" stroke="rgb(0,0,0)" stroke-width="2.0"/>
<line x1="95.1" y1="209.1" x2="73.5" y2="196.7" opacity="1.0" stroke="rgb(0,0,0)" stroke-width="2.0"/>
<line x1="71.9" y1="187.5" x2="40.0" y2="205.9" opacity="1.0" stroke="rgb(0,0,0)" stroke-width="2.0"/>
<line x1="40.0" y1="205.9" x2="40.0" y2="242.7" opacity="1.0" stroke="rgb(0,0,0)" stroke-width="2.0"/>
<line x1="47.2" y1="211.9" x2="47.2" y2="236.7" opacity="1.0" stroke="rgb(0,0,0)" stroke-width="2.0"/>
<line x1="40.0" y1="242.7" x2="71.9" y2="261.2" opacity="1.0" stroke="rgb(0,0,0)" stroke-width="2.0"/>
<line x1="359.2" y1="242.7" x2="391.2" y2="261.2" opacity="1.0" stroke="rgb(0,0,0)" stroke-width="2.0"/>
<line x1="391.2" y1="261.2" x2="423.1" y2="242.7" opacity="1.0" stroke="rgb(0,0,0)" stroke-width="2.0"/>
<line x1="392.8" y1="251.9" x2="414.3" y2="239.5" opacity="1.0" stroke="rgb(0,0,0)" stroke-width="2.0"/>
<line x1="423.1" y1="242.7" x2="423.1" y2="205.9" opacity="1.0" stroke="rgb(0,0,0)" stroke-width="2.0"/>
<line x1="391.2" y1="187.5" x2="359.2" y2="205.9" opacity="1.0" stroke="rgb(0,0,0)" stroke-width="2.0"/>
<line x1="359.2" y1="205.9" x2="359.2" y2="242.7" opacity="1.0" stroke="rgb(0,0,0)" stroke-width="2.0"/>
<line x1="366.4" y1="211.9" x2="366.4" y2="236.7" opacity="1.0" stroke="rgb(0,0,0)" stroke-width="2.0"/>
<line x1="498.2" y1="249.2" x2="518.9" y2="261.2" opacity="1.0" stroke="rgb(0,0,0)" stroke-width="2.0"/>
<line x1="518.9" y1="261.2" x2="518.9" y2="298.0" opacity="1.0" stroke="rgb(0,0,0)" stroke-width="2.0"/>
<line x1="511.7" y1="267.2" x2="511.7" y2="292.0" opacity="1.0" stroke="rgb(0,0,0)" stroke-width="2.0"/>
<line x1="518.9" y1="298.0" x2="498.2" y2="310.0" opacity="1.0" stroke="rgb(0,0,0)" stroke-width="2.0"/>
<line x1="476.4" y1="310.4" x2="455.0" y2="298.0" opacity="1.0" stroke="rgb(0,0,0)" stroke-width="2.0"/>
<line x1="478.0" y1="303.0" x2="463.8" y2="294.8" opacity="1.0" stroke="rgb(0,0,0)" stroke-width="2.0"/>
<line x1="455.0" y1="298.0" x2="455.0" y2="261.2" opacity="1.0" stroke="rgb(0,0,0)" stroke-width="2.0"/>
<line x1="455.0" y1="261.2" x2="476.4" y2="248.8" opacity="1.0" stroke="rgb(0,0,0)" stroke-width="2.0"/>
<line x1="463.8" y1="264.4" x2="478.0" y2="256.2" opacity="1.0" stroke="rgb(0,0,0)" stroke-width="2.0"/>
<text x="444.483243" y="189.216362" fill="rgb(12,12,255)" stroke-width="0" font-weight="bold" font-size="16">N</text>
<text x="429.489814" y="155.540569" fill="rgb(178,178,0)" stroke-width="0" font-weight="bold" font-size="16">S</text>
<text x="392.829006" y="159.393775" fill="rgb(12,12,255)" stroke-width="0" font-weight="bold" font-size="16">N</text>
<text x="480.937032" y="250.745098" fill="rgb(12,12,255)" stroke-width="0" font-weight="bold" font-size="16">N</text>
<text x="480.937032" y="324.470588" fill="rgb(12,12,255)" stroke-width="0" font-weight="bold" font-size="16">N</text>
<text x="321.316663" y="195.450980" fill="rgb(12,12,255)" stroke-width="0" font-weight="bold" font-size="16">N</text>
<text x="161.696295" y="287.607843" fill="rgb(12,12,255)" stroke-width="0" font-weight="bold" font-size="16">N</text>
</svg>
</g>
</svg>
