<svg xmlns="http://www.w3.org/2000/svg" x="0" y="0" viewBox="0 0 100 100">
<title>J_9_P - Open Babel Depiction</title>
<rect x="0" y="0" width="100" height="100" fill="white"/>
<g transform="translate(0,0)">
<svg width="100" height="100" x="0" y="0" viewBox="0 0 493.571 484.082" font-family="sans-serif" stroke="rgb(0,0,0)" stroke-width="2" stroke-linecap="round">
<line x1="389.9" y1="242.0" x2="337.6" y2="272.3" opacity="1.0" stroke="rgb(0,0,0)" stroke-width="2.0"/>
<line x1="315.1" y1="272.3" x2="262.7" y2="242.0" opacity="1.0" stroke="rgb(0,0,0)" stroke-width="2.0"/>
<line x1="167.3" y1="173.9" x2="167.3" y2="113.5" opacity="1.0" stroke="rgb(0,0,0)" stroke-width="2.0"/>
<line x1="156.0" y1="193.4" x2="103.6" y2="223.7" opacity="1.0" stroke="rgb(0,0,0)" stroke-width="2.0"/>
<line x1="199.1" y1="205.3" x2="178.5" y2="193.4" opacity="1.0" stroke="rgb(0,0,0)" stroke-width="2.0"/>
<line x1="326.3" y1="291.8" x2="326.3" y2="315.5" opacity="1.0" stroke="rgb(0,0,0)" stroke-width="2.0"/>
<line x1="156.0" y1="437.6" x2="146.7" y2="432.2" opacity="1.0" stroke="rgb(0,0,0)" stroke-width="2.0"/>
<line x1="199.1" y1="425.7" x2="178.5" y2="437.6" opacity="1.0" stroke="rgb(0,0,0)" stroke-width="2.0"/>
<line x1="294.5" y1="370.6" x2="262.7" y2="389.0" opacity="1.0" stroke="rgb(0,0,0)" stroke-width="2.0"/>
<line x1="453.6" y1="242.0" x2="421.8" y2="260.4" opacity="1.0" stroke="rgb(0,0,0)" stroke-width="2.0"/>
<line x1="421.8" y1="260.4" x2="389.9" y2="242.0" opacity="1.0" stroke="rgb(0,0,0)" stroke-width="2.0"/>
<line x1="420.2" y1="251.2" x2="398.7" y2="238.8" opacity="1.0" stroke="rgb(0,0,0)" stroke-width="2.0"/>
<line x1="389.9" y1="242.0" x2="389.9" y2="205.3" opacity="1.0" stroke="rgb(0,0,0)" stroke-width="2.0"/>
<line x1="389.9" y1="205.3" x2="421.8" y2="186.9" opacity="1.0" stroke="rgb(0,0,0)" stroke-width="2.0"/>
<line x1="398.7" y1="208.5" x2="420.2" y2="196.2" opacity="1.0" stroke="rgb(0,0,0)" stroke-width="2.0"/>
<line x1="421.8" y1="186.9" x2="453.6" y2="205.3" opacity="1.0" stroke="rgb(0,0,0)" stroke-width="2.0"/>
<line x1="453.6" y1="205.3" x2="453.6" y2="242.0" opacity="1.0" stroke="rgb(0,0,0)" stroke-width="2.0"/>
<line x1="446.4" y1="211.3" x2="446.4" y2="236.0" opacity="1.0" stroke="rgb(0,0,0)" stroke-width="2.0"/>
<line x1="230.9" y1="260.4" x2="199.1" y2="242.0" opacity="1.0" stroke="rgb(0,0,0)" stroke-width="2.0"/>
<line x1="199.1" y1="242.0" x2="199.1" y2="205.3" opacity="1.0" stroke="rgb(0,0,0)" stroke-width="2.0"/>
<line x1="206.3" y1="236.0" x2="206.3" y2="211.3" opacity="1.0" stroke="rgb(0,0,0)" stroke-width="2.0"/>
<line x1="199.1" y1="205.3" x2="230.9" y2="186.9" opacity="1.0" stroke="rgb(0,0,0)" stroke-width="2.0"/>
<line x1="230.9" y1="186.9" x2="262.7" y2="205.3" opacity="1.0" stroke="rgb(0,0,0)" stroke-width="2.0"/>
<line x1="232.5" y1="196.2" x2="253.9" y2="208.5" opacity="1.0" stroke="rgb(0,0,0)" stroke-width="2.0"/>
<line x1="262.7" y1="205.3" x2="262.7" y2="242.0" opacity="1.0" stroke="rgb(0,0,0)" stroke-width="2.0"/>
<line x1="262.7" y1="242.0" x2="230.9" y2="260.4" opacity="1.0" stroke="rgb(0,0,0)" stroke-width="2.0"/>
<line x1="253.9" y1="238.8" x2="232.5" y2="251.2" opacity="1.0" stroke="rgb(0,0,0)" stroke-width="2.0"/>
<line x1="103.6" y1="260.4" x2="103.6" y2="223.7" opacity="1.0" stroke="rgb(0,0,0)" stroke-width="2.0"/>
<line x1="96.4" y1="254.4" x2="96.4" y2="229.7" opacity="1.0" stroke="rgb(0,0,0)" stroke-width="2.0"/>
<line x1="103.6" y1="223.7" x2="71.8" y2="205.3" opacity="1.0" stroke="rgb(0,0,0)" stroke-width="2.0"/>
<line x1="71.8" y1="205.3" x2="40.0" y2="223.7" opacity="1.0" stroke="rgb(0,0,0)" stroke-width="2.0"/>
<line x1="70.2" y1="214.5" x2="48.8" y2="226.9" opacity="1.0" stroke="rgb(0,0,0)" stroke-width="2.0"/>
<line x1="40.0" y1="223.7" x2="40.0" y2="260.4" opacity="1.0" stroke="rgb(0,0,0)" stroke-width="2.0"/>
<line x1="40.0" y1="260.4" x2="71.8" y2="278.8" opacity="1.0" stroke="rgb(0,0,0)" stroke-width="2.0"/>
<line x1="48.8" y1="257.2" x2="70.2" y2="269.5" opacity="1.0" stroke="rgb(0,0,0)" stroke-width="2.0"/>
<line x1="71.8" y1="278.8" x2="103.6" y2="260.4" opacity="1.0" stroke="rgb(0,0,0)" stroke-width="2.0"/>
<line x1="135.4" y1="95.1" x2="167.3" y2="113.5" opacity="1.0" stroke="rgb(0,0,0)" stroke-width="2.0"/>
<line x1="144.2" y1="91.9" x2="165.7" y2="104.2" opacity="1.0" stroke="rgb(0,0,0)" stroke-width="2.0"/>
<line x1="167.3" y1="113.5" x2="199.1" y2="95.1" opacity="1.0" stroke="rgb(0,0,0)" stroke-width="2.0"/>
<line x1="199.1" y1="95.1" x2="199.1" y2="58.4" opacity="1.0" stroke="rgb(0,0,0)" stroke-width="2.0"/>
<line x1="191.9" y1="89.1" x2="191.9" y2="64.4" opacity="1.0" stroke="rgb(0,0,0)" stroke-width="2.0"/>
<line x1="199.1" y1="58.4" x2="167.3" y2="40.0" opacity="1.0" stroke="rgb(0,0,0)" stroke-width="2.0"/>
<line x1="167.3" y1="40.0" x2="135.4" y2="58.4" opacity="1.0" stroke="rgb(0,0,0)" stroke-width="2.0"/>
<line x1="165.7" y1="49.2" x2="144.2" y2="61.6" opacity="1.0" stroke="rgb(0,0,0)" stroke-width="2.0"/>
<line x1="135.4" y1="58.4" x2="135.4" y2="95.1" opacity="1.0" stroke="rgb(0,0,0)" stroke-width="2.0"/>
<line x1="358.1" y1="333.9" x2="358.1" y2="370.6" opacity="1.0" stroke="rgb(0,0,0)" stroke-width="2.0"/>
<line x1="358.1" y1="370.6" x2="326.3" y2="389.0" opacity="1.0" stroke="rgb(0,0,0)" stroke-width="2.0"/>
<line x1="349.3" y1="367.4" x2="327.9" y2="379.7" opacity="1.0" stroke="rgb(0,0,0)" stroke-width="2.0"/>
<line x1="326.3" y1="389.0" x2="294.5" y2="370.6" opacity="1.0" stroke="rgb(0,0,0)" stroke-width="2.0"/>
<line x1="294.5" y1="370.6" x2="294.5" y2="333.9" opacity="1.0" stroke="rgb(0,0,0)" stroke-width="2.0"/>
<line x1="301.7" y1="364.6" x2="301.7" y2="339.9" opacity="1.0" stroke="rgb(0,0,0)" stroke-width="2.0"/>
<line x1="294.5" y1="333.9" x2="326.3" y2="315.5" opacity="1.0" stroke="rgb(0,0,0)" stroke-width="2.0"/>
<line x1="326.3" y1="315.5" x2="358.1" y2="333.9" opacity="1.0" stroke="rgb(0,0,0)" stroke-width="2.0"/>
<line x1="327.9" y1="324.7" x2="349.3" y2="337.1" opacity="1.0" stroke="rgb(0,0,0)" stroke-width="2.0"/>
<line x1="262.7" y1="425.7" x2="230.9" y2="444.1" opacity="1.0" stroke="rgb(0,0,0)" stroke-width="2.0"/>
<line x1="230.9" y1="444.1" x2="199.1" y2="425.7" opacity="1.0" stroke="rgb(0,0,0)" stroke-width="2.0"/>
<line x1="229.3" y1="434.8" x2="207.9" y2="422.5" opacity="1.0" stroke="rgb(0,0,0)" stroke-width="2.0"/>
<line x1="199.1" y1="425.7" x2="199.1" y2="389.0" opacity="1.0" stroke="rgb(0,0,0)" stroke-width="2.0"/>
<line x1="199.1" y1="389.0" x2="230.9" y2="370.6" opacity="1.0" stroke="rgb(0,0,0)" stroke-width="2.0"/>
<line x1="207.9" y1="392.2" x2="229.3" y2="379.8" opacity="1.0" stroke="rgb(0,0,0)" stroke-width="2.0"/>
<line x1="230.9" y1="370.6" x2="262.7" y2="389.0" opacity="1.0" stroke="rgb(0,0,0)" stroke-width="2.0"/>
<line x1="262.7" y1="389.0" x2="262.7" y2="425.7" opacity="1.0" stroke="rgb(0,0,0)" stroke-width="2.0"/>
<line x1="255.5" y1="395.0" x2="255.5" y2="419.7" opacity="1.0" stroke="rgb(0,0,0)" stroke-width="2.0"/>
<text x="161.252712" y="452.081633" fill="rgb(255,12,12)" stroke-width="0" font-weight="bold" font-size="16">O</text>
<text x="109.439534" y="433.714286" fill="rgb(102,102,102)" stroke-width="0" font-weight="bold" font-size="16">H</text>
<text x="121.439534" y="437.394286" fill="rgb(102,102,102)" stroke-width="0" font-weight="bold" font-size="13">3</text>
<text x="127.939534" y="433.714286" fill="rgb(102,102,102)" stroke-width="0" font-weight="bold" font-size="16">C</text>
<text x="320.318603" y="286.775510" fill="rgb(12,12,255)" stroke-width="0" font-weight="bold" font-size="16">N</text>
<text x="161.252712" y="194.938776" fill="rgb(12,12,255)" stroke-width="0" font-weight="bold" font-size="16">N</text>
</svg>
</g>
</svg>
