<svg xmlns="http://www.w3.org/2000/svg" xmlns:xlink="http://www.w3.org/1999/xlink" xmlns:cml="http://www.xml-cml.org/schema" version="1.1" id="topsvg" x="0" y="0" viewBox="0 0 100 100">
<title>J_9_S - Open Babel Depiction</title>
<rect x="0" y="0" width="100" height="100" fill="white"/>
<g transform="translate(0,0)">
<svg width="100" height="100" x="0" y="0" viewBox="0 0 494.307 521.6" font-family="sans-serif" stroke="rgb(0,0,0)" stroke-width="2" stroke-linecap="round">
<line x1="103.7" y1="279.2" x2="156.2" y2="248.9" opacity="1.0" stroke="rgb(0,0,0)" stroke-width="2.0"/>
<line x1="178.7" y1="248.9" x2="231.2" y2="279.2" opacity="1.0" stroke="rgb(0,0,0)" stroke-width="2.0"/>
<line x1="326.8" y1="347.4" x2="326.8" y2="408.0" opacity="1.0" stroke="rgb(0,0,0)" stroke-width="2.0"/>
<line x1="338.1" y1="327.9" x2="390.6" y2="297.6" opacity="1.0" stroke="rgb(0,0,0)" stroke-width="2.0"/>
<line x1="295.0" y1="316.0" x2="315.6" y2="327.9" opacity="1.0" stroke="rgb(0,0,0)" stroke-width="2.0"/>
<line x1="167.5" y1="229.4" x2="167.5" y2="205.6" opacity="1.0" stroke="rgb(0,0,0)" stroke-width="2.0"/>
<line x1="295.0" y1="95.2" x2="326.8" y2="76.8" opacity="1.0" stroke="rgb(0,0,0)" stroke-width="2.0"/>
<line x1="326.8" y1="76.8" x2="347.4" y2="88.7" opacity="1.0" stroke="rgb(0,0,0)" stroke-width="2.0"/>
<line x1="323.8" y1="76.8" x2="323.8" y2="53.0" opacity="1.0" stroke="rgb(0,0,0)" stroke-width="2.0"/>
<line x1="329.8" y1="76.8" x2="329.8" y2="53.0" opacity="1.0" stroke="rgb(0,0,0)" stroke-width="2.0"/>
<line x1="199.3" y1="150.4" x2="231.2" y2="132.0" opacity="1.0" stroke="rgb(0,0,0)" stroke-width="2.0"/>
<line x1="40.0" y1="279.2" x2="71.9" y2="260.8" opacity="1.0" stroke="rgb(0,0,0)" stroke-width="2.0"/>
<line x1="71.9" y1="260.8" x2="103.7" y2="279.2" opacity="1.0" stroke="rgb(0,0,0)" stroke-width="2.0"/>
<line x1="73.5" y1="270.0" x2="94.9" y2="282.4" opacity="1.0" stroke="rgb(0,0,0)" stroke-width="2.0"/>
<line x1="103.7" y1="279.2" x2="103.7" y2="316.0" opacity="1.0" stroke="rgb(0,0,0)" stroke-width="2.0"/>
<line x1="103.7" y1="316.0" x2="71.9" y2="334.4" opacity="1.0" stroke="rgb(0,0,0)" stroke-width="2.0"/>
<line x1="94.9" y1="312.8" x2="73.5" y2="325.2" opacity="1.0" stroke="rgb(0,0,0)" stroke-width="2.0"/>
<line x1="71.9" y1="334.4" x2="40.0" y2="316.0" opacity="1.0" stroke="rgb(0,0,0)" stroke-width="2.0"/>
<line x1="40.0" y1="316.0" x2="40.0" y2="279.2" opacity="1.0" stroke="rgb(0,0,0)" stroke-width="2.0"/>
<line x1="47.2" y1="310.0" x2="47.2" y2="285.2" opacity="1.0" stroke="rgb(0,0,0)" stroke-width="2.0"/>
<line x1="263.1" y1="260.8" x2="295.0" y2="279.2" opacity="1.0" stroke="rgb(0,0,0)" stroke-width="2.0"/>
<line x1="295.0" y1="279.2" x2="295.0" y2="316.0" opacity="1.0" stroke="rgb(0,0,0)" stroke-width="2.0"/>
<line x1="287.8" y1="285.2" x2="287.8" y2="310.0" opacity="1.0" stroke="rgb(0,0,0)" stroke-width="2.0"/>
<line x1="295.0" y1="316.0" x2="263.1" y2="334.4" opacity="1.0" stroke="rgb(0,0,0)" stroke-width="2.0"/>
<line x1="263.1" y1="334.4" x2="231.2" y2="316.0" opacity="1.0" stroke="rgb(0,0,0)" stroke-width="2.0"/>
<line x1="261.5" y1="325.2" x2="240.0" y2="312.8" opacity="1.0" stroke="rgb(0,0,0)" stroke-width="2.0"/>
<line x1="231.2" y1="316.0" x2="231.2" y2="279.2" opacity="1.0" stroke="rgb(0,0,0)" stroke-width="2.0"/>
<line x1="231.2" y1="279.2" x2="263.1" y2="260.8" opacity="1.0" stroke="rgb(0,0,0)" stroke-width="2.0"/>
<line x1="240.0" y1="282.4" x2="261.5" y2="270.0" opacity="1.0" stroke="rgb(0,0,0)" stroke-width="2.0"/>
<line x1="390.6" y1="260.8" x2="390.6" y2="297.6" opacity="1.0" stroke="rgb(0,0,0)" stroke-width="2.0"/>
<line x1="397.8" y1="266.8" x2="397.8" y2="291.6" opacity="1.0" stroke="rgb(0,0,0)" stroke-width="2.0"/>
<line x1="390.6" y1="297.6" x2="422.4" y2="316.0" opacity="1.0" stroke="rgb(0,0,0)" stroke-width="2.0"/>
<line x1="422.4" y1="316.0" x2="454.3" y2="297.6" opacity="1.0" stroke="rgb(0,0,0)" stroke-width="2.0"/>
<line x1="424.0" y1="306.8" x2="445.5" y2="294.4" opacity="1.0" stroke="rgb(0,0,0)" stroke-width="2.0"/>
<line x1="454.3" y1="297.6" x2="454.3" y2="260.8" opacity="1.0" stroke="rgb(0,0,0)" stroke-width="2.0"/>
<line x1="454.3" y1="260.8" x2="422.4" y2="242.4" opacity="1.0" stroke="rgb(0,0,0)" stroke-width="2.0"/>
<line x1="445.5" y1="264.0" x2="424.0" y2="251.6" opacity="1.0" stroke="rgb(0,0,0)" stroke-width="2.0"/>
<line x1="422.4" y1="242.4" x2="390.6" y2="260.8" opacity="1.0" stroke="rgb(0,0,0)" stroke-width="2.0"/>
<line x1="358.7" y1="426.4" x2="326.8" y2="408.0" opacity="1.0" stroke="rgb(0,0,0)" stroke-width="2.0"/>
<line x1="349.9" y1="429.6" x2="328.4" y2="417.2" opacity="1.0" stroke="rgb(0,0,0)" stroke-width="2.0"/>
<line x1="326.8" y1="408.0" x2="295.0" y2="426.4" opacity="1.0" stroke="rgb(0,0,0)" stroke-width="2.0"/>
<line x1="295.0" y1="426.4" x2="295.0" y2="463.2" opacity="1.0" stroke="rgb(0,0,0)" stroke-width="2.0"/>
<line x1="302.2" y1="432.4" x2="302.2" y2="457.2" opacity="1.0" stroke="rgb(0,0,0)" stroke-width="2.0"/>
<line x1="295.0" y1="463.2" x2="326.8" y2="481.6" opacity="1.0" stroke="rgb(0,0,0)" stroke-width="2.0"/>
<line x1="326.8" y1="481.6" x2="358.7" y2="463.2" opacity="1.0" stroke="rgb(0,0,0)" stroke-width="2.0"/>
<line x1="328.4" y1="472.4" x2="349.9" y2="460.0" opacity="1.0" stroke="rgb(0,0,0)" stroke-width="2.0"/>
<line x1="358.7" y1="463.2" x2="358.7" y2="426.4" opacity="1.0" stroke="rgb(0,0,0)" stroke-width="2.0"/>
<line x1="135.6" y1="187.2" x2="135.6" y2="150.4" opacity="1.0" stroke="rgb(0,0,0)" stroke-width="2.0"/>
<line x1="135.6" y1="150.4" x2="167.5" y2="132.0" opacity="1.0" stroke="rgb(0,0,0)" stroke-width="2.0"/>
<line x1="144.4" y1="153.6" x2="165.9" y2="141.2" opacity="1.0" stroke="rgb(0,0,0)" stroke-width="2.0"/>
<line x1="167.5" y1="132.0" x2="199.3" y2="150.4" opacity="1.0" stroke="rgb(0,0,0)" stroke-width="2.0"/>
<line x1="199.3" y1="150.4" x2="199.3" y2="187.2" opacity="1.0" stroke="rgb(0,0,0)" stroke-width="2.0"/>
<line x1="192.1" y1="156.4" x2="192.1" y2="181.2" opacity="1.0" stroke="rgb(0,0,0)" stroke-width="2.0"/>
<line x1="199.3" y1="187.2" x2="167.5" y2="205.6" opacity="1.0" stroke="rgb(0,0,0)" stroke-width="2.0"/>
<line x1="167.5" y1="205.6" x2="135.6" y2="187.2" opacity="1.0" stroke="rgb(0,0,0)" stroke-width="2.0"/>
<line x1="165.9" y1="196.4" x2="144.4" y2="184.0" opacity="1.0" stroke="rgb(0,0,0)" stroke-width="2.0"/>
<line x1="231.2" y1="95.2" x2="263.1" y2="76.8" opacity="1.0" stroke="rgb(0,0,0)" stroke-width="2.0"/>
<line x1="263.1" y1="76.8" x2="295.0" y2="95.2" opacity="1.0" stroke="rgb(0,0,0)" stroke-width="2.0"/>
<line x1="264.7" y1="86.0" x2="286.2" y2="98.4" opacity="1.0" stroke="rgb(0,0,0)" stroke-width="2.0"/>
<line x1="295.0" y1="95.2" x2="295.0" y2="132.0" opacity="1.0" stroke="rgb(0,0,0)" stroke-width="2.0"/>
<line x1="295.0" y1="132.0" x2="263.1" y2="150.4" opacity="1.0" stroke="rgb(0,0,0)" stroke-width="2.0"/>
<line x1="286.2" y1="128.8" x2="264.7" y2="141.2" opacity="1.0" stroke="rgb(0,0,0)" stroke-width="2.0"/>
<line x1="263.1" y1="150.4" x2="231.2" y2="132.0" opacity="1.0" stroke="rgb(0,0,0)" stroke-width="2.0"/>
<line x1="231.2" y1="132.0" x2="231.2" y2="95.2" opacity="1.0" stroke="rgb(0,0,0)" stroke-width="2.0"/>
<line x1="238.4" y1="126.0" x2="238.4" y2="101.2" opacity="1.0" stroke="rgb(0,0,0)" stroke-width="2.0"/>
<text x="354.697349" y="103.200000" fill="rgb(102,102,102)" stroke-width="0" font-weight="bold" font-size="16">CH</text>
<text x="378.697349" y="106.880000" fill="rgb(102,102,102)" stroke-width="0" font-weight="bold" font-size="13">3</text>
<text x="320.827614" y="48.000000" fill="rgb(255,12,12)" stroke-width="0" font-weight="bold" font-size="16">O</text>
<text x="161.478939" y="250.400000" fill="rgb(12,12,255)" stroke-width="0" font-weight="bold" font-size="16">N</text>
<text x="320.827614" y="342.400000" fill="rgb(12,12,255)" stroke-width="0" font-weight="bold" font-size="16">N</text>
</svg>
</g>
</svg>