<svg xmlns="http://www.w3.org/2000/svg" x="0" y="0" viewBox="0 0 100 100">
<title>J_9_O - Open Babel Depiction</title>
<rect x="0" y="0" width="100" height="100" fill="white"/>
<g transform="translate(0,0)">
<svg width="100" height="100" x="0" y="0" viewBox="0 0 492.007 482.553" font-family="sans-serif" stroke="rgb(0,0,0)" stroke-width="2" stroke-linecap="round">
<line x1="103.4" y1="241.3" x2="155.5" y2="211.2" opacity="1.0" stroke="rgb(0,0,0)" stroke-width="2.0"/>
<line x1="178.0" y1="211.2" x2="230.2" y2="241.3" opacity="1.0" stroke="rgb(0,0,0)" stroke-width="2.0"/>
<line x1="325.2" y1="309.2" x2="325.2" y2="369.4" opacity="1.0" stroke="rgb(0,0,0)" stroke-width="2.0"/>
<line x1="336.5" y1="289.7" x2="388.6" y2="259.6" opacity="1.0" stroke="rgb(0,0,0)" stroke-width="2.0"/>
<line x1="293.5" y1="277.9" x2="314.0" y2="289.7" opacity="1.0" stroke="rgb(0,0,0)" stroke-width="2.0"/>
<line x1="166.8" y1="191.7" x2="166.8" y2="168.1" opacity="1.0" stroke="rgb(0,0,0)" stroke-width="2.0"/>
<line x1="198.5" y1="113.2" x2="230.2" y2="94.9" opacity="1.0" stroke="rgb(0,0,0)" stroke-width="2.0"/>
<line x1="40.0" y1="241.3" x2="71.7" y2="223.0" opacity="1.0" stroke="rgb(0,0,0)" stroke-width="2.0"/>
<line x1="71.7" y1="223.0" x2="103.4" y2="241.3" opacity="1.0" stroke="rgb(0,0,0)" stroke-width="2.0"/>
<line x1="73.3" y1="232.2" x2="94.6" y2="244.5" opacity="1.0" stroke="rgb(0,0,0)" stroke-width="2.0"/>
<line x1="103.4" y1="241.3" x2="103.4" y2="277.9" opacity="1.0" stroke="rgb(0,0,0)" stroke-width="2.0"/>
<line x1="103.4" y1="277.9" x2="71.7" y2="296.2" opacity="1.0" stroke="rgb(0,0,0)" stroke-width="2.0"/>
<line x1="94.6" y1="274.6" x2="73.3" y2="286.9" opacity="1.0" stroke="rgb(0,0,0)" stroke-width="2.0"/>
<line x1="71.7" y1="296.2" x2="40.0" y2="277.9" opacity="1.0" stroke="rgb(0,0,0)" stroke-width="2.0"/>
<line x1="40.0" y1="277.9" x2="40.0" y2="241.3" opacity="1.0" stroke="rgb(0,0,0)" stroke-width="2.0"/>
<line x1="47.2" y1="271.9" x2="47.2" y2="247.3" opacity="1.0" stroke="rgb(0,0,0)" stroke-width="2.0"/>
<line x1="261.8" y1="223.0" x2="293.5" y2="241.3" opacity="1.0" stroke="rgb(0,0,0)" stroke-width="2.0"/>
<line x1="293.5" y1="241.3" x2="293.5" y2="277.9" opacity="1.0" stroke="rgb(0,0,0)" stroke-width="2.0"/>
<line x1="286.3" y1="247.3" x2="286.3" y2="271.9" opacity="1.0" stroke="rgb(0,0,0)" stroke-width="2.0"/>
<line x1="293.5" y1="277.9" x2="261.8" y2="296.2" opacity="1.0" stroke="rgb(0,0,0)" stroke-width="2.0"/>
<line x1="261.8" y1="296.2" x2="230.2" y2="277.9" opacity="1.0" stroke="rgb(0,0,0)" stroke-width="2.0"/>
<line x1="260.3" y1="286.9" x2="239.0" y2="274.6" opacity="1.0" stroke="rgb(0,0,0)" stroke-width="2.0"/>
<line x1="230.2" y1="277.9" x2="230.2" y2="241.3" opacity="1.0" stroke="rgb(0,0,0)" stroke-width="2.0"/>
<line x1="230.2" y1="241.3" x2="261.8" y2="223.0" opacity="1.0" stroke="rgb(0,0,0)" stroke-width="2.0"/>
<line x1="239.0" y1="244.5" x2="260.3" y2="232.2" opacity="1.0" stroke="rgb(0,0,0)" stroke-width="2.0"/>
<line x1="388.6" y1="223.0" x2="388.6" y2="259.6" opacity="1.0" stroke="rgb(0,0,0)" stroke-width="2.0"/>
<line x1="395.8" y1="229.0" x2="395.8" y2="253.6" opacity="1.0" stroke="rgb(0,0,0)" stroke-width="2.0"/>
<line x1="388.6" y1="259.6" x2="420.3" y2="277.9" opacity="1.0" stroke="rgb(0,0,0)" stroke-width="2.0"/>
<line x1="420.3" y1="277.9" x2="452.0" y2="259.6" opacity="1.0" stroke="rgb(0,0,0)" stroke-width="2.0"/>
<line x1="421.9" y1="268.6" x2="443.2" y2="256.3" opacity="1.0" stroke="rgb(0,0,0)" stroke-width="2.0"/>
<line x1="452.0" y1="259.6" x2="452.0" y2="223.0" opacity="1.0" stroke="rgb(0,0,0)" stroke-width="2.0"/>
<line x1="452.0" y1="223.0" x2="420.3" y2="204.7" opacity="1.0" stroke="rgb(0,0,0)" stroke-width="2.0"/>
<line x1="443.2" y1="226.2" x2="421.9" y2="213.9" opacity="1.0" stroke="rgb(0,0,0)" stroke-width="2.0"/>
<line x1="420.3" y1="204.7" x2="388.6" y2="223.0" opacity="1.0" stroke="rgb(0,0,0)" stroke-width="2.0"/>
<line x1="356.9" y1="387.7" x2="325.2" y2="369.4" opacity="1.0" stroke="rgb(0,0,0)" stroke-width="2.0"/>
<line x1="348.1" y1="390.9" x2="326.8" y2="378.6" opacity="1.0" stroke="rgb(0,0,0)" stroke-width="2.0"/>
<line x1="325.2" y1="369.4" x2="293.5" y2="387.7" opacity="1.0" stroke="rgb(0,0,0)" stroke-width="2.0"/>
<line x1="293.5" y1="387.7" x2="293.5" y2="424.3" opacity="1.0" stroke="rgb(0,0,0)" stroke-width="2.0"/>
<line x1="300.7" y1="393.7" x2="300.7" y2="418.3" opacity="1.0" stroke="rgb(0,0,0)" stroke-width="2.0"/>
<line x1="293.5" y1="424.3" x2="325.2" y2="442.6" opacity="1.0" stroke="rgb(0,0,0)" stroke-width="2.0"/>
<line x1="325.2" y1="442.6" x2="356.9" y2="424.3" opacity="1.0" stroke="rgb(0,0,0)" stroke-width="2.0"/>
<line x1="326.8" y1="433.3" x2="348.1" y2="421.0" opacity="1.0" stroke="rgb(0,0,0)" stroke-width="2.0"/>
<line x1="356.9" y1="424.3" x2="356.9" y2="387.7" opacity="1.0" stroke="rgb(0,0,0)" stroke-width="2.0"/>
<line x1="135.1" y1="149.8" x2="135.1" y2="113.2" opacity="1.0" stroke="rgb(0,0,0)" stroke-width="2.0"/>
<line x1="135.1" y1="113.2" x2="166.8" y2="94.9" opacity="1.0" stroke="rgb(0,0,0)" stroke-width="2.0"/>
<line x1="143.9" y1="116.4" x2="165.2" y2="104.1" opacity="1.0" stroke="rgb(0,0,0)" stroke-width="2.0"/>
<line x1="166.8" y1="94.9" x2="198.5" y2="113.2" opacity="1.0" stroke="rgb(0,0,0)" stroke-width="2.0"/>
<line x1="198.5" y1="113.2" x2="198.5" y2="149.8" opacity="1.0" stroke="rgb(0,0,0)" stroke-width="2.0"/>
<line x1="191.3" y1="119.2" x2="191.3" y2="143.8" opacity="1.0" stroke="rgb(0,0,0)" stroke-width="2.0"/>
<line x1="198.5" y1="149.8" x2="166.8" y2="168.1" opacity="1.0" stroke="rgb(0,0,0)" stroke-width="2.0"/>
<line x1="166.8" y1="168.1" x2="135.1" y2="149.8" opacity="1.0" stroke="rgb(0,0,0)" stroke-width="2.0"/>
<line x1="165.2" y1="158.8" x2="143.9" y2="146.6" opacity="1.0" stroke="rgb(0,0,0)" stroke-width="2.0"/>
<line x1="241.4" y1="51.8" x2="261.8" y2="40.0" opacity="1.0" stroke="rgb(0,0,0)" stroke-width="2.0"/>
<line x1="261.8" y1="40.0" x2="293.5" y2="58.3" opacity="1.0" stroke="rgb(0,0,0)" stroke-width="2.0"/>
<line x1="263.4" y1="49.2" x2="284.7" y2="61.5" opacity="1.0" stroke="rgb(0,0,0)" stroke-width="2.0"/>
<line x1="293.5" y1="58.3" x2="293.5" y2="94.9" opacity="1.0" stroke="rgb(0,0,0)" stroke-width="2.0"/>
<line x1="293.5" y1="94.9" x2="261.8" y2="113.2" opacity="1.0" stroke="rgb(0,0,0)" stroke-width="2.0"/>
<line x1="284.7" y1="91.7" x2="263.4" y2="104.0" opacity="1.0" stroke="rgb(0,0,0)" stroke-width="2.0"/>
<line x1="261.8" y1="113.2" x2="230.2" y2="94.9" opacity="1.0" stroke="rgb(0,0,0)" stroke-width="2.0"/>
<line x1="230.2" y1="94.9" x2="230.2" y2="70.4" opacity="1.0" stroke="rgb(0,0,0)" stroke-width="2.0"/>
<line x1="237.4" y1="88.9" x2="237.4" y2="72.7" opacity="1.0" stroke="rgb(0,0,0)" stroke-width="2.0"/>
<text x="224.157067" y="66.297872" fill="rgb(12,12,255)" stroke-width="0" font-weight="bold" font-size="16">N</text>
<text x="160.771378" y="212.680851" fill="rgb(12,12,255)" stroke-width="0" font-weight="bold" font-size="16">N</text>
<text x="319.235601" y="304.170213" fill="rgb(12,12,255)" stroke-width="0" font-weight="bold" font-size="16">N</text>
</svg>
</g>
</svg>
