<svg xmlns="http://www.w3.org/2000/svg" x="0" y="0" viewBox="0 0 100 100">
<title>J_9_N - Open Babel Depiction</title>
<rect x="0" y="0" width="100" height="100" fill="white"/>
<g transform="translate(0,0)">
<svg width="100" height="100" x="0" y="0" viewBox="0 0 491.174 470.871" font-family="sans-serif" stroke="rgb(0,0,0)" stroke-width="2" stroke-linecap="round">
<line x1="103.3" y1="230.0" x2="155.3" y2="200.0" opacity="1.0" stroke="rgb(0,0,0)" stroke-width="2.0"/>
<line x1="177.8" y1="200.0" x2="229.8" y2="230.0" opacity="1.0" stroke="rgb(0,0,0)" stroke-width="2.0"/>
<line x1="324.7" y1="297.8" x2="324.7" y2="357.8" opacity="1.0" stroke="rgb(0,0,0)" stroke-width="2.0"/>
<line x1="335.9" y1="278.3" x2="387.9" y2="248.3" opacity="1.0" stroke="rgb(0,0,0)" stroke-width="2.0"/>
<line x1="293.0" y1="266.5" x2="313.4" y2="278.3" opacity="1.0" stroke="rgb(0,0,0)" stroke-width="2.0"/>
<line x1="166.5" y1="180.5" x2="166.5" y2="157.0" opacity="1.0" stroke="rgb(0,0,0)" stroke-width="2.0"/>
<line x1="198.1" y1="102.2" x2="229.8" y2="83.9" opacity="1.0" stroke="rgb(0,0,0)" stroke-width="2.0"/>
<line x1="233.6" y1="47.6" x2="256.6" y2="42.7" opacity="1.0" stroke="rgb(0,0,0)" stroke-width="2.0"/>
<line x1="275.8" y1="51.3" x2="287.6" y2="71.6" opacity="1.0" stroke="rgb(0,0,0)" stroke-width="2.0"/>
<line x1="287.6" y1="71.6" x2="263.1" y2="98.8" opacity="1.0" stroke="rgb(0,0,0)" stroke-width="2.0"/>
<line x1="278.2" y1="71.3" x2="261.8" y2="89.5" opacity="1.0" stroke="rgb(0,0,0)" stroke-width="2.0"/>
<line x1="263.1" y1="98.8" x2="229.8" y2="83.9" opacity="1.0" stroke="rgb(0,0,0)" stroke-width="2.0"/>
<line x1="229.8" y1="83.9" x2="233.6" y2="47.6" opacity="1.0" stroke="rgb(0,0,0)" stroke-width="2.0"/>
<line x1="237.6" y1="78.7" x2="240.1" y2="54.3" opacity="1.0" stroke="rgb(0,0,0)" stroke-width="2.0"/>
<line x1="40.0" y1="230.0" x2="71.6" y2="211.7" opacity="1.0" stroke="rgb(0,0,0)" stroke-width="2.0"/>
<line x1="71.6" y1="211.7" x2="103.3" y2="230.0" opacity="1.0" stroke="rgb(0,0,0)" stroke-width="2.0"/>
<line x1="73.2" y1="221.0" x2="94.5" y2="233.2" opacity="1.0" stroke="rgb(0,0,0)" stroke-width="2.0"/>
<line x1="103.3" y1="230.0" x2="103.3" y2="266.5" opacity="1.0" stroke="rgb(0,0,0)" stroke-width="2.0"/>
<line x1="103.3" y1="266.5" x2="71.6" y2="284.8" opacity="1.0" stroke="rgb(0,0,0)" stroke-width="2.0"/>
<line x1="94.5" y1="263.3" x2="73.2" y2="275.5" opacity="1.0" stroke="rgb(0,0,0)" stroke-width="2.0"/>
<line x1="71.6" y1="284.8" x2="40.0" y2="266.5" opacity="1.0" stroke="rgb(0,0,0)" stroke-width="2.0"/>
<line x1="40.0" y1="266.5" x2="40.0" y2="230.0" opacity="1.0" stroke="rgb(0,0,0)" stroke-width="2.0"/>
<line x1="47.2" y1="260.5" x2="47.2" y2="236.0" opacity="1.0" stroke="rgb(0,0,0)" stroke-width="2.0"/>
<line x1="261.4" y1="211.7" x2="293.0" y2="230.0" opacity="1.0" stroke="rgb(0,0,0)" stroke-width="2.0"/>
<line x1="293.0" y1="230.0" x2="293.0" y2="266.5" opacity="1.0" stroke="rgb(0,0,0)" stroke-width="2.0"/>
<line x1="285.8" y1="236.0" x2="285.8" y2="260.5" opacity="1.0" stroke="rgb(0,0,0)" stroke-width="2.0"/>
<line x1="293.0" y1="266.5" x2="261.4" y2="284.8" opacity="1.0" stroke="rgb(0,0,0)" stroke-width="2.0"/>
<line x1="261.4" y1="284.8" x2="229.8" y2="266.5" opacity="1.0" stroke="rgb(0,0,0)" stroke-width="2.0"/>
<line x1="259.8" y1="275.5" x2="238.6" y2="263.3" opacity="1.0" stroke="rgb(0,0,0)" stroke-width="2.0"/>
<line x1="229.8" y1="266.5" x2="229.8" y2="230.0" opacity="1.0" stroke="rgb(0,0,0)" stroke-width="2.0"/>
<line x1="229.8" y1="230.0" x2="261.4" y2="211.7" opacity="1.0" stroke="rgb(0,0,0)" stroke-width="2.0"/>
<line x1="238.6" y1="233.2" x2="259.8" y2="221.0" opacity="1.0" stroke="rgb(0,0,0)" stroke-width="2.0"/>
<line x1="387.9" y1="211.7" x2="387.9" y2="248.3" opacity="1.0" stroke="rgb(0,0,0)" stroke-width="2.0"/>
<line x1="395.1" y1="217.7" x2="395.1" y2="242.3" opacity="1.0" stroke="rgb(0,0,0)" stroke-width="2.0"/>
<line x1="387.9" y1="248.3" x2="419.5" y2="266.5" opacity="1.0" stroke="rgb(0,0,0)" stroke-width="2.0"/>
<line x1="419.5" y1="266.5" x2="451.2" y2="248.3" opacity="1.0" stroke="rgb(0,0,0)" stroke-width="2.0"/>
<line x1="421.1" y1="257.3" x2="442.4" y2="245.0" opacity="1.0" stroke="rgb(0,0,0)" stroke-width="2.0"/>
<line x1="451.2" y1="248.3" x2="451.2" y2="211.7" opacity="1.0" stroke="rgb(0,0,0)" stroke-width="2.0"/>
<line x1="451.2" y1="211.7" x2="419.5" y2="193.5" opacity="1.0" stroke="rgb(0,0,0)" stroke-width="2.0"/>
<line x1="442.4" y1="215.0" x2="421.1" y2="202.7" opacity="1.0" stroke="rgb(0,0,0)" stroke-width="2.0"/>
<line x1="419.5" y1="193.5" x2="387.9" y2="211.7" opacity="1.0" stroke="rgb(0,0,0)" stroke-width="2.0"/>
<line x1="356.3" y1="376.1" x2="324.7" y2="357.8" opacity="1.0" stroke="rgb(0,0,0)" stroke-width="2.0"/>
<line x1="347.5" y1="379.3" x2="326.3" y2="367.1" opacity="1.0" stroke="rgb(0,0,0)" stroke-width="2.0"/>
<line x1="324.7" y1="357.8" x2="293.0" y2="376.1" opacity="1.0" stroke="rgb(0,0,0)" stroke-width="2.0"/>
<line x1="293.0" y1="376.1" x2="293.0" y2="412.6" opacity="1.0" stroke="rgb(0,0,0)" stroke-width="2.0"/>
<line x1="300.2" y1="382.1" x2="300.2" y2="406.6" opacity="1.0" stroke="rgb(0,0,0)" stroke-width="2.0"/>
<line x1="293.0" y1="412.6" x2="324.7" y2="430.9" opacity="1.0" stroke="rgb(0,0,0)" stroke-width="2.0"/>
<line x1="324.7" y1="430.9" x2="356.3" y2="412.6" opacity="1.0" stroke="rgb(0,0,0)" stroke-width="2.0"/>
<line x1="326.3" y1="421.6" x2="347.5" y2="409.4" opacity="1.0" stroke="rgb(0,0,0)" stroke-width="2.0"/>
<line x1="356.3" y1="412.6" x2="356.3" y2="376.1" opacity="1.0" stroke="rgb(0,0,0)" stroke-width="2.0"/>
<line x1="134.9" y1="138.7" x2="134.9" y2="102.2" opacity="1.0" stroke="rgb(0,0,0)" stroke-width="2.0"/>
<line x1="134.9" y1="102.2" x2="166.5" y2="83.9" opacity="1.0" stroke="rgb(0,0,0)" stroke-width="2.0"/>
<line x1="143.7" y1="105.4" x2="164.9" y2="93.2" opacity="1.0" stroke="rgb(0,0,0)" stroke-width="2.0"/>
<line x1="166.5" y1="83.9" x2="198.1" y2="102.2" opacity="1.0" stroke="rgb(0,0,0)" stroke-width="2.0"/>
<line x1="198.1" y1="102.2" x2="198.1" y2="138.7" opacity="1.0" stroke="rgb(0,0,0)" stroke-width="2.0"/>
<line x1="190.9" y1="108.2" x2="190.9" y2="132.7" opacity="1.0" stroke="rgb(0,0,0)" stroke-width="2.0"/>
<line x1="198.1" y1="138.7" x2="166.5" y2="157.0" opacity="1.0" stroke="rgb(0,0,0)" stroke-width="2.0"/>
<line x1="166.5" y1="157.0" x2="134.9" y2="138.7" opacity="1.0" stroke="rgb(0,0,0)" stroke-width="2.0"/>
<line x1="164.9" y1="147.7" x2="143.7" y2="135.5" opacity="1.0" stroke="rgb(0,0,0)" stroke-width="2.0"/>
<text x="263.313736" y="48.000000" fill="rgb(178,178,0)" stroke-width="0" font-weight="bold" font-size="16">S</text>
<text x="160.515016" y="201.480183" fill="rgb(12,12,255)" stroke-width="0" font-weight="bold" font-size="16">N</text>
<text x="318.658785" y="292.784531" fill="rgb(12,12,255)" stroke-width="0" font-weight="bold" font-size="16">N</text>
</svg>
</g>
</svg>
