<svg xmlns="http://www.w3.org/2000/svg" viewBox="0 0 95.31 28.06"><path d="M76.07,11.27,75.84,11l.1-.33,9-1.94.13.59Z"/><path d="M66.07.66,66.28,0l9.66,10.68-.1.33-.34.07Z"/><path d="M65,3.38l.44-.4,7.65,8.46-.44.4Z"/><path d="M52.33,3.61l-.46-.52L66.28,0l-.21.66Z"/><path d="M48,17l-.34.07-.23-.26,4.42-13.7.46.52Z"/><path d="M50.89,16.51l-.57-.18,3.5-10.85.57.18Z"/><path d="M57.43,27.4l-.21.66L47.57,17.38l.11-.33L48,17Z"/><path d="M71.18,24.45l.46.52L57.22,28.06l.21-.66Z"/><path d="M69.34,22.2l.13.58L58.31,25.17l-.13-.58Z"/><path d="M75.5,11.08l.34-.07.23.26L71.64,25l-.46-.52Z"/><path d="M33.5,20.4l.21-.66,13.74-2.95.23.26-.11.33Z"/><path d="M23.84,9.72l.22-.66,9.65,10.68-.21.66Z"/><path d="M9.77,12.74l.21-.66,14.08-3-.22.66Z"/><path d="M0,1.93l.44-.4L10,12.08l-.21.66Z"/><circle class="connection_out" cx="89.96" cy="7.83" r="4.85"/></svg>
