<svg xmlns="http://www.w3.org/2000/svg" viewBox="0 0 59.94 33.67"><text transform="translate(27.74 13.59)">O</text><path d="M18.23,28.65l-.6.43V14.62l.3-.16.3.22Z"/><path d="M20.82,27h-.6V16.35h.6Z"/><path d="M31.51,33l.23.71L17.63,29.08l.6-.43Z"/><path d="M39.72,21.66h.37l.15.3-8.5,11.71L31.51,33Z"/><path d="M36.64,21.49l.49.35-6.25,8.6-.49-.35Z"/><path d="M34.56,14.56l.48-.35,5.2,7.15-.15.3h-.37Z"/><path d="M18.23,14.68l-.3-.22.05-.33,8.57-2.78.19.57Z"/><path d="M50,21.36V22H40.24l-.15-.3.15-.3Z"/><path d="M8.57,8l.35-.49L18,14.13l-.05.33-.3.16Z"/><circle class="connection_in" cx="5.24" cy="5.24" r="4.74"/><circle class="connection_in" cx="54.7" cy="21.66" r="4.74"/></svg>