<svg xmlns="http://www.w3.org/2000/svg" viewBox="0 0 70.72 42.13"><path d="M23.88,27.42l-.3.17-.3-.17V13.36l.3-.17.3.17Z"/><path d="M26.47,26.09h-.6V14.68h.6Z"/><path d="M36.05,34.44v.69l-12.47-7.2v-.34l.3-.17Z"/><path d="M48.22,27.42l.3.17v.34l-12.47,7.2v-.69Z"/><path d="M45.78,25.83l.3.52L36.2,32.06l-.3-.52Z"/><path d="M48.22,13.36l.3-.17.3.17V27.42l-.3.17-.3-.17Z"/><path d="M36.05,6.33V5.64l12.47,7.2v.35l-.3.17Z"/><path d="M35.9,9.24l.3-.52,9.88,5.7-.3.52Z"/><path d="M23.88,13.36l-.3-.17v-.35l12.47-7.2v.69Z"/><path d="M55.77,8.66l.3.51-7.25,4.19-.3-.17v-.35Z"/><path d="M13.44,7.68l.3-.52,9.84,5.68v.35l-.3.17Z"/><text transform="translate(0 38.37)">Me</text><path d="M14.46,33.2l-.3-.52,9.12-5.26.3.17v.34Z"/><text transform="translate(56.83 38.37)">Me</text><path d="M55.55,31.3l-.3.52-6.73-3.89v-.34l.3-.17Z"/><circle class="connection_in" cx="9.42" cy="5.24" r="4.74"/><circle class="connection_in" cx="59.49" cy="5.64" r="4.74"/></svg>