<svg xmlns="http://www.w3.org/2000/svg" viewBox="0 0 60.16 56.94"><path d="M19.5,27.83l-.6.34V13.77l.3-.17.3.17Z"/><path d="M22.09,26.5h-.6V15.1h.6Z"/><path d="M31.67,34.85v.35l-.3.17L18.9,28.17l.6-.34Z"/><path d="M43.84,27.83l.6.34L32,35.37l-.3-.17v-.35Z"/><path d="M41.4,26.24l.3.52-9.88,5.71-.3-.52Z"/><path d="M43.84,13.77l.3-.17.3.17v14.4l-.6-.34Z"/><path d="M31.67,6.75v-.7l12.47,7.2v.35l-.3.17Z"/><path d="M31.52,9.65l.3-.52,9.88,5.71-.3.52Z"/><path d="M19.5,13.77l-.3-.17v-.35l12.47-7.2v.7Z"/><path d="M51.39,9.07l.3.52-7.25,4.18-.3-.17v-.35Z"/><path d="M9.06,8.09l.3-.52,9.84,5.68v.35l-.3.17Z"/><text transform="translate(28.06 53.18)">CN</text><path d="M32,44.31h-.6V35.37l.3-.17.3.17Z"/><circle class="connection_in" cx="5.24" cy="5.24" r="4.74"/><circle class="connection_in" cx="54.92" cy="6.57" r="4.74"/></svg>