<svg xmlns="http://www.w3.org/2000/svg" viewBox="0 0 60.56 42.25"><path d="M19.61,27.53l-.3.17-.3-.17V13.47l.3-.17.3.17Z"/><path d="M22.2,26.21h-.6V14.8h.6Z"/><path d="M31.78,34.56v.69l-12.47-7.2V27.7l.3-.17Z"/><path d="M44,27.53l.3.17v.35l-12.47,7.2v-.69Z"/><path d="M41.51,26l.3.52-9.88,5.7-.3-.52Z"/><path d="M44,13.47l.3-.17.3.17V27.53l-.3.17-.3-.17Z"/><path d="M31.78,6.45V5.76L44.25,13v.34l-.3.17Z"/><path d="M31.63,9.35l.3-.52,9.88,5.71-.3.52Z"/><path d="M19.61,13.47l-.3-.17V13l12.47-7.2v.69Z"/><path d="M51.5,8.77l.3.52-7.25,4.18-.3-.17V13Z"/><path d="M9.17,7.79l.3-.52L19.31,13v.34l-.3.17Z"/><text transform="translate(3.79 38.48)">F</text><path d="M11.89,32.34l-.3-.52L19,27.53l.3.17v.35Z"/><text transform="translate(53.67 38.48)">F</text><path d="M52.18,31.93l-.3.52-7.63-4.4V27.7l.3-.17Z"/><circle class="connection_in" cx="5.24" cy="5.24" r="4.74"/><circle class="connection_in" cx="55.32" cy="6.08" r="4.74"/></svg>