<svg xmlns="http://www.w3.org/2000/svg" viewBox="0 0 59.83 74.63"><text transform="translate(27.94 13.49)">S</text><path d="M17.88,28.54l-.6.44V14.51l.3-.15.3.22Z"/><path d="M20.47,26.88h-.6V16.24h.6Z"/><path d="M31.16,32.86l.12.35-.24.24L17.28,29l.6-.44Z"/><path d="M39.37,21.56h.37l.15.3-8.28,11.4-.33,0-.12-.35Z"/><path d="M36.29,21.38l.49.36-6.25,8.6L30,30Z"/><path d="M34.22,14.47l.48-.35,5.19,7.14-.15.3h-.37Z"/><path d="M17.88,14.58l-.3-.22.05-.33,8.84-2.88.19.57Z"/><path d="M36,46.65l-.23.26-.34-.07L31,33.45l.24-.24.33,0Z"/><path d="M26.42,57.68l-.67-.14,9.64-10.7.34.07.1.33Z"/><path d="M30.77,71l-.47.52-4.55-14,.67.14Z"/><path d="M44.51,74l.21.66L30.3,71.56l.47-.52Z"/><path d="M53.92,63.52l.67.14-9.87,11L44.51,74Z"/><path d="M49.57,50.16l.47-.52,4.55,14-.67-.14Z"/><path d="M35.83,47.24l-.1-.33.23-.26,14.08,3-.47.52Z"/><path d="M8.21,7.93l.36-.48L17.63,14l-.05.33-.3.15Z"/><path d="M49.61,21.26v.6H39.89l-.15-.3.15-.3Z"/><circle class="connection_in" cx="5.24" cy="5.24" r="4.74"/><circle class="connection_in" cx="54.59" cy="21.67" r="4.74"/></svg>