<svg viewBox="0 0 386 90" xmlns="http://www.w3.org/2000/svg">
<text x="0" y="0" transform="matrix(0.1 0 0 0.1 4.06561 78.3572)" font-size="200px">CH</text>
<text x="0" y="0" transform="matrix(0.1 0 0 0.1 32.9523 82.6572)" font-size="150px">3</text>
<text x="0" y="0" transform="matrix(0.1 0 0 0.1 359.576 43.7271)" font-size="200px">S</text>
<path transform="matrix(0.1 0 0 0.1 -308.65 -528.4)" d="M 3693.25,6126.14 L 3693.25,6140 L 3529.8,6045.64 L 3535.8,6035.24 L 3693.25,6126.14 Z " />
<path transform="matrix(0.1 0 0 0.1 -308.65 -528.4)" d="M 3942.66,5982.14 L 3942.66,5996 L 3693.25,6140 L 3693.25,6126.14 L 3942.66,5982.14 Z " />
<path transform="matrix(0.1 0 0 0.1 -308.65 -528.4)" d="M 4192.08,6126.14 L 4192.08,6140 L 3942.66,5996 L 3942.66,5982.14 L 4192.08,6126.14 Z " />
<path transform="matrix(0.1 0 0 0.1 -308.65 -528.4)" d="M 4441.49,5982.14 L 4441.49,5996 L 4192.08,6140 L 4192.08,6126.14 L 4441.49,5982.14 Z " />
<path transform="matrix(0.1 0 0 0.1 -308.65 -528.4)" d="M 4690.91,6126.14 L 4690.91,6140 L 4441.49,5996 L 4441.49,5982.14 L 4690.91,6126.14 Z " />
<path transform="matrix(0.1 0 0 0.1 -308.65 -528.4)" d="M 4940.32,5982.14 L 4940.32,5996 L 4690.91,6140 L 4690.91,6126.14 L 4940.32,5982.14 Z " />
<path transform="matrix(0.1 0 0 0.1 -308.65 -528.4)" d="M 5189.74,6126.14 L 5189.74,6140 L 4940.32,5996 L 4940.32,5982.14 L 5189.74,6126.14 Z " />
<path transform="matrix(0.1 0 0 0.1 -308.65 -528.4)" d="M 5439.15,5982.14 L 5439.15,5996 L 5189.74,6140 L 5189.74,6126.14 L 5439.15,5982.14 Z " />
<path transform="matrix(0.1 0 0 0.1 -308.65 -528.4)" d="M 5688.57,6126.14 L 5688.57,6140 L 5439.15,5996 L 5439.15,5982.14 L 5688.57,6126.14 Z " />
<path transform="matrix(0.1 0 0 0.1 -308.65 -528.4)" d="M 5937.98,5982.14 L 5937.98,5996 L 5688.57,6140 L 5688.57,6126.14 L 5937.98,5982.14 Z " />
<path transform="matrix(0.1 0 0 0.1 -308.65 -528.4)" d="M 6187.4,6126.14 L 6187.4,6140 L 5937.98,5996 L 5937.98,5982.14 L 6187.4,6126.14 Z " />
<path transform="matrix(0.1 0 0 0.1 -308.65 -528.4)" d="M 6431.17,5985.4 L 6436.81,5989.07 L 6437.17,5995.8 L 6187.4,6140 L 6187.4,6126.14 L 6431.17,5985.4 Z " />
<path transform="matrix(0.1 0 0 0.1 -308.65 -528.4)" d="M 6698.37,6098.96 L 6701.46,6113.47 L 6437.17,5995.8 L 6436.81,5989.07 L 6443.24,5985.36 L 6698.37,6098.96 Z " />
<path transform="matrix(0.1 0 0 0.1 -308.65 -528.4)" d="M 6885.25,5891.41 L 6900,5892.96 L 6701.46,6113.47 L 6698.37,6098.96 L 6885.25,5891.41 Z " />
<path transform="matrix(0.1 0 0 0.1 -308.65 -528.4)" d="M 6824.44,5881.47 L 6833.36,5889.5 L 6691.05,6047.55 L 6682.13,6039.52 L 6824.44,5881.47 Z " />
<path transform="matrix(0.1 0 0 0.1 -308.65 -528.4)" d="M 6798.36,5740.91 L 6808.75,5734.91 L 6900,5892.96 L 6885.25,5891.41 L 6798.36,5740.91 Z " />
<path transform="matrix(0.1 0 0 0.1 -308.65 -528.4)" d="M 6472.43,5707.61 L 6466.92,5702.65 L 6468.66,5696.15 L 6653.6,5656.84 L 6656.09,5668.57 L 6472.43,5707.61 Z " />
<path transform="matrix(0.1 0 0 0.1 -308.65 -528.4)" d="M 6460.63,5705.06 L 6466.92,5702.65 L 6472.43,5707.61 L 6443.24,5985.36 L 6436.81,5989.07 L 6431.17,5985.4 L 6460.63,5705.06 Z " />
<path transform="matrix(0.1 0 0 0.1 -308.65 -528.4)" d="M 6508.57,5744.9 L 6520.5,5746.15 L 6498.27,5957.66 L 6486.34,5956.41 L 6508.57,5744.9 Z " />
<path transform="matrix(0.1 0 0 0.1 -308.65 -528.4)" d="M 6248.88,5514.4 L 6256.91,5505.48 L 6468.66,5696.15 L 6466.92,5702.65 L 6460.63,5705.06 L 6248.88,5514.4 Z " />
<path class="connection_in" transform="matrix(0.1 0 0 0.1 -308.65 -528.4)" d="M 6080.09,5509.94 A 172.8,172.8 0 1 0 6425.69,5509.94A 172.8,172.8 0 1 0 6080.09,5509.94Z " />
</svg>
