<svg viewBox="0 0 298 189" xmlns="http://www.w3.org/2000/svg">
<text x="0" y="0" transform="matrix(0.1 0 0 0.1 53.7117 180.2)" font-size="200px">CH</text>
<text x="0" y="0" transform="matrix(0.1 0 0 0.1 82.5984 184.5)" font-size="150px">3</text>
<text x="0" y="0" transform="matrix(0.1 0 0 0.1 4.32437 165.8)" font-size="200px">CH</text>
<text x="0" y="0" transform="matrix(0.1 0 0 0.1 33.2111 170.1)" font-size="150px">3</text>
<text x="0" y="0" transform="matrix(0.1 0 0 0.1 4.32437 137)" font-size="200px">CH</text>
<text x="0" y="0" transform="matrix(0.1 0 0 0.1 33.2111 141.3)" font-size="150px">3</text>
<text x="0" y="0" transform="matrix(0.1 0 0 0.1 228.302 21.8001)" font-size="200px">CH</text>
<text x="0" y="0" transform="matrix(0.1 0 0 0.1 257.189 26.1001)" font-size="150px">3</text>
<text x="0" y="0" transform="matrix(0.1 0 0 0.1 256.121 43.1461)" font-size="200px">CH</text>
<text x="0" y="0" transform="matrix(0.1 0 0 0.1 285.008 47.4461)" font-size="150px">3</text>
<text x="0" y="0" transform="matrix(0.1 0 0 0.1 253.244 65)" font-size="200px">CH</text>
<text x="0" y="0" transform="matrix(0.1 0 0 0.1 282.131 69.3)" font-size="150px">3</text>
<path transform="matrix(0.1 0 0 0.1 -344.65 -593.4)" d="M 4049.83,7379.89 L 4055.83,7369.5 L 4061.83,7372.96 L 4061.83,7554.67 L 4049.83,7554.67 L 4049.83,7379.89 Z " />
<path transform="matrix(0.1 0 0 0.1 -344.65 -593.4)" d="M 3855.96,7491.83 L 3849.96,7481.43 L 4043.83,7369.5 L 4055.83,7369.5 L 4049.83,7379.89 L 3855.96,7491.83 Z " />
<path transform="matrix(0.1 0 0 0.1 -344.65 -593.4)" d="M 3892.39,7282.07 L 3898.39,7271.67 L 4055.83,7362.57 L 4055.83,7369.5 L 4043.83,7369.5 L 3892.39,7282.07 Z " />
<path transform="matrix(0.1 0 0 0.1 -344.65 -593.4)" d="M 4299.25,7222.04 L 4305.25,7225.5 L 4305.25,7232.43 L 4061.83,7372.96 L 4055.83,7369.5 L 4055.83,7362.57 L 4299.25,7222.04 Z " />
<path transform="matrix(0.1 0 0 0.1 -344.65 -593.4)" d="M 4299.25,6934.04 L 4311.25,6940.96 L 4311.25,7222.04 L 4305.25,7225.5 L 4299.25,7222.04 L 4299.25,6934.04 Z " />
<path transform="matrix(0.1 0 0 0.1 -344.65 -593.4)" d="M 4554.66,6786.57 L 4554.66,6800.43 L 4311.25,6940.96 L 4299.25,6934.04 L 4554.66,6786.57 Z " />
<path transform="matrix(0.1 0 0 0.1 -344.65 -593.4)" d="M 4551.66,6848.16 L 4557.66,6858.56 L 4360.09,6972.63 L 4354.09,6962.23 L 4551.66,6848.16 Z " />
<path transform="matrix(0.1 0 0 0.1 -344.65 -593.4)" d="M 4804.08,6930.57 L 4804.08,6937.5 L 4798.08,6940.96 L 4554.66,6800.43 L 4554.66,6786.57 L 4804.08,6930.57 Z " />
<path transform="matrix(0.1 0 0 0.1 -344.65 -593.4)" d="M 5047.49,6790.04 L 5053.49,6793.5 L 5053.49,6800.43 L 4810.08,6940.96 L 4804.08,6937.5 L 4804.08,6930.57 L 5047.49,6790.04 Z " />
<path transform="matrix(0.1 0 0 0.1 -344.65 -593.4)" d="M 5302.91,6930.57 L 5302.91,6944.43 L 5053.49,6800.43 L 5053.49,6793.5 L 5059.49,6790.04 L 5302.91,6930.57 Z " />
<path transform="matrix(0.1 0 0 0.1 -344.65 -593.4)" d="M 5546.33,6790.04 L 5558.33,6796.96 L 5302.91,6944.43 L 5302.91,6930.57 L 5546.33,6790.04 Z " />
<path transform="matrix(0.1 0 0 0.1 -344.65 -593.4)" d="M 5497.49,6758.37 L 5503.49,6768.77 L 5305.91,6882.84 L 5299.91,6872.44 L 5497.49,6758.37 Z " />
<path transform="matrix(0.1 0 0 0.1 -344.65 -593.4)" d="M 5546.33,6508.96 L 5552.33,6505.5 L 5558.33,6508.96 L 5558.33,6796.96 L 5546.33,6790.04 L 5546.33,6508.96 Z " />
<path transform="matrix(0.1 0 0 0.1 -344.65 -593.4)" d="M 5795.74,6358.04 L 5801.74,6361.5 L 5801.74,6368.43 L 5558.33,6508.96 L 5552.33,6505.5 L 5552.33,6498.57 L 5795.74,6358.04 Z " />
<path transform="matrix(0.1 0 0 0.1 -344.65 -593.4)" d="M 5795.74,6181.67 L 5807.74,6181.67 L 5807.74,6353.68 L 5801.74,6361.5 L 5795.74,6358.04 L 5795.74,6181.67 Z " />
<path transform="matrix(0.1 0 0 0.1 -344.65 -593.4)" d="M 5984.49,6306.32 L 5987.6,6317.91 L 5817.28,6363.55 L 5801.74,6361.5 L 5807.74,6353.68 L 5984.49,6306.32 Z " />
<path transform="matrix(0.1 0 0 0.1 -344.65 -593.4)" d="M 5969.92,6451.67 L 5963.92,6462.06 L 5801.74,6368.43 L 5801.74,6361.5 L 5817.28,6363.55 L 5969.92,6451.67 Z " />
<path transform="matrix(0.1 0 0 0.1 -344.65 -593.4)" d="M 5302.91,6368.43 L 5302.91,6354.57 L 5552.33,6498.57 L 5552.33,6505.5 L 5546.33,6508.96 L 5302.91,6368.43 Z " />
<path transform="matrix(0.1 0 0 0.1 -344.65 -593.4)" d="M 5299.91,6426.56 L 5305.91,6416.16 L 5503.49,6530.23 L 5497.49,6540.63 L 5299.91,6426.56 Z " />
<path transform="matrix(0.1 0 0 0.1 -344.65 -593.4)" d="M 5059.49,6508.96 L 5053.49,6505.5 L 5053.49,6498.57 L 5302.91,6354.57 L 5302.91,6368.43 L 5059.49,6508.96 Z " />
<path transform="matrix(0.1 0 0 0.1 -344.65 -593.4)" d="M 5047.49,6508.96 L 5053.49,6505.5 L 5059.49,6508.96 L 5059.49,6790.04 L 5053.49,6793.5 L 5047.49,6790.04 L 5047.49,6508.96 Z " />
<path transform="matrix(0.1 0 0 0.1 -344.65 -593.4)" d="M 5099.33,6535.43 L 5111.33,6535.43 L 5111.33,6763.57 L 5099.33,6763.57 L 5099.33,6535.43 Z " />
<path transform="matrix(0.1 0 0 0.1 -344.65 -593.4)" d="M 4801.08,6366.7 L 4807.08,6356.3 L 5053.49,6498.57 L 5053.49,6505.5 L 5047.49,6508.96 L 4801.08,6366.7 Z " />
<path transform="matrix(0.1 0 0 0.1 -344.65 -593.4)" d="M 4810.08,7228.96 L 4798.08,7222.04 L 4798.08,6940.96 L 4804.08,6937.5 L 4810.08,6940.96 L 4810.08,7228.96 Z " />
<path transform="matrix(0.1 0 0 0.1 -344.65 -593.4)" d="M 4758.24,7195.57 L 4746.24,7195.57 L 4746.24,6967.43 L 4758.24,6967.43 L 4758.24,7195.57 Z " />
<path transform="matrix(0.1 0 0 0.1 -344.65 -593.4)" d="M 4554.66,7376.43 L 4554.66,7362.57 L 4798.08,7222.04 L 4810.08,7228.96 L 4554.66,7376.43 Z " />
<path transform="matrix(0.1 0 0 0.1 -344.65 -593.4)" d="M 4554.66,7362.57 L 4554.66,7376.43 L 4305.25,7232.43 L 4305.25,7225.5 L 4311.25,7222.04 L 4554.66,7362.57 Z " />
<path transform="matrix(0.1 0 0 0.1 -344.65 -593.4)" d="M 4557.66,7304.44 L 4551.66,7314.84 L 4354.09,7200.77 L 4360.09,7190.37 L 4557.66,7304.44 Z " />
<path class="connection_in" transform="matrix(0.1 0 0 0.1 -344.65 -593.4)" d="M 4632.62,6359.58 A 172.8,172.8 0 1 0 4978.22,6359.58A 172.8,172.8 0 1 0 4632.62,6359.58Z " />
</svg>
