<svg xmlns="http://www.w3.org/2000/svg" xmlns:xlink="http://www.w3.org/1999/xlink" viewBox="0 0 197.353 278.9870000000001" style="background-color: #ffffff00" version="1.1">
<g transform="matrix(1 0 0 1 -3.500000000000057 -2.834000000000003)">
<text x="0" y="0" stroke="none" transform="matrix(0.1 0 0 0.1 115.642 99.7892)" font-style="normal" font-weight="bold" font-size="200px" font-family="Arial">
O</text>
<text x="0" y="0" stroke="none" transform="matrix(0.1 0 0 0.1 65.762 186.184)" font-style="normal" font-weight="bold" font-size="200px" font-family="Arial">
O</text>
<path stroke="none" transform="matrix(0.1 0 0 0.1 -489.65 -457.8)" d="M 5382.47,5634.44 L 5382.47,5641.37 L 5376.47,5644.83 L 5130.06,5502.56 L 5136.06,5492.17 L 5382.47,5634.44 Z "/>
<path stroke="none" transform="matrix(0.1 0 0 0.1 -489.65 -457.8)" d="M 5631.88,5490.45 L 5631.88,5504.31 L 5388.47,5644.83 L 5382.47,5641.37 L 5382.47,5634.44 L 5631.88,5490.45 Z "/>
<path stroke="none" transform="matrix(0.1 0 0 0.1 -489.65 -457.8)" d="M 5881.3,5634.45 L 5881.3,5641.38 L 5875.3,5644.84 L 5631.88,5504.31 L 5631.88,5490.45 L 5881.3,5634.45 Z "/>
<path stroke="none" transform="matrix(0.1 0 0 0.1 -489.65 -457.8)" d="M 5832.46,5666.11 L 5826.46,5676.51 L 5628.88,5562.43 L 5634.88,5552.04 L 5832.46,5666.11 Z "/>
<path stroke="none" transform="matrix(0.1 0 0 0.1 -489.65 -457.8)" d="M 6035.91,5545.19 L 6041.91,5555.58 L 5887.3,5644.84 L 5881.3,5641.38 L 5881.3,5634.45 L 6035.91,5545.19 Z "/>
<path stroke="none" transform="matrix(0.1 0 0 0.1 -489.65 -457.8)" d="M 6124.8,5205.77 L 6136.79,5212.7 L 6136.74,5394.56 L 6124.74,5394.56 L 6124.8,5205.77 Z "/>
<path stroke="none" transform="matrix(0.1 0 0 0.1 -489.65 -457.8)" d="M 6374.2,5061.78 L 6380.2,5065.25 L 6380.2,5072.17 L 6136.79,5212.7 L 6124.8,5205.77 L 6374.2,5061.78 Z "/>
<path stroke="none" transform="matrix(0.1 0 0 0.1 -489.65 -457.8)" d="M 6374.2,4773.79 L 6386.2,4780.72 L 6386.2,5061.78 L 6380.2,5065.25 L 6374.2,5061.78 L 6374.2,4773.79 Z "/>
<path stroke="none" transform="matrix(0.1 0 0 0.1 -489.65 -457.8)" d="M 6629.6,4626.34 L 6629.6,4640.2 L 6386.2,4780.72 L 6374.2,4773.79 L 6629.6,4626.34 Z "/>
<path stroke="none" transform="matrix(0.1 0 0 0.1 -489.65 -457.8)" d="M 6626.6,4687.93 L 6632.6,4698.32 L 6435.03,4812.38 L 6429.03,4801.99 L 6626.6,4687.93 Z "/>
<path stroke="none" transform="matrix(0.1 0 0 0.1 -489.65 -457.8)" d="M 6885.02,4773.81 L 6873.02,4780.74 L 6629.6,4640.2 L 6629.6,4626.34 L 6885.02,4773.81 Z "/>
<path stroke="none" transform="matrix(0.1 0 0 0.1 -489.65 -457.8)" d="M 6885.03,5068.72 L 6873.03,5061.79 L 6873.02,4780.74 L 6885.02,4773.81 L 6885.03,5068.72 Z "/>
<path stroke="none" transform="matrix(0.1 0 0 0.1 -489.65 -457.8)" d="M 6833.19,5035.33 L 6821.19,5035.33 L 6821.18,4807.2 L 6833.18,4807.2 L 6833.19,5035.33 Z "/>
<path stroke="none" transform="matrix(0.1 0 0 0.1 -489.65 -457.8)" d="M 6629.62,5216.17 L 6629.62,5202.32 L 6873.03,5061.79 L 6885.03,5068.72 L 6629.62,5216.17 Z "/>
<path stroke="none" transform="matrix(0.1 0 0 0.1 -489.65 -457.8)" d="M 6629.62,5202.32 L 6629.62,5216.17 L 6380.2,5072.17 L 6380.2,5065.25 L 6386.2,5061.78 L 6629.62,5202.32 Z "/>
<path stroke="none" transform="matrix(0.1 0 0 0.1 -489.65 -457.8)" d="M 6632.62,5144.19 L 6626.62,5154.58 L 6429.04,5040.51 L 6435.04,5030.12 L 6632.62,5144.19 Z "/>
<path stroke="none" transform="matrix(0.1 0 0 0.1 -489.65 -457.8)" d="M 5887.3,5932.83 L 5875.3,5925.9 L 5875.3,5644.84 L 5881.3,5641.38 L 5887.3,5644.84 L 5887.3,5932.83 Z "/>
<path stroke="none" transform="matrix(0.1 0 0 0.1 -489.65 -457.8)" d="M 5637.9,6076.82 L 5631.9,6073.35 L 5631.9,6066.42 L 5875.3,5925.9 L 5887.3,5932.83 L 5637.9,6076.82 Z "/>
<path stroke="none" transform="matrix(0.1 0 0 0.1 -489.65 -457.8)" d="M 5634.9,6018.69 L 5628.9,6008.3 L 5826.46,5894.24 L 5832.46,5904.63 L 5634.9,6018.69 Z "/>
<path stroke="none" transform="matrix(0.1 0 0 0.1 -489.65 -457.8)" d="M 5637.9,6258.51 L 5625.9,6258.51 L 5625.9,6076.82 L 5631.9,6073.35 L 5637.9,6076.82 L 5637.9,6258.51 Z "/>
<path stroke="none" transform="matrix(0.1 0 0 0.1 -489.65 -457.8)" d="M 5388.5,6508.79 L 5376.5,6501.86 L 5537.11,6409.14 L 5543.11,6419.53 L 5388.5,6508.79 Z "/>
<path stroke="none" transform="matrix(0.1 0 0 0.1 -489.65 -457.8)" d="M 5388.5,6789.85 L 5382.5,6793.31 L 5376.5,6789.85 L 5376.5,6501.86 L 5388.5,6508.79 L 5388.5,6789.85 Z "/>
<path stroke="none" transform="matrix(0.1 0 0 0.1 -489.65 -457.8)" d="M 5637.92,6933.85 L 5625.92,6940.78 L 5382.5,6800.24 L 5382.5,6793.31 L 5388.5,6789.85 L 5637.92,6933.85 Z "/>
<path stroke="none" transform="matrix(0.1 0 0 0.1 -489.65 -457.8)" d="M 5637.93,7228.76 L 5625.93,7221.83 L 5625.92,6940.78 L 5637.92,6933.85 L 5637.93,7228.76 Z "/>
<path stroke="none" transform="matrix(0.1 0 0 0.1 -489.65 -457.8)" d="M 5586.09,7195.37 L 5574.09,7195.37 L 5574.08,6967.24 L 5586.08,6967.24 L 5586.09,7195.37 Z "/>
<path stroke="none" transform="matrix(0.1 0 0 0.1 -489.65 -457.8)" d="M 5382.52,7376.21 L 5382.52,7362.36 L 5625.93,7221.83 L 5637.93,7228.76 L 5382.52,7376.21 Z "/>
<path stroke="none" transform="matrix(0.1 0 0 0.1 -489.65 -457.8)" d="M 5127.1,7228.75 L 5139.1,7221.82 L 5382.52,7362.36 L 5382.52,7376.21 L 5127.1,7228.75 Z "/>
<path stroke="none" transform="matrix(0.1 0 0 0.1 -489.65 -457.8)" d="M 5181.94,7200.55 L 5187.94,7190.16 L 5385.52,7304.23 L 5379.52,7314.62 L 5181.94,7200.55 Z "/>
<path stroke="none" transform="matrix(0.1 0 0 0.1 -489.65 -457.8)" d="M 5127.1,6933.83 L 5139.1,6940.76 L 5139.1,7221.82 L 5127.1,7228.75 L 5127.1,6933.83 Z "/>
<path stroke="none" transform="matrix(0.1 0 0 0.1 -489.65 -457.8)" d="M 5139.1,6940.76 L 5127.1,6933.83 L 5376.5,6789.85 L 5382.5,6793.31 L 5382.5,6800.24 L 5139.1,6940.76 Z "/>
<path stroke="none" transform="matrix(0.1 0 0 0.1 -489.65 -457.8)" d="M 5187.93,6972.42 L 5181.93,6962.03 L 5379.5,6847.97 L 5385.5,6858.36 L 5187.93,6972.42 Z "/>
<path stroke="none" transform="matrix(0.1 0 0 0.1 -489.65 -457.8)" d="M 5376.48,5932.82 L 5388.48,5925.89 L 5631.9,6066.42 L 5631.9,6073.35 L 5625.9,6076.82 L 5376.48,5932.82 Z "/>
<path stroke="none" transform="matrix(0.1 0 0 0.1 -489.65 -457.8)" d="M 5388.48,5925.89 L 5376.48,5932.82 L 5376.47,5644.83 L 5382.47,5641.37 L 5388.47,5644.83 L 5388.48,5925.89 Z "/>
<path stroke="none" transform="matrix(0.1 0 0 0.1 -489.65 -457.8)" d="M 5440.32,5899.42 L 5428.32,5899.42 L 5428.31,5671.29 L 5440.31,5671.29 L 5440.32,5899.42 Z "/>
<path stroke="none" transform="matrix(0.1 0 0 0.1 -489.65 -457.8)" d="M 4951.5,5479.5 A 144,144 0 1 0 5239.5,5479.5A 144,144 0 1 0 4951.5,5479.5Z " class="connection_in" stroke-width="18px"/>
</g>
</svg>