<svg xmlns="http://www.w3.org/2000/svg" xmlns:xlink="http://www.w3.org/1999/xlink" viewBox="0 0 228.34999999999997 143.125" style="background-color: #ffffff00" version="1.1">
<g transform="matrix(1 0 0 1 -3.500000000000057 -2.75)">
<text x="0" y="0" stroke="none" transform="matrix(0.1 0 0 0.1 174.186 95.095)" font-style="normal" font-weight="bold" font-size="200px" font-family="Arial">
O</text>
<text x="0" y="0" stroke="none" transform="matrix(0.1 0 0 0.1 163.806 143.875)" font-style="normal" font-weight="bold" font-size="200px" font-family="Arial">
O</text>
<text x="0" y="0" stroke="none" transform="matrix(0.1 0 0 0.1 118.403 83.115)" font-style="normal" font-weight="bold" font-size="200px" font-family="Arial">
N</text>
<path stroke="none" transform="matrix(0.1 0 0 0.1 -415.65 -481.8)" d="M 6259.88,5756.84 L 6255.6,5743.66 L 6446.08,5532.23 L 6455,5540.27 L 6259.88,5756.84 Z "/>
<path stroke="none" transform="matrix(0.1 0 0 0.1 -415.65 -481.8)" d="M 6075.83,5717.75 L 6078.32,5706.02 L 6255.6,5743.66 L 6259.88,5756.84 L 6075.83,5717.75 Z "/>
<path stroke="none" transform="matrix(0.1 0 0 0.1 -415.65 -481.8)" d="M 5785.48,5911.04 L 5781.2,5897.86 L 5899.24,5766.85 L 5908.15,5774.88 L 5785.48,5911.04 Z "/>
<path stroke="none" transform="matrix(0.1 0 0 0.1 -415.65 -481.8)" d="M 5870.68,6069.9 L 5859.27,6073.61 L 5797.66,5884.08 L 5809.07,5880.37 L 5870.68,6069.9 Z "/>
<path stroke="none" transform="matrix(0.1 0 0 0.1 -415.65 -481.8)" d="M 5821.39,6085.92 L 5809.98,6089.63 L 5748.36,5900.07 L 5759.78,5896.36 L 5821.39,6085.92 Z "/>
<path stroke="none" transform="matrix(0.1 0 0 0.1 -415.65 -481.8)" d="M 5497.11,5849.6 L 5506.38,5839.3 L 5781.2,5897.86 L 5785.48,5911.04 L 5497.11,5849.6 Z "/>
<path stroke="none" transform="matrix(0.1 0 0 0.1 -415.65 -481.8)" d="M 5443.92,5685.96 L 5455.33,5682.25 L 5506.38,5839.3 L 5497.11,5849.6 L 5443.92,5685.96 Z "/>
<path stroke="none" transform="matrix(0.1 0 0 0.1 -415.65 -481.8)" d="M 5574.53,5337.65 L 5589.36,5337.65 L 5488.15,5477.02 L 5478.44,5469.97 L 5574.53,5337.65 Z "/>
<path stroke="none" transform="matrix(0.1 0 0 0.1 -415.65 -481.8)" d="M 5410.45,5111.7 L 5415.04,5097.6 L 5589.36,5337.65 L 5574.53,5337.65 L 5410.45,5111.7 Z "/>
<path stroke="none" transform="matrix(0.1 0 0 0.1 -415.65 -481.8)" d="M 5388.08,5169.11 L 5397.79,5162.06 L 5522.74,5334.12 L 5513.03,5341.18 L 5388.08,5169.11 Z "/>
<path stroke="none" transform="matrix(0.1 0 0 0.1 -415.65 -481.8)" d="M 5144.74,5198.01 L 5138.74,5193.65 L 5139.43,5187.12 L 5415.04,5097.6 L 5410.45,5111.7 L 5144.74,5198.01 Z "/>
<path stroke="none" transform="matrix(0.1 0 0 0.1 -415.65 -481.8)" d="M 4889.34,5056.58 L 4889.34,5042.72 L 5139.43,5187.12 L 5138.74,5193.65 L 5132.74,5197.11 L 4889.34,5056.58 Z "/>
<path stroke="none" transform="matrix(0.1 0 0 0.1 -415.65 -481.8)" d="M 4886.34,5114.7 L 4892.34,5104.31 L 5089.9,5218.38 L 5083.9,5228.77 L 4886.34,5114.7 Z "/>
<path stroke="none" transform="matrix(0.1 0 0 0.1 -415.65 -481.8)" d="M 4645.94,5197.11 L 4639.94,5193.65 L 4639.94,5186.72 L 4889.34,5042.72 L 4889.34,5056.58 L 4645.94,5197.11 Z "/>
<path stroke="none" transform="matrix(0.1 0 0 0.1 -415.65 -481.8)" d="M 4387.54,5054.85 L 4393.54,5044.45 L 4639.94,5186.72 L 4639.94,5193.65 L 4633.94,5197.11 L 4387.54,5054.85 Z "/>
<path stroke="none" transform="matrix(0.1 0 0 0.1 -415.65 -481.8)" d="M 4645.94,5478.19 L 4633.94,5485.11 L 4633.94,5197.11 L 4639.94,5193.65 L 4645.94,5197.11 L 4645.94,5478.19 Z "/>
<path stroke="none" transform="matrix(0.1 0 0 0.1 -415.65 -481.8)" d="M 4697.78,5451.72 L 4685.78,5451.72 L 4685.78,5223.58 L 4697.78,5223.58 L 4697.78,5451.72 Z "/>
<path stroke="none" transform="matrix(0.1 0 0 0.1 -415.65 -481.8)" d="M 4889.34,5618.72 L 4889.34,5632.58 L 4633.94,5485.11 L 4645.94,5478.19 L 4889.34,5618.72 Z "/>
<path stroke="none" transform="matrix(0.1 0 0 0.1 -415.65 -481.8)" d="M 5132.74,5478.19 L 5138.74,5481.65 L 5139.43,5488.18 L 4889.34,5632.58 L 4889.34,5618.72 L 5132.74,5478.19 Z "/>
<path stroke="none" transform="matrix(0.1 0 0 0.1 -415.65 -481.8)" d="M 5083.9,5446.53 L 5089.9,5456.92 L 4892.34,5570.99 L 4886.34,5560.6 L 5083.9,5446.53 Z "/>
<path stroke="none" transform="matrix(0.1 0 0 0.1 -415.65 -481.8)" d="M 5144.74,5477.29 L 5138.74,5481.65 L 5132.74,5478.19 L 5132.74,5197.11 L 5138.74,5193.65 L 5144.74,5198.01 L 5144.74,5477.29 Z "/>
<path stroke="none" transform="matrix(0.1 0 0 0.1 -415.65 -481.8)" d="M 5139.43,5488.18 L 5138.74,5481.65 L 5144.74,5477.29 L 5315.27,5532.68 L 5311.56,5544.09 L 5139.43,5488.18 Z "/>
<path stroke="none" transform="matrix(0.1 0 0 0.1 -415.65 -481.8)" d="M 4211.5,5009.5 A 144,144 0 1 0 4499.5,5009.5A 144,144 0 1 0 4211.5,5009.5Z " class="connection_in" stroke-width="18px"/>
</g>
</svg>