<svg xmlns="http://www.w3.org/2000/svg" xmlns:xlink="http://www.w3.org/1999/xlink" viewBox="0 0 215.35000000000002 157.16499999999988" style="background-color: #ffffff00" version="1.1">
<g transform="matrix(1 0 0 1 -3.5 -2.7500000000001137)">
<text x="0" y="0" stroke="none" transform="matrix(0.1 0 0 0.1 158.872 114.715)" font-style="normal" font-weight="bold" font-size="200px" font-family="Arial">
O</text>
<text x="0" y="0" stroke="none" transform="matrix(0.1 0 0 0.1 133.932 157.915)" font-style="normal" font-weight="bold" font-size="200px" font-family="Arial">
O</text>
<text x="0" y="0" stroke="none" transform="matrix(0.1 0 0 0.1 109.548 85.915)" font-style="normal" font-weight="bold" font-size="200px" font-family="Arial">
N</text>
<text x="0" y="0" stroke="none" transform="matrix(0.1 0 0 0.1 158.872 85.915)" font-style="normal" font-weight="bold" font-size="200px" font-family="Arial">
O</text>
<path stroke="none" transform="matrix(0.1 0 0 0.1 -521.65 -543.8)" d="M 7126.4,6654.11 L 7132.4,6650.65 L 7138.4,6661.04 L 7138.4,6938.65 L 7126.4,6938.65 L 7126.4,6654.11 Z "/>
<path stroke="none" transform="matrix(0.1 0 0 0.1 -521.65 -543.8)" d="M 7385,6789.45 L 7379,6799.85 L 7138.4,6661.04 L 7132.4,6650.65 L 7144.41,6650.65 L 7385,6789.45 Z "/>
<path stroke="none" transform="matrix(0.1 0 0 0.1 -521.65 -543.8)" d="M 7379,6501.45 L 7385,6511.85 L 7144.41,6650.65 L 7132.4,6650.65 L 7132.4,6643.72 L 7379,6501.45 Z "/>
<path stroke="none" transform="matrix(0.1 0 0 0.1 -521.65 -543.8)" d="M 6972.23,6565.1 L 6978.23,6554.71 L 7132.4,6643.72 L 7132.4,6650.65 L 7126.4,6654.11 L 6972.23,6565.1 Z "/>
<path stroke="none" transform="matrix(0.1 0 0 0.1 -521.65 -543.8)" d="M 6633.6,6657.58 L 6633.6,6643.72 L 6788.21,6554.45 L 6794.21,6564.84 L 6633.6,6657.58 Z "/>
<path stroke="none" transform="matrix(0.1 0 0 0.1 -521.65 -543.8)" d="M 6665.52,6835.82 L 6653.52,6835.82 L 6653.52,6635.68 L 6665.52,6635.68 L 6665.52,6835.82 Z "/>
<path stroke="none" transform="matrix(0.1 0 0 0.1 -521.65 -543.8)" d="M 6613.68,6835.82 L 6601.68,6835.82 L 6601.68,6635.68 L 6613.68,6635.68 L 6613.68,6835.82 Z "/>
<path stroke="none" transform="matrix(0.1 0 0 0.1 -521.65 -543.8)" d="M 6378.2,6510.11 L 6390.2,6503.19 L 6633.6,6643.72 L 6633.6,6657.58 L 6378.2,6510.11 Z "/>
<path stroke="none" transform="matrix(0.1 0 0 0.1 -521.65 -543.8)" d="M 6378.2,6324.32 L 6390.2,6324.32 L 6390.2,6503.19 L 6378.2,6510.11 L 6378.2,6324.32 Z "/>
<path stroke="none" transform="matrix(0.1 0 0 0.1 -521.65 -543.8)" d="M 6627.6,6071.19 L 6639.6,6078.11 L 6486.34,6166.6 L 6480.34,6156.21 L 6627.6,6071.19 Z "/>
<path stroke="none" transform="matrix(0.1 0 0 0.1 -521.65 -543.8)" d="M 6809.91,6139.59 L 6803.91,6149.99 L 6630.6,6049.92 L 6636.6,6039.52 L 6809.91,6139.59 Z "/>
<path stroke="none" transform="matrix(0.1 0 0 0.1 -521.65 -543.8)" d="M 6783.99,6184.49 L 6777.99,6194.88 L 6604.68,6094.81 L 6610.68,6084.42 L 6783.99,6184.49 Z "/>
<path stroke="none" transform="matrix(0.1 0 0 0.1 -521.65 -543.8)" d="M 6627.6,5790.11 L 6639.6,5783.19 L 6639.6,6078.11 L 6627.6,6071.19 L 6627.6,5790.11 Z "/>
<path stroke="none" transform="matrix(0.1 0 0 0.1 -521.65 -543.8)" d="M 6384.2,5649.58 L 6384.2,5635.72 L 6639.6,5783.19 L 6627.6,5790.11 L 6384.2,5649.58 Z "/>
<path stroke="none" transform="matrix(0.1 0 0 0.1 -521.65 -543.8)" d="M 6140.8,5790.11 L 6134.8,5786.65 L 6134.8,5779.72 L 6384.2,5635.72 L 6384.2,5649.58 L 6140.8,5790.11 Z "/>
<path stroke="none" transform="matrix(0.1 0 0 0.1 -521.65 -543.8)" d="M 5885.4,5649.58 L 5885.4,5635.72 L 6134.8,5779.72 L 6134.8,5786.65 L 6128.8,5790.11 L 5885.4,5649.58 Z "/>
<path stroke="none" transform="matrix(0.1 0 0 0.1 -521.65 -543.8)" d="M 5642,5790.11 L 5636,5786.65 L 5636,5779.72 L 5885.4,5635.72 L 5885.4,5649.58 L 5642,5790.11 Z "/>
<path stroke="none" transform="matrix(0.1 0 0 0.1 -521.65 -543.8)" d="M 5690.84,5821.77 L 5684.84,5811.38 L 5882.4,5697.31 L 5888.4,5707.7 L 5690.84,5821.77 Z "/>
<path stroke="none" transform="matrix(0.1 0 0 0.1 -521.65 -543.8)" d="M 5383.6,5647.85 L 5389.6,5637.45 L 5636,5779.72 L 5636,5786.65 L 5630,5790.11 L 5383.6,5647.85 Z "/>
<path stroke="none" transform="matrix(0.1 0 0 0.1 -521.65 -543.8)" d="M 5642,6071.19 L 5630,6078.11 L 5630,5790.11 L 5636,5786.65 L 5642,5790.11 L 5642,6071.19 Z "/>
<path stroke="none" transform="matrix(0.1 0 0 0.1 -521.65 -543.8)" d="M 5885.4,6211.72 L 5885.4,6225.58 L 5630,6078.11 L 5642,6071.19 L 5885.4,6211.72 Z "/>
<path stroke="none" transform="matrix(0.1 0 0 0.1 -521.65 -543.8)" d="M 5888.4,6153.6 L 5882.4,6163.99 L 5684.84,6049.92 L 5690.84,6039.53 L 5888.4,6153.6 Z "/>
<path stroke="none" transform="matrix(0.1 0 0 0.1 -521.65 -543.8)" d="M 6128.8,6071.19 L 6134.8,6074.65 L 6134.8,6081.58 L 5885.4,6225.58 L 5885.4,6211.72 L 6128.8,6071.19 Z "/>
<path stroke="none" transform="matrix(0.1 0 0 0.1 -521.65 -543.8)" d="M 6140.8,6071.19 L 6134.8,6074.65 L 6128.8,6071.19 L 6128.8,5790.11 L 6134.8,5786.65 L 6140.8,5790.11 L 6140.8,6071.19 Z "/>
<path stroke="none" transform="matrix(0.1 0 0 0.1 -521.65 -543.8)" d="M 6088.96,6044.72 L 6076.96,6044.72 L 6076.96,5816.58 L 6088.96,5816.58 L 6088.96,6044.72 Z "/>
<path stroke="none" transform="matrix(0.1 0 0 0.1 -521.65 -543.8)" d="M 6134.8,6081.58 L 6134.8,6074.65 L 6140.8,6071.19 L 6286.99,6155.59 L 6280.99,6165.98 L 6134.8,6081.58 Z "/>
<path stroke="none" transform="matrix(0.1 0 0 0.1 -521.65 -543.8)" d="M 5271.5,5629.5 A 144,144 0 1 0 5559.5,5629.5A 144,144 0 1 0 5271.5,5629.5Z " class="connection_in" stroke-width="18px"/>
</g>
</svg>