<svg xmlns="http://www.w3.org/2000/svg" xmlns:xlink="http://www.w3.org/1999/xlink" viewBox="0 0 128.14855999999997 90.5125" style="background-color: #ffffff00" version="1.1">
<g transform="matrix(1 0 0 1 -2.38044 -3.892900000000001)">
<text x="0" y="0" stroke="none" transform="matrix(0.1 0 0 0.1 4.38044 92.4054)" font-style="normal" font-weight="bold" font-size="200px" font-family="Arial">
n-Dodec</text>
<text x="0" y="0" stroke="none" transform="matrix(0.1 0 0 0.1 96.2403 21.8929)" font-style="normal" font-weight="bold" font-size="200px" font-family="Arial">
S</text>
<path stroke="none" transform="matrix(0.1 0 0 0.1 -450.65 -362.8)" d="M 5431.95,4223.8 L 5438.68,4224.15 L 5442.34,4229.8 L 5334.26,4417.02 L 5323.86,4411.02 L 5431.95,4223.8 Z "/>
<path stroke="none" transform="matrix(0.1 0 0 0.1 -450.65 -362.8)" d="M 5720.08,4188.63 L 5730,4199.66 L 5442.34,4229.8 L 5438.68,4224.15 L 5442.38,4217.73 L 5720.08,4188.63 Z "/>
<path stroke="none" transform="matrix(0.1 0 0 0.1 -450.65 -362.8)" d="M 5778.23,3915.43 L 5791.79,3909.4 L 5730,4199.66 L 5720.08,4188.63 L 5778.23,3915.43 Z "/>
<path stroke="none" transform="matrix(0.1 0 0 0.1 -450.65 -362.8)" d="M 5720.59,3937.23 L 5732.32,3939.73 L 5688.04,4147.75 L 5676.3,4145.26 L 5720.59,3937.23 Z "/>
<path stroke="none" transform="matrix(0.1 0 0 0.1 -450.65 -362.8)" d="M 5621.93,3825.19 L 5627.93,3814.8 L 5791.79,3909.4 L 5778.23,3915.43 L 5621.93,3825.19 Z "/>
<path stroke="none" transform="matrix(0.1 0 0 0.1 -450.65 -362.8)" d="M 5328.71,3962.66 L 5321.46,3961.12 L 5319.71,3954.61 L 5452.47,3835.16 L 5460.49,3844.08 L 5328.71,3962.66 Z "/>
<path stroke="none" transform="matrix(0.1 0 0 0.1 -450.65 -362.8)" d="M 5317.22,3966.35 L 5321.46,3961.12 L 5328.71,3962.66 L 5442.38,4217.73 L 5438.68,4224.15 L 5431.95,4223.8 L 5317.22,3966.35 Z "/>
<path stroke="none" transform="matrix(0.1 0 0 0.1 -450.65 -362.8)" d="M 5378.66,3976.88 L 5389.62,3972 L 5476.18,4166.23 L 5465.22,4171.12 L 5378.66,3976.88 Z "/>
<path stroke="none" transform="matrix(0.1 0 0 0.1 -450.65 -362.8)" d="M 5038.58,3907.19 L 5041.07,3895.45 L 5319.71,3954.61 L 5321.46,3961.12 L 5317.22,3966.35 L 5038.58,3907.19 Z "/>
<path stroke="none" transform="matrix(0.1 0 0 0.1 -450.65 -362.8)" d="M 4891.5,3899.5 A 144,144 0 1 0 5179.5,3899.5A 144,144 0 1 0 4891.5,3899.5Z " class="connection_in" stroke-width="18px"/>
</g>
</svg>