<svg viewBox="0 0 245 140" xmlns="http://www.w3.org/2000/svg">
<text x="0" y="0" transform="matrix(0.1 0 0 0.1 4.08456 88)" font-size="200px">CH</text>
<text x="0" y="0" transform="matrix(0.1 0 0 0.1 32.9713 92.3)" font-size="150px">3</text>
<text x="0" y="0" transform="matrix(0.1 0 0 0.1 128.333 88)" font-size="200px">N</text>
<text x="0" y="0" transform="matrix(0.1 0 0 0.1 178.216 116.8)" font-size="200px">N</text>
<text x="0" y="0" transform="matrix(0.1 0 0 0.1 203.121 131.2)" font-size="200px">CH</text>
<text x="0" y="0" transform="matrix(0.1 0 0 0.1 232.008 135.5)" font-size="150px">3</text>
<text x="0" y="0" transform="matrix(0.1 0 0 0.1 103.391 44.8)" font-size="200px">N</text>
<path transform="matrix(0.1 0 0 0.1 -461.65 -568.4)" d="M 5217.44,6338.04 L 5223.44,6341.5 L 5223.44,6348.43 L 5023.56,6463.83 L 5017.56,6453.43 L 5217.44,6338.04 Z " />
<path transform="matrix(0.1 0 0 0.1 -461.65 -568.4)" d="M 5472.85,6478.57 L 5472.85,6492.43 L 5223.44,6348.43 L 5223.44,6341.5 L 5229.44,6338.04 L 5472.85,6478.57 Z " />
<path transform="matrix(0.1 0 0 0.1 -461.65 -568.4)" d="M 5475.85,6420.44 L 5469.85,6430.84 L 5272.28,6316.77 L 5278.28,6306.37 L 5475.85,6420.44 Z " />
<path transform="matrix(0.1 0 0 0.1 -461.65 -568.4)" d="M 5716.27,6338.04 L 5722.27,6341.5 L 5722.27,6348.43 L 5472.85,6492.43 L 5472.85,6478.57 L 5716.27,6338.04 Z " />
<path transform="matrix(0.1 0 0 0.1 -461.65 -568.4)" d="M 5875.24,6422.89 L 5869.24,6433.29 L 5722.27,6348.43 L 5722.27,6341.5 L 5728.27,6338.04 L 5875.24,6422.89 Z " />
<path transform="matrix(0.1 0 0 0.1 -461.65 -568.4)" d="M 5977.68,6770.04 L 5965.68,6776.96 L 5965.68,6591.33 L 5977.68,6591.33 L 5977.68,6770.04 Z " />
<path transform="matrix(0.1 0 0 0.1 -461.65 -568.4)" d="M 6221.1,6910.57 L 6221.1,6924.43 L 5965.68,6776.96 L 5977.68,6770.04 L 6221.1,6910.57 Z " />
<path transform="matrix(0.1 0 0 0.1 -461.65 -568.4)" d="M 6365.19,6827.38 L 6371.19,6837.77 L 6221.1,6924.43 L 6221.1,6910.57 L 6365.19,6827.38 Z " />
<path transform="matrix(0.1 0 0 0.1 -461.65 -568.4)" d="M 6638.69,6863.67 L 6632.69,6874.06 L 6568.55,6837.03 L 6574.55,6826.64 L 6638.69,6863.67 Z " />
<path transform="matrix(0.1 0 0 0.1 -461.65 -568.4)" d="M 6464.51,6488.96 L 6476.51,6482.04 L 6476.51,6674.33 L 6464.51,6674.33 L 6464.51,6488.96 Z " />
<path transform="matrix(0.1 0 0 0.1 -461.65 -568.4)" d="M 6221.1,6348.43 L 6221.1,6334.57 L 6476.51,6482.04 L 6464.51,6488.96 L 6221.1,6348.43 Z " />
<path transform="matrix(0.1 0 0 0.1 -461.65 -568.4)" d="M 6221.1,6334.57 L 6221.1,6348.43 L 6072.84,6434.03 L 6066.84,6423.63 L 6221.1,6334.57 Z " />
<path transform="matrix(0.1 0 0 0.1 -461.65 -568.4)" d="M 5716.27,6159.33 L 5728.27,6159.33 L 5728.27,6338.04 L 5722.27,6341.5 L 5716.27,6338.04 L 5716.27,6159.33 Z " />
<path transform="matrix(0.1 0 0 0.1 -461.65 -568.4)" d="M 5664.43,6159.33 L 5676.43,6159.33 L 5676.43,6311.57 L 5664.43,6311.57 L 5664.43,6159.33 Z " />
<path transform="matrix(0.1 0 0 0.1 -461.65 -568.4)" d="M 5472.85,5916.43 L 5472.85,5902.57 L 5625.83,5990.89 L 5619.83,6001.29 L 5472.85,5916.43 Z " />
<path transform="matrix(0.1 0 0 0.1 -461.65 -568.4)" d="M 5229.44,6056.96 L 5223.44,6053.5 L 5223.44,6046.57 L 5472.85,5902.57 L 5472.85,5916.43 L 5229.44,6056.96 Z " />
<path transform="matrix(0.1 0 0 0.1 -461.65 -568.4)" d="M 5278.28,6088.63 L 5272.28,6078.23 L 5469.85,5964.16 L 5475.85,5974.56 L 5278.28,6088.63 Z " />
<path transform="matrix(0.1 0 0 0.1 -461.65 -568.4)" d="M 5217.44,6056.96 L 5223.44,6053.5 L 5229.44,6056.96 L 5229.44,6338.04 L 5223.44,6341.5 L 5217.44,6338.04 L 5217.44,6056.96 Z " />
<path transform="matrix(0.1 0 0 0.1 -461.65 -568.4)" d="M 4971.02,5914.7 L 4977.02,5904.3 L 5223.44,6046.57 L 5223.44,6053.5 L 5217.44,6056.96 L 4971.02,5914.7 Z " />
<path class="connection_in" transform="matrix(0.1 0 0 0.1 -461.65 -568.4)" d="M 4802.7,5910.59 A 172.8,172.8 0 1 0 5148.3,5910.59A 172.8,172.8 0 1 0 4802.7,5910.59Z " />
</svg>
