<svg xmlns="http://www.w3.org/2000/svg" xmlns:xlink="http://www.w3.org/1999/xlink" viewBox="0 0 241.85341 122.952" style="background-color: #ffffff00" version="1.1">
<g transform="matrix(1 0 0 1 -2.9965900000000003 -2.7500000000001137)">
<text x="0" y="0" stroke="none" transform="matrix(0.1 0 0 0.1 134.712 116.459)" font-style="normal" font-weight="bold" font-size="200px" font-family="Arial">
O</text>
<text x="0" y="0" stroke="none" transform="matrix(0.1 0 0 0.1 160.208 56.5755)" font-style="normal" font-weight="bold" font-size="200px" font-family="Arial">
H</text>
<text x="0" y="0" stroke="none" transform="matrix(0.1 0 0 0.1 160.208 73.2588)" font-style="normal" font-weight="bold" font-size="200px" font-family="Arial">
N</text>
<text x="0" y="0" stroke="none" transform="matrix(0.1 0 0 0.1 35.5083 87.6588)" font-style="normal" font-weight="bold" font-size="200px" font-family="Arial">
N</text>
<text x="0" y="0" stroke="none" transform="matrix(0.1 0 0 0.1 49.9517 79.8088)" font-style="normal" font-weight="bold" font-size="150px" font-family="Arial">
+</text>
<text x="0" y="0" stroke="none" transform="matrix(0.1 0 0 0.1 34.9517 116.459)" font-style="normal" font-weight="bold" font-size="200px" font-family="Arial">
O</text>
<text x="0" y="0" stroke="none" transform="matrix(0.1 0 0 0.1 4.99659 65.4088)" font-style="normal" font-weight="bold" font-size="150px" font-family="Arial">
-</text>
<text x="0" y="0" stroke="none" transform="matrix(0.1 0 0 0.1 9.99171 73.2588)" font-style="normal" font-weight="bold" font-size="200px" font-family="Arial">
O</text>
<path stroke="none" transform="matrix(0.1 0 0 0.1 -489.65 -546.8)" d="M 6289.48,6251.12 L 6301.48,6251.12 L 6301.48,6451.26 L 6289.48,6451.26 L 6289.48,6251.12 Z "/>
<path stroke="none" transform="matrix(0.1 0 0 0.1 -489.65 -546.8)" d="M 6341.32,6251.12 L 6353.32,6251.12 L 6353.32,6451.26 L 6341.32,6451.26 L 6341.32,6251.12 Z "/>
<path stroke="none" transform="matrix(0.1 0 0 0.1 -489.65 -546.8)" d="M 6465.2,6176.13 L 6471.2,6186.52 L 6321.4,6273.02 L 6321.4,6259.16 L 6465.2,6176.13 Z "/>
<path stroke="none" transform="matrix(0.1 0 0 0.1 -489.65 -546.8)" d="M 6820.2,6259.16 L 6820.2,6266.09 L 6814.2,6269.55 L 6669.32,6185.9 L 6675.32,6175.51 L 6820.2,6259.16 Z "/>
<path stroke="none" transform="matrix(0.1 0 0 0.1 -489.65 -546.8)" d="M 7069.6,6115.16 L 7069.6,6129.02 L 6826.2,6269.55 L 6820.2,6266.09 L 6820.2,6259.16 L 7069.6,6115.16 Z "/>
<path stroke="none" transform="matrix(0.1 0 0 0.1 -489.65 -546.8)" d="M 7325,6262.62 L 7313,6269.55 L 7069.6,6129.02 L 7069.6,6115.16 L 7325,6262.62 Z "/>
<path stroke="none" transform="matrix(0.1 0 0 0.1 -489.65 -546.8)" d="M 7325,6557.55 L 7313,6550.62 L 7313,6269.55 L 7325,6262.62 L 7325,6557.55 Z "/>
<path stroke="none" transform="matrix(0.1 0 0 0.1 -489.65 -546.8)" d="M 7069.6,6705.02 L 7069.6,6691.16 L 7313,6550.62 L 7325,6557.55 L 7069.6,6705.02 Z "/>
<path stroke="none" transform="matrix(0.1 0 0 0.1 -489.65 -546.8)" d="M 6814.2,6557.55 L 6826.2,6550.62 L 7069.6,6691.16 L 7069.6,6705.02 L 6814.2,6557.55 Z "/>
<path stroke="none" transform="matrix(0.1 0 0 0.1 -489.65 -546.8)" d="M 6826.2,6550.62 L 6814.2,6557.55 L 6814.2,6269.55 L 6820.2,6266.09 L 6826.2,6269.55 L 6826.2,6550.62 Z "/>
<path stroke="none" transform="matrix(0.1 0 0 0.1 -489.65 -546.8)" d="M 6072,6129.02 L 6072,6122.09 L 6078,6118.62 L 6321.4,6259.16 L 6321.4,6273.02 L 6072,6129.02 Z "/>
<path stroke="none" transform="matrix(0.1 0 0 0.1 -489.65 -546.8)" d="M 6066,5837.55 L 6078,5830.62 L 6078,6118.62 L 6072,6122.09 L 6066,6118.62 L 6066,5837.55 Z "/>
<path stroke="none" transform="matrix(0.1 0 0 0.1 -489.65 -546.8)" d="M 5822.6,5697.02 L 5822.6,5683.16 L 6078,5830.62 L 6066,5837.55 L 5822.6,5697.02 Z "/>
<path stroke="none" transform="matrix(0.1 0 0 0.1 -489.65 -546.8)" d="M 5819.6,5755.14 L 5825.6,5744.75 L 6023.16,5858.82 L 6017.16,5869.21 L 5819.6,5755.14 Z "/>
<path stroke="none" transform="matrix(0.1 0 0 0.1 -489.65 -546.8)" d="M 5579.2,5837.55 L 5573.2,5834.09 L 5573.2,5827.16 L 5822.6,5683.16 L 5822.6,5697.02 L 5579.2,5837.55 Z "/>
<path stroke="none" transform="matrix(0.1 0 0 0.1 -489.65 -546.8)" d="M 5320.8,5695.28 L 5326.8,5684.89 L 5573.2,5827.16 L 5573.2,5834.09 L 5567.2,5837.55 L 5320.8,5695.28 Z "/>
<path stroke="none" transform="matrix(0.1 0 0 0.1 -489.65 -546.8)" d="M 5579.2,6118.62 L 5573.2,6122.09 L 5567.2,6118.62 L 5567.2,5837.55 L 5573.2,5834.09 L 5579.2,5837.55 L 5579.2,6118.62 Z "/>
<path stroke="none" transform="matrix(0.1 0 0 0.1 -489.65 -546.8)" d="M 5631.04,6092.16 L 5619.04,6092.16 L 5619.04,5864.02 L 5631.04,5864.02 L 5631.04,6092.16 Z "/>
<path stroke="none" transform="matrix(0.1 0 0 0.1 -489.65 -546.8)" d="M 5497.32,6172.83 L 5491.32,6162.44 L 5567.2,6118.62 L 5573.2,6122.09 L 5573.2,6129.02 L 5497.32,6172.83 Z "/>
<path stroke="none" transform="matrix(0.1 0 0 0.1 -489.65 -546.8)" d="M 5355.72,6451.26 L 5343.72,6451.26 L 5343.72,6371.92 L 5355.72,6371.92 L 5355.72,6451.26 Z "/>
<path stroke="none" transform="matrix(0.1 0 0 0.1 -489.65 -546.8)" d="M 5303.88,6451.26 L 5291.88,6451.26 L 5291.88,6371.92 L 5303.88,6371.92 L 5303.88,6451.26 Z "/>
<path stroke="none" transform="matrix(0.1 0 0 0.1 -489.65 -546.8)" d="M 5163.37,6180.46 L 5169.37,6170.06 L 5226.65,6203.11 L 5220.65,6213.5 L 5163.37,6180.46 Z "/>
<path stroke="none" transform="matrix(0.1 0 0 0.1 -489.65 -546.8)" d="M 5822.6,6259.16 L 5822.6,6273.02 L 5573.2,6129.02 L 5573.2,6122.09 L 5579.2,6118.62 L 5822.6,6259.16 Z "/>
<path stroke="none" transform="matrix(0.1 0 0 0.1 -489.65 -546.8)" d="M 5822.6,6273.02 L 5822.6,6259.16 L 6066,6118.62 L 6072,6122.09 L 6072,6129.02 L 5822.6,6273.02 Z "/>
<path stroke="none" transform="matrix(0.1 0 0 0.1 -489.65 -546.8)" d="M 5825.6,6211.43 L 5819.6,6201.03 L 6017.16,6086.96 L 6023.16,6097.36 L 5825.6,6211.43 Z "/>
<path stroke="none" transform="matrix(0.1 0 0 0.1 -489.65 -546.8)" d="M 5161.5,5659.5 A 144,144 0 1 0 5449.5,5659.5A 144,144 0 1 0 5161.5,5659.5Z " class="connection_in" stroke-width="18px"/>
</g>
</svg>