<svg xmlns="http://www.w3.org/2000/svg" xmlns:xlink="http://www.w3.org/1999/xlink" viewBox="0 0 301.41799999999995 149.6" style="background-color: #ffffff00" version="1.1">
<g transform="matrix(1 0 0 1 -2.9770000000000323 -3.8099999999999987)">
<text x="0" y="0" stroke="none" transform="matrix(0.1 0 0 0.1 22.4382 151.41)" font-style="normal" font-weight="bold" font-size="200px" font-family="Arial">
O</text>
<text x="0" y="0" stroke="none" transform="matrix(0.1 0 0 0.1 147.695 108.21)" font-style="normal" font-weight="bold" font-size="200px" font-family="Arial">
N</text>
<text x="0" y="0" stroke="none" transform="matrix(0.1 0 0 0.1 147.695 124.893)" font-style="normal" font-weight="bold" font-size="200px" font-family="Arial">
H</text>
<text x="0" y="0" stroke="none" transform="matrix(0.1 0 0 0.1 247.455 50.61)" font-style="normal" font-weight="bold" font-size="200px" font-family="Arial">
N</text>
<text x="0" y="0" stroke="none" transform="matrix(0.1 0 0 0.1 261.898 42.76)" font-style="normal" font-weight="bold" font-size="150px" font-family="Arial">
+</text>
<text x="0" y="0" stroke="none" transform="matrix(0.1 0 0 0.1 246.898 21.81)" font-style="normal" font-weight="bold" font-size="200px" font-family="Arial">
O</text>
<text x="0" y="0" stroke="none" transform="matrix(0.1 0 0 0.1 271.838 65.01)" font-style="normal" font-weight="bold" font-size="200px" font-family="Arial">
O</text>
<text x="0" y="0" stroke="none" transform="matrix(0.1 0 0 0.1 287.395 57.16)" font-style="normal" font-weight="bold" font-size="150px" font-family="Arial">
-</text>
<path stroke="none" transform="matrix(0.1 0 0 0.1 -380.65 -395.8)" d="M 4022.62,5336.99 L 4016.62,5347.38 L 3856.27,5254.8 L 3862.27,5244.4 L 4022.62,5336.99 Z "/>
<path stroke="none" transform="matrix(0.1 0 0 0.1 -380.65 -395.8)" d="M 4352.07,5246.14 L 4358.07,5249.6 L 4358.07,5256.53 L 4201.15,5347.13 L 4195.15,5336.73 L 4352.07,5246.14 Z "/>
<path stroke="none" transform="matrix(0.1 0 0 0.1 -380.65 -395.8)" d="M 4607.47,5386.67 L 4607.47,5400.53 L 4358.07,5256.53 L 4358.07,5249.6 L 4364.07,5246.14 L 4607.47,5386.67 Z "/>
<path stroke="none" transform="matrix(0.1 0 0 0.1 -380.65 -395.8)" d="M 4850.87,5246.14 L 4862.87,5253.06 L 4607.47,5400.53 L 4607.47,5386.67 L 4850.87,5246.14 Z "/>
<path stroke="none" transform="matrix(0.1 0 0 0.1 -380.65 -395.8)" d="M 4802.03,5214.48 L 4808.03,5224.87 L 4610.47,5338.94 L 4604.47,5328.55 L 4802.03,5214.48 Z "/>
<path stroke="none" transform="matrix(0.1 0 0 0.1 -380.65 -395.8)" d="M 4850.87,4965.06 L 4856.87,4961.6 L 4862.87,4965.06 L 4862.87,5253.06 L 4850.87,5246.14 L 4850.87,4965.06 Z "/>
<path stroke="none" transform="matrix(0.1 0 0 0.1 -380.65 -395.8)" d="M 5106.27,4810.67 L 5106.27,4824.53 L 4862.87,4965.06 L 4856.87,4961.6 L 4856.87,4954.67 L 5106.27,4810.67 Z "/>
<path stroke="none" transform="matrix(0.1 0 0 0.1 -380.65 -395.8)" d="M 5258.45,4898.54 L 5252.45,4908.93 L 5106.27,4824.53 L 5106.27,4810.67 L 5258.45,4898.54 Z "/>
<path stroke="none" transform="matrix(0.1 0 0 0.1 -380.65 -395.8)" d="M 5599.07,4814.14 L 5605.07,4817.6 L 5605.07,4824.53 L 5457.8,4909.55 L 5451.8,4899.16 L 5599.07,4814.14 Z "/>
<path stroke="none" transform="matrix(0.1 0 0 0.1 -380.65 -395.8)" d="M 5854.47,4954.67 L 5854.47,4968.53 L 5605.07,4824.53 L 5605.07,4817.6 L 5611.07,4814.14 L 5854.47,4954.67 Z "/>
<path stroke="none" transform="matrix(0.1 0 0 0.1 -380.65 -395.8)" d="M 6097.87,4814.14 L 6109.87,4821.06 L 5854.47,4968.53 L 5854.47,4954.67 L 6097.87,4814.14 Z "/>
<path stroke="none" transform="matrix(0.1 0 0 0.1 -380.65 -395.8)" d="M 6049.03,4782.48 L 6055.03,4792.87 L 5857.47,4906.94 L 5851.47,4896.55 L 6049.03,4782.48 Z "/>
<path stroke="none" transform="matrix(0.1 0 0 0.1 -380.65 -395.8)" d="M 6097.87,4533.06 L 6103.87,4529.6 L 6109.87,4533.06 L 6109.87,4821.06 L 6097.87,4814.14 L 6097.87,4533.06 Z "/>
<path stroke="none" transform="matrix(0.1 0 0 0.1 -380.65 -395.8)" d="M 6247.67,4439.64 L 6253.67,4450.03 L 6109.87,4533.06 L 6103.87,4529.6 L 6103.87,4522.67 L 6247.67,4439.64 Z "/>
<path stroke="none" transform="matrix(0.1 0 0 0.1 -380.65 -395.8)" d="M 6321.35,4205.77 L 6333.35,4205.77 L 6333.35,4285.43 L 6321.35,4285.43 L 6321.35,4205.77 Z "/>
<path stroke="none" transform="matrix(0.1 0 0 0.1 -380.65 -395.8)" d="M 6373.19,4205.77 L 6385.19,4205.77 L 6385.19,4285.43 L 6373.19,4285.43 L 6373.19,4205.77 Z "/>
<path stroke="none" transform="matrix(0.1 0 0 0.1 -380.65 -395.8)" d="M 6516.62,4472.99 L 6510.62,4483.38 L 6451.79,4449.41 L 6457.79,4439.02 L 6516.62,4472.99 Z "/>
<path stroke="none" transform="matrix(0.1 0 0 0.1 -380.65 -395.8)" d="M 5854.47,4392.53 L 5854.47,4378.67 L 6103.87,4522.67 L 6103.87,4529.6 L 6097.87,4533.06 L 5854.47,4392.53 Z "/>
<path stroke="none" transform="matrix(0.1 0 0 0.1 -380.65 -395.8)" d="M 5851.47,4450.65 L 5857.47,4440.26 L 6055.03,4554.33 L 6049.03,4564.72 L 5851.47,4450.65 Z "/>
<path stroke="none" transform="matrix(0.1 0 0 0.1 -380.65 -395.8)" d="M 5611.07,4533.06 L 5605.07,4529.6 L 5605.07,4522.67 L 5854.47,4378.67 L 5854.47,4392.53 L 5611.07,4533.06 Z "/>
<path stroke="none" transform="matrix(0.1 0 0 0.1 -380.65 -395.8)" d="M 5599.07,4533.06 L 5605.07,4529.6 L 5611.07,4533.06 L 5611.07,4814.14 L 5605.07,4817.6 L 5599.07,4814.14 L 5599.07,4533.06 Z "/>
<path stroke="none" transform="matrix(0.1 0 0 0.1 -380.65 -395.8)" d="M 5650.91,4559.53 L 5662.91,4559.53 L 5662.91,4787.67 L 5650.91,4787.67 L 5650.91,4559.53 Z "/>
<path stroke="none" transform="matrix(0.1 0 0 0.1 -380.65 -395.8)" d="M 5352.67,4390.8 L 5358.67,4380.4 L 5605.07,4522.67 L 5605.07,4529.6 L 5599.07,4533.06 L 5352.67,4390.8 Z "/>
<path stroke="none" transform="matrix(0.1 0 0 0.1 -380.65 -395.8)" d="M 4607.47,4824.53 L 4607.47,4810.67 L 4856.87,4954.67 L 4856.87,4961.6 L 4850.87,4965.06 L 4607.47,4824.53 Z "/>
<path stroke="none" transform="matrix(0.1 0 0 0.1 -380.65 -395.8)" d="M 4604.47,4882.65 L 4610.47,4872.26 L 4808.03,4986.33 L 4802.03,4996.72 L 4604.47,4882.65 Z "/>
<path stroke="none" transform="matrix(0.1 0 0 0.1 -380.65 -395.8)" d="M 4364.07,4965.06 L 4352.07,4958.14 L 4607.47,4810.67 L 4607.47,4824.53 L 4364.07,4965.06 Z "/>
<path stroke="none" transform="matrix(0.1 0 0 0.1 -380.65 -395.8)" d="M 4352.07,4958.14 L 4364.07,4965.06 L 4364.07,5246.14 L 4358.07,5249.6 L 4352.07,5246.14 L 4352.07,4958.14 Z "/>
<path stroke="none" transform="matrix(0.1 0 0 0.1 -380.65 -395.8)" d="M 4403.91,4991.53 L 4415.91,4991.53 L 4415.91,5219.67 L 4403.91,5219.67 L 4403.91,4991.53 Z "/>
<path stroke="none" transform="matrix(0.1 0 0 0.1 -380.65 -395.8)" d="M 5181.5,4339.5 A 144,144 0 1 0 5469.5,4339.5A 144,144 0 1 0 5181.5,4339.5Z " class="connection_in" stroke-width="18px"/>
</g>
</svg>