<svg xmlns="http://www.w3.org/2000/svg" xmlns:xlink="http://www.w3.org/1999/xlink" viewBox="0 0 120.233 193.53699999999998" style="background-color: #ffffff00" version="1.1">
<g transform="matrix(1 0 0 1 -3.500000000000057 -2.8079999999999927)">
<text x="0" y="0" stroke="none" transform="matrix(0.1 0 0 0.1 53.7819 152.013)" font-style="normal" font-weight="bold" font-size="200px" font-family="Arial">
O</text>
<text x="0" y="0" stroke="none" transform="matrix(0.1 0 0 0.1 10.5846 127.073)" font-style="normal" font-weight="bold" font-size="200px" font-family="Arial">
O</text>
<text x="0" y="0" stroke="none" transform="matrix(0.1 0 0 0.1 82.9783 99.1275)" font-style="normal" font-weight="bold" font-size="200px" font-family="Arial">
NH</text>
<path stroke="none" transform="matrix(0.1 0 0 0.1 -470.65 -385.8)" d="M 5171.17,5549.04 L 5185.03,5549.04 L 5327.28,5795.45 L 5316.89,5801.45 L 5171.17,5549.04 Z "/>
<path stroke="none" transform="matrix(0.1 0 0 0.1 -470.65 -385.8)" d="M 5262.31,5391.19 L 5272.7,5397.19 L 5185.03,5549.04 L 5171.17,5549.04 L 5262.31,5391.19 Z "/>
<path stroke="none" transform="matrix(0.1 0 0 0.1 -470.65 -385.8)" d="M 5171.19,5050.22 L 5185.04,5050.22 L 5275.15,5206.3 L 5264.76,5212.3 L 5171.19,5050.22 Z "/>
<path stroke="none" transform="matrix(0.1 0 0 0.1 -470.65 -385.8)" d="M 4991.35,5082.15 L 4991.35,5070.15 L 5193.08,5070.14 L 5193.08,5082.14 L 4991.35,5082.15 Z "/>
<path stroke="none" transform="matrix(0.1 0 0 0.1 -470.65 -385.8)" d="M 4991.34,5030.31 L 4991.34,5018.31 L 5193.08,5018.3 L 5193.08,5030.3 L 4991.34,5030.31 Z "/>
<path stroke="none" transform="matrix(0.1 0 0 0.1 -470.65 -385.8)" d="M 5315.39,4800.45 L 5322.12,4800.81 L 5325.78,4806.45 L 5185.04,5050.22 L 5171.19,5050.22 L 5315.39,4800.45 Z "/>
<path stroke="none" transform="matrix(0.1 0 0 0.1 -470.65 -385.8)" d="M 5519.45,4774.08 L 5520.71,4786.01 L 5325.78,4806.45 L 5322.12,4800.81 L 5325.82,4794.38 L 5519.45,4774.08 Z "/>
<path stroke="none" transform="matrix(0.1 0 0 0.1 -470.65 -385.8)" d="M 5661.65,4492 L 5668.42,4488.98 L 5673.74,4492.84 L 5637.21,4664.61 L 5625.47,4662.11 L 5661.65,4492 Z "/>
<path stroke="none" transform="matrix(0.1 0 0 0.1 -470.65 -385.8)" d="M 5911.83,4341.53 L 5923.83,4348.46 L 5673.74,4492.84 L 5668.42,4488.98 L 5668.42,4482.06 L 5911.83,4341.53 Z "/>
<path stroke="none" transform="matrix(0.1 0 0 0.1 -470.65 -385.8)" d="M 5862.99,4309.87 L 5868.99,4320.26 L 5671.42,4434.32 L 5665.42,4423.93 L 5862.99,4309.87 Z "/>
<path stroke="none" transform="matrix(0.1 0 0 0.1 -470.65 -385.8)" d="M 5911.82,4060.47 L 5923.82,4053.55 L 5923.83,4348.46 L 5911.83,4341.53 L 5911.82,4060.47 Z "/>
<path stroke="none" transform="matrix(0.1 0 0 0.1 -470.65 -385.8)" d="M 5668.41,3919.94 L 5668.41,3906.08 L 5923.82,4053.55 L 5911.82,4060.47 L 5668.41,3919.94 Z "/>
<path stroke="none" transform="matrix(0.1 0 0 0.1 -470.65 -385.8)" d="M 5665.41,3978.07 L 5671.41,3967.67 L 5868.98,4081.74 L 5862.98,4092.14 L 5665.41,3978.07 Z "/>
<path stroke="none" transform="matrix(0.1 0 0 0.1 -470.65 -385.8)" d="M 5425,4060.46 L 5413,4053.53 L 5668.41,3906.08 L 5668.41,3919.94 L 5425,4060.46 Z "/>
<path stroke="none" transform="matrix(0.1 0 0 0.1 -470.65 -385.8)" d="M 5425.01,4341.52 L 5419.01,4344.98 L 5413.01,4342.31 L 5413,4053.53 L 5425,4060.46 L 5425.01,4341.52 Z "/>
<path stroke="none" transform="matrix(0.1 0 0 0.1 -470.65 -385.8)" d="M 5476.84,4315.05 L 5464.84,4315.06 L 5464.84,4086.93 L 5476.84,4086.93 L 5476.84,4315.05 Z "/>
<path stroke="none" transform="matrix(0.1 0 0 0.1 -470.65 -385.8)" d="M 5419.78,4352.36 L 5419.01,4344.98 L 5425.01,4341.52 L 5668.42,4482.06 L 5668.42,4488.98 L 5661.65,4492 L 5419.78,4352.36 Z "/>
<path stroke="none" transform="matrix(0.1 0 0 0.1 -470.65 -385.8)" d="M 5212.19,4539.32 L 5204.93,4537.77 L 5203.19,4531.27 L 5413.01,4342.31 L 5419.01,4344.98 L 5419.78,4352.36 L 5212.19,4539.32 Z "/>
<path stroke="none" transform="matrix(0.1 0 0 0.1 -470.65 -385.8)" d="M 5200.69,4543.01 L 5204.93,4537.77 L 5212.19,4539.32 L 5325.82,4794.38 L 5322.12,4800.81 L 5315.39,4800.45 L 5200.69,4543.01 Z "/>
<path stroke="none" transform="matrix(0.1 0 0 0.1 -470.65 -385.8)" d="M 5262.12,4553.53 L 5273.09,4548.64 L 5359.62,4742.89 L 5348.66,4747.77 L 5262.12,4553.53 Z "/>
<path stroke="none" transform="matrix(0.1 0 0 0.1 -470.65 -385.8)" d="M 4922.07,4483.82 L 4924.56,4472.08 L 5203.19,4531.27 L 5204.93,4537.77 L 5200.69,4543.01 L 4922.07,4483.82 Z "/>
<path stroke="none" transform="matrix(0.1 0 0 0.1 -470.65 -385.8)" d="M 4761.5,4469.5 A 144,144 0 1 0 5049.5,4469.5A 144,144 0 1 0 4761.5,4469.5Z " class="connection_in" stroke-width="18px"/>
</g>
</svg>