<svg xmlns="http://www.w3.org/2000/svg" xmlns:xlink="http://www.w3.org/1999/xlink" viewBox="0 0 169.29500000000002 192.59499999999997" style="background-color: #ffffff00" version="1.1">
<g transform="matrix(1 0 0 1 -3.500000000000057 -2.1380000000000337)">
<path stroke="none" transform="matrix(0.1 0 0 0.1 -466.65 -380.8)" d="M 5121.37,4425.51 L 5121.37,4432.44 L 5115.37,4435.9 L 4868.95,4293.63 L 4874.95,4283.24 L 5121.37,4425.51 Z "/>
<path stroke="none" transform="matrix(0.1 0 0 0.1 -466.65 -380.8)" d="M 5364.78,4284.99 L 5370.78,4288.45 L 5370.78,4295.38 L 5127.37,4435.9 L 5121.37,4432.44 L 5121.37,4425.51 L 5364.78,4284.99 Z "/>
<path stroke="none" transform="matrix(0.1 0 0 0.1 -466.65 -380.8)" d="M 5364.77,3997 L 5376.77,4003.93 L 5376.78,4284.99 L 5370.78,4288.45 L 5364.78,4284.99 L 5364.77,3997 Z "/>
<path stroke="none" transform="matrix(0.1 0 0 0.1 -466.65 -380.8)" d="M 5620.28,3849.38 L 5620.28,3863.23 L 5376.77,4003.93 L 5364.77,3997 L 5620.28,3849.38 Z "/>
<path stroke="none" transform="matrix(0.1 0 0 0.1 -466.65 -380.8)" d="M 5617.28,3911.01 L 5623.29,3921.4 L 5425.64,4035.59 L 5419.64,4025.2 L 5617.28,3911.01 Z "/>
<path stroke="none" transform="matrix(0.1 0 0 0.1 -466.65 -380.8)" d="M 5875.69,3996.84 L 5863.69,4003.77 L 5620.28,3863.23 L 5620.28,3849.38 L 5875.69,3996.84 Z "/>
<path stroke="none" transform="matrix(0.1 0 0 0.1 -466.65 -380.8)" d="M 5875.6,4291.93 L 5863.6,4285 L 5863.69,4003.77 L 5875.69,3996.84 L 5875.6,4291.93 Z "/>
<path stroke="none" transform="matrix(0.1 0 0 0.1 -466.65 -380.8)" d="M 5823.74,4258.51 L 5811.74,4258.51 L 5811.81,4030.24 L 5823.81,4030.25 L 5823.74,4258.51 Z "/>
<path stroke="none" transform="matrix(0.1 0 0 0.1 -466.65 -380.8)" d="M 5626.19,4435.92 L 5620.19,4432.45 L 5620.19,4425.52 L 5863.6,4285 L 5875.6,4291.93 L 5626.19,4435.92 Z "/>
<path stroke="none" transform="matrix(0.1 0 0 0.1 -466.65 -380.8)" d="M 5620.19,4425.52 L 5620.19,4432.45 L 5614.19,4435.92 L 5370.78,4295.38 L 5370.78,4288.45 L 5376.78,4284.99 L 5620.19,4425.52 Z "/>
<path stroke="none" transform="matrix(0.1 0 0 0.1 -466.65 -380.8)" d="M 5571.35,4457.19 L 5565.35,4467.58 L 5367.78,4353.51 L 5373.78,4343.11 L 5571.35,4457.19 Z "/>
<path stroke="none" transform="matrix(0.1 0 0 0.1 -466.65 -380.8)" d="M 5626.2,4716.97 L 5620.2,4720.44 L 5614.2,4716.97 L 5614.19,4435.92 L 5620.19,4432.45 L 5626.19,4435.92 L 5626.2,4716.97 Z "/>
<path stroke="none" transform="matrix(0.1 0 0 0.1 -466.65 -380.8)" d="M 5869.61,4857.51 L 5869.61,4864.44 L 5863.61,4867.9 L 5620.2,4727.37 L 5620.2,4720.44 L 5626.2,4716.97 L 5869.61,4857.51 Z "/>
<path stroke="none" transform="matrix(0.1 0 0 0.1 -466.65 -380.8)" d="M 6119.02,4713.52 L 6119.02,4727.38 L 5875.61,4867.9 L 5869.61,4864.44 L 5869.61,4857.51 L 6119.02,4713.52 Z "/>
<path stroke="none" transform="matrix(0.1 0 0 0.1 -466.65 -380.8)" d="M 6374.44,4860.99 L 6362.44,4867.92 L 6119.02,4727.38 L 6119.02,4713.52 L 6374.44,4860.99 Z "/>
<path stroke="none" transform="matrix(0.1 0 0 0.1 -466.65 -380.8)" d="M 6319.6,4889.19 L 6313.6,4899.58 L 6116.02,4785.51 L 6122.02,4775.11 L 6319.6,4889.19 Z "/>
<path stroke="none" transform="matrix(0.1 0 0 0.1 -466.65 -380.8)" d="M 6374.45,5155.9 L 6362.45,5148.97 L 6362.44,4867.92 L 6374.44,4860.99 L 6374.45,5155.9 Z "/>
<path stroke="none" transform="matrix(0.1 0 0 0.1 -466.65 -380.8)" d="M 6125.04,5299.89 L 6119.04,5296.42 L 6119.04,5289.5 L 6362.45,5148.97 L 6374.45,5155.9 L 6125.04,5299.89 Z "/>
<path stroke="none" transform="matrix(0.1 0 0 0.1 -466.65 -380.8)" d="M 6122.04,5241.76 L 6116.04,5231.37 L 6313.61,5117.31 L 6319.61,5127.71 L 6122.04,5241.76 Z "/>
<path stroke="none" transform="matrix(0.1 0 0 0.1 -466.65 -380.8)" d="M 6125.05,5587.88 L 6113.05,5580.95 L 6113.04,5299.89 L 6119.04,5296.42 L 6125.04,5299.89 L 6125.05,5587.88 Z "/>
<path stroke="none" transform="matrix(0.1 0 0 0.1 -466.65 -380.8)" d="M 5869.64,5735.33 L 5869.64,5721.47 L 6113.05,5580.95 L 6125.05,5587.88 L 5869.64,5735.33 Z "/>
<path stroke="none" transform="matrix(0.1 0 0 0.1 -466.65 -380.8)" d="M 5872.64,5673.74 L 5866.64,5663.35 L 6064.21,5549.29 L 6070.21,5559.68 L 5872.64,5673.74 Z "/>
<path stroke="none" transform="matrix(0.1 0 0 0.1 -466.65 -380.8)" d="M 5614.22,5587.86 L 5626.22,5580.93 L 5869.64,5721.47 L 5869.64,5735.33 L 5614.22,5587.86 Z "/>
<path stroke="none" transform="matrix(0.1 0 0 0.1 -466.65 -380.8)" d="M 5614.21,5292.95 L 5626.21,5299.88 L 5626.22,5580.93 L 5614.22,5587.86 L 5614.21,5292.95 Z "/>
<path stroke="none" transform="matrix(0.1 0 0 0.1 -466.65 -380.8)" d="M 5666.05,5326.34 L 5678.05,5326.34 L 5678.06,5554.47 L 5666.06,5554.47 L 5666.05,5326.34 Z "/>
<path stroke="none" transform="matrix(0.1 0 0 0.1 -466.65 -380.8)" d="M 5863.62,5148.96 L 5869.62,5152.42 L 5869.62,5159.35 L 5626.21,5299.88 L 5614.21,5292.95 L 5863.62,5148.96 Z "/>
<path stroke="none" transform="matrix(0.1 0 0 0.1 -466.65 -380.8)" d="M 5875.62,5148.96 L 5869.62,5152.42 L 5863.62,5148.96 L 5863.61,4867.9 L 5869.61,4864.44 L 5875.61,4867.9 L 5875.62,5148.96 Z "/>
<path stroke="none" transform="matrix(0.1 0 0 0.1 -466.65 -380.8)" d="M 5927.46,5122.5 L 5915.46,5122.5 L 5915.45,4894.37 L 5927.45,4894.37 L 5927.46,5122.5 Z "/>
<path stroke="none" transform="matrix(0.1 0 0 0.1 -466.65 -380.8)" d="M 5869.62,5159.35 L 5869.62,5152.42 L 5875.62,5148.96 L 6119.04,5289.5 L 6119.04,5296.42 L 6113.04,5299.89 L 5869.62,5159.35 Z "/>
<path stroke="none" transform="matrix(0.1 0 0 0.1 -466.65 -380.8)" d="M 5376.79,4867.89 L 5370.79,4864.42 L 5370.79,4857.5 L 5614.2,4716.97 L 5620.2,4720.44 L 5620.2,4727.37 L 5376.79,4867.89 Z "/>
<path stroke="none" transform="matrix(0.1 0 0 0.1 -466.65 -380.8)" d="M 5373.79,4809.76 L 5367.79,4799.37 L 5565.36,4685.31 L 5571.36,4695.71 L 5373.79,4809.76 Z "/>
<path stroke="none" transform="matrix(0.1 0 0 0.1 -466.65 -380.8)" d="M 5376.8,5155.88 L 5364.8,5148.95 L 5364.79,4867.89 L 5370.79,4864.42 L 5376.79,4867.89 L 5376.8,5155.88 Z "/>
<path stroke="none" transform="matrix(0.1 0 0 0.1 -466.65 -380.8)" d="M 5121.39,5303.33 L 5121.39,5289.47 L 5364.8,5148.95 L 5376.8,5155.88 L 5121.39,5303.33 Z "/>
<path stroke="none" transform="matrix(0.1 0 0 0.1 -466.65 -380.8)" d="M 5124.39,5241.74 L 5118.39,5231.35 L 5315.96,5117.29 L 5321.96,5127.68 L 5124.39,5241.74 Z "/>
<path stroke="none" transform="matrix(0.1 0 0 0.1 -466.65 -380.8)" d="M 4865.98,5155.86 L 4877.98,5148.93 L 5121.39,5289.47 L 5121.39,5303.33 L 4865.98,5155.86 Z "/>
<path stroke="none" transform="matrix(0.1 0 0 0.1 -466.65 -380.8)" d="M 4865.97,4860.95 L 4877.97,4867.88 L 4877.98,5148.93 L 4865.98,5155.86 L 4865.97,4860.95 Z "/>
<path stroke="none" transform="matrix(0.1 0 0 0.1 -466.65 -380.8)" d="M 4917.81,4894.34 L 4929.81,4894.34 L 4929.81,5122.47 L 4917.81,5122.47 L 4917.81,4894.34 Z "/>
<path stroke="none" transform="matrix(0.1 0 0 0.1 -466.65 -380.8)" d="M 5115.38,4716.96 L 5121.38,4720.42 L 5121.38,4727.35 L 4877.97,4867.88 L 4865.97,4860.95 L 5115.38,4716.96 Z "/>
<path stroke="none" transform="matrix(0.1 0 0 0.1 -466.65 -380.8)" d="M 5127.38,4716.96 L 5121.38,4720.42 L 5115.38,4716.96 L 5115.37,4435.9 L 5121.37,4432.44 L 5127.37,4435.9 L 5127.38,4716.96 Z "/>
<path stroke="none" transform="matrix(0.1 0 0 0.1 -466.65 -380.8)" d="M 5179.21,4690.5 L 5167.21,4690.5 L 5167.21,4462.37 L 5179.21,4462.37 L 5179.21,4690.5 Z "/>
<path stroke="none" transform="matrix(0.1 0 0 0.1 -466.65 -380.8)" d="M 5121.38,4727.35 L 5121.38,4720.42 L 5127.38,4716.96 L 5370.79,4857.5 L 5370.79,4864.42 L 5364.79,4867.89 L 5121.38,4727.35 Z "/>
<path stroke="none" transform="matrix(0.1 0 0 0.1 -466.65 -380.8)" d="M 4721.5,4279.5 A 144,144 0 1 0 5009.5,4279.5A 144,144 0 1 0 4721.5,4279.5Z " class="connection_in" stroke-width="18px"/>
</g>
</svg>