<svg xmlns="http://www.w3.org/2000/svg" xmlns:xlink="http://www.w3.org/1999/xlink" viewBox="0 0 217.71099999999993 112.892" style="background-color: #ffffff00" version="1.1">
<g transform="matrix(1 0 0 1 -2.886000000000081 -2.75)">
<text x="0" y="0" stroke="none" transform="matrix(0.1 0 0 0.1 72.7841 53.7583)" font-style="normal" font-weight="bold" font-size="200px" font-family="Arial">
H</text>
<text x="0" y="0" stroke="none" transform="matrix(0.1 0 0 0.1 72.7841 70.4417)" font-style="normal" font-weight="bold" font-size="200px" font-family="Arial">
N</text>
<text x="0" y="0" stroke="none" transform="matrix(0.1 0 0 0.1 97.1675 113.642)" font-style="normal" font-weight="bold" font-size="200px" font-family="Arial">
O</text>
<text x="0" y="0" stroke="none" transform="matrix(0.1 0 0 0.1 198.597 84.8417)" font-style="normal" font-weight="bold" font-size="200px" font-family="Arial">
F</text>
<path stroke="none" transform="matrix(0.1 0 0 0.1 -387.65 -389.8)" d="M 4177.76,4516.99 L 4177.76,4530.84 L 3931.36,4673.11 L 3925.36,4662.72 L 4177.76,4516.99 Z "/>
<path stroke="none" transform="matrix(0.1 0 0 0.1 -387.65 -389.8)" d="M 4427.16,4660.99 L 4427.16,4674.84 L 4177.76,4530.84 L 4177.76,4516.99 L 4427.16,4660.99 Z "/>
<path stroke="none" transform="matrix(0.1 0 0 0.1 -387.65 -389.8)" d="M 4570.96,4577.96 L 4576.96,4588.35 L 4427.16,4674.84 L 4427.16,4660.99 L 4570.96,4577.96 Z "/>
<path stroke="none" transform="matrix(0.1 0 0 0.1 -387.65 -389.8)" d="M 4925.96,4660.99 L 4925.96,4674.84 L 4775.08,4587.73 L 4781.08,4577.34 L 4925.96,4660.99 Z "/>
<path stroke="none" transform="matrix(0.1 0 0 0.1 -387.65 -389.8)" d="M 4957.88,4853.08 L 4945.88,4853.08 L 4945.88,4652.95 L 4957.88,4652.95 L 4957.88,4853.08 Z "/>
<path stroke="none" transform="matrix(0.1 0 0 0.1 -387.65 -389.8)" d="M 4906.04,4853.08 L 4894.04,4853.08 L 4894.04,4652.95 L 4906.04,4652.95 L 4906.04,4853.08 Z "/>
<path stroke="none" transform="matrix(0.1 0 0 0.1 -387.65 -389.8)" d="M 5169.36,4520.45 L 5175.36,4523.92 L 5175.36,4530.84 L 4925.96,4674.84 L 4925.96,4660.99 L 5169.36,4520.45 Z "/>
<path stroke="none" transform="matrix(0.1 0 0 0.1 -387.65 -389.8)" d="M 5424.76,4660.99 L 5424.76,4674.84 L 5175.36,4530.84 L 5175.36,4523.92 L 5181.36,4520.45 L 5424.76,4660.99 Z "/>
<path stroke="none" transform="matrix(0.1 0 0 0.1 -387.65 -389.8)" d="M 5668.16,4520.45 L 5674.16,4523.92 L 5674.16,4530.84 L 5424.76,4674.84 L 5424.76,4660.99 L 5668.16,4520.45 Z "/>
<path stroke="none" transform="matrix(0.1 0 0 0.1 -387.65 -389.8)" d="M 5619.32,4488.79 L 5625.32,4499.18 L 5427.76,4613.25 L 5421.76,4602.86 L 5619.32,4488.79 Z "/>
<path stroke="none" transform="matrix(0.1 0 0 0.1 -387.65 -389.8)" d="M 5834.69,4609.68 L 5828.69,4620.07 L 5674.16,4530.84 L 5674.16,4523.92 L 5680.16,4520.45 L 5834.69,4609.68 Z "/>
<path stroke="none" transform="matrix(0.1 0 0 0.1 -387.65 -389.8)" d="M 5668.16,4239.38 L 5680.16,4232.45 L 5680.16,4520.45 L 5674.16,4523.92 L 5668.16,4520.45 L 5668.16,4239.38 Z "/>
<path stroke="none" transform="matrix(0.1 0 0 0.1 -387.65 -389.8)" d="M 5424.76,4098.84 L 5424.76,4084.99 L 5680.16,4232.45 L 5668.16,4239.38 L 5424.76,4098.84 Z "/>
<path stroke="none" transform="matrix(0.1 0 0 0.1 -387.65 -389.8)" d="M 5421.76,4156.97 L 5427.76,4146.58 L 5625.32,4260.65 L 5619.32,4271.04 L 5421.76,4156.97 Z "/>
<path stroke="none" transform="matrix(0.1 0 0 0.1 -387.65 -389.8)" d="M 5181.36,4239.38 L 5175.36,4235.92 L 5175.36,4228.99 L 5424.76,4084.99 L 5424.76,4098.84 L 5181.36,4239.38 Z "/>
<path stroke="none" transform="matrix(0.1 0 0 0.1 -387.65 -389.8)" d="M 5169.36,4239.38 L 5175.36,4235.92 L 5181.36,4239.38 L 5181.36,4520.45 L 5175.36,4523.92 L 5169.36,4520.45 L 5169.36,4239.38 Z "/>
<path stroke="none" transform="matrix(0.1 0 0 0.1 -387.65 -389.8)" d="M 5221.2,4265.85 L 5233.2,4265.85 L 5233.2,4493.99 L 5221.2,4493.99 L 5221.2,4265.85 Z "/>
<path stroke="none" transform="matrix(0.1 0 0 0.1 -387.65 -389.8)" d="M 4922.96,4097.11 L 4928.96,4086.72 L 5175.36,4228.99 L 5175.36,4235.92 L 5169.36,4239.38 L 4922.96,4097.11 Z "/>
<path stroke="none" transform="matrix(0.1 0 0 0.1 -387.65 -389.8)" d="M 4761.5,4089.5 A 144,144 0 1 0 5049.5,4089.5A 144,144 0 1 0 4761.5,4089.5Z " class="connection_in" stroke-width="18px"/>
</g>
</svg>