<svg xmlns="http://www.w3.org/2000/svg" xmlns:xlink="http://www.w3.org/1999/xlink" viewBox="0 0 192.76000000000005 235.76699999999994" style="background-color: #ffffff00" version="1.1">
<g transform="matrix(1 0 0 1 -3.500000000000057 -2.2460000000000377)">
<text x="0" y="0" stroke="none" transform="matrix(0.1 0 0 0.1 61.1724 156.774)" font-style="normal" font-weight="bold" font-size="200px" font-family="Arial">
O</text>
<text x="0" y="0" stroke="none" transform="matrix(0.1 0 0 0.1 111.056 99.1808)" font-style="normal" font-weight="bold" font-size="200px" font-family="Arial">
O</text>
<path stroke="none" transform="matrix(0.1 0 0 0.1 -455.65 -374.8)" d="M 4996.58,5662.3 L 4996.58,5669.23 L 4990.58,5672.69 L 4744.18,5530.44 L 4750.18,5520.05 L 4996.58,5662.3 Z "/>
<path stroke="none" transform="matrix(0.1 0 0 0.1 -455.65 -374.8)" d="M 5002.58,5953.75 L 4990.58,5960.68 L 4990.58,5672.69 L 4996.58,5669.23 L 5002.58,5672.69 L 5002.58,5953.75 Z "/>
<path stroke="none" transform="matrix(0.1 0 0 0.1 -455.65 -374.8)" d="M 5245.98,6094.27 L 5245.98,6108.13 L 4990.58,5960.68 L 5002.58,5953.75 L 5245.98,6094.27 Z "/>
<path stroke="none" transform="matrix(0.1 0 0 0.1 -455.65 -374.8)" d="M 5248.98,6036.15 L 5242.98,6046.54 L 5045.41,5932.48 L 5051.41,5922.09 L 5248.98,6036.15 Z "/>
<path stroke="none" transform="matrix(0.1 0 0 0.1 -455.65 -374.8)" d="M 5489.4,5953.74 L 5501.4,5960.67 L 5245.98,6108.13 L 5245.98,6094.27 L 5489.4,5953.74 Z "/>
<path stroke="none" transform="matrix(0.1 0 0 0.1 -455.65 -374.8)" d="M 5489.41,5672.68 L 5501.41,5665.75 L 5501.4,5960.67 L 5489.4,5953.74 L 5489.41,5672.68 Z "/>
<path stroke="none" transform="matrix(0.1 0 0 0.1 -455.65 -374.8)" d="M 5437.57,5699.14 L 5449.57,5699.14 L 5449.56,5927.27 L 5437.56,5927.27 L 5437.57,5699.14 Z "/>
<path stroke="none" transform="matrix(0.1 0 0 0.1 -455.65 -374.8)" d="M 5246,5532.16 L 5246,5525.23 L 5252,5521.76 L 5501.41,5665.75 L 5489.41,5672.68 L 5246,5532.16 Z "/>
<path stroke="none" transform="matrix(0.1 0 0 0.1 -455.65 -374.8)" d="M 5240,5521.76 L 5246,5525.23 L 5246,5532.16 L 5002.58,5672.69 L 4996.58,5669.23 L 4996.58,5662.3 L 5240,5521.76 Z "/>
<path stroke="none" transform="matrix(0.1 0 0 0.1 -455.65 -374.8)" d="M 5243,5579.89 L 5249,5590.28 L 5051.42,5704.35 L 5045.42,5693.96 L 5243,5579.89 Z "/>
<path stroke="none" transform="matrix(0.1 0 0 0.1 -455.65 -374.8)" d="M 5240,5345.41 L 5252,5345.41 L 5252,5521.76 L 5246,5525.23 L 5240,5521.76 L 5240,5345.41 Z "/>
<path stroke="none" transform="matrix(0.1 0 0 0.1 -455.65 -374.8)" d="M 5489.42,5089.8 L 5501.42,5096.73 L 5338.5,5190.78 L 5332.5,5180.39 L 5489.42,5089.8 Z "/>
<path stroke="none" transform="matrix(0.1 0 0 0.1 -455.65 -374.8)" d="M 5489.43,4801.82 L 5501.43,4808.75 L 5501.42,5096.73 L 5489.42,5089.8 L 5489.43,4801.82 Z "/>
<path stroke="none" transform="matrix(0.1 0 0 0.1 -455.65 -374.8)" d="M 5650.05,4709.1 L 5656.05,4719.49 L 5501.43,4808.75 L 5489.43,4801.82 L 5650.05,4709.1 Z "/>
<path stroke="none" transform="matrix(0.1 0 0 0.1 -455.65 -374.8)" d="M 5738.85,4369.86 L 5750.85,4376.79 L 5750.85,4558.47 L 5738.85,4558.47 L 5738.85,4369.86 Z "/>
<path stroke="none" transform="matrix(0.1 0 0 0.1 -455.65 -374.8)" d="M 5988.27,4225.88 L 5994.27,4229.35 L 5994.27,4236.28 L 5750.85,4376.79 L 5738.85,4369.86 L 5988.27,4225.88 Z "/>
<path stroke="none" transform="matrix(0.1 0 0 0.1 -455.65 -374.8)" d="M 5988.28,3937.9 L 6000.27,3944.83 L 6000.27,4225.88 L 5994.27,4229.35 L 5988.27,4225.88 L 5988.28,3937.9 Z "/>
<path stroke="none" transform="matrix(0.1 0 0 0.1 -455.65 -374.8)" d="M 6243.69,3790.46 L 6243.69,3804.32 L 6000.27,3944.83 L 5988.28,3937.9 L 6243.69,3790.46 Z "/>
<path stroke="none" transform="matrix(0.1 0 0 0.1 -455.65 -374.8)" d="M 6240.69,3852.05 L 6246.69,3862.44 L 6049.11,3976.49 L 6043.11,3966.1 L 6240.69,3852.05 Z "/>
<path stroke="none" transform="matrix(0.1 0 0 0.1 -455.65 -374.8)" d="M 6499.1,3937.94 L 6487.1,3944.86 L 6243.69,3804.32 L 6243.69,3790.46 L 6499.1,3937.94 Z "/>
<path stroke="none" transform="matrix(0.1 0 0 0.1 -455.65 -374.8)" d="M 6499.09,4232.85 L 6487.09,4225.92 L 6487.1,3944.86 L 6499.1,3937.94 L 6499.09,4232.85 Z "/>
<path stroke="none" transform="matrix(0.1 0 0 0.1 -455.65 -374.8)" d="M 6447.25,4199.46 L 6435.25,4199.46 L 6435.26,3971.33 L 6447.26,3971.33 L 6447.25,4199.46 Z "/>
<path stroke="none" transform="matrix(0.1 0 0 0.1 -455.65 -374.8)" d="M 6243.67,4380.29 L 6243.68,4366.43 L 6487.09,4225.92 L 6499.09,4232.85 L 6243.67,4380.29 Z "/>
<path stroke="none" transform="matrix(0.1 0 0 0.1 -455.65 -374.8)" d="M 6243.68,4366.43 L 6243.67,4380.29 L 5994.27,4236.28 L 5994.27,4229.35 L 6000.27,4225.88 L 6243.68,4366.43 Z "/>
<path stroke="none" transform="matrix(0.1 0 0 0.1 -455.65 -374.8)" d="M 6246.68,4308.31 L 6240.68,4318.7 L 6043.11,4204.62 L 6049.11,4194.22 L 6246.68,4308.31 Z "/>
<path stroke="none" transform="matrix(0.1 0 0 0.1 -455.65 -374.8)" d="M 4611.5,5529.5 A 144,144 0 1 0 4899.5,5529.5A 144,144 0 1 0 4611.5,5529.5Z " class="connection_in" stroke-width="18px"/>
</g>
</svg>