<svg xmlns="http://www.w3.org/2000/svg" xmlns:xlink="http://www.w3.org/1999/xlink" viewBox="0 0 130.05899999999994 142.43589999999995" style="background-color: #ffffff00" version="1.1">
<g transform="matrix(1 0 0 1 -3.500000000000057 -3.6590999999999987)">
<text x="0" y="0" stroke="none" transform="matrix(0.1 0 0 0.1 87.672 21.6591)" font-style="normal" font-weight="bold" font-size="200px" font-family="Arial">
NH</text>
<text x="0" y="0" stroke="none" transform="matrix(0.1 0 0 0.1 116.559 25.9591)" font-style="normal" font-weight="bold" font-size="150px" font-family="Arial">
2</text>
<text x="0" y="0" stroke="none" transform="matrix(0.1 0 0 0.1 62.732 64.8565)" font-style="normal" font-weight="bold" font-size="200px" font-family="Arial">
N</text>
<path stroke="none" transform="matrix(0.1 0 0 0.1 -449.65 -413.8)" d="M 5451.44,4560.61 L 5445.44,4564.08 L 5439.44,4560.61 L 5439.44,4381.76 L 5451.44,4381.76 L 5451.44,4560.61 Z "/>
<path stroke="none" transform="matrix(0.1 0 0 0.1 -449.65 -413.8)" d="M 5700.86,4704.61 L 5688.86,4711.54 L 5445.44,4571.01 L 5445.44,4564.08 L 5451.44,4560.61 L 5700.86,4704.61 Z "/>
<path stroke="none" transform="matrix(0.1 0 0 0.1 -449.65 -413.8)" d="M 5700.87,4999.53 L 5688.87,4992.6 L 5688.86,4711.54 L 5700.86,4704.61 L 5700.87,4999.53 Z "/>
<path stroke="none" transform="matrix(0.1 0 0 0.1 -449.65 -413.8)" d="M 5649.03,4966.14 L 5637.03,4966.14 L 5637.02,4738.01 L 5649.02,4738.01 L 5649.03,4966.14 Z "/>
<path stroke="none" transform="matrix(0.1 0 0 0.1 -449.65 -413.8)" d="M 5451.46,5143.52 L 5445.46,5140.05 L 5445.46,5133.12 L 5688.87,4992.6 L 5700.87,4999.53 L 5451.46,5143.52 Z "/>
<path stroke="none" transform="matrix(0.1 0 0 0.1 -449.65 -413.8)" d="M 5451.47,5431.5 L 5439.47,5424.57 L 5439.46,5143.52 L 5445.46,5140.05 L 5451.46,5143.52 L 5451.47,5431.5 Z "/>
<path stroke="none" transform="matrix(0.1 0 0 0.1 -449.65 -413.8)" d="M 5399.63,5398.11 L 5387.63,5398.11 L 5387.62,5169.98 L 5399.62,5169.98 L 5399.63,5398.11 Z "/>
<path stroke="none" transform="matrix(0.1 0 0 0.1 -449.65 -413.8)" d="M 5196.06,5578.95 L 5196.06,5565.1 L 5439.47,5424.57 L 5451.47,5431.5 L 5196.06,5578.95 Z "/>
<path stroke="none" transform="matrix(0.1 0 0 0.1 -449.65 -413.8)" d="M 4940.64,5431.49 L 4952.64,5424.56 L 5196.06,5565.1 L 5196.06,5578.95 L 4940.64,5431.49 Z "/>
<path stroke="none" transform="matrix(0.1 0 0 0.1 -449.65 -413.8)" d="M 4995.48,5403.29 L 5001.48,5392.9 L 5199.06,5506.97 L 5193.06,5517.36 L 4995.48,5403.29 Z "/>
<path stroke="none" transform="matrix(0.1 0 0 0.1 -449.65 -413.8)" d="M 4940.64,5143.5 L 4946.64,5140.04 L 4952.64,5143.5 L 4952.64,5424.56 L 4940.64,5431.49 L 4940.64,5143.5 Z "/>
<path stroke="none" transform="matrix(0.1 0 0 0.1 -449.65 -413.8)" d="M 4694.22,5001.23 L 4700.22,4990.84 L 4946.64,5133.11 L 4946.64,5140.04 L 4940.64,5143.5 L 4694.22,5001.23 Z "/>
<path stroke="none" transform="matrix(0.1 0 0 0.1 -449.65 -413.8)" d="M 5190.04,4992.59 L 5196.04,4996.05 L 5196.04,5002.98 L 4952.64,5143.5 L 4946.64,5140.04 L 4946.64,5133.11 L 5190.04,4992.59 Z "/>
<path stroke="none" transform="matrix(0.1 0 0 0.1 -449.65 -413.8)" d="M 5193.04,5050.71 L 5199.04,5061.1 L 5001.47,5175.16 L 4995.48,5164.77 L 5193.04,5050.71 Z "/>
<path stroke="none" transform="matrix(0.1 0 0 0.1 -449.65 -413.8)" d="M 5196.04,5002.98 L 5196.04,4996.05 L 5202.04,4992.59 L 5445.46,5133.12 L 5445.46,5140.05 L 5439.46,5143.52 L 5196.04,5002.98 Z "/>
<path stroke="none" transform="matrix(0.1 0 0 0.1 -449.65 -413.8)" d="M 5190.04,4813.73 L 5202.04,4813.73 L 5202.04,4992.59 L 5196.04,4996.05 L 5190.04,4992.59 L 5190.04,4813.73 Z "/>
<path stroke="none" transform="matrix(0.1 0 0 0.1 -449.65 -413.8)" d="M 5298.18,4656.03 L 5292.18,4645.63 L 5439.44,4560.61 L 5445.44,4564.08 L 5445.44,4571.01 L 5298.18,4656.03 Z "/>
<path stroke="none" transform="matrix(0.1 0 0 0.1 -449.65 -413.8)" d="M 5324.09,4700.92 L 5318.09,4690.53 L 5442.44,4618.74 L 5448.44,4629.13 L 5324.09,4700.92 Z "/>
<path stroke="none" transform="matrix(0.1 0 0 0.1 -449.65 -413.8)" d="M 4551.5,4999.5 A 144,144 0 1 0 4839.5,4999.5A 144,144 0 1 0 4551.5,4999.5Z " class="connection_in" stroke-width="18px"/>
</g>
</svg>