<svg xmlns="http://www.w3.org/2000/svg" xmlns:xlink="http://www.w3.org/1999/xlink" viewBox="0 0 166.38000000000005 149.38100000000009" style="background-color: #ffffff00" version="1.1">
<g transform="matrix(1 0 0 1 -3.500000000000057 -2.983000000000004)">
<path stroke="none" transform="matrix(0.1 0 0 0.1 -440.65 -384.8)" d="M 4832.22,4473.79 L 4832.22,4480.72 L 4826.22,4484.18 L 4579.8,4341.92 L 4585.8,4331.52 L 4832.22,4473.79 Z "/>
<path stroke="none" transform="matrix(0.1 0 0 0.1 -440.65 -384.8)" d="M 5075.63,4333.27 L 5081.63,4336.73 L 5081.63,4343.66 L 4838.22,4484.18 L 4832.22,4480.72 L 4832.22,4473.79 L 5075.63,4333.27 Z "/>
<path stroke="none" transform="matrix(0.1 0 0 0.1 -440.65 -384.8)" d="M 5075.62,4045.28 L 5087.62,4052.21 L 5087.63,4333.27 L 5081.63,4336.73 L 5075.63,4333.27 L 5075.62,4045.28 Z "/>
<path stroke="none" transform="matrix(0.1 0 0 0.1 -440.65 -384.8)" d="M 5331.03,3897.83 L 5331.03,3911.69 L 5087.62,4052.21 L 5075.62,4045.28 L 5331.03,3897.83 Z "/>
<path stroke="none" transform="matrix(0.1 0 0 0.1 -440.65 -384.8)" d="M 5328.03,3959.42 L 5334.03,3969.81 L 5136.46,4083.87 L 5130.46,4073.48 L 5328.03,3959.42 Z "/>
<path stroke="none" transform="matrix(0.1 0 0 0.1 -440.65 -384.8)" d="M 5586.44,4045.3 L 5574.44,4052.22 L 5331.03,3911.69 L 5331.03,3897.83 L 5586.44,4045.3 Z "/>
<path stroke="none" transform="matrix(0.1 0 0 0.1 -440.65 -384.8)" d="M 5586.45,4340.21 L 5574.45,4333.28 L 5574.44,4052.22 L 5586.44,4045.3 L 5586.45,4340.21 Z "/>
<path stroke="none" transform="matrix(0.1 0 0 0.1 -440.65 -384.8)" d="M 5534.61,4306.82 L 5522.61,4306.82 L 5522.61,4078.69 L 5534.6,4078.69 L 5534.61,4306.82 Z "/>
<path stroke="none" transform="matrix(0.1 0 0 0.1 -440.65 -384.8)" d="M 5337.04,4484.2 L 5331.04,4480.73 L 5331.04,4473.81 L 5574.45,4333.28 L 5586.45,4340.21 L 5337.04,4484.2 Z "/>
<path stroke="none" transform="matrix(0.1 0 0 0.1 -440.65 -384.8)" d="M 5331.04,4473.81 L 5331.04,4480.73 L 5325.04,4484.2 L 5081.63,4343.66 L 5081.63,4336.73 L 5087.63,4333.27 L 5331.04,4473.81 Z "/>
<path stroke="none" transform="matrix(0.1 0 0 0.1 -440.65 -384.8)" d="M 5282.2,4505.47 L 5276.2,4515.86 L 5078.63,4401.79 L 5084.63,4391.4 L 5282.2,4505.47 Z "/>
<path stroke="none" transform="matrix(0.1 0 0 0.1 -440.65 -384.8)" d="M 5337.05,4765.26 L 5331.05,4768.72 L 5325.05,4765.26 L 5325.04,4484.2 L 5331.04,4480.73 L 5337.04,4484.2 L 5337.05,4765.26 Z "/>
<path stroke="none" transform="matrix(0.1 0 0 0.1 -440.65 -384.8)" d="M 5580.46,4905.79 L 5580.46,4912.72 L 5574.46,4916.18 L 5331.05,4775.65 L 5331.05,4768.72 L 5337.05,4765.26 L 5580.46,4905.79 Z "/>
<path stroke="none" transform="matrix(0.1 0 0 0.1 -440.65 -384.8)" d="M 5829.87,4761.81 L 5829.87,4775.66 L 5586.46,4916.18 L 5580.46,4912.72 L 5580.46,4905.79 L 5829.87,4761.81 Z "/>
<path stroke="none" transform="matrix(0.1 0 0 0.1 -440.65 -384.8)" d="M 6085.29,4909.27 L 6073.29,4916.2 L 5829.87,4775.66 L 5829.87,4761.81 L 6085.29,4909.27 Z "/>
<path stroke="none" transform="matrix(0.1 0 0 0.1 -440.65 -384.8)" d="M 6030.45,4937.47 L 6024.45,4947.86 L 5826.87,4833.79 L 5832.87,4823.4 L 6030.45,4937.47 Z "/>
<path stroke="none" transform="matrix(0.1 0 0 0.1 -440.65 -384.8)" d="M 6085.3,5204.18 L 6073.3,5197.26 L 6073.29,4916.2 L 6085.29,4909.27 L 6085.3,5204.18 Z "/>
<path stroke="none" transform="matrix(0.1 0 0 0.1 -440.65 -384.8)" d="M 5829.89,5351.64 L 5829.89,5337.78 L 6073.3,5197.26 L 6085.3,5204.18 L 5829.89,5351.64 Z "/>
<path stroke="none" transform="matrix(0.1 0 0 0.1 -440.65 -384.8)" d="M 5832.89,5290.05 L 5826.89,5279.65 L 6024.46,5165.6 L 6030.46,5175.99 L 5832.89,5290.05 Z "/>
<path stroke="none" transform="matrix(0.1 0 0 0.1 -440.65 -384.8)" d="M 5574.47,5204.17 L 5586.47,5197.24 L 5829.89,5337.78 L 5829.89,5351.64 L 5574.47,5204.17 Z "/>
<path stroke="none" transform="matrix(0.1 0 0 0.1 -440.65 -384.8)" d="M 5586.47,5197.24 L 5574.47,5204.17 L 5574.46,4916.18 L 5580.46,4912.72 L 5586.46,4916.18 L 5586.47,5197.24 Z "/>
<path stroke="none" transform="matrix(0.1 0 0 0.1 -440.65 -384.8)" d="M 5638.31,5170.78 L 5626.31,5170.78 L 5626.3,4942.65 L 5638.3,4942.65 L 5638.31,5170.78 Z "/>
<path stroke="none" transform="matrix(0.1 0 0 0.1 -440.65 -384.8)" d="M 5087.64,4916.17 L 5081.64,4912.71 L 5081.64,4905.78 L 5325.05,4765.26 L 5331.05,4768.72 L 5331.05,4775.65 L 5087.64,4916.17 Z "/>
<path stroke="none" transform="matrix(0.1 0 0 0.1 -440.65 -384.8)" d="M 5084.64,4858.05 L 5078.64,4847.65 L 5276.21,4733.6 L 5282.21,4743.99 L 5084.64,4858.05 Z "/>
<path stroke="none" transform="matrix(0.1 0 0 0.1 -440.65 -384.8)" d="M 5087.65,5204.16 L 5075.65,5197.23 L 5075.64,4916.17 L 5081.64,4912.71 L 5087.64,4916.17 L 5087.65,5204.16 Z "/>
<path stroke="none" transform="matrix(0.1 0 0 0.1 -440.65 -384.8)" d="M 4832.24,5351.61 L 4832.24,5337.75 L 5075.65,5197.23 L 5087.65,5204.16 L 4832.24,5351.61 Z "/>
<path stroke="none" transform="matrix(0.1 0 0 0.1 -440.65 -384.8)" d="M 4835.24,5290.02 L 4829.24,5279.63 L 5026.81,5165.57 L 5032.81,5175.96 L 4835.24,5290.02 Z "/>
<path stroke="none" transform="matrix(0.1 0 0 0.1 -440.65 -384.8)" d="M 4576.83,5204.14 L 4588.83,5197.22 L 4832.24,5337.75 L 4832.24,5351.61 L 4576.83,5204.14 Z "/>
<path stroke="none" transform="matrix(0.1 0 0 0.1 -440.65 -384.8)" d="M 4576.82,4909.23 L 4588.82,4916.16 L 4588.83,5197.22 L 4576.83,5204.14 L 4576.82,4909.23 Z "/>
<path stroke="none" transform="matrix(0.1 0 0 0.1 -440.65 -384.8)" d="M 4628.66,4942.62 L 4640.66,4942.62 L 4640.66,5170.75 L 4628.66,5170.75 L 4628.66,4942.62 Z "/>
<path stroke="none" transform="matrix(0.1 0 0 0.1 -440.65 -384.8)" d="M 4826.23,4765.24 L 4832.23,4768.71 L 4832.23,4775.63 L 4588.82,4916.16 L 4576.82,4909.23 L 4826.23,4765.24 Z "/>
<path stroke="none" transform="matrix(0.1 0 0 0.1 -440.65 -384.8)" d="M 4838.23,4765.24 L 4832.23,4768.71 L 4826.23,4765.24 L 4826.22,4484.18 L 4832.22,4480.72 L 4838.22,4484.18 L 4838.23,4765.24 Z "/>
<path stroke="none" transform="matrix(0.1 0 0 0.1 -440.65 -384.8)" d="M 4890.06,4738.78 L 4878.06,4738.78 L 4878.06,4510.65 L 4890.06,4510.65 L 4890.06,4738.78 Z "/>
<path stroke="none" transform="matrix(0.1 0 0 0.1 -440.65 -384.8)" d="M 4832.23,4775.63 L 4832.23,4768.71 L 4838.23,4765.24 L 5081.64,4905.78 L 5081.64,4912.71 L 5075.64,4916.17 L 4832.23,4775.63 Z "/>
<path stroke="none" transform="matrix(0.1 0 0 0.1 -440.65 -384.8)" d="M 4461.5,4339.5 A 144,144 0 1 0 4749.5,4339.5A 144,144 0 1 0 4461.5,4339.5Z " class="connection_in" stroke-width="18px"/>
</g>
</svg>