<svg viewBox="0 0 138 171" xmlns="http://www.w3.org/2000/svg">
<text x="0" y="0" transform="matrix(0.1 0 0 0.1 113.35 21.1947)" font-size="200px">Et</text>
<text x="0" y="0" transform="matrix(0.1 0 0 0.1 102.43 48.2578)" font-size="200px">O</text>
<text x="0" y="0" transform="matrix(0.1 0 0 0.1 55.5556 31.1968)" font-size="200px">O</text>
<text x="0" y="0" transform="matrix(0.1 0 0 0.1 80.8763 104.198)" font-size="200px">NH</text>
<path transform="matrix(0.1 0 0 0.1 -478.65 -573.4)" d="M 5929.03,6043.44 L 5917.75,6039.34 L 5940.39,5977.13 L 5951.67,5981.23 L 5929.03,6043.44 Z " />
<path transform="matrix(0.1 0 0 0.1 -478.65 -573.4)" d="M 5609.03,6193.4 L 5600.12,6182.78 L 5786.8,6149.86 L 5788.89,6161.68 L 5609.03,6193.4 Z " />
<path transform="matrix(0.1 0 0 0.1 -478.65 -573.4)" d="M 5465.1,6071.53 L 5474.3,6063.82 L 5598.93,6212.36 L 5589.74,6220.07 L 5465.1,6071.53 Z " />
<path transform="matrix(0.1 0 0 0.1 -478.65 -573.4)" d="M 5504.82,6038.21 L 5514.01,6030.5 L 5638.64,6179.03 L 5629.45,6186.75 L 5504.82,6038.21 Z " />
<path transform="matrix(0.1 0 0 0.1 -478.65 -573.4)" d="M 5512.75,6457.9 L 5506.07,6458.72 L 5501.48,6453.8 L 5600.12,6182.78 L 5609.03,6193.4 L 5512.75,6457.9 Z " />
<path transform="matrix(0.1 0 0 0.1 -478.65 -573.4)" d="M 5605.28,6595.08 L 5595.33,6601.79 L 5503.53,6465.69 L 5506.07,6458.72 L 5512.75,6457.9 L 5605.28,6595.08 Z " />
<path transform="matrix(0.1 0 0 0.1 -478.65 -573.4)" d="M 5496.18,6926.02 L 5489.81,6924.43 L 5487.76,6917.3 L 5585.32,6792.44 L 5594.77,6799.82 L 5496.18,6926.02 Z " />
<path transform="matrix(0.1 0 0 0.1 -478.65 -573.4)" d="M 5546.33,7210.42 L 5533.31,7205.68 L 5484.5,6928.88 L 5489.81,6924.43 L 5496.18,6926.02 L 5546.33,7210.42 Z " />
<path transform="matrix(0.1 0 0 0.1 -478.65 -573.4)" d="M 5489.48,7186.54 L 5477.66,7188.62 L 5438.04,6963.95 L 5449.86,6961.86 L 5489.48,7186.54 Z " />
<path transform="matrix(0.1 0 0 0.1 -478.65 -573.4)" d="M 5320.4,7400 L 5318,7386.35 L 5533.31,7205.68 L 5546.33,7210.42 L 5320.4,7400 Z " />
<path transform="matrix(0.1 0 0 0.1 -478.65 -573.4)" d="M 5043.26,7299.13 L 5053.87,7290.22 L 5318,7386.35 L 5320.4,7400 L 5043.26,7299.13 Z " />
<path transform="matrix(0.1 0 0 0.1 -478.65 -573.4)" d="M 5092.37,7261.84 L 5096.47,7250.56 L 5310.86,7328.59 L 5306.75,7339.86 L 5092.37,7261.84 Z " />
<path transform="matrix(0.1 0 0 0.1 -478.65 -573.4)" d="M 4992.05,7008.68 L 5005.07,7013.42 L 5053.87,7290.22 L 5043.26,7299.13 L 4992.05,7008.68 Z " />
<path transform="matrix(0.1 0 0 0.1 -478.65 -573.4)" d="M 5213.27,6823.05 L 5219.18,6825.93 L 5220.38,6832.75 L 5005.07,7013.42 L 4992.05,7008.68 L 5213.27,6823.05 Z " />
<path transform="matrix(0.1 0 0 0.1 -478.65 -573.4)" d="M 5225.71,6880.28 L 5233.43,6889.47 L 5058.66,7036.12 L 5050.95,7026.93 L 5225.71,6880.28 Z " />
<path transform="matrix(0.1 0 0 0.1 -478.65 -573.4)" d="M 5220.38,6832.75 L 5219.18,6825.93 L 5225.33,6821.78 L 5487.76,6917.3 L 5489.81,6924.43 L 5484.5,6928.88 L 5220.38,6832.75 Z " />
<path transform="matrix(0.1 0 0 0.1 -478.65 -573.4)" d="M 5223.12,6540.95 L 5229.23,6538.1 L 5235.07,6542.67 L 5225.33,6821.78 L 5219.18,6825.93 L 5213.27,6823.05 L 5223.12,6540.95 Z " />
<path transform="matrix(0.1 0 0 0.1 -478.65 -573.4)" d="M 5235.07,6542.67 L 5229.23,6538.1 L 5230.51,6531.49 L 5501.48,6453.8 L 5506.07,6458.72 L 5503.53,6465.69 L 5235.07,6542.67 Z " />
<path transform="matrix(0.1 0 0 0.1 -478.65 -573.4)" d="M 5281.38,6583.32 L 5278.07,6571.79 L 5482.5,6513.17 L 5485.81,6524.7 L 5281.38,6583.32 Z " />
<path transform="matrix(0.1 0 0 0.1 -478.65 -573.4)" d="M 4998.59,6365.52 L 5005.97,6356.06 L 5230.51,6531.49 L 5229.23,6538.1 L 5223.12,6540.95 L 4998.59,6365.52 Z " />
<path class="connection_in" transform="matrix(0.1 0 0 0.1 -478.65 -573.4)" d="M 4832.69,6365.54 A 172.8,172.8 0 1 0 5178.29,6365.54A 172.8,172.8 0 1 0 4832.69,6365.54Z " />
</svg>
