<svg xmlns="http://www.w3.org/2000/svg" xmlns:xlink="http://www.w3.org/1999/xlink" viewBox="0 0 133.13299999999992 78.02299999999997" style="background-color: #ffffff00" version="1.1">
<g transform="matrix(1 0 0 1 -3.500000000000057 -2.75)">
<text x="0" y="0" stroke="none" transform="matrix(0.1 0 0 0.1 114.633 28.33)" font-style="normal" font-weight="bold" font-size="200px" font-family="Arial">
F</text>
<path stroke="none" transform="matrix(0.1 0 0 0.1 -448.65 -426.8)" d="M 5450.52,4620.26 L 5444.52,4616.8 L 5444.52,4609.87 L 5598.47,4520.98 L 5604.47,4531.37 L 5450.52,4620.26 Z "/>
<path stroke="none" transform="matrix(0.1 0 0 0.1 -448.65 -426.8)" d="M 5450.52,4908.26 L 5438.52,4901.34 L 5438.52,4620.26 L 5444.52,4616.8 L 5450.52,4620.26 L 5450.52,4908.26 Z "/>
<path stroke="none" transform="matrix(0.1 0 0 0.1 -448.65 -426.8)" d="M 5195.12,5055.73 L 5195.12,5041.87 L 5438.52,4901.34 L 5450.52,4908.26 L 5195.12,5055.73 Z "/>
<path stroke="none" transform="matrix(0.1 0 0 0.1 -448.65 -426.8)" d="M 5198.12,4994.14 L 5192.12,4983.75 L 5389.68,4869.68 L 5395.68,4880.07 L 5198.12,4994.14 Z "/>
<path stroke="none" transform="matrix(0.1 0 0 0.1 -448.65 -426.8)" d="M 4939.72,4908.26 L 4951.72,4901.34 L 5195.12,5041.87 L 5195.12,5055.73 L 4939.72,4908.26 Z "/>
<path stroke="none" transform="matrix(0.1 0 0 0.1 -448.65 -426.8)" d="M 4939.72,4620.26 L 4945.72,4616.8 L 4951.72,4620.26 L 4951.72,4901.34 L 4939.72,4908.26 L 4939.72,4620.26 Z "/>
<path stroke="none" transform="matrix(0.1 0 0 0.1 -448.65 -426.8)" d="M 4991.56,4646.73 L 5003.56,4646.73 L 5003.56,4874.87 L 4991.56,4874.87 L 4991.56,4646.73 Z "/>
<path stroke="none" transform="matrix(0.1 0 0 0.1 -448.65 -426.8)" d="M 4693.32,4478 L 4699.32,4467.6 L 4945.72,4609.87 L 4945.72,4616.8 L 4939.72,4620.26 L 4693.32,4478 Z "/>
<path stroke="none" transform="matrix(0.1 0 0 0.1 -448.65 -426.8)" d="M 5195.12,4465.87 L 5195.12,4479.73 L 4951.72,4620.26 L 4945.72,4616.8 L 4945.72,4609.87 L 5195.12,4465.87 Z "/>
<path stroke="none" transform="matrix(0.1 0 0 0.1 -448.65 -426.8)" d="M 5195.12,4479.73 L 5195.12,4465.87 L 5444.52,4609.87 L 5444.52,4616.8 L 5438.52,4620.26 L 5195.12,4479.73 Z "/>
<path stroke="none" transform="matrix(0.1 0 0 0.1 -448.65 -426.8)" d="M 5192.12,4537.85 L 5198.12,4527.46 L 5395.68,4641.53 L 5389.68,4651.92 L 5192.12,4537.85 Z "/>
<path stroke="none" transform="matrix(0.1 0 0 0.1 -448.65 -426.8)" d="M 4541.5,4459.5 A 144,144 0 1 0 4829.5,4459.5A 144,144 0 1 0 4541.5,4459.5Z " class="connection_in" stroke-width="18px"/>
</g>
</svg>