<svg xmlns="http://www.w3.org/2000/svg" xmlns:xlink="http://www.w3.org/1999/xlink" viewBox="0 0 169.32999999999998 110.69999999999999" style="background-color: #ffffff00" version="1.1">
<g transform="matrix(1 0 0 1 -3.500000000000057 -3.3999999999999986)">
<text x="0" y="0" stroke="none" transform="matrix(0.1 0 0 0.1 137.812 64.6)" font-style="normal" font-weight="bold" font-size="200px" font-family="Arial">
O</text>
<text x="0" y="0" stroke="none" transform="matrix(0.1 0 0 0.1 112.872 21.4)" font-style="normal" font-weight="bold" font-size="200px" font-family="Arial">
O</text>
<text x="0" y="0" stroke="none" transform="matrix(0.1 0 0 0.1 63.5283 50.2)" font-style="normal" font-weight="bold" font-size="200px" font-family="Arial">
N</text>
<text x="0" y="0" stroke="none" transform="matrix(0.1 0 0 0.1 63.5283 107.8)" font-style="normal" font-weight="bold" font-size="200px" font-family="Arial">
N</text>
<text x="0" y="0" stroke="none" transform="matrix(0.1 0 0 0.1 113.428 107.8)" font-style="normal" font-weight="bold" font-size="200px" font-family="Arial">
NH</text>
<text x="0" y="0" stroke="none" transform="matrix(0.1 0 0 0.1 142.315 112.1)" font-style="normal" font-weight="bold" font-size="150px" font-family="Arial">
2</text>
<path stroke="none" transform="matrix(0.1 0 0 0.1 -443.65 -546.9)" d="M 5984.89,5990.03 L 5978.89,5979.63 L 6138.8,5887.3 L 6144.8,5897.7 L 5984.89,5990.03 Z "/>
<path stroke="none" transform="matrix(0.1 0 0 0.1 -443.65 -546.9)" d="M 5643,5899.43 L 5643,5885.57 L 5806.35,5979.89 L 5800.35,5990.28 L 5643,5899.43 Z "/>
<path stroke="none" transform="matrix(0.1 0 0 0.1 -443.65 -546.9)" d="M 5611.08,5712.67 L 5623.08,5712.67 L 5623.08,5907.47 L 5611.08,5907.47 L 5611.08,5712.67 Z "/>
<path stroke="none" transform="matrix(0.1 0 0 0.1 -443.65 -546.9)" d="M 5662.92,5712.67 L 5674.92,5712.67 L 5674.92,5907.47 L 5662.92,5907.47 L 5662.92,5712.67 Z "/>
<path stroke="none" transform="matrix(0.1 0 0 0.1 -443.65 -546.9)" d="M 5399.6,6039.96 L 5393.6,6036.5 L 5393.6,6029.57 L 5643,5885.57 L 5643,5899.43 L 5399.6,6039.96 Z "/>
<path stroke="none" transform="matrix(0.1 0 0 0.1 -443.65 -546.9)" d="M 5242.46,5956.23 L 5248.46,5945.84 L 5393.6,6029.57 L 5393.6,6036.5 L 5387.6,6039.97 L 5242.46,5956.23 Z "/>
<path stroke="none" transform="matrix(0.1 0 0 0.1 -443.65 -546.9)" d="M 5216.54,6001.16 L 5222.54,5990.76 L 5344.73,6061.26 L 5338.73,6071.65 L 5216.54,6001.16 Z "/>
<path stroke="none" transform="matrix(0.1 0 0 0.1 -443.65 -546.9)" d="M 4900.6,6039.96 L 4894.6,6036.5 L 4894.6,6029.57 L 5038.48,5946.5 L 5044.48,5956.89 L 4900.6,6039.96 Z "/>
<path stroke="none" transform="matrix(0.1 0 0 0.1 -443.65 -546.9)" d="M 4642.2,5897.7 L 4648.2,5887.3 L 4894.6,6029.57 L 4894.6,6036.5 L 4888.6,6039.96 L 4642.2,5897.7 Z "/>
<path stroke="none" transform="matrix(0.1 0 0 0.1 -443.65 -546.9)" d="M 4900.6,6321.04 L 4888.6,6327.96 L 4888.6,6039.96 L 4894.6,6036.5 L 4900.6,6039.96 L 4900.6,6321.04 Z "/>
<path stroke="none" transform="matrix(0.1 0 0 0.1 -443.65 -546.9)" d="M 4952.44,6294.57 L 4940.44,6294.57 L 4940.44,6066.43 L 4952.44,6066.43 L 4952.44,6294.57 Z "/>
<path stroke="none" transform="matrix(0.1 0 0 0.1 -443.65 -546.9)" d="M 5046.79,6405.44 L 5040.79,6415.83 L 4888.6,6327.96 L 4900.6,6321.04 L 5046.79,6405.44 Z "/>
<path stroke="none" transform="matrix(0.1 0 0 0.1 -443.65 -546.9)" d="M 5387.6,6321.03 L 5393.6,6324.5 L 5393.6,6331.43 L 5246.15,6416.5 L 5240.15,6406.1 L 5387.6,6321.03 Z "/>
<path stroke="none" transform="matrix(0.1 0 0 0.1 -443.65 -546.9)" d="M 5338.73,6289.35 L 5344.73,6299.74 L 5220.23,6371.57 L 5214.23,6361.17 L 5338.73,6289.35 Z "/>
<path stroke="none" transform="matrix(0.1 0 0 0.1 -443.65 -546.9)" d="M 5399.6,6321.04 L 5393.6,6324.5 L 5387.6,6321.03 L 5387.6,6039.97 L 5393.6,6036.5 L 5399.6,6039.96 L 5399.6,6321.04 Z "/>
<path stroke="none" transform="matrix(0.1 0 0 0.1 -443.65 -546.9)" d="M 5545.79,6405.44 L 5539.79,6415.83 L 5393.6,6331.43 L 5393.6,6324.5 L 5399.6,6321.04 L 5545.79,6405.44 Z "/>
<path stroke="none" transform="matrix(0.1 0 0 0.1 -443.65 -546.9)" d="M 4491.5,5889.5 A 144,144 0 1 0 4779.5,5889.5A 144,144 0 1 0 4491.5,5889.5Z " class="connection_in" stroke-width="18px"/>
</g>
</svg>