<svg xmlns="http://www.w3.org/2000/svg" xmlns:xlink="http://www.w3.org/1999/xlink" viewBox="0 0 97.51499999999993 57.07000000000005" style="background-color: #ffffff00" version="1.1">
<g transform="matrix(1 0 0 1 -3.500000000000057 -4.030000000000001)">
<text x="0" y="0" stroke="none" transform="matrix(0.1 0 0 0.1 67.2314 22.03)" font-style="normal" font-weight="bold" font-size="200px" font-family="Arial">
O</text>
<path stroke="none" transform="matrix(0.1 0 0 0.1 -477.65 -573.9)" d="M 5292.54,6043.55 L 5293.6,6050.2 L 5288.84,6054.96 L 5017.74,5966.91 L 5021.45,5955.49 L 5292.54,6043.55 Z "/>
<path stroke="none" transform="matrix(0.1 0 0 0.1 -477.65 -573.9)" d="M 5386.96,6318 L 5378.24,6330 L 5288.84,6054.96 L 5293.6,6050.2 L 5300.65,6052.49 L 5386.96,6318 Z "/>
<path stroke="none" transform="matrix(0.1 0 0 0.1 -477.65 -573.9)" d="M 5425.95,6270.32 L 5414.54,6274.03 L 5348.81,6071.83 L 5360.22,6068.12 L 5425.95,6270.32 Z "/>
<path stroke="none" transform="matrix(0.1 0 0 0.1 -477.65 -573.9)" d="M 5666.24,6318 L 5674.96,6330 L 5378.24,6330 L 5386.96,6318 L 5666.24,6318 Z "/>
<path stroke="none" transform="matrix(0.1 0 0 0.1 -477.65 -573.9)" d="M 5752.54,6052.49 L 5766.65,6047.91 L 5674.96,6330 L 5666.24,6318 L 5752.54,6052.49 Z "/>
<path stroke="none" transform="matrix(0.1 0 0 0.1 -477.65 -573.9)" d="M 5692.97,6068.12 L 5704.38,6071.83 L 5638.66,6274.03 L 5627.24,6270.32 L 5692.97,6068.12 Z "/>
<path stroke="none" transform="matrix(0.1 0 0 0.1 -477.65 -573.9)" d="M 5609.95,5948.82 L 5617,5939.11 L 5766.65,6047.91 L 5752.54,6052.49 L 5609.95,5948.82 Z "/>
<path stroke="none" transform="matrix(0.1 0 0 0.1 -477.65 -573.9)" d="M 5436.54,5938.86 L 5443.59,5948.57 L 5300.65,6052.49 L 5293.6,6050.2 L 5292.54,6043.55 L 5436.54,5938.86 Z "/>
<path stroke="none" transform="matrix(0.1 0 0 0.1 -477.65 -573.9)" d="M 4831.5,5959.5 A 144,144 0 1 0 5119.5,5959.5A 144,144 0 1 0 4831.5,5959.5Z " class="connection_in" stroke-width="18px"/>
</g>
</svg>