<svg xmlns="http://www.w3.org/2000/svg" xmlns:xlink="http://www.w3.org/1999/xlink" viewBox="0 0 168.34999999999997 104.37" style="background-color: #ffffff00" version="1.1">
<g transform="matrix(1 0 0 1 -3.500000000000057 -2.6900000000000013)">
<text x="0" y="0" stroke="none" transform="matrix(0.1 0 0 0.1 137.388 84.11)" font-style="normal" font-weight="bold" font-size="200px" font-family="Arial">
N</text>
<text x="0" y="0" stroke="none" transform="matrix(0.1 0 0 0.1 113 69.71)" font-style="normal" font-weight="bold" font-size="200px" font-family="Arial">
S</text>
<text x="0" y="0" stroke="none" transform="matrix(0.1 0 0 0.1 126.292 44.77)" font-style="normal" font-weight="bold" font-size="200px" font-family="Arial">
O</text>
<text x="0" y="0" stroke="none" transform="matrix(0.1 0 0 0.1 97.4917 94.65)" font-style="normal" font-weight="bold" font-size="200px" font-family="Arial">
O</text>
<text x="0" y="0" stroke="none" transform="matrix(0.1 0 0 0.1 87.5083 55.31)" font-style="normal" font-weight="bold" font-size="200px" font-family="Arial">
N</text>
<text x="0" y="0" stroke="none" transform="matrix(0.1 0 0 0.1 56.3283 20.69)" font-style="normal" font-weight="bold" font-size="200px" font-family="Arial">
N</text>
<path stroke="none" transform="matrix(0.1 0 0 0.1 -390.65 -470.8)" d="M 5454.74,5418.55 L 5448.74,5408.16 L 5599,5321.4 L 5605,5331.8 L 5454.74,5418.55 Z "/>
<path stroke="none" transform="matrix(0.1 0 0 0.1 -390.65 -470.8)" d="M 5358.6,5758.6 L 5346.6,5758.6 L 5346.6,5576.27 L 5358.6,5576.27 L 5358.6,5758.6 Z "/>
<path stroke="none" transform="matrix(0.1 0 0 0.1 -390.65 -470.8)" d="M 5189.52,5383.37 L 5195.53,5372.98 L 5255.39,5407.54 L 5249.39,5417.93 L 5189.52,5383.37 Z "/>
<path stroke="none" transform="matrix(0.1 0 0 0.1 -390.65 -470.8)" d="M 5164.96,5155.8 L 5175.35,5161.8 L 5137.48,5227.38 L 5127.09,5221.38 L 5164.96,5155.8 Z "/>
<path stroke="none" transform="matrix(0.1 0 0 0.1 -390.65 -470.8)" d="M 5209.85,5181.72 L 5220.24,5187.72 L 5182.38,5253.3 L 5171.98,5247.3 L 5209.85,5181.72 Z "/>
<path stroke="none" transform="matrix(0.1 0 0 0.1 -390.65 -470.8)" d="M 5038.92,5501.76 L 5028.53,5495.76 L 5065.64,5431.49 L 5076.03,5437.49 L 5038.92,5501.76 Z "/>
<path stroke="none" transform="matrix(0.1 0 0 0.1 -390.65 -470.8)" d="M 4994.03,5475.84 L 4983.64,5469.84 L 5020.75,5405.57 L 5031.14,5411.57 L 4994.03,5475.84 Z "/>
<path stroke="none" transform="matrix(0.1 0 0 0.1 -390.65 -470.8)" d="M 4952.25,5246.37 L 4958.25,5235.98 L 5020.27,5271.79 L 5014.27,5282.18 L 4952.25,5246.37 Z "/>
<path stroke="none" transform="matrix(0.1 0 0 0.1 -390.65 -470.8)" d="M 4818.29,4901.16 L 4829.31,4891.24 L 4849.35,5082.56 L 4837.42,5083.81 L 4818.29,4901.16 Z "/>
<path stroke="none" transform="matrix(0.1 0 0 0.1 -390.65 -470.8)" d="M 4635.73,4862.42 L 4638.22,4850.68 L 4829.31,4891.24 L 4818.29,4901.16 L 4635.73,4862.42 Z "/>
<path stroke="none" transform="matrix(0.1 0 0 0.1 -390.65 -470.8)" d="M 4624.96,4913.15 L 4627.45,4901.41 L 4777.4,4933.23 L 4774.91,4944.97 L 4624.96,4913.15 Z "/>
<path stroke="none" transform="matrix(0.1 0 0 0.1 -390.65 -470.8)" d="M 4405.38,5085.02 L 4398,5085.8 L 4394.33,5080.15 L 4474.6,4941.14 L 4484.99,4947.14 L 4405.38,5085.02 Z "/>
<path stroke="none" transform="matrix(0.1 0 0 0.1 -390.65 -470.8)" d="M 4112.22,5121.77 L 4110.97,5109.83 L 4394.33,5080.15 L 4398,5085.8 L 4395.59,5092.09 L 4112.22,5121.77 Z "/>
<path stroke="none" transform="matrix(0.1 0 0 0.1 -390.65 -470.8)" d="M 4592.34,5292.54 L 4589.26,5307.05 L 4395.59,5092.09 L 4398,5085.8 L 4405.38,5085.02 L 4592.34,5292.54 Z "/>
<path stroke="none" transform="matrix(0.1 0 0 0.1 -390.65 -470.8)" d="M 4608.56,5233.09 L 4599.65,5241.12 L 4457.28,5083.11 L 4466.2,5075.08 L 4608.56,5233.09 Z "/>
<path stroke="none" transform="matrix(0.1 0 0 0.1 -390.65 -470.8)" d="M 4589.26,5307.05 L 4592.34,5292.54 L 4749.61,5222.46 L 4754.49,5233.42 L 4589.26,5307.05 Z "/>
<path stroke="none" transform="matrix(0.1 0 0 0.1 -390.65 -470.8)" d="M 3961.5,5079.5 A 144,144 0 1 0 4249.5,5079.5A 144,144 0 1 0 3961.5,5079.5Z " class="connection_in" stroke-width="18px"/>
</g>
</svg>