<svg xmlns="http://www.w3.org/2000/svg" xmlns:xlink="http://www.w3.org/1999/xlink" viewBox="0 0 178.84999999999997 105.24799999999993" style="background-color: #ffffff00" version="1.1">
<g transform="matrix(1 0 0 1 -3.500000000000057 -2.852000000000089)">
<text x="0" y="0" stroke="none" transform="matrix(0.1 0 0 0.1 126.017 80.5972)" font-style="normal" font-weight="bold" font-size="200px" font-family="Arial">
O</text>
<text x="0" y="0" stroke="none" transform="matrix(0.1 0 0 0.1 112.725 55.6572)" font-style="normal" font-weight="bold" font-size="200px" font-family="Arial">
S</text>
<text x="0" y="0" stroke="none" transform="matrix(0.1 0 0 0.1 97.2168 30.7172)" font-style="normal" font-weight="bold" font-size="200px" font-family="Arial">
O</text>
<text x="0" y="0" stroke="none" transform="matrix(0.1 0 0 0.1 137.133 41.2572)" font-style="normal" font-weight="bold" font-size="200px" font-family="Arial">
N</text>
<path stroke="none" transform="matrix(0.1 0 0 0.1 -438.65 -549.9)" d="M 5607.65,6088.02 L 5618.05,6082.02 L 5655.04,6146.1 L 5644.65,6152.1 L 5607.65,6088.02 Z "/>
<path stroke="none" transform="matrix(0.1 0 0 0.1 -438.65 -549.9)" d="M 5652.55,6062.1 L 5662.94,6056.1 L 5699.94,6120.18 L 5689.54,6126.18 L 5652.55,6062.1 Z "/>
<path stroke="none" transform="matrix(0.1 0 0 0.1 -438.65 -549.9)" d="M 5463.57,5838.47 L 5473.96,5832.47 L 5511,5896.62 L 5500.61,5902.62 L 5463.57,5838.47 Z "/>
<path stroke="none" transform="matrix(0.1 0 0 0.1 -438.65 -549.9)" d="M 5508.46,5812.55 L 5518.85,5806.55 L 5555.89,5870.7 L 5545.5,5876.7 L 5508.46,5812.55 Z "/>
<path stroke="none" transform="matrix(0.1 0 0 0.1 -438.65 -549.9)" d="M 5337.05,6124.54 L 5331.05,6121.07 L 5331.05,6114.14 L 5488.17,6023.42 L 5494.17,6033.81 L 5337.05,6124.54 Z "/>
<path stroke="none" transform="matrix(0.1 0 0 0.1 -438.65 -549.9)" d="M 5337.05,6412.54 L 5325.05,6405.61 L 5325.05,6124.54 L 5331.05,6121.07 L 5337.05,6124.54 L 5337.05,6412.54 Z "/>
<path stroke="none" transform="matrix(0.1 0 0 0.1 -438.65 -549.9)" d="M 5081.65,6560 L 5081.65,6546.14 L 5325.05,6405.61 L 5337.05,6412.54 L 5081.65,6560 Z "/>
<path stroke="none" transform="matrix(0.1 0 0 0.1 -438.65 -549.9)" d="M 5084.65,6498.41 L 5078.65,6488.02 L 5276.21,6373.95 L 5282.21,6384.34 L 5084.65,6498.41 Z "/>
<path stroke="none" transform="matrix(0.1 0 0 0.1 -438.65 -549.9)" d="M 4826.25,6412.54 L 4838.25,6405.61 L 5081.65,6546.14 L 5081.65,6560 L 4826.25,6412.54 Z "/>
<path stroke="none" transform="matrix(0.1 0 0 0.1 -438.65 -549.9)" d="M 4826.25,6124.54 L 4832.25,6121.07 L 4838.25,6124.54 L 4838.25,6405.61 L 4826.25,6412.54 L 4826.25,6124.54 Z "/>
<path stroke="none" transform="matrix(0.1 0 0 0.1 -438.65 -549.9)" d="M 4878.09,6151 L 4890.09,6151 L 4890.09,6379.14 L 4878.09,6379.14 L 4878.09,6151 Z "/>
<path stroke="none" transform="matrix(0.1 0 0 0.1 -438.65 -549.9)" d="M 4579.85,5982.27 L 4585.85,5971.88 L 4832.25,6114.14 L 4832.25,6121.07 L 4826.25,6124.54 L 4579.85,5982.27 Z "/>
<path stroke="none" transform="matrix(0.1 0 0 0.1 -438.65 -549.9)" d="M 5081.65,5970.14 L 5081.65,5984 L 4838.25,6124.54 L 4832.25,6121.07 L 4832.25,6114.14 L 5081.65,5970.14 Z "/>
<path stroke="none" transform="matrix(0.1 0 0 0.1 -438.65 -549.9)" d="M 5081.65,5984 L 5081.65,5970.14 L 5331.05,6114.14 L 5331.05,6121.07 L 5325.05,6124.54 L 5081.65,5984 Z "/>
<path stroke="none" transform="matrix(0.1 0 0 0.1 -438.65 -549.9)" d="M 5078.65,6042.13 L 5084.65,6031.73 L 5282.21,6145.8 L 5276.21,6156.2 L 5078.65,6042.13 Z "/>
<path stroke="none" transform="matrix(0.1 0 0 0.1 -438.65 -549.9)" d="M 5724.52,5887.03 L 5730.52,5897.42 L 5667.48,5933.79 L 5661.48,5923.4 L 5724.52,5887.03 Z "/>
<path stroke="none" transform="matrix(0.1 0 0 0.1 -438.65 -549.9)" d="M 5900.21,5547.52 L 5908.7,5562.22 L 5864.89,5726.01 L 5853.3,5722.91 L 5900.21,5547.52 Z "/>
<path stroke="none" transform="matrix(0.1 0 0 0.1 -438.65 -549.9)" d="M 6190,5625.23 L 6175.3,5633.71 L 5908.7,5562.22 L 5900.21,5547.52 L 6190,5625.23 Z "/>
<path stroke="none" transform="matrix(0.1 0 0 0.1 -438.65 -549.9)" d="M 6112.29,5915.02 L 6103.81,5900.32 L 6175.3,5633.71 L 6190,5625.23 L 6112.29,5915.02 Z "/>
<path stroke="none" transform="matrix(0.1 0 0 0.1 -438.65 -549.9)" d="M 6103.81,5900.32 L 6112.29,5915.02 L 5924.87,5864.73 L 5927.98,5853.14 L 6103.81,5900.32 Z "/>
<path stroke="none" transform="matrix(0.1 0 0 0.1 -438.65 -549.9)" d="M 4441.5,5959.5 A 144,144 0 1 0 4729.5,5959.5A 144,144 0 1 0 4441.5,5959.5Z " class="connection_in" stroke-width="18px"/>
</g>
</svg>