<svg xmlns="http://www.w3.org/2000/svg" xmlns:xlink="http://www.w3.org/1999/xlink" viewBox="0 0 153.30199999999994 167.8595" style="background-color: #ffffff00" version="1.1">
<g transform="matrix(1 0 0 1 -3.500000000000057 0.46449999999999925)">
<text x="0" y="0" stroke="none" transform="matrix(0.1 0 0 0.1 134.802 64.5842)" font-style="normal" font-weight="bold" font-size="200px" font-family="Arial">
O</text>
<text x="0" y="0" stroke="none" transform="matrix(0.1 0 0 0.1 110.417 50.1842)" font-style="normal" font-weight="bold" font-size="200px" font-family="Arial">
N</text>
<text x="0" y="0" stroke="none" transform="matrix(0.1 0 0 0.1 124.86 42.3342)" font-style="normal" font-weight="bold" font-size="150px" font-family="Arial">
+</text>
<text x="0" y="0" stroke="none" transform="matrix(0.1 0 0 0.1 109.859 21.3855)" font-style="normal" font-weight="bold" font-size="200px" font-family="Arial">
O</text>
<text x="0" y="0" stroke="none" transform="matrix(0.1 0 0 0.1 125.416 13.5355)" font-style="normal" font-weight="bold" font-size="150px" font-family="Arial">
-</text>
<text x="0" y="0" stroke="none" transform="matrix(0.1 0 0 0.1 61.6409 165.395)" font-style="normal" font-weight="bold" font-size="200px" font-family="Arial">
F</text>
<text x="0" y="0" stroke="none" transform="matrix(0.1 0 0 0.1 86.5817 150.996)" font-style="normal" font-weight="bold" font-size="200px" font-family="Arial">
F</text>
<text x="0" y="0" stroke="none" transform="matrix(0.1 0 0 0.1 36.6994 150.995)" font-style="normal" font-weight="bold" font-size="200px" font-family="Arial">
F</text>
<path stroke="none" transform="matrix(0.1 0 0 0.1 -460.65 -537.9)" d="M 5868.45,5888.6 L 5874.45,5878.21 L 5933.29,5912.18 L 5927.29,5922.57 L 5868.45,5888.6 Z "/>
<path stroke="none" transform="matrix(0.1 0 0 0.1 -460.65 -537.9)" d="M 5894.37,5843.7 L 5900.37,5833.31 L 5959.21,5867.29 L 5953.21,5877.68 L 5894.37,5843.7 Z "/>
<path stroke="none" transform="matrix(0.1 0 0 0.1 -460.65 -537.9)" d="M 5776.88,5622.52 L 5788.88,5622.52 L 5788.88,5702.18 L 5776.88,5702.18 L 5776.88,5622.52 Z "/>
<path stroke="none" transform="matrix(0.1 0 0 0.1 -460.65 -537.9)" d="M 5539.38,5949.96 L 5533.38,5946.5 L 5533.38,5939.57 L 5677.3,5856.42 L 5683.3,5866.81 L 5539.38,5949.96 Z "/>
<path stroke="none" transform="matrix(0.1 0 0 0.1 -460.65 -537.9)" d="M 5283.96,5809.43 L 5283.96,5795.57 L 5533.38,5939.57 L 5533.38,5946.5 L 5527.38,5949.97 L 5283.96,5809.43 Z "/>
<path stroke="none" transform="matrix(0.1 0 0 0.1 -460.65 -537.9)" d="M 5040.55,5949.95 L 5034.55,5946.49 L 5034.55,5939.56 L 5283.96,5795.57 L 5283.96,5809.43 L 5040.55,5949.95 Z "/>
<path stroke="none" transform="matrix(0.1 0 0 0.1 -460.65 -537.9)" d="M 5089.39,5981.61 L 5083.39,5971.22 L 5280.96,5857.16 L 5286.96,5867.55 L 5089.39,5981.61 Z "/>
<path stroke="none" transform="matrix(0.1 0 0 0.1 -460.65 -537.9)" d="M 4782.14,5807.68 L 4788.14,5797.29 L 5034.55,5939.56 L 5034.55,5946.49 L 5028.55,5949.95 L 4782.14,5807.68 Z "/>
<path stroke="none" transform="matrix(0.1 0 0 0.1 -460.65 -537.9)" d="M 5040.56,6231.01 L 5028.56,6237.94 L 5028.55,5949.95 L 5034.55,5946.49 L 5040.55,5949.95 L 5040.56,6231.01 Z "/>
<path stroke="none" transform="matrix(0.1 0 0 0.1 -460.65 -537.9)" d="M 5283.98,6371.55 L 5283.98,6378.48 L 5277.98,6381.94 L 5028.56,6237.94 L 5040.56,6231.01 L 5283.98,6371.55 Z "/>
<path stroke="none" transform="matrix(0.1 0 0 0.1 -460.65 -537.9)" d="M 5286.98,6313.42 L 5280.98,6323.81 L 5083.4,6209.74 L 5089.4,6199.35 L 5286.98,6313.42 Z "/>
<path stroke="none" transform="matrix(0.1 0 0 0.1 -460.65 -537.9)" d="M 5289.99,6663 L 5283.99,6666.46 L 5277.99,6663 L 5277.98,6381.94 L 5283.98,6378.48 L 5289.98,6381.94 L 5289.99,6663 Z "/>
<path stroke="none" transform="matrix(0.1 0 0 0.1 -460.65 -537.9)" d="M 5289.99,6854.12 L 5277.99,6854.12 L 5277.99,6676.85 L 5283.99,6666.46 L 5289.99,6676.85 L 5289.99,6854.12 Z "/>
<path stroke="none" transform="matrix(0.1 0 0 0.1 -460.65 -537.9)" d="M 5444.54,6752.23 L 5438.54,6762.62 L 5289.99,6676.85 L 5283.99,6666.46 L 5289.99,6663 L 5444.54,6752.23 Z "/>
<path stroke="none" transform="matrix(0.1 0 0 0.1 -460.65 -537.9)" d="M 5133.07,6760.52 L 5127.07,6750.13 L 5277.99,6663 L 5283.99,6666.46 L 5277.99,6676.85 L 5133.07,6760.52 Z "/>
<path stroke="none" transform="matrix(0.1 0 0 0.1 -460.65 -537.9)" d="M 5527.39,6231.02 L 5539.39,6237.95 L 5289.98,6381.94 L 5283.98,6378.48 L 5283.98,6371.55 L 5527.39,6231.02 Z "/>
<path stroke="none" transform="matrix(0.1 0 0 0.1 -460.65 -537.9)" d="M 5539.39,6237.95 L 5527.39,6231.02 L 5527.38,5949.97 L 5533.38,5946.5 L 5539.38,5949.96 L 5539.39,6237.95 Z "/>
<path stroke="none" transform="matrix(0.1 0 0 0.1 -460.65 -537.9)" d="M 5487.55,6204.56 L 5475.55,6204.56 L 5475.54,5976.43 L 5487.54,5976.43 L 5487.55,6204.56 Z "/>
<path stroke="none" transform="matrix(0.1 0 0 0.1 -460.65 -537.9)" d="M 4661.5,5789.5 A 144,144 0 1 0 4949.5,5789.5A 144,144 0 1 0 4661.5,5789.5Z " class="connection_in" stroke-width="18px"/>
</g>
</svg>