<svg xmlns="http://www.w3.org/2000/svg" xmlns:xlink="http://www.w3.org/1999/xlink" viewBox="0 0 194.51499999999993 95.38310000000001" style="background-color: #ffffff00" version="1.1">
<g transform="matrix(1 0 0 1 -3.500000000000057 -3.283899999999999)">
<text x="0" y="0" stroke="none" transform="matrix(0.1 0 0 0.1 114.205 46.2239)" font-style="normal" font-weight="bold" font-size="200px" font-family="Arial">
S</text>
<text x="0" y="0" stroke="none" transform="matrix(0.1 0 0 0.1 98.6967 21.2839)" font-style="normal" font-weight="bold" font-size="200px" font-family="Arial">
O</text>
<text x="0" y="0" stroke="none" transform="matrix(0.1 0 0 0.1 127.497 71.1838)" font-style="normal" font-weight="bold" font-size="200px" font-family="Arial">
O</text>
<path stroke="none" transform="matrix(0.1 0 0 0.1 -430.65 -554.9)" d="M 6014.25,5939.67 L 6014.25,5925.81 L 6260.65,5783.54 L 6266.65,5793.93 L 6014.25,5939.67 Z "/>
<path stroke="none" transform="matrix(0.1 0 0 0.1 -430.65 -554.9)" d="M 5764.85,5795.67 L 5764.85,5781.81 L 6014.25,5925.81 L 6014.25,5939.67 L 5764.85,5795.67 Z "/>
<path stroke="none" transform="matrix(0.1 0 0 0.1 -430.65 -554.9)" d="M 5602.28,5889.46 L 5596.28,5879.06 L 5764.85,5781.81 L 5764.85,5795.67 L 5602.28,5889.46 Z "/>
<path stroke="none" transform="matrix(0.1 0 0 0.1 -430.65 -554.9)" d="M 5398.36,5794.13 L 5408.76,5788.13 L 5445.8,5852.29 L 5435.41,5858.29 L 5398.36,5794.13 Z "/>
<path stroke="none" transform="matrix(0.1 0 0 0.1 -430.65 -554.9)" d="M 5443.26,5768.21 L 5453.65,5762.21 L 5490.69,5826.37 L 5480.3,5832.37 L 5443.26,5768.21 Z "/>
<path stroke="none" transform="matrix(0.1 0 0 0.1 -430.65 -554.9)" d="M 5634.79,6076.03 L 5624.39,6082.03 L 5587.33,6017.78 L 5597.72,6011.79 L 5634.79,6076.03 Z "/>
<path stroke="none" transform="matrix(0.1 0 0 0.1 -430.65 -554.9)" d="M 5589.86,6101.95 L 5579.46,6107.95 L 5542.4,6043.7 L 5552.8,6037.71 L 5589.86,6101.95 Z "/>
<path stroke="none" transform="matrix(0.1 0 0 0.1 -430.65 -554.9)" d="M 5271.85,6080.2 L 5265.85,6076.74 L 5265.85,6069.81 L 5422.97,5979.09 L 5428.97,5989.48 L 5271.85,6080.2 Z "/>
<path stroke="none" transform="matrix(0.1 0 0 0.1 -430.65 -554.9)" d="M 5271.85,6368.2 L 5259.85,6361.27 L 5259.85,6080.2 L 5265.85,6076.74 L 5271.85,6080.2 L 5271.85,6368.2 Z "/>
<path stroke="none" transform="matrix(0.1 0 0 0.1 -430.65 -554.9)" d="M 5016.45,6515.67 L 5016.45,6501.81 L 5259.85,6361.27 L 5271.85,6368.2 L 5016.45,6515.67 Z "/>
<path stroke="none" transform="matrix(0.1 0 0 0.1 -430.65 -554.9)" d="M 5019.45,6454.08 L 5013.45,6443.68 L 5211.01,6329.61 L 5217.01,6340.01 L 5019.45,6454.08 Z "/>
<path stroke="none" transform="matrix(0.1 0 0 0.1 -430.65 -554.9)" d="M 4761.05,6368.2 L 4773.05,6361.27 L 5016.45,6501.81 L 5016.45,6515.67 L 4761.05,6368.2 Z "/>
<path stroke="none" transform="matrix(0.1 0 0 0.1 -430.65 -554.9)" d="M 4761.05,6080.2 L 4767.05,6076.74 L 4773.05,6080.2 L 4773.05,6361.27 L 4761.05,6368.2 L 4761.05,6080.2 Z "/>
<path stroke="none" transform="matrix(0.1 0 0 0.1 -430.65 -554.9)" d="M 4812.89,6106.67 L 4824.89,6106.67 L 4824.89,6334.81 L 4812.89,6334.81 L 4812.89,6106.67 Z "/>
<path stroke="none" transform="matrix(0.1 0 0 0.1 -430.65 -554.9)" d="M 4514.65,5937.93 L 4520.65,5927.54 L 4767.05,6069.81 L 4767.05,6076.74 L 4761.05,6080.2 L 4514.65,5937.93 Z "/>
<path stroke="none" transform="matrix(0.1 0 0 0.1 -430.65 -554.9)" d="M 5016.45,5925.81 L 5016.45,5939.67 L 4773.05,6080.2 L 4767.05,6076.74 L 4767.05,6069.81 L 5016.45,5925.81 Z "/>
<path stroke="none" transform="matrix(0.1 0 0 0.1 -430.65 -554.9)" d="M 5016.45,5939.67 L 5016.45,5925.81 L 5265.85,6069.81 L 5265.85,6076.74 L 5259.85,6080.2 L 5016.45,5939.67 Z "/>
<path stroke="none" transform="matrix(0.1 0 0 0.1 -430.65 -554.9)" d="M 5013.45,5997.79 L 5019.45,5987.4 L 5217.01,6101.47 L 5211.01,6111.86 L 5013.45,5997.79 Z "/>
<path stroke="none" transform="matrix(0.1 0 0 0.1 -430.65 -554.9)" d="M 4361.5,5909.5 A 144,144 0 1 0 4649.5,5909.5A 144,144 0 1 0 4361.5,5909.5Z " class="connection_in" stroke-width="18px"/>
</g>
</svg>