<svg xmlns="http://www.w3.org/2000/svg" xmlns:xlink="http://www.w3.org/1999/xlink" viewBox="0 0 117.14432000000005 217.3349999999999" style="background-color: #ffffff00" version="1.1">
<g transform="matrix(1 0 0 1 -2.70568 -2.7500000000001137)">
<path stroke="none" transform="matrix(0.1 0 0 0.1 -484.65 -555.8)" d="M 5514.07,7080.9 L 5526.07,7087.82 L 5276.67,7231.82 L 5270.67,7228.36 L 5270.67,7221.43 L 5514.07,7080.9 Z "/>
<path stroke="none" transform="matrix(0.1 0 0 0.1 -484.65 -555.8)" d="M 5465.23,7049.24 L 5471.23,7059.63 L 5273.67,7173.7 L 5267.67,7163.31 L 5465.23,7049.24 Z "/>
<path stroke="none" transform="matrix(0.1 0 0 0.1 -484.65 -555.8)" d="M 5526.07,7087.82 L 5514.07,7080.9 L 5514.05,6799.84 L 5526.05,6792.91 L 5526.07,7087.82 Z "/>
<path stroke="none" transform="matrix(0.1 0 0 0.1 -484.65 -555.8)" d="M 5526.05,6792.91 L 5514.05,6799.84 L 5270.62,6659.31 L 5270.62,6652.39 L 5276.62,6648.92 L 5526.05,6792.91 Z "/>
<path stroke="none" transform="matrix(0.1 0 0 0.1 -484.65 -555.8)" d="M 5471.21,6821.11 L 5465.21,6831.5 L 5267.63,6717.44 L 5273.62,6707.05 L 5471.21,6821.11 Z "/>
<path stroke="none" transform="matrix(0.1 0 0 0.1 -484.65 -555.8)" d="M 5267.6,5793.6 L 5273.6,5783.2 L 5520,5925.47 L 5520,5932.4 L 5514,5935.86 L 5267.6,5793.6 Z "/>
<path stroke="none" transform="matrix(0.1 0 0 0.1 -484.65 -555.8)" d="M 5514,5935.86 L 5520,5932.4 L 5526,5935.87 L 5526,6216.93 L 5520,6220.4 L 5514,6216.94 L 5514,5935.86 Z "/>
<path stroke="none" transform="matrix(0.1 0 0 0.1 -484.65 -555.8)" d="M 5565.84,5962.34 L 5577.84,5962.34 L 5577.84,6190.46 L 5565.84,6190.46 L 5565.84,5962.34 Z "/>
<path stroke="none" transform="matrix(0.1 0 0 0.1 -484.65 -555.8)" d="M 5526,5935.87 L 5520,5932.4 L 5520,5925.47 L 5769.6,5781.47 L 5769.6,5795.33 L 5526,5935.87 Z "/>
<path stroke="none" transform="matrix(0.1 0 0 0.1 -484.65 -555.8)" d="M 5769.6,5795.33 L 5769.6,5781.47 L 6025,5928.94 L 6013,5935.86 L 5769.6,5795.33 Z "/>
<path stroke="none" transform="matrix(0.1 0 0 0.1 -484.65 -555.8)" d="M 5766.59,5853.45 L 5772.59,5843.06 L 5970.16,5957.13 L 5964.16,5967.52 L 5766.59,5853.45 Z "/>
<path stroke="none" transform="matrix(0.1 0 0 0.1 -484.65 -555.8)" d="M 6013,5935.86 L 6025,5928.94 L 6025,6223.86 L 6013,6216.94 L 6013,5935.86 Z "/>
<path stroke="none" transform="matrix(0.1 0 0 0.1 -484.65 -555.8)" d="M 6013,6216.94 L 6025,6223.86 L 5769.6,6371.33 L 5769.6,6357.47 L 6013,6216.94 Z "/>
<path stroke="none" transform="matrix(0.1 0 0 0.1 -484.65 -555.8)" d="M 5964.16,6185.28 L 5970.16,6195.67 L 5772.59,6309.74 L 5766.59,6299.35 L 5964.16,6185.28 Z "/>
<path stroke="none" transform="matrix(0.1 0 0 0.1 -484.65 -555.8)" d="M 5769.6,6357.47 L 5769.6,6371.33 L 5520,6227.33 L 5520,6220.4 L 5526,6216.93 L 5769.6,6357.47 Z "/>
<path stroke="none" transform="matrix(0.1 0 0 0.1 -484.65 -555.8)" d="M 5514,6216.94 L 5520,6220.4 L 5520,6227.33 L 5363.09,6317.93 L 5357.09,6307.53 L 5514,6216.94 Z "/>
<path stroke="none" transform="matrix(0.1 0 0 0.1 -484.65 -555.8)" d="M 5264.61,6472.57 L 5276.61,6472.57 L 5276.62,6648.92 L 5270.62,6652.39 L 5264.62,6648.92 L 5264.61,6472.57 Z "/>
<path stroke="none" transform="matrix(0.1 0 0 0.1 -484.65 -555.8)" d="M 5264.62,6648.92 L 5270.62,6652.39 L 5270.62,6659.31 L 5027.22,6799.85 L 5015.22,6792.92 L 5264.62,6648.92 Z "/>
<path stroke="none" transform="matrix(0.1 0 0 0.1 -484.65 -555.8)" d="M 5015.22,6792.92 L 5027.22,6799.85 L 5027.25,7080.91 L 5015.25,7087.84 L 5015.22,6792.92 Z "/>
<path stroke="none" transform="matrix(0.1 0 0 0.1 -484.65 -555.8)" d="M 5067.06,6826.31 L 5079.06,6826.31 L 5079.08,7054.44 L 5067.08,7054.44 L 5067.06,6826.31 Z "/>
<path stroke="none" transform="matrix(0.1 0 0 0.1 -484.65 -555.8)" d="M 5015.25,7087.84 L 5027.25,7080.91 L 5270.67,7221.43 L 5270.67,7228.36 L 5264.67,7231.82 L 5015.25,7087.84 Z "/>
<path stroke="none" transform="matrix(0.1 0 0 0.1 -484.65 -555.8)" d="M 5264.67,7231.82 L 5270.67,7228.36 L 5276.67,7231.82 L 5276.68,7416.18 L 5264.68,7416.18 L 5264.67,7231.82 Z "/>
<path stroke="none" transform="matrix(0.1 0 0 0.1 -484.65 -555.8)" d="M 5113.82,7613.85 L 5107.82,7603.46 L 5165.1,7570.39 L 5171.1,7580.78 L 5113.82,7613.85 Z "/>
<path stroke="none" transform="matrix(0.1 0 0 0.1 -484.65 -555.8)" d="M 5356.26,7602.6 L 5362.25,7592.21 L 5421.1,7626.18 L 5415.1,7636.57 L 5356.26,7602.6 Z "/>
<path stroke="none" transform="matrix(0.1 0 0 0.1 -484.65 -555.8)" d="M 5382.17,7557.7 L 5388.17,7547.31 L 5447.02,7581.28 L 5441.02,7591.67 L 5382.17,7557.7 Z "/>
<text x="0" y="0" stroke="none" transform="matrix(0.1 0 0 0.1 34.6317 88.49)" font-style="normal" font-weight="bold" font-size="200px" font-family="Arial">
O</text>
<text x="0" y="0" stroke="none" transform="matrix(0.1 0 0 0.1 4.70568 210.235)" font-style="normal" font-weight="bold" font-size="150px" font-family="Arial">
-</text>
<text x="0" y="0" stroke="none" transform="matrix(0.1 0 0 0.1 9.7008 218.085)" font-style="normal" font-weight="bold" font-size="200px" font-family="Arial">
O</text>
<text x="0" y="0" stroke="none" transform="matrix(0.1 0 0 0.1 35.1974 203.685)" font-style="normal" font-weight="bold" font-size="200px" font-family="Arial">
N</text>
<text x="0" y="0" stroke="none" transform="matrix(0.1 0 0 0.1 49.6408 195.835)" font-style="normal" font-weight="bold" font-size="150px" font-family="Arial">
+</text>
<text x="0" y="0" stroke="none" transform="matrix(0.1 0 0 0.1 59.5831 218.083)" font-style="normal" font-weight="bold" font-size="200px" font-family="Arial">
O</text>
<path stroke="none" transform="matrix(0.1 0 0 0.1 -484.65 -555.8)" d="M 5131.5,5749.5 A 144,144 0 1 0 5419.5,5749.5A 144,144 0 1 0 5131.5,5749.5Z " class="connection_in" stroke-width="18px"/>
</g>
</svg>