<svg viewBox="0 0 203 284"  xmlns="http://www.w3.org/2000/svg">
<text x="0" y="0" transform="matrix(0.1 0 0 0.1 115.186 99.5572)" font-size="200px">O</text>
<text x="0" y="0" transform="matrix(0.1 0 0 0.1 65.303 185.957)" font-size="200px">O</text>
<path transform="matrix(0.1 0 0 0.1 -487.65 -482.4)" d="M 5357.51,5878.14 L 5357.51,5885.07 L 5351.51,5888.54 L 5105.09,5746.27 L 5111.09,5735.88 L 5357.51,5878.14 Z " />
<path transform="matrix(0.1 0 0 0.1 -487.65 -482.4)" d="M 5606.92,5734.14 L 5606.92,5748 L 5363.51,5888.54 L 5357.51,5885.07 L 5357.51,5878.14 L 5606.92,5734.14 Z " />
<path transform="matrix(0.1 0 0 0.1 -487.65 -482.4)" d="M 5856.34,5878.14 L 5856.34,5885.07 L 5850.34,5888.54 L 5606.92,5748 L 5606.92,5734.14 L 5856.34,5878.14 Z " />
<path transform="matrix(0.1 0 0 0.1 -487.65 -482.4)" d="M 5807.5,5909.81 L 5801.5,5920.2 L 5603.92,5806.13 L 5609.92,5795.74 L 5807.5,5909.81 Z " />
<path transform="matrix(0.1 0 0 0.1 -487.65 -482.4)" d="M 6011.18,5788.75 L 6017.18,5799.14 L 5862.34,5888.54 L 5856.34,5885.07 L 5856.34,5878.14 L 6011.18,5788.75 Z " />
<path transform="matrix(0.1 0 0 0.1 -487.65 -482.4)" d="M 6099.75,5449.61 L 6111.75,5456.54 L 6111.75,5639.41 L 6099.75,5639.41 L 6099.75,5449.61 Z " />
<path transform="matrix(0.1 0 0 0.1 -487.65 -482.4)" d="M 6349.17,5305.61 L 6355.17,5309.07 L 6355.17,5316 L 6111.75,5456.54 L 6099.75,5449.61 L 6349.17,5305.61 Z " />
<path transform="matrix(0.1 0 0 0.1 -487.65 -482.4)" d="M 6349.17,5017.61 L 6361.17,5024.54 L 6361.17,5305.61 L 6355.17,5309.07 L 6349.17,5305.61 L 6349.17,5017.61 Z " />
<path transform="matrix(0.1 0 0 0.1 -487.65 -482.4)" d="M 6604.58,4870.14 L 6604.58,4884 L 6361.17,5024.54 L 6349.17,5017.61 L 6604.58,4870.14 Z " />
<path transform="matrix(0.1 0 0 0.1 -487.65 -482.4)" d="M 6601.58,4931.74 L 6607.58,4942.13 L 6410.01,5056.2 L 6404.01,5045.81 L 6601.58,4931.74 Z " />
<path transform="matrix(0.1 0 0 0.1 -487.65 -482.4)" d="M 6860,5017.61 L 6848,5024.54 L 6604.58,4884 L 6604.58,4870.14 L 6860,5017.61 Z " />
<path transform="matrix(0.1 0 0 0.1 -487.65 -482.4)" d="M 6860,5312.54 L 6848,5305.61 L 6848,5024.54 L 6860,5017.61 L 6860,5312.54 Z " />
<path transform="matrix(0.1 0 0 0.1 -487.65 -482.4)" d="M 6808.16,5279.14 L 6796.16,5279.14 L 6796.16,5051 L 6808.16,5051 L 6808.16,5279.14 Z " />
<path transform="matrix(0.1 0 0 0.1 -487.65 -482.4)" d="M 6604.58,5460 L 6604.58,5446.14 L 6848,5305.61 L 6860,5312.54 L 6604.58,5460 Z " />
<path transform="matrix(0.1 0 0 0.1 -487.65 -482.4)" d="M 6604.58,5446.14 L 6604.58,5460 L 6355.17,5316 L 6355.17,5309.07 L 6361.17,5305.61 L 6604.58,5446.14 Z " />
<path transform="matrix(0.1 0 0 0.1 -487.65 -482.4)" d="M 6607.58,5388.02 L 6601.58,5398.41 L 6404.01,5284.34 L 6410.01,5273.95 L 6607.58,5388.02 Z " />
<path transform="matrix(0.1 0 0 0.1 -487.65 -482.4)" d="M 5862.34,6176.54 L 5850.34,6169.61 L 5850.34,5888.54 L 5856.34,5885.07 L 5862.34,5888.54 L 5862.34,6176.54 Z " />
<path transform="matrix(0.1 0 0 0.1 -487.65 -482.4)" d="M 5612.92,6320.54 L 5606.92,6317.07 L 5606.92,6310.14 L 5850.34,6169.61 L 5862.34,6176.54 L 5612.92,6320.54 Z " />
<path transform="matrix(0.1 0 0 0.1 -487.65 -482.4)" d="M 5609.92,6262.41 L 5603.92,6252.02 L 5801.5,6137.95 L 5807.5,6148.34 L 5609.92,6262.41 Z " />
<path transform="matrix(0.1 0 0 0.1 -487.65 -482.4)" d="M 5612.92,6503.41 L 5600.92,6503.41 L 5600.92,6320.54 L 5606.92,6317.07 L 5612.92,6320.54 L 5612.92,6503.41 Z " />
<path transform="matrix(0.1 0 0 0.1 -487.65 -482.4)" d="M 5363.51,6752.54 L 5351.51,6745.61 L 5512.35,6652.74 L 5518.35,6663.14 L 5363.51,6752.54 Z " />
<path transform="matrix(0.1 0 0 0.1 -487.65 -482.4)" d="M 5363.51,7033.61 L 5357.51,7037.07 L 5351.51,7033.61 L 5351.51,6745.61 L 5363.51,6752.54 L 5363.51,7033.61 Z " />
<path transform="matrix(0.1 0 0 0.1 -487.65 -482.4)" d="M 5612.92,7177.61 L 5600.92,7184.54 L 5357.51,7044 L 5357.51,7037.07 L 5363.51,7033.61 L 5612.92,7177.61 Z " />
<path transform="matrix(0.1 0 0 0.1 -487.65 -482.4)" d="M 5558.08,7205.81 L 5552.08,7216.2 L 5354.51,7102.13 L 5360.51,7091.74 L 5558.08,7205.81 Z " />
<path transform="matrix(0.1 0 0 0.1 -487.65 -482.4)" d="M 5612.92,7472.54 L 5600.92,7465.61 L 5600.92,7184.54 L 5612.92,7177.61 L 5612.92,7472.54 Z " />
<path transform="matrix(0.1 0 0 0.1 -487.65 -482.4)" d="M 5357.51,7620 L 5357.51,7606.14 L 5600.92,7465.61 L 5612.92,7472.54 L 5357.51,7620 Z " />
<path transform="matrix(0.1 0 0 0.1 -487.65 -482.4)" d="M 5360.51,7558.41 L 5354.51,7548.02 L 5552.08,7433.95 L 5558.08,7444.34 L 5360.51,7558.41 Z " />
<path transform="matrix(0.1 0 0 0.1 -487.65 -482.4)" d="M 5102.09,7472.54 L 5114.09,7465.61 L 5357.51,7606.14 L 5357.51,7620 L 5102.09,7472.54 Z " />
<path transform="matrix(0.1 0 0 0.1 -487.65 -482.4)" d="M 5102.09,7177.61 L 5114.09,7184.54 L 5114.09,7465.61 L 5102.09,7472.54 L 5102.09,7177.61 Z " />
<path transform="matrix(0.1 0 0 0.1 -487.65 -482.4)" d="M 5153.93,7211 L 5165.93,7211 L 5165.93,7439.14 L 5153.93,7439.14 L 5153.93,7211 Z " />
<path transform="matrix(0.1 0 0 0.1 -487.65 -482.4)" d="M 5114.09,7184.54 L 5102.09,7177.61 L 5351.51,7033.61 L 5357.51,7037.07 L 5357.51,7044 L 5114.09,7184.54 Z " />
<path transform="matrix(0.1 0 0 0.1 -487.65 -482.4)" d="M 5351.51,6176.54 L 5363.51,6169.61 L 5606.92,6310.14 L 5606.92,6317.07 L 5600.92,6320.54 L 5351.51,6176.54 Z " />
<path transform="matrix(0.1 0 0 0.1 -487.65 -482.4)" d="M 5363.51,6169.61 L 5351.51,6176.54 L 5351.51,5888.54 L 5357.51,5885.07 L 5363.51,5888.54 L 5363.51,6169.61 Z " />
<path transform="matrix(0.1 0 0 0.1 -487.65 -482.4)" d="M 5415.35,6143.14 L 5403.35,6143.14 L 5403.35,5915 L 5415.35,5915 L 5415.35,6143.14 Z " />
<path class="connection_in" transform="matrix(0.1 0 0 0.1 -487.65 -482.4)" d="M 4930.11,5733.04 A 172.8,172.8 0 1 0 5275.71,5733.04A 172.8,172.8 0 1 0 4930.11,5733.04Z " />
</svg>
