<svg xmlns="http://www.w3.org/2000/svg" xmlns:xlink="http://www.w3.org/1999/xlink" viewBox="0 0 132.53099999999995 135.1952" style="background-color: #ffffff00" version="1.1">
<g transform="matrix(1 0 0 1 -3.500000000000057 -3.2567999999999984)">
<text x="0" y="0" stroke="none" transform="matrix(0.1 0 0 0.1 114.031 50.0568)" font-style="normal" font-weight="bold" font-size="200px" font-family="Arial">
F</text>
<text x="0" y="0" stroke="none" transform="matrix(0.1 0 0 0.1 87.978 93.2541)" font-style="normal" font-weight="bold" font-size="200px" font-family="Arial">
N</text>
<text x="0" y="0" stroke="none" transform="matrix(0.1 0 0 0.1 64.1513 136.452)" font-style="normal" font-weight="bold" font-size="200px" font-family="Arial">
F</text>
<text x="0" y="0" stroke="none" transform="matrix(0.1 0 0 0.1 14.2682 107.651)" font-style="normal" font-weight="bold" font-size="200px" font-family="Arial">
F</text>
<text x="0" y="0" stroke="none" transform="matrix(0.1 0 0 0.1 64.1482 21.2568)" font-style="normal" font-weight="bold" font-size="200px" font-family="Arial">
F</text>
<path stroke="none" transform="matrix(0.1 0 0 0.1 -472.65 -541.9)" d="M 5684.49,5988.52 L 5678.49,5985.05 L 5678.49,5978.13 L 5832.45,5889.24 L 5838.45,5899.63 L 5684.49,5988.52 Z "/>
<path stroke="none" transform="matrix(0.1 0 0 0.1 -472.65 -541.9)" d="M 5684.49,6172.71 L 5672.49,6172.71 L 5672.49,5988.52 L 5678.49,5985.05 L 5684.49,5988.52 L 5684.49,6172.71 Z "/>
<path stroke="none" transform="matrix(0.1 0 0 0.1 -472.65 -541.9)" d="M 5632.66,6172.71 L 5620.66,6172.71 L 5620.65,6014.98 L 5632.65,6014.98 L 5632.66,6172.71 Z "/>
<path stroke="none" transform="matrix(0.1 0 0 0.1 -472.65 -541.9)" d="M 5435.09,6420.49 L 5429.09,6417.03 L 5429.09,6410.1 L 5572.97,6327.03 L 5578.97,6337.43 L 5435.09,6420.49 Z "/>
<path stroke="none" transform="matrix(0.1 0 0 0.1 -472.65 -541.9)" d="M 5435.09,6604.68 L 5423.09,6604.68 L 5423.09,6420.49 L 5429.09,6417.03 L 5435.09,6420.49 L 5435.09,6604.68 Z "/>
<path stroke="none" transform="matrix(0.1 0 0 0.1 -472.65 -541.9)" d="M 5179.67,6279.96 L 5179.67,6273.03 L 5185.67,6269.56 L 5429.09,6410.1 L 5429.09,6417.03 L 5423.09,6420.49 L 5179.67,6279.96 Z "/>
<path stroke="none" transform="matrix(0.1 0 0 0.1 -472.65 -541.9)" d="M 5228.51,6248.29 L 5234.51,6237.9 L 5432.09,6351.97 L 5426.09,6362.37 L 5228.51,6248.29 Z "/>
<path stroke="none" transform="matrix(0.1 0 0 0.1 -472.65 -541.9)" d="M 5028.76,6367.08 L 5022.76,6356.69 L 5173.67,6269.56 L 5179.67,6273.03 L 5179.67,6279.96 L 5028.76,6367.08 Z "/>
<path stroke="none" transform="matrix(0.1 0 0 0.1 -472.65 -541.9)" d="M 5173.67,5988.51 L 5179.67,5985.04 L 5185.67,5988.51 L 5185.67,6269.56 L 5179.67,6273.03 L 5173.67,6269.56 L 5173.67,5988.51 Z "/>
<path stroke="none" transform="matrix(0.1 0 0 0.1 -472.65 -541.9)" d="M 4927.25,5846.24 L 4933.25,5835.85 L 5179.67,5978.11 L 5179.67,5985.04 L 5173.67,5988.51 L 4927.25,5846.24 Z "/>
<path stroke="none" transform="matrix(0.1 0 0 0.1 -472.65 -541.9)" d="M 5423.07,5837.59 L 5429.07,5841.05 L 5429.07,5847.98 L 5185.67,5988.51 L 5179.67,5985.04 L 5179.67,5978.11 L 5423.07,5837.59 Z "/>
<path stroke="none" transform="matrix(0.1 0 0 0.1 -472.65 -541.9)" d="M 5426.07,5895.71 L 5432.07,5906.11 L 5234.5,6020.17 L 5228.5,6009.77 L 5426.07,5895.71 Z "/>
<path stroke="none" transform="matrix(0.1 0 0 0.1 -472.65 -541.9)" d="M 5429.07,5847.98 L 5429.07,5841.05 L 5435.07,5837.59 L 5678.49,5978.13 L 5678.49,5985.05 L 5672.49,5988.52 L 5429.07,5847.98 Z "/>
<path stroke="none" transform="matrix(0.1 0 0 0.1 -472.65 -541.9)" d="M 5423.07,5658.73 L 5435.07,5658.73 L 5435.07,5837.59 L 5429.07,5841.05 L 5423.07,5837.59 L 5423.07,5658.73 Z "/>
<path stroke="none" transform="matrix(0.1 0 0 0.1 -472.65 -541.9)" d="M 4781.5,5869.5 A 144,144 0 1 0 5069.5,5869.5A 144,144 0 1 0 4781.5,5869.5Z " class="connection_in" stroke-width="18px"/>
</g>
</svg>