<svg xmlns="http://www.w3.org/2000/svg" xmlns:xlink="http://www.w3.org/1999/xlink" viewBox="0 0 168.32999999999998 139.5" style="background-color: #ffffff00" version="1.1">
<g transform="matrix(1 0 0 1 -3.500000000000057 -3.6000000000000014)">
<text x="0" y="0" stroke="none" transform="matrix(0.1 0 0 0.1 136.812 64.8)" font-style="normal" font-weight="bold" font-size="200px" font-family="Arial">
O</text>
<text x="0" y="0" stroke="none" transform="matrix(0.1 0 0 0.1 111.872 21.6)" font-style="normal" font-weight="bold" font-size="200px" font-family="Arial">
O</text>
<text x="0" y="0" stroke="none" transform="matrix(0.1 0 0 0.1 62.5283 136.8)" font-style="normal" font-weight="bold" font-size="200px" font-family="Arial">
NH</text>
<text x="0" y="0" stroke="none" transform="matrix(0.1 0 0 0.1 91.415 141.1)" font-style="normal" font-weight="bold" font-size="150px" font-family="Arial">
2</text>
<text x="0" y="0" stroke="none" transform="matrix(0.1 0 0 0.1 112.428 108)" font-style="normal" font-weight="bold" font-size="200px" font-family="Arial">
NH</text>
<text x="0" y="0" stroke="none" transform="matrix(0.1 0 0 0.1 141.315 112.3)" font-style="normal" font-weight="bold" font-size="150px" font-family="Arial">
2</text>
<path stroke="none" transform="matrix(0.1 0 0 0.1 -444.65 -532.9)" d="M 5984.89,5852.03 L 5978.89,5841.63 L 6138.8,5749.3 L 6144.8,5759.7 L 5984.89,5852.03 Z "/>
<path stroke="none" transform="matrix(0.1 0 0 0.1 -444.65 -532.9)" d="M 5643,5761.43 L 5643,5747.57 L 5806.35,5841.89 L 5800.35,5852.28 L 5643,5761.43 Z "/>
<path stroke="none" transform="matrix(0.1 0 0 0.1 -444.65 -532.9)" d="M 5611.08,5574.67 L 5623.08,5574.67 L 5623.08,5769.47 L 5611.08,5769.47 L 5611.08,5574.67 Z "/>
<path stroke="none" transform="matrix(0.1 0 0 0.1 -444.65 -532.9)" d="M 5662.92,5574.67 L 5674.92,5574.67 L 5674.92,5769.47 L 5662.92,5769.47 L 5662.92,5574.67 Z "/>
<path stroke="none" transform="matrix(0.1 0 0 0.1 -444.65 -532.9)" d="M 5399.6,5901.96 L 5393.6,5898.5 L 5393.6,5891.57 L 5643,5747.57 L 5643,5761.43 L 5399.6,5901.96 Z "/>
<path stroke="none" transform="matrix(0.1 0 0 0.1 -444.65 -532.9)" d="M 5144,5761.43 L 5144,5747.57 L 5393.6,5891.57 L 5393.6,5898.5 L 5387.6,5901.97 L 5144,5761.43 Z "/>
<path stroke="none" transform="matrix(0.1 0 0 0.1 -444.65 -532.9)" d="M 4900.6,5901.96 L 4894.6,5898.5 L 4894.6,5891.57 L 5144,5747.57 L 5144,5761.43 L 4900.6,5901.96 Z "/>
<path stroke="none" transform="matrix(0.1 0 0 0.1 -444.65 -532.9)" d="M 4949.44,5933.62 L 4943.44,5923.23 L 5141.01,5809.16 L 5147.01,5819.55 L 4949.44,5933.62 Z "/>
<path stroke="none" transform="matrix(0.1 0 0 0.1 -444.65 -532.9)" d="M 4642.2,5759.7 L 4648.2,5749.3 L 4894.6,5891.57 L 4894.6,5898.5 L 4888.6,5901.96 L 4642.2,5759.7 Z "/>
<path stroke="none" transform="matrix(0.1 0 0 0.1 -444.65 -532.9)" d="M 4900.6,6183.04 L 4888.6,6189.96 L 4888.6,5901.96 L 4894.6,5898.5 L 4900.6,5901.96 L 4900.6,6183.04 Z "/>
<path stroke="none" transform="matrix(0.1 0 0 0.1 -444.65 -532.9)" d="M 5144,6323.57 L 5144,6330.5 L 5138,6333.96 L 4888.6,6189.96 L 4900.6,6183.04 L 5144,6323.57 Z "/>
<path stroke="none" transform="matrix(0.1 0 0 0.1 -444.65 -532.9)" d="M 5147.01,6265.45 L 5141.01,6275.84 L 4943.44,6161.77 L 4949.44,6151.38 L 5147.01,6265.45 Z "/>
<path stroke="none" transform="matrix(0.1 0 0 0.1 -444.65 -532.9)" d="M 5150,6518.17 L 5138,6518.17 L 5138,6333.96 L 5144,6330.5 L 5150,6333.96 L 5150,6518.17 Z "/>
<path stroke="none" transform="matrix(0.1 0 0 0.1 -444.65 -532.9)" d="M 5387.6,6183.03 L 5393.6,6186.5 L 5393.6,6193.43 L 5150,6333.96 L 5144,6330.5 L 5144,6323.57 L 5387.6,6183.03 Z "/>
<path stroke="none" transform="matrix(0.1 0 0 0.1 -444.65 -532.9)" d="M 5399.6,6183.04 L 5393.6,6186.5 L 5387.6,6183.03 L 5387.6,5901.97 L 5393.6,5898.5 L 5399.6,5901.96 L 5399.6,6183.04 Z "/>
<path stroke="none" transform="matrix(0.1 0 0 0.1 -444.65 -532.9)" d="M 5347.76,6156.56 L 5335.76,6156.56 L 5335.76,5928.44 L 5347.76,5928.44 L 5347.76,6156.56 Z "/>
<path stroke="none" transform="matrix(0.1 0 0 0.1 -444.65 -532.9)" d="M 5545.79,6267.44 L 5539.79,6277.83 L 5393.6,6193.43 L 5393.6,6186.5 L 5399.6,6183.04 L 5545.79,6267.44 Z "/>
<path stroke="none" transform="matrix(0.1 0 0 0.1 -444.65 -532.9)" d="M 4501.5,5759.5 A 144,144 0 1 0 4789.5,5759.5A 144,144 0 1 0 4501.5,5759.5Z " class="connection_in" stroke-width="18px"/>
</g>
</svg>