<svg xmlns="http://www.w3.org/2000/svg" xmlns:xlink="http://www.w3.org/1999/xlink" viewBox="0 0 194.51499999999993 83.24999999999991" style="background-color: #ffffff00" version="1.1">
<g transform="matrix(1 0 0 1 -3.500000000000057 -2.650000000000091)">
<text x="0" y="0" stroke="none" transform="matrix(0.1 0 0 0.1 112.797 83.9)" font-style="normal" font-weight="bold" font-size="200px" font-family="Arial">
O</text>
<text x="0" y="0" stroke="none" transform="matrix(0.1 0 0 0.1 163.233 26.3)" font-style="normal" font-weight="bold" font-size="200px" font-family="Arial">
N</text>
<text x="0" y="0" stroke="none" transform="matrix(0.1 0 0 0.1 88.4134 40.7)" font-style="normal" font-weight="bold" font-size="200px" font-family="Arial">
N</text>
<path stroke="none" transform="matrix(0.1 0 0 0.1 -430.65 -558.9)" d="M 4764.05,5910.57 L 4764.05,5917.5 L 4758.05,5920.96 L 4511.65,5778.7 L 4517.65,5768.3 L 4764.05,5910.57 Z "/>
<path stroke="none" transform="matrix(0.1 0 0 0.1 -430.65 -558.9)" d="M 4770.05,6202.04 L 4758.05,6208.96 L 4758.05,5920.96 L 4764.05,5917.5 L 4770.05,5920.96 L 4770.05,6202.04 Z "/>
<path stroke="none" transform="matrix(0.1 0 0 0.1 -430.65 -558.9)" d="M 5013.45,6342.57 L 5013.45,6356.43 L 4758.05,6208.96 L 4770.05,6202.04 L 5013.45,6342.57 Z "/>
<path stroke="none" transform="matrix(0.1 0 0 0.1 -430.65 -558.9)" d="M 5016.45,6284.45 L 5010.45,6294.84 L 4812.89,6180.77 L 4818.89,6170.38 L 5016.45,6284.45 Z "/>
<path stroke="none" transform="matrix(0.1 0 0 0.1 -430.65 -558.9)" d="M 5256.85,6202.04 L 5262.85,6205.5 L 5262.85,6212.43 L 5013.45,6356.43 L 5013.45,6342.57 L 5256.85,6202.04 Z "/>
<path stroke="none" transform="matrix(0.1 0 0 0.1 -430.65 -558.9)" d="M 5426.2,6292.89 L 5420.2,6303.28 L 5262.85,6212.43 L 5262.85,6205.5 L 5268.85,6202.04 L 5426.2,6292.89 Z "/>
<path stroke="none" transform="matrix(0.1 0 0 0.1 -430.65 -558.9)" d="M 5755.65,6202.04 L 5761.65,6205.5 L 5761.65,6212.43 L 5604.74,6303.03 L 5598.74,6292.63 L 5755.65,6202.04 Z "/>
<path stroke="none" transform="matrix(0.1 0 0 0.1 -430.65 -558.9)" d="M 6011.05,6342.57 L 6011.05,6356.43 L 5761.65,6212.43 L 5761.65,6205.5 L 5767.65,6202.04 L 6011.05,6342.57 Z "/>
<path stroke="none" transform="matrix(0.1 0 0 0.1 -430.65 -558.9)" d="M 6254.65,6202.03 L 6266.65,6208.97 L 6011.05,6356.43 L 6011.05,6342.57 L 6254.65,6202.03 Z "/>
<path stroke="none" transform="matrix(0.1 0 0 0.1 -430.65 -558.9)" d="M 6205.78,6170.35 L 6211.78,6180.74 L 6014.06,6294.81 L 6008.06,6284.41 L 6205.78,6170.35 Z "/>
<path stroke="none" transform="matrix(0.1 0 0 0.1 -430.65 -558.9)" d="M 6254.65,5920.97 L 6266.65,5914.03 L 6266.65,6208.97 L 6254.65,6202.03 L 6254.65,5920.97 Z "/>
<path stroke="none" transform="matrix(0.1 0 0 0.1 -430.65 -558.9)" d="M 6109.51,5837.23 L 6115.51,5826.84 L 6266.65,5914.03 L 6254.65,5920.97 L 6109.51,5837.23 Z "/>
<path stroke="none" transform="matrix(0.1 0 0 0.1 -430.65 -558.9)" d="M 6083.59,5882.16 L 6089.59,5871.76 L 6211.78,5942.26 L 6205.78,5952.65 L 6083.59,5882.16 Z "/>
<path stroke="none" transform="matrix(0.1 0 0 0.1 -430.65 -558.9)" d="M 5767.65,5920.96 L 5755.65,5914.04 L 5905.53,5827.5 L 5911.53,5837.89 L 5767.65,5920.96 Z "/>
<path stroke="none" transform="matrix(0.1 0 0 0.1 -430.65 -558.9)" d="M 5755.65,5914.04 L 5767.65,5920.96 L 5767.65,6202.04 L 5761.65,6205.5 L 5755.65,6202.04 L 5755.65,5914.04 Z "/>
<path stroke="none" transform="matrix(0.1 0 0 0.1 -430.65 -558.9)" d="M 5807.49,5947.43 L 5819.49,5947.43 L 5819.49,6175.57 L 5807.49,6175.57 L 5807.49,5947.43 Z "/>
<path stroke="none" transform="matrix(0.1 0 0 0.1 -430.65 -558.9)" d="M 5256.85,6023.17 L 5268.85,6023.17 L 5268.85,6202.04 L 5262.85,6205.5 L 5256.85,6202.04 L 5256.85,6023.17 Z "/>
<path stroke="none" transform="matrix(0.1 0 0 0.1 -430.65 -558.9)" d="M 5205.01,6023.17 L 5217.01,6023.17 L 5217.01,6175.57 L 5205.01,6175.57 L 5205.01,6023.17 Z "/>
<path stroke="none" transform="matrix(0.1 0 0 0.1 -430.65 -558.9)" d="M 5013.45,5780.43 L 5013.45,5766.57 L 5165.64,5854.44 L 5159.64,5864.83 L 5013.45,5780.43 Z "/>
<path stroke="none" transform="matrix(0.1 0 0 0.1 -430.65 -558.9)" d="M 5013.45,5766.57 L 5013.45,5780.43 L 4770.05,5920.96 L 4764.05,5917.5 L 4764.05,5910.57 L 5013.45,5766.57 Z "/>
<path stroke="none" transform="matrix(0.1 0 0 0.1 -430.65 -558.9)" d="M 5010.45,5828.16 L 5016.45,5838.55 L 4818.89,5952.62 L 4812.89,5942.23 L 5010.45,5828.16 Z "/>
<path stroke="none" transform="matrix(0.1 0 0 0.1 -430.65 -558.9)" d="M 4361.5,5779.5 A 144,144 0 1 0 4649.5,5779.5A 144,144 0 1 0 4361.5,5779.5Z " class="connection_in" stroke-width="18px"/>
</g>
</svg>