<svg xmlns="http://www.w3.org/2000/svg" xmlns:xlink="http://www.w3.org/1999/xlink" viewBox="0 0 257.352 149.5937" style="background-color: #ffffff00" version="1.1">
<g transform="matrix(1 0 0 1 -3.500000000000057 -2.795300000000001)">
<text x="0" y="0" stroke="none" transform="matrix(0.1 0 0 0.1 187.303 150.389)" font-style="normal" font-weight="bold" font-size="200px" font-family="Arial">
O</text>
<text x="0" y="0" stroke="none" transform="matrix(0.1 0 0 0.1 162.918 135.989)" font-style="normal" font-weight="bold" font-size="200px" font-family="Arial">
N</text>
<text x="0" y="0" stroke="none" transform="matrix(0.1 0 0 0.1 177.361 128.139)" font-style="normal" font-weight="bold" font-size="150px" font-family="Arial">
+</text>
<text x="0" y="0" stroke="none" transform="matrix(0.1 0 0 0.1 132.425 142.537)" font-style="normal" font-weight="bold" font-size="150px" font-family="Arial">
-</text>
<text x="0" y="0" stroke="none" transform="matrix(0.1 0 0 0.1 137.42 150.387)" font-style="normal" font-weight="bold" font-size="200px" font-family="Arial">
O</text>
<text x="0" y="0" stroke="none" transform="matrix(0.1 0 0 0.1 238.852 63.994)" font-style="normal" font-weight="bold" font-size="200px" font-family="Arial">
F</text>
<text x="0" y="0" stroke="none" transform="matrix(0.1 0 0 0.1 238.852 35.1954)" font-style="normal" font-weight="bold" font-size="200px" font-family="Arial">
F</text>
<text x="0" y="0" stroke="none" transform="matrix(0.1 0 0 0.1 213.91 20.7953)" font-style="normal" font-weight="bold" font-size="200px" font-family="Arial">
F</text>
<text x="0" y="0" stroke="none" transform="matrix(0.1 0 0 0.1 112.478 107.189)" font-style="normal" font-weight="bold" font-size="200px" font-family="Arial">
O</text>
<path stroke="none" transform="matrix(0.1 0 0 0.1 -440.65 -526.9)" d="M 6193.45,6636.64 L 6199.45,6626.25 L 6258.3,6660.23 L 6252.3,6670.62 L 6193.45,6636.64 Z "/>
<path stroke="none" transform="matrix(0.1 0 0 0.1 -440.65 -526.9)" d="M 6219.37,6591.75 L 6225.37,6581.36 L 6284.22,6615.33 L 6278.22,6625.72 L 6219.37,6591.75 Z "/>
<path stroke="none" transform="matrix(0.1 0 0 0.1 -440.65 -526.9)" d="M 5951.01,6647.88 L 5945.01,6637.49 L 6002.3,6604.42 L 6008.3,6614.81 L 5951.01,6647.88 Z "/>
<path stroke="none" transform="matrix(0.1 0 0 0.1 -440.65 -526.9)" d="M 6101.89,6265.86 L 6107.89,6262.4 L 6113.89,6265.86 L 6113.89,6450.22 L 6101.89,6450.22 L 6101.89,6265.86 Z "/>
<path stroke="none" transform="matrix(0.1 0 0 0.1 -440.65 -526.9)" d="M 6351.29,6114.95 L 6363.29,6121.88 L 6113.89,6265.86 L 6107.89,6262.4 L 6107.89,6255.47 L 6351.29,6114.95 Z "/>
<path stroke="none" transform="matrix(0.1 0 0 0.1 -440.65 -526.9)" d="M 6351.29,5833.89 L 6357.29,5830.43 L 6363.29,5833.89 L 6363.29,6121.88 L 6351.29,6114.95 L 6351.29,5833.89 Z "/>
<path stroke="none" transform="matrix(0.1 0 0 0.1 -440.65 -526.9)" d="M 6299.45,5860.36 L 6311.45,5860.36 L 6311.45,6088.48 L 6299.45,6088.48 L 6299.45,5860.36 Z "/>
<path stroke="none" transform="matrix(0.1 0 0 0.1 -440.65 -526.9)" d="M 6600.69,5682.98 L 6606.69,5686.44 L 6606.69,5693.37 L 6363.29,5833.89 L 6357.29,5830.43 L 6357.29,5823.5 L 6600.69,5682.98 Z "/>
<path stroke="none" transform="matrix(0.1 0 0 0.1 -440.65 -526.9)" d="M 6767.24,5772.21 L 6761.24,5782.6 L 6606.69,5693.37 L 6606.69,5686.44 L 6618.69,5686.44 L 6767.24,5772.21 Z "/>
<path stroke="none" transform="matrix(0.1 0 0 0.1 -440.65 -526.9)" d="M 6760.66,5590.63 L 6766.66,5601.02 L 6618.69,5686.44 L 6606.69,5686.44 L 6612.69,5676.05 L 6760.66,5590.63 Z "/>
<path stroke="none" transform="matrix(0.1 0 0 0.1 -440.65 -526.9)" d="M 6600.69,5504.12 L 6612.69,5504.12 L 6612.69,5676.05 L 6606.69,5686.44 L 6600.69,5682.98 L 6600.69,5504.12 Z "/>
<path stroke="none" transform="matrix(0.1 0 0 0.1 -440.65 -526.9)" d="M 6107.87,5693.36 L 6107.87,5679.5 L 6357.29,5823.5 L 6357.29,5830.43 L 6351.29,5833.89 L 6107.87,5693.36 Z "/>
<path stroke="none" transform="matrix(0.1 0 0 0.1 -440.65 -526.9)" d="M 5864.46,5833.88 L 5852.46,5826.95 L 6107.87,5679.5 L 6107.87,5693.36 L 5864.46,5833.88 Z "/>
<path stroke="none" transform="matrix(0.1 0 0 0.1 -440.65 -526.9)" d="M 5913.3,5865.54 L 5907.3,5855.15 L 6104.87,5741.09 L 6110.87,5751.48 L 5913.3,5865.54 Z "/>
<path stroke="none" transform="matrix(0.1 0 0 0.1 -440.65 -526.9)" d="M 5864.47,6114.94 L 5858.47,6118.4 L 5852.47,6114.94 L 5852.46,5826.95 L 5864.46,5833.88 L 5864.47,6114.94 Z "/>
<path stroke="none" transform="matrix(0.1 0 0 0.1 -440.65 -526.9)" d="M 5858.47,6125.33 L 5858.47,6118.4 L 5864.47,6114.94 L 6107.89,6255.47 L 6107.89,6262.4 L 6101.89,6265.86 L 5858.47,6125.33 Z "/>
<path stroke="none" transform="matrix(0.1 0 0 0.1 -440.65 -526.9)" d="M 5907.31,6093.67 L 5913.31,6083.27 L 6110.89,6197.34 L 6104.89,6207.74 L 5907.31,6093.67 Z "/>
<path stroke="none" transform="matrix(0.1 0 0 0.1 -440.65 -526.9)" d="M 5701.55,6215.92 L 5695.55,6205.53 L 5852.47,6114.94 L 5858.47,6118.4 L 5858.47,6125.33 L 5701.55,6215.92 Z "/>
<path stroke="none" transform="matrix(0.1 0 0 0.1 -440.65 -526.9)" d="M 5359.65,6125.31 L 5359.65,6118.39 L 5365.65,6114.92 L 5523.01,6205.78 L 5517.01,6216.17 L 5359.65,6125.31 Z "/>
<path stroke="none" transform="matrix(0.1 0 0 0.1 -440.65 -526.9)" d="M 5110.24,6269.3 L 5110.24,6255.45 L 5353.65,6114.92 L 5359.65,6118.39 L 5359.65,6125.31 L 5110.24,6269.3 Z "/>
<path stroke="none" transform="matrix(0.1 0 0 0.1 -440.65 -526.9)" d="M 4854.82,6121.84 L 4866.82,6114.91 L 5110.24,6255.45 L 5110.24,6269.3 L 4854.82,6121.84 Z "/>
<path stroke="none" transform="matrix(0.1 0 0 0.1 -440.65 -526.9)" d="M 4909.66,6093.64 L 4915.66,6083.25 L 5113.24,6197.32 L 5107.24,6207.71 L 4909.66,6093.64 Z "/>
<path stroke="none" transform="matrix(0.1 0 0 0.1 -440.65 -526.9)" d="M 4854.82,5833.85 L 4860.82,5830.39 L 4866.82,5833.85 L 4866.82,6114.91 L 4854.82,6121.84 L 4854.82,5833.85 Z "/>
<path stroke="none" transform="matrix(0.1 0 0 0.1 -440.65 -526.9)" d="M 4608.4,5691.58 L 4614.4,5681.19 L 4860.82,5823.46 L 4860.82,5830.39 L 4854.82,5833.85 L 4608.4,5691.58 Z "/>
<path stroke="none" transform="matrix(0.1 0 0 0.1 -440.65 -526.9)" d="M 5110.22,5679.47 L 5110.22,5693.33 L 4866.82,5833.85 L 4860.82,5830.39 L 4860.82,5823.46 L 5110.22,5679.47 Z "/>
<path stroke="none" transform="matrix(0.1 0 0 0.1 -440.65 -526.9)" d="M 5107.22,5741.06 L 5113.22,5751.45 L 4915.65,5865.51 L 4909.65,5855.12 L 5107.22,5741.06 Z "/>
<path stroke="none" transform="matrix(0.1 0 0 0.1 -440.65 -526.9)" d="M 5365.64,5826.94 L 5353.64,5833.86 L 5110.22,5693.33 L 5110.22,5679.47 L 5365.64,5826.94 Z "/>
<path stroke="none" transform="matrix(0.1 0 0 0.1 -440.65 -526.9)" d="M 5353.64,5833.86 L 5365.64,5826.94 L 5365.65,6114.92 L 5359.65,6118.39 L 5353.65,6114.92 L 5353.64,5833.86 Z "/>
<path stroke="none" transform="matrix(0.1 0 0 0.1 -440.65 -526.9)" d="M 5301.8,5860.33 L 5313.8,5860.33 L 5313.81,6088.46 L 5301.81,6088.46 L 5301.8,5860.33 Z "/>
<path stroke="none" transform="matrix(0.1 0 0 0.1 -440.65 -526.9)" d="M 4461.5,5639.5 A 144,144 0 1 0 4749.5,5639.5A 144,144 0 1 0 4461.5,5639.5Z " class="connection_in" stroke-width="18px"/>
</g>
</svg>