<svg xmlns="http://www.w3.org/2000/svg" xmlns:xlink="http://www.w3.org/1999/xlink" viewBox="0 0 156.40699999999995 83.42" style="background-color: #ffffff00" version="1.1">
<g transform="matrix(1 0 0 1 -3.500000000000057 -3.379999999999999)">
<text x="0" y="0" stroke="none" transform="matrix(0.1 0 0 0.1 137.907 21.38)" font-style="normal" font-weight="bold" font-size="200px" font-family="Arial">
N</text>
<text x="0" y="0" stroke="none" transform="matrix(0.1 0 0 0.1 57.3984 84.8)" font-style="normal" font-weight="bold" font-size="200px" font-family="Arial">
S</text>
<text x="0" y="0" stroke="none" transform="matrix(0.1 0 0 0.1 61.7266 38.46)" font-style="normal" font-weight="bold" font-size="200px" font-family="Arial">
N</text>
<path stroke="none" transform="matrix(0.1 0 0 0.1 -452.65 -560.9)" d="M 5757.3,5938.39 L 5751.3,5928 L 5898.18,5843.19 L 5904.18,5853.58 L 5757.3,5938.39 Z "/>
<path stroke="none" transform="matrix(0.1 0 0 0.1 -452.65 -560.9)" d="M 5731.38,5893.5 L 5725.38,5883.1 L 5872.26,5798.3 L 5878.26,5808.69 L 5731.38,5893.5 Z "/>
<path stroke="none" transform="matrix(0.1 0 0 0.1 -452.65 -560.9)" d="M 5705.46,5848.6 L 5699.46,5838.21 L 5846.34,5753.41 L 5852.34,5763.8 L 5705.46,5848.6 Z "/>
<path stroke="none" transform="matrix(0.1 0 0 0.1 -452.65 -560.9)" d="M 5484.63,6035.97 L 5478.98,6032.3 L 5478.63,6025.57 L 5725.38,5883.1 L 5731.38,5893.5 L 5484.63,6035.97 Z "/>
<path stroke="none" transform="matrix(0.1 0 0 0.1 -452.65 -560.9)" d="M 5454.5,6323.66 L 5443.47,6313.74 L 5472.56,6036.01 L 5478.98,6032.3 L 5484.63,6035.97 L 5454.5,6323.66 Z "/>
<path stroke="none" transform="matrix(0.1 0 0 0.1 -452.65 -560.9)" d="M 5407.32,6276.44 L 5395.39,6275.19 L 5417.54,6063.7 L 5429.48,6064.95 L 5407.32,6276.44 Z "/>
<path stroke="none" transform="matrix(0.1 0 0 0.1 -452.65 -560.9)" d="M 5256.5,6365.68 L 5254.01,6353.94 L 5443.47,6313.74 L 5454.5,6323.66 L 5256.5,6365.68 Z "/>
<path stroke="none" transform="matrix(0.1 0 0 0.1 -452.65 -560.9)" d="M 5019.52,6134.75 L 5023.18,6129.1 L 5030.56,6129.88 L 5120.18,6285.09 L 5109.79,6291.09 L 5019.52,6134.75 Z "/>
<path stroke="none" transform="matrix(0.1 0 0 0.1 -452.65 -560.9)" d="M 4736.16,6105.07 L 4737.41,6093.13 L 5020.77,6122.81 L 5023.18,6129.1 L 5019.52,6134.75 L 4736.16,6105.07 Z "/>
<path stroke="none" transform="matrix(0.1 0 0 0.1 -452.65 -560.9)" d="M 5127.84,6003.97 L 5136.75,6012.01 L 5030.56,6129.88 L 5023.18,6129.1 L 5020.77,6122.81 L 5127.84,6003.97 Z "/>
<path stroke="none" transform="matrix(0.1 0 0 0.1 -452.65 -560.9)" d="M 5166.36,6038.68 L 5175.27,6046.71 L 5091.38,6139.82 L 5082.47,6131.79 L 5166.36,6038.68 Z "/>
<path stroke="none" transform="matrix(0.1 0 0 0.1 -452.65 -560.9)" d="M 5313.73,5965.23 L 5318.61,5954.26 L 5478.63,6025.57 L 5478.98,6032.3 L 5472.56,6036.01 L 5313.73,5965.23 Z "/>
<path stroke="none" transform="matrix(0.1 0 0 0.1 -452.65 -560.9)" d="M 4581.5,6109.5 A 144,144 0 1 0 4869.5,6109.5A 144,144 0 1 0 4581.5,6109.5Z " class="connection_in" stroke-width="18px"/>
</g>
</svg>