<svg xmlns="http://www.w3.org/2000/svg" xmlns:xlink="http://www.w3.org/1999/xlink" viewBox="0 0 199.59499999999997 145.11799999999994" style="background-color: #ffffff00" version="1.1">
<g transform="matrix(1 0 0 1 -3.500000000000057 -2.4820000000000846)">
<text x="0" y="0" stroke="none" transform="matrix(0.1 0 0 0.1 156.112 67.2972)" font-style="normal" font-weight="bold" font-size="200px" font-family="Arial">
O</text>
<text x="0" y="0" stroke="none" transform="matrix(0.1 0 0 0.1 108.672 51.8772)" font-style="normal" font-weight="bold" font-size="200px" font-family="Arial">
O</text>
<text x="0" y="0" stroke="none" transform="matrix(0.1 0 0 0.1 119.608 100.657)" font-style="normal" font-weight="bold" font-size="200px" font-family="Arial">
N</text>
<path stroke="none" transform="matrix(0.1 0 0 0.1 -425.65 -635.4)" d="M 5981.91,6662.73 L 5984.4,6674.47 L 5977.62,6675.91 L 5787.34,6464.49 L 5796.26,6456.46 L 5981.91,6662.73 Z "/>
<path stroke="none" transform="matrix(0.1 0 0 0.1 -425.65 -635.4)" d="M 6067.69,6398.82 L 6079.11,6402.53 L 5993.32,6666.45 L 5984.4,6674.47 L 5981.91,6662.73 L 6067.69,6398.82 Z "/>
<path stroke="none" transform="matrix(0.1 0 0 0.1 -425.65 -635.4)" d="M 6264.95,6608.8 L 6267.45,6620.54 L 5989.04,6679.62 L 5984.4,6674.47 L 5993.32,6666.45 L 6264.95,6608.8 Z "/>
<path stroke="none" transform="matrix(0.1 0 0 0.1 -425.65 -635.4)" d="M 5933.14,6851.71 L 5921.73,6848 L 5977.62,6675.91 L 5984.4,6674.47 L 5989.04,6679.62 L 5933.14,6851.71 Z "/>
<path stroke="none" transform="matrix(0.1 0 0 0.1 -425.65 -635.4)" d="M 5618.43,7013.42 L 5609.16,7003.12 L 5793.84,6963.91 L 5796.33,6975.64 L 5618.43,7013.42 Z "/>
<path stroke="none" transform="matrix(0.1 0 0 0.1 -425.65 -635.4)" d="M 5469.92,6896.27 L 5478.84,6888.24 L 5609.01,7032.72 L 5600.09,7040.75 L 5469.92,6896.27 Z "/>
<path stroke="none" transform="matrix(0.1 0 0 0.1 -425.65 -635.4)" d="M 5508.44,6861.56 L 5517.36,6853.53 L 5647.55,6998.04 L 5638.63,7006.07 L 5508.44,6861.56 Z "/>
<path stroke="none" transform="matrix(0.1 0 0 0.1 -425.65 -635.4)" d="M 5565.82,7175.29 L 5554.41,7171.58 L 5609.16,7003.12 L 5618.43,7013.42 L 5565.82,7175.29 Z "/>
<path stroke="none" transform="matrix(0.1 0 0 0.1 -425.65 -635.4)" d="M 5701.41,7515.07 L 5686.58,7515.07 L 5593.03,7386.24 L 5602.74,7379.19 L 5701.41,7515.07 Z "/>
<path stroke="none" transform="matrix(0.1 0 0 0.1 -425.65 -635.4)" d="M 5527.09,7755.12 L 5522.51,7741.02 L 5686.58,7515.07 L 5701.41,7515.07 L 5527.09,7755.12 Z "/>
<path stroke="none" transform="matrix(0.1 0 0 0.1 -425.65 -635.4)" d="M 5509.85,7690.67 L 5500.14,7683.61 L 5625.09,7511.55 L 5634.8,7518.6 L 5509.85,7690.67 Z "/>
<path stroke="none" transform="matrix(0.1 0 0 0.1 -425.65 -635.4)" d="M 5251.49,7665.6 L 5250.8,7659.07 L 5256.8,7654.71 L 5522.51,7741.02 L 5527.09,7755.12 L 5251.49,7665.6 Z "/>
<path stroke="none" transform="matrix(0.1 0 0 0.1 -425.65 -635.4)" d="M 5001.4,7810 L 5001.4,7796.14 L 5244.8,7655.61 L 5250.8,7659.07 L 5251.49,7665.6 L 5001.4,7810 Z "/>
<path stroke="none" transform="matrix(0.1 0 0 0.1 -425.65 -635.4)" d="M 5004.4,7748.41 L 4998.4,7738.02 L 5195.96,7623.95 L 5201.96,7634.34 L 5004.4,7748.41 Z "/>
<path stroke="none" transform="matrix(0.1 0 0 0.1 -425.65 -635.4)" d="M 4746,7662.54 L 4758,7655.61 L 5001.4,7796.14 L 5001.4,7810 L 4746,7662.54 Z "/>
<path stroke="none" transform="matrix(0.1 0 0 0.1 -425.65 -635.4)" d="M 4746,7374.54 L 4752,7371.07 L 4758,7374.54 L 4758,7655.61 L 4746,7662.54 L 4746,7374.54 Z "/>
<path stroke="none" transform="matrix(0.1 0 0 0.1 -425.65 -635.4)" d="M 4797.84,7401 L 4809.84,7401 L 4809.84,7629.14 L 4797.84,7629.14 L 4797.84,7401 Z "/>
<path stroke="none" transform="matrix(0.1 0 0 0.1 -425.65 -635.4)" d="M 4499.6,7232.27 L 4505.6,7221.88 L 4752,7364.14 L 4752,7371.07 L 4746,7374.54 L 4499.6,7232.27 Z "/>
<path stroke="none" transform="matrix(0.1 0 0 0.1 -425.65 -635.4)" d="M 5001.4,7220.14 L 5001.4,7234 L 4758,7374.54 L 4752,7371.07 L 4752,7364.14 L 5001.4,7220.14 Z "/>
<path stroke="none" transform="matrix(0.1 0 0 0.1 -425.65 -635.4)" d="M 5251.49,7364.54 L 5250.8,7371.07 L 5244.8,7374.54 L 5001.4,7234 L 5001.4,7220.14 L 5251.49,7364.54 Z "/>
<path stroke="none" transform="matrix(0.1 0 0 0.1 -425.65 -635.4)" d="M 5201.96,7395.8 L 5195.96,7406.2 L 4998.4,7292.13 L 5004.4,7281.73 L 5201.96,7395.8 Z "/>
<path stroke="none" transform="matrix(0.1 0 0 0.1 -425.65 -635.4)" d="M 5244.8,7374.54 L 5250.8,7371.07 L 5256.8,7375.43 L 5256.8,7654.71 L 5250.8,7659.07 L 5244.8,7655.61 L 5244.8,7374.54 Z "/>
<path stroke="none" transform="matrix(0.1 0 0 0.1 -425.65 -635.4)" d="M 5256.8,7375.43 L 5250.8,7371.07 L 5251.49,7364.54 L 5423.81,7308.57 L 5427.52,7319.98 L 5256.8,7375.43 Z "/>
<path stroke="none" transform="matrix(0.1 0 0 0.1 -425.65 -635.4)" d="M 4311.5,7239.5 A 144,144 0 1 0 4599.5,7239.5A 144,144 0 1 0 4311.5,7239.5Z " class="connection_in" stroke-width="18px"/>
</g>
</svg>