<svg xmlns="http://www.w3.org/2000/svg" xmlns:xlink="http://www.w3.org/1999/xlink" viewBox="0 0 189.13399999999993 197.88070000000005" style="background-color: #ffffff00" version="1.1">
<g transform="matrix(1 0 0 1 -3.500000000000057 -3.978300000000001)">
<text x="0" y="0" stroke="none" transform="matrix(0.1 0 0 0.1 115.063 21.9783)" font-style="normal" font-weight="bold" font-size="200px" font-family="Arial">
O</text>
<text x="0" y="0" stroke="none" transform="matrix(0.1 0 0 0.1 160.634 42.2873)" font-style="normal" font-weight="bold" font-size="200px" font-family="Arial">
OH</text>
<text x="0" y="0" stroke="none" transform="matrix(0.1 0 0 0.1 116.508 117.946)" font-style="normal" font-weight="bold" font-size="200px" font-family="Arial">
S</text>
<text x="0" y="0" stroke="none" transform="matrix(0.1 0 0 0.1 92.6555 77.5868)" font-style="normal" font-weight="bold" font-size="200px" font-family="Arial">
N</text>
<path stroke="none" transform="matrix(0.1 0 0 0.1 -486.65 -679.4)" d="M 6298.87,7161.74 L 6289.17,7168.79 L 6175.2,7011.9 L 6184.91,7004.84 L 6298.87,7161.74 Z "/>
<path stroke="none" transform="matrix(0.1 0 0 0.1 -486.65 -679.4)" d="M 6256.91,7192.21 L 6247.2,7199.26 L 6133.24,7042.37 L 6142.95,7035.32 L 6256.91,7192.21 Z "/>
<path stroke="none" transform="matrix(0.1 0 0 0.1 -486.65 -679.4)" d="M 6450.14,7142.87 L 6451.39,7154.81 L 6268.31,7174 L 6260.17,7162.78 L 6450.14,7142.87 Z "/>
<path stroke="none" transform="matrix(0.1 0 0 0.1 -486.65 -679.4)" d="M 6153.73,7431.06 L 6147.01,7431.41 L 6142.77,7426.18 L 6260.17,7162.78 L 6268.31,7174 L 6153.73,7431.06 Z "/>
<path stroke="none" transform="matrix(0.1 0 0 0.1 -486.65 -679.4)" d="M 6298.35,7681.6 L 6283.6,7680.05 L 6143.99,7438.19 L 6147.01,7431.41 L 6153.73,7431.06 L 6298.35,7681.6 Z "/>
<path stroke="none" transform="matrix(0.1 0 0 0.1 -486.65 -679.4)" d="M 6232.46,7671.14 L 6222.07,7677.14 L 6115.75,7492.96 L 6126.14,7486.96 L 6232.46,7671.14 Z "/>
<path stroke="none" transform="matrix(0.1 0 0 0.1 -486.65 -679.4)" d="M 6170.64,7823.53 L 6161.72,7815.5 L 6283.6,7680.05 L 6298.35,7681.6 L 6170.64,7823.53 Z "/>
<path stroke="none" transform="matrix(0.1 0 0 0.1 -486.65 -679.4)" d="M 5835.61,7784.46 L 5835.26,7777.73 L 5841.68,7774.02 L 6012.06,7849.97 L 6007.18,7860.93 L 5835.61,7784.46 Z "/>
<path stroke="none" transform="matrix(0.1 0 0 0.1 -486.65 -679.4)" d="M 5591.84,7925.17 L 5579.84,7918.24 L 5829.61,7774.06 L 5835.26,7777.73 L 5835.61,7784.46 L 5591.84,7925.17 Z "/>
<path stroke="none" transform="matrix(0.1 0 0 0.1 -486.65 -679.4)" d="M 5591.83,8206.23 L 5585.83,8209.69 L 5579.83,8206.23 L 5579.84,7918.24 L 5591.84,7925.17 L 5591.83,8206.23 Z "/>
<path stroke="none" transform="matrix(0.1 0 0 0.1 -486.65 -679.4)" d="M 5841.24,8350.21 L 5829.24,8357.14 L 5585.83,8216.62 L 5585.83,8209.69 L 5591.83,8206.23 L 5841.24,8350.21 Z "/>
<path stroke="none" transform="matrix(0.1 0 0 0.1 -486.65 -679.4)" d="M 5841.23,8645.13 L 5829.23,8638.2 L 5829.24,8357.14 L 5841.24,8350.21 L 5841.23,8645.13 Z "/>
<path stroke="none" transform="matrix(0.1 0 0 0.1 -486.65 -679.4)" d="M 5789.4,8611.74 L 5777.4,8611.74 L 5777.4,8383.61 L 5789.4,8383.61 L 5789.4,8611.74 Z "/>
<path stroke="none" transform="matrix(0.1 0 0 0.1 -486.65 -679.4)" d="M 5585.82,8792.59 L 5585.82,8778.74 L 5829.23,8638.2 L 5841.23,8645.13 L 5585.82,8792.59 Z "/>
<path stroke="none" transform="matrix(0.1 0 0 0.1 -486.65 -679.4)" d="M 5330.41,8645.14 L 5342.41,8638.21 L 5585.82,8778.74 L 5585.82,8792.59 L 5330.41,8645.14 Z "/>
<path stroke="none" transform="matrix(0.1 0 0 0.1 -486.65 -679.4)" d="M 5385.25,8616.95 L 5391.25,8606.55 L 5588.82,8720.61 L 5582.82,8731 L 5385.25,8616.95 Z "/>
<path stroke="none" transform="matrix(0.1 0 0 0.1 -486.65 -679.4)" d="M 5330.42,8357.16 L 5336.42,8353.69 L 5342.42,8357.16 L 5342.41,8638.21 L 5330.41,8645.14 L 5330.42,8357.16 Z "/>
<path stroke="none" transform="matrix(0.1 0 0 0.1 -486.65 -679.4)" d="M 5342.42,8357.16 L 5336.42,8353.69 L 5336.42,8346.76 L 5579.83,8206.23 L 5585.83,8209.69 L 5585.83,8216.62 L 5342.42,8357.16 Z "/>
<path stroke="none" transform="matrix(0.1 0 0 0.1 -486.65 -679.4)" d="M 5391.26,8388.82 L 5385.26,8378.43 L 5582.83,8264.35 L 5588.83,8274.75 L 5391.26,8388.82 Z "/>
<path stroke="none" transform="matrix(0.1 0 0 0.1 -486.65 -679.4)" d="M 5084.01,8214.9 L 5090.01,8204.51 L 5336.42,8346.76 L 5336.42,8353.69 L 5330.42,8357.16 L 5084.01,8214.9 Z "/>
<path stroke="none" transform="matrix(0.1 0 0 0.1 -486.65 -679.4)" d="M 5848.33,7595.43 L 5860.27,7596.69 L 5841.68,7774.02 L 5835.26,7777.73 L 5829.61,7774.06 L 5848.33,7595.43 Z "/>
<path stroke="none" transform="matrix(0.1 0 0 0.1 -486.65 -679.4)" d="M 5899.88,7600.84 L 5911.81,7602.09 L 5896.69,7746.34 L 5884.76,7745.09 L 5899.88,7600.84 Z "/>
<path stroke="none" transform="matrix(0.1 0 0 0.1 -486.65 -679.4)" d="M 5961.43,7477.04 L 5958.94,7465.3 L 6142.77,7426.18 L 6147.01,7431.41 L 6143.99,7438.19 L 5961.43,7477.04 Z "/>
<path stroke="none" transform="matrix(0.1 0 0 0.1 -486.65 -679.4)" d="M 4921.5,8219.5 A 144,144 0 1 0 5209.5,8219.5A 144,144 0 1 0 4921.5,8219.5Z " class="connection_in" stroke-width="18px"/>
</g>
</svg>