<svg xmlns="http://www.w3.org/2000/svg" xmlns:xlink="http://www.w3.org/1999/xlink" viewBox="0 0 194.84999999999997 108.6834" style="background-color: #ffffff00" version="1.1">
<g transform="matrix(1 0 0 1 -3.500000000000057 -3.6416000000000004)">
<text x="0" y="0" stroke="none" transform="matrix(0.1 0 0 0.1 138.948 21.6416)" font-style="normal" font-weight="bold" font-size="200px" font-family="Arial">
H</text>
<text x="0" y="0" stroke="none" transform="matrix(0.1 0 0 0.1 138.948 38.325)" font-style="normal" font-weight="bold" font-size="200px" font-family="Arial">
N</text>
<text x="0" y="0" stroke="none" transform="matrix(0.1 0 0 0.1 114.56 52.725)" font-style="normal" font-weight="bold" font-size="200px" font-family="Arial">
S</text>
<text x="0" y="0" stroke="none" transform="matrix(0.1 0 0 0.1 99.0517 27.785)" font-style="normal" font-weight="bold" font-size="200px" font-family="Arial">
O</text>
<text x="0" y="0" stroke="none" transform="matrix(0.1 0 0 0.1 127.852 77.665)" font-style="normal" font-weight="bold" font-size="200px" font-family="Arial">
O</text>
<text x="0" y="0" stroke="none" transform="matrix(0.1 0 0 0.1 113.452 110.325)" font-style="normal" font-weight="bold" font-size="200px" font-family="Arial">
O</text>
<path stroke="none" transform="matrix(0.1 0 0 0.1 -429.65 -652.4)" d="M 6007.6,6979.68 L 6007.6,6965.82 L 6254,6823.55 L 6260,6833.95 L 6007.6,6979.68 Z "/>
<path stroke="none" transform="matrix(0.1 0 0 0.1 -429.65 -652.4)" d="M 5856.72,6892.56 L 5862.72,6882.17 L 6007.6,6965.82 L 6007.6,6979.68 L 5856.72,6892.56 Z "/>
<path stroke="none" transform="matrix(0.1 0 0 0.1 -429.65 -652.4)" d="M 5595.82,6929.44 L 5589.82,6919.04 L 5652.6,6882.79 L 5658.6,6893.18 L 5595.82,6929.44 Z "/>
<path stroke="none" transform="matrix(0.1 0 0 0.1 -429.65 -652.4)" d="M 5391.91,6834.15 L 5402.31,6828.15 L 5439.35,6892.3 L 5428.96,6898.3 L 5391.91,6834.15 Z "/>
<path stroke="none" transform="matrix(0.1 0 0 0.1 -429.65 -652.4)" d="M 5436.81,6808.23 L 5447.2,6802.23 L 5484.24,6866.38 L 5473.85,6872.38 L 5436.81,6808.23 Z "/>
<path stroke="none" transform="matrix(0.1 0 0 0.1 -429.65 -652.4)" d="M 5628.29,7115.86 L 5617.89,7121.86 L 5580.89,7057.78 L 5591.29,7051.78 L 5628.29,7115.86 Z "/>
<path stroke="none" transform="matrix(0.1 0 0 0.1 -429.65 -652.4)" d="M 5583.39,7141.78 L 5573,7147.78 L 5536,7083.7 L 5546.39,7077.7 L 5583.39,7141.78 Z "/>
<path stroke="none" transform="matrix(0.1 0 0 0.1 -429.65 -652.4)" d="M 5265.4,7120.21 L 5259.4,7116.75 L 5259.4,7109.82 L 5416.52,7019.1 L 5422.52,7029.49 L 5265.4,7120.21 Z "/>
<path stroke="none" transform="matrix(0.1 0 0 0.1 -429.65 -652.4)" d="M 5010,6979.68 L 5010,6965.82 L 5259.4,7109.82 L 5259.4,7116.75 L 5253.4,7120.21 L 5010,6979.68 Z "/>
<path stroke="none" transform="matrix(0.1 0 0 0.1 -429.65 -652.4)" d="M 4766.6,7120.21 L 4760.6,7116.75 L 4760.6,7109.82 L 5010,6965.82 L 5010,6979.68 L 4766.6,7120.21 Z "/>
<path stroke="none" transform="matrix(0.1 0 0 0.1 -429.65 -652.4)" d="M 4815.44,7151.87 L 4809.44,7141.48 L 5007,7027.41 L 5013,7037.8 L 4815.44,7151.87 Z "/>
<path stroke="none" transform="matrix(0.1 0 0 0.1 -429.65 -652.4)" d="M 4508.2,6977.95 L 4514.2,6967.55 L 4760.6,7109.82 L 4760.6,7116.75 L 4754.6,7120.21 L 4508.2,6977.95 Z "/>
<path stroke="none" transform="matrix(0.1 0 0 0.1 -429.65 -652.4)" d="M 4766.6,7401.29 L 4754.6,7408.21 L 4754.6,7120.21 L 4760.6,7116.75 L 4766.6,7120.21 L 4766.6,7401.29 Z "/>
<path stroke="none" transform="matrix(0.1 0 0 0.1 -429.65 -652.4)" d="M 5010,7541.82 L 5010,7555.68 L 4754.6,7408.21 L 4766.6,7401.29 L 5010,7541.82 Z "/>
<path stroke="none" transform="matrix(0.1 0 0 0.1 -429.65 -652.4)" d="M 5013,7483.7 L 5007,7494.09 L 4809.44,7380.02 L 4815.44,7369.63 L 5013,7483.7 Z "/>
<path stroke="none" transform="matrix(0.1 0 0 0.1 -429.65 -652.4)" d="M 5253.4,7401.29 L 5259.4,7404.75 L 5259.4,7411.68 L 5010,7555.68 L 5010,7541.82 L 5253.4,7401.29 Z "/>
<path stroke="none" transform="matrix(0.1 0 0 0.1 -429.65 -652.4)" d="M 5265.4,7401.29 L 5259.4,7404.75 L 5253.4,7401.29 L 5253.4,7120.21 L 5259.4,7116.75 L 5265.4,7120.21 L 5265.4,7401.29 Z "/>
<path stroke="none" transform="matrix(0.1 0 0 0.1 -429.65 -652.4)" d="M 5213.56,7374.82 L 5201.56,7374.82 L 5201.56,7146.68 L 5213.56,7146.68 L 5213.56,7374.82 Z "/>
<path stroke="none" transform="matrix(0.1 0 0 0.1 -429.65 -652.4)" d="M 5422.75,7492.14 L 5416.75,7502.53 L 5259.4,7411.68 L 5259.4,7404.75 L 5265.4,7401.29 L 5422.75,7492.14 Z "/>
<path stroke="none" transform="matrix(0.1 0 0 0.1 -429.65 -652.4)" d="M 5755.2,7399.55 L 5761.2,7409.95 L 5601.29,7502.28 L 5595.29,7491.88 L 5755.2,7399.55 Z "/>
<path stroke="none" transform="matrix(0.1 0 0 0.1 -429.65 -652.4)" d="M 4351.5,6959.5 A 144,144 0 1 0 4639.5,6959.5A 144,144 0 1 0 4351.5,6959.5Z " class="connection_in" stroke-width="18px"/>
</g>
</svg>