<svg xmlns="http://www.w3.org/2000/svg" xmlns:xlink="http://www.w3.org/1999/xlink" viewBox="0 0 190.26100000000002 245.5479999999999" style="background-color: #ffffff00" version="1.1">
<g transform="matrix(1 0 0 1 -3.500000000000057 -3.150000000000091)">
<text x="0" y="0" stroke="none" transform="matrix(0.1 0 0 0.1 170.813 48.1878)" font-style="normal" font-weight="bold" font-size="200px" font-family="Arial">
N</text>
<text x="0" y="0" stroke="none" transform="matrix(0.1 0 0 0.1 145.316 33.7878)" font-style="normal" font-weight="bold" font-size="200px" font-family="Arial">
O</text>
<text x="0" y="0" stroke="none" transform="matrix(0.1 0 0 0.1 107.349 104.308)" font-style="normal" font-weight="bold" font-size="200px" font-family="Arial">
HN</text>
<text x="0" y="0" stroke="none" transform="matrix(0.1 0 0 0.1 164.436 129.248)" font-style="normal" font-weight="bold" font-size="200px" font-family="Arial">
O</text>
<text x="0" y="0" stroke="none" transform="matrix(0.1 0 0 0.1 121.236 154.188)" font-style="normal" font-weight="bold" font-size="200px" font-family="Arial">
O</text>
<path stroke="none" transform="matrix(0.1 0 0 0.1 -448.65 -661.4)" d="M 6204.63,7305.27 L 6207.05,7298.98 L 6213.55,7297.24 L 6404.11,7508.96 L 6395.19,7516.99 L 6204.63,7305.27 Z "/>
<path stroke="none" transform="matrix(0.1 0 0 0.1 -448.65 -661.4)" d="M 6237.02,7128.94 L 6248.76,7131.43 L 6213.55,7297.24 L 6207.05,7298.98 L 6202.08,7293.47 L 6237.02,7128.94 Z "/>
<path stroke="none" transform="matrix(0.1 0 0 0.1 -448.65 -661.4)" d="M 6186.33,7118.17 L 6198.07,7120.67 L 6170.05,7252.64 L 6158.31,7250.15 L 6186.33,7118.17 Z "/>
<path stroke="none" transform="matrix(0.1 0 0 0.1 -448.65 -661.4)" d="M 6106.68,6931.83 L 6112.68,6921.43 L 6169.63,6954.32 L 6163.63,6964.71 L 6106.68,6931.83 Z "/>
<path stroke="none" transform="matrix(0.1 0 0 0.1 -448.65 -661.4)" d="M 5810.7,7067.52 L 5803.45,7065.98 L 5801.7,7059.47 L 5933.44,6940.91 L 5941.47,6949.83 L 5810.7,7067.52 Z "/>
<path stroke="none" transform="matrix(0.1 0 0 0.1 -448.65 -661.4)" d="M 5523.99,7012.77 L 5521.85,7006.18 L 5526.48,7001.03 L 5801.7,7059.47 L 5803.45,7065.98 L 5799.21,7071.21 L 5523.99,7012.77 Z "/>
<path stroke="none" transform="matrix(0.1 0 0 0.1 -448.65 -661.4)" d="M 5331.19,7226.77 L 5326.9,7213.59 L 5515.07,7004.74 L 5521.85,7006.18 L 5523.99,7012.77 L 5331.19,7226.77 Z "/>
<path stroke="none" transform="matrix(0.1 0 0 0.1 -448.65 -661.4)" d="M 5042.61,7165.53 L 5051.88,7155.23 L 5326.9,7213.59 L 5331.19,7226.77 L 5042.61,7165.53 Z "/>
<path stroke="none" transform="matrix(0.1 0 0 0.1 -448.65 -661.4)" d="M 5086.06,7121.74 L 5088.55,7110 L 5311.79,7157.37 L 5309.3,7169.11 L 5086.06,7121.74 Z "/>
<path stroke="none" transform="matrix(0.1 0 0 0.1 -448.65 -661.4)" d="M 4953.61,6891.53 L 4958.25,6886.38 L 4965.02,6887.82 L 5051.88,7155.23 L 5042.61,7165.53 L 4953.61,6891.53 Z "/>
<path stroke="none" transform="matrix(0.1 0 0 0.1 -448.65 -661.4)" d="M 4675.4,6832.45 L 4677.89,6820.71 L 4956.1,6879.79 L 4958.25,6886.38 L 4953.61,6891.53 L 4675.4,6832.45 Z "/>
<path stroke="none" transform="matrix(0.1 0 0 0.1 -448.65 -661.4)" d="M 5148.9,6665.79 L 5153.19,6678.97 L 4965.02,6887.82 L 4958.25,6886.38 L 4956.1,6879.79 L 5148.9,6665.79 Z "/>
<path stroke="none" transform="matrix(0.1 0 0 0.1 -448.65 -661.4)" d="M 5165.09,6725.29 L 5174,6733.32 L 5021.26,6902.85 L 5012.35,6894.82 L 5165.09,6725.29 Z "/>
<path stroke="none" transform="matrix(0.1 0 0 0.1 -448.65 -661.4)" d="M 5437.48,6727.03 L 5428.21,6737.33 L 5153.19,6678.97 L 5148.9,6665.79 L 5437.48,6727.03 Z "/>
<path stroke="none" transform="matrix(0.1 0 0 0.1 -448.65 -661.4)" d="M 5428.21,6737.33 L 5437.48,6727.03 L 5526.48,7001.03 L 5521.85,7006.18 L 5515.07,7004.74 L 5428.21,6737.33 Z "/>
<path stroke="none" transform="matrix(0.1 0 0 0.1 -448.65 -661.4)" d="M 5387.07,6778.54 L 5398.49,6774.83 L 5468.98,6991.86 L 5457.57,6995.57 L 5387.07,6778.54 Z "/>
<path stroke="none" transform="matrix(0.1 0 0 0.1 -448.65 -661.4)" d="M 5924.35,7322.75 L 5920.65,7329.18 L 5913.92,7328.83 L 5799.21,7071.21 L 5803.45,7065.98 L 5810.7,7067.52 L 5924.35,7322.75 Z "/>
<path stroke="none" transform="matrix(0.1 0 0 0.1 -448.65 -661.4)" d="M 5958.17,7271.21 L 5947.21,7276.09 L 5860.67,7081.75 L 5871.63,7076.87 L 5958.17,7271.21 Z "/>
<path stroke="none" transform="matrix(0.1 0 0 0.1 -448.65 -661.4)" d="M 5924.31,7334.82 L 5920.65,7329.18 L 5924.35,7322.75 L 6202.08,7293.47 L 6207.05,7298.98 L 6204.63,7305.27 L 5924.31,7334.82 Z "/>
<path stroke="none" transform="matrix(0.1 0 0 0.1 -448.65 -661.4)" d="M 5841.27,7478.65 L 5830.88,7472.65 L 5913.92,7328.83 L 5920.65,7329.18 L 5924.31,7334.82 L 5841.27,7478.65 Z "/>
<path stroke="none" transform="matrix(0.1 0 0 0.1 -448.65 -661.4)" d="M 5927.57,7827.98 L 5913.72,7827.98 L 5833.19,7688.51 L 5843.58,7682.51 L 5927.57,7827.98 Z "/>
<path stroke="none" transform="matrix(0.1 0 0 0.1 -448.65 -661.4)" d="M 6107.86,7796.06 L 6107.86,7808.06 L 5905.68,7808.06 L 5905.68,7796.06 L 6107.86,7796.06 Z "/>
<path stroke="none" transform="matrix(0.1 0 0 0.1 -448.65 -661.4)" d="M 6107.86,7847.9 L 6107.86,7859.9 L 5905.68,7859.9 L 5905.68,7847.9 L 6107.86,7847.9 Z "/>
<path stroke="none" transform="matrix(0.1 0 0 0.1 -448.65 -661.4)" d="M 5833.92,7990.18 L 5823.53,7984.18 L 5913.72,7827.98 L 5927.57,7827.98 L 5833.92,7990.18 Z "/>
<path stroke="none" transform="matrix(0.1 0 0 0.1 -448.65 -661.4)" d="M 5924.11,8320.78 L 5920.65,8326.78 L 5913.72,8326.78 L 5826.21,8175.21 L 5836.6,8169.21 L 5924.11,8320.78 Z "/>
<path stroke="none" transform="matrix(0.1 0 0 0.1 -448.65 -661.4)" d="M 6208.65,8320.78 L 6208.65,8332.78 L 5924.11,8332.78 L 5920.65,8326.78 L 5924.11,8320.78 L 6208.65,8320.78 Z "/>
<path stroke="none" transform="matrix(0.1 0 0 0.1 -448.65 -661.4)" d="M 5783.57,8576.18 L 5776.65,8576.18 L 5773.18,8570.18 L 5913.72,8326.78 L 5920.65,8326.78 L 5924.11,8332.78 L 5783.57,8576.18 Z "/>
<path stroke="none" transform="matrix(0.1 0 0 0.1 -448.65 -661.4)" d="M 5492.11,8582.18 L 5485.18,8570.18 L 5773.18,8570.18 L 5776.65,8576.18 L 5773.18,8582.18 L 5492.11,8582.18 Z "/>
<path stroke="none" transform="matrix(0.1 0 0 0.1 -448.65 -661.4)" d="M 5351.57,8825.58 L 5337.72,8825.58 L 5485.18,8570.18 L 5492.11,8582.18 L 5351.57,8825.58 Z "/>
<path stroke="none" transform="matrix(0.1 0 0 0.1 -448.65 -661.4)" d="M 5409.7,8828.58 L 5399.31,8822.58 L 5513.38,8625.02 L 5523.77,8631.02 L 5409.7,8828.58 Z "/>
<path stroke="none" transform="matrix(0.1 0 0 0.1 -448.65 -661.4)" d="M 5492.11,9068.98 L 5485.18,9080.98 L 5337.72,8825.58 L 5351.57,8825.58 L 5492.11,9068.98 Z "/>
<path stroke="none" transform="matrix(0.1 0 0 0.1 -448.65 -661.4)" d="M 5773.18,9068.98 L 5780.11,9080.98 L 5485.18,9080.98 L 5492.11,9068.98 L 5773.18,9068.98 Z "/>
<path stroke="none" transform="matrix(0.1 0 0 0.1 -448.65 -661.4)" d="M 5746.72,9017.14 L 5746.72,9029.14 L 5518.57,9029.14 L 5518.57,9017.14 L 5746.72,9017.14 Z "/>
<path stroke="none" transform="matrix(0.1 0 0 0.1 -448.65 -661.4)" d="M 5913.72,8825.58 L 5927.57,8825.58 L 5780.11,9080.98 L 5773.18,9068.98 L 5913.72,8825.58 Z "/>
<path stroke="none" transform="matrix(0.1 0 0 0.1 -448.65 -661.4)" d="M 5927.57,8825.58 L 5913.72,8825.58 L 5773.18,8582.18 L 5776.65,8576.18 L 5783.57,8576.18 L 5927.57,8825.58 Z "/>
<path stroke="none" transform="matrix(0.1 0 0 0.1 -448.65 -661.4)" d="M 5865.98,8822.58 L 5855.59,8828.58 L 5741.52,8631.02 L 5751.91,8625.02 L 5865.98,8822.58 Z "/>
<path stroke="none" transform="matrix(0.1 0 0 0.1 -448.65 -661.4)" d="M 4541.5,6809.5 A 144,144 0 1 0 4829.5,6809.5A 144,144 0 1 0 4541.5,6809.5Z " class="connection_in" stroke-width="18px"/>
</g>
</svg>