<svg xmlns="http://www.w3.org/2000/svg" xmlns:xlink="http://www.w3.org/1999/xlink" viewBox="0 0 204.73999999999995 192.5859999999999" style="background-color: #ffffff00" version="1.1">
<g transform="matrix(1 0 0 1 -2.6100000000000705 -2.0140000000001237)">
<path stroke="none" transform="matrix(0.1 0 0 0.1 -424.65 -612.4)" d="M 5046.8,7172.14 L 5046.8,7179.07 L 5040.8,7182.54 L 4794.4,7040.27 L 4800.4,7029.88 L 5046.8,7172.14 Z "/>
<path stroke="none" transform="matrix(0.1 0 0 0.1 -424.65 -612.4)" d="M 5052.8,7463.61 L 5046.8,7467.07 L 5040.8,7463.61 L 5040.8,7182.54 L 5046.8,7179.07 L 5052.8,7182.54 L 5052.8,7463.61 Z "/>
<path stroke="none" transform="matrix(0.1 0 0 0.1 -424.65 -612.4)" d="M 4803.4,7614.54 L 4797.4,7611.07 L 4797.4,7604.14 L 5040.8,7463.61 L 5046.8,7467.07 L 5046.8,7474 L 4803.4,7614.54 Z "/>
<path stroke="none" transform="matrix(0.1 0 0 0.1 -424.65 -612.4)" d="M 4548,7474 L 4548,7460.14 L 4797.4,7604.14 L 4797.4,7611.07 L 4791.4,7614.54 L 4548,7474 Z "/>
<path stroke="none" transform="matrix(0.1 0 0 0.1 -424.65 -612.4)" d="M 4304.6,7614.54 L 4292.6,7607.61 L 4548,7460.14 L 4548,7474 L 4304.6,7614.54 Z "/>
<path stroke="none" transform="matrix(0.1 0 0 0.1 -424.65 -612.4)" d="M 4304.6,7895.61 L 4292.6,7902.54 L 4292.6,7607.61 L 4304.6,7614.54 L 4304.6,7895.61 Z "/>
<path stroke="none" transform="matrix(0.1 0 0 0.1 -424.65 -612.4)" d="M 4548,8036.14 L 4548,8050 L 4292.6,7902.54 L 4304.6,7895.61 L 4548,8036.14 Z "/>
<path stroke="none" transform="matrix(0.1 0 0 0.1 -424.65 -612.4)" d="M 4791.4,7895.61 L 4803.4,7902.54 L 4548,8050 L 4548,8036.14 L 4791.4,7895.61 Z "/>
<path stroke="none" transform="matrix(0.1 0 0 0.1 -424.65 -612.4)" d="M 4803.4,7902.54 L 4791.4,7895.61 L 4791.4,7614.54 L 4797.4,7611.07 L 4803.4,7614.54 L 4803.4,7902.54 Z "/>
<path stroke="none" transform="matrix(0.1 0 0 0.1 -424.65 -612.4)" d="M 5296.2,7604.14 L 5296.2,7618 L 5046.8,7474 L 5046.8,7467.07 L 5052.8,7463.61 L 5296.2,7604.14 Z "/>
<path stroke="none" transform="matrix(0.1 0 0 0.1 -424.65 -612.4)" d="M 5299.2,7546.02 L 5293.2,7556.41 L 5095.64,7442.34 L 5101.64,7431.95 L 5299.2,7546.02 Z "/>
<path stroke="none" transform="matrix(0.1 0 0 0.1 -424.65 -612.4)" d="M 5539.6,7463.61 L 5545.6,7467.07 L 5545.6,7474 L 5296.2,7618 L 5296.2,7604.14 L 5539.6,7463.61 Z "/>
<path stroke="none" transform="matrix(0.1 0 0 0.1 -424.65 -612.4)" d="M 5795,7604.14 L 5795,7611.07 L 5789,7614.54 L 5545.6,7474 L 5545.6,7467.07 L 5551.6,7463.61 L 5795,7604.14 Z "/>
<path stroke="none" transform="matrix(0.1 0 0 0.1 -424.65 -612.4)" d="M 5801,7895.61 L 5789,7902.54 L 5789,7614.54 L 5795,7611.07 L 5801,7614.54 L 5801,7895.61 Z "/>
<path stroke="none" transform="matrix(0.1 0 0 0.1 -424.65 -612.4)" d="M 6044.6,8036.14 L 6044.6,8050 L 5789,7902.54 L 5801,7895.61 L 6044.6,8036.14 Z "/>
<path stroke="none" transform="matrix(0.1 0 0 0.1 -424.65 -612.4)" d="M 6288,7895.61 L 6300,7902.54 L 6044.6,8050 L 6044.6,8036.14 L 6288,7895.61 Z "/>
<path stroke="none" transform="matrix(0.1 0 0 0.1 -424.65 -612.4)" d="M 6288,7614.54 L 6300,7607.61 L 6300,7902.54 L 6288,7895.61 L 6288,7614.54 Z "/>
<path stroke="none" transform="matrix(0.1 0 0 0.1 -424.65 -612.4)" d="M 6044.6,7474 L 6044.6,7460.14 L 6300,7607.61 L 6288,7614.54 L 6044.6,7474 Z "/>
<path stroke="none" transform="matrix(0.1 0 0 0.1 -424.65 -612.4)" d="M 6044.6,7460.14 L 6044.6,7474 L 5801,7614.54 L 5795,7611.07 L 5795,7604.14 L 6044.6,7460.14 Z "/>
<path stroke="none" transform="matrix(0.1 0 0 0.1 -424.65 -612.4)" d="M 5539.6,7182.54 L 5551.6,7175.61 L 5551.6,7463.61 L 5545.6,7467.07 L 5539.6,7463.61 L 5539.6,7182.54 Z "/>
<path stroke="none" transform="matrix(0.1 0 0 0.1 -424.65 -612.4)" d="M 5487.76,7209 L 5499.76,7209 L 5499.76,7437.14 L 5487.76,7437.14 L 5487.76,7209 Z "/>
<path stroke="none" transform="matrix(0.1 0 0 0.1 -424.65 -612.4)" d="M 5296.2,7042 L 5296.2,7035.07 L 5302.2,7031.61 L 5551.6,7175.61 L 5539.6,7182.54 L 5296.2,7042 Z "/>
<path stroke="none" transform="matrix(0.1 0 0 0.1 -424.65 -612.4)" d="M 5290.2,7031.61 L 5296.2,7035.07 L 5296.2,7042 L 5052.8,7182.54 L 5046.8,7179.07 L 5046.8,7172.14 L 5290.2,7031.61 Z "/>
<path stroke="none" transform="matrix(0.1 0 0 0.1 -424.65 -612.4)" d="M 5293.2,7089.73 L 5299.2,7100.13 L 5101.64,7214.2 L 5095.64,7203.8 L 5293.2,7089.73 Z "/>
<path stroke="none" transform="matrix(0.1 0 0 0.1 -424.65 -612.4)" d="M 5290.2,6750.54 L 5296.2,6747.07 L 5302.2,6750.54 L 5302.2,7031.61 L 5296.2,7035.07 L 5290.2,7031.61 L 5290.2,6750.54 Z "/>
<path stroke="none" transform="matrix(0.1 0 0 0.1 -424.65 -612.4)" d="M 5539.6,6599.61 L 5551.6,6606.54 L 5302.2,6750.54 L 5296.2,6747.07 L 5296.2,6740.14 L 5539.6,6599.61 Z "/>
<path stroke="none" transform="matrix(0.1 0 0 0.1 -424.65 -612.4)" d="M 5539.6,6318.54 L 5551.6,6311.61 L 5551.6,6606.54 L 5539.6,6599.61 L 5539.6,6318.54 Z "/>
<path stroke="none" transform="matrix(0.1 0 0 0.1 -424.65 -612.4)" d="M 5296.2,6178 L 5296.2,6164.14 L 5551.6,6311.61 L 5539.6,6318.54 L 5296.2,6178 Z "/>
<path stroke="none" transform="matrix(0.1 0 0 0.1 -424.65 -612.4)" d="M 5052.8,6318.54 L 5040.8,6311.61 L 5296.2,6164.14 L 5296.2,6178 L 5052.8,6318.54 Z "/>
<path stroke="none" transform="matrix(0.1 0 0 0.1 -424.65 -612.4)" d="M 5052.8,6599.61 L 5040.8,6606.54 L 5040.8,6311.61 L 5052.8,6318.54 L 5052.8,6599.61 Z "/>
<path stroke="none" transform="matrix(0.1 0 0 0.1 -424.65 -612.4)" d="M 5040.8,6606.54 L 5052.8,6599.61 L 5296.2,6740.14 L 5296.2,6747.07 L 5290.2,6750.54 L 5040.8,6606.54 Z "/>
<path stroke="none" transform="matrix(0.1 0 0 0.1 -424.65 -612.4)" d="M 4621.5,6999.5 A 144,144 0 1 0 4909.5,6999.5A 144,144 0 1 0 4621.5,6999.5Z " class="connection_in" stroke-width="18px"/>
</g>
</svg>