<svg xmlns="http://www.w3.org/2000/svg" xmlns:xlink="http://www.w3.org/1999/xlink" viewBox="0 0 156.96799999999993 174.40800000000002" style="background-color: #ffffff00" version="1.1">
<g transform="matrix(1 0 0 1 -3.500000000000057 0.5269999999999992)">
<text x="0" y="0" stroke="none" transform="matrix(0.1 0 0 0.1 38.6959 150.932)" font-style="normal" font-weight="bold" font-size="200px" font-family="Arial">
O</text>
<text x="0" y="0" stroke="none" transform="matrix(0.1 0 0 0.1 88.5882 150.916)" font-style="normal" font-weight="bold" font-size="200px" font-family="Arial">
O</text>
<text x="0" y="0" stroke="none" transform="matrix(0.1 0 0 0.1 64.2003 21.3217)" font-style="normal" font-weight="bold" font-size="200px" font-family="Arial">
NH</text>
<text x="0" y="0" stroke="none" transform="matrix(0.1 0 0 0.1 93.087 25.6217)" font-style="normal" font-weight="bold" font-size="150px" font-family="Arial">
2</text>
<text x="0" y="0" stroke="none" transform="matrix(0.1 0 0 0.1 114.083 50.1217)" font-style="normal" font-weight="bold" font-size="200px" font-family="Arial">
N</text>
<text x="0" y="0" stroke="none" transform="matrix(0.1 0 0 0.1 128.527 42.2717)" font-style="normal" font-weight="bold" font-size="150px" font-family="Arial">
+</text>
<text x="0" y="0" stroke="none" transform="matrix(0.1 0 0 0.1 138.468 64.5217)" font-style="normal" font-weight="bold" font-size="200px" font-family="Arial">
O</text>
<text x="0" y="0" stroke="none" transform="matrix(0.1 0 0 0.1 113.526 21.323)" font-style="normal" font-weight="bold" font-size="200px" font-family="Arial">
O</text>
<text x="0" y="0" stroke="none" transform="matrix(0.1 0 0 0.1 129.083 13.473)" font-style="normal" font-weight="bold" font-size="150px" font-family="Arial">
-</text>
<path stroke="none" transform="matrix(0.1 0 0 0.1 -473.65 -501.8)" d="M 5195.25,6556.99 L 5207.25,6556.99 L 5207.25,6736.81 L 5195.25,6736.81 L 5195.25,6556.99 Z "/>
<path stroke="none" transform="matrix(0.1 0 0 0.1 -473.65 -501.8)" d="M 5444.75,6301.2 L 5456.75,6308.13 L 5293.72,6402.32 L 5287.72,6391.93 L 5444.75,6301.2 Z "/>
<path stroke="none" transform="matrix(0.1 0 0 0.1 -473.65 -501.8)" d="M 5627.08,6369.61 L 5621.08,6380 L 5447.75,6279.93 L 5453.75,6269.54 L 5627.08,6369.61 Z "/>
<path stroke="none" transform="matrix(0.1 0 0 0.1 -473.65 -501.8)" d="M 5601.16,6414.5 L 5595.16,6424.9 L 5421.84,6324.83 L 5427.84,6314.44 L 5601.16,6414.5 Z "/>
<path stroke="none" transform="matrix(0.1 0 0 0.1 -473.65 -501.8)" d="M 5444.74,6020.14 L 5450.74,6016.68 L 5456.74,6020.14 L 5456.75,6308.13 L 5444.75,6301.2 L 5444.74,6020.14 Z "/>
<path stroke="none" transform="matrix(0.1 0 0 0.1 -473.65 -501.8)" d="M 5195.33,5876.14 L 5207.33,5869.21 L 5450.74,6009.75 L 5450.74,6016.68 L 5444.74,6020.14 L 5195.33,5876.14 Z "/>
<path stroke="none" transform="matrix(0.1 0 0 0.1 -473.65 -501.8)" d="M 5195.32,5588.15 L 5201.32,5584.69 L 5207.32,5588.15 L 5207.33,5869.21 L 5195.33,5876.14 L 5195.32,5588.15 Z "/>
<path stroke="none" transform="matrix(0.1 0 0 0.1 -473.65 -501.8)" d="M 5247.16,5614.62 L 5259.16,5614.62 L 5259.16,5842.75 L 5247.16,5842.75 L 5247.16,5614.62 Z "/>
<path stroke="none" transform="matrix(0.1 0 0 0.1 -473.65 -501.8)" d="M 4948.9,5445.89 L 4954.9,5435.49 L 5201.32,5577.76 L 5201.32,5584.69 L 5195.32,5588.15 L 4948.9,5445.89 Z "/>
<path stroke="none" transform="matrix(0.1 0 0 0.1 -473.65 -501.8)" d="M 5444.73,5437.24 L 5450.73,5440.7 L 5450.73,5447.63 L 5207.32,5588.15 L 5201.32,5584.69 L 5201.32,5577.76 L 5444.73,5437.24 Z "/>
<path stroke="none" transform="matrix(0.1 0 0 0.1 -473.65 -501.8)" d="M 5444.72,5258.38 L 5456.72,5258.38 L 5456.73,5437.24 L 5450.73,5440.7 L 5444.73,5437.24 L 5444.72,5258.38 Z "/>
<path stroke="none" transform="matrix(0.1 0 0 0.1 -473.65 -501.8)" d="M 5700.14,5577.78 L 5700.14,5584.7 L 5694.14,5588.17 L 5450.73,5447.63 L 5450.73,5440.7 L 5456.73,5437.24 L 5700.14,5577.78 Z "/>
<path stroke="none" transform="matrix(0.1 0 0 0.1 -473.65 -501.8)" d="M 5651.3,5609.44 L 5645.3,5619.83 L 5447.73,5505.76 L 5453.73,5495.37 L 5651.3,5609.44 Z "/>
<path stroke="none" transform="matrix(0.1 0 0 0.1 -473.65 -501.8)" d="M 5843.95,5494.75 L 5849.95,5505.14 L 5706.14,5588.17 L 5700.14,5584.7 L 5700.14,5577.78 L 5843.95,5494.75 Z "/>
<path stroke="none" transform="matrix(0.1 0 0 0.1 -473.65 -501.8)" d="M 6125.88,5505.66 L 6119.88,5516.05 L 6061.03,5482.08 L 6067.03,5471.69 L 6125.88,5505.66 Z "/>
<path stroke="none" transform="matrix(0.1 0 0 0.1 -473.65 -501.8)" d="M 6099.96,5550.56 L 6093.96,5560.95 L 6035.11,5526.97 L 6041.11,5516.58 L 6099.96,5550.56 Z "/>
<path stroke="none" transform="matrix(0.1 0 0 0.1 -473.65 -501.8)" d="M 5943.55,5260.9 L 5955.55,5260.9 L 5955.55,5340.55 L 5943.55,5340.55 L 5943.55,5260.9 Z "/>
<path stroke="none" transform="matrix(0.1 0 0 0.1 -473.65 -501.8)" d="M 5706.15,5876.15 L 5694.15,5869.23 L 5694.14,5588.17 L 5700.14,5584.7 L 5706.14,5588.17 L 5706.15,5876.15 Z "/>
<path stroke="none" transform="matrix(0.1 0 0 0.1 -473.65 -501.8)" d="M 5694.15,5869.23 L 5706.15,5876.15 L 5456.74,6020.14 L 5450.74,6016.68 L 5450.74,6009.75 L 5694.15,5869.23 Z "/>
<path stroke="none" transform="matrix(0.1 0 0 0.1 -473.65 -501.8)" d="M 5645.31,5837.57 L 5651.31,5847.96 L 5453.74,5962.02 L 5447.74,5951.62 L 5645.31,5837.57 Z "/>
<path stroke="none" transform="matrix(0.1 0 0 0.1 -473.65 -501.8)" d="M 4791.5,5409.5 A 144,144 0 1 0 5079.5,5409.5A 144,144 0 1 0 4791.5,5409.5Z " class="connection_in" stroke-width="18px"/>
</g>
</svg>