<svg viewBox="0 0 234 159" xmlns="http://www.w3.org/2000/svg">
<text x="0" y="0" transform="matrix(0.1 0 0 0.1 133.017 27.4863)" font-size="200px">CH</text>
<text x="0" y="0" transform="matrix(0.1 0 0 0.1 161.904 31.7863)" font-size="150px">3</text>
<text x="0" y="0" transform="matrix(0.1 0 0 0.1 172.85 21.4984)" font-size="200px">CH</text>
<text x="0" y="0" transform="matrix(0.1 0 0 0.1 201.737 25.7984)" font-size="150px">3</text>
<text x="0" y="0" transform="matrix(0.1 0 0 0.1 192.121 42.901)" font-size="200px">CH</text>
<text x="0" y="0" transform="matrix(0.1 0 0 0.1 221.008 47.201)" font-size="150px">3</text>
<text x="0" y="0" transform="matrix(0.1 0 0 0.1 154.533 76.2792)" font-size="200px">O</text>
<text x="0" y="0" transform="matrix(0.1 0 0 0.1 107.091 60.8646)" font-size="200px">O</text>
<text x="0" y="0" transform="matrix(0.1 0 0 0.1 118.016 109.657)" font-size="200px">N</text>
<path transform="matrix(0.1 0 0 0.1 -398.65 -535.4)" d="M 5695.73,5752.65 L 5698.22,5764.39 L 5691.44,5765.83 L 5650.2,5720.02 L 5659.11,5711.99 L 5695.73,5752.65 Z " />
<path transform="matrix(0.1 0 0 0.1 -398.65 -535.4)" d="M 5748.18,5591.21 L 5759.59,5594.92 L 5707.14,5756.36 L 5698.22,5764.39 L 5695.73,5752.65 L 5748.18,5591.21 Z " />
<path transform="matrix(0.1 0 0 0.1 -398.65 -535.4)" d="M 5884.24,5718.71 L 5886.74,5730.45 L 5702.86,5769.54 L 5698.22,5764.39 L 5707.14,5756.36 L 5884.24,5718.71 Z " />
<path transform="matrix(0.1 0 0 0.1 -398.65 -535.4)" d="M 5646.67,5942.45 L 5635.26,5938.74 L 5691.44,5765.83 L 5698.22,5764.39 L 5702.86,5769.54 L 5646.67,5942.45 Z " />
<path transform="matrix(0.1 0 0 0.1 -398.65 -535.4)" d="M 5332.15,6103.32 L 5322.88,6093.02 L 5508,6053.67 L 5510.49,6065.41 L 5332.15,6103.32 Z " />
<path transform="matrix(0.1 0 0 0.1 -398.65 -535.4)" d="M 5183.91,5986.39 L 5192.83,5978.36 L 5322.73,6122.62 L 5313.81,6130.65 L 5183.91,5986.39 Z " />
<path transform="matrix(0.1 0 0 0.1 -398.65 -535.4)" d="M 5222.44,5951.7 L 5231.36,5943.67 L 5361.25,6087.93 L 5352.33,6095.96 L 5222.44,5951.7 Z " />
<path transform="matrix(0.1 0 0 0.1 -398.65 -535.4)" d="M 5279.12,6266.54 L 5267.71,6262.83 L 5322.88,6093.02 L 5332.15,6103.32 L 5279.12,6266.54 Z " />
<path transform="matrix(0.1 0 0 0.1 -398.65 -535.4)" d="M 5415.22,6605.07 L 5400.39,6605.07 L 5306.64,6476.04 L 5316.34,6468.98 L 5415.22,6605.07 Z " />
<path transform="matrix(0.1 0 0 0.1 -398.65 -535.4)" d="M 5240.81,6845.12 L 5236.23,6831.02 L 5400.39,6605.07 L 5415.22,6605.07 L 5240.81,6845.12 Z " />
<path transform="matrix(0.1 0 0 0.1 -398.65 -535.4)" d="M 5223.57,6780.65 L 5213.87,6773.6 L 5338.87,6601.55 L 5348.58,6608.6 L 5223.57,6780.65 Z " />
<path transform="matrix(0.1 0 0 0.1 -398.65 -535.4)" d="M 4965.3,6755.6 L 4964.62,6749.07 L 4970.62,6744.71 L 5236.23,6831.02 L 5240.81,6845.12 L 4965.3,6755.6 Z " />
<path transform="matrix(0.1 0 0 0.1 -398.65 -535.4)" d="M 4715.2,6900 L 4715.2,6886.14 L 4958.62,6745.61 L 4964.62,6749.07 L 4965.3,6755.6 L 4715.2,6900 Z " />
<path transform="matrix(0.1 0 0 0.1 -398.65 -535.4)" d="M 4718.2,6838.41 L 4712.2,6828.02 L 4909.78,6713.95 L 4915.78,6724.34 L 4718.2,6838.41 Z " />
<path transform="matrix(0.1 0 0 0.1 -398.65 -535.4)" d="M 4459.79,6752.54 L 4471.79,6745.61 L 4715.2,6886.14 L 4715.2,6900 L 4459.79,6752.54 Z " />
<path transform="matrix(0.1 0 0 0.1 -398.65 -535.4)" d="M 4459.79,6464.54 L 4465.79,6461.07 L 4471.79,6464.54 L 4471.79,6745.61 L 4459.79,6752.54 L 4459.79,6464.54 Z " />
<path transform="matrix(0.1 0 0 0.1 -398.65 -535.4)" d="M 4511.63,6491 L 4523.63,6491 L 4523.63,6719.14 L 4511.63,6719.14 L 4511.63,6491 Z " />
<path transform="matrix(0.1 0 0 0.1 -398.65 -535.4)" d="M 4213.37,6322.27 L 4219.37,6311.88 L 4465.79,6454.14 L 4465.79,6461.07 L 4459.79,6464.54 L 4213.37,6322.27 Z " />
<path transform="matrix(0.1 0 0 0.1 -398.65 -535.4)" d="M 4715.2,6310.14 L 4715.2,6324 L 4471.79,6464.54 L 4465.79,6461.07 L 4465.79,6454.14 L 4715.2,6310.14 Z " />
<path transform="matrix(0.1 0 0 0.1 -398.65 -535.4)" d="M 4965.3,6454.54 L 4964.62,6461.07 L 4958.62,6464.54 L 4715.2,6324 L 4715.2,6310.14 L 4965.3,6454.54 Z " />
<path transform="matrix(0.1 0 0 0.1 -398.65 -535.4)" d="M 4915.78,6485.81 L 4909.78,6496.2 L 4712.2,6382.13 L 4718.2,6371.74 L 4915.78,6485.81 Z " />
<path transform="matrix(0.1 0 0 0.1 -398.65 -535.4)" d="M 4958.62,6464.54 L 4964.62,6461.07 L 4970.62,6465.43 L 4970.62,6744.71 L 4964.62,6749.07 L 4958.62,6745.61 L 4958.62,6464.54 Z " />
<path transform="matrix(0.1 0 0 0.1 -398.65 -535.4)" d="M 4970.62,6465.43 L 4964.62,6461.07 L 4965.3,6454.54 L 5137.81,6398.49 L 5141.52,6409.9 L 4970.62,6465.43 Z " />
<path class="connection_in" transform="matrix(0.1 0 0 0.1 -398.65 -535.4)" d="M 4041.3,6318.6 A 172.8,172.8 0 1 0 4386.9,6318.6A 172.8,172.8 0 1 0 4041.3,6318.6Z " />
</svg>
