<svg xmlns="http://www.w3.org/2000/svg" xmlns:xlink="http://www.w3.org/1999/xlink" viewBox="0 0 242.51499999999993 100.9" style="background-color: #ffffff00" version="1.1">
<g transform="matrix(1 0 0 1 -3.500000000000057 -3.5)">
<text x="0" y="0" stroke="none" transform="matrix(0.1 0 0 0.1 186.057 59.2)" font-style="normal" font-weight="bold" font-size="200px" font-family="Arial">
O</text>
<text x="0" y="0" stroke="none" transform="matrix(0.1 0 0 0.1 161.117 102.4)" font-style="normal" font-weight="bold" font-size="200px" font-family="Arial">
O</text>
<text x="0" y="0" stroke="none" transform="matrix(0.1 0 0 0.1 136.733 59.2)" font-style="normal" font-weight="bold" font-size="200px" font-family="Arial">
N</text>
<text x="0" y="0" stroke="none" transform="matrix(0.1 0 0 0.1 59.4733 21.5)" font-style="normal" font-weight="bold" font-size="200px" font-family="Arial">
N</text>
<text x="0" y="0" stroke="none" transform="matrix(0.1 0 0 0.1 60.0251 68.1)" font-style="normal" font-weight="bold" font-size="200px" font-family="Arial">
S</text>
<path stroke="none" transform="matrix(0.1 0 0 0.1 -406.65 -656.4)" d="M 6248.25,7224.96 L 6254.25,7221.5 L 6260.25,7231.89 L 6260.25,7509.5 L 6248.25,7509.5 L 6248.25,7224.96 Z "/>
<path stroke="none" transform="matrix(0.1 0 0 0.1 -406.65 -656.4)" d="M 6506.65,7360.3 L 6500.65,7370.7 L 6260.25,7231.89 L 6254.25,7221.5 L 6266.25,7221.5 L 6506.65,7360.3 Z "/>
<path stroke="none" transform="matrix(0.1 0 0 0.1 -406.65 -656.4)" d="M 6500.65,7072.3 L 6506.65,7082.7 L 6266.25,7221.5 L 6254.25,7221.5 L 6254.25,7214.57 L 6500.65,7072.3 Z "/>
<path stroke="none" transform="matrix(0.1 0 0 0.1 -406.65 -656.4)" d="M 6094.08,7135.95 L 6100.08,7125.56 L 6254.25,7214.57 L 6254.25,7221.5 L 6248.25,7224.96 L 6094.08,7135.95 Z "/>
<path stroke="none" transform="matrix(0.1 0 0 0.1 -406.65 -656.4)" d="M 5755.45,7228.43 L 5755.45,7214.57 L 5910.06,7125.3 L 5916.06,7135.69 L 5755.45,7228.43 Z "/>
<path stroke="none" transform="matrix(0.1 0 0 0.1 -406.65 -656.4)" d="M 5787.37,7406.67 L 5775.37,7406.67 L 5775.37,7206.53 L 5787.37,7206.53 L 5787.37,7406.67 Z "/>
<path stroke="none" transform="matrix(0.1 0 0 0.1 -406.65 -656.4)" d="M 5735.53,7406.67 L 5723.53,7406.67 L 5723.53,7206.53 L 5735.53,7206.53 L 5735.53,7406.67 Z "/>
<path stroke="none" transform="matrix(0.1 0 0 0.1 -406.65 -656.4)" d="M 5604.5,7141.27 L 5610.5,7130.88 L 5755.45,7214.57 L 5755.45,7228.43 L 5604.5,7141.27 Z "/>
<path stroke="none" transform="matrix(0.1 0 0 0.1 -406.65 -656.4)" d="M 5500.05,6792.96 L 5512.05,6786.04 L 5512.05,6977.17 L 5500.05,6977.17 L 5500.05,6792.96 Z "/>
<path stroke="none" transform="matrix(0.1 0 0 0.1 -406.65 -656.4)" d="M 5256.65,6652.43 L 5256.65,6638.57 L 5512.05,6786.04 L 5500.05,6792.96 L 5256.65,6652.43 Z "/>
<path stroke="none" transform="matrix(0.1 0 0 0.1 -406.65 -656.4)" d="M 5013.25,6792.96 L 5007.25,6789.5 L 5006.56,6782.97 L 5256.65,6638.57 L 5256.65,6652.43 L 5013.25,6792.96 Z "/>
<path stroke="none" transform="matrix(0.1 0 0 0.1 -406.65 -656.4)" d="M 4829.43,6738.01 L 4833.14,6726.6 L 5006.56,6782.97 L 5007.25,6789.5 L 5001.25,6793.86 L 4829.43,6738.01 Z "/>
<path stroke="none" transform="matrix(0.1 0 0 0.1 -406.65 -656.4)" d="M 4571.47,6933.5 L 4564.05,6933.5 L 4560.99,6927.5 L 4654.96,6798.26 L 4664.66,6805.32 L 4571.47,6933.5 Z "/>
<path stroke="none" transform="matrix(0.1 0 0 0.1 -406.65 -656.4)" d="M 4633.01,6937.03 L 4623.31,6929.97 L 4696.9,6828.75 L 4706.6,6835.81 L 4633.01,6937.03 Z "/>
<path stroke="none" transform="matrix(0.1 0 0 0.1 -406.65 -656.4)" d="M 4276.05,6939.5 L 4276.05,6927.5 L 4560.99,6927.5 L 4564.05,6933.5 L 4560.99,6939.5 L 4276.05,6939.5 Z "/>
<path stroke="none" transform="matrix(0.1 0 0 0.1 -406.65 -656.4)" d="M 4677.04,7078.71 L 4667.33,7085.76 L 4560.99,6939.5 L 4564.05,6933.5 L 4571.47,6933.5 L 4677.04,7078.71 Z "/>
<path stroke="none" transform="matrix(0.1 0 0 0.1 -406.65 -656.4)" d="M 5001.25,7073.14 L 5007.25,7077.5 L 5006.56,7084.03 L 4823.53,7143.53 L 4819.82,7132.12 L 5001.25,7073.14 Z "/>
<path stroke="none" transform="matrix(0.1 0 0 0.1 -406.65 -656.4)" d="M 5013.25,7074.04 L 5007.25,7077.5 L 5001.25,7073.14 L 5001.25,6793.86 L 5007.25,6789.5 L 5013.25,6792.96 L 5013.25,7074.04 Z "/>
<path stroke="none" transform="matrix(0.1 0 0 0.1 -406.65 -656.4)" d="M 4961.41,7039.84 L 4949.41,7039.84 L 4949.41,6827.16 L 4961.41,6827.16 L 4961.41,7039.84 Z "/>
<path stroke="none" transform="matrix(0.1 0 0 0.1 -406.65 -656.4)" d="M 5256.65,7214.57 L 5256.65,7228.43 L 5006.56,7084.03 L 5007.25,7077.5 L 5013.25,7074.04 L 5256.65,7214.57 Z "/>
<path stroke="none" transform="matrix(0.1 0 0 0.1 -406.65 -656.4)" d="M 5256.65,7228.43 L 5256.65,7214.57 L 5400.53,7131.5 L 5406.53,7141.89 L 5256.65,7228.43 Z "/>
<path stroke="none" transform="matrix(0.1 0 0 0.1 -406.65 -656.4)" d="M 4121.5,6919.5 A 144,144 0 1 0 4409.5,6919.5A 144,144 0 1 0 4121.5,6919.5Z " class="connection_in" stroke-width="18px"/>
</g>
</svg>