<svg xmlns="http://www.w3.org/2000/svg" xmlns:xlink="http://www.w3.org/1999/xlink" viewBox="0 0 169.108 155.942" style="background-color: #ffffff00" version="1.1">
<g transform="matrix(1 0 0 1 -3.500000000000057 -3.150000000000091)">
<text x="0" y="0" stroke="none" transform="matrix(0.1 0 0 0.1 116.748 35.5026)" font-style="normal" font-weight="bold" font-size="200px" font-family="Arial">
N</text>
<text x="0" y="0" stroke="none" transform="matrix(0.1 0 0 0.1 15.6416 87.6026)" font-style="normal" font-weight="bold" font-size="200px" font-family="Arial">
F</text>
<text x="0" y="0" stroke="none" transform="matrix(0.1 0 0 0.1 116.748 82.1026)" font-style="normal" font-weight="bold" font-size="200px" font-family="Arial">
N</text>
<path stroke="none" transform="matrix(0.1 0 0 0.1 -442.65 -625.4)" d="M 5838.46,6769.53 L 5835.4,6763.53 L 5838.46,6757.53 L 6123.4,6757.53 L 6123.4,6769.53 L 5838.46,6769.53 Z "/>
<path stroke="none" transform="matrix(0.1 0 0 0.1 -442.65 -625.4)" d="M 5734.43,6634.7 L 5744.14,6627.65 L 5838.46,6757.53 L 5835.4,6763.53 L 5827.98,6763.53 L 5734.43,6634.7 Z "/>
<path stroke="none" transform="matrix(0.1 0 0 0.1 -442.65 -625.4)" d="M 5692.49,6665.15 L 5702.2,6658.1 L 5776.2,6760 L 5766.49,6767.05 L 5692.49,6665.15 Z "/>
<path stroke="none" transform="matrix(0.1 0 0 0.1 -442.65 -625.4)" d="M 5398.2,6623.89 L 5392.2,6619.53 L 5392.89,6612.99 L 5565.21,6557.02 L 5568.92,6568.43 L 5398.2,6623.89 Z "/>
<path stroke="none" transform="matrix(0.1 0 0 0.1 -442.65 -625.4)" d="M 5142.8,6482.45 L 5142.8,6468.6 L 5392.89,6612.99 L 5392.2,6619.53 L 5386.2,6622.99 L 5142.8,6482.45 Z "/>
<path stroke="none" transform="matrix(0.1 0 0 0.1 -442.65 -625.4)" d="M 5139.8,6540.58 L 5145.8,6530.19 L 5343.36,6644.26 L 5337.36,6654.65 L 5139.8,6540.58 Z "/>
<path stroke="none" transform="matrix(0.1 0 0 0.1 -442.65 -625.4)" d="M 4899.4,6622.99 L 4893.4,6619.53 L 4893.4,6612.6 L 5142.8,6468.6 L 5142.8,6482.45 L 4899.4,6622.99 Z "/>
<path stroke="none" transform="matrix(0.1 0 0 0.1 -442.65 -625.4)" d="M 4641,6480.72 L 4647,6470.33 L 4893.4,6612.6 L 4893.4,6619.53 L 4887.4,6622.99 L 4641,6480.72 Z "/>
<path stroke="none" transform="matrix(0.1 0 0 0.1 -442.65 -625.4)" d="M 4899.4,6904.06 L 4893.4,6907.53 L 4887.4,6904.06 L 4887.4,6622.99 L 4893.4,6619.53 L 4899.4,6622.99 L 4899.4,6904.06 Z "/>
<path stroke="none" transform="matrix(0.1 0 0 0.1 -442.65 -625.4)" d="M 4951.24,6877.6 L 4939.24,6877.6 L 4939.24,6649.45 L 4951.24,6649.45 L 4951.24,6877.6 Z "/>
<path stroke="none" transform="matrix(0.1 0 0 0.1 -442.65 -625.4)" d="M 4742.49,7001.59 L 4736.49,6991.2 L 4887.4,6904.06 L 4893.4,6907.53 L 4893.4,6914.45 L 4742.49,7001.59 Z "/>
<path stroke="none" transform="matrix(0.1 0 0 0.1 -442.65 -625.4)" d="M 5142.8,7044.6 L 5142.8,7058.45 L 4893.4,6914.45 L 4893.4,6907.53 L 4899.4,6904.06 L 5142.8,7044.6 Z "/>
<path stroke="none" transform="matrix(0.1 0 0 0.1 -442.65 -625.4)" d="M 5386.2,6904.06 L 5392.2,6907.53 L 5392.89,6914.06 L 5142.8,7058.45 L 5142.8,7044.6 L 5386.2,6904.06 Z "/>
<path stroke="none" transform="matrix(0.1 0 0 0.1 -442.65 -625.4)" d="M 5337.36,6872.4 L 5343.36,6882.79 L 5145.8,6996.86 L 5139.8,6986.47 L 5337.36,6872.4 Z "/>
<path stroke="none" transform="matrix(0.1 0 0 0.1 -442.65 -625.4)" d="M 5398.2,6903.17 L 5392.2,6907.53 L 5386.2,6904.06 L 5386.2,6622.99 L 5392.2,6619.53 L 5398.2,6623.89 L 5398.2,6903.17 Z "/>
<path stroke="none" transform="matrix(0.1 0 0 0.1 -442.65 -625.4)" d="M 5568.72,6958.56 L 5565.02,6969.97 L 5392.89,6914.06 L 5392.2,6907.53 L 5398.2,6903.17 L 5568.72,6958.56 Z "/>
<path stroke="none" transform="matrix(0.1 0 0 0.1 -442.65 -625.4)" d="M 5741.61,6902.9 L 5731.9,6895.85 L 5827.98,6763.53 L 5835.4,6763.53 L 5838.46,6769.53 L 5741.61,6902.9 Z "/>
<path stroke="none" transform="matrix(0.1 0 0 0.1 -442.65 -625.4)" d="M 5759.84,7265.38 L 5755.2,7270.53 L 5748.42,7269.08 L 5697.35,7111.84 L 5708.76,7108.13 L 5759.84,7265.38 Z "/>
<path stroke="none" transform="matrix(0.1 0 0 0.1 -442.65 -625.4)" d="M 5569.18,7485.97 L 5555.62,7483.08 L 5748.42,7269.08 L 5755.2,7270.53 L 5757.34,7277.11 L 5569.18,7485.97 Z "/>
<path stroke="none" transform="matrix(0.1 0 0 0.1 -442.65 -625.4)" d="M 5656.04,7753.18 L 5646.76,7763.47 L 5555.62,7483.08 L 5569.18,7485.97 L 5656.04,7753.18 Z "/>
<path stroke="none" transform="matrix(0.1 0 0 0.1 -442.65 -625.4)" d="M 5931.06,7811.74 L 5935.34,7824.92 L 5646.76,7763.47 L 5656.04,7753.18 L 5931.06,7811.74 Z "/>
<path stroke="none" transform="matrix(0.1 0 0 0.1 -442.65 -625.4)" d="M 6119.02,7602.69 L 6132.58,7605.56 L 5935.34,7824.92 L 5931.06,7811.74 L 6119.02,7602.69 Z "/>
<path stroke="none" transform="matrix(0.1 0 0 0.1 -442.65 -625.4)" d="M 6032.16,7335.48 L 6041.44,7325.18 L 6132.58,7605.56 L 6119.02,7602.69 L 6032.16,7335.48 Z "/>
<path stroke="none" transform="matrix(0.1 0 0 0.1 -442.65 -625.4)" d="M 6041.44,7325.18 L 6032.16,7335.48 L 5757.34,7277.11 L 5755.2,7270.53 L 5759.84,7265.38 L 6041.44,7325.18 Z "/>
<path stroke="none" transform="matrix(0.1 0 0 0.1 -442.65 -625.4)" d="M 4481.5,6449.5 A 144,144 0 1 0 4769.5,6449.5A 144,144 0 1 0 4481.5,6449.5Z " class="connection_in" stroke-width="18px"/>
</g>
</svg>