<svg xmlns="http://www.w3.org/2000/svg" xmlns:xlink="http://www.w3.org/1999/xlink" viewBox="0 0 220.84999999999997 87.12650000000008" style="background-color: #ffffff00" version="1.1">
<g transform="matrix(1 0 0 1 -3.500000000000057 -2.9654999999999987)">
<text x="0" y="0" stroke="none" transform="matrix(0.1 0 0 0.1 115.048 20.9655)" font-style="normal" font-weight="bold" font-size="200px" font-family="Arial">
H</text>
<text x="0" y="0" stroke="none" transform="matrix(0.1 0 0 0.1 115.048 37.6488)" font-style="normal" font-weight="bold" font-size="200px" font-family="Arial">
N</text>
<text x="0" y="0" stroke="none" transform="matrix(0.1 0 0 0.1 139.432 80.8488)" font-style="normal" font-weight="bold" font-size="200px" font-family="Arial">
O</text>
<text x="0" y="0" stroke="none" transform="matrix(0.1 0 0 0.1 164.372 37.6488)" font-style="normal" font-weight="bold" font-size="200px" font-family="Arial">
O</text>
<path stroke="none" transform="matrix(0.1 0 0 0.1 -416.65 -664.4)" d="M 4635,7370.52 L 4641,7373.99 L 4641,7380.92 L 4394.6,7523.18 L 4388.6,7512.79 L 4635,7370.52 Z "/>
<path stroke="none" transform="matrix(0.1 0 0 0.1 -416.65 -664.4)" d="M 4890.4,7511.06 L 4890.4,7524.92 L 4641,7380.92 L 4641,7373.99 L 4647,7370.52 L 4890.4,7511.06 Z "/>
<path stroke="none" transform="matrix(0.1 0 0 0.1 -416.65 -664.4)" d="M 5133.8,7370.52 L 5145.8,7377.45 L 4890.4,7524.92 L 4890.4,7511.06 L 5133.8,7370.52 Z "/>
<path stroke="none" transform="matrix(0.1 0 0 0.1 -416.65 -664.4)" d="M 5084.96,7338.86 L 5090.96,7349.26 L 4893.4,7463.33 L 4887.4,7452.93 L 5084.96,7338.86 Z "/>
<path stroke="none" transform="matrix(0.1 0 0 0.1 -416.65 -664.4)" d="M 5133.8,7089.45 L 5139.8,7085.99 L 5145.8,7089.45 L 5145.8,7377.45 L 5133.8,7370.52 L 5133.8,7089.45 Z "/>
<path stroke="none" transform="matrix(0.1 0 0 0.1 -416.65 -664.4)" d="M 5283.61,6996.03 L 5289.61,7006.42 L 5145.8,7089.45 L 5139.8,7085.99 L 5139.8,7079.06 L 5283.61,6996.03 Z "/>
<path stroke="none" transform="matrix(0.1 0 0 0.1 -416.65 -664.4)" d="M 5638.6,7079.06 L 5638.6,7092.92 L 5487.72,7005.8 L 5493.72,6995.41 L 5638.6,7079.06 Z "/>
<path stroke="none" transform="matrix(0.1 0 0 0.1 -416.65 -664.4)" d="M 5670.52,7271.15 L 5658.52,7271.15 L 5658.52,7071.02 L 5670.52,7071.02 L 5670.52,7271.15 Z "/>
<path stroke="none" transform="matrix(0.1 0 0 0.1 -416.65 -664.4)" d="M 5618.68,7271.15 L 5606.68,7271.15 L 5606.68,7071.02 L 5618.68,7071.02 L 5618.68,7271.15 Z "/>
<path stroke="none" transform="matrix(0.1 0 0 0.1 -416.65 -664.4)" d="M 5793.21,6989.79 L 5799.21,7000.18 L 5638.6,7092.92 L 5638.6,7079.06 L 5793.21,6989.79 Z "/>
<path stroke="none" transform="matrix(0.1 0 0 0.1 -416.65 -664.4)" d="M 6137.4,7079.06 L 6137.4,7085.99 L 6131.4,7089.45 L 5977.23,7000.44 L 5983.23,6990.04 L 6137.4,7079.06 Z "/>
<path stroke="none" transform="matrix(0.1 0 0 0.1 -416.65 -664.4)" d="M 6384,6936.79 L 6390,6947.19 L 6149.41,7085.99 L 6137.4,7085.99 L 6137.4,7079.06 L 6384,6936.79 Z "/>
<path stroke="none" transform="matrix(0.1 0 0 0.1 -416.65 -664.4)" d="M 6390,7224.79 L 6384,7235.19 L 6143.4,7096.38 L 6137.4,7085.99 L 6149.41,7085.99 L 6390,7224.79 Z "/>
<path stroke="none" transform="matrix(0.1 0 0 0.1 -416.65 -664.4)" d="M 6143.4,7373.99 L 6131.4,7373.99 L 6131.4,7089.45 L 6137.4,7085.99 L 6143.4,7096.38 L 6143.4,7373.99 Z "/>
<path stroke="none" transform="matrix(0.1 0 0 0.1 -416.65 -664.4)" d="M 4890.4,6948.92 L 4890.4,6935.06 L 5139.8,7079.06 L 5139.8,7085.99 L 5133.8,7089.45 L 4890.4,6948.92 Z "/>
<path stroke="none" transform="matrix(0.1 0 0 0.1 -416.65 -664.4)" d="M 4887.4,7007.04 L 4893.4,6996.65 L 5090.96,7110.72 L 5084.96,7121.11 L 4887.4,7007.04 Z "/>
<path stroke="none" transform="matrix(0.1 0 0 0.1 -416.65 -664.4)" d="M 4647,7089.45 L 4641,7085.99 L 4641,7079.06 L 4890.4,6935.06 L 4890.4,6948.92 L 4647,7089.45 Z "/>
<path stroke="none" transform="matrix(0.1 0 0 0.1 -416.65 -664.4)" d="M 4635,7089.45 L 4641,7085.99 L 4647,7089.45 L 4647,7370.52 L 4641,7373.99 L 4635,7370.52 L 4635,7089.45 Z "/>
<path stroke="none" transform="matrix(0.1 0 0 0.1 -416.65 -664.4)" d="M 4686.84,7115.92 L 4698.84,7115.92 L 4698.84,7344.06 L 4686.84,7344.06 L 4686.84,7115.92 Z "/>
<path stroke="none" transform="matrix(0.1 0 0 0.1 -416.65 -664.4)" d="M 4388.6,6947.18 L 4394.6,6936.79 L 4641,7079.06 L 4641,7085.99 L 4635,7089.45 L 4388.6,6947.18 Z "/>
<path stroke="none" transform="matrix(0.1 0 0 0.1 -416.65 -664.4)" d="M 4221.5,6909.5 A 144,144 0 1 0 4509.5,6909.5A 144,144 0 1 0 4221.5,6909.5Z " class="connection_in" stroke-width="18px"/>
</g>
</svg>