<svg xmlns="http://www.w3.org/2000/svg" xmlns:xlink="http://www.w3.org/1999/xlink" viewBox="0 0 211.61834000000005 142.44280000000003" style="background-color: #ffffff00" version="1.1">
<g transform="matrix(1 0 0 1 -2.02766 -3.1571999999999996)">
<text x="0" y="0" stroke="none" transform="matrix(0.1 0 0 0.1 178.628 64.3572)" font-style="normal" font-weight="bold" font-size="200px" font-family="Arial">
O</text>
<text x="0" y="0" stroke="none" transform="matrix(0.1 0 0 0.1 153.668 21.1572)" font-style="normal" font-weight="bold" font-size="200px" font-family="Arial">
O</text>
<text x="0" y="0" stroke="none" transform="matrix(0.1 0 0 0.1 54.4643 107.557)" font-style="normal" font-weight="bold" font-size="200px" font-family="Arial">
N</text>
<text x="0" y="0" stroke="none" transform="matrix(0.1 0 0 0.1 4.02766 136.357)" font-style="normal" font-weight="bold" font-size="200px" font-family="Arial">
O</text>
<path stroke="none" transform="matrix(0.1 0 0 0.1 -423.65 -636.4)" d="M 6193.05,6882.6 L 6187.05,6872.21 L 6346.96,6779.88 L 6352.96,6790.27 L 6193.05,6882.6 Z "/>
<path stroke="none" transform="matrix(0.1 0 0 0.1 -423.65 -636.4)" d="M 5850.96,6792 L 5850.96,6778.14 L 6014.49,6872.49 L 6008.5,6882.89 L 5850.96,6792 Z "/>
<path stroke="none" transform="matrix(0.1 0 0 0.1 -423.65 -636.4)" d="M 5819.04,6605.24 L 5831.04,6605.24 L 5831.04,6800.04 L 5819.04,6800.04 L 5819.04,6605.24 Z "/>
<path stroke="none" transform="matrix(0.1 0 0 0.1 -423.65 -636.4)" d="M 5870.88,6605.24 L 5882.88,6605.24 L 5882.88,6800.03 L 5870.88,6800.03 L 5870.88,6605.24 Z "/>
<path stroke="none" transform="matrix(0.1 0 0 0.1 -423.65 -636.4)" d="M 5607.56,6932.54 L 5601.56,6929.07 L 5601.56,6922.14 L 5850.96,6778.14 L 5850.96,6792 L 5607.56,6932.54 Z "/>
<path stroke="none" transform="matrix(0.1 0 0 0.1 -423.65 -636.4)" d="M 5607.56,7220.54 L 5595.56,7213.61 L 5595.56,6932.54 L 5601.56,6929.07 L 5607.56,6932.54 L 5607.56,7220.54 Z "/>
<path stroke="none" transform="matrix(0.1 0 0 0.1 -423.65 -636.4)" d="M 5352.16,7368 L 5352.16,7354.14 L 5595.56,7213.61 L 5607.56,7220.54 L 5352.16,7368 Z "/>
<path stroke="none" transform="matrix(0.1 0 0 0.1 -423.65 -636.4)" d="M 5355.16,7306.41 L 5349.16,7296.02 L 5546.72,7181.95 L 5552.72,7192.34 L 5355.16,7306.41 Z "/>
<path stroke="none" transform="matrix(0.1 0 0 0.1 -423.65 -636.4)" d="M 5102.76,7224 L 5102.76,7217.07 L 5108.76,7213.61 L 5352.16,7354.14 L 5352.16,7368 L 5102.76,7224 Z "/>
<path stroke="none" transform="matrix(0.1 0 0 0.1 -423.65 -636.4)" d="M 4955.5,7309.03 L 4949.5,7298.63 L 5096.76,7213.61 L 5102.76,7217.07 L 5102.76,7224 L 4955.5,7309.03 Z "/>
<path stroke="none" transform="matrix(0.1 0 0 0.1 -423.65 -636.4)" d="M 4603.96,7224 L 4603.96,7210.14 L 4756.15,7298.01 L 4750.15,7308.41 L 4603.96,7224 Z "/>
<path stroke="none" transform="matrix(0.1 0 0 0.1 -423.65 -636.4)" d="M 4360.56,7364.54 L 4348.56,7357.61 L 4603.96,7210.14 L 4603.96,7224 L 4360.56,7364.54 Z "/>
<path stroke="none" transform="matrix(0.1 0 0 0.1 -423.65 -636.4)" d="M 4360.56,7546.24 L 4348.56,7546.24 L 4348.56,7357.61 L 4360.56,7364.54 L 4360.56,7546.24 Z "/>
<path stroke="none" transform="matrix(0.1 0 0 0.1 -423.65 -636.4)" d="M 4603.96,7786.14 L 4603.96,7800 L 4443.79,7707.52 L 4449.79,7697.13 L 4603.96,7786.14 Z "/>
<path stroke="none" transform="matrix(0.1 0 0 0.1 -423.65 -636.4)" d="M 4847.36,7645.61 L 4859.36,7652.54 L 4603.96,7800 L 4603.96,7786.14 L 4847.36,7645.61 Z "/>
<path stroke="none" transform="matrix(0.1 0 0 0.1 -423.65 -636.4)" d="M 4859.36,7652.54 L 4847.36,7645.61 L 4847.36,7466.74 L 4859.36,7466.74 L 4859.36,7652.54 Z "/>
<path stroke="none" transform="matrix(0.1 0 0 0.1 -423.65 -636.4)" d="M 5096.76,6932.54 L 5102.76,6929.07 L 5108.76,6932.54 L 5108.76,7213.61 L 5102.76,7217.07 L 5096.76,7213.61 L 5096.76,6932.54 Z "/>
<path stroke="none" transform="matrix(0.1 0 0 0.1 -423.65 -636.4)" d="M 5148.6,6959 L 5160.6,6959 L 5160.6,7187.14 L 5148.6,7187.14 L 5148.6,6959 Z "/>
<path stroke="none" transform="matrix(0.1 0 0 0.1 -423.65 -636.4)" d="M 4850.36,6790.27 L 4856.36,6779.88 L 5102.76,6922.14 L 5102.76,6929.07 L 5096.76,6932.54 L 4850.36,6790.27 Z "/>
<path stroke="none" transform="matrix(0.1 0 0 0.1 -423.65 -636.4)" d="M 5352.16,6778.14 L 5352.16,6792 L 5108.76,6932.54 L 5102.76,6929.07 L 5102.76,6922.14 L 5352.16,6778.14 Z "/>
<path stroke="none" transform="matrix(0.1 0 0 0.1 -423.65 -636.4)" d="M 5352.16,6792 L 5352.16,6778.14 L 5601.56,6922.14 L 5601.56,6929.07 L 5595.56,6932.54 L 5352.16,6792 Z "/>
<path stroke="none" transform="matrix(0.1 0 0 0.1 -423.65 -636.4)" d="M 5349.16,6850.13 L 5355.16,6839.73 L 5552.72,6953.8 L 5546.72,6964.2 L 5349.16,6850.13 Z "/>
<path stroke="none" transform="matrix(0.1 0 0 0.1 -423.65 -636.4)" d="M 4711.5,6769.5 A 144,144 0 1 0 4999.5,6769.5A 144,144 0 1 0 4711.5,6769.5Z " class="connection_in" stroke-width="18px"/>
</g>
</svg>