<svg xmlns="http://www.w3.org/2000/svg" xmlns:xlink="http://www.w3.org/1999/xlink" viewBox="0 0 137.07825000000003 194.7209999999999" style="background-color: #ffffff00" version="1.1">
<g transform="matrix(1 0 0 1 -2.27175 -3.150000000000091)">
<text x="0" y="0" stroke="none" transform="matrix(0.1 0 0 0.1 29.2164 160.522)" font-style="normal" font-weight="bold" font-size="200px" font-family="Arial">
O</text>
<text x="0" y="0" stroke="none" transform="matrix(0.1 0 0 0.1 4.27175 117.325)" font-style="normal" font-weight="bold" font-size="200px" font-family="Arial">
O</text>
<text x="0" y="0" stroke="none" transform="matrix(0.1 0 0 0.1 54.1517 88.525)" font-style="normal" font-weight="bold" font-size="200px" font-family="Arial">
O</text>
<path stroke="none" transform="matrix(0.1 0 0 0.1 -492.65 -644.4)" d="M 5041.05,8111.26 L 5053.05,8118.19 L 5053.07,8402.71 L 5041.07,8402.71 L 5041.05,8111.26 Z "/>
<path stroke="none" transform="matrix(0.1 0 0 0.1 -492.65 -644.4)" d="M 5201.66,8018.53 L 5207.66,8028.92 L 5053.05,8118.19 L 5041.05,8111.26 L 5201.66,8018.53 Z "/>
<path stroke="none" transform="matrix(0.1 0 0 0.1 -492.65 -644.4)" d="M 5290.42,7679.27 L 5302.42,7686.2 L 5302.44,7867.89 L 5290.44,7867.89 L 5290.42,7679.27 Z "/>
<path stroke="none" transform="matrix(0.1 0 0 0.1 -492.65 -644.4)" d="M 5123.28,7619.64 L 5129.28,7609.25 L 5299.43,7707.47 L 5293.43,7717.86 L 5123.28,7619.64 Z "/>
<path stroke="none" transform="matrix(0.1 0 0 0.1 -492.65 -644.4)" d="M 5149.19,7574.74 L 5155.19,7564.35 L 5325.34,7662.58 L 5319.34,7672.97 L 5149.19,7574.74 Z "/>
<path stroke="none" transform="matrix(0.1 0 0 0.1 -492.65 -644.4)" d="M 5539.82,7535.27 L 5551.82,7542.2 L 5302.42,7686.2 L 5290.42,7679.27 L 5539.82,7535.27 Z "/>
<path stroke="none" transform="matrix(0.1 0 0 0.1 -492.65 -644.4)" d="M 5539.81,7358.92 L 5551.81,7358.92 L 5551.82,7542.2 L 5539.82,7535.27 L 5539.81,7358.92 Z "/>
<path stroke="none" transform="matrix(0.1 0 0 0.1 -492.65 -644.4)" d="M 5789.2,7103.29 L 5795.2,7106.75 L 5795.2,7113.68 L 5638.29,7204.28 L 5632.29,7193.88 L 5789.2,7103.29 Z "/>
<path stroke="none" transform="matrix(0.1 0 0 0.1 -492.65 -644.4)" d="M 6044.6,7243.82 L 6044.6,7257.68 L 5795.2,7113.68 L 5795.2,7106.75 L 5801.2,7103.29 L 6044.6,7243.82 Z "/>
<path stroke="none" transform="matrix(0.1 0 0 0.1 -492.65 -644.4)" d="M 6288,7103.29 L 6300,7110.21 L 6044.6,7257.68 L 6044.6,7243.82 L 6288,7103.29 Z "/>
<path stroke="none" transform="matrix(0.1 0 0 0.1 -492.65 -644.4)" d="M 6239.16,7071.63 L 6245.16,7082.02 L 6047.6,7196.09 L 6041.6,7185.7 L 6239.16,7071.63 Z "/>
<path stroke="none" transform="matrix(0.1 0 0 0.1 -492.65 -644.4)" d="M 6288,6822.21 L 6300,6815.29 L 6300,7110.21 L 6288,7103.29 L 6288,6822.21 Z "/>
<path stroke="none" transform="matrix(0.1 0 0 0.1 -492.65 -644.4)" d="M 6044.6,6681.68 L 6044.6,6667.82 L 6300,6815.29 L 6288,6822.21 L 6044.6,6681.68 Z "/>
<path stroke="none" transform="matrix(0.1 0 0 0.1 -492.65 -644.4)" d="M 6041.6,6739.8 L 6047.6,6729.41 L 6245.16,6843.48 L 6239.16,6853.87 L 6041.6,6739.8 Z "/>
<path stroke="none" transform="matrix(0.1 0 0 0.1 -492.65 -644.4)" d="M 5801.2,6822.21 L 5795.2,6818.75 L 5795.2,6811.82 L 6044.6,6667.82 L 6044.6,6681.68 L 5801.2,6822.21 Z "/>
<path stroke="none" transform="matrix(0.1 0 0 0.1 -492.65 -644.4)" d="M 5789.2,6822.21 L 5795.2,6818.75 L 5801.2,6822.21 L 5801.2,7103.29 L 5795.2,7106.75 L 5789.2,7103.29 L 5789.2,6822.21 Z "/>
<path stroke="none" transform="matrix(0.1 0 0 0.1 -492.65 -644.4)" d="M 5841.04,6848.68 L 5853.04,6848.68 L 5853.04,7076.82 L 5841.04,7076.82 L 5841.04,6848.68 Z "/>
<path stroke="none" transform="matrix(0.1 0 0 0.1 -492.65 -644.4)" d="M 5542.8,6679.95 L 5548.8,6669.55 L 5795.2,6811.82 L 5795.2,6818.75 L 5789.2,6822.21 L 5542.8,6679.95 Z "/>
<path stroke="none" transform="matrix(0.1 0 0 0.1 -492.65 -644.4)" d="M 5401.5,6639.5 A 144,144 0 1 0 5689.5,6639.5A 144,144 0 1 0 5401.5,6639.5Z " class="connection_in" stroke-width="18px"/>
</g>
</svg>