<svg xmlns="http://www.w3.org/2000/svg" xmlns:xlink="http://www.w3.org/1999/xlink" viewBox="0 0 167.84999999999997 83.44999999999993" style="background-color: #ffffff00" version="1.1">
<g transform="matrix(1 0 0 1 -3.500000000000057 -3.150000000000091)">
<path stroke="none" transform="matrix(0.1 0 0 0.1 -433.65 -616.4)" d="M 5777.6,6822.84 L 5777.6,6808.98 L 6030,6954.72 L 6024,6965.11 L 5777.6,6822.84 Z "/>
<path stroke="none" transform="matrix(0.1 0 0 0.1 -433.65 -616.4)" d="M 5774.6,6880.97 L 5780.6,6870.57 L 6004.08,6999.61 L 5998.08,7010 L 5774.6,6880.97 Z "/>
<path stroke="none" transform="matrix(0.1 0 0 0.1 -433.65 -616.4)" d="M 5528.2,6966.84 L 5528.2,6952.98 L 5777.6,6808.98 L 5777.6,6822.84 L 5528.2,6966.84 Z "/>
<path stroke="none" transform="matrix(0.1 0 0 0.1 -433.65 -616.4)" d="M 5278.8,6822.84 L 5278.8,6815.91 L 5284.8,6812.45 L 5528.2,6952.98 L 5528.2,6966.84 L 5278.8,6822.84 Z "/>
<path stroke="none" transform="matrix(0.1 0 0 0.1 -433.65 -616.4)" d="M 5029.4,6966.84 L 5029.4,6952.98 L 5272.8,6812.45 L 5278.8,6815.91 L 5278.8,6822.84 L 5029.4,6966.84 Z "/>
<path stroke="none" transform="matrix(0.1 0 0 0.1 -433.65 -616.4)" d="M 4774,6819.38 L 4786,6812.45 L 5029.4,6952.98 L 5029.4,6966.84 L 4774,6819.38 Z "/>
<path stroke="none" transform="matrix(0.1 0 0 0.1 -433.65 -616.4)" d="M 4828.84,6791.18 L 4834.84,6780.79 L 5032.4,6894.86 L 5026.4,6905.25 L 4828.84,6791.18 Z "/>
<path stroke="none" transform="matrix(0.1 0 0 0.1 -433.65 -616.4)" d="M 4774,6531.38 L 4780,6527.91 L 4786,6531.38 L 4786,6812.45 L 4774,6819.38 L 4774,6531.38 Z "/>
<path stroke="none" transform="matrix(0.1 0 0 0.1 -433.65 -616.4)" d="M 4527.6,6389.11 L 4533.6,6378.72 L 4780,6520.98 L 4780,6527.91 L 4774,6531.38 L 4527.6,6389.11 Z "/>
<path stroke="none" transform="matrix(0.1 0 0 0.1 -433.65 -616.4)" d="M 5029.4,6376.98 L 5029.4,6390.84 L 4786,6531.38 L 4780,6527.91 L 4780,6520.98 L 5029.4,6376.98 Z "/>
<path stroke="none" transform="matrix(0.1 0 0 0.1 -433.65 -616.4)" d="M 5026.4,6438.57 L 5032.4,6448.97 L 4834.84,6563.04 L 4828.84,6552.64 L 5026.4,6438.57 Z "/>
<path stroke="none" transform="matrix(0.1 0 0 0.1 -433.65 -616.4)" d="M 5284.8,6524.45 L 5272.8,6531.38 L 5029.4,6390.84 L 5029.4,6376.98 L 5284.8,6524.45 Z "/>
<path stroke="none" transform="matrix(0.1 0 0 0.1 -433.65 -616.4)" d="M 5272.8,6531.38 L 5284.8,6524.45 L 5284.8,6812.45 L 5278.8,6815.91 L 5272.8,6812.45 L 5272.8,6531.38 Z "/>
<path stroke="none" transform="matrix(0.1 0 0 0.1 -433.65 -616.4)" d="M 5220.96,6557.84 L 5232.96,6557.84 L 5232.96,6785.98 L 5220.96,6785.98 L 5220.96,6557.84 Z "/>
<path stroke="none" transform="matrix(0.1 0 0 0.1 -433.65 -616.4)" d="M 4391.5,6359.5 A 144,144 0 1 0 4679.5,6359.5A 144,144 0 1 0 4391.5,6359.5Z " class="connection_in" stroke-width="18px"/>
</g>
</svg>