<svg viewBox="0 0 331 174" xmlns="http://www.w3.org/2000/svg">
<text x="0" y="0" transform="matrix(0.1 0 0 0.1 289.121 150.8)" font-size="200px">CH</text>
<text x="0" y="0" transform="matrix(0.1 0 0 0.1 318.008 155.1)" font-size="150px">3</text>
<text x="0" y="0" transform="matrix(0.1 0 0 0.1 264.179 165.2)" font-size="200px">CH</text>
<text x="0" y="0" transform="matrix(0.1 0 0 0.1 293.066 169.5)" font-size="150px">3</text>
<text x="0" y="0" transform="matrix(0.1 0 0 0.1 289.121 122)" font-size="200px">CH</text>
<text x="0" y="0" transform="matrix(0.1 0 0 0.1 318.008 126.3)" font-size="150px">3</text>
<text x="0" y="0" transform="matrix(0.1 0 0 0.1 238.72 122)" font-size="200px">O</text>
<text x="0" y="0" transform="matrix(0.1 0 0 0.1 213.779 165.2)" font-size="200px">O</text>
<text x="0" y="0" transform="matrix(0.1 0 0 0.1 189.391 122)" font-size="200px">N</text>
<text x="0" y="0" transform="matrix(0.1 0 0 0.1 114.013 21.2001)" font-size="200px">O</text>
<text x="0" y="0" transform="matrix(0.1 0 0 0.1 114.013 107.6)" font-size="200px">O</text>
<path transform="matrix(0.1 0 0 0.1 -351.65 -602.4)" d="M 6236.51,7319.89 L 6230.51,7309.5 L 6242.51,7309.5 L 6398.69,7399.67 L 6392.69,7410.06 L 6236.51,7319.89 Z " />
<path transform="matrix(0.1 0 0 0.1 -351.65 -602.4)" d="M 6236.51,7494.67 L 6224.51,7494.67 L 6224.51,7312.96 L 6230.51,7309.5 L 6236.51,7319.89 L 6236.51,7494.67 Z " />
<path transform="matrix(0.1 0 0 0.1 -351.65 -602.4)" d="M 6389.63,7210.71 L 6395.63,7221.1 L 6242.51,7309.5 L 6230.51,7309.5 L 6230.51,7302.57 L 6389.63,7210.71 Z " />
<path transform="matrix(0.1 0 0 0.1 -351.65 -602.4)" d="M 6070.26,7223.91 L 6076.26,7213.51 L 6230.51,7302.57 L 6230.51,7309.5 L 6224.51,7312.96 L 6070.26,7223.91 Z " />
<path transform="matrix(0.1 0 0 0.1 -351.65 -602.4)" d="M 5731.68,7316.43 L 5731.68,7302.57 L 5886.52,7213.17 L 5892.52,7223.57 L 5731.68,7316.43 Z " />
<path transform="matrix(0.1 0 0 0.1 -351.65 -602.4)" d="M 5763.6,7495.83 L 5751.6,7495.83 L 5751.6,7294.54 L 5763.6,7294.54 L 5763.6,7495.83 Z " />
<path transform="matrix(0.1 0 0 0.1 -351.65 -602.4)" d="M 5711.76,7495.83 L 5699.76,7495.83 L 5699.76,7294.54 L 5711.76,7294.54 L 5711.76,7495.83 Z " />
<path transform="matrix(0.1 0 0 0.1 -351.65 -602.4)" d="M 5580.31,7229.03 L 5586.31,7218.64 L 5731.68,7302.57 L 5731.68,7316.43 L 5580.31,7229.03 Z " />
<path transform="matrix(0.1 0 0 0.1 -351.65 -602.4)" d="M 5232.85,7316.43 L 5232.85,7302.57 L 5376.94,7219.38 L 5382.94,7229.77 L 5232.85,7316.43 Z " />
<path transform="matrix(0.1 0 0 0.1 -351.65 -602.4)" d="M 4977.44,7168.96 L 4989.44,7162.04 L 5232.85,7302.57 L 5232.85,7316.43 L 4977.44,7168.96 Z " />
<path transform="matrix(0.1 0 0 0.1 -351.65 -602.4)" d="M 4977.44,6887.89 L 4983.44,6877.5 L 4989.44,6880.96 L 4989.44,7162.04 L 4977.44,7168.96 L 4977.44,6887.89 Z " />
<path transform="matrix(0.1 0 0 0.1 -351.65 -602.4)" d="M 5232.85,6726.57 L 5232.85,6740.43 L 4989.44,6880.96 L 4983.44,6877.5 L 4989.44,6867.11 L 5232.85,6726.57 Z " />
<path transform="matrix(0.1 0 0 0.1 -351.65 -602.4)" d="M 5488.27,6874.04 L 5476.27,6880.96 L 5232.85,6740.43 L 5232.85,6726.57 L 5488.27,6874.04 Z " />
<path transform="matrix(0.1 0 0 0.1 -351.65 -602.4)" d="M 5476.27,6880.96 L 5488.27,6874.04 L 5488.27,7066.33 L 5476.27,7066.33 L 5476.27,6880.96 Z " />
<path transform="matrix(0.1 0 0 0.1 -351.65 -602.4)" d="M 4977.44,6592.96 L 4989.44,6586.04 L 4989.44,6867.11 L 4983.44,6877.5 L 4977.44,6874.04 L 4977.44,6592.96 Z " />
<path transform="matrix(0.1 0 0 0.1 -351.65 -602.4)" d="M 4734.02,6452.43 L 4734.02,6438.57 L 4989.44,6586.04 L 4977.44,6592.96 L 4734.02,6452.43 Z " />
<path transform="matrix(0.1 0 0 0.1 -351.65 -602.4)" d="M 4702.1,6265.83 L 4714.1,6265.83 L 4714.1,6460.47 L 4702.1,6460.47 L 4702.1,6265.83 Z " />
<path transform="matrix(0.1 0 0 0.1 -351.65 -602.4)" d="M 4753.94,6265.83 L 4765.94,6265.83 L 4765.94,6460.47 L 4753.94,6460.47 L 4753.94,6265.83 Z " />
<path transform="matrix(0.1 0 0 0.1 -351.65 -602.4)" d="M 4490.61,6592.96 L 4484.61,6589.5 L 4484.61,6582.57 L 4734.02,6438.57 L 4734.02,6452.43 L 4490.61,6592.96 Z " />
<path transform="matrix(0.1 0 0 0.1 -351.65 -602.4)" d="M 4235.19,6452.43 L 4235.19,6438.57 L 4484.61,6582.57 L 4484.61,6589.5 L 4478.61,6592.96 L 4235.19,6452.43 Z " />
<path transform="matrix(0.1 0 0 0.1 -351.65 -602.4)" d="M 3991.77,6592.96 L 3985.77,6589.5 L 3985.77,6582.57 L 4235.19,6438.57 L 4235.19,6452.43 L 3991.77,6592.96 Z " />
<path transform="matrix(0.1 0 0 0.1 -351.65 -602.4)" d="M 4040.61,6624.63 L 4034.61,6614.23 L 4232.19,6500.16 L 4238.19,6510.56 L 4040.61,6624.63 Z " />
<path transform="matrix(0.1 0 0 0.1 -351.65 -602.4)" d="M 3733.36,6450.7 L 3739.36,6440.3 L 3985.77,6582.57 L 3985.77,6589.5 L 3979.77,6592.96 L 3733.36,6450.7 Z " />
<path transform="matrix(0.1 0 0 0.1 -351.65 -602.4)" d="M 3991.77,6874.04 L 3979.77,6880.96 L 3979.77,6592.96 L 3985.77,6589.5 L 3991.77,6592.96 L 3991.77,6874.04 Z " />
<path transform="matrix(0.1 0 0 0.1 -351.65 -602.4)" d="M 4235.19,7014.57 L 4235.19,7028.43 L 3979.77,6880.96 L 3991.77,6874.04 L 4235.19,7014.57 Z " />
<path transform="matrix(0.1 0 0 0.1 -351.65 -602.4)" d="M 4238.19,6956.44 L 4232.19,6966.84 L 4034.61,6852.77 L 4040.61,6842.37 L 4238.19,6956.44 Z " />
<path transform="matrix(0.1 0 0 0.1 -351.65 -602.4)" d="M 4478.61,6874.04 L 4484.61,6877.5 L 4484.61,6884.43 L 4235.19,7028.43 L 4235.19,7014.57 L 4478.61,6874.04 Z " />
<path transform="matrix(0.1 0 0 0.1 -351.65 -602.4)" d="M 4490.61,6874.04 L 4484.61,6877.5 L 4478.61,6874.04 L 4478.61,6592.96 L 4484.61,6589.5 L 4490.61,6592.96 L 4490.61,6874.04 Z " />
<path transform="matrix(0.1 0 0 0.1 -351.65 -602.4)" d="M 4438.77,6847.57 L 4426.77,6847.57 L 4426.77,6619.43 L 4438.77,6619.43 L 4438.77,6847.57 Z " />
<path transform="matrix(0.1 0 0 0.1 -351.65 -602.4)" d="M 4648.45,6965.17 L 4642.45,6975.56 L 4484.61,6884.43 L 4484.61,6877.5 L 4490.61,6874.04 L 4648.45,6965.17 Z " />
<path transform="matrix(0.1 0 0 0.1 -351.65 -602.4)" d="M 4826.06,6975.29 L 4820.06,6964.89 L 4977.44,6874.04 L 4983.44,6877.5 L 4977.44,6887.89 L 4826.06,6975.29 Z " />
<path class="connection_in" transform="matrix(0.1 0 0 0.1 -351.65 -602.4)" d="M 3567.26,6446.32 A 172.8,172.8 0 1 0 3912.86,6446.32A 172.8,172.8 0 1 0 3567.26,6446.32Z " />
</svg>
