<svg xmlns="http://www.w3.org/2000/svg" xmlns:xlink="http://www.w3.org/1999/xlink" viewBox="0 0 138.64199999999997 142.27880000000005" style="background-color: #ffffff00" version="1.1">
<g transform="matrix(1 0 0 1 -2.032000000000039 -3.4772)">
<text x="0" y="0" stroke="none" transform="matrix(0.1 0 0 0.1 21.4933 107.888)" font-style="normal" font-weight="bold" font-size="200px" font-family="Arial">
O</text>
<text x="0" y="0" stroke="none" transform="matrix(0.1 0 0 0.1 118.674 21.4772)" font-style="normal" font-weight="bold" font-size="200px" font-family="Arial">
O</text>
<text x="0" y="0" stroke="none" transform="matrix(0.1 0 0 0.1 71.3764 136.688)" font-style="normal" font-weight="bold" font-size="200px" font-family="Arial">
O</text>
<path stroke="none" transform="matrix(0.1 0 0 0.1 -467.65 -638.4)" d="M 4963.22,7668.9 L 4975.22,7675.83 L 4722.82,7821.55 L 4716.82,7811.16 L 4963.22,7668.9 Z "/>
<path stroke="none" transform="matrix(0.1 0 0 0.1 -467.65 -638.4)" d="M 4963.22,7492.54 L 4975.22,7492.54 L 4975.22,7675.83 L 4963.22,7668.9 L 4963.22,7492.54 Z "/>
<path stroke="none" transform="matrix(0.1 0 0 0.1 -467.65 -638.4)" d="M 5212.72,7236.76 L 5218.72,7240.22 L 5218.73,7247.15 L 5061.69,7337.88 L 5055.69,7327.49 L 5212.72,7236.76 Z "/>
<path stroke="none" transform="matrix(0.1 0 0 0.1 -467.65 -638.4)" d="M 5212.72,6955.7 L 5218.72,6952.23 L 5224.72,6955.7 L 5224.72,7236.75 L 5218.72,7240.22 L 5212.72,7236.76 L 5212.72,6955.7 Z "/>
<path stroke="none" transform="matrix(0.1 0 0 0.1 -467.65 -638.4)" d="M 4966.3,6813.43 L 4972.3,6803.04 L 5218.72,6945.3 L 5218.72,6952.23 L 5212.72,6955.7 L 4966.3,6813.43 Z "/>
<path stroke="none" transform="matrix(0.1 0 0 0.1 -467.65 -638.4)" d="M 5468.12,6801.32 L 5468.12,6815.17 L 5224.72,6955.7 L 5218.72,6952.23 L 5218.72,6945.3 L 5468.12,6801.32 Z "/>
<path stroke="none" transform="matrix(0.1 0 0 0.1 -467.65 -638.4)" d="M 5465.12,6862.91 L 5471.12,6873.3 L 5273.55,6987.36 L 5267.56,6976.96 L 5465.12,6862.91 Z "/>
<path stroke="none" transform="matrix(0.1 0 0 0.1 -467.65 -638.4)" d="M 5717.54,6945.32 L 5717.54,6952.25 L 5711.54,6955.71 L 5468.12,6815.17 L 5468.12,6801.32 L 5717.54,6945.32 Z "/>
<path stroke="none" transform="matrix(0.1 0 0 0.1 -467.65 -638.4)" d="M 5960.95,6804.79 L 5972.95,6811.72 L 5723.54,6955.71 L 5717.54,6952.25 L 5717.54,6945.32 L 5960.95,6804.79 Z "/>
<path stroke="none" transform="matrix(0.1 0 0 0.1 -467.65 -638.4)" d="M 5960.94,6628.44 L 5972.94,6628.44 L 5972.95,6811.72 L 5960.95,6804.79 L 5960.94,6628.44 Z "/>
<path stroke="none" transform="matrix(0.1 0 0 0.1 -467.65 -638.4)" d="M 5909.11,6628.44 L 5921.1,6628.44 L 5921.11,6778.33 L 5909.11,6778.33 L 5909.11,6628.44 Z "/>
<path stroke="none" transform="matrix(0.1 0 0 0.1 -467.65 -638.4)" d="M 5723.55,7243.7 L 5711.55,7236.77 L 5711.54,6955.71 L 5717.54,6952.25 L 5723.54,6955.71 L 5723.55,7243.7 Z "/>
<path stroke="none" transform="matrix(0.1 0 0 0.1 -467.65 -638.4)" d="M 5671.71,7210.3 L 5659.71,7210.3 L 5659.7,6982.17 L 5671.7,6982.17 L 5671.71,7210.3 Z "/>
<path stroke="none" transform="matrix(0.1 0 0 0.1 -467.65 -638.4)" d="M 5474.14,7387.68 L 5468.14,7384.22 L 5468.14,7377.29 L 5711.55,7236.77 L 5723.55,7243.7 L 5474.14,7387.68 Z "/>
<path stroke="none" transform="matrix(0.1 0 0 0.1 -467.65 -638.4)" d="M 5468.14,7377.29 L 5468.14,7384.22 L 5462.14,7387.68 L 5218.73,7247.15 L 5218.72,7240.22 L 5224.72,7236.75 L 5468.14,7377.29 Z "/>
<path stroke="none" transform="matrix(0.1 0 0 0.1 -467.65 -638.4)" d="M 5471.14,7319.16 L 5465.14,7329.56 L 5267.56,7215.48 L 5273.56,7205.09 L 5471.14,7319.16 Z "/>
<path stroke="none" transform="matrix(0.1 0 0 0.1 -467.65 -638.4)" d="M 5474.08,7569.55 L 5462.08,7569.54 L 5462.14,7387.68 L 5468.14,7384.22 L 5474.14,7387.68 L 5474.08,7569.55 Z "/>
<path stroke="none" transform="matrix(0.1 0 0 0.1 -467.65 -638.4)" d="M 5221.64,7821.56 L 5215.64,7811.17 L 5373.26,7720.18 L 5379.26,7730.57 L 5221.64,7821.56 Z "/>
<path stroke="none" transform="matrix(0.1 0 0 0.1 -467.65 -638.4)" d="M 4811.5,6809.5 A 144,144 0 1 0 5099.5,6809.5A 144,144 0 1 0 4811.5,6809.5Z " class="connection_in" stroke-width="18px"/>
</g>
</svg>