<svg xmlns="http://www.w3.org/2000/svg" xmlns:xlink="http://www.w3.org/1999/xlink" viewBox="0 0 168.36200000000002 205.60500000000002" style="background-color: #ffffff00" version="1.1">
<g transform="matrix(1 0 0 1 -3.500000000000057 -2.7520000000000664)">
<text x="0" y="0" stroke="none" transform="matrix(0.1 0 0 0.1 37.0815 185.391)" font-style="normal" font-weight="bold" font-size="200px" font-family="Arial">
O</text>
<text x="0" y="0" stroke="none" transform="matrix(0.1 0 0 0.1 86.9638 185.392)" font-style="normal" font-weight="bold" font-size="200px" font-family="Arial">
O</text>
<text x="0" y="0" stroke="none" transform="matrix(0.1 0 0 0.1 111.902 84.5976)" font-style="normal" font-weight="bold" font-size="200px" font-family="Arial">
O</text>
<path stroke="none" transform="matrix(0.1 0 0 0.1 -453.65 -616.4)" d="M 4979.06,8047.57 L 4991.06,8047.58 L 4991.01,8227.57 L 4979.01,8227.57 L 4979.06,8047.57 Z "/>
<path stroke="none" transform="matrix(0.1 0 0 0.1 -453.65 -616.4)" d="M 5228.51,7791.96 L 5240.51,7798.89 L 5077.59,7892.94 L 5071.59,7882.55 L 5228.51,7791.96 Z "/>
<path stroke="none" transform="matrix(0.1 0 0 0.1 -453.65 -616.4)" d="M 5410.83,7860.37 L 5404.83,7870.76 L 5231.5,7770.69 L 5237.5,7760.3 L 5410.83,7860.37 Z "/>
<path stroke="none" transform="matrix(0.1 0 0 0.1 -453.65 -616.4)" d="M 5384.91,7905.26 L 5378.91,7915.65 L 5205.58,7815.58 L 5211.58,7805.19 L 5384.91,7905.26 Z "/>
<path stroke="none" transform="matrix(0.1 0 0 0.1 -453.65 -616.4)" d="M 5228.5,7510.9 L 5234.5,7507.44 L 5240.5,7510.9 L 5240.51,7798.89 L 5228.51,7791.96 L 5228.5,7510.9 Z "/>
<path stroke="none" transform="matrix(0.1 0 0 0.1 -453.65 -616.4)" d="M 4979.08,7366.9 L 4991.08,7359.97 L 5234.5,7500.51 L 5234.5,7507.44 L 5228.5,7510.9 L 4979.08,7366.9 Z "/>
<path stroke="none" transform="matrix(0.1 0 0 0.1 -453.65 -616.4)" d="M 4979.08,7078.91 L 4985.08,7075.45 L 4991.08,7078.91 L 4991.08,7359.97 L 4979.08,7366.9 L 4979.08,7078.91 Z "/>
<path stroke="none" transform="matrix(0.1 0 0 0.1 -453.65 -616.4)" d="M 5030.91,7105.38 L 5042.91,7105.38 L 5042.92,7333.51 L 5030.92,7333.51 L 5030.91,7105.38 Z "/>
<path stroke="none" transform="matrix(0.1 0 0 0.1 -453.65 -616.4)" d="M 4732.66,6936.65 L 4738.66,6926.25 L 4985.08,7068.52 L 4985.08,7075.45 L 4979.08,7078.91 L 4732.66,6936.65 Z "/>
<path stroke="none" transform="matrix(0.1 0 0 0.1 -453.65 -616.4)" d="M 5234.48,6924.53 L 5234.48,6938.39 L 4991.08,7078.91 L 4985.08,7075.45 L 4985.08,7068.52 L 5234.48,6924.53 Z "/>
<path stroke="none" transform="matrix(0.1 0 0 0.1 -453.65 -616.4)" d="M 5483.9,7068.53 L 5483.9,7075.46 L 5477.9,7078.93 L 5234.48,6938.39 L 5234.48,6924.53 L 5483.9,7068.53 Z "/>
<path stroke="none" transform="matrix(0.1 0 0 0.1 -453.65 -616.4)" d="M 5435.06,7100.2 L 5429.06,7110.59 L 5231.48,6996.52 L 5237.48,6986.13 L 5435.06,7100.2 Z "/>
<path stroke="none" transform="matrix(0.1 0 0 0.1 -453.65 -616.4)" d="M 5638.51,6979.27 L 5644.51,6989.66 L 5489.9,7078.93 L 5483.9,7075.46 L 5483.9,7068.53 L 5638.51,6979.27 Z "/>
<path stroke="none" transform="matrix(0.1 0 0 0.1 -453.65 -616.4)" d="M 5727.3,6640.02 L 5739.3,6646.95 L 5739.3,6828.64 L 5727.3,6828.64 L 5727.3,6640.02 Z "/>
<path stroke="none" transform="matrix(0.1 0 0 0.1 -453.65 -616.4)" d="M 5976.71,6496.04 L 5982.71,6499.5 L 5982.71,6506.43 L 5739.3,6646.95 L 5727.3,6640.02 L 5976.71,6496.04 Z "/>
<path stroke="none" transform="matrix(0.1 0 0 0.1 -453.65 -616.4)" d="M 6235.12,6638.31 L 6229.12,6648.7 L 5982.71,6506.43 L 5982.71,6499.5 L 5988.71,6496.04 L 6235.12,6638.31 Z "/>
<path stroke="none" transform="matrix(0.1 0 0 0.1 -453.65 -616.4)" d="M 5976.7,6211.52 L 5988.7,6211.52 L 5988.71,6496.04 L 5982.71,6499.5 L 5976.71,6496.04 L 5976.7,6211.52 Z "/>
<path stroke="none" transform="matrix(0.1 0 0 0.1 -453.65 -616.4)" d="M 5489.91,7366.91 L 5477.91,7359.99 L 5477.9,7078.93 L 5483.9,7075.46 L 5489.9,7078.93 L 5489.91,7366.91 Z "/>
<path stroke="none" transform="matrix(0.1 0 0 0.1 -453.65 -616.4)" d="M 5477.91,7359.99 L 5489.91,7366.91 L 5240.5,7510.9 L 5234.5,7507.44 L 5234.5,7500.51 L 5477.91,7359.99 Z "/>
<path stroke="none" transform="matrix(0.1 0 0 0.1 -453.65 -616.4)" d="M 5429.07,7328.32 L 5435.07,7338.72 L 5237.5,7452.78 L 5231.5,7442.38 L 5429.07,7328.32 Z "/>
<path stroke="none" transform="matrix(0.1 0 0 0.1 -453.65 -616.4)" d="M 4591.5,6929.5 A 144,144 0 1 0 4879.5,6929.5A 144,144 0 1 0 4591.5,6929.5Z " class="connection_in" stroke-width="18px"/>
</g>
</svg>