<svg xmlns="http://www.w3.org/2000/svg" xmlns:xlink="http://www.w3.org/1999/xlink" viewBox="0 0 234.29799999999994 116.17499999999991" style="background-color: #ffffff00" version="1.1">
<g transform="matrix(1 0 0 1 -3.500000000000057 -3.150000000000091)">
<text x="0" y="0" stroke="none" transform="matrix(0.1 0 0 0.1 114.368 117.325)" font-style="normal" font-weight="bold" font-size="200px" font-family="Arial">
OH</text>
<text x="0" y="0" stroke="none" transform="matrix(0.1 0 0 0.1 215.798 88.525)" font-style="normal" font-weight="bold" font-size="200px" font-family="Arial">
F</text>
<path stroke="none" transform="matrix(0.1 0 0 0.1 -413.65 -644.4)" d="M 5351.97,7254.21 L 5357.97,7250.75 L 5363.97,7254.21 L 5363.97,7435.92 L 5351.97,7435.92 L 5351.97,7254.21 Z "/>
<path stroke="none" transform="matrix(0.1 0 0 0.1 -413.65 -644.4)" d="M 5108.57,7113.68 L 5108.57,7106.75 L 5114.57,7103.29 L 5357.97,7243.82 L 5357.97,7250.75 L 5351.97,7254.21 L 5108.57,7113.68 Z "/>
<path stroke="none" transform="matrix(0.1 0 0 0.1 -413.65 -644.4)" d="M 4859.17,7257.68 L 4859.17,7243.82 L 5102.57,7103.29 L 5108.57,7106.75 L 5108.57,7113.68 L 4859.17,7257.68 Z "/>
<path stroke="none" transform="matrix(0.1 0 0 0.1 -413.65 -644.4)" d="M 4603.77,7110.21 L 4615.77,7103.29 L 4859.17,7243.82 L 4859.17,7257.68 L 4603.77,7110.21 Z "/>
<path stroke="none" transform="matrix(0.1 0 0 0.1 -413.65 -644.4)" d="M 4658.6,7082.02 L 4664.6,7071.63 L 4862.17,7185.7 L 4856.17,7196.09 L 4658.6,7082.02 Z "/>
<path stroke="none" transform="matrix(0.1 0 0 0.1 -413.65 -644.4)" d="M 4603.77,6822.22 L 4609.77,6818.75 L 4615.77,6822.21 L 4615.77,7103.29 L 4603.77,7110.21 L 4603.77,6822.22 Z "/>
<path stroke="none" transform="matrix(0.1 0 0 0.1 -413.65 -644.4)" d="M 4357.17,6679.95 L 4363.16,6669.55 L 4609.77,6811.82 L 4609.77,6818.75 L 4603.77,6822.22 L 4357.17,6679.95 Z "/>
<path stroke="none" transform="matrix(0.1 0 0 0.1 -413.65 -644.4)" d="M 4859.17,6667.82 L 4859.17,6681.68 L 4615.77,6822.21 L 4609.77,6818.75 L 4609.77,6811.82 L 4859.17,6667.82 Z "/>
<path stroke="none" transform="matrix(0.1 0 0 0.1 -413.65 -644.4)" d="M 4856.17,6729.41 L 4862.17,6739.8 L 4664.6,6853.87 L 4658.6,6843.48 L 4856.17,6729.41 Z "/>
<path stroke="none" transform="matrix(0.1 0 0 0.1 -413.65 -644.4)" d="M 5114.57,6815.29 L 5102.57,6822.21 L 4859.17,6681.68 L 4859.17,6667.82 L 5114.57,6815.29 Z "/>
<path stroke="none" transform="matrix(0.1 0 0 0.1 -413.65 -644.4)" d="M 5102.57,6822.21 L 5114.57,6815.29 L 5114.57,7103.29 L 5108.57,7106.75 L 5102.57,7103.29 L 5102.57,6822.21 Z "/>
<path stroke="none" transform="matrix(0.1 0 0 0.1 -413.65 -644.4)" d="M 5050.73,6848.68 L 5062.73,6848.68 L 5062.73,7076.82 L 5050.73,7076.82 L 5050.73,6848.68 Z "/>
<path stroke="none" transform="matrix(0.1 0 0 0.1 -413.65 -644.4)" d="M 5601.37,7103.29 L 5607.37,7106.75 L 5607.37,7113.68 L 5363.97,7254.21 L 5357.97,7250.75 L 5357.97,7243.82 L 5601.37,7103.29 Z "/>
<path stroke="none" transform="matrix(0.1 0 0 0.1 -413.65 -644.4)" d="M 5601.37,6815.29 L 5613.37,6822.21 L 5613.37,7103.29 L 5607.37,7106.75 L 5601.37,7103.29 L 5601.37,6815.29 Z "/>
<path stroke="none" transform="matrix(0.1 0 0 0.1 -413.65 -644.4)" d="M 5856.77,6667.82 L 5856.77,6681.68 L 5613.37,6822.21 L 5601.37,6815.29 L 5856.77,6667.82 Z "/>
<path stroke="none" transform="matrix(0.1 0 0 0.1 -413.65 -644.4)" d="M 5853.77,6729.41 L 5859.77,6739.8 L 5662.2,6853.87 L 5656.2,6843.48 L 5853.77,6729.41 Z "/>
<path stroke="none" transform="matrix(0.1 0 0 0.1 -413.65 -644.4)" d="M 6112.17,6815.29 L 6100.17,6822.21 L 5856.77,6681.68 L 5856.77,6667.82 L 6112.17,6815.29 Z "/>
<path stroke="none" transform="matrix(0.1 0 0 0.1 -413.65 -644.4)" d="M 6112.17,7103.29 L 6106.17,7106.75 L 6100.17,7103.29 L 6100.17,6822.21 L 6112.17,6815.29 L 6112.17,7103.29 Z "/>
<path stroke="none" transform="matrix(0.1 0 0 0.1 -413.65 -644.4)" d="M 6060.33,7076.82 L 6048.33,7076.82 L 6048.33,6848.68 L 6060.33,6848.68 L 6060.33,7076.82 Z "/>
<path stroke="none" transform="matrix(0.1 0 0 0.1 -413.65 -644.4)" d="M 6266.7,7192.51 L 6260.7,7202.9 L 6106.17,7113.68 L 6106.17,7106.75 L 6112.17,7103.29 L 6266.7,7192.51 Z "/>
<path stroke="none" transform="matrix(0.1 0 0 0.1 -413.65 -644.4)" d="M 5856.77,7257.68 L 5856.77,7243.82 L 6100.17,7103.29 L 6106.17,7106.75 L 6106.17,7113.68 L 5856.77,7257.68 Z "/>
<path stroke="none" transform="matrix(0.1 0 0 0.1 -413.65 -644.4)" d="M 5856.77,7243.82 L 5856.77,7257.68 L 5607.37,7113.68 L 5607.37,7106.75 L 5613.37,7103.29 L 5856.77,7243.82 Z "/>
<path stroke="none" transform="matrix(0.1 0 0 0.1 -413.65 -644.4)" d="M 5859.77,7185.7 L 5853.77,7196.09 L 5656.2,7082.02 L 5662.2,7071.63 L 5859.77,7185.7 Z "/>
<path stroke="none" transform="matrix(0.1 0 0 0.1 -413.65 -644.4)" d="M 4191.5,6639.5 A 144,144 0 1 0 4479.5,6639.5A 144,144 0 1 0 4191.5,6639.5Z " class="connection_in" stroke-width="18px"/>
</g>
</svg>