<svg xmlns="http://www.w3.org/2000/svg" xmlns:xlink="http://www.w3.org/1999/xlink" viewBox="0 0 242.97099999999998 142.44310000000007" style="background-color: #ffffff00" version="1.1">
<g transform="matrix(1 0 0 1 -2.1620000000000346 -3.648900000000001)">
<text x="0" y="0" stroke="none" transform="matrix(0.1 0 0 0.1 223.133 36.0489)" font-style="normal" font-weight="bold" font-size="200px" font-family="Arial">
F</text>
<text x="0" y="0" stroke="none" transform="matrix(0.1 0 0 0.1 198.193 21.6489)" font-style="normal" font-weight="bold" font-size="200px" font-family="Arial">
F</text>
<text x="0" y="0" stroke="none" transform="matrix(0.1 0 0 0.1 223.133 64.8488)" font-style="normal" font-weight="bold" font-size="200px" font-family="Arial">
F</text>
<text x="0" y="0" stroke="none" transform="matrix(0.1 0 0 0.1 96.7433 108.049)" font-style="normal" font-weight="bold" font-size="200px" font-family="Arial">
O</text>
<path stroke="none" transform="matrix(0.1 0 0 0.1 -409.65 -636.4)" d="M 6151.52,6789.99 L 6139.52,6789.99 L 6145.52,6779.6 L 6293.47,6694.17 L 6299.47,6704.56 L 6151.52,6789.99 Z "/>
<path stroke="none" transform="matrix(0.1 0 0 0.1 -409.65 -636.4)" d="M 6133.52,6607.66 L 6145.52,6607.66 L 6145.52,6779.6 L 6139.52,6789.99 L 6133.52,6786.52 L 6133.52,6607.66 Z "/>
<path stroke="none" transform="matrix(0.1 0 0 0.1 -409.65 -636.4)" d="M 6300.05,6875.75 L 6294.05,6886.14 L 6139.52,6796.92 L 6139.52,6789.99 L 6151.52,6789.99 L 6300.05,6875.75 Z "/>
<path stroke="none" transform="matrix(0.1 0 0 0.1 -409.65 -636.4)" d="M 5896.12,6937.45 L 5890.12,6933.99 L 5890.12,6927.06 L 6133.52,6786.52 L 6139.52,6789.99 L 6139.52,6796.92 L 5896.12,6937.45 Z "/>
<path stroke="none" transform="matrix(0.1 0 0 0.1 -409.65 -636.4)" d="M 5896.12,7225.45 L 5884.12,7218.52 L 5884.12,6937.45 L 5890.12,6933.99 L 5896.12,6937.45 L 5896.12,7225.45 Z "/>
<path stroke="none" transform="matrix(0.1 0 0 0.1 -409.65 -636.4)" d="M 5640.72,7372.92 L 5640.71,7359.06 L 5884.12,7218.52 L 5896.12,7225.45 L 5640.72,7372.92 Z "/>
<path stroke="none" transform="matrix(0.1 0 0 0.1 -409.65 -636.4)" d="M 5643.71,7311.33 L 5637.71,7300.94 L 5835.28,7186.87 L 5841.28,7197.26 L 5643.71,7311.33 Z "/>
<path stroke="none" transform="matrix(0.1 0 0 0.1 -409.65 -636.4)" d="M 5391.12,7228.92 L 5391.12,7221.99 L 5397.12,7218.52 L 5640.71,7359.06 L 5640.72,7372.92 L 5391.12,7228.92 Z "/>
<path stroke="none" transform="matrix(0.1 0 0 0.1 -409.65 -636.4)" d="M 5234.2,7319.52 L 5228.2,7309.12 L 5385.12,7218.52 L 5391.12,7221.99 L 5391.12,7228.92 L 5234.2,7319.52 Z "/>
<path stroke="none" transform="matrix(0.1 0 0 0.1 -409.65 -636.4)" d="M 4892.32,7228.92 L 4892.32,7215.06 L 5055.67,7309.38 L 5049.67,7319.77 L 4892.32,7228.92 Z "/>
<path stroke="none" transform="matrix(0.1 0 0 0.1 -409.65 -636.4)" d="M 4648.92,7369.45 L 4642.92,7365.99 L 4642.92,7359.06 L 4892.32,7215.06 L 4892.32,7228.92 L 4648.92,7369.45 Z "/>
<path stroke="none" transform="matrix(0.1 0 0 0.1 -409.65 -636.4)" d="M 4648.92,7657.45 L 4636.92,7650.52 L 4636.92,7369.45 L 4642.92,7365.99 L 4648.92,7369.45 L 4648.92,7657.45 Z "/>
<path stroke="none" transform="matrix(0.1 0 0 0.1 -409.65 -636.4)" d="M 4393.52,7804.92 L 4393.52,7791.06 L 4636.92,7650.52 L 4648.92,7657.45 L 4393.52,7804.92 Z "/>
<path stroke="none" transform="matrix(0.1 0 0 0.1 -409.65 -636.4)" d="M 4396.52,7743.33 L 4390.52,7732.93 L 4588.08,7618.86 L 4594.08,7629.26 L 4396.52,7743.33 Z "/>
<path stroke="none" transform="matrix(0.1 0 0 0.1 -409.65 -636.4)" d="M 4138.12,7657.45 L 4150.12,7650.52 L 4393.52,7791.06 L 4393.52,7804.92 L 4138.12,7657.45 Z "/>
<path stroke="none" transform="matrix(0.1 0 0 0.1 -409.65 -636.4)" d="M 4138.12,7362.52 L 4150.12,7369.45 L 4150.12,7650.52 L 4138.12,7657.45 L 4138.12,7362.52 Z "/>
<path stroke="none" transform="matrix(0.1 0 0 0.1 -409.65 -636.4)" d="M 4189.96,7395.92 L 4201.96,7395.92 L 4201.96,7624.06 L 4189.96,7624.06 L 4189.96,7395.92 Z "/>
<path stroke="none" transform="matrix(0.1 0 0 0.1 -409.65 -636.4)" d="M 4393.52,7215.06 L 4393.52,7228.92 L 4150.12,7369.45 L 4138.12,7362.52 L 4393.52,7215.06 Z "/>
<path stroke="none" transform="matrix(0.1 0 0 0.1 -409.65 -636.4)" d="M 4393.52,7228.92 L 4393.52,7215.06 L 4642.92,7359.06 L 4642.92,7365.99 L 4636.92,7369.45 L 4393.52,7228.92 Z "/>
<path stroke="none" transform="matrix(0.1 0 0 0.1 -409.65 -636.4)" d="M 4390.52,7287.04 L 4396.52,7276.65 L 4594.08,7390.72 L 4588.08,7401.11 L 4390.52,7287.04 Z "/>
<path stroke="none" transform="matrix(0.1 0 0 0.1 -409.65 -636.4)" d="M 5385.12,6937.45 L 5391.12,6933.99 L 5397.12,6937.45 L 5397.12,7218.52 L 5391.12,7221.99 L 5385.12,7218.52 L 5385.12,6937.45 Z "/>
<path stroke="none" transform="matrix(0.1 0 0 0.1 -409.65 -636.4)" d="M 5436.96,6963.93 L 5448.96,6963.93 L 5448.96,7192.05 L 5436.96,7192.05 L 5436.96,6963.93 Z "/>
<path stroke="none" transform="matrix(0.1 0 0 0.1 -409.65 -636.4)" d="M 5138.72,6795.18 L 5144.72,6784.79 L 5391.12,6927.06 L 5391.12,6933.99 L 5385.12,6937.45 L 5138.72,6795.18 Z "/>
<path stroke="none" transform="matrix(0.1 0 0 0.1 -409.65 -636.4)" d="M 5640.72,6783.06 L 5640.71,6796.92 L 5397.12,6937.45 L 5391.12,6933.99 L 5391.12,6927.06 L 5640.72,6783.06 Z "/>
<path stroke="none" transform="matrix(0.1 0 0 0.1 -409.65 -636.4)" d="M 5640.71,6796.92 L 5640.72,6783.06 L 5890.12,6927.06 L 5890.12,6933.99 L 5884.12,6937.45 L 5640.71,6796.92 Z "/>
<path stroke="none" transform="matrix(0.1 0 0 0.1 -409.65 -636.4)" d="M 5637.71,6855.04 L 5643.71,6844.64 L 5841.28,6958.72 L 5835.28,6969.11 L 5637.71,6855.04 Z "/>
<path stroke="none" transform="matrix(0.1 0 0 0.1 -409.65 -636.4)" d="M 4981.5,6749.5 A 144,144 0 1 0 5269.5,6749.5A 144,144 0 1 0 4981.5,6749.5Z " class="connection_in" stroke-width="18px"/>
</g>
</svg>