<svg xmlns="http://www.w3.org/2000/svg" xmlns:xlink="http://www.w3.org/1999/xlink" viewBox="0 0 196.51499999999993 135.20000000000002" style="background-color: #ffffff00" version="1.1">
<g transform="matrix(1 0 0 1 -3.500000000000057 -3.1999999999999993)">
<text x="0" y="0" stroke="none" transform="matrix(0.1 0 0 0.1 114.797 136.4)" font-style="normal" font-weight="bold" font-size="200px" font-family="Arial">
O</text>
<text x="0" y="0" stroke="none" transform="matrix(0.1 0 0 0.1 114.797 21.2)" font-style="normal" font-weight="bold" font-size="200px" font-family="Arial">
O</text>
<path stroke="none" transform="matrix(0.1 0 0 0.1 -428.65 -640.4)" d="M 5480.33,7386.53 L 5492.33,7386.53 L 5492.33,7586.67 L 5480.33,7586.67 L 5480.33,7386.53 Z "/>
<path stroke="none" transform="matrix(0.1 0 0 0.1 -428.65 -640.4)" d="M 5532.17,7386.53 L 5544.17,7386.53 L 5544.17,7586.67 L 5532.17,7586.67 L 5532.17,7386.53 Z "/>
<path stroke="none" transform="matrix(0.1 0 0 0.1 -428.65 -640.4)" d="M 5755.65,7254.04 L 5761.65,7257.5 L 5761.65,7264.43 L 5512.25,7408.43 L 5512.25,7394.57 L 5755.65,7254.04 Z "/>
<path stroke="none" transform="matrix(0.1 0 0 0.1 -428.65 -640.4)" d="M 6011.05,7394.57 L 6011.05,7408.43 L 5761.65,7264.43 L 5761.65,7257.5 L 5767.65,7254.04 L 6011.05,7394.57 Z "/>
<path stroke="none" transform="matrix(0.1 0 0 0.1 -428.65 -640.4)" d="M 6254.65,7254.03 L 6266.65,7260.97 L 6011.05,7408.43 L 6011.05,7394.57 L 6254.65,7254.03 Z "/>
<path stroke="none" transform="matrix(0.1 0 0 0.1 -428.65 -640.4)" d="M 6205.78,7222.35 L 6211.78,7232.74 L 6014.06,7346.81 L 6008.06,7336.41 L 6205.78,7222.35 Z "/>
<path stroke="none" transform="matrix(0.1 0 0 0.1 -428.65 -640.4)" d="M 6254.65,6972.97 L 6266.65,6966.03 L 6266.65,7260.97 L 6254.65,7254.03 L 6254.65,6972.97 Z "/>
<path stroke="none" transform="matrix(0.1 0 0 0.1 -428.65 -640.4)" d="M 6011.05,6832.43 L 6011.05,6818.57 L 6266.65,6966.03 L 6254.65,6972.97 L 6011.05,6832.43 Z "/>
<path stroke="none" transform="matrix(0.1 0 0 0.1 -428.65 -640.4)" d="M 6008.06,6890.58 L 6014.06,6880.19 L 6211.78,6994.26 L 6205.78,7004.65 L 6008.06,6890.58 Z "/>
<path stroke="none" transform="matrix(0.1 0 0 0.1 -428.65 -640.4)" d="M 5767.65,6972.96 L 5761.65,6969.5 L 5761.65,6962.57 L 6011.05,6818.57 L 6011.05,6832.43 L 5767.65,6972.96 Z "/>
<path stroke="none" transform="matrix(0.1 0 0 0.1 -428.65 -640.4)" d="M 5755.65,6972.96 L 5761.65,6969.5 L 5767.65,6972.96 L 5767.65,7254.04 L 5761.65,7257.5 L 5755.65,7254.04 L 5755.65,6972.96 Z "/>
<path stroke="none" transform="matrix(0.1 0 0 0.1 -428.65 -640.4)" d="M 5807.49,6999.43 L 5819.49,6999.43 L 5819.49,7227.57 L 5807.49,7227.57 L 5807.49,6999.43 Z "/>
<path stroke="none" transform="matrix(0.1 0 0 0.1 -428.65 -640.4)" d="M 5512.25,6832.43 L 5512.25,6818.57 L 5761.65,6962.57 L 5761.65,6969.5 L 5755.65,6972.96 L 5512.25,6832.43 Z "/>
<path stroke="none" transform="matrix(0.1 0 0 0.1 -428.65 -640.4)" d="M 5480.33,6645.67 L 5492.33,6645.67 L 5492.33,6840.47 L 5480.33,6840.47 L 5480.33,6645.67 Z "/>
<path stroke="none" transform="matrix(0.1 0 0 0.1 -428.65 -640.4)" d="M 5532.17,6645.67 L 5544.17,6645.67 L 5544.17,6840.47 L 5532.17,6840.47 L 5532.17,6645.67 Z "/>
<path stroke="none" transform="matrix(0.1 0 0 0.1 -428.65 -640.4)" d="M 5268.85,6972.96 L 5262.85,6969.5 L 5262.85,6962.57 L 5512.25,6818.57 L 5512.25,6832.43 L 5268.85,6972.96 Z "/>
<path stroke="none" transform="matrix(0.1 0 0 0.1 -428.65 -640.4)" d="M 5013.45,6832.43 L 5013.45,6818.57 L 5262.85,6962.57 L 5262.85,6969.5 L 5256.85,6972.96 L 5013.45,6832.43 Z "/>
<path stroke="none" transform="matrix(0.1 0 0 0.1 -428.65 -640.4)" d="M 4770.05,6972.96 L 4764.05,6969.5 L 4764.05,6962.57 L 5013.45,6818.57 L 5013.45,6832.43 L 4770.05,6972.96 Z "/>
<path stroke="none" transform="matrix(0.1 0 0 0.1 -428.65 -640.4)" d="M 4818.89,7004.62 L 4812.89,6994.23 L 5010.45,6880.16 L 5016.45,6890.55 L 4818.89,7004.62 Z "/>
<path stroke="none" transform="matrix(0.1 0 0 0.1 -428.65 -640.4)" d="M 4511.65,6830.7 L 4517.65,6820.3 L 4764.05,6962.57 L 4764.05,6969.5 L 4758.05,6972.96 L 4511.65,6830.7 Z "/>
<path stroke="none" transform="matrix(0.1 0 0 0.1 -428.65 -640.4)" d="M 4770.05,7254.04 L 4758.05,7260.96 L 4758.05,6972.96 L 4764.05,6969.5 L 4770.05,6972.96 L 4770.05,7254.04 Z "/>
<path stroke="none" transform="matrix(0.1 0 0 0.1 -428.65 -640.4)" d="M 5013.45,7394.57 L 5013.45,7408.43 L 4758.05,7260.96 L 4770.05,7254.04 L 5013.45,7394.57 Z "/>
<path stroke="none" transform="matrix(0.1 0 0 0.1 -428.65 -640.4)" d="M 5016.45,7336.45 L 5010.45,7346.84 L 4812.89,7232.77 L 4818.89,7222.38 L 5016.45,7336.45 Z "/>
<path stroke="none" transform="matrix(0.1 0 0 0.1 -428.65 -640.4)" d="M 5256.85,7254.04 L 5262.85,7257.5 L 5262.85,7264.43 L 5013.45,7408.43 L 5013.45,7394.57 L 5256.85,7254.04 Z "/>
<path stroke="none" transform="matrix(0.1 0 0 0.1 -428.65 -640.4)" d="M 5268.85,7254.04 L 5262.85,7257.5 L 5256.85,7254.04 L 5256.85,6972.96 L 5262.85,6969.5 L 5268.85,6972.96 L 5268.85,7254.04 Z "/>
<path stroke="none" transform="matrix(0.1 0 0 0.1 -428.65 -640.4)" d="M 5217.01,7227.57 L 5205.01,7227.57 L 5205.01,6999.43 L 5217.01,6999.43 L 5217.01,7227.57 Z "/>
<path stroke="none" transform="matrix(0.1 0 0 0.1 -428.65 -640.4)" d="M 5262.85,7264.43 L 5262.85,7257.5 L 5268.85,7254.04 L 5512.25,7394.57 L 5512.25,7408.43 L 5262.85,7264.43 Z "/>
<path stroke="none" transform="matrix(0.1 0 0 0.1 -428.65 -640.4)" d="M 4341.5,6819.5 A 144,144 0 1 0 4629.5,6819.5A 144,144 0 1 0 4341.5,6819.5Z " class="connection_in" stroke-width="18px"/>
</g>
</svg>