<svg viewBox="0 0 145 102" xmlns="http://www.w3.org/2000/svg">
<path transform="matrix(0.1 0 0 0.1 -444.65 -698.4)" d="M 4927.74,7633.74 L 4921.74,7637.2 L 4915.74,7633.74 L 4915.74,7345.74 L 4927.74,7352.66 L 4927.74,7633.74 Z " />
<path transform="matrix(0.1 0 0 0.1 -444.65 -698.4)" d="M 4979.58,7607.27 L 4967.58,7607.27 L 4967.58,7379.13 L 4979.58,7379.13 L 4979.58,7607.27 Z " />
<path transform="matrix(0.1 0 0 0.1 -444.65 -698.4)" d="M 5171.16,7774.27 L 5171.16,7788.13 L 4921.74,7644.13 L 4921.74,7637.2 L 4927.74,7633.74 L 5171.16,7774.27 Z " />
<path transform="matrix(0.1 0 0 0.1 -444.65 -698.4)" d="M 5414.58,7633.74 L 5426.57,7640.66 L 5171.16,7788.13 L 5171.16,7774.27 L 5414.58,7633.74 Z " />
<path transform="matrix(0.1 0 0 0.1 -444.65 -698.4)" d="M 5365.74,7602.07 L 5371.73,7612.47 L 5174.16,7726.54 L 5168.16,7716.14 L 5365.74,7602.07 Z " />
<path transform="matrix(0.1 0 0 0.1 -444.65 -698.4)" d="M 5414.58,7352.66 L 5420.57,7349.2 L 5426.57,7352.66 L 5426.57,7640.66 L 5414.58,7633.74 L 5414.58,7352.66 Z " />
<path transform="matrix(0.1 0 0 0.1 -444.65 -698.4)" d="M 5171.16,7212.13 L 5171.16,7198.27 L 5420.57,7342.27 L 5420.57,7349.2 L 5414.58,7352.66 L 5171.16,7212.13 Z " />
<path transform="matrix(0.1 0 0 0.1 -444.65 -698.4)" d="M 5168.16,7270.26 L 5174.16,7259.86 L 5371.73,7373.93 L 5365.74,7384.33 L 5168.16,7270.26 Z " />
<path transform="matrix(0.1 0 0 0.1 -444.65 -698.4)" d="M 4927.74,7352.66 L 4915.74,7345.74 L 5171.16,7198.27 L 5171.16,7212.13 L 4927.74,7352.66 Z " />
<path transform="matrix(0.1 0 0 0.1 -444.65 -698.4)" d="M 4675.33,7786.4 L 4669.33,7776 L 4915.74,7633.74 L 4921.74,7637.2 L 4921.74,7644.13 L 4675.33,7786.4 Z " />
<path transform="matrix(0.1 0 0 0.1 -444.65 -698.4)" d="M 5666.99,7200 L 5672.99,7210.4 L 5426.57,7352.66 L 5420.57,7349.2 L 5420.57,7342.27 L 5666.99,7200 Z " />
<path class="connection_in" transform="matrix(0.1 0 0 0.1 -444.65 -698.4)" d="M 4499.53,7781.2 A 172.8,172.8 0 1 0 4845.13,7781.2A 172.8,172.8 0 1 0 4499.53,7781.2Z " />
<path class="connection_out" transform="matrix(0.1 0 0 0.1 -444.65 -698.4)" d="M 5497.19,7205.2 A 172.8,172.8 0 1 0 5842.79,7205.2A 172.8,172.8 0 1 0 5497.19,7205.2Z " />
</svg>
