<svg viewBox="0 0 144 85" xmlns="http://www.w3.org/2000/svg">
<path transform="matrix(0.1 0 0 0.1 -487.65 -589.4)" d="M 5354.16,6373.74 L 5348.16,6377.2 L 5342.16,6373.74 L 5342.16,6085.74 L 5354.16,6092.66 L 5354.16,6373.74 Z " />
<path transform="matrix(0.1 0 0 0.1 -487.65 -589.4)" d="M 5406,6347.27 L 5394,6347.27 L 5394,6119.13 L 5406,6119.13 L 5406,6347.27 Z " />
<path transform="matrix(0.1 0 0 0.1 -487.65 -589.4)" d="M 5597.57,6514.27 L 5597.57,6528.13 L 5348.16,6384.13 L 5348.16,6377.2 L 5354.16,6373.74 L 5597.57,6514.27 Z " />
<path transform="matrix(0.1 0 0 0.1 -487.65 -589.4)" d="M 5840.99,6373.74 L 5846.99,6377.2 L 5846.99,6384.13 L 5597.57,6528.13 L 5597.57,6514.27 L 5840.99,6373.74 Z " />
<path transform="matrix(0.1 0 0 0.1 -487.65 -589.4)" d="M 5792.15,6342.07 L 5798.15,6352.47 L 5600.57,6466.54 L 5594.57,6456.14 L 5792.15,6342.07 Z " />
<path transform="matrix(0.1 0 0 0.1 -487.65 -589.4)" d="M 5840.99,6092.66 L 5852.99,6085.74 L 5852.99,6373.74 L 5846.99,6377.2 L 5840.99,6373.74 L 5840.99,6092.66 Z " />
<path transform="matrix(0.1 0 0 0.1 -487.65 -589.4)" d="M 5597.57,5952.13 L 5597.57,5938.27 L 5852.99,6085.74 L 5840.99,6092.66 L 5597.57,5952.13 Z " />
<path transform="matrix(0.1 0 0 0.1 -487.65 -589.4)" d="M 5594.57,6010.26 L 5600.57,5999.86 L 5798.15,6113.93 L 5792.15,6124.33 L 5594.57,6010.26 Z " />
<path transform="matrix(0.1 0 0 0.1 -487.65 -589.4)" d="M 5354.16,6092.66 L 5342.16,6085.74 L 5597.57,5938.27 L 5597.57,5952.13 L 5354.16,6092.66 Z " />
<path transform="matrix(0.1 0 0 0.1 -487.65 -589.4)" d="M 5101.74,6526.4 L 5095.74,6516 L 5342.16,6373.74 L 5348.16,6377.2 L 5348.16,6384.13 L 5101.74,6526.4 Z " />
<path transform="matrix(0.1 0 0 0.1 -487.65 -589.4)" d="M 6099.4,6516 L 6093.4,6526.4 L 5846.99,6384.13 L 5846.99,6377.2 L 5852.99,6373.74 L 6099.4,6516 Z " />
<path class="connection_in" transform="matrix(0.1 0 0 0.1 -487.65 -589.4)" d="M 4925.94,6521.2 A 172.8,172.8 0 1 0 5271.54,6521.2A 172.8,172.8 0 1 0 4925.94,6521.2Z " />
<path class="connection_out" transform="matrix(0.1 0 0 0.1 -487.65 -589.4)" d="M 5923.6,6521.2 A 172.8,172.8 0 1 0 6269.2,6521.2A 172.8,172.8 0 1 0 5923.6,6521.2Z " />
</svg>
