<svg xmlns="http://www.w3.org/2000/svg" xmlns:xlink="http://www.w3.org/1999/xlink" viewBox="0 0 136.8 57.572999999999865" style="background-color: #ffffff00" version="1.1">
<g transform="matrix(1 0 0 1 -228.91099999999997 -771.4110000000002)">
<text x="0" y="0" stroke="none" transform="matrix(0.1 0 0 0.1 289.001 789.916)" font-style="normal" font-weight="bold" font-size="200px" font-family="Arial">
S</text>
<path stroke="none" transform="matrix(0.1 0 0 0.1 -230.65 -114.4)" d="M 5500.96,9138.7 L 5496.2,9133.94 L 5497.25,9127.29 L 5768.25,9039.24 L 5771.96,9050.65 L 5500.96,9138.7 Z "/>
<path stroke="none" transform="matrix(0.1 0 0 0.1 -230.65 -114.4)" d="M 5411.56,9413.84 L 5402.85,9401.84 L 5489.15,9136.23 L 5496.2,9133.94 L 5500.96,9138.7 L 5411.56,9413.84 Z "/>
<path stroke="none" transform="matrix(0.1 0 0 0.1 -230.65 -114.4)" d="M 5375.25,9357.86 L 5363.83,9354.15 L 5429.55,9151.89 L 5440.97,9155.59 L 5375.25,9357.86 Z "/>
<path stroke="none" transform="matrix(0.1 0 0 0.1 -230.65 -114.4)" d="M 5114.85,9413.84 L 5123.56,9401.84 L 5402.85,9401.84 L 5411.56,9413.84 L 5114.85,9413.84 Z "/>
<path stroke="none" transform="matrix(0.1 0 0 0.1 -230.65 -114.4)" d="M 5174.73,9021.52 L 5181.78,9031.23 L 5037.26,9136.23 L 5030.21,9133.94 L 5029.15,9127.29 L 5174.73,9021.52 Z "/>
<path stroke="none" transform="matrix(0.1 0 0 0.1 -230.65 -114.4)" d="M 5344.84,9031.38 L 5351.89,9021.68 L 5497.25,9127.29 L 5496.2,9133.94 L 5489.15,9136.23 L 5344.84,9031.38 Z "/>
<path stroke="none" transform="matrix(0.1 0 0 0.1 -230.65 -114.4)" d="M 4754.45,9050.65 L 4758.16,9039.24 L 5029.15,9127.29 L 5030.21,9133.94 L 5025.45,9138.7 L 4754.45,9050.65 Z "/>
<path stroke="none" transform="matrix(0.1 0 0 0.1 -230.65 -114.4)" d="M 5025.45,9138.7 L 5030.21,9133.94 L 5037.26,9136.23 L 5123.56,9401.84 L 5114.85,9413.84 L 5025.45,9138.7 Z "/>
<path stroke="none" transform="matrix(0.1 0 0 0.1 -230.65 -114.4)" d="M 5085.44,9155.59 L 5096.86,9151.89 L 5162.57,9354.15 L 5151.16,9357.86 L 5085.44,9155.59 Z "/>
<path stroke="none" transform="matrix(0.1 0 0 0.1 -230.65 -114.4)" d="M 4615.61,9022.11 A 144,144 0 1 0 4903.61,9022.11A 144,144 0 1 0 4615.61,9022.11Z " class="connection_in" stroke-width="18px"/>
<path stroke="none" transform="matrix(0.1 0 0 0.1 -230.65 -114.4)" d="M 5655.61,9032.11 A 144,144 0 1 0 5943.61,9032.11A 144,144 0 1 0 5655.61,9032.11Z " class="connection_out" stroke-width="18px"/>
</g>
</svg>