<svg viewBox="0 0 141 82" xmlns="http://www.w3.org/2000/svg">
<text x="0" y="0" transform="matrix(0.1 0 0 0.1 66.6031 38.1453)" font-size="200px">S</text>
<path transform="matrix(0.1 0 0 0.1 -422.65 -724.4)" d="M 4691.33,7919.59 L 4679.33,7928.31 L 4679.33,7639.01 L 4685.33,7635.95 L 4691.33,7640.31 L 4691.33,7919.59 Z " />
<path transform="matrix(0.1 0 0 0.1 -422.65 -724.4)" d="M 4743.17,7886.29 L 4731.17,7886.29 L 4731.17,7673.61 L 4743.17,7673.61 L 4743.17,7886.29 Z " />
<path transform="matrix(0.1 0 0 0.1 -422.65 -724.4)" d="M 4956.94,8005.89 L 4961.52,8020 L 4679.33,7928.31 L 4691.33,7919.59 L 4956.94,8005.89 Z " />
<path transform="matrix(0.1 0 0 0.1 -422.65 -724.4)" d="M 5121.1,7779.95 L 5128.51,7779.95 L 5131.57,7785.95 L 4961.52,8020 L 4956.94,8005.89 L 5121.1,7779.95 Z " />
<path transform="matrix(0.1 0 0 0.1 -422.65 -724.4)" d="M 5059.58,7776.42 L 5069.29,7783.48 L 4944.28,7955.53 L 4934.58,7948.48 L 5059.58,7776.42 Z " />
<path transform="matrix(0.1 0 0 0.1 -422.65 -724.4)" d="M 5018.57,7638.84 L 5028.28,7631.79 L 5131.57,7773.95 L 5128.51,7779.95 L 5121.1,7779.95 L 5018.57,7638.84 Z " />
<path transform="matrix(0.1 0 0 0.1 -422.65 -724.4)" d="M 4691.33,7640.31 L 4685.33,7635.95 L 4686.38,7629.3 L 4863.83,7571.64 L 4867.54,7583.05 L 4691.33,7640.31 Z " />
<path transform="matrix(0.1 0 0 0.1 -422.65 -724.4)" d="M 4448.8,7471.52 L 4455.86,7461.81 L 4686.38,7629.3 L 4685.33,7635.95 L 4679.33,7639.01 L 4448.8,7471.52 Z " />
<path transform="matrix(0.1 0 0 0.1 -422.65 -724.4)" d="M 5416.51,7773.95 L 5416.51,7785.95 L 5131.57,7785.95 L 5128.51,7779.95 L 5131.57,7773.95 L 5416.51,7773.95 Z " />
<path class="connection_out" transform="matrix(0.1 0 0 0.1 -422.65 -724.4)" d="M 5243.71,7779.95 A 172.8,172.8 0 1 0 5589.31,7779.95A 172.8,172.8 0 1 0 5243.71,7779.95Z " />
<path class="connection_in" transform="matrix(0.1 0 0 0.1 -422.65 -724.4)" d="M 4279.53,7466.67 A 172.8,172.8 0 1 0 4625.13,7466.67A 172.8,172.8 0 1 0 4279.53,7466.67Z " />
</svg>
