<svg viewBox="0 0 192 88" xmlns="http://www.w3.org/2000/svg">
<path transform="matrix(0.1 0 0 0.1 -393.65 -502.4)" d="M 4413.27,5533.74 L 4407.27,5537.2 L 4401.27,5533.74 L 4401.27,5245.74 L 4413.27,5252.66 L 4413.27,5533.74 Z " />
<path transform="matrix(0.1 0 0 0.1 -393.65 -502.4)" d="M 4465.11,5507.27 L 4453.11,5507.27 L 4453.11,5279.13 L 4465.11,5279.13 L 4465.11,5507.27 Z " />
<path transform="matrix(0.1 0 0 0.1 -393.65 -502.4)" d="M 4656.69,5674.27 L 4656.69,5688.13 L 4407.27,5544.13 L 4407.27,5537.2 L 4413.27,5533.74 L 4656.69,5674.27 Z " />
<path transform="matrix(0.1 0 0 0.1 -393.65 -502.4)" d="M 4900.1,5533.74 L 4906.1,5537.2 L 4906.79,5543.73 L 4656.69,5688.13 L 4656.69,5674.27 L 4900.1,5533.74 Z " />
<path transform="matrix(0.1 0 0 0.1 -393.65 -502.4)" d="M 4851.26,5502.07 L 4857.26,5512.47 L 4659.69,5626.54 L 4653.69,5616.14 L 4851.26,5502.07 Z " />
<path transform="matrix(0.1 0 0 0.1 -393.65 -502.4)" d="M 4900.1,5252.66 L 4906.1,5249.2 L 4912.1,5253.56 L 4912.1,5532.84 L 4906.1,5537.2 L 4900.1,5533.74 L 4900.1,5252.66 Z " />
<path transform="matrix(0.1 0 0 0.1 -393.65 -502.4)" d="M 4656.69,5112.13 L 4656.69,5098.27 L 4906.79,5242.67 L 4906.1,5249.2 L 4900.1,5252.66 L 4656.69,5112.13 Z " />
<path transform="matrix(0.1 0 0 0.1 -393.65 -502.4)" d="M 4653.69,5170.26 L 4659.69,5159.86 L 4857.26,5273.93 L 4851.26,5284.33 L 4653.69,5170.26 Z " />
<path transform="matrix(0.1 0 0 0.1 -393.65 -502.4)" d="M 4413.27,5252.66 L 4401.27,5245.74 L 4656.69,5098.27 L 4656.69,5112.13 L 4413.27,5252.66 Z " />
<text x="0" y="0" transform="matrix(0.1 0 0 0.1 116.572 21.4703)" font-size="200px">O</text>
<path transform="matrix(0.1 0 0 0.1 -393.65 -502.4)" d="M 5177.71,5619.14 L 5182.3,5633.25 L 4906.79,5543.73 L 4906.1,5537.2 L 4912.1,5532.84 L 5177.71,5619.14 Z " />
<path transform="matrix(0.1 0 0 0.1 -393.65 -502.4)" d="M 5341.87,5393.2 L 5349.29,5393.2 L 5352.35,5399.2 L 5182.3,5633.25 L 5177.71,5619.14 L 5341.87,5393.2 Z " />
<path transform="matrix(0.1 0 0 0.1 -393.65 -502.4)" d="M 5280.36,5389.67 L 5290.06,5396.73 L 5165.06,5568.78 L 5155.35,5561.73 L 5280.36,5389.67 Z " />
<path transform="matrix(0.1 0 0 0.1 -393.65 -502.4)" d="M 5239.32,5252.05 L 5249.03,5245 L 5352.35,5387.2 L 5349.29,5393.2 L 5341.87,5393.2 L 5239.32,5252.05 Z " />
<path transform="matrix(0.1 0 0 0.1 -393.65 -502.4)" d="M 4912.1,5253.56 L 4906.1,5249.2 L 4906.79,5242.67 L 5079.65,5186.5 L 5083.35,5197.92 L 4912.1,5253.56 Z " />
<path transform="matrix(0.1 0 0 0.1 -393.65 -502.4)" d="M 5637.29,5387.2 L 5637.29,5399.2 L 5352.35,5399.2 L 5349.29,5393.2 L 5352.35,5387.2 L 5637.29,5387.2 Z " />
<path transform="matrix(0.1 0 0 0.1 -393.65 -502.4)" d="M 4160.86,5686.4 L 4154.86,5676 L 4401.27,5533.74 L 4407.27,5537.2 L 4407.27,5544.13 L 4160.86,5686.4 Z " />
<path class="connection_in" transform="matrix(0.1 0 0 0.1 -393.65 -502.4)" d="M 3985.06,5681.2 A 172.8,172.8 0 1 0 4330.66,5681.2A 172.8,172.8 0 1 0 3985.06,5681.2Z " />
<path class="connection_out" transform="matrix(0.1 0 0 0.1 -393.65 -502.4)" d="M 5464.49,5393.2 A 172.8,172.8 0 1 0 5810.09,5393.2A 172.8,172.8 0 1 0 5464.49,5393.2Z " />
</svg>
