<svg xmlns="http://www.w3.org/2000/svg" xmlns:xlink="http://www.w3.org/1999/xlink" viewBox="0 0 138.8 94.79999999999995" style="background-color: #ffffff00" version="1.1">
<g transform="matrix(1 0 0 1 -208.91099999999997 -738.4110000000002)">
<path stroke="none" transform="matrix(0.1 0 0 0.1 -230.65 -114.4)" d="M 4849.87,9157.2 L 4837.87,9164.13 L 4837.87,8876.13 L 4843.87,8872.67 L 4849.87,8876.13 L 4849.87,9157.2 Z "/>
<path stroke="none" transform="matrix(0.1 0 0 0.1 -230.65 -114.4)" d="M 4901.71,9130.74 L 4889.71,9130.74 L 4889.71,8902.6 L 4901.71,8902.6 L 4901.71,9130.74 Z "/>
<path stroke="none" transform="matrix(0.1 0 0 0.1 -230.65 -114.4)" d="M 5093.29,9297.74 L 5093.29,9311.59 L 4837.87,9164.13 L 4849.87,9157.2 L 5093.29,9297.74 Z "/>
<path stroke="none" transform="matrix(0.1 0 0 0.1 -230.65 -114.4)" d="M 5336.7,9157.2 L 5342.7,9160.67 L 5342.7,9167.59 L 5093.29,9311.59 L 5093.29,9297.74 L 5336.7,9157.2 Z "/>
<path stroke="none" transform="matrix(0.1 0 0 0.1 -230.65 -114.4)" d="M 5287.86,9125.54 L 5293.86,9135.93 L 5096.29,9250 L 5090.29,9239.61 L 5287.86,9125.54 Z "/>
<path stroke="none" transform="matrix(0.1 0 0 0.1 -230.65 -114.4)" d="M 5336.7,8876.13 L 5348.7,8869.2 L 5348.7,9157.2 L 5342.7,9160.67 L 5336.7,9157.2 L 5336.7,8876.13 Z "/>
<path stroke="none" transform="matrix(0.1 0 0 0.1 -230.65 -114.4)" d="M 5093.29,8735.59 L 5093.29,8721.74 L 5348.7,8869.2 L 5336.7,8876.13 L 5093.29,8735.59 Z "/>
<path stroke="none" transform="matrix(0.1 0 0 0.1 -230.65 -114.4)" d="M 5090.29,8793.72 L 5096.29,8783.33 L 5293.86,8897.4 L 5287.86,8907.79 L 5090.29,8793.72 Z "/>
<path stroke="none" transform="matrix(0.1 0 0 0.1 -230.65 -114.4)" d="M 4849.87,8876.13 L 4843.87,8872.67 L 4843.87,8865.74 L 5093.29,8721.74 L 5093.29,8735.59 L 4849.87,8876.13 Z "/>
<path stroke="none" transform="matrix(0.1 0 0 0.1 -230.65 -114.4)" d="M 4591.46,8733.86 L 4597.46,8723.47 L 4843.87,8865.74 L 4843.87,8872.67 L 4837.87,8876.13 L 4591.46,8733.86 Z "/>
<path stroke="none" transform="matrix(0.1 0 0 0.1 -230.65 -114.4)" d="M 5595.12,9299.47 L 5589.12,9309.86 L 5342.7,9167.59 L 5342.7,9160.67 L 5348.7,9157.2 L 5595.12,9299.47 Z "/>
<path stroke="none" transform="matrix(0.1 0 0 0.1 -230.65 -114.4)" d="M 4415.61,8692.11 A 144,144 0 1 0 4703.61,8692.11A 144,144 0 1 0 4415.61,8692.11Z " class="connection_in" stroke-width="18px"/>
<path stroke="none" transform="matrix(0.1 0 0 0.1 -230.65 -114.4)" d="M 5475.61,9312.11 A 144,144 0 1 0 5763.61,9312.11A 144,144 0 1 0 5475.61,9312.11Z " class="connection_out" stroke-width="18px"/>
</g>
</svg>