<svg xmlns="http://www.w3.org/2000/svg" xmlns:xlink="http://www.w3.org/1999/xlink" viewBox="0 0 218.8 68.88099999999997" style="background-color: #ffffff00" version="1.1">
<g transform="matrix(1 0 0 1 -230.91099999999997 -760.4370000000001)">
<text x="0" y="0" stroke="none" transform="matrix(0.1 0 0 0.1 367.983 815.206)" font-style="normal" font-weight="bold" font-size="200px" font-family="Arial">
S</text>
<path stroke="none" transform="matrix(0.1 0 0 0.1 -230.65 -114.4)" d="M 6287.08,9054.93 L 6286.02,9048.27 L 6290.78,9043.51 L 6561.78,9131.57 L 6558.07,9142.98 L 6287.08,9054.93 Z "/>
<path stroke="none" transform="matrix(0.1 0 0 0.1 -230.65 -114.4)" d="M 6192.67,8780.37 L 6201.38,8768.37 L 6290.78,9043.51 L 6286.02,9048.27 L 6278.97,9045.98 L 6192.67,8780.37 Z "/>
<path stroke="none" transform="matrix(0.1 0 0 0.1 -230.65 -114.4)" d="M 6153.66,8828.06 L 6165.07,8824.36 L 6230.79,9026.62 L 6219.37,9030.33 L 6153.66,8828.06 Z "/>
<path stroke="none" transform="matrix(0.1 0 0 0.1 -230.65 -114.4)" d="M 5913.38,8780.37 L 5904.67,8768.37 L 6201.38,8768.37 L 6192.67,8780.37 L 5913.38,8780.37 Z "/>
<path stroke="none" transform="matrix(0.1 0 0 0.1 -230.65 -114.4)" d="M 5827.08,9045.98 L 5820.03,9048.27 L 5815.27,9043.51 L 5904.67,8768.37 L 5913.38,8780.37 L 5827.08,9045.98 Z "/>
<path stroke="none" transform="matrix(0.1 0 0 0.1 -230.65 -114.4)" d="M 5886.68,9030.33 L 5875.26,9026.62 L 5940.98,8824.36 L 5952.4,8828.06 L 5886.68,9030.33 Z "/>
<path stroke="none" transform="matrix(0.1 0 0 0.1 -230.65 -114.4)" d="M 5974.8,9153.3 L 5967.74,9163.01 L 5818.98,9054.93 L 5820.03,9048.27 L 5827.08,9045.98 L 5974.8,9153.3 Z "/>
<path stroke="none" transform="matrix(0.1 0 0 0.1 -230.65 -114.4)" d="M 6136.56,9164.28 L 6129.51,9154.57 L 6278.97,9045.98 L 6286.02,9048.27 L 6287.08,9054.93 L 6136.56,9164.28 Z "/>
<path stroke="none" transform="matrix(0.1 0 0 0.1 -230.65 -114.4)" d="M 5550.89,9142.03 L 5546.12,9137.27 L 5547.18,9130.62 L 5815.27,9043.51 L 5820.03,9048.27 L 5818.98,9054.93 L 5550.89,9142.03 Z "/>
<text x="0" y="0" stroke="none" transform="matrix(0.1 0 0 0.1 293.993 790.249)" font-style="normal" font-weight="bold" font-size="200px" font-family="Arial">
S</text>
<path stroke="none" transform="matrix(0.1 0 0 0.1 -230.65 -114.4)" d="M 5461.49,9417.18 L 5452.77,9405.18 L 5539.07,9139.56 L 5546.12,9137.27 L 5550.89,9142.03 L 5461.49,9417.18 Z "/>
<path stroke="none" transform="matrix(0.1 0 0 0.1 -230.65 -114.4)" d="M 5425.17,9361.19 L 5413.76,9357.48 L 5479.48,9155.22 L 5490.89,9158.93 L 5425.17,9361.19 Z "/>
<path stroke="none" transform="matrix(0.1 0 0 0.1 -230.65 -114.4)" d="M 5164.77,9417.18 L 5173.49,9405.18 L 5452.77,9405.18 L 5461.49,9417.18 L 5164.77,9417.18 Z "/>
<path stroke="none" transform="matrix(0.1 0 0 0.1 -230.65 -114.4)" d="M 5075.37,9142.03 L 5080.13,9137.27 L 5087.18,9139.56 L 5173.49,9405.18 L 5164.77,9417.18 L 5075.37,9142.03 Z "/>
<path stroke="none" transform="matrix(0.1 0 0 0.1 -230.65 -114.4)" d="M 5135.37,9158.93 L 5146.78,9155.22 L 5212.5,9357.48 L 5201.09,9361.19 L 5135.37,9158.93 Z "/>
<path stroke="none" transform="matrix(0.1 0 0 0.1 -230.65 -114.4)" d="M 5224.65,9024.85 L 5231.71,9034.56 L 5087.18,9139.56 L 5080.13,9137.27 L 5079.08,9130.62 L 5224.65,9024.85 Z "/>
<path stroke="none" transform="matrix(0.1 0 0 0.1 -230.65 -114.4)" d="M 5547.18,9130.62 L 5546.12,9137.27 L 5539.07,9139.56 L 5394.76,9034.72 L 5401.82,9025.01 L 5547.18,9130.62 Z "/>
<path stroke="none" transform="matrix(0.1 0 0 0.1 -230.65 -114.4)" d="M 4804.37,9053.98 L 4808.08,9042.57 L 5079.08,9130.62 L 5080.13,9137.27 L 5075.37,9142.03 L 4804.37,9053.98 Z "/>
<path stroke="none" transform="matrix(0.1 0 0 0.1 -230.65 -114.4)" d="M 4635.61,8992.11 A 144,144 0 1 0 4923.61,8992.11A 144,144 0 1 0 4635.61,8992.11Z " class="connection_in" stroke-width="18px"/>
<path stroke="none" transform="matrix(0.1 0 0 0.1 -230.65 -114.4)" d="M 6495.61,9122.11 A 144,144 0 1 0 6783.61,9122.11A 144,144 0 1 0 6495.61,9122.11Z " class="connection_out" stroke-width="18px"/>
</g>
</svg>