<svg viewBox="0 0 107 65" xmlns="http://www.w3.org/2000/svg">
<text x="0" y="0" transform="matrix(0.1 0 0 0.1 25.5126 21.1453)" font-size="200px">S</text>
<path transform="matrix(0.1 0 0 0.1 -397.65 -455.4)" d="M 4030.42,5059.59 L 4018.42,5068.31 L 4018.42,4771.59 L 4030.42,4780.31 L 4030.42,5059.59 Z " />
<path transform="matrix(0.1 0 0 0.1 -397.65 -455.4)" d="M 4082.26,5026.29 L 4070.26,5026.29 L 4070.26,4813.61 L 4082.26,4813.61 L 4082.26,5026.29 Z " />
<path transform="matrix(0.1 0 0 0.1 -397.65 -455.4)" d="M 4296.03,5145.89 L 4300.62,5160 L 4018.42,5068.31 L 4030.42,5059.59 L 4296.03,5145.89 Z " />
<path transform="matrix(0.1 0 0 0.1 -397.65 -455.4)" d="M 4460.19,4919.95 L 4467.61,4919.95 L 4470.66,4925.95 L 4300.62,5160 L 4296.03,5145.89 L 4460.19,4919.95 Z " />
<path transform="matrix(0.1 0 0 0.1 -397.65 -455.4)" d="M 4398.68,4916.42 L 4408.38,4923.48 L 4283.38,5095.53 L 4273.67,5088.48 L 4398.68,4916.42 Z " />
<path transform="matrix(0.1 0 0 0.1 -397.65 -455.4)" d="M 4357.67,4778.84 L 4367.38,4771.79 L 4470.66,4913.95 L 4467.61,4919.95 L 4460.19,4919.95 L 4357.67,4778.84 Z " />
<path transform="matrix(0.1 0 0 0.1 -397.65 -455.4)" d="M 4030.42,4780.31 L 4018.42,4771.59 L 4202.93,4711.64 L 4206.63,4723.05 L 4030.42,4780.31 Z " />
<path transform="matrix(0.1 0 0 0.1 -397.65 -455.4)" d="M 4755.61,4913.95 L 4755.61,4925.95 L 4470.66,4925.95 L 4467.61,4919.95 L 4470.66,4913.95 L 4755.61,4913.95 Z " />
<path class="connection_in" transform="matrix(0.1 0 0 0.1 -397.65 -455.4)" d="M 4654.24,4915.83 A 172.8,172.8 0 1 0 4999.84,4915.83A 172.8,172.8 0 1 0 4654.24,4915.83Z " />
</svg>
