<svg viewBox="0 0 174 103" xmlns="http://www.w3.org/2000/svg">
<text x="0" y="0" transform="matrix(0.1 0 0 0.1 93.3926 59.1453)" font-size="200px">S</text>
<path transform="matrix(0.1 0 0 0.1 -305.65 -539.4)" d="M 3789.22,6279.59 L 3777.22,6288.31 L 3777.22,5999.01 L 3783.22,5995.95 L 3789.22,6000.31 L 3789.22,6279.59 Z " />
<path transform="matrix(0.1 0 0 0.1 -305.65 -539.4)" d="M 3841.06,6246.29 L 3829.06,6246.29 L 3829.06,6033.61 L 3841.06,6033.61 L 3841.06,6246.29 Z " />
<path transform="matrix(0.1 0 0 0.1 -305.65 -539.4)" d="M 4054.83,6365.89 L 4059.42,6380 L 3777.22,6288.31 L 3789.22,6279.59 L 4054.83,6365.89 Z " />
<path transform="matrix(0.1 0 0 0.1 -305.65 -539.4)" d="M 4218.99,6139.95 L 4226.41,6139.95 L 4229.46,6145.95 L 4059.42,6380 L 4054.83,6365.89 L 4218.99,6139.95 Z " />
<path transform="matrix(0.1 0 0 0.1 -305.65 -539.4)" d="M 4157.48,6136.42 L 4167.18,6143.48 L 4042.18,6315.53 L 4032.47,6308.48 L 4157.48,6136.42 Z " />
<path transform="matrix(0.1 0 0 0.1 -305.65 -539.4)" d="M 4116.47,5998.84 L 4126.18,5991.79 L 4229.46,6133.95 L 4226.41,6139.95 L 4218.99,6139.95 L 4116.47,5998.84 Z " />
<path transform="matrix(0.1 0 0 0.1 -305.65 -539.4)" d="M 3789.22,6000.31 L 3783.22,5995.95 L 3784.27,5989.3 L 3961.72,5931.64 L 3965.43,5943.05 L 3789.22,6000.31 Z " />
<path transform="matrix(0.1 0 0 0.1 -305.65 -539.4)" d="M 4514.41,6133.95 L 4514.41,6145.95 L 4229.46,6145.95 L 4226.41,6139.95 L 4229.46,6133.95 L 4514.41,6133.95 Z " />
<path transform="matrix(0.1 0 0 0.1 -305.65 -539.4)" d="M 3549.17,5833.32 L 3550.22,5826.67 L 3556.22,5823.61 L 3784.27,5989.3 L 3783.22,5995.95 L 3777.22,5999.01 L 3549.17,5833.32 Z " />
<text x="0" y="0" transform="matrix(0.1 0 0 0.1 15.312 60.0164)" font-size="200px">S</text>
<path transform="matrix(0.1 0 0 0.1 -305.65 -539.4)" d="M 3544.22,5543.03 L 3556.22,5534.31 L 3556.22,5823.61 L 3550.22,5826.67 L 3544.22,5822.31 L 3544.22,5543.03 Z " />
<path transform="matrix(0.1 0 0 0.1 -305.65 -539.4)" d="M 3492.38,5576.33 L 3504.38,5576.33 L 3504.38,5789 L 3492.38,5789 L 3492.38,5576.33 Z " />
<path transform="matrix(0.1 0 0 0.1 -305.65 -539.4)" d="M 3278.61,5456.72 L 3274.03,5442.62 L 3556.22,5534.31 L 3544.22,5543.03 L 3278.61,5456.72 Z " />
<path transform="matrix(0.1 0 0 0.1 -305.65 -539.4)" d="M 3114.45,5682.67 L 3099.62,5682.67 L 3274.03,5442.62 L 3278.61,5456.72 L 3114.45,5682.67 Z " />
<path transform="matrix(0.1 0 0 0.1 -305.65 -539.4)" d="M 3175.97,5686.19 L 3166.26,5679.14 L 3291.27,5507.09 L 3300.97,5514.14 L 3175.97,5686.19 Z " />
<path transform="matrix(0.1 0 0 0.1 -305.65 -539.4)" d="M 3219.94,5827.85 L 3210.23,5834.91 L 3099.62,5682.67 L 3114.45,5682.67 L 3219.94,5827.85 Z " />
<path transform="matrix(0.1 0 0 0.1 -305.65 -539.4)" d="M 3544.22,5822.31 L 3550.22,5826.67 L 3549.17,5833.32 L 3366.4,5892.7 L 3362.69,5881.29 L 3544.22,5822.31 Z " />
<path class="connection_in" transform="matrix(0.1 0 0 0.1 -305.65 -539.4)" d="M 4404.24,6136.25 A 172.8,172.8 0 1 0 4749.84,6136.25A 172.8,172.8 0 1 0 4404.24,6136.25Z " />
</svg>
