<svg xmlns="http://www.w3.org/2000/svg" xmlns:xlink="http://www.w3.org/1999/xlink" viewBox="0 0 240.6422 249.20800000000008" style="background-color: #ffffff00" version="1.1">
<g transform="matrix(1 0 0 1 -68.7458 -610.146)">
<text x="0" y="0" stroke="none" transform="matrix(0.1 0 0 0.1 206.357 709.462)" font-style="normal" font-weight="bold" font-size="200px" font-family="Arial">
S</text>
<path stroke="none" transform="matrix(0.1 0 0 0.1 -230.65 -114.4)" d="M 4674.52,8334.16 L 4669.76,8329.4 L 4670.82,8322.75 L 4941.81,8234.69 L 4945.52,8246.11 L 4674.52,8334.16 Z "/>
<path stroke="none" transform="matrix(0.1 0 0 0.1 -230.65 -114.4)" d="M 4585.12,8609.3 L 4576.41,8597.3 L 4662.71,8331.69 L 4669.76,8329.4 L 4674.52,8334.16 L 4585.12,8609.3 Z "/>
<path stroke="none" transform="matrix(0.1 0 0 0.1 -230.65 -114.4)" d="M 4548.81,8553.32 L 4537.4,8549.61 L 4603.11,8347.35 L 4614.53,8351.05 L 4548.81,8553.32 Z "/>
<path stroke="none" transform="matrix(0.1 0 0 0.1 -230.65 -114.4)" d="M 4295.44,8609.3 L 4292.77,8603.3 L 4297.13,8597.3 L 4576.41,8597.3 L 4585.12,8609.3 L 4295.44,8609.3 Z "/>
<path stroke="none" transform="matrix(0.1 0 0 0.1 -230.65 -114.4)" d="M 4199.13,8334.55 L 4203.77,8329.4 L 4210.82,8331.69 L 4297.13,8597.3 L 4292.77,8603.3 L 4285.99,8601.86 L 4199.13,8334.55 Z "/>
<path stroke="none" transform="matrix(0.1 0 0 0.1 -230.65 -114.4)" d="M 4348.29,8216.98 L 4355.35,8226.69 L 4210.82,8331.69 L 4203.77,8329.4 L 4202.4,8322.97 L 4348.29,8216.98 Z "/>
<path stroke="none" transform="matrix(0.1 0 0 0.1 -230.65 -114.4)" d="M 4518.4,8226.84 L 4525.45,8217.14 L 4670.82,8322.75 L 4669.76,8329.4 L 4662.71,8331.69 L 4518.4,8226.84 Z "/>
<path stroke="none" transform="matrix(0.1 0 0 0.1 -230.65 -114.4)" d="M 3924.2,8276.11 L 3922.06,8269.52 L 3926.7,8264.37 L 4202.4,8322.97 L 4203.77,8329.4 L 4199.13,8334.55 L 3924.2,8276.11 Z "/>
<path stroke="none" transform="matrix(0.1 0 0 0.1 -230.65 -114.4)" d="M 3939.31,8332.32 L 3941.81,8320.58 L 4164.96,8368.01 L 4162.47,8379.75 L 3939.31,8332.32 Z "/>
<path stroke="none" transform="matrix(0.1 0 0 0.1 -230.65 -114.4)" d="M 3736.13,8484.99 L 3729.35,8483.54 L 3726.68,8477.54 L 3915.29,8268.08 L 3922.06,8269.52 L 3924.2,8276.11 L 3736.13,8484.99 Z "/>
<path stroke="none" transform="matrix(0.1 0 0 0.1 -230.65 -114.4)" d="M 3822.99,8752.3 L 3818.35,8757.45 L 3811.3,8755.16 L 3724.99,8489.54 L 3729.35,8483.54 L 3736.13,8484.99 L 3822.99,8752.3 Z "/>
<path stroke="none" transform="matrix(0.1 0 0 0.1 -230.65 -114.4)" d="M 3864.11,8711.11 L 3852.7,8714.82 L 3782.2,8497.84 L 3793.61,8494.14 L 3864.11,8711.11 Z "/>
<path stroke="none" transform="matrix(0.1 0 0 0.1 -230.65 -114.4)" d="M 4097.92,8810.74 L 4100.06,8817.33 L 4095.42,8822.48 L 3819.72,8763.87 L 3818.35,8757.45 L 3822.99,8752.3 L 4097.92,8810.74 Z "/>
<path stroke="none" transform="matrix(0.1 0 0 0.1 -230.65 -114.4)" d="M 4285.99,8601.86 L 4292.77,8603.3 L 4295.44,8609.3 L 4106.83,8818.77 L 4100.06,8817.33 L 4097.92,8810.74 L 4285.99,8601.86 Z "/>
<path stroke="none" transform="matrix(0.1 0 0 0.1 -230.65 -114.4)" d="M 4229.76,8586.84 L 4238.67,8594.87 L 4086.02,8764.41 L 4077.1,8756.38 L 4229.76,8586.84 Z "/>
<text x="0" y="0" stroke="none" transform="matrix(0.1 0 0 0.1 121.215 786.123)" font-style="normal" font-weight="bold" font-size="200px" font-family="Arial">
S</text>
<path stroke="none" transform="matrix(0.1 0 0 0.1 -230.65 -114.4)" d="M 3445.71,8489.54 L 3436.99,8477.54 L 3726.68,8477.54 L 3729.35,8483.54 L 3724.99,8489.54 L 3445.71,8489.54 Z "/>
<path stroke="none" transform="matrix(0.1 0 0 0.1 -230.65 -114.4)" d="M 3359.41,8755.16 L 3345.3,8759.74 L 3436.99,8477.54 L 3445.71,8489.54 L 3359.41,8755.16 Z "/>
<path stroke="none" transform="matrix(0.1 0 0 0.1 -230.65 -114.4)" d="M 3419,8739.5 L 3407.59,8735.79 L 3473.31,8533.53 L 3484.72,8537.24 L 3419,8739.5 Z "/>
<path stroke="none" transform="matrix(0.1 0 0 0.1 -230.65 -114.4)" d="M 3507.12,8862.48 L 3500.07,8872.19 L 3345.3,8759.74 L 3359.41,8755.16 L 3507.12,8862.48 Z "/>
<path stroke="none" transform="matrix(0.1 0 0 0.1 -230.65 -114.4)" d="M 3811.3,8755.16 L 3818.35,8757.45 L 3819.72,8763.87 L 3668.89,8873.46 L 3661.83,8863.75 L 3811.3,8755.16 Z "/>
<text x="0" y="0" stroke="none" transform="matrix(0.1 0 0 0.1 144.878 693.012)" font-style="normal" font-weight="bold" font-size="200px" font-family="Arial">
O</text>
<path stroke="none" transform="matrix(0.1 0 0 0.1 -230.65 -114.4)" d="M 3861.17,8101.52 L 3872.58,8097.81 L 3926.7,8264.37 L 3922.06,8269.52 L 3915.29,8268.08 L 3861.17,8101.52 Z "/>
<text x="0" y="0" stroke="none" transform="matrix(0.1 0 0 0.1 180.477 802.573)" font-style="normal" font-weight="bold" font-size="200px" font-family="Arial">
O</text>
<path stroke="none" transform="matrix(0.1 0 0 0.1 -230.65 -114.4)" d="M 4162.76,8990.89 L 4151.35,8994.6 L 4095.42,8822.48 L 4100.06,8817.33 L 4106.83,8818.77 L 4162.76,8990.89 Z "/>
<path stroke="none" transform="matrix(0.1 0 0 0.1 -230.65 -114.4)" d="M 3546.72,7940.88 L 3556,7930.59 L 3735.29,7968.7 L 3732.79,7980.44 L 3546.72,7940.88 Z "/>
<path stroke="none" transform="matrix(0.1 0 0 0.1 -230.65 -114.4)" d="M 3457.73,7666.98 L 3462.36,7661.83 L 3469.14,7663.27 L 3556,7930.59 L 3546.72,7940.88 L 3457.73,7666.98 Z "/>
<text x="0" y="0" stroke="none" transform="matrix(0.1 0 0 0.1 70.7458 653.645)" font-style="normal" font-weight="bold" font-size="200px" font-family="Arial">
Et</text>
<path stroke="none" transform="matrix(0.1 0 0 0.1 -230.65 -114.4)" d="M 3236.3,7619.91 L 3238.79,7608.18 L 3460.22,7655.24 L 3462.36,7661.83 L 3457.73,7666.98 L 3236.3,7619.91 Z "/>
<path stroke="none" transform="matrix(0.1 0 0 0.1 -230.65 -114.4)" d="M 3650.61,7443.79 L 3659.53,7451.82 L 3469.14,7663.27 L 3462.36,7661.83 L 3460.22,7655.24 L 3650.61,7443.79 Z "/>
<path stroke="none" transform="matrix(0.1 0 0 0.1 -230.65 -114.4)" d="M 4475.39,9145.96 L 4466.12,9156.26 L 4288.74,9118.55 L 4291.23,9106.82 L 4475.39,9145.96 Z "/>
<path stroke="none" transform="matrix(0.1 0 0 0.1 -230.65 -114.4)" d="M 4564.39,9419.87 L 4559.76,9425.01 L 4552.98,9423.57 L 4466.12,9156.26 L 4475.39,9145.96 L 4564.39,9419.87 Z "/>
<text x="0" y="0" stroke="none" transform="matrix(0.1 0 0 0.1 247.388 841.939)" font-style="normal" font-weight="bold" font-size="200px" font-family="Arial">
n-Hex</text>
<path stroke="none" transform="matrix(0.1 0 0 0.1 -230.65 -114.4)" d="M 4761.56,9461.77 L 4759.06,9473.51 L 4561.9,9431.6 L 4559.76,9425.01 L 4564.39,9419.87 L 4761.56,9461.77 Z "/>
<text x="0" y="0" stroke="none" transform="matrix(0.1 0 0 0.1 189.385 857.354)" font-style="normal" font-weight="bold" font-size="200px" font-family="Arial">
Et</text>
<path stroke="none" transform="matrix(0.1 0 0 0.1 -230.65 -114.4)" d="M 4429.57,9578.57 L 4420.65,9570.54 L 4552.98,9423.57 L 4559.76,9425.01 L 4561.9,9431.6 L 4429.57,9578.57 Z "/>
<text x="0" y="0" stroke="none" transform="matrix(0.1 0 0 0.1 127.039 628.146)" font-style="normal" font-weight="bold" font-size="200px" font-family="Arial">
n-Hex</text>
<path stroke="none" transform="matrix(0.1 0 0 0.1 -230.65 -114.4)" d="M 4845.61,8212.11 A 144,144 0 1 0 5133.61,8212.11A 144,144 0 1 0 4845.61,8212.11Z " stroke-width="18px" class="connection_out"/>
</g>
</svg>