<svg xmlns="http://www.w3.org/2000/svg" viewBox="0 0 43.26 55.17"><g ><g ><path d="M24.49.84,24.22,0,38.69,3.08l-.59.65Z"/><path d="M15.18,11.18l-.43-.09-.13-.43L24.22,0l.27.84Z"/><path d="M18,12l-.56-.51L25,3l.57.51Z"/><path d="M19.48,24.4l-.29.33-.42,0L14.46,11.41l.29-.32.43.09Z"/><path d="M33.09,27.29l.13.42-.35.32L19.38,25.16l-.19-.43.29-.33Z"/><path d="M42.39,17l.87.18-9.64,10.7-.4-.13-.13-.42Z"/><path d="M38.1,3.73l.59-.65,4.57,14.06L42.39,17Z"/><path d="M36,5.74l.73-.24,3.51,10.81-.73.24Z"/><text transform="translate(8.4 40.74)">N</text><text transform="translate(18.28 51.4)">S</text><text transform="translate(31.11 45.57)">N</text><path d="M15.42,32l-.66-.37,4-6.95.42,0,.19.43Z"/><path d="M17.66,33.31,17,32.93l3.15-5.48.67.39Z"/><path d="M18.34,43.61l-.57.52L15.82,42l.57-.51Z"/><path d="M29.44,43.92l.31.7L26.19,46.2l-.32-.69Z"/><path d="M32.87,28l.35-.32.4.13.94,8.92-.76.08Z"/><path d="M30.47,29.89l.76-.08L32,37l-.76.07Z"/><path d="M9.07,10.27l.16-.75,5.39,1.14.13.43-.29.32Z"/><circle class="connection_in" cx="5.24" cy="8.52" r="4.74"/></g></g></svg>