<svg xmlns="http://www.w3.org/2000/svg" viewBox="0 0 65.92 71.69"><g id="Layer_2" data-name="Layer 2"><g id="Layer_1-2" data-name="Layer 1"><text transform="translate(7.17 8.58)">F</text><text transform="translate(0 21.01)">F</text><text transform="translate(21.52 8.58)">F</text><path d="M39.15,55.09l-.44-.76,6.95-12h.44l.22.39Z"/><path d="M24.8,55.09l-.22-.38.22-.38H38.71l.44.76Z"/><path d="M26.07,52.51v-.76H37.44v.76Z"/><path d="M20.28,62.92l-.66-.38,4.52-7.83h.44l.22.38Z"/><path d="M17,42.28h.88l7,12-.22.38h-.44Z"/><path d="M24.14,29.86h.44l.22.38-7,12H17Z"/><path d="M25.74,32.25l.66.38-5.68,9.85-.67-.39Z"/><path d="M17.18,17.81l.22-.38h.44l7,12-.22.39h-.44Z"/><path d="M11.49,8l.67-.38,5.24,9.08v.77l-.66-.38Z"/><path d="M7.24,17.81v-.76h9.5l.66.38-.22.38Z"/><path d="M21.33,9.86l.66.38-4.15,7.19H17.4v-.77Z"/><path d="M39.15,29.47l-.44.77H24.8l-.22-.38.22-.39Z"/><path d="M38.71,30.24l.44-.77L46.32,41.9l-.22.38h-.44Z"/><path d="M37.11,32.63l.66-.38,5.68,9.84-.66.39Z"/><path d="M55.94,41.9v.77H46.32l-.22-.39.22-.38Z"/><circle class="connection_out" cx="60.57" cy="42.48" r="4.85"/><circle class="connection_in" cx="17.4" cy="66.45" r="4.74"/></g></g></svg>