<svg xmlns="http://www.w3.org/2000/svg" viewBox="0 0 84.46 35.56"><defs><style>.cls-1{fill:#ffb800;}.cls-1,.cls-2{stroke:#000;stroke-miterlimit:10;}.cls-2{fill:#e64fff;}</style></defs><title>Asset 73</title><g id="Layer_2" data-name="Layer 2"><g id="Layer_1-2" data-name="Layer 1"><path d="M56.31,7V6.07L68.7,13.22v.89Z"/><path d="M56.12,9.82l.38-.66,11.1,6.4-.38.66Z"/><path d="M44.31,13.89l-.38-.23v-.44L56.31,6.07V7Z"/><path d="M44.31,28.19l-.76-.45V13.89l.38-.23.38.23Z"/><path d="M31.54,35.56v-.89l12-6.93.76.45Z"/><path d="M31.74,32.47l-.39-.66,9.81-5.66.39.66Z"/><path d="M18.78,28.19l.76-.45,12,6.93v.89Z"/><path d="M18.78,13.89l.38-.23.38.23V27.74l-.76.45Z"/><path d="M21.35,15.15h.77V26.48h-.77Z"/><path d="M9.1,8.3l.38-.67,9.68,5.59v.44l-.38.23Z"/><path d="M31.54,6.07V7l-12,6.93-.38-.23v-.44Z"/><path d="M31.54,7V6.07l12.39,7.15v.44l-.38.23Z"/><path d="M31.35,9.82l.39-.66,9.81,5.66-.39.66Z"/><path d="M75.79,9.13l.38.66L68.7,14.11v-.89Z"/><circle class="cls-1" cx="79.11" cy="6.07" r="4.85"/><circle class="cls-2" cx="5.24" cy="5.24" r="4.74"/></g></g></svg>