<svg xmlns="http://www.w3.org/2000/svg" viewBox="0 0 53.19 60.76"><defs><style>.cls-1{isolation:isolate;font-size:10px;font-family:Arial-BoldMT, Arial;font-weight:700;}.cls-2{fill:#ffb800;}.cls-2,.cls-3{stroke:#000;stroke-miterlimit:10;}.cls-3{fill:#e64fff;}</style></defs><g id="Layer_2" data-name="Layer 2"><g id="Layer_1-2" data-name="Layer 1"><path d="M12.86,41.9l-.22.39H12.2L5,29.86H5.9Z"/><path d="M14.46,39.51l-.66.38L8.11,30.05l.67-.38Z"/><path d="M26.77,41.9l.44.77H12.86l-.22-.38.22-.39Z"/><path d="M33.72,29.86h.44l.22.38L27.21,42.67l-.44-.77Z"/><path d="M30.85,29.67l.66.38-5.68,9.84-.67-.38Z"/><path d="M26.77,17.81l.44-.76,7.17,12.42-.22.39h-.44Z"/><path d="M12.86,17.81l-.22-.38.22-.38H27.21l-.44.76Z"/><path d="M14.13,20.4v-.77H25.5v.77Z"/><path d="M5.9,29.86H5L12.2,17.43h.44l.22.38Z"/><path d="M7.76,51.5l-.66-.38,5.1-8.83h.44l.22.38Z"/><text class="cls-1" transform="translate(2.41 8.58)">F</text><path d="M6.73,8l.66-.38,5.47,9.47-.22.38H12.2Z"/><path d="M44,29.47v.77H34.38l-.22-.38.22-.39Z"/><circle class="cls-2" cx="47.84" cy="29.67" r="4.85"/><circle class="cls-3" cx="5.24" cy="55.52" r="4.74"/></g></g></svg>