<svg xmlns="http://www.w3.org/2000/svg" viewBox="0 0 71.52 49.21"><defs><style>.cls-1{isolation:isolate;font-size:10px;font-family:Arial-BoldMT, Arial;font-weight:700;}.cls-2{fill:#e64fff;stroke:#000;stroke-miterlimit:10;}</style></defs><title>Asset 80</title><g id="Layer_2" data-name="Layer 2"><g id="Layer_1-2" data-name="Layer 1"><path d="M19.24,37.21l-.76.44V23.3l.38-.22.38.22Z"/><path d="M31.29,44.17v.88l-12.81-7.4.76-.44Z"/><path d="M31.48,41.29l-.39.67-9.84-5.69.38-.66Z"/><path d="M43.33,37.21l.38.22,0,.42-12.47,7.2v-.88Z"/><path d="M43.33,23.3l.38-.22.39.28V37.15l-.39.28-.38-.22Z"/><path d="M40.75,24.57h.76V35.94h-.76Z"/><path d="M31.29,16.35v-.88l12.47,7.2,0,.41-.38.22Z"/><path d="M19.24,23.3l-.38-.22v-.44l12.43-7.17v.88Z"/><path d="M21.63,24.91l-.38-.67,9.84-5.68.39.66Z"/><text class="cls-1" transform="translate(53.75 45.45)">N</text><text class="cls-1" transform="translate(53.75 22.23)">N</text><path d="M52.49,39.88l-.24.73-8.49-2.76,0-.42.39-.28Z"/><path d="M65.32,30.26h1l-5,6.82-.61-.45Z"/><path d="M62.29,30l.62.45-3.68,5.08-.62-.45Z"/><path d="M60.64,23.82l.62-.45,5,6.89h-1Z"/><path d="M44.1,23.36l-.39-.28,0-.41,8.49-2.76.24.72Z"/><path d="M8.77,17.7,9.16,17l9.7,5.6v.44l-.38.22Z"/><text class="cls-1" transform="translate(57.63 8.58)">Me</text><path d="M59.57,10.58l.73.23-.76,2.31-.73-.24Z"/><circle class="cls-2" cx="5.24" cy="15.47" r="4.74"/></g></g></svg>