<svg xmlns="http://www.w3.org/2000/svg" viewBox="0 0 65.77 62.9"><g ><g ><path d="M64.89,50.09h.88L58.38,62.9l-.45-.76Z"/><path d="M62,49.9l.66.38L57,60.13l-.67-.39Z"/><path d="M57.93,38l.45-.76,7.39,12.81h-.88Z"/><path d="M44,38l-.22-.38.22-.38H58.38l-.45.76Z"/><path d="M45.3,40.63v-.77H56.66v.77Z"/><path d="M37.07,50.09h-.44l-.22-.38,7-12.05h.45L44,38Z"/><path d="M44,62.14l-.45.76L36.41,50.48l.22-.39h.44Z"/><path d="M45.63,59.74l-.66.39-5.69-9.85.66-.38Z"/><path d="M57.93,62.14l.45.76H43.58l.45-.76Z"/><path d="M36.41,25.62l.22-.38h.44l7,12-.22.38h-.45Z"/><path d="M22.5,25.62l-.22-.38.22-.39H36.41l.22.39-.22.38Z"/><path d="M23.77,23v-.77H35.14V23Z"/><path d="M15.55,37.66h-.44l-.23-.38,7-12h.44l.22.38Z"/><path d="M22.5,49.71l-.44.77L14.88,38l.23-.38h.44Z"/><path d="M24.1,47.31l-.66.39-5.68-9.85.66-.38Z"/><path d="M36.41,49.71l.22.38-.22.39H22.06l.44-.77Z"/><path d="M43.36,12.81h.89L37.07,25.24h-.44l-.22-.39Z"/><path d="M36.41.76,36.85,0l7.4,12.81h-.89Z"/><path d="M34.81,3.15l.66-.38,5.68,9.84-.66.39Z"/><path d="M22.5.76,22.06,0H36.85l-.44.76Z"/><path d="M15.55,12.81h-.89L22.06,0l.44.76Z"/><path d="M18.42,13l-.66-.39,5.68-9.84.66.38Z"/><path d="M22.5,24.85l-.22.39h-.44L14.66,12.81h.89Z"/><path d="M10,38v-.76h4.9l.23.38-.23.38Z"/><circle class="connection_in" cx="5.24" cy="37.47" r="4.74"/></g></g></svg>