<svg xmlns="http://www.w3.org/2000/svg" viewBox="0 0 67.16 31.4"><defs><style>.cls-1{isolation:isolate;font-size:10px;font-family:Arial-BoldMT, Arial;font-weight:700;}.cls-2{fill:#ffb800;stroke:#000;stroke-miterlimit:10;}</style></defs><title>Asset 60</title><g id="Layer_2" data-name="Layer 2"><g id="Layer_1-2" data-name="Layer 1"><path d="M.77,23.56,0,24V9.21l.77.44Z"/><path d="M3.35,22.29H2.58V10.92h.77Z"/><path d="M12.81,30.52v.88L0,24l.77-.44Z"/><path d="M24.85,23.56l.39.22,0,.42L12.81,31.4v-.88Z"/><path d="M22.46,22l.39.66L13,28.31l-.38-.67Z"/><path d="M24.85,9.65l.39-.22.38.28v13.8l-.38.27-.39-.22Z"/><path d="M12.81,2.7V1.82L25.28,9l0,.41-.39.22Z"/><path d="M12.62,5.57,13,4.91l9.85,5.68-.39.67Z"/><path d="M.77,9.65,0,9.21,12.81,1.82V2.7Z"/><text class="cls-1" transform="translate(35.55 8.58)">S</text><path d="M38.74,27.77l.29.9L25.28,24.2l0-.42.38-.27Z"/><path d="M46.85,16.61h.47l.2.38L39,28.67l-.29-.9Z"/><path d="M43.82,16.38l.62.45-6.23,8.58L37.59,25Z"/><path d="M41.76,9.61l.62-.45,5.14,7.07-.2.38h-.47Z"/><path d="M25.62,9.71l-.38-.28,0-.41,8.77-2.85.24.72Z"/><path d="M57.16,16.23V17H47.52l-.2-.38.2-.38Z"/><circle class="cls-2" cx="61.81" cy="16.38" r="4.85"/></g></g></svg>