<svg xmlns="http://www.w3.org/2000/svg" viewBox="0 0 59.62 60.76"><defs><style>.cls-1{isolation:isolate;font-size:10px;font-family:Arial-BoldMT, Arial;font-weight:700;}.cls-2{fill:#ffb800;}.cls-2,.cls-3{stroke:#000;stroke-miterlimit:10;}.cls-3{fill:#e64fff;}</style></defs><g id="Layer_2" data-name="Layer 2"><g id="Layer_1-2" data-name="Layer 1"><path d="M18.23,41.9l-.22.39h-.44L10.39,29.86h.88Z"/><path d="M19.83,39.51l-.66.38-5.69-9.84.67-.38Z"/><path d="M32.14,41.9l.44.77H18.23L18,42.29l.22-.39Z"/><path d="M39.09,29.86h.44l.22.38L32.58,42.67l-.44-.77Z"/><path d="M36.22,29.67l.66.38L31.2,39.89l-.67-.38Z"/><path d="M32.14,17.81l.44-.76,7.17,12.42-.22.39h-.44Z"/><path d="M18.23,17.81,18,17.43l.22-.38H32.58l-.44.76Z"/><path d="M19.5,20.4v-.77H30.87v.77Z"/><path d="M11.27,29.86h-.88l7.18-12.43H18l.22.38Z"/><path d="M13.12,51.52l-.67-.38,5.12-8.85H18l.22.38Z"/><text class="cls-1" transform="translate(0 8.58)">NC</text><path d="M13.2,9.86l.66-.38,4.37,7.57-.22.38h-.44Z"/><path d="M49.37,29.47v.77H39.75l-.22-.38.22-.39Z"/><circle class="cls-2" cx="54.27" cy="29.49" r="4.85"/><circle class="cls-3" cx="10.39" cy="55.52" r="4.74"/></g></g></svg>