<svg xmlns="http://www.w3.org/2000/svg" viewBox="0 0 73.43 37.06"><g id="Layer_2" data-name="Layer 2"><g id="Layer_1-2" data-name="Layer 1"><text transform="translate(40.08 12.52)">S</text><path d="M41.18,31.6l-.38.87L33.58,20l.24-.36.47.05Z"/><path d="M42.62,28.93l-.66.38-5.3-9.18.66-.38Z"/><path d="M54.68,28.73l.7.64L40.8,32.47l.38-.87Z"/><path d="M56.12,15l.41-.24.36.23L55.38,29.37l-.7-.64Z"/><path d="M53.38,16.34l.76.08L53,27l-.77-.08Z"/><path d="M47.86,11.34l.31-.7,8.34,3.71,0,.43-.41.24Z"/><path d="M34.29,19.66l-.47-.05-.16-.4,5.88-6.53.57.51Z"/><path d="M19.73,18.51l-.36-.81,14.29,1.51.16.4-.24.36Z"/><text transform="translate(0 33.3)">Me</text><path d="M13.48,27.1l-.62-.45,6.51-8.95.36.81Z"/><text transform="translate(9.82 8.58)">O</text><path d="M14.39,10.64l.7-.31L19,19.16l-.7.31Z"/><path d="M16.75,9.59l.7-.31,3.93,8.83-.7.31Z"/><path d="M63.66,10.22l.38.66L56.89,15l-.36-.23,0-.43Z"/><circle class="connection_out" cx="68.08" cy="7.98" r="4.85"/></g></g></svg>