<svg xmlns="http://www.w3.org/2000/svg" viewBox="0 0 36.31 36.36"><defs><style>.cls-1{isolation:isolate;font-size:10px;font-family:Arial-BoldMT, Arial;font-weight:700;}.cls-2{fill:#e64fff;stroke:#000;stroke-miterlimit:10;}</style></defs><title>Asset 78</title><g id="Layer_2" data-name="Layer 2"><g id="Layer_1-2" data-name="Layer 1"><text class="cls-1" transform="translate(24.06 32.6)">S</text><path d="M27.25,6.25l.3-.9,8.76,12.06h-1Z"/><path d="M26.1,9.06l.62-.45L33,17.18l-.62.45Z"/><path d="M14.14,10.51l-.39-.28.07-.42L27.55,5.35l-.3.9Z"/><path d="M14.14,24.31l-.77.55V10.43l.38-.2.39.28Z"/><path d="M16.72,22.71H16V12.11h.77Z"/><path d="M22.92,27.16l-.24.73-9.31-3,.77-.55Z"/><path d="M35.36,17.41h1L30.8,25l-.62-.45Z"/><path d="M8.59,7,9,6.34l4.78,3.47-.07.42-.38.2Z"/><circle class="cls-2" cx="5.24" cy="5.24" r="4.74"/></g></g></svg>