<svg xmlns="http://www.w3.org/2000/svg" viewBox="0 0 56.45 56.22"><text transform="translate(20.04 50.96)">N</text><path d="M26.19,33.59l.43-.19.34.24-1.75,8.22-.74-.16Z"/><path d="M23.34,34.61l.75.16L22.7,41.33,22,41.17Z"/><path d="M14.29,26.72l0-.47.38-.22,12,6.92v.45l-.43.19Z"/><path d="M38.62,26l.77.44L27,33.64l-.34-.24V33Z"/><path d="M38.62,12.17,39,12l.38.22v14.3L38.62,26Z"/><path d="M36.05,13.43h.76V24.76h-.76Z"/><path d="M26.62,5.24V4.35L39,11.5V12l-.39.22Z"/><path d="M14.62,12.17l-.77-.44L26.62,4.35v.89Z"/><path d="M17,13.76l-.38-.66,9.81-5.66.38.66Z"/><path d="M14.62,26l-.38.22-.39-.17V11.73l.77.44Z"/><path d="M46.1,7.41l.38.66-7.09,4.1L39,12V11.5Z"/><text transform="translate(0 39.39)">N</text><path d="M8.42,32l-.51-.57,5.94-5.35.39.17,0,.47Z"/><path d="M10.15,33.91l-.52-.57,4.68-4.21.52.57Z"/><text transform="translate(5.54 52.46)">O</text><path d="M7.6,43.84l-.7.31L5.69,41.42l.7-.31Z"/><path d="M14.52,48.73,14.44,48l4.74-.5.08.76Z"/><circle class="connection_out" cx="51.09" cy="5.35" r="4.85"/></g></g></svg>