<svg xmlns="http://www.w3.org/2000/svg" viewBox="0 0 66.55 34.46"><defs><style>.cls-1{fill:#ffb800;stroke:#000;stroke-miterlimit:10;}</style></defs><g id="Layer_2" data-name="Layer 2"><g id="Layer_1-2" data-name="Layer 1"><path d="M.77,26.63,0,27.07V12.28l.77.44Z"/><path d="M3.35,25.36H2.58V14h.77Z"/><path d="M12.81,33.58v.88L0,27.07l.77-.44Z"/><path d="M24.85,26.63l.39.22v.44L12.81,34.46v-.88Z"/><path d="M22.46,25l.39.67L13,31.37l-.38-.66Z"/><path d="M24.85,12.72l.39-.22.38.22V26.63l-.38.22-.39-.22Z"/><path d="M12.81,5.76V4.88l12.43,7.18v.44l-.39.22Z"/><path d="M12.62,8.64,13,8l9.85,5.69-.39.66Z"/><path d="M.77,12.72,0,12.28l12.81-7.4v.88Z"/><path d="M37.66,33.58v.88L25.24,27.29v-.44l.38-.22Z"/><path d="M49.71,26.63l.77.44L37.66,34.46v-.88Z"/><path d="M47.32,25l.38.67-9.84,5.68-.39-.66Z"/><path d="M49.71,12.72l.38-.22.39.22V27.07l-.77-.44Z"/><path d="M37.66,5.76V4.88l12.43,7.18v.44l-.38.22Z"/><path d="M37.47,8.64,37.86,8l9.84,5.69-.38.66Z"/><path d="M25.62,12.72l-.38-.22v-.44L37.66,4.88v.88Z"/><path d="M57.23,7.94l.38.66-7.13,4.12-.39-.22v-.44Z"/><circle class="cls-1" cx="61.2" cy="5.35" r="4.85"/></g></g></svg>