<svg xmlns="http://www.w3.org/2000/svg" viewBox="0 0 65.5 39.38"><text transform="translate(20.6 27.1)">S</text><path d="M35.19,3.73l.7-.63L37.4,17.46l-.36.23-.41-.24Z"/><path d="M32.78,5.59l.77-.08,1.1,10.54-.75.08Z"/><path d="M21.7.86,21.31,0,35.89,3.1l-.7.63Z"/><path d="M14.8,12.81l-.47,0-.23-.36L21.31,0l.39.86Z"/><path d="M17.83,12.71l-.66-.37,5.3-9.18.66.38Z"/><path d="M20.65,19.31l-.57.52-5.9-6.57.15-.4.47,0Z"/><path d="M36.63,17.45l.41.24,0,.42-8.52,3.8-.31-.7Z"/><path d="M9.23,13.78,9.15,13l4.95-.52.23.36-.15.4Z"/><path d="M49.66,24.53l-.38.67L37,18.11l0-.42.36-.23Z"/><text transform="translate(58.28 35.62)">N</text><path d="M58.27,26.52l-.39.66L50.57,23,51,22.3Z"/><path d="M57,28.76l-.38.66L49.28,25.2l.38-.67Z"/><path d="M55.68,31l-.38.66L48,27.43l.39-.67Z"/><circle class="connection_in" cx="5.24" cy="14.05" r="4.74"/></svg>