<svg xmlns="http://www.w3.org/2000/svg" viewBox="0 0 95.59 38.05"><defs><style>.cls-1{isolation:isolate;font-size:10px;font-family:Arial-BoldMT, Arial;font-weight:700;}.cls-2{fill:#ffb800;stroke:#000;stroke-miterlimit:10;}</style></defs><title>Asset 61</title><g id="Layer_2" data-name="Layer 2"><g id="Layer_1-2" data-name="Layer 1"><text class="cls-1" transform="translate(29.02 16.39)">N</text><path d="M32.86,37.29l-.45.76L25.24,25.62l.22-.38h.44Z"/><path d="M34.46,34.89l-.66.39-5.69-9.85.66-.38Z"/><path d="M46.76,37.29l.45.76H32.41l.45-.76Z"/><path d="M53.72,25.24h.44l.22.38L47.21,38.05l-.45-.76Z"/><path d="M50.85,25.05l.66.38-5.68,9.85-.67-.39Z"/><path d="M46.76,13.2l.23-.39h.44l7,12-.22.38h-.44Z"/><path d="M37.07,13.2v-.77h9.69l.23.38-.23.39Z"/><path d="M37.07,15.78V15h8.42v.77Z"/><path d="M25.9,25.24h-.44l-.22-.38,4-7,.67.38Z"/><path d="M68.29,24.86l.44.76H54.38l-.22-.38.22-.38Z"/><path d="M75.24,12.81h.45l.22.39L68.73,25.62l-.44-.76Z"/><path d="M72.37,12.62,73,13l-5.68,9.85-.66-.39Z"/><path d="M68.29.76,68.73,0l7.18,12.43-.22.38h-.45Z"/><path d="M54.38.76,53.94,0H68.73l-.44.76Z"/><path d="M55.65,3.35V2.59H67v.76Z"/><path d="M47.43,12.81H47l-.23-.38L53.94,0l.44.76Z"/><text class="cls-1" transform="translate(0 28.82)">Me</text><path d="M15.06,25.62v-.76H25.24l.22.38-.22.38Z"/><path d="M85.52,12.43v.77H75.91l-.22-.39.22-.38Z"/><circle class="cls-2" cx="90.24" cy="13.2" r="4.85"/></g></g></svg>