<svg xmlns="http://www.w3.org/2000/svg" viewBox="0 0 59.74 34.72"><path d="M43.44,27.35l-.76-.44V13.05l.38-.22.38.22Z"/><path d="M30.68,34.72v-.88l12-6.93.76.44Z"/><path d="M30.87,31.64,30.49,31l9.81-5.67.38.66Z"/><path d="M17.91,27.35l.76-.44,12,6.93v.88Z"/><path d="M17.91,13.05l.38-.22.38.22V26.91l-.76.44Z"/><path d="M20.48,14.32h.77V25.64h-.77Z"/><path d="M8.23,7.46l.38-.66,9.68,5.59v.44l-.38.22Z"/><path d="M30.68,5.24v.88l-12,6.93-.38-.22v-.44Z"/><path d="M30.68,6.12V5.24l12.38,7.15v.44l-.38.22Z"/><path d="M30.49,9l.38-.66L40.68,14l-.38.67Z"/><path d="M50.15,8.29l.38.67-7.09,4.09-.38-.22v-.44Z"/><circle class="connection_out" cx="54.39" cy="6.34" r="4.85"/><circle class="connection_in" cx="5.24" cy="5.24" r="4.74"/></svg>