<svg xmlns="http://www.w3.org/2000/svg" viewBox="0 0 37.62 31.01"><g ><g ><text transform="translate(20.26 27.25)">S</text><path d="M36.86,5.16l.76-.56V19.51L36.86,19Z"/><path d="M34.27,6.76H35V17.35h-.77Z"/><path d="M23.74.9,23.45,0,37.62,4.6l-.76.56Z"/><path d="M15.63,12.06h-.47l-.2-.38L23.45,0l.29.9Z"/><path d="M18.66,12.29,18,11.84l6.23-8.58.62.45Z"/><path d="M20.75,19.1l-.62.45L15,12.44l.2-.38h.47Z"/><path d="M36.86,19l.76.56-9.44,3.07-.24-.73Z"/><path d="M10,12.44v-.76h5l.2.38-.2.38Z"/><circle class="connection_in" cx="5.24" cy="11.68" r="4.74"/></g></g></svg>