<svg xmlns="http://www.w3.org/2000/svg" viewBox="0 0 93.72 33.05"><text transform="translate(60.64 9.52)">S</text><path d="M75.9,26.3l-.71-.63L76.63,12l.41-.24.36.24Z"/><path d="M73.56,23.9l-.76-.08,1.1-10.51.76.08Z"/><path d="M61.36,29.39l.39-.86,13.44-2.86.71.63Z"/><path d="M54.17,16.93l.24-.36.47.05,6.87,11.91-.39.86Z"/><path d="M57.24,17.1l.66-.38,5.28,9.14-.66.38Z"/><path d="M40.34,15.48l-.15-.4.23-.36,13.83,1.45.16.4-.24.36Z"/><path d="M60.1,9.68l.57.52-5.79,6.42-.47-.05-.16-.4Z"/><path d="M68.42,8.34l.31-.7L77,11.34l0,.42-.41.24Z"/><text transform="translate(27.28 29.29)">S</text><path d="M32.84,3.13l.39-.87,7.19,12.46-.23.36L39.72,15Z"/><path d="M31.41,5.79l.66-.38,5.28,9.15-.66.38Z"/><path d="M19.4,6l-.7-.64L33.23,2.26l-.39.87Z"/><path d="M18,19.65l-.41.24-.36-.23L18.7,5.35l.7.64Z"/><path d="M20.69,18.34l-.76-.08L21,7.76l.76.08Z"/><path d="M26.23,23.34l-.31.7-8.34-3.72,0-.43.41-.24Z"/><path d="M39.72,15l.47.05.15.4-6,6.62-.57-.51Z"/><path d="M8.94,25.31l-.39-.66,8.64-5,.36.23,0,.43Z"/><path d="M84.13,7.23l.38.66L77.4,12,77,11.76l0-.42Z"/><circle class="connection_out" cx="88.36" cy="5.35" r="4.85"/><circle class="connection_in" cx="5.24" cy="27.53" r="4.74"/></g></g></svg>