<svg xmlns="http://www.w3.org/2000/svg" viewBox="0 0 39.59 29.9"><text transform="translate(6.74 9.96)">S</text><path d="M7.84,29l-.39.86L0,17l.94.09Z"/><path d="M9.28,26.36l-.67.39-5.3-9.18L4,17.19Z"/><path d="M21.33,26.17l.7.64L7.45,29.9,7.84,29Z"/><path d="M22.77,12.45l.41-.23.36.23L22,26.81l-.7-.64Z"/><path d="M20,13.77l.76.08L19.69,24.39l-.76-.08Z"/><path d="M14.51,8.78l.31-.7,8.34,3.71,0,.43-.41.23Z"/><path d="M.94,17.09,0,17l6.19-6.88.57.51Z"/><path d="M30.31,7.66l.39.66-7.16,4.13-.36-.23,0-.43Z"/><circle class="connection_out" cx="34.24" cy="5.35" r="4.85"/></svg>