<svg xmlns="http://www.w3.org/2000/svg" viewBox="0 0 66.65 46.56"><g id="Layer_2" data-name="Layer 2"><g id="Layer_1-2" data-name="Layer 1"><text transform="translate(21.75 27.1)">S</text><path d="M36.34,3.74,37,3.1l1.51,14.35-.36.24-.41-.24Z"/><path d="M33.94,5.6l.76-.09,1.11,10.54-.76.09Z"/><path d="M22.85.86,22.46,0,37,3.1l-.7.64Z"/><path d="M16,12.81l-.47,0-.23-.36L22.46,0l.39.86Z"/><path d="M19,12.72l-.66-.38,5.29-9.18.67.38Z"/><path d="M21.81,19.31l-.57.52-5.91-6.57.15-.4.47,0Z"/><path d="M37.78,17.45l.41.24,0,.43-8.51,3.79-.32-.7Z"/><path d="M10.38,13.79,10.3,13l4.95-.52.23.36-.15.4Z"/><path d="M50.62,24.42v.88L38.17,18.12l0-.43.36-.24Z"/><text transform="translate(59.43 21.27)">H</text><path d="M57.75,20.3l.38.67L50.62,25.3v-.88Z"/><text transform="translate(46.73 42.79)">O</text><path d="M52.29,33.93h-.76V24.12h.76Z"/><path d="M49.71,33.93H49V24.12h.76Z"/><circle class="connection_in" cx="5.24" cy="14.46" r="4.74"/></g></g></svg>