<svg xmlns="http://www.w3.org/2000/svg" viewBox="0 0 44.32 50.48"><g id="Layer_2" data-name="Layer 2"><g id="Layer_1-2" data-name="Layer 1"><path d="M36.48,49.71l.45.77H22.13l.45-.77Z"/><path d="M35.21,47.13v.77H23.85v-.77Z"/><path d="M43.43,37.67h.89L36.93,50.48l-.45-.77Z"/><path d="M36.48,25.62l.22-.38h.45l7.17,12.43h-.89Z"/><path d="M34.88,28l.67-.39,5.68,9.85-.66.38Z"/><path d="M22.58,25.62l-.23-.38.23-.38h13.9l.22.38-.22.38Z"/><path d="M15.62,37.67h-.89l7.18-12.43h.44l.23.38Z"/><path d="M18.49,37.86l-.66-.38,5.69-9.85.66.39Z"/><path d="M22.58,49.71l-.45.77-7.4-12.81h.89Z"/><path d="M43.43,12.81h.89L37.15,25.24H36.7l-.22-.38Z"/><path d="M36.48.77,36.93,0l7.39,12.81h-.89Z"/><path d="M34.88,3.16l.67-.38,5.68,9.84-.66.39Z"/><path d="M22.58.77,22.13,0h14.8l-.45.77Z"/><path d="M15.62,12.81h-.44L15,12.43,22.13,0l.45.77Z"/><path d="M18.49,13l-.66-.39,5.69-9.84.66.38Z"/><path d="M22.58,24.86l-.23.38h-.44l-7-12,.23-.39h.44Z"/><path d="M10,13.2v-.77H15l.23.38L15,13.2Z"/><circle class="connection_in" cx="5.24" cy="12.81" r="4.74"/></g></g></svg>