<svg xmlns="http://www.w3.org/2000/svg" viewBox="0 0 42.51 75.33"><path d="M34.67,74.57l.44.76H20.32l.44-.76Z"/><path d="M33.4,72v.77H22V72Z"/><path d="M41.63,62.52h.88l-7.4,12.81-.44-.76Z"/><path d="M34.67,50.48l.22-.39h.44l7.18,12.43h-.88Z"/><path d="M33.07,52.87l.66-.38,5.69,9.84-.67.38Z"/><path d="M20.76,50.48l-.22-.39.22-.38H34.67l.22.38-.22.39Z"/><path d="M13.81,62.52h-.88L20.1,50.09h.44l.22.39Z"/><path d="M16.68,62.71,16,62.33l5.68-9.84.67.38Z"/><path d="M20.76,74.57l-.44.76L12.93,62.52h.88Z"/><path d="M41.63,37.67h.88L35.33,50.09h-.44l-.22-.38Z"/><path d="M34.67,25.62l.22-.38h.44l7.18,12.43h-.88Z"/><path d="M33.07,28l.66-.38,5.69,9.85-.67.38Z"/><path d="M20.76,25.62l-.22-.38.22-.38H34.67l.22.38-.22.38Z"/><path d="M13.81,37.67h-.44l-.22-.39,7-12h.44l.22.38Z"/><path d="M16.68,37.86,16,37.48l5.68-9.85.67.38Z"/><path d="M20.76,49.71l-.22.38H20.1l-7-12,.22-.38h.44Z"/><path d="M41.63,12.81h.88L35.33,25.24h-.44l-.22-.38Z"/><path d="M34.67.77,35.11,0l7.4,12.81h-.88Z"/><path d="M33.07,3.16l.66-.38,5.69,9.84-.67.38Z"/><path d="M20.76.77,20.32,0H35.11l-.44.77Z"/><path d="M13.81,12.81h-.88L20.32,0l.44.77Z"/><path d="M16.68,13,16,12.62,21.7,2.78l.67.38Z"/><path d="M20.76,24.86l-.22.38H20.1L12.93,12.81h.88Z"/><path d="M8.24,38.05v-.77h4.91l.22.39-.22.38Z"/><circle class="connection_in" cx="5.24" cy="37.67" r="4.74"/></g></g></svg>