<svg xmlns="http://www.w3.org/2000/svg" viewBox="0 0 49.2 25.62"><defs><style>.cls-1{fill:#e64fff;stroke:#000;stroke-miterlimit:10;}</style></defs><title>Asset 84</title><g id="Layer_2" data-name="Layer 2"><g id="Layer_1-2" data-name="Layer 1"><path d="M20.5,12.81h-.45l-.22-.38L27,0l.44.76Z"/><path d="M23.37,13l-.66-.38,5.68-9.84.66.37Z"/><path d="M27.45,24.85l-.44.77L19.83,13.19l.22-.38h.45Z"/><path d="M41.36,24.85l.44.77H27l.44-.77Z"/><path d="M40.09,22.27V23H28.72v-.77Z"/><path d="M48.31,12.81h.89L41.8,25.62l-.44-.77Z"/><path d="M41.36.76,41.8,0l7.4,12.81h-.89Z"/><path d="M39.76,3.15l.66-.37,5.68,9.84-.66.38Z"/><path d="M27.45.76,27,0H41.8l-.44.76Z"/><path d="M9.37,13.19v-.76H19.83l.22.38-.22.38Z"/><circle class="cls-1" cx="5.24" cy="12.51" r="4.74"/></g></g></svg>