<svg xmlns="http://www.w3.org/2000/svg" viewBox="0 0 66.37 59.03"><defs><style>.cls-1{isolation:isolate;font-size:10px;font-family:Arial-BoldMT, Arial;font-weight:700;}.cls-2{fill:#ffb800;}.cls-2,.cls-3{stroke:#000;stroke-miterlimit:10;}.cls-3{fill:#e64fff;}</style></defs><title>Asset 76</title><g id="Layer_2" data-name="Layer 2"><g id="Layer_1-2" data-name="Layer 1"><text class="cls-1" transform="translate(0 8.58)">MeO</text><path d="M39.45,42.54,39,41.77l6.93-12h.44l.22.38Z"/><path d="M25.15,42.54l-.22-.39.22-.38H39l.44.77Z"/><path d="M26.42,40V39.2H37.74V40Z"/><path d="M20.66,50.32,20,49.94l4.5-7.79h.44l.22.39Z"/><path d="M17.34,29.77h.88l6.93,12-.22.38h-.44Z"/><path d="M24.49,17.39h.44l.22.38-6.93,12h-.88Z"/><path d="M26.08,19.77l.67.38L21.08,30l-.66-.38Z"/><path d="M20.16,9.89l.67-.38L25.15,17l-.22.39h-.44Z"/><path d="M39.45,17l-.44.77H25.15l-.22-.38.22-.39Z"/><path d="M39,17.77l.44-.77L46.6,29.39l-.22.38h-.44Z"/><path d="M37.41,20.15l.66-.38,5.67,9.81-.66.38Z"/><path d="M56.17,29.39v.76H46.6l-.22-.38.22-.38Z"/><circle class="cls-2" cx="61.02" cy="29.96" r="4.85"/><circle class="cls-3" cx="18.74" cy="53.79" r="4.74"/></g></g></svg>