<svg xmlns="http://www.w3.org/2000/svg" viewBox="0 0 54.2 45.01"><path d="M27,.77,27.43,0,34.6,12.43l-.22.38h-.44Z"/><path d="M25.38,3.16l.67-.39,5.68,9.85-.66.38Z"/><path d="M13.08.77,12.63,0h14.8L27,.77Z"/><path d="M6.12,12.81H5.24L12.63,0l.45.77Z"/><path d="M9,13l-.66-.38L14,2.77l.66.39Z"/><path d="M13.08,24.86l-.22.38h-.45L5.24,12.81h.88Z"/><path d="M8,34.45l-.66-.38,5.09-8.83h.45l.22.38Z"/><path d="M27,24.86l.23.38-.23.38H13.08l-.22-.38.22-.38Z"/><path d="M25.71,22.27V23H14.35v-.77Z"/><path d="M27.65,25.24h-.44L27,24.86l7-12h.44l.22.38Z"/><text transform="translate(31.33 41.24)">F</text><path d="M31.75,32.34l-.66.38L27,25.62l.23-.38h.44Z"/><path d="M44.22,12.43v.76H34.6l-.22-.38.22-.38Z"/><circle class="connection_out" cx="48.85" cy="12.32" r="4.85"/><circle class="connection_in" cx="5.24" cy="37.78" r="4.74"/></g></g></svg>